<svg width="45" height="37" viewBox="0 0 45 37" fill="none" xmlns="http://www.w3.org/2000/svg">
<path d="M2.76325 36.192C2.15525 36.192 1.64325 35.984 1.22725 35.568C0.81125 35.12 0.60325 34.608 0.60325 34.032C0.60325 33.456 0.81125 32.96 1.22725 32.544C1.64325 32.096 2.15525 31.872 2.76325 31.872C3.37125 31.872 3.88325 32.096 4.29925 32.544C4.71525 32.96 4.92325 33.456 4.92325 34.032C4.92325 34.608 4.71525 35.12 4.29925 35.568C3.88325 35.984 3.37125 36.192 2.76325 36.192ZM2.76325 18.24C2.15525 18.24 1.64325 18.032 1.22725 17.616C0.81125 17.168 0.60325 16.656 0.60325 16.08C0.60325 15.504 0.81125 15.008 1.22725 14.592C1.64325 14.144 2.15525 13.92 2.76325 13.92C3.37125 13.92 3.88325 14.144 4.29925 14.592C4.71525 15.008 4.92325 15.504 4.92325 16.08C4.92325 16.656 4.71525 17.168 4.29925 17.616C3.88325 18.032 3.37125 18.24 2.76325 18.24ZM11.0564 36V35.28L14.0804 34.464V16.032H9.85638V14.4H14.0804V12.48C14.0804 11.2 14.2884 9.84 14.7044 8.4C15.1524 6.96 15.7924 5.6 16.6244 4.32C17.4884 3.04 18.5604 2 19.8404 1.2C21.1204 0.399998 22.6084 -2.86102e-06 24.3044 -2.86102e-06C24.7204 -2.86102e-06 25.0884 0.0639973 25.4084 0.191998C25.9204 0.415998 26.1764 0.671999 26.1764 0.959999C26.1764 1.152 26.1284 1.36 26.0324 1.584L25.5044 2.88H25.4084L24.4004 2.544C23.4084 2.224 22.4484 2.064 21.5204 2.064C19.8884 2.064 18.6404 2.736 17.7764 4.08C16.9124 5.424 16.4804 7.584 16.4804 10.56V14.4H22.8164V16.032H16.4804V34.464L20.1764 35.28V36H11.0564ZM36.5001 36.48C34.2601 36.48 32.3721 36 30.8361 35.04C29.3321 34.08 28.1801 32.784 27.3801 31.152C26.6121 29.52 26.2281 27.68 26.2281 25.632C26.2281 23.392 26.6761 21.392 27.5721 19.632C28.5001 17.84 29.7641 16.448 31.3641 15.456C32.9961 14.432 34.8361 13.92 36.8841 13.92C38.1641 13.92 39.3001 14.096 40.2921 14.448C41.2841 14.8 42.0841 15.184 42.6921 15.6C43.7161 16.304 44.2281 16.912 44.2281 17.424C44.2281 17.648 44.1161 17.856 43.8921 18.048L42.5961 19.152H42.4041L41.7801 18.288C41.0761 17.328 40.3081 16.544 39.4761 15.936C38.6761 15.296 37.6361 14.976 36.3561 14.976C34.1161 14.976 32.2601 15.824 30.7881 17.52C29.3481 19.184 28.6281 21.68 28.6281 25.008C28.6281 27.824 29.3641 30.112 30.8361 31.872C32.3401 33.6 34.4521 34.464 37.1721 34.464C38.6441 34.464 40.0041 34.24 41.2521 33.792C42.5001 33.344 43.4761 32.736 44.1801 31.968H44.3241V32.592C43.5881 33.712 42.5481 34.64 41.2041 35.376C39.8601 36.112 38.2921 36.48 36.5001 36.48Z" fill="black"/>
</svg>
