<svg width="61" height="49" viewBox="0 0 61 49" fill="none" xmlns="http://www.w3.org/2000/svg">
<path d="M3.95825 48.32C3.01958 48.32 2.20892 47.9787 1.52625 47.296C0.843584 46.5707 0.50225 45.7387 0.50225 44.8C0.50225 43.8613 0.843584 43.0507 1.52625 42.368C2.20892 41.6853 3.01958 41.344 3.95825 41.344C4.89692 41.344 5.70758 41.6853 6.39025 42.368C7.11558 43.0507 7.47825 43.8613 7.47825 44.8C7.47825 45.7387 7.11558 46.5707 6.39025 47.296C5.70758 47.9787 4.89692 48.32 3.95825 48.32ZM3.95825 25.536C3.01958 25.536 2.20892 25.1947 1.52625 24.512C0.843584 23.7867 0.50225 22.9547 0.50225 22.016C0.50225 21.0773 0.843584 20.2667 1.52625 19.584C2.20892 18.9013 3.01958 18.56 3.95825 18.56C4.89692 18.56 5.70758 18.9013 6.39025 19.584C7.11558 20.2667 7.47825 21.0773 7.47825 22.016C7.47825 22.9547 7.11558 23.7867 6.39025 24.512C5.70758 25.1947 4.89692 25.536 3.95825 25.536ZM15.3058 48V46.976L19.3378 45.376V21.888H14.0898V19.2H19.3378V16.64C19.3378 15.5733 19.5298 14.336 19.9138 12.928C20.3404 11.4773 20.9378 10.0053 21.7058 8.512C22.5164 7.01867 23.4978 5.632 24.6498 4.352C25.8018 3.072 27.1244 2.02667 28.6178 1.216C30.1111 0.405331 31.7751 -3.8147e-06 33.6098 -3.8147e-06C33.9511 -3.8147e-06 34.2924 0.0639966 34.6338 0.191998C35.0178 0.27733 35.3164 0.362663 35.5298 0.447998C36.5538 0.874664 37.0658 1.36533 37.0658 1.92C37.0658 2.048 37.0444 2.21867 37.0018 2.432C37.0018 2.60267 36.9591 2.77333 36.8738 2.944L35.8498 5.504H35.5298L33.9298 4.928C32.6924 4.45867 31.3484 4.224 29.8978 4.224C27.6364 4.224 26.0364 5.03467 25.0978 6.656C24.1591 8.23466 23.6898 10.7093 23.6898 14.08V19.2H32.1378V21.888H23.6898V45.44L28.3618 46.976V48H15.3058ZM49.8603 48.64C47.0016 48.64 44.5696 48.0427 42.5642 46.848C40.5589 45.6533 39.0229 44.0107 37.9563 41.92C36.8896 39.7867 36.3563 37.3333 36.3563 34.56C36.3563 31.488 36.9749 28.7573 38.2123 26.368C39.4923 23.936 41.2203 22.0373 43.3963 20.672C45.6149 19.264 48.1109 18.56 50.8843 18.56C52.5909 18.56 54.1909 18.8373 55.6843 19.392C57.2203 19.904 58.3936 20.544 59.2043 21.312C59.6736 21.7813 60.0149 22.1867 60.2283 22.528C60.4843 22.8693 60.6123 23.1893 60.6123 23.488C60.6123 23.9573 60.3989 24.3627 59.9723 24.704L57.7963 26.496H57.4123L55.8123 24.32C55.0443 23.296 54.1483 22.464 53.1243 21.824C52.1003 21.1413 50.8416 20.8 49.3483 20.8C46.7456 20.8 44.6336 21.824 43.0123 23.872C41.4336 25.8773 40.6443 28.7573 40.6443 32.512C40.6443 34.7307 41.0283 36.7787 41.7963 38.656C42.5643 40.4907 43.7589 41.9627 45.3803 43.072C47.0443 44.1387 49.1989 44.672 51.8443 44.672C55.0016 44.672 57.9029 43.7333 60.5483 41.856H60.7403V42.56C59.7589 44.2667 58.3296 45.7173 56.4523 46.912C54.5749 48.064 52.3776 48.64 49.8603 48.64Z" fill="black"/>
</svg>
