<svg width="53" height="45" viewBox="0 0 53 45" fill="none" xmlns="http://www.w3.org/2000/svg">
<path d="M2.75559 44.232C2.02093 44.232 1.40226 43.9807 0.899594 43.478C0.396927 42.9367 0.145594 42.318 0.145594 41.622C0.145594 40.926 0.396927 40.3267 0.899594 39.824C1.40226 39.2827 2.02093 39.012 2.75559 39.012C3.49026 39.012 4.10893 39.2827 4.61159 39.824C5.11426 40.3267 5.36559 40.926 5.36559 41.622C5.36559 42.318 5.11426 42.9367 4.61159 43.478C4.10893 43.9807 3.49026 44.232 2.75559 44.232ZM2.75559 22.54C2.02093 22.54 1.40226 22.2887 0.899594 21.786C0.396927 21.2447 0.145594 20.626 0.145594 19.93C0.145594 19.234 0.396927 18.6347 0.899594 18.132C1.40226 17.5907 2.02093 17.32 2.75559 17.32C3.49026 17.32 4.10893 17.5907 4.61159 18.132C5.11426 18.6347 5.36559 19.234 5.36559 19.93C5.36559 20.626 5.11426 21.2447 4.61159 21.786C4.10893 22.2887 3.49026 22.54 2.75559 22.54ZM12.7765 44V43.13L16.4305 42.144V19.872H11.3265V17.9H16.4305V15.58C16.4305 14.0333 16.6818 12.39 17.1845 10.65C17.7258 8.91 18.4991 7.26667 19.5045 5.72C20.5485 4.17333 21.8438 2.91666 23.3905 1.95C24.9371 0.983331 26.7351 0.499997 28.7845 0.499997C29.2871 0.499997 29.7318 0.57733 30.1185 0.731997C30.7371 1.00266 31.0465 1.312 31.0465 1.66C31.0465 1.892 30.9885 2.14333 30.8725 2.414L30.2345 3.98H30.1185L28.9005 3.574C27.7018 3.18733 26.5418 2.994 25.4205 2.994C23.4485 2.994 21.9405 3.806 20.8965 5.43C19.8525 7.054 19.3305 9.664 19.3305 13.26V17.9H26.9865V19.872H19.3305V42.144L23.7965 43.13V44H12.7765ZM43.521 44.58C40.8143 44.58 38.533 44 36.677 42.84C34.8597 41.68 33.4677 40.114 32.501 38.142C31.573 36.17 31.109 33.9467 31.109 31.472C31.109 28.7653 31.6503 26.3487 32.733 24.222C33.8543 22.0567 35.3817 20.3747 37.315 19.176C39.287 17.9387 41.5103 17.32 43.985 17.32C45.5317 17.32 46.9043 17.5327 48.103 17.958C49.3017 18.3833 50.2683 18.8473 51.003 19.35C52.2403 20.2007 52.859 20.9353 52.859 21.554C52.859 21.8247 52.7237 22.076 52.453 22.308L50.887 23.642H50.655L49.901 22.598C49.0503 21.438 48.1223 20.4907 47.117 19.756C46.1503 18.9827 44.8937 18.596 43.347 18.596C40.6403 18.596 38.3977 19.6207 36.619 21.67C34.879 23.6807 34.009 26.6967 34.009 30.718C34.009 34.1207 34.8983 36.8853 36.677 39.012C38.4943 41.1 41.0463 42.144 44.333 42.144C46.1117 42.144 47.755 41.8733 49.263 41.332C50.771 40.7907 51.9503 40.056 52.801 39.128H52.975V39.882C52.0857 41.2353 50.829 42.3567 49.205 43.246C47.581 44.1353 45.6863 44.58 43.521 44.58Z" fill="black"/>
</svg>
