<svg width="400" height="264" viewBox="0 0 400 264" fill="none" xmlns="http://www.w3.org/2000/svg">
<rect width="400" height="264" rx="16" fill="#424242"/>
<path d="M50.377 119.168V100.436L48.557 99.428V99.12L52.057 98H52.281V107.856H52.393C53.1023 107.259 53.793 106.82 54.465 106.54C55.137 106.26 55.8463 106.12 56.593 106.12C57.5263 106.12 58.357 106.363 59.085 106.848C59.8317 107.333 60.4103 108.024 60.821 108.92C61.2503 109.797 61.465 110.852 61.465 112.084C61.465 113.615 61.1663 114.921 60.569 116.004C59.9903 117.068 59.2063 117.88 58.217 118.44C57.2277 119 56.1263 119.28 54.913 119.28C54.2597 119.28 53.6157 119.196 52.981 119.028C52.365 118.86 51.7957 118.655 51.273 118.412L50.601 119.168H50.377ZM55.361 107.66C54.2597 107.66 53.233 108.015 52.281 108.724V117.012C53.3077 117.796 54.4557 118.188 55.725 118.188C56.4157 118.188 57.0503 118.011 57.629 117.656C58.2263 117.283 58.7023 116.685 59.057 115.864C59.4117 115.043 59.589 113.969 59.589 112.644C59.589 111.487 59.393 110.544 59.001 109.816C58.609 109.069 58.0863 108.528 57.433 108.192C56.7983 107.837 56.1077 107.66 55.361 107.66ZM64.3976 119V118.552L66.1616 117.852V100.436L64.3416 99.344V99.064L67.8416 98H68.0656V117.852L69.9136 118.552V119H64.3976ZM77.7019 119.28C76.6006 119.28 75.6859 118.981 74.9579 118.384C74.2486 117.787 73.8939 116.919 73.8939 115.78V107.548L72.0459 106.848V106.4H75.7979V114.688C75.7979 115.64 76.0686 116.368 76.6099 116.872C77.1513 117.357 77.8606 117.6 78.7379 117.6C79.2606 117.6 79.8206 117.497 80.4179 117.292C81.0339 117.087 81.5286 116.779 81.9019 116.368V107.548L79.8019 106.848V106.4H83.8059V117.88L85.7939 118.552V119H81.9019V117.264H81.7899C81.0806 117.973 80.4086 118.487 79.7739 118.804C79.1393 119.121 78.4486 119.28 77.7019 119.28ZM88.3938 119V118.552L90.1578 117.852V108.556L88.3378 107.604V107.296L91.6138 106.12H91.8378L92.0338 108.556H92.1178C92.6778 107.828 93.1445 107.296 93.5178 106.96C93.9098 106.605 94.2645 106.381 94.5818 106.288C94.8991 106.176 95.2165 106.12 95.5338 106.12C95.6831 106.12 95.8511 106.148 96.0378 106.204C96.2245 106.241 96.3738 106.288 96.4858 106.344C96.6911 106.419 96.8591 106.512 96.9898 106.624C97.1205 106.736 97.1858 106.857 97.1858 106.988C97.1858 107.044 97.1765 107.109 97.1578 107.184C97.1578 107.259 97.1391 107.333 97.1018 107.408L96.6538 108.528H96.5138L95.6738 108.164C95.3378 108.033 94.9645 107.968 94.5538 107.968C94.0871 107.968 93.6485 108.089 93.2378 108.332C92.8271 108.575 92.4351 108.976 92.0618 109.536V117.852L94.1058 118.552V119H88.3938ZM98.8678 112.616V110.992H106.568V112.616H98.8678ZM108.377 119V118.44L110.057 117.74L117.197 100.38H118.177L125.289 117.712L127.053 118.44V119H120.529V118.44L122.937 117.712L120.753 112.252H113.837L111.681 117.74L114.089 118.44V119H108.377ZM114.369 110.936H120.221L117.281 103.6L114.369 110.936ZM132.744 119V118.44L135.544 117.6V101.836H130.616L129.02 105.952H128.516V100.52H144.756V105.952H144.252L142.656 101.836H137.728V117.6L140.528 118.44V119H132.744ZM148.057 119V118.44L150.269 117.6V101.92L148.057 101.08V100.52H161.273V105.224H160.797L159.285 101.836H152.453V108.808H157.353L158.473 106.484H158.949V112.392H158.473L157.353 110.124H152.453V117.684H160.069L161.581 114.016H162.057V119H148.057ZM167.539 119.14C167.128 119.14 166.774 118.991 166.475 118.692C166.176 118.375 166.027 118.011 166.027 117.6C166.027 117.189 166.176 116.835 166.475 116.536C166.774 116.237 167.128 116.088 167.539 116.088C167.95 116.088 168.304 116.237 168.603 116.536C168.92 116.835 169.079 117.189 169.079 117.6C169.079 118.011 168.92 118.375 168.603 118.692C168.304 118.991 167.95 119.14 167.539 119.14ZM167.539 109.172C167.128 109.172 166.774 109.023 166.475 108.724C166.176 108.407 166.027 108.043 166.027 107.632C166.027 107.221 166.176 106.867 166.475 106.568C166.774 106.269 167.128 106.12 167.539 106.12C167.95 106.12 168.304 106.269 168.603 106.568C168.92 106.867 169.079 107.221 169.079 107.632C169.079 108.043 168.92 108.407 168.603 108.724C168.304 109.023 167.95 109.172 167.539 109.172ZM183.815 119V118.44L186.615 117.6V101.836H181.687L180.091 105.952H179.587V100.52H195.827V105.952H195.323L193.727 101.836H188.799V117.6L191.599 118.44V119H183.815ZM202.685 119.056L198.485 107.576L196.665 106.848V106.4H202.825V106.848L200.585 107.52V107.66L203.525 116.228H203.609L207.585 106.4H208.089L212.065 116.144H212.177L215.033 107.772V107.632L212.905 106.848V106.4H218.169V106.848L216.209 107.632L211.785 119.056H211.309L207.305 109.48L203.161 119.056H202.685ZM225.132 119.28C223.938 119.28 222.892 118.991 221.996 118.412C221.1 117.833 220.4 117.049 219.896 116.06C219.392 115.071 219.14 113.951 219.14 112.7C219.14 111.449 219.392 110.329 219.896 109.34C220.4 108.351 221.1 107.567 221.996 106.988C222.892 106.409 223.938 106.12 225.132 106.12C226.327 106.12 227.372 106.409 228.268 106.988C229.164 107.567 229.864 108.351 230.368 109.34C230.872 110.329 231.124 111.449 231.124 112.7C231.124 113.951 230.872 115.071 230.368 116.06C229.864 117.049 229.164 117.833 228.268 118.412C227.372 118.991 226.327 119.28 225.132 119.28ZM225.524 118.3C226.308 118.3 226.962 118.057 227.484 117.572C228.007 117.087 228.399 116.461 228.66 115.696C228.922 114.912 229.052 114.1 229.052 113.26C229.052 112.196 228.894 111.197 228.576 110.264C228.278 109.312 227.811 108.547 227.176 107.968C226.56 107.371 225.767 107.072 224.796 107.072C224.012 107.072 223.35 107.305 222.808 107.772C222.286 108.239 221.884 108.855 221.604 109.62C221.343 110.385 221.212 111.216 221.212 112.112C221.212 113.195 221.371 114.212 221.688 115.164C222.006 116.097 222.482 116.853 223.116 117.432C223.751 118.011 224.554 118.3 225.524 118.3ZM246.421 119.28C245.32 119.28 244.405 118.981 243.677 118.384C242.968 117.787 242.613 116.919 242.613 115.78V107.548L240.765 106.848V106.4H244.517V114.688C244.517 115.64 244.788 116.368 245.329 116.872C245.871 117.357 246.58 117.6 247.457 117.6C247.98 117.6 248.54 117.497 249.137 117.292C249.753 117.087 250.248 116.779 250.621 116.368V107.548L248.521 106.848V106.4H252.525V117.88L254.513 118.552V119H250.621V117.264H250.509C249.8 117.973 249.128 118.487 248.493 118.804C247.859 119.121 247.168 119.28 246.421 119.28ZM261.145 119.28C260.361 119.28 259.67 119.205 259.073 119.056C258.494 118.907 257.906 118.683 257.309 118.384V115.332H257.673L258.373 116.76C258.616 117.283 258.961 117.693 259.409 117.992C259.876 118.272 260.473 118.412 261.201 118.412C262.022 118.412 262.648 118.225 263.077 117.852C263.525 117.46 263.749 116.909 263.749 116.2C263.749 115.435 263.497 114.865 262.993 114.492C262.489 114.119 261.742 113.717 260.753 113.288C259.726 112.859 258.952 112.383 258.429 111.86C257.906 111.337 257.645 110.6 257.645 109.648C257.645 109.013 257.822 108.425 258.177 107.884C258.55 107.343 259.026 106.913 259.605 106.596C260.184 106.279 260.79 106.12 261.425 106.12C262.134 106.12 262.769 106.204 263.329 106.372C263.889 106.54 264.421 106.755 264.925 107.016V109.984H264.561L263.861 108.612C263.618 108.033 263.273 107.623 262.825 107.38C262.396 107.137 261.948 107.016 261.481 107.016C260.809 107.016 260.277 107.203 259.885 107.576C259.512 107.931 259.325 108.416 259.325 109.032C259.325 109.667 259.54 110.171 259.969 110.544C260.417 110.899 261.089 111.272 261.985 111.664C262.62 111.944 263.198 112.233 263.721 112.532C264.244 112.812 264.654 113.185 264.953 113.652C265.27 114.119 265.429 114.763 265.429 115.584C265.429 116.331 265.224 116.984 264.813 117.544C264.402 118.085 263.87 118.515 263.217 118.832C262.564 119.131 261.873 119.28 261.145 119.28ZM274.89 119.28C273.64 119.28 272.566 119.019 271.67 118.496C270.793 117.973 270.121 117.255 269.654 116.34C269.188 115.407 268.954 114.333 268.954 113.12C268.954 111.776 269.225 110.581 269.766 109.536C270.308 108.472 271.026 107.641 271.922 107.044C272.818 106.428 273.789 106.12 274.834 106.12C276.309 106.12 277.466 106.624 278.306 107.632C279.146 108.64 279.594 110.059 279.65 111.888L279.538 112H270.83C270.83 112.075 270.83 112.149 270.83 112.224C270.83 113.195 270.998 114.091 271.334 114.912C271.67 115.715 272.202 116.359 272.93 116.844C273.658 117.311 274.601 117.544 275.758 117.544C277.14 117.544 278.409 117.133 279.566 116.312H279.65V116.62C279.24 117.367 278.614 118.001 277.774 118.524C276.953 119.028 275.992 119.28 274.89 119.28ZM274.414 107.1C273.518 107.1 272.753 107.445 272.118 108.136C271.484 108.808 271.082 109.76 270.914 110.992H277.746C277.373 108.397 276.262 107.1 274.414 107.1ZM282.881 119V118.552L284.645 117.852V108.556L282.825 107.604V107.296L286.101 106.12H286.325L286.521 108.556H286.605C287.165 107.828 287.632 107.296 288.005 106.96C288.397 106.605 288.752 106.381 289.069 106.288C289.387 106.176 289.704 106.12 290.021 106.12C290.171 106.12 290.339 106.148 290.525 106.204C290.712 106.241 290.861 106.288 290.973 106.344C291.179 106.419 291.347 106.512 291.477 106.624C291.608 106.736 291.673 106.857 291.673 106.988C291.673 107.044 291.664 107.109 291.645 107.184C291.645 107.259 291.627 107.333 291.589 107.408L291.141 108.528H291.001L290.161 108.164C289.825 108.033 289.452 107.968 289.041 107.968C288.575 107.968 288.136 108.089 287.725 108.332C287.315 108.575 286.923 108.976 286.549 109.536V117.852L288.593 118.552V119H282.881ZM305.053 119.28C304.269 119.28 303.578 119.205 302.981 119.056C302.402 118.907 301.814 118.683 301.217 118.384V115.332H301.581L302.281 116.76C302.523 117.283 302.869 117.693 303.317 117.992C303.783 118.272 304.381 118.412 305.109 118.412C305.93 118.412 306.555 118.225 306.985 117.852C307.433 117.46 307.657 116.909 307.657 116.2C307.657 115.435 307.405 114.865 306.901 114.492C306.397 114.119 305.65 113.717 304.661 113.288C303.634 112.859 302.859 112.383 302.337 111.86C301.814 111.337 301.553 110.6 301.553 109.648C301.553 109.013 301.73 108.425 302.085 107.884C302.458 107.343 302.934 106.913 303.513 106.596C304.091 106.279 304.698 106.12 305.333 106.12C306.042 106.12 306.677 106.204 307.237 106.372C307.797 106.54 308.329 106.755 308.833 107.016V109.984H308.469L307.769 108.612C307.526 108.033 307.181 107.623 306.733 107.38C306.303 107.137 305.855 107.016 305.389 107.016C304.717 107.016 304.185 107.203 303.793 107.576C303.419 107.931 303.233 108.416 303.233 109.032C303.233 109.667 303.447 110.171 303.877 110.544C304.325 110.899 304.997 111.272 305.893 111.664C306.527 111.944 307.106 112.233 307.629 112.532C308.151 112.812 308.562 113.185 308.861 113.652C309.178 114.119 309.337 114.763 309.337 115.584C309.337 116.331 309.131 116.984 308.721 117.544C308.31 118.085 307.778 118.515 307.125 118.832C306.471 119.131 305.781 119.28 305.053 119.28ZM318.798 119.28C317.547 119.28 316.474 119.019 315.578 118.496C314.701 117.973 314.029 117.255 313.562 116.34C313.095 115.407 312.862 114.333 312.862 113.12C312.862 111.776 313.133 110.581 313.674 109.536C314.215 108.472 314.934 107.641 315.83 107.044C316.726 106.428 317.697 106.12 318.742 106.12C320.217 106.12 321.374 106.624 322.214 107.632C323.054 108.64 323.502 110.059 323.558 111.888L323.446 112H314.738C314.738 112.075 314.738 112.149 314.738 112.224C314.738 113.195 314.906 114.091 315.242 114.912C315.578 115.715 316.11 116.359 316.838 116.844C317.566 117.311 318.509 117.544 319.666 117.544C321.047 117.544 322.317 117.133 323.474 116.312H323.558V116.62C323.147 117.367 322.522 118.001 321.682 118.524C320.861 119.028 319.899 119.28 318.798 119.28ZM318.322 107.1C317.426 107.1 316.661 107.445 316.026 108.136C315.391 108.808 314.99 109.76 314.822 110.992H321.654C321.281 108.397 320.17 107.1 318.322 107.1ZM330.933 119.28C330.13 119.28 329.449 119.037 328.889 118.552C328.348 118.067 328.077 117.385 328.077 116.508V107.576H325.725V107.352L328.217 106.4L329.757 103.32H329.981V106.4H333.677V107.576H329.981V116.2C329.981 116.723 330.177 117.115 330.569 117.376C330.961 117.619 331.456 117.74 332.053 117.74C332.426 117.74 332.772 117.712 333.089 117.656C333.406 117.581 333.696 117.497 333.957 117.404L334.013 117.432V117.628C333.826 118.001 333.472 118.375 332.949 118.748C332.445 119.103 331.773 119.28 330.933 119.28ZM340.67 119.28C339.886 119.28 339.195 119.205 338.598 119.056C338.019 118.907 337.431 118.683 336.834 118.384V115.332H337.198L337.898 116.76C338.141 117.283 338.486 117.693 338.934 117.992C339.401 118.272 339.998 118.412 340.726 118.412C341.547 118.412 342.173 118.225 342.602 117.852C343.05 117.46 343.274 116.909 343.274 116.2C343.274 115.435 343.022 114.865 342.518 114.492C342.014 114.119 341.267 113.717 340.278 113.288C339.251 112.859 338.477 112.383 337.954 111.86C337.431 111.337 337.17 110.6 337.17 109.648C337.17 109.013 337.347 108.425 337.702 107.884C338.075 107.343 338.551 106.913 339.13 106.596C339.709 106.279 340.315 106.12 340.95 106.12C341.659 106.12 342.294 106.204 342.854 106.372C343.414 106.54 343.946 106.755 344.45 107.016V109.984H344.086L343.386 108.612C343.143 108.033 342.798 107.623 342.35 107.38C341.921 107.137 341.473 107.016 341.006 107.016C340.334 107.016 339.802 107.203 339.41 107.576C339.037 107.931 338.85 108.416 338.85 109.032C338.85 109.667 339.065 110.171 339.494 110.544C339.942 110.899 340.614 111.272 341.51 111.664C342.145 111.944 342.723 112.233 343.246 112.532C343.769 112.812 344.179 113.185 344.478 113.652C344.795 114.119 344.954 114.763 344.954 115.584C344.954 116.331 344.749 116.984 344.338 117.544C343.927 118.085 343.395 118.515 342.742 118.832C342.089 119.131 341.398 119.28 340.67 119.28ZM348.32 124.572V124.012C349.832 123.209 350.588 122.211 350.588 121.016C350.588 120.493 350.458 120.064 350.196 119.728C349.954 119.392 349.627 119.103 349.216 118.86L348.348 118.328L348.292 118.104L348.936 117.012C349.16 116.62 349.384 116.424 349.608 116.424C349.814 116.424 350.038 116.499 350.28 116.648C350.84 116.965 351.26 117.413 351.54 117.992C351.839 118.571 351.988 119.196 351.988 119.868C351.988 120.764 351.708 121.623 351.148 122.444C350.588 123.284 349.646 123.993 348.32 124.572ZM24.9041 162.28C24.1201 162.28 23.4295 162.205 22.8321 162.056C22.2535 161.907 21.6655 161.683 21.0681 161.384V158.332H21.4321L22.1321 159.76C22.3748 160.283 22.7201 160.693 23.1681 160.992C23.6348 161.272 24.2321 161.412 24.9601 161.412C25.7815 161.412 26.4068 161.225 26.8361 160.852C27.2841 160.46 27.5081 159.909 27.5081 159.2C27.5081 158.435 27.2561 157.865 26.7521 157.492C26.2481 157.119 25.5015 156.717 24.5121 156.288C23.4855 155.859 22.7108 155.383 22.1881 154.86C21.6655 154.337 21.4041 153.6 21.4041 152.648C21.4041 152.013 21.5815 151.425 21.9361 150.884C22.3095 150.343 22.7855 149.913 23.3641 149.596C23.9428 149.279 24.5495 149.12 25.1841 149.12C25.8935 149.12 26.5281 149.204 27.0881 149.372C27.6481 149.54 28.1801 149.755 28.6841 150.016V152.984H28.3201L27.6201 151.612C27.3775 151.033 27.0321 150.623 26.5841 150.38C26.1548 150.137 25.7068 150.016 25.2401 150.016C24.5681 150.016 24.0361 150.203 23.6441 150.576C23.2708 150.931 23.0841 151.416 23.0841 152.032C23.0841 152.667 23.2988 153.171 23.7281 153.544C24.1761 153.899 24.8481 154.272 25.7441 154.664C26.3788 154.944 26.9575 155.233 27.4801 155.532C28.0028 155.812 28.4135 156.185 28.7121 156.652C29.0295 157.119 29.1881 157.763 29.1881 158.584C29.1881 159.331 28.9828 159.984 28.5721 160.544C28.1615 161.085 27.6295 161.515 26.9761 161.832C26.3228 162.131 25.6321 162.28 24.9041 162.28ZM38.6493 162.28C37.3986 162.28 36.3253 162.019 35.4293 161.496C34.5519 160.973 33.8799 160.255 33.4133 159.34C32.9466 158.407 32.7133 157.333 32.7133 156.12C32.7133 154.776 32.9839 153.581 33.5253 152.536C34.0666 151.472 34.7853 150.641 35.6813 150.044C36.5773 149.428 37.5479 149.12 38.5933 149.12C40.0679 149.12 41.2253 149.624 42.0653 150.632C42.9053 151.64 43.3533 153.059 43.4093 154.888L43.2973 155H34.5893C34.5893 155.075 34.5893 155.149 34.5893 155.224C34.5893 156.195 34.7573 157.091 35.0933 157.912C35.4293 158.715 35.9613 159.359 36.6893 159.844C37.4173 160.311 38.3599 160.544 39.5173 160.544C40.8986 160.544 42.1679 160.133 43.3253 159.312H43.4093V159.62C42.9986 160.367 42.3733 161.001 41.5333 161.524C40.7119 162.028 39.7506 162.28 38.6493 162.28ZM38.1733 150.1C37.2773 150.1 36.5119 150.445 35.8773 151.136C35.2426 151.808 34.8413 152.76 34.6733 153.992H41.5053C41.1319 151.397 40.0213 150.1 38.1733 150.1ZM52.5178 162.28C51.2671 162.28 50.1938 162.019 49.2978 161.496C48.4205 160.973 47.7485 160.255 47.2818 159.34C46.8151 158.407 46.5818 157.333 46.5818 156.12C46.5818 154.776 46.8525 153.581 47.3938 152.536C47.9351 151.472 48.6538 150.641 49.5498 150.044C50.4458 149.428 51.4165 149.12 52.4618 149.12C53.9365 149.12 55.0938 149.624 55.9338 150.632C56.7738 151.64 57.2218 153.059 57.2778 154.888L57.1658 155H48.4578C48.4578 155.075 48.4578 155.149 48.4578 155.224C48.4578 156.195 48.6258 157.091 48.9618 157.912C49.2978 158.715 49.8298 159.359 50.5578 159.844C51.2858 160.311 52.2285 160.544 53.3858 160.544C54.7671 160.544 56.0365 160.133 57.1938 159.312H57.2778V159.62C56.8671 160.367 56.2418 161.001 55.4018 161.524C54.5805 162.028 53.6191 162.28 52.5178 162.28ZM52.0418 150.1C51.1458 150.1 50.3805 150.445 49.7458 151.136C49.1111 151.808 48.7098 152.76 48.5418 153.992H55.3738C55.0005 151.397 53.8898 150.1 52.0418 150.1ZM60.2876 162V161.552L62.0516 160.852V143.436L60.2316 142.344V142.064L63.7316 141H63.9556V154.916L68.6876 150.828V150.66L67.3156 149.848V149.4H72.2996V149.848L70.5076 150.632L65.6356 154.412L71.5436 160.796L73.3356 161.552V162H69.9196L68.9956 160.74L63.9556 155.224V160.88L65.9436 161.552V162H60.2876ZM85.9327 162.28C85.0554 162.28 84.3274 162.028 83.7487 161.524C83.1701 161.001 82.8807 160.283 82.8807 159.368C82.8807 158.453 83.2167 157.679 83.8887 157.044C84.5607 156.409 85.6714 155.905 87.2207 155.532L89.9367 154.86V152.704C89.9367 151.995 89.6567 151.407 89.0967 150.94C88.5554 150.473 87.9487 150.24 87.2767 150.24C86.5301 150.24 86.0074 150.417 85.7087 150.772C85.4101 151.127 85.2607 151.612 85.2607 152.228V153.152L85.1207 153.292H83.9447C83.6647 153.292 83.4687 153.255 83.3567 153.18C83.2634 153.087 83.2167 152.881 83.2167 152.564C83.2167 152.172 83.3381 151.771 83.5807 151.36C83.8234 150.949 84.1874 150.595 84.6727 150.296C85.1954 149.96 85.7274 149.68 86.2687 149.456C86.8287 149.232 87.3887 149.12 87.9487 149.12C88.6581 149.12 89.3021 149.223 89.8807 149.428C90.4594 149.615 90.9261 149.932 91.2807 150.38C91.6354 150.828 91.8127 151.425 91.8127 152.172V160.432C91.9621 160.581 92.1487 160.693 92.3727 160.768C92.5967 160.843 92.8861 160.88 93.2407 160.88H94.4727L94.5287 160.936V160.992C94.3421 161.309 94.0527 161.608 93.6607 161.888C93.2874 162.149 92.8114 162.28 92.2327 162.28C91.6354 162.28 91.1594 162.121 90.8047 161.804C90.4501 161.487 90.2074 161.085 90.0767 160.6H89.9367C89.4514 161.085 88.8541 161.487 88.1447 161.804C87.4541 162.121 86.7167 162.28 85.9327 162.28ZM84.7567 158.836C84.7567 159.489 84.9527 159.984 85.3447 160.32C85.7367 160.637 86.2874 160.796 86.9967 160.796C87.4634 160.796 87.9394 160.74 88.4247 160.628C88.9101 160.516 89.4141 160.329 89.9367 160.068V155.672C88.4247 155.971 87.2954 156.279 86.5487 156.596C85.8207 156.913 85.3354 157.259 85.0927 157.632C84.8687 157.987 84.7567 158.388 84.7567 158.836ZM103.618 162V161.552L105.382 160.852V143.436L103.562 142.344V142.064L107.062 141H107.286V160.852L109.134 161.552V162H103.618ZM114.708 145.312C114.298 145.312 113.952 145.181 113.672 144.92C113.411 144.64 113.28 144.295 113.28 143.884C113.28 143.455 113.411 143.109 113.672 142.848C113.952 142.587 114.298 142.456 114.708 142.456C115.138 142.456 115.483 142.587 115.744 142.848C116.006 143.109 116.136 143.455 116.136 143.884C116.136 144.295 116.006 144.64 115.744 144.92C115.483 145.181 115.138 145.312 114.708 145.312ZM112.216 162V161.552L113.98 160.852V151.556L112.16 150.464V150.184L115.66 149.12H115.884V160.852L117.732 161.552V162H112.216ZM120.885 162V161.552L122.649 160.852V151.556L120.829 150.604V150.296L124.105 149.12H124.329L124.525 151.164H124.637C125.347 150.473 126.019 149.96 126.653 149.624C127.307 149.288 128.025 149.12 128.809 149.12C129.929 149.12 130.853 149.419 131.581 150.016C132.309 150.613 132.673 151.481 132.673 152.62V160.852L134.437 161.552V162H128.781V161.552L130.769 160.852V153.712C130.769 152.76 130.489 152.041 129.929 151.556C129.369 151.052 128.651 150.8 127.773 150.8C127.251 150.8 126.672 150.912 126.037 151.136C125.421 151.341 124.927 151.64 124.553 152.032V160.852L126.541 161.552V162H120.885ZM143.068 162.28C141.817 162.28 140.744 162.019 139.848 161.496C138.97 160.973 138.298 160.255 137.832 159.34C137.365 158.407 137.132 157.333 137.132 156.12C137.132 154.776 137.402 153.581 137.944 152.536C138.485 151.472 139.204 150.641 140.1 150.044C140.996 149.428 141.966 149.12 143.012 149.12C144.486 149.12 145.644 149.624 146.484 150.632C147.324 151.64 147.772 153.059 147.828 154.888L147.716 155H139.008C139.008 155.075 139.008 155.149 139.008 155.224C139.008 156.195 139.176 157.091 139.512 157.912C139.848 158.715 140.38 159.359 141.108 159.844C141.836 160.311 142.778 160.544 143.936 160.544C145.317 160.544 146.586 160.133 147.744 159.312H147.828V159.62C147.417 160.367 146.792 161.001 145.952 161.524C145.13 162.028 144.169 162.28 143.068 162.28ZM142.592 150.1C141.696 150.1 140.93 150.445 140.296 151.136C139.661 151.808 139.26 152.76 139.092 153.992H145.924C145.55 151.397 144.44 150.1 142.592 150.1ZM164.107 162.28C162.912 162.28 161.867 161.991 160.971 161.412C160.075 160.833 159.375 160.049 158.871 159.06C158.367 158.071 158.115 156.951 158.115 155.7C158.115 154.449 158.367 153.329 158.871 152.34C159.375 151.351 160.075 150.567 160.971 149.988C161.867 149.409 162.912 149.12 164.107 149.12C165.301 149.12 166.347 149.409 167.243 149.988C168.139 150.567 168.839 151.351 169.343 152.34C169.847 153.329 170.099 154.449 170.099 155.7C170.099 156.951 169.847 158.071 169.343 159.06C168.839 160.049 168.139 160.833 167.243 161.412C166.347 161.991 165.301 162.28 164.107 162.28ZM164.499 161.3C165.283 161.3 165.936 161.057 166.459 160.572C166.981 160.087 167.373 159.461 167.635 158.696C167.896 157.912 168.027 157.1 168.027 156.26C168.027 155.196 167.868 154.197 167.551 153.264C167.252 152.312 166.785 151.547 166.151 150.968C165.535 150.371 164.741 150.072 163.771 150.072C162.987 150.072 162.324 150.305 161.783 150.772C161.26 151.239 160.859 151.855 160.579 152.62C160.317 153.385 160.187 154.216 160.187 155.112C160.187 156.195 160.345 157.212 160.663 158.164C160.98 159.097 161.456 159.853 162.091 160.432C162.725 161.011 163.528 161.3 164.499 161.3ZM173.356 162V161.552L175.12 160.852V150.576H172.824V149.4H175.12V148.28C175.12 147.813 175.204 147.272 175.372 146.656C175.558 146.021 175.82 145.377 176.156 144.724C176.51 144.071 176.94 143.464 177.444 142.904C177.948 142.344 178.526 141.887 179.18 141.532C179.833 141.177 180.561 141 181.364 141C181.513 141 181.662 141.028 181.812 141.084C181.98 141.121 182.11 141.159 182.204 141.196C182.652 141.383 182.876 141.597 182.876 141.84C182.876 141.896 182.866 141.971 182.848 142.064C182.848 142.139 182.829 142.213 182.792 142.288L182.344 143.408H182.204L181.504 143.156C180.962 142.951 180.374 142.848 179.74 142.848C178.75 142.848 178.05 143.203 177.64 143.912C177.229 144.603 177.024 145.685 177.024 147.16V149.4H180.72V150.576H177.024V160.88L179.068 161.552V162H173.356ZM195.921 162.28C194.671 162.28 193.607 162.019 192.729 161.496C191.852 160.973 191.18 160.255 190.713 159.34C190.247 158.407 190.013 157.333 190.013 156.12C190.013 154.776 190.284 153.581 190.825 152.536C191.385 151.472 192.141 150.641 193.093 150.044C194.064 149.428 195.156 149.12 196.369 149.12C197.116 149.12 197.816 149.241 198.469 149.484C199.141 149.708 199.655 149.988 200.009 150.324C200.215 150.529 200.364 150.707 200.457 150.856C200.569 151.005 200.625 151.145 200.625 151.276C200.625 151.481 200.532 151.659 200.345 151.808L199.393 152.592H199.225L198.525 151.64C198.189 151.192 197.797 150.828 197.349 150.548C196.901 150.249 196.351 150.1 195.697 150.1C194.559 150.1 193.635 150.548 192.925 151.444C192.235 152.321 191.889 153.581 191.889 155.224C191.889 156.195 192.057 157.091 192.393 157.912C192.729 158.715 193.252 159.359 193.961 159.844C194.689 160.311 195.632 160.544 196.789 160.544C198.171 160.544 199.44 160.133 200.597 159.312H200.681V159.62C200.252 160.367 199.627 161.001 198.805 161.524C197.984 162.028 197.023 162.28 195.921 162.28ZM209.546 162.28C208.351 162.28 207.306 161.991 206.41 161.412C205.514 160.833 204.814 160.049 204.31 159.06C203.806 158.071 203.554 156.951 203.554 155.7C203.554 154.449 203.806 153.329 204.31 152.34C204.814 151.351 205.514 150.567 206.41 149.988C207.306 149.409 208.351 149.12 209.546 149.12C210.74 149.12 211.786 149.409 212.682 149.988C213.578 150.567 214.278 151.351 214.782 152.34C215.286 153.329 215.538 154.449 215.538 155.7C215.538 156.951 215.286 158.071 214.782 159.06C214.278 160.049 213.578 160.833 212.682 161.412C211.786 161.991 210.74 162.28 209.546 162.28ZM209.938 161.3C210.722 161.3 211.375 161.057 211.898 160.572C212.42 160.087 212.812 159.461 213.074 158.696C213.335 157.912 213.466 157.1 213.466 156.26C213.466 155.196 213.307 154.197 212.99 153.264C212.691 152.312 212.224 151.547 211.59 150.968C210.974 150.371 210.18 150.072 209.21 150.072C208.426 150.072 207.763 150.305 207.222 150.772C206.699 151.239 206.298 151.855 206.018 152.62C205.756 153.385 205.626 154.216 205.626 155.112C205.626 156.195 205.784 157.212 206.102 158.164C206.419 159.097 206.895 159.853 207.53 160.432C208.164 161.011 208.967 161.3 209.938 161.3ZM218.571 162V161.552L220.335 160.852V151.556L218.487 150.604V150.296L221.791 149.12H221.987L222.183 151.164H222.323C222.995 150.473 223.629 149.96 224.227 149.624C224.843 149.288 225.524 149.12 226.271 149.12C227.111 149.12 227.839 149.307 228.455 149.68C229.089 150.053 229.519 150.613 229.743 151.36H229.827C230.573 150.595 231.264 150.035 231.899 149.68C232.552 149.307 233.271 149.12 234.055 149.12C235.137 149.12 236.024 149.419 236.715 150.016C237.424 150.613 237.779 151.481 237.779 152.62V160.852L239.543 161.552V162H233.887V161.552L235.875 160.852V153.712C235.875 152.76 235.604 152.041 235.063 151.556C234.54 151.052 233.868 150.8 233.047 150.8C232.468 150.8 231.889 150.912 231.311 151.136C230.751 151.341 230.284 151.649 229.911 152.06C229.929 152.228 229.939 152.415 229.939 152.62V160.852L231.815 161.552V162H226.131V161.552L228.063 160.852V153.712C228.063 152.76 227.801 152.041 227.279 151.556C226.756 151.052 226.084 150.8 225.263 150.8C224.777 150.8 224.236 150.912 223.639 151.136C223.06 151.341 222.584 151.64 222.211 152.032V160.852L224.115 161.552V162H218.571ZM242.174 162V161.552L243.938 160.852V151.556L242.09 150.604V150.296L245.394 149.12H245.59L245.786 151.164H245.926C246.598 150.473 247.232 149.96 247.83 149.624C248.446 149.288 249.127 149.12 249.874 149.12C250.714 149.12 251.442 149.307 252.058 149.68C252.692 150.053 253.122 150.613 253.346 151.36H253.43C254.176 150.595 254.867 150.035 255.502 149.68C256.155 149.307 256.874 149.12 257.658 149.12C258.74 149.12 259.627 149.419 260.318 150.016C261.027 150.613 261.382 151.481 261.382 152.62V160.852L263.146 161.552V162H257.49V161.552L259.478 160.852V153.712C259.478 152.76 259.207 152.041 258.666 151.556C258.143 151.052 257.471 150.8 256.65 150.8C256.071 150.8 255.492 150.912 254.914 151.136C254.354 151.341 253.887 151.649 253.514 152.06C253.532 152.228 253.542 152.415 253.542 152.62V160.852L255.418 161.552V162H249.734V161.552L251.666 160.852V153.712C251.666 152.76 251.404 152.041 250.882 151.556C250.359 151.052 249.687 150.8 248.866 150.8C248.38 150.8 247.839 150.912 247.242 151.136C246.663 151.341 246.187 151.64 245.814 152.032V160.852L247.718 161.552V162H242.174ZM270.707 162.28C269.606 162.28 268.691 161.981 267.963 161.384C267.254 160.787 266.899 159.919 266.899 158.78V150.548L265.051 149.848V149.4H268.803V157.688C268.803 158.64 269.074 159.368 269.615 159.872C270.156 160.357 270.866 160.6 271.743 160.6C272.266 160.6 272.826 160.497 273.423 160.292C274.039 160.087 274.534 159.779 274.907 159.368V150.548L272.807 149.848V149.4H276.811V160.88L278.799 161.552V162H274.907V160.264H274.795C274.086 160.973 273.414 161.487 272.779 161.804C272.144 162.121 271.454 162.28 270.707 162.28ZM281.287 162V161.552L283.051 160.852V151.556L281.231 150.604V150.296L284.507 149.12H284.731L284.927 151.164H285.039C285.748 150.473 286.42 149.96 287.055 149.624C287.708 149.288 288.427 149.12 289.211 149.12C290.331 149.12 291.255 149.419 291.983 150.016C292.711 150.613 293.075 151.481 293.075 152.62V160.852L294.839 161.552V162H289.183V161.552L291.171 160.852V153.712C291.171 152.76 290.891 152.041 290.331 151.556C289.771 151.052 289.052 150.8 288.175 150.8C287.652 150.8 287.074 150.912 286.439 151.136C285.823 151.341 285.328 151.64 284.955 152.032V160.852L286.943 161.552V162H281.287ZM300.167 145.312C299.756 145.312 299.411 145.181 299.131 144.92C298.87 144.64 298.739 144.295 298.739 143.884C298.739 143.455 298.87 143.109 299.131 142.848C299.411 142.587 299.756 142.456 300.167 142.456C300.596 142.456 300.942 142.587 301.203 142.848C301.464 143.109 301.595 143.455 301.595 143.884C301.595 144.295 301.464 144.64 301.203 144.92C300.942 145.181 300.596 145.312 300.167 145.312ZM297.675 162V161.552L299.439 160.852V151.556L297.619 150.464V150.184L301.119 149.12H301.343V160.852L303.191 161.552V162H297.675ZM312.196 162.28C310.946 162.28 309.882 162.019 309.004 161.496C308.127 160.973 307.455 160.255 306.988 159.34C306.522 158.407 306.288 157.333 306.288 156.12C306.288 154.776 306.559 153.581 307.1 152.536C307.66 151.472 308.416 150.641 309.368 150.044C310.339 149.428 311.431 149.12 312.644 149.12C313.391 149.12 314.091 149.241 314.744 149.484C315.416 149.708 315.93 149.988 316.284 150.324C316.49 150.529 316.639 150.707 316.732 150.856C316.844 151.005 316.9 151.145 316.9 151.276C316.9 151.481 316.807 151.659 316.62 151.808L315.668 152.592H315.5L314.8 151.64C314.464 151.192 314.072 150.828 313.624 150.548C313.176 150.249 312.626 150.1 311.972 150.1C310.834 150.1 309.91 150.548 309.2 151.444C308.51 152.321 308.164 153.581 308.164 155.224C308.164 156.195 308.332 157.091 308.668 157.912C309.004 158.715 309.527 159.359 310.236 159.844C310.964 160.311 311.907 160.544 313.064 160.544C314.446 160.544 315.715 160.133 316.872 159.312H316.956V159.62C316.527 160.367 315.902 161.001 315.08 161.524C314.259 162.028 313.298 162.28 312.196 162.28ZM322.797 162.28C321.919 162.28 321.191 162.028 320.613 161.524C320.034 161.001 319.745 160.283 319.745 159.368C319.745 158.453 320.081 157.679 320.753 157.044C321.425 156.409 322.535 155.905 324.085 155.532L326.801 154.86V152.704C326.801 151.995 326.521 151.407 325.961 150.94C325.419 150.473 324.813 150.24 324.141 150.24C323.394 150.24 322.871 150.417 322.573 150.772C322.274 151.127 322.125 151.612 322.125 152.228V153.152L321.985 153.292H320.809C320.529 153.292 320.333 153.255 320.221 153.18C320.127 153.087 320.081 152.881 320.081 152.564C320.081 152.172 320.202 151.771 320.445 151.36C320.687 150.949 321.051 150.595 321.537 150.296C322.059 149.96 322.591 149.68 323.133 149.456C323.693 149.232 324.253 149.12 324.813 149.12C325.522 149.12 326.166 149.223 326.745 149.428C327.323 149.615 327.79 149.932 328.145 150.38C328.499 150.828 328.677 151.425 328.677 152.172V160.432C328.826 160.581 329.013 160.693 329.237 160.768C329.461 160.843 329.75 160.88 330.105 160.88H331.337L331.393 160.936V160.992C331.206 161.309 330.917 161.608 330.525 161.888C330.151 162.149 329.675 162.28 329.097 162.28C328.499 162.28 328.023 162.121 327.669 161.804C327.314 161.487 327.071 161.085 326.941 160.6H326.801C326.315 161.085 325.718 161.487 325.009 161.804C324.318 162.121 323.581 162.28 322.797 162.28ZM321.621 158.836C321.621 159.489 321.817 159.984 322.209 160.32C322.601 160.637 323.151 160.796 323.861 160.796C324.327 160.796 324.803 160.74 325.289 160.628C325.774 160.516 326.278 160.329 326.801 160.068V155.672C325.289 155.971 324.159 156.279 323.413 156.596C322.685 156.913 322.199 157.259 321.957 157.632C321.733 157.987 321.621 158.388 321.621 158.836ZM337.626 162.28C336.824 162.28 336.142 162.037 335.582 161.552C335.041 161.067 334.77 160.385 334.77 159.508V150.576H332.418V150.352L334.91 149.4L336.45 146.32H336.674V149.4H340.37V150.576H336.674V159.2C336.674 159.723 336.87 160.115 337.262 160.376C337.654 160.619 338.149 160.74 338.746 160.74C339.12 160.74 339.465 160.712 339.782 160.656C340.1 160.581 340.389 160.497 340.65 160.404L340.706 160.432V160.628C340.52 161.001 340.165 161.375 339.642 161.748C339.138 162.103 338.466 162.28 337.626 162.28ZM345.879 145.312C345.469 145.312 345.123 145.181 344.843 144.92C344.582 144.64 344.451 144.295 344.451 143.884C344.451 143.455 344.582 143.109 344.843 142.848C345.123 142.587 345.469 142.456 345.879 142.456C346.309 142.456 346.654 142.587 346.915 142.848C347.177 143.109 347.307 143.455 347.307 143.884C347.307 144.295 347.177 144.64 346.915 144.92C346.654 145.181 346.309 145.312 345.879 145.312ZM343.387 162V161.552L345.151 160.852V151.556L343.331 150.464V150.184L346.831 149.12H347.055V160.852L348.903 161.552V162H343.387ZM357.993 162.28C356.798 162.28 355.753 161.991 354.857 161.412C353.961 160.833 353.261 160.049 352.757 159.06C352.253 158.071 352.001 156.951 352.001 155.7C352.001 154.449 352.253 153.329 352.757 152.34C353.261 151.351 353.961 150.567 354.857 149.988C355.753 149.409 356.798 149.12 357.993 149.12C359.187 149.12 360.233 149.409 361.129 149.988C362.025 150.567 362.725 151.351 363.229 152.34C363.733 153.329 363.985 154.449 363.985 155.7C363.985 156.951 363.733 158.071 363.229 159.06C362.725 160.049 362.025 160.833 361.129 161.412C360.233 161.991 359.187 162.28 357.993 162.28ZM358.385 161.3C359.169 161.3 359.822 161.057 360.345 160.572C360.867 160.087 361.259 159.461 361.521 158.696C361.782 157.912 361.913 157.1 361.913 156.26C361.913 155.196 361.754 154.197 361.437 153.264C361.138 152.312 360.671 151.547 360.037 150.968C359.421 150.371 358.627 150.072 357.657 150.072C356.873 150.072 356.21 150.305 355.669 150.772C355.146 151.239 354.745 151.855 354.465 152.62C354.203 153.385 354.073 154.216 354.073 155.112C354.073 156.195 354.231 157.212 354.549 158.164C354.866 159.097 355.342 159.853 355.977 160.432C356.611 161.011 357.414 161.3 358.385 161.3ZM367.074 162V161.552L368.838 160.852V151.556L367.018 150.604V150.296L370.294 149.12H370.518L370.714 151.164H370.826C371.535 150.473 372.207 149.96 372.842 149.624C373.495 149.288 374.214 149.12 374.998 149.12C376.118 149.12 377.042 149.419 377.77 150.016C378.498 150.613 378.862 151.481 378.862 152.62V160.852L380.626 161.552V162H374.97V161.552L376.958 160.852V153.712C376.958 152.76 376.678 152.041 376.118 151.556C375.558 151.052 374.839 150.8 373.962 150.8C373.439 150.8 372.86 150.912 372.226 151.136C371.61 151.341 371.115 151.64 370.742 152.032V160.852L372.73 161.552V162H367.074Z" fill="#FAFAFA"/>
</svg>
