<svg width="880" height="624" viewBox="0 0 880 624" fill="none" xmlns="http://www.w3.org/2000/svg">
<g clip-path="url(#clip0_447_163)">
<rect width="880" height="624" fill="white"/>
<rect width="880" height="624" fill="#CABCBE"/>
<path d="M34 44.08C33.7333 44.08 33.504 43.984 33.312 43.792C33.12 43.6 33.024 43.3707 33.024 43.104C33.024 42.8373 33.12 42.608 33.312 42.416C33.504 42.224 33.7333 42.128 34 42.128C34.2667 42.128 34.496 42.224 34.688 42.416C34.88 42.608 34.976 42.8373 34.976 43.104C34.976 43.3707 34.88 43.6 34.688 43.792C34.496 43.984 34.2667 44.08 34 44.08ZM34 38.592C33.7333 38.592 33.504 38.496 33.312 38.304C33.12 38.112 33.024 37.8827 33.024 37.616C33.024 37.3493 33.12 37.12 33.312 36.928C33.504 36.736 33.7333 36.64 34 36.64C34.2667 36.64 34.496 36.736 34.688 36.928C34.88 37.12 34.976 37.3493 34.976 37.616C34.976 37.8827 34.88 38.112 34.688 38.304C34.496 38.496 34.2667 38.592 34 38.592ZM36.864 44V43.744L37.872 43.232V37.552H36.624V36.8H37.872V36.16C37.872 35.9467 37.9253 35.6693 38.032 35.328C38.1387 34.9867 38.2933 34.6293 38.496 34.256C38.7093 33.872 38.9653 33.5093 39.264 33.168C39.5627 32.8267 39.8987 32.5493 40.272 32.336C40.656 32.112 41.0773 32 41.536 32C41.632 32 41.7333 32.016 41.84 32.048C41.9467 32.08 42.0373 32.112 42.112 32.144C42.272 32.2187 42.3893 32.288 42.464 32.352C42.5493 32.416 42.592 32.496 42.592 32.592C42.592 32.688 42.5707 32.784 42.528 32.88L42.208 33.664H42.096L41.664 33.488C41.3653 33.3707 41.0187 33.312 40.624 33.312C40.0373 33.312 39.6427 33.4987 39.44 33.872C39.248 34.2347 39.152 34.784 39.152 35.52V36.8H41.264V37.552H39.152V43.264L40.288 43.744V44H36.864ZM45.6128 44.16C44.5781 44.16 43.7621 43.8453 43.1648 43.216C42.5674 42.5867 42.2688 41.7547 42.2688 40.72C42.2688 39.92 42.4288 39.216 42.7488 38.608C43.0794 37.9893 43.5221 37.5093 44.0768 37.168C44.6314 36.816 45.2554 36.64 45.9488 36.64C46.3754 36.64 46.7914 36.7147 47.1968 36.864C47.6021 37.0027 47.9114 37.1893 48.1248 37.424C48.2954 37.6267 48.3808 37.7867 48.3808 37.904C48.3808 38.0533 48.3114 38.1813 48.1728 38.288L47.5648 38.8H47.4528L46.9088 38.064C46.7488 37.8507 46.5461 37.68 46.3008 37.552C46.0661 37.4133 45.7728 37.344 45.4208 37.344C44.8341 37.344 44.3701 37.5787 44.0288 38.048C43.6981 38.5067 43.5328 39.152 43.5328 39.984C43.5328 40.496 43.6181 40.9813 43.7888 41.44C43.9594 41.888 44.2421 42.256 44.6368 42.544C45.0421 42.8213 45.5968 42.96 46.3008 42.96C46.8874 42.96 47.5754 42.7467 48.3648 42.32H48.4128V42.48C48.1674 42.9387 47.7994 43.3333 47.3088 43.664C46.8288 43.9947 46.2634 44.16 45.6128 44.16ZM53.125 45.92L56.325 32H57.125L53.925 45.92H53.125ZM61.893 47.68V47.424L62.901 46.912V38.464L61.941 37.632V37.52L63.925 36.64H64.021L64.149 37.616H64.261C64.6663 37.2747 65.0557 37.0293 65.429 36.88C65.8023 36.72 66.2077 36.64 66.645 36.64C67.189 36.64 67.669 36.7787 68.085 37.056C68.501 37.3333 68.8263 37.728 69.061 38.24C69.3063 38.7413 69.429 39.344 69.429 40.048C69.429 40.9227 69.2637 41.6693 68.933 42.288C68.613 42.896 68.1757 43.36 67.621 43.68C67.0663 44 66.4583 44.16 65.797 44.16C65.1997 44.16 64.661 44.1067 64.181 44V46.912L65.317 47.424V47.68H61.893ZM65.765 37.744C65.509 37.744 65.2423 37.7867 64.965 37.872C64.6983 37.9467 64.437 38.064 64.181 38.224V42.72C64.501 42.976 64.8263 43.152 65.157 43.248C65.4877 43.344 65.8557 43.392 66.261 43.392C66.773 43.392 67.2157 43.1787 67.589 42.752C67.9623 42.3147 68.149 41.5893 68.149 40.576C68.149 39.9147 68.0423 39.376 67.829 38.96C67.6157 38.544 67.3277 38.24 66.965 38.048C66.6023 37.8453 66.2023 37.744 65.765 37.744ZM71.0351 44V43.744L72.0431 43.232V38.464L71.0831 37.632V37.52L73.0671 36.64H73.1631L73.3071 38H73.3711C73.6165 37.6053 73.8405 37.312 74.0431 37.12C74.2565 36.9173 74.4538 36.7893 74.6351 36.736C74.8165 36.672 74.9978 36.64 75.1791 36.64C75.2645 36.64 75.3605 36.656 75.4671 36.688C75.5845 36.72 75.6805 36.752 75.7551 36.784C75.8725 36.8373 75.9791 36.9013 76.0751 36.976C76.1818 37.0507 76.2351 37.136 76.2351 37.232C76.2351 37.328 76.2138 37.424 76.1711 37.52L75.8511 38.304H75.7391L75.1311 38.064C75.0138 38.0107 74.8965 37.9787 74.7791 37.968C74.6725 37.9573 74.5658 37.952 74.4591 37.952C74.0111 37.952 73.6325 38.1813 73.3231 38.64V43.232L74.4591 43.744V44H71.0351ZM80.8825 44.16C80.1785 44.16 79.5598 43.9947 79.0265 43.664C78.5038 43.3333 78.0932 42.8853 77.7945 42.32C77.5065 41.7547 77.3625 41.1147 77.3625 40.4C77.3625 39.6853 77.5065 39.0453 77.7945 38.48C78.0932 37.9147 78.5038 37.4667 79.0265 37.136C79.5598 36.8053 80.1785 36.64 80.8825 36.64C81.5865 36.64 82.1998 36.8053 82.7225 37.136C83.2558 37.4667 83.6665 37.9147 83.9545 38.48C84.2532 39.0453 84.4025 39.6853 84.4025 40.4C84.4025 41.1147 84.2532 41.7547 83.9545 42.32C83.6665 42.8853 83.2558 43.3333 82.7225 43.664C82.1998 43.9947 81.5865 44.16 80.8825 44.16ZM81.1065 43.472C81.5332 43.472 81.8852 43.3387 82.1625 43.072C82.4398 42.8053 82.6425 42.464 82.7705 42.048C82.8985 41.6213 82.9625 41.1787 82.9625 40.72C82.9625 40.1547 82.8825 39.6107 82.7225 39.088C82.5732 38.5653 82.3278 38.1387 81.9865 37.808C81.6558 37.4773 81.2238 37.312 80.6905 37.312C80.2532 37.312 79.8958 37.4453 79.6185 37.712C79.3412 37.9787 79.1332 38.32 78.9945 38.736C78.8665 39.152 78.8025 39.5947 78.8025 40.064C78.8025 40.6293 78.8825 41.1733 79.0425 41.696C79.2025 42.2187 79.4532 42.6453 79.7945 42.976C80.1358 43.3067 80.5732 43.472 81.1065 43.472ZM88.7693 44.16C88.2359 44.16 87.7559 44.0267 87.3293 43.76C86.9133 43.4933 86.5826 43.12 86.3372 42.64C86.1026 42.1493 85.9853 41.568 85.9853 40.896C85.9853 39.9893 86.1613 39.2213 86.5133 38.592C86.8653 37.952 87.3346 37.4667 87.9213 37.136C88.5079 36.8053 89.1479 36.64 89.8413 36.64C90.1399 36.64 90.4013 36.656 90.6253 36.688C90.8493 36.7093 91.0519 36.7413 91.2333 36.784V33.824L90.1933 32.992V32.88L92.4173 32H92.5133V43.28L93.6493 43.744V44H91.3933L91.2653 43.184H91.1533C90.7479 43.5253 90.3533 43.776 89.9693 43.936C89.5959 44.0853 89.1959 44.16 88.7693 44.16ZM87.2653 40.528C87.2653 41.4133 87.4999 42.0587 87.9693 42.464C88.4386 42.8587 88.9986 43.056 89.6493 43.056C89.9053 43.056 90.1666 43.0187 90.4333 42.944C90.7106 42.8587 90.9773 42.736 91.2333 42.576V38.096C90.9773 37.872 90.7213 37.7067 90.4653 37.6C90.2199 37.4827 89.9426 37.424 89.6333 37.424C89.2066 37.424 88.8119 37.5307 88.4493 37.744C88.0973 37.9467 87.8093 38.2773 87.5853 38.736C87.3719 39.184 87.2653 39.7813 87.2653 40.528ZM97.8188 44.16C97.1894 44.16 96.6721 44.0053 96.2668 43.696C95.8721 43.376 95.6748 42.9067 95.6748 42.288V37.552L94.6668 37.056V36.8H96.9548V41.536C96.9548 42.0053 97.0988 42.3627 97.3868 42.608C97.6854 42.8533 98.0694 42.976 98.5388 42.976C98.8268 42.976 99.1414 42.928 99.4828 42.832C99.8348 42.736 100.112 42.5973 100.315 42.416V37.552L99.1788 37.056V36.8H101.595V43.28L102.731 43.744V44H100.315V42.992H100.235C99.8294 43.3973 99.4348 43.696 99.0508 43.888C98.6774 44.0693 98.2668 44.16 97.8188 44.16ZM107.332 44.16C106.297 44.16 105.481 43.8453 104.884 43.216C104.286 42.5867 103.988 41.7547 103.988 40.72C103.988 39.92 104.148 39.216 104.468 38.608C104.798 37.9893 105.241 37.5093 105.796 37.168C106.35 36.816 106.974 36.64 107.668 36.64C108.094 36.64 108.51 36.7147 108.916 36.864C109.321 37.0027 109.63 37.1893 109.844 37.424C110.014 37.6267 110.1 37.7867 110.1 37.904C110.1 38.0533 110.03 38.1813 109.892 38.288L109.284 38.8H109.172L108.628 38.064C108.468 37.8507 108.265 37.68 108.02 37.552C107.785 37.4133 107.492 37.344 107.14 37.344C106.553 37.344 106.089 37.5787 105.748 38.048C105.417 38.5067 105.252 39.152 105.252 39.984C105.252 40.496 105.337 40.9813 105.508 41.44C105.678 41.888 105.961 42.256 106.356 42.544C106.761 42.8213 107.316 42.96 108.02 42.96C108.606 42.96 109.294 42.7467 110.084 42.32H110.132V42.48C109.886 42.9387 109.518 43.3333 109.028 43.664C108.548 43.9947 107.982 44.16 107.332 44.16ZM114.172 44.16C113.702 44.16 113.297 44.0213 112.956 43.744C112.614 43.4667 112.444 43.0773 112.444 42.576V37.552H111.132V37.456L112.492 36.8L113.628 35.04H113.724V36.8H115.836V37.552H113.724V42.304C113.724 42.5813 113.846 42.784 114.092 42.912C114.337 43.04 114.625 43.104 114.956 43.104C115.158 43.104 115.345 43.0933 115.516 43.072C115.697 43.0507 115.852 43.024 115.98 42.992H116.028V43.152C115.921 43.3973 115.708 43.6267 115.388 43.84C115.078 44.0533 114.673 44.16 114.172 44.16ZM139.988 44.16C139.455 44.16 138.975 44.0267 138.548 43.76C138.132 43.4933 137.801 43.12 137.556 42.64C137.321 42.1493 137.204 41.568 137.204 40.896C137.204 39.9893 137.38 39.2213 137.732 38.592C138.084 37.952 138.553 37.4667 139.14 37.136C139.727 36.8053 140.367 36.64 141.06 36.64C141.359 36.64 141.62 36.656 141.844 36.688C142.068 36.7093 142.271 36.7413 142.452 36.784V33.824L141.412 32.992V32.88L143.636 32H143.732V43.28L144.868 43.744V44H142.612L142.484 43.184H142.372C141.967 43.5253 141.572 43.776 141.188 43.936C140.815 44.0853 140.415 44.16 139.988 44.16ZM138.484 40.528C138.484 41.4133 138.719 42.0587 139.188 42.464C139.657 42.8587 140.217 43.056 140.868 43.056C141.124 43.056 141.385 43.0187 141.652 42.944C141.929 42.8587 142.196 42.736 142.452 42.576V38.096C142.196 37.872 141.94 37.7067 141.684 37.6C141.439 37.4827 141.161 37.424 140.852 37.424C140.425 37.424 140.031 37.5307 139.668 37.744C139.316 37.9467 139.028 38.2773 138.804 38.736C138.591 39.184 138.484 39.7813 138.484 40.528ZM149.582 44.16C148.547 44.16 147.731 43.8453 147.134 43.216C146.536 42.5867 146.238 41.7547 146.238 40.72C146.238 39.92 146.392 39.216 146.702 38.608C147.022 37.9893 147.438 37.5093 147.95 37.168C148.472 36.816 149.038 36.64 149.646 36.64C150.488 36.64 151.15 36.9333 151.63 37.52C152.12 38.1067 152.366 38.9493 152.366 40.048L152.286 40.128H147.502C147.512 40.6187 147.608 41.0827 147.789 41.52C147.971 41.9467 148.259 42.2933 148.654 42.56C149.059 42.8267 149.598 42.96 150.27 42.96C150.856 42.96 151.544 42.7467 152.334 42.32H152.382V42.48C152.136 42.9387 151.768 43.3333 151.278 43.664C150.798 43.9947 150.232 44.16 149.582 44.16ZM149.39 37.344C148.878 37.344 148.456 37.5253 148.126 37.888C147.806 38.24 147.608 38.7413 147.534 39.392H151.15C151.032 38.6667 150.824 38.144 150.526 37.824C150.238 37.504 149.859 37.344 149.39 37.344ZM156.596 44.16C156.094 44.16 155.662 44.1173 155.299 44.032C154.937 43.9467 154.569 43.808 154.196 43.616V41.824H154.42L154.932 42.704C155.262 43.2907 155.801 43.584 156.548 43.584C156.974 43.584 157.305 43.4827 157.54 43.28C157.785 43.0773 157.908 42.8 157.908 42.448C157.908 42.1387 157.833 41.8987 157.684 41.728C157.534 41.5573 157.321 41.408 157.044 41.28C156.777 41.1413 156.457 40.9867 156.084 40.816C155.54 40.5707 155.118 40.304 154.82 40.016C154.532 39.7173 154.388 39.3013 154.388 38.768C154.388 38.3733 154.5 38.016 154.724 37.696C154.948 37.376 155.23 37.12 155.572 36.928C155.924 36.736 156.286 36.64 156.66 36.64C157.054 36.64 157.417 36.688 157.748 36.784C158.078 36.88 158.414 37.0133 158.756 37.184V38.928H158.532L158.004 38.08C157.822 37.792 157.625 37.584 157.411 37.456C157.198 37.328 156.969 37.264 156.724 37.264C156.361 37.264 156.068 37.3547 155.844 37.536C155.63 37.7173 155.524 37.968 155.524 38.288C155.524 38.6507 155.652 38.928 155.908 39.12C156.174 39.3013 156.558 39.5093 157.06 39.744C157.358 39.8933 157.657 40.0427 157.956 40.192C158.265 40.3413 158.516 40.5547 158.708 40.832C158.91 41.0987 159.012 41.4827 159.012 41.984C159.012 42.4533 158.884 42.8533 158.628 43.184C158.372 43.504 158.057 43.7493 157.684 43.92C157.31 44.08 156.948 44.16 156.596 44.16ZM162.558 34.704C162.28 34.704 162.051 34.6133 161.87 34.432C161.688 34.24 161.598 34.0107 161.598 33.744C161.598 33.4667 161.688 33.2373 161.87 33.056C162.051 32.8747 162.28 32.784 162.558 32.784C162.835 32.784 163.064 32.8747 163.246 33.056C163.427 33.2373 163.518 33.4667 163.518 33.744C163.518 34.0107 163.427 34.24 163.246 34.432C163.064 34.6133 162.835 34.704 162.558 34.704ZM160.958 44V43.744L161.966 43.232V38.464L161.006 37.632V37.52L163.15 36.64H163.246V43.232L164.254 43.744V44H160.958ZM169.237 41.728C168.768 41.728 168.336 41.6427 167.941 41.472C167.728 41.5573 167.573 41.6693 167.477 41.808C167.392 41.9467 167.349 42.096 167.349 42.256C167.349 42.7893 167.728 43.056 168.485 43.056H170.405C171.184 43.056 171.755 43.2267 172.117 43.568C172.491 43.9093 172.677 44.416 172.677 45.088C172.677 45.5467 172.523 45.984 172.213 46.4C171.915 46.8267 171.483 47.1733 170.917 47.44C170.363 47.7067 169.701 47.84 168.933 47.84C167.92 47.84 167.189 47.6533 166.741 47.28C166.304 46.9173 166.085 46.4693 166.085 45.936C166.085 45.5413 166.181 45.2 166.373 44.912L167.477 44.176V44.112C167.072 44.0267 166.763 43.872 166.549 43.648C166.336 43.4133 166.229 43.1307 166.229 42.8C166.229 42.3947 166.368 42.0533 166.645 41.776L167.509 41.328V41.232C167.168 41.008 166.896 40.72 166.693 40.368C166.491 40.016 166.389 39.6213 166.389 39.184C166.389 38.704 166.512 38.272 166.757 37.888C167.003 37.504 167.339 37.2 167.765 36.976C168.203 36.752 168.693 36.64 169.237 36.64C169.461 36.64 169.701 36.6667 169.957 36.72C170.224 36.7733 170.453 36.8427 170.645 36.928L173.045 36.8V37.664L171.557 37.568L171.493 37.632C171.664 37.824 171.803 38.0587 171.909 38.336C172.027 38.6133 172.085 38.896 172.085 39.184C172.085 39.664 171.963 40.096 171.717 40.48C171.472 40.864 171.131 41.168 170.693 41.392C170.267 41.616 169.781 41.728 169.237 41.728ZM169.397 41.072C169.824 41.072 170.16 40.8907 170.405 40.528C170.651 40.1547 170.773 39.7227 170.773 39.232C170.773 38.6453 170.613 38.176 170.293 37.824C169.973 37.4613 169.584 37.28 169.125 37.28C168.667 37.28 168.315 37.4667 168.069 37.84C167.824 38.2027 167.701 38.6347 167.701 39.136C167.701 39.6907 167.861 40.1547 168.181 40.528C168.501 40.8907 168.907 41.072 169.397 41.072ZM167.221 45.76C167.221 46.2293 167.403 46.6187 167.765 46.928C168.139 47.2373 168.592 47.392 169.125 47.392C169.605 47.392 170.021 47.296 170.373 47.104C170.736 46.9227 171.013 46.6773 171.205 46.368C171.408 46.0693 171.509 45.7493 171.509 45.408C171.509 44.9387 171.381 44.6133 171.125 44.432C170.88 44.2507 170.432 44.16 169.781 44.16H168.069C168.037 44.16 168.011 44.16 167.989 44.16C167.701 44.3307 167.499 44.544 167.381 44.8C167.275 45.0667 167.221 45.3867 167.221 45.76ZM174.456 44V43.744L175.464 43.232V38.464L174.504 37.632V37.52L176.488 36.64H176.584L176.728 37.824H176.808C177.213 37.4187 177.602 37.12 177.976 36.928C178.36 36.736 178.781 36.64 179.24 36.64C179.869 36.64 180.381 36.8 180.776 37.12C181.181 37.4293 181.384 37.8933 181.384 38.512V43.232L182.392 43.744V44H178.968V43.744L180.104 43.232V39.264C180.104 38.7947 179.954 38.4373 179.656 38.192C179.368 37.9467 178.989 37.824 178.52 37.824C178.232 37.824 177.912 37.872 177.56 37.968C177.218 38.064 176.946 38.2027 176.744 38.384V43.232L177.88 43.744V44H174.456ZM189.496 44.16C188.995 44.16 188.579 44.016 188.248 43.728C187.917 43.4293 187.752 43.0187 187.752 42.496C187.752 41.9733 187.944 41.52 188.328 41.136C188.723 40.752 189.379 40.4533 190.296 40.24L191.816 39.888V38.72C191.816 38.3573 191.667 38.048 191.368 37.792C191.08 37.5253 190.749 37.392 190.376 37.392C189.971 37.392 189.688 37.504 189.528 37.728C189.368 37.9413 189.288 38.2293 189.288 38.592V39.04L189.208 39.12H188.376C188.216 39.12 188.104 39.0933 188.04 39.04C187.987 38.9867 187.96 38.864 187.96 38.672C187.96 38.4373 188.029 38.1973 188.168 37.952C188.307 37.7067 188.52 37.4933 188.808 37.312C189.107 37.12 189.416 36.96 189.736 36.832C190.067 36.704 190.419 36.64 190.792 36.64C191.165 36.64 191.528 36.6933 191.88 36.8C192.243 36.9067 192.536 37.088 192.76 37.344C192.984 37.5893 193.096 37.936 193.096 38.384V42.928C193.171 43.0027 193.277 43.0667 193.416 43.12C193.555 43.1733 193.747 43.2 193.992 43.2H194.6L194.648 43.232V43.28C194.52 43.5147 194.328 43.7227 194.072 43.904C193.827 44.0747 193.523 44.16 193.16 44.16C192.829 44.16 192.557 44.0747 192.344 43.904C192.141 43.7227 191.997 43.488 191.912 43.2H191.816C191.539 43.4773 191.192 43.7067 190.776 43.888C190.371 44.0693 189.944 44.16 189.496 44.16ZM189 42.176C189 42.8373 189.4 43.168 190.2 43.168C190.456 43.168 190.707 43.1413 190.952 43.088C191.208 43.0347 191.496 42.9387 191.816 42.8V40.432C190.963 40.592 190.339 40.7627 189.944 40.944C189.549 41.1147 189.293 41.3013 189.176 41.504C189.059 41.7067 189 41.9307 189 42.176ZM195.596 44V43.744L196.604 43.232V38.464L195.644 37.632V37.52L197.628 36.64H197.724L197.868 37.824H197.948C198.353 37.4187 198.743 37.12 199.116 36.928C199.5 36.736 199.921 36.64 200.38 36.64C201.009 36.64 201.521 36.8 201.916 37.12C202.321 37.4293 202.524 37.8933 202.524 38.512V43.232L203.532 43.744V44H200.108V43.744L201.244 43.232V39.264C201.244 38.7947 201.095 38.4373 200.796 38.192C200.508 37.9467 200.129 37.824 199.66 37.824C199.372 37.824 199.052 37.872 198.7 37.968C198.359 38.064 198.087 38.2027 197.884 38.384V43.232L199.02 43.744V44H195.596ZM210.605 34.704C210.327 34.704 210.098 34.6133 209.917 34.432C209.735 34.24 209.645 34.0107 209.645 33.744C209.645 33.4667 209.735 33.2373 209.917 33.056C210.098 32.8747 210.327 32.784 210.605 32.784C210.882 32.784 211.111 32.8747 211.293 33.056C211.474 33.2373 211.565 33.4667 211.565 33.744C211.565 34.0107 211.474 34.24 211.293 34.432C211.111 34.6133 210.882 34.704 210.605 34.704ZM209.005 44V43.744L210.013 43.232V38.464L209.053 37.632V37.52L211.197 36.64H211.293V43.232L212.301 43.744V44H209.005ZM213.924 44V43.744L214.932 43.232V38.464L213.972 37.632V37.52L215.956 36.64H216.052L216.196 37.824H216.276C216.682 37.4187 217.071 37.12 217.444 36.928C217.828 36.736 218.25 36.64 218.708 36.64C219.338 36.64 219.85 36.8 220.244 37.12C220.65 37.4293 220.852 37.8933 220.852 38.512V43.232L221.86 43.744V44H218.436V43.744L219.572 43.232V39.264C219.572 38.7947 219.423 38.4373 219.124 38.192C218.836 37.9467 218.458 37.824 217.988 37.824C217.7 37.824 217.38 37.872 217.028 37.968C216.687 38.064 216.415 38.2027 216.212 38.384V43.232L217.348 43.744V44H213.924ZM225.797 44.16C225.327 44.16 224.922 44.0213 224.581 43.744C224.239 43.4667 224.069 43.0773 224.069 42.576V37.552H222.757V37.456L224.117 36.8L225.253 35.04H225.349V36.8H227.461V37.552H225.349V42.304C225.349 42.5813 225.471 42.784 225.717 42.912C225.962 43.04 226.25 43.104 226.581 43.104C226.783 43.104 226.97 43.0933 227.141 43.072C227.322 43.0507 227.477 43.024 227.605 42.992H227.653V43.152C227.546 43.3973 227.333 43.6267 227.013 43.84C226.703 44.0533 226.298 44.16 225.797 44.16ZM232.269 44.16C231.234 44.16 230.418 43.8453 229.821 43.216C229.224 42.5867 228.925 41.7547 228.925 40.72C228.925 39.92 229.08 39.216 229.389 38.608C229.709 37.9893 230.125 37.5093 230.637 37.168C231.16 36.816 231.725 36.64 232.333 36.64C233.176 36.64 233.837 36.9333 234.317 37.52C234.808 38.1067 235.053 38.9493 235.053 40.048L234.973 40.128H230.189C230.2 40.6187 230.296 41.0827 230.477 41.52C230.658 41.9467 230.946 42.2933 231.341 42.56C231.746 42.8267 232.285 42.96 232.957 42.96C233.544 42.96 234.232 42.7467 235.021 42.32H235.069V42.48C234.824 42.9387 234.456 43.3333 233.965 43.664C233.485 43.9947 232.92 44.16 232.269 44.16ZM232.077 37.344C231.565 37.344 231.144 37.5253 230.813 37.888C230.493 38.24 230.296 38.7413 230.221 39.392H233.837C233.72 38.6667 233.512 38.144 233.213 37.824C232.925 37.504 232.546 37.344 232.077 37.344ZM236.707 44V43.744L237.715 43.232V38.464L236.755 37.632V37.52L238.739 36.64H238.835L238.979 38H239.043C239.288 37.6053 239.512 37.312 239.715 37.12C239.928 36.9173 240.126 36.7893 240.307 36.736C240.488 36.672 240.67 36.64 240.851 36.64C240.936 36.64 241.032 36.656 241.139 36.688C241.256 36.72 241.352 36.752 241.427 36.784C241.544 36.8373 241.651 36.9013 241.747 36.976C241.854 37.0507 241.907 37.136 241.907 37.232C241.907 37.328 241.886 37.424 241.843 37.52L241.523 38.304H241.411L240.803 38.064C240.686 38.0107 240.568 37.9787 240.451 37.968C240.344 37.9573 240.238 37.952 240.131 37.952C239.683 37.952 239.304 38.1813 238.995 38.64V43.232L240.131 43.744V44H236.707ZM243.255 44V43.744L244.263 43.232V37.552H243.015V36.8H244.263V36.16C244.263 35.9467 244.316 35.6693 244.423 35.328C244.529 34.9867 244.684 34.6293 244.887 34.256C245.1 33.872 245.356 33.5093 245.655 33.168C245.953 32.8267 246.289 32.5493 246.663 32.336C247.047 32.112 247.468 32 247.927 32C248.023 32 248.124 32.016 248.231 32.048C248.337 32.08 248.428 32.112 248.503 32.144C248.663 32.2187 248.78 32.288 248.855 32.352C248.94 32.416 248.983 32.496 248.983 32.592C248.983 32.688 248.961 32.784 248.919 32.88L248.599 33.664H248.487L248.055 33.488C247.756 33.3707 247.409 33.312 247.015 33.312C246.428 33.312 246.033 33.4987 245.831 33.872C245.639 34.2347 245.543 34.784 245.543 35.52V36.8H247.655V37.552H245.543V43.264L246.679 43.744V44H243.255ZM250.355 44.16C249.854 44.16 249.438 44.016 249.107 43.728C248.777 43.4293 248.611 43.0187 248.611 42.496C248.611 41.9733 248.803 41.52 249.187 41.136C249.582 40.752 250.238 40.4533 251.155 40.24L252.675 39.888V38.72C252.675 38.3573 252.526 38.048 252.227 37.792C251.939 37.5253 251.609 37.392 251.235 37.392C250.83 37.392 250.547 37.504 250.387 37.728C250.227 37.9413 250.147 38.2293 250.147 38.592V39.04L250.067 39.12H249.235C249.075 39.12 248.963 39.0933 248.899 39.04C248.846 38.9867 248.819 38.864 248.819 38.672C248.819 38.4373 248.889 38.1973 249.027 37.952C249.166 37.7067 249.379 37.4933 249.667 37.312C249.966 37.12 250.275 36.96 250.595 36.832C250.926 36.704 251.278 36.64 251.651 36.64C252.025 36.64 252.387 36.6933 252.739 36.8C253.102 36.9067 253.395 37.088 253.619 37.344C253.843 37.5893 253.955 37.936 253.955 38.384V42.928C254.03 43.0027 254.137 43.0667 254.275 43.12C254.414 43.1733 254.606 43.2 254.851 43.2H255.459L255.507 43.232V43.28C255.379 43.5147 255.187 43.7227 254.931 43.904C254.686 44.0747 254.382 44.16 254.019 44.16C253.689 44.16 253.417 44.0747 253.203 43.904C253.001 43.7227 252.857 43.488 252.771 43.2H252.675C252.398 43.4773 252.051 43.7067 251.635 43.888C251.23 44.0693 250.803 44.16 250.355 44.16ZM249.859 42.176C249.859 42.8373 250.259 43.168 251.059 43.168C251.315 43.168 251.566 43.1413 251.811 43.088C252.067 43.0347 252.355 42.9387 252.675 42.8V40.432C251.822 40.592 251.198 40.7627 250.803 40.944C250.409 41.1147 250.153 41.3013 250.035 41.504C249.918 41.7067 249.859 41.9307 249.859 42.176ZM259.832 44.16C258.797 44.16 257.981 43.8453 257.384 43.216C256.786 42.5867 256.488 41.7547 256.488 40.72C256.488 39.92 256.648 39.216 256.968 38.608C257.298 37.9893 257.741 37.5093 258.296 37.168C258.85 36.816 259.474 36.64 260.168 36.64C260.594 36.64 261.01 36.7147 261.416 36.864C261.821 37.0027 262.13 37.1893 262.344 37.424C262.514 37.6267 262.6 37.7867 262.6 37.904C262.6 38.0533 262.53 38.1813 262.392 38.288L261.784 38.8H261.672L261.128 38.064C260.968 37.8507 260.765 37.68 260.52 37.552C260.285 37.4133 259.992 37.344 259.64 37.344C259.053 37.344 258.589 37.5787 258.248 38.048C257.917 38.5067 257.752 39.152 257.752 39.984C257.752 40.496 257.837 40.9813 258.008 41.44C258.178 41.888 258.461 42.256 258.856 42.544C259.261 42.8213 259.816 42.96 260.52 42.96C261.106 42.96 261.794 42.7467 262.584 42.32H262.632V42.48C262.386 42.9387 262.018 43.3333 261.528 43.664C261.048 43.9947 260.482 44.16 259.832 44.16ZM267.488 44.16C266.453 44.16 265.637 43.8453 265.04 43.216C264.442 42.5867 264.144 41.7547 264.144 40.72C264.144 39.92 264.298 39.216 264.608 38.608C264.928 37.9893 265.344 37.5093 265.856 37.168C266.378 36.816 266.944 36.64 267.552 36.64C268.394 36.64 269.056 36.9333 269.536 37.52C270.026 38.1067 270.272 38.9493 270.272 40.048L270.192 40.128H265.408C265.418 40.6187 265.514 41.0827 265.696 41.52C265.877 41.9467 266.165 42.2933 266.56 42.56C266.965 42.8267 267.504 42.96 268.176 42.96C268.762 42.96 269.45 42.7467 270.24 42.32H270.288V42.48C270.042 42.9387 269.674 43.3333 269.184 43.664C268.704 43.9947 268.138 44.16 267.488 44.16ZM267.296 37.344C266.784 37.344 266.362 37.5253 266.032 37.888C265.712 38.24 265.514 38.7413 265.44 39.392H269.056C268.938 38.6667 268.73 38.144 268.432 37.824C268.144 37.504 267.765 37.344 267.296 37.344ZM275.958 44V43.744L276.966 43.232V37.552H275.718V36.8H276.966V36.16C276.966 35.9467 277.019 35.6693 277.126 35.328C277.232 34.9867 277.387 34.6293 277.59 34.256C277.803 33.872 278.059 33.5093 278.358 33.168C278.656 32.8267 278.992 32.5493 279.366 32.336C279.75 32.112 280.171 32 280.63 32C280.726 32 280.827 32.016 280.934 32.048C281.04 32.08 281.131 32.112 281.206 32.144C281.366 32.2187 281.483 32.288 281.558 32.352C281.643 32.416 281.686 32.496 281.686 32.592C281.686 32.688 281.664 32.784 281.622 32.88L281.302 33.664H281.19L280.758 33.488C280.459 33.3707 280.112 33.312 279.718 33.312C279.131 33.312 278.736 33.4987 278.534 33.872C278.342 34.2347 278.246 34.784 278.246 35.52V36.8H280.358V37.552H278.246V43.264L279.382 43.744V44H275.958ZM284.883 44.16C284.179 44.16 283.56 43.9947 283.027 43.664C282.504 43.3333 282.093 42.8853 281.795 42.32C281.507 41.7547 281.363 41.1147 281.363 40.4C281.363 39.6853 281.507 39.0453 281.795 38.48C282.093 37.9147 282.504 37.4667 283.027 37.136C283.56 36.8053 284.179 36.64 284.883 36.64C285.587 36.64 286.2 36.8053 286.723 37.136C287.256 37.4667 287.667 37.9147 287.955 38.48C288.253 39.0453 288.403 39.6853 288.403 40.4C288.403 41.1147 288.253 41.7547 287.955 42.32C287.667 42.8853 287.256 43.3333 286.723 43.664C286.2 43.9947 285.587 44.16 284.883 44.16ZM285.107 43.472C285.533 43.472 285.885 43.3387 286.163 43.072C286.44 42.8053 286.643 42.464 286.771 42.048C286.899 41.6213 286.963 41.1787 286.963 40.72C286.963 40.1547 286.883 39.6107 286.723 39.088C286.573 38.5653 286.328 38.1387 285.987 37.808C285.656 37.4773 285.224 37.312 284.691 37.312C284.253 37.312 283.896 37.4453 283.619 37.712C283.341 37.9787 283.133 38.32 282.995 38.736C282.867 39.152 282.803 39.5947 282.803 40.064C282.803 40.6293 282.883 41.1733 283.043 41.696C283.203 42.2187 283.453 42.6453 283.795 42.976C284.136 43.3067 284.573 43.472 285.107 43.472ZM290.035 44V43.744L291.043 43.232V38.464L290.083 37.632V37.52L292.067 36.64H292.163L292.307 38H292.371C292.616 37.6053 292.84 37.312 293.043 37.12C293.256 36.9173 293.454 36.7893 293.635 36.736C293.816 36.672 293.998 36.64 294.179 36.64C294.264 36.64 294.36 36.656 294.467 36.688C294.584 36.72 294.68 36.752 294.755 36.784C294.872 36.8373 294.979 36.9013 295.075 36.976C295.182 37.0507 295.235 37.136 295.235 37.232C295.235 37.328 295.214 37.424 295.171 37.52L294.851 38.304H294.739L294.131 38.064C294.014 38.0107 293.896 37.9787 293.779 37.968C293.672 37.9573 293.566 37.952 293.459 37.952C293.011 37.952 292.632 38.1813 292.323 38.64V43.232L293.459 43.744V44H290.035ZM302.059 44.16C301.557 44.16 301.141 44.016 300.811 43.728C300.48 43.4293 300.315 43.0187 300.315 42.496C300.315 41.9733 300.507 41.52 300.891 41.136C301.285 40.752 301.941 40.4533 302.859 40.24L304.379 39.888V38.72C304.379 38.3573 304.229 38.048 303.931 37.792C303.643 37.5253 303.312 37.392 302.939 37.392C302.533 37.392 302.251 37.504 302.091 37.728C301.931 37.9413 301.851 38.2293 301.851 38.592V39.04L301.771 39.12H300.939C300.779 39.12 300.667 39.0933 300.603 39.04C300.549 38.9867 300.523 38.864 300.523 38.672C300.523 38.4373 300.592 38.1973 300.731 37.952C300.869 37.7067 301.083 37.4933 301.371 37.312C301.669 37.12 301.979 36.96 302.299 36.832C302.629 36.704 302.981 36.64 303.355 36.64C303.728 36.64 304.091 36.6933 304.443 36.8C304.805 36.9067 305.099 37.088 305.323 37.344C305.547 37.5893 305.659 37.936 305.659 38.384V42.928C305.733 43.0027 305.84 43.0667 305.979 43.12C306.117 43.1733 306.309 43.2 306.555 43.2H307.163L307.211 43.232V43.28C307.083 43.5147 306.891 43.7227 306.635 43.904C306.389 44.0747 306.085 44.16 305.723 44.16C305.392 44.16 305.12 44.0747 304.907 43.904C304.704 43.7227 304.56 43.488 304.475 43.2H304.379C304.101 43.4773 303.755 43.7067 303.339 43.888C302.933 44.0693 302.507 44.16 302.059 44.16ZM301.562 42.176C301.562 42.8373 301.963 43.168 302.763 43.168C303.019 43.168 303.269 43.1413 303.515 43.088C303.771 43.0347 304.059 42.9387 304.379 42.8V40.432C303.525 40.592 302.901 40.7627 302.507 40.944C302.112 41.1147 301.856 41.3013 301.739 41.504C301.621 41.7067 301.562 41.9307 301.562 42.176ZM312.159 44V43.744L313.167 43.232V38.464L312.207 37.632V37.52L314.191 36.64H314.287L314.431 37.824H314.511C314.916 37.4187 315.305 37.12 315.679 36.928C316.063 36.736 316.484 36.64 316.943 36.64C317.572 36.64 318.084 36.8 318.479 37.12C318.884 37.4293 319.087 37.8933 319.087 38.512V43.232L320.095 43.744V44H316.671V43.744L317.807 43.232V39.264C317.807 38.7947 317.657 38.4373 317.359 38.192C317.071 37.9467 316.692 37.824 316.223 37.824C315.935 37.824 315.615 37.872 315.263 37.968C314.921 38.064 314.649 38.2027 314.447 38.384V43.232L315.583 43.744V44H312.159ZM324.847 44.16C323.812 44.16 322.996 43.8453 322.399 43.216C321.802 42.5867 321.503 41.7547 321.503 40.72C321.503 39.92 321.658 39.216 321.967 38.608C322.287 37.9893 322.703 37.5093 323.215 37.168C323.738 36.816 324.303 36.64 324.911 36.64C325.754 36.64 326.415 36.9333 326.895 37.52C327.386 38.1067 327.631 38.9493 327.631 40.048L327.551 40.128H322.767C322.778 40.6187 322.874 41.0827 323.055 41.52C323.236 41.9467 323.524 42.2933 323.919 42.56C324.324 42.8267 324.863 42.96 325.535 42.96C326.122 42.96 326.81 42.7467 327.599 42.32H327.647V42.48C327.402 42.9387 327.034 43.3333 326.543 43.664C326.063 43.9947 325.498 44.16 324.847 44.16ZM324.655 37.344C324.143 37.344 323.722 37.5253 323.391 37.888C323.071 38.24 322.874 38.7413 322.799 39.392H326.415C326.298 38.6667 326.09 38.144 325.791 37.824C325.503 37.504 325.124 37.344 324.655 37.344ZM331.669 44L329.157 37.552L328.085 37.056V36.8H331.909V37.056L330.597 37.536V37.632L332.261 42.064H332.325L334.597 36.8H334.933L337.205 42.016H337.269L338.885 37.728V37.632L337.733 37.056V36.8H340.869V37.056L339.685 37.616L337.013 44H336.677L334.373 38.784L332.005 44H331.669ZM346.996 44.16C346.495 44.16 346.079 44.016 345.748 43.728C345.417 43.4293 345.252 43.0187 345.252 42.496C345.252 41.9733 345.444 41.52 345.828 41.136C346.223 40.752 346.879 40.4533 347.796 40.24L349.316 39.888V38.72C349.316 38.3573 349.167 38.048 348.868 37.792C348.58 37.5253 348.249 37.392 347.876 37.392C347.471 37.392 347.188 37.504 347.028 37.728C346.868 37.9413 346.788 38.2293 346.788 38.592V39.04L346.708 39.12H345.876C345.716 39.12 345.604 39.0933 345.54 39.04C345.487 38.9867 345.46 38.864 345.46 38.672C345.46 38.4373 345.529 38.1973 345.668 37.952C345.807 37.7067 346.02 37.4933 346.308 37.312C346.607 37.12 346.916 36.96 347.236 36.832C347.567 36.704 347.919 36.64 348.292 36.64C348.665 36.64 349.028 36.6933 349.38 36.8C349.743 36.9067 350.036 37.088 350.26 37.344C350.484 37.5893 350.596 37.936 350.596 38.384V42.928C350.671 43.0027 350.777 43.0667 350.916 43.12C351.055 43.1733 351.247 43.2 351.492 43.2H352.1L352.148 43.232V43.28C352.02 43.5147 351.828 43.7227 351.572 43.904C351.327 44.0747 351.023 44.16 350.66 44.16C350.329 44.16 350.057 44.0747 349.844 43.904C349.641 43.7227 349.497 43.488 349.412 43.2H349.316C349.039 43.4773 348.692 43.7067 348.276 43.888C347.871 44.0693 347.444 44.16 346.996 44.16ZM346.5 42.176C346.5 42.8373 346.9 43.168 347.7 43.168C347.956 43.168 348.207 43.1413 348.452 43.088C348.708 43.0347 348.996 42.9387 349.316 42.8V40.432C348.463 40.592 347.839 40.7627 347.444 40.944C347.049 41.1147 346.793 41.3013 346.676 41.504C346.559 41.7067 346.5 41.9307 346.5 42.176ZM353.096 47.68V47.424L354.104 46.912V38.464L353.144 37.632V37.52L355.128 36.64H355.224L355.352 37.616H355.464C355.869 37.2747 356.259 37.0293 356.632 36.88C357.005 36.72 357.411 36.64 357.848 36.64C358.392 36.64 358.872 36.7787 359.288 37.056C359.704 37.3333 360.029 37.728 360.264 38.24C360.509 38.7413 360.632 39.344 360.632 40.048C360.632 40.9227 360.467 41.6693 360.136 42.288C359.816 42.896 359.379 43.36 358.824 43.68C358.269 44 357.661 44.16 357 44.16C356.403 44.16 355.864 44.1067 355.384 44V46.912L356.52 47.424V47.68H353.096ZM356.968 37.744C356.712 37.744 356.445 37.7867 356.168 37.872C355.901 37.9467 355.64 38.064 355.384 38.224V42.72C355.704 42.976 356.029 43.152 356.36 43.248C356.691 43.344 357.059 43.392 357.464 43.392C357.976 43.392 358.419 43.1787 358.792 42.752C359.165 42.3147 359.352 41.5893 359.352 40.576C359.352 39.9147 359.245 39.376 359.032 38.96C358.819 38.544 358.531 38.24 358.168 38.048C357.805 37.8453 357.405 37.744 356.968 37.744ZM362.174 47.68V47.424L363.182 46.912V38.464L362.222 37.632V37.52L364.206 36.64H364.302L364.43 37.616H364.542C364.948 37.2747 365.337 37.0293 365.71 36.88C366.084 36.72 366.489 36.64 366.926 36.64C367.47 36.64 367.95 36.7787 368.366 37.056C368.782 37.3333 369.108 37.728 369.342 38.24C369.588 38.7413 369.71 39.344 369.71 40.048C369.71 40.9227 369.545 41.6693 369.214 42.288C368.894 42.896 368.457 43.36 367.902 43.68C367.348 44 366.74 44.16 366.078 44.16C365.481 44.16 364.942 44.1067 364.462 44V46.912L365.598 47.424V47.68H362.174ZM366.046 37.744C365.79 37.744 365.524 37.7867 365.246 37.872C364.98 37.9467 364.718 38.064 364.462 38.224V42.72C364.782 42.976 365.108 43.152 365.438 43.248C365.769 43.344 366.137 43.392 366.542 43.392C367.054 43.392 367.497 43.1787 367.87 42.752C368.244 42.3147 368.43 41.5893 368.43 40.576C368.43 39.9147 368.324 39.376 368.11 38.96C367.897 38.544 367.609 38.24 367.246 38.048C366.884 37.8453 366.484 37.744 366.046 37.744ZM378.628 44.16C377.594 44.16 376.778 43.8453 376.18 43.216C375.583 42.5867 375.284 41.7547 375.284 40.72C375.284 39.92 375.444 39.216 375.764 38.608C376.095 37.9893 376.538 37.5093 377.092 37.168C377.647 36.816 378.271 36.64 378.964 36.64C379.391 36.64 379.807 36.7147 380.212 36.864C380.618 37.0027 380.927 37.1893 381.14 37.424C381.311 37.6267 381.396 37.7867 381.396 37.904C381.396 38.0533 381.327 38.1813 381.188 38.288L380.58 38.8H380.468L379.924 38.064C379.764 37.8507 379.562 37.68 379.316 37.552C379.082 37.4133 378.788 37.344 378.436 37.344C377.85 37.344 377.386 37.5787 377.044 38.048C376.714 38.5067 376.548 39.152 376.548 39.984C376.548 40.496 376.634 40.9813 376.804 41.44C376.975 41.888 377.258 42.256 377.652 42.544C378.058 42.8213 378.612 42.96 379.316 42.96C379.903 42.96 380.591 42.7467 381.38 42.32H381.428V42.48C381.183 42.9387 380.815 43.3333 380.324 43.664C379.844 43.9947 379.279 44.16 378.628 44.16ZM386.461 44.16C385.757 44.16 385.138 43.9947 384.605 43.664C384.082 43.3333 383.671 42.8853 383.373 42.32C383.085 41.7547 382.941 41.1147 382.941 40.4C382.941 39.6853 383.085 39.0453 383.373 38.48C383.671 37.9147 384.082 37.4667 384.605 37.136C385.138 36.8053 385.757 36.64 386.461 36.64C387.165 36.64 387.778 36.8053 388.301 37.136C388.834 37.4667 389.245 37.9147 389.533 38.48C389.831 39.0453 389.981 39.6853 389.981 40.4C389.981 41.1147 389.831 41.7547 389.533 42.32C389.245 42.8853 388.834 43.3333 388.301 43.664C387.778 43.9947 387.165 44.16 386.461 44.16ZM386.685 43.472C387.111 43.472 387.463 43.3387 387.741 43.072C388.018 42.8053 388.221 42.464 388.349 42.048C388.477 41.6213 388.541 41.1787 388.541 40.72C388.541 40.1547 388.461 39.6107 388.301 39.088C388.151 38.5653 387.906 38.1387 387.565 37.808C387.234 37.4773 386.802 37.312 386.269 37.312C385.831 37.312 385.474 37.4453 385.197 37.712C384.919 37.9787 384.711 38.32 384.573 38.736C384.445 39.152 384.381 39.5947 384.381 40.064C384.381 40.6293 384.461 41.1733 384.621 41.696C384.781 42.2187 385.031 42.6453 385.373 42.976C385.714 43.3067 386.151 43.472 386.685 43.472ZM391.549 44V43.744L392.557 43.232V38.464L391.597 37.632V37.52L393.581 36.64H393.677L393.821 37.824H393.901C394.307 37.4187 394.696 37.12 395.069 36.928C395.453 36.736 395.875 36.64 396.333 36.64C396.963 36.64 397.475 36.8 397.869 37.12C398.275 37.4293 398.477 37.8933 398.477 38.512V43.232L399.485 43.744V44H396.061V43.744L397.197 43.232V39.264C397.197 38.7947 397.048 38.4373 396.749 38.192C396.461 37.9467 396.083 37.824 395.613 37.824C395.325 37.824 395.005 37.872 394.653 37.968C394.312 38.064 394.04 38.2027 393.837 38.384V43.232L394.973 43.744V44H391.549ZM404.238 44.16C403.203 44.16 402.387 43.8453 401.79 43.216C401.192 42.5867 400.894 41.7547 400.894 40.72C400.894 39.92 401.054 39.216 401.374 38.608C401.704 37.9893 402.147 37.5093 402.702 37.168C403.256 36.816 403.88 36.64 404.574 36.64C405 36.64 405.416 36.7147 405.822 36.864C406.227 37.0027 406.536 37.1893 406.75 37.424C406.92 37.6267 407.006 37.7867 407.006 37.904C407.006 38.0533 406.936 38.1813 406.798 38.288L406.19 38.8H406.078L405.534 38.064C405.374 37.8507 405.171 37.68 404.926 37.552C404.691 37.4133 404.398 37.344 404.046 37.344C403.459 37.344 402.995 37.5787 402.654 38.048C402.323 38.5067 402.158 39.152 402.158 39.984C402.158 40.496 402.243 40.9813 402.414 41.44C402.584 41.888 402.867 42.256 403.262 42.544C403.667 42.8213 404.222 42.96 404.926 42.96C405.512 42.96 406.2 42.7467 406.99 42.32H407.038V42.48C406.792 42.9387 406.424 43.3333 405.934 43.664C405.454 43.9947 404.888 44.16 404.238 44.16ZM411.894 44.16C410.859 44.16 410.043 43.8453 409.446 43.216C408.849 42.5867 408.55 41.7547 408.55 40.72C408.55 39.92 408.705 39.216 409.014 38.608C409.334 37.9893 409.75 37.5093 410.262 37.168C410.785 36.816 411.35 36.64 411.958 36.64C412.801 36.64 413.462 36.9333 413.942 37.52C414.433 38.1067 414.678 38.9493 414.678 40.048L414.598 40.128H409.814C409.825 40.6187 409.921 41.0827 410.102 41.52C410.283 41.9467 410.571 42.2933 410.966 42.56C411.371 42.8267 411.91 42.96 412.582 42.96C413.169 42.96 413.857 42.7467 414.646 42.32H414.694V42.48C414.449 42.9387 414.081 43.3333 413.59 43.664C413.11 43.9947 412.545 44.16 411.894 44.16ZM411.702 37.344C411.19 37.344 410.769 37.5253 410.438 37.888C410.118 38.24 409.921 38.7413 409.846 39.392H413.462C413.345 38.6667 413.137 38.144 412.838 37.824C412.55 37.504 412.171 37.344 411.702 37.344ZM416.268 47.68V47.424L417.276 46.912V38.464L416.316 37.632V37.52L418.3 36.64H418.396L418.524 37.616H418.636C419.041 37.2747 419.431 37.0293 419.804 36.88C420.177 36.72 420.583 36.64 421.02 36.64C421.564 36.64 422.044 36.7787 422.46 37.056C422.876 37.3333 423.201 37.728 423.436 38.24C423.681 38.7413 423.804 39.344 423.804 40.048C423.804 40.9227 423.639 41.6693 423.308 42.288C422.988 42.896 422.551 43.36 421.996 43.68C421.441 44 420.833 44.16 420.172 44.16C419.575 44.16 419.036 44.1067 418.556 44V46.912L419.692 47.424V47.68H416.268ZM420.14 37.744C419.884 37.744 419.617 37.7867 419.34 37.872C419.073 37.9467 418.812 38.064 418.556 38.224V42.72C418.876 42.976 419.201 43.152 419.532 43.248C419.863 43.344 420.231 43.392 420.636 43.392C421.148 43.392 421.591 43.1787 421.964 42.752C422.337 42.3147 422.524 41.5893 422.524 40.576C422.524 39.9147 422.417 39.376 422.204 38.96C421.991 38.544 421.703 38.24 421.34 38.048C420.977 37.8453 420.577 37.744 420.14 37.744ZM427.906 44.16C427.437 44.16 427.031 44.0213 426.69 43.744C426.349 43.4667 426.178 43.0773 426.178 42.576V37.552H424.866V37.456L426.226 36.8L427.362 35.04H427.458V36.8H429.57V37.552H427.458V42.304C427.458 42.5813 427.581 42.784 427.826 42.912C428.071 43.04 428.359 43.104 428.69 43.104C428.893 43.104 429.079 43.0933 429.25 43.072C429.431 43.0507 429.586 43.024 429.714 42.992H429.762V43.152C429.655 43.3973 429.442 43.6267 429.122 43.84C428.813 44.0533 428.407 44.16 427.906 44.16ZM434.234 45.92L437.434 32H438.234L435.034 45.92H434.234ZM445.722 44.16C445.189 44.16 444.709 44.0267 444.282 43.76C443.866 43.4933 443.536 43.12 443.29 42.64C443.056 42.1493 442.938 41.568 442.938 40.896C442.938 39.9893 443.114 39.2213 443.466 38.592C443.818 37.952 444.288 37.4667 444.874 37.136C445.461 36.8053 446.101 36.64 446.794 36.64C447.093 36.64 447.354 36.656 447.578 36.688C447.802 36.7093 448.005 36.7413 448.186 36.784V33.824L447.146 32.992V32.88L449.37 32H449.466V43.28L450.602 43.744V44H448.346L448.218 43.184H448.106C447.701 43.5253 447.306 43.776 446.922 43.936C446.549 44.0853 446.149 44.16 445.722 44.16ZM444.218 40.528C444.218 41.4133 444.453 42.0587 444.922 42.464C445.392 42.8587 445.952 43.056 446.602 43.056C446.858 43.056 447.12 43.0187 447.386 42.944C447.664 42.8587 447.93 42.736 448.186 42.576V38.096C447.93 37.872 447.674 37.7067 447.418 37.6C447.173 37.4827 446.896 37.424 446.586 37.424C446.16 37.424 445.765 37.5307 445.402 37.744C445.05 37.9467 444.762 38.2773 444.538 38.736C444.325 39.184 444.218 39.7813 444.218 40.528ZM455.492 44.16C454.788 44.16 454.169 43.9947 453.636 43.664C453.113 43.3333 452.703 42.8853 452.404 42.32C452.116 41.7547 451.972 41.1147 451.972 40.4C451.972 39.6853 452.116 39.0453 452.404 38.48C452.703 37.9147 453.113 37.4667 453.636 37.136C454.169 36.8053 454.788 36.64 455.492 36.64C456.196 36.64 456.809 36.8053 457.332 37.136C457.865 37.4667 458.276 37.9147 458.564 38.48C458.863 39.0453 459.012 39.6853 459.012 40.4C459.012 41.1147 458.863 41.7547 458.564 42.32C458.276 42.8853 457.865 43.3333 457.332 43.664C456.809 43.9947 456.196 44.16 455.492 44.16ZM455.716 43.472C456.143 43.472 456.495 43.3387 456.772 43.072C457.049 42.8053 457.252 42.464 457.38 42.048C457.508 41.6213 457.572 41.1787 457.572 40.72C457.572 40.1547 457.492 39.6107 457.332 39.088C457.183 38.5653 456.937 38.1387 456.596 37.808C456.265 37.4773 455.833 37.312 455.3 37.312C454.863 37.312 454.505 37.4453 454.228 37.712C453.951 37.9787 453.743 38.32 453.604 38.736C453.476 39.152 453.412 39.5947 453.412 40.064C453.412 40.6293 453.492 41.1733 453.652 41.696C453.812 42.2187 454.063 42.6453 454.404 42.976C454.745 43.3067 455.183 43.472 455.716 43.472ZM463.029 44L460.517 37.552L459.444 37.056V36.8H463.269V37.056L461.957 37.536V37.632L463.621 42.064H463.685L465.957 36.8H466.293L468.565 42.016H468.628L470.245 37.728V37.632L469.093 37.056V36.8H472.229V37.056L471.045 37.616L468.373 44H468.036L465.733 38.784L463.365 44H463.029ZM472.627 44V43.744L473.635 43.232V38.464L472.675 37.632V37.52L474.659 36.64H474.755L474.899 37.824H474.979C475.385 37.4187 475.774 37.12 476.147 36.928C476.531 36.736 476.953 36.64 477.411 36.64C478.041 36.64 478.553 36.8 478.947 37.12C479.353 37.4293 479.555 37.8933 479.555 38.512V43.232L480.563 43.744V44H477.139V43.744L478.275 43.232V39.264C478.275 38.7947 478.126 38.4373 477.827 38.192C477.539 37.9467 477.161 37.824 476.691 37.824C476.403 37.824 476.083 37.872 475.731 37.968C475.39 38.064 475.118 38.2027 474.915 38.384V43.232L476.051 43.744V44H472.627ZM481.876 44V43.744L482.884 43.232V33.824L481.924 32.992V32.88L484.068 32H484.164V43.232L485.172 43.744V44H481.876ZM490.195 44.16C489.491 44.16 488.872 43.9947 488.339 43.664C487.816 43.3333 487.406 42.8853 487.107 42.32C486.819 41.7547 486.675 41.1147 486.675 40.4C486.675 39.6853 486.819 39.0453 487.107 38.48C487.406 37.9147 487.816 37.4667 488.339 37.136C488.872 36.8053 489.491 36.64 490.195 36.64C490.899 36.64 491.512 36.8053 492.035 37.136C492.568 37.4667 492.979 37.9147 493.267 38.48C493.566 39.0453 493.715 39.6853 493.715 40.4C493.715 41.1147 493.566 41.7547 493.267 42.32C492.979 42.8853 492.568 43.3333 492.035 43.664C491.512 43.9947 490.899 44.16 490.195 44.16ZM490.419 43.472C490.846 43.472 491.198 43.3387 491.475 43.072C491.752 42.8053 491.955 42.464 492.083 42.048C492.211 41.6213 492.275 41.1787 492.275 40.72C492.275 40.1547 492.195 39.6107 492.035 39.088C491.886 38.5653 491.64 38.1387 491.299 37.808C490.968 37.4773 490.536 37.312 490.003 37.312C489.566 37.312 489.208 37.4453 488.931 37.712C488.654 37.9787 488.446 38.32 488.307 38.736C488.179 39.152 488.115 39.5947 488.115 40.064C488.115 40.6293 488.195 41.1733 488.355 41.696C488.515 42.2187 488.766 42.6453 489.107 42.976C489.448 43.3067 489.886 43.472 490.419 43.472ZM497.09 44.16C496.588 44.16 496.172 44.016 495.842 43.728C495.511 43.4293 495.346 43.0187 495.346 42.496C495.346 41.9733 495.538 41.52 495.922 41.136C496.316 40.752 496.972 40.4533 497.89 40.24L499.41 39.888V38.72C499.41 38.3573 499.26 38.048 498.962 37.792C498.674 37.5253 498.343 37.392 497.97 37.392C497.564 37.392 497.282 37.504 497.122 37.728C496.962 37.9413 496.882 38.2293 496.882 38.592V39.04L496.802 39.12H495.97C495.81 39.12 495.698 39.0933 495.634 39.04C495.58 38.9867 495.554 38.864 495.554 38.672C495.554 38.4373 495.623 38.1973 495.762 37.952C495.9 37.7067 496.114 37.4933 496.402 37.312C496.7 37.12 497.01 36.96 497.33 36.832C497.66 36.704 498.012 36.64 498.386 36.64C498.759 36.64 499.122 36.6933 499.474 36.8C499.836 36.9067 500.13 37.088 500.354 37.344C500.578 37.5893 500.69 37.936 500.69 38.384V42.928C500.764 43.0027 500.871 43.0667 501.01 43.12C501.148 43.1733 501.34 43.2 501.586 43.2H502.194L502.242 43.232V43.28C502.114 43.5147 501.922 43.7227 501.666 43.904C501.42 44.0747 501.116 44.16 500.754 44.16C500.423 44.16 500.151 44.0747 499.938 43.904C499.735 43.7227 499.591 43.488 499.506 43.2H499.41C499.132 43.4773 498.786 43.7067 498.37 43.888C497.964 44.0693 497.538 44.16 497.09 44.16ZM496.594 42.176C496.594 42.8373 496.994 43.168 497.794 43.168C498.05 43.168 498.3 43.1413 498.546 43.088C498.802 43.0347 499.09 42.9387 499.41 42.8V40.432C498.556 40.592 497.932 40.7627 497.538 40.944C497.143 41.1147 496.887 41.3013 496.77 41.504C496.652 41.7067 496.594 41.9307 496.594 42.176ZM505.91 44.16C505.377 44.16 504.897 44.0267 504.47 43.76C504.054 43.4933 503.723 43.12 503.478 42.64C503.243 42.1493 503.126 41.568 503.126 40.896C503.126 39.9893 503.302 39.2213 503.654 38.592C504.006 37.952 504.475 37.4667 505.062 37.136C505.649 36.8053 506.289 36.64 506.982 36.64C507.281 36.64 507.542 36.656 507.766 36.688C507.99 36.7093 508.193 36.7413 508.374 36.784V33.824L507.334 32.992V32.88L509.558 32H509.654V43.28L510.79 43.744V44H508.534L508.406 43.184H508.294C507.889 43.5253 507.494 43.776 507.11 43.936C506.737 44.0853 506.337 44.16 505.91 44.16ZM504.406 40.528C504.406 41.4133 504.641 42.0587 505.11 42.464C505.579 42.8587 506.139 43.056 506.79 43.056C507.046 43.056 507.307 43.0187 507.574 42.944C507.851 42.8587 508.118 42.736 508.374 42.576V38.096C508.118 37.872 507.862 37.7067 507.606 37.6C507.361 37.4827 507.083 37.424 506.774 37.424C506.347 37.424 505.953 37.5307 505.59 37.744C505.238 37.9467 504.95 38.2773 504.726 38.736C504.513 39.184 504.406 39.7813 504.406 40.528Z" fill="#4E2A2A"/>
<g clip-path="url(#clip1_447_163)">
<path d="M126 33.6666L125.06 34.6066L128.78 38.3333H120.667V39.6666H128.78L125.053 43.3866L126 44.3333L131.333 38.9999L126 33.6666Z" fill="#4E2A2A"/>
</g>
<path d="M407.5 257C403.358 257 400 260.358 400 264.5V359.5C400 363.642 403.358 367 407.5 367H472.5C476.642 367 480 363.642 480 359.5V287L450 257H407.5Z" fill="#F4B70A"/>
<path d="M407.5 367C403.358 367 400 363.642 400 359.5V358.25C400 362.392 403.358 365.75 407.5 365.75H472.5C476.642 365.75 480 362.392 480 358.25V359.5C480 363.642 476.642 367 472.5 367H407.5Z" fill="#EFA904"/>
<path d="M407.5 257C403.358 257 400 260.358 400 264.5V265.75C400 261.608 403.358 258.25 407.5 258.25H451.25L450 257H407.5Z" fill="#F6C028"/>
<path d="M480 312.625V287L475.625 282.625H454.527C452.856 282.625 452.02 284.645 453.201 285.826L480 312.625Z" fill="url(#paint0_linear_447_163)"/>
<path d="M450 257L480 287H457.5C453.358 287 450 283.642 450 279.5V257Z" fill="#FADC87"/>
<path fill-rule="evenodd" clip-rule="evenodd" d="M422.5 307C421.119 307 420 308.119 420 309.5V344.5C420 345.881 421.119 347 422.5 347H457.5C458.881 347 460 345.881 460 344.5V309.5C460 308.119 458.881 307 457.5 307H422.5ZM455 318.25H425V335.75H455V318.25Z" fill="white"/>
<path d="M389.556 391.8V381.12H391.632V381.372H390.18V391.548H391.632V391.8H389.556ZM393.026 390.072V382.044L392.246 381.612V381.48L393.746 381H393.842V385.224H393.89C394.194 384.968 394.49 384.78 394.778 384.66C395.066 384.54 395.37 384.48 395.69 384.48C396.09 384.48 396.446 384.584 396.758 384.792C397.078 385 397.326 385.296 397.502 385.68C397.686 386.056 397.778 386.508 397.778 387.036C397.778 387.692 397.65 388.252 397.394 388.716C397.146 389.172 396.81 389.52 396.386 389.76C395.962 390 395.49 390.12 394.97 390.12C394.69 390.12 394.414 390.084 394.142 390.012C393.878 389.94 393.634 389.852 393.41 389.748L393.122 390.072H393.026ZM395.162 385.14C394.69 385.14 394.25 385.292 393.842 385.596V389.148C394.282 389.484 394.774 389.652 395.318 389.652C395.614 389.652 395.886 389.576 396.134 389.424C396.39 389.264 396.594 389.008 396.746 388.656C396.898 388.304 396.974 387.844 396.974 387.276C396.974 386.78 396.89 386.376 396.722 386.064C396.554 385.744 396.33 385.512 396.05 385.368C395.778 385.216 395.482 385.14 395.162 385.14ZM398.939 390V389.808L399.695 389.508V382.044L398.915 381.576V381.456L400.415 381H400.511V389.508L401.303 389.808V390H398.939ZM404.545 390.12C404.073 390.12 403.681 389.992 403.369 389.736C403.065 389.48 402.913 389.108 402.913 388.62V385.092L402.121 384.792V384.6H403.729V388.152C403.729 388.56 403.845 388.872 404.077 389.088C404.309 389.296 404.613 389.4 404.989 389.4C405.213 389.4 405.453 389.356 405.709 389.268C405.973 389.18 406.185 389.048 406.345 388.872V385.092L405.445 384.792V384.6H407.161V389.52L408.013 389.808V390H406.345V389.256H406.297C405.993 389.56 405.705 389.78 405.433 389.916C405.161 390.052 404.865 390.12 404.545 390.12ZM409.031 390V389.808L409.787 389.508V385.524L409.007 385.116V384.984L410.411 384.48H410.507L410.591 385.524H410.627C410.867 385.212 411.067 384.984 411.227 384.84C411.395 384.688 411.547 384.592 411.683 384.552C411.819 384.504 411.955 384.48 412.091 384.48C412.155 384.48 412.227 384.492 412.307 384.516C412.387 384.532 412.451 384.552 412.499 384.576C412.587 384.608 412.659 384.648 412.715 384.696C412.771 384.744 412.799 384.796 412.799 384.852C412.799 384.876 412.795 384.904 412.787 384.936C412.787 384.968 412.779 385 412.763 385.032L412.571 385.512H412.511L412.151 385.356C412.007 385.3 411.847 385.272 411.671 385.272C411.471 385.272 411.283 385.324 411.107 385.428C410.931 385.532 410.763 385.704 410.603 385.944V389.508L411.479 389.808V390H409.031ZM414.884 390.12C414.508 390.12 414.196 390.012 413.948 389.796C413.7 389.572 413.576 389.264 413.576 388.872C413.576 388.48 413.72 388.148 414.008 387.876C414.296 387.604 414.772 387.388 415.436 387.228L416.6 386.94V386.016C416.6 385.712 416.48 385.46 416.24 385.26C416.008 385.06 415.748 384.96 415.46 384.96C415.14 384.96 414.916 385.036 414.788 385.188C414.66 385.34 414.596 385.548 414.596 385.812V386.208L414.536 386.268H414.032C413.912 386.268 413.828 386.252 413.78 386.22C413.74 386.18 413.72 386.092 413.72 385.956C413.72 385.788 413.772 385.616 413.876 385.44C413.98 385.264 414.136 385.112 414.344 384.984C414.568 384.84 414.796 384.72 415.028 384.624C415.268 384.528 415.508 384.48 415.748 384.48C416.052 384.48 416.328 384.524 416.576 384.612C416.824 384.692 417.024 384.828 417.176 385.02C417.328 385.212 417.404 385.468 417.404 385.788V389.328C417.468 389.392 417.548 389.44 417.644 389.472C417.74 389.504 417.864 389.52 418.016 389.52H418.544L418.568 389.544V389.568C418.488 389.704 418.364 389.832 418.196 389.952C418.036 390.064 417.832 390.12 417.584 390.12C417.328 390.12 417.124 390.052 416.972 389.916C416.82 389.78 416.716 389.608 416.66 389.4H416.6C416.392 389.608 416.136 389.78 415.832 389.916C415.536 390.052 415.22 390.12 414.884 390.12ZM414.38 388.644C414.38 388.924 414.464 389.136 414.632 389.28C414.8 389.416 415.036 389.484 415.34 389.484C415.54 389.484 415.744 389.46 415.952 389.412C416.16 389.364 416.376 389.284 416.6 389.172V387.288C415.952 387.416 415.468 387.548 415.148 387.684C414.836 387.82 414.628 387.968 414.524 388.128C414.428 388.28 414.38 388.452 414.38 388.644ZM421.143 390.12C420.799 390.12 420.507 390.016 420.267 389.808C420.035 389.6 419.919 389.308 419.919 388.932V385.104H418.911V385.008L419.979 384.6L420.639 383.28H420.735V384.6H422.319V385.104H420.735V388.8C420.735 389.024 420.819 389.192 420.987 389.304C421.155 389.408 421.367 389.46 421.623 389.46C421.783 389.46 421.931 389.448 422.067 389.424C422.203 389.392 422.327 389.356 422.439 389.316L422.463 389.328V389.412C422.383 389.572 422.231 389.732 422.007 389.892C421.791 390.044 421.503 390.12 421.143 390.12ZM425.964 390.12C425.428 390.12 424.968 390.008 424.584 389.784C424.208 389.56 423.92 389.252 423.72 388.86C423.52 388.46 423.42 388 423.42 387.48C423.42 386.904 423.536 386.392 423.768 385.944C424 385.488 424.308 385.132 424.692 384.876C425.076 384.612 425.492 384.48 425.94 384.48C426.572 384.48 427.068 384.696 427.428 385.128C427.788 385.56 427.98 386.168 428.004 386.952L427.956 387H424.224C424.224 387.032 424.224 387.064 424.224 387.096C424.224 387.512 424.296 387.896 424.44 388.248C424.584 388.592 424.812 388.868 425.124 389.076C425.436 389.276 425.84 389.376 426.336 389.376C426.928 389.376 427.472 389.2 427.968 388.848H428.004V388.98C427.828 389.3 427.56 389.572 427.2 389.796C426.848 390.012 426.436 390.12 425.964 390.12ZM425.76 384.9C425.376 384.9 425.048 385.048 424.776 385.344C424.504 385.632 424.332 386.04 424.26 386.568H427.188C427.028 385.456 426.552 384.9 425.76 384.9ZM429.967 390.06C429.791 390.06 429.639 389.996 429.511 389.868C429.383 389.732 429.319 389.576 429.319 389.4C429.319 389.224 429.383 389.072 429.511 388.944C429.639 388.816 429.791 388.752 429.967 388.752C430.143 388.752 430.295 388.816 430.423 388.944C430.559 389.072 430.627 389.224 430.627 389.4C430.627 389.576 430.559 389.732 430.423 389.868C430.295 389.996 430.143 390.06 429.967 390.06ZM432.022 392.76V392.568L432.778 392.268V385.524L431.998 385.116V384.984L433.402 384.48H433.498L433.57 385.212H433.642C433.946 384.956 434.238 384.772 434.518 384.66C434.806 384.54 435.114 384.48 435.442 384.48C435.842 384.48 436.198 384.584 436.51 384.792C436.822 385 437.066 385.296 437.242 385.68C437.426 386.056 437.518 386.508 437.518 387.036C437.518 387.692 437.394 388.252 437.146 388.716C436.898 389.172 436.566 389.52 436.15 389.76C435.734 390 435.274 390.12 434.77 390.12C434.554 390.12 434.346 390.1 434.146 390.06C433.954 390.028 433.77 389.984 433.594 389.928V392.268L434.446 392.568V392.76H432.022ZM434.914 385.14C434.434 385.14 433.994 385.292 433.594 385.596V389.148C433.834 389.332 434.078 389.464 434.326 389.544C434.574 389.616 434.846 389.652 435.142 389.652C435.43 389.652 435.694 389.576 435.934 389.424C436.174 389.272 436.366 389.028 436.51 388.692C436.654 388.348 436.726 387.9 436.726 387.348C436.726 386.836 436.642 386.42 436.474 386.1C436.306 385.772 436.082 385.532 435.802 385.38C435.53 385.22 435.234 385.14 434.914 385.14ZM440.847 390.12C440.447 390.12 440.091 390.02 439.779 389.82C439.467 389.62 439.219 389.332 439.035 388.956C438.859 388.58 438.771 388.136 438.771 387.624C438.771 386.952 438.899 386.384 439.155 385.92C439.419 385.448 439.767 385.092 440.199 384.852C440.639 384.604 441.115 384.48 441.627 384.48C441.835 384.48 442.027 384.496 442.203 384.528C442.379 384.56 442.543 384.604 442.695 384.66V382.044L441.879 381.576V381.456L443.415 381H443.511V389.52L444.363 389.808V390H442.815L442.707 389.388H442.647C442.351 389.636 442.059 389.82 441.771 389.94C441.483 390.06 441.175 390.12 440.847 390.12ZM439.563 387.384C439.563 387.864 439.647 388.256 439.815 388.56C439.983 388.864 440.203 389.092 440.475 389.244C440.755 389.388 441.055 389.46 441.375 389.46C441.599 389.46 441.823 389.424 442.047 389.352C442.279 389.272 442.495 389.156 442.695 389.004V385.428C442.479 385.276 442.267 385.16 442.059 385.08C441.851 385 441.619 384.96 441.363 384.96C441.043 384.96 440.743 385.04 440.463 385.2C440.191 385.36 439.971 385.62 439.803 385.98C439.643 386.332 439.563 386.8 439.563 387.384ZM445.548 390V389.808L446.304 389.508V385.104H445.32V384.6H446.304V384.12C446.304 383.92 446.34 383.688 446.412 383.424C446.492 383.152 446.604 382.876 446.748 382.596C446.9 382.316 447.084 382.056 447.3 381.816C447.516 381.576 447.764 381.38 448.044 381.228C448.324 381.076 448.636 381 448.98 381C449.044 381 449.108 381.012 449.172 381.036C449.244 381.052 449.3 381.068 449.34 381.084C449.532 381.164 449.628 381.256 449.628 381.36C449.628 381.384 449.624 381.416 449.616 381.456C449.616 381.488 449.608 381.52 449.592 381.552L449.4 382.032H449.34L449.04 381.924C448.808 381.836 448.556 381.792 448.284 381.792C447.86 381.792 447.56 381.944 447.384 382.248C447.208 382.544 447.12 383.008 447.12 383.64V384.6H448.704V385.104H447.12V389.52L447.996 389.808V390H445.548ZM449.274 392.388V392.148C449.922 391.804 450.246 391.376 450.246 390.864C450.246 390.64 450.19 390.456 450.078 390.312C449.974 390.168 449.834 390.044 449.658 389.94L449.286 389.712L449.262 389.616L449.538 389.148C449.634 388.98 449.73 388.896 449.826 388.896C449.914 388.896 450.01 388.928 450.114 388.992C450.354 389.128 450.534 389.32 450.654 389.568C450.782 389.816 450.846 390.084 450.846 390.372C450.846 390.756 450.726 391.124 450.486 391.476C450.246 391.836 449.842 392.14 449.274 392.388ZM456.321 390V389.76L457.389 389.4V383.088L455.421 384.144V383.748L458.025 382.08H458.241V389.4L459.189 389.76V390H456.321ZM461.877 390.06C461.701 390.06 461.549 389.996 461.421 389.868C461.293 389.732 461.229 389.576 461.229 389.4C461.229 389.224 461.293 389.072 461.421 388.944C461.549 388.816 461.701 388.752 461.877 388.752C462.053 388.752 462.205 388.816 462.333 388.944C462.469 389.072 462.537 389.224 462.537 389.4C462.537 389.576 462.469 389.732 462.333 389.868C462.205 389.996 462.053 390.06 461.877 390.06ZM465.169 390V389.76L466.237 389.4V383.088L464.269 384.144V383.748L466.873 382.08H467.089V389.4L468.037 389.76V390H465.169ZM470.029 390V389.76L470.977 389.4L471.229 382.704L470.197 382.32V382.08H472.273L475.093 388.656L477.949 382.08H479.941V382.32L478.933 382.692L479.137 389.4L479.977 389.76V390H477.337V389.76L478.225 389.412L478.093 383.196L475.117 390.06H474.697L471.781 383.22L471.637 389.412L472.609 389.76V390H470.029ZM481.479 390V389.76L482.427 389.4V382.68L481.479 382.32V382.08H484.167C484.687 382.08 485.159 382.148 485.583 382.284C486.007 382.412 486.343 382.608 486.591 382.872C486.839 383.128 486.963 383.456 486.963 383.856C486.963 384.272 486.823 384.656 486.543 385.008C486.271 385.352 485.879 385.6 485.367 385.752C486.087 385.848 486.647 386.064 487.047 386.4C487.447 386.736 487.647 387.168 487.647 387.696C487.647 388.136 487.507 388.532 487.227 388.884C486.955 389.228 486.583 389.5 486.111 389.7C485.639 389.9 485.099 390 484.491 390H481.479ZM484.035 382.644H483.363V385.632H484.107C484.675 385.632 485.127 385.504 485.463 385.248C485.799 384.992 485.967 384.632 485.967 384.168C485.967 383.664 485.803 383.284 485.475 383.028C485.147 382.772 484.667 382.644 484.035 382.644ZM484.491 386.196H483.363V389.448H484.575C485.207 389.448 485.711 389.296 486.087 388.992C486.463 388.68 486.651 388.288 486.651 387.816C486.651 387.256 486.459 386.848 486.075 386.592C485.699 386.328 485.171 386.196 484.491 386.196ZM488.366 391.8V391.548H489.818V381.372H488.366V381.12H490.442V391.8H488.366Z" fill="#4E2A2A"/>
</g>
<defs>
<linearGradient id="paint0_linear_447_163" x1="466.324" y1="312.625" x2="466.324" y2="282" gradientUnits="userSpaceOnUse">
<stop stop-color="#F4B70A"/>
<stop offset="1" stop-color="#E2930A"/>
</linearGradient>
<clipPath id="clip0_447_163">
<rect width="880" height="624" fill="white"/>
</clipPath>
<clipPath id="clip1_447_163">
<rect width="16" height="16" fill="white" transform="translate(118 47) rotate(-90)"/>
</clipPath>
</defs>
</svg>
