<svg width="400" height="264" viewBox="0 0 400 264" fill="none" xmlns="http://www.w3.org/2000/svg">
<rect width="400" height="264" rx="16" fill="#E9E0DE"/>
<path d="M47.7992 102H45.6152V82.4H47.7992V90.296H48.1352C48.6205 89.456 49.2925 88.8213 50.1512 88.392C51.0099 87.944 51.9432 87.72 52.9512 87.72C53.8099 87.72 54.6219 87.8787 55.3872 88.196C56.1525 88.5133 56.8245 88.9707 57.4032 89.568C58.0005 90.1653 58.4672 90.9027 58.8032 91.78C59.1579 92.6573 59.3352 93.656 59.3352 94.776V95.336C59.3352 96.4747 59.1672 97.4827 58.8312 98.36C58.4952 99.2373 58.0285 99.9747 57.4312 100.572C56.8525 101.169 56.1712 101.627 55.3872 101.944C54.6032 102.243 53.7725 102.392 52.8952 102.392C52.4472 102.392 51.9899 102.336 51.5232 102.224C51.0565 102.131 50.6085 101.981 50.1792 101.776C49.7685 101.552 49.3859 101.291 49.0312 100.992C48.6765 100.675 48.3779 100.301 48.1352 99.872H47.7992V102ZM52.4472 100.32C53.1192 100.32 53.7352 100.208 54.2952 99.984C54.8552 99.7413 55.3405 99.4053 55.7512 98.976C56.1805 98.5467 56.5072 98.024 56.7312 97.408C56.9739 96.792 57.0952 96.1013 57.0952 95.336V94.776C57.0952 94.0293 56.9739 93.3573 56.7312 92.76C56.5072 92.144 56.1805 91.6213 55.7512 91.192C55.3405 90.744 54.8459 90.3987 54.2672 90.156C53.7072 89.9133 53.1005 89.792 52.4472 89.792C51.7939 89.792 51.1872 89.9227 50.6272 90.184C50.0672 90.4267 49.5725 90.772 49.1432 91.22C48.7325 91.668 48.4059 92.2093 48.1632 92.844C47.9205 93.46 47.7992 94.1413 47.7992 94.888V95.224C47.7992 95.9893 47.9205 96.6893 48.1632 97.324C48.4059 97.94 48.7325 98.472 49.1432 98.92C49.5725 99.368 50.0672 99.7133 50.6272 99.956C51.1872 100.199 51.7939 100.32 52.4472 100.32ZM63.4877 99.984H68.5277V84.416H63.6557V82.4H70.7117V99.984H75.7517V102H63.4877V99.984ZM90.7683 88.112H92.9523V102H90.7683V99.48H90.4323C89.9843 100.376 89.3963 101.085 88.6683 101.608C87.9403 102.131 87.0163 102.392 85.8963 102.392C85.1309 102.392 84.4216 102.261 83.7683 102C83.1336 101.757 82.5829 101.384 82.1163 100.88C81.6683 100.376 81.3136 99.7507 81.0523 99.004C80.8096 98.2573 80.6883 97.3893 80.6883 96.4V88.112H82.8723V96.12C82.8723 97.576 83.1709 98.64 83.7683 99.312C84.3656 99.984 85.2803 100.32 86.5123 100.32C87.8376 100.32 88.8736 99.872 89.6203 98.976C90.3856 98.0613 90.7683 96.848 90.7683 95.336V88.112ZM97.4408 88.112H102.481V89.96H102.817C103.171 89.1947 103.675 88.6347 104.329 88.28C104.982 87.9067 105.729 87.72 106.569 87.72C107.969 87.72 109.098 88.1773 109.957 89.092C110.815 90.0067 111.273 91.3413 111.329 93.096L109.033 93.432C109.033 92.144 108.725 91.22 108.109 90.66C107.493 90.0813 106.737 89.792 105.841 89.792C105.262 89.792 104.758 89.904 104.329 90.128C103.918 90.352 103.573 90.66 103.293 91.052C103.013 91.444 102.807 91.9013 102.677 92.424C102.546 92.9467 102.481 93.5067 102.481 94.104V99.984H106.009V102H97.1048V99.984H100.297V90.128H97.4408V88.112ZM117.525 93.712H125.925V95.728H117.525V93.712ZM143.294 97.128H134.894L133.466 102H130.946L136.882 82.4H141.306L147.242 102H144.722L143.294 97.128ZM138.926 83.408L135.538 94.944H142.65L139.262 83.408H138.926ZM149.574 82.4H163.35V84.584H157.638V102H155.286V84.584H149.574V82.4ZM167.895 82.4H179.767V84.584H170.247V91.08H179.599V93.264H170.247V99.816H179.935V102H167.895V82.4ZM189.239 100.432C189.239 99.8907 189.426 99.4333 189.799 99.06C190.191 98.668 190.658 98.472 191.199 98.472C191.741 98.472 192.198 98.668 192.571 99.06C192.963 99.4333 193.159 99.8907 193.159 100.432C193.159 100.973 192.963 101.44 192.571 101.832C192.198 102.205 191.741 102.392 191.199 102.392C190.658 102.392 190.191 102.205 189.799 101.832C189.426 101.44 189.239 100.973 189.239 100.432ZM189.239 89.68C189.239 89.1387 189.426 88.6813 189.799 88.308C190.191 87.916 190.658 87.72 191.199 87.72C191.741 87.72 192.198 87.916 192.571 88.308C192.963 88.6813 193.159 89.1387 193.159 89.68C193.159 90.2213 192.963 90.688 192.571 91.08C192.198 91.4533 191.741 91.64 191.199 91.64C190.658 91.64 190.191 91.4533 189.799 91.08C189.426 90.688 189.239 90.2213 189.239 89.68ZM219.049 82.4H232.825V84.584H227.113V102H224.761V84.584H219.049V82.4ZM249.185 102H245.153L243.473 89.12H243.137L241.457 102H237.425L235.241 88.112H237.481L239.329 100.992H239.665L241.289 88.112H245.321L246.945 100.992H247.281L249.129 88.112H251.369L249.185 102ZM267.646 95.224C267.646 96.3813 267.45 97.408 267.058 98.304C266.684 99.1813 266.18 99.928 265.546 100.544C264.911 101.141 264.164 101.599 263.306 101.916C262.466 102.233 261.588 102.392 260.674 102.392C259.74 102.392 258.854 102.233 258.014 101.916C257.174 101.599 256.436 101.141 255.802 100.544C255.167 99.928 254.654 99.1813 254.262 98.304C253.888 97.408 253.702 96.3813 253.702 95.224V94.888C253.702 93.7493 253.888 92.7413 254.262 91.864C254.654 90.968 255.167 90.212 255.802 89.596C256.455 88.98 257.202 88.5133 258.042 88.196C258.882 87.8787 259.759 87.72 260.674 87.72C261.588 87.72 262.466 87.8787 263.306 88.196C264.146 88.5133 264.883 88.98 265.518 89.596C266.171 90.212 266.684 90.968 267.058 91.864C267.45 92.7413 267.646 93.7493 267.646 94.888V95.224ZM260.674 100.32C261.346 100.32 261.962 100.208 262.522 99.984C263.1 99.7413 263.604 99.396 264.034 98.948C264.463 98.5 264.799 97.968 265.042 97.352C265.284 96.7173 265.406 96.008 265.406 95.224V94.888C265.406 94.1413 265.284 93.46 265.042 92.844C264.799 92.2093 264.463 91.668 264.034 91.22C263.604 90.772 263.1 90.4267 262.522 90.184C261.943 89.9227 261.327 89.792 260.674 89.792C260.02 89.792 259.404 89.9227 258.826 90.184C258.247 90.4267 257.743 90.772 257.314 91.22C256.884 91.668 256.548 92.2093 256.306 92.844C256.063 93.46 255.942 94.1413 255.942 94.888V95.224C255.942 96.008 256.063 96.7173 256.306 97.352C256.548 97.968 256.884 98.5 257.314 98.948C257.743 99.396 258.238 99.7413 258.798 99.984C259.376 100.208 260.002 100.32 260.674 100.32ZM299.191 88.112H301.375V102H299.191V99.48H298.855C298.407 100.376 297.819 101.085 297.091 101.608C296.363 102.131 295.439 102.392 294.319 102.392C293.553 102.392 292.844 102.261 292.191 102C291.556 101.757 291.005 101.384 290.539 100.88C290.091 100.376 289.736 99.7507 289.475 99.004C289.232 98.2573 289.111 97.3893 289.111 96.4V88.112H291.295V96.12C291.295 97.576 291.593 98.64 292.191 99.312C292.788 99.984 293.703 100.32 294.935 100.32C296.26 100.32 297.296 99.872 298.043 98.976C298.808 98.0613 299.191 96.848 299.191 95.336V88.112ZM309.531 91.696C309.531 92.368 309.811 92.8813 310.371 93.236C310.95 93.5907 311.995 93.824 313.507 93.936C315.131 94.0667 316.363 94.4587 317.203 95.112C318.062 95.7467 318.491 96.68 318.491 97.912V98.08C318.491 98.752 318.351 99.3587 318.071 99.9C317.81 100.423 317.437 100.871 316.951 101.244C316.485 101.617 315.906 101.897 315.215 102.084C314.543 102.289 313.806 102.392 313.003 102.392C311.921 102.392 310.987 102.252 310.203 101.972C309.438 101.673 308.794 101.291 308.271 100.824C307.767 100.339 307.385 99.7973 307.123 99.2C306.862 98.584 306.713 97.968 306.675 97.352L308.747 96.848C308.841 97.912 309.251 98.7707 309.979 99.424C310.707 100.059 311.678 100.376 312.891 100.376C313.918 100.376 314.739 100.18 315.355 99.788C315.99 99.3773 316.307 98.808 316.307 98.08C316.307 97.296 315.999 96.736 315.383 96.4C314.767 96.064 313.769 95.8493 312.387 95.756C310.782 95.644 309.55 95.2707 308.691 94.636C307.833 94.0013 307.403 93.0773 307.403 91.864V91.696C307.403 91.0427 307.543 90.4733 307.823 89.988C308.103 89.484 308.477 89.064 308.943 88.728C309.429 88.392 309.97 88.14 310.567 87.972C311.165 87.804 311.79 87.72 312.443 87.72C313.358 87.72 314.161 87.8507 314.851 88.112C315.542 88.3547 316.121 88.6813 316.587 89.092C317.054 89.484 317.409 89.9413 317.651 90.464C317.913 90.9867 318.081 91.5093 318.155 92.032L316.083 92.536C315.99 91.64 315.626 90.94 314.991 90.436C314.375 89.932 313.563 89.68 312.555 89.68C312.163 89.68 311.781 89.7267 311.407 89.82C311.053 89.8947 310.735 90.016 310.455 90.184C310.175 90.352 309.951 90.5667 309.783 90.828C309.615 91.0707 309.531 91.36 309.531 91.696ZM325.612 95.728C325.668 97.1093 326.097 98.22 326.9 99.06C327.702 99.9 328.822 100.32 330.26 100.32C330.913 100.32 331.482 100.245 331.968 100.096C332.453 99.9467 332.864 99.7413 333.2 99.48C333.554 99.2187 333.834 98.92 334.04 98.584C334.264 98.2293 334.441 97.856 334.572 97.464L336.644 98.024C336.252 99.312 335.524 100.367 334.46 101.188C333.414 101.991 331.996 102.392 330.204 102.392C329.214 102.392 328.3 102.224 327.46 101.888C326.638 101.533 325.929 101.039 325.332 100.404C324.734 99.7693 324.268 99.0133 323.932 98.136C323.596 97.2587 323.428 96.288 323.428 95.224V94.552C323.428 93.5813 323.596 92.676 323.932 91.836C324.286 90.996 324.772 90.2773 325.388 89.68C326.004 89.064 326.722 88.588 327.544 88.252C328.384 87.8973 329.289 87.72 330.26 87.72C331.398 87.72 332.378 87.9347 333.2 88.364C334.04 88.7747 334.721 89.288 335.244 89.904C335.785 90.52 336.177 91.192 336.42 91.92C336.681 92.648 336.812 93.32 336.812 93.936V95.728H325.612ZM330.26 89.792C329.644 89.792 329.065 89.8947 328.524 90.1C328.001 90.2867 327.534 90.5573 327.124 90.912C326.732 91.2667 326.405 91.6867 326.144 92.172C325.901 92.6387 325.742 93.152 325.668 93.712H334.628C334.59 93.1147 334.441 92.5733 334.18 92.088C333.937 91.6027 333.61 91.192 333.2 90.856C332.808 90.52 332.35 90.2587 331.828 90.072C331.324 89.8853 330.801 89.792 330.26 89.792ZM340.6 88.112H345.64V89.96H345.976C346.331 89.1947 346.835 88.6347 347.488 88.28C348.142 87.9067 348.888 87.72 349.728 87.72C351.128 87.72 352.258 88.1773 353.116 89.092C353.975 90.0067 354.432 91.3413 354.488 93.096L352.192 93.432C352.192 92.144 351.884 91.22 351.268 90.66C350.652 90.0813 349.896 89.792 349 89.792C348.422 89.792 347.918 89.904 347.488 90.128C347.078 90.352 346.732 90.66 346.452 91.052C346.172 91.444 345.967 91.9013 345.836 92.424C345.706 92.9467 345.64 93.5067 345.64 94.104V99.984H349.168V102H340.264V99.984H343.456V90.128H340.6V88.112ZM31.6347 132.696C31.6347 133.368 31.9147 133.881 32.4747 134.236C33.0533 134.591 34.0987 134.824 35.6107 134.936C37.2347 135.067 38.4667 135.459 39.3067 136.112C40.1653 136.747 40.5947 137.68 40.5947 138.912V139.08C40.5947 139.752 40.4547 140.359 40.1747 140.9C39.9133 141.423 39.54 141.871 39.0547 142.244C38.588 142.617 38.0093 142.897 37.3187 143.084C36.6467 143.289 35.9093 143.392 35.1067 143.392C34.024 143.392 33.0907 143.252 32.3067 142.972C31.5413 142.673 30.8973 142.291 30.3747 141.824C29.8707 141.339 29.488 140.797 29.2267 140.2C28.9653 139.584 28.816 138.968 28.7787 138.352L30.8507 137.848C30.944 138.912 31.3547 139.771 32.0827 140.424C32.8107 141.059 33.7813 141.376 34.9947 141.376C36.0213 141.376 36.8427 141.18 37.4587 140.788C38.0933 140.377 38.4107 139.808 38.4107 139.08C38.4107 138.296 38.1027 137.736 37.4867 137.4C36.8707 137.064 35.872 136.849 34.4907 136.756C32.8853 136.644 31.6533 136.271 30.7947 135.636C29.936 135.001 29.5067 134.077 29.5067 132.864V132.696C29.5067 132.043 29.6467 131.473 29.9267 130.988C30.2067 130.484 30.58 130.064 31.0467 129.728C31.532 129.392 32.0733 129.14 32.6707 128.972C33.268 128.804 33.8933 128.72 34.5467 128.72C35.4613 128.72 36.264 128.851 36.9547 129.112C37.6453 129.355 38.224 129.681 38.6907 130.092C39.1573 130.484 39.512 130.941 39.7547 131.464C40.016 131.987 40.184 132.509 40.2587 133.032L38.1867 133.536C38.0933 132.64 37.7293 131.94 37.0947 131.436C36.4787 130.932 35.6667 130.68 34.6587 130.68C34.2667 130.68 33.884 130.727 33.5107 130.82C33.156 130.895 32.8387 131.016 32.5587 131.184C32.2787 131.352 32.0547 131.567 31.8867 131.828C31.7187 132.071 31.6347 132.36 31.6347 132.696ZM47.7152 136.728C47.7712 138.109 48.2005 139.22 49.0032 140.06C49.8059 140.9 50.9259 141.32 52.3632 141.32C53.0165 141.32 53.5859 141.245 54.0712 141.096C54.5565 140.947 54.9672 140.741 55.3032 140.48C55.6579 140.219 55.9379 139.92 56.1432 139.584C56.3672 139.229 56.5445 138.856 56.6752 138.464L58.7472 139.024C58.3552 140.312 57.6272 141.367 56.5632 142.188C55.5179 142.991 54.0992 143.392 52.3072 143.392C51.3179 143.392 50.4032 143.224 49.5632 142.888C48.7419 142.533 48.0325 142.039 47.4352 141.404C46.8379 140.769 46.3712 140.013 46.0352 139.136C45.6992 138.259 45.5312 137.288 45.5312 136.224V135.552C45.5312 134.581 45.6992 133.676 46.0352 132.836C46.3899 131.996 46.8752 131.277 47.4912 130.68C48.1072 130.064 48.8259 129.588 49.6472 129.252C50.4872 128.897 51.3925 128.72 52.3632 128.72C53.5019 128.72 54.4819 128.935 55.3032 129.364C56.1432 129.775 56.8245 130.288 57.3472 130.904C57.8885 131.52 58.2805 132.192 58.5232 132.92C58.7845 133.648 58.9152 134.32 58.9152 134.936V136.728H47.7152ZM52.3632 130.792C51.7472 130.792 51.1685 130.895 50.6272 131.1C50.1045 131.287 49.6379 131.557 49.2272 131.912C48.8352 132.267 48.5085 132.687 48.2472 133.172C48.0045 133.639 47.8459 134.152 47.7712 134.712H56.7312C56.6939 134.115 56.5445 133.573 56.2832 133.088C56.0405 132.603 55.7139 132.192 55.3032 131.856C54.9112 131.52 54.4539 131.259 53.9312 131.072C53.4272 130.885 52.9045 130.792 52.3632 130.792ZM63.0117 129.112H67.3797V123.4H69.5637V129.112H74.9397V131.128H69.5637V140.144C69.5637 140.704 69.8157 140.984 70.3197 140.984H74.2677V143H69.5357C68.9011 143 68.3784 142.795 67.9677 142.384C67.5757 141.973 67.3797 141.451 67.3797 140.816V131.128H63.0117V129.112ZM83.7403 132.696C83.7403 133.368 84.0203 133.881 84.5803 134.236C85.1589 134.591 86.2043 134.824 87.7163 134.936C89.3403 135.067 90.5723 135.459 91.4123 136.112C92.2709 136.747 92.7003 137.68 92.7003 138.912V139.08C92.7003 139.752 92.5603 140.359 92.2803 140.9C92.0189 141.423 91.6456 141.871 91.1603 142.244C90.6936 142.617 90.1149 142.897 89.4243 143.084C88.7523 143.289 88.0149 143.392 87.2123 143.392C86.1296 143.392 85.1963 143.252 84.4123 142.972C83.6469 142.673 83.0029 142.291 82.4803 141.824C81.9763 141.339 81.5936 140.797 81.3323 140.2C81.0709 139.584 80.9216 138.968 80.8843 138.352L82.9563 137.848C83.0496 138.912 83.4603 139.771 84.1883 140.424C84.9163 141.059 85.8869 141.376 87.1003 141.376C88.1269 141.376 88.9483 141.18 89.5643 140.788C90.1989 140.377 90.5163 139.808 90.5163 139.08C90.5163 138.296 90.2083 137.736 89.5923 137.4C88.9763 137.064 87.9776 136.849 86.5963 136.756C84.9909 136.644 83.7589 136.271 82.9003 135.636C82.0416 135.001 81.6123 134.077 81.6123 132.864V132.696C81.6123 132.043 81.7523 131.473 82.0323 130.988C82.3123 130.484 82.6856 130.064 83.1523 129.728C83.6376 129.392 84.1789 129.14 84.7763 128.972C85.3736 128.804 85.9989 128.72 86.6523 128.72C87.5669 128.72 88.3696 128.851 89.0603 129.112C89.7509 129.355 90.3296 129.681 90.7963 130.092C91.2629 130.484 91.6176 130.941 91.8603 131.464C92.1216 131.987 92.2896 132.509 92.3643 133.032L90.2923 133.536C90.1989 132.64 89.8349 131.94 89.2003 131.436C88.5843 130.932 87.7723 130.68 86.7643 130.68C86.3723 130.68 85.9896 130.727 85.6163 130.82C85.2616 130.895 84.9443 131.016 84.6643 131.184C84.3843 131.352 84.1603 131.567 83.9923 131.828C83.8243 132.071 83.7403 132.36 83.7403 132.696ZM102.397 141.432C102.397 140.891 102.583 140.433 102.957 140.06C103.349 139.668 103.815 139.472 104.357 139.472C104.898 139.472 105.355 139.668 105.729 140.06C106.121 140.433 106.317 140.891 106.317 141.432V144.176C106.317 144.811 106.111 145.333 105.701 145.744C105.309 146.155 104.795 146.36 104.161 146.36H102.733V144.848H104.049C104.553 144.848 104.805 144.568 104.805 144.008V143.308C104.655 143.364 104.497 143.392 104.329 143.392C103.806 143.392 103.349 143.205 102.957 142.832C102.583 142.44 102.397 141.973 102.397 141.432ZM135.846 132.696C135.846 133.368 136.126 133.881 136.686 134.236C137.265 134.591 138.31 134.824 139.822 134.936C141.446 135.067 142.678 135.459 143.518 136.112C144.377 136.747 144.806 137.68 144.806 138.912V139.08C144.806 139.752 144.666 140.359 144.386 140.9C144.125 141.423 143.751 141.871 143.266 142.244C142.799 142.617 142.221 142.897 141.53 143.084C140.858 143.289 140.121 143.392 139.318 143.392C138.235 143.392 137.302 143.252 136.518 142.972C135.753 142.673 135.109 142.291 134.586 141.824C134.082 141.339 133.699 140.797 133.438 140.2C133.177 139.584 133.027 138.968 132.99 138.352L135.062 137.848C135.155 138.912 135.566 139.771 136.294 140.424C137.022 141.059 137.993 141.376 139.206 141.376C140.233 141.376 141.054 141.18 141.67 140.788C142.305 140.377 142.622 139.808 142.622 139.08C142.622 138.296 142.314 137.736 141.698 137.4C141.082 137.064 140.083 136.849 138.702 136.756C137.097 136.644 135.865 136.271 135.006 135.636C134.147 135.001 133.718 134.077 133.718 132.864V132.696C133.718 132.043 133.858 131.473 134.138 130.988C134.418 130.484 134.791 130.064 135.258 129.728C135.743 129.392 136.285 129.14 136.882 128.972C137.479 128.804 138.105 128.72 138.758 128.72C139.673 128.72 140.475 128.851 141.166 129.112C141.857 129.355 142.435 129.681 142.902 130.092C143.369 130.484 143.723 130.941 143.966 131.464C144.227 131.987 144.395 132.509 144.47 133.032L142.398 133.536C142.305 132.64 141.941 131.94 141.306 131.436C140.69 130.932 139.878 130.68 138.87 130.68C138.478 130.68 138.095 130.727 137.722 130.82C137.367 130.895 137.05 131.016 136.77 131.184C136.49 131.352 136.266 131.567 136.098 131.828C135.93 132.071 135.846 132.36 135.846 132.696ZM151.926 136.728C151.982 138.109 152.412 139.22 153.214 140.06C154.017 140.9 155.137 141.32 156.574 141.32C157.228 141.32 157.797 141.245 158.282 141.096C158.768 140.947 159.178 140.741 159.514 140.48C159.869 140.219 160.149 139.92 160.354 139.584C160.578 139.229 160.756 138.856 160.886 138.464L162.958 139.024C162.566 140.312 161.838 141.367 160.774 142.188C159.729 142.991 158.31 143.392 156.518 143.392C155.529 143.392 154.614 143.224 153.774 142.888C152.953 142.533 152.244 142.039 151.646 141.404C151.049 140.769 150.582 140.013 150.246 139.136C149.91 138.259 149.742 137.288 149.742 136.224V135.552C149.742 134.581 149.91 133.676 150.246 132.836C150.601 131.996 151.086 131.277 151.702 130.68C152.318 130.064 153.037 129.588 153.858 129.252C154.698 128.897 155.604 128.72 156.574 128.72C157.713 128.72 158.693 128.935 159.514 129.364C160.354 129.775 161.036 130.288 161.558 130.904C162.1 131.52 162.492 132.192 162.734 132.92C162.996 133.648 163.126 134.32 163.126 134.936V136.728H151.926ZM156.574 130.792C155.958 130.792 155.38 130.895 154.838 131.1C154.316 131.287 153.849 131.557 153.438 131.912C153.046 132.267 152.72 132.687 152.458 133.172C152.216 133.639 152.057 134.152 151.982 134.712H160.942C160.905 134.115 160.756 133.573 160.494 133.088C160.252 132.603 159.925 132.192 159.514 131.856C159.122 131.52 158.665 131.259 158.142 131.072C157.638 130.885 157.116 130.792 156.574 130.792ZM169.295 136.728C169.351 138.109 169.78 139.22 170.583 140.06C171.386 140.9 172.506 141.32 173.943 141.32C174.596 141.32 175.166 141.245 175.651 141.096C176.136 140.947 176.547 140.741 176.883 140.48C177.238 140.219 177.518 139.92 177.723 139.584C177.947 139.229 178.124 138.856 178.255 138.464L180.327 139.024C179.935 140.312 179.207 141.367 178.143 142.188C177.098 142.991 175.679 143.392 173.887 143.392C172.898 143.392 171.983 143.224 171.143 142.888C170.322 142.533 169.612 142.039 169.015 141.404C168.418 140.769 167.951 140.013 167.615 139.136C167.279 138.259 167.111 137.288 167.111 136.224V135.552C167.111 134.581 167.279 133.676 167.615 132.836C167.97 131.996 168.455 131.277 169.071 130.68C169.687 130.064 170.406 129.588 171.227 129.252C172.067 128.897 172.972 128.72 173.943 128.72C175.082 128.72 176.062 128.935 176.883 129.364C177.723 129.775 178.404 130.288 178.927 130.904C179.468 131.52 179.86 132.192 180.103 132.92C180.364 133.648 180.495 134.32 180.495 134.936V136.728H169.295ZM173.943 130.792C173.327 130.792 172.748 130.895 172.207 131.1C171.684 131.287 171.218 131.557 170.807 131.912C170.415 132.267 170.088 132.687 169.827 133.172C169.584 133.639 169.426 134.152 169.351 134.712H178.311C178.274 134.115 178.124 133.573 177.863 133.088C177.62 132.603 177.294 132.192 176.883 131.856C176.491 131.52 176.034 131.259 175.511 131.072C175.007 130.885 174.484 130.792 173.943 130.792ZM188.651 134.88H189.127L194.419 129.112H197.107V129.28L191.339 135.636V136.14L197.779 142.832V143H195.091L189.183 136.896H188.651V143H186.467V123.4H188.651V134.88ZM229.885 140.648H229.549C229.101 141.581 228.475 142.272 227.673 142.72C226.889 143.168 226.058 143.392 225.181 143.392C224.266 143.392 223.417 143.243 222.633 142.944C221.849 142.627 221.158 142.169 220.561 141.572C219.982 140.956 219.525 140.209 219.189 139.332C218.853 138.455 218.685 137.437 218.685 136.28V135.832C218.685 134.693 218.853 133.685 219.189 132.808C219.525 131.931 219.982 131.193 220.561 130.596C221.158 129.98 221.849 129.513 222.633 129.196C223.417 128.879 224.247 128.72 225.125 128.72C226.077 128.72 226.935 128.935 227.701 129.364C228.485 129.775 229.101 130.419 229.549 131.296H229.885V129.112H232.069V140.144C232.069 140.704 232.321 140.984 232.825 140.984H233.525V143H232.041C231.406 143 230.883 142.795 230.473 142.384C230.081 141.973 229.885 141.451 229.885 140.816V140.648ZM225.405 141.32C226.058 141.32 226.655 141.199 227.197 140.956C227.757 140.713 228.233 140.368 228.625 139.92C229.017 139.472 229.325 138.94 229.549 138.324C229.773 137.689 229.885 136.989 229.885 136.224V135.888C229.885 135.141 229.773 134.46 229.549 133.844C229.325 133.209 229.007 132.668 228.597 132.22C228.205 131.772 227.729 131.427 227.169 131.184C226.627 130.923 226.039 130.792 225.405 130.792C224.751 130.792 224.154 130.913 223.613 131.156C223.071 131.399 222.595 131.744 222.185 132.192C221.793 132.621 221.485 133.153 221.261 133.788C221.037 134.404 220.925 135.085 220.925 135.832V136.28C220.925 137.867 221.335 139.108 222.157 140.004C222.997 140.881 224.079 141.32 225.405 141.32ZM254.542 140.984H259.582V125.416H254.71V123.4H261.766V140.984H266.806V143H254.542V140.984ZM276.222 124.968C276.222 124.427 276.409 123.969 276.782 123.596C277.174 123.204 277.641 123.008 278.182 123.008C278.723 123.008 279.181 123.204 279.554 123.596C279.946 123.969 280.142 124.427 280.142 124.968C280.142 125.509 279.946 125.976 279.554 126.368C279.181 126.741 278.723 126.928 278.182 126.928C277.641 126.928 277.174 126.741 276.782 126.368C276.409 125.976 276.222 125.509 276.222 124.968ZM272.246 140.984H277.118V131.128H272.75V129.112H279.302V140.984H283.838V143H272.246V140.984ZM291.463 143H289.279V129.112H291.463V131.464H291.799C292.657 129.635 294.151 128.72 296.279 128.72C297.884 128.72 299.163 129.224 300.115 130.232C301.067 131.221 301.543 132.715 301.543 134.712V143H299.359V135.16C299.359 133.704 299.032 132.612 298.379 131.884C297.725 131.156 296.839 130.792 295.719 130.792C294.393 130.792 293.348 131.249 292.583 132.164C291.836 133.06 291.463 134.264 291.463 135.776V143ZM308.243 136.728C308.299 138.109 308.729 139.22 309.531 140.06C310.334 140.9 311.454 141.32 312.891 141.32C313.545 141.32 314.114 141.245 314.599 141.096C315.085 140.947 315.495 140.741 315.831 140.48C316.186 140.219 316.466 139.92 316.671 139.584C316.895 139.229 317.073 138.856 317.203 138.464L319.275 139.024C318.883 140.312 318.155 141.367 317.091 142.188C316.046 142.991 314.627 143.392 312.835 143.392C311.846 143.392 310.931 143.224 310.091 142.888C309.27 142.533 308.561 142.039 307.963 141.404C307.366 140.769 306.899 140.013 306.563 139.136C306.227 138.259 306.059 137.288 306.059 136.224V135.552C306.059 134.581 306.227 133.676 306.563 132.836C306.918 131.996 307.403 131.277 308.019 130.68C308.635 130.064 309.354 129.588 310.175 129.252C311.015 128.897 311.921 128.72 312.891 128.72C314.03 128.72 315.01 128.935 315.831 129.364C316.671 129.775 317.353 130.288 317.875 130.904C318.417 131.52 318.809 132.192 319.051 132.92C319.313 133.648 319.443 134.32 319.443 134.936V136.728H308.243ZM312.891 130.792C312.275 130.792 311.697 130.895 311.155 131.1C310.633 131.287 310.166 131.557 309.755 131.912C309.363 132.267 309.037 132.687 308.775 133.172C308.533 133.639 308.374 134.152 308.299 134.712H317.259C317.222 134.115 317.073 133.573 316.811 133.088C316.569 132.603 316.242 132.192 315.831 131.856C315.439 131.52 314.982 131.259 314.459 131.072C313.955 130.885 313.433 130.792 312.891 130.792ZM354.488 136.224C354.488 137.381 354.292 138.408 353.9 139.304C353.527 140.181 353.023 140.928 352.388 141.544C351.754 142.141 351.007 142.599 350.148 142.916C349.308 143.233 348.431 143.392 347.516 143.392C346.583 143.392 345.696 143.233 344.856 142.916C344.016 142.599 343.279 142.141 342.644 141.544C342.01 140.928 341.496 140.181 341.104 139.304C340.731 138.408 340.544 137.381 340.544 136.224V135.888C340.544 134.749 340.731 133.741 341.104 132.864C341.496 131.968 342.01 131.212 342.644 130.596C343.298 129.98 344.044 129.513 344.884 129.196C345.724 128.879 346.602 128.72 347.516 128.72C348.431 128.72 349.308 128.879 350.148 129.196C350.988 129.513 351.726 129.98 352.36 130.596C353.014 131.212 353.527 131.968 353.9 132.864C354.292 133.741 354.488 134.749 354.488 135.888V136.224ZM347.516 141.32C348.188 141.32 348.804 141.208 349.364 140.984C349.943 140.741 350.447 140.396 350.876 139.948C351.306 139.5 351.642 138.968 351.884 138.352C352.127 137.717 352.248 137.008 352.248 136.224V135.888C352.248 135.141 352.127 134.46 351.884 133.844C351.642 133.209 351.306 132.668 350.876 132.22C350.447 131.772 349.943 131.427 349.364 131.184C348.786 130.923 348.17 130.792 347.516 130.792C346.863 130.792 346.247 130.923 345.668 131.184C345.09 131.427 344.586 131.772 344.156 132.22C343.727 132.668 343.391 133.209 343.148 133.844C342.906 134.46 342.784 135.141 342.784 135.888V136.224C342.784 137.008 342.906 137.717 343.148 138.352C343.391 138.968 343.727 139.5 344.156 139.948C344.586 140.396 345.08 140.741 345.64 140.984C346.219 141.208 346.844 141.32 347.516 141.32ZM358.613 129.112H362.897V125.584C362.897 124.949 363.093 124.427 363.485 124.016C363.895 123.605 364.418 123.4 365.053 123.4H370.541V125.416H365.837C365.333 125.416 365.081 125.696 365.081 126.256V129.112H370.877V131.128H365.081V143H362.897V131.128H358.613V129.112ZM102.645 179.072C102.495 179.837 102.234 180.547 101.861 181.2C101.506 181.853 101.049 182.423 100.489 182.908C99.9285 183.375 99.2752 183.739 98.5285 184C97.7819 184.261 96.9512 184.392 96.0365 184.392C95.0659 184.392 94.1419 184.233 93.2645 183.916C92.4059 183.599 91.6499 183.141 90.9965 182.544C90.3432 181.928 89.8205 181.181 89.4285 180.304C89.0552 179.427 88.8685 178.419 88.8685 177.28V176.944C88.8685 175.824 89.0552 174.816 89.4285 173.92C89.8205 173.024 90.3432 172.268 90.9965 171.652C91.6499 171.036 92.4059 170.56 93.2645 170.224C94.1419 169.888 95.0659 169.72 96.0365 169.72C96.9139 169.72 97.7259 169.851 98.4725 170.112C99.2192 170.373 99.8725 170.747 100.433 171.232C101.011 171.699 101.478 172.259 101.833 172.912C102.206 173.565 102.458 174.275 102.589 175.04L100.405 175.544C100.349 175.059 100.209 174.592 99.9845 174.144C99.7792 173.677 99.4899 173.276 99.1165 172.94C98.7619 172.585 98.3232 172.305 97.8005 172.1C97.2779 171.895 96.6712 171.792 95.9805 171.792C95.3085 171.792 94.6739 171.923 94.0765 172.184C93.4979 172.427 92.9845 172.781 92.5365 173.248C92.0885 173.696 91.7339 174.237 91.4725 174.872C91.2299 175.507 91.1085 176.197 91.1085 176.944V177.28C91.1085 178.064 91.2299 178.773 91.4725 179.408C91.7339 180.024 92.0885 180.547 92.5365 180.976C92.9845 181.405 93.5072 181.741 94.1045 181.984C94.7019 182.208 95.3459 182.32 96.0365 182.32C96.7272 182.32 97.3245 182.217 97.8285 182.012C98.3512 181.788 98.7899 181.508 99.1445 181.172C99.5179 180.817 99.8072 180.416 100.013 179.968C100.237 179.52 100.386 179.053 100.461 178.568L102.645 179.072ZM120.125 177.224C120.125 178.381 119.929 179.408 119.537 180.304C119.164 181.181 118.66 181.928 118.025 182.544C117.39 183.141 116.644 183.599 115.785 183.916C114.945 184.233 114.068 184.392 113.153 184.392C112.22 184.392 111.333 184.233 110.493 183.916C109.653 183.599 108.916 183.141 108.281 182.544C107.646 181.928 107.133 181.181 106.741 180.304C106.368 179.408 106.181 178.381 106.181 177.224V176.888C106.181 175.749 106.368 174.741 106.741 173.864C107.133 172.968 107.646 172.212 108.281 171.596C108.934 170.98 109.681 170.513 110.521 170.196C111.361 169.879 112.238 169.72 113.153 169.72C114.068 169.72 114.945 169.879 115.785 170.196C116.625 170.513 117.362 170.98 117.997 171.596C118.65 172.212 119.164 172.968 119.537 173.864C119.929 174.741 120.125 175.749 120.125 176.888V177.224ZM113.153 182.32C113.825 182.32 114.441 182.208 115.001 181.984C115.58 181.741 116.084 181.396 116.513 180.948C116.942 180.5 117.278 179.968 117.521 179.352C117.764 178.717 117.885 178.008 117.885 177.224V176.888C117.885 176.141 117.764 175.46 117.521 174.844C117.278 174.209 116.942 173.668 116.513 173.22C116.084 172.772 115.58 172.427 115.001 172.184C114.422 171.923 113.806 171.792 113.153 171.792C112.5 171.792 111.884 171.923 111.305 172.184C110.726 172.427 110.222 172.772 109.793 173.22C109.364 173.668 109.028 174.209 108.785 174.844C108.542 175.46 108.421 176.141 108.421 176.888V177.224C108.421 178.008 108.542 178.717 108.785 179.352C109.028 179.968 109.364 180.5 109.793 180.948C110.222 181.396 110.717 181.741 111.277 181.984C111.856 182.208 112.481 182.32 113.153 182.32ZM137.746 184H135.562V174.032C135.562 173.379 135.412 172.847 135.114 172.436C134.815 172.007 134.339 171.792 133.686 171.792C133.07 171.792 132.566 172.025 132.174 172.492C131.8 172.94 131.614 173.64 131.614 174.592V184H129.43V173.92C129.43 173.304 129.262 172.8 128.926 172.408C128.59 171.997 128.142 171.792 127.582 171.792C126.91 171.792 126.387 172.035 126.014 172.52C125.659 173.005 125.482 173.64 125.482 174.424V184H123.298V170.112H125.482V171.624H125.818C126.06 170.971 126.415 170.495 126.882 170.196C127.348 169.879 127.899 169.72 128.534 169.72C129.206 169.72 129.756 169.897 130.186 170.252C130.634 170.607 130.942 171.064 131.11 171.624H131.446C132.08 170.355 133.088 169.72 134.47 169.72C135.515 169.72 136.318 170.056 136.878 170.728C137.456 171.381 137.746 172.24 137.746 173.304V184ZM155.114 184H152.93V174.032C152.93 173.379 152.781 172.847 152.482 172.436C152.183 172.007 151.707 171.792 151.054 171.792C150.438 171.792 149.934 172.025 149.542 172.492C149.169 172.94 148.982 173.64 148.982 174.592V184H146.798V173.92C146.798 173.304 146.63 172.8 146.294 172.408C145.958 171.997 145.51 171.792 144.95 171.792C144.278 171.792 143.755 172.035 143.382 172.52C143.027 173.005 142.85 173.64 142.85 174.424V184H140.666V170.112H142.85V171.624H143.186C143.429 170.971 143.783 170.495 144.25 170.196C144.717 169.879 145.267 169.72 145.902 169.72C146.574 169.72 147.125 169.897 147.554 170.252C148.002 170.607 148.31 171.064 148.478 171.624H148.814C149.449 170.355 150.457 169.72 151.838 169.72C152.883 169.72 153.686 170.056 154.246 170.728C154.825 171.381 155.114 172.24 155.114 173.304V184ZM169.039 170.112H171.223V184H169.039V181.48H168.703C168.255 182.376 167.667 183.085 166.939 183.608C166.211 184.131 165.287 184.392 164.167 184.392C163.401 184.392 162.692 184.261 162.039 184C161.404 183.757 160.853 183.384 160.387 182.88C159.939 182.376 159.584 181.751 159.323 181.004C159.08 180.257 158.959 179.389 158.959 178.4V170.112H161.143V178.12C161.143 179.576 161.441 180.64 162.039 181.312C162.636 181.984 163.551 182.32 164.783 182.32C166.108 182.32 167.144 181.872 167.891 180.976C168.656 180.061 169.039 178.848 169.039 177.336V170.112ZM178.679 184H176.495V170.112H178.679V172.464H179.015C179.874 170.635 181.367 169.72 183.495 169.72C185.101 169.72 186.379 170.224 187.331 171.232C188.283 172.221 188.759 173.715 188.759 175.712V184H186.575V176.16C186.575 174.704 186.249 173.612 185.595 172.884C184.942 172.156 184.055 171.792 182.935 171.792C181.61 171.792 180.565 172.249 179.799 173.164C179.053 174.06 178.679 175.264 178.679 176.776V184ZM198.176 165.968C198.176 165.427 198.362 164.969 198.736 164.596C199.128 164.204 199.594 164.008 200.136 164.008C200.677 164.008 201.134 164.204 201.508 164.596C201.9 164.969 202.096 165.427 202.096 165.968C202.096 166.509 201.9 166.976 201.508 167.368C201.134 167.741 200.677 167.928 200.136 167.928C199.594 167.928 199.128 167.741 198.736 167.368C198.362 166.976 198.176 166.509 198.176 165.968ZM194.2 181.984H199.072V172.128H194.704V170.112H201.256V181.984H205.792V184H194.2V181.984ZM224.224 179.072C224.075 179.837 223.814 180.547 223.44 181.2C223.086 181.853 222.628 182.423 222.068 182.908C221.508 183.375 220.855 183.739 220.108 184C219.362 184.261 218.531 184.392 217.616 184.392C216.646 184.392 215.722 184.233 214.844 183.916C213.986 183.599 213.23 183.141 212.576 182.544C211.923 181.928 211.4 181.181 211.008 180.304C210.635 179.427 210.448 178.419 210.448 177.28V176.944C210.448 175.824 210.635 174.816 211.008 173.92C211.4 173.024 211.923 172.268 212.576 171.652C213.23 171.036 213.986 170.56 214.844 170.224C215.722 169.888 216.646 169.72 217.616 169.72C218.494 169.72 219.306 169.851 220.052 170.112C220.799 170.373 221.452 170.747 222.012 171.232C222.591 171.699 223.058 172.259 223.412 172.912C223.786 173.565 224.038 174.275 224.168 175.04L221.984 175.544C221.928 175.059 221.788 174.592 221.564 174.144C221.359 173.677 221.07 173.276 220.696 172.94C220.342 172.585 219.903 172.305 219.38 172.1C218.858 171.895 218.251 171.792 217.56 171.792C216.888 171.792 216.254 171.923 215.656 172.184C215.078 172.427 214.564 172.781 214.116 173.248C213.668 173.696 213.314 174.237 213.052 174.872C212.81 175.507 212.688 176.197 212.688 176.944V177.28C212.688 178.064 212.81 178.773 213.052 179.408C213.314 180.024 213.668 180.547 214.116 180.976C214.564 181.405 215.087 181.741 215.684 181.984C216.282 182.208 216.926 182.32 217.616 182.32C218.307 182.32 218.904 182.217 219.408 182.012C219.931 181.788 220.37 181.508 220.724 181.172C221.098 180.817 221.387 180.416 221.592 179.968C221.816 179.52 221.966 179.053 222.04 178.568L224.224 179.072ZM238.681 181.648H238.345C237.897 182.581 237.271 183.272 236.469 183.72C235.685 184.168 234.854 184.392 233.977 184.392C233.062 184.392 232.213 184.243 231.429 183.944C230.645 183.627 229.954 183.169 229.357 182.572C228.778 181.956 228.321 181.209 227.985 180.332C227.649 179.455 227.481 178.437 227.481 177.28V176.832C227.481 175.693 227.649 174.685 227.985 173.808C228.321 172.931 228.778 172.193 229.357 171.596C229.954 170.98 230.645 170.513 231.429 170.196C232.213 169.879 233.043 169.72 233.921 169.72C234.873 169.72 235.731 169.935 236.497 170.364C237.281 170.775 237.897 171.419 238.345 172.296H238.681V170.112H240.865V181.144C240.865 181.704 241.117 181.984 241.621 181.984H242.321V184H240.837C240.202 184 239.679 183.795 239.269 183.384C238.877 182.973 238.681 182.451 238.681 181.816V181.648ZM234.201 182.32C234.854 182.32 235.451 182.199 235.993 181.956C236.553 181.713 237.029 181.368 237.421 180.92C237.813 180.472 238.121 179.94 238.345 179.324C238.569 178.689 238.681 177.989 238.681 177.224V176.888C238.681 176.141 238.569 175.46 238.345 174.844C238.121 174.209 237.803 173.668 237.393 173.22C237.001 172.772 236.525 172.427 235.965 172.184C235.423 171.923 234.835 171.792 234.201 171.792C233.547 171.792 232.95 171.913 232.409 172.156C231.867 172.399 231.391 172.744 230.981 173.192C230.589 173.621 230.281 174.153 230.057 174.788C229.833 175.404 229.721 176.085 229.721 176.832V177.28C229.721 178.867 230.131 180.108 230.953 181.004C231.793 181.881 232.875 182.32 234.201 182.32ZM245.493 170.112H249.861V164.4H252.045V170.112H257.421V172.128H252.045V181.144C252.045 181.704 252.297 181.984 252.801 181.984H256.749V184H252.017C251.383 184 250.86 183.795 250.449 183.384C250.057 182.973 249.861 182.451 249.861 181.816V172.128H245.493V170.112ZM267.65 165.968C267.65 165.427 267.837 164.969 268.21 164.596C268.602 164.204 269.069 164.008 269.61 164.008C270.151 164.008 270.609 164.204 270.982 164.596C271.374 164.969 271.57 165.427 271.57 165.968C271.57 166.509 271.374 166.976 270.982 167.368C270.609 167.741 270.151 167.928 269.61 167.928C269.069 167.928 268.602 167.741 268.21 167.368C267.837 166.976 267.65 166.509 267.65 165.968ZM263.674 181.984H268.546V172.128H264.178V170.112H270.73V181.984H275.266V184H263.674V181.984ZM293.81 177.224C293.81 178.381 293.614 179.408 293.222 180.304C292.849 181.181 292.345 181.928 291.71 182.544C291.076 183.141 290.329 183.599 289.47 183.916C288.63 184.233 287.753 184.392 286.838 184.392C285.905 184.392 285.018 184.233 284.178 183.916C283.338 183.599 282.601 183.141 281.966 182.544C281.332 181.928 280.818 181.181 280.426 180.304C280.053 179.408 279.866 178.381 279.866 177.224V176.888C279.866 175.749 280.053 174.741 280.426 173.864C280.818 172.968 281.332 172.212 281.966 171.596C282.62 170.98 283.366 170.513 284.206 170.196C285.046 169.879 285.924 169.72 286.838 169.72C287.753 169.72 288.63 169.879 289.47 170.196C290.31 170.513 291.048 170.98 291.682 171.596C292.336 172.212 292.849 172.968 293.222 173.864C293.614 174.741 293.81 175.749 293.81 176.888V177.224ZM286.838 182.32C287.51 182.32 288.126 182.208 288.686 181.984C289.265 181.741 289.769 181.396 290.198 180.948C290.628 180.5 290.964 179.968 291.206 179.352C291.449 178.717 291.57 178.008 291.57 177.224V176.888C291.57 176.141 291.449 175.46 291.206 174.844C290.964 174.209 290.628 173.668 290.198 173.22C289.769 172.772 289.265 172.427 288.686 172.184C288.108 171.923 287.492 171.792 286.838 171.792C286.185 171.792 285.569 171.923 284.99 172.184C284.412 172.427 283.908 172.772 283.478 173.22C283.049 173.668 282.713 174.209 282.47 174.844C282.228 175.46 282.106 176.141 282.106 176.888V177.224C282.106 178.008 282.228 178.717 282.47 179.352C282.713 179.968 283.049 180.5 283.478 180.948C283.908 181.396 284.402 181.741 284.962 181.984C285.541 182.208 286.166 182.32 286.838 182.32ZM300.259 184H298.075V170.112H300.259V172.464H300.595C301.454 170.635 302.947 169.72 305.075 169.72C306.68 169.72 307.959 170.224 308.911 171.232C309.863 172.221 310.339 173.715 310.339 175.712V184H308.155V176.16C308.155 174.704 307.828 173.612 307.175 172.884C306.522 172.156 305.635 171.792 304.515 171.792C303.19 171.792 302.144 172.249 301.379 173.164C300.632 174.06 300.259 175.264 300.259 176.776V184Z" fill="#424242"/>
</svg>
