<svg width="48" height="48" viewBox="0 0 48 48" fill="none" xmlns="http://www.w3.org/2000/svg">
<rect width="48" height="48" rx="24" fill="#F28B82"/>
<g clip-path="url(#clip0_90_74)">
<path d="M33.3333 12H14.6667C13.2 12 12 13.2 12 14.6667V33.3333C12 34.8 13.2 36 14.6667 36H33.3333C34.8 36 36 34.8 36 33.3333V14.6667C36 13.2 34.8 12 33.3333 12ZM25.3733 17.4133L26.7867 16L28.6667 17.88L30.5467 16L31.96 17.4133L30.08 19.2933L31.96 21.1733L30.5467 22.5867L28.6667 20.72L26.7867 22.6L25.3733 21.1867L27.2533 19.3067L25.3733 17.4133ZM16.3333 18.2933H23V20.2933H16.3333V18.2933ZM23.3333 29.3333H20.6667V32H18.6667V29.3333H16V27.3333H18.6667V24.6667H20.6667V27.3333H23.3333V29.3333ZM32 31H25.3333V29H32V31ZM32 27.6667H25.3333V25.6667H32V27.6667Z" fill="#202124"/>
</g>
<defs>
<clipPath id="clip0_90_74">
<rect width="32" height="32" fill="white" transform="translate(8 8)"/>
</clipPath>
</defs>
</svg>
