<svg width="48" height="48" viewBox="0 0 48 48" fill="none" xmlns="http://www.w3.org/2000/svg">
<circle cx="24" cy="24" r="24" fill="#3C4043"/>
<g clip-path="url(#clip0_90_110)">
<path d="M23.2619 29.5059L21.9853 32.4297C21.4946 33.5536 19.9394 33.5536 19.4487 32.4297L18.1721 29.5059C17.036 26.9039 14.9912 24.8327 12.4405 23.7005L8.92673 22.1407C7.80958 21.6449 7.80958 20.0197 8.92673 19.5238L12.3308 18.0128C14.947 16.8514 17.0285 14.7035 18.1452 12.0127L19.4383 8.89684C19.9182 7.74052 21.5158 7.74052 21.9957 8.89684L23.2888 12.0128C24.4055 14.7035 26.4869 16.8514 29.1032 18.0128L32.5073 19.5238C33.6244 20.0197 33.6244 21.6449 32.5073 22.1407L28.9935 23.7005C26.4428 24.8327 24.398 26.9039 23.2619 29.5059Z" fill="url(#paint0_radial_90_110)"/>
<path d="M35.1255 38.7253L34.7665 39.5481C34.5037 40.1505 33.6696 40.1505 33.4069 39.5481L33.0479 38.7253C32.4079 37.2582 31.2552 36.0901 29.8169 35.4511L28.7108 34.9597C28.1127 34.694 28.1127 33.8245 28.7108 33.5588L29.755 33.0948C31.2303 32.4394 32.4037 31.2281 33.0327 29.7111L33.4013 28.822C33.6583 28.2023 34.5151 28.2023 34.772 28.822L35.1407 29.7111C35.7697 31.2281 36.943 32.4394 38.4184 33.0948L39.4626 33.5588C40.0608 33.8245 40.0608 34.694 39.4626 34.9597L38.3565 35.4511C36.9182 36.0901 35.7655 37.2582 35.1255 38.7253Z" fill="url(#paint1_radial_90_110)"/>
</g>
<defs>
<radialGradient id="paint0_radial_90_110" cx="0" cy="0" r="1" gradientUnits="userSpaceOnUse" gradientTransform="translate(27.8651 22.0446) rotate(78.858) scale(19.7185 19.7281)">
<stop stop-color="#1BA1E3"/>
<stop offset="0.0001" stop-color="#1BA1E3"/>
<stop offset="0.300221" stop-color="#5489D6"/>
<stop offset="0.545524" stop-color="#9B72CB"/>
<stop offset="0.825372" stop-color="#D96570"/>
<stop offset="1" stop-color="#F49C46"/>
</radialGradient>
<radialGradient id="paint1_radial_90_110" cx="0" cy="0" r="1" gradientUnits="userSpaceOnUse" gradientTransform="translate(27.8651 22.0446) rotate(78.858) scale(19.7185 19.7281)">
<stop stop-color="#1BA1E3"/>
<stop offset="0.0001" stop-color="#1BA1E3"/>
<stop offset="0.300221" stop-color="#5489D6"/>
<stop offset="0.545524" stop-color="#9B72CB"/>
<stop offset="0.825372" stop-color="#D96570"/>
<stop offset="1" stop-color="#F49C46"/>
</radialGradient>
<clipPath id="clip0_90_110">
<rect width="32" height="32" fill="white" transform="translate(8 8)"/>
</clipPath>
</defs>
</svg>
