<svg width="112" height="112" viewBox="0 0 112 112" fill="none" xmlns="http://www.w3.org/2000/svg">
<g filter="url(#filter0_d_1442_254)">
<rect x="4" width="104" height="104" rx="16" fill="#CDEBC2" fill-opacity="0.4" shape-rendering="crispEdges"/>
<g clip-path="url(#clip0_1442_254)">
<path d="M82.6667 25.3334H29.3333C25.6333 25.3334 22.6667 28.3334 22.6667 32V72C22.6667 75.6667 25.6333 78.6667 29.3333 78.6667H82.6667C86.3333 78.6667 89.3333 75.6667 89.3333 72V32C89.3333 28.3334 86.3667 25.3334 82.6667 25.3334ZM82.6667 72H29.3333V38.6667H82.6667V72ZM76 68.6667H56V62H76V68.6667ZM41 68.6667L36.3 63.9667L44.9 55.3334L36.2667 46.7L41 42L54.3333 55.3334L41 68.6667Z" fill="#424242"/>
</g>
</g>
<defs>
<filter id="filter0_d_1442_254" x="0" y="0" width="112" height="112" filterUnits="userSpaceOnUse" color-interpolation-filters="sRGB">
<feFlood flood-opacity="0" result="BackgroundImageFix"/>
<feColorMatrix in="SourceAlpha" type="matrix" values="0 0 0 0 0 0 0 0 0 0 0 0 0 0 0 0 0 0 127 0" result="hardAlpha"/>
<feOffset dy="4"/>
<feGaussianBlur stdDeviation="2"/>
<feComposite in2="hardAlpha" operator="out"/>
<feColorMatrix type="matrix" values="0 0 0 0 0 0 0 0 0 0 0 0 0 0 0 0 0 0 0.25 0"/>
<feBlend mode="normal" in2="BackgroundImageFix" result="effect1_dropShadow_1442_254"/>
<feBlend mode="normal" in="SourceGraphic" in2="effect1_dropShadow_1442_254" result="shape"/>
</filter>
<clipPath id="clip0_1442_254">
<rect width="80" height="80" fill="white" transform="translate(16 12)"/>
</clipPath>
</defs>
</svg>
