<svg width="400" height="264" viewBox="0 0 400 264" fill="none" xmlns="http://www.w3.org/2000/svg">
<rect width="400" height="264" rx="16" fill="#424242"/>
<path d="M42.7075 119V118.44L45.5075 117.6V101.836H40.5795L38.9835 105.952H38.4795V100.52H54.7195V105.952H54.2155L52.6195 101.836H47.6915V117.6L50.4915 118.44V119H42.7075ZM62.1428 119.28C60.8921 119.28 59.8188 119.019 58.9228 118.496C58.0455 117.973 57.3735 117.255 56.9068 116.34C56.4401 115.407 56.2068 114.333 56.2068 113.12C56.2068 111.776 56.4775 110.581 57.0188 109.536C57.5601 108.472 58.2788 107.641 59.1748 107.044C60.0708 106.428 61.0415 106.12 62.0868 106.12C63.5615 106.12 64.7188 106.624 65.5588 107.632C66.3988 108.64 66.8468 110.059 66.9028 111.888L66.7908 112H58.0828C58.0828 112.075 58.0828 112.149 58.0828 112.224C58.0828 113.195 58.2508 114.091 58.5868 114.912C58.9228 115.715 59.4548 116.359 60.1828 116.844C60.9108 117.311 61.8535 117.544 63.0108 117.544C64.3921 117.544 65.6615 117.133 66.8188 116.312H66.9028V116.62C66.4921 117.367 65.8668 118.001 65.0268 118.524C64.2055 119.028 63.2441 119.28 62.1428 119.28ZM61.6668 107.1C60.7708 107.1 60.0055 107.445 59.3708 108.136C58.7361 108.808 58.3348 109.76 58.1668 110.992H64.9988C64.6255 108.397 63.5148 107.1 61.6668 107.1ZM70.134 119V118.552L71.898 117.852V108.556L70.078 107.604V107.296L73.354 106.12H73.578L73.774 108.556H73.858C74.418 107.828 74.8846 107.296 75.258 106.96C75.65 106.605 76.0046 106.381 76.322 106.288C76.6393 106.176 76.9566 106.12 77.274 106.12C77.4233 106.12 77.5913 106.148 77.778 106.204C77.9646 106.241 78.114 106.288 78.226 106.344C78.4313 106.419 78.5993 106.512 78.73 106.624C78.8606 106.736 78.926 106.857 78.926 106.988C78.926 107.044 78.9166 107.109 78.898 107.184C78.898 107.259 78.8793 107.333 78.842 107.408L78.394 108.528H78.254L77.414 108.164C77.078 108.033 76.7046 107.968 76.294 107.968C75.8273 107.968 75.3886 108.089 74.978 108.332C74.5673 108.575 74.1753 108.976 73.802 109.536V117.852L75.846 118.552V119H70.134ZM80.8814 119V118.552L82.6454 117.852V108.556L80.7974 107.604V107.296L84.1014 106.12H84.2974L84.4934 108.164H84.6334C85.3054 107.473 85.94 106.96 86.5374 106.624C87.1534 106.288 87.8347 106.12 88.5814 106.12C89.4214 106.12 90.1494 106.307 90.7654 106.68C91.4 107.053 91.8294 107.613 92.0534 108.36H92.1374C92.884 107.595 93.5747 107.035 94.2094 106.68C94.8627 106.307 95.5814 106.12 96.3654 106.12C97.448 106.12 98.3347 106.419 99.0254 107.016C99.7347 107.613 100.089 108.481 100.089 109.62V117.852L101.853 118.552V119H96.1974V118.552L98.1854 117.852V110.712C98.1854 109.76 97.9147 109.041 97.3734 108.556C96.8507 108.052 96.1787 107.8 95.3574 107.8C94.7787 107.8 94.2 107.912 93.6214 108.136C93.0614 108.341 92.5947 108.649 92.2214 109.06C92.24 109.228 92.2494 109.415 92.2494 109.62V117.852L94.1254 118.552V119H88.4414V118.552L90.3734 117.852V110.712C90.3734 109.76 90.112 109.041 89.5894 108.556C89.0667 108.052 88.3947 107.8 87.5734 107.8C87.088 107.8 86.5467 107.912 85.9494 108.136C85.3707 108.341 84.8947 108.64 84.5214 109.032V117.852L86.4254 118.552V119H80.8814ZM107.118 102.312C106.708 102.312 106.362 102.181 106.082 101.92C105.821 101.64 105.69 101.295 105.69 100.884C105.69 100.455 105.821 100.109 106.082 99.848C106.362 99.5867 106.708 99.456 107.118 99.456C107.548 99.456 107.893 99.5867 108.154 99.848C108.416 100.109 108.546 100.455 108.546 100.884C108.546 101.295 108.416 101.64 108.154 101.92C107.893 102.181 107.548 102.312 107.118 102.312ZM104.626 119V118.552L106.39 117.852V108.556L104.57 107.464V107.184L108.07 106.12H108.294V117.852L110.142 118.552V119H104.626ZM113.296 119V118.552L115.06 117.852V108.556L113.24 107.604V107.296L116.516 106.12H116.74L116.936 108.164H117.048C117.757 107.473 118.429 106.96 119.064 106.624C119.717 106.288 120.436 106.12 121.22 106.12C122.34 106.12 123.264 106.419 123.992 107.016C124.72 107.613 125.084 108.481 125.084 109.62V117.852L126.848 118.552V119H121.192V118.552L123.18 117.852V110.712C123.18 109.76 122.9 109.041 122.34 108.556C121.78 108.052 121.061 107.8 120.184 107.8C119.661 107.8 119.082 107.912 118.448 108.136C117.832 108.341 117.337 108.64 116.964 109.032V117.852L118.952 118.552V119H113.296ZM132.428 119.28C131.55 119.28 130.822 119.028 130.244 118.524C129.665 118.001 129.376 117.283 129.376 116.368C129.376 115.453 129.712 114.679 130.384 114.044C131.056 113.409 132.166 112.905 133.716 112.532L136.432 111.86V109.704C136.432 108.995 136.152 108.407 135.592 107.94C135.05 107.473 134.444 107.24 133.772 107.24C133.025 107.24 132.502 107.417 132.204 107.772C131.905 108.127 131.756 108.612 131.756 109.228V110.152L131.616 110.292H130.44C130.16 110.292 129.964 110.255 129.852 110.18C129.758 110.087 129.712 109.881 129.712 109.564C129.712 109.172 129.833 108.771 130.076 108.36C130.318 107.949 130.682 107.595 131.168 107.296C131.69 106.96 132.222 106.68 132.764 106.456C133.324 106.232 133.884 106.12 134.444 106.12C135.153 106.12 135.797 106.223 136.376 106.428C136.954 106.615 137.421 106.932 137.776 107.38C138.13 107.828 138.308 108.425 138.308 109.172V117.432C138.457 117.581 138.644 117.693 138.868 117.768C139.092 117.843 139.381 117.88 139.736 117.88H140.968L141.024 117.936V117.992C140.837 118.309 140.548 118.608 140.156 118.888C139.782 119.149 139.306 119.28 138.728 119.28C138.13 119.28 137.654 119.121 137.3 118.804C136.945 118.487 136.702 118.085 136.572 117.6H136.432C135.946 118.085 135.349 118.487 134.64 118.804C133.949 119.121 133.212 119.28 132.428 119.28ZM131.252 115.836C131.252 116.489 131.448 116.984 131.84 117.32C132.232 117.637 132.782 117.796 133.492 117.796C133.958 117.796 134.434 117.74 134.92 117.628C135.405 117.516 135.909 117.329 136.432 117.068V112.672C134.92 112.971 133.79 113.279 133.044 113.596C132.316 113.913 131.83 114.259 131.588 114.632C131.364 114.987 131.252 115.388 131.252 115.836ZM142.807 119V118.552L144.571 117.852V100.436L142.751 99.344V99.064L146.251 98H146.475V117.852L148.323 118.552V119H142.807ZM164.621 119.14L159.497 101.836L157.425 101.08V100.52H164.229V101.08L161.793 101.836L165.517 114.828H165.657L170.557 100.38H171.425L176.549 114.828H176.689L180.301 101.92L177.865 101.08V100.52H183.745V101.08L181.897 101.864L176.745 119.14H175.933L170.725 104.916H170.585L165.433 119.14H164.621ZM188.224 102.312C187.813 102.312 187.468 102.181 187.188 101.92C186.927 101.64 186.796 101.295 186.796 100.884C186.796 100.455 186.927 100.109 187.188 99.848C187.468 99.5867 187.813 99.456 188.224 99.456C188.653 99.456 188.999 99.5867 189.26 99.848C189.521 100.109 189.652 100.455 189.652 100.884C189.652 101.295 189.521 101.64 189.26 101.92C188.999 102.181 188.653 102.312 188.224 102.312ZM185.732 119V118.552L187.496 117.852V108.556L185.676 107.464V107.184L189.176 106.12H189.4V117.852L191.248 118.552V119H185.732ZM199.077 119.28C198.144 119.28 197.313 119.047 196.585 118.58C195.857 118.113 195.279 117.441 194.849 116.564C194.439 115.687 194.233 114.651 194.233 113.456C194.233 111.888 194.532 110.563 195.129 109.48C195.745 108.379 196.557 107.548 197.565 106.988C198.592 106.409 199.703 106.12 200.897 106.12C201.383 106.12 201.831 106.157 202.241 106.232C202.652 106.307 203.035 106.409 203.389 106.54V100.436L201.485 99.344V99.064L205.069 98H205.293V117.88L207.281 118.552V119H203.669L203.417 117.572H203.277C202.587 118.151 201.905 118.58 201.233 118.86C200.561 119.14 199.843 119.28 199.077 119.28ZM196.081 112.896C196.081 114.016 196.277 114.931 196.669 115.64C197.061 116.349 197.575 116.881 198.209 117.236C198.863 117.572 199.563 117.74 200.309 117.74C200.832 117.74 201.355 117.656 201.877 117.488C202.419 117.301 202.923 117.031 203.389 116.676V108.332C202.885 107.977 202.391 107.707 201.905 107.52C201.42 107.333 200.879 107.24 200.281 107.24C199.535 107.24 198.835 107.427 198.181 107.8C197.547 108.173 197.033 108.78 196.641 109.62C196.268 110.441 196.081 111.533 196.081 112.896ZM215.562 114.912C214.852 114.912 214.199 114.791 213.602 114.548C213.098 114.735 212.752 114.959 212.566 115.22C212.379 115.481 212.286 115.78 212.286 116.116C212.286 116.657 212.463 117.059 212.818 117.32C213.191 117.563 213.779 117.684 214.582 117.684H217.858C219.108 117.684 220.042 117.973 220.658 118.552C221.292 119.112 221.61 119.924 221.61 120.988C221.61 121.772 221.339 122.519 220.798 123.228C220.275 123.956 219.528 124.553 218.558 125.02C217.606 125.487 216.476 125.72 215.17 125.72C213.452 125.72 212.22 125.393 211.474 124.74C210.727 124.105 210.354 123.321 210.354 122.388C210.354 121.716 210.512 121.119 210.83 120.596L212.678 119.252V119.168C212.024 119.019 211.52 118.748 211.166 118.356C210.811 117.945 210.634 117.46 210.634 116.9C210.634 116.209 210.858 115.649 211.306 115.22L212.874 114.352V114.184C212.239 113.792 211.735 113.279 211.362 112.644C211.007 112.009 210.83 111.3 210.83 110.516C210.83 109.676 211.035 108.929 211.446 108.276C211.856 107.604 212.416 107.081 213.126 106.708C213.835 106.316 214.647 106.12 215.562 106.12C215.954 106.12 216.374 106.167 216.822 106.26C217.288 106.353 217.69 106.475 218.026 106.624L222.086 106.4V107.772L219.37 107.576L219.286 107.66C219.584 107.996 219.827 108.425 220.014 108.948C220.2 109.471 220.294 109.993 220.294 110.516C220.294 111.356 220.088 112.112 219.678 112.784C219.267 113.437 218.707 113.96 217.998 114.352C217.288 114.725 216.476 114.912 215.562 114.912ZM215.842 114.016C216.607 114.016 217.214 113.699 217.662 113.064C218.11 112.411 218.334 111.589 218.334 110.6C218.334 109.461 218.044 108.575 217.466 107.94C216.906 107.305 216.206 106.988 215.366 106.988C214.544 106.988 213.9 107.324 213.434 107.996C212.986 108.649 212.762 109.461 212.762 110.432C212.762 111.533 213.051 112.411 213.63 113.064C214.208 113.699 214.946 114.016 215.842 114.016ZM212.062 122.08C212.062 122.92 212.398 123.611 213.07 124.152C213.742 124.712 214.563 124.992 215.534 124.992C216.392 124.992 217.148 124.824 217.802 124.488C218.455 124.171 218.968 123.741 219.342 123.2C219.715 122.677 219.902 122.117 219.902 121.52C219.902 120.661 219.678 120.073 219.23 119.756C218.782 119.439 217.979 119.28 216.822 119.28H213.854C213.704 119.28 213.564 119.271 213.434 119.252C212.911 119.569 212.547 119.952 212.342 120.4C212.155 120.867 212.062 121.427 212.062 122.08ZM230.889 119.28C229.639 119.28 228.565 119.019 227.669 118.496C226.792 117.973 226.12 117.255 225.653 116.34C225.187 115.407 224.953 114.333 224.953 113.12C224.953 111.776 225.224 110.581 225.765 109.536C226.307 108.472 227.025 107.641 227.921 107.044C228.817 106.428 229.788 106.12 230.833 106.12C232.308 106.12 233.465 106.624 234.305 107.632C235.145 108.64 235.593 110.059 235.649 111.888L235.537 112H226.829C226.829 112.075 226.829 112.149 226.829 112.224C226.829 113.195 226.997 114.091 227.333 114.912C227.669 115.715 228.201 116.359 228.929 116.844C229.657 117.311 230.6 117.544 231.757 117.544C233.139 117.544 234.408 117.133 235.565 116.312H235.649V116.62C235.239 117.367 234.613 118.001 233.773 118.524C232.952 119.028 231.991 119.28 230.889 119.28ZM230.413 107.1C229.517 107.1 228.752 107.445 228.117 108.136C227.483 108.808 227.081 109.76 226.913 110.992H233.745C233.372 108.397 232.261 107.1 230.413 107.1ZM243.025 119.28C242.222 119.28 241.541 119.037 240.981 118.552C240.439 118.067 240.169 117.385 240.169 116.508V107.576H237.817V107.352L240.309 106.4L241.849 103.32H242.073V106.4H245.769V107.576H242.073V116.2C242.073 116.723 242.269 117.115 242.661 117.376C243.053 117.619 243.547 117.74 244.145 117.74C244.518 117.74 244.863 117.712 245.181 117.656C245.498 117.581 245.787 117.497 246.049 117.404L246.105 117.432V117.628C245.918 118.001 245.563 118.375 245.041 118.748C244.537 119.103 243.865 119.28 243.025 119.28ZM252.762 119.28C251.978 119.28 251.287 119.205 250.69 119.056C250.111 118.907 249.523 118.683 248.926 118.384V115.332H249.29L249.99 116.76C250.232 117.283 250.578 117.693 251.026 117.992C251.492 118.272 252.09 118.412 252.818 118.412C253.639 118.412 254.264 118.225 254.694 117.852C255.142 117.46 255.366 116.909 255.366 116.2C255.366 115.435 255.114 114.865 254.61 114.492C254.106 114.119 253.359 113.717 252.37 113.288C251.343 112.859 250.568 112.383 250.046 111.86C249.523 111.337 249.262 110.6 249.262 109.648C249.262 109.013 249.439 108.425 249.794 107.884C250.167 107.343 250.643 106.913 251.222 106.596C251.8 106.279 252.407 106.12 253.042 106.12C253.751 106.12 254.386 106.204 254.946 106.372C255.506 106.54 256.038 106.755 256.542 107.016V109.984H256.178L255.478 108.612C255.235 108.033 254.89 107.623 254.442 107.38C254.012 107.137 253.564 107.016 253.098 107.016C252.426 107.016 251.894 107.203 251.502 107.576C251.128 107.931 250.942 108.416 250.942 109.032C250.942 109.667 251.156 110.171 251.586 110.544C252.034 110.899 252.706 111.272 253.602 111.664C254.236 111.944 254.815 112.233 255.338 112.532C255.86 112.812 256.271 113.185 256.57 113.652C256.887 114.119 257.046 114.763 257.046 115.584C257.046 116.331 256.84 116.984 256.43 117.544C256.019 118.085 255.487 118.515 254.834 118.832C254.18 119.131 253.49 119.28 252.762 119.28ZM262.475 119.14C262.064 119.14 261.709 118.991 261.411 118.692C261.112 118.375 260.963 118.011 260.963 117.6C260.963 117.189 261.112 116.835 261.411 116.536C261.709 116.237 262.064 116.088 262.475 116.088C262.885 116.088 263.24 116.237 263.539 116.536C263.856 116.835 264.015 117.189 264.015 117.6C264.015 118.011 263.856 118.375 263.539 118.692C263.24 118.991 262.885 119.14 262.475 119.14ZM262.475 109.172C262.064 109.172 261.709 109.023 261.411 108.724C261.112 108.407 260.963 108.043 260.963 107.632C260.963 107.221 261.112 106.867 261.411 106.568C261.709 106.269 262.064 106.12 262.475 106.12C262.885 106.12 263.24 106.269 263.539 106.568C263.856 106.867 264.015 107.221 264.015 107.632C264.015 108.043 263.856 108.407 263.539 108.724C263.24 109.023 262.885 109.172 262.475 109.172ZM274.187 119V118.44L275.867 117.74L283.007 100.38H283.987L291.099 117.712L292.863 118.44V119H286.339V118.44L288.747 117.712L286.563 112.252H279.647L277.491 117.74L279.899 118.44V119H274.187ZM280.179 110.936H286.031L283.091 103.6L280.179 110.936ZM302.87 119V118.552L304.634 117.852V107.576H302.338V106.4H304.634V105.28C304.634 104.813 304.718 104.272 304.886 103.656C305.073 103.021 305.334 102.377 305.67 101.724C306.025 101.071 306.454 100.464 306.958 99.904C307.462 99.344 308.041 98.8867 308.694 98.532C309.348 98.1773 310.076 98 310.878 98C311.028 98 311.177 98.028 311.326 98.084C311.494 98.1213 311.625 98.1587 311.718 98.196C312.166 98.3827 312.39 98.5973 312.39 98.84C312.39 98.896 312.381 98.9707 312.362 99.064C312.362 99.1387 312.344 99.2133 312.306 99.288L311.858 100.408H311.718L311.018 100.156C310.477 99.9507 309.889 99.848 309.254 99.848C308.265 99.848 307.565 100.203 307.154 100.912C306.744 101.603 306.538 102.685 306.538 104.16V106.4H310.234V107.576H306.538V117.88L308.582 118.552V119H302.87ZM312.472 119V118.552L314.236 117.852V108.556L312.416 107.604V107.296L315.692 106.12H315.916L316.112 108.556H316.196C316.756 107.828 317.223 107.296 317.596 106.96C317.988 106.605 318.343 106.381 318.66 106.288C318.977 106.176 319.295 106.12 319.612 106.12C319.761 106.12 319.929 106.148 320.116 106.204C320.303 106.241 320.452 106.288 320.564 106.344C320.769 106.419 320.937 106.512 321.068 106.624C321.199 106.736 321.264 106.857 321.264 106.988C321.264 107.044 321.255 107.109 321.236 107.184C321.236 107.259 321.217 107.333 321.18 107.408L320.732 108.528H320.592L319.752 108.164C319.416 108.033 319.043 107.968 318.632 107.968C318.165 107.968 317.727 108.089 317.316 108.332C316.905 108.575 316.513 108.976 316.14 109.536V117.852L318.184 118.552V119H312.472ZM329.155 119.28C327.905 119.28 326.831 119.019 325.935 118.496C325.058 117.973 324.386 117.255 323.919 116.34C323.453 115.407 323.219 114.333 323.219 113.12C323.219 111.776 323.49 110.581 324.031 109.536C324.573 108.472 325.291 107.641 326.187 107.044C327.083 106.428 328.054 106.12 329.099 106.12C330.574 106.12 331.731 106.624 332.571 107.632C333.411 108.64 333.859 110.059 333.915 111.888L333.803 112H325.095C325.095 112.075 325.095 112.149 325.095 112.224C325.095 113.195 325.263 114.091 325.599 114.912C325.935 115.715 326.467 116.359 327.195 116.844C327.923 117.311 328.866 117.544 330.023 117.544C331.405 117.544 332.674 117.133 333.831 116.312H333.915V116.62C333.505 117.367 332.879 118.001 332.039 118.524C331.218 119.028 330.257 119.28 329.155 119.28ZM328.679 107.1C327.783 107.1 327.018 107.445 326.383 108.136C325.749 108.808 325.347 109.76 325.179 110.992H332.011C331.638 108.397 330.527 107.1 328.679 107.1ZM341.179 119.28C340.395 119.28 339.704 119.205 339.107 119.056C338.528 118.907 337.94 118.683 337.343 118.384V115.332H337.707L338.407 116.76C338.649 117.283 338.995 117.693 339.443 117.992C339.909 118.272 340.507 118.412 341.235 118.412C342.056 118.412 342.681 118.225 343.111 117.852C343.559 117.46 343.783 116.909 343.783 116.2C343.783 115.435 343.531 114.865 343.027 114.492C342.523 114.119 341.776 113.717 340.787 113.288C339.76 112.859 338.985 112.383 338.463 111.86C337.94 111.337 337.679 110.6 337.679 109.648C337.679 109.013 337.856 108.425 338.211 107.884C338.584 107.343 339.06 106.913 339.639 106.596C340.217 106.279 340.824 106.12 341.459 106.12C342.168 106.12 342.803 106.204 343.363 106.372C343.923 106.54 344.455 106.755 344.959 107.016V109.984H344.595L343.895 108.612C343.652 108.033 343.307 107.623 342.859 107.38C342.429 107.137 341.981 107.016 341.515 107.016C340.843 107.016 340.311 107.203 339.919 107.576C339.545 107.931 339.359 108.416 339.359 109.032C339.359 109.667 339.573 110.171 340.003 110.544C340.451 110.899 341.123 111.272 342.019 111.664C342.653 111.944 343.232 112.233 343.755 112.532C344.277 112.812 344.688 113.185 344.987 113.652C345.304 114.119 345.463 114.763 345.463 115.584C345.463 116.331 345.257 116.984 344.847 117.544C344.436 118.085 343.904 118.515 343.251 118.832C342.597 119.131 341.907 119.28 341.179 119.28ZM348.934 119V118.552L350.698 117.852V100.436L348.878 99.344V99.064L352.378 98H352.602V108.164H352.686C353.396 107.473 354.068 106.96 354.702 106.624C355.356 106.288 356.074 106.12 356.858 106.12C357.978 106.12 358.902 106.419 359.63 107.016C360.358 107.613 360.722 108.481 360.722 109.62V117.852L362.486 118.552V119H356.83V118.552L358.818 117.88V110.712C358.818 109.76 358.538 109.041 357.978 108.556C357.418 108.052 356.7 107.8 355.822 107.8C355.3 107.8 354.721 107.912 354.086 108.136C353.47 108.341 352.976 108.64 352.602 109.032V117.88L354.59 118.552V119H348.934ZM61.3134 162.28C60.0628 162.28 58.9988 162.019 58.1214 161.496C57.2441 160.973 56.5721 160.255 56.1054 159.34C55.6388 158.407 55.4054 157.333 55.4054 156.12C55.4054 154.776 55.6761 153.581 56.2174 152.536C56.7774 151.472 57.5334 150.641 58.4854 150.044C59.4561 149.428 60.5481 149.12 61.7614 149.12C62.5081 149.12 63.2081 149.241 63.8614 149.484C64.5334 149.708 65.0468 149.988 65.4014 150.324C65.6068 150.529 65.7561 150.707 65.8494 150.856C65.9614 151.005 66.0174 151.145 66.0174 151.276C66.0174 151.481 65.9241 151.659 65.7374 151.808L64.7854 152.592H64.6174L63.9174 151.64C63.5814 151.192 63.1894 150.828 62.7414 150.548C62.2934 150.249 61.7428 150.1 61.0894 150.1C59.9508 150.1 59.0268 150.548 58.3174 151.444C57.6268 152.321 57.2814 153.581 57.2814 155.224C57.2814 156.195 57.4494 157.091 57.7854 157.912C58.1214 158.715 58.6441 159.359 59.3534 159.844C60.0814 160.311 61.0241 160.544 62.1814 160.544C63.5628 160.544 64.8321 160.133 65.9894 159.312H66.0734V159.62C65.6441 160.367 65.0188 161.001 64.1974 161.524C63.3761 162.028 62.4148 162.28 61.3134 162.28ZM74.9378 162.28C73.7432 162.28 72.6978 161.991 71.8018 161.412C70.9058 160.833 70.2058 160.049 69.7018 159.06C69.1978 158.071 68.9458 156.951 68.9458 155.7C68.9458 154.449 69.1978 153.329 69.7018 152.34C70.2058 151.351 70.9058 150.567 71.8018 149.988C72.6978 149.409 73.7432 149.12 74.9378 149.12C76.1325 149.12 77.1778 149.409 78.0738 149.988C78.9698 150.567 79.6698 151.351 80.1738 152.34C80.6778 153.329 80.9298 154.449 80.9298 155.7C80.9298 156.951 80.6778 158.071 80.1738 159.06C79.6698 160.049 78.9698 160.833 78.0738 161.412C77.1778 161.991 76.1325 162.28 74.9378 162.28ZM75.3298 161.3C76.1138 161.3 76.7672 161.057 77.2898 160.572C77.8125 160.087 78.2045 159.461 78.4658 158.696C78.7272 157.912 78.8578 157.1 78.8578 156.26C78.8578 155.196 78.6992 154.197 78.3818 153.264C78.0832 152.312 77.6165 151.547 76.9818 150.968C76.3658 150.371 75.5725 150.072 74.6018 150.072C73.8178 150.072 73.1552 150.305 72.6138 150.772C72.0912 151.239 71.6898 151.855 71.4098 152.62C71.1485 153.385 71.0178 154.216 71.0178 155.112C71.0178 156.195 71.1765 157.212 71.4938 158.164C71.8112 159.097 72.2872 159.853 72.9218 160.432C73.5565 161.011 74.3592 161.3 75.3298 161.3ZM83.9628 162V161.552L85.7268 160.852V151.556L83.8788 150.604V150.296L87.1828 149.12H87.3788L87.5748 151.164H87.7148C88.3868 150.473 89.0215 149.96 89.6188 149.624C90.2348 149.288 90.9161 149.12 91.6628 149.12C92.5028 149.12 93.2308 149.307 93.8468 149.68C94.4815 150.053 94.9108 150.613 95.1348 151.36H95.2188C95.9655 150.595 96.6561 150.035 97.2908 149.68C97.9441 149.307 98.6628 149.12 99.4468 149.12C100.529 149.12 101.416 149.419 102.107 150.016C102.816 150.613 103.171 151.481 103.171 152.62V160.852L104.935 161.552V162H99.2788V161.552L101.267 160.852V153.712C101.267 152.76 100.996 152.041 100.455 151.556C99.9321 151.052 99.2601 150.8 98.4388 150.8C97.8601 150.8 97.2815 150.912 96.7028 151.136C96.1428 151.341 95.6761 151.649 95.3028 152.06C95.3215 152.228 95.3308 152.415 95.3308 152.62V160.852L97.2068 161.552V162H91.5228V161.552L93.4548 160.852V153.712C93.4548 152.76 93.1935 152.041 92.6708 151.556C92.1481 151.052 91.4761 150.8 90.6548 150.8C90.1695 150.8 89.6281 150.912 89.0308 151.136C88.4521 151.341 87.9761 151.64 87.6028 152.032V160.852L89.5068 161.552V162H83.9628ZM107.566 162V161.552L109.33 160.852V151.556L107.482 150.604V150.296L110.786 149.12H110.982L111.178 151.164H111.318C111.99 150.473 112.624 149.96 113.222 149.624C113.838 149.288 114.519 149.12 115.266 149.12C116.106 149.12 116.834 149.307 117.45 149.68C118.084 150.053 118.514 150.613 118.738 151.36H118.822C119.568 150.595 120.259 150.035 120.894 149.68C121.547 149.307 122.266 149.12 123.05 149.12C124.132 149.12 125.019 149.419 125.71 150.016C126.419 150.613 126.774 151.481 126.774 152.62V160.852L128.538 161.552V162H122.882V161.552L124.87 160.852V153.712C124.87 152.76 124.599 152.041 124.058 151.556C123.535 151.052 122.863 150.8 122.042 150.8C121.463 150.8 120.884 150.912 120.306 151.136C119.746 151.341 119.279 151.649 118.906 152.06C118.924 152.228 118.934 152.415 118.934 152.62V160.852L120.81 161.552V162H115.126V161.552L117.058 160.852V153.712C117.058 152.76 116.796 152.041 116.274 151.556C115.751 151.052 115.079 150.8 114.258 150.8C113.772 150.8 113.231 150.912 112.634 151.136C112.055 151.341 111.579 151.64 111.206 152.032V160.852L113.11 161.552V162H107.566ZM134.055 162.28C133.177 162.28 132.449 162.028 131.871 161.524C131.292 161.001 131.003 160.283 131.003 159.368C131.003 158.453 131.339 157.679 132.011 157.044C132.683 156.409 133.793 155.905 135.343 155.532L138.059 154.86V152.704C138.059 151.995 137.779 151.407 137.219 150.94C136.677 150.473 136.071 150.24 135.399 150.24C134.652 150.24 134.129 150.417 133.831 150.772C133.532 151.127 133.383 151.612 133.383 152.228V153.152L133.243 153.292H132.067C131.787 153.292 131.591 153.255 131.479 153.18C131.385 153.087 131.339 152.881 131.339 152.564C131.339 152.172 131.46 151.771 131.703 151.36C131.945 150.949 132.309 150.595 132.795 150.296C133.317 149.96 133.849 149.68 134.391 149.456C134.951 149.232 135.511 149.12 136.071 149.12C136.78 149.12 137.424 149.223 138.003 149.428C138.581 149.615 139.048 149.932 139.403 150.38C139.757 150.828 139.935 151.425 139.935 152.172V160.432C140.084 160.581 140.271 160.693 140.495 160.768C140.719 160.843 141.008 160.88 141.363 160.88H142.595L142.651 160.936V160.992C142.464 161.309 142.175 161.608 141.783 161.888C141.409 162.149 140.933 162.28 140.355 162.28C139.757 162.28 139.281 162.121 138.927 161.804C138.572 161.487 138.329 161.085 138.199 160.6H138.059C137.573 161.085 136.976 161.487 136.267 161.804C135.576 162.121 134.839 162.28 134.055 162.28ZM132.879 158.836C132.879 159.489 133.075 159.984 133.467 160.32C133.859 160.637 134.409 160.796 135.119 160.796C135.585 160.796 136.061 160.74 136.547 160.628C137.032 160.516 137.536 160.329 138.059 160.068V155.672C136.547 155.971 135.417 156.279 134.671 156.596C133.943 156.913 133.457 157.259 133.215 157.632C132.991 157.987 132.879 158.388 132.879 158.836ZM144.628 162V161.552L146.392 160.852V151.556L144.572 150.604V150.296L147.848 149.12H148.072L148.268 151.164H148.38C149.09 150.473 149.762 149.96 150.396 149.624C151.05 149.288 151.768 149.12 152.552 149.12C153.672 149.12 154.596 149.419 155.324 150.016C156.052 150.613 156.416 151.481 156.416 152.62V160.852L158.18 161.552V162H152.524V161.552L154.512 160.852V153.712C154.512 152.76 154.232 152.041 153.672 151.556C153.112 151.052 152.394 150.8 151.516 150.8C150.994 150.8 150.415 150.912 149.78 151.136C149.164 151.341 148.67 151.64 148.296 152.032V160.852L150.284 161.552V162H144.628ZM165.606 162.28C164.673 162.28 163.842 162.047 163.114 161.58C162.386 161.113 161.808 160.441 161.378 159.564C160.968 158.687 160.762 157.651 160.762 156.456C160.762 154.888 161.061 153.563 161.658 152.48C162.274 151.379 163.086 150.548 164.094 149.988C165.121 149.409 166.232 149.12 167.426 149.12C167.912 149.12 168.36 149.157 168.77 149.232C169.181 149.307 169.564 149.409 169.918 149.54V143.436L168.014 142.344V142.064L171.598 141H171.822V160.88L173.81 161.552V162H170.198L169.946 160.572H169.806C169.116 161.151 168.434 161.58 167.762 161.86C167.09 162.14 166.372 162.28 165.606 162.28ZM162.61 155.896C162.61 157.016 162.806 157.931 163.198 158.64C163.59 159.349 164.104 159.881 164.738 160.236C165.392 160.572 166.092 160.74 166.838 160.74C167.361 160.74 167.884 160.656 168.406 160.488C168.948 160.301 169.452 160.031 169.918 159.676V151.332C169.414 150.977 168.92 150.707 168.434 150.52C167.949 150.333 167.408 150.24 166.81 150.24C166.064 150.24 165.364 150.427 164.71 150.8C164.076 151.173 163.562 151.78 163.17 152.62C162.797 153.441 162.61 154.533 162.61 155.896ZM183.743 162V161.552L185.507 160.852V143.436L183.687 142.344V142.064L187.187 141H187.411V160.852L189.259 161.552V162H183.743ZM194.833 145.312C194.422 145.312 194.077 145.181 193.797 144.92C193.535 144.64 193.405 144.295 193.405 143.884C193.405 143.455 193.535 143.109 193.797 142.848C194.077 142.587 194.422 142.456 194.833 142.456C195.262 142.456 195.607 142.587 195.869 142.848C196.13 143.109 196.261 143.455 196.261 143.884C196.261 144.295 196.13 144.64 195.869 144.92C195.607 145.181 195.262 145.312 194.833 145.312ZM192.341 162V161.552L194.105 160.852V151.556L192.285 150.464V150.184L195.785 149.12H196.009V160.852L197.857 161.552V162H192.341ZM201.01 162V161.552L202.774 160.852V151.556L200.954 150.604V150.296L204.23 149.12H204.454L204.65 151.164H204.762C205.471 150.473 206.143 149.96 206.778 149.624C207.431 149.288 208.15 149.12 208.934 149.12C210.054 149.12 210.978 149.419 211.706 150.016C212.434 150.613 212.798 151.481 212.798 152.62V160.852L214.562 161.552V162H208.906V161.552L210.894 160.852V153.712C210.894 152.76 210.614 152.041 210.054 151.556C209.494 151.052 208.775 150.8 207.898 150.8C207.375 150.8 206.797 150.912 206.162 151.136C205.546 151.341 205.051 151.64 204.678 152.032V160.852L206.666 161.552V162H201.01ZM223.192 162.28C221.941 162.28 220.868 162.019 219.972 161.496C219.095 160.973 218.423 160.255 217.956 159.34C217.489 158.407 217.256 157.333 217.256 156.12C217.256 154.776 217.527 153.581 218.068 152.536C218.609 151.472 219.328 150.641 220.224 150.044C221.12 149.428 222.091 149.12 223.136 149.12C224.611 149.12 225.768 149.624 226.608 150.632C227.448 151.64 227.896 153.059 227.952 154.888L227.84 155H219.132C219.132 155.075 219.132 155.149 219.132 155.224C219.132 156.195 219.3 157.091 219.636 157.912C219.972 158.715 220.504 159.359 221.232 159.844C221.96 160.311 222.903 160.544 224.06 160.544C225.441 160.544 226.711 160.133 227.868 159.312H227.952V159.62C227.541 160.367 226.916 161.001 226.076 161.524C225.255 162.028 224.293 162.28 223.192 162.28ZM222.716 150.1C221.82 150.1 221.055 150.445 220.42 151.136C219.785 151.808 219.384 152.76 219.216 153.992H226.048C225.675 151.397 224.564 150.1 222.716 150.1ZM240.955 145.312C240.545 145.312 240.199 145.181 239.919 144.92C239.658 144.64 239.527 144.295 239.527 143.884C239.527 143.455 239.658 143.109 239.919 142.848C240.199 142.587 240.545 142.456 240.955 142.456C241.385 142.456 241.73 142.587 241.991 142.848C242.253 143.109 242.383 143.455 242.383 143.884C242.383 144.295 242.253 144.64 241.991 144.92C241.73 145.181 241.385 145.312 240.955 145.312ZM238.463 162V161.552L240.227 160.852V151.556L238.407 150.464V150.184L241.907 149.12H242.131V160.852L243.979 161.552V162H238.463ZM247.133 162V161.552L248.897 160.852V151.556L247.077 150.604V150.296L250.353 149.12H250.577L250.773 151.164H250.885C251.594 150.473 252.266 149.96 252.901 149.624C253.554 149.288 254.273 149.12 255.057 149.12C256.177 149.12 257.101 149.419 257.829 150.016C258.557 150.613 258.921 151.481 258.921 152.62V160.852L260.685 161.552V162H255.029V161.552L257.017 160.852V153.712C257.017 152.76 256.737 152.041 256.177 151.556C255.617 151.052 254.898 150.8 254.021 150.8C253.498 150.8 252.919 150.912 252.285 151.136C251.669 151.341 251.174 151.64 250.801 152.032V160.852L252.789 161.552V162H247.133ZM267.691 162.28C266.888 162.28 266.207 162.037 265.647 161.552C265.105 161.067 264.835 160.385 264.835 159.508V150.576H262.483V150.352L264.975 149.4L266.515 146.32H266.739V149.4H270.435V150.576H266.739V159.2C266.739 159.723 266.935 160.115 267.327 160.376C267.719 160.619 268.213 160.74 268.811 160.74C269.184 160.74 269.529 160.712 269.847 160.656C270.164 160.581 270.453 160.497 270.715 160.404L270.771 160.432V160.628C270.584 161.001 270.229 161.375 269.707 161.748C269.203 162.103 268.531 162.28 267.691 162.28ZM279.164 162.28C277.913 162.28 276.84 162.019 275.944 161.496C275.066 160.973 274.394 160.255 273.928 159.34C273.461 158.407 273.228 157.333 273.228 156.12C273.228 154.776 273.498 153.581 274.04 152.536C274.581 151.472 275.3 150.641 276.196 150.044C277.092 149.428 278.062 149.12 279.108 149.12C280.582 149.12 281.74 149.624 282.58 150.632C283.42 151.64 283.868 153.059 283.924 154.888L283.812 155H275.104C275.104 155.075 275.104 155.149 275.104 155.224C275.104 156.195 275.272 157.091 275.608 157.912C275.944 158.715 276.476 159.359 277.204 159.844C277.932 160.311 278.874 160.544 280.032 160.544C281.413 160.544 282.682 160.133 283.84 159.312H283.924V159.62C283.513 160.367 282.888 161.001 282.048 161.524C281.226 162.028 280.265 162.28 279.164 162.28ZM278.688 150.1C277.792 150.1 277.026 150.445 276.392 151.136C275.757 151.808 275.356 152.76 275.188 153.992H282.02C281.646 151.397 280.536 150.1 278.688 150.1ZM287.155 162V161.552L288.919 160.852V151.556L287.099 150.604V150.296L290.375 149.12H290.599L290.795 151.556H290.879C291.439 150.828 291.906 150.296 292.279 149.96C292.671 149.605 293.026 149.381 293.343 149.288C293.66 149.176 293.978 149.12 294.295 149.12C294.444 149.12 294.612 149.148 294.799 149.204C294.986 149.241 295.135 149.288 295.247 149.344C295.452 149.419 295.62 149.512 295.751 149.624C295.882 149.736 295.947 149.857 295.947 149.988C295.947 150.044 295.938 150.109 295.919 150.184C295.919 150.259 295.9 150.333 295.863 150.408L295.415 151.528H295.275L294.435 151.164C294.099 151.033 293.726 150.968 293.315 150.968C292.848 150.968 292.41 151.089 291.999 151.332C291.588 151.575 291.196 151.976 290.823 152.536V160.852L292.867 161.552V162H287.155ZM298.29 162V161.552L300.054 160.852V150.576H297.758V149.4H300.054V148.28C300.054 147.813 300.138 147.272 300.306 146.656C300.493 146.021 300.754 145.377 301.09 144.724C301.445 144.071 301.874 143.464 302.378 142.904C302.882 142.344 303.461 141.887 304.114 141.532C304.768 141.177 305.496 141 306.298 141C306.448 141 306.597 141.028 306.746 141.084C306.914 141.121 307.045 141.159 307.138 141.196C307.586 141.383 307.81 141.597 307.81 141.84C307.81 141.896 307.801 141.971 307.782 142.064C307.782 142.139 307.764 142.213 307.726 142.288L307.278 143.408H307.138L306.438 143.156C305.897 142.951 305.309 142.848 304.674 142.848C303.685 142.848 302.985 143.203 302.574 143.912C302.164 144.603 301.958 145.685 301.958 147.16V149.4H305.654V150.576H301.958V160.88L304.002 161.552V162H298.29ZM310.692 162.28C309.815 162.28 309.087 162.028 308.508 161.524C307.929 161.001 307.64 160.283 307.64 159.368C307.64 158.453 307.976 157.679 308.648 157.044C309.32 156.409 310.431 155.905 311.98 155.532L314.696 154.86V152.704C314.696 151.995 314.416 151.407 313.856 150.94C313.315 150.473 312.708 150.24 312.036 150.24C311.289 150.24 310.767 150.417 310.468 150.772C310.169 151.127 310.02 151.612 310.02 152.228V153.152L309.88 153.292H308.704C308.424 153.292 308.228 153.255 308.116 153.18C308.023 153.087 307.976 152.881 307.976 152.564C307.976 152.172 308.097 151.771 308.34 151.36C308.583 150.949 308.947 150.595 309.432 150.296C309.955 149.96 310.487 149.68 311.028 149.456C311.588 149.232 312.148 149.12 312.708 149.12C313.417 149.12 314.061 149.223 314.64 149.428C315.219 149.615 315.685 149.932 316.04 150.38C316.395 150.828 316.572 151.425 316.572 152.172V160.432C316.721 160.581 316.908 160.693 317.132 160.768C317.356 160.843 317.645 160.88 318 160.88H319.232L319.288 160.936V160.992C319.101 161.309 318.812 161.608 318.42 161.888C318.047 162.149 317.571 162.28 316.992 162.28C316.395 162.28 315.919 162.121 315.564 161.804C315.209 161.487 314.967 161.085 314.836 160.6H314.696C314.211 161.085 313.613 161.487 312.904 161.804C312.213 162.121 311.476 162.28 310.692 162.28ZM309.516 158.836C309.516 159.489 309.712 159.984 310.104 160.32C310.496 160.637 311.047 160.796 311.756 160.796C312.223 160.796 312.699 160.74 313.184 160.628C313.669 160.516 314.173 160.329 314.696 160.068V155.672C313.184 155.971 312.055 156.279 311.308 156.596C310.58 156.913 310.095 157.259 309.852 157.632C309.628 157.987 309.516 158.388 309.516 158.836ZM327.227 162.28C325.976 162.28 324.912 162.019 324.035 161.496C323.158 160.973 322.486 160.255 322.019 159.34C321.552 158.407 321.319 157.333 321.319 156.12C321.319 154.776 321.59 153.581 322.131 152.536C322.691 151.472 323.447 150.641 324.399 150.044C325.37 149.428 326.462 149.12 327.675 149.12C328.422 149.12 329.122 149.241 329.775 149.484C330.447 149.708 330.96 149.988 331.315 150.324C331.52 150.529 331.67 150.707 331.763 150.856C331.875 151.005 331.931 151.145 331.931 151.276C331.931 151.481 331.838 151.659 331.651 151.808L330.699 152.592H330.531L329.831 151.64C329.495 151.192 329.103 150.828 328.655 150.548C328.207 150.249 327.656 150.1 327.003 150.1C325.864 150.1 324.94 150.548 324.231 151.444C323.54 152.321 323.195 153.581 323.195 155.224C323.195 156.195 323.363 157.091 323.699 157.912C324.035 158.715 324.558 159.359 325.267 159.844C325.995 160.311 326.938 160.544 328.095 160.544C329.476 160.544 330.746 160.133 331.903 159.312H331.987V159.62C331.558 160.367 330.932 161.001 330.111 161.524C329.29 162.028 328.328 162.28 327.227 162.28ZM340.795 162.28C339.545 162.28 338.471 162.019 337.575 161.496C336.698 160.973 336.026 160.255 335.559 159.34C335.093 158.407 334.859 157.333 334.859 156.12C334.859 154.776 335.13 153.581 335.671 152.536C336.213 151.472 336.931 150.641 337.827 150.044C338.723 149.428 339.694 149.12 340.739 149.12C342.214 149.12 343.371 149.624 344.211 150.632C345.051 151.64 345.499 153.059 345.555 154.888L345.443 155H336.735C336.735 155.075 336.735 155.149 336.735 155.224C336.735 156.195 336.903 157.091 337.239 157.912C337.575 158.715 338.107 159.359 338.835 159.844C339.563 160.311 340.506 160.544 341.663 160.544C343.045 160.544 344.314 160.133 345.471 159.312H345.555V159.62C345.145 160.367 344.519 161.001 343.679 161.524C342.858 162.028 341.897 162.28 340.795 162.28ZM340.319 150.1C339.423 150.1 338.658 150.445 338.023 151.136C337.389 151.808 336.987 152.76 336.819 153.992H343.651C343.278 151.397 342.167 150.1 340.319 150.1Z" fill="#CDEBC2"/>
</svg>
