<svg width="400" height="264" viewBox="0 0 400 264" fill="none" xmlns="http://www.w3.org/2000/svg">
<rect width="400" height="264" rx="16" fill="#CDEBC2" fill-opacity="0.4"/>
<g clip-path="url(#clip0_1474_930)">
<path d="M266.667 65.3333H133.333C124.083 65.3333 116.667 72.8333 116.667 81.9999V182C116.667 191.167 124.083 198.667 133.333 198.667H266.667C275.833 198.667 283.333 191.167 283.333 182V81.9999C283.333 72.8333 275.917 65.3333 266.667 65.3333ZM266.667 182H133.333V98.6666H266.667V182ZM250 173.667H200V157H250V173.667ZM162.5 173.667L150.75 161.917L172.25 140.333L150.667 118.75L162.5 107L195.833 140.333L162.5 173.667Z" fill="#424242"/>
</g>
<defs>
<clipPath id="clip0_1474_930">
<rect width="200" height="200" fill="white" transform="translate(100 32)"/>
</clipPath>
</defs>
</svg>
