<svg width="400" height="264" viewBox="0 0 400 264" fill="none" xmlns="http://www.w3.org/2000/svg">
<rect width="400" height="264" rx="16" fill="#3C4043"/>
<path d="M36.6789 82.4H50.4549V84.584H44.7429V102H42.3909V84.584H36.6789V82.4ZM56.3995 95.728C56.4555 97.1093 56.8848 98.22 57.6875 99.06C58.4901 99.9 59.6101 100.32 61.0475 100.32C61.7008 100.32 62.2701 100.245 62.7555 100.096C63.2408 99.9467 63.6515 99.7413 63.9875 99.48C64.3421 99.2187 64.6221 98.92 64.8275 98.584C65.0515 98.2293 65.2288 97.856 65.3595 97.464L67.4315 98.024C67.0395 99.312 66.3115 100.367 65.2475 101.188C64.2021 101.991 62.7835 102.392 60.9915 102.392C60.0021 102.392 59.0875 102.224 58.2475 101.888C57.4261 101.533 56.7168 101.039 56.1195 100.404C55.5221 99.7693 55.0555 99.0133 54.7195 98.136C54.3835 97.2587 54.2155 96.288 54.2155 95.224V94.552C54.2155 93.5813 54.3835 92.676 54.7195 91.836C55.0741 90.996 55.5595 90.2773 56.1755 89.68C56.7915 89.064 57.5101 88.588 58.3315 88.252C59.1715 87.8973 60.0768 87.72 61.0475 87.72C62.1861 87.72 63.1661 87.9347 63.9875 88.364C64.8275 88.7747 65.5088 89.288 66.0315 89.904C66.5728 90.52 66.9648 91.192 67.2075 91.92C67.4688 92.648 67.5995 93.32 67.5995 93.936V95.728H56.3995ZM61.0475 89.792C60.4315 89.792 59.8528 89.8947 59.3115 90.1C58.7888 90.2867 58.3221 90.5573 57.9115 90.912C57.5195 91.2667 57.1928 91.6867 56.9315 92.172C56.6888 92.6387 56.5301 93.152 56.4555 93.712H65.4155C65.3781 93.1147 65.2288 92.5733 64.9675 92.088C64.7248 91.6027 64.3981 91.192 63.9875 90.856C63.5955 90.52 63.1381 90.2587 62.6155 90.072C62.1115 89.8853 61.5888 89.792 61.0475 89.792ZM71.388 88.112H76.428V89.96H76.764C77.1187 89.1947 77.6227 88.6347 78.276 88.28C78.9293 87.9067 79.676 87.72 80.516 87.72C81.916 87.72 83.0453 88.1773 83.904 89.092C84.7627 90.0067 85.22 91.3413 85.276 93.096L82.98 93.432C82.98 92.144 82.672 91.22 82.056 90.66C81.44 90.0813 80.684 89.792 79.788 89.792C79.2093 89.792 78.7053 89.904 78.276 90.128C77.8653 90.352 77.52 90.66 77.24 91.052C76.96 91.444 76.7547 91.9013 76.624 92.424C76.4933 92.9467 76.428 93.5067 76.428 94.104V99.984H79.956V102H71.052V99.984H74.244V90.128H71.388V88.112ZM102.897 102H100.713V92.032C100.713 91.3787 100.563 90.8467 100.265 90.436C99.9659 90.0067 99.4899 89.792 98.8365 89.792C98.2205 89.792 97.7165 90.0253 97.3245 90.492C96.9512 90.94 96.7645 91.64 96.7645 92.592V102H94.5805V91.92C94.5805 91.304 94.4125 90.8 94.0765 90.408C93.7405 89.9973 93.2925 89.792 92.7325 89.792C92.0605 89.792 91.5379 90.0347 91.1645 90.52C90.8099 91.0053 90.6325 91.64 90.6325 92.424V102H88.4485V88.112H90.6325V89.624H90.9685C91.2112 88.9707 91.5659 88.4947 92.0325 88.196C92.4992 87.8787 93.0499 87.72 93.6845 87.72C94.3565 87.72 94.9072 87.8973 95.3365 88.252C95.7845 88.6067 96.0925 89.064 96.2605 89.624H96.5965C97.2312 88.3547 98.2392 87.72 99.6205 87.72C100.666 87.72 101.469 88.056 102.029 88.728C102.607 89.3813 102.897 90.24 102.897 91.304V102ZM111.221 83.968C111.221 83.4267 111.408 82.9693 111.781 82.596C112.173 82.204 112.64 82.008 113.181 82.008C113.722 82.008 114.18 82.204 114.553 82.596C114.945 82.9693 115.141 83.4267 115.141 83.968C115.141 84.5093 114.945 84.976 114.553 85.368C114.18 85.7413 113.722 85.928 113.181 85.928C112.64 85.928 112.173 85.7413 111.781 85.368C111.408 84.976 111.221 84.5093 111.221 83.968ZM107.245 99.984H112.117V90.128H107.749V88.112H114.301V99.984H118.837V102H107.245V99.984ZM126.462 102H124.278V88.112H126.462V90.464H126.798C127.656 88.6347 129.15 87.72 131.278 87.72C132.883 87.72 134.162 88.224 135.114 89.232C136.066 90.2213 136.542 91.7147 136.542 93.712V102H134.358V94.16C134.358 92.704 134.031 91.612 133.378 90.884C132.724 90.156 131.838 89.792 130.718 89.792C129.392 89.792 128.347 90.2493 127.582 91.164C126.835 92.06 126.462 93.264 126.462 94.776V102ZM151.726 99.648H151.39C150.942 100.581 150.317 101.272 149.514 101.72C148.73 102.168 147.899 102.392 147.022 102.392C146.107 102.392 145.258 102.243 144.474 101.944C143.69 101.627 142.999 101.169 142.402 100.572C141.823 99.956 141.366 99.2093 141.03 98.332C140.694 97.4547 140.526 96.4373 140.526 95.28V94.832C140.526 93.6933 140.694 92.6853 141.03 91.808C141.366 90.9307 141.823 90.1933 142.402 89.596C142.999 88.98 143.69 88.5133 144.474 88.196C145.258 87.8787 146.089 87.72 146.966 87.72C147.918 87.72 148.777 87.9347 149.542 88.364C150.326 88.7747 150.942 89.4187 151.39 90.296H151.726V88.112H153.91V99.144C153.91 99.704 154.162 99.984 154.666 99.984H155.366V102H153.882C153.247 102 152.725 101.795 152.314 101.384C151.922 100.973 151.726 100.451 151.726 99.816V99.648ZM147.246 100.32C147.899 100.32 148.497 100.199 149.038 99.956C149.598 99.7133 150.074 99.368 150.466 98.92C150.858 98.472 151.166 97.94 151.39 97.324C151.614 96.6893 151.726 95.9893 151.726 95.224V94.888C151.726 94.1413 151.614 93.46 151.39 92.844C151.166 92.2093 150.849 91.668 150.438 91.22C150.046 90.772 149.57 90.4267 149.01 90.184C148.469 89.9227 147.881 89.792 147.246 89.792C146.593 89.792 145.995 89.9133 145.454 90.156C144.913 90.3987 144.437 90.744 144.026 91.192C143.634 91.6213 143.326 92.1533 143.102 92.788C142.878 93.404 142.766 94.0853 142.766 94.832V95.28C142.766 96.8667 143.177 98.108 143.998 99.004C144.838 99.8813 145.921 100.32 147.246 100.32ZM159.015 99.984H164.055V84.416H159.183V82.4H166.239V99.984H171.279V102H159.015V99.984ZM206.156 102H201.872L200.052 83.408H199.716L197.896 102H193.612L191.624 82.4H193.752L195.628 100.992H195.964L197.728 82.4H202.04L203.804 100.992H204.14L206.016 82.4H208.144L206.156 102ZM215.432 83.968C215.432 83.4267 215.619 82.9693 215.992 82.596C216.384 82.204 216.851 82.008 217.392 82.008C217.934 82.008 218.391 82.204 218.764 82.596C219.156 82.9693 219.352 83.4267 219.352 83.968C219.352 84.5093 219.156 84.976 218.764 85.368C218.391 85.7413 217.934 85.928 217.392 85.928C216.851 85.928 216.384 85.7413 215.992 85.368C215.619 84.976 215.432 84.5093 215.432 83.968ZM211.456 99.984H216.328V90.128H211.96V88.112H218.512V99.984H223.048V102H211.456V99.984ZM239.241 99.872H238.905C238.681 100.301 238.391 100.675 238.037 100.992C237.701 101.309 237.327 101.571 236.917 101.776C236.525 101.981 236.105 102.131 235.657 102.224C235.209 102.336 234.779 102.392 234.369 102.392C233.435 102.392 232.567 102.233 231.765 101.916C230.962 101.599 230.253 101.141 229.637 100.544C229.039 99.9467 228.563 99.2093 228.209 98.332C227.873 97.436 227.705 96.4187 227.705 95.28V94.832C227.705 93.712 227.882 92.7133 228.237 91.836C228.591 90.94 229.067 90.1933 229.665 89.596C230.262 88.98 230.962 88.5133 231.765 88.196C232.567 87.8787 233.417 87.72 234.313 87.72C235.265 87.72 236.151 87.9347 236.973 88.364C237.813 88.7747 238.457 89.4187 238.905 90.296H239.241V82.4H241.425V102H239.241V99.872ZM234.593 100.32C235.246 100.32 235.853 100.199 236.413 99.956C236.973 99.7133 237.458 99.368 237.869 98.92C238.298 98.472 238.634 97.94 238.877 97.324C239.119 96.6893 239.241 95.9893 239.241 95.224V94.888C239.241 94.1413 239.119 93.46 238.877 92.844C238.634 92.2093 238.298 91.668 237.869 91.22C237.458 90.772 236.963 90.4267 236.385 90.184C235.825 89.9227 235.227 89.792 234.593 89.792C233.939 89.792 233.323 89.9133 232.745 90.156C232.185 90.3987 231.69 90.744 231.261 91.192C230.85 91.64 230.523 92.172 230.281 92.788C230.057 93.404 229.945 94.0853 229.945 94.832V95.28C229.945 96.064 230.057 96.764 230.281 97.38C230.523 97.996 230.85 98.528 231.261 98.976C231.69 99.4053 232.185 99.7413 232.745 99.984C233.305 100.208 233.921 100.32 234.593 100.32ZM256.413 99.872H256.077C255.629 100.712 255.013 101.347 254.229 101.776C253.464 102.187 252.624 102.392 251.709 102.392C250.776 102.392 249.899 102.233 249.077 101.916C248.256 101.599 247.528 101.141 246.893 100.544C246.277 99.9467 245.783 99.2093 245.409 98.332C245.055 97.436 244.877 96.4187 244.877 95.28V94.832C244.877 93.712 245.064 92.7133 245.437 91.836C245.811 90.94 246.305 90.1933 246.921 89.596C247.537 88.98 248.256 88.5133 249.077 88.196C249.899 87.8787 250.757 87.72 251.653 87.72C252.661 87.72 253.539 87.944 254.285 88.392C255.051 88.8213 255.648 89.456 256.077 90.296H256.413V88.112H258.597V105.416C258.597 106.051 258.392 106.573 257.981 106.984C257.589 107.395 257.076 107.6 256.441 107.6H247.397V105.584H255.657C256.161 105.584 256.413 105.304 256.413 104.744V99.872ZM251.765 100.32C252.419 100.32 253.025 100.199 253.585 99.956C254.145 99.7133 254.631 99.368 255.041 98.92C255.471 98.472 255.807 97.94 256.049 97.324C256.292 96.6893 256.413 95.9893 256.413 95.224V94.888C256.413 94.1413 256.292 93.46 256.049 92.844C255.807 92.2093 255.471 91.668 255.041 91.22C254.631 90.772 254.136 90.4267 253.557 90.184C252.997 89.9227 252.4 89.792 251.765 89.792C251.112 89.792 250.496 89.9133 249.917 90.156C249.357 90.3987 248.863 90.744 248.433 91.192C248.023 91.64 247.696 92.172 247.453 92.788C247.229 93.404 247.117 94.0853 247.117 94.832V95.28C247.117 96.064 247.229 96.764 247.453 97.38C247.696 97.996 248.023 98.528 248.433 98.976C248.863 99.4053 249.357 99.7413 249.917 99.984C250.477 100.208 251.093 100.32 251.765 100.32ZM264.822 95.728C264.878 97.1093 265.307 98.22 266.11 99.06C266.913 99.9 268.033 100.32 269.47 100.32C270.123 100.32 270.693 100.245 271.178 100.096C271.663 99.9467 272.074 99.7413 272.41 99.48C272.765 99.2187 273.045 98.92 273.25 98.584C273.474 98.2293 273.651 97.856 273.782 97.464L275.854 98.024C275.462 99.312 274.734 100.367 273.67 101.188C272.625 101.991 271.206 102.392 269.414 102.392C268.425 102.392 267.51 102.224 266.67 101.888C265.849 101.533 265.139 101.039 264.542 100.404C263.945 99.7693 263.478 99.0133 263.142 98.136C262.806 97.2587 262.638 96.288 262.638 95.224V94.552C262.638 93.5813 262.806 92.676 263.142 91.836C263.497 90.996 263.982 90.2773 264.598 89.68C265.214 89.064 265.933 88.588 266.754 88.252C267.594 87.8973 268.499 87.72 269.47 87.72C270.609 87.72 271.589 87.9347 272.41 88.364C273.25 88.7747 273.931 89.288 274.454 89.904C274.995 90.52 275.387 91.192 275.63 91.92C275.891 92.648 276.022 93.32 276.022 93.936V95.728H264.822ZM269.47 89.792C268.854 89.792 268.275 89.8947 267.734 90.1C267.211 90.2867 266.745 90.5573 266.334 90.912C265.942 91.2667 265.615 91.6867 265.354 92.172C265.111 92.6387 264.953 93.152 264.878 93.712H273.838C273.801 93.1147 273.651 92.5733 273.39 92.088C273.147 91.6027 272.821 91.192 272.41 90.856C272.018 90.52 271.561 90.2587 271.038 90.072C270.534 89.8853 270.011 89.792 269.47 89.792ZM280.118 88.112H284.486V82.4H286.67V88.112H292.046V90.128H286.67V99.144C286.67 99.704 286.922 99.984 287.426 99.984H291.374V102H286.642C286.008 102 285.485 101.795 285.074 101.384C284.682 100.973 284.486 100.451 284.486 99.816V90.128H280.118V88.112ZM300.847 91.696C300.847 92.368 301.127 92.8813 301.687 93.236C302.266 93.5907 303.311 93.824 304.823 93.936C306.447 94.0667 307.679 94.4587 308.519 95.112C309.378 95.7467 309.807 96.68 309.807 97.912V98.08C309.807 98.752 309.667 99.3587 309.387 99.9C309.126 100.423 308.752 100.871 308.267 101.244C307.8 101.617 307.222 101.897 306.531 102.084C305.859 102.289 305.122 102.392 304.319 102.392C303.236 102.392 302.303 102.252 301.519 101.972C300.754 101.673 300.11 101.291 299.587 100.824C299.083 100.339 298.7 99.7973 298.439 99.2C298.178 98.584 298.028 97.968 297.991 97.352L300.063 96.848C300.156 97.912 300.567 98.7707 301.295 99.424C302.023 100.059 302.994 100.376 304.207 100.376C305.234 100.376 306.055 100.18 306.671 99.788C307.306 99.3773 307.623 98.808 307.623 98.08C307.623 97.296 307.315 96.736 306.699 96.4C306.083 96.064 305.084 95.8493 303.703 95.756C302.098 95.644 300.866 95.2707 300.007 94.636C299.148 94.0013 298.719 93.0773 298.719 91.864V91.696C298.719 91.0427 298.859 90.4733 299.139 89.988C299.419 89.484 299.792 89.064 300.259 88.728C300.744 88.392 301.286 88.14 301.883 87.972C302.48 87.804 303.106 87.72 303.759 87.72C304.674 87.72 305.476 87.8507 306.167 88.112C306.858 88.3547 307.436 88.6813 307.903 89.092C308.37 89.484 308.724 89.9413 308.967 90.464C309.228 90.9867 309.396 91.5093 309.471 92.032L307.399 92.536C307.306 91.64 306.942 90.94 306.307 90.436C305.691 89.932 304.879 89.68 303.871 89.68C303.479 89.68 303.096 89.7267 302.723 89.82C302.368 89.8947 302.051 90.016 301.771 90.184C301.491 90.352 301.267 90.5667 301.099 90.828C300.931 91.0707 300.847 91.36 300.847 91.696ZM319.503 100.432C319.503 99.8907 319.69 99.4333 320.063 99.06C320.455 98.668 320.922 98.472 321.463 98.472C322.005 98.472 322.462 98.668 322.835 99.06C323.227 99.4333 323.423 99.8907 323.423 100.432C323.423 100.973 323.227 101.44 322.835 101.832C322.462 102.205 322.005 102.392 321.463 102.392C320.922 102.392 320.455 102.205 320.063 101.832C319.69 101.44 319.503 100.973 319.503 100.432ZM319.503 89.68C319.503 89.1387 319.69 88.6813 320.063 88.308C320.455 87.916 320.922 87.72 321.463 87.72C322.005 87.72 322.462 87.916 322.835 88.308C323.227 88.6813 323.423 89.1387 323.423 89.68C323.423 90.2213 323.227 90.688 322.835 91.08C322.462 91.4533 322.005 91.64 321.463 91.64C320.922 91.64 320.455 91.4533 320.063 91.08C319.69 90.688 319.503 90.2213 319.503 89.68ZM360.401 97.128H352.001L350.573 102H348.053L353.989 82.4H358.413L364.349 102H361.829L360.401 97.128ZM356.033 83.408L352.645 94.944H359.757L356.369 83.408H356.033ZM45.9792 129.112H50.2632V125.584C50.2632 124.949 50.4592 124.427 50.8512 124.016C51.2619 123.605 51.7845 123.4 52.4192 123.4H57.9072V125.416H53.2032C52.6992 125.416 52.4472 125.696 52.4472 126.256V129.112H58.2432V131.128H52.4472V143H50.2632V131.128H45.9792V129.112ZM62.7037 129.112H67.7437V130.96H68.0797C68.4344 130.195 68.9384 129.635 69.5917 129.28C70.2451 128.907 70.9917 128.72 71.8317 128.72C73.2317 128.72 74.3611 129.177 75.2197 130.092C76.0784 131.007 76.5357 132.341 76.5917 134.096L74.2957 134.432C74.2957 133.144 73.9877 132.22 73.3717 131.66C72.7557 131.081 71.9997 130.792 71.1037 130.792C70.5251 130.792 70.0211 130.904 69.5917 131.128C69.1811 131.352 68.8357 131.66 68.5557 132.052C68.2757 132.444 68.0704 132.901 67.9397 133.424C67.8091 133.947 67.7437 134.507 67.7437 135.104V140.984H71.2717V143H62.3677V140.984H65.5597V131.128H62.7037V129.112ZM82.4523 136.728C82.5083 138.109 82.9376 139.22 83.7403 140.06C84.5429 140.9 85.6629 141.32 87.1003 141.32C87.7536 141.32 88.3229 141.245 88.8083 141.096C89.2936 140.947 89.7043 140.741 90.0403 140.48C90.3949 140.219 90.6749 139.92 90.8803 139.584C91.1043 139.229 91.2816 138.856 91.4123 138.464L93.4843 139.024C93.0923 140.312 92.3643 141.367 91.3003 142.188C90.2549 142.991 88.8363 143.392 87.0443 143.392C86.0549 143.392 85.1403 143.224 84.3003 142.888C83.4789 142.533 82.7696 142.039 82.1723 141.404C81.5749 140.769 81.1083 140.013 80.7723 139.136C80.4363 138.259 80.2683 137.288 80.2683 136.224V135.552C80.2683 134.581 80.4363 133.676 80.7723 132.836C81.1269 131.996 81.6123 131.277 82.2283 130.68C82.8443 130.064 83.5629 129.588 84.3843 129.252C85.2243 128.897 86.1296 128.72 87.1003 128.72C88.2389 128.72 89.2189 128.935 90.0403 129.364C90.8803 129.775 91.5616 130.288 92.0843 130.904C92.6256 131.52 93.0176 132.192 93.2603 132.92C93.5216 133.648 93.6523 134.32 93.6523 134.936V136.728H82.4523ZM87.1003 130.792C86.4843 130.792 85.9056 130.895 85.3643 131.1C84.8416 131.287 84.3749 131.557 83.9643 131.912C83.5723 132.267 83.2456 132.687 82.9843 133.172C82.7416 133.639 82.5829 134.152 82.5083 134.712H91.4683C91.4309 134.115 91.2816 133.573 91.0203 133.088C90.7776 132.603 90.4509 132.192 90.0403 131.856C89.6483 131.52 89.1909 131.259 88.6683 131.072C88.1643 130.885 87.6416 130.792 87.1003 130.792ZM101.109 132.696C101.109 133.368 101.389 133.881 101.949 134.236C102.527 134.591 103.573 134.824 105.085 134.936C106.709 135.067 107.941 135.459 108.781 136.112C109.639 136.747 110.069 137.68 110.069 138.912V139.08C110.069 139.752 109.929 140.359 109.649 140.9C109.387 141.423 109.014 141.871 108.529 142.244C108.062 142.617 107.483 142.897 106.793 143.084C106.121 143.289 105.383 143.392 104.581 143.392C103.498 143.392 102.565 143.252 101.781 142.972C101.015 142.673 100.371 142.291 99.8488 141.824C99.3448 141.339 98.9621 140.797 98.7008 140.2C98.4395 139.584 98.2901 138.968 98.2528 138.352L100.325 137.848C100.418 138.912 100.829 139.771 101.557 140.424C102.285 141.059 103.255 141.376 104.469 141.376C105.495 141.376 106.317 141.18 106.933 140.788C107.567 140.377 107.885 139.808 107.885 139.08C107.885 138.296 107.577 137.736 106.961 137.4C106.345 137.064 105.346 136.849 103.965 136.756C102.359 136.644 101.127 136.271 100.269 135.636C99.4101 135.001 98.9808 134.077 98.9808 132.864V132.696C98.9808 132.043 99.1208 131.473 99.4008 130.988C99.6808 130.484 100.054 130.064 100.521 129.728C101.006 129.392 101.547 129.14 102.145 128.972C102.742 128.804 103.367 128.72 104.021 128.72C104.935 128.72 105.738 128.851 106.429 129.112C107.119 129.355 107.698 129.681 108.165 130.092C108.631 130.484 108.986 130.941 109.229 131.464C109.49 131.987 109.658 132.509 109.733 133.032L107.661 133.536C107.567 132.64 107.203 131.94 106.569 131.436C105.953 130.932 105.141 130.68 104.133 130.68C103.741 130.68 103.358 130.727 102.985 130.82C102.63 130.895 102.313 131.016 102.033 131.184C101.753 131.352 101.529 131.567 101.361 131.828C101.193 132.071 101.109 132.36 101.109 132.696ZM117.777 143H115.593V123.4H117.777V131.632H118.113C118.543 130.736 119.14 130.027 119.905 129.504C120.689 128.981 121.641 128.72 122.761 128.72C124.273 128.72 125.496 129.224 126.429 130.232C127.381 131.221 127.857 132.715 127.857 134.712V143H125.673V135.16C125.673 133.704 125.347 132.612 124.693 131.884C124.04 131.156 123.153 130.792 122.033 130.792C120.708 130.792 119.663 131.249 118.897 132.164C118.151 133.06 117.777 134.264 117.777 135.776V143ZM163.322 138.072C163.173 138.837 162.912 139.547 162.538 140.2C162.184 140.853 161.726 141.423 161.166 141.908C160.606 142.375 159.953 142.739 159.206 143C158.46 143.261 157.629 143.392 156.714 143.392C155.744 143.392 154.82 143.233 153.942 142.916C153.084 142.599 152.328 142.141 151.674 141.544C151.021 140.928 150.498 140.181 150.106 139.304C149.733 138.427 149.546 137.419 149.546 136.28V135.944C149.546 134.824 149.733 133.816 150.106 132.92C150.498 132.024 151.021 131.268 151.674 130.652C152.328 130.036 153.084 129.56 153.942 129.224C154.82 128.888 155.744 128.72 156.714 128.72C157.592 128.72 158.404 128.851 159.15 129.112C159.897 129.373 160.55 129.747 161.11 130.232C161.689 130.699 162.156 131.259 162.51 131.912C162.884 132.565 163.136 133.275 163.266 134.04L161.082 134.544C161.026 134.059 160.886 133.592 160.662 133.144C160.457 132.677 160.168 132.276 159.794 131.94C159.44 131.585 159.001 131.305 158.478 131.1C157.956 130.895 157.349 130.792 156.658 130.792C155.986 130.792 155.352 130.923 154.754 131.184C154.176 131.427 153.662 131.781 153.214 132.248C152.766 132.696 152.412 133.237 152.15 133.872C151.908 134.507 151.786 135.197 151.786 135.944V136.28C151.786 137.064 151.908 137.773 152.15 138.408C152.412 139.024 152.766 139.547 153.214 139.976C153.662 140.405 154.185 140.741 154.782 140.984C155.38 141.208 156.024 141.32 156.714 141.32C157.405 141.32 158.002 141.217 158.506 141.012C159.029 140.788 159.468 140.508 159.822 140.172C160.196 139.817 160.485 139.416 160.69 138.968C160.914 138.52 161.064 138.053 161.138 137.568L163.322 138.072ZM180.803 136.224C180.803 137.381 180.607 138.408 180.215 139.304C179.842 140.181 179.338 140.928 178.703 141.544C178.068 142.141 177.322 142.599 176.463 142.916C175.623 143.233 174.746 143.392 173.831 143.392C172.898 143.392 172.011 143.233 171.171 142.916C170.331 142.599 169.594 142.141 168.959 141.544C168.324 140.928 167.811 140.181 167.419 139.304C167.046 138.408 166.859 137.381 166.859 136.224V135.888C166.859 134.749 167.046 133.741 167.419 132.864C167.811 131.968 168.324 131.212 168.959 130.596C169.612 129.98 170.359 129.513 171.199 129.196C172.039 128.879 172.916 128.72 173.831 128.72C174.746 128.72 175.623 128.879 176.463 129.196C177.303 129.513 178.04 129.98 178.675 130.596C179.328 131.212 179.842 131.968 180.215 132.864C180.607 133.741 180.803 134.749 180.803 135.888V136.224ZM173.831 141.32C174.503 141.32 175.119 141.208 175.679 140.984C176.258 140.741 176.762 140.396 177.191 139.948C177.62 139.5 177.956 138.968 178.199 138.352C178.442 137.717 178.563 137.008 178.563 136.224V135.888C178.563 135.141 178.442 134.46 178.199 133.844C177.956 133.209 177.62 132.668 177.191 132.22C176.762 131.772 176.258 131.427 175.679 131.184C175.1 130.923 174.484 130.792 173.831 130.792C173.178 130.792 172.562 130.923 171.983 131.184C171.404 131.427 170.9 131.772 170.471 132.22C170.042 132.668 169.706 133.209 169.463 133.844C169.22 134.46 169.099 135.141 169.099 135.888V136.224C169.099 137.008 169.22 137.717 169.463 138.352C169.706 138.968 170.042 139.5 170.471 139.948C170.9 140.396 171.395 140.741 171.955 140.984C172.534 141.208 173.159 141.32 173.831 141.32ZM198.423 143H196.239V133.032C196.239 132.379 196.09 131.847 195.791 131.436C195.493 131.007 195.017 130.792 194.363 130.792C193.747 130.792 193.243 131.025 192.851 131.492C192.478 131.94 192.291 132.64 192.291 133.592V143H190.107V132.92C190.107 132.304 189.939 131.8 189.603 131.408C189.267 130.997 188.819 130.792 188.259 130.792C187.587 130.792 187.065 131.035 186.691 131.52C186.337 132.005 186.159 132.64 186.159 133.424V143H183.975V129.112H186.159V130.624H186.495C186.738 129.971 187.093 129.495 187.559 129.196C188.026 128.879 188.577 128.72 189.211 128.72C189.883 128.72 190.434 128.897 190.863 129.252C191.311 129.607 191.619 130.064 191.787 130.624H192.123C192.758 129.355 193.766 128.72 195.147 128.72C196.193 128.72 196.995 129.056 197.555 129.728C198.134 130.381 198.423 131.24 198.423 132.304V143ZM215.792 143H213.608V133.032C213.608 132.379 213.459 131.847 213.16 131.436C212.861 131.007 212.385 130.792 211.732 130.792C211.116 130.792 210.612 131.025 210.22 131.492C209.847 131.94 209.66 132.64 209.66 133.592V143H207.476V132.92C207.476 132.304 207.308 131.8 206.972 131.408C206.636 130.997 206.188 130.792 205.628 130.792C204.956 130.792 204.433 131.035 204.06 131.52C203.705 132.005 203.528 132.64 203.528 133.424V143H201.344V129.112H203.528V130.624H203.864C204.107 129.971 204.461 129.495 204.928 129.196C205.395 128.879 205.945 128.72 206.58 128.72C207.252 128.72 207.803 128.897 208.232 129.252C208.68 129.607 208.988 130.064 209.156 130.624H209.492C210.127 129.355 211.135 128.72 212.516 128.72C213.561 128.72 214.364 129.056 214.924 129.728C215.503 130.381 215.792 131.24 215.792 132.304V143ZM229.885 140.648H229.549C229.101 141.581 228.475 142.272 227.673 142.72C226.889 143.168 226.058 143.392 225.181 143.392C224.266 143.392 223.417 143.243 222.633 142.944C221.849 142.627 221.158 142.169 220.561 141.572C219.982 140.956 219.525 140.209 219.189 139.332C218.853 138.455 218.685 137.437 218.685 136.28V135.832C218.685 134.693 218.853 133.685 219.189 132.808C219.525 131.931 219.982 131.193 220.561 130.596C221.158 129.98 221.849 129.513 222.633 129.196C223.417 128.879 224.247 128.72 225.125 128.72C226.077 128.72 226.935 128.935 227.701 129.364C228.485 129.775 229.101 130.419 229.549 131.296H229.885V129.112H232.069V140.144C232.069 140.704 232.321 140.984 232.825 140.984H233.525V143H232.041C231.406 143 230.883 142.795 230.473 142.384C230.081 141.973 229.885 141.451 229.885 140.816V140.648ZM225.405 141.32C226.058 141.32 226.655 141.199 227.197 140.956C227.757 140.713 228.233 140.368 228.625 139.92C229.017 139.472 229.325 138.94 229.549 138.324C229.773 137.689 229.885 136.989 229.885 136.224V135.888C229.885 135.141 229.773 134.46 229.549 133.844C229.325 133.209 229.007 132.668 228.597 132.22C228.205 131.772 227.729 131.427 227.169 131.184C226.627 130.923 226.039 130.792 225.405 130.792C224.751 130.792 224.154 130.913 223.613 131.156C223.071 131.399 222.595 131.744 222.185 132.192C221.793 132.621 221.485 133.153 221.261 133.788C221.037 134.404 220.925 135.085 220.925 135.832V136.28C220.925 137.867 221.335 139.108 222.157 140.004C222.997 140.881 224.079 141.32 225.405 141.32ZM239.357 143H237.173V129.112H239.357V131.464H239.693C240.552 129.635 242.045 128.72 244.173 128.72C245.778 128.72 247.057 129.224 248.009 130.232C248.961 131.221 249.437 132.715 249.437 134.712V143H247.253V135.16C247.253 133.704 246.926 132.612 246.273 131.884C245.62 131.156 244.733 130.792 243.613 130.792C242.288 130.792 241.242 131.249 240.477 132.164C239.73 133.06 239.357 134.264 239.357 135.776V143ZM265.294 140.872H264.958C264.734 141.301 264.444 141.675 264.09 141.992C263.754 142.309 263.38 142.571 262.97 142.776C262.578 142.981 262.158 143.131 261.71 143.224C261.262 143.336 260.832 143.392 260.422 143.392C259.488 143.392 258.62 143.233 257.818 142.916C257.015 142.599 256.306 142.141 255.69 141.544C255.092 140.947 254.616 140.209 254.262 139.332C253.926 138.436 253.758 137.419 253.758 136.28V135.832C253.758 134.712 253.935 133.713 254.29 132.836C254.644 131.94 255.12 131.193 255.718 130.596C256.315 129.98 257.015 129.513 257.818 129.196C258.62 128.879 259.47 128.72 260.366 128.72C261.318 128.72 262.204 128.935 263.026 129.364C263.866 129.775 264.51 130.419 264.958 131.296H265.294V123.4H267.478V143H265.294V140.872ZM260.646 141.32C261.299 141.32 261.906 141.199 262.466 140.956C263.026 140.713 263.511 140.368 263.922 139.92C264.351 139.472 264.687 138.94 264.93 138.324C265.172 137.689 265.294 136.989 265.294 136.224V135.888C265.294 135.141 265.172 134.46 264.93 133.844C264.687 133.209 264.351 132.668 263.922 132.22C263.511 131.772 263.016 131.427 262.438 131.184C261.878 130.923 261.28 130.792 260.646 130.792C259.992 130.792 259.376 130.913 258.798 131.156C258.238 131.399 257.743 131.744 257.314 132.192C256.903 132.64 256.576 133.172 256.334 133.788C256.11 134.404 255.998 135.085 255.998 135.832V136.28C255.998 137.064 256.11 137.764 256.334 138.38C256.576 138.996 256.903 139.528 257.314 139.976C257.743 140.405 258.238 140.741 258.798 140.984C259.358 141.208 259.974 141.32 260.646 141.32ZM289.279 140.984H294.319V125.416H289.447V123.4H296.503V140.984H301.543V143H289.279V140.984ZM310.959 124.968C310.959 124.427 311.146 123.969 311.519 123.596C311.911 123.204 312.378 123.008 312.919 123.008C313.461 123.008 313.918 123.204 314.291 123.596C314.683 123.969 314.879 124.427 314.879 124.968C314.879 125.509 314.683 125.976 314.291 126.368C313.918 126.741 313.461 126.928 312.919 126.928C312.378 126.928 311.911 126.741 311.519 126.368C311.146 125.976 310.959 125.509 310.959 124.968ZM306.983 140.984H311.855V131.128H307.487V129.112H314.039V140.984H318.575V143H306.983V140.984ZM326.2 143H324.016V129.112H326.2V131.464H326.536C327.394 129.635 328.888 128.72 331.016 128.72C332.621 128.72 333.9 129.224 334.852 130.232C335.804 131.221 336.28 132.715 336.28 134.712V143H334.096V135.16C334.096 133.704 333.769 132.612 333.116 131.884C332.462 131.156 331.576 130.792 330.456 130.792C329.13 130.792 328.085 131.249 327.32 132.164C326.573 133.06 326.2 134.264 326.2 135.776V143ZM342.98 136.728C343.036 138.109 343.466 139.22 344.268 140.06C345.071 140.9 346.191 141.32 347.628 141.32C348.282 141.32 348.851 141.245 349.336 141.096C349.822 140.947 350.232 140.741 350.568 140.48C350.923 140.219 351.203 139.92 351.408 139.584C351.632 139.229 351.81 138.856 351.94 138.464L354.012 139.024C353.62 140.312 352.892 141.367 351.828 142.188C350.783 142.991 349.364 143.392 347.572 143.392C346.583 143.392 345.668 143.224 344.828 142.888C344.007 142.533 343.298 142.039 342.7 141.404C342.103 140.769 341.636 140.013 341.3 139.136C340.964 138.259 340.796 137.288 340.796 136.224V135.552C340.796 134.581 340.964 133.676 341.3 132.836C341.655 131.996 342.14 131.277 342.756 130.68C343.372 130.064 344.091 129.588 344.912 129.252C345.752 128.897 346.658 128.72 347.628 128.72C348.767 128.72 349.747 128.935 350.568 129.364C351.408 129.775 352.09 130.288 352.612 130.904C353.154 131.52 353.546 132.192 353.788 132.92C354.05 133.648 354.18 134.32 354.18 134.936V136.728H342.98ZM347.628 130.792C347.012 130.792 346.434 130.895 345.892 131.1C345.37 131.287 344.903 131.557 344.492 131.912C344.1 132.267 343.774 132.687 343.512 133.172C343.27 133.639 343.111 134.152 343.036 134.712H351.996C351.959 134.115 351.81 133.573 351.548 133.088C351.306 132.603 350.979 132.192 350.568 131.856C350.176 131.52 349.719 131.259 349.196 131.072C348.692 130.885 348.17 130.792 347.628 130.792ZM128.702 165.968C128.702 165.427 128.888 164.969 129.262 164.596C129.654 164.204 130.12 164.008 130.662 164.008C131.203 164.008 131.66 164.204 132.034 164.596C132.426 164.969 132.622 165.427 132.622 165.968C132.622 166.509 132.426 166.976 132.034 167.368C131.66 167.741 131.203 167.928 130.662 167.928C130.12 167.928 129.654 167.741 129.262 167.368C128.888 166.976 128.702 166.509 128.702 165.968ZM124.726 181.984H129.598V172.128H125.23V170.112H131.782V181.984H136.318V184H124.726V181.984ZM143.942 184H141.758V170.112H143.942V172.464H144.278C145.137 170.635 146.63 169.72 148.758 169.72C150.363 169.72 151.642 170.224 152.594 171.232C153.546 172.221 154.022 173.715 154.022 175.712V184H151.838V176.16C151.838 174.704 151.511 173.612 150.858 172.884C150.205 172.156 149.318 171.792 148.198 171.792C146.873 171.792 145.827 172.249 145.062 173.164C144.315 174.06 143.942 175.264 143.942 176.776V184ZM158.651 170.112H163.019V164.4H165.203V170.112H170.579V172.128H165.203V181.144C165.203 181.704 165.455 181.984 165.959 181.984H169.907V184H165.175C164.54 184 164.017 183.795 163.607 183.384C163.215 182.973 163.019 182.451 163.019 181.816V172.128H158.651V170.112ZM178.091 177.728C178.147 179.109 178.577 180.22 179.379 181.06C180.182 181.9 181.302 182.32 182.739 182.32C183.393 182.32 183.962 182.245 184.447 182.096C184.933 181.947 185.343 181.741 185.679 181.48C186.034 181.219 186.314 180.92 186.519 180.584C186.743 180.229 186.921 179.856 187.051 179.464L189.123 180.024C188.731 181.312 188.003 182.367 186.939 183.188C185.894 183.991 184.475 184.392 182.683 184.392C181.694 184.392 180.779 184.224 179.939 183.888C179.118 183.533 178.409 183.039 177.811 182.404C177.214 181.769 176.747 181.013 176.411 180.136C176.075 179.259 175.907 178.288 175.907 177.224V176.552C175.907 175.581 176.075 174.676 176.411 173.836C176.766 172.996 177.251 172.277 177.867 171.68C178.483 171.064 179.202 170.588 180.023 170.252C180.863 169.897 181.769 169.72 182.739 169.72C183.878 169.72 184.858 169.935 185.679 170.364C186.519 170.775 187.201 171.288 187.723 171.904C188.265 172.52 188.657 173.192 188.899 173.92C189.161 174.648 189.291 175.32 189.291 175.936V177.728H178.091ZM182.739 171.792C182.123 171.792 181.545 171.895 181.003 172.1C180.481 172.287 180.014 172.557 179.603 172.912C179.211 173.267 178.885 173.687 178.623 174.172C178.381 174.639 178.222 175.152 178.147 175.712H187.107C187.07 175.115 186.921 174.573 186.659 174.088C186.417 173.603 186.09 173.192 185.679 172.856C185.287 172.52 184.83 172.259 184.307 172.072C183.803 171.885 183.281 171.792 182.739 171.792ZM193.08 170.112H198.12V171.96H198.456C198.81 171.195 199.314 170.635 199.968 170.28C200.621 169.907 201.368 169.72 202.208 169.72C203.608 169.72 204.737 170.177 205.596 171.092C206.454 172.007 206.912 173.341 206.968 175.096L204.672 175.432C204.672 174.144 204.364 173.22 203.748 172.66C203.132 172.081 202.376 171.792 201.48 171.792C200.901 171.792 200.397 171.904 199.968 172.128C199.557 172.352 199.212 172.66 198.932 173.052C198.652 173.444 198.446 173.901 198.316 174.424C198.185 174.947 198.12 175.507 198.12 176.104V181.984H201.648V184H192.744V181.984H195.936V172.128H193.08V170.112ZM211.092 170.112H215.376V166.584C215.376 165.949 215.572 165.427 215.964 165.016C216.375 164.605 216.898 164.4 217.532 164.4H223.02V166.416H218.316C217.812 166.416 217.56 166.696 217.56 167.256V170.112H223.356V172.128H217.56V184H215.376V172.128H211.092V170.112ZM238.681 181.648H238.345C237.897 182.581 237.271 183.272 236.469 183.72C235.685 184.168 234.854 184.392 233.977 184.392C233.062 184.392 232.213 184.243 231.429 183.944C230.645 183.627 229.954 183.169 229.357 182.572C228.778 181.956 228.321 181.209 227.985 180.332C227.649 179.455 227.481 178.437 227.481 177.28V176.832C227.481 175.693 227.649 174.685 227.985 173.808C228.321 172.931 228.778 172.193 229.357 171.596C229.954 170.98 230.645 170.513 231.429 170.196C232.213 169.879 233.043 169.72 233.921 169.72C234.873 169.72 235.731 169.935 236.497 170.364C237.281 170.775 237.897 171.419 238.345 172.296H238.681V170.112H240.865V181.144C240.865 181.704 241.117 181.984 241.621 181.984H242.321V184H240.837C240.202 184 239.679 183.795 239.269 183.384C238.877 182.973 238.681 182.451 238.681 181.816V181.648ZM234.201 182.32C234.854 182.32 235.451 182.199 235.993 181.956C236.553 181.713 237.029 181.368 237.421 180.92C237.813 180.472 238.121 179.94 238.345 179.324C238.569 178.689 238.681 177.989 238.681 177.224V176.888C238.681 176.141 238.569 175.46 238.345 174.844C238.121 174.209 237.803 173.668 237.393 173.22C237.001 172.772 236.525 172.427 235.965 172.184C235.423 171.923 234.835 171.792 234.201 171.792C233.547 171.792 232.95 171.913 232.409 172.156C231.867 172.399 231.391 172.744 230.981 173.192C230.589 173.621 230.281 174.153 230.057 174.788C229.833 175.404 229.721 176.085 229.721 176.832V177.28C229.721 178.867 230.131 180.108 230.953 181.004C231.793 181.881 232.875 182.32 234.201 182.32ZM258.961 179.072C258.812 179.837 258.551 180.547 258.177 181.2C257.823 181.853 257.365 182.423 256.805 182.908C256.245 183.375 255.592 183.739 254.845 184C254.099 184.261 253.268 184.392 252.353 184.392C251.383 184.392 250.459 184.233 249.581 183.916C248.723 183.599 247.967 183.141 247.313 182.544C246.66 181.928 246.137 181.181 245.745 180.304C245.372 179.427 245.185 178.419 245.185 177.28V176.944C245.185 175.824 245.372 174.816 245.745 173.92C246.137 173.024 246.66 172.268 247.313 171.652C247.967 171.036 248.723 170.56 249.581 170.224C250.459 169.888 251.383 169.72 252.353 169.72C253.231 169.72 254.043 169.851 254.789 170.112C255.536 170.373 256.189 170.747 256.749 171.232C257.328 171.699 257.795 172.259 258.149 172.912C258.523 173.565 258.775 174.275 258.905 175.04L256.721 175.544C256.665 175.059 256.525 174.592 256.301 174.144C256.096 173.677 255.807 173.276 255.433 172.94C255.079 172.585 254.64 172.305 254.117 172.1C253.595 171.895 252.988 171.792 252.297 171.792C251.625 171.792 250.991 171.923 250.393 172.184C249.815 172.427 249.301 172.781 248.853 173.248C248.405 173.696 248.051 174.237 247.789 174.872C247.547 175.507 247.425 176.197 247.425 176.944V177.28C247.425 178.064 247.547 178.773 247.789 179.408C248.051 180.024 248.405 180.547 248.853 180.976C249.301 181.405 249.824 181.741 250.421 181.984C251.019 182.208 251.663 182.32 252.353 182.32C253.044 182.32 253.641 182.217 254.145 182.012C254.668 181.788 255.107 181.508 255.461 181.172C255.835 180.817 256.124 180.416 256.329 179.968C256.553 179.52 256.703 179.053 256.777 178.568L258.961 179.072ZM264.934 177.728C264.99 179.109 265.419 180.22 266.222 181.06C267.025 181.9 268.145 182.32 269.582 182.32C270.235 182.32 270.805 182.245 271.29 182.096C271.775 181.947 272.186 181.741 272.522 181.48C272.877 181.219 273.157 180.92 273.362 180.584C273.586 180.229 273.763 179.856 273.894 179.464L275.966 180.024C275.574 181.312 274.846 182.367 273.782 183.188C272.737 183.991 271.318 184.392 269.526 184.392C268.537 184.392 267.622 184.224 266.782 183.888C265.961 183.533 265.251 183.039 264.654 182.404C264.057 181.769 263.59 181.013 263.254 180.136C262.918 179.259 262.75 178.288 262.75 177.224V176.552C262.75 175.581 262.918 174.676 263.254 173.836C263.609 172.996 264.094 172.277 264.71 171.68C265.326 171.064 266.045 170.588 266.866 170.252C267.706 169.897 268.611 169.72 269.582 169.72C270.721 169.72 271.701 169.935 272.522 170.364C273.362 170.775 274.043 171.288 274.566 171.904C275.107 172.52 275.499 173.192 275.742 173.92C276.003 174.648 276.134 175.32 276.134 175.936V177.728H264.934ZM269.582 171.792C268.966 171.792 268.387 171.895 267.846 172.1C267.323 172.287 266.857 172.557 266.446 172.912C266.054 173.267 265.727 173.687 265.466 174.172C265.223 174.639 265.065 175.152 264.99 175.712H273.95C273.913 175.115 273.763 174.573 273.502 174.088C273.259 173.603 272.933 173.192 272.522 172.856C272.13 172.52 271.673 172.259 271.15 172.072C270.646 171.885 270.123 171.792 269.582 171.792Z" fill="#FAFAFA"/>
</svg>
