<svg width="400" height="264" viewBox="0 0 400 264" fill="none" xmlns="http://www.w3.org/2000/svg">
<rect width="400" height="264" rx="16" fill="#424242"/>
<path d="M83.83 188V166.406H85.8769V188H83.83ZM77.5019 166.828V164.969H92.1738V166.828H77.5019ZM99.7891 188.25C98.2683 188.25 96.9245 187.901 95.7579 187.203C94.6016 186.495 93.6954 185.505 93.0391 184.234C92.3933 182.964 92.0704 181.469 92.0704 179.75C92.0704 178.042 92.3881 176.552 93.0235 175.281C93.6693 174.01 94.5547 173.026 95.6797 172.328C96.8047 171.62 98.086 171.266 99.5235 171.266C100.982 171.266 102.247 171.609 103.32 172.297C104.393 172.974 105.221 173.885 105.805 175.031C106.388 176.167 106.68 177.422 106.68 178.797C106.68 179.099 106.664 179.411 106.633 179.734C106.612 180.047 106.586 180.286 106.555 180.453H93.5704V178.797H104.758C104.768 177.734 104.555 176.771 104.117 175.906C103.69 175.042 103.086 174.354 102.305 173.844C101.534 173.333 100.617 173.078 99.5547 173.078C98.4818 173.078 97.5235 173.349 96.6797 173.891C95.836 174.422 95.1693 175.188 94.6797 176.188C94.1902 177.177 93.9454 178.359 93.9454 179.734C93.9454 181.099 94.1902 182.281 94.6797 183.281C95.1693 184.281 95.8516 185.057 96.7266 185.609C97.612 186.161 98.6277 186.438 99.7735 186.438C100.492 186.438 101.154 186.344 101.758 186.156C102.362 185.958 102.898 185.719 103.367 185.438C103.846 185.146 104.242 184.854 104.555 184.562L105.336 186.375C104.69 186.896 103.888 187.339 102.93 187.703C101.982 188.068 100.935 188.25 99.7891 188.25ZM110.764 188V171.516H112.701V174.281H113.108L112.326 175.141C112.67 174.401 113.118 173.74 113.67 173.156C114.233 172.573 114.873 172.115 115.592 171.781C116.321 171.438 117.113 171.266 117.967 171.266C118.259 171.266 118.545 171.286 118.826 171.328C119.108 171.359 119.326 171.406 119.483 171.469L118.686 173.328C118.571 173.286 118.415 173.25 118.217 173.219C118.03 173.188 117.821 173.172 117.592 173.172C117.082 173.172 116.54 173.292 115.967 173.531C115.405 173.771 114.873 174.115 114.373 174.562C113.884 175 113.483 175.536 113.17 176.172C112.858 176.797 112.701 177.5 112.701 178.281V188H110.764ZM122.395 188V171.516H124.332V173.641H124.723L123.864 174.734C124.291 173.599 124.952 172.74 125.848 172.156C126.754 171.562 127.765 171.266 128.879 171.266C130.119 171.266 131.171 171.583 132.036 172.219C132.911 172.844 133.504 173.693 133.817 174.766L132.879 173.891H134.176L133.098 174.766C133.525 173.609 134.249 172.74 135.27 172.156C136.291 171.562 137.39 171.266 138.567 171.266C139.431 171.266 140.202 171.411 140.879 171.703C141.556 171.984 142.134 172.385 142.614 172.906C143.093 173.417 143.457 174.021 143.707 174.719C143.957 175.417 144.082 176.177 144.082 177V188H142.145V177.328C142.145 175.943 141.786 174.891 141.067 174.172C140.348 173.443 139.431 173.078 138.317 173.078C137.588 173.078 136.911 173.24 136.286 173.562C135.661 173.875 135.155 174.349 134.77 174.984C134.384 175.609 134.192 176.391 134.192 177.328V188H132.254V177.328C132.254 175.943 131.89 174.891 131.161 174.172C130.431 173.443 129.509 173.078 128.395 173.078C127.291 173.078 126.338 173.474 125.536 174.266C124.733 175.047 124.332 176.172 124.332 177.641V188H122.395ZM149.151 188V171.516H151.088V188H149.151ZM150.104 168.594C149.614 168.594 149.203 168.427 148.87 168.094C148.536 167.75 148.37 167.339 148.37 166.859C148.37 166.38 148.536 165.974 148.87 165.641C149.203 165.297 149.614 165.125 150.104 165.125C150.583 165.125 150.989 165.297 151.323 165.641C151.667 165.974 151.838 166.38 151.838 166.859C151.838 167.339 151.667 167.75 151.323 168.094C150.989 168.427 150.583 168.594 150.104 168.594ZM156.173 188V171.516H158.11V173.875H158.673L157.719 174.828C158.001 174.109 158.412 173.484 158.954 172.953C159.506 172.411 160.162 171.995 160.923 171.703C161.683 171.411 162.521 171.266 163.438 171.266C164.73 171.266 165.798 171.542 166.641 172.094C167.495 172.635 168.131 173.37 168.548 174.297C168.975 175.224 169.188 176.255 169.188 177.391V188H167.251V177.828C167.251 176.245 166.87 175.057 166.11 174.266C165.36 173.464 164.329 173.062 163.016 173.062C162.089 173.062 161.256 173.266 160.516 173.672C159.777 174.068 159.188 174.62 158.751 175.328C158.324 176.026 158.11 176.839 158.11 177.766V188H156.173ZM178.553 188.25C177.564 188.25 176.668 188.052 175.866 187.656C175.064 187.25 174.428 186.688 173.96 185.969C173.491 185.24 173.257 184.391 173.257 183.422C173.257 182.37 173.553 181.464 174.147 180.703C174.751 179.943 175.632 179.359 176.788 178.953C177.944 178.536 179.345 178.328 180.991 178.328H184.272V179.922H181.1C179.173 179.922 177.699 180.24 176.678 180.875C175.668 181.51 175.163 182.359 175.163 183.422C175.163 184.036 175.319 184.583 175.632 185.062C175.955 185.531 176.387 185.901 176.928 186.172C177.481 186.432 178.085 186.562 178.741 186.562C179.533 186.562 180.319 186.375 181.1 186C181.882 185.615 182.533 185.089 183.053 184.422C183.585 183.755 183.85 182.995 183.85 182.141V179.875L183.803 179.266V177.328C183.803 176.859 183.762 176.375 183.678 175.875C183.606 175.375 183.439 174.911 183.178 174.484C182.928 174.057 182.548 173.714 182.038 173.453C181.527 173.193 180.835 173.062 179.96 173.062C179.47 173.062 178.928 173.13 178.335 173.266C177.751 173.401 177.173 173.589 176.6 173.828C176.038 174.068 175.548 174.339 175.132 174.641L174.35 172.953C174.85 172.62 175.428 172.328 176.085 172.078C176.741 171.818 177.423 171.615 178.132 171.469C178.84 171.323 179.507 171.25 180.132 171.25C181.236 171.25 182.142 171.411 182.85 171.734C183.569 172.057 184.132 172.5 184.538 173.062C184.955 173.625 185.246 174.276 185.413 175.016C185.59 175.755 185.678 176.536 185.678 177.359V183.688C185.678 184.427 185.772 185.021 185.96 185.469C186.158 185.906 186.449 186.219 186.835 186.406L187.069 186.484L186.319 188.25L185.928 188.062C185.366 187.802 184.913 187.427 184.569 186.938C184.225 186.448 184.033 185.906 183.991 185.312L184.35 185.484H183.6L184.1 185.172C183.642 186.005 182.928 186.729 181.96 187.344C180.991 187.948 179.856 188.25 178.553 188.25ZM193.794 188.203C193.127 188.203 192.586 188.068 192.169 187.797C191.763 187.516 191.461 187.104 191.263 186.562C191.075 186.021 190.981 185.354 190.981 184.562V163.938H192.919V184.609C192.919 184.859 192.935 185.125 192.966 185.406C193.007 185.688 193.112 185.922 193.278 186.109C193.445 186.297 193.731 186.391 194.138 186.391C194.294 186.391 194.45 186.375 194.606 186.344C194.773 186.302 194.914 186.26 195.028 186.219V188.016C194.872 188.078 194.679 188.125 194.45 188.156C194.231 188.188 194.013 188.203 193.794 188.203ZM211.415 188L204.9 164.969H207.009L211.29 180.719L212.415 185.297H212.556L218.337 166.969H219.29L225.072 185.297H225.197L226.337 180.719L230.618 164.969H232.728L226.212 188H224.212L218.868 171.453H218.743L213.415 188H211.415ZM236.531 188V171.516H238.468V188H236.531ZM237.484 168.594C236.994 168.594 236.583 168.427 236.249 168.094C235.916 167.75 235.749 167.339 235.749 166.859C235.749 166.38 235.916 165.974 236.249 165.641C236.583 165.297 236.994 165.125 237.484 165.125C237.963 165.125 238.369 165.297 238.702 165.641C239.046 165.974 239.218 166.38 239.218 166.859C239.218 167.339 239.046 167.75 238.702 168.094C238.369 168.427 237.963 168.594 237.484 168.594ZM258.224 188.25C257.682 187.969 257.24 187.672 256.896 187.359C256.563 187.047 256.313 186.682 256.146 186.266C255.99 185.839 255.901 185.312 255.88 184.688L256.365 184.984H255.302L256.005 183.438V175.578L255.318 174.109H255.677V163.938H257.615V183.828C257.615 184.609 257.708 185.182 257.896 185.547C258.083 185.911 258.453 186.229 259.005 186.5L258.224 188.25ZM250.021 188.25C248.979 188.25 248.011 188.052 247.115 187.656C246.219 187.26 245.438 186.693 244.771 185.953C244.115 185.214 243.599 184.323 243.224 183.281C242.849 182.229 242.662 181.047 242.662 179.734C242.662 177.984 242.985 176.474 243.63 175.203C244.276 173.932 245.151 172.958 246.255 172.281C247.37 171.594 248.625 171.25 250.021 171.25C251.365 171.25 252.573 171.583 253.646 172.25C254.719 172.917 255.573 173.88 256.208 175.141C256.844 176.401 257.162 177.927 257.162 179.719C257.162 181.479 256.844 183 256.208 184.281C255.573 185.552 254.714 186.531 253.63 187.219C252.557 187.906 251.354 188.25 250.021 188.25ZM250.255 186.5C251.339 186.5 252.302 186.203 253.146 185.609C253.99 185.016 254.651 184.214 255.13 183.203C255.61 182.182 255.849 181.026 255.849 179.734C255.849 178.286 255.589 177.062 255.068 176.062C254.557 175.052 253.875 174.292 253.021 173.781C252.177 173.26 251.255 173 250.255 173C249.162 173 248.188 173.281 247.333 173.844C246.49 174.396 245.828 175.177 245.349 176.188C244.87 177.198 244.636 178.38 244.646 179.734C244.636 181.068 244.87 182.24 245.349 183.25C245.839 184.26 246.505 185.057 247.349 185.641C248.203 186.214 249.172 186.5 250.255 186.5ZM269.683 194.812C268.59 194.812 267.506 194.651 266.433 194.328C265.36 194.005 264.506 193.615 263.871 193.156L264.621 191.406C265.194 191.865 265.928 192.25 266.824 192.562C267.73 192.885 268.662 193.047 269.621 193.047C270.579 193.047 271.491 192.854 272.355 192.469C273.23 192.094 273.938 191.516 274.48 190.734C275.022 189.953 275.293 188.958 275.293 187.75V185.047H274.949L275.371 183.797V175.438L274.855 174.156H275.246V171.516H277.183V187.672C277.183 188.953 276.959 190.047 276.511 190.953C276.074 191.859 275.485 192.594 274.746 193.156C274.017 193.719 273.209 194.135 272.324 194.406C271.438 194.677 270.558 194.812 269.683 194.812ZM269.558 188.141C268.527 188.141 267.569 187.948 266.683 187.562C265.798 187.167 265.022 186.599 264.355 185.859C263.688 185.12 263.168 184.229 262.793 183.188C262.418 182.135 262.23 180.953 262.23 179.641C262.23 177.891 262.553 176.391 263.199 175.141C263.845 173.891 264.725 172.932 265.84 172.266C266.965 171.599 268.225 171.266 269.621 171.266C270.965 171.266 272.173 171.594 273.246 172.25C274.329 172.906 275.183 173.854 275.808 175.094C276.444 176.333 276.761 177.839 276.761 179.609C276.761 181.38 276.438 182.906 275.793 184.188C275.147 185.458 274.277 186.438 273.183 187.125C272.1 187.802 270.892 188.141 269.558 188.141ZM269.761 186.328C270.855 186.328 271.819 186.042 272.652 185.469C273.496 184.885 274.157 184.083 274.636 183.062C275.116 182.042 275.355 180.865 275.355 179.531C275.355 178.219 275.116 177.078 274.636 176.109C274.157 175.141 273.496 174.391 272.652 173.859C271.819 173.328 270.855 173.062 269.761 173.062C268.647 173.062 267.668 173.339 266.824 173.891C265.98 174.443 265.329 175.214 264.871 176.203C264.412 177.193 264.183 178.339 264.183 179.641C264.183 180.974 264.423 182.146 264.902 183.156C265.392 184.156 266.053 184.938 266.886 185.5C267.73 186.052 268.688 186.328 269.761 186.328ZM289.017 188.25C287.497 188.25 286.153 187.901 284.986 187.203C283.83 186.495 282.924 185.505 282.267 184.234C281.622 182.964 281.299 181.469 281.299 179.75C281.299 178.042 281.616 176.552 282.252 175.281C282.898 174.01 283.783 173.026 284.908 172.328C286.033 171.62 287.314 171.266 288.752 171.266C290.21 171.266 291.476 171.609 292.549 172.297C293.622 172.974 294.45 173.885 295.033 175.031C295.616 176.167 295.908 177.422 295.908 178.797C295.908 179.099 295.892 179.411 295.861 179.734C295.84 180.047 295.814 180.286 295.783 180.453H282.799V178.797H293.986C293.997 177.734 293.783 176.771 293.346 175.906C292.918 175.042 292.314 174.354 291.533 173.844C290.762 173.333 289.846 173.078 288.783 173.078C287.71 173.078 286.752 173.349 285.908 173.891C285.064 174.422 284.398 175.188 283.908 176.188C283.418 177.177 283.174 178.359 283.174 179.734C283.174 181.099 283.418 182.281 283.908 183.281C284.398 184.281 285.08 185.057 285.955 185.609C286.84 186.161 287.856 186.438 289.002 186.438C289.721 186.438 290.382 186.344 290.986 186.156C291.59 185.958 292.127 185.719 292.596 185.438C293.075 185.146 293.471 184.854 293.783 184.562L294.564 186.375C293.918 186.896 293.116 187.339 292.158 187.703C291.21 188.068 290.163 188.25 289.017 188.25ZM305.289 188.219C303.831 188.219 302.737 187.786 302.008 186.922C301.279 186.047 300.914 184.891 300.914 183.453V166.016H302.852V183.391C302.852 184.339 303.065 185.083 303.492 185.625C303.919 186.156 304.529 186.422 305.32 186.422C305.549 186.422 305.784 186.391 306.023 186.328C306.263 186.266 306.477 186.188 306.664 186.094L307.43 187.797C307.117 187.922 306.789 188.021 306.445 188.094C306.102 188.177 305.716 188.219 305.289 188.219ZM298.195 173.281V171.516H307.102V173.281H298.195ZM315.607 188.25C314.691 188.25 313.852 188.073 313.092 187.719C312.342 187.354 311.706 186.885 311.186 186.312C310.665 185.74 310.295 185.135 310.076 184.5L311.904 183.734C312.134 184.391 312.587 185.01 313.264 185.594C313.941 186.167 314.743 186.453 315.67 186.453C316.212 186.453 316.743 186.339 317.264 186.109C317.795 185.87 318.227 185.536 318.561 185.109C318.904 184.672 319.076 184.156 319.076 183.562C319.076 183.042 318.946 182.599 318.686 182.234C318.425 181.859 318.087 181.547 317.67 181.297C317.253 181.036 316.8 180.818 316.311 180.641C315.821 180.453 315.357 180.292 314.92 180.156C314.305 179.958 313.654 179.672 312.967 179.297C312.29 178.922 311.712 178.432 311.232 177.828C310.753 177.214 310.514 176.458 310.514 175.562C310.514 174.719 310.732 173.974 311.17 173.328C311.618 172.682 312.201 172.177 312.92 171.812C313.639 171.448 314.42 171.266 315.264 171.266C316.399 171.266 317.436 171.583 318.373 172.219C319.321 172.854 319.988 173.656 320.373 174.625L318.639 175.359C318.326 174.63 317.868 174.068 317.264 173.672C316.67 173.276 316.019 173.078 315.311 173.078C314.54 173.078 313.857 173.307 313.264 173.766C312.68 174.214 312.394 174.818 312.404 175.578C312.404 176.234 312.613 176.771 313.029 177.188C313.446 177.594 313.936 177.922 314.498 178.172C315.061 178.411 315.566 178.604 316.014 178.75C316.472 178.885 316.977 179.068 317.529 179.297C318.092 179.526 318.628 179.823 319.139 180.188C319.66 180.542 320.087 180.99 320.42 181.531C320.764 182.073 320.936 182.729 320.936 183.5C320.936 184.438 320.686 185.266 320.186 185.984C319.696 186.693 319.045 187.25 318.232 187.656C317.43 188.052 316.555 188.25 315.607 188.25Z" fill="#FAFAFA"/>
<rect x="133" y="44" width="133.33" height="88" rx="44" fill="#CDEBC2"/>
<g clip-path="url(#clip0_2018_261)">
<path d="M221.887 65.7776H177.443C174.36 65.7776 171.888 68.2776 171.888 71.3331V104.666C171.888 107.722 174.36 110.222 177.443 110.222H221.887C224.942 110.222 227.442 107.722 227.442 104.666V71.3331C227.442 68.2776 224.97 65.7776 221.887 65.7776ZM221.887 104.666H177.443V76.8887H221.887V104.666ZM216.331 101.889H199.665V96.3331H216.331V101.889ZM187.165 101.889L183.249 97.972L190.415 90.7776L183.221 83.5831L187.165 79.6665L198.276 90.7776L187.165 101.889Z" fill="#424242"/>
</g>
<defs>
<clipPath id="clip0_2018_261">
<rect x="166.333" y="54.6665" width="66.665" height="66.6667" rx="33.3325" fill="white"/>
</clipPath>
</defs>
</svg>
