<svg width="816" height="608" viewBox="0 0 816 608" fill="none" xmlns="http://www.w3.org/2000/svg">
<rect x="48" y="48" width="720" height="512" rx="32" fill="#202124"/>
<path d="M76.29 85.156C75.6487 85.156 75.0637 85.026 74.535 84.766C74.015 84.506 73.6033 84.1247 73.3 83.622C72.9967 83.1193 72.845 82.517 72.845 81.815C72.845 81.1217 72.9967 80.528 73.3 80.034C73.612 79.54 74.015 79.1587 74.509 78.89C75.003 78.6213 75.5317 78.487 76.095 78.487C76.719 78.487 77.2477 78.617 77.681 78.877C78.1143 79.1283 78.4437 79.4793 78.669 79.93C78.903 80.372 79.02 80.892 79.02 81.49C79.02 81.62 79.0157 81.75 79.007 81.88C78.9983 82.0013 78.9853 82.1053 78.968 82.192H73.742V81.243H78.162L77.876 81.555C77.876 80.8703 77.72 80.359 77.408 80.021C77.096 79.6743 76.6713 79.501 76.134 79.501C75.7613 79.501 75.419 79.592 75.107 79.774C74.8037 79.9473 74.561 80.2073 74.379 80.554C74.197 80.892 74.106 81.3123 74.106 81.815C74.106 82.335 74.2057 82.7683 74.405 83.115C74.613 83.453 74.8903 83.7087 75.237 83.882C75.5923 84.0553 75.9997 84.142 76.459 84.142C76.8143 84.142 77.1393 84.0943 77.434 83.999C77.7287 83.895 78.019 83.7563 78.305 83.583L78.76 84.402C78.4393 84.6187 78.071 84.8007 77.655 84.948C77.239 85.0867 76.784 85.156 76.29 85.156ZM80.5749 85L82.9409 81.698L80.7439 78.643H82.1479L83.0709 79.943C83.1836 80.1163 83.3006 80.2983 83.4219 80.489C83.5519 80.671 83.6733 80.8487 83.7859 81.022H83.8379C83.9506 80.8487 84.0633 80.6667 84.1759 80.476C84.2973 80.2853 84.4099 80.1033 84.5139 79.93L85.3589 78.643H86.7239L84.5139 81.828L86.8799 85H85.4759L84.4619 83.648C84.3406 83.466 84.2106 83.2753 84.0719 83.076C83.9333 82.8767 83.7946 82.686 83.6559 82.504H83.6039C83.4826 82.6947 83.3613 82.8853 83.2399 83.076C83.1186 83.258 82.9973 83.4487 82.8759 83.648L81.9399 85H80.5749ZM90.8008 85.156C90.3935 85.156 90.0252 85.0823 89.6958 84.935C89.3752 84.779 89.1195 84.5667 88.9288 84.298C88.7468 84.0207 88.6558 83.6957 88.6558 83.323C88.6558 82.6123 89.0025 82.0707 89.6958 81.698C90.3978 81.3253 91.5462 81.0783 93.1408 80.957C93.1322 80.697 93.0715 80.4587 92.9588 80.242C92.8548 80.0253 92.6858 79.8563 92.4518 79.735C92.2265 79.605 91.9275 79.54 91.5548 79.54C91.2948 79.54 91.0392 79.5747 90.7878 79.644C90.5365 79.7047 90.2938 79.7913 90.0598 79.904C89.8258 80.0167 89.6048 80.1337 89.3968 80.255L88.9158 79.384C89.1498 79.2453 89.4185 79.1067 89.7218 78.968C90.0252 78.8207 90.3502 78.7037 90.6968 78.617C91.0522 78.5303 91.4118 78.487 91.7758 78.487C92.3652 78.487 92.8548 78.5953 93.2448 78.812C93.6348 79.0287 93.9295 79.3363 94.1288 79.735C94.3282 80.1337 94.4278 80.6147 94.4278 81.178V85H93.3748L93.2708 84.181H93.2318C92.8938 84.441 92.5125 84.6707 92.0878 84.87C91.6632 85.0607 91.2342 85.156 90.8008 85.156ZM91.1648 84.129C91.5028 84.129 91.8365 84.0553 92.1658 83.908C92.4952 83.7607 92.8202 83.5527 93.1408 83.284V81.776C92.3088 81.8367 91.6545 81.932 91.1778 82.062C90.7098 82.192 90.3805 82.3567 90.1898 82.556C89.9992 82.7467 89.9038 82.972 89.9038 83.232C89.9038 83.44 89.9602 83.6133 90.0728 83.752C90.1942 83.882 90.3502 83.9773 90.5408 84.038C90.7315 84.0987 90.9395 84.129 91.1648 84.129ZM96.1778 85V78.643H97.1918L97.2958 79.475H97.3218C97.4778 79.189 97.6641 78.955 97.8808 78.773C98.0974 78.5823 98.3878 78.487 98.7518 78.487C99.0551 78.487 99.3064 78.578 99.5058 78.76C99.7051 78.942 99.8438 79.215 99.9218 79.579C100.095 79.2497 100.29 78.9853 100.507 78.786C100.732 78.5867 101.027 78.487 101.391 78.487C101.841 78.487 102.188 78.6603 102.431 79.007C102.682 79.3537 102.808 79.8433 102.808 80.476V85H101.547V80.567C101.547 79.917 101.352 79.592 100.962 79.592C100.771 79.592 100.611 79.6657 100.481 79.813C100.351 79.9603 100.208 80.1813 100.052 80.476V85H98.9338V80.567C98.9338 80.2463 98.8861 80.0037 98.7908 79.839C98.7041 79.6743 98.5611 79.592 98.3618 79.592C98.1711 79.592 98.0021 79.6657 97.8548 79.813C97.7161 79.9603 97.5774 80.1813 97.4388 80.476V85H96.1778ZM104.48 87.6V78.643H105.533L105.637 79.423H105.676C105.962 79.1543 106.291 78.9333 106.664 78.76C107.036 78.578 107.413 78.487 107.795 78.487C108.358 78.487 108.83 78.6213 109.212 78.89C109.602 79.1587 109.896 79.5357 110.096 80.021C110.304 80.5063 110.408 81.074 110.408 81.724C110.408 82.452 110.273 83.0717 110.005 83.583C109.736 84.0943 109.385 84.4843 108.952 84.753C108.518 85.0217 108.05 85.156 107.548 85.156C107.262 85.156 106.954 85.0867 106.625 84.948C106.304 84.8093 106.009 84.6187 105.741 84.376H105.702L105.767 85.52V87.6H104.48ZM107.301 84.09C107.639 84.09 107.942 83.999 108.211 83.817C108.479 83.635 108.692 83.3707 108.848 83.024C109.004 82.6687 109.082 82.2397 109.082 81.737C109.082 81.295 109.021 80.9137 108.9 80.593C108.787 80.2637 108.614 80.0123 108.38 79.839C108.146 79.657 107.834 79.566 107.444 79.566C107.184 79.566 106.911 79.6353 106.625 79.774C106.339 79.904 106.053 80.1207 105.767 80.424V83.427C106.035 83.661 106.308 83.83 106.586 83.934C106.863 84.038 107.101 84.09 107.301 84.09ZM116.409 85.156C115.707 85.156 115.169 84.9523 114.797 84.545C114.424 84.129 114.238 83.5397 114.238 82.777V76.823H112.119V75.783H115.525V82.855C115.525 83.297 115.637 83.6177 115.863 83.817C116.088 84.0077 116.37 84.103 116.708 84.103C116.881 84.103 117.059 84.0813 117.241 84.038C117.431 83.9947 117.639 83.9253 117.865 83.83L118.177 84.792C117.873 84.896 117.592 84.9827 117.332 85.052C117.08 85.1213 116.773 85.156 116.409 85.156ZM123.294 85.156C122.652 85.156 122.067 85.026 121.539 84.766C121.019 84.506 120.607 84.1247 120.304 83.622C120 83.1193 119.849 82.517 119.849 81.815C119.849 81.1217 120 80.528 120.304 80.034C120.616 79.54 121.019 79.1587 121.513 78.89C122.007 78.6213 122.535 78.487 123.099 78.487C123.723 78.487 124.251 78.617 124.685 78.877C125.118 79.1283 125.447 79.4793 125.673 79.93C125.907 80.372 126.024 80.892 126.024 81.49C126.024 81.62 126.019 81.75 126.011 81.88C126.002 82.0013 125.989 82.1053 125.972 82.192H120.746V81.243H125.166L124.88 81.555C124.88 80.8703 124.724 80.359 124.412 80.021C124.1 79.6743 123.675 79.501 123.138 79.501C122.765 79.501 122.423 79.592 122.111 79.774C121.807 79.9473 121.565 80.2073 121.383 80.554C121.201 80.892 121.11 81.3123 121.11 81.815C121.11 82.335 121.209 82.7683 121.409 83.115C121.617 83.453 121.894 83.7087 122.241 83.882C122.596 84.0553 123.003 84.142 123.463 84.142C123.818 84.142 124.143 84.0943 124.438 83.999C124.732 83.895 125.023 83.7563 125.309 83.583L125.764 84.402C125.443 84.6187 125.075 84.8007 124.659 84.948C124.243 85.0867 123.788 85.156 123.294 85.156ZM131.257 86.885C130.746 86.885 130.256 86.7767 129.788 86.56C129.329 86.3433 128.922 86.0183 128.566 85.585C128.211 85.1517 127.929 84.6143 127.721 83.973C127.522 83.3317 127.422 82.5863 127.422 81.737C127.422 80.6103 127.591 79.6787 127.929 78.942C128.276 78.1967 128.74 77.6377 129.32 77.265C129.901 76.8923 130.547 76.706 131.257 76.706C131.873 76.706 132.375 76.8447 132.765 77.122C133.164 77.3993 133.459 77.772 133.649 78.24C133.849 78.708 133.948 79.2367 133.948 79.826V83.7H133.207L133.103 82.972H133.051C132.869 83.206 132.627 83.414 132.323 83.596C132.029 83.7693 131.712 83.856 131.374 83.856C131.071 83.856 130.789 83.7867 130.529 83.648C130.278 83.5007 130.074 83.297 129.918 83.037C129.771 82.7683 129.697 82.4607 129.697 82.114C129.697 81.672 129.827 81.3037 130.087 81.009C130.356 80.7057 130.742 80.4673 131.244 80.294C131.756 80.112 132.371 79.9777 133.09 79.891V79.709C133.09 79.319 133.021 78.9593 132.882 78.63C132.752 78.3007 132.549 78.0363 132.271 77.837C132.003 77.6377 131.647 77.538 131.205 77.538C130.841 77.538 130.486 77.6247 130.139 77.798C129.801 77.9713 129.498 78.2357 129.229 78.591C128.961 78.9377 128.748 79.3753 128.592 79.904C128.436 80.4327 128.358 81.0567 128.358 81.776C128.358 82.7033 128.488 83.4877 128.748 84.129C129.017 84.7617 129.372 85.2383 129.814 85.559C130.265 85.8883 130.759 86.053 131.296 86.053C131.686 86.053 132.02 86.001 132.297 85.897C132.583 85.8017 132.852 85.6673 133.103 85.494L133.519 86.17C133.173 86.3953 132.817 86.5687 132.453 86.69C132.098 86.82 131.699 86.885 131.257 86.885ZM131.647 82.972C131.873 82.972 132.094 82.907 132.31 82.777C132.536 82.647 132.757 82.465 132.973 82.231V80.71C132.15 80.8313 131.565 81.0003 131.218 81.217C130.872 81.425 130.698 81.7153 130.698 82.088C130.698 82.3653 130.785 82.582 130.958 82.738C131.132 82.894 131.361 82.972 131.647 82.972ZM135.815 87.6V78.643H136.868L136.972 79.423H137.011C137.297 79.1543 137.627 78.9333 137.999 78.76C138.372 78.578 138.749 78.487 139.13 78.487C139.694 78.487 140.166 78.6213 140.547 78.89C140.937 79.1587 141.232 79.5357 141.431 80.021C141.639 80.5063 141.743 81.074 141.743 81.724C141.743 82.452 141.609 83.0717 141.34 83.583C141.072 84.0943 140.721 84.4843 140.287 84.753C139.854 85.0217 139.386 85.156 138.883 85.156C138.597 85.156 138.29 85.0867 137.96 84.948C137.64 84.8093 137.345 84.6187 137.076 84.376H137.037L137.102 85.52V87.6H135.815ZM138.636 84.09C138.974 84.09 139.278 83.999 139.546 83.817C139.815 83.635 140.027 83.3707 140.183 83.024C140.339 82.6687 140.417 82.2397 140.417 81.737C140.417 81.295 140.357 80.9137 140.235 80.593C140.123 80.2637 139.949 80.0123 139.715 79.839C139.481 79.657 139.169 79.566 138.779 79.566C138.519 79.566 138.246 79.6353 137.96 79.774C137.674 79.904 137.388 80.1207 137.102 80.424V83.427C137.371 83.661 137.644 83.83 137.921 83.934C138.199 84.038 138.437 84.09 138.636 84.09ZM146.795 85.156C146.154 85.156 145.569 85.026 145.04 84.766C144.52 84.506 144.109 84.1247 143.805 83.622C143.502 83.1193 143.35 82.517 143.35 81.815C143.35 81.1217 143.502 80.528 143.805 80.034C144.117 79.54 144.52 79.1587 145.014 78.89C145.508 78.6213 146.037 78.487 146.6 78.487C147.224 78.487 147.753 78.617 148.186 78.877C148.62 79.1283 148.949 79.4793 149.174 79.93C149.408 80.372 149.525 80.892 149.525 81.49C149.525 81.62 149.521 81.75 149.512 81.88C149.504 82.0013 149.491 82.1053 149.473 82.192H144.247V81.243H148.667L148.381 81.555C148.381 80.8703 148.225 80.359 147.913 80.021C147.601 79.6743 147.177 79.501 146.639 79.501C146.267 79.501 145.924 79.592 145.612 79.774C145.309 79.9473 145.066 80.2073 144.884 80.554C144.702 80.892 144.611 81.3123 144.611 81.815C144.611 82.335 144.711 82.7683 144.91 83.115C145.118 83.453 145.396 83.7087 145.742 83.882C146.098 84.0553 146.505 84.142 146.964 84.142C147.32 84.142 147.645 84.0943 147.939 83.999C148.234 83.895 148.524 83.7563 148.81 83.583L149.265 84.402C148.945 84.6187 148.576 84.8007 148.16 84.948C147.744 85.0867 147.289 85.156 146.795 85.156ZM151.483 85V78.643H152.536L152.64 79.67H152.692C153.013 79.3407 153.36 79.0633 153.732 78.838C154.105 78.604 154.538 78.487 155.032 78.487C155.769 78.487 156.311 78.7123 156.657 79.163C157.013 79.605 157.19 80.2377 157.19 81.061V85H155.903V81.23C155.903 80.6753 155.799 80.268 155.591 80.008C155.392 79.7393 155.054 79.605 154.577 79.605C154.239 79.605 153.936 79.6917 153.667 79.865C153.399 80.0297 153.1 80.281 152.77 80.619V85H151.483ZM161.956 87.873C161.358 87.873 160.838 87.8037 160.396 87.665C159.963 87.535 159.629 87.34 159.395 87.08C159.161 86.8287 159.044 86.5167 159.044 86.144C159.044 85.884 159.131 85.6327 159.304 85.39C159.477 85.156 159.733 84.948 160.071 84.766V84.714C159.906 84.61 159.755 84.4757 159.616 84.311C159.486 84.1463 159.421 83.9297 159.421 83.661C159.421 83.453 159.486 83.245 159.616 83.037C159.755 82.8203 159.941 82.6297 160.175 82.465V82.413C159.958 82.2483 159.772 82.0273 159.616 81.75C159.46 81.4727 159.382 81.1477 159.382 80.775C159.382 80.2983 159.499 79.891 159.733 79.553C159.976 79.215 160.288 78.955 160.669 78.773C161.059 78.5823 161.484 78.487 161.943 78.487C162.307 78.487 162.628 78.539 162.905 78.643H165.518V79.657H163.971C164.101 79.7957 164.209 79.969 164.296 80.177C164.391 80.3763 164.439 80.5887 164.439 80.814C164.439 81.282 164.326 81.6763 164.101 81.997C163.884 82.3177 163.585 82.5647 163.204 82.738C162.831 82.9027 162.411 82.985 161.943 82.985C161.787 82.985 161.618 82.9677 161.436 82.933C161.263 82.8983 161.089 82.8463 160.916 82.777C160.777 82.8723 160.669 82.972 160.591 83.076C160.513 83.18 160.474 83.3013 160.474 83.44C160.474 83.6653 160.582 83.8343 160.799 83.947C161.016 84.051 161.328 84.103 161.735 84.103H163.087C163.91 84.103 164.526 84.22 164.933 84.454C165.349 84.688 165.557 85.078 165.557 85.624C165.557 86.0313 165.41 86.404 165.115 86.742C164.82 87.0887 164.404 87.3617 163.867 87.561C163.33 87.769 162.693 87.873 161.956 87.873ZM161.943 82.153C162.186 82.153 162.407 82.101 162.606 81.997C162.805 81.8843 162.966 81.724 163.087 81.516C163.208 81.308 163.269 81.061 163.269 80.775C163.269 80.4977 163.208 80.2593 163.087 80.06C162.966 79.852 162.805 79.6917 162.606 79.579C162.407 79.4577 162.186 79.397 161.943 79.397C161.7 79.397 161.475 79.4577 161.267 79.579C161.068 79.6917 160.907 79.852 160.786 80.06C160.665 80.2593 160.604 80.4977 160.604 80.775C160.604 81.061 160.665 81.308 160.786 81.516C160.907 81.724 161.068 81.8843 161.267 81.997C161.475 82.101 161.7 82.153 161.943 82.153ZM162.086 86.976C162.545 86.976 162.94 86.9197 163.269 86.807C163.598 86.703 163.85 86.5643 164.023 86.391C164.205 86.2263 164.296 86.0443 164.296 85.845C164.296 85.559 164.183 85.3683 163.958 85.273C163.733 85.1863 163.395 85.143 162.944 85.143H161.813C161.614 85.143 161.436 85.1343 161.28 85.117C161.124 85.0997 160.981 85.0737 160.851 85.039C160.582 85.1863 160.392 85.338 160.279 85.494C160.175 85.6587 160.123 85.8233 160.123 85.988C160.123 86.2913 160.292 86.5297 160.63 86.703C160.968 86.885 161.453 86.976 162.086 86.976ZM169.127 85.156C168.382 85.156 167.831 84.935 167.476 84.493C167.129 84.051 166.956 83.414 166.956 82.582V78.643H168.243V82.413C168.243 82.9763 168.343 83.3923 168.542 83.661C168.75 83.921 169.092 84.051 169.569 84.051C169.907 84.051 170.21 83.9687 170.479 83.804C170.748 83.6393 171.038 83.3707 171.35 82.998V78.643H172.637V85H171.584L171.48 83.947H171.428C171.116 84.3023 170.774 84.5927 170.401 84.818C170.037 85.0433 169.612 85.156 169.127 85.156ZM177.819 85V79.683H174.972V78.643H179.106V85H177.819ZM178.352 77.408C178.075 77.408 177.845 77.3257 177.663 77.161C177.481 76.9877 177.39 76.7623 177.39 76.485C177.39 76.2077 177.481 75.9867 177.663 75.822C177.845 75.6487 178.075 75.562 178.352 75.562C178.629 75.562 178.859 75.6487 179.041 75.822C179.223 75.9867 179.314 76.2077 179.314 76.485C179.314 76.7623 179.223 76.9877 179.041 77.161C178.859 77.3257 178.629 77.408 178.352 77.408ZM182.819 85V78.643H183.872L183.976 79.67H184.028C184.349 79.3407 184.695 79.0633 185.068 78.838C185.441 78.604 185.874 78.487 186.368 78.487C187.105 78.487 187.646 78.7123 187.993 79.163C188.348 79.605 188.526 80.2377 188.526 81.061V85H187.239V81.23C187.239 80.6753 187.135 80.268 186.927 80.008C186.728 79.7393 186.39 79.605 185.913 79.605C185.575 79.605 185.272 79.6917 185.003 79.865C184.734 80.0297 184.435 80.281 184.106 80.619V85H182.819Z" fill="#87FFC5"/>
<path d="M193.409 80.619C193.079 80.619 192.802 80.5063 192.577 80.281C192.351 80.0557 192.239 79.7653 192.239 79.41C192.239 79.0547 192.351 78.7643 192.577 78.539C192.802 78.3137 193.079 78.201 193.409 78.201C193.747 78.201 194.024 78.3137 194.241 78.539C194.466 78.7643 194.579 79.0547 194.579 79.41C194.579 79.7653 194.466 80.0557 194.241 80.281C194.024 80.5063 193.747 80.619 193.409 80.619ZM193.409 85.156C193.079 85.156 192.802 85.0433 192.577 84.818C192.351 84.5927 192.239 84.3023 192.239 83.947C192.239 83.5917 192.351 83.3013 192.577 83.076C192.802 82.8507 193.079 82.738 193.409 82.738C193.747 82.738 194.024 82.8507 194.241 83.076C194.466 83.3013 194.579 83.5917 194.579 83.947C194.579 84.3023 194.466 84.5927 194.241 84.818C194.024 85.0433 193.747 85.156 193.409 85.156ZM206.217 83.518L206.802 82.634C207.148 82.8767 207.517 83.0847 207.907 83.258C208.305 83.4227 208.739 83.505 209.207 83.505C209.666 83.505 210.013 83.414 210.247 83.232C210.489 83.0413 210.611 82.7987 210.611 82.504C210.611 82.2613 210.511 82.0577 210.312 81.893C210.121 81.7283 209.874 81.581 209.571 81.451C209.267 81.321 208.942 81.191 208.596 81.061C208.249 80.931 207.924 80.7793 207.621 80.606C207.317 80.4327 207.066 80.216 206.867 79.956C206.676 79.696 206.581 79.3797 206.581 79.007C206.581 78.591 206.689 78.2313 206.906 77.928C207.131 77.616 207.443 77.3777 207.842 77.213C208.24 77.0483 208.695 76.966 209.207 76.966C209.787 76.966 210.268 77.0657 210.65 77.265C211.031 77.4557 211.369 77.6983 211.664 77.993L211.001 78.747C210.706 78.513 210.42 78.3353 210.143 78.214C209.874 78.084 209.532 78.019 209.116 78.019C208.717 78.019 208.401 78.1057 208.167 78.279C207.941 78.4523 207.829 78.6863 207.829 78.981C207.829 79.189 207.924 79.371 208.115 79.527C208.314 79.6743 208.565 79.8087 208.869 79.93C209.181 80.0427 209.506 80.164 209.844 80.294C210.19 80.424 210.515 80.58 210.819 80.762C211.131 80.9353 211.382 81.1563 211.573 81.425C211.772 81.685 211.872 82.0143 211.872 82.413C211.872 82.8377 211.755 83.2103 211.521 83.531C211.287 83.8517 210.957 84.103 210.533 84.285C210.108 84.467 209.61 84.558 209.038 84.558C208.7 84.558 208.353 84.5147 207.998 84.428C207.651 84.3327 207.326 84.207 207.023 84.051C206.719 83.895 206.451 83.7173 206.217 83.518ZM208.7 77.421V75.289H209.597V77.421H208.7ZM208.7 84.077H209.597V86.43H208.7V84.077ZM225.33 85.156C224.671 85.156 224.077 85.026 223.549 84.766C223.02 84.506 222.6 84.129 222.288 83.635C221.984 83.1323 221.833 82.53 221.833 81.828C221.833 81.126 221.997 80.528 222.327 80.034C222.656 79.5313 223.089 79.15 223.627 78.89C224.173 78.6213 224.766 78.487 225.408 78.487C225.928 78.487 226.383 78.578 226.773 78.76C227.163 78.9333 227.488 79.1457 227.748 79.397L227.124 80.216C226.864 80.008 226.599 79.8477 226.331 79.735C226.071 79.6137 225.785 79.553 225.473 79.553C225.022 79.553 224.619 79.6483 224.264 79.839C223.917 80.0297 223.644 80.2983 223.445 80.645C223.254 80.983 223.159 81.3773 223.159 81.828C223.159 82.2873 223.254 82.686 223.445 83.024C223.635 83.362 223.9 83.6263 224.238 83.817C224.584 84.0077 224.983 84.103 225.434 84.103C225.815 84.103 226.162 84.0293 226.474 83.882C226.786 83.7347 227.067 83.557 227.319 83.349L227.878 84.181C227.522 84.493 227.124 84.7357 226.682 84.909C226.248 85.0737 225.798 85.156 225.33 85.156ZM231.811 85.156C231.404 85.156 231.036 85.0823 230.706 84.935C230.386 84.779 230.13 84.5667 229.939 84.298C229.757 84.0207 229.666 83.6957 229.666 83.323C229.666 82.6123 230.013 82.0707 230.706 81.698C231.408 81.3253 232.557 81.0783 234.151 80.957C234.143 80.697 234.082 80.4587 233.969 80.242C233.865 80.0253 233.696 79.8563 233.462 79.735C233.237 79.605 232.938 79.54 232.565 79.54C232.305 79.54 232.05 79.5747 231.798 79.644C231.547 79.7047 231.304 79.7913 231.07 79.904C230.836 80.0167 230.615 80.1337 230.407 80.255L229.926 79.384C230.16 79.2453 230.429 79.1067 230.732 78.968C231.036 78.8207 231.361 78.7037 231.707 78.617C232.063 78.5303 232.422 78.487 232.786 78.487C233.376 78.487 233.865 78.5953 234.255 78.812C234.645 79.0287 234.94 79.3363 235.139 79.735C235.339 80.1337 235.438 80.6147 235.438 81.178V85H234.385L234.281 84.181H234.242C233.904 84.441 233.523 84.6707 233.098 84.87C232.674 85.0607 232.245 85.156 231.811 85.156ZM232.175 84.129C232.513 84.129 232.847 84.0553 233.176 83.908C233.506 83.7607 233.831 83.5527 234.151 83.284V81.776C233.319 81.8367 232.665 81.932 232.188 82.062C231.72 82.192 231.391 82.3567 231.2 82.556C231.01 82.7467 230.914 82.972 230.914 83.232C230.914 83.44 230.971 83.6133 231.083 83.752C231.205 83.882 231.361 83.9773 231.551 84.038C231.742 84.0987 231.95 84.129 232.175 84.129ZM241.621 85.156C240.98 85.156 240.473 85.0433 240.1 84.818C239.736 84.5927 239.476 84.2807 239.32 83.882C239.164 83.4833 239.086 83.0197 239.086 82.491V79.683H237.344V78.721L239.138 78.643L239.307 76.641H240.373V78.643H243.376V79.683H240.373V82.491C240.373 82.8463 240.421 83.1497 240.516 83.401C240.612 83.6437 240.772 83.8257 240.997 83.947C241.223 84.0597 241.526 84.116 241.907 84.116C242.193 84.116 242.453 84.0943 242.687 84.051C242.921 83.999 243.147 83.934 243.363 83.856L243.623 84.792C243.337 84.8873 243.03 84.9697 242.7 85.039C242.38 85.117 242.02 85.156 241.621 85.156ZM253.155 85V76.485H254.468V79.982H257.692V76.485H259.005V85H257.692V81.113H254.468V85H253.155ZM264.304 85.156C263.663 85.156 263.078 85.026 262.549 84.766C262.029 84.506 261.617 84.1247 261.314 83.622C261.011 83.1193 260.859 82.517 260.859 81.815C260.859 81.1217 261.011 80.528 261.314 80.034C261.626 79.54 262.029 79.1587 262.523 78.89C263.017 78.6213 263.546 78.487 264.109 78.487C264.733 78.487 265.262 78.617 265.695 78.877C266.128 79.1283 266.458 79.4793 266.683 79.93C266.917 80.372 267.034 80.892 267.034 81.49C267.034 81.62 267.03 81.75 267.021 81.88C267.012 82.0013 266.999 82.1053 266.982 82.192H261.756V81.243H266.176L265.89 81.555C265.89 80.8703 265.734 80.359 265.422 80.021C265.11 79.6743 264.685 79.501 264.148 79.501C263.775 79.501 263.433 79.592 263.121 79.774C262.818 79.9473 262.575 80.2073 262.393 80.554C262.211 80.892 262.12 81.3123 262.12 81.815C262.12 82.335 262.22 82.7683 262.419 83.115C262.627 83.453 262.904 83.7087 263.251 83.882C263.606 84.0553 264.014 84.142 264.473 84.142C264.828 84.142 265.153 84.0943 265.448 83.999C265.743 83.895 266.033 83.7563 266.319 83.583L266.774 84.402C266.453 84.6187 266.085 84.8007 265.669 84.948C265.253 85.0867 264.798 85.156 264.304 85.156ZM273.087 85.156C272.385 85.156 271.848 84.9523 271.475 84.545C271.102 84.129 270.916 83.5397 270.916 82.777V76.823H268.797V75.783H272.203V82.855C272.203 83.297 272.316 83.6177 272.541 83.817C272.766 84.0077 273.048 84.103 273.386 84.103C273.559 84.103 273.737 84.0813 273.919 84.038C274.11 83.9947 274.318 83.9253 274.543 83.83L274.855 84.792C274.552 84.896 274.27 84.9827 274.01 85.052C273.759 85.1213 273.451 85.156 273.087 85.156ZM280.921 85.156C280.219 85.156 279.682 84.9523 279.309 84.545C278.936 84.129 278.75 83.5397 278.75 82.777V76.823H276.631V75.783H280.037V82.855C280.037 83.297 280.15 83.6177 280.375 83.817C280.6 84.0077 280.882 84.103 281.22 84.103C281.393 84.103 281.571 84.0813 281.753 84.038C281.944 83.9947 282.152 83.9253 282.377 83.83L282.689 84.792C282.386 84.896 282.104 84.9827 281.844 85.052C281.593 85.1213 281.285 85.156 280.921 85.156ZM287.416 85.156C286.861 85.156 286.341 85.026 285.856 84.766C285.379 84.506 284.989 84.129 284.686 83.635C284.391 83.1323 284.244 82.53 284.244 81.828C284.244 81.126 284.391 80.528 284.686 80.034C284.989 79.5313 285.379 79.15 285.856 78.89C286.341 78.6213 286.861 78.487 287.416 78.487C287.971 78.487 288.486 78.6213 288.963 78.89C289.448 79.15 289.838 79.5313 290.133 80.034C290.436 80.528 290.588 81.126 290.588 81.828C290.588 82.53 290.436 83.1323 290.133 83.635C289.838 84.129 289.448 84.506 288.963 84.766C288.486 85.026 287.971 85.156 287.416 85.156ZM287.416 84.103C287.789 84.103 288.114 84.0077 288.391 83.817C288.668 83.6263 288.881 83.362 289.028 83.024C289.184 82.686 289.262 82.2873 289.262 81.828C289.262 81.3773 289.184 80.983 289.028 80.645C288.881 80.2983 288.668 80.0297 288.391 79.839C288.114 79.6483 287.789 79.553 287.416 79.553C287.043 79.553 286.718 79.6483 286.441 79.839C286.164 80.0297 285.947 80.2983 285.791 80.645C285.644 80.983 285.57 81.3773 285.57 81.828C285.57 82.2873 285.644 82.686 285.791 83.024C285.947 83.362 286.164 83.6263 286.441 83.817C286.718 84.0077 287.043 84.103 287.416 84.103ZM292.715 85L291.467 76.472H292.884L293.404 81.607C293.43 81.8497 293.451 82.075 293.469 82.283C293.486 82.4823 293.499 82.686 293.508 82.894C293.525 83.102 293.538 83.3447 293.547 83.622H293.586C293.638 83.3447 293.685 83.102 293.729 82.894C293.772 82.686 293.815 82.4823 293.859 82.283C293.902 82.075 293.95 81.854 294.002 81.62L294.769 78.656H295.861L296.589 81.62C296.649 81.854 296.701 82.0707 296.745 82.27C296.788 82.4693 296.831 82.6773 296.875 82.894C296.918 83.102 296.961 83.3447 297.005 83.622H297.057C297.074 83.3447 297.087 83.102 297.096 82.894C297.104 82.6773 297.117 82.4693 297.135 82.27C297.152 82.0707 297.169 81.854 297.187 81.62L297.694 76.472H299.046L297.85 85H296.316L295.562 81.776C295.51 81.516 295.458 81.256 295.406 80.996C295.354 80.736 295.31 80.476 295.276 80.216H295.237C295.202 80.476 295.163 80.736 295.12 80.996C295.076 81.256 295.02 81.516 294.951 81.776L294.21 85H292.715ZM303.084 85.156C302.529 85.156 302.009 85.026 301.524 84.766C301.047 84.506 300.657 84.129 300.354 83.635C300.059 83.1323 299.912 82.53 299.912 81.828C299.912 81.126 300.059 80.528 300.354 80.034C300.657 79.5313 301.047 79.15 301.524 78.89C302.009 78.6213 302.529 78.487 303.084 78.487C303.638 78.487 304.154 78.6213 304.631 78.89C305.116 79.15 305.506 79.5313 305.801 80.034C306.104 80.528 306.256 81.126 306.256 81.828C306.256 82.53 306.104 83.1323 305.801 83.635C305.506 84.129 305.116 84.506 304.631 84.766C304.154 85.026 303.638 85.156 303.084 85.156ZM303.084 84.103C303.456 84.103 303.781 84.0077 304.059 83.817C304.336 83.6263 304.548 83.362 304.696 83.024C304.852 82.686 304.93 82.2873 304.93 81.828C304.93 81.3773 304.852 80.983 304.696 80.645C304.548 80.2983 304.336 80.0297 304.059 79.839C303.781 79.6483 303.456 79.553 303.084 79.553C302.711 79.553 302.386 79.6483 302.109 79.839C301.831 80.0297 301.615 80.2983 301.459 80.645C301.311 80.983 301.238 81.3773 301.238 81.828C301.238 82.2873 301.311 82.686 301.459 83.024C301.615 83.362 301.831 83.6263 302.109 83.817C302.386 84.0077 302.711 84.103 303.084 84.103ZM308.812 85V78.643H309.878L309.982 80.125H310.021C310.35 79.605 310.753 79.202 311.23 78.916C311.706 78.63 312.226 78.487 312.79 78.487C313.032 78.487 313.253 78.5087 313.453 78.552C313.652 78.5953 313.847 78.6603 314.038 78.747L313.752 79.852C313.535 79.774 313.349 79.722 313.193 79.696C313.037 79.6613 312.837 79.644 312.595 79.644C312.135 79.644 311.693 79.774 311.269 80.034C310.844 80.294 310.454 80.7447 310.099 81.386V85H308.812ZM320.091 85.156C319.389 85.156 318.851 84.9523 318.479 84.545C318.106 84.129 317.92 83.5397 317.92 82.777V76.823H315.801V75.783H319.207V82.855C319.207 83.297 319.319 83.6177 319.545 83.817C319.77 84.0077 320.052 84.103 320.39 84.103C320.563 84.103 320.741 84.0813 320.923 84.038C321.113 83.9947 321.321 83.9253 321.547 83.83L321.859 84.792C321.555 84.896 321.274 84.9827 321.014 85.052C320.762 85.1213 320.455 85.156 320.091 85.156ZM326.157 85.156C325.333 85.156 324.67 84.8657 324.168 84.285C323.665 83.6957 323.414 82.8767 323.414 81.828C323.414 81.1433 323.548 80.554 323.817 80.06C324.094 79.5573 324.449 79.1717 324.883 78.903C325.316 78.6257 325.775 78.487 326.261 78.487C326.633 78.487 326.967 78.5563 327.262 78.695C327.556 78.8337 327.829 79.0287 328.081 79.28H328.12L328.055 78.149V75.783H329.342V85H328.289L328.185 84.22H328.146C327.894 84.4713 327.595 84.6923 327.249 84.883C326.902 85.065 326.538 85.156 326.157 85.156ZM326.456 84.09C326.742 84.09 327.015 84.0207 327.275 83.882C327.543 83.7347 327.803 83.518 328.055 83.232V80.216C327.803 79.982 327.552 79.8173 327.301 79.722C327.049 79.618 326.798 79.566 326.547 79.566C326.217 79.566 325.914 79.657 325.637 79.839C325.368 80.021 325.151 80.281 324.987 80.619C324.822 80.957 324.74 81.3557 324.74 81.815C324.74 82.543 324.891 83.1063 325.195 83.505C325.498 83.895 325.918 84.09 326.456 84.09ZM334.419 85.156C334.09 85.156 333.813 85.0433 333.587 84.818C333.362 84.5927 333.249 84.3023 333.249 83.947C333.249 83.5917 333.362 83.3013 333.587 83.076C333.813 82.8507 334.09 82.738 334.419 82.738C334.757 82.738 335.035 82.8507 335.251 83.076C335.477 83.3013 335.589 83.5917 335.589 83.947C335.589 84.3023 335.477 84.5927 335.251 84.818C335.035 85.0433 334.757 85.156 334.419 85.156ZM342.838 85.156C342.18 85.156 341.586 85.026 341.057 84.766C340.529 84.506 340.108 84.129 339.796 83.635C339.493 83.1323 339.341 82.53 339.341 81.828C339.341 81.126 339.506 80.528 339.835 80.034C340.165 79.5313 340.598 79.15 341.135 78.89C341.681 78.6213 342.275 78.487 342.916 78.487C343.436 78.487 343.891 78.578 344.281 78.76C344.671 78.9333 344.996 79.1457 345.256 79.397L344.632 80.216C344.372 80.008 344.108 79.8477 343.839 79.735C343.579 79.6137 343.293 79.553 342.981 79.553C342.531 79.553 342.128 79.6483 341.772 79.839C341.426 80.0297 341.153 80.2983 340.953 80.645C340.763 80.983 340.667 81.3773 340.667 81.828C340.667 82.2873 340.763 82.686 340.953 83.024C341.144 83.362 341.408 83.6263 341.746 83.817C342.093 84.0077 342.492 84.103 342.942 84.103C343.324 84.103 343.67 84.0293 343.982 83.882C344.294 83.7347 344.576 83.557 344.827 83.349L345.386 84.181C345.031 84.493 344.632 84.7357 344.19 84.909C343.757 85.0737 343.306 85.156 342.838 85.156Z" fill="white"/>
<path d="M202.374 81.711C202.122 81.711 201.893 81.659 201.685 81.555C201.477 81.4423 201.286 81.3167 201.113 81.178C200.939 81.0393 200.77 80.918 200.606 80.814C200.441 80.7013 200.268 80.645 200.086 80.645C199.956 80.645 199.83 80.6797 199.709 80.749C199.587 80.8183 199.47 80.9353 199.358 81.1C199.254 81.256 199.154 81.4727 199.059 81.75L198.253 81.399C198.495 80.7663 198.777 80.3287 199.098 80.086C199.427 79.8347 199.765 79.709 200.112 79.709C200.372 79.709 200.601 79.7653 200.801 79.878C201.009 79.982 201.199 80.1033 201.373 80.242C201.546 80.3807 201.715 80.5063 201.88 80.619C202.044 80.723 202.218 80.775 202.4 80.775C202.538 80.775 202.664 80.7447 202.777 80.684C202.898 80.6147 203.011 80.502 203.115 80.346C203.227 80.1813 203.331 79.956 203.427 79.67L204.233 80.034C203.999 80.658 203.717 81.0957 203.388 81.347C203.067 81.5897 202.729 81.711 202.374 81.711Z" fill="#AECBFA"/>
<path d="M76.29 201.156C75.6487 201.156 75.0637 201.026 74.535 200.766C74.015 200.506 73.6033 200.125 73.3 199.622C72.9967 199.119 72.845 198.517 72.845 197.815C72.845 197.122 72.9967 196.528 73.3 196.034C73.612 195.54 74.015 195.159 74.509 194.89C75.003 194.621 75.5317 194.487 76.095 194.487C76.719 194.487 77.2477 194.617 77.681 194.877C78.1143 195.128 78.4437 195.479 78.669 195.93C78.903 196.372 79.02 196.892 79.02 197.49C79.02 197.62 79.0157 197.75 79.007 197.88C78.9983 198.001 78.9853 198.105 78.968 198.192H73.742V197.243H78.162L77.876 197.555C77.876 196.87 77.72 196.359 77.408 196.021C77.096 195.674 76.6713 195.501 76.134 195.501C75.7613 195.501 75.419 195.592 75.107 195.774C74.8037 195.947 74.561 196.207 74.379 196.554C74.197 196.892 74.106 197.312 74.106 197.815C74.106 198.335 74.2057 198.768 74.405 199.115C74.613 199.453 74.8903 199.709 75.237 199.882C75.5923 200.055 75.9997 200.142 76.459 200.142C76.8143 200.142 77.1393 200.094 77.434 199.999C77.7287 199.895 78.019 199.756 78.305 199.583L78.76 200.402C78.4393 200.619 78.071 200.801 77.655 200.948C77.239 201.087 76.784 201.156 76.29 201.156ZM80.5749 201L82.9409 197.698L80.7439 194.643H82.1479L83.0709 195.943C83.1836 196.116 83.3006 196.298 83.4219 196.489C83.5519 196.671 83.6733 196.849 83.7859 197.022H83.8379C83.9506 196.849 84.0633 196.667 84.1759 196.476C84.2973 196.285 84.4099 196.103 84.5139 195.93L85.3589 194.643H86.7239L84.5139 197.828L86.8799 201H85.4759L84.4619 199.648C84.3406 199.466 84.2106 199.275 84.0719 199.076C83.9333 198.877 83.7946 198.686 83.6559 198.504H83.6039C83.4826 198.695 83.3613 198.885 83.2399 199.076C83.1186 199.258 82.9973 199.449 82.8759 199.648L81.9399 201H80.5749ZM90.8008 201.156C90.3935 201.156 90.0252 201.082 89.6958 200.935C89.3752 200.779 89.1195 200.567 88.9288 200.298C88.7468 200.021 88.6558 199.696 88.6558 199.323C88.6558 198.612 89.0025 198.071 89.6958 197.698C90.3978 197.325 91.5462 197.078 93.1408 196.957C93.1322 196.697 93.0715 196.459 92.9588 196.242C92.8548 196.025 92.6858 195.856 92.4518 195.735C92.2265 195.605 91.9275 195.54 91.5548 195.54C91.2948 195.54 91.0392 195.575 90.7878 195.644C90.5365 195.705 90.2938 195.791 90.0598 195.904C89.8258 196.017 89.6048 196.134 89.3968 196.255L88.9158 195.384C89.1498 195.245 89.4185 195.107 89.7218 194.968C90.0252 194.821 90.3502 194.704 90.6968 194.617C91.0522 194.53 91.4118 194.487 91.7758 194.487C92.3652 194.487 92.8548 194.595 93.2448 194.812C93.6348 195.029 93.9295 195.336 94.1288 195.735C94.3282 196.134 94.4278 196.615 94.4278 197.178V201H93.3748L93.2708 200.181H93.2318C92.8938 200.441 92.5125 200.671 92.0878 200.87C91.6632 201.061 91.2342 201.156 90.8008 201.156ZM91.1648 200.129C91.5028 200.129 91.8365 200.055 92.1658 199.908C92.4952 199.761 92.8202 199.553 93.1408 199.284V197.776C92.3088 197.837 91.6545 197.932 91.1778 198.062C90.7098 198.192 90.3805 198.357 90.1898 198.556C89.9992 198.747 89.9038 198.972 89.9038 199.232C89.9038 199.44 89.9602 199.613 90.0728 199.752C90.1942 199.882 90.3502 199.977 90.5408 200.038C90.7315 200.099 90.9395 200.129 91.1648 200.129ZM96.1778 201V194.643H97.1918L97.2958 195.475H97.3218C97.4778 195.189 97.6641 194.955 97.8808 194.773C98.0974 194.582 98.3878 194.487 98.7518 194.487C99.0551 194.487 99.3064 194.578 99.5058 194.76C99.7051 194.942 99.8438 195.215 99.9218 195.579C100.095 195.25 100.29 194.985 100.507 194.786C100.732 194.587 101.027 194.487 101.391 194.487C101.841 194.487 102.188 194.66 102.431 195.007C102.682 195.354 102.808 195.843 102.808 196.476V201H101.547V196.567C101.547 195.917 101.352 195.592 100.962 195.592C100.771 195.592 100.611 195.666 100.481 195.813C100.351 195.96 100.208 196.181 100.052 196.476V201H98.9338V196.567C98.9338 196.246 98.8861 196.004 98.7908 195.839C98.7041 195.674 98.5611 195.592 98.3618 195.592C98.1711 195.592 98.0021 195.666 97.8548 195.813C97.7161 195.96 97.5774 196.181 97.4388 196.476V201H96.1778ZM104.48 203.6V194.643H105.533L105.637 195.423H105.676C105.962 195.154 106.291 194.933 106.664 194.76C107.036 194.578 107.413 194.487 107.795 194.487C108.358 194.487 108.83 194.621 109.212 194.89C109.602 195.159 109.896 195.536 110.096 196.021C110.304 196.506 110.408 197.074 110.408 197.724C110.408 198.452 110.273 199.072 110.005 199.583C109.736 200.094 109.385 200.484 108.952 200.753C108.518 201.022 108.05 201.156 107.548 201.156C107.262 201.156 106.954 201.087 106.625 200.948C106.304 200.809 106.009 200.619 105.741 200.376H105.702L105.767 201.52V203.6H104.48ZM107.301 200.09C107.639 200.09 107.942 199.999 108.211 199.817C108.479 199.635 108.692 199.371 108.848 199.024C109.004 198.669 109.082 198.24 109.082 197.737C109.082 197.295 109.021 196.914 108.9 196.593C108.787 196.264 108.614 196.012 108.38 195.839C108.146 195.657 107.834 195.566 107.444 195.566C107.184 195.566 106.911 195.635 106.625 195.774C106.339 195.904 106.053 196.121 105.767 196.424V199.427C106.035 199.661 106.308 199.83 106.586 199.934C106.863 200.038 107.101 200.09 107.301 200.09ZM116.409 201.156C115.707 201.156 115.169 200.952 114.797 200.545C114.424 200.129 114.238 199.54 114.238 198.777V192.823H112.119V191.783H115.525V198.855C115.525 199.297 115.637 199.618 115.863 199.817C116.088 200.008 116.37 200.103 116.708 200.103C116.881 200.103 117.059 200.081 117.241 200.038C117.431 199.995 117.639 199.925 117.865 199.83L118.177 200.792C117.873 200.896 117.592 200.983 117.332 201.052C117.08 201.121 116.773 201.156 116.409 201.156ZM123.294 201.156C122.652 201.156 122.067 201.026 121.539 200.766C121.019 200.506 120.607 200.125 120.304 199.622C120 199.119 119.849 198.517 119.849 197.815C119.849 197.122 120 196.528 120.304 196.034C120.616 195.54 121.019 195.159 121.513 194.89C122.007 194.621 122.535 194.487 123.099 194.487C123.723 194.487 124.251 194.617 124.685 194.877C125.118 195.128 125.447 195.479 125.673 195.93C125.907 196.372 126.024 196.892 126.024 197.49C126.024 197.62 126.019 197.75 126.011 197.88C126.002 198.001 125.989 198.105 125.972 198.192H120.746V197.243H125.166L124.88 197.555C124.88 196.87 124.724 196.359 124.412 196.021C124.1 195.674 123.675 195.501 123.138 195.501C122.765 195.501 122.423 195.592 122.111 195.774C121.807 195.947 121.565 196.207 121.383 196.554C121.201 196.892 121.11 197.312 121.11 197.815C121.11 198.335 121.209 198.768 121.409 199.115C121.617 199.453 121.894 199.709 122.241 199.882C122.596 200.055 123.003 200.142 123.463 200.142C123.818 200.142 124.143 200.094 124.438 199.999C124.732 199.895 125.023 199.756 125.309 199.583L125.764 200.402C125.443 200.619 125.075 200.801 124.659 200.948C124.243 201.087 123.788 201.156 123.294 201.156ZM131.257 202.885C130.746 202.885 130.256 202.777 129.788 202.56C129.329 202.343 128.922 202.018 128.566 201.585C128.211 201.152 127.929 200.614 127.721 199.973C127.522 199.332 127.422 198.586 127.422 197.737C127.422 196.61 127.591 195.679 127.929 194.942C128.276 194.197 128.74 193.638 129.32 193.265C129.901 192.892 130.547 192.706 131.257 192.706C131.873 192.706 132.375 192.845 132.765 193.122C133.164 193.399 133.459 193.772 133.649 194.24C133.849 194.708 133.948 195.237 133.948 195.826V199.7H133.207L133.103 198.972H133.051C132.869 199.206 132.627 199.414 132.323 199.596C132.029 199.769 131.712 199.856 131.374 199.856C131.071 199.856 130.789 199.787 130.529 199.648C130.278 199.501 130.074 199.297 129.918 199.037C129.771 198.768 129.697 198.461 129.697 198.114C129.697 197.672 129.827 197.304 130.087 197.009C130.356 196.706 130.742 196.467 131.244 196.294C131.756 196.112 132.371 195.978 133.09 195.891V195.709C133.09 195.319 133.021 194.959 132.882 194.63C132.752 194.301 132.549 194.036 132.271 193.837C132.003 193.638 131.647 193.538 131.205 193.538C130.841 193.538 130.486 193.625 130.139 193.798C129.801 193.971 129.498 194.236 129.229 194.591C128.961 194.938 128.748 195.375 128.592 195.904C128.436 196.433 128.358 197.057 128.358 197.776C128.358 198.703 128.488 199.488 128.748 200.129C129.017 200.762 129.372 201.238 129.814 201.559C130.265 201.888 130.759 202.053 131.296 202.053C131.686 202.053 132.02 202.001 132.297 201.897C132.583 201.802 132.852 201.667 133.103 201.494L133.519 202.17C133.173 202.395 132.817 202.569 132.453 202.69C132.098 202.82 131.699 202.885 131.257 202.885ZM131.647 198.972C131.873 198.972 132.094 198.907 132.31 198.777C132.536 198.647 132.757 198.465 132.973 198.231V196.71C132.15 196.831 131.565 197 131.218 197.217C130.872 197.425 130.698 197.715 130.698 198.088C130.698 198.365 130.785 198.582 130.958 198.738C131.132 198.894 131.361 198.972 131.647 198.972ZM135.815 203.6V194.643H136.868L136.972 195.423H137.011C137.297 195.154 137.627 194.933 137.999 194.76C138.372 194.578 138.749 194.487 139.13 194.487C139.694 194.487 140.166 194.621 140.547 194.89C140.937 195.159 141.232 195.536 141.431 196.021C141.639 196.506 141.743 197.074 141.743 197.724C141.743 198.452 141.609 199.072 141.34 199.583C141.072 200.094 140.721 200.484 140.287 200.753C139.854 201.022 139.386 201.156 138.883 201.156C138.597 201.156 138.29 201.087 137.96 200.948C137.64 200.809 137.345 200.619 137.076 200.376H137.037L137.102 201.52V203.6H135.815ZM138.636 200.09C138.974 200.09 139.278 199.999 139.546 199.817C139.815 199.635 140.027 199.371 140.183 199.024C140.339 198.669 140.417 198.24 140.417 197.737C140.417 197.295 140.357 196.914 140.235 196.593C140.123 196.264 139.949 196.012 139.715 195.839C139.481 195.657 139.169 195.566 138.779 195.566C138.519 195.566 138.246 195.635 137.96 195.774C137.674 195.904 137.388 196.121 137.102 196.424V199.427C137.371 199.661 137.644 199.83 137.921 199.934C138.199 200.038 138.437 200.09 138.636 200.09ZM146.795 201.156C146.154 201.156 145.569 201.026 145.04 200.766C144.52 200.506 144.109 200.125 143.805 199.622C143.502 199.119 143.35 198.517 143.35 197.815C143.35 197.122 143.502 196.528 143.805 196.034C144.117 195.54 144.52 195.159 145.014 194.89C145.508 194.621 146.037 194.487 146.6 194.487C147.224 194.487 147.753 194.617 148.186 194.877C148.62 195.128 148.949 195.479 149.174 195.93C149.408 196.372 149.525 196.892 149.525 197.49C149.525 197.62 149.521 197.75 149.512 197.88C149.504 198.001 149.491 198.105 149.473 198.192H144.247V197.243H148.667L148.381 197.555C148.381 196.87 148.225 196.359 147.913 196.021C147.601 195.674 147.177 195.501 146.639 195.501C146.267 195.501 145.924 195.592 145.612 195.774C145.309 195.947 145.066 196.207 144.884 196.554C144.702 196.892 144.611 197.312 144.611 197.815C144.611 198.335 144.711 198.768 144.91 199.115C145.118 199.453 145.396 199.709 145.742 199.882C146.098 200.055 146.505 200.142 146.964 200.142C147.32 200.142 147.645 200.094 147.939 199.999C148.234 199.895 148.524 199.756 148.81 199.583L149.265 200.402C148.945 200.619 148.576 200.801 148.16 200.948C147.744 201.087 147.289 201.156 146.795 201.156ZM151.483 201V194.643H152.536L152.64 195.67H152.692C153.013 195.341 153.36 195.063 153.732 194.838C154.105 194.604 154.538 194.487 155.032 194.487C155.769 194.487 156.311 194.712 156.657 195.163C157.013 195.605 157.19 196.238 157.19 197.061V201H155.903V197.23C155.903 196.675 155.799 196.268 155.591 196.008C155.392 195.739 155.054 195.605 154.577 195.605C154.239 195.605 153.936 195.692 153.667 195.865C153.399 196.03 153.1 196.281 152.77 196.619V201H151.483ZM161.956 203.873C161.358 203.873 160.838 203.804 160.396 203.665C159.963 203.535 159.629 203.34 159.395 203.08C159.161 202.829 159.044 202.517 159.044 202.144C159.044 201.884 159.131 201.633 159.304 201.39C159.477 201.156 159.733 200.948 160.071 200.766V200.714C159.906 200.61 159.755 200.476 159.616 200.311C159.486 200.146 159.421 199.93 159.421 199.661C159.421 199.453 159.486 199.245 159.616 199.037C159.755 198.82 159.941 198.63 160.175 198.465V198.413C159.958 198.248 159.772 198.027 159.616 197.75C159.46 197.473 159.382 197.148 159.382 196.775C159.382 196.298 159.499 195.891 159.733 195.553C159.976 195.215 160.288 194.955 160.669 194.773C161.059 194.582 161.484 194.487 161.943 194.487C162.307 194.487 162.628 194.539 162.905 194.643H165.518V195.657H163.971C164.101 195.796 164.209 195.969 164.296 196.177C164.391 196.376 164.439 196.589 164.439 196.814C164.439 197.282 164.326 197.676 164.101 197.997C163.884 198.318 163.585 198.565 163.204 198.738C162.831 198.903 162.411 198.985 161.943 198.985C161.787 198.985 161.618 198.968 161.436 198.933C161.263 198.898 161.089 198.846 160.916 198.777C160.777 198.872 160.669 198.972 160.591 199.076C160.513 199.18 160.474 199.301 160.474 199.44C160.474 199.665 160.582 199.834 160.799 199.947C161.016 200.051 161.328 200.103 161.735 200.103H163.087C163.91 200.103 164.526 200.22 164.933 200.454C165.349 200.688 165.557 201.078 165.557 201.624C165.557 202.031 165.41 202.404 165.115 202.742C164.82 203.089 164.404 203.362 163.867 203.561C163.33 203.769 162.693 203.873 161.956 203.873ZM161.943 198.153C162.186 198.153 162.407 198.101 162.606 197.997C162.805 197.884 162.966 197.724 163.087 197.516C163.208 197.308 163.269 197.061 163.269 196.775C163.269 196.498 163.208 196.259 163.087 196.06C162.966 195.852 162.805 195.692 162.606 195.579C162.407 195.458 162.186 195.397 161.943 195.397C161.7 195.397 161.475 195.458 161.267 195.579C161.068 195.692 160.907 195.852 160.786 196.06C160.665 196.259 160.604 196.498 160.604 196.775C160.604 197.061 160.665 197.308 160.786 197.516C160.907 197.724 161.068 197.884 161.267 197.997C161.475 198.101 161.7 198.153 161.943 198.153ZM162.086 202.976C162.545 202.976 162.94 202.92 163.269 202.807C163.598 202.703 163.85 202.564 164.023 202.391C164.205 202.226 164.296 202.044 164.296 201.845C164.296 201.559 164.183 201.368 163.958 201.273C163.733 201.186 163.395 201.143 162.944 201.143H161.813C161.614 201.143 161.436 201.134 161.28 201.117C161.124 201.1 160.981 201.074 160.851 201.039C160.582 201.186 160.392 201.338 160.279 201.494C160.175 201.659 160.123 201.823 160.123 201.988C160.123 202.291 160.292 202.53 160.63 202.703C160.968 202.885 161.453 202.976 162.086 202.976ZM169.127 201.156C168.382 201.156 167.831 200.935 167.476 200.493C167.129 200.051 166.956 199.414 166.956 198.582V194.643H168.243V198.413C168.243 198.976 168.343 199.392 168.542 199.661C168.75 199.921 169.092 200.051 169.569 200.051C169.907 200.051 170.21 199.969 170.479 199.804C170.748 199.639 171.038 199.371 171.35 198.998V194.643H172.637V201H171.584L171.48 199.947H171.428C171.116 200.302 170.774 200.593 170.401 200.818C170.037 201.043 169.612 201.156 169.127 201.156ZM177.819 201V195.683H174.972V194.643H179.106V201H177.819ZM178.352 193.408C178.075 193.408 177.845 193.326 177.663 193.161C177.481 192.988 177.39 192.762 177.39 192.485C177.39 192.208 177.481 191.987 177.663 191.822C177.845 191.649 178.075 191.562 178.352 191.562C178.629 191.562 178.859 191.649 179.041 191.822C179.223 191.987 179.314 192.208 179.314 192.485C179.314 192.762 179.223 192.988 179.041 193.161C178.859 193.326 178.629 193.408 178.352 193.408ZM182.819 201V194.643H183.872L183.976 195.67H184.028C184.349 195.341 184.695 195.063 185.068 194.838C185.441 194.604 185.874 194.487 186.368 194.487C187.105 194.487 187.646 194.712 187.993 195.163C188.348 195.605 188.526 196.238 188.526 197.061V201H187.239V197.23C187.239 196.675 187.135 196.268 186.927 196.008C186.728 195.739 186.39 195.605 185.913 195.605C185.575 195.605 185.272 195.692 185.003 195.865C184.734 196.03 184.435 196.281 184.106 196.619V201H182.819Z" fill="#87FFC5"/>
<path d="M193.409 196.619C193.079 196.619 192.802 196.506 192.577 196.281C192.351 196.056 192.239 195.765 192.239 195.41C192.239 195.055 192.351 194.764 192.577 194.539C192.802 194.314 193.079 194.201 193.409 194.201C193.747 194.201 194.024 194.314 194.241 194.539C194.466 194.764 194.579 195.055 194.579 195.41C194.579 195.765 194.466 196.056 194.241 196.281C194.024 196.506 193.747 196.619 193.409 196.619ZM193.409 201.156C193.079 201.156 192.802 201.043 192.577 200.818C192.351 200.593 192.239 200.302 192.239 199.947C192.239 199.592 192.351 199.301 192.577 199.076C192.802 198.851 193.079 198.738 193.409 198.738C193.747 198.738 194.024 198.851 194.241 199.076C194.466 199.301 194.579 199.592 194.579 199.947C194.579 200.302 194.466 200.593 194.241 200.818C194.024 201.043 193.747 201.156 193.409 201.156ZM206.217 199.518L206.802 198.634C207.148 198.877 207.517 199.085 207.907 199.258C208.305 199.423 208.739 199.505 209.207 199.505C209.666 199.505 210.013 199.414 210.247 199.232C210.489 199.041 210.611 198.799 210.611 198.504C210.611 198.261 210.511 198.058 210.312 197.893C210.121 197.728 209.874 197.581 209.571 197.451C209.267 197.321 208.942 197.191 208.596 197.061C208.249 196.931 207.924 196.779 207.621 196.606C207.317 196.433 207.066 196.216 206.867 195.956C206.676 195.696 206.581 195.38 206.581 195.007C206.581 194.591 206.689 194.231 206.906 193.928C207.131 193.616 207.443 193.378 207.842 193.213C208.24 193.048 208.695 192.966 209.207 192.966C209.787 192.966 210.268 193.066 210.65 193.265C211.031 193.456 211.369 193.698 211.664 193.993L211.001 194.747C210.706 194.513 210.42 194.335 210.143 194.214C209.874 194.084 209.532 194.019 209.116 194.019C208.717 194.019 208.401 194.106 208.167 194.279C207.941 194.452 207.829 194.686 207.829 194.981C207.829 195.189 207.924 195.371 208.115 195.527C208.314 195.674 208.565 195.809 208.869 195.93C209.181 196.043 209.506 196.164 209.844 196.294C210.19 196.424 210.515 196.58 210.819 196.762C211.131 196.935 211.382 197.156 211.573 197.425C211.772 197.685 211.872 198.014 211.872 198.413C211.872 198.838 211.755 199.21 211.521 199.531C211.287 199.852 210.957 200.103 210.533 200.285C210.108 200.467 209.61 200.558 209.038 200.558C208.7 200.558 208.353 200.515 207.998 200.428C207.651 200.333 207.326 200.207 207.023 200.051C206.719 199.895 206.451 199.717 206.217 199.518ZM208.7 193.421V191.289H209.597V193.421H208.7ZM208.7 200.077H209.597V202.43H208.7V200.077Z" fill="white"/>
<path d="M202.374 197.711C202.122 197.711 201.893 197.659 201.685 197.555C201.477 197.442 201.286 197.317 201.113 197.178C200.939 197.039 200.77 196.918 200.606 196.814C200.441 196.701 200.268 196.645 200.086 196.645C199.956 196.645 199.83 196.68 199.709 196.749C199.587 196.818 199.47 196.935 199.358 197.1C199.254 197.256 199.154 197.473 199.059 197.75L198.253 197.399C198.495 196.766 198.777 196.329 199.098 196.086C199.427 195.835 199.765 195.709 200.112 195.709C200.372 195.709 200.601 195.765 200.801 195.878C201.009 195.982 201.199 196.103 201.373 196.242C201.546 196.381 201.715 196.506 201.88 196.619C202.044 196.723 202.218 196.775 202.4 196.775C202.538 196.775 202.664 196.745 202.777 196.684C202.898 196.615 203.011 196.502 203.115 196.346C203.227 196.181 203.331 195.956 203.427 195.67L204.233 196.034C203.999 196.658 203.717 197.096 203.388 197.347C203.067 197.59 202.729 197.711 202.374 197.711Z" fill="#AECBFA"/>
<path d="M76.212 103L77.252 94.55H78.045L77.018 103H76.212ZM73.781 103L74.821 94.55H75.614L74.587 103H73.781ZM73.339 97.735V96.877H78.799V97.735H73.339ZM73.079 100.4V99.542H78.539V100.4H73.079ZM83.8119 103V97.683H80.9649V96.643H85.0989V103H83.8119ZM84.3449 95.408C84.0676 95.408 83.8379 95.3257 83.6559 95.161C83.4739 94.9877 83.3829 94.7623 83.3829 94.485C83.3829 94.2077 83.4739 93.9867 83.6559 93.822C83.8379 93.6487 84.0676 93.562 84.3449 93.562C84.6223 93.562 84.8519 93.6487 85.0339 93.822C85.2159 93.9867 85.3069 94.2077 85.3069 94.485C85.3069 94.7623 85.2159 94.9877 85.0339 95.161C84.8519 95.3257 84.6223 95.408 84.3449 95.408ZM88.8118 103V96.643H89.8648L89.9688 97.67H90.0208C90.3415 97.3407 90.6882 97.0633 91.0608 96.838C91.4335 96.604 91.8668 96.487 92.3608 96.487C93.0975 96.487 93.6392 96.7123 93.9858 97.163C94.3412 97.605 94.5188 98.2377 94.5188 99.061V103H93.2318V99.23C93.2318 98.6753 93.1278 98.268 92.9198 98.008C92.7205 97.7393 92.3825 97.605 91.9058 97.605C91.5678 97.605 91.2645 97.6917 90.9958 97.865C90.7272 98.0297 90.4282 98.281 90.0988 98.619V103H88.8118ZM99.9868 103.156C99.3281 103.156 98.7344 103.026 98.2058 102.766C97.6771 102.506 97.2568 102.129 96.9448 101.635C96.6414 101.132 96.4898 100.53 96.4898 99.828C96.4898 99.126 96.6544 98.528 96.9838 98.034C97.3131 97.5313 97.7464 97.15 98.2838 96.89C98.8298 96.6213 99.4234 96.487 100.065 96.487C100.585 96.487 101.04 96.578 101.43 96.76C101.82 96.9333 102.145 97.1457 102.405 97.397L101.781 98.216C101.521 98.008 101.256 97.8477 100.988 97.735C100.728 97.6137 100.442 97.553 100.13 97.553C99.6791 97.553 99.2761 97.6483 98.9208 97.839C98.5741 98.0297 98.3011 98.2983 98.1018 98.645C97.9111 98.983 97.8158 99.3773 97.8158 99.828C97.8158 100.287 97.9111 100.686 98.1018 101.024C98.2924 101.362 98.5568 101.626 98.8948 101.817C99.2414 102.008 99.6401 102.103 100.091 102.103C100.472 102.103 100.819 102.029 101.131 101.882C101.443 101.735 101.724 101.557 101.976 101.349L102.535 102.181C102.179 102.493 101.781 102.736 101.339 102.909C100.905 103.074 100.455 103.156 99.9868 103.156ZM108.575 103.156C107.873 103.156 107.335 102.952 106.963 102.545C106.59 102.129 106.404 101.54 106.404 100.777V94.823H104.285V93.783H107.691V100.855C107.691 101.297 107.803 101.618 108.029 101.817C108.254 102.008 108.536 102.103 108.874 102.103C109.047 102.103 109.225 102.081 109.407 102.038C109.597 101.995 109.805 101.925 110.031 101.83L110.343 102.792C110.039 102.896 109.758 102.983 109.498 103.052C109.246 103.121 108.939 103.156 108.575 103.156ZM114.29 103.156C113.544 103.156 112.994 102.935 112.639 102.493C112.292 102.051 112.119 101.414 112.119 100.582V96.643H113.406V100.413C113.406 100.976 113.505 101.392 113.705 101.661C113.913 101.921 114.255 102.051 114.732 102.051C115.07 102.051 115.373 101.969 115.642 101.804C115.91 101.639 116.201 101.371 116.513 100.998V96.643H117.8V103H116.747L116.643 101.947H116.591C116.279 102.302 115.936 102.593 115.564 102.818C115.2 103.043 114.775 103.156 114.29 103.156ZM122.475 103.156C121.651 103.156 120.988 102.866 120.486 102.285C119.983 101.696 119.732 100.877 119.732 99.828C119.732 99.1433 119.866 98.554 120.135 98.06C120.412 97.5573 120.767 97.1717 121.201 96.903C121.634 96.6257 122.093 96.487 122.579 96.487C122.951 96.487 123.285 96.5563 123.58 96.695C123.874 96.8337 124.147 97.0287 124.399 97.28H124.438L124.373 96.149V93.783H125.66V103H124.607L124.503 102.22H124.464C124.212 102.471 123.913 102.692 123.567 102.883C123.22 103.065 122.856 103.156 122.475 103.156ZM122.774 102.09C123.06 102.09 123.333 102.021 123.593 101.882C123.861 101.735 124.121 101.518 124.373 101.232V98.216C124.121 97.982 123.87 97.8173 123.619 97.722C123.367 97.618 123.116 97.566 122.865 97.566C122.535 97.566 122.232 97.657 121.955 97.839C121.686 98.021 121.469 98.281 121.305 98.619C121.14 98.957 121.058 99.3557 121.058 99.815C121.058 100.543 121.209 101.106 121.513 101.505C121.816 101.895 122.236 102.09 122.774 102.09ZM131.127 103.156C130.486 103.156 129.901 103.026 129.372 102.766C128.852 102.506 128.441 102.125 128.137 101.622C127.834 101.119 127.682 100.517 127.682 99.815C127.682 99.1217 127.834 98.528 128.137 98.034C128.449 97.54 128.852 97.1587 129.346 96.89C129.84 96.6213 130.369 96.487 130.932 96.487C131.556 96.487 132.085 96.617 132.518 96.877C132.952 97.1283 133.281 97.4793 133.506 97.93C133.74 98.372 133.857 98.892 133.857 99.49C133.857 99.62 133.853 99.75 133.844 99.88C133.836 100.001 133.823 100.105 133.805 100.192H128.579V99.243H132.999L132.713 99.555C132.713 98.8703 132.557 98.359 132.245 98.021C131.933 97.6743 131.509 97.501 130.971 97.501C130.599 97.501 130.256 97.592 129.944 97.774C129.641 97.9473 129.398 98.2073 129.216 98.554C129.034 98.892 128.943 99.3123 128.943 99.815C128.943 100.335 129.043 100.768 129.242 101.115C129.45 101.453 129.728 101.709 130.074 101.882C130.43 102.055 130.837 102.142 131.296 102.142C131.652 102.142 131.977 102.094 132.271 101.999C132.566 101.895 132.856 101.756 133.142 101.583L133.597 102.402C133.277 102.619 132.908 102.801 132.492 102.948C132.076 103.087 131.621 103.156 131.127 103.156ZM148.953 102.428L144.052 99.152V98.216L148.953 94.94V96.149L145.157 98.658V98.71L148.953 101.219V102.428ZM154.317 103.156C153.719 103.156 153.147 103.056 152.601 102.857C152.055 102.658 151.592 102.428 151.21 102.168L151.782 101.336C152.155 101.596 152.558 101.8 152.991 101.947C153.433 102.094 153.932 102.168 154.486 102.168C154.972 102.168 155.331 102.081 155.565 101.908C155.808 101.735 155.929 101.531 155.929 101.297C155.929 101.184 155.903 101.08 155.851 100.985C155.808 100.89 155.721 100.803 155.591 100.725C155.47 100.638 155.284 100.556 155.032 100.478C154.79 100.4 154.469 100.318 154.07 100.231C153.23 100.058 152.606 99.8193 152.198 99.516C151.8 99.2127 151.6 98.8227 151.6 98.346C151.6 97.8087 151.83 97.3667 152.289 97.02C152.757 96.6647 153.433 96.487 154.317 96.487C154.82 96.487 155.297 96.5737 155.747 96.747C156.207 96.9117 156.597 97.1023 156.917 97.319L156.319 98.125C156.016 97.9257 155.682 97.7697 155.318 97.657C154.963 97.5357 154.59 97.475 154.2 97.475C153.88 97.475 153.624 97.514 153.433 97.592C153.243 97.6613 153.104 97.7567 153.017 97.878C152.931 97.9993 152.887 98.1337 152.887 98.281C152.887 98.5237 153.022 98.7143 153.29 98.853C153.568 98.983 154.014 99.113 154.629 99.243C155.323 99.3903 155.856 99.555 156.228 99.737C156.61 99.919 156.87 100.131 157.008 100.374C157.156 100.608 157.229 100.89 157.229 101.219C157.229 101.574 157.117 101.899 156.891 102.194C156.666 102.489 156.337 102.723 155.903 102.896C155.479 103.069 154.95 103.156 154.317 103.156ZM163.282 103.156C162.641 103.156 162.134 103.043 161.761 102.818C161.397 102.593 161.137 102.281 160.981 101.882C160.825 101.483 160.747 101.02 160.747 100.491V97.683H159.005V96.721L160.799 96.643L160.968 94.641H162.034V96.643H165.037V97.683H162.034V100.491C162.034 100.846 162.082 101.15 162.177 101.401C162.272 101.644 162.433 101.826 162.658 101.947C162.883 102.06 163.187 102.116 163.568 102.116C163.854 102.116 164.114 102.094 164.348 102.051C164.582 101.999 164.807 101.934 165.024 101.856L165.284 102.792C164.998 102.887 164.69 102.97 164.361 103.039C164.04 103.117 163.681 103.156 163.282 103.156ZM169.478 103.156C168.655 103.156 167.992 102.866 167.489 102.285C166.986 101.696 166.735 100.877 166.735 99.828C166.735 99.1433 166.869 98.554 167.138 98.06C167.415 97.5573 167.771 97.1717 168.204 96.903C168.637 96.6257 169.097 96.487 169.582 96.487C169.955 96.487 170.288 96.5563 170.583 96.695C170.878 96.8337 171.151 97.0287 171.402 97.28H171.441L171.376 96.149V93.783H172.663V103H171.61L171.506 102.22H171.467C171.216 102.471 170.917 102.692 170.57 102.883C170.223 103.065 169.859 103.156 169.478 103.156ZM169.777 102.09C170.063 102.09 170.336 102.021 170.596 101.882C170.865 101.735 171.125 101.518 171.376 101.232V98.216C171.125 97.982 170.873 97.8173 170.622 97.722C170.371 97.618 170.119 97.566 169.868 97.566C169.539 97.566 169.235 97.657 168.958 97.839C168.689 98.021 168.473 98.281 168.308 98.619C168.143 98.957 168.061 99.3557 168.061 99.815C168.061 100.543 168.213 101.106 168.516 101.505C168.819 101.895 169.24 102.09 169.777 102.09ZM177.819 103V97.683H174.972V96.643H179.106V103H177.819ZM178.352 95.408C178.075 95.408 177.845 95.3257 177.663 95.161C177.481 94.9877 177.39 94.7623 177.39 94.485C177.39 94.2077 177.481 93.9867 177.663 93.822C177.845 93.6487 178.075 93.562 178.352 93.562C178.629 93.562 178.859 93.6487 179.041 93.822C179.223 93.9867 179.314 94.2077 179.314 94.485C179.314 94.7623 179.223 94.9877 179.041 95.161C178.859 95.3257 178.629 95.408 178.352 95.408ZM185.575 103.156C185.02 103.156 184.5 103.026 184.015 102.766C183.538 102.506 183.148 102.129 182.845 101.635C182.55 101.132 182.403 100.53 182.403 99.828C182.403 99.126 182.55 98.528 182.845 98.034C183.148 97.5313 183.538 97.15 184.015 96.89C184.5 96.6213 185.02 96.487 185.575 96.487C186.13 96.487 186.645 96.6213 187.122 96.89C187.607 97.15 187.997 97.5313 188.292 98.034C188.595 98.528 188.747 99.126 188.747 99.828C188.747 100.53 188.595 101.132 188.292 101.635C187.997 102.129 187.607 102.506 187.122 102.766C186.645 103.026 186.13 103.156 185.575 103.156ZM185.575 102.103C185.948 102.103 186.273 102.008 186.55 101.817C186.827 101.626 187.04 101.362 187.187 101.024C187.343 100.686 187.421 100.287 187.421 99.828C187.421 99.3773 187.343 98.983 187.187 98.645C187.04 98.2983 186.827 98.0297 186.55 97.839C186.273 97.6483 185.948 97.553 185.575 97.553C185.202 97.553 184.877 97.6483 184.6 97.839C184.323 98.0297 184.106 98.2983 183.95 98.645C183.803 98.983 183.729 99.3773 183.729 99.828C183.729 100.287 183.803 100.686 183.95 101.024C184.106 101.362 184.323 101.626 184.6 101.817C184.877 102.008 185.202 102.103 185.575 102.103ZM193.409 103.156C193.079 103.156 192.802 103.043 192.577 102.818C192.351 102.593 192.239 102.302 192.239 101.947C192.239 101.592 192.351 101.301 192.577 101.076C192.802 100.851 193.079 100.738 193.409 100.738C193.747 100.738 194.024 100.851 194.241 101.076C194.466 101.301 194.579 101.592 194.579 101.947C194.579 102.302 194.466 102.593 194.241 102.818C194.024 103.043 193.747 103.156 193.409 103.156ZM198.487 103V93.783H199.774V96.227L199.696 97.657H199.735C200.038 97.3363 200.376 97.0633 200.749 96.838C201.121 96.604 201.55 96.487 202.036 96.487C202.781 96.487 203.327 96.7123 203.674 97.163C204.02 97.605 204.194 98.2377 204.194 99.061V103H202.907V99.23C202.907 98.6753 202.803 98.268 202.595 98.008C202.395 97.7393 202.057 97.605 201.581 97.605C201.243 97.605 200.939 97.6917 200.671 97.865C200.402 98.0297 200.103 98.281 199.774 98.619V103H198.487ZM206.529 102.428V101.219L210.325 98.71V98.658L206.529 96.149V94.94L211.43 98.216V99.152L206.529 102.428ZM75.978 135V129.683H73.131V128.643H77.265V135H75.978ZM76.511 127.408C76.2337 127.408 76.004 127.326 75.822 127.161C75.64 126.988 75.549 126.762 75.549 126.485C75.549 126.208 75.64 125.987 75.822 125.822C76.004 125.649 76.2337 125.562 76.511 125.562C76.7883 125.562 77.018 125.649 77.2 125.822C77.382 125.987 77.473 126.208 77.473 126.485C77.473 126.762 77.382 126.988 77.2 127.161C77.018 127.326 76.7883 127.408 76.511 127.408ZM80.9779 135V128.643H82.0309L82.1349 129.67H82.1869C82.5076 129.341 82.8543 129.063 83.2269 128.838C83.5996 128.604 84.0329 128.487 84.5269 128.487C85.2636 128.487 85.8053 128.712 86.1519 129.163C86.5073 129.605 86.6849 130.238 86.6849 131.061V135H85.3979V131.23C85.3979 130.675 85.2939 130.268 85.0859 130.008C84.8866 129.739 84.5486 129.605 84.0719 129.605C83.7339 129.605 83.4306 129.692 83.1619 129.865C82.8933 130.03 82.5943 130.281 82.2649 130.619V135H80.9779ZM92.7768 135.156C92.1355 135.156 91.6285 135.043 91.2558 134.818C90.8918 134.593 90.6318 134.281 90.4758 133.882C90.3198 133.483 90.2418 133.02 90.2418 132.491V129.683H88.4998V128.721L90.2938 128.643L90.4628 126.641H91.5288V128.643H94.5318V129.683H91.5288V132.491C91.5288 132.846 91.5765 133.15 91.6718 133.401C91.7672 133.644 91.9275 133.826 92.1528 133.947C92.3782 134.06 92.6815 134.116 93.0628 134.116C93.3488 134.116 93.6088 134.094 93.8428 134.051C94.0768 133.999 94.3022 133.934 94.5188 133.856L94.7788 134.792C94.4928 134.887 94.1852 134.97 93.8558 135.039C93.5352 135.117 93.1755 135.156 92.7768 135.156ZM104.012 135V128.643H105.026L105.13 129.475H105.156C105.312 129.189 105.498 128.955 105.715 128.773C105.931 128.582 106.222 128.487 106.586 128.487C106.889 128.487 107.14 128.578 107.34 128.76C107.539 128.942 107.678 129.215 107.756 129.579C107.929 129.25 108.124 128.985 108.341 128.786C108.566 128.587 108.861 128.487 109.225 128.487C109.675 128.487 110.022 128.66 110.265 129.007C110.516 129.354 110.642 129.843 110.642 130.476V135H109.381V130.567C109.381 129.917 109.186 129.592 108.796 129.592C108.605 129.592 108.445 129.666 108.315 129.813C108.185 129.96 108.042 130.181 107.886 130.476V135H106.768V130.567C106.768 130.246 106.72 130.004 106.625 129.839C106.538 129.674 106.395 129.592 106.196 129.592C106.005 129.592 105.836 129.666 105.689 129.813C105.55 129.96 105.411 130.181 105.273 130.476V135H104.012ZM114.303 135.156C113.895 135.156 113.527 135.082 113.198 134.935C112.877 134.779 112.621 134.567 112.431 134.298C112.249 134.021 112.158 133.696 112.158 133.323C112.158 132.612 112.504 132.071 113.198 131.698C113.9 131.325 115.048 131.078 116.643 130.957C116.634 130.697 116.573 130.459 116.461 130.242C116.357 130.025 116.188 129.856 115.954 129.735C115.728 129.605 115.429 129.54 115.057 129.54C114.797 129.54 114.541 129.575 114.29 129.644C114.038 129.705 113.796 129.791 113.562 129.904C113.328 130.017 113.107 130.134 112.899 130.255L112.418 129.384C112.652 129.245 112.92 129.107 113.224 128.968C113.527 128.821 113.852 128.704 114.199 128.617C114.554 128.53 114.914 128.487 115.278 128.487C115.867 128.487 116.357 128.595 116.747 128.812C117.137 129.029 117.431 129.336 117.631 129.735C117.83 130.134 117.93 130.615 117.93 131.178V135H116.877L116.773 134.181H116.734C116.396 134.441 116.014 134.671 115.59 134.87C115.165 135.061 114.736 135.156 114.303 135.156ZM114.667 134.129C115.005 134.129 115.338 134.055 115.668 133.908C115.997 133.761 116.322 133.553 116.643 133.284V131.776C115.811 131.837 115.156 131.932 114.68 132.062C114.212 132.192 113.882 132.357 113.692 132.556C113.501 132.747 113.406 132.972 113.406 133.232C113.406 133.44 113.462 133.613 113.575 133.752C113.696 133.882 113.852 133.977 114.043 134.038C114.233 134.099 114.441 134.129 114.667 134.129ZM122.982 135V129.683H120.135V128.643H124.269V135H122.982ZM123.515 127.408C123.237 127.408 123.008 127.326 122.826 127.161C122.644 126.988 122.553 126.762 122.553 126.485C122.553 126.208 122.644 125.987 122.826 125.822C123.008 125.649 123.237 125.562 123.515 125.562C123.792 125.562 124.022 125.649 124.204 125.822C124.386 125.987 124.477 126.208 124.477 126.485C124.477 126.762 124.386 126.988 124.204 127.161C124.022 127.326 123.792 127.408 123.515 127.408ZM127.981 135V128.643H129.034L129.138 129.67H129.19C129.511 129.341 129.858 129.063 130.23 128.838C130.603 128.604 131.036 128.487 131.53 128.487C132.267 128.487 132.809 128.712 133.155 129.163C133.511 129.605 133.688 130.238 133.688 131.061V135H132.401V131.23C132.401 130.675 132.297 130.268 132.089 130.008C131.89 129.739 131.552 129.605 131.075 129.605C130.737 129.605 130.434 129.692 130.165 129.865C129.897 130.03 129.598 130.281 129.268 130.619V135H127.981ZM140.157 137.288C139.273 136.577 138.571 135.728 138.051 134.74C137.54 133.752 137.284 132.634 137.284 131.386C137.284 130.138 137.54 129.02 138.051 128.032C138.571 127.035 139.273 126.186 140.157 125.484L140.872 126.095C140.023 126.832 139.399 127.629 139 128.487C138.602 129.345 138.402 130.311 138.402 131.386C138.402 132.461 138.602 133.427 139 134.285C139.399 135.134 140.023 135.932 140.872 136.677L140.157 137.288ZM144.819 137.288L144.104 136.677C144.954 135.932 145.578 135.134 145.976 134.285C146.375 133.427 146.574 132.461 146.574 131.386C146.574 130.311 146.375 129.345 145.976 128.487C145.578 127.629 144.954 126.832 144.104 126.095L144.819 125.484C145.703 126.186 146.401 127.035 146.912 128.032C147.432 129.02 147.692 130.138 147.692 131.386C147.692 132.634 147.432 133.752 146.912 134.74C146.401 135.728 145.703 136.577 144.819 137.288ZM163.828 136.976C163.013 136.976 162.407 136.85 162.008 136.599C161.618 136.348 161.423 135.884 161.423 135.208C161.423 134.896 161.432 134.61 161.449 134.35C161.466 134.09 161.484 133.834 161.501 133.583C161.527 133.332 161.54 133.063 161.54 132.777C161.54 132.612 161.488 132.456 161.384 132.309C161.289 132.153 161.107 132.027 160.838 131.932C160.569 131.837 160.184 131.785 159.681 131.776V130.996C160.184 130.987 160.569 130.935 160.838 130.84C161.107 130.745 161.289 130.619 161.384 130.463C161.488 130.307 161.54 130.151 161.54 129.995C161.54 129.718 161.527 129.453 161.501 129.202C161.484 128.942 161.466 128.678 161.449 128.409C161.432 128.14 161.423 127.859 161.423 127.564C161.423 126.879 161.618 126.416 162.008 126.173C162.407 125.922 163.013 125.796 163.828 125.796H164.673V126.511H164.036C163.62 126.511 163.299 126.55 163.074 126.628C162.857 126.697 162.706 126.814 162.619 126.979C162.541 127.135 162.502 127.352 162.502 127.629C162.502 127.993 162.515 128.366 162.541 128.747C162.567 129.128 162.58 129.518 162.58 129.917C162.58 130.35 162.489 130.68 162.307 130.905C162.134 131.13 161.817 131.282 161.358 131.36V131.412C161.817 131.49 162.134 131.642 162.307 131.867C162.489 132.092 162.58 132.422 162.58 132.855C162.58 133.28 162.567 133.674 162.541 134.038C162.515 134.393 162.502 134.762 162.502 135.143C162.502 135.412 162.541 135.628 162.619 135.793C162.706 135.958 162.857 136.075 163.074 136.144C163.299 136.222 163.62 136.261 164.036 136.261H164.673V136.976H163.828ZM88.8118 153.6V144.643H89.8648L89.9688 145.423H90.0078C90.2938 145.154 90.6232 144.933 90.9958 144.76C91.3685 144.578 91.7455 144.487 92.1268 144.487C92.6902 144.487 93.1625 144.621 93.5438 144.89C93.9338 145.159 94.2285 145.536 94.4278 146.021C94.6358 146.506 94.7398 147.074 94.7398 147.724C94.7398 148.452 94.6055 149.072 94.3368 149.583C94.0682 150.094 93.7172 150.484 93.2838 150.753C92.8505 151.022 92.3825 151.156 91.8798 151.156C91.5938 151.156 91.2862 151.087 90.9568 150.948C90.6362 150.809 90.3415 150.619 90.0728 150.376H90.0338L90.0988 151.52V153.6H88.8118ZM91.6328 150.09C91.9708 150.09 92.2742 149.999 92.5428 149.817C92.8115 149.635 93.0238 149.371 93.1798 149.024C93.3358 148.669 93.4138 148.24 93.4138 147.737C93.4138 147.295 93.3532 146.914 93.2318 146.593C93.1192 146.264 92.9458 146.012 92.7118 145.839C92.4778 145.657 92.1658 145.566 91.7758 145.566C91.5158 145.566 91.2428 145.635 90.9568 145.774C90.6708 145.904 90.3848 146.121 90.0988 146.424V149.427C90.3675 149.661 90.6405 149.83 90.9178 149.934C91.1952 150.038 91.4335 150.09 91.6328 150.09ZM97.2958 151V144.643H98.3618L98.4658 146.125H98.5048C98.8341 145.605 99.2371 145.202 99.7138 144.916C100.19 144.63 100.71 144.487 101.274 144.487C101.516 144.487 101.737 144.509 101.937 144.552C102.136 144.595 102.331 144.66 102.522 144.747L102.236 145.852C102.019 145.774 101.833 145.722 101.677 145.696C101.521 145.661 101.321 145.644 101.079 145.644C100.619 145.644 100.177 145.774 99.7528 146.034C99.3281 146.294 98.9381 146.745 98.5828 147.386V151H97.2958ZM107.314 151V145.683H104.467V144.643H108.601V151H107.314ZM107.847 143.408C107.569 143.408 107.34 143.326 107.158 143.161C106.976 142.988 106.885 142.762 106.885 142.485C106.885 142.208 106.976 141.987 107.158 141.822C107.34 141.649 107.569 141.562 107.847 141.562C108.124 141.562 108.354 141.649 108.536 141.822C108.718 141.987 108.809 142.208 108.809 142.485C108.809 142.762 108.718 142.988 108.536 143.161C108.354 143.326 108.124 143.408 107.847 143.408ZM112.314 151V144.643H113.367L113.471 145.67H113.523C113.843 145.341 114.19 145.063 114.563 144.838C114.935 144.604 115.369 144.487 115.863 144.487C116.599 144.487 117.141 144.712 117.488 145.163C117.843 145.605 118.021 146.238 118.021 147.061V151H116.734V147.23C116.734 146.675 116.63 146.268 116.422 146.008C116.222 145.739 115.884 145.605 115.408 145.605C115.07 145.605 114.766 145.692 114.498 145.865C114.229 146.03 113.93 146.281 113.601 146.619V151H112.314ZM124.113 151.156C123.471 151.156 122.964 151.043 122.592 150.818C122.228 150.593 121.968 150.281 121.812 149.882C121.656 149.483 121.578 149.02 121.578 148.491V145.683H119.836V144.721L121.63 144.643L121.799 142.641H122.865V144.643H125.868V145.683H122.865V148.491C122.865 148.846 122.912 149.15 123.008 149.401C123.103 149.644 123.263 149.826 123.489 149.947C123.714 150.06 124.017 150.116 124.399 150.116C124.685 150.116 124.945 150.094 125.179 150.051C125.413 149.999 125.638 149.934 125.855 149.856L126.115 150.792C125.829 150.887 125.521 150.97 125.192 151.039C124.871 151.117 124.511 151.156 124.113 151.156ZM129.892 151V144.201C129.892 143.698 129.983 143.252 130.165 142.862C130.356 142.472 130.642 142.169 131.023 141.952C131.413 141.735 131.912 141.627 132.518 141.627C132.848 141.627 133.164 141.657 133.467 141.718C133.779 141.779 134.083 141.87 134.377 141.991L134.091 142.94C133.849 142.836 133.615 142.762 133.389 142.719C133.173 142.676 132.93 142.654 132.661 142.654C132.141 142.654 131.76 142.788 131.517 143.057C131.283 143.317 131.166 143.69 131.166 144.175V151H129.892ZM128.111 145.683V144.708L129.931 144.643H133.701V145.683H128.111ZM140.157 153.288C139.273 152.577 138.571 151.728 138.051 150.74C137.54 149.752 137.284 148.634 137.284 147.386C137.284 146.138 137.54 145.02 138.051 144.032C138.571 143.035 139.273 142.186 140.157 141.484L140.872 142.095C140.023 142.832 139.399 143.629 139 144.487C138.602 145.345 138.402 146.311 138.402 147.386C138.402 148.461 138.602 149.427 139 150.285C139.399 151.134 140.023 151.932 140.872 152.677L140.157 153.288ZM144.442 146.58L144.078 143.616L144.039 142.082H145.677L145.638 143.616L145.274 146.58H144.442ZM147.536 146.58L147.172 143.616L147.133 142.082H148.771L148.732 143.616L148.368 146.58H147.536ZM151.314 151V142.485H152.627V145.982H155.851V142.485H157.164V151H155.851V147.113H152.627V151H151.314ZM162.463 151.156C161.822 151.156 161.237 151.026 160.708 150.766C160.188 150.506 159.776 150.125 159.473 149.622C159.17 149.119 159.018 148.517 159.018 147.815C159.018 147.122 159.17 146.528 159.473 146.034C159.785 145.54 160.188 145.159 160.682 144.89C161.176 144.621 161.705 144.487 162.268 144.487C162.892 144.487 163.421 144.617 163.854 144.877C164.287 145.128 164.617 145.479 164.842 145.93C165.076 146.372 165.193 146.892 165.193 147.49C165.193 147.62 165.189 147.75 165.18 147.88C165.171 148.001 165.158 148.105 165.141 148.192H159.915V147.243H164.335L164.049 147.555C164.049 146.87 163.893 146.359 163.581 146.021C163.269 145.674 162.844 145.501 162.307 145.501C161.934 145.501 161.592 145.592 161.28 145.774C160.977 145.947 160.734 146.207 160.552 146.554C160.37 146.892 160.279 147.312 160.279 147.815C160.279 148.335 160.379 148.768 160.578 149.115C160.786 149.453 161.063 149.709 161.41 149.882C161.765 150.055 162.173 150.142 162.632 150.142C162.987 150.142 163.312 150.094 163.607 149.999C163.902 149.895 164.192 149.756 164.478 149.583L164.933 150.402C164.612 150.619 164.244 150.801 163.828 150.948C163.412 151.087 162.957 151.156 162.463 151.156ZM171.246 151.156C170.544 151.156 170.007 150.952 169.634 150.545C169.261 150.129 169.075 149.54 169.075 148.777V142.823H166.956V141.783H170.362V148.855C170.362 149.297 170.475 149.618 170.7 149.817C170.925 150.008 171.207 150.103 171.545 150.103C171.718 150.103 171.896 150.081 172.078 150.038C172.269 149.995 172.477 149.925 172.702 149.83L173.014 150.792C172.711 150.896 172.429 150.983 172.169 151.052C171.918 151.121 171.61 151.156 171.246 151.156ZM179.08 151.156C178.378 151.156 177.841 150.952 177.468 150.545C177.095 150.129 176.909 149.54 176.909 148.777V142.823H174.79V141.783H178.196V148.855C178.196 149.297 178.309 149.618 178.534 149.817C178.759 150.008 179.041 150.103 179.379 150.103C179.552 150.103 179.73 150.081 179.912 150.038C180.103 149.995 180.311 149.925 180.536 149.83L180.848 150.792C180.545 150.896 180.263 150.983 180.003 151.052C179.752 151.121 179.444 151.156 179.08 151.156ZM185.575 151.156C185.02 151.156 184.5 151.026 184.015 150.766C183.538 150.506 183.148 150.129 182.845 149.635C182.55 149.132 182.403 148.53 182.403 147.828C182.403 147.126 182.55 146.528 182.845 146.034C183.148 145.531 183.538 145.15 184.015 144.89C184.5 144.621 185.02 144.487 185.575 144.487C186.13 144.487 186.645 144.621 187.122 144.89C187.607 145.15 187.997 145.531 188.292 146.034C188.595 146.528 188.747 147.126 188.747 147.828C188.747 148.53 188.595 149.132 188.292 149.635C187.997 150.129 187.607 150.506 187.122 150.766C186.645 151.026 186.13 151.156 185.575 151.156ZM185.575 150.103C185.948 150.103 186.273 150.008 186.55 149.817C186.827 149.626 187.04 149.362 187.187 149.024C187.343 148.686 187.421 148.287 187.421 147.828C187.421 147.377 187.343 146.983 187.187 146.645C187.04 146.298 186.827 146.03 186.55 145.839C186.273 145.648 185.948 145.553 185.575 145.553C185.202 145.553 184.877 145.648 184.6 145.839C184.323 146.03 184.106 146.298 183.95 146.645C183.803 146.983 183.729 147.377 183.729 147.828C183.729 148.287 183.803 148.686 183.95 149.024C184.106 149.362 184.323 149.626 184.6 149.817C184.877 150.008 185.202 150.103 185.575 150.103ZM192.369 153.782L192.018 152.989C192.581 152.755 192.997 152.46 193.266 152.105C193.543 151.75 193.677 151.321 193.669 150.818L193.461 149.531L194.215 150.636C194.102 150.749 193.981 150.827 193.851 150.87C193.721 150.913 193.591 150.935 193.461 150.935C193.253 150.935 193.062 150.896 192.889 150.818C192.724 150.731 192.59 150.61 192.486 150.454C192.39 150.289 192.343 150.094 192.343 149.869C192.343 149.522 192.455 149.258 192.681 149.076C192.906 148.885 193.175 148.79 193.487 148.79C193.903 148.79 194.219 148.95 194.436 149.271C194.652 149.592 194.761 150.034 194.761 150.597C194.761 151.377 194.548 152.036 194.124 152.573C193.708 153.11 193.123 153.513 192.369 153.782ZM206.542 151L205.294 142.472H206.711L207.231 147.607C207.257 147.85 207.278 148.075 207.296 148.283C207.313 148.482 207.326 148.686 207.335 148.894C207.352 149.102 207.365 149.345 207.374 149.622H207.413C207.465 149.345 207.512 149.102 207.556 148.894C207.599 148.686 207.642 148.482 207.686 148.283C207.729 148.075 207.777 147.854 207.829 147.62L208.596 144.656H209.688L210.416 147.62C210.476 147.854 210.528 148.071 210.572 148.27C210.615 148.469 210.658 148.677 210.702 148.894C210.745 149.102 210.788 149.345 210.832 149.622H210.884C210.901 149.345 210.914 149.102 210.923 148.894C210.931 148.677 210.944 148.469 210.962 148.27C210.979 148.071 210.996 147.854 211.014 147.62L211.521 142.472H212.873L211.677 151H210.143L209.389 147.776C209.337 147.516 209.285 147.256 209.233 146.996C209.181 146.736 209.137 146.476 209.103 146.216H209.064C209.029 146.476 208.99 146.736 208.947 146.996C208.903 147.256 208.847 147.516 208.778 147.776L208.037 151H206.542ZM216.911 151.156C216.356 151.156 215.836 151.026 215.351 150.766C214.874 150.506 214.484 150.129 214.181 149.635C213.886 149.132 213.739 148.53 213.739 147.828C213.739 147.126 213.886 146.528 214.181 146.034C214.484 145.531 214.874 145.15 215.351 144.89C215.836 144.621 216.356 144.487 216.911 144.487C217.465 144.487 217.981 144.621 218.458 144.89C218.943 145.15 219.333 145.531 219.628 146.034C219.931 146.528 220.083 147.126 220.083 147.828C220.083 148.53 219.931 149.132 219.628 149.635C219.333 150.129 218.943 150.506 218.458 150.766C217.981 151.026 217.465 151.156 216.911 151.156ZM216.911 150.103C217.283 150.103 217.608 150.008 217.886 149.817C218.163 149.626 218.375 149.362 218.523 149.024C218.679 148.686 218.757 148.287 218.757 147.828C218.757 147.377 218.679 146.983 218.523 146.645C218.375 146.298 218.163 146.03 217.886 145.839C217.608 145.648 217.283 145.553 216.911 145.553C216.538 145.553 216.213 145.648 215.936 145.839C215.658 146.03 215.442 146.298 215.286 146.645C215.138 146.983 215.065 147.377 215.065 147.828C215.065 148.287 215.138 148.686 215.286 149.024C215.442 149.362 215.658 149.626 215.936 149.817C216.213 150.008 216.538 150.103 216.911 150.103ZM222.639 151V144.643H223.705L223.809 146.125H223.848C224.177 145.605 224.58 145.202 225.057 144.916C225.533 144.63 226.053 144.487 226.617 144.487C226.859 144.487 227.08 144.509 227.28 144.552C227.479 144.595 227.674 144.66 227.865 144.747L227.579 145.852C227.362 145.774 227.176 145.722 227.02 145.696C226.864 145.661 226.664 145.644 226.422 145.644C225.962 145.644 225.52 145.774 225.096 146.034C224.671 146.294 224.281 146.745 223.926 147.386V151H222.639ZM233.917 151.156C233.215 151.156 232.678 150.952 232.305 150.545C231.933 150.129 231.746 149.54 231.746 148.777V142.823H229.627V141.783H233.033V148.855C233.033 149.297 233.146 149.618 233.371 149.817C233.597 150.008 233.878 150.103 234.216 150.103C234.39 150.103 234.567 150.081 234.749 150.038C234.94 149.995 235.148 149.925 235.373 149.83L235.685 150.792C235.382 150.896 235.1 150.983 234.84 151.052C234.589 151.121 234.281 151.156 233.917 151.156ZM239.983 151.156C239.16 151.156 238.497 150.866 237.994 150.285C237.492 149.696 237.24 148.877 237.24 147.828C237.24 147.143 237.375 146.554 237.643 146.06C237.921 145.557 238.276 145.172 238.709 144.903C239.143 144.626 239.602 144.487 240.087 144.487C240.46 144.487 240.794 144.556 241.088 144.695C241.383 144.834 241.656 145.029 241.907 145.28H241.946L241.881 144.149V141.783H243.168V151H242.115L242.011 150.22H241.972C241.721 150.471 241.422 150.692 241.075 150.883C240.729 151.065 240.365 151.156 239.983 151.156ZM240.282 150.09C240.568 150.09 240.841 150.021 241.101 149.882C241.37 149.735 241.63 149.518 241.881 149.232V146.216C241.63 145.982 241.379 145.817 241.127 145.722C240.876 145.618 240.625 145.566 240.373 145.566C240.044 145.566 239.741 145.657 239.463 145.839C239.195 146.021 238.978 146.281 238.813 146.619C238.649 146.957 238.566 147.356 238.566 147.815C238.566 148.543 238.718 149.106 239.021 149.505C239.325 149.895 239.745 150.09 240.282 150.09ZM247.817 147.906L247.648 143.642L247.609 142.29H248.883L248.844 143.642L248.675 147.906H247.817ZM248.246 151.156C247.96 151.156 247.713 151.056 247.505 150.857C247.306 150.658 247.206 150.393 247.206 150.064C247.206 149.735 247.306 149.475 247.505 149.284C247.713 149.085 247.96 148.985 248.246 148.985C248.541 148.985 248.788 149.085 248.987 149.284C249.187 149.475 249.286 149.735 249.286 150.064C249.286 150.393 249.187 150.658 248.987 150.857C248.788 151.056 248.541 151.156 248.246 151.156ZM257.653 153.08L253.389 141.77H254.507L258.771 153.08H257.653ZM261.158 151V144.643H262.211L262.315 145.67H262.367C262.688 145.341 263.034 145.063 263.407 144.838C263.78 144.604 264.213 144.487 264.707 144.487C265.444 144.487 265.985 144.712 266.332 145.163C266.687 145.605 266.865 146.238 266.865 147.061V151H265.578V147.23C265.578 146.675 265.474 146.268 265.266 146.008C265.067 145.739 264.729 145.605 264.252 145.605C263.914 145.605 263.611 145.692 263.342 145.865C263.073 146.03 262.774 146.281 262.445 146.619V151H261.158ZM269.785 146.58L269.421 143.616L269.382 142.082H271.02L270.981 143.616L270.617 146.58H269.785ZM272.879 146.58L272.515 143.616L272.476 142.082H274.114L274.075 143.616L273.711 146.58H272.879ZM277.996 153.288L277.281 152.677C278.13 151.932 278.754 151.134 279.153 150.285C279.552 149.427 279.751 148.461 279.751 147.386C279.751 146.311 279.552 145.345 279.153 144.487C278.754 143.629 278.13 142.832 277.281 142.095L277.996 141.484C278.88 142.186 279.578 143.035 280.089 144.032C280.609 145.02 280.869 146.138 280.869 147.386C280.869 148.634 280.609 149.752 280.089 150.74C279.578 151.728 278.88 152.577 277.996 153.288ZM287.416 146.619C287.087 146.619 286.809 146.506 286.584 146.281C286.359 146.056 286.246 145.765 286.246 145.41C286.246 145.055 286.359 144.764 286.584 144.539C286.809 144.314 287.087 144.201 287.416 144.201C287.754 144.201 288.031 144.314 288.248 144.539C288.473 144.764 288.586 145.055 288.586 145.41C288.586 145.765 288.473 146.056 288.248 146.281C288.031 146.506 287.754 146.619 287.416 146.619ZM286.376 153.782L286.025 152.989C286.588 152.755 287.004 152.46 287.273 152.105C287.55 151.75 287.685 151.321 287.676 150.818L287.468 149.531L288.222 150.636C288.109 150.749 287.988 150.827 287.858 150.87C287.728 150.913 287.598 150.935 287.468 150.935C287.26 150.935 287.069 150.896 286.896 150.818C286.731 150.731 286.597 150.61 286.493 150.454C286.398 150.289 286.35 150.094 286.35 149.869C286.35 149.522 286.463 149.258 286.688 149.076C286.913 148.885 287.182 148.79 287.494 148.79C287.91 148.79 288.226 148.95 288.443 149.271C288.66 149.592 288.768 150.034 288.768 150.597C288.768 151.377 288.556 152.036 288.131 152.573C287.715 153.11 287.13 153.513 286.376 153.782ZM89.4618 167V160.643H90.5278L90.6318 162.125H90.6708C91.0002 161.605 91.4032 161.202 91.8798 160.916C92.3565 160.63 92.8765 160.487 93.4398 160.487C93.6825 160.487 93.9035 160.509 94.1028 160.552C94.3022 160.595 94.4972 160.66 94.6878 160.747L94.4018 161.852C94.1852 161.774 93.9988 161.722 93.8428 161.696C93.6868 161.661 93.4875 161.644 93.2448 161.644C92.7855 161.644 92.3435 161.774 91.9188 162.034C91.4942 162.294 91.1042 162.745 90.7488 163.386V167H89.4618ZM99.7918 167.156C99.1504 167.156 98.5654 167.026 98.0368 166.766C97.5168 166.506 97.1051 166.125 96.8018 165.622C96.4984 165.119 96.3468 164.517 96.3468 163.815C96.3468 163.122 96.4984 162.528 96.8018 162.034C97.1138 161.54 97.5168 161.159 98.0108 160.89C98.5048 160.621 99.0334 160.487 99.5968 160.487C100.221 160.487 100.749 160.617 101.183 160.877C101.616 161.128 101.945 161.479 102.171 161.93C102.405 162.372 102.522 162.892 102.522 163.49C102.522 163.62 102.517 163.75 102.509 163.88C102.5 164.001 102.487 164.105 102.47 164.192H97.2438V163.243H101.664L101.378 163.555C101.378 162.87 101.222 162.359 100.91 162.021C100.598 161.674 100.173 161.501 99.6358 161.501C99.2631 161.501 98.9208 161.592 98.6088 161.774C98.3054 161.947 98.0628 162.207 97.8808 162.554C97.6988 162.892 97.6078 163.312 97.6078 163.815C97.6078 164.335 97.7074 164.768 97.9068 165.115C98.1148 165.453 98.3921 165.709 98.7388 165.882C99.0941 166.055 99.5014 166.142 99.9608 166.142C100.316 166.142 100.641 166.094 100.936 165.999C101.23 165.895 101.521 165.756 101.807 165.583L102.262 166.402C101.941 166.619 101.573 166.801 101.157 166.948C100.741 167.087 100.286 167.156 99.7918 167.156ZM108.445 167.156C107.803 167.156 107.296 167.043 106.924 166.818C106.56 166.593 106.3 166.281 106.144 165.882C105.988 165.483 105.91 165.02 105.91 164.491V161.683H104.168V160.721L105.962 160.643L106.131 158.641H107.197V160.643H110.2V161.683H107.197V164.491C107.197 164.846 107.244 165.15 107.34 165.401C107.435 165.644 107.595 165.826 107.821 165.947C108.046 166.06 108.349 166.116 108.731 166.116C109.017 166.116 109.277 166.094 109.511 166.051C109.745 165.999 109.97 165.934 110.187 165.856L110.447 166.792C110.161 166.887 109.853 166.97 109.524 167.039C109.203 167.117 108.843 167.156 108.445 167.156ZM114.29 167.156C113.544 167.156 112.994 166.935 112.639 166.493C112.292 166.051 112.119 165.414 112.119 164.582V160.643H113.406V164.413C113.406 164.976 113.505 165.392 113.705 165.661C113.913 165.921 114.255 166.051 114.732 166.051C115.07 166.051 115.373 165.969 115.642 165.804C115.91 165.639 116.201 165.371 116.513 164.998V160.643H117.8V167H116.747L116.643 165.947H116.591C116.279 166.302 115.936 166.593 115.564 166.818C115.2 167.043 114.775 167.156 114.29 167.156ZM120.798 167V160.643H121.864L121.968 162.125H122.007C122.336 161.605 122.739 161.202 123.216 160.916C123.692 160.63 124.212 160.487 124.776 160.487C125.018 160.487 125.239 160.509 125.439 160.552C125.638 160.595 125.833 160.66 126.024 160.747L125.738 161.852C125.521 161.774 125.335 161.722 125.179 161.696C125.023 161.661 124.823 161.644 124.581 161.644C124.121 161.644 123.679 161.774 123.255 162.034C122.83 162.294 122.44 162.745 122.085 163.386V167H120.798ZM127.981 167V160.643H129.034L129.138 161.67H129.19C129.511 161.341 129.858 161.063 130.23 160.838C130.603 160.604 131.036 160.487 131.53 160.487C132.267 160.487 132.809 160.712 133.155 161.163C133.511 161.605 133.688 162.238 133.688 163.061V167H132.401V163.23C132.401 162.675 132.297 162.268 132.089 162.008C131.89 161.739 131.552 161.605 131.075 161.605C130.737 161.605 130.434 161.692 130.165 161.865C129.897 162.03 129.598 162.281 129.268 162.619V167H127.981ZM146.405 167.156C145.79 167.156 145.253 166.987 144.793 166.649C144.343 166.311 143.992 165.821 143.74 165.18C143.498 164.53 143.376 163.746 143.376 162.827C143.376 161.432 143.649 160.374 144.195 159.655C144.741 158.927 145.478 158.563 146.405 158.563C147.341 158.563 148.078 158.927 148.615 159.655C149.161 160.374 149.434 161.432 149.434 162.827C149.434 163.746 149.309 164.53 149.057 165.18C148.815 165.821 148.468 166.311 148.017 166.649C147.567 166.987 147.029 167.156 146.405 167.156ZM146.405 166.129C146.761 166.129 147.077 166.016 147.354 165.791C147.632 165.566 147.848 165.21 148.004 164.725C148.169 164.231 148.251 163.598 148.251 162.827C148.251 162.056 148.169 161.432 148.004 160.955C147.848 160.47 147.632 160.119 147.354 159.902C147.077 159.685 146.761 159.577 146.405 159.577C146.05 159.577 145.734 159.685 145.456 159.902C145.179 160.119 144.958 160.47 144.793 160.955C144.637 161.432 144.559 162.056 144.559 162.827C144.559 163.598 144.637 164.231 144.793 164.725C144.958 165.21 145.179 165.566 145.456 165.791C145.734 166.016 146.05 166.129 146.405 166.129ZM146.405 163.659C146.18 163.659 145.981 163.581 145.807 163.425C145.634 163.26 145.547 163.039 145.547 162.762C145.547 162.476 145.634 162.255 145.807 162.099C145.981 161.943 146.18 161.865 146.405 161.865C146.639 161.865 146.839 161.943 147.003 162.099C147.177 162.255 147.263 162.476 147.263 162.762C147.263 163.039 147.177 163.26 147.003 163.425C146.839 163.581 146.639 163.659 146.405 163.659ZM154.239 162.619C153.91 162.619 153.633 162.506 153.407 162.281C153.182 162.056 153.069 161.765 153.069 161.41C153.069 161.055 153.182 160.764 153.407 160.539C153.633 160.314 153.91 160.201 154.239 160.201C154.577 160.201 154.855 160.314 155.071 160.539C155.297 160.764 155.409 161.055 155.409 161.41C155.409 161.765 155.297 162.056 155.071 162.281C154.855 162.506 154.577 162.619 154.239 162.619ZM153.199 169.782L152.848 168.989C153.412 168.755 153.828 168.46 154.096 168.105C154.374 167.75 154.508 167.321 154.499 166.818L154.291 165.531L155.045 166.636C154.933 166.749 154.811 166.827 154.681 166.87C154.551 166.913 154.421 166.935 154.291 166.935C154.083 166.935 153.893 166.896 153.719 166.818C153.555 166.731 153.42 166.61 153.316 166.454C153.221 166.289 153.173 166.094 153.173 165.869C153.173 165.522 153.286 165.258 153.511 165.076C153.737 164.885 154.005 164.79 154.317 164.79C154.733 164.79 155.05 164.95 155.266 165.271C155.483 165.592 155.591 166.034 155.591 166.597C155.591 167.377 155.379 168.036 154.954 168.573C154.538 169.11 153.953 169.513 153.199 169.782ZM73.3 184.976V184.261H73.937C74.3617 184.261 74.6823 184.222 74.899 184.144C75.1243 184.075 75.276 183.958 75.354 183.793C75.4407 183.628 75.484 183.412 75.484 183.143C75.484 182.762 75.471 182.393 75.445 182.038C75.419 181.674 75.406 181.28 75.406 180.855C75.406 180.422 75.4927 180.092 75.666 179.867C75.848 179.642 76.1643 179.49 76.615 179.412V179.36C76.1643 179.282 75.848 179.13 75.666 178.905C75.4927 178.68 75.406 178.35 75.406 177.917C75.406 177.518 75.419 177.128 75.445 176.747C75.471 176.366 75.484 175.993 75.484 175.629C75.484 175.352 75.4407 175.135 75.354 174.979C75.276 174.814 75.1243 174.697 74.899 174.628C74.6823 174.55 74.3617 174.511 73.937 174.511H73.3V173.796H74.145C74.9683 173.796 75.575 173.922 75.965 174.173C76.355 174.416 76.55 174.879 76.55 175.564C76.55 175.859 76.5413 176.14 76.524 176.409C76.5067 176.678 76.485 176.942 76.459 177.202C76.4417 177.453 76.433 177.718 76.433 177.995C76.433 178.151 76.4807 178.307 76.576 178.463C76.68 178.619 76.8663 178.745 77.135 178.84C77.4037 178.935 77.7893 178.987 78.292 178.996V179.776C77.7893 179.785 77.4037 179.837 77.135 179.932C76.8663 180.027 76.68 180.153 76.576 180.309C76.4807 180.456 76.433 180.612 76.433 180.777C76.433 181.063 76.4417 181.332 76.459 181.583C76.485 181.834 76.5067 182.09 76.524 182.35C76.5413 182.61 76.55 182.896 76.55 183.208C76.55 183.884 76.355 184.348 75.965 184.599C75.575 184.85 74.9683 184.976 74.145 184.976H73.3Z" fill="white"/>
<rect width="48" height="48" transform="translate(672 560)" fill="#137356"/>
<path d="M684 593H700V590H684V593ZM684 575V578H708V575H684ZM684 585.5H708V582.5H684V585.5Z" fill="#202124"/>
<rect width="48" height="48" transform="translate(768 96)" fill="#E37400"/>
<g clip-path="url(#clip0_115_254)">
<path d="M781.333 118C780.227 118 779.333 118.893 779.333 120C779.333 121.107 780.227 122 781.333 122C782.44 122 783.333 121.107 783.333 120C783.333 118.893 782.44 118 781.333 118ZM781.333 110C780.227 110 779.333 110.893 779.333 112C779.333 113.107 780.227 114 781.333 114C782.44 114 783.333 113.107 783.333 112C783.333 110.893 782.44 110 781.333 110ZM781.333 126C780.227 126 779.333 126.907 779.333 128C779.333 129.093 780.24 130 781.333 130C782.427 130 783.333 129.093 783.333 128C783.333 126.907 782.44 126 781.333 126ZM785.333 129.333H804V126.667H785.333V129.333ZM785.333 121.333H804V118.667H785.333V121.333ZM785.333 110.667V113.333H804V110.667H785.333Z" fill="#202124"/>
</g>
<rect width="48" height="48" transform="translate(0 464)" fill="#FDD663"/>
<g clip-path="url(#clip1_115_254)">
<path d="M25.3333 476C18.7067 476 13.3333 481.373 13.3333 488H9.33333L14.52 493.187L14.6133 493.373L20 488H16C16 482.84 20.1733 478.667 25.3333 478.667C30.4933 478.667 34.6667 482.84 34.6667 488C34.6667 493.16 30.4933 497.333 25.3333 497.333C22.76 497.333 20.4267 496.28 18.7467 494.587L16.8533 496.48C19.0267 498.653 22.0133 500 25.3333 500C31.96 500 37.3333 494.627 37.3333 488C37.3333 481.373 31.96 476 25.3333 476ZM24 482.667V489.333L29.7067 492.72L30.6667 491.107L26 488.333V482.667H24Z" fill="#202124"/>
</g>
<rect width="48" height="48" transform="translate(96 560)" fill="#9AA0A6"/>
<g clip-path="url(#clip2_115_254)">
<path d="M133.333 572L131.107 574.227L128.893 572L126.667 574.227L124.44 572L122.227 574.227L120 572L117.773 574.227L115.56 572L113.333 574.227L111.107 572L108.893 574.227L106.667 572V593.333C106.667 594.8 107.867 596 109.333 596H130.667C132.133 596 133.333 594.8 133.333 593.333V572ZM118.667 593.333H109.333V585.333H118.667V593.333ZM130.667 593.333H121.333V590.667H130.667V593.333ZM130.667 588H121.333V585.333H130.667V588ZM130.667 582.667H109.333V578.667H130.667V582.667Z" fill="#202124"/>
</g>
<rect width="48" height="48" transform="translate(96)" fill="#AECBFA"/>
<g clip-path="url(#clip3_115_254)">
<path d="M129.333 10.6667H123.76C123.2 9.12 121.733 8 120 8C118.267 8 116.8 9.12 116.24 10.6667H110.667C109.2 10.6667 108 11.8667 108 13.3333V34.6667C108 36.1333 109.2 37.3333 110.667 37.3333H129.333C130.8 37.3333 132 36.1333 132 34.6667V13.3333C132 11.8667 130.8 10.6667 129.333 10.6667ZM120 10.6667C120.733 10.6667 121.333 11.2667 121.333 12C121.333 12.7333 120.733 13.3333 120 13.3333C119.267 13.3333 118.667 12.7333 118.667 12C118.667 11.2667 119.267 10.6667 120 10.6667ZM129.333 34.6667H110.667V13.3333H113.333V17.3333H126.667V13.3333H129.333V34.6667Z" fill="#202124"/>
</g>
<rect width="48" height="48" transform="translate(672)" fill="#F4B5FB"/>
<g clip-path="url(#clip4_115_254)">
<g clip-path="url(#clip5_115_254)">
<path d="M706.667 13.3334H685.333C683.867 13.3334 682.68 14.5334 682.68 16L682.667 32C682.667 33.4667 683.867 34.6667 685.333 34.6667H706.667C708.133 34.6667 709.333 33.4667 709.333 32V16C709.333 14.5334 708.133 13.3334 706.667 13.3334ZM706.667 18.6667L696 25.3334L685.333 18.6667V16L696 22.6667L706.667 16V18.6667Z" fill="#202124"/>
</g>
</g>
<rect width="48" height="48" transform="translate(768 464)" fill="#3C4043"/>
<g clip-path="url(#clip6_115_254)">
<path d="M791.262 493.506L789.985 496.43C789.495 497.554 787.939 497.554 787.449 496.43L786.172 493.506C785.036 490.904 782.991 488.833 780.441 487.701L776.927 486.141C775.81 485.645 775.81 484.02 776.927 483.524L780.331 482.013C782.947 480.851 785.029 478.704 786.145 476.013L787.438 472.897C787.918 471.741 789.516 471.741 789.996 472.897L791.289 476.013C792.405 478.704 794.487 480.851 797.103 482.013L800.507 483.524C801.624 484.02 801.624 485.645 800.507 486.141L796.993 487.701C794.443 488.833 792.398 490.904 791.262 493.506Z" fill="url(#paint0_radial_115_254)"/>
<path d="M803.125 502.725L802.766 503.548C802.504 504.151 801.67 504.151 801.407 503.548L801.048 502.725C800.408 501.258 799.255 500.09 797.817 499.451L796.711 498.96C796.113 498.694 796.113 497.825 796.711 497.559L797.755 497.095C799.23 496.439 800.404 495.228 801.033 493.711L801.401 492.822C801.658 492.202 802.515 492.202 802.772 492.822L803.141 493.711C803.77 495.228 804.943 496.439 806.418 497.095L807.462 497.559C808.061 497.825 808.061 498.694 807.462 498.96L806.356 499.451C804.918 500.09 803.765 501.258 803.125 502.725Z" fill="url(#paint1_radial_115_254)"/>
</g>
<rect width="48" height="48" transform="translate(0 96)" fill="#F28B82"/>
<g clip-path="url(#clip7_115_254)">
<path d="M33.3333 108H14.6667C13.2 108 12 109.2 12 110.667V129.333C12 130.8 13.2 132 14.6667 132H33.3333C34.8 132 36 130.8 36 129.333V110.667C36 109.2 34.8 108 33.3333 108ZM25.3733 113.413L26.7867 112L28.6667 113.88L30.5467 112L31.96 113.413L30.08 115.293L31.96 117.173L30.5467 118.587L28.6667 116.72L26.7867 118.6L25.3733 117.187L27.2533 115.307L25.3733 113.413ZM16.3333 114.293H23V116.293H16.3333V114.293ZM23.3333 125.333H20.6667V128H18.6667V125.333H16V123.333H18.6667V120.667H20.6667V123.333H23.3333V125.333ZM32 127H25.3333V125H32V127ZM32 123.667H25.3333V121.667H32V123.667Z" fill="#202124"/>
</g>
<defs>
<radialGradient id="paint0_radial_115_254" cx="0" cy="0" r="1" gradientUnits="userSpaceOnUse" gradientTransform="translate(795.865 486.045) rotate(78.858) scale(19.7185 19.7281)">
<stop stop-color="#1BA1E3"/>
<stop offset="0.0001" stop-color="#1BA1E3"/>
<stop offset="0.300221" stop-color="#5489D6"/>
<stop offset="0.545524" stop-color="#9B72CB"/>
<stop offset="0.825372" stop-color="#D96570"/>
<stop offset="1" stop-color="#F49C46"/>
</radialGradient>
<radialGradient id="paint1_radial_115_254" cx="0" cy="0" r="1" gradientUnits="userSpaceOnUse" gradientTransform="translate(795.865 486.045) rotate(78.858) scale(19.7185 19.7281)">
<stop stop-color="#1BA1E3"/>
<stop offset="0.0001" stop-color="#1BA1E3"/>
<stop offset="0.300221" stop-color="#5489D6"/>
<stop offset="0.545524" stop-color="#9B72CB"/>
<stop offset="0.825372" stop-color="#D96570"/>
<stop offset="1" stop-color="#F49C46"/>
</radialGradient>
<clipPath id="clip0_115_254">
<rect width="32" height="32" fill="white" transform="translate(776 104)"/>
</clipPath>
<clipPath id="clip1_115_254">
<rect width="32" height="32" fill="white" transform="translate(8 472)"/>
</clipPath>
<clipPath id="clip2_115_254">
<rect width="32" height="32" fill="white" transform="translate(104 568)"/>
</clipPath>
<clipPath id="clip3_115_254">
<rect width="32" height="32" fill="white" transform="translate(104 8)"/>
</clipPath>
<clipPath id="clip4_115_254">
<rect width="32" height="32" fill="white" transform="translate(680 8)"/>
</clipPath>
<clipPath id="clip5_115_254">
<rect width="32" height="32" fill="white" transform="translate(680 8)"/>
</clipPath>
<clipPath id="clip6_115_254">
<rect width="32" height="32" fill="white" transform="translate(776 472)"/>
</clipPath>
<clipPath id="clip7_115_254">
<rect width="32" height="32" fill="white" transform="translate(8 104)"/>
</clipPath>
</defs>
</svg>
