<svg width="288" height="288" viewBox="0 0 288 288" fill="none" xmlns="http://www.w3.org/2000/svg">
<g filter="url(#filter0_d_812_173)">
<rect x="4" width="280" height="280" rx="16" fill="#CDEBC2" fill-opacity="0.4" shape-rendering="crispEdges"/>
</g>
<g clip-path="url(#clip0_812_173)">
<path d="M210.667 73.3334H77.3333C68.0833 73.3334 60.6666 80.8334 60.6666 90V190C60.6666 199.167 68.0833 206.667 77.3333 206.667H210.667C219.833 206.667 227.333 199.167 227.333 190V90C227.333 80.8334 219.917 73.3334 210.667 73.3334ZM210.667 190H77.3333V106.667H210.667V190ZM194 181.667H144V165H194V181.667ZM106.5 181.667L94.75 169.917L116.25 148.333L94.6666 126.75L106.5 115L139.833 148.333L106.5 181.667Z" fill="#424242"/>
</g>
<defs>
<filter id="filter0_d_812_173" x="0" y="0" width="288" height="288" filterUnits="userSpaceOnUse" color-interpolation-filters="sRGB">
<feFlood flood-opacity="0" result="BackgroundImageFix"/>
<feColorMatrix in="SourceAlpha" type="matrix" values="0 0 0 0 0 0 0 0 0 0 0 0 0 0 0 0 0 0 127 0" result="hardAlpha"/>
<feOffset dy="4"/>
<feGaussianBlur stdDeviation="2"/>
<feComposite in2="hardAlpha" operator="out"/>
<feColorMatrix type="matrix" values="0 0 0 0 0 0 0 0 0 0 0 0 0 0 0 0 0 0 0.25 0"/>
<feBlend mode="normal" in2="BackgroundImageFix" result="effect1_dropShadow_812_173"/>
<feBlend mode="normal" in="SourceGraphic" in2="effect1_dropShadow_812_173" result="shape"/>
</filter>
<clipPath id="clip0_812_173">
<rect width="200" height="200" fill="white" transform="translate(44 40)"/>
</clipPath>
</defs>
</svg>
