<svg width="48" height="48" viewBox="0 0 48 48" fill="none" xmlns="http://www.w3.org/2000/svg">
<rect width="48" height="48" rx="24" fill="#AECBFA"/>
<g clip-path="url(#clip0_90_66)">
<path d="M33.3333 10.6667H27.76C27.2 9.12 25.7333 8 24 8C22.2667 8 20.8 9.12 20.24 10.6667H14.6667C13.2 10.6667 12 11.8667 12 13.3333V34.6667C12 36.1333 13.2 37.3333 14.6667 37.3333H33.3333C34.8 37.3333 36 36.1333 36 34.6667V13.3333C36 11.8667 34.8 10.6667 33.3333 10.6667ZM24 10.6667C24.7333 10.6667 25.3333 11.2667 25.3333 12C25.3333 12.7333 24.7333 13.3333 24 13.3333C23.2667 13.3333 22.6667 12.7333 22.6667 12C22.6667 11.2667 23.2667 10.6667 24 10.6667ZM33.3333 34.6667H14.6667V13.3333H17.3333V17.3333H30.6667V13.3333H33.3333V34.6667Z" fill="#202124"/>
</g>
<defs>
<clipPath id="clip0_90_66">
<rect width="32" height="32" fill="white" transform="translate(8 8)"/>
</clipPath>
</defs>
</svg>
