<svg width="56" height="72" viewBox="0 0 56 72" fill="none" xmlns="http://www.w3.org/2000/svg">
<rect width="56" height="72" fill="white"/>
<g clip-path="url(#clip0_911_291)">
<path d="M28 20C19.168 20 12 27.168 12 36C12 44.832 19.168 52 28 52H36V48.8H28C21.056 48.8 15.2 42.944 15.2 36C15.2 29.056 21.056 23.2 28 23.2C34.944 23.2 40.8 29.056 40.8 36V38.288C40.8 39.552 39.664 40.8 38.4 40.8C37.136 40.8 36 39.552 36 38.288V36C36 31.584 32.416 28 28 28C23.584 28 20 31.584 20 36C20 40.416 23.584 44 28 44C30.208 44 32.224 43.104 33.664 41.648C34.704 43.072 36.496 44 38.4 44C41.552 44 44 41.44 44 38.288V36C44 27.168 36.832 20 28 20ZM28 40.8C25.344 40.8 23.2 38.656 23.2 36C23.2 33.344 25.344 31.2 28 31.2C30.656 31.2 32.8 33.344 32.8 36C32.8 38.656 30.656 40.8 28 40.8Z" fill="black"/>
</g>
<defs>
<clipPath id="clip0_911_291">
<rect width="32" height="32" fill="white" transform="translate(12 20)"/>
</clipPath>
</defs>
</svg>
