<svg width="56" height="56" viewBox="0 0 56 56" fill="none" xmlns="http://www.w3.org/2000/svg">
<rect width="56" height="56" fill="white"/>
<g clip-path="url(#clip0_911_291)">
<path d="M28 7C19.72 7 13 13.72 13 22C13 30.28 19.72 37 28 37H35.5V34H28C21.49 34 16 28.51 16 22C16 15.49 21.49 10 28 10C34.51 10 40 15.49 40 22V24.145C40 25.33 38.935 26.5 37.75 26.5C36.565 26.5 35.5 25.33 35.5 24.145V22C35.5 17.86 32.14 14.5 28 14.5C23.86 14.5 20.5 17.86 20.5 22C20.5 26.14 23.86 29.5 28 29.5C30.07 29.5 31.96 28.66 33.31 27.295C34.285 28.63 35.965 29.5 37.75 29.5C40.705 29.5 43 27.1 43 24.145V22C43 13.72 36.28 7 28 7ZM28 26.5C25.51 26.5 23.5 24.49 23.5 22C23.5 19.51 25.51 17.5 28 17.5C30.49 17.5 32.5 19.51 32.5 22C32.5 24.49 30.49 26.5 28 26.5Z" fill="black"/>
</g>
<defs>
<clipPath id="clip0_911_291">
<rect width="30" height="30" fill="white" transform="translate(13 7)"/>
</clipPath>
</defs>
</svg>
