<svg width="56" height="56" viewBox="0 0 56 56" fill="none" xmlns="http://www.w3.org/2000/svg">
<rect width="56" height="56" fill="white"/>
<g clip-path="url(#clip0_911_279)">
<path d="M28 7C19.72 7 13 13.72 13 22C13 30.28 19.72 37 28 37H35.5V34H28C21.49 34 16 28.51 16 22C16 15.49 21.49 10 28 10C34.51 10 40 15.49 40 22V24.145C40 25.33 38.935 26.5 37.75 26.5C36.565 26.5 35.5 25.33 35.5 24.145V22C35.5 17.86 32.14 14.5 28 14.5C23.86 14.5 20.5 17.86 20.5 22C20.5 26.14 23.86 29.5 28 29.5C30.07 29.5 31.96 28.66 33.31 27.295C34.285 28.63 35.965 29.5 37.75 29.5C40.705 29.5 43 27.1 43 24.145V22C43 13.72 36.28 7 28 7ZM28 26.5C25.51 26.5 23.5 24.49 23.5 22C23.5 19.51 25.51 17.5 28 17.5C30.49 17.5 32.5 19.51 32.5 22C32.5 24.49 30.49 26.5 28 26.5Z" fill="black"/>
</g>
<path d="M7.14973 54.1C6.52973 54.1 5.97639 53.96 5.48973 53.68C5.00306 53.3933 4.61973 53.01 4.33973 52.53C4.05973 52.0433 3.91973 51.4933 3.91973 50.88C3.91973 50.3733 4.00639 49.9033 4.17973 49.47C4.35973 49.0367 4.60639 48.6567 4.91973 48.33C5.23306 48.0033 5.59306 47.75 5.99973 47.57C6.41306 47.39 6.85306 47.3 7.31973 47.3C7.78639 47.3 8.16306 47.35 8.44973 47.45C8.73639 47.55 9.01639 47.6633 9.28973 47.79L9.33973 49.34H9.12973L8.72973 48.19C8.46973 47.9967 8.22306 47.8533 7.98973 47.76C7.76306 47.66 7.51306 47.61 7.23973 47.61C6.69306 47.61 6.21306 47.74 5.79973 48C5.38639 48.26 5.05973 48.61 4.81973 49.05C4.58639 49.4833 4.46973 49.96 4.46973 50.48C4.46973 51.14 4.59306 51.7167 4.83973 52.21C5.08639 52.7033 5.42306 53.09 5.84973 53.37C6.27639 53.6433 6.75639 53.78 7.28973 53.78C7.59639 53.78 7.85973 53.7433 8.07973 53.67C8.29973 53.5967 8.50639 53.5 8.69973 53.38L9.23973 52.12H9.43973L9.34973 53.61C9.15639 53.71 8.95973 53.7967 8.75973 53.87C8.55973 53.9433 8.32973 54 8.06973 54.04C7.81639 54.08 7.50973 54.1 7.14973 54.1ZM14.1884 54.1C13.5884 54.1 13.0517 53.9533 12.5784 53.66C12.1117 53.3667 11.7417 52.9633 11.4684 52.45C11.1951 51.9367 11.0584 51.3533 11.0584 50.7C11.0584 50.0467 11.1951 49.4633 11.4684 48.95C11.7417 48.4367 12.1117 48.0333 12.5784 47.74C13.0517 47.4467 13.5884 47.3 14.1884 47.3C14.7951 47.3 15.3317 47.4467 15.7984 47.74C16.2717 48.0333 16.6451 48.4367 16.9184 48.95C17.1917 49.4633 17.3284 50.0467 17.3284 50.7C17.3284 51.3533 17.1917 51.9367 16.9184 52.45C16.6451 52.9633 16.2717 53.3667 15.7984 53.66C15.3317 53.9533 14.7951 54.1 14.1884 54.1ZM14.3984 53.8C14.8517 53.8 15.2517 53.6867 15.5984 53.46C15.9517 53.2267 16.2251 52.9033 16.4184 52.49C16.6117 52.07 16.7084 51.5767 16.7084 51.01C16.7084 50.3233 16.5884 49.7233 16.3484 49.21C16.1084 48.6967 15.7851 48.3 15.3784 48.02C14.9717 47.7333 14.5184 47.59 14.0184 47.59C13.5651 47.59 13.1617 47.7033 12.8084 47.93C12.4551 48.1567 12.1784 48.48 11.9784 48.9C11.7784 49.3133 11.6784 49.8033 11.6784 50.37C11.6784 51.0567 11.7984 51.66 12.0384 52.18C12.2851 52.6933 12.6117 53.0933 13.0184 53.38C13.4317 53.66 13.8917 53.8 14.3984 53.8ZM18.6744 54V53.75L19.4544 53.58V47.82L18.6744 47.65V47.4H19.9844L24.0544 52.92V47.82L23.1944 47.65V47.4H25.2144V47.65L24.4344 47.82V54.05H24.2144L19.8544 48.24V53.55L20.7644 53.75V54H18.6744ZM27.8862 54V53.75L28.8862 53.58V47.75H26.9362L26.5162 49.22H26.3162V47.4H32.0562V49.22H31.8562L31.4362 47.75H29.4862V53.58L30.4862 53.75V54H27.8862ZM32.4364 54V53.75L32.9664 53.63L35.5164 47.35H35.7264L38.2664 53.62L38.8664 53.75V54H36.7364V53.75L37.5864 53.62L36.7464 51.5H34.2164L33.4064 53.62L34.2964 53.75V54H32.4364ZM34.3564 51.15H36.6064L35.4664 48.26L34.3564 51.15ZM42.931 54.1C42.311 54.1 41.7576 53.96 41.271 53.68C40.7843 53.3933 40.401 53.01 40.121 52.53C39.841 52.0433 39.701 51.4933 39.701 50.88C39.701 50.3733 39.7876 49.9033 39.961 49.47C40.141 49.0367 40.3876 48.6567 40.701 48.33C41.0143 48.0033 41.3743 47.75 41.781 47.57C42.1943 47.39 42.6343 47.3 43.101 47.3C43.5676 47.3 43.9443 47.35 44.231 47.45C44.5176 47.55 44.7976 47.6633 45.071 47.79L45.121 49.34H44.911L44.511 48.19C44.251 47.9967 44.0043 47.8533 43.771 47.76C43.5443 47.66 43.2943 47.61 43.021 47.61C42.4743 47.61 41.9943 47.74 41.581 48C41.1676 48.26 40.841 48.61 40.601 49.05C40.3676 49.4833 40.251 49.96 40.251 50.48C40.251 51.14 40.3743 51.7167 40.621 52.21C40.8676 52.7033 41.2043 53.09 41.631 53.37C42.0576 53.6433 42.5376 53.78 43.071 53.78C43.3776 53.78 43.641 53.7433 43.861 53.67C44.081 53.5967 44.2876 53.5 44.481 53.38L45.021 52.12H45.221L45.131 53.61C44.9376 53.71 44.741 53.7967 44.541 53.87C44.341 53.9433 44.111 54 43.851 54.04C43.5976 54.08 43.291 54.1 42.931 54.1ZM48.1596 54V53.75L49.1596 53.58V47.75H47.2096L46.7896 49.22H46.5896V47.4H52.3296V49.22H52.1296L51.7096 47.75H49.7596V53.58L50.7596 53.75V54H48.1596Z" fill="black"/>
<defs>
<clipPath id="clip0_911_279">
<rect width="30" height="30" fill="white" transform="translate(13 7)"/>
</clipPath>
</defs>
</svg>
