<svg width="56" height="72" viewBox="0 0 56 72" fill="none" xmlns="http://www.w3.org/2000/svg">
<rect width="56" height="72" fill="white"/>
<g clip-path="url(#clip0_911_279)">
<path d="M28 21C19.72 21 13 27.72 13 36C13 44.28 19.72 51 28 51H35.5V48H28C21.49 48 16 42.51 16 36C16 29.49 21.49 24 28 24C34.51 24 40 29.49 40 36V38.145C40 39.33 38.935 40.5 37.75 40.5C36.565 40.5 35.5 39.33 35.5 38.145V36C35.5 31.86 32.14 28.5 28 28.5C23.86 28.5 20.5 31.86 20.5 36C20.5 40.14 23.86 43.5 28 43.5C30.07 43.5 31.96 42.66 33.31 41.295C34.285 42.63 35.965 43.5 37.75 43.5C40.705 43.5 43 41.1 43 38.145V36C43 27.72 36.28 21 28 21ZM28 40.5C25.51 40.5 23.5 38.49 23.5 36C23.5 33.51 25.51 31.5 28 31.5C30.49 31.5 32.5 33.51 32.5 36C32.5 38.49 30.49 40.5 28 40.5Z" fill="black"/>
</g>
<path d="M5.0647 70.11C4.3827 70.11 3.77403 69.956 3.2387 69.648C2.70337 69.3327 2.2817 68.911 1.9737 68.383C1.6657 67.8477 1.5117 67.2427 1.5117 66.568C1.5117 66.0107 1.60703 65.4937 1.7977 65.017C1.9957 64.5403 2.26703 64.1223 2.6117 63.763C2.95637 63.4037 3.35237 63.125 3.7997 62.927C4.25437 62.729 4.73837 62.63 5.2517 62.63C5.76503 62.63 6.17937 62.685 6.4947 62.795C6.81003 62.905 7.11803 63.0297 7.4187 63.169L7.4737 64.874H7.2427L6.8027 63.609C6.5167 63.3963 6.24537 63.2387 5.9887 63.136C5.73937 63.026 5.46437 62.971 5.1637 62.971C4.56237 62.971 4.03437 63.114 3.5797 63.4C3.12503 63.686 2.7657 64.071 2.5017 64.555C2.24503 65.0317 2.1167 65.556 2.1167 66.128C2.1167 66.854 2.25237 67.4883 2.5237 68.031C2.79503 68.5737 3.16537 68.999 3.6347 69.307C4.10403 69.6077 4.63203 69.758 5.2187 69.758C5.55603 69.758 5.8457 69.7177 6.0877 69.637C6.3297 69.5563 6.55703 69.45 6.7697 69.318L7.3637 67.932H7.5837L7.4847 69.571C7.27203 69.681 7.0557 69.7763 6.8357 69.857C6.6157 69.9377 6.3627 70 6.0767 70.044C5.79803 70.088 5.4607 70.11 5.0647 70.11ZM12.8072 70.11C12.1472 70.11 11.5569 69.9487 11.0362 69.626C10.5229 69.3033 10.1159 68.8597 9.81524 68.295C9.51457 67.7303 9.36424 67.0887 9.36424 66.37C9.36424 65.6513 9.51457 65.0097 9.81524 64.445C10.1159 63.8803 10.5229 63.4367 11.0362 63.114C11.5569 62.7913 12.1472 62.63 12.8072 62.63C13.4746 62.63 14.0649 62.7913 14.5782 63.114C15.0989 63.4367 15.5096 63.8803 15.8102 64.445C16.1109 65.0097 16.2612 65.6513 16.2612 66.37C16.2612 67.0887 16.1109 67.7303 15.8102 68.295C15.5096 68.8597 15.0989 69.3033 14.5782 69.626C14.0649 69.9487 13.4746 70.11 12.8072 70.11ZM13.0382 69.78C13.5369 69.78 13.9769 69.6553 14.3582 69.406C14.7469 69.1493 15.0476 68.7937 15.2602 68.339C15.4729 67.877 15.5792 67.3343 15.5792 66.711C15.5792 65.9557 15.4472 65.2957 15.1832 64.731C14.9192 64.1663 14.5636 63.73 14.1162 63.422C13.6689 63.1067 13.1702 62.949 12.6202 62.949C12.1216 62.949 11.6779 63.0737 11.2892 63.323C10.9006 63.5723 10.5962 63.928 10.3762 64.39C10.1562 64.8447 10.0462 65.3837 10.0462 66.007C10.0462 66.7623 10.1782 67.426 10.4422 67.998C10.7136 68.5627 11.0729 69.0027 11.5202 69.318C11.9749 69.626 12.4809 69.78 13.0382 69.78ZM17.7419 70V69.725L18.5999 69.538V63.202L17.7419 63.015V62.74H19.1829L23.6599 68.812V63.202L22.7139 63.015V62.74H24.9359V63.015L24.0779 63.202V70.055H23.8359L19.0399 63.664V69.505L20.0409 69.725V70H17.7419ZM27.8748 70V69.725L28.9748 69.538V63.125H26.8298L26.3678 64.742H26.1478V62.74H32.4618V64.742H32.2418L31.7798 63.125H29.6348V69.538L30.7348 69.725V70H27.8748ZM32.8801 70V69.725L33.4631 69.593L36.2681 62.685H36.4991L39.2931 69.582L39.9531 69.725V70H37.6101V69.725L38.5451 69.582L37.6211 67.25H34.8381L33.9471 69.582L34.9261 69.725V70H32.8801ZM34.9921 66.865H37.4671L36.2131 63.686L34.9921 66.865ZM44.4241 70.11C43.7421 70.11 43.1334 69.956 42.5981 69.648C42.0627 69.3327 41.6411 68.911 41.3331 68.383C41.0251 67.8477 40.8711 67.2427 40.8711 66.568C40.8711 66.0107 40.9664 65.4937 41.1571 65.017C41.3551 64.5403 41.6264 64.1223 41.9711 63.763C42.3157 63.4037 42.7117 63.125 43.1591 62.927C43.6137 62.729 44.0977 62.63 44.6111 62.63C45.1244 62.63 45.5387 62.685 45.8541 62.795C46.1694 62.905 46.4774 63.0297 46.7781 63.169L46.8331 64.874H46.6021L46.1621 63.609C45.8761 63.3963 45.6047 63.2387 45.3481 63.136C45.0987 63.026 44.8237 62.971 44.5231 62.971C43.9217 62.971 43.3937 63.114 42.9391 63.4C42.4844 63.686 42.1251 64.071 41.8611 64.555C41.6044 65.0317 41.4761 65.556 41.4761 66.128C41.4761 66.854 41.6117 67.4883 41.8831 68.031C42.1544 68.5737 42.5247 68.999 42.9941 69.307C43.4634 69.6077 43.9914 69.758 44.5781 69.758C44.9154 69.758 45.2051 69.7177 45.4471 69.637C45.6891 69.5563 45.9164 69.45 46.1291 69.318L46.7231 67.932H46.9431L46.8441 69.571C46.6314 69.681 46.4151 69.7763 46.1951 69.857C45.9751 69.9377 45.7221 70 45.4361 70.044C45.1574 70.088 44.8201 70.11 44.4241 70.11ZM50.1756 70V69.725L51.2756 69.538V63.125H49.1306L48.6686 64.742H48.4486V62.74H54.7626V64.742H54.5426L54.0806 63.125H51.9356V69.538L53.0356 69.725V70H50.1756Z" fill="black"/>
<defs>
<clipPath id="clip0_911_279">
<rect width="30" height="30" fill="white" transform="translate(13 21)"/>
</clipPath>
</defs>
</svg>
