<svg width="56" height="72" viewBox="0 0 56 72" fill="none" xmlns="http://www.w3.org/2000/svg">
<rect width="56" height="72" fill="white"/>
<g clip-path="url(#clip0_911_291)">
<path d="M28 21C19.72 21 13 27.72 13 36C13 44.28 19.72 51 28 51H35.5V48H28C21.49 48 16 42.51 16 36C16 29.49 21.49 24 28 24C34.51 24 40 29.49 40 36V38.145C40 39.33 38.935 40.5 37.75 40.5C36.565 40.5 35.5 39.33 35.5 38.145V36C35.5 31.86 32.14 28.5 28 28.5C23.86 28.5 20.5 31.86 20.5 36C20.5 40.14 23.86 43.5 28 43.5C30.07 43.5 31.96 42.66 33.31 41.295C34.285 42.63 35.965 43.5 37.75 43.5C40.705 43.5 43 41.1 43 38.145V36C43 27.72 36.28 21 28 21ZM28 40.5C25.51 40.5 23.5 38.49 23.5 36C23.5 33.51 25.51 31.5 28 31.5C30.49 31.5 32.5 33.51 32.5 36C32.5 38.49 30.49 40.5 28 40.5Z" fill="black"/>
</g>
<defs>
<clipPath id="clip0_911_291">
<rect width="30" height="30" fill="white" transform="translate(13 21)"/>
</clipPath>
</defs>
</svg>
