<svg width="848" height="1152" viewBox="0 0 848 1152" fill="none" xmlns="http://www.w3.org/2000/svg">
<rect width="848" height="1152" fill="white"/>
<g clip-path="url(#clip0_931_190)">
<path d="M422.32 535.96C440.24 536.8 444.86 552.06 445.14 559.2H470.2C469.08 531.48 449.34 514.54 421.9 514.54C390.96 514.54 368 534 368 577.96C368 605.12 381.02 637.32 421.76 637.32C452.84 637.32 469.5 614.22 469.92 596.02H444.86C444.44 604.28 438.56 615.34 422.04 616.18C403.7 615.62 396 601.34 396 577.96C396 537.5 413.92 536.24 422.32 535.96ZM424 436C346.72 436 284 498.72 284 576C284 653.28 346.72 716 424 716C501.28 716 564 653.28 564 576C564 498.72 501.28 436 424 436ZM424 688C362.26 688 312 637.74 312 576C312 514.26 362.26 464 424 464C485.74 464 536 514.26 536 576C536 637.74 485.74 688 424 688Z" fill="#AAAAAA"/>
</g>
<defs>
<clipPath id="clip0_931_190">
<rect width="336" height="336" fill="white" transform="translate(256 408)"/>
</clipPath>
</defs>
</svg>
