<svg width="848" height="640" viewBox="0 0 848 640" fill="none" xmlns="http://www.w3.org/2000/svg">
<rect width="848" height="640" fill="#FAFAFA"/>
<g clip-path="url(#clip0_1225_284)">
<path d="M422.32 279.96C440.24 280.8 444.86 296.06 445.14 303.2H470.2C469.08 275.48 449.34 258.54 421.9 258.54C390.96 258.54 368 278 368 321.96C368 349.12 381.02 381.32 421.76 381.32C452.84 381.32 469.5 358.22 469.92 340.02H444.86C444.44 348.28 438.56 359.34 422.04 360.18C403.7 359.62 396 345.34 396 321.96C396 281.5 413.92 280.24 422.32 279.96ZM424 180C346.72 180 284 242.72 284 320C284 397.28 346.72 460 424 460C501.28 460 564 397.28 564 320C564 242.72 501.28 180 424 180ZM424 432C362.26 432 312 381.74 312 320C312 258.26 362.26 208 424 208C485.74 208 536 258.26 536 320C536 381.74 485.74 432 424 432Z" fill="#AAAAAA"/>
</g>
<defs>
<clipPath id="clip0_1225_284">
<rect width="336" height="336" fill="white" transform="translate(256 152)"/>
</clipPath>
</defs>
</svg>
