<svg width="56" height="72" viewBox="0 0 56 72" fill="none" xmlns="http://www.w3.org/2000/svg">
<rect width="56" height="72" fill="white"/>
<g clip-path="url(#clip0_911_280)">
<path d="M28 19C19.7167 19 13 25.7167 13 34C13 40.95 17.7333 46.7833 24.15 48.4833L28 52.3333L31.85 48.4833C38.2667 46.7833 43 40.95 43 34C43 25.7167 36.2833 19 28 19ZM28 22.3333C30.7667 22.3333 33 24.5667 33 27.3333C33 30.1 30.7667 32.3333 28 32.3333C25.2333 32.3333 23 30.1 23 27.3333C23 24.5667 25.2333 22.3333 28 22.3333ZM28 46.1667C23.8333 46.1667 20.15 44.0333 18 40.8C18.05 37.4833 24.6667 35.6667 28 35.6667C31.3167 35.6667 37.95 37.4833 38 40.8C35.85 44.0333 32.1667 46.1667 28 46.1667Z" fill="black"/>
</g>
<path d="M24.5833 70.11C23.9013 70.11 23.2926 69.956 22.7573 69.648C22.2219 69.3327 21.8003 68.911 21.4923 68.383C21.1843 67.8477 21.0303 67.2427 21.0303 66.568C21.0303 66.0107 21.1256 65.4937 21.3163 65.017C21.5143 64.5403 21.7856 64.1223 22.1303 63.763C22.4749 63.4037 22.8709 63.125 23.3183 62.927C23.7729 62.729 24.2569 62.63 24.7703 62.63C25.2836 62.63 25.6979 62.685 26.0133 62.795C26.3286 62.905 26.6366 63.0297 26.9373 63.169L26.9923 64.874H26.7613L26.3213 63.609C26.0353 63.3963 25.7639 63.2387 25.5073 63.136C25.2579 63.026 24.9829 62.971 24.6823 62.971C24.0809 62.971 23.5529 63.114 23.0983 63.4C22.6436 63.686 22.2843 64.071 22.0203 64.555C21.7636 65.0317 21.6353 65.556 21.6353 66.128C21.6353 66.854 21.7709 67.4883 22.0423 68.031C22.3136 68.5737 22.6839 68.999 23.1533 69.307C23.6226 69.6077 24.1506 69.758 24.7373 69.758C25.0746 69.758 25.3643 69.7177 25.6063 69.637C25.8483 69.5563 26.0756 69.45 26.2883 69.318L26.8823 67.932H27.1023L27.0033 69.571C26.7906 69.681 26.5743 69.7763 26.3543 69.857C26.1343 69.9377 25.8813 70 25.5953 70.044C25.3166 70.088 24.9793 70.11 24.5833 70.11ZM31.8418 70.055L29.1688 63.191L28.4978 63.015V62.74H30.8408V63.015L29.9168 63.169V63.202L32.0948 68.944H32.1718L34.2728 63.202V63.169L33.3048 63.015V62.74H35.3508V63.015L34.7788 63.136L32.0728 70.055H31.8418Z" fill="black"/>
<defs>
<clipPath id="clip0_911_280">
<rect width="40" height="40" fill="white" transform="translate(8 16)"/>
</clipPath>
</defs>
</svg>
