<svg width="20" height="20" viewBox="0 0 20 20" fill="none" xmlns="http://www.w3.org/2000/svg">
<ellipse cx="9.75" cy="9.75537" rx="9.75" ry="9.75098" fill="#FAFAFA"/>
<g clip-path="url(#clip0_1213_322)">
<path d="M11.3333 3.33337H6C5.26667 3.33337 4.66667 3.93337 4.66667 4.66671V15.3334C4.66667 16.0667 5.26667 16.6667 6 16.6667H14C14.7333 16.6667 15.3333 16.0667 15.3333 15.3334V7.33337L11.3333 3.33337ZM10 8.66671C10.7333 8.66671 11.3333 9.26671 11.3333 10C11.3333 10.7334 10.7333 11.3334 10 11.3334C9.26667 11.3334 8.66667 10.7334 8.66667 10C8.66667 9.26671 9.26667 8.66671 10 8.66671ZM12.6667 14H7.33333V13.62C7.33333 13.08 7.65333 12.6 8.14667 12.3867C8.71333 12.14 9.34 12 10 12C10.66 12 11.2867 12.14 11.8533 12.3867C12.3467 12.6 12.6667 13.08 12.6667 13.62V14Z" fill="black"/>
</g>
<defs>
<clipPath id="clip0_1213_322">
<rect width="16" height="16" fill="white" transform="translate(2 2)"/>
</clipPath>
</defs>
</svg>
