<svg width="56" height="72" viewBox="0 0 56 72" fill="none" xmlns="http://www.w3.org/2000/svg">
<rect width="56" height="72" fill="white"/>
<g clip-path="url(#clip0_911_286)">
<path d="M28 19C19.7167 19 13 25.7167 13 34C13 40.95 17.7333 46.7833 24.15 48.4833L28 52.3333L31.85 48.4833C38.2667 46.7833 43 40.95 43 34C43 25.7167 36.2833 19 28 19ZM28 22.3333C30.7667 22.3333 33 24.5667 33 27.3333C33 30.1 30.7667 32.3333 28 32.3333C25.2333 32.3333 23 30.1 23 27.3333C23 24.5667 25.2333 22.3333 28 22.3333ZM28 46.1667C23.8333 46.1667 20.15 44.0333 18 40.8C18.05 37.4833 24.6667 35.6667 28 35.6667C31.3167 35.6667 37.95 37.4833 38 40.8C35.85 44.0333 32.1667 46.1667 28 46.1667Z" fill="black"/>
</g>
<defs>
<clipPath id="clip0_911_286">
<rect width="40" height="40" fill="white" transform="translate(8 16)"/>
</clipPath>
</defs>
</svg>
