<svg width="56" height="72" viewBox="0 0 56 72" fill="none" xmlns="http://www.w3.org/2000/svg">
<rect width="56" height="72" fill="white"/>
<g clip-path="url(#clip0_911_286)">
<path d="M28 20C19.168 20 12 27.168 12 36C12 44.832 19.168 52 28 52C36.832 52 44 44.832 44 36C44 27.168 36.832 20 28 20ZM28 26.4C31.088 26.4 33.6 28.912 33.6 32C33.6 35.088 31.088 37.6 28 37.6C24.912 37.6 22.4 35.088 22.4 32C22.4 28.912 24.912 26.4 28 26.4ZM28 48.8C24.752 48.8 20.912 47.488 18.176 44.192C20.88 42.08 24.288 40.8 28 40.8C31.712 40.8 35.12 42.08 37.824 44.192C35.088 47.488 31.248 48.8 28 48.8Z" fill="black"/>
</g>
<defs>
<clipPath id="clip0_911_286">
<rect width="40" height="40" fill="white" transform="translate(8 16)"/>
</clipPath>
</defs>
</svg>
