<svg width="56" height="56" viewBox="0 0 56 56" fill="none" xmlns="http://www.w3.org/2000/svg">
<rect width="56" height="56" rx="8" fill="white"/>
<path d="M5.10413 38.16C4.63479 38.16 4.22946 37.9893 3.88813 37.648C3.54679 37.2853 3.37613 36.8693 3.37613 36.4C3.37613 35.9307 3.54679 35.5253 3.88813 35.184C4.22946 34.8427 4.63479 34.672 5.10413 34.672C5.57346 34.672 5.97879 34.8427 6.32013 35.184C6.68279 35.5253 6.86413 35.9307 6.86413 36.4C6.86413 36.8693 6.68279 37.2853 6.32013 37.648C5.97879 37.9893 5.57346 38.16 5.10413 38.16ZM5.10413 26.768C4.63479 26.768 4.22946 26.5973 3.88813 26.256C3.54679 25.8933 3.37613 25.4773 3.37613 25.008C3.37613 24.5387 3.54679 24.1333 3.88813 23.792C4.22946 23.4507 4.63479 23.28 5.10413 23.28C5.57346 23.28 5.97879 23.4507 6.32013 23.792C6.68279 24.1333 6.86413 24.5387 6.86413 25.008C6.86413 25.4773 6.68279 25.8933 6.32013 26.256C5.97879 26.5973 5.57346 26.768 5.10413 26.768ZM21.6259 38.32C19.5139 38.32 17.6685 37.872 16.0899 36.976C14.5325 36.08 13.3165 34.8533 12.4419 33.296C11.5885 31.7387 11.1619 29.9787 11.1619 28.016C11.1619 26.4587 11.4499 24.9867 12.0259 23.6C12.6019 22.2133 13.3912 20.9973 14.3939 19.952C15.4179 18.8853 16.5912 18.0533 17.9139 17.456C19.2365 16.8587 20.6445 16.56 22.1379 16.56C23.1832 16.56 24.0685 16.6347 24.7939 16.784C25.5405 16.912 26.2019 17.0933 26.7779 17.328C27.3752 17.5627 27.9725 17.8187 28.5699 18.096L28.6979 23.44H28.0899L26.4259 19.632C25.5939 19.056 24.8472 18.6293 24.1859 18.352C23.5245 18.0533 22.7885 17.904 21.9779 17.904C20.3565 17.904 18.9165 18.2987 17.6579 19.088C16.4205 19.8773 15.4392 20.9547 14.7139 22.32C13.9885 23.6853 13.6259 25.2213 13.6259 26.928C13.6259 28.976 13.9885 30.7573 14.7139 32.272C15.4392 33.7653 16.4099 34.9173 17.6259 35.728C18.8632 36.5387 20.2499 36.944 21.7859 36.944C22.8739 36.944 23.8019 36.7947 24.5699 36.496C25.3379 36.1973 26.0205 35.8453 26.6179 35.44L28.4739 31.792H29.0499L28.7299 36.752C28.1112 37.072 27.4712 37.3493 26.8099 37.584C26.1699 37.8187 25.4339 38 24.6019 38.128C23.7912 38.256 22.7992 38.32 21.6259 38.32ZM42.7774 38.16L34.8414 18.384L32.7294 17.52V16.88H40.2494V17.52L37.5294 18.384V18.512L43.6414 34.032H43.8334L49.8494 18.448V18.352L47.1614 17.52V16.88H53.5614V17.52L51.8014 18.224L43.7054 38.16H42.7774Z" fill="black"/>
</svg>
