<svg width="56" height="56" viewBox="0 0 56 56" fill="none" xmlns="http://www.w3.org/2000/svg">
<rect width="56" height="56" fill="white"/>
<g clip-path="url(#clip0_911_286)">
<path d="M28 5C19.7167 5 13 11.7167 13 20C13 26.95 17.7333 32.7833 24.15 34.4833L28 38.3333L31.85 34.4833C38.2667 32.7833 43 26.95 43 20C43 11.7167 36.2833 5 28 5ZM28 8.33333C30.7667 8.33333 33 10.5667 33 13.3333C33 16.1 30.7667 18.3333 28 18.3333C25.2333 18.3333 23 16.1 23 13.3333C23 10.5667 25.2333 8.33333 28 8.33333ZM28 32.1667C23.8333 32.1667 20.15 30.0333 18 26.8C18.05 23.4833 24.6667 21.6667 28 21.6667C31.3167 21.6667 37.95 23.4833 38 26.8C35.85 30.0333 32.1667 32.1667 28 32.1667Z" fill="black"/>
</g>
<defs>
<clipPath id="clip0_911_286">
<rect width="40" height="40" fill="white" transform="translate(8 2)"/>
</clipPath>
</defs>
</svg>
