<svg width="40" height="40" viewBox="0 0 40 40" fill="none" xmlns="http://www.w3.org/2000/svg">
<g clip-path="url(#clip0_905_266)">
<path d="M20 3.33331C11.7167 3.33331 5 10.05 5 18.3333C5 25.2833 9.73333 31.1166 16.15 32.8166L20 36.6666L23.85 32.8166C30.2667 31.1166 35 25.2833 35 18.3333C35 10.05 28.2833 3.33331 20 3.33331ZM20 6.66665C22.7667 6.66665 25 8.89998 25 11.6666C25 14.4333 22.7667 16.6666 20 16.6666C17.2333 16.6666 15 14.4333 15 11.6666C15 8.89998 17.2333 6.66665 20 6.66665ZM20 30.5C15.8333 30.5 12.15 28.3666 10 25.1333C10.05 21.8166 16.6667 20 20 20C23.3167 20 29.95 21.8166 30 25.1333C27.85 28.3666 24.1667 30.5 20 30.5Z" fill="black"/>
</g>
<defs>
<clipPath id="clip0_905_266">
<rect width="40" height="40" fill="white"/>
</clipPath>
</defs>
</svg>
