<svg width="56" height="56" viewBox="0 0 56 56" fill="none" xmlns="http://www.w3.org/2000/svg">
<rect width="56" height="56" fill="white"/>
<g clip-path="url(#clip0_936_180)">
<path d="M28 3C19.7167 3 13 9.71667 13 18C13 24.95 17.7333 30.7833 24.15 32.4833L28 36.3333L31.85 32.4833C38.2667 30.7833 43 24.95 43 18C43 9.71667 36.2833 3 28 3ZM28 6.33333C30.7667 6.33333 33 8.56667 33 11.3333C33 14.1 30.7667 16.3333 28 16.3333C25.2333 16.3333 23 14.1 23 11.3333C23 8.56667 25.2333 6.33333 28 6.33333ZM28 30.1667C23.8333 30.1667 20.15 28.0333 18 24.8C18.05 21.4833 24.6667 19.6667 28 19.6667C31.3167 19.6667 37.95 21.4833 38 24.8C35.85 28.0333 32.1667 30.1667 28 30.1667Z" fill="black"/>
</g>
<path d="M24.5833 54.11C23.9013 54.11 23.2926 53.956 22.7573 53.648C22.2219 53.3327 21.8003 52.911 21.4923 52.383C21.1843 51.8477 21.0303 51.2427 21.0303 50.568C21.0303 50.0107 21.1256 49.4937 21.3163 49.017C21.5143 48.5403 21.7856 48.1223 22.1303 47.763C22.4749 47.4037 22.8709 47.125 23.3183 46.927C23.7729 46.729 24.2569 46.63 24.7703 46.63C25.2836 46.63 25.6979 46.685 26.0133 46.795C26.3286 46.905 26.6366 47.0297 26.9373 47.169L26.9923 48.874H26.7613L26.3213 47.609C26.0353 47.3963 25.7639 47.2387 25.5073 47.136C25.2579 47.026 24.9829 46.971 24.6823 46.971C24.0809 46.971 23.5529 47.114 23.0983 47.4C22.6436 47.686 22.2843 48.071 22.0203 48.555C21.7636 49.0317 21.6353 49.556 21.6353 50.128C21.6353 50.854 21.7709 51.4883 22.0423 52.031C22.3136 52.5737 22.6839 52.999 23.1533 53.307C23.6226 53.6077 24.1506 53.758 24.7373 53.758C25.0746 53.758 25.3643 53.7177 25.6063 53.637C25.8483 53.5563 26.0756 53.45 26.2883 53.318L26.8823 51.932H27.1023L27.0033 53.571C26.7906 53.681 26.5743 53.7763 26.3543 53.857C26.1343 53.9377 25.8813 54 25.5953 54.044C25.3166 54.088 24.9793 54.11 24.5833 54.11ZM31.8418 54.055L29.1688 47.191L28.4978 47.015V46.74H30.8408V47.015L29.9168 47.169V47.202L32.0948 52.944H32.1718L34.2728 47.202V47.169L33.3048 47.015V46.74H35.3508V47.015L34.7788 47.136L32.0728 54.055H31.8418Z" fill="black"/>
<defs>
<clipPath id="clip0_936_180">
<rect width="40" height="40" fill="white" transform="translate(8)"/>
</clipPath>
</defs>
</svg>
