<svg width="56" height="56" viewBox="0 0 56 56" fill="none" xmlns="http://www.w3.org/2000/svg">
<rect width="56" height="56" fill="white"/>
<g clip-path="url(#clip0_911_280)">
<path d="M28 5C19.7167 5 13 11.7167 13 20C13 26.95 17.7333 32.7833 24.15 34.4833L28 38.3333L31.85 34.4833C38.2667 32.7833 43 26.95 43 20C43 11.7167 36.2833 5 28 5ZM28 8.33333C30.7667 8.33333 33 10.5667 33 13.3333C33 16.1 30.7667 18.3333 28 18.3333C25.2333 18.3333 23 16.1 23 13.3333C23 10.5667 25.2333 8.33333 28 8.33333ZM28 32.1667C23.8333 32.1667 20.15 30.0333 18 26.8C18.05 23.4833 24.6667 21.6667 28 21.6667C31.3167 21.6667 37.95 23.4833 38 26.8C35.85 30.0333 32.1667 32.1667 28 32.1667Z" fill="black"/>
</g>
<path d="M24.8939 55.1C24.2739 55.1 23.7205 54.96 23.2339 54.68C22.7472 54.3933 22.3639 54.01 22.0839 53.53C21.8039 53.0433 21.6639 52.4933 21.6639 51.88C21.6639 51.3733 21.7505 50.9033 21.9239 50.47C22.1039 50.0367 22.3505 49.6567 22.6639 49.33C22.9772 49.0033 23.3372 48.75 23.7439 48.57C24.1572 48.39 24.5972 48.3 25.0639 48.3C25.5305 48.3 25.9072 48.35 26.1939 48.45C26.4805 48.55 26.7605 48.6633 27.0339 48.79L27.0839 50.34H26.8739L26.4739 49.19C26.2139 48.9967 25.9672 48.8533 25.7339 48.76C25.5072 48.66 25.2572 48.61 24.9839 48.61C24.4372 48.61 23.9572 48.74 23.5439 49C23.1305 49.26 22.8039 49.61 22.5639 50.05C22.3305 50.4833 22.2139 50.96 22.2139 51.48C22.2139 52.14 22.3372 52.7167 22.5839 53.21C22.8305 53.7033 23.1672 54.09 23.5939 54.37C24.0205 54.6433 24.5005 54.78 25.0339 54.78C25.3405 54.78 25.6039 54.7433 25.8239 54.67C26.0439 54.5967 26.2505 54.5 26.4439 54.38L26.9839 53.12H27.1839L27.0939 54.61C26.9005 54.71 26.7039 54.7967 26.5039 54.87C26.3039 54.9433 26.0739 55 25.8139 55.04C25.5605 55.08 25.2539 55.1 24.8939 55.1ZM31.4925 55.05L29.0625 48.81L28.4525 48.65V48.4H30.5825V48.65L29.7425 48.79V48.82L31.7225 54.04H31.7925L33.7025 48.82V48.79L32.8225 48.65V48.4H34.6825V48.65L34.1625 48.76L31.7025 55.05H31.4925Z" fill="black"/>
<defs>
<clipPath id="clip0_911_280">
<rect width="40" height="40" fill="white" transform="translate(8 2)"/>
</clipPath>
</defs>
</svg>
