<svg width="53" height="53" viewBox="0 0 53 53" fill="none" xmlns="http://www.w3.org/2000/svg">
<rect width="53" height="53" rx="8" fill="white"/>
<path d="M3.988 36.128C3.58267 36.128 3.24133 35.9893 2.964 35.712C2.68667 35.4133 2.548 35.072 2.548 34.688C2.548 34.304 2.68667 33.9733 2.964 33.696C3.24133 33.3973 3.58267 33.248 3.988 33.248C4.39333 33.248 4.73467 33.3973 5.012 33.696C5.28933 33.9733 5.428 34.304 5.428 34.688C5.428 35.072 5.28933 35.4133 5.012 35.712C4.73467 35.9893 4.39333 36.128 3.988 36.128ZM3.988 24.16C3.58267 24.16 3.24133 24.0213 2.964 23.744C2.68667 23.4453 2.548 23.104 2.548 22.72C2.548 22.336 2.68667 22.0053 2.964 21.728C3.24133 21.4293 3.58267 21.28 3.988 21.28C4.39333 21.28 4.73467 21.4293 5.012 21.728C5.28933 22.0053 5.428 22.336 5.428 22.72C5.428 23.104 5.28933 23.4453 5.012 23.744C4.73467 24.0213 4.39333 24.16 3.988 24.16ZM20.0448 36.32C18.0608 36.32 16.2901 35.872 14.7328 34.976C13.1754 34.0587 11.9488 32.832 11.0528 31.296C10.1568 29.7387 9.70875 27.9787 9.70875 26.016C9.70875 24.3947 9.98608 22.8907 10.5408 21.504C11.1168 20.1173 11.9061 18.9013 12.9088 17.856C13.9114 16.8107 15.0634 16 16.3648 15.424C17.6874 14.848 19.0954 14.56 20.5888 14.56C22.0821 14.56 23.2874 14.72 24.2048 15.04C25.1221 15.36 26.0181 15.7227 26.8928 16.128L27.0528 21.088H26.3808L25.1007 17.408C24.2688 16.7893 23.4794 16.3307 22.7328 16.032C22.0074 15.712 21.2074 15.552 20.3328 15.552C18.5834 15.552 17.0474 15.968 15.7248 16.8C14.4021 17.632 13.3568 18.752 12.5888 20.16C11.8421 21.5467 11.4688 23.072 11.4688 24.736C11.4688 26.848 11.8634 28.6933 12.6528 30.272C13.4421 31.8507 14.5194 33.088 15.8848 33.984C17.2501 34.8587 18.7861 35.296 20.4928 35.296C21.4741 35.296 22.3168 35.1787 23.0208 34.944C23.7248 34.7093 24.3861 34.4 25.0048 34.016L26.7328 29.984H27.3728L27.0848 34.752C26.4661 35.072 25.8368 35.3493 25.1968 35.584C24.5568 35.8187 23.8208 36 22.9888 36.128C22.1781 36.256 21.1968 36.32 20.0448 36.32ZM41.1605 36.16L33.3845 16.192L31.4325 15.68V14.88H38.2485V15.68L35.5605 16.128V16.224L41.8965 32.928H42.1205L48.2325 16.224V16.128L45.4165 15.68V14.88H51.3685V15.68L49.7045 16.032L41.8325 36.16H41.1605Z" fill="black"/>
</svg>
