<svg width="348" height="348" viewBox="0 0 348 348" fill="none" xmlns="http://www.w3.org/2000/svg">
<rect x="2" y="2" width="344" height="344" rx="8" fill="black" fill-opacity="0.4"/>
<line x1="174.4" y1="26" x2="174.4" y2="322" stroke="#FAFAFA" stroke-width="0.8"/>
<line x1="26" y1="173.6" x2="322" y2="173.6" stroke="#FAFAFA" stroke-width="0.8"/>
<g clip-path="url(#clip0_1336_247)">
<path d="M238.1 113.5C256.209 113.5 266.117 98.4934 266.117 85.4837C266.117 85.0618 266.107 84.6306 266.088 84.2087C268.016 82.8149 269.679 81.0885 271 79.1106C269.205 79.9092 267.299 80.4308 265.348 80.6575C267.403 79.4258 268.941 77.4909 269.678 75.2115C267.745 76.3571 265.631 77.1652 263.427 77.6012C261.942 76.0231 259.978 74.9782 257.839 74.6281C255.701 74.278 253.506 74.6421 251.595 75.6642C249.685 76.6863 248.164 78.3094 247.268 80.2826C246.372 82.2558 246.151 84.4692 246.639 86.5806C242.725 86.3842 238.896 85.3674 235.4 83.5962C231.904 81.825 228.819 79.3389 226.346 76.299C225.089 78.4665 224.704 81.0313 225.27 83.4722C225.836 85.9131 227.31 88.0469 229.393 89.44C227.829 89.3903 226.3 88.9694 224.931 88.2118V88.3337C224.93 90.6083 225.716 92.8132 227.157 94.5735C228.597 96.3339 230.603 97.5411 232.832 97.99C231.384 98.3863 229.864 98.444 228.39 98.1587C229.019 100.115 230.243 101.826 231.892 103.053C233.54 104.28 235.53 104.961 237.585 105.002C234.097 107.742 229.788 109.228 225.353 109.221C224.567 109.22 223.781 109.172 223 109.077C227.506 111.967 232.747 113.503 238.1 113.5Z" fill="#FAFAFA"/>
</g>
<g clip-path="url(#clip1_1336_247)">
<path fill-rule="evenodd" clip-rule="evenodd" d="M247.001 231C241.303 231.003 235.792 233.021 231.454 236.693C227.115 240.365 224.232 245.452 223.319 251.044C222.406 256.636 223.524 262.368 226.472 267.216C229.42 272.064 234.006 275.712 239.41 277.506C240.602 277.727 241.051 276.988 241.051 276.36C241.051 275.732 241.027 273.91 241.019 271.918C234.343 273.361 232.932 269.101 232.932 269.101C231.843 266.335 230.269 265.608 230.269 265.608C228.091 264.13 230.432 264.158 230.432 264.158C232.845 264.327 234.112 266.619 234.112 266.619C236.25 270.267 239.728 269.212 241.095 268.595C241.31 267.05 241.933 265.999 242.621 265.402C237.288 264.802 231.684 262.755 231.684 253.611C231.651 251.239 232.536 248.946 234.156 247.205C233.91 246.605 233.087 244.178 234.39 240.883C234.39 240.883 236.405 240.243 240.992 243.329C244.925 242.259 249.076 242.259 253.009 243.329C257.592 240.243 259.603 240.883 259.603 240.883C260.91 244.171 260.087 246.597 259.841 247.205C261.466 248.946 262.353 251.244 262.317 253.619C262.317 262.782 256.701 264.802 251.36 265.39C252.219 266.133 252.986 267.584 252.986 269.812C252.986 273.005 252.958 275.574 252.958 276.36C252.958 276.996 253.391 277.739 254.607 277.506C260.012 275.711 264.598 272.063 267.546 267.215C270.494 262.366 271.611 256.633 270.697 251.04C269.783 245.448 266.899 240.361 262.559 236.689C258.219 233.018 252.707 231.001 247.008 231H247.001Z" fill="#FAFAFA"/>
<path d="M232.089 265.264C232.037 265.383 231.846 265.418 231.691 265.335C231.536 265.252 231.421 265.098 231.477 264.976C231.532 264.853 231.719 264.822 231.874 264.905C232.029 264.988 232.148 265.146 232.089 265.264Z" fill="#FAFAFA"/>
<path d="M233.062 266.343C232.98 266.384 232.886 266.396 232.796 266.375C232.706 266.355 232.626 266.305 232.57 266.232C232.415 266.066 232.383 265.837 232.502 265.734C232.621 265.631 232.836 265.679 232.991 265.845C233.146 266.011 233.182 266.24 233.062 266.343Z" fill="#FAFAFA"/>
<path d="M234.008 267.714C233.861 267.817 233.611 267.714 233.472 267.509C233.434 267.472 233.403 267.428 233.382 267.379C233.361 267.33 233.35 267.277 233.35 267.224C233.35 267.171 233.361 267.118 233.382 267.069C233.403 267.021 233.434 266.976 233.472 266.94C233.619 266.841 233.869 266.94 234.008 267.141C234.148 267.343 234.152 267.611 234.008 267.714V267.714Z" fill="#FAFAFA"/>
<path d="M235.292 269.041C235.161 269.188 234.895 269.148 234.676 268.951C234.458 268.753 234.406 268.484 234.537 268.342C234.668 268.2 234.935 268.239 235.161 268.433C235.388 268.627 235.431 268.899 235.292 269.041V269.041Z" fill="#FAFAFA"/>
<path d="M237.092 269.816C237.033 270.002 236.762 270.085 236.492 270.006C236.222 269.927 236.043 269.706 236.095 269.516C236.146 269.326 236.421 269.239 236.695 269.326C236.969 269.413 237.144 269.623 237.092 269.816Z" fill="#FAFAFA"/>
<path d="M239.056 269.95C239.056 270.144 238.833 270.31 238.547 270.314C238.261 270.318 238.026 270.16 238.026 269.966C238.026 269.773 238.249 269.607 238.535 269.603C238.821 269.599 239.056 269.753 239.056 269.95Z" fill="#FAFAFA"/>
<path d="M240.884 269.646C240.92 269.84 240.721 270.041 240.435 270.089C240.149 270.136 239.898 270.022 239.862 269.832C239.827 269.642 240.033 269.437 240.312 269.386C240.59 269.334 240.848 269.453 240.884 269.646Z" fill="#FAFAFA"/>
</g>
<g clip-path="url(#clip2_1336_247)">
<path d="M95 70H75C72.25 70 70 72.16 70 74.8V113.2C70 115.84 72.25 118 75 118H105C107.75 118 110 115.84 110 113.2V84.4L95 70ZM90 89.2C92.75 89.2 95 91.36 95 94C95 96.64 92.75 98.8 90 98.8C87.25 98.8 85 96.64 85 94C85 91.36 87.25 89.2 90 89.2ZM100 108.4H80V107.032C80 105.088 81.2 103.36 83.05 102.592C85.175 101.704 87.525 101.2 90 101.2C92.475 101.2 94.825 101.704 96.95 102.592C98.8 103.36 100 105.088 100 107.032V108.4Z" fill="#FAFAFA"/>
</g>
<g clip-path="url(#clip3_1336_247)">
<path d="M110.447 230H69.5437C67.5844 230 66 231.547 66 233.459V274.531C66 276.444 67.5844 278 69.5437 278H110.447C112.406 278 114 276.444 114 274.541V233.459C114 231.547 112.406 230 110.447 230ZM80.2406 270.903H73.1156V247.991H80.2406V270.903ZM76.6781 244.869C74.3906 244.869 72.5438 243.022 72.5438 240.744C72.5438 238.466 74.3906 236.619 76.6781 236.619C78.9563 236.619 80.8031 238.466 80.8031 240.744C80.8031 243.012 78.9563 244.869 76.6781 244.869ZM106.903 270.903H99.7875V259.766C99.7875 257.113 99.7406 253.691 96.0844 253.691C92.3812 253.691 91.8187 256.588 91.8187 259.578V270.903H84.7125V247.991H91.5375V251.122H91.6312C92.5781 249.322 94.9031 247.419 98.3625 247.419C105.572 247.419 106.903 252.163 106.903 258.331V270.903V270.903Z" fill="#FAFAFA"/>
</g>
<rect x="1.45" y="1.45" width="345.1" height="345.1" rx="8.55" stroke="black" stroke-opacity="0.4" stroke-width="1.1"/>
<defs>
<clipPath id="clip0_1336_247">
<rect width="48" height="48" fill="white" transform="translate(223 70)"/>
</clipPath>
<clipPath id="clip1_1336_247">
<rect width="48" height="48" fill="white" transform="translate(223 230)"/>
</clipPath>
<clipPath id="clip2_1336_247">
<rect width="48" height="48" fill="white" transform="translate(66 70)"/>
</clipPath>
<clipPath id="clip3_1336_247">
<rect width="48" height="48" fill="white" transform="translate(66 230)"/>
</clipPath>
</defs>
</svg>
