<svg width="56" height="56" viewBox="0 0 56 56" fill="none" xmlns="http://www.w3.org/2000/svg">
<circle cx="28" cy="28" r="28" fill="#424242"/>
<g clip-path="url(#clip0_1519_331)">
<path d="M36.4729 17.0186C36.3562 17.0186 36.2395 16.9894 36.1375 16.9311C33.3375 15.4873 30.9166 14.8748 28.0146 14.8748C25.1271 14.8748 22.3854 15.5603 19.8916 16.9311C19.5416 17.1207 19.1041 16.9894 18.9 16.6394C18.7104 16.2894 18.8416 15.8373 19.1916 15.6478C21.9041 14.1748 24.8791 13.4165 28.0146 13.4165C31.1208 13.4165 33.8333 14.1019 36.8083 15.6332C37.1729 15.8228 37.3041 16.2603 37.1145 16.6103C36.9833 16.8728 36.7354 17.0186 36.4729 17.0186ZM15.6041 24.6748C15.4583 24.6748 15.3125 24.6311 15.1812 24.5436C14.8458 24.3103 14.7729 23.8582 15.0062 23.5228C16.45 21.4811 18.2875 19.8769 20.475 18.754C25.0541 16.3915 30.9166 16.3769 35.5104 18.7394C37.6979 19.8623 39.5354 21.4519 40.9791 23.479C41.2125 23.7998 41.1396 24.2665 40.8041 24.4998C40.4687 24.7332 40.0166 24.6603 39.7833 24.3248C38.4708 22.4873 36.8083 21.0436 34.8396 20.0373C30.6541 17.8936 25.3021 17.8936 21.1312 20.0519C19.1479 21.0728 17.4854 22.5311 16.1729 24.3686C16.0562 24.5728 15.8375 24.6748 15.6041 24.6748ZM24.7187 42.2769C24.5291 42.2769 24.3396 42.204 24.2083 42.0582C22.9396 40.7894 22.2541 39.9728 21.2771 38.2082C20.2708 36.4144 19.7458 34.2269 19.7458 31.879C19.7458 27.5478 23.45 24.0186 28 24.0186C32.55 24.0186 36.2541 27.5478 36.2541 31.879C36.2541 32.2873 35.9333 32.6082 35.525 32.6082C35.1166 32.6082 34.7958 32.2873 34.7958 31.879C34.7958 28.3498 31.7479 25.4769 28 25.4769C24.2521 25.4769 21.2041 28.3498 21.2041 31.879C21.2041 33.979 21.6708 35.9186 22.5604 37.4936C23.4937 39.1707 24.1354 39.8853 25.2583 41.0228C25.5354 41.3144 25.5354 41.7665 25.2583 42.0582C25.0979 42.204 24.9083 42.2769 24.7187 42.2769ZM35.175 39.579C33.4395 39.579 31.9083 39.1415 30.6541 38.2811C28.4812 36.8082 27.1833 34.4165 27.1833 31.879C27.1833 31.4707 27.5041 31.1498 27.9125 31.1498C28.3208 31.1498 28.6416 31.4707 28.6416 31.879C28.6416 33.9353 29.6916 35.8748 31.4708 37.0707C32.5062 37.7707 33.7166 38.1061 35.175 38.1061C35.525 38.1061 36.1083 38.0623 36.6916 37.9603C37.0854 37.8873 37.4646 38.1498 37.5375 38.5582C37.6104 38.9519 37.3479 39.3311 36.9395 39.404C36.1083 39.5644 35.3791 39.579 35.175 39.579ZM32.2437 42.5832C32.1854 42.5832 32.1125 42.5686 32.0541 42.554C29.7354 41.9123 28.2187 41.0519 26.6291 39.4915C24.5875 37.4644 23.4646 34.7665 23.4646 31.879C23.4646 29.5165 25.4771 27.5915 27.9562 27.5915C30.4354 27.5915 32.4479 29.5165 32.4479 31.879C32.4479 33.4394 33.8041 34.7082 35.4812 34.7082C37.1583 34.7082 38.5145 33.4394 38.5145 31.879C38.5145 26.3811 33.775 21.9186 27.9416 21.9186C23.8 21.9186 20.0083 24.2228 18.3021 27.7957C17.7333 28.9769 17.4416 30.3623 17.4416 31.879C17.4416 33.0165 17.5437 34.8103 18.4187 37.1436C18.5646 37.5228 18.375 37.9457 17.9958 38.0769C17.6166 38.2228 17.1937 38.0186 17.0625 37.654C16.3479 35.7436 15.9979 33.8478 15.9979 31.879C15.9979 30.129 16.3333 28.5394 16.9896 27.154C18.9291 23.0853 23.2312 20.4457 27.9416 20.4457C34.5771 20.4457 39.9729 25.5644 39.9729 31.8644C39.9729 34.2269 37.9604 36.1519 35.4812 36.1519C33.002 36.1519 30.9896 34.2269 30.9896 31.8644C30.9896 30.304 29.6333 29.0353 27.9562 29.0353C26.2791 29.0353 24.9229 30.304 24.9229 31.8644C24.9229 34.3582 25.8854 36.6915 27.65 38.4415C29.0354 39.8123 30.3625 40.5707 32.4187 41.1394C32.8125 41.2415 33.0312 41.6498 32.9291 42.029C32.8562 42.3644 32.55 42.5832 32.2437 42.5832Z" fill="#FAFAFA"/>
</g>
<defs>
<clipPath id="clip0_1519_331">
<rect width="35" height="35" fill="white" transform="translate(10.5 10.5)"/>
</clipPath>
</defs>
</svg>
