<svg width="64" height="64" viewBox="0 0 64 64" fill="none" xmlns="http://www.w3.org/2000/svg">
<rect width="64" height="64" rx="16" fill="#FAFAFA"/>
<g clip-path="url(#clip0_1328_249)">
<path d="M18.68 36L46.6667 24L18.68 12L18.6667 21.3333L38.6667 24L18.6667 26.6667L18.68 36Z" fill="black"/>
</g>
<path d="M7.6843 51V50.7L8.6443 50.496V43.584L7.6843 43.38V43.08H10.0603C10.9003 43.08 11.5603 43.256 12.0403 43.608C12.5283 43.952 12.7723 44.428 12.7723 45.036C12.7723 45.516 12.6163 45.924 12.3043 46.26C12.0003 46.596 11.5963 46.844 11.0923 47.004L13.4083 50.544L14.2003 50.7V51H12.8083L10.4083 47.244H9.3643V50.484L10.2643 50.7V51H7.6843ZM10.1443 43.5H9.3643V46.824H10.2163C10.7203 46.824 11.1363 46.672 11.4643 46.368C11.8003 46.056 11.9683 45.664 11.9683 45.192C11.9683 44.672 11.8043 44.26 11.4763 43.956C11.1483 43.652 10.7043 43.5 10.1443 43.5ZM14.9148 51V50.7L15.8508 50.496V43.584L14.9148 43.38V43.08H20.2908V45.024H20.0508L19.5468 43.5H16.5708V46.704H18.7548L19.0548 45.708H19.2948V48.096H19.0548L18.7548 47.124H16.5708V50.58H19.8828L20.3868 48.936H20.6268V51H14.9148ZM21.8667 51V50.7L22.5027 50.556L25.5627 43.02H25.8147L28.8627 50.544L29.5827 50.7V51H27.0267V50.7L28.0467 50.544L27.0387 48H24.0027L23.0307 50.544L24.0987 50.7V51H21.8667ZM24.1707 47.58H26.8707L25.5027 44.112L24.1707 47.58ZM30.7585 51V50.7L31.7185 50.496V43.584L30.7585 43.38V43.08H33.5545C34.4345 43.08 35.1865 43.236 35.8105 43.548C36.4345 43.86 36.9065 44.288 37.2265 44.832C37.5545 45.376 37.7185 45.992 37.7185 46.68C37.7185 47.568 37.5425 48.336 37.1905 48.984C36.8465 49.624 36.3585 50.12 35.7265 50.472C35.0945 50.824 34.3425 51 33.4705 51H30.7585ZM33.6385 43.5H32.4385V50.58H33.6985C34.3545 50.58 34.9225 50.432 35.4025 50.136C35.8905 49.832 36.2665 49.416 36.5305 48.888C36.8025 48.36 36.9385 47.748 36.9385 47.052C36.9385 46.34 36.8105 45.716 36.5545 45.18C36.2985 44.644 35.9225 44.232 35.4265 43.944C34.9385 43.648 34.3425 43.5 33.6385 43.5ZM39.3842 51.048C39.2322 51.048 39.1042 50.996 39.0002 50.892C38.8962 50.78 38.8442 50.652 38.8442 50.508C38.8442 50.364 38.8962 50.24 39.0002 50.136C39.1042 50.024 39.2322 49.968 39.3842 49.968C39.5362 49.968 39.6642 50.024 39.7682 50.136C39.8722 50.24 39.9242 50.364 39.9242 50.508C39.9242 50.652 39.8722 50.78 39.7682 50.892C39.6642 50.996 39.5362 51.048 39.3842 51.048ZM44.925 51.12C44.181 51.12 43.517 50.952 42.933 50.616C42.349 50.272 41.889 49.812 41.553 49.236C41.217 48.652 41.049 47.992 41.049 47.256C41.049 46.648 41.153 46.084 41.361 45.564C41.577 45.044 41.873 44.588 42.249 44.196C42.625 43.804 43.057 43.5 43.545 43.284C44.041 43.068 44.569 42.96 45.129 42.96C45.689 42.96 46.141 43.02 46.485 43.14C46.829 43.26 47.165 43.396 47.493 43.548L47.553 45.408H47.301L46.821 44.028C46.509 43.796 46.213 43.624 45.933 43.512C45.661 43.392 45.361 43.332 45.033 43.332C44.377 43.332 43.801 43.488 43.305 43.8C42.809 44.112 42.417 44.532 42.129 45.06C41.849 45.58 41.709 46.152 41.709 46.776C41.709 47.568 41.857 48.26 42.153 48.852C42.449 49.444 42.853 49.908 43.365 50.244C43.877 50.572 44.453 50.736 45.093 50.736C45.461 50.736 45.777 50.692 46.041 50.604C46.305 50.516 46.553 50.4 46.785 50.256L47.433 48.744H47.673L47.565 50.532C47.333 50.652 47.097 50.756 46.857 50.844C46.617 50.932 46.341 51 46.029 51.048C45.725 51.096 45.357 51.12 44.925 51.12ZM52.8434 51.06L49.9274 43.572L49.1954 43.38V43.08H51.7514V43.38L50.7434 43.548V43.584L53.1194 49.848H53.2034L55.4954 43.584V43.548L54.4394 43.38V43.08H56.6714V43.38L56.0474 43.512L53.0954 51.06H52.8434Z" fill="black"/>
<rect x="0.08" y="0.08" width="63.84" height="63.84" rx="15.92" stroke="black" stroke-opacity="0.4" stroke-width="0.16"/>
<defs>
<clipPath id="clip0_1328_249">
<rect width="32" height="32" fill="white" transform="translate(16 8)"/>
</clipPath>
</defs>
</svg>
