<svg width="20" height="20" viewBox="0 0 20 20" fill="none" xmlns="http://www.w3.org/2000/svg">
<circle cx="9.75" cy="9.75" r="9.75" fill="#FAFAFA"/>
<g clip-path="url(#clip0_1192_468)">
<path d="M9.75 2.99976C6.024 2.99976 3 6.02345 3 9.74908C3 13.4747 6.024 16.4984 9.75 16.4984H13.125V15.1485H9.75C6.8205 15.1485 4.35 12.6783 4.35 9.74908C4.35 6.81987 6.8205 4.34962 9.75 4.34962C12.6795 4.34962 15.15 6.81987 15.15 9.74908V10.7142C15.15 11.2474 14.6708 11.7739 14.1375 11.7739C13.6043 11.7739 13.125 11.2474 13.125 10.7142V9.74908C13.125 7.88627 11.613 6.37442 9.75 6.37442C7.887 6.37442 6.375 7.88627 6.375 9.74908C6.375 11.6119 7.887 13.1237 9.75 13.1237C10.6815 13.1237 11.532 12.7458 12.1395 12.1316C12.5783 12.7323 13.3343 13.1237 14.1375 13.1237C15.4673 13.1237 16.5 12.0439 16.5 10.7142V9.74908C16.5 6.02345 13.476 2.99976 9.75 2.99976ZM9.75 11.7739C8.6295 11.7739 7.725 10.8695 7.725 9.74908C7.725 8.62869 8.6295 7.72428 9.75 7.72428C10.8705 7.72428 11.775 8.62869 11.775 9.74908C11.775 10.8695 10.8705 11.7739 9.75 11.7739Z" fill="black"/>
</g>
<defs>
<clipPath id="clip0_1192_468">
<rect width="13.5" height="13.4986" fill="white" transform="translate(3 2.99976)"/>
</clipPath>
</defs>
</svg>
