<svg width="24" height="24" viewBox="0 0 24 24" fill="none" xmlns="http://www.w3.org/2000/svg">
<circle cx="12" cy="12" r="12" fill="#FAFAFA"/>
<g clip-path="url(#clip0_1581_329)">
<path d="M12.1 4C7.6288 4 4 7.6288 4 12.1C4 16.5712 7.6288 20.2 12.1 20.2H16.15V18.58H12.1C8.5846 18.58 5.62 15.6154 5.62 12.1C5.62 8.5846 8.5846 5.62 12.1 5.62C15.6154 5.62 18.58 8.5846 18.58 12.1V13.2583C18.58 13.8982 18.0049 14.53 17.365 14.53C16.7251 14.53 16.15 13.8982 16.15 13.2583V12.1C16.15 9.8644 14.3356 8.05 12.1 8.05C9.8644 8.05 8.05 9.8644 8.05 12.1C8.05 14.3356 9.8644 16.15 12.1 16.15C13.2178 16.15 14.2384 15.6964 14.9674 14.9593C15.4939 15.6802 16.4011 16.15 17.365 16.15C18.9607 16.15 20.2 14.854 20.2 13.2583V12.1C20.2 7.6288 16.5712 4 12.1 4ZM12.1 14.53C10.7554 14.53 9.67 13.4446 9.67 12.1C9.67 10.7554 10.7554 9.67 12.1 9.67C13.4446 9.67 14.53 10.7554 14.53 12.1C14.53 13.4446 13.4446 14.53 12.1 14.53Z" fill="black"/>
</g>
<defs>
<clipPath id="clip0_1581_329">
<rect width="16.2" height="16.2" fill="white" transform="translate(4 4)"/>
</clipPath>
</defs>
</svg>
