<svg width="24" height="24" viewBox="0 0 24 24" fill="none" xmlns="http://www.w3.org/2000/svg">
<circle cx="12" cy="12" r="12" fill="#FAFAFA"/>
<path d="M13.6667 5H8.33333C7.6 5 7 5.6 7 6.33333V17C7 17.7333 7.6 18.3333 8.33333 18.3333H16.3333C17.0667 18.3333 17.6667 17.7333 17.6667 17V9L13.6667 5ZM12.3333 10.3333C13.0667 10.3333 13.6667 10.9333 13.6667 11.6667C13.6667 12.4 13.0667 13 12.3333 13C11.6 13 11 12.4 11 11.6667C11 10.9333 11.6 10.3333 12.3333 10.3333ZM15 15.6667H9.66667V15.2867C9.66667 14.7467 9.98667 14.2667 10.48 14.0533C11.0467 13.8067 11.6733 13.6667 12.3333 13.6667C12.9933 13.6667 13.62 13.8067 14.1867 14.0533C14.68 14.2667 15 14.7467 15 15.2867V15.6667Z" fill="black"/>
</svg>
