<svg width="24" height="24" viewBox="0 0 24 24" fill="none" xmlns="http://www.w3.org/2000/svg">
<circle cx="12" cy="12" r="12" fill="#FAFAFA"/>
<g clip-path="url(#clip0_1591_329)">
<path fill-rule="evenodd" clip-rule="evenodd" d="M12.1002 4.33752C10.1773 4.33852 8.31739 5.01952 6.85314 6.25874C5.38888 7.49795 4.41573 9.21459 4.10769 11.1017C3.79965 12.9888 4.1768 14.9233 5.17171 16.5593C6.16662 18.1953 7.71442 19.4262 9.53833 20.0317C9.94071 20.1064 10.0923 19.857 10.0923 19.645C10.0923 19.433 10.0842 18.8182 10.0815 18.1461C7.82819 18.6328 7.35204 17.1953 7.35204 17.1953C6.98453 16.2619 6.45338 16.0165 6.45338 16.0165C5.71836 15.5177 6.50838 15.5271 6.50838 15.5271C7.32253 15.5844 7.7504 16.3579 7.7504 16.3579C8.47201 17.5887 9.64563 17.2327 10.107 17.0246C10.1795 16.5032 10.39 16.1485 10.6221 15.9471C8.82209 15.7444 6.93088 15.0537 6.93088 11.9679C6.91972 11.1676 7.21841 10.3937 7.76516 9.80629C7.682 9.60359 7.40435 8.78481 7.84429 7.67266C7.84429 7.67266 8.52432 7.45663 10.0722 8.49811C11.3998 8.13714 12.8006 8.13714 14.1282 8.49811C15.6747 7.45663 16.3534 7.67266 16.3534 7.67266C16.7947 8.78214 16.517 9.60093 16.4339 9.80629C16.9823 10.3938 17.2817 11.1691 17.2695 11.9706C17.2695 15.063 15.3742 15.7444 13.5716 15.9431C13.8613 16.1938 14.1201 16.6832 14.1201 17.4353C14.1201 18.5128 14.1108 19.3796 14.1108 19.645C14.1108 19.8597 14.257 20.1104 14.6674 20.0317C16.4915 19.4261 18.0395 18.195 19.0344 16.5588C20.0292 14.9225 20.4062 12.9877 20.0978 11.1004C19.7894 9.2131 18.8158 7.49645 17.351 6.25744C15.8863 5.01843 14.026 4.33789 12.1029 4.33752H12.1002Z" fill="#191717"/>
<path d="M7.0675 15.9004C7.05006 15.9404 6.98568 15.9524 6.93337 15.9244C6.88106 15.8964 6.84216 15.8444 6.86094 15.803C6.87972 15.7617 6.94276 15.751 6.99507 15.779C7.04738 15.807 7.08761 15.8604 7.0675 15.9004Z" fill="#191717"/>
<path d="M7.39612 16.2645C7.36834 16.2784 7.33656 16.2823 7.30622 16.2755C7.27588 16.2687 7.24887 16.2516 7.2298 16.2272C7.17749 16.1712 7.16676 16.0938 7.20699 16.0591C7.24723 16.0245 7.31967 16.0405 7.37198 16.0965C7.42429 16.1525 7.43636 16.2298 7.39612 16.2645Z" fill="#191717"/>
<path d="M7.71537 16.7272C7.66574 16.7619 7.58123 16.7272 7.53429 16.6578C7.52131 16.6454 7.51098 16.6305 7.50393 16.614C7.49688 16.5975 7.49324 16.5797 7.49324 16.5618C7.49324 16.5439 7.49688 16.5262 7.50393 16.5097C7.51098 16.4932 7.52131 16.4783 7.53429 16.4658C7.58391 16.4325 7.66842 16.4658 7.71537 16.5338C7.76231 16.6018 7.76365 16.6925 7.71537 16.7272V16.7272Z" fill="#191717"/>
<path d="M8.14859 17.1752C8.10432 17.2245 8.01446 17.2112 7.94069 17.1445C7.86692 17.0779 7.84948 16.9872 7.89374 16.9392C7.938 16.8912 8.02787 16.9045 8.10432 16.9698C8.18078 17.0352 8.19553 17.1272 8.14859 17.1752V17.1752Z" fill="#191717"/>
<path d="M8.75617 17.4367C8.73605 17.4993 8.64484 17.5273 8.55363 17.5007C8.46243 17.474 8.40207 17.3993 8.4195 17.3353C8.43694 17.2713 8.52949 17.242 8.62204 17.2713C8.71459 17.3006 8.7736 17.3713 8.75617 17.4367Z" fill="#191717"/>
<path d="M9.41879 17.482C9.41879 17.5473 9.34368 17.6033 9.24711 17.6047C9.15054 17.606 9.0714 17.5527 9.0714 17.4873C9.0714 17.422 9.14651 17.366 9.24308 17.3646C9.33965 17.3633 9.41879 17.4153 9.41879 17.482Z" fill="#191717"/>
<path d="M10.0358 17.3793C10.0479 17.4446 9.98079 17.5126 9.88421 17.5286C9.78764 17.5446 9.70314 17.506 9.69107 17.442C9.679 17.378 9.74874 17.3086 9.84263 17.2913C9.93652 17.2739 10.0237 17.3139 10.0358 17.3793Z" fill="#191717"/>
</g>
<defs>
<clipPath id="clip0_1591_329">
<rect width="16.2" height="16.1984" fill="white" transform="translate(4 4)"/>
</clipPath>
</defs>
</svg>
