<svg width="24" height="24" viewBox="0 0 24 24" fill="none" xmlns="http://www.w3.org/2000/svg">
<circle cx="12" cy="12" r="12" fill="#FAFAFA"/>
<g clip-path="url(#clip0_1581_325)">
<path d="M9.93237 17.327C14.6482 17.327 17.2283 13.4194 17.2283 10.0318C17.2283 9.92197 17.2258 9.80968 17.2209 9.69983C17.7229 9.3369 18.156 8.88735 18.5 8.37232C18.0326 8.58027 17.5363 8.71608 17.0281 8.77512C17.5632 8.4544 17.9638 7.95058 18.1558 7.35704C17.6524 7.65534 17.1019 7.86577 16.5278 7.9793C16.1411 7.56837 15.6297 7.2963 15.0728 7.20512C14.5158 7.11395 13.9444 7.20877 13.4467 7.47491C12.9491 7.74106 12.553 8.1637 12.3197 8.67751C12.0864 9.19131 12.0289 9.76766 12.156 10.3174C11.1367 10.2663 10.1396 10.0015 9.22916 9.54033C8.31876 9.07913 7.51547 8.43177 6.87134 7.64022C6.54396 8.2046 6.44378 8.87245 6.59116 9.50804C6.73854 10.1436 7.12243 10.6993 7.66479 11.062C7.25762 11.0491 6.85936 10.9395 6.50293 10.7422V10.7739C6.50256 11.3662 6.70734 11.9403 7.08245 12.3987C7.45756 12.8571 7.97986 13.1715 8.56055 13.2883C8.18336 13.3915 7.78749 13.4066 7.40356 13.3323C7.56742 13.8416 7.88624 14.2871 8.31551 14.6066C8.74478 14.9261 9.26308 15.1036 9.7981 15.1143C8.8898 15.8277 7.7678 16.2147 6.61279 16.2128C6.40796 16.2125 6.20333 16.2 6 16.1753C7.17336 16.928 8.5383 17.3277 9.93237 17.327Z" fill="black"/>
</g>
<defs>
<clipPath id="clip0_1581_325">
<rect width="12.5" height="12.4987" fill="white" transform="translate(6 6)"/>
</clipPath>
</defs>
</svg>
