<svg width="24" height="24" viewBox="0 0 24 24" fill="none" xmlns="http://www.w3.org/2000/svg">
<circle cx="12" cy="12" r="12" fill="#FAFAFA"/>
<g clip-path="url(#clip0_1581_329)">
<path d="M11.75 5C8.024 5 5 8.0237 5 11.7493C5 15.475 8.024 18.4986 11.75 18.4986H15.125V17.1488H11.75C8.8205 17.1488 6.35 14.6785 6.35 11.7493C6.35 8.82012 8.8205 6.34986 11.75 6.34986C14.6795 6.34986 17.15 8.82012 17.15 11.7493V12.7145C17.15 13.2477 16.6708 13.7741 16.1375 13.7741C15.6043 13.7741 15.125 13.2477 15.125 12.7145V11.7493C15.125 9.88651 13.613 8.37466 11.75 8.37466C9.887 8.37466 8.375 9.88651 8.375 11.7493C8.375 13.6121 9.887 15.124 11.75 15.124C12.6815 15.124 13.532 14.746 14.1395 14.1318C14.5783 14.7325 15.3343 15.124 16.1375 15.124C17.4673 15.124 18.5 14.0441 18.5 12.7145V11.7493C18.5 8.0237 15.476 5 11.75 5ZM11.75 13.7741C10.6295 13.7741 9.725 12.8697 9.725 11.7493C9.725 10.6289 10.6295 9.72453 11.75 9.72453C12.8705 9.72453 13.775 10.6289 13.775 11.7493C13.775 12.8697 12.8705 13.7741 11.75 13.7741Z" fill="black"/>
</g>
<defs>
<clipPath id="clip0_1581_329">
<rect width="13.5" height="13.4986" fill="white" transform="translate(5 5)"/>
</clipPath>
</defs>
</svg>
