<svg width="24" height="24" viewBox="0 0 24 24" fill="none" xmlns="http://www.w3.org/2000/svg">
<circle cx="12" cy="12" r="12" fill="#FAFAFA"/>
<path d="M13.9188 4H7.58375C6.71269 4 6 4.68985 6 5.533V17.797C6 18.6402 6.71269 19.33 7.58375 19.33H17.0863C17.9573 19.33 18.67 18.6402 18.67 17.797V8.599L13.9188 4ZM12.335 10.132C13.2061 10.132 13.9188 10.8218 13.9188 11.665C13.9188 12.5082 13.2061 13.198 12.335 13.198C11.4639 13.198 10.7512 12.5082 10.7512 11.665C10.7512 10.8218 11.4639 10.132 12.335 10.132ZM15.5025 16.264H9.1675V15.8271C9.1675 15.2062 9.5476 14.6543 10.1336 14.4091C10.8067 14.1255 11.551 13.9645 12.335 13.9645C13.119 13.9645 13.8633 14.1255 14.5364 14.4091C15.1224 14.6543 15.5025 15.2062 15.5025 15.8271V16.264Z" fill="black"/>
</svg>
