<svg width="24" height="24" viewBox="0 0 24 24" fill="none" xmlns="http://www.w3.org/2000/svg">
<circle cx="12" cy="12" r="12" fill="#FAFAFA"/>
<g clip-path="url(#clip0_1591_329)">
<path fill-rule="evenodd" clip-rule="evenodd" d="M11.7501 5.28125C10.1477 5.28208 8.59782 5.84958 7.37761 6.88226C6.1574 7.91494 5.34645 9.34547 5.08974 10.9181C4.83304 12.4906 5.14733 14.1027 5.97643 15.4661C6.80552 16.8294 8.09535 17.8551 9.61527 18.3597C9.95059 18.422 10.0769 18.2142 10.0769 18.0375C10.0769 17.8608 10.0702 17.3485 10.068 16.7884C8.19016 17.194 7.79337 15.9961 7.79337 15.9961C7.48711 15.2182 7.04448 15.0137 7.04448 15.0137C6.43196 14.5981 7.09031 14.6059 7.09031 14.6059C7.76878 14.6537 8.12534 15.2982 8.12534 15.2982C8.72668 16.3239 9.70469 16.0272 10.0892 15.8538C10.1495 15.4193 10.325 15.1237 10.5184 14.9559C9.0184 14.787 7.4424 14.2114 7.4424 11.6399C7.4331 10.973 7.68201 10.3281 8.13763 9.83855C8.06833 9.66964 7.83696 8.98732 8.20357 8.06053C8.20357 8.06053 8.77027 7.8805 10.0601 8.7484C11.1665 8.4476 12.3338 8.4476 13.4402 8.7484C14.7289 7.8805 15.2945 8.06053 15.2945 8.06053C15.6622 8.9851 15.4308 9.66742 15.3615 9.83855C15.8186 10.3282 16.068 10.9742 16.0579 11.6421C16.0579 14.2192 14.4785 14.787 12.9763 14.9526C13.2177 15.1615 13.4335 15.5693 13.4335 16.1961C13.4335 17.094 13.4256 17.8163 13.4256 18.0375C13.4256 18.2164 13.5475 18.4253 13.8895 18.3597C15.4096 17.855 16.6995 16.8292 17.5286 15.4656C18.3577 14.102 18.6718 12.4897 18.4148 10.917C18.1578 9.34423 17.3465 7.91369 16.1259 6.88118C14.9053 5.84867 13.355 5.28155 11.7524 5.28125H11.7501Z" fill="#191717"/>
<path d="M7.55625 14.917C7.54171 14.9503 7.48806 14.9603 7.44447 14.937C7.40088 14.9137 7.36847 14.8703 7.38412 14.8359C7.39977 14.8014 7.4523 14.7925 7.49589 14.8159C7.53948 14.8392 7.57301 14.8837 7.55625 14.917Z" fill="#191717"/>
<path d="M7.8301 15.2204C7.80695 15.232 7.78047 15.2352 7.75519 15.2296C7.7299 15.2239 7.70739 15.2096 7.6915 15.1893C7.64791 15.1426 7.63896 15.0782 7.6725 15.0493C7.70603 15.0204 7.76639 15.0337 7.80998 15.0804C7.85357 15.127 7.86363 15.1915 7.8301 15.2204Z" fill="#191717"/>
<path d="M8.09614 15.606C8.05478 15.6349 7.98436 15.606 7.94524 15.5482C7.93442 15.5379 7.92582 15.5254 7.91994 15.5117C7.91407 15.4979 7.91103 15.4831 7.91103 15.4682C7.91103 15.4533 7.91407 15.4385 7.91994 15.4247C7.92582 15.411 7.93442 15.3986 7.94524 15.3882C7.9866 15.3604 8.05702 15.3882 8.09614 15.4449C8.13526 15.5015 8.13638 15.5771 8.09614 15.606V15.606Z" fill="#191717"/>
<path d="M8.45716 15.9793C8.42027 16.0204 8.34538 16.0093 8.28391 15.9538C8.22243 15.8982 8.2079 15.8226 8.24478 15.7826C8.28167 15.7426 8.35656 15.7537 8.42027 15.8082C8.48398 15.8626 8.49628 15.9393 8.45716 15.9793V15.9793Z" fill="#191717"/>
<path d="M8.96347 16.1972C8.94671 16.2495 8.8707 16.2728 8.79469 16.2506C8.71869 16.2283 8.66839 16.1661 8.68292 16.1128C8.69745 16.0594 8.77458 16.035 8.8517 16.0594C8.92882 16.0839 8.978 16.1428 8.96347 16.1972Z" fill="#191717"/>
<path d="M9.51566 16.235C9.51566 16.2895 9.45307 16.3361 9.37259 16.3373C9.29211 16.3384 9.22617 16.2939 9.22617 16.2395C9.22617 16.185 9.28876 16.1383 9.36923 16.1372C9.44971 16.1361 9.51566 16.1795 9.51566 16.235Z" fill="#191717"/>
<path d="M10.0298 16.1493C10.0399 16.2038 9.98399 16.2605 9.90351 16.2738C9.82303 16.2871 9.75262 16.2549 9.74256 16.2016C9.7325 16.1482 9.79062 16.0905 9.86886 16.076C9.9471 16.0616 10.0198 16.0949 10.0298 16.1493Z" fill="#191717"/>
</g>
<defs>
<clipPath id="clip0_1591_329">
<rect width="13.5" height="13.4986" fill="white" transform="translate(5 5)"/>
</clipPath>
</defs>
</svg>
