<svg width="848" height="1152" viewBox="0 0 848 1152" fill="none" xmlns="http://www.w3.org/2000/svg">
<rect width="848" height="1152" fill="#FAFAFA"/>
<path d="M424 450C354.448 450 298 506.448 298 576C298 645.552 354.448 702 424 702C493.552 702 550 645.552 550 576C550 506.448 493.552 450 424 450ZM411.4 675.918C361.63 669.744 323.2 627.408 323.2 576C323.2 568.188 324.208 560.754 325.846 553.446L386.2 613.8V626.4C386.2 640.26 397.54 651.6 411.4 651.6V675.918ZM498.34 643.914C495.064 633.708 485.74 626.4 474.4 626.4H461.8V588.6C461.8 581.67 456.13 576 449.2 576H373.6V550.8H398.8C405.73 550.8 411.4 545.13 411.4 538.2V513H436.6C450.46 513 461.8 501.66 461.8 487.8V482.634C498.718 497.628 524.8 533.79 524.8 576C524.8 602.208 514.72 626.022 498.34 643.914Z" fill="#AAAAAA"/>
</svg>
