<svg width="848" height="640" viewBox="0 0 848 640" fill="none" xmlns="http://www.w3.org/2000/svg">
<rect width="848" height="640" fill="#FAFAFA"/>
<path d="M88.6372 217.88V217.04L92.1652 216.088V181.928L88.0772 181.424V180.584L94.1252 179.24H94.6852L94.9092 182.712H95.1892C96.6079 181.517 97.9706 180.64 99.2772 180.08C100.621 179.52 102.059 179.24 103.589 179.24C105.456 179.24 107.117 179.725 108.573 180.696C110.029 181.667 111.168 183.048 111.989 184.84C112.848 186.595 113.277 188.704 113.277 191.168C113.277 194.229 112.68 196.843 111.485 199.008C110.291 201.136 108.704 202.76 106.725 203.88C104.747 205 102.563 205.56 100.173 205.56C99.3519 205.56 98.4932 205.411 97.5972 205.112C96.7012 204.851 95.8239 204.496 94.9652 204.048V216.088L98.9412 217.04V217.88H88.6372ZM102.077 181.144C100.696 181.144 99.4079 181.387 98.2132 181.872C97.0559 182.357 95.9732 183.048 94.9652 183.944V201.808C96.1226 202.555 97.2612 203.133 98.3812 203.544C99.5012 203.917 100.752 204.104 102.133 204.104C103.664 204.104 105.064 203.712 106.333 202.928C107.64 202.144 108.685 200.875 109.469 199.12C110.253 197.328 110.645 194.976 110.645 192.064C110.645 189.563 110.235 187.509 109.413 185.904C108.592 184.261 107.509 183.067 106.165 182.32C104.859 181.536 103.496 181.144 102.077 181.144ZM132.565 205.56C129.915 205.56 127.675 205 125.845 203.88C124.053 202.76 122.691 201.248 121.757 199.344C120.861 197.44 120.413 195.293 120.413 192.904C120.413 190.365 120.936 188.069 121.981 186.016C123.064 183.963 124.464 182.32 126.181 181.088C127.936 179.856 129.84 179.24 131.893 179.24C134.843 179.24 137.157 180.211 138.837 182.152C140.517 184.093 141.488 186.781 141.749 190.216L141.581 190.384H123.269C123.232 190.944 123.213 191.541 123.213 192.176C123.213 195.461 124.091 198.131 125.845 200.184C127.637 202.2 130.139 203.208 133.349 203.208C135.104 203.208 136.691 202.947 138.109 202.424C139.565 201.901 140.704 201.192 141.525 200.296H141.693V201.024C140.872 202.331 139.659 203.413 138.053 204.272C136.485 205.131 134.656 205.56 132.565 205.56ZM131.221 180.472C129.392 180.472 127.749 181.237 126.293 182.768C124.837 184.261 123.885 186.389 123.437 189.152H138.669C138.296 186.427 137.531 184.299 136.373 182.768C135.216 181.237 133.499 180.472 131.221 180.472ZM153.87 205.56C152.153 205.56 150.716 205.056 149.558 204.048C148.401 203.003 147.822 201.565 147.822 199.736C147.822 197.944 148.457 196.451 149.726 195.256C151.033 194.061 153.18 193.091 156.166 192.344L161.654 190.944V186.296C161.654 184.691 161.076 183.403 159.918 182.432C158.761 181.424 157.436 180.92 155.942 180.92C154.337 180.92 153.198 181.256 152.526 181.928C151.892 182.563 151.574 183.44 151.574 184.56V186.856L151.294 187.136H149.838C149.241 187.136 148.849 187.043 148.662 186.856C148.476 186.669 148.382 186.315 148.382 185.792C148.382 185.083 148.625 184.355 149.11 183.608C149.596 182.861 150.305 182.189 151.238 181.592C152.246 180.957 153.254 180.416 154.262 179.968C155.308 179.483 156.297 179.24 157.23 179.24C159.47 179.24 161.225 179.744 162.494 180.752C163.801 181.723 164.454 183.253 164.454 185.344V202.76C164.753 203.021 165.089 203.227 165.462 203.376C165.873 203.525 166.34 203.6 166.862 203.6H169.774L169.83 203.656V203.768C169.569 204.141 169.14 204.533 168.542 204.944C167.945 205.355 167.142 205.56 166.134 205.56C164.828 205.56 163.82 205.224 163.11 204.552C162.401 203.88 161.972 203.096 161.822 202.2H161.71C160.74 203.171 159.564 203.973 158.182 204.608C156.838 205.243 155.401 205.56 153.87 205.56ZM150.622 198.728C150.622 200.259 151.052 201.416 151.91 202.2C152.769 202.947 153.982 203.32 155.55 203.32C156.484 203.32 157.492 203.189 158.574 202.928C159.657 202.629 160.684 202.181 161.654 201.584V192.12C158.556 192.755 156.204 193.389 154.598 194.024C153.03 194.659 151.966 195.349 151.406 196.096C150.884 196.843 150.622 197.72 150.622 198.728ZM181.207 205.56C179.9 205.56 178.724 205.411 177.679 205.112C176.671 204.851 175.625 204.459 174.543 203.936V198.112H175.215L175.999 200.632C176.335 201.752 176.951 202.648 177.847 203.32C178.743 203.955 180.012 204.272 181.655 204.272C183.447 204.272 184.828 203.843 185.799 202.984C186.807 202.088 187.311 200.819 187.311 199.176C187.311 197.72 186.919 196.581 186.135 195.76C185.351 194.901 183.895 194.043 181.767 193.184C179.527 192.288 177.865 191.317 176.783 190.272C175.737 189.227 175.215 187.733 175.215 185.792C175.215 184.597 175.532 183.515 176.167 182.544C176.839 181.536 177.716 180.733 178.799 180.136C179.881 179.539 181.039 179.24 182.271 179.24C183.652 179.24 184.884 179.408 185.967 179.744C187.049 180.043 187.983 180.397 188.767 180.808V186.52H188.095L187.367 184.112C186.993 182.805 186.284 181.872 185.239 181.312C184.231 180.752 183.204 180.472 182.159 180.472C180.703 180.472 179.583 180.901 178.799 181.76C178.052 182.619 177.679 183.739 177.679 185.12C177.679 186.501 178.089 187.584 178.911 188.368C179.732 189.152 181.057 189.917 182.887 190.664C184.529 191.336 185.855 191.989 186.863 192.624C187.908 193.259 188.673 194.043 189.159 194.976C189.644 195.872 189.887 197.029 189.887 198.448C189.887 199.717 189.532 200.893 188.823 201.976C188.113 203.059 187.105 203.936 185.799 204.608C184.492 205.243 182.961 205.56 181.207 205.56ZM203.006 205.56C201.289 205.56 199.851 205.056 198.694 204.048C197.537 203.003 196.958 201.565 196.958 199.736C196.958 197.944 197.593 196.451 198.862 195.256C200.169 194.061 202.315 193.091 205.302 192.344L210.79 190.944V186.296C210.79 184.691 210.211 183.403 209.054 182.432C207.897 181.424 206.571 180.92 205.078 180.92C203.473 180.92 202.334 181.256 201.662 181.928C201.027 182.563 200.71 183.44 200.71 184.56V186.856L200.43 187.136H198.974C198.377 187.136 197.985 187.043 197.798 186.856C197.611 186.669 197.518 186.315 197.518 185.792C197.518 185.083 197.761 184.355 198.246 183.608C198.731 182.861 199.441 182.189 200.374 181.592C201.382 180.957 202.39 180.416 203.398 179.968C204.443 179.483 205.433 179.24 206.366 179.24C208.606 179.24 210.361 179.744 211.63 180.752C212.937 181.723 213.59 183.253 213.59 185.344V202.76C213.889 203.021 214.225 203.227 214.598 203.376C215.009 203.525 215.475 203.6 215.998 203.6H218.91L218.966 203.656V203.768C218.705 204.141 218.275 204.533 217.678 204.944C217.081 205.355 216.278 205.56 215.27 205.56C213.963 205.56 212.955 205.224 212.246 204.552C211.537 203.88 211.107 203.096 210.958 202.2H210.846C209.875 203.171 208.699 203.973 207.318 204.608C205.974 205.243 204.537 205.56 203.006 205.56ZM199.758 198.728C199.758 200.259 200.187 201.416 201.046 202.2C201.905 202.947 203.118 203.32 204.686 203.32C205.619 203.32 206.627 203.189 207.71 202.928C208.793 202.629 209.819 202.181 210.79 201.584V192.12C207.691 192.755 205.339 193.389 203.734 194.024C202.166 194.659 201.102 195.349 200.542 196.096C200.019 196.843 199.758 197.72 199.758 198.728ZM223.398 205V204.16L226.926 203.208V181.928L222.838 181.424V180.584L228.886 179.24H229.446L229.67 183.272H229.838C231.219 181.853 232.526 180.827 233.758 180.192C234.99 179.557 236.371 179.24 237.902 179.24C240.254 179.24 242.177 179.893 243.67 181.2C245.201 182.507 245.966 184.411 245.966 186.912V203.208L249.494 204.16V205H239.19V204.16L243.166 203.208V188.424C243.166 186.147 242.55 184.429 241.318 183.272C240.123 182.077 238.537 181.48 236.558 181.48C235.438 181.48 234.225 181.76 232.918 182.32C231.611 182.843 230.547 183.608 229.726 184.616V203.208L233.702 204.16V205H223.398ZM263.243 205.56C261.713 205.56 260.462 205.075 259.491 204.104C258.558 203.133 258.091 201.771 258.091 200.016V181.704H253.163V181.2L258.427 179.8L260.275 173.64H260.891V179.8H268.283V181.704H260.891V199.904C260.891 201.061 261.246 201.939 261.955 202.536C262.665 203.096 263.598 203.376 264.755 203.376C265.577 203.376 266.323 203.283 266.995 203.096C267.667 202.909 268.302 202.648 268.899 202.312L268.955 202.368V202.592C268.657 203.227 268.022 203.88 267.051 204.552C266.081 205.224 264.811 205.56 263.243 205.56ZM274.672 205V204.16L278.2 203.208V181.928L274.112 181.424V180.584L280.16 179.24H280.72L281 184.224H281.112C282.568 182.693 283.725 181.573 284.584 180.864C285.443 180.155 286.152 179.707 286.712 179.52C287.272 179.333 287.907 179.24 288.616 179.24C289.251 179.24 289.829 179.352 290.352 179.576C290.725 179.725 290.987 179.875 291.136 180.024C291.323 180.136 291.416 180.304 291.416 180.528C291.416 180.603 291.397 180.696 291.36 180.808C291.36 180.883 291.341 180.995 291.304 181.144L290.744 182.6H290.632L289.568 182.096C289.045 181.835 288.355 181.704 287.496 181.704C286.413 181.704 285.331 182.003 284.248 182.6C283.165 183.197 282.083 184.243 281 185.736V203.208L285.312 204.16V205H274.672ZM299.722 170.392C299.125 170.392 298.621 170.187 298.21 169.776C297.8 169.365 297.594 168.861 297.594 168.264C297.594 167.667 297.8 167.163 298.21 166.752C298.621 166.341 299.125 166.136 299.722 166.136C300.32 166.136 300.824 166.341 301.234 166.752C301.645 167.163 301.85 167.667 301.85 168.264C301.85 168.861 301.645 169.365 301.234 169.776C300.824 170.187 300.32 170.392 299.722 170.392ZM295.578 205V204.16L299.106 203.208V181.928L295.018 180.864V180.024L301.346 179.24H301.906V203.208L305.882 204.16V205H295.578ZM324.405 205.56C321.754 205.56 319.514 205 317.685 203.88C315.893 202.76 314.53 201.248 313.597 199.344C312.701 197.44 312.253 195.293 312.253 192.904C312.253 190.365 312.775 188.069 313.821 186.016C314.903 183.963 316.303 182.32 318.021 181.088C319.775 179.856 321.679 179.24 323.733 179.24C326.682 179.24 328.997 180.211 330.677 182.152C332.357 184.093 333.327 186.781 333.589 190.216L333.421 190.384H315.109C315.071 190.944 315.053 191.541 315.053 192.176C315.053 195.461 315.93 198.131 317.685 200.184C319.477 202.2 321.978 203.208 325.189 203.208C326.943 203.208 328.53 202.947 329.949 202.424C331.405 201.901 332.543 201.192 333.365 200.296H333.533V201.024C332.711 202.331 331.498 203.413 329.893 204.272C328.325 205.131 326.495 205.56 324.405 205.56ZM323.061 180.472C321.231 180.472 319.589 181.237 318.133 182.768C316.677 184.261 315.725 186.389 315.277 189.152H330.509C330.135 186.427 329.37 184.299 328.213 182.768C327.055 181.237 325.338 180.472 323.061 180.472ZM347.166 205.56C345.859 205.56 344.683 205.411 343.638 205.112C342.63 204.851 341.584 204.459 340.502 203.936V198.112H341.174L341.958 200.632C342.294 201.752 342.91 202.648 343.806 203.32C344.702 203.955 345.971 204.272 347.614 204.272C349.406 204.272 350.787 203.843 351.758 202.984C352.766 202.088 353.27 200.819 353.27 199.176C353.27 197.72 352.878 196.581 352.094 195.76C351.31 194.901 349.854 194.043 347.726 193.184C345.486 192.288 343.824 191.317 342.742 190.272C341.696 189.227 341.174 187.733 341.174 185.792C341.174 184.597 341.491 183.515 342.126 182.544C342.798 181.536 343.675 180.733 344.758 180.136C345.84 179.539 346.998 179.24 348.23 179.24C349.611 179.24 350.843 179.408 351.926 179.744C353.008 180.043 353.942 180.397 354.726 180.808V186.52H354.054L353.326 184.112C352.952 182.805 352.243 181.872 351.198 181.312C350.19 180.752 349.163 180.472 348.118 180.472C346.662 180.472 345.542 180.901 344.758 181.76C344.011 182.619 343.638 183.739 343.638 185.12C343.638 186.501 344.048 187.584 344.87 188.368C345.691 189.152 347.016 189.917 348.846 190.664C350.488 191.336 351.814 191.989 352.822 192.624C353.867 193.259 354.632 194.043 355.118 194.976C355.603 195.872 355.846 197.029 355.846 198.448C355.846 199.717 355.491 200.893 354.782 201.976C354.072 203.059 353.064 203.936 351.758 204.608C350.451 205.243 348.92 205.56 347.166 205.56ZM366.333 205.224C365.624 205.224 365.026 204.981 364.541 204.496C364.056 203.973 363.813 203.376 363.813 202.704C363.813 202.032 364.056 201.453 364.541 200.968C365.026 200.445 365.624 200.184 366.333 200.184C367.042 200.184 367.64 200.445 368.125 200.968C368.61 201.453 368.853 202.032 368.853 202.704C368.853 203.376 368.61 203.973 368.125 204.496C367.64 204.981 367.042 205.224 366.333 205.224ZM366.333 184.28C365.624 184.28 365.026 184.037 364.541 183.552C364.056 183.029 363.813 182.432 363.813 181.76C363.813 181.088 364.056 180.509 364.541 180.024C365.026 179.501 365.624 179.24 366.333 179.24C367.042 179.24 367.64 179.501 368.125 180.024C368.61 180.509 368.853 181.088 368.853 181.76C368.853 182.432 368.61 183.029 368.125 183.552C367.64 184.037 367.042 184.28 366.333 184.28ZM396.28 205.56C394.563 205.56 393.126 205.056 391.968 204.048C390.811 203.003 390.232 201.565 390.232 199.736C390.232 197.944 390.867 196.451 392.136 195.256C393.443 194.061 395.59 193.091 398.576 192.344L404.064 190.944V186.296C404.064 184.691 403.486 183.403 402.328 182.432C401.171 181.424 399.846 180.92 398.352 180.92C396.747 180.92 395.608 181.256 394.936 181.928C394.302 182.563 393.984 183.44 393.984 184.56V186.856L393.704 187.136H392.248C391.651 187.136 391.259 187.043 391.072 186.856C390.886 186.669 390.792 186.315 390.792 185.792C390.792 185.083 391.035 184.355 391.52 183.608C392.006 182.861 392.715 182.189 393.648 181.592C394.656 180.957 395.664 180.416 396.672 179.968C397.718 179.483 398.707 179.24 399.64 179.24C401.88 179.24 403.635 179.744 404.904 180.752C406.211 181.723 406.864 183.253 406.864 185.344V202.76C407.163 203.021 407.499 203.227 407.872 203.376C408.283 203.525 408.75 203.6 409.272 203.6H412.184L412.24 203.656V203.768C411.979 204.141 411.55 204.533 410.952 204.944C410.355 205.355 409.552 205.56 408.544 205.56C407.238 205.56 406.23 205.224 405.52 204.552C404.811 203.88 404.382 203.096 404.232 202.2H404.12C403.15 203.171 401.974 203.973 400.592 204.608C399.248 205.243 397.811 205.56 396.28 205.56ZM393.032 198.728C393.032 200.259 393.462 201.416 394.32 202.2C395.179 202.947 396.392 203.32 397.96 203.32C398.894 203.32 399.902 203.189 400.984 202.928C402.067 202.629 403.094 202.181 404.064 201.584V192.12C400.966 192.755 398.614 193.389 397.008 194.024C395.44 194.659 394.376 195.349 393.816 196.096C393.294 196.843 393.032 197.72 393.032 198.728ZM416.673 205V204.16L420.201 203.208V181.928L416.113 181.424V180.584L422.161 179.24H422.721L422.945 183.272H423.113C424.494 181.853 425.801 180.827 427.033 180.192C428.265 179.557 429.646 179.24 431.177 179.24C433.529 179.24 435.451 179.893 436.945 181.2C438.475 182.507 439.241 184.411 439.241 186.912V203.208L442.769 204.16V205H432.465V204.16L436.441 203.208V188.424C436.441 186.147 435.825 184.429 434.593 183.272C433.398 182.077 431.811 181.48 429.833 181.48C428.713 181.48 427.499 181.76 426.193 182.32C424.886 182.843 423.822 183.608 423.001 184.616V203.208L426.977 204.16V205H416.673ZM467.718 170.392C467.121 170.392 466.617 170.187 466.206 169.776C465.795 169.365 465.59 168.861 465.59 168.264C465.59 167.667 465.795 167.163 466.206 166.752C466.617 166.341 467.121 166.136 467.718 166.136C468.315 166.136 468.819 166.341 469.23 166.752C469.641 167.163 469.846 167.667 469.846 168.264C469.846 168.861 469.641 169.365 469.23 169.776C468.819 170.187 468.315 170.392 467.718 170.392ZM463.574 205V204.16L467.102 203.208V181.928L463.014 180.864V180.024L469.342 179.24H469.902V203.208L473.878 204.16V205H463.574ZM480.696 205V204.16L484.224 203.208V181.928L480.136 181.424V180.584L486.184 179.24H486.744L486.968 183.272H487.136C488.518 181.853 489.824 180.827 491.056 180.192C492.288 179.557 493.67 179.24 495.2 179.24C497.552 179.24 499.475 179.893 500.968 181.2C502.499 182.507 503.264 184.411 503.264 186.912V203.208L506.792 204.16V205H496.488V204.16L500.464 203.208V188.424C500.464 186.147 499.848 184.429 498.616 183.272C497.422 182.077 495.835 181.48 493.856 181.48C492.736 181.48 491.523 181.76 490.216 182.32C488.91 182.843 487.846 183.608 487.024 184.616V203.208L491 204.16V205H480.696ZM520.542 205.56C519.011 205.56 517.76 205.075 516.79 204.104C515.856 203.133 515.39 201.771 515.39 200.016V181.704H510.462V181.2L515.726 179.8L517.574 173.64H518.19V179.8H525.582V181.704H518.19V199.904C518.19 201.061 518.544 201.939 519.254 202.536C519.963 203.096 520.896 203.376 522.054 203.376C522.875 203.376 523.622 203.283 524.294 203.096C524.966 202.909 525.6 202.648 526.198 202.312L526.254 202.368V202.592C525.955 203.227 525.32 203.88 524.35 204.552C523.379 205.224 522.11 205.56 520.542 205.56ZM531.97 205V204.16L535.498 203.208V181.928L531.41 181.424V180.584L537.458 179.24H538.018L538.298 184.224H538.41C539.866 182.693 541.023 181.573 541.882 180.864C542.741 180.155 543.45 179.707 544.01 179.52C544.57 179.333 545.205 179.24 545.914 179.24C546.549 179.24 547.127 179.352 547.65 179.576C548.023 179.725 548.285 179.875 548.434 180.024C548.621 180.136 548.714 180.304 548.714 180.528C548.714 180.603 548.695 180.696 548.658 180.808C548.658 180.883 548.639 180.995 548.602 181.144L548.042 182.6H547.93L546.866 182.096C546.343 181.835 545.653 181.704 544.794 181.704C543.711 181.704 542.629 182.003 541.546 182.6C540.463 183.197 539.381 184.243 538.298 185.736V203.208L542.61 204.16V205H531.97ZM563.572 205.56C561.295 205.56 559.298 204.981 557.58 203.824C555.863 202.667 554.519 201.099 553.548 199.12C552.578 197.141 552.092 194.901 552.092 192.4C552.092 189.899 552.578 187.659 553.548 185.68C554.519 183.701 555.863 182.133 557.58 180.976C559.298 179.819 561.295 179.24 563.572 179.24C565.85 179.24 567.847 179.819 569.564 180.976C571.282 182.133 572.626 183.701 573.596 185.68C574.567 187.659 575.052 189.899 575.052 192.4C575.052 194.901 574.567 197.141 573.596 199.12C572.626 201.099 571.282 202.667 569.564 203.824C567.847 204.981 565.85 205.56 563.572 205.56ZM564.356 204.272C566.074 204.272 567.511 203.768 568.668 202.76C569.863 201.715 570.759 200.371 571.356 198.728C571.954 197.085 572.252 195.349 572.252 193.52C572.252 191.093 571.898 188.909 571.188 186.968C570.479 184.989 569.415 183.421 567.996 182.264C566.615 181.069 564.916 180.472 562.9 180.472C561.22 180.472 559.783 180.957 558.588 181.928C557.394 182.861 556.479 184.149 555.844 185.792C555.21 187.397 554.892 189.208 554.892 191.224C554.892 193.651 555.266 195.853 556.012 197.832C556.796 199.811 557.879 201.379 559.26 202.536C560.679 203.693 562.378 204.272 564.356 204.272ZM591.869 205.56C590.002 205.56 588.341 205.075 586.885 204.104C585.429 203.133 584.272 201.771 583.413 200.016C582.592 198.224 582.181 196.096 582.181 193.632C582.181 190.571 582.778 187.976 583.973 185.848C585.168 183.683 586.754 182.04 588.733 180.92C590.712 179.8 592.896 179.24 595.285 179.24C596.106 179.24 596.965 179.389 597.861 179.688C598.757 179.949 599.634 180.304 600.493 180.752V165.688L596.405 164.624V163.784L602.733 163H603.293V203.208L607.269 204.16V205H601.053L600.549 202.144H600.269C599 203.227 597.674 204.067 596.293 204.664C594.949 205.261 593.474 205.56 591.869 205.56ZM584.813 192.736C584.813 195.237 585.224 197.309 586.045 198.952C586.866 200.557 587.93 201.752 589.237 202.536C590.581 203.283 591.962 203.656 593.381 203.656C594.613 203.656 595.845 203.432 597.077 202.984C598.309 202.536 599.448 201.808 600.493 200.8V182.768C599.336 182.133 598.178 181.629 597.021 181.256C595.864 180.883 594.632 180.696 593.325 180.696C591.794 180.696 590.376 181.088 589.069 181.872C587.8 182.656 586.773 183.944 585.989 185.736C585.205 187.491 584.813 189.824 584.813 192.736ZM623.295 205.56C621.018 205.56 619.151 204.907 617.695 203.6C616.239 202.293 615.511 200.389 615.511 197.888V181.592L611.535 180.64V179.8H618.311V196.376C618.311 198.653 618.89 200.389 620.047 201.584C621.242 202.741 622.772 203.32 624.639 203.32C625.722 203.32 626.879 203.059 628.111 202.536C629.38 201.976 630.407 201.192 631.191 200.184V181.592L626.655 180.64V179.8H633.991V203.208L637.967 204.16V205H631.191V201.584H631.023C629.679 202.928 628.41 203.936 627.215 204.608C626.02 205.243 624.714 205.56 623.295 205.56ZM654.952 205.56C652.338 205.56 650.136 205 648.344 203.88C646.589 202.76 645.245 201.248 644.312 199.344C643.416 197.44 642.968 195.293 642.968 192.904C642.968 190.291 643.49 187.957 644.536 185.904C645.618 183.813 647.093 182.189 648.96 181.032C650.864 179.837 653.01 179.24 655.4 179.24C656.893 179.24 658.218 179.445 659.376 179.856C660.533 180.267 661.466 180.715 662.176 181.2C663.37 182.021 663.968 182.731 663.968 183.328C663.968 183.589 663.837 183.832 663.576 184.056L662.064 185.344H661.84L661.112 184.336C660.29 183.216 659.394 182.301 658.424 181.592C657.49 180.845 656.277 180.472 654.784 180.472C652.17 180.472 650.005 181.461 648.288 183.44C646.608 185.381 645.768 188.293 645.768 192.176C645.768 195.461 646.626 198.131 648.344 200.184C650.098 202.2 652.562 203.208 655.736 203.208C657.453 203.208 659.04 202.947 660.496 202.424C661.952 201.901 663.09 201.192 663.912 200.296H664.08V201.024C663.221 202.331 662.008 203.413 660.44 204.272C658.872 205.131 657.042 205.56 654.952 205.56ZM678.23 205.56C676.699 205.56 675.448 205.075 674.478 204.104C673.544 203.133 673.078 201.771 673.078 200.016V181.704H668.15V181.2L673.414 179.8L675.262 173.64H675.878V179.8H683.27V181.704H675.878V199.904C675.878 201.061 676.232 201.939 676.942 202.536C677.651 203.096 678.584 203.376 679.742 203.376C680.563 203.376 681.31 203.283 681.982 203.096C682.654 202.909 683.288 202.648 683.886 202.312L683.942 202.368V202.592C683.643 203.227 683.008 203.88 682.038 204.552C681.067 205.224 679.798 205.56 678.23 205.56ZM700.466 205.56C698.189 205.56 696.191 204.981 694.474 203.824C692.757 202.667 691.413 201.099 690.442 199.12C689.471 197.141 688.986 194.901 688.986 192.4C688.986 189.899 689.471 187.659 690.442 185.68C691.413 183.701 692.757 182.133 694.474 180.976C696.191 179.819 698.189 179.24 700.466 179.24C702.743 179.24 704.741 179.819 706.458 180.976C708.175 182.133 709.519 183.701 710.49 185.68C711.461 187.659 711.946 189.899 711.946 192.4C711.946 194.901 711.461 197.141 710.49 199.12C709.519 201.099 708.175 202.667 706.458 203.824C704.741 204.981 702.743 205.56 700.466 205.56ZM701.25 204.272C702.967 204.272 704.405 203.768 705.562 202.76C706.757 201.715 707.653 200.371 708.25 198.728C708.847 197.085 709.146 195.349 709.146 193.52C709.146 191.093 708.791 188.909 708.082 186.968C707.373 184.989 706.309 183.421 704.89 182.264C703.509 181.069 701.81 180.472 699.794 180.472C698.114 180.472 696.677 180.957 695.482 181.928C694.287 182.861 693.373 184.149 692.738 185.792C692.103 187.397 691.786 189.208 691.786 191.224C691.786 193.651 692.159 195.853 692.906 197.832C693.69 199.811 694.773 201.379 696.154 202.536C697.573 203.693 699.271 204.272 701.25 204.272ZM718.765 205V204.16L722.293 203.208V181.928L718.205 181.424V180.584L724.253 179.24H724.813L725.093 184.224H725.205C726.661 182.693 727.818 181.573 728.677 180.864C729.536 180.155 730.245 179.707 730.805 179.52C731.365 179.333 732 179.24 732.709 179.24C733.344 179.24 733.922 179.352 734.445 179.576C734.818 179.725 735.08 179.875 735.229 180.024C735.416 180.136 735.509 180.304 735.509 180.528C735.509 180.603 735.49 180.696 735.453 180.808C735.453 180.883 735.434 180.995 735.397 181.144L734.837 182.6H734.725L733.661 182.096C733.138 181.835 732.448 181.704 731.589 181.704C730.506 181.704 729.424 182.003 728.341 182.6C727.258 183.197 726.176 184.243 725.093 185.736V203.208L729.405 204.16V205H718.765ZM741.172 218.496C740.388 218.496 739.884 218.365 739.66 218.104C739.474 217.88 739.38 217.469 739.38 216.872V215.64L739.716 215.304H742.18C743.114 215.304 743.823 215.229 744.308 215.08C744.794 214.931 745.242 214.52 745.652 213.848C746.063 213.176 746.642 212.075 747.388 210.544L750.3 204.384L741.116 181.704L737.588 180.64V179.8H748.34V180.64L744.028 181.592V181.76L751.532 200.968H751.7L758.532 181.816V181.648L753.996 180.64V179.8H763.908V180.64L760.324 181.704L748.62 211.048C748.172 212.168 747.743 213.083 747.332 213.792C746.959 214.539 746.53 215.267 746.044 215.976C745.484 216.797 744.756 217.413 743.86 217.824C743.002 218.272 742.106 218.496 741.172 218.496ZM405.914 331V297.304L402.41 296.632V295.912L407.834 295H408.314V311.896H408.506C409.722 310.872 410.906 310.12 412.058 309.64C413.21 309.16 414.426 308.92 415.706 308.92C417.306 308.92 418.73 309.336 419.978 310.168C421.226 311 422.202 312.184 422.906 313.72C423.642 315.224 424.01 317.032 424.01 319.144C424.01 321.768 423.498 324.008 422.474 325.864C421.45 327.688 420.09 329.08 418.394 330.04C416.698 331 414.826 331.48 412.778 331.48C411.946 331.48 411.034 331.304 410.042 330.952C409.082 330.6 408.186 330.168 407.354 329.656L406.346 331H405.914ZM414.41 310.552C413.226 310.552 412.122 310.76 411.098 311.176C410.106 311.592 409.178 312.184 408.314 312.952V328.264C409.306 328.904 410.282 329.4 411.242 329.752C412.202 330.072 413.274 330.232 414.458 330.232C415.738 330.232 416.938 329.896 418.058 329.224C419.178 328.552 420.074 327.464 420.746 325.96C421.418 324.424 421.754 322.408 421.754 319.912C421.754 317.768 421.402 316.008 420.698 314.632C419.994 313.224 419.082 312.2 417.962 311.56C416.842 310.888 415.658 310.552 414.41 310.552ZM429.278 342.568C428.606 342.568 428.174 342.456 427.982 342.232C427.822 342.04 427.742 341.688 427.742 341.176V340.12L428.03 339.832H430.142C430.942 339.832 431.55 339.768 431.966 339.64C432.382 339.512 432.766 339.16 433.118 338.584C433.47 338.008 433.966 337.064 434.606 335.752L437.102 330.472L429.23 311.032L426.206 310.12V309.4H435.422V310.12L431.726 310.936V311.08L438.158 327.544H438.302L444.158 311.128V310.984L440.27 310.12V309.4H448.766V310.12L445.694 311.032L435.662 336.184C435.278 337.144 434.91 337.928 434.558 338.536C434.238 339.176 433.87 339.8 433.454 340.408C432.974 341.112 432.35 341.64 431.582 341.992C430.846 342.376 430.078 342.568 429.278 342.568ZM116.467 469V468.16L119.995 467.208V445.704H115.067V443.8H119.995V441.56C119.995 440.067 120.237 438.48 120.723 436.8C121.245 435.12 121.992 433.533 122.963 432.04C123.971 430.547 125.221 429.333 126.715 428.4C128.208 427.467 129.944 427 131.923 427C132.408 427 132.837 427.075 133.211 427.224C133.808 427.485 134.107 427.784 134.107 428.12C134.107 428.344 134.051 428.587 133.939 428.848L133.323 430.36H133.211L132.035 429.968C130.877 429.595 129.757 429.408 128.675 429.408C126.771 429.408 125.315 430.192 124.307 431.76C123.299 433.328 122.795 435.848 122.795 439.32V443.8H130.187V445.704H122.795V467.208L127.107 468.16V469H116.467ZM135.399 469V468.16L138.927 467.208V445.928L134.839 445.424V444.584L140.887 443.24H141.447L141.727 448.224H141.839C143.295 446.693 144.453 445.573 145.311 444.864C146.17 444.155 146.879 443.707 147.439 443.52C147.999 443.333 148.634 443.24 149.343 443.24C149.978 443.24 150.557 443.352 151.079 443.576C151.453 443.725 151.714 443.875 151.863 444.024C152.05 444.136 152.143 444.304 152.143 444.528C152.143 444.603 152.125 444.696 152.087 444.808C152.087 444.883 152.069 444.995 152.031 445.144L151.471 446.6H151.359L150.295 446.096C149.773 445.835 149.082 445.704 148.223 445.704C147.141 445.704 146.058 446.003 144.975 446.6C143.893 447.197 142.81 448.243 141.727 449.736V467.208L146.039 468.16V469H135.399ZM161.458 469.56C159.74 469.56 158.303 469.056 157.146 468.048C155.988 467.003 155.41 465.565 155.41 463.736C155.41 461.944 156.044 460.451 157.314 459.256C158.62 458.061 160.767 457.091 163.754 456.344L169.242 454.944V450.296C169.242 448.691 168.663 447.403 167.506 446.432C166.348 445.424 165.023 444.92 163.53 444.92C161.924 444.92 160.786 445.256 160.114 445.928C159.479 446.563 159.162 447.44 159.162 448.56V450.856L158.882 451.136H157.426C156.828 451.136 156.436 451.043 156.25 450.856C156.063 450.669 155.97 450.315 155.97 449.792C155.97 449.083 156.212 448.355 156.698 447.608C157.183 446.861 157.892 446.189 158.826 445.592C159.834 444.957 160.842 444.416 161.85 443.968C162.895 443.483 163.884 443.24 164.818 443.24C167.058 443.24 168.812 443.744 170.082 444.752C171.388 445.723 172.042 447.253 172.042 449.344V466.76C172.34 467.021 172.676 467.227 173.05 467.376C173.46 467.525 173.927 467.6 174.45 467.6H177.362L177.418 467.656V467.768C177.156 468.141 176.727 468.533 176.13 468.944C175.532 469.355 174.73 469.56 173.722 469.56C172.415 469.56 171.407 469.224 170.698 468.552C169.988 467.88 169.559 467.096 169.41 466.2H169.298C168.327 467.171 167.151 467.973 165.77 468.608C164.426 469.243 162.988 469.56 161.458 469.56ZM158.21 462.728C158.21 464.259 158.639 465.416 159.498 466.2C160.356 466.947 161.57 467.32 163.138 467.32C164.071 467.32 165.079 467.189 166.162 466.928C167.244 466.629 168.271 466.181 169.242 465.584V456.12C166.143 456.755 163.791 457.389 162.186 458.024C160.618 458.659 159.554 459.349 158.994 460.096C158.471 460.843 158.21 461.72 158.21 462.728ZM181.85 469V468.16L185.378 467.208V445.928L181.29 445.424V444.584L187.338 443.24H187.898L188.122 447.272H188.29C189.671 445.853 190.978 444.827 192.21 444.192C193.442 443.557 194.823 443.24 196.354 443.24C198.706 443.24 200.629 443.893 202.122 445.2C203.653 446.507 204.418 448.411 204.418 450.912V467.208L207.946 468.16V469H197.642V468.16L201.618 467.208V452.424C201.618 450.147 201.002 448.429 199.77 447.272C198.575 446.077 196.989 445.48 195.01 445.48C193.89 445.48 192.677 445.76 191.37 446.32C190.063 446.843 188.999 447.608 188.178 448.616V467.208L192.154 468.16V469H181.85ZM225.391 469.56C222.778 469.56 220.575 469 218.783 467.88C217.029 466.76 215.685 465.248 214.751 463.344C213.855 461.44 213.407 459.293 213.407 456.904C213.407 454.291 213.93 451.957 214.975 449.904C216.058 447.813 217.533 446.189 219.399 445.032C221.303 443.837 223.45 443.24 225.839 443.24C227.333 443.24 228.658 443.445 229.815 443.856C230.973 444.267 231.906 444.715 232.615 445.2C233.81 446.021 234.407 446.731 234.407 447.328C234.407 447.589 234.277 447.832 234.015 448.056L232.503 449.344H232.279L231.551 448.336C230.73 447.216 229.834 446.301 228.863 445.592C227.93 444.845 226.717 444.472 225.223 444.472C222.61 444.472 220.445 445.461 218.727 447.44C217.047 449.381 216.207 452.293 216.207 456.176C216.207 459.461 217.066 462.131 218.783 464.184C220.538 466.2 223.002 467.208 226.175 467.208C227.893 467.208 229.479 466.947 230.935 466.424C232.391 465.901 233.53 465.192 234.351 464.296H234.519V465.024C233.661 466.331 232.447 467.413 230.879 468.272C229.311 469.131 227.482 469.56 225.391 469.56ZM245.309 434.392C244.712 434.392 244.208 434.187 243.797 433.776C243.387 433.365 243.181 432.861 243.181 432.264C243.181 431.667 243.387 431.163 243.797 430.752C244.208 430.341 244.712 430.136 245.309 430.136C245.907 430.136 246.411 430.341 246.821 430.752C247.232 431.163 247.437 431.667 247.437 432.264C247.437 432.861 247.232 433.365 246.821 433.776C246.411 434.187 245.907 434.392 245.309 434.392ZM241.165 469V468.16L244.693 467.208V445.928L240.605 444.864V444.024L246.933 443.24H247.493V467.208L251.469 468.16V469H241.165ZM265.232 469.56C263.925 469.56 262.749 469.411 261.704 469.112C260.696 468.851 259.65 468.459 258.568 467.936V462.112H259.24L260.024 464.632C260.36 465.752 260.976 466.648 261.872 467.32C262.768 467.955 264.037 468.272 265.68 468.272C267.472 468.272 268.853 467.843 269.824 466.984C270.832 466.088 271.336 464.819 271.336 463.176C271.336 461.72 270.944 460.581 270.16 459.76C269.376 458.901 267.92 458.043 265.792 457.184C263.552 456.288 261.89 455.317 260.808 454.272C259.762 453.227 259.24 451.733 259.24 449.792C259.24 448.597 259.557 447.515 260.192 446.544C260.864 445.536 261.741 444.733 262.824 444.136C263.906 443.539 265.064 443.24 266.296 443.24C267.677 443.24 268.909 443.408 269.992 443.744C271.074 444.043 272.008 444.397 272.792 444.808V450.52H272.12L271.392 448.112C271.018 446.805 270.309 445.872 269.264 445.312C268.256 444.752 267.229 444.472 266.184 444.472C264.728 444.472 263.608 444.901 262.824 445.76C262.077 446.619 261.704 447.739 261.704 449.12C261.704 450.501 262.114 451.584 262.936 452.368C263.757 453.152 265.082 453.917 266.912 454.664C268.554 455.336 269.88 455.989 270.888 456.624C271.933 457.259 272.698 458.043 273.184 458.976C273.669 459.872 273.912 461.029 273.912 462.448C273.912 463.717 273.557 464.893 272.848 465.976C272.138 467.059 271.13 467.936 269.824 468.608C268.517 469.243 266.986 469.56 265.232 469.56ZM307.807 469.56C305.156 469.56 302.916 469 301.087 467.88C299.295 466.76 297.932 465.248 296.999 463.344C296.103 461.44 295.655 459.293 295.655 456.904C295.655 454.365 296.178 452.069 297.223 450.016C298.306 447.963 299.706 446.32 301.423 445.088C303.178 443.856 305.082 443.24 307.135 443.24C310.084 443.24 312.399 444.211 314.079 446.152C315.759 448.093 316.73 450.781 316.991 454.216L316.823 454.384H298.511C298.474 454.944 298.455 455.541 298.455 456.176C298.455 459.461 299.332 462.131 301.087 464.184C302.879 466.2 305.38 467.208 308.591 467.208C310.346 467.208 311.932 466.947 313.351 466.424C314.807 465.901 315.946 465.192 316.767 464.296H316.935V465.024C316.114 466.331 314.9 467.413 313.295 468.272C311.727 469.131 309.898 469.56 307.807 469.56ZM306.463 444.472C304.634 444.472 302.991 445.237 301.535 446.768C300.079 448.261 299.127 450.389 298.679 453.152H313.911C313.538 450.427 312.772 448.299 311.615 446.768C310.458 445.237 308.74 444.472 306.463 444.472ZM330.568 469.56C329.261 469.56 328.085 469.411 327.04 469.112C326.032 468.851 324.987 468.459 323.904 467.936V462.112H324.576L325.36 464.632C325.696 465.752 326.312 466.648 327.208 467.32C328.104 467.955 329.373 468.272 331.016 468.272C332.808 468.272 334.189 467.843 335.16 466.984C336.168 466.088 336.672 464.819 336.672 463.176C336.672 461.72 336.28 460.581 335.496 459.76C334.712 458.901 333.256 458.043 331.128 457.184C328.888 456.288 327.227 455.317 326.144 454.272C325.099 453.227 324.576 451.733 324.576 449.792C324.576 448.597 324.893 447.515 325.528 446.544C326.2 445.536 327.077 444.733 328.16 444.136C329.243 443.539 330.4 443.24 331.632 443.24C333.013 443.24 334.245 443.408 335.328 443.744C336.411 444.043 337.344 444.397 338.128 444.808V450.52H337.456L336.728 448.112C336.355 446.805 335.645 445.872 334.6 445.312C333.592 444.752 332.565 444.472 331.52 444.472C330.064 444.472 328.944 444.901 328.16 445.76C327.413 446.619 327.04 447.739 327.04 449.12C327.04 450.501 327.451 451.584 328.272 452.368C329.093 453.152 330.419 453.917 332.248 454.664C333.891 455.336 335.216 455.989 336.224 456.624C337.269 457.259 338.035 458.043 338.52 458.976C339.005 459.872 339.248 461.029 339.248 462.448C339.248 463.717 338.893 464.893 338.184 465.976C337.475 467.059 336.467 467.936 335.16 468.608C333.853 469.243 332.323 469.56 330.568 469.56ZM346.879 481.88V481.04L350.407 480.088V445.928L346.319 445.424V444.584L352.367 443.24H352.927L353.151 446.712H353.431C354.85 445.517 356.213 444.64 357.519 444.08C358.863 443.52 360.301 443.24 361.831 443.24C363.698 443.24 365.359 443.725 366.815 444.696C368.271 445.667 369.41 447.048 370.231 448.84C371.09 450.595 371.519 452.704 371.519 455.168C371.519 458.229 370.922 460.843 369.727 463.008C368.533 465.136 366.946 466.76 364.967 467.88C362.989 469 360.805 469.56 358.415 469.56C357.594 469.56 356.735 469.411 355.839 469.112C354.943 468.851 354.066 468.496 353.207 468.048V480.088L357.183 481.04V481.88H346.879ZM360.319 445.144C358.938 445.144 357.65 445.387 356.455 445.872C355.298 446.357 354.215 447.048 353.207 447.944V465.808C354.365 466.555 355.503 467.133 356.623 467.544C357.743 467.917 358.994 468.104 360.375 468.104C361.906 468.104 363.306 467.712 364.575 466.928C365.882 466.144 366.927 464.875 367.711 463.12C368.495 461.328 368.887 458.976 368.887 456.064C368.887 453.563 368.477 451.509 367.655 449.904C366.834 448.261 365.751 447.067 364.407 446.32C363.101 445.536 361.738 445.144 360.319 445.144ZM390.135 469.56C387.858 469.56 385.861 468.981 384.143 467.824C382.426 466.667 381.082 465.099 380.111 463.12C379.141 461.141 378.655 458.901 378.655 456.4C378.655 453.899 379.141 451.659 380.111 449.68C381.082 447.701 382.426 446.133 384.143 444.976C385.861 443.819 387.858 443.24 390.135 443.24C392.413 443.24 394.41 443.819 396.127 444.976C397.845 446.133 399.189 447.701 400.159 449.68C401.13 451.659 401.615 453.899 401.615 456.4C401.615 458.901 401.13 461.141 400.159 463.12C399.189 465.099 397.845 466.667 396.127 467.824C394.41 468.981 392.413 469.56 390.135 469.56ZM390.919 468.272C392.637 468.272 394.074 467.768 395.231 466.76C396.426 465.715 397.322 464.371 397.919 462.728C398.517 461.085 398.815 459.349 398.815 457.52C398.815 455.093 398.461 452.909 397.751 450.968C397.042 448.989 395.978 447.421 394.559 446.264C393.178 445.069 391.479 444.472 389.463 444.472C387.783 444.472 386.346 444.957 385.151 445.928C383.957 446.861 383.042 448.149 382.407 449.792C381.773 451.397 381.455 453.208 381.455 455.224C381.455 457.651 381.829 459.853 382.575 461.832C383.359 463.811 384.442 465.379 385.823 466.536C387.242 467.693 388.941 468.272 390.919 468.272ZM415.154 469.56C413.848 469.56 412.672 469.411 411.626 469.112C410.618 468.851 409.573 468.459 408.49 467.936V462.112H409.162L409.946 464.632C410.282 465.752 410.898 466.648 411.794 467.32C412.69 467.955 413.96 468.272 415.602 468.272C417.394 468.272 418.776 467.843 419.746 466.984C420.754 466.088 421.258 464.819 421.258 463.176C421.258 461.72 420.866 460.581 420.082 459.76C419.298 458.901 417.842 458.043 415.714 457.184C413.474 456.288 411.813 455.317 410.73 454.272C409.685 453.227 409.162 451.733 409.162 449.792C409.162 448.597 409.48 447.515 410.114 446.544C410.786 445.536 411.664 444.733 412.746 444.136C413.829 443.539 414.986 443.24 416.218 443.24C417.6 443.24 418.832 443.408 419.914 443.744C420.997 444.043 421.93 444.397 422.714 444.808V450.52H422.042L421.314 448.112C420.941 446.805 420.232 445.872 419.186 445.312C418.178 444.752 417.152 444.472 416.106 444.472C414.65 444.472 413.53 444.901 412.746 445.76C412 446.619 411.626 447.739 411.626 449.12C411.626 450.501 412.037 451.584 412.858 452.368C413.68 453.152 415.005 453.917 416.834 454.664C418.477 455.336 419.802 455.989 420.81 456.624C421.856 457.259 422.621 458.043 423.106 458.976C423.592 459.872 423.834 461.029 423.834 462.448C423.834 463.717 423.48 464.893 422.77 465.976C422.061 467.059 421.053 467.936 419.746 468.608C418.44 469.243 416.909 469.56 415.154 469.56ZM435.945 434.392C435.348 434.392 434.844 434.187 434.433 433.776C434.023 433.365 433.817 432.861 433.817 432.264C433.817 431.667 434.023 431.163 434.433 430.752C434.844 430.341 435.348 430.136 435.945 430.136C436.543 430.136 437.047 430.341 437.457 430.752C437.868 431.163 438.073 431.667 438.073 432.264C438.073 432.861 437.868 433.365 437.457 433.776C437.047 434.187 436.543 434.392 435.945 434.392ZM431.801 469V468.16L435.329 467.208V445.928L431.241 444.864V444.024L437.569 443.24H438.129V467.208L442.105 468.16V469H431.801ZM456.764 469.56C455.233 469.56 453.983 469.075 453.012 468.104C452.079 467.133 451.612 465.771 451.612 464.016V445.704H446.684V445.2L451.948 443.8L453.796 437.64H454.412V443.8H461.804V445.704H454.412V463.904C454.412 465.061 454.767 465.939 455.476 466.536C456.185 467.096 457.119 467.376 458.276 467.376C459.097 467.376 459.844 467.283 460.516 467.096C461.188 466.909 461.823 466.648 462.42 466.312L462.476 466.368V466.592C462.177 467.227 461.543 467.88 460.572 468.552C459.601 469.224 458.332 469.56 456.764 469.56ZM479 469.56C476.723 469.56 474.726 468.981 473.008 467.824C471.291 466.667 469.947 465.099 468.976 463.12C468.006 461.141 467.52 458.901 467.52 456.4C467.52 453.899 468.006 451.659 468.976 449.68C469.947 447.701 471.291 446.133 473.008 444.976C474.726 443.819 476.723 443.24 479 443.24C481.278 443.24 483.275 443.819 484.992 444.976C486.71 446.133 488.054 447.701 489.024 449.68C489.995 451.659 490.48 453.899 490.48 456.4C490.48 458.901 489.995 461.141 489.024 463.12C488.054 465.099 486.71 466.667 484.992 467.824C483.275 468.981 481.278 469.56 479 469.56ZM479.784 468.272C481.502 468.272 482.939 467.768 484.096 466.76C485.291 465.715 486.187 464.371 486.784 462.728C487.382 461.085 487.68 459.349 487.68 457.52C487.68 455.093 487.326 452.909 486.616 450.968C485.907 448.989 484.843 447.421 483.424 446.264C482.043 445.069 480.344 444.472 478.328 444.472C476.648 444.472 475.211 444.957 474.016 445.928C472.822 446.861 471.907 448.149 471.272 449.792C470.638 451.397 470.32 453.208 470.32 455.224C470.32 457.651 470.694 459.853 471.44 461.832C472.224 463.811 473.307 465.379 474.688 466.536C476.107 467.693 477.806 468.272 479.784 468.272ZM523.171 469.56C520.558 469.56 518.355 469 516.563 467.88C514.809 466.76 513.465 465.248 512.531 463.344C511.635 461.44 511.187 459.293 511.187 456.904C511.187 454.291 511.71 451.957 512.755 449.904C513.838 447.813 515.313 446.189 517.179 445.032C519.083 443.837 521.23 443.24 523.619 443.24C525.113 443.24 526.438 443.445 527.595 443.856C528.753 444.267 529.686 444.715 530.395 445.2C531.59 446.021 532.187 446.731 532.187 447.328C532.187 447.589 532.057 447.832 531.795 448.056L530.283 449.344H530.059L529.331 448.336C528.51 447.216 527.614 446.301 526.643 445.592C525.71 444.845 524.497 444.472 523.003 444.472C520.39 444.472 518.225 445.461 516.507 447.44C514.827 449.381 513.987 452.293 513.987 456.176C513.987 459.461 514.846 462.131 516.563 464.184C518.318 466.2 520.782 467.208 523.955 467.208C525.673 467.208 527.259 466.947 528.715 466.424C530.171 465.901 531.31 465.192 532.131 464.296H532.299V465.024C531.441 466.331 530.227 467.413 528.659 468.272C527.091 469.131 525.262 469.56 523.171 469.56ZM544.097 469.56C542.38 469.56 540.943 469.056 539.785 468.048C538.628 467.003 538.049 465.565 538.049 463.736C538.049 461.944 538.684 460.451 539.953 459.256C541.26 458.061 543.407 457.091 546.393 456.344L551.881 454.944V450.296C551.881 448.691 551.303 447.403 550.145 446.432C548.988 445.424 547.663 444.92 546.169 444.92C544.564 444.92 543.425 445.256 542.753 445.928C542.119 446.563 541.801 447.44 541.801 448.56V450.856L541.521 451.136H540.065C539.468 451.136 539.076 451.043 538.889 450.856C538.703 450.669 538.609 450.315 538.609 449.792C538.609 449.083 538.852 448.355 539.337 447.608C539.823 446.861 540.532 446.189 541.465 445.592C542.473 444.957 543.481 444.416 544.489 443.968C545.535 443.483 546.524 443.24 547.457 443.24C549.697 443.24 551.452 443.744 552.721 444.752C554.028 445.723 554.681 447.253 554.681 449.344V466.76C554.98 467.021 555.316 467.227 555.689 467.376C556.1 467.525 556.567 467.6 557.089 467.6H560.001L560.057 467.656V467.768C559.796 468.141 559.367 468.533 558.769 468.944C558.172 469.355 557.369 469.56 556.361 469.56C555.055 469.56 554.047 469.224 553.337 468.552C552.628 467.88 552.199 467.096 552.049 466.2H551.937C550.967 467.171 549.791 467.973 548.409 468.608C547.065 469.243 545.628 469.56 544.097 469.56ZM540.849 462.728C540.849 464.259 541.279 465.416 542.137 466.2C542.996 466.947 544.209 467.32 545.777 467.32C546.711 467.32 547.719 467.189 548.801 466.928C549.884 466.629 550.911 466.181 551.881 465.584V456.12C548.783 456.755 546.431 457.389 544.825 458.024C543.257 458.659 542.193 459.349 541.633 460.096C541.111 460.843 540.849 461.72 540.849 462.728ZM576.572 469.56C573.959 469.56 571.756 469 569.964 467.88C568.21 466.76 566.866 465.248 565.932 463.344C565.036 461.44 564.588 459.293 564.588 456.904C564.588 454.291 565.111 451.957 566.156 449.904C567.239 447.813 568.714 446.189 570.58 445.032C572.484 443.837 574.631 443.24 577.02 443.24C578.514 443.24 579.839 443.445 580.996 443.856C582.154 444.267 583.087 444.715 583.796 445.2C584.991 446.021 585.588 446.731 585.588 447.328C585.588 447.589 585.458 447.832 585.196 448.056L583.684 449.344H583.46L582.732 448.336C581.911 447.216 581.015 446.301 580.044 445.592C579.111 444.845 577.898 444.472 576.404 444.472C573.791 444.472 571.626 445.461 569.908 447.44C568.228 449.381 567.388 452.293 567.388 456.176C567.388 459.461 568.247 462.131 569.964 464.184C571.719 466.2 574.183 467.208 577.356 467.208C579.074 467.208 580.66 466.947 582.116 466.424C583.572 465.901 584.711 465.192 585.532 464.296H585.7V465.024C584.842 466.331 583.628 467.413 582.06 468.272C580.492 469.131 578.663 469.56 576.572 469.56ZM603.547 469.56C600.933 469.56 598.731 469 596.939 467.88C595.184 466.76 593.84 465.248 592.907 463.344C592.011 461.44 591.563 459.293 591.563 456.904C591.563 454.291 592.085 451.957 593.131 449.904C594.213 447.813 595.688 446.189 597.555 445.032C599.459 443.837 601.605 443.24 603.995 443.24C605.488 443.24 606.813 443.445 607.971 443.856C609.128 444.267 610.061 444.715 610.771 445.2C611.965 446.021 612.563 446.731 612.563 447.328C612.563 447.589 612.432 447.832 612.171 448.056L610.659 449.344H610.435L609.707 448.336C608.885 447.216 607.989 446.301 607.019 445.592C606.085 444.845 604.872 444.472 603.379 444.472C600.765 444.472 598.6 445.461 596.883 447.44C595.203 449.381 594.363 452.293 594.363 456.176C594.363 459.461 595.221 462.131 596.939 464.184C598.693 466.2 601.157 467.208 604.331 467.208C606.048 467.208 607.635 466.947 609.091 466.424C610.547 465.901 611.685 465.192 612.507 464.296H612.675V465.024C611.816 466.331 610.603 467.413 609.035 468.272C607.467 469.131 605.637 469.56 603.547 469.56ZM624.473 469.56C622.755 469.56 621.318 469.056 620.161 468.048C619.003 467.003 618.425 465.565 618.425 463.736C618.425 461.944 619.059 460.451 620.329 459.256C621.635 458.061 623.782 457.091 626.769 456.344L632.257 454.944V450.296C632.257 448.691 631.678 447.403 630.521 446.432C629.363 445.424 628.038 444.92 626.545 444.92C624.939 444.92 623.801 445.256 623.129 445.928C622.494 446.563 622.177 447.44 622.177 448.56V450.856L621.897 451.136H620.441C619.843 451.136 619.451 451.043 619.265 450.856C619.078 450.669 618.985 450.315 618.985 449.792C618.985 449.083 619.227 448.355 619.713 447.608C620.198 446.861 620.907 446.189 621.841 445.592C622.849 444.957 623.857 444.416 624.865 443.968C625.91 443.483 626.899 443.24 627.833 443.24C630.073 443.24 631.827 443.744 633.097 444.752C634.403 445.723 635.057 447.253 635.057 449.344V466.76C635.355 467.021 635.691 467.227 636.065 467.376C636.475 467.525 636.942 467.6 637.465 467.6H640.377L640.433 467.656V467.768C640.171 468.141 639.742 468.533 639.145 468.944C638.547 469.355 637.745 469.56 636.737 469.56C635.43 469.56 634.422 469.224 633.713 468.552C633.003 467.88 632.574 467.096 632.425 466.2H632.313C631.342 467.171 630.166 467.973 628.785 468.608C627.441 469.243 626.003 469.56 624.473 469.56ZM621.225 462.728C621.225 464.259 621.654 465.416 622.513 466.2C623.371 466.947 624.585 467.32 626.153 467.32C627.086 467.32 628.094 467.189 629.177 466.928C630.259 466.629 631.286 466.181 632.257 465.584V456.12C629.158 456.755 626.806 457.389 625.201 458.024C623.633 458.659 622.569 459.349 622.009 460.096C621.486 460.843 621.225 461.72 621.225 462.728ZM653.041 469.28L643.913 445.704L640.385 444.64V443.8H651.137V444.64L646.825 445.592V445.76L654.049 465.36H654.217L661.329 445.816V445.648L656.793 444.64V443.8H666.705V444.64L663.121 445.704L653.601 469.28H653.041ZM674.647 469.56C672.93 469.56 671.493 469.056 670.335 468.048C669.178 467.003 668.599 465.565 668.599 463.736C668.599 461.944 669.234 460.451 670.503 459.256C671.81 458.061 673.957 457.091 676.943 456.344L682.431 454.944V450.296C682.431 448.691 681.853 447.403 680.695 446.432C679.538 445.424 678.213 444.92 676.719 444.92C675.114 444.92 673.975 445.256 673.303 445.928C672.669 446.563 672.351 447.44 672.351 448.56V450.856L672.071 451.136H670.615C670.018 451.136 669.626 451.043 669.439 450.856C669.253 450.669 669.159 450.315 669.159 449.792C669.159 449.083 669.402 448.355 669.887 447.608C670.373 446.861 671.082 446.189 672.015 445.592C673.023 444.957 674.031 444.416 675.039 443.968C676.085 443.483 677.074 443.24 678.007 443.24C680.247 443.24 682.002 443.744 683.271 444.752C684.578 445.723 685.231 447.253 685.231 449.344V466.76C685.53 467.021 685.866 467.227 686.239 467.376C686.65 467.525 687.117 467.6 687.639 467.6H690.551L690.607 467.656V467.768C690.346 468.141 689.917 468.533 689.319 468.944C688.722 469.355 687.919 469.56 686.911 469.56C685.605 469.56 684.597 469.224 683.887 468.552C683.178 467.88 682.749 467.096 682.599 466.2H682.487C681.517 467.171 680.341 467.973 678.959 468.608C677.615 469.243 676.178 469.56 674.647 469.56ZM671.399 462.728C671.399 464.259 671.829 465.416 672.687 466.2C673.546 466.947 674.759 467.32 676.327 467.32C677.261 467.32 678.269 467.189 679.351 466.928C680.434 466.629 681.461 466.181 682.431 465.584V456.12C679.333 456.755 676.981 457.389 675.375 458.024C673.807 458.659 672.743 459.349 672.183 460.096C671.661 460.843 671.399 461.72 671.399 462.728ZM694.816 469V468.16L698.344 467.208V429.688L694.256 428.624V427.784L700.584 427H701.144V467.208L705.12 468.16V469H694.816ZM723.108 469.56C720.458 469.56 718.218 469 716.388 467.88C714.596 466.76 713.234 465.248 712.3 463.344C711.404 461.44 710.956 459.293 710.956 456.904C710.956 454.365 711.479 452.069 712.524 450.016C713.607 447.963 715.007 446.32 716.724 445.088C718.479 443.856 720.383 443.24 722.436 443.24C725.386 443.24 727.7 444.211 729.38 446.152C731.06 448.093 732.031 450.781 732.292 454.216L732.124 454.384H713.812C713.775 454.944 713.756 455.541 713.756 456.176C713.756 459.461 714.634 462.131 716.388 464.184C718.18 466.2 720.682 467.208 723.892 467.208C725.647 467.208 727.234 466.947 728.652 466.424C730.108 465.901 731.247 465.192 732.068 464.296H732.236V465.024C731.415 466.331 730.202 467.413 728.596 468.272C727.028 469.131 725.199 469.56 723.108 469.56ZM721.764 444.472C719.935 444.472 718.292 445.237 716.836 446.768C715.38 448.261 714.428 450.389 713.98 453.152H729.212C728.839 450.427 728.074 448.299 726.916 446.768C725.759 445.237 724.042 444.472 721.764 444.472Z" fill="black"/>
</svg>
