<svg width="848" height="1152" viewBox="0 0 848 1152" fill="none" xmlns="http://www.w3.org/2000/svg">
<rect width="848" height="1152" fill="#FAFAFA"/>
<path d="M96.1972 489.88V489.04L99.7252 488.088V453.928L95.6372 453.424V452.584L101.685 451.24H102.245L102.469 454.712H102.749C104.168 453.517 105.531 452.64 106.837 452.08C108.181 451.52 109.619 451.24 111.149 451.24C113.016 451.24 114.677 451.725 116.133 452.696C117.589 453.667 118.728 455.048 119.549 456.84C120.408 458.595 120.837 460.704 120.837 463.168C120.837 466.229 120.24 468.843 119.045 471.008C117.851 473.136 116.264 474.76 114.285 475.88C112.307 477 110.123 477.56 107.733 477.56C106.912 477.56 106.053 477.411 105.157 477.112C104.261 476.851 103.384 476.496 102.525 476.048V488.088L106.501 489.04V489.88H96.1972ZM109.637 453.144C108.256 453.144 106.968 453.387 105.773 453.872C104.616 454.357 103.533 455.048 102.525 455.944V473.808C103.683 474.555 104.821 475.133 105.941 475.544C107.061 475.917 108.312 476.104 109.693 476.104C111.224 476.104 112.624 475.712 113.893 474.928C115.2 474.144 116.245 472.875 117.029 471.12C117.813 469.328 118.205 466.976 118.205 464.064C118.205 461.563 117.795 459.509 116.973 457.904C116.152 456.261 115.069 455.067 113.725 454.32C112.419 453.536 111.056 453.144 109.637 453.144ZM139.565 477.56C136.915 477.56 134.675 477 132.845 475.88C131.053 474.76 129.691 473.248 128.757 471.344C127.861 469.44 127.413 467.293 127.413 464.904C127.413 462.365 127.936 460.069 128.981 458.016C130.064 455.963 131.464 454.32 133.181 453.088C134.936 451.856 136.84 451.24 138.893 451.24C141.843 451.24 144.157 452.211 145.837 454.152C147.517 456.093 148.488 458.781 148.749 462.216L148.581 462.384H130.269C130.232 462.944 130.213 463.541 130.213 464.176C130.213 467.461 131.091 470.131 132.845 472.184C134.637 474.2 137.139 475.208 140.349 475.208C142.104 475.208 143.691 474.947 145.109 474.424C146.565 473.901 147.704 473.192 148.525 472.296H148.693V473.024C147.872 474.331 146.659 475.413 145.053 476.272C143.485 477.131 141.656 477.56 139.565 477.56ZM138.221 452.472C136.392 452.472 134.749 453.237 133.293 454.768C131.837 456.261 130.885 458.389 130.437 461.152H145.669C145.296 458.427 144.531 456.299 143.373 454.768C142.216 453.237 140.499 452.472 138.221 452.472ZM160.31 477.56C158.593 477.56 157.156 477.056 155.998 476.048C154.841 475.003 154.262 473.565 154.262 471.736C154.262 469.944 154.897 468.451 156.166 467.256C157.473 466.061 159.62 465.091 162.606 464.344L168.094 462.944V458.296C168.094 456.691 167.516 455.403 166.358 454.432C165.201 453.424 163.876 452.92 162.382 452.92C160.777 452.92 159.638 453.256 158.966 453.928C158.332 454.563 158.014 455.44 158.014 456.56V458.856L157.734 459.136H156.278C155.681 459.136 155.289 459.043 155.102 458.856C154.916 458.669 154.822 458.315 154.822 457.792C154.822 457.083 155.065 456.355 155.55 455.608C156.036 454.861 156.745 454.189 157.678 453.592C158.686 452.957 159.694 452.416 160.702 451.968C161.748 451.483 162.737 451.24 163.67 451.24C165.91 451.24 167.665 451.744 168.934 452.752C170.241 453.723 170.894 455.253 170.894 457.344V474.76C171.193 475.021 171.529 475.227 171.902 475.376C172.313 475.525 172.78 475.6 173.302 475.6H176.214L176.27 475.656V475.768C176.009 476.141 175.58 476.533 174.982 476.944C174.385 477.355 173.582 477.56 172.574 477.56C171.268 477.56 170.26 477.224 169.55 476.552C168.841 475.88 168.412 475.096 168.262 474.2H168.15C167.18 475.171 166.004 475.973 164.622 476.608C163.278 477.243 161.841 477.56 160.31 477.56ZM157.062 470.728C157.062 472.259 157.492 473.416 158.35 474.2C159.209 474.947 160.422 475.32 161.99 475.32C162.924 475.32 163.932 475.189 165.014 474.928C166.097 474.629 167.124 474.181 168.094 473.584V464.12C164.996 464.755 162.644 465.389 161.038 466.024C159.47 466.659 158.406 467.349 157.846 468.096C157.324 468.843 157.062 469.72 157.062 470.728ZM187.087 477.56C185.78 477.56 184.604 477.411 183.559 477.112C182.551 476.851 181.505 476.459 180.423 475.936V470.112H181.095L181.879 472.632C182.215 473.752 182.831 474.648 183.727 475.32C184.623 475.955 185.892 476.272 187.535 476.272C189.327 476.272 190.708 475.843 191.679 474.984C192.687 474.088 193.191 472.819 193.191 471.176C193.191 469.72 192.799 468.581 192.015 467.76C191.231 466.901 189.775 466.043 187.647 465.184C185.407 464.288 183.745 463.317 182.663 462.272C181.617 461.227 181.095 459.733 181.095 457.792C181.095 456.597 181.412 455.515 182.047 454.544C182.719 453.536 183.596 452.733 184.679 452.136C185.761 451.539 186.919 451.24 188.151 451.24C189.532 451.24 190.764 451.408 191.847 451.744C192.929 452.043 193.863 452.397 194.647 452.808V458.52H193.975L193.247 456.112C192.873 454.805 192.164 453.872 191.119 453.312C190.111 452.752 189.084 452.472 188.039 452.472C186.583 452.472 185.463 452.901 184.679 453.76C183.932 454.619 183.559 455.739 183.559 457.12C183.559 458.501 183.969 459.584 184.791 460.368C185.612 461.152 186.937 461.917 188.767 462.664C190.409 463.336 191.735 463.989 192.743 464.624C193.788 465.259 194.553 466.043 195.039 466.976C195.524 467.872 195.767 469.029 195.767 470.448C195.767 471.717 195.412 472.893 194.703 473.976C193.993 475.059 192.985 475.936 191.679 476.608C190.372 477.243 188.841 477.56 187.087 477.56ZM208.326 477.56C206.609 477.56 205.171 477.056 204.014 476.048C202.857 475.003 202.278 473.565 202.278 471.736C202.278 469.944 202.913 468.451 204.182 467.256C205.489 466.061 207.635 465.091 210.622 464.344L216.11 462.944V458.296C216.11 456.691 215.531 455.403 214.374 454.432C213.217 453.424 211.891 452.92 210.398 452.92C208.793 452.92 207.654 453.256 206.982 453.928C206.347 454.563 206.03 455.44 206.03 456.56V458.856L205.75 459.136H204.294C203.697 459.136 203.305 459.043 203.118 458.856C202.931 458.669 202.838 458.315 202.838 457.792C202.838 457.083 203.081 456.355 203.566 455.608C204.051 454.861 204.761 454.189 205.694 453.592C206.702 452.957 207.71 452.416 208.718 451.968C209.763 451.483 210.753 451.24 211.686 451.24C213.926 451.24 215.681 451.744 216.95 452.752C218.257 453.723 218.91 455.253 218.91 457.344V474.76C219.209 475.021 219.545 475.227 219.918 475.376C220.329 475.525 220.795 475.6 221.318 475.6H224.23L224.286 475.656V475.768C224.025 476.141 223.595 476.533 222.998 476.944C222.401 477.355 221.598 477.56 220.59 477.56C219.283 477.56 218.275 477.224 217.566 476.552C216.857 475.88 216.427 475.096 216.278 474.2H216.166C215.195 475.171 214.019 475.973 212.638 476.608C211.294 477.243 209.857 477.56 208.326 477.56ZM205.078 470.728C205.078 472.259 205.507 473.416 206.366 474.2C207.225 474.947 208.438 475.32 210.006 475.32C210.939 475.32 211.947 475.189 213.03 474.928C214.113 474.629 215.139 474.181 216.11 473.584V464.12C213.011 464.755 210.659 465.389 209.054 466.024C207.486 466.659 206.422 467.349 205.862 468.096C205.339 468.843 205.078 469.72 205.078 470.728ZM228.158 477V476.16L231.686 475.208V453.928L227.598 453.424V452.584L233.646 451.24H234.206L234.43 455.272H234.598C235.979 453.853 237.286 452.827 238.518 452.192C239.75 451.557 241.131 451.24 242.662 451.24C245.014 451.24 246.937 451.893 248.43 453.2C249.961 454.507 250.726 456.411 250.726 458.912V475.208L254.254 476.16V477H243.95V476.16L247.926 475.208V460.424C247.926 458.147 247.31 456.429 246.078 455.272C244.883 454.077 243.297 453.48 241.318 453.48C240.198 453.48 238.985 453.76 237.678 454.32C236.371 454.843 235.307 455.608 234.486 456.616V475.208L238.462 476.16V477H228.158ZM267.443 477.56C265.913 477.56 264.662 477.075 263.691 476.104C262.758 475.133 262.291 473.771 262.291 472.016V453.704H257.363V453.2L262.627 451.8L264.475 445.64H265.091V451.8H272.483V453.704H265.091V471.904C265.091 473.061 265.446 473.939 266.155 474.536C266.865 475.096 267.798 475.376 268.955 475.376C269.777 475.376 270.523 475.283 271.195 475.096C271.867 474.909 272.502 474.648 273.099 474.312L273.155 474.368V474.592C272.857 475.227 272.222 475.88 271.251 476.552C270.281 477.224 269.011 477.56 267.443 477.56ZM278.312 477V476.16L281.84 475.208V453.928L277.752 453.424V452.584L283.8 451.24H284.36L284.64 456.224H284.752C286.208 454.693 287.365 453.573 288.224 452.864C289.083 452.155 289.792 451.707 290.352 451.52C290.912 451.333 291.547 451.24 292.256 451.24C292.891 451.24 293.469 451.352 293.992 451.576C294.365 451.725 294.627 451.875 294.776 452.024C294.963 452.136 295.056 452.304 295.056 452.528C295.056 452.603 295.037 452.696 295 452.808C295 452.883 294.981 452.995 294.944 453.144L294.384 454.6H294.272L293.208 454.096C292.685 453.835 291.995 453.704 291.136 453.704C290.053 453.704 288.971 454.003 287.888 454.6C286.805 455.197 285.723 456.243 284.64 457.736V475.208L288.952 476.16V477H278.312ZM302.802 442.392C302.205 442.392 301.701 442.187 301.29 441.776C300.88 441.365 300.674 440.861 300.674 440.264C300.674 439.667 300.88 439.163 301.29 438.752C301.701 438.341 302.205 438.136 302.802 438.136C303.4 438.136 303.904 438.341 304.314 438.752C304.725 439.163 304.93 439.667 304.93 440.264C304.93 440.861 304.725 441.365 304.314 441.776C303.904 442.187 303.4 442.392 302.802 442.392ZM298.658 477V476.16L302.186 475.208V453.928L298.098 452.864V452.024L304.426 451.24H304.986V475.208L308.962 476.16V477H298.658ZM326.925 477.56C324.274 477.56 322.034 477 320.205 475.88C318.413 474.76 317.05 473.248 316.117 471.344C315.221 469.44 314.773 467.293 314.773 464.904C314.773 462.365 315.295 460.069 316.341 458.016C317.423 455.963 318.823 454.32 320.541 453.088C322.295 451.856 324.199 451.24 326.253 451.24C329.202 451.24 331.517 452.211 333.197 454.152C334.877 456.093 335.847 458.781 336.109 462.216L335.941 462.384H317.629C317.591 462.944 317.573 463.541 317.573 464.176C317.573 467.461 318.45 470.131 320.205 472.184C321.997 474.2 324.498 475.208 327.709 475.208C329.463 475.208 331.05 474.947 332.469 474.424C333.925 473.901 335.063 473.192 335.885 472.296H336.053V473.024C335.231 474.331 334.018 475.413 332.413 476.272C330.845 477.131 329.015 477.56 326.925 477.56ZM325.581 452.472C323.751 452.472 322.109 453.237 320.653 454.768C319.197 456.261 318.245 458.389 317.797 461.152H333.029C332.655 458.427 331.89 456.299 330.733 454.768C329.575 453.237 327.858 452.472 325.581 452.472ZM349.126 477.56C347.819 477.56 346.643 477.411 345.598 477.112C344.59 476.851 343.544 476.459 342.462 475.936V470.112H343.134L343.918 472.632C344.254 473.752 344.87 474.648 345.766 475.32C346.662 475.955 347.931 476.272 349.574 476.272C351.366 476.272 352.747 475.843 353.718 474.984C354.726 474.088 355.23 472.819 355.23 471.176C355.23 469.72 354.838 468.581 354.054 467.76C353.27 466.901 351.814 466.043 349.686 465.184C347.446 464.288 345.784 463.317 344.702 462.272C343.656 461.227 343.134 459.733 343.134 457.792C343.134 456.597 343.451 455.515 344.086 454.544C344.758 453.536 345.635 452.733 346.718 452.136C347.8 451.539 348.958 451.24 350.19 451.24C351.571 451.24 352.803 451.408 353.886 451.744C354.968 452.043 355.902 452.397 356.686 452.808V458.52H356.014L355.286 456.112C354.912 454.805 354.203 453.872 353.158 453.312C352.15 452.752 351.123 452.472 350.078 452.472C348.622 452.472 347.502 452.901 346.718 453.76C345.971 454.619 345.598 455.739 345.598 457.12C345.598 458.501 346.008 459.584 346.83 460.368C347.651 461.152 348.976 461.917 350.806 462.664C352.448 463.336 353.774 463.989 354.782 464.624C355.827 465.259 356.592 466.043 357.078 466.976C357.563 467.872 357.806 469.029 357.806 470.448C357.806 471.717 357.451 472.893 356.742 473.976C356.032 475.059 355.024 475.936 353.718 476.608C352.411 477.243 350.88 477.56 349.126 477.56ZM367.733 477.224C367.024 477.224 366.426 476.981 365.941 476.496C365.456 475.973 365.213 475.376 365.213 474.704C365.213 474.032 365.456 473.453 365.941 472.968C366.426 472.445 367.024 472.184 367.733 472.184C368.442 472.184 369.04 472.445 369.525 472.968C370.01 473.453 370.253 474.032 370.253 474.704C370.253 475.376 370.01 475.973 369.525 476.496C369.04 476.981 368.442 477.224 367.733 477.224ZM367.733 456.28C367.024 456.28 366.426 456.037 365.941 455.552C365.456 455.029 365.213 454.432 365.213 453.76C365.213 453.088 365.456 452.509 365.941 452.024C366.426 451.501 367.024 451.24 367.733 451.24C368.442 451.24 369.04 451.501 369.525 452.024C370.01 452.509 370.253 453.088 370.253 453.76C370.253 454.432 370.01 455.029 369.525 455.552C369.04 456.037 368.442 456.28 367.733 456.28ZM396.56 477.56C394.843 477.56 393.406 477.056 392.248 476.048C391.091 475.003 390.512 473.565 390.512 471.736C390.512 469.944 391.147 468.451 392.416 467.256C393.723 466.061 395.87 465.091 398.856 464.344L404.344 462.944V458.296C404.344 456.691 403.766 455.403 402.608 454.432C401.451 453.424 400.126 452.92 398.632 452.92C397.027 452.92 395.888 453.256 395.216 453.928C394.582 454.563 394.264 455.44 394.264 456.56V458.856L393.984 459.136H392.528C391.931 459.136 391.539 459.043 391.352 458.856C391.166 458.669 391.072 458.315 391.072 457.792C391.072 457.083 391.315 456.355 391.8 455.608C392.286 454.861 392.995 454.189 393.928 453.592C394.936 452.957 395.944 452.416 396.952 451.968C397.998 451.483 398.987 451.24 399.92 451.24C402.16 451.24 403.915 451.744 405.184 452.752C406.491 453.723 407.144 455.253 407.144 457.344V474.76C407.443 475.021 407.779 475.227 408.152 475.376C408.563 475.525 409.03 475.6 409.552 475.6H412.464L412.52 475.656V475.768C412.259 476.141 411.83 476.533 411.232 476.944C410.635 477.355 409.832 477.56 408.824 477.56C407.518 477.56 406.51 477.224 405.8 476.552C405.091 475.88 404.662 475.096 404.512 474.2H404.4C403.43 475.171 402.254 475.973 400.872 476.608C399.528 477.243 398.091 477.56 396.56 477.56ZM393.312 470.728C393.312 472.259 393.742 473.416 394.6 474.2C395.459 474.947 396.672 475.32 398.24 475.32C399.174 475.32 400.182 475.189 401.264 474.928C402.347 474.629 403.374 474.181 404.344 473.584V464.12C401.246 464.755 398.894 465.389 397.288 466.024C395.72 466.659 394.656 467.349 394.096 468.096C393.574 468.843 393.312 469.72 393.312 470.728ZM416.393 477V476.16L419.921 475.208V453.928L415.833 453.424V452.584L421.881 451.24H422.441L422.665 455.272H422.833C424.214 453.853 425.521 452.827 426.753 452.192C427.985 451.557 429.366 451.24 430.897 451.24C433.249 451.24 435.171 451.893 436.665 453.2C438.195 454.507 438.961 456.411 438.961 458.912V475.208L442.489 476.16V477H432.185V476.16L436.161 475.208V460.424C436.161 458.147 435.545 456.429 434.313 455.272C433.118 454.077 431.531 453.48 429.553 453.48C428.433 453.48 427.219 453.76 425.913 454.32C424.606 454.843 423.542 455.608 422.721 456.616V475.208L426.697 476.16V477H416.393ZM466.318 442.392C465.721 442.392 465.217 442.187 464.806 441.776C464.395 441.365 464.19 440.861 464.19 440.264C464.19 439.667 464.395 439.163 464.806 438.752C465.217 438.341 465.721 438.136 466.318 438.136C466.915 438.136 467.419 438.341 467.83 438.752C468.241 439.163 468.446 439.667 468.446 440.264C468.446 440.861 468.241 441.365 467.83 441.776C467.419 442.187 466.915 442.392 466.318 442.392ZM462.174 477V476.16L465.702 475.208V453.928L461.614 452.864V452.024L467.942 451.24H468.502V475.208L472.478 476.16V477H462.174ZM478.736 477V476.16L482.264 475.208V453.928L478.176 453.424V452.584L484.224 451.24H484.784L485.008 455.272H485.176C486.558 453.853 487.864 452.827 489.096 452.192C490.328 451.557 491.71 451.24 493.24 451.24C495.592 451.24 497.515 451.893 499.008 453.2C500.539 454.507 501.304 456.411 501.304 458.912V475.208L504.832 476.16V477H494.528V476.16L498.504 475.208V460.424C498.504 458.147 497.888 456.429 496.656 455.272C495.462 454.077 493.875 453.48 491.896 453.48C490.776 453.48 489.563 453.76 488.256 454.32C486.95 454.843 485.886 455.608 485.064 456.616V475.208L489.04 476.16V477H478.736ZM518.022 477.56C516.491 477.56 515.24 477.075 514.27 476.104C513.336 475.133 512.87 473.771 512.87 472.016V453.704H507.942V453.2L513.206 451.8L515.054 445.64H515.67V451.8H523.062V453.704H515.67V471.904C515.67 473.061 516.024 473.939 516.734 474.536C517.443 475.096 518.376 475.376 519.534 475.376C520.355 475.376 521.102 475.283 521.774 475.096C522.446 474.909 523.08 474.648 523.678 474.312L523.734 474.368V474.592C523.435 475.227 522.8 475.88 521.83 476.552C520.859 477.224 519.59 477.56 518.022 477.56ZM528.89 477V476.16L532.418 475.208V453.928L528.33 453.424V452.584L534.378 451.24H534.938L535.218 456.224H535.33C536.786 454.693 537.943 453.573 538.802 452.864C539.661 452.155 540.37 451.707 540.93 451.52C541.49 451.333 542.125 451.24 542.834 451.24C543.469 451.24 544.047 451.352 544.57 451.576C544.943 451.725 545.205 451.875 545.354 452.024C545.541 452.136 545.634 452.304 545.634 452.528C545.634 452.603 545.615 452.696 545.578 452.808C545.578 452.883 545.559 452.995 545.522 453.144L544.962 454.6H544.85L543.786 454.096C543.263 453.835 542.573 453.704 541.714 453.704C540.631 453.704 539.549 454.003 538.466 454.6C537.383 455.197 536.301 456.243 535.218 457.736V475.208L539.53 476.16V477H528.89ZM559.932 477.56C557.655 477.56 555.658 476.981 553.94 475.824C552.223 474.667 550.879 473.099 549.908 471.12C548.938 469.141 548.452 466.901 548.452 464.4C548.452 461.899 548.938 459.659 549.908 457.68C550.879 455.701 552.223 454.133 553.94 452.976C555.658 451.819 557.655 451.24 559.932 451.24C562.21 451.24 564.207 451.819 565.924 452.976C567.642 454.133 568.986 455.701 569.956 457.68C570.927 459.659 571.412 461.899 571.412 464.4C571.412 466.901 570.927 469.141 569.956 471.12C568.986 473.099 567.642 474.667 565.924 475.824C564.207 476.981 562.21 477.56 559.932 477.56ZM560.716 476.272C562.434 476.272 563.871 475.768 565.028 474.76C566.223 473.715 567.119 472.371 567.716 470.728C568.314 469.085 568.612 467.349 568.612 465.52C568.612 463.093 568.258 460.909 567.548 458.968C566.839 456.989 565.775 455.421 564.356 454.264C562.975 453.069 561.276 452.472 559.26 452.472C557.58 452.472 556.143 452.957 554.948 453.928C553.754 454.861 552.839 456.149 552.204 457.792C551.57 459.397 551.252 461.208 551.252 463.224C551.252 465.651 551.626 467.853 552.372 469.832C553.156 471.811 554.239 473.379 555.62 474.536C557.039 475.693 558.738 476.272 560.716 476.272ZM587.669 477.56C585.802 477.56 584.141 477.075 582.685 476.104C581.229 475.133 580.072 473.771 579.213 472.016C578.392 470.224 577.981 468.096 577.981 465.632C577.981 462.571 578.578 459.976 579.773 457.848C580.968 455.683 582.554 454.04 584.533 452.92C586.512 451.8 588.696 451.24 591.085 451.24C591.906 451.24 592.765 451.389 593.661 451.688C594.557 451.949 595.434 452.304 596.293 452.752V437.688L592.205 436.624V435.784L598.533 435H599.093V475.208L603.069 476.16V477H596.853L596.349 474.144H596.069C594.8 475.227 593.474 476.067 592.093 476.664C590.749 477.261 589.274 477.56 587.669 477.56ZM580.613 464.736C580.613 467.237 581.024 469.309 581.845 470.952C582.666 472.557 583.73 473.752 585.037 474.536C586.381 475.283 587.762 475.656 589.181 475.656C590.413 475.656 591.645 475.432 592.877 474.984C594.109 474.536 595.248 473.808 596.293 472.8V454.768C595.136 454.133 593.978 453.629 592.821 453.256C591.664 452.883 590.432 452.696 589.125 452.696C587.594 452.696 586.176 453.088 584.869 453.872C583.6 454.656 582.573 455.944 581.789 457.736C581.005 459.491 580.613 461.824 580.613 464.736ZM618.535 477.56C616.258 477.56 614.391 476.907 612.935 475.6C611.479 474.293 610.751 472.389 610.751 469.888V453.592L606.775 452.64V451.8H613.551V468.376C613.551 470.653 614.13 472.389 615.287 473.584C616.482 474.741 618.012 475.32 619.879 475.32C620.962 475.32 622.119 475.059 623.351 474.536C624.62 473.976 625.647 473.192 626.431 472.184V453.592L621.895 452.64V451.8H629.231V475.208L633.207 476.16V477H626.431V473.584H626.263C624.919 474.928 623.65 475.936 622.455 476.608C621.26 477.243 619.954 477.56 618.535 477.56ZM649.632 477.56C647.018 477.56 644.816 477 643.024 475.88C641.269 474.76 639.925 473.248 638.992 471.344C638.096 469.44 637.648 467.293 637.648 464.904C637.648 462.291 638.17 459.957 639.216 457.904C640.298 455.813 641.773 454.189 643.64 453.032C645.544 451.837 647.69 451.24 650.08 451.24C651.573 451.24 652.898 451.445 654.056 451.856C655.213 452.267 656.146 452.715 656.856 453.2C658.05 454.021 658.648 454.731 658.648 455.328C658.648 455.589 658.517 455.832 658.256 456.056L656.744 457.344H656.52L655.792 456.336C654.97 455.216 654.074 454.301 653.104 453.592C652.17 452.845 650.957 452.472 649.464 452.472C646.85 452.472 644.685 453.461 642.968 455.44C641.288 457.381 640.448 460.293 640.448 464.176C640.448 467.461 641.306 470.131 643.024 472.184C644.778 474.2 647.242 475.208 650.416 475.208C652.133 475.208 653.72 474.947 655.176 474.424C656.632 473.901 657.77 473.192 658.592 472.296H658.76V473.024C657.901 474.331 656.688 475.413 655.12 476.272C653.552 477.131 651.722 477.56 649.632 477.56ZM672.35 477.56C670.819 477.56 669.568 477.075 668.598 476.104C667.664 475.133 667.198 473.771 667.198 472.016V453.704H662.27V453.2L667.534 451.8L669.382 445.64H669.998V451.8H677.39V453.704H669.998V471.904C669.998 473.061 670.352 473.939 671.062 474.536C671.771 475.096 672.704 475.376 673.862 475.376C674.683 475.376 675.43 475.283 676.102 475.096C676.774 474.909 677.408 474.648 678.006 474.312L678.062 474.368V474.592C677.763 475.227 677.128 475.88 676.158 476.552C675.187 477.224 673.918 477.56 672.35 477.56ZM694.026 477.56C691.749 477.56 689.751 476.981 688.034 475.824C686.317 474.667 684.973 473.099 684.002 471.12C683.031 469.141 682.546 466.901 682.546 464.4C682.546 461.899 683.031 459.659 684.002 457.68C684.973 455.701 686.317 454.133 688.034 452.976C689.751 451.819 691.749 451.24 694.026 451.24C696.303 451.24 698.301 451.819 700.018 452.976C701.735 454.133 703.079 455.701 704.05 457.68C705.021 459.659 705.506 461.899 705.506 464.4C705.506 466.901 705.021 469.141 704.05 471.12C703.079 473.099 701.735 474.667 700.018 475.824C698.301 476.981 696.303 477.56 694.026 477.56ZM694.81 476.272C696.527 476.272 697.965 475.768 699.122 474.76C700.317 473.715 701.213 472.371 701.81 470.728C702.407 469.085 702.706 467.349 702.706 465.52C702.706 463.093 702.351 460.909 701.642 458.968C700.933 456.989 699.869 455.421 698.45 454.264C697.069 453.069 695.37 452.472 693.354 452.472C691.674 452.472 690.237 452.957 689.042 453.928C687.847 454.861 686.933 456.149 686.298 457.792C685.663 459.397 685.346 461.208 685.346 463.224C685.346 465.651 685.719 467.853 686.466 469.832C687.25 471.811 688.333 473.379 689.714 474.536C691.133 475.693 692.831 476.272 694.81 476.272ZM711.765 477V476.16L715.293 475.208V453.928L711.205 453.424V452.584L717.253 451.24H717.813L718.093 456.224H718.205C719.661 454.693 720.818 453.573 721.677 452.864C722.536 452.155 723.245 451.707 723.805 451.52C724.365 451.333 725 451.24 725.709 451.24C726.344 451.24 726.922 451.352 727.445 451.576C727.818 451.725 728.08 451.875 728.229 452.024C728.416 452.136 728.509 452.304 728.509 452.528C728.509 452.603 728.49 452.696 728.453 452.808C728.453 452.883 728.434 452.995 728.397 453.144L727.837 454.6H727.725L726.661 454.096C726.138 453.835 725.448 453.704 724.589 453.704C723.506 453.704 722.424 454.003 721.341 454.6C720.258 455.197 719.176 456.243 718.093 457.736V475.208L722.405 476.16V477H711.765ZM733.612 490.496C732.828 490.496 732.324 490.365 732.1 490.104C731.914 489.88 731.82 489.469 731.82 488.872V487.64L732.156 487.304H734.62C735.554 487.304 736.263 487.229 736.748 487.08C737.234 486.931 737.682 486.52 738.092 485.848C738.503 485.176 739.082 484.075 739.828 482.544L742.74 476.384L733.556 453.704L730.028 452.64V451.8H740.78V452.64L736.468 453.592V453.76L743.972 472.968H744.14L750.972 453.816V453.648L746.436 452.64V451.8H756.348V452.64L752.764 453.704L741.06 483.048C740.612 484.168 740.183 485.083 739.772 485.792C739.399 486.539 738.97 487.267 738.484 487.976C737.924 488.797 737.196 489.413 736.3 489.824C735.442 490.272 734.546 490.496 733.612 490.496ZM406.154 587V553.304L402.65 552.632V551.912L408.074 551H408.554V567.896H408.746C409.962 566.872 411.146 566.12 412.298 565.64C413.45 565.16 414.666 564.92 415.946 564.92C417.546 564.92 418.97 565.336 420.218 566.168C421.466 567 422.442 568.184 423.146 569.72C423.882 571.224 424.25 573.032 424.25 575.144C424.25 577.768 423.738 580.008 422.714 581.864C421.69 583.688 420.33 585.08 418.634 586.04C416.938 587 415.066 587.48 413.018 587.48C412.186 587.48 411.274 587.304 410.282 586.952C409.322 586.6 408.426 586.168 407.594 585.656L406.586 587H406.154ZM414.65 566.552C413.466 566.552 412.362 566.76 411.338 567.176C410.346 567.592 409.418 568.184 408.554 568.952V584.264C409.546 584.904 410.522 585.4 411.482 585.752C412.442 586.072 413.514 586.232 414.698 586.232C415.978 586.232 417.178 585.896 418.298 585.224C419.418 584.552 420.314 583.464 420.986 581.96C421.658 580.424 421.994 578.408 421.994 575.912C421.994 573.768 421.642 572.008 420.938 570.632C420.234 569.224 419.322 568.2 418.202 567.56C417.082 566.888 415.898 566.552 414.65 566.552ZM429.038 598.568C428.366 598.568 427.934 598.456 427.742 598.232C427.582 598.04 427.502 597.688 427.502 597.176V596.12L427.79 595.832H429.902C430.702 595.832 431.31 595.768 431.726 595.64C432.142 595.512 432.526 595.16 432.878 594.584C433.23 594.008 433.726 593.064 434.366 591.752L436.862 586.472L428.99 567.032L425.966 566.12V565.4H435.182V566.12L431.486 566.936V567.08L437.918 583.544H438.062L443.918 567.128V566.984L440.03 566.12V565.4H448.526V566.12L445.454 567.032L435.422 592.184C435.038 593.144 434.67 593.928 434.318 594.536C433.998 595.176 433.63 595.8 433.214 596.408C432.734 597.112 432.11 597.64 431.342 597.992C430.606 598.376 429.838 598.568 429.038 598.568ZM123.467 709V708.16L126.995 707.208V685.704H122.067V683.8H126.995V681.56C126.995 680.067 127.237 678.48 127.723 676.8C128.245 675.12 128.992 673.533 129.963 672.04C130.971 670.547 132.221 669.333 133.715 668.4C135.208 667.467 136.944 667 138.923 667C139.408 667 139.837 667.075 140.211 667.224C140.808 667.485 141.107 667.784 141.107 668.12C141.107 668.344 141.051 668.587 140.939 668.848L140.323 670.36H140.211L139.035 669.968C137.877 669.595 136.757 669.408 135.675 669.408C133.771 669.408 132.315 670.192 131.307 671.76C130.299 673.328 129.795 675.848 129.795 679.32V683.8H137.187V685.704H129.795V707.208L134.107 708.16V709H123.467ZM141.839 709V708.16L145.367 707.208V685.928L141.279 685.424V684.584L147.327 683.24H147.887L148.167 688.224H148.279C149.735 686.693 150.893 685.573 151.751 684.864C152.61 684.155 153.319 683.707 153.879 683.52C154.439 683.333 155.074 683.24 155.783 683.24C156.418 683.24 156.997 683.352 157.519 683.576C157.893 683.725 158.154 683.875 158.303 684.024C158.49 684.136 158.583 684.304 158.583 684.528C158.583 684.603 158.565 684.696 158.527 684.808C158.527 684.883 158.509 684.995 158.471 685.144L157.911 686.6H157.799L156.735 686.096C156.213 685.835 155.522 685.704 154.663 685.704C153.581 685.704 152.498 686.003 151.415 686.6C150.333 687.197 149.25 688.243 148.167 689.736V707.208L152.479 708.16V709H141.839ZM167.338 709.56C165.62 709.56 164.183 709.056 163.026 708.048C161.868 707.003 161.29 705.565 161.29 703.736C161.29 701.944 161.924 700.451 163.194 699.256C164.5 698.061 166.647 697.091 169.634 696.344L175.122 694.944V690.296C175.122 688.691 174.543 687.403 173.386 686.432C172.228 685.424 170.903 684.92 169.41 684.92C167.804 684.92 166.666 685.256 165.994 685.928C165.359 686.563 165.042 687.44 165.042 688.56V690.856L164.762 691.136H163.306C162.708 691.136 162.316 691.043 162.13 690.856C161.943 690.669 161.85 690.315 161.85 689.792C161.85 689.083 162.092 688.355 162.578 687.608C163.063 686.861 163.772 686.189 164.706 685.592C165.714 684.957 166.722 684.416 167.73 683.968C168.775 683.483 169.764 683.24 170.698 683.24C172.938 683.24 174.692 683.744 175.962 684.752C177.268 685.723 177.922 687.253 177.922 689.344V706.76C178.22 707.021 178.556 707.227 178.93 707.376C179.34 707.525 179.807 707.6 180.33 707.6H183.242L183.298 707.656V707.768C183.036 708.141 182.607 708.533 182.01 708.944C181.412 709.355 180.61 709.56 179.602 709.56C178.295 709.56 177.287 709.224 176.578 708.552C175.868 707.88 175.439 707.096 175.29 706.2H175.178C174.207 707.171 173.031 707.973 171.65 708.608C170.306 709.243 168.868 709.56 167.338 709.56ZM164.09 702.728C164.09 704.259 164.519 705.416 165.378 706.2C166.236 706.947 167.45 707.32 169.018 707.32C169.951 707.32 170.959 707.189 172.042 706.928C173.124 706.629 174.151 706.181 175.122 705.584V696.12C172.023 696.755 169.671 697.389 168.066 698.024C166.498 698.659 165.434 699.349 164.874 700.096C164.351 700.843 164.09 701.72 164.09 702.728ZM187.17 709V708.16L190.698 707.208V685.928L186.61 685.424V684.584L192.658 683.24H193.218L193.442 687.272H193.61C194.991 685.853 196.298 684.827 197.53 684.192C198.762 683.557 200.143 683.24 201.674 683.24C204.026 683.24 205.949 683.893 207.442 685.2C208.973 686.507 209.738 688.411 209.738 690.912V707.208L213.266 708.16V709H202.962V708.16L206.938 707.208V692.424C206.938 690.147 206.322 688.429 205.09 687.272C203.895 686.077 202.309 685.48 200.33 685.48C199.21 685.48 197.997 685.76 196.69 686.32C195.383 686.843 194.319 687.608 193.498 688.616V707.208L197.474 708.16V709H187.17ZM230.151 709.56C227.538 709.56 225.335 709 223.543 707.88C221.789 706.76 220.445 705.248 219.511 703.344C218.615 701.44 218.167 699.293 218.167 696.904C218.167 694.291 218.69 691.957 219.735 689.904C220.818 687.813 222.293 686.189 224.159 685.032C226.063 683.837 228.21 683.24 230.599 683.24C232.093 683.24 233.418 683.445 234.575 683.856C235.733 684.267 236.666 684.715 237.375 685.2C238.57 686.021 239.167 686.731 239.167 687.328C239.167 687.589 239.037 687.832 238.775 688.056L237.263 689.344H237.039L236.311 688.336C235.49 687.216 234.594 686.301 233.623 685.592C232.69 684.845 231.477 684.472 229.983 684.472C227.37 684.472 225.205 685.461 223.487 687.44C221.807 689.381 220.967 692.293 220.967 696.176C220.967 699.461 221.826 702.131 223.543 704.184C225.298 706.2 227.762 707.208 230.935 707.208C232.653 707.208 234.239 706.947 235.695 706.424C237.151 705.901 238.29 705.192 239.111 704.296H239.279V705.024C238.421 706.331 237.207 707.413 235.639 708.272C234.071 709.131 232.242 709.56 230.151 709.56ZM249.509 674.392C248.912 674.392 248.408 674.187 247.997 673.776C247.587 673.365 247.381 672.861 247.381 672.264C247.381 671.667 247.587 671.163 247.997 670.752C248.408 670.341 248.912 670.136 249.509 670.136C250.107 670.136 250.611 670.341 251.021 670.752C251.432 671.163 251.637 671.667 251.637 672.264C251.637 672.861 251.432 673.365 251.021 673.776C250.611 674.187 250.107 674.392 249.509 674.392ZM245.365 709V708.16L248.893 707.208V685.928L244.805 684.864V684.024L251.133 683.24H251.693V707.208L255.669 708.16V709H245.365ZM268.872 709.56C267.565 709.56 266.389 709.411 265.344 709.112C264.336 708.851 263.29 708.459 262.208 707.936V702.112H262.88L263.664 704.632C264 705.752 264.616 706.648 265.512 707.32C266.408 707.955 267.677 708.272 269.32 708.272C271.112 708.272 272.493 707.843 273.464 706.984C274.472 706.088 274.976 704.819 274.976 703.176C274.976 701.72 274.584 700.581 273.8 699.76C273.016 698.901 271.56 698.043 269.432 697.184C267.192 696.288 265.53 695.317 264.448 694.272C263.402 693.227 262.88 691.733 262.88 689.792C262.88 688.597 263.197 687.515 263.832 686.544C264.504 685.536 265.381 684.733 266.464 684.136C267.546 683.539 268.704 683.24 269.936 683.24C271.317 683.24 272.549 683.408 273.632 683.744C274.714 684.043 275.648 684.397 276.432 684.808V690.52H275.76L275.032 688.112C274.658 686.805 273.949 685.872 272.904 685.312C271.896 684.752 270.869 684.472 269.824 684.472C268.368 684.472 267.248 684.901 266.464 685.76C265.717 686.619 265.344 687.739 265.344 689.12C265.344 690.501 265.754 691.584 266.576 692.368C267.397 693.152 268.722 693.917 270.552 694.664C272.194 695.336 273.52 695.989 274.528 696.624C275.573 697.259 276.338 698.043 276.824 698.976C277.309 699.872 277.552 701.029 277.552 702.448C277.552 703.717 277.197 704.893 276.488 705.976C275.778 707.059 274.77 707.936 273.464 708.608C272.157 709.243 270.626 709.56 268.872 709.56ZM310.327 709.56C307.676 709.56 305.436 709 303.607 707.88C301.815 706.76 300.452 705.248 299.519 703.344C298.623 701.44 298.175 699.293 298.175 696.904C298.175 694.365 298.698 692.069 299.743 690.016C300.826 687.963 302.226 686.32 303.943 685.088C305.698 683.856 307.602 683.24 309.655 683.24C312.604 683.24 314.919 684.211 316.599 686.152C318.279 688.093 319.25 690.781 319.511 694.216L319.343 694.384H301.031C300.994 694.944 300.975 695.541 300.975 696.176C300.975 699.461 301.852 702.131 303.607 704.184C305.399 706.2 307.9 707.208 311.111 707.208C312.866 707.208 314.452 706.947 315.871 706.424C317.327 705.901 318.466 705.192 319.287 704.296H319.455V705.024C318.634 706.331 317.42 707.413 315.815 708.272C314.247 709.131 312.418 709.56 310.327 709.56ZM308.983 684.472C307.154 684.472 305.511 685.237 304.055 686.768C302.599 688.261 301.647 690.389 301.199 693.152H316.431C316.058 690.427 315.292 688.299 314.135 686.768C312.978 685.237 311.26 684.472 308.983 684.472ZM332.528 709.56C331.221 709.56 330.045 709.411 329 709.112C327.992 708.851 326.947 708.459 325.864 707.936V702.112H326.536L327.32 704.632C327.656 705.752 328.272 706.648 329.168 707.32C330.064 707.955 331.333 708.272 332.976 708.272C334.768 708.272 336.149 707.843 337.12 706.984C338.128 706.088 338.632 704.819 338.632 703.176C338.632 701.72 338.24 700.581 337.456 699.76C336.672 698.901 335.216 698.043 333.088 697.184C330.848 696.288 329.187 695.317 328.104 694.272C327.059 693.227 326.536 691.733 326.536 689.792C326.536 688.597 326.853 687.515 327.488 686.544C328.16 685.536 329.037 684.733 330.12 684.136C331.203 683.539 332.36 683.24 333.592 683.24C334.973 683.24 336.205 683.408 337.288 683.744C338.371 684.043 339.304 684.397 340.088 684.808V690.52H339.416L338.688 688.112C338.315 686.805 337.605 685.872 336.56 685.312C335.552 684.752 334.525 684.472 333.48 684.472C332.024 684.472 330.904 684.901 330.12 685.76C329.373 686.619 329 687.739 329 689.12C329 690.501 329.411 691.584 330.232 692.368C331.053 693.152 332.379 693.917 334.208 694.664C335.851 695.336 337.176 695.989 338.184 696.624C339.229 697.259 339.995 698.043 340.48 698.976C340.965 699.872 341.208 701.029 341.208 702.448C341.208 703.717 340.853 704.893 340.144 705.976C339.435 707.059 338.427 707.936 337.12 708.608C335.813 709.243 334.283 709.56 332.528 709.56ZM348.279 721.88V721.04L351.807 720.088V685.928L347.719 685.424V684.584L353.767 683.24H354.327L354.551 686.712H354.831C356.25 685.517 357.613 684.64 358.919 684.08C360.263 683.52 361.701 683.24 363.231 683.24C365.098 683.24 366.759 683.725 368.215 684.696C369.671 685.667 370.81 687.048 371.631 688.84C372.49 690.595 372.919 692.704 372.919 695.168C372.919 698.229 372.322 700.843 371.127 703.008C369.933 705.136 368.346 706.76 366.367 707.88C364.389 709 362.205 709.56 359.815 709.56C358.994 709.56 358.135 709.411 357.239 709.112C356.343 708.851 355.466 708.496 354.607 708.048V720.088L358.583 721.04V721.88H348.279ZM361.719 685.144C360.338 685.144 359.05 685.387 357.855 685.872C356.698 686.357 355.615 687.048 354.607 687.944V705.808C355.765 706.555 356.903 707.133 358.023 707.544C359.143 707.917 360.394 708.104 361.775 708.104C363.306 708.104 364.706 707.712 365.975 706.928C367.282 706.144 368.327 704.875 369.111 703.12C369.895 701.328 370.287 698.976 370.287 696.064C370.287 693.563 369.877 691.509 369.055 689.904C368.234 688.261 367.151 687.067 365.807 686.32C364.501 685.536 363.138 685.144 361.719 685.144ZM390.975 709.56C388.698 709.56 386.701 708.981 384.983 707.824C383.266 706.667 381.922 705.099 380.951 703.12C379.981 701.141 379.495 698.901 379.495 696.4C379.495 693.899 379.981 691.659 380.951 689.68C381.922 687.701 383.266 686.133 384.983 684.976C386.701 683.819 388.698 683.24 390.975 683.24C393.253 683.24 395.25 683.819 396.967 684.976C398.685 686.133 400.029 687.701 400.999 689.68C401.97 691.659 402.455 693.899 402.455 696.4C402.455 698.901 401.97 701.141 400.999 703.12C400.029 705.099 398.685 706.667 396.967 707.824C395.25 708.981 393.253 709.56 390.975 709.56ZM391.759 708.272C393.477 708.272 394.914 707.768 396.071 706.76C397.266 705.715 398.162 704.371 398.759 702.728C399.357 701.085 399.655 699.349 399.655 697.52C399.655 695.093 399.301 692.909 398.591 690.968C397.882 688.989 396.818 687.421 395.399 686.264C394.018 685.069 392.319 684.472 390.303 684.472C388.623 684.472 387.186 684.957 385.991 685.928C384.797 686.861 383.882 688.149 383.247 689.792C382.613 691.397 382.295 693.208 382.295 695.224C382.295 697.651 382.669 699.853 383.415 701.832C384.199 703.811 385.282 705.379 386.663 706.536C388.082 707.693 389.781 708.272 391.759 708.272ZM415.434 709.56C414.128 709.56 412.952 709.411 411.906 709.112C410.898 708.851 409.853 708.459 408.77 707.936V702.112H409.442L410.226 704.632C410.562 705.752 411.178 706.648 412.074 707.32C412.97 707.955 414.24 708.272 415.882 708.272C417.674 708.272 419.056 707.843 420.026 706.984C421.034 706.088 421.538 704.819 421.538 703.176C421.538 701.72 421.146 700.581 420.362 699.76C419.578 698.901 418.122 698.043 415.994 697.184C413.754 696.288 412.093 695.317 411.01 694.272C409.965 693.227 409.442 691.733 409.442 689.792C409.442 688.597 409.76 687.515 410.394 686.544C411.066 685.536 411.944 684.733 413.026 684.136C414.109 683.539 415.266 683.24 416.498 683.24C417.88 683.24 419.112 683.408 420.194 683.744C421.277 684.043 422.21 684.397 422.994 684.808V690.52H422.322L421.594 688.112C421.221 686.805 420.512 685.872 419.466 685.312C418.458 684.752 417.432 684.472 416.386 684.472C414.93 684.472 413.81 684.901 413.026 685.76C412.28 686.619 411.906 687.739 411.906 689.12C411.906 690.501 412.317 691.584 413.138 692.368C413.96 693.152 415.285 693.917 417.114 694.664C418.757 695.336 420.082 695.989 421.09 696.624C422.136 697.259 422.901 698.043 423.386 698.976C423.872 699.872 424.114 701.029 424.114 702.448C424.114 703.717 423.76 704.893 423.05 705.976C422.341 707.059 421.333 707.936 420.026 708.608C418.72 709.243 417.189 709.56 415.434 709.56ZM435.666 674.392C435.068 674.392 434.564 674.187 434.154 673.776C433.743 673.365 433.538 672.861 433.538 672.264C433.538 671.667 433.743 671.163 434.154 670.752C434.564 670.341 435.068 670.136 435.666 670.136C436.263 670.136 436.767 670.341 437.178 670.752C437.588 671.163 437.794 671.667 437.794 672.264C437.794 672.861 437.588 673.365 437.178 673.776C436.767 674.187 436.263 674.392 435.666 674.392ZM431.522 709V708.16L435.05 707.208V685.928L430.962 684.864V684.024L437.29 683.24H437.85V707.208L441.826 708.16V709H431.522ZM455.924 709.56C454.393 709.56 453.143 709.075 452.172 708.104C451.239 707.133 450.772 705.771 450.772 704.016V685.704H445.844V685.2L451.108 683.8L452.956 677.64H453.572V683.8H460.964V685.704H453.572V703.904C453.572 705.061 453.927 705.939 454.636 706.536C455.345 707.096 456.279 707.376 457.436 707.376C458.257 707.376 459.004 707.283 459.676 707.096C460.348 706.909 460.983 706.648 461.58 706.312L461.636 706.368V706.592C461.337 707.227 460.703 707.88 459.732 708.552C458.761 709.224 457.492 709.56 455.924 709.56ZM477.6 709.56C475.323 709.56 473.326 708.981 471.608 707.824C469.891 706.667 468.547 705.099 467.576 703.12C466.606 701.141 466.12 698.901 466.12 696.4C466.12 693.899 466.606 691.659 467.576 689.68C468.547 687.701 469.891 686.133 471.608 684.976C473.326 683.819 475.323 683.24 477.6 683.24C479.878 683.24 481.875 683.819 483.592 684.976C485.31 686.133 486.654 687.701 487.624 689.68C488.595 691.659 489.08 693.899 489.08 696.4C489.08 698.901 488.595 701.141 487.624 703.12C486.654 705.099 485.31 706.667 483.592 707.824C481.875 708.981 479.878 709.56 477.6 709.56ZM478.384 708.272C480.102 708.272 481.539 707.768 482.696 706.76C483.891 705.715 484.787 704.371 485.384 702.728C485.982 701.085 486.28 699.349 486.28 697.52C486.28 695.093 485.926 692.909 485.216 690.968C484.507 688.989 483.443 687.421 482.024 686.264C480.643 685.069 478.944 684.472 476.928 684.472C475.248 684.472 473.811 684.957 472.616 685.928C471.422 686.861 470.507 688.149 469.872 689.792C469.238 691.397 468.92 693.208 468.92 695.224C468.92 697.651 469.294 699.853 470.04 701.832C470.824 703.811 471.907 705.379 473.288 706.536C474.707 707.693 476.406 708.272 478.384 708.272ZM520.651 709.56C518.038 709.56 515.835 709 514.043 707.88C512.289 706.76 510.945 705.248 510.011 703.344C509.115 701.44 508.667 699.293 508.667 696.904C508.667 694.291 509.19 691.957 510.235 689.904C511.318 687.813 512.793 686.189 514.659 685.032C516.563 683.837 518.71 683.24 521.099 683.24C522.593 683.24 523.918 683.445 525.075 683.856C526.233 684.267 527.166 684.715 527.875 685.2C529.07 686.021 529.667 686.731 529.667 687.328C529.667 687.589 529.537 687.832 529.275 688.056L527.763 689.344H527.539L526.811 688.336C525.99 687.216 525.094 686.301 524.123 685.592C523.19 684.845 521.977 684.472 520.483 684.472C517.87 684.472 515.705 685.461 513.987 687.44C512.307 689.381 511.467 692.293 511.467 696.176C511.467 699.461 512.326 702.131 514.043 704.184C515.798 706.2 518.262 707.208 521.435 707.208C523.153 707.208 524.739 706.947 526.195 706.424C527.651 705.901 528.79 705.192 529.611 704.296H529.779V705.024C528.921 706.331 527.707 707.413 526.139 708.272C524.571 709.131 522.742 709.56 520.651 709.56ZM541.017 709.56C539.3 709.56 537.863 709.056 536.705 708.048C535.548 707.003 534.969 705.565 534.969 703.736C534.969 701.944 535.604 700.451 536.873 699.256C538.18 698.061 540.327 697.091 543.313 696.344L548.801 694.944V690.296C548.801 688.691 548.223 687.403 547.065 686.432C545.908 685.424 544.583 684.92 543.089 684.92C541.484 684.92 540.345 685.256 539.673 685.928C539.039 686.563 538.721 687.44 538.721 688.56V690.856L538.441 691.136H536.985C536.388 691.136 535.996 691.043 535.809 690.856C535.623 690.669 535.529 690.315 535.529 689.792C535.529 689.083 535.772 688.355 536.257 687.608C536.743 686.861 537.452 686.189 538.385 685.592C539.393 684.957 540.401 684.416 541.409 683.968C542.455 683.483 543.444 683.24 544.377 683.24C546.617 683.24 548.372 683.744 549.641 684.752C550.948 685.723 551.601 687.253 551.601 689.344V706.76C551.9 707.021 552.236 707.227 552.609 707.376C553.02 707.525 553.487 707.6 554.009 707.6H556.921L556.977 707.656V707.768C556.716 708.141 556.287 708.533 555.689 708.944C555.092 709.355 554.289 709.56 553.281 709.56C551.975 709.56 550.967 709.224 550.257 708.552C549.548 707.88 549.119 707.096 548.969 706.2H548.857C547.887 707.171 546.711 707.973 545.329 708.608C543.985 709.243 542.548 709.56 541.017 709.56ZM537.769 702.728C537.769 704.259 538.199 705.416 539.057 706.2C539.916 706.947 541.129 707.32 542.697 707.32C543.631 707.32 544.639 707.189 545.721 706.928C546.804 706.629 547.831 706.181 548.801 705.584V696.12C545.703 696.755 543.351 697.389 541.745 698.024C540.177 698.659 539.113 699.349 538.553 700.096C538.031 700.843 537.769 701.72 537.769 702.728ZM572.932 709.56C570.319 709.56 568.116 709 566.324 707.88C564.57 706.76 563.226 705.248 562.292 703.344C561.396 701.44 560.948 699.293 560.948 696.904C560.948 694.291 561.471 691.957 562.516 689.904C563.599 687.813 565.074 686.189 566.94 685.032C568.844 683.837 570.991 683.24 573.38 683.24C574.874 683.24 576.199 683.445 577.356 683.856C578.514 684.267 579.447 684.715 580.156 685.2C581.351 686.021 581.948 686.731 581.948 687.328C581.948 687.589 581.818 687.832 581.556 688.056L580.044 689.344H579.82L579.092 688.336C578.271 687.216 577.375 686.301 576.404 685.592C575.471 684.845 574.258 684.472 572.764 684.472C570.151 684.472 567.986 685.461 566.268 687.44C564.588 689.381 563.748 692.293 563.748 696.176C563.748 699.461 564.607 702.131 566.324 704.184C568.079 706.2 570.543 707.208 573.716 707.208C575.434 707.208 577.02 706.947 578.476 706.424C579.932 705.901 581.071 705.192 581.892 704.296H582.06V705.024C581.202 706.331 579.988 707.413 578.42 708.272C576.852 709.131 575.023 709.56 572.932 709.56ZM599.346 709.56C596.733 709.56 594.531 709 592.739 707.88C590.984 706.76 589.64 705.248 588.707 703.344C587.811 701.44 587.363 699.293 587.363 696.904C587.363 694.291 587.885 691.957 588.931 689.904C590.013 687.813 591.488 686.189 593.355 685.032C595.259 683.837 597.405 683.24 599.795 683.24C601.288 683.24 602.613 683.445 603.771 683.856C604.928 684.267 605.861 684.715 606.571 685.2C607.765 686.021 608.363 686.731 608.363 687.328C608.363 687.589 608.232 687.832 607.971 688.056L606.459 689.344H606.235L605.507 688.336C604.685 687.216 603.789 686.301 602.819 685.592C601.885 684.845 600.672 684.472 599.179 684.472C596.565 684.472 594.4 685.461 592.683 687.44C591.003 689.381 590.163 692.293 590.163 696.176C590.163 699.461 591.021 702.131 592.739 704.184C594.493 706.2 596.957 707.208 600.131 707.208C601.848 707.208 603.435 706.947 604.891 706.424C606.347 705.901 607.485 705.192 608.307 704.296H608.475V705.024C607.616 706.331 606.403 707.413 604.835 708.272C603.267 709.131 601.437 709.56 599.346 709.56ZM619.713 709.56C617.995 709.56 616.558 709.056 615.401 708.048C614.243 707.003 613.665 705.565 613.665 703.736C613.665 701.944 614.299 700.451 615.569 699.256C616.875 698.061 619.022 697.091 622.009 696.344L627.497 694.944V690.296C627.497 688.691 626.918 687.403 625.761 686.432C624.603 685.424 623.278 684.92 621.785 684.92C620.179 684.92 619.041 685.256 618.369 685.928C617.734 686.563 617.417 687.44 617.417 688.56V690.856L617.137 691.136H615.681C615.083 691.136 614.691 691.043 614.505 690.856C614.318 690.669 614.225 690.315 614.225 689.792C614.225 689.083 614.467 688.355 614.953 687.608C615.438 686.861 616.147 686.189 617.081 685.592C618.089 684.957 619.097 684.416 620.105 683.968C621.15 683.483 622.139 683.24 623.073 683.24C625.313 683.24 627.067 683.744 628.337 684.752C629.643 685.723 630.297 687.253 630.297 689.344V706.76C630.595 707.021 630.931 707.227 631.305 707.376C631.715 707.525 632.182 707.6 632.705 707.6H635.617L635.673 707.656V707.768C635.411 708.141 634.982 708.533 634.385 708.944C633.787 709.355 632.985 709.56 631.977 709.56C630.67 709.56 629.662 709.224 628.953 708.552C628.243 707.88 627.814 707.096 627.665 706.2H627.553C626.582 707.171 625.406 707.973 624.025 708.608C622.681 709.243 621.243 709.56 619.713 709.56ZM616.465 702.728C616.465 704.259 616.894 705.416 617.753 706.2C618.611 706.947 619.825 707.32 621.393 707.32C622.326 707.32 623.334 707.189 624.417 706.928C625.499 706.629 626.526 706.181 627.497 705.584V696.12C624.398 696.755 622.046 697.389 620.441 698.024C618.873 698.659 617.809 699.349 617.249 700.096C616.726 700.843 616.465 701.72 616.465 702.728ZM647.721 709.28L638.593 685.704L635.065 684.64V683.8H645.817V684.64L641.505 685.592V685.76L648.729 705.36H648.897L656.009 685.816V685.648L651.473 684.64V683.8H661.385V684.64L657.801 685.704L648.281 709.28H647.721ZM668.767 709.56C667.05 709.56 665.613 709.056 664.455 708.048C663.298 707.003 662.719 705.565 662.719 703.736C662.719 701.944 663.354 700.451 664.623 699.256C665.93 698.061 668.077 697.091 671.063 696.344L676.551 694.944V690.296C676.551 688.691 675.973 687.403 674.815 686.432C673.658 685.424 672.333 684.92 670.839 684.92C669.234 684.92 668.095 685.256 667.423 685.928C666.789 686.563 666.471 687.44 666.471 688.56V690.856L666.191 691.136H664.735C664.138 691.136 663.746 691.043 663.559 690.856C663.373 690.669 663.279 690.315 663.279 689.792C663.279 689.083 663.522 688.355 664.007 687.608C664.493 686.861 665.202 686.189 666.135 685.592C667.143 684.957 668.151 684.416 669.159 683.968C670.205 683.483 671.194 683.24 672.127 683.24C674.367 683.24 676.122 683.744 677.391 684.752C678.698 685.723 679.351 687.253 679.351 689.344V706.76C679.65 707.021 679.986 707.227 680.359 707.376C680.77 707.525 681.237 707.6 681.759 707.6H684.671L684.727 707.656V707.768C684.466 708.141 684.037 708.533 683.439 708.944C682.842 709.355 682.039 709.56 681.031 709.56C679.725 709.56 678.717 709.224 678.007 708.552C677.298 707.88 676.869 707.096 676.719 706.2H676.607C675.637 707.171 674.461 707.973 673.079 708.608C671.735 709.243 670.298 709.56 668.767 709.56ZM665.519 702.728C665.519 704.259 665.949 705.416 666.807 706.2C667.666 706.947 668.879 707.32 670.447 707.32C671.381 707.32 672.389 707.189 673.471 706.928C674.554 706.629 675.581 706.181 676.551 705.584V696.12C673.453 696.755 671.101 697.389 669.495 698.024C667.927 698.659 666.863 699.349 666.303 700.096C665.781 700.843 665.519 701.72 665.519 702.728ZM688.376 709V708.16L691.904 707.208V669.688L687.816 668.624V667.784L694.144 667H694.704V707.208L698.68 708.16V709H688.376ZM716.108 709.56C713.458 709.56 711.218 709 709.388 707.88C707.596 706.76 706.234 705.248 705.3 703.344C704.404 701.44 703.956 699.293 703.956 696.904C703.956 694.365 704.479 692.069 705.524 690.016C706.607 687.963 708.007 686.32 709.724 685.088C711.479 683.856 713.383 683.24 715.436 683.24C718.386 683.24 720.7 684.211 722.38 686.152C724.06 688.093 725.031 690.781 725.292 694.216L725.124 694.384H706.812C706.775 694.944 706.756 695.541 706.756 696.176C706.756 699.461 707.634 702.131 709.388 704.184C711.18 706.2 713.682 707.208 716.892 707.208C718.647 707.208 720.234 706.947 721.652 706.424C723.108 705.901 724.247 705.192 725.068 704.296H725.236V705.024C724.415 706.331 723.202 707.413 721.596 708.272C720.028 709.131 718.199 709.56 716.108 709.56ZM714.764 684.472C712.935 684.472 711.292 685.237 709.836 686.768C708.38 688.261 707.428 690.389 706.98 693.152H722.212C721.839 690.427 721.074 688.299 719.916 686.768C718.759 685.237 717.042 684.472 714.764 684.472Z" fill="black"/>
</svg>
