<svg width="848" height="1152" viewBox="0 0 848 1152" fill="none" xmlns="http://www.w3.org/2000/svg">
<rect width="848" height="1152" fill="#FAFAFA"/>
<path d="M88.6372 489.88V489.04L92.1652 488.088V453.928L88.0772 453.424V452.584L94.1252 451.24H94.6852L94.9092 454.712H95.1892C96.6079 453.517 97.9706 452.64 99.2772 452.08C100.621 451.52 102.059 451.24 103.589 451.24C105.456 451.24 107.117 451.725 108.573 452.696C110.029 453.667 111.168 455.048 111.989 456.84C112.848 458.595 113.277 460.704 113.277 463.168C113.277 466.229 112.68 468.843 111.485 471.008C110.291 473.136 108.704 474.76 106.725 475.88C104.747 477 102.563 477.56 100.173 477.56C99.3519 477.56 98.4932 477.411 97.5972 477.112C96.7012 476.851 95.8239 476.496 94.9652 476.048V488.088L98.9412 489.04V489.88H88.6372ZM102.077 453.144C100.696 453.144 99.4079 453.387 98.2132 453.872C97.0559 454.357 95.9732 455.048 94.9652 455.944V473.808C96.1226 474.555 97.2612 475.133 98.3812 475.544C99.5012 475.917 100.752 476.104 102.133 476.104C103.664 476.104 105.064 475.712 106.333 474.928C107.64 474.144 108.685 472.875 109.469 471.12C110.253 469.328 110.645 466.976 110.645 464.064C110.645 461.563 110.235 459.509 109.413 457.904C108.592 456.261 107.509 455.067 106.165 454.32C104.859 453.536 103.496 453.144 102.077 453.144ZM132.565 477.56C129.915 477.56 127.675 477 125.845 475.88C124.053 474.76 122.691 473.248 121.757 471.344C120.861 469.44 120.413 467.293 120.413 464.904C120.413 462.365 120.936 460.069 121.981 458.016C123.064 455.963 124.464 454.32 126.181 453.088C127.936 451.856 129.84 451.24 131.893 451.24C134.843 451.24 137.157 452.211 138.837 454.152C140.517 456.093 141.488 458.781 141.749 462.216L141.581 462.384H123.269C123.232 462.944 123.213 463.541 123.213 464.176C123.213 467.461 124.091 470.131 125.845 472.184C127.637 474.2 130.139 475.208 133.349 475.208C135.104 475.208 136.691 474.947 138.109 474.424C139.565 473.901 140.704 473.192 141.525 472.296H141.693V473.024C140.872 474.331 139.659 475.413 138.053 476.272C136.485 477.131 134.656 477.56 132.565 477.56ZM131.221 452.472C129.392 452.472 127.749 453.237 126.293 454.768C124.837 456.261 123.885 458.389 123.437 461.152H138.669C138.296 458.427 137.531 456.299 136.373 454.768C135.216 453.237 133.499 452.472 131.221 452.472ZM153.87 477.56C152.153 477.56 150.716 477.056 149.558 476.048C148.401 475.003 147.822 473.565 147.822 471.736C147.822 469.944 148.457 468.451 149.726 467.256C151.033 466.061 153.18 465.091 156.166 464.344L161.654 462.944V458.296C161.654 456.691 161.076 455.403 159.918 454.432C158.761 453.424 157.436 452.92 155.942 452.92C154.337 452.92 153.198 453.256 152.526 453.928C151.892 454.563 151.574 455.44 151.574 456.56V458.856L151.294 459.136H149.838C149.241 459.136 148.849 459.043 148.662 458.856C148.476 458.669 148.382 458.315 148.382 457.792C148.382 457.083 148.625 456.355 149.11 455.608C149.596 454.861 150.305 454.189 151.238 453.592C152.246 452.957 153.254 452.416 154.262 451.968C155.308 451.483 156.297 451.24 157.23 451.24C159.47 451.24 161.225 451.744 162.494 452.752C163.801 453.723 164.454 455.253 164.454 457.344V474.76C164.753 475.021 165.089 475.227 165.462 475.376C165.873 475.525 166.34 475.6 166.862 475.6H169.774L169.83 475.656V475.768C169.569 476.141 169.14 476.533 168.542 476.944C167.945 477.355 167.142 477.56 166.134 477.56C164.828 477.56 163.82 477.224 163.11 476.552C162.401 475.88 161.972 475.096 161.822 474.2H161.71C160.74 475.171 159.564 475.973 158.182 476.608C156.838 477.243 155.401 477.56 153.87 477.56ZM150.622 470.728C150.622 472.259 151.052 473.416 151.91 474.2C152.769 474.947 153.982 475.32 155.55 475.32C156.484 475.32 157.492 475.189 158.574 474.928C159.657 474.629 160.684 474.181 161.654 473.584V464.12C158.556 464.755 156.204 465.389 154.598 466.024C153.03 466.659 151.966 467.349 151.406 468.096C150.884 468.843 150.622 469.72 150.622 470.728ZM181.207 477.56C179.9 477.56 178.724 477.411 177.679 477.112C176.671 476.851 175.625 476.459 174.543 475.936V470.112H175.215L175.999 472.632C176.335 473.752 176.951 474.648 177.847 475.32C178.743 475.955 180.012 476.272 181.655 476.272C183.447 476.272 184.828 475.843 185.799 474.984C186.807 474.088 187.311 472.819 187.311 471.176C187.311 469.72 186.919 468.581 186.135 467.76C185.351 466.901 183.895 466.043 181.767 465.184C179.527 464.288 177.865 463.317 176.783 462.272C175.737 461.227 175.215 459.733 175.215 457.792C175.215 456.597 175.532 455.515 176.167 454.544C176.839 453.536 177.716 452.733 178.799 452.136C179.881 451.539 181.039 451.24 182.271 451.24C183.652 451.24 184.884 451.408 185.967 451.744C187.049 452.043 187.983 452.397 188.767 452.808V458.52H188.095L187.367 456.112C186.993 454.805 186.284 453.872 185.239 453.312C184.231 452.752 183.204 452.472 182.159 452.472C180.703 452.472 179.583 452.901 178.799 453.76C178.052 454.619 177.679 455.739 177.679 457.12C177.679 458.501 178.089 459.584 178.911 460.368C179.732 461.152 181.057 461.917 182.887 462.664C184.529 463.336 185.855 463.989 186.863 464.624C187.908 465.259 188.673 466.043 189.159 466.976C189.644 467.872 189.887 469.029 189.887 470.448C189.887 471.717 189.532 472.893 188.823 473.976C188.113 475.059 187.105 475.936 185.799 476.608C184.492 477.243 182.961 477.56 181.207 477.56ZM203.006 477.56C201.289 477.56 199.851 477.056 198.694 476.048C197.537 475.003 196.958 473.565 196.958 471.736C196.958 469.944 197.593 468.451 198.862 467.256C200.169 466.061 202.315 465.091 205.302 464.344L210.79 462.944V458.296C210.79 456.691 210.211 455.403 209.054 454.432C207.897 453.424 206.571 452.92 205.078 452.92C203.473 452.92 202.334 453.256 201.662 453.928C201.027 454.563 200.71 455.44 200.71 456.56V458.856L200.43 459.136H198.974C198.377 459.136 197.985 459.043 197.798 458.856C197.611 458.669 197.518 458.315 197.518 457.792C197.518 457.083 197.761 456.355 198.246 455.608C198.731 454.861 199.441 454.189 200.374 453.592C201.382 452.957 202.39 452.416 203.398 451.968C204.443 451.483 205.433 451.24 206.366 451.24C208.606 451.24 210.361 451.744 211.63 452.752C212.937 453.723 213.59 455.253 213.59 457.344V474.76C213.889 475.021 214.225 475.227 214.598 475.376C215.009 475.525 215.475 475.6 215.998 475.6H218.91L218.966 475.656V475.768C218.705 476.141 218.275 476.533 217.678 476.944C217.081 477.355 216.278 477.56 215.27 477.56C213.963 477.56 212.955 477.224 212.246 476.552C211.537 475.88 211.107 475.096 210.958 474.2H210.846C209.875 475.171 208.699 475.973 207.318 476.608C205.974 477.243 204.537 477.56 203.006 477.56ZM199.758 470.728C199.758 472.259 200.187 473.416 201.046 474.2C201.905 474.947 203.118 475.32 204.686 475.32C205.619 475.32 206.627 475.189 207.71 474.928C208.793 474.629 209.819 474.181 210.79 473.584V464.12C207.691 464.755 205.339 465.389 203.734 466.024C202.166 466.659 201.102 467.349 200.542 468.096C200.019 468.843 199.758 469.72 199.758 470.728ZM223.398 477V476.16L226.926 475.208V453.928L222.838 453.424V452.584L228.886 451.24H229.446L229.67 455.272H229.838C231.219 453.853 232.526 452.827 233.758 452.192C234.99 451.557 236.371 451.24 237.902 451.24C240.254 451.24 242.177 451.893 243.67 453.2C245.201 454.507 245.966 456.411 245.966 458.912V475.208L249.494 476.16V477H239.19V476.16L243.166 475.208V460.424C243.166 458.147 242.55 456.429 241.318 455.272C240.123 454.077 238.537 453.48 236.558 453.48C235.438 453.48 234.225 453.76 232.918 454.32C231.611 454.843 230.547 455.608 229.726 456.616V475.208L233.702 476.16V477H223.398ZM263.243 477.56C261.713 477.56 260.462 477.075 259.491 476.104C258.558 475.133 258.091 473.771 258.091 472.016V453.704H253.163V453.2L258.427 451.8L260.275 445.64H260.891V451.8H268.283V453.704H260.891V471.904C260.891 473.061 261.246 473.939 261.955 474.536C262.665 475.096 263.598 475.376 264.755 475.376C265.577 475.376 266.323 475.283 266.995 475.096C267.667 474.909 268.302 474.648 268.899 474.312L268.955 474.368V474.592C268.657 475.227 268.022 475.88 267.051 476.552C266.081 477.224 264.811 477.56 263.243 477.56ZM274.672 477V476.16L278.2 475.208V453.928L274.112 453.424V452.584L280.16 451.24H280.72L281 456.224H281.112C282.568 454.693 283.725 453.573 284.584 452.864C285.443 452.155 286.152 451.707 286.712 451.52C287.272 451.333 287.907 451.24 288.616 451.24C289.251 451.24 289.829 451.352 290.352 451.576C290.725 451.725 290.987 451.875 291.136 452.024C291.323 452.136 291.416 452.304 291.416 452.528C291.416 452.603 291.397 452.696 291.36 452.808C291.36 452.883 291.341 452.995 291.304 453.144L290.744 454.6H290.632L289.568 454.096C289.045 453.835 288.355 453.704 287.496 453.704C286.413 453.704 285.331 454.003 284.248 454.6C283.165 455.197 282.083 456.243 281 457.736V475.208L285.312 476.16V477H274.672ZM299.722 442.392C299.125 442.392 298.621 442.187 298.21 441.776C297.8 441.365 297.594 440.861 297.594 440.264C297.594 439.667 297.8 439.163 298.21 438.752C298.621 438.341 299.125 438.136 299.722 438.136C300.32 438.136 300.824 438.341 301.234 438.752C301.645 439.163 301.85 439.667 301.85 440.264C301.85 440.861 301.645 441.365 301.234 441.776C300.824 442.187 300.32 442.392 299.722 442.392ZM295.578 477V476.16L299.106 475.208V453.928L295.018 452.864V452.024L301.346 451.24H301.906V475.208L305.882 476.16V477H295.578ZM324.405 477.56C321.754 477.56 319.514 477 317.685 475.88C315.893 474.76 314.53 473.248 313.597 471.344C312.701 469.44 312.253 467.293 312.253 464.904C312.253 462.365 312.775 460.069 313.821 458.016C314.903 455.963 316.303 454.32 318.021 453.088C319.775 451.856 321.679 451.24 323.733 451.24C326.682 451.24 328.997 452.211 330.677 454.152C332.357 456.093 333.327 458.781 333.589 462.216L333.421 462.384H315.109C315.071 462.944 315.053 463.541 315.053 464.176C315.053 467.461 315.93 470.131 317.685 472.184C319.477 474.2 321.978 475.208 325.189 475.208C326.943 475.208 328.53 474.947 329.949 474.424C331.405 473.901 332.543 473.192 333.365 472.296H333.533V473.024C332.711 474.331 331.498 475.413 329.893 476.272C328.325 477.131 326.495 477.56 324.405 477.56ZM323.061 452.472C321.231 452.472 319.589 453.237 318.133 454.768C316.677 456.261 315.725 458.389 315.277 461.152H330.509C330.135 458.427 329.37 456.299 328.213 454.768C327.055 453.237 325.338 452.472 323.061 452.472ZM347.166 477.56C345.859 477.56 344.683 477.411 343.638 477.112C342.63 476.851 341.584 476.459 340.502 475.936V470.112H341.174L341.958 472.632C342.294 473.752 342.91 474.648 343.806 475.32C344.702 475.955 345.971 476.272 347.614 476.272C349.406 476.272 350.787 475.843 351.758 474.984C352.766 474.088 353.27 472.819 353.27 471.176C353.27 469.72 352.878 468.581 352.094 467.76C351.31 466.901 349.854 466.043 347.726 465.184C345.486 464.288 343.824 463.317 342.742 462.272C341.696 461.227 341.174 459.733 341.174 457.792C341.174 456.597 341.491 455.515 342.126 454.544C342.798 453.536 343.675 452.733 344.758 452.136C345.84 451.539 346.998 451.24 348.23 451.24C349.611 451.24 350.843 451.408 351.926 451.744C353.008 452.043 353.942 452.397 354.726 452.808V458.52H354.054L353.326 456.112C352.952 454.805 352.243 453.872 351.198 453.312C350.19 452.752 349.163 452.472 348.118 452.472C346.662 452.472 345.542 452.901 344.758 453.76C344.011 454.619 343.638 455.739 343.638 457.12C343.638 458.501 344.048 459.584 344.87 460.368C345.691 461.152 347.016 461.917 348.846 462.664C350.488 463.336 351.814 463.989 352.822 464.624C353.867 465.259 354.632 466.043 355.118 466.976C355.603 467.872 355.846 469.029 355.846 470.448C355.846 471.717 355.491 472.893 354.782 473.976C354.072 475.059 353.064 475.936 351.758 476.608C350.451 477.243 348.92 477.56 347.166 477.56ZM366.333 477.224C365.624 477.224 365.026 476.981 364.541 476.496C364.056 475.973 363.813 475.376 363.813 474.704C363.813 474.032 364.056 473.453 364.541 472.968C365.026 472.445 365.624 472.184 366.333 472.184C367.042 472.184 367.64 472.445 368.125 472.968C368.61 473.453 368.853 474.032 368.853 474.704C368.853 475.376 368.61 475.973 368.125 476.496C367.64 476.981 367.042 477.224 366.333 477.224ZM366.333 456.28C365.624 456.28 365.026 456.037 364.541 455.552C364.056 455.029 363.813 454.432 363.813 453.76C363.813 453.088 364.056 452.509 364.541 452.024C365.026 451.501 365.624 451.24 366.333 451.24C367.042 451.24 367.64 451.501 368.125 452.024C368.61 452.509 368.853 453.088 368.853 453.76C368.853 454.432 368.61 455.029 368.125 455.552C367.64 456.037 367.042 456.28 366.333 456.28ZM396.28 477.56C394.563 477.56 393.126 477.056 391.968 476.048C390.811 475.003 390.232 473.565 390.232 471.736C390.232 469.944 390.867 468.451 392.136 467.256C393.443 466.061 395.59 465.091 398.576 464.344L404.064 462.944V458.296C404.064 456.691 403.486 455.403 402.328 454.432C401.171 453.424 399.846 452.92 398.352 452.92C396.747 452.92 395.608 453.256 394.936 453.928C394.302 454.563 393.984 455.44 393.984 456.56V458.856L393.704 459.136H392.248C391.651 459.136 391.259 459.043 391.072 458.856C390.886 458.669 390.792 458.315 390.792 457.792C390.792 457.083 391.035 456.355 391.52 455.608C392.006 454.861 392.715 454.189 393.648 453.592C394.656 452.957 395.664 452.416 396.672 451.968C397.718 451.483 398.707 451.24 399.64 451.24C401.88 451.24 403.635 451.744 404.904 452.752C406.211 453.723 406.864 455.253 406.864 457.344V474.76C407.163 475.021 407.499 475.227 407.872 475.376C408.283 475.525 408.75 475.6 409.272 475.6H412.184L412.24 475.656V475.768C411.979 476.141 411.55 476.533 410.952 476.944C410.355 477.355 409.552 477.56 408.544 477.56C407.238 477.56 406.23 477.224 405.52 476.552C404.811 475.88 404.382 475.096 404.232 474.2H404.12C403.15 475.171 401.974 475.973 400.592 476.608C399.248 477.243 397.811 477.56 396.28 477.56ZM393.032 470.728C393.032 472.259 393.462 473.416 394.32 474.2C395.179 474.947 396.392 475.32 397.96 475.32C398.894 475.32 399.902 475.189 400.984 474.928C402.067 474.629 403.094 474.181 404.064 473.584V464.12C400.966 464.755 398.614 465.389 397.008 466.024C395.44 466.659 394.376 467.349 393.816 468.096C393.294 468.843 393.032 469.72 393.032 470.728ZM416.673 477V476.16L420.201 475.208V453.928L416.113 453.424V452.584L422.161 451.24H422.721L422.945 455.272H423.113C424.494 453.853 425.801 452.827 427.033 452.192C428.265 451.557 429.646 451.24 431.177 451.24C433.529 451.24 435.451 451.893 436.945 453.2C438.475 454.507 439.241 456.411 439.241 458.912V475.208L442.769 476.16V477H432.465V476.16L436.441 475.208V460.424C436.441 458.147 435.825 456.429 434.593 455.272C433.398 454.077 431.811 453.48 429.833 453.48C428.713 453.48 427.499 453.76 426.193 454.32C424.886 454.843 423.822 455.608 423.001 456.616V475.208L426.977 476.16V477H416.673ZM467.718 442.392C467.121 442.392 466.617 442.187 466.206 441.776C465.795 441.365 465.59 440.861 465.59 440.264C465.59 439.667 465.795 439.163 466.206 438.752C466.617 438.341 467.121 438.136 467.718 438.136C468.315 438.136 468.819 438.341 469.23 438.752C469.641 439.163 469.846 439.667 469.846 440.264C469.846 440.861 469.641 441.365 469.23 441.776C468.819 442.187 468.315 442.392 467.718 442.392ZM463.574 477V476.16L467.102 475.208V453.928L463.014 452.864V452.024L469.342 451.24H469.902V475.208L473.878 476.16V477H463.574ZM480.696 477V476.16L484.224 475.208V453.928L480.136 453.424V452.584L486.184 451.24H486.744L486.968 455.272H487.136C488.518 453.853 489.824 452.827 491.056 452.192C492.288 451.557 493.67 451.24 495.2 451.24C497.552 451.24 499.475 451.893 500.968 453.2C502.499 454.507 503.264 456.411 503.264 458.912V475.208L506.792 476.16V477H496.488V476.16L500.464 475.208V460.424C500.464 458.147 499.848 456.429 498.616 455.272C497.422 454.077 495.835 453.48 493.856 453.48C492.736 453.48 491.523 453.76 490.216 454.32C488.91 454.843 487.846 455.608 487.024 456.616V475.208L491 476.16V477H480.696ZM520.542 477.56C519.011 477.56 517.76 477.075 516.79 476.104C515.856 475.133 515.39 473.771 515.39 472.016V453.704H510.462V453.2L515.726 451.8L517.574 445.64H518.19V451.8H525.582V453.704H518.19V471.904C518.19 473.061 518.544 473.939 519.254 474.536C519.963 475.096 520.896 475.376 522.054 475.376C522.875 475.376 523.622 475.283 524.294 475.096C524.966 474.909 525.6 474.648 526.198 474.312L526.254 474.368V474.592C525.955 475.227 525.32 475.88 524.35 476.552C523.379 477.224 522.11 477.56 520.542 477.56ZM531.97 477V476.16L535.498 475.208V453.928L531.41 453.424V452.584L537.458 451.24H538.018L538.298 456.224H538.41C539.866 454.693 541.023 453.573 541.882 452.864C542.741 452.155 543.45 451.707 544.01 451.52C544.57 451.333 545.205 451.24 545.914 451.24C546.549 451.24 547.127 451.352 547.65 451.576C548.023 451.725 548.285 451.875 548.434 452.024C548.621 452.136 548.714 452.304 548.714 452.528C548.714 452.603 548.695 452.696 548.658 452.808C548.658 452.883 548.639 452.995 548.602 453.144L548.042 454.6H547.93L546.866 454.096C546.343 453.835 545.653 453.704 544.794 453.704C543.711 453.704 542.629 454.003 541.546 454.6C540.463 455.197 539.381 456.243 538.298 457.736V475.208L542.61 476.16V477H531.97ZM563.572 477.56C561.295 477.56 559.298 476.981 557.58 475.824C555.863 474.667 554.519 473.099 553.548 471.12C552.578 469.141 552.092 466.901 552.092 464.4C552.092 461.899 552.578 459.659 553.548 457.68C554.519 455.701 555.863 454.133 557.58 452.976C559.298 451.819 561.295 451.24 563.572 451.24C565.85 451.24 567.847 451.819 569.564 452.976C571.282 454.133 572.626 455.701 573.596 457.68C574.567 459.659 575.052 461.899 575.052 464.4C575.052 466.901 574.567 469.141 573.596 471.12C572.626 473.099 571.282 474.667 569.564 475.824C567.847 476.981 565.85 477.56 563.572 477.56ZM564.356 476.272C566.074 476.272 567.511 475.768 568.668 474.76C569.863 473.715 570.759 472.371 571.356 470.728C571.954 469.085 572.252 467.349 572.252 465.52C572.252 463.093 571.898 460.909 571.188 458.968C570.479 456.989 569.415 455.421 567.996 454.264C566.615 453.069 564.916 452.472 562.9 452.472C561.22 452.472 559.783 452.957 558.588 453.928C557.394 454.861 556.479 456.149 555.844 457.792C555.21 459.397 554.892 461.208 554.892 463.224C554.892 465.651 555.266 467.853 556.012 469.832C556.796 471.811 557.879 473.379 559.26 474.536C560.679 475.693 562.378 476.272 564.356 476.272ZM591.869 477.56C590.002 477.56 588.341 477.075 586.885 476.104C585.429 475.133 584.272 473.771 583.413 472.016C582.592 470.224 582.181 468.096 582.181 465.632C582.181 462.571 582.778 459.976 583.973 457.848C585.168 455.683 586.754 454.04 588.733 452.92C590.712 451.8 592.896 451.24 595.285 451.24C596.106 451.24 596.965 451.389 597.861 451.688C598.757 451.949 599.634 452.304 600.493 452.752V437.688L596.405 436.624V435.784L602.733 435H603.293V475.208L607.269 476.16V477H601.053L600.549 474.144H600.269C599 475.227 597.674 476.067 596.293 476.664C594.949 477.261 593.474 477.56 591.869 477.56ZM584.813 464.736C584.813 467.237 585.224 469.309 586.045 470.952C586.866 472.557 587.93 473.752 589.237 474.536C590.581 475.283 591.962 475.656 593.381 475.656C594.613 475.656 595.845 475.432 597.077 474.984C598.309 474.536 599.448 473.808 600.493 472.8V454.768C599.336 454.133 598.178 453.629 597.021 453.256C595.864 452.883 594.632 452.696 593.325 452.696C591.794 452.696 590.376 453.088 589.069 453.872C587.8 454.656 586.773 455.944 585.989 457.736C585.205 459.491 584.813 461.824 584.813 464.736ZM623.295 477.56C621.018 477.56 619.151 476.907 617.695 475.6C616.239 474.293 615.511 472.389 615.511 469.888V453.592L611.535 452.64V451.8H618.311V468.376C618.311 470.653 618.89 472.389 620.047 473.584C621.242 474.741 622.772 475.32 624.639 475.32C625.722 475.32 626.879 475.059 628.111 474.536C629.38 473.976 630.407 473.192 631.191 472.184V453.592L626.655 452.64V451.8H633.991V475.208L637.967 476.16V477H631.191V473.584H631.023C629.679 474.928 628.41 475.936 627.215 476.608C626.02 477.243 624.714 477.56 623.295 477.56ZM654.952 477.56C652.338 477.56 650.136 477 648.344 475.88C646.589 474.76 645.245 473.248 644.312 471.344C643.416 469.44 642.968 467.293 642.968 464.904C642.968 462.291 643.49 459.957 644.536 457.904C645.618 455.813 647.093 454.189 648.96 453.032C650.864 451.837 653.01 451.24 655.4 451.24C656.893 451.24 658.218 451.445 659.376 451.856C660.533 452.267 661.466 452.715 662.176 453.2C663.37 454.021 663.968 454.731 663.968 455.328C663.968 455.589 663.837 455.832 663.576 456.056L662.064 457.344H661.84L661.112 456.336C660.29 455.216 659.394 454.301 658.424 453.592C657.49 452.845 656.277 452.472 654.784 452.472C652.17 452.472 650.005 453.461 648.288 455.44C646.608 457.381 645.768 460.293 645.768 464.176C645.768 467.461 646.626 470.131 648.344 472.184C650.098 474.2 652.562 475.208 655.736 475.208C657.453 475.208 659.04 474.947 660.496 474.424C661.952 473.901 663.09 473.192 663.912 472.296H664.08V473.024C663.221 474.331 662.008 475.413 660.44 476.272C658.872 477.131 657.042 477.56 654.952 477.56ZM678.23 477.56C676.699 477.56 675.448 477.075 674.478 476.104C673.544 475.133 673.078 473.771 673.078 472.016V453.704H668.15V453.2L673.414 451.8L675.262 445.64H675.878V451.8H683.27V453.704H675.878V471.904C675.878 473.061 676.232 473.939 676.942 474.536C677.651 475.096 678.584 475.376 679.742 475.376C680.563 475.376 681.31 475.283 681.982 475.096C682.654 474.909 683.288 474.648 683.886 474.312L683.942 474.368V474.592C683.643 475.227 683.008 475.88 682.038 476.552C681.067 477.224 679.798 477.56 678.23 477.56ZM700.466 477.56C698.189 477.56 696.191 476.981 694.474 475.824C692.757 474.667 691.413 473.099 690.442 471.12C689.471 469.141 688.986 466.901 688.986 464.4C688.986 461.899 689.471 459.659 690.442 457.68C691.413 455.701 692.757 454.133 694.474 452.976C696.191 451.819 698.189 451.24 700.466 451.24C702.743 451.24 704.741 451.819 706.458 452.976C708.175 454.133 709.519 455.701 710.49 457.68C711.461 459.659 711.946 461.899 711.946 464.4C711.946 466.901 711.461 469.141 710.49 471.12C709.519 473.099 708.175 474.667 706.458 475.824C704.741 476.981 702.743 477.56 700.466 477.56ZM701.25 476.272C702.967 476.272 704.405 475.768 705.562 474.76C706.757 473.715 707.653 472.371 708.25 470.728C708.847 469.085 709.146 467.349 709.146 465.52C709.146 463.093 708.791 460.909 708.082 458.968C707.373 456.989 706.309 455.421 704.89 454.264C703.509 453.069 701.81 452.472 699.794 452.472C698.114 452.472 696.677 452.957 695.482 453.928C694.287 454.861 693.373 456.149 692.738 457.792C692.103 459.397 691.786 461.208 691.786 463.224C691.786 465.651 692.159 467.853 692.906 469.832C693.69 471.811 694.773 473.379 696.154 474.536C697.573 475.693 699.271 476.272 701.25 476.272ZM718.765 477V476.16L722.293 475.208V453.928L718.205 453.424V452.584L724.253 451.24H724.813L725.093 456.224H725.205C726.661 454.693 727.818 453.573 728.677 452.864C729.536 452.155 730.245 451.707 730.805 451.52C731.365 451.333 732 451.24 732.709 451.24C733.344 451.24 733.922 451.352 734.445 451.576C734.818 451.725 735.08 451.875 735.229 452.024C735.416 452.136 735.509 452.304 735.509 452.528C735.509 452.603 735.49 452.696 735.453 452.808C735.453 452.883 735.434 452.995 735.397 453.144L734.837 454.6H734.725L733.661 454.096C733.138 453.835 732.448 453.704 731.589 453.704C730.506 453.704 729.424 454.003 728.341 454.6C727.258 455.197 726.176 456.243 725.093 457.736V475.208L729.405 476.16V477H718.765ZM741.172 490.496C740.388 490.496 739.884 490.365 739.66 490.104C739.474 489.88 739.38 489.469 739.38 488.872V487.64L739.716 487.304H742.18C743.114 487.304 743.823 487.229 744.308 487.08C744.794 486.931 745.242 486.52 745.652 485.848C746.063 485.176 746.642 484.075 747.388 482.544L750.3 476.384L741.116 453.704L737.588 452.64V451.8H748.34V452.64L744.028 453.592V453.76L751.532 472.968H751.7L758.532 453.816V453.648L753.996 452.64V451.8H763.908V452.64L760.324 453.704L748.62 483.048C748.172 484.168 747.743 485.083 747.332 485.792C746.959 486.539 746.53 487.267 746.044 487.976C745.484 488.797 744.756 489.413 743.86 489.824C743.002 490.272 742.106 490.496 741.172 490.496ZM405.914 587V553.304L402.41 552.632V551.912L407.834 551H408.314V567.896H408.506C409.722 566.872 410.906 566.12 412.058 565.64C413.21 565.16 414.426 564.92 415.706 564.92C417.306 564.92 418.73 565.336 419.978 566.168C421.226 567 422.202 568.184 422.906 569.72C423.642 571.224 424.01 573.032 424.01 575.144C424.01 577.768 423.498 580.008 422.474 581.864C421.45 583.688 420.09 585.08 418.394 586.04C416.698 587 414.826 587.48 412.778 587.48C411.946 587.48 411.034 587.304 410.042 586.952C409.082 586.6 408.186 586.168 407.354 585.656L406.346 587H405.914ZM414.41 566.552C413.226 566.552 412.122 566.76 411.098 567.176C410.106 567.592 409.178 568.184 408.314 568.952V584.264C409.306 584.904 410.282 585.4 411.242 585.752C412.202 586.072 413.274 586.232 414.458 586.232C415.738 586.232 416.938 585.896 418.058 585.224C419.178 584.552 420.074 583.464 420.746 581.96C421.418 580.424 421.754 578.408 421.754 575.912C421.754 573.768 421.402 572.008 420.698 570.632C419.994 569.224 419.082 568.2 417.962 567.56C416.842 566.888 415.658 566.552 414.41 566.552ZM429.278 598.568C428.606 598.568 428.174 598.456 427.982 598.232C427.822 598.04 427.742 597.688 427.742 597.176V596.12L428.03 595.832H430.142C430.942 595.832 431.55 595.768 431.966 595.64C432.382 595.512 432.766 595.16 433.118 594.584C433.47 594.008 433.966 593.064 434.606 591.752L437.102 586.472L429.23 567.032L426.206 566.12V565.4H435.422V566.12L431.726 566.936V567.08L438.158 583.544H438.302L444.158 567.128V566.984L440.27 566.12V565.4H448.766V566.12L445.694 567.032L435.662 592.184C435.278 593.144 434.91 593.928 434.558 594.536C434.238 595.176 433.87 595.8 433.454 596.408C432.974 597.112 432.35 597.64 431.582 597.992C430.846 598.376 430.078 598.568 429.278 598.568ZM116.467 709V708.16L119.995 707.208V685.704H115.067V683.8H119.995V681.56C119.995 680.067 120.237 678.48 120.723 676.8C121.245 675.12 121.992 673.533 122.963 672.04C123.971 670.547 125.221 669.333 126.715 668.4C128.208 667.467 129.944 667 131.923 667C132.408 667 132.837 667.075 133.211 667.224C133.808 667.485 134.107 667.784 134.107 668.12C134.107 668.344 134.051 668.587 133.939 668.848L133.323 670.36H133.211L132.035 669.968C130.877 669.595 129.757 669.408 128.675 669.408C126.771 669.408 125.315 670.192 124.307 671.76C123.299 673.328 122.795 675.848 122.795 679.32V683.8H130.187V685.704H122.795V707.208L127.107 708.16V709H116.467ZM135.399 709V708.16L138.927 707.208V685.928L134.839 685.424V684.584L140.887 683.24H141.447L141.727 688.224H141.839C143.295 686.693 144.453 685.573 145.311 684.864C146.17 684.155 146.879 683.707 147.439 683.52C147.999 683.333 148.634 683.24 149.343 683.24C149.978 683.24 150.557 683.352 151.079 683.576C151.453 683.725 151.714 683.875 151.863 684.024C152.05 684.136 152.143 684.304 152.143 684.528C152.143 684.603 152.125 684.696 152.087 684.808C152.087 684.883 152.069 684.995 152.031 685.144L151.471 686.6H151.359L150.295 686.096C149.773 685.835 149.082 685.704 148.223 685.704C147.141 685.704 146.058 686.003 144.975 686.6C143.893 687.197 142.81 688.243 141.727 689.736V707.208L146.039 708.16V709H135.399ZM161.458 709.56C159.74 709.56 158.303 709.056 157.146 708.048C155.988 707.003 155.41 705.565 155.41 703.736C155.41 701.944 156.044 700.451 157.314 699.256C158.62 698.061 160.767 697.091 163.754 696.344L169.242 694.944V690.296C169.242 688.691 168.663 687.403 167.506 686.432C166.348 685.424 165.023 684.92 163.53 684.92C161.924 684.92 160.786 685.256 160.114 685.928C159.479 686.563 159.162 687.44 159.162 688.56V690.856L158.882 691.136H157.426C156.828 691.136 156.436 691.043 156.25 690.856C156.063 690.669 155.97 690.315 155.97 689.792C155.97 689.083 156.212 688.355 156.698 687.608C157.183 686.861 157.892 686.189 158.826 685.592C159.834 684.957 160.842 684.416 161.85 683.968C162.895 683.483 163.884 683.24 164.818 683.24C167.058 683.24 168.812 683.744 170.082 684.752C171.388 685.723 172.042 687.253 172.042 689.344V706.76C172.34 707.021 172.676 707.227 173.05 707.376C173.46 707.525 173.927 707.6 174.45 707.6H177.362L177.418 707.656V707.768C177.156 708.141 176.727 708.533 176.13 708.944C175.532 709.355 174.73 709.56 173.722 709.56C172.415 709.56 171.407 709.224 170.698 708.552C169.988 707.88 169.559 707.096 169.41 706.2H169.298C168.327 707.171 167.151 707.973 165.77 708.608C164.426 709.243 162.988 709.56 161.458 709.56ZM158.21 702.728C158.21 704.259 158.639 705.416 159.498 706.2C160.356 706.947 161.57 707.32 163.138 707.32C164.071 707.32 165.079 707.189 166.162 706.928C167.244 706.629 168.271 706.181 169.242 705.584V696.12C166.143 696.755 163.791 697.389 162.186 698.024C160.618 698.659 159.554 699.349 158.994 700.096C158.471 700.843 158.21 701.72 158.21 702.728ZM181.85 709V708.16L185.378 707.208V685.928L181.29 685.424V684.584L187.338 683.24H187.898L188.122 687.272H188.29C189.671 685.853 190.978 684.827 192.21 684.192C193.442 683.557 194.823 683.24 196.354 683.24C198.706 683.24 200.629 683.893 202.122 685.2C203.653 686.507 204.418 688.411 204.418 690.912V707.208L207.946 708.16V709H197.642V708.16L201.618 707.208V692.424C201.618 690.147 201.002 688.429 199.77 687.272C198.575 686.077 196.989 685.48 195.01 685.48C193.89 685.48 192.677 685.76 191.37 686.32C190.063 686.843 188.999 687.608 188.178 688.616V707.208L192.154 708.16V709H181.85ZM225.391 709.56C222.778 709.56 220.575 709 218.783 707.88C217.029 706.76 215.685 705.248 214.751 703.344C213.855 701.44 213.407 699.293 213.407 696.904C213.407 694.291 213.93 691.957 214.975 689.904C216.058 687.813 217.533 686.189 219.399 685.032C221.303 683.837 223.45 683.24 225.839 683.24C227.333 683.24 228.658 683.445 229.815 683.856C230.973 684.267 231.906 684.715 232.615 685.2C233.81 686.021 234.407 686.731 234.407 687.328C234.407 687.589 234.277 687.832 234.015 688.056L232.503 689.344H232.279L231.551 688.336C230.73 687.216 229.834 686.301 228.863 685.592C227.93 684.845 226.717 684.472 225.223 684.472C222.61 684.472 220.445 685.461 218.727 687.44C217.047 689.381 216.207 692.293 216.207 696.176C216.207 699.461 217.066 702.131 218.783 704.184C220.538 706.2 223.002 707.208 226.175 707.208C227.893 707.208 229.479 706.947 230.935 706.424C232.391 705.901 233.53 705.192 234.351 704.296H234.519V705.024C233.661 706.331 232.447 707.413 230.879 708.272C229.311 709.131 227.482 709.56 225.391 709.56ZM245.309 674.392C244.712 674.392 244.208 674.187 243.797 673.776C243.387 673.365 243.181 672.861 243.181 672.264C243.181 671.667 243.387 671.163 243.797 670.752C244.208 670.341 244.712 670.136 245.309 670.136C245.907 670.136 246.411 670.341 246.821 670.752C247.232 671.163 247.437 671.667 247.437 672.264C247.437 672.861 247.232 673.365 246.821 673.776C246.411 674.187 245.907 674.392 245.309 674.392ZM241.165 709V708.16L244.693 707.208V685.928L240.605 684.864V684.024L246.933 683.24H247.493V707.208L251.469 708.16V709H241.165ZM265.232 709.56C263.925 709.56 262.749 709.411 261.704 709.112C260.696 708.851 259.65 708.459 258.568 707.936V702.112H259.24L260.024 704.632C260.36 705.752 260.976 706.648 261.872 707.32C262.768 707.955 264.037 708.272 265.68 708.272C267.472 708.272 268.853 707.843 269.824 706.984C270.832 706.088 271.336 704.819 271.336 703.176C271.336 701.72 270.944 700.581 270.16 699.76C269.376 698.901 267.92 698.043 265.792 697.184C263.552 696.288 261.89 695.317 260.808 694.272C259.762 693.227 259.24 691.733 259.24 689.792C259.24 688.597 259.557 687.515 260.192 686.544C260.864 685.536 261.741 684.733 262.824 684.136C263.906 683.539 265.064 683.24 266.296 683.24C267.677 683.24 268.909 683.408 269.992 683.744C271.074 684.043 272.008 684.397 272.792 684.808V690.52H272.12L271.392 688.112C271.018 686.805 270.309 685.872 269.264 685.312C268.256 684.752 267.229 684.472 266.184 684.472C264.728 684.472 263.608 684.901 262.824 685.76C262.077 686.619 261.704 687.739 261.704 689.12C261.704 690.501 262.114 691.584 262.936 692.368C263.757 693.152 265.082 693.917 266.912 694.664C268.554 695.336 269.88 695.989 270.888 696.624C271.933 697.259 272.698 698.043 273.184 698.976C273.669 699.872 273.912 701.029 273.912 702.448C273.912 703.717 273.557 704.893 272.848 705.976C272.138 707.059 271.13 707.936 269.824 708.608C268.517 709.243 266.986 709.56 265.232 709.56ZM307.807 709.56C305.156 709.56 302.916 709 301.087 707.88C299.295 706.76 297.932 705.248 296.999 703.344C296.103 701.44 295.655 699.293 295.655 696.904C295.655 694.365 296.178 692.069 297.223 690.016C298.306 687.963 299.706 686.32 301.423 685.088C303.178 683.856 305.082 683.24 307.135 683.24C310.084 683.24 312.399 684.211 314.079 686.152C315.759 688.093 316.73 690.781 316.991 694.216L316.823 694.384H298.511C298.474 694.944 298.455 695.541 298.455 696.176C298.455 699.461 299.332 702.131 301.087 704.184C302.879 706.2 305.38 707.208 308.591 707.208C310.346 707.208 311.932 706.947 313.351 706.424C314.807 705.901 315.946 705.192 316.767 704.296H316.935V705.024C316.114 706.331 314.9 707.413 313.295 708.272C311.727 709.131 309.898 709.56 307.807 709.56ZM306.463 684.472C304.634 684.472 302.991 685.237 301.535 686.768C300.079 688.261 299.127 690.389 298.679 693.152H313.911C313.538 690.427 312.772 688.299 311.615 686.768C310.458 685.237 308.74 684.472 306.463 684.472ZM330.568 709.56C329.261 709.56 328.085 709.411 327.04 709.112C326.032 708.851 324.987 708.459 323.904 707.936V702.112H324.576L325.36 704.632C325.696 705.752 326.312 706.648 327.208 707.32C328.104 707.955 329.373 708.272 331.016 708.272C332.808 708.272 334.189 707.843 335.16 706.984C336.168 706.088 336.672 704.819 336.672 703.176C336.672 701.72 336.28 700.581 335.496 699.76C334.712 698.901 333.256 698.043 331.128 697.184C328.888 696.288 327.227 695.317 326.144 694.272C325.099 693.227 324.576 691.733 324.576 689.792C324.576 688.597 324.893 687.515 325.528 686.544C326.2 685.536 327.077 684.733 328.16 684.136C329.243 683.539 330.4 683.24 331.632 683.24C333.013 683.24 334.245 683.408 335.328 683.744C336.411 684.043 337.344 684.397 338.128 684.808V690.52H337.456L336.728 688.112C336.355 686.805 335.645 685.872 334.6 685.312C333.592 684.752 332.565 684.472 331.52 684.472C330.064 684.472 328.944 684.901 328.16 685.76C327.413 686.619 327.04 687.739 327.04 689.12C327.04 690.501 327.451 691.584 328.272 692.368C329.093 693.152 330.419 693.917 332.248 694.664C333.891 695.336 335.216 695.989 336.224 696.624C337.269 697.259 338.035 698.043 338.52 698.976C339.005 699.872 339.248 701.029 339.248 702.448C339.248 703.717 338.893 704.893 338.184 705.976C337.475 707.059 336.467 707.936 335.16 708.608C333.853 709.243 332.323 709.56 330.568 709.56ZM346.879 721.88V721.04L350.407 720.088V685.928L346.319 685.424V684.584L352.367 683.24H352.927L353.151 686.712H353.431C354.85 685.517 356.213 684.64 357.519 684.08C358.863 683.52 360.301 683.24 361.831 683.24C363.698 683.24 365.359 683.725 366.815 684.696C368.271 685.667 369.41 687.048 370.231 688.84C371.09 690.595 371.519 692.704 371.519 695.168C371.519 698.229 370.922 700.843 369.727 703.008C368.533 705.136 366.946 706.76 364.967 707.88C362.989 709 360.805 709.56 358.415 709.56C357.594 709.56 356.735 709.411 355.839 709.112C354.943 708.851 354.066 708.496 353.207 708.048V720.088L357.183 721.04V721.88H346.879ZM360.319 685.144C358.938 685.144 357.65 685.387 356.455 685.872C355.298 686.357 354.215 687.048 353.207 687.944V705.808C354.365 706.555 355.503 707.133 356.623 707.544C357.743 707.917 358.994 708.104 360.375 708.104C361.906 708.104 363.306 707.712 364.575 706.928C365.882 706.144 366.927 704.875 367.711 703.12C368.495 701.328 368.887 698.976 368.887 696.064C368.887 693.563 368.477 691.509 367.655 689.904C366.834 688.261 365.751 687.067 364.407 686.32C363.101 685.536 361.738 685.144 360.319 685.144ZM390.135 709.56C387.858 709.56 385.861 708.981 384.143 707.824C382.426 706.667 381.082 705.099 380.111 703.12C379.141 701.141 378.655 698.901 378.655 696.4C378.655 693.899 379.141 691.659 380.111 689.68C381.082 687.701 382.426 686.133 384.143 684.976C385.861 683.819 387.858 683.24 390.135 683.24C392.413 683.24 394.41 683.819 396.127 684.976C397.845 686.133 399.189 687.701 400.159 689.68C401.13 691.659 401.615 693.899 401.615 696.4C401.615 698.901 401.13 701.141 400.159 703.12C399.189 705.099 397.845 706.667 396.127 707.824C394.41 708.981 392.413 709.56 390.135 709.56ZM390.919 708.272C392.637 708.272 394.074 707.768 395.231 706.76C396.426 705.715 397.322 704.371 397.919 702.728C398.517 701.085 398.815 699.349 398.815 697.52C398.815 695.093 398.461 692.909 397.751 690.968C397.042 688.989 395.978 687.421 394.559 686.264C393.178 685.069 391.479 684.472 389.463 684.472C387.783 684.472 386.346 684.957 385.151 685.928C383.957 686.861 383.042 688.149 382.407 689.792C381.773 691.397 381.455 693.208 381.455 695.224C381.455 697.651 381.829 699.853 382.575 701.832C383.359 703.811 384.442 705.379 385.823 706.536C387.242 707.693 388.941 708.272 390.919 708.272ZM415.154 709.56C413.848 709.56 412.672 709.411 411.626 709.112C410.618 708.851 409.573 708.459 408.49 707.936V702.112H409.162L409.946 704.632C410.282 705.752 410.898 706.648 411.794 707.32C412.69 707.955 413.96 708.272 415.602 708.272C417.394 708.272 418.776 707.843 419.746 706.984C420.754 706.088 421.258 704.819 421.258 703.176C421.258 701.72 420.866 700.581 420.082 699.76C419.298 698.901 417.842 698.043 415.714 697.184C413.474 696.288 411.813 695.317 410.73 694.272C409.685 693.227 409.162 691.733 409.162 689.792C409.162 688.597 409.48 687.515 410.114 686.544C410.786 685.536 411.664 684.733 412.746 684.136C413.829 683.539 414.986 683.24 416.218 683.24C417.6 683.24 418.832 683.408 419.914 683.744C420.997 684.043 421.93 684.397 422.714 684.808V690.52H422.042L421.314 688.112C420.941 686.805 420.232 685.872 419.186 685.312C418.178 684.752 417.152 684.472 416.106 684.472C414.65 684.472 413.53 684.901 412.746 685.76C412 686.619 411.626 687.739 411.626 689.12C411.626 690.501 412.037 691.584 412.858 692.368C413.68 693.152 415.005 693.917 416.834 694.664C418.477 695.336 419.802 695.989 420.81 696.624C421.856 697.259 422.621 698.043 423.106 698.976C423.592 699.872 423.834 701.029 423.834 702.448C423.834 703.717 423.48 704.893 422.77 705.976C422.061 707.059 421.053 707.936 419.746 708.608C418.44 709.243 416.909 709.56 415.154 709.56ZM435.945 674.392C435.348 674.392 434.844 674.187 434.433 673.776C434.023 673.365 433.817 672.861 433.817 672.264C433.817 671.667 434.023 671.163 434.433 670.752C434.844 670.341 435.348 670.136 435.945 670.136C436.543 670.136 437.047 670.341 437.457 670.752C437.868 671.163 438.073 671.667 438.073 672.264C438.073 672.861 437.868 673.365 437.457 673.776C437.047 674.187 436.543 674.392 435.945 674.392ZM431.801 709V708.16L435.329 707.208V685.928L431.241 684.864V684.024L437.569 683.24H438.129V707.208L442.105 708.16V709H431.801ZM456.764 709.56C455.233 709.56 453.983 709.075 453.012 708.104C452.079 707.133 451.612 705.771 451.612 704.016V685.704H446.684V685.2L451.948 683.8L453.796 677.64H454.412V683.8H461.804V685.704H454.412V703.904C454.412 705.061 454.767 705.939 455.476 706.536C456.185 707.096 457.119 707.376 458.276 707.376C459.097 707.376 459.844 707.283 460.516 707.096C461.188 706.909 461.823 706.648 462.42 706.312L462.476 706.368V706.592C462.177 707.227 461.543 707.88 460.572 708.552C459.601 709.224 458.332 709.56 456.764 709.56ZM479 709.56C476.723 709.56 474.726 708.981 473.008 707.824C471.291 706.667 469.947 705.099 468.976 703.12C468.006 701.141 467.52 698.901 467.52 696.4C467.52 693.899 468.006 691.659 468.976 689.68C469.947 687.701 471.291 686.133 473.008 684.976C474.726 683.819 476.723 683.24 479 683.24C481.278 683.24 483.275 683.819 484.992 684.976C486.71 686.133 488.054 687.701 489.024 689.68C489.995 691.659 490.48 693.899 490.48 696.4C490.48 698.901 489.995 701.141 489.024 703.12C488.054 705.099 486.71 706.667 484.992 707.824C483.275 708.981 481.278 709.56 479 709.56ZM479.784 708.272C481.502 708.272 482.939 707.768 484.096 706.76C485.291 705.715 486.187 704.371 486.784 702.728C487.382 701.085 487.68 699.349 487.68 697.52C487.68 695.093 487.326 692.909 486.616 690.968C485.907 688.989 484.843 687.421 483.424 686.264C482.043 685.069 480.344 684.472 478.328 684.472C476.648 684.472 475.211 684.957 474.016 685.928C472.822 686.861 471.907 688.149 471.272 689.792C470.638 691.397 470.32 693.208 470.32 695.224C470.32 697.651 470.694 699.853 471.44 701.832C472.224 703.811 473.307 705.379 474.688 706.536C476.107 707.693 477.806 708.272 479.784 708.272ZM523.171 709.56C520.558 709.56 518.355 709 516.563 707.88C514.809 706.76 513.465 705.248 512.531 703.344C511.635 701.44 511.187 699.293 511.187 696.904C511.187 694.291 511.71 691.957 512.755 689.904C513.838 687.813 515.313 686.189 517.179 685.032C519.083 683.837 521.23 683.24 523.619 683.24C525.113 683.24 526.438 683.445 527.595 683.856C528.753 684.267 529.686 684.715 530.395 685.2C531.59 686.021 532.187 686.731 532.187 687.328C532.187 687.589 532.057 687.832 531.795 688.056L530.283 689.344H530.059L529.331 688.336C528.51 687.216 527.614 686.301 526.643 685.592C525.71 684.845 524.497 684.472 523.003 684.472C520.39 684.472 518.225 685.461 516.507 687.44C514.827 689.381 513.987 692.293 513.987 696.176C513.987 699.461 514.846 702.131 516.563 704.184C518.318 706.2 520.782 707.208 523.955 707.208C525.673 707.208 527.259 706.947 528.715 706.424C530.171 705.901 531.31 705.192 532.131 704.296H532.299V705.024C531.441 706.331 530.227 707.413 528.659 708.272C527.091 709.131 525.262 709.56 523.171 709.56ZM544.097 709.56C542.38 709.56 540.943 709.056 539.785 708.048C538.628 707.003 538.049 705.565 538.049 703.736C538.049 701.944 538.684 700.451 539.953 699.256C541.26 698.061 543.407 697.091 546.393 696.344L551.881 694.944V690.296C551.881 688.691 551.303 687.403 550.145 686.432C548.988 685.424 547.663 684.92 546.169 684.92C544.564 684.92 543.425 685.256 542.753 685.928C542.119 686.563 541.801 687.44 541.801 688.56V690.856L541.521 691.136H540.065C539.468 691.136 539.076 691.043 538.889 690.856C538.703 690.669 538.609 690.315 538.609 689.792C538.609 689.083 538.852 688.355 539.337 687.608C539.823 686.861 540.532 686.189 541.465 685.592C542.473 684.957 543.481 684.416 544.489 683.968C545.535 683.483 546.524 683.24 547.457 683.24C549.697 683.24 551.452 683.744 552.721 684.752C554.028 685.723 554.681 687.253 554.681 689.344V706.76C554.98 707.021 555.316 707.227 555.689 707.376C556.1 707.525 556.567 707.6 557.089 707.6H560.001L560.057 707.656V707.768C559.796 708.141 559.367 708.533 558.769 708.944C558.172 709.355 557.369 709.56 556.361 709.56C555.055 709.56 554.047 709.224 553.337 708.552C552.628 707.88 552.199 707.096 552.049 706.2H551.937C550.967 707.171 549.791 707.973 548.409 708.608C547.065 709.243 545.628 709.56 544.097 709.56ZM540.849 702.728C540.849 704.259 541.279 705.416 542.137 706.2C542.996 706.947 544.209 707.32 545.777 707.32C546.711 707.32 547.719 707.189 548.801 706.928C549.884 706.629 550.911 706.181 551.881 705.584V696.12C548.783 696.755 546.431 697.389 544.825 698.024C543.257 698.659 542.193 699.349 541.633 700.096C541.111 700.843 540.849 701.72 540.849 702.728ZM576.572 709.56C573.959 709.56 571.756 709 569.964 707.88C568.21 706.76 566.866 705.248 565.932 703.344C565.036 701.44 564.588 699.293 564.588 696.904C564.588 694.291 565.111 691.957 566.156 689.904C567.239 687.813 568.714 686.189 570.58 685.032C572.484 683.837 574.631 683.24 577.02 683.24C578.514 683.24 579.839 683.445 580.996 683.856C582.154 684.267 583.087 684.715 583.796 685.2C584.991 686.021 585.588 686.731 585.588 687.328C585.588 687.589 585.458 687.832 585.196 688.056L583.684 689.344H583.46L582.732 688.336C581.911 687.216 581.015 686.301 580.044 685.592C579.111 684.845 577.898 684.472 576.404 684.472C573.791 684.472 571.626 685.461 569.908 687.44C568.228 689.381 567.388 692.293 567.388 696.176C567.388 699.461 568.247 702.131 569.964 704.184C571.719 706.2 574.183 707.208 577.356 707.208C579.074 707.208 580.66 706.947 582.116 706.424C583.572 705.901 584.711 705.192 585.532 704.296H585.7V705.024C584.842 706.331 583.628 707.413 582.06 708.272C580.492 709.131 578.663 709.56 576.572 709.56ZM603.547 709.56C600.933 709.56 598.731 709 596.939 707.88C595.184 706.76 593.84 705.248 592.907 703.344C592.011 701.44 591.563 699.293 591.563 696.904C591.563 694.291 592.085 691.957 593.131 689.904C594.213 687.813 595.688 686.189 597.555 685.032C599.459 683.837 601.605 683.24 603.995 683.24C605.488 683.24 606.813 683.445 607.971 683.856C609.128 684.267 610.061 684.715 610.771 685.2C611.965 686.021 612.563 686.731 612.563 687.328C612.563 687.589 612.432 687.832 612.171 688.056L610.659 689.344H610.435L609.707 688.336C608.885 687.216 607.989 686.301 607.019 685.592C606.085 684.845 604.872 684.472 603.379 684.472C600.765 684.472 598.6 685.461 596.883 687.44C595.203 689.381 594.363 692.293 594.363 696.176C594.363 699.461 595.221 702.131 596.939 704.184C598.693 706.2 601.157 707.208 604.331 707.208C606.048 707.208 607.635 706.947 609.091 706.424C610.547 705.901 611.685 705.192 612.507 704.296H612.675V705.024C611.816 706.331 610.603 707.413 609.035 708.272C607.467 709.131 605.637 709.56 603.547 709.56ZM624.473 709.56C622.755 709.56 621.318 709.056 620.161 708.048C619.003 707.003 618.425 705.565 618.425 703.736C618.425 701.944 619.059 700.451 620.329 699.256C621.635 698.061 623.782 697.091 626.769 696.344L632.257 694.944V690.296C632.257 688.691 631.678 687.403 630.521 686.432C629.363 685.424 628.038 684.92 626.545 684.92C624.939 684.92 623.801 685.256 623.129 685.928C622.494 686.563 622.177 687.44 622.177 688.56V690.856L621.897 691.136H620.441C619.843 691.136 619.451 691.043 619.265 690.856C619.078 690.669 618.985 690.315 618.985 689.792C618.985 689.083 619.227 688.355 619.713 687.608C620.198 686.861 620.907 686.189 621.841 685.592C622.849 684.957 623.857 684.416 624.865 683.968C625.91 683.483 626.899 683.24 627.833 683.24C630.073 683.24 631.827 683.744 633.097 684.752C634.403 685.723 635.057 687.253 635.057 689.344V706.76C635.355 707.021 635.691 707.227 636.065 707.376C636.475 707.525 636.942 707.6 637.465 707.6H640.377L640.433 707.656V707.768C640.171 708.141 639.742 708.533 639.145 708.944C638.547 709.355 637.745 709.56 636.737 709.56C635.43 709.56 634.422 709.224 633.713 708.552C633.003 707.88 632.574 707.096 632.425 706.2H632.313C631.342 707.171 630.166 707.973 628.785 708.608C627.441 709.243 626.003 709.56 624.473 709.56ZM621.225 702.728C621.225 704.259 621.654 705.416 622.513 706.2C623.371 706.947 624.585 707.32 626.153 707.32C627.086 707.32 628.094 707.189 629.177 706.928C630.259 706.629 631.286 706.181 632.257 705.584V696.12C629.158 696.755 626.806 697.389 625.201 698.024C623.633 698.659 622.569 699.349 622.009 700.096C621.486 700.843 621.225 701.72 621.225 702.728ZM653.041 709.28L643.913 685.704L640.385 684.64V683.8H651.137V684.64L646.825 685.592V685.76L654.049 705.36H654.217L661.329 685.816V685.648L656.793 684.64V683.8H666.705V684.64L663.121 685.704L653.601 709.28H653.041ZM674.647 709.56C672.93 709.56 671.493 709.056 670.335 708.048C669.178 707.003 668.599 705.565 668.599 703.736C668.599 701.944 669.234 700.451 670.503 699.256C671.81 698.061 673.957 697.091 676.943 696.344L682.431 694.944V690.296C682.431 688.691 681.853 687.403 680.695 686.432C679.538 685.424 678.213 684.92 676.719 684.92C675.114 684.92 673.975 685.256 673.303 685.928C672.669 686.563 672.351 687.44 672.351 688.56V690.856L672.071 691.136H670.615C670.018 691.136 669.626 691.043 669.439 690.856C669.253 690.669 669.159 690.315 669.159 689.792C669.159 689.083 669.402 688.355 669.887 687.608C670.373 686.861 671.082 686.189 672.015 685.592C673.023 684.957 674.031 684.416 675.039 683.968C676.085 683.483 677.074 683.24 678.007 683.24C680.247 683.24 682.002 683.744 683.271 684.752C684.578 685.723 685.231 687.253 685.231 689.344V706.76C685.53 707.021 685.866 707.227 686.239 707.376C686.65 707.525 687.117 707.6 687.639 707.6H690.551L690.607 707.656V707.768C690.346 708.141 689.917 708.533 689.319 708.944C688.722 709.355 687.919 709.56 686.911 709.56C685.605 709.56 684.597 709.224 683.887 708.552C683.178 707.88 682.749 707.096 682.599 706.2H682.487C681.517 707.171 680.341 707.973 678.959 708.608C677.615 709.243 676.178 709.56 674.647 709.56ZM671.399 702.728C671.399 704.259 671.829 705.416 672.687 706.2C673.546 706.947 674.759 707.32 676.327 707.32C677.261 707.32 678.269 707.189 679.351 706.928C680.434 706.629 681.461 706.181 682.431 705.584V696.12C679.333 696.755 676.981 697.389 675.375 698.024C673.807 698.659 672.743 699.349 672.183 700.096C671.661 700.843 671.399 701.72 671.399 702.728ZM694.816 709V708.16L698.344 707.208V669.688L694.256 668.624V667.784L700.584 667H701.144V707.208L705.12 708.16V709H694.816ZM723.108 709.56C720.458 709.56 718.218 709 716.388 707.88C714.596 706.76 713.234 705.248 712.3 703.344C711.404 701.44 710.956 699.293 710.956 696.904C710.956 694.365 711.479 692.069 712.524 690.016C713.607 687.963 715.007 686.32 716.724 685.088C718.479 683.856 720.383 683.24 722.436 683.24C725.386 683.24 727.7 684.211 729.38 686.152C731.06 688.093 732.031 690.781 732.292 694.216L732.124 694.384H713.812C713.775 694.944 713.756 695.541 713.756 696.176C713.756 699.461 714.634 702.131 716.388 704.184C718.18 706.2 720.682 707.208 723.892 707.208C725.647 707.208 727.234 706.947 728.652 706.424C730.108 705.901 731.247 705.192 732.068 704.296H732.236V705.024C731.415 706.331 730.202 707.413 728.596 708.272C727.028 709.131 725.199 709.56 723.108 709.56ZM721.764 684.472C719.935 684.472 718.292 685.237 716.836 686.768C715.38 688.261 714.428 690.389 713.98 693.152H729.212C728.839 690.427 728.074 688.299 726.916 686.768C725.759 685.237 724.042 684.472 721.764 684.472Z" fill="black"/>
</svg>
