<svg width="56" height="72" viewBox="0 0 56 72" fill="none" xmlns="http://www.w3.org/2000/svg">
<rect width="56" height="72" fill="white"/>
<g clip-path="url(#clip0_911_296)">
<path fill-rule="evenodd" clip-rule="evenodd" d="M28.0003 21.625C24.4394 21.6268 20.9952 22.8881 18.2836 25.1832C15.572 27.4782 13.7699 30.6575 13.1994 34.1525C12.629 37.6475 13.3274 41.2303 15.1698 44.2602C17.0123 47.2902 19.8785 49.5697 23.2562 50.6912C24.0013 50.8295 24.282 50.3677 24.282 49.975C24.282 49.5823 24.2671 48.4438 24.2621 47.199C20.0892 48.1005 19.2075 45.4381 19.2075 45.4381C18.5269 43.7093 17.5433 43.2549 17.5433 43.2549C16.1821 42.3312 17.6451 42.3485 17.6451 42.3485C19.1528 42.4547 19.9452 43.8871 19.9452 43.8871C21.2815 46.1667 23.4549 45.5073 24.3093 45.122C24.4434 44.1563 24.8334 43.4994 25.2631 43.1264C21.9298 42.751 18.4275 41.4717 18.4275 35.7568C18.4069 34.2746 18.96 32.8413 19.9725 31.7534C19.8185 31.378 19.3043 29.8615 20.1191 27.8018C20.1191 27.8018 21.3784 27.4017 24.2447 29.3306C26.7033 28.662 29.2973 28.662 31.7559 29.3306C34.6198 27.4017 35.8766 27.8018 35.8766 27.8018C36.6938 29.8566 36.1797 31.373 36.0257 31.7534C37.0414 32.8415 37.5957 34.2773 37.5731 35.7617C37.5731 41.489 34.0634 42.751 30.7251 43.119C31.2616 43.5833 31.741 44.4897 31.741 45.8827C31.741 47.8782 31.7236 49.4835 31.7236 49.975C31.7236 50.3726 31.9944 50.8369 32.7544 50.6912C36.1324 49.5696 38.999 47.2896 40.8414 44.2592C42.6838 41.2287 43.3819 37.6454 42.8108 34.1501C42.2397 30.6548 40.4366 27.4754 37.7242 25.1808C35.0117 22.8861 31.5667 21.6257 28.0053 21.625H28.0003Z" fill="#191717"/>
<path d="M18.6805 43.04C18.6483 43.1141 18.529 43.1364 18.4322 43.0845C18.3353 43.0326 18.2633 42.9363 18.298 42.8597C18.3328 42.7832 18.4496 42.7634 18.5464 42.8153C18.6433 42.8672 18.7178 42.9659 18.6805 43.04Z" fill="#191717"/>
<path d="M19.2891 43.7142C19.2377 43.74 19.1788 43.7472 19.1226 43.7346C19.0665 43.722 19.0164 43.6903 18.9811 43.6451C18.8842 43.5414 18.8644 43.3981 18.9389 43.3339C19.0134 43.2697 19.1475 43.2993 19.2444 43.4031C19.3413 43.5068 19.3636 43.65 19.2891 43.7142Z" fill="#191717"/>
<path d="M19.8803 44.5712C19.7884 44.6354 19.6319 44.5712 19.545 44.4428C19.5209 44.4198 19.5018 44.3921 19.4888 44.3616C19.4757 44.331 19.469 44.2982 19.469 44.265C19.469 44.2318 19.4757 44.1989 19.4888 44.1684C19.5018 44.1378 19.5209 44.1102 19.545 44.0872C19.6369 44.0254 19.7934 44.0872 19.8803 44.2131C19.9672 44.3391 19.9697 44.507 19.8803 44.5712Z" fill="#191717"/>
<path d="M20.6826 45.4011C20.6006 45.4924 20.4342 45.4677 20.2976 45.3443C20.161 45.2208 20.1287 45.0528 20.2106 44.9639C20.2926 44.875 20.459 44.8997 20.6006 45.0207C20.7422 45.1417 20.7695 45.3121 20.6826 45.4011Z" fill="#191717"/>
<path d="M21.8077 45.8851C21.7705 46.0012 21.6016 46.0531 21.4327 46.0037C21.2638 45.9543 21.152 45.816 21.1843 45.6974C21.2166 45.5789 21.3879 45.5245 21.5593 45.5789C21.7307 45.6332 21.84 45.7641 21.8077 45.8851Z" fill="#191717"/>
<path d="M23.0348 45.9691C23.0348 46.0901 22.8957 46.1938 22.7169 46.1963C22.538 46.1988 22.3915 46.1 22.3915 45.979C22.3915 45.858 22.5306 45.7542 22.7094 45.7518C22.8882 45.7493 23.0348 45.8456 23.0348 45.9691Z" fill="#191717"/>
<path d="M24.1774 45.7789C24.1997 45.8999 24.0755 46.0259 23.8967 46.0555C23.7179 46.0851 23.5614 46.0135 23.539 45.895C23.5167 45.7764 23.6458 45.648 23.8197 45.6159C23.9936 45.5838 24.155 45.6579 24.1774 45.7789Z" fill="#191717"/>
</g>
<defs>
<clipPath id="clip0_911_296">
<rect width="30" height="30" fill="white" transform="translate(13 21)"/>
</clipPath>
</defs>
</svg>
