<svg width="56" height="56" viewBox="0 0 56 56" fill="none" xmlns="http://www.w3.org/2000/svg">
<rect width="56" height="56" fill="white"/>
<g clip-path="url(#clip0_911_277)">
<path fill-rule="evenodd" clip-rule="evenodd" d="M28.0003 7.625C24.4394 7.62685 20.9952 8.88807 18.2836 11.1832C15.572 13.4782 13.7699 16.6575 13.1994 20.1525C12.629 23.6475 13.3274 27.2303 15.1698 30.2602C17.0123 33.2902 19.8785 35.5697 23.2562 36.6912C24.0013 36.8295 24.282 36.3677 24.282 35.975C24.282 35.5823 24.2671 34.4438 24.2621 33.199C20.0892 34.1005 19.2075 31.4381 19.2075 31.4381C18.5269 29.7093 17.5433 29.2549 17.5433 29.2549C16.1821 28.3312 17.6451 28.3485 17.6451 28.3485C19.1528 28.4547 19.9452 29.8871 19.9452 29.8871C21.2815 32.1667 23.4549 31.5073 24.3093 31.122C24.4434 30.1563 24.8334 29.4994 25.2631 29.1264C21.9298 28.751 18.4275 27.4717 18.4275 21.7568C18.4069 20.2746 18.96 18.8413 19.9725 17.7534C19.8185 17.378 19.3043 15.8615 20.1191 13.8018C20.1191 13.8018 21.3784 13.4017 24.2447 15.3306C26.7033 14.662 29.2973 14.662 31.7559 15.3306C34.6198 13.4017 35.8766 13.8018 35.8766 13.8018C36.6938 15.8566 36.1797 17.373 36.0257 17.7534C37.0414 18.8415 37.5957 20.2773 37.5731 21.7617C37.5731 27.489 34.0634 28.751 30.7251 29.119C31.2616 29.5833 31.741 30.4897 31.741 31.8827C31.741 33.8782 31.7236 35.4835 31.7236 35.975C31.7236 36.3726 31.9944 36.8369 32.7544 36.6912C36.1324 35.5696 38.999 33.2896 40.8414 30.2592C42.6838 27.2287 43.3819 23.6454 42.8108 20.1501C42.2397 16.6548 40.4366 13.4754 37.7242 11.1808C35.0117 8.88607 31.5667 7.62568 28.0053 7.625H28.0003Z" fill="#191717"/>
<path d="M18.6805 29.04C18.6483 29.1141 18.529 29.1364 18.4322 29.0845C18.3353 29.0326 18.2633 28.9363 18.298 28.8597C18.3328 28.7832 18.4496 28.7634 18.5464 28.8153C18.6433 28.8672 18.7178 28.9659 18.6805 29.04Z" fill="#191717"/>
<path d="M19.2891 29.7142C19.2377 29.74 19.1788 29.7472 19.1226 29.7346C19.0665 29.722 19.0164 29.6903 18.9811 29.6451C18.8842 29.5414 18.8644 29.3981 18.9389 29.3339C19.0134 29.2697 19.1475 29.2993 19.2444 29.4031C19.3413 29.5068 19.3636 29.65 19.2891 29.7142Z" fill="#191717"/>
<path d="M19.8803 30.5712C19.7884 30.6354 19.6319 30.5712 19.545 30.4428C19.5209 30.4198 19.5018 30.3921 19.4888 30.3616C19.4757 30.331 19.469 30.2982 19.469 30.265C19.469 30.2318 19.4757 30.1989 19.4888 30.1684C19.5018 30.1378 19.5209 30.1102 19.545 30.0872C19.6369 30.0254 19.7934 30.0872 19.8803 30.2131C19.9672 30.3391 19.9697 30.507 19.8803 30.5712V30.5712Z" fill="#191717"/>
<path d="M20.6826 31.4011C20.6006 31.4924 20.4342 31.4677 20.2976 31.3443C20.161 31.2208 20.1287 31.0528 20.2106 30.9639C20.2926 30.875 20.459 30.8997 20.6006 31.0207C20.7422 31.1417 20.7695 31.3121 20.6826 31.4011V31.4011Z" fill="#191717"/>
<path d="M21.8077 31.8851C21.7705 32.0012 21.6016 32.0531 21.4327 32.0037C21.2638 31.9543 21.152 31.816 21.1843 31.6974C21.2166 31.5789 21.3879 31.5245 21.5593 31.5789C21.7307 31.6332 21.84 31.7641 21.8077 31.8851Z" fill="#191717"/>
<path d="M23.0348 31.9691C23.0348 32.0901 22.8957 32.1938 22.7169 32.1963C22.538 32.1988 22.3915 32.1 22.3915 31.979C22.3915 31.858 22.5306 31.7542 22.7094 31.7518C22.8882 31.7493 23.0348 31.8456 23.0348 31.9691Z" fill="#191717"/>
<path d="M24.1774 31.7789C24.1997 31.8999 24.0755 32.0259 23.8967 32.0555C23.7179 32.0851 23.5614 32.0135 23.539 31.895C23.5167 31.7764 23.6458 31.648 23.8197 31.6159C23.9936 31.5838 24.155 31.6579 24.1774 31.7789Z" fill="#191717"/>
</g>
<path d="M12.4109 54.1C11.7709 54.1 11.1975 53.96 10.6909 53.68C10.1909 53.4 9.79753 53.02 9.51086 52.54C9.22419 52.0533 9.08086 51.5 9.08086 50.88C9.08086 50.3667 9.17086 49.8933 9.35086 49.46C9.53086 49.0267 9.77753 48.65 10.0909 48.33C10.4109 48.0033 10.7775 47.75 11.1909 47.57C11.6042 47.39 12.0475 47.3 12.5209 47.3C12.8675 47.3 13.1642 47.3233 13.4109 47.37C13.6575 47.41 13.8775 47.4667 14.0709 47.54C14.2642 47.6133 14.4575 47.6967 14.6509 47.79L14.7009 49.34H14.4909L14.0909 48.19C13.8109 47.9833 13.5442 47.8367 13.2909 47.75C13.0442 47.6567 12.7675 47.61 12.4609 47.61C11.8875 47.61 11.3875 47.7433 10.9609 48.01C10.5342 48.2767 10.2042 48.63 9.97086 49.07C9.74419 49.5033 9.63086 49.9733 9.63086 50.48C9.63086 51.1467 9.76086 51.7233 10.0209 52.21C10.2875 52.69 10.6375 53.06 11.0709 53.32C11.5109 53.58 11.9909 53.71 12.5109 53.71C12.7575 53.71 12.9975 53.6967 13.2309 53.67C13.4709 53.6367 13.7175 53.5667 13.9709 53.46V51.55L13.1009 51.35V51.1H15.3509V51.35L14.5709 51.52V53.36C14.2975 53.5867 13.9642 53.7667 13.5709 53.9C13.1775 54.0333 12.7909 54.1 12.4109 54.1ZM16.5516 54V53.75L17.3316 53.58V47.82L16.5516 47.65V47.4H18.7116V47.65L17.9316 47.82V53.58L18.7116 53.75V54H16.5516ZM21.436 54V53.75L22.436 53.58V47.75H20.486L20.066 49.22H19.866V47.4H25.606V49.22H25.406L24.986 47.75H23.036V53.58L24.036 53.75V54H21.436ZM26.7066 54V53.75L27.4866 53.58V47.82L26.7066 47.65V47.4H28.9466V47.65L28.0866 47.82V50.42H31.8666V47.82L31.0066 47.65V47.4H33.2466V47.65L32.4666 47.82V53.58L33.2466 53.75V54H31.0066V53.75L31.8666 53.58V50.77H28.0866V53.58L28.9466 53.75V54H26.7066ZM37.7984 54.1C37.3318 54.1 36.9118 54.0167 36.5384 53.85C36.1718 53.6767 35.8818 53.41 35.6684 53.05C35.4551 52.6833 35.3484 52.2067 35.3484 51.62V47.82L34.5484 47.65V47.4H36.7484V47.65L35.9484 47.82V51.48C35.9484 52.04 36.0284 52.48 36.1884 52.8C36.3551 53.12 36.5918 53.3467 36.8984 53.48C37.2051 53.6133 37.5651 53.68 37.9784 53.68C38.3251 53.68 38.6418 53.6133 38.9284 53.48C39.2151 53.34 39.4418 53.1267 39.6084 52.84C39.7751 52.5467 39.8584 52.1767 39.8584 51.73V47.8L38.8584 47.65V47.4H41.0384V47.65L40.2484 47.81V51.62C40.2484 52.2067 40.1418 52.6833 39.9284 53.05C39.7151 53.41 39.4218 53.6767 39.0484 53.85C38.6818 54.0167 38.2651 54.1 37.7984 54.1ZM42.3414 54V53.75L43.1214 53.58V47.82L42.3414 47.65V47.4H44.1514C44.5847 47.4 44.9814 47.4567 45.3414 47.57C45.7014 47.6767 45.9881 47.84 46.2014 48.06C46.4147 48.2733 46.5214 48.5467 46.5214 48.88C46.5214 49.24 46.4047 49.57 46.1714 49.87C45.9381 50.17 45.6014 50.38 45.1614 50.5C45.7747 50.58 46.2514 50.76 46.5914 51.04C46.9314 51.3133 47.1014 51.66 47.1014 52.08C47.1014 52.4467 46.9881 52.7767 46.7614 53.07C46.5347 53.3567 46.2247 53.5833 45.8314 53.75C45.4447 53.9167 45.0014 54 44.5014 54H42.3414ZM44.2314 47.76H43.7214V50.42H44.2914C44.7647 50.42 45.1514 50.3067 45.4514 50.08C45.7514 49.8467 45.9014 49.5233 45.9014 49.11C45.9014 48.6633 45.7547 48.3267 45.4614 48.1C45.1681 47.8733 44.7581 47.76 44.2314 47.76ZM44.6114 50.77H43.7214V53.66H44.6814C45.0347 53.66 45.3447 53.6 45.6114 53.48C45.8781 53.3533 46.0881 53.1833 46.2414 52.97C46.3947 52.75 46.4714 52.5 46.4714 52.22C46.4714 51.72 46.3014 51.3533 45.9614 51.12C45.6281 50.8867 45.1781 50.77 44.6114 50.77Z" fill="black"/>
<defs>
<clipPath id="clip0_911_277">
<rect width="30" height="30" fill="white" transform="translate(13 7)"/>
</clipPath>
</defs>
</svg>
