<svg width="56" height="72" viewBox="0 0 56 72" fill="none" xmlns="http://www.w3.org/2000/svg">
<rect width="56" height="72" fill="white"/>
<g clip-path="url(#clip0_911_277)">
<path fill-rule="evenodd" clip-rule="evenodd" d="M28.0003 21.625C24.4394 21.6268 20.9952 22.8881 18.2836 25.1832C15.572 27.4782 13.7699 30.6575 13.1994 34.1525C12.629 37.6475 13.3274 41.2303 15.1698 44.2602C17.0123 47.2902 19.8785 49.5697 23.2562 50.6912C24.0013 50.8295 24.282 50.3677 24.282 49.975C24.282 49.5823 24.2671 48.4438 24.2621 47.199C20.0892 48.1005 19.2075 45.4381 19.2075 45.4381C18.5269 43.7093 17.5433 43.2549 17.5433 43.2549C16.1821 42.3312 17.6451 42.3485 17.6451 42.3485C19.1528 42.4547 19.9452 43.8871 19.9452 43.8871C21.2815 46.1667 23.4549 45.5073 24.3093 45.122C24.4434 44.1563 24.8334 43.4994 25.2631 43.1264C21.9298 42.751 18.4275 41.4717 18.4275 35.7568C18.4069 34.2746 18.96 32.8413 19.9725 31.7534C19.8185 31.378 19.3043 29.8615 20.1191 27.8018C20.1191 27.8018 21.3784 27.4017 24.2447 29.3306C26.7033 28.662 29.2973 28.662 31.7559 29.3306C34.6198 27.4017 35.8766 27.8018 35.8766 27.8018C36.6938 29.8566 36.1797 31.373 36.0257 31.7534C37.0414 32.8415 37.5957 34.2773 37.5731 35.7617C37.5731 41.489 34.0634 42.751 30.7251 43.119C31.2616 43.5833 31.741 44.4897 31.741 45.8827C31.741 47.8782 31.7236 49.4835 31.7236 49.975C31.7236 50.3726 31.9944 50.8369 32.7544 50.6912C36.1324 49.5696 38.999 47.2896 40.8414 44.2592C42.6838 41.2287 43.3819 37.6454 42.8108 34.1501C42.2397 30.6548 40.4366 27.4754 37.7242 25.1808C35.0117 22.8861 31.5667 21.6257 28.0053 21.625H28.0003Z" fill="#191717"/>
<path d="M18.6805 43.04C18.6483 43.1141 18.529 43.1364 18.4322 43.0845C18.3353 43.0326 18.2633 42.9363 18.298 42.8597C18.3328 42.7832 18.4496 42.7634 18.5464 42.8153C18.6433 42.8672 18.7178 42.9659 18.6805 43.04Z" fill="#191717"/>
<path d="M19.2891 43.7142C19.2377 43.74 19.1788 43.7472 19.1226 43.7346C19.0665 43.722 19.0164 43.6903 18.9811 43.6451C18.8842 43.5414 18.8644 43.3981 18.9389 43.3339C19.0134 43.2697 19.1475 43.2993 19.2444 43.4031C19.3413 43.5068 19.3636 43.65 19.2891 43.7142Z" fill="#191717"/>
<path d="M19.8803 44.5712C19.7884 44.6354 19.6319 44.5712 19.545 44.4428C19.5209 44.4198 19.5018 44.3921 19.4888 44.3616C19.4757 44.331 19.469 44.2982 19.469 44.265C19.469 44.2318 19.4757 44.1989 19.4888 44.1684C19.5018 44.1378 19.5209 44.1102 19.545 44.0872C19.6369 44.0254 19.7934 44.0872 19.8803 44.2131C19.9672 44.3391 19.9697 44.507 19.8803 44.5712Z" fill="#191717"/>
<path d="M20.6826 45.4011C20.6006 45.4924 20.4342 45.4677 20.2976 45.3443C20.161 45.2208 20.1287 45.0528 20.2106 44.9639C20.2926 44.875 20.459 44.8997 20.6006 45.0207C20.7422 45.1417 20.7695 45.3121 20.6826 45.4011Z" fill="#191717"/>
<path d="M21.8077 45.8851C21.7705 46.0012 21.6016 46.0531 21.4327 46.0037C21.2638 45.9543 21.152 45.816 21.1843 45.6974C21.2166 45.5789 21.3879 45.5245 21.5593 45.5789C21.7307 45.6332 21.84 45.7641 21.8077 45.8851Z" fill="#191717"/>
<path d="M23.0348 45.9691C23.0348 46.0901 22.8957 46.1938 22.7169 46.1963C22.538 46.1988 22.3915 46.1 22.3915 45.979C22.3915 45.858 22.5306 45.7542 22.7094 45.7518C22.8882 45.7493 23.0348 45.8456 23.0348 45.9691Z" fill="#191717"/>
<path d="M24.1774 45.7789C24.1997 45.8999 24.0755 46.0259 23.8967 46.0555C23.7179 46.0851 23.5614 46.0135 23.539 45.895C23.5167 45.7764 23.6458 45.648 23.8197 45.6159C23.9936 45.5838 24.155 45.6579 24.1774 45.7789Z" fill="#191717"/>
</g>
<path d="M10.8519 70.11C10.1479 70.11 9.51728 69.956 8.95995 69.648C8.40995 69.34 7.97728 68.922 7.66195 68.394C7.34661 67.8587 7.18895 67.25 7.18895 66.568C7.18895 66.0033 7.28795 65.4827 7.48595 65.006C7.68395 64.5293 7.95528 64.115 8.29995 63.763C8.65195 63.4037 9.05528 63.125 9.50995 62.927C9.96461 62.729 10.4523 62.63 10.9729 62.63C11.3543 62.63 11.6806 62.6557 11.9519 62.707C12.2233 62.751 12.4653 62.8133 12.6779 62.894C12.8906 62.9747 13.1033 63.0663 13.3159 63.169L13.3709 64.874H13.1399L12.6999 63.609C12.3919 63.3817 12.0986 63.2203 11.8199 63.125C11.5486 63.0223 11.2443 62.971 10.9069 62.971C10.2763 62.971 9.72628 63.1177 9.25695 63.411C8.78761 63.7043 8.42461 64.093 8.16795 64.577C7.91861 65.0537 7.79395 65.5707 7.79395 66.128C7.79395 66.8613 7.93695 67.4957 8.22295 68.031C8.51628 68.559 8.90128 68.966 9.37795 69.252C9.86195 69.538 10.3899 69.681 10.9619 69.681C11.2333 69.681 11.4973 69.6663 11.7539 69.637C12.0179 69.6003 12.2893 69.5233 12.5679 69.406V67.305L11.6109 67.085V66.81H14.0859V67.085L13.2279 67.272V69.296C12.9273 69.5453 12.5606 69.7433 12.1279 69.89C11.6953 70.0367 11.2699 70.11 10.8519 70.11ZM15.4067 70V69.725L16.2647 69.538V63.202L15.4067 63.015V62.74H17.7827V63.015L16.9247 63.202V69.538L17.7827 69.725V70H15.4067ZM20.7796 70V69.725L21.8796 69.538V63.125H19.7346L19.2726 64.742H19.0526V62.74H25.3666V64.742H25.1466L24.6846 63.125H22.5396V69.538L23.6396 69.725V70H20.7796ZM26.5773 70V69.725L27.4353 69.538V63.202L26.5773 63.015V62.74H29.0413V63.015L28.0953 63.202V66.062H32.2533V63.202L31.3073 63.015V62.74H33.7713V63.015L32.9133 63.202V69.538L33.7713 69.725V70H31.3073V69.725L32.2533 69.538V66.447H28.0953V69.538L29.0413 69.725V70H26.5773ZM38.7783 70.11C38.2649 70.11 37.8029 70.0183 37.3923 69.835C36.9889 69.6443 36.6699 69.351 36.4353 68.955C36.2006 68.5517 36.0833 68.0273 36.0833 67.382V63.202L35.2033 63.015V62.74H37.6233V63.015L36.7433 63.202V67.228C36.7433 67.844 36.8313 68.328 37.0073 68.68C37.1906 69.032 37.4509 69.2813 37.7883 69.428C38.1256 69.5747 38.5216 69.648 38.9763 69.648C39.3576 69.648 39.7059 69.5747 40.0213 69.428C40.3366 69.274 40.5859 69.0393 40.7693 68.724C40.9526 68.4013 41.0443 67.9943 41.0443 67.503V63.18L39.9443 63.015V62.74H42.3423V63.015L41.4733 63.191V67.382C41.4733 68.0273 41.3559 68.5517 41.1213 68.955C40.8866 69.351 40.5639 69.6443 40.1533 69.835C39.7499 70.0183 39.2916 70.11 38.7783 70.11ZM43.7755 70V69.725L44.6335 69.538V63.202L43.7755 63.015V62.74H45.7665C46.2432 62.74 46.6795 62.8023 47.0755 62.927C47.4715 63.0443 47.7869 63.224 48.0215 63.466C48.2562 63.7007 48.3735 64.0013 48.3735 64.368C48.3735 64.764 48.2452 65.127 47.9885 65.457C47.7319 65.787 47.3615 66.018 46.8775 66.15C47.5522 66.238 48.0765 66.436 48.4505 66.744C48.8245 67.0447 49.0115 67.426 49.0115 67.888C49.0115 68.2913 48.8869 68.6543 48.6375 68.977C48.3882 69.2923 48.0472 69.5417 47.6145 69.725C47.1892 69.9083 46.7015 70 46.1515 70H43.7755ZM45.8545 63.136H45.2935V66.062H45.9205C46.4412 66.062 46.8665 65.9373 47.1965 65.688C47.5265 65.4313 47.6915 65.0757 47.6915 64.621C47.6915 64.1297 47.5302 63.7593 47.2075 63.51C46.8849 63.2607 46.4339 63.136 45.8545 63.136ZM46.2725 66.447H45.2935V69.626H46.3495C46.7382 69.626 47.0792 69.56 47.3725 69.428C47.6659 69.2887 47.8969 69.1017 48.0655 68.867C48.2342 68.625 48.3185 68.35 48.3185 68.042C48.3185 67.492 48.1315 67.0887 47.7575 66.832C47.3909 66.5753 46.8959 66.447 46.2725 66.447Z" fill="black"/>
<defs>
<clipPath id="clip0_911_277">
<rect width="30" height="30" fill="white" transform="translate(13 21)"/>
</clipPath>
</defs>
</svg>
