<svg width="20" height="20" viewBox="0 0 20 20" fill="none" xmlns="http://www.w3.org/2000/svg">
<circle cx="9.75" cy="9.75439" r="9.75" fill="#FAFAFA"/>
<g clip-path="url(#clip0_1192_467)">
<path fill-rule="evenodd" clip-rule="evenodd" d="M9.75015 3.2821C8.14772 3.28294 6.59782 3.85043 5.37761 4.88311C4.1574 5.9158 3.34645 7.34633 3.08974 8.91891C2.83304 10.4915 3.14733 12.1036 3.97643 13.4669C4.80552 14.8303 6.09535 15.856 7.61527 16.3606C7.95059 16.4228 8.0769 16.215 8.0769 16.0383C8.0769 15.8616 8.07019 15.3493 8.06795 14.7893C6.19016 15.1949 5.79337 13.9969 5.79337 13.9969C5.48711 13.219 5.04448 13.0146 5.04448 13.0146C4.43196 12.599 5.09031 12.6067 5.09031 12.6067C5.76878 12.6545 6.12534 13.2991 6.12534 13.2991C6.72668 14.3248 7.70469 14.028 8.08919 13.8547C8.14955 13.4202 8.32504 13.1246 8.5184 12.9568C7.0184 12.7879 5.4424 12.2122 5.4424 9.64077C5.4331 8.97387 5.68201 8.32894 6.13763 7.83941C6.06833 7.67049 5.83696 6.98818 6.20357 6.06138C6.20357 6.06138 6.77027 5.88136 8.06014 6.74926C9.1665 6.44845 10.3338 6.44845 11.4402 6.74926C12.7289 5.88136 13.2945 6.06138 13.2945 6.06138C13.6622 6.98595 13.4308 7.66827 13.3615 7.83941C13.8186 8.32902 14.068 8.97508 14.0579 9.64299C14.0579 12.22 12.4785 12.7879 10.9763 12.9535C11.2177 13.1624 11.4335 13.5702 11.4335 14.197C11.4335 15.0949 11.4256 15.8172 11.4256 16.0383C11.4256 16.2172 11.5475 16.4262 11.8895 16.3606C13.4096 15.8559 14.6995 14.83 15.5286 13.4665C16.3577 12.1029 16.6718 10.4906 16.4148 8.91782C16.1578 7.34509 15.3465 5.91454 14.1259 4.88204C12.9053 3.84953 11.355 3.28241 9.75238 3.2821H9.75015Z" fill="#191717"/>
<path d="M5.55625 12.9178C5.54171 12.9512 5.48806 12.9612 5.44447 12.9378C5.40088 12.9145 5.36847 12.8712 5.38412 12.8367C5.39977 12.8023 5.4523 12.7934 5.49589 12.8167C5.53948 12.8401 5.57301 12.8845 5.55625 12.9178Z" fill="#191717"/>
<path d="M5.8301 13.2212C5.80695 13.2328 5.78047 13.2361 5.75518 13.2304C5.7299 13.2247 5.70739 13.2105 5.6915 13.1901C5.64791 13.1435 5.63896 13.079 5.67249 13.0501C5.70602 13.0212 5.76639 13.0346 5.80998 13.0812C5.85357 13.1279 5.86363 13.1924 5.8301 13.2212Z" fill="#191717"/>
<path d="M6.09614 13.6069C6.05478 13.6357 5.98436 13.6069 5.94524 13.5491C5.93442 13.5387 5.92582 13.5263 5.91994 13.5125C5.91407 13.4988 5.91103 13.484 5.91103 13.4691C5.91103 13.4541 5.91407 13.4393 5.91994 13.4256C5.92582 13.4118 5.93442 13.3994 5.94524 13.3891C5.9866 13.3613 6.05702 13.3891 6.09614 13.4457C6.13526 13.5024 6.13638 13.578 6.09614 13.6069V13.6069Z" fill="#191717"/>
<path d="M6.45716 13.9802C6.42027 14.0213 6.34538 14.0102 6.28391 13.9546C6.22243 13.8991 6.2079 13.8235 6.24478 13.7835C6.28167 13.7435 6.35656 13.7546 6.42027 13.8091C6.48398 13.8635 6.49628 13.9402 6.45716 13.9802V13.9802Z" fill="#191717"/>
<path d="M6.96347 14.1981C6.94671 14.2503 6.8707 14.2737 6.79469 14.2514C6.71869 14.2292 6.66839 14.167 6.68292 14.1136C6.69745 14.0603 6.77458 14.0358 6.8517 14.0603C6.92882 14.0847 6.978 14.1436 6.96347 14.1981Z" fill="#191717"/>
<path d="M7.51566 14.2359C7.51566 14.2903 7.45307 14.337 7.37259 14.3381C7.29211 14.3392 7.22617 14.2948 7.22617 14.2403C7.22617 14.1859 7.28876 14.1392 7.36923 14.1381C7.44971 14.137 7.51566 14.1803 7.51566 14.2359Z" fill="#191717"/>
<path d="M8.02982 14.1502C8.03988 14.2047 7.98399 14.2613 7.90351 14.2747C7.82303 14.288 7.75262 14.2558 7.74256 14.2024C7.7325 14.1491 7.79062 14.0913 7.86886 14.0769C7.9471 14.0624 8.01976 14.0958 8.02982 14.1502Z" fill="#191717"/>
</g>
<defs>
<clipPath id="clip0_1192_467">
<rect width="13.5" height="13.4986" fill="white" transform="translate(3 3.00085)"/>
</clipPath>
</defs>
</svg>
