<svg width="56" height="72" viewBox="0 0 56 72" fill="none" xmlns="http://www.w3.org/2000/svg">
<rect width="56" height="72" fill="white"/>
<g clip-path="url(#clip0_911_296)">
<path fill-rule="evenodd" clip-rule="evenodd" d="M28.0004 20.6667C24.202 20.6687 20.5282 22.014 17.6358 24.4621C14.7435 26.9101 12.8212 30.3014 12.2127 34.0294C11.6042 37.7573 12.3492 41.579 14.3145 44.8109C16.2798 48.0429 19.3371 50.4744 22.9399 51.6706C23.7347 51.8182 24.0341 51.3255 24.0341 50.9067C24.0341 50.4878 24.0182 49.2734 24.0129 47.9456C19.5619 48.9072 18.6213 46.0673 18.6213 46.0673C17.8954 44.2233 16.8462 43.7385 16.8462 43.7385C15.3943 42.7533 16.9548 42.7717 16.9548 42.7717C18.563 42.885 19.4082 44.4129 19.4082 44.4129C20.8336 46.8445 23.1519 46.1411 24.0633 45.7301C24.2063 44.7001 24.6223 43.9994 25.0807 43.6016C21.5251 43.2011 17.7894 41.8365 17.7894 35.7406C17.7673 34.1596 18.3574 32.6308 19.4373 31.4703C19.2731 31.0698 18.7246 29.4523 19.5937 27.2553C19.5937 27.2553 20.9369 26.8285 23.9944 28.8859C26.6169 28.1729 29.3838 28.1729 32.0063 28.8859C35.0611 26.8285 36.4017 27.2553 36.4017 27.2553C37.2734 29.4471 36.725 31.0646 36.5607 31.4703C37.6441 32.6309 38.2354 34.1625 38.2113 35.7459C38.2113 41.855 34.4676 43.2011 30.9068 43.5937C31.4791 44.0889 31.9904 45.0557 31.9904 46.5415C31.9904 48.6701 31.9719 50.3824 31.9719 50.9067C31.9719 51.3308 32.2606 51.8261 33.0714 51.6706C36.6746 50.4742 39.7323 48.0423 41.6975 44.8098C43.6627 41.5773 44.4073 37.7551 43.7981 34.0268C43.189 30.2984 41.2657 26.9072 38.3724 24.4595C35.4791 22.0118 31.8045 20.6674 28.0056 20.6667H28.0004Z" fill="#191717"/>
<path d="M18.0592 43.5093C18.0248 43.5884 17.8976 43.6121 17.7943 43.5568C17.691 43.5014 17.6141 43.3987 17.6512 43.317C17.6883 43.2354 17.8129 43.2143 17.9162 43.2696C18.0195 43.3249 18.099 43.4303 18.0592 43.5093Z" fill="#191717"/>
<path d="M18.7084 44.2285C18.6535 44.256 18.5907 44.2637 18.5308 44.2502C18.4709 44.2368 18.4175 44.203 18.3799 44.1548C18.2765 44.0441 18.2553 43.8913 18.3348 43.8228C18.4143 43.7544 18.5574 43.786 18.6607 43.8966C18.764 44.0073 18.7879 44.16 18.7084 44.2285Z" fill="#191717"/>
<path d="M19.339 45.1426C19.241 45.2111 19.074 45.1426 18.9813 45.0057C18.9557 44.9811 18.9353 44.9516 18.9213 44.919C18.9074 44.8864 18.9002 44.8514 18.9002 44.816C18.9002 44.7806 18.9074 44.7455 18.9213 44.7129C18.9353 44.6803 18.9557 44.6509 18.9813 44.6263C19.0793 44.5605 19.2463 44.6263 19.339 44.7607C19.4317 44.895 19.4344 45.0742 19.339 45.1426V45.1426Z" fill="#191717"/>
<path d="M20.1947 46.0278C20.1073 46.1253 19.9298 46.0989 19.7841 45.9672C19.6384 45.8355 19.6039 45.6564 19.6913 45.5615C19.7788 45.4667 19.9563 45.493 20.1073 45.6221C20.2583 45.7512 20.2875 45.933 20.1947 46.0278V46.0278Z" fill="#191717"/>
<path d="M21.3949 46.5441C21.3552 46.668 21.175 46.7233 20.9948 46.6706C20.8147 46.6179 20.6954 46.4704 20.7299 46.3439C20.7643 46.2175 20.9471 46.1595 21.13 46.2175C21.3128 46.2754 21.4293 46.4151 21.3949 46.5441Z" fill="#191717"/>
<path d="M22.7038 46.6337C22.7038 46.7628 22.5554 46.8734 22.3647 46.876C22.1739 46.8787 22.0176 46.7733 22.0176 46.6442C22.0176 46.5151 22.1659 46.4045 22.3567 46.4018C22.5475 46.3992 22.7038 46.502 22.7038 46.6337Z" fill="#191717"/>
<path d="M23.9225 46.4308C23.9464 46.5599 23.8139 46.6943 23.6231 46.7259C23.4324 46.7575 23.2655 46.6811 23.2416 46.5546C23.2178 46.4282 23.3555 46.2912 23.541 46.257C23.7265 46.2227 23.8987 46.3017 23.9225 46.4308Z" fill="#191717"/>
</g>
<defs>
<clipPath id="clip0_911_296">
<rect width="32" height="32" fill="white" transform="translate(12 20)"/>
</clipPath>
</defs>
</svg>
