<svg width="56" height="72" viewBox="0 0 56 72" fill="none" xmlns="http://www.w3.org/2000/svg">
<rect width="56" height="72" fill="white"/>
<g clip-path="url(#clip0_911_277)">
<path fill-rule="evenodd" clip-rule="evenodd" d="M28.0004 20.6667C24.202 20.6687 20.5282 22.014 17.6358 24.4621C14.7435 26.9101 12.8212 30.3014 12.2127 34.0294C11.6042 37.7573 12.3492 41.579 14.3145 44.8109C16.2797 48.0429 19.3371 50.4744 22.9399 51.6706C23.7347 51.8182 24.0341 51.3255 24.0341 50.9067C24.0341 50.4878 24.0182 49.2734 24.0129 47.9456C19.5619 48.9072 18.6213 46.0673 18.6213 46.0673C17.8954 44.2233 16.8462 43.7385 16.8462 43.7385C15.3943 42.7533 16.9548 42.7717 16.9548 42.7717C18.563 42.885 19.4082 44.4129 19.4082 44.4129C20.8336 46.8445 23.1519 46.1411 24.0633 45.7301C24.2063 44.7001 24.6223 43.9994 25.0807 43.6016C21.5251 43.2011 17.7894 41.8365 17.7894 35.7406C17.7673 34.1596 18.3574 32.6308 19.4373 31.4703C19.2731 31.0698 18.7246 29.4523 19.5937 27.2553C19.5937 27.2553 20.9369 26.8285 23.9944 28.8859C26.6169 28.1729 29.3838 28.1729 32.0063 28.8859C35.0611 26.8285 36.4017 27.2553 36.4017 27.2553C37.2734 29.4471 36.725 31.0646 36.5607 31.4703C37.6441 32.6309 38.2354 34.1625 38.2113 35.7459C38.2113 41.855 34.4676 43.2011 30.9068 43.5937C31.4791 44.0889 31.9904 45.0557 31.9904 46.5415C31.9904 48.6701 31.9719 50.3824 31.9719 50.9067C31.9719 51.3308 32.2606 51.8261 33.0714 51.6706C36.6746 50.4742 39.7323 48.0423 41.6975 44.8098C43.6627 41.5773 44.4073 37.7551 43.7981 34.0268C43.189 30.2984 41.2657 26.9072 38.3724 24.4595C35.4791 22.0118 31.8045 20.6674 28.0056 20.6667H28.0004Z" fill="#191717"/>
<path d="M18.0592 43.5093C18.0248 43.5884 17.8976 43.6121 17.7943 43.5568C17.691 43.5014 17.6141 43.3987 17.6512 43.317C17.6883 43.2354 17.8129 43.2143 17.9162 43.2696C18.0195 43.3249 18.099 43.4303 18.0592 43.5093Z" fill="#191717"/>
<path d="M18.7084 44.2285C18.6535 44.256 18.5907 44.2637 18.5308 44.2502C18.4709 44.2368 18.4175 44.203 18.3799 44.1548C18.2765 44.0441 18.2553 43.8913 18.3348 43.8228C18.4143 43.7544 18.5574 43.786 18.6607 43.8966C18.764 44.0073 18.7879 44.16 18.7084 44.2285Z" fill="#191717"/>
<path d="M19.339 45.1426C19.241 45.2111 19.074 45.1426 18.9813 45.0057C18.9557 44.9811 18.9353 44.9516 18.9213 44.919C18.9074 44.8864 18.9002 44.8514 18.9002 44.816C18.9002 44.7806 18.9074 44.7455 18.9213 44.7129C18.9353 44.6803 18.9557 44.6509 18.9813 44.6263C19.0793 44.5605 19.2463 44.6263 19.339 44.7607C19.4317 44.895 19.4344 45.0742 19.339 45.1426V45.1426Z" fill="#191717"/>
<path d="M20.1947 46.0278C20.1073 46.1253 19.9298 46.0989 19.7841 45.9672C19.6384 45.8355 19.6039 45.6564 19.6913 45.5615C19.7788 45.4667 19.9563 45.493 20.1073 45.6221C20.2583 45.7512 20.2875 45.933 20.1947 46.0278V46.0278Z" fill="#191717"/>
<path d="M21.3949 46.5441C21.3552 46.668 21.175 46.7233 20.9948 46.6706C20.8147 46.6179 20.6954 46.4704 20.7299 46.3439C20.7643 46.2175 20.9471 46.1595 21.13 46.2175C21.3128 46.2754 21.4293 46.4151 21.3949 46.5441Z" fill="#191717"/>
<path d="M22.7038 46.6337C22.7038 46.7628 22.5554 46.8734 22.3647 46.876C22.1739 46.8787 22.0176 46.7733 22.0176 46.6442C22.0176 46.5151 22.1659 46.4045 22.3567 46.4018C22.5475 46.3992 22.7038 46.502 22.7038 46.6337Z" fill="#191717"/>
<path d="M23.9225 46.4308C23.9464 46.5599 23.8139 46.6943 23.6231 46.7259C23.4324 46.7575 23.2655 46.6811 23.2416 46.5546C23.2178 46.4282 23.3555 46.2912 23.541 46.257C23.7265 46.2227 23.8987 46.3017 23.9225 46.4308Z" fill="#191717"/>
</g>
<path d="M10.8519 70.11C10.1479 70.11 9.51728 69.956 8.95995 69.648C8.40995 69.34 7.97728 68.922 7.66195 68.394C7.34661 67.8587 7.18895 67.25 7.18895 66.568C7.18895 66.0033 7.28795 65.4827 7.48595 65.006C7.68395 64.5293 7.95528 64.115 8.29995 63.763C8.65195 63.4037 9.05528 63.125 9.50995 62.927C9.96461 62.729 10.4523 62.63 10.9729 62.63C11.3543 62.63 11.6806 62.6557 11.9519 62.707C12.2233 62.751 12.4653 62.8133 12.6779 62.894C12.8906 62.9747 13.1033 63.0663 13.3159 63.169L13.3709 64.874H13.1399L12.6999 63.609C12.3919 63.3817 12.0986 63.2203 11.8199 63.125C11.5486 63.0223 11.2443 62.971 10.9069 62.971C10.2763 62.971 9.72628 63.1177 9.25695 63.411C8.78761 63.7043 8.42461 64.093 8.16795 64.577C7.91861 65.0537 7.79395 65.5707 7.79395 66.128C7.79395 66.8613 7.93695 67.4957 8.22295 68.031C8.51628 68.559 8.90128 68.966 9.37795 69.252C9.86195 69.538 10.3899 69.681 10.9619 69.681C11.2333 69.681 11.4973 69.6663 11.7539 69.637C12.0179 69.6003 12.2893 69.5233 12.5679 69.406V67.305L11.6109 67.085V66.81H14.0859V67.085L13.2279 67.272V69.296C12.9273 69.5453 12.5606 69.7433 12.1279 69.89C11.6953 70.0367 11.2699 70.11 10.8519 70.11ZM15.4067 70V69.725L16.2647 69.538V63.202L15.4067 63.015V62.74H17.7827V63.015L16.9247 63.202V69.538L17.7827 69.725V70H15.4067ZM20.7796 70V69.725L21.8796 69.538V63.125H19.7346L19.2726 64.742H19.0526V62.74H25.3666V64.742H25.1466L24.6846 63.125H22.5396V69.538L23.6396 69.725V70H20.7796ZM26.5773 70V69.725L27.4353 69.538V63.202L26.5773 63.015V62.74H29.0413V63.015L28.0953 63.202V66.062H32.2533V63.202L31.3073 63.015V62.74H33.7713V63.015L32.9133 63.202V69.538L33.7713 69.725V70H31.3073V69.725L32.2533 69.538V66.447H28.0953V69.538L29.0413 69.725V70H26.5773ZM38.7783 70.11C38.2649 70.11 37.8029 70.0183 37.3923 69.835C36.9889 69.6443 36.6699 69.351 36.4353 68.955C36.2006 68.5517 36.0833 68.0273 36.0833 67.382V63.202L35.2033 63.015V62.74H37.6233V63.015L36.7433 63.202V67.228C36.7433 67.844 36.8313 68.328 37.0073 68.68C37.1906 69.032 37.4509 69.2813 37.7883 69.428C38.1256 69.5747 38.5216 69.648 38.9763 69.648C39.3576 69.648 39.7059 69.5747 40.0213 69.428C40.3366 69.274 40.5859 69.0393 40.7693 68.724C40.9526 68.4013 41.0443 67.9943 41.0443 67.503V63.18L39.9443 63.015V62.74H42.3423V63.015L41.4733 63.191V67.382C41.4733 68.0273 41.3559 68.5517 41.1213 68.955C40.8866 69.351 40.5639 69.6443 40.1533 69.835C39.7499 70.0183 39.2916 70.11 38.7783 70.11ZM43.7755 70V69.725L44.6335 69.538V63.202L43.7755 63.015V62.74H45.7665C46.2432 62.74 46.6795 62.8023 47.0755 62.927C47.4715 63.0443 47.7869 63.224 48.0215 63.466C48.2562 63.7007 48.3735 64.0013 48.3735 64.368C48.3735 64.764 48.2452 65.127 47.9885 65.457C47.7319 65.787 47.3615 66.018 46.8775 66.15C47.5522 66.238 48.0765 66.436 48.4505 66.744C48.8245 67.0447 49.0115 67.426 49.0115 67.888C49.0115 68.2913 48.8869 68.6543 48.6375 68.977C48.3882 69.2923 48.0472 69.5417 47.6145 69.725C47.1892 69.9083 46.7015 70 46.1515 70H43.7755ZM45.8545 63.136H45.2935V66.062H45.9205C46.4412 66.062 46.8665 65.9373 47.1965 65.688C47.5265 65.4313 47.6915 65.0757 47.6915 64.621C47.6915 64.1297 47.5302 63.7593 47.2075 63.51C46.8849 63.2607 46.4339 63.136 45.8545 63.136ZM46.2725 66.447H45.2935V69.626H46.3495C46.7382 69.626 47.0792 69.56 47.3725 69.428C47.6659 69.2887 47.8969 69.1017 48.0655 68.867C48.2342 68.625 48.3185 68.35 48.3185 68.042C48.3185 67.492 48.1315 67.0887 47.7575 66.832C47.3909 66.5753 46.8959 66.447 46.2725 66.447Z" fill="black"/>
<defs>
<clipPath id="clip0_911_277">
<rect width="32" height="32" fill="white" transform="translate(12 20)"/>
</clipPath>
</defs>
</svg>
