<svg width="40" height="40" viewBox="0 0 40 40" fill="none" xmlns="http://www.w3.org/2000/svg">
<path d="M9.16669 1.66663C7.78598 1.66663 6.66669 2.78591 6.66669 4.16663V35.8333C6.66669 37.214 7.78597 38.3333 9.16669 38.3333H30.8334C32.2141 38.3333 33.3334 37.214 33.3334 35.8333V11.6666L23.3334 1.66663H9.16669Z" fill="#4E8DF5"/>
<path d="M9.16669 38.3333C7.78598 38.3333 6.66669 37.214 6.66669 35.8333V35.4166C6.66669 36.7973 7.78598 37.9166 9.16669 37.9166H30.8334C32.2141 37.9166 33.3334 36.7973 33.3334 35.4166V35.8333C33.3334 37.214 32.2141 38.3333 30.8334 38.3333H9.16669Z" fill="#417EE9"/>
<path d="M9.16669 1.66663C7.78598 1.66663 6.66669 2.78591 6.66669 4.16663V4.58329C6.66669 3.20258 7.78597 2.08329 9.16669 2.08329H23.75L23.3334 1.66663H9.16669Z" fill="#639AF6"/>
<path d="M33.3333 20.2084V11.6667L31.875 10.2084H24.8422C24.2854 10.2084 24.0065 10.8816 24.4003 11.2753L33.3333 20.2084Z" fill="url(#paint0_linear_304_137)"/>
<path d="M23.3333 1.66663L33.3333 11.6666H25.8333C24.4526 11.6666 23.3333 10.5473 23.3333 9.16663V1.66663Z" fill="#A6C5FA"/>
<path d="M26.6666 20H13.3333V21.6667H26.6666V20Z" fill="white"/>
<path d="M26.6666 23.3333H13.3333V25H26.6666V23.3333Z" fill="white"/>
<path d="M13.3333 26.6667H26.6666V28.3333H13.3333V26.6667Z" fill="white"/>
<path d="M23.3333 30H13.3333V31.6667H23.3333V30Z" fill="white"/>
<defs>
<linearGradient id="paint0_linear_304_137" x1="28.3333" y1="20.2084" x2="28.3333" y2="10" gradientUnits="userSpaceOnUse">
<stop stop-color="#4E8DF5"/>
<stop offset="1" stop-color="#3D6ACD"/>
</linearGradient>
</defs>
</svg>
