<svg width="43" height="40" viewBox="0 0 43 40" fill="none" xmlns="http://www.w3.org/2000/svg">
<path d="M12.1667 1.66669C10.786 1.66669 9.66669 2.78598 9.66669 4.16669V35.8334C9.66669 37.2141 10.786 38.3334 12.1667 38.3334H33.8334C35.2141 38.3334 36.3334 37.2141 36.3334 35.8334V11.6667L26.3334 1.66669H12.1667Z" fill="#4E8DF5"/>
<path d="M12.1667 38.3334C10.786 38.3334 9.66669 37.2141 9.66669 35.8334V35.4167C9.66669 36.7974 10.786 37.9167 12.1667 37.9167H33.8334C35.2141 37.9167 36.3334 36.7974 36.3334 35.4167V35.8334C36.3334 37.2141 35.2141 38.3334 33.8334 38.3334H12.1667Z" fill="#417EE9"/>
<path d="M12.1667 1.66669C10.786 1.66669 9.66669 2.78598 9.66669 4.16669V4.58335C9.66669 3.20264 10.786 2.08335 12.1667 2.08335H26.75L26.3334 1.66669H12.1667Z" fill="#639AF6"/>
<path d="M36.3333 20.2083V11.6666L34.875 10.2083H27.8422C27.2854 10.2083 27.0065 10.8815 27.4003 11.2753L36.3333 20.2083Z" fill="url(#paint0_linear_818_179)"/>
<path d="M26.3333 1.66669L36.3333 11.6667H28.8333C27.4526 11.6667 26.3333 10.5474 26.3333 9.16669V1.66669Z" fill="#A6C5FA"/>
<path d="M29.6666 20H16.3333V21.6667H29.6666V20Z" fill="white"/>
<path d="M29.6666 23.3333H16.3333V25H29.6666V23.3333Z" fill="white"/>
<path d="M16.3333 26.6667H29.6666V28.3333H16.3333V26.6667Z" fill="white"/>
<path d="M26.3333 30H16.3333V31.6667H26.3333V30Z" fill="white"/>
<path d="M6 35.0034H5.8L5.664 34.3634H1.056L0.92 35.0034H0.72L0.72 33.4034C0.72 32.7741 0.834666 32.2701 1.064 31.8914C1.29333 31.5074 1.656 31.3154 2.152 31.3154C2.44533 31.3154 2.70667 31.4088 2.936 31.5954C3.16 31.7768 3.33867 32.0328 3.472 32.3634C3.60533 32.6888 3.672 33.0701 3.672 33.5074V33.8834H5.664L5.8 33.1634H6V35.0034ZM1 33.8834H3.392V33.2834C3.392 33.0061 3.344 32.7608 3.248 32.5474C3.14667 32.3288 3.008 32.1581 2.832 32.0354C2.65067 31.9128 2.44533 31.8514 2.216 31.8514C1.78933 31.8514 1.48 31.9874 1.288 32.2594C1.096 32.5261 1 32.8861 1 33.3394V33.8834ZM6.08 27.8344C6.08 28.3144 5.96267 28.7438 5.728 29.1224C5.49333 29.4958 5.17067 29.7918 4.76 30.0104C4.34933 30.2291 3.88267 30.3384 3.36 30.3384C2.83733 30.3384 2.37067 30.2291 1.96 30.0104C1.54933 29.7918 1.22667 29.4958 0.992 29.1224C0.757333 28.7438 0.64 28.3144 0.64 27.8344C0.64 27.3491 0.757333 26.9198 0.992 26.5464C1.22667 26.1678 1.54933 25.8691 1.96 25.6504C2.37067 25.4318 2.83733 25.3224 3.36 25.3224C3.88267 25.3224 4.34933 25.4318 4.76 25.6504C5.17067 25.8691 5.49333 26.1678 5.728 26.5464C5.96267 26.9198 6.08 27.3491 6.08 27.8344ZM5.84 27.6664C5.84 27.3038 5.74933 26.9838 5.568 26.7064C5.38133 26.4238 5.12267 26.2051 4.792 26.0504C4.456 25.8958 4.06133 25.8184 3.608 25.8184C3.05867 25.8184 2.57867 25.9144 2.168 26.1064C1.75733 26.2984 1.44 26.5571 1.216 26.8824C0.986666 27.2078 0.872 27.5704 0.872 27.9704C0.872 28.3331 0.962666 28.6558 1.144 28.9384C1.32533 29.2211 1.584 29.4424 1.92 29.6024C2.25067 29.7624 2.64267 29.8424 3.096 29.8424C3.64533 29.8424 4.128 29.7464 4.544 29.5544C4.95467 29.3571 5.27467 29.0958 5.504 28.7704C5.728 28.4398 5.84 28.0718 5.84 27.6664ZM6 24.2456H5.8L5.664 23.6216H1.056L0.92 24.2456H0.72L0.72 20.6616H2.016V20.8216L1 21.1576L1 23.1416H3.136V21.6856L2.472 21.4856L2.472 21.3256H4.064V21.4856L3.416 21.6856V23.1416H5.72L5.72 20.9336L4.624 20.5976V20.4376H6V24.2456ZM6 18.259H5.8L5.664 17.459H1V19.019L2.176 19.355V19.515H0.72L0.72 14.923H2.176V15.083L1 15.419L1 16.979H5.664L5.8 16.179H6L6 18.259ZM6 14.0425H5.8L5.664 13.4025H1.056L0.92 14.0425H0.72L0.72 12.4585C0.72 11.8985 0.837333 11.4585 1.072 11.1385C1.30133 10.8132 1.61867 10.6505 2.024 10.6505C2.344 10.6505 2.616 10.7545 2.84 10.9625C3.064 11.1652 3.22933 11.4345 3.336 11.7705L5.696 10.2265L5.8 9.6985H6V10.6265L3.496 12.2265V12.9225H5.656L5.8 12.3225H6V14.0425ZM1 12.4025V12.9225H3.216V12.3545C3.216 12.0185 3.11467 11.7412 2.912 11.5225C2.704 11.2985 2.44267 11.1865 2.128 11.1865C1.78133 11.1865 1.50667 11.2958 1.304 11.5145C1.10133 11.7332 1 12.0292 1 12.4025ZM6 8.16037H5.8L5.664 7.44037H3.496L1.056 9.17637L0.92 9.70437H0.72L0.72 8.04037H0.92L1.032 8.57637H1.064L3.24 7.05637L1.064 5.67237H1.032L0.92 6.24837H0.72L0.72 4.76037H0.92L1.008 5.25637L3.52 6.96037H5.664L5.8 6.24037H6V8.16037Z" fill="black"/>
<defs>
<linearGradient id="paint0_linear_818_179" x1="31.3333" y1="20.2083" x2="31.3333" y2="9.99998" gradientUnits="userSpaceOnUse">
<stop stop-color="#4E8DF5"/>
<stop offset="1" stop-color="#3D6ACD"/>
</linearGradient>
</defs>
</svg>
