<svg width="32" height="32" viewBox="0 0 32 32" fill="none" xmlns="http://www.w3.org/2000/svg">
<path d="M7.33331 1.33337C6.22874 1.33337 5.33331 2.2288 5.33331 3.33337V28.6667C5.33331 29.7713 6.22874 30.6667 7.33331 30.6667H24.6666C25.7712 30.6667 26.6666 29.7713 26.6666 28.6667V9.33337L18.6666 1.33337H7.33331Z" fill="#4E8DF5"/>
<path d="M7.33331 30.6667C6.22874 30.6667 5.33331 29.7713 5.33331 28.6667V28.3334C5.33331 29.4379 6.22874 30.3334 7.33331 30.3334H24.6666C25.7712 30.3334 26.6666 29.4379 26.6666 28.3334V28.6667C26.6666 29.7713 25.7712 30.6667 24.6666 30.6667H7.33331Z" fill="#417EE9"/>
<path d="M7.33331 1.33337C6.22874 1.33337 5.33331 2.2288 5.33331 3.33337V3.66671C5.33331 2.56214 6.22874 1.66671 7.33331 1.66671H19L18.6666 1.33337H7.33331Z" fill="#639AF6"/>
<path d="M26.6666 16.1666V9.33329L25.5 8.16663H19.8737C19.4283 8.16663 19.2052 8.7052 19.5202 9.02018L26.6666 16.1666Z" fill="url(#paint0_linear_304_137)"/>
<path d="M18.6667 1.33337L26.6667 9.33337H20.6667C19.5621 9.33337 18.6667 8.43794 18.6667 7.33337V1.33337Z" fill="#A6C5FA"/>
<path d="M21.3334 16H10.6667V17.3333H21.3334V16Z" fill="white"/>
<path d="M21.3334 18.6667H10.6667V20H21.3334V18.6667Z" fill="white"/>
<path d="M10.6667 21.3333H21.3334V22.6667H10.6667V21.3333Z" fill="white"/>
<path d="M18.6667 24H10.6667V25.3333H18.6667V24Z" fill="white"/>
<defs>
<linearGradient id="paint0_linear_304_137" x1="22.6666" y1="16.1666" x2="22.6666" y2="7.99996" gradientUnits="userSpaceOnUse">
<stop stop-color="#4E8DF5"/>
<stop offset="1" stop-color="#3D6ACD"/>
</linearGradient>
</defs>
</svg>
