<svg width="57" height="57" viewBox="0 0 57 57" fill="none" xmlns="http://www.w3.org/2000/svg">
<ellipse cx="28.3182" cy="28.32" rx="28.3182" ry="28.32" fill="#424242"/>
<path d="M12 28C12 36.832 19.168 44 28 44C36.832 44 44 36.832 44 28C44 19.168 36.832 12 28 12C19.168 12 12 19.168 12 28ZM40.8 28C40.8 35.072 35.072 40.8 28 40.8C20.928 40.8 15.2 35.072 15.2 28C15.2 20.928 20.928 15.2 28 15.2C35.072 15.2 40.8 20.928 40.8 28ZM21.6 28L28 21.6L30.256 23.856L27.728 26.4H34.4V29.6H27.728L30.272 32.144L28 34.4L21.6 28Z" fill="#FAFAFA"/>
</svg>
