<svg width="57" height="57" viewBox="0 0 57 57" fill="none" xmlns="http://www.w3.org/2000/svg">
<ellipse cx="28.3182" cy="28.32" rx="28.3182" ry="28.32" fill="#424242"/>
<path d="M12 28.665C12 37.8641 19.4659 45.33 28.665 45.33C37.8641 45.33 45.33 37.8641 45.33 28.665C45.33 19.4659 37.8641 12 28.665 12C19.4659 12 12 19.4659 12 28.665ZM41.997 28.665C41.997 36.0309 36.0309 41.997 28.665 41.997C21.2991 41.997 15.333 36.0309 15.333 28.665C15.333 21.2991 21.2991 15.333 28.665 15.333C36.0309 15.333 41.997 21.2991 41.997 28.665ZM21.999 28.665L28.665 21.999L31.0148 24.3488L28.3817 26.9985H35.331V30.3315H28.3817L31.0314 32.9812L28.665 35.331L21.999 28.665Z" fill="#FAFAFA"/>
</svg>
