<svg width="56" height="56" viewBox="0 0 56 56" fill="none" xmlns="http://www.w3.org/2000/svg">
<circle cx="28" cy="28" r="28" fill="black" fill-opacity="0.4"/>
<g clip-path="url(#clip0_1521_332)">
<path d="M28.5001 13.9165C20.4355 13.9165 13.9167 20.4353 13.9167 28.4998C13.9167 36.5644 20.4355 43.0832 28.5001 43.0832C36.5647 43.0832 43.0834 36.5644 43.0834 28.4998C43.0834 20.4353 36.5647 13.9165 28.5001 13.9165ZM28.5001 40.1665C22.0542 40.1665 16.8334 34.9457 16.8334 28.4998C16.8334 22.054 22.0542 16.8332 28.5001 16.8332C34.9459 16.8332 40.1667 22.054 40.1667 28.4998C40.1667 34.9457 34.9459 40.1665 28.5001 40.1665Z" fill="#FAFAFA" fill-opacity="0.88"/>
</g>
<defs>
<clipPath id="clip0_1521_332">
<rect width="35" height="35" fill="white" transform="translate(11 11)"/>
</clipPath>
</defs>
</svg>
