<svg width="40" height="40" viewBox="0 0 40 40" fill="none" xmlns="http://www.w3.org/2000/svg">
<g clip-path="url(#clip0_1501_324)">
<path d="M24.3166 13.3333L19.9999 17.6499L15.6833 13.3333L13.3333 15.6833L17.6499 19.9999L13.3333 24.3166L15.6833 26.6666L19.9999 22.3499L24.3166 26.6666L26.6666 24.3166L22.3499 19.9999L26.6666 15.6833L24.3166 13.3333ZM19.9999 3.33325C10.7833 3.33325 3.33325 10.7833 3.33325 19.9999C3.33325 29.2166 10.7833 36.6666 19.9999 36.6666C29.2166 36.6666 36.6666 29.2166 36.6666 19.9999C36.6666 10.7833 29.2166 3.33325 19.9999 3.33325ZM19.9999 33.3333C12.6499 33.3333 6.66659 27.3499 6.66659 19.9999C6.66659 12.6499 12.6499 6.66659 19.9999 6.66659C27.3499 6.66659 33.3333 12.6499 33.3333 19.9999C33.3333 27.3499 27.3499 33.3333 19.9999 33.3333Z" fill="#424242"/>
</g>
<defs>
<clipPath id="clip0_1501_324">
<rect width="40" height="40" fill="white"/>
</clipPath>
</defs>
</svg>
