<svg width="779" height="318" viewBox="0 0 779 318" fill="none" xmlns="http://www.w3.org/2000/svg">
<path d="M45.0681 184.784C44.2641 184.784 43.5801 184.616 43.0161 184.28C42.4521 183.944 42.0201 183.482 41.7201 182.894C41.4201 182.294 41.2701 181.604 41.2701 180.824C41.2701 179.96 41.4441 179.192 41.7921 178.52C42.1521 177.836 42.6381 177.302 43.2501 176.918C43.8741 176.522 44.5761 176.324 45.3561 176.324C45.8361 176.324 46.2861 176.402 46.7061 176.558C47.1381 176.702 47.4681 176.882 47.6961 177.098C47.8281 177.23 47.9241 177.344 47.9841 177.44C48.0561 177.536 48.0921 177.626 48.0921 177.71C48.0921 177.842 48.0321 177.956 47.9121 178.052L47.3001 178.556H47.1921L46.7421 177.944C46.5261 177.656 46.2741 177.422 45.9861 177.242C45.6981 177.05 45.3441 176.954 44.9241 176.954C44.1921 176.954 43.5981 177.242 43.1421 177.818C42.6981 178.382 42.4761 179.192 42.4761 180.248C42.4761 180.872 42.5841 181.448 42.8001 181.976C43.0161 182.492 43.3521 182.906 43.8081 183.218C44.2761 183.518 44.8821 183.668 45.6261 183.668C46.5141 183.668 47.3301 183.404 48.0741 182.876H48.1281V183.074C47.8521 183.554 47.4501 183.962 46.9221 184.298C46.3941 184.622 45.7761 184.784 45.0681 184.784ZM53.6827 184.784C52.9147 184.784 52.2427 184.598 51.6667 184.226C51.0907 183.854 50.6407 183.35 50.3167 182.714C49.9927 182.078 49.8307 181.358 49.8307 180.554C49.8307 179.75 49.9927 179.03 50.3167 178.394C50.6407 177.758 51.0907 177.254 51.6667 176.882C52.2427 176.51 52.9147 176.324 53.6827 176.324C54.4507 176.324 55.1227 176.51 55.6987 176.882C56.2747 177.254 56.7247 177.758 57.0487 178.394C57.3727 179.03 57.5347 179.75 57.5347 180.554C57.5347 181.358 57.3727 182.078 57.0487 182.714C56.7247 183.35 56.2747 183.854 55.6987 184.226C55.1227 184.598 54.4507 184.784 53.6827 184.784ZM53.9347 184.154C54.4387 184.154 54.8587 183.998 55.1947 183.686C55.5307 183.374 55.7827 182.972 55.9507 182.48C56.1187 181.976 56.2027 181.454 56.2027 180.914C56.2027 180.23 56.1007 179.588 55.8967 178.988C55.7047 178.376 55.4047 177.884 54.9967 177.512C54.6007 177.128 54.0907 176.936 53.4667 176.936C52.9627 176.936 52.5367 177.086 52.1887 177.386C51.8527 177.686 51.5947 178.082 51.4147 178.574C51.2467 179.066 51.1627 179.6 51.1627 180.176C51.1627 180.872 51.2647 181.526 51.4687 182.138C51.6727 182.738 51.9787 183.224 52.3867 183.596C52.7947 183.968 53.3107 184.154 53.9347 184.154ZM59.3404 184.604V184.316L60.4744 183.866V177.89L59.2864 177.278V177.08L61.4104 176.324H61.5364L61.6624 177.638H61.7524C62.1844 177.194 62.5924 176.864 62.9764 176.648C63.3724 176.432 63.8104 176.324 64.2904 176.324C64.8304 176.324 65.2984 176.444 65.6944 176.684C66.1024 176.924 66.3784 177.284 66.5224 177.764H66.5764C67.0564 177.272 67.5004 176.912 67.9084 176.684C68.3284 176.444 68.7904 176.324 69.2944 176.324C69.9904 176.324 70.5604 176.516 71.0044 176.9C71.4604 177.284 71.6884 177.842 71.6884 178.574V183.866L72.8224 184.316V184.604H69.1864V184.316L70.4644 183.866V179.276C70.4644 178.664 70.2904 178.202 69.9424 177.89C69.6064 177.566 69.1744 177.404 68.6464 177.404C68.2744 177.404 67.9024 177.476 67.5304 177.62C67.1704 177.752 66.8704 177.95 66.6304 178.214C66.6424 178.322 66.6484 178.442 66.6484 178.574V183.866L67.8544 184.316V184.604H64.2004V184.316L65.4424 183.866V179.276C65.4424 178.664 65.2744 178.202 64.9384 177.89C64.6024 177.566 64.1704 177.404 63.6424 177.404C63.3304 177.404 62.9824 177.476 62.5984 177.62C62.2264 177.752 61.9204 177.944 61.6804 178.196V183.866L62.9044 184.316V184.604H59.3404ZM74.4057 188.744V188.456L75.5397 188.006V177.89L74.3697 177.278V177.08L76.4757 176.324H76.6197L76.7277 177.422H76.8357C77.2917 177.038 77.7297 176.762 78.1497 176.594C78.5817 176.414 79.0437 176.324 79.5357 176.324C80.1357 176.324 80.6697 176.48 81.1377 176.792C81.6057 177.104 81.9717 177.548 82.2357 178.124C82.5117 178.688 82.6497 179.366 82.6497 180.158C82.6497 181.142 82.4637 181.982 82.0917 182.678C81.7197 183.362 81.2217 183.884 80.5977 184.244C79.9737 184.604 79.2837 184.784 78.5277 184.784C78.2037 184.784 77.8917 184.754 77.5917 184.694C77.3037 184.646 77.0277 184.58 76.7637 184.496V188.006L78.0417 188.456V188.744H74.4057ZM78.7437 177.314C78.0237 177.314 77.3637 177.542 76.7637 177.998V183.326C77.1237 183.602 77.4897 183.8 77.8617 183.92C78.2337 184.028 78.6417 184.082 79.0857 184.082C79.5177 184.082 79.9137 183.968 80.2737 183.74C80.6337 183.512 80.9217 183.146 81.1377 182.642C81.3537 182.126 81.4617 181.454 81.4617 180.626C81.4617 179.858 81.3357 179.234 81.0837 178.754C80.8317 178.262 80.4957 177.902 80.0757 177.674C79.6677 177.434 79.2237 177.314 78.7437 177.314ZM87.6468 184.784C86.9388 184.784 86.3508 184.592 85.8828 184.208C85.4268 183.824 85.1988 183.266 85.1988 182.534V177.242L84.0108 176.792V176.504H86.4228V181.832C86.4228 182.444 86.5968 182.912 86.9448 183.236C87.2928 183.548 87.7488 183.704 88.3128 183.704C88.6488 183.704 89.0088 183.638 89.3928 183.506C89.7888 183.374 90.1068 183.176 90.3468 182.912V177.242L88.9968 176.792V176.504H91.5708V183.884L92.8488 184.316V184.604H90.3468V183.488H90.2748C89.8188 183.944 89.3868 184.274 88.9788 184.478C88.5708 184.682 88.1268 184.784 87.6468 184.784ZM97.0402 184.784C96.5242 184.784 96.0862 184.628 95.7262 184.316C95.3782 184.004 95.2042 183.566 95.2042 183.002V177.26H93.6922V177.116L95.2942 176.504L96.2842 174.524H96.4282V176.504H98.8042V177.26H96.4282V182.804C96.4282 183.14 96.5542 183.392 96.8062 183.56C97.0582 183.716 97.3762 183.794 97.7602 183.794C98.0002 183.794 98.2222 183.776 98.4262 183.74C98.6302 183.692 98.8162 183.638 98.9842 183.578L99.0202 183.596V183.722C98.9002 183.962 98.6722 184.202 98.3362 184.442C98.0122 184.67 97.5802 184.784 97.0402 184.784ZM104.272 184.784C103.468 184.784 102.778 184.616 102.202 184.28C101.638 183.944 101.206 183.482 100.906 182.894C100.606 182.294 100.456 181.604 100.456 180.824C100.456 179.96 100.63 179.192 100.978 178.52C101.326 177.836 101.788 177.302 102.364 176.918C102.94 176.522 103.564 176.324 104.236 176.324C105.184 176.324 105.928 176.648 106.468 177.296C107.008 177.944 107.296 178.856 107.332 180.032L107.26 180.104H101.662C101.662 180.152 101.662 180.2 101.662 180.248C101.662 180.872 101.77 181.448 101.986 181.976C102.202 182.492 102.544 182.906 103.012 183.218C103.48 183.518 104.086 183.668 104.83 183.668C105.718 183.668 106.534 183.404 107.278 182.876H107.332V183.074C107.068 183.554 106.666 183.962 106.126 184.298C105.598 184.622 104.98 184.784 104.272 184.784ZM103.966 176.954C103.39 176.954 102.898 177.176 102.49 177.62C102.082 178.052 101.824 178.664 101.716 179.456H106.108C105.868 177.788 105.154 176.954 103.966 176.954ZM109.265 184.604V184.316L110.399 183.866V177.89L109.229 177.278V177.08L111.335 176.324H111.479L111.605 177.89H111.659C112.019 177.422 112.319 177.08 112.559 176.864C112.811 176.636 113.039 176.492 113.243 176.432C113.447 176.36 113.651 176.324 113.855 176.324C113.951 176.324 114.059 176.342 114.179 176.378C114.299 176.402 114.395 176.432 114.467 176.468C114.599 176.516 114.707 176.576 114.791 176.648C114.875 176.72 114.917 176.798 114.917 176.882C114.917 176.918 114.911 176.96 114.899 177.008C114.899 177.056 114.887 177.104 114.863 177.152L114.575 177.872H114.485L113.945 177.638C113.729 177.554 113.489 177.512 113.225 177.512C112.925 177.512 112.643 177.59 112.379 177.746C112.115 177.902 111.863 178.16 111.623 178.52V183.866L112.937 184.316V184.604H109.265ZM54.6137 211.784C54.1097 211.784 53.6657 211.736 53.2817 211.64C52.9097 211.544 52.5317 211.4 52.1477 211.208V209.246H52.3817L52.8317 210.164C52.9877 210.5 53.2097 210.764 53.4977 210.956C53.7977 211.136 54.1817 211.226 54.6497 211.226C55.1777 211.226 55.5797 211.106 55.8557 210.866C56.1437 210.614 56.2877 210.26 56.2877 209.804C56.2877 209.312 56.1257 208.946 55.8017 208.706C55.4777 208.466 54.9977 208.208 54.3617 207.932C53.7017 207.656 53.2037 207.35 52.8677 207.014C52.5317 206.678 52.3637 206.204 52.3637 205.592C52.3637 205.184 52.4777 204.806 52.7057 204.458C52.9457 204.11 53.2517 203.834 53.6237 203.63C53.9957 203.426 54.3857 203.324 54.7937 203.324C55.2497 203.324 55.6577 203.378 56.0177 203.486C56.3777 203.594 56.7197 203.732 57.0437 203.9V205.808H56.8097L56.3597 204.926C56.2037 204.554 55.9817 204.29 55.6937 204.134C55.4177 203.978 55.1297 203.9 54.8297 203.9C54.3977 203.9 54.0557 204.02 53.8037 204.26C53.5637 204.488 53.4437 204.8 53.4437 205.196C53.4437 205.604 53.5817 205.928 53.8577 206.168C54.1457 206.396 54.5777 206.636 55.1537 206.888C55.5617 207.068 55.9337 207.254 56.2697 207.446C56.6057 207.626 56.8697 207.866 57.0617 208.166C57.2657 208.466 57.3677 208.88 57.3677 209.408C57.3677 209.888 57.2357 210.308 56.9717 210.668C56.7077 211.016 56.3657 211.292 55.9457 211.496C55.5257 211.688 55.0817 211.784 54.6137 211.784ZM63.2878 211.784C62.4838 211.784 61.7998 211.616 61.2358 211.28C60.6718 210.944 60.2398 210.482 59.9398 209.894C59.6398 209.294 59.4898 208.604 59.4898 207.824C59.4898 206.96 59.6638 206.192 60.0118 205.52C60.3718 204.836 60.8578 204.302 61.4698 203.918C62.0938 203.522 62.7958 203.324 63.5758 203.324C64.0558 203.324 64.5058 203.402 64.9258 203.558C65.3578 203.702 65.6878 203.882 65.9158 204.098C66.0478 204.23 66.1438 204.344 66.2038 204.44C66.2758 204.536 66.3118 204.626 66.3118 204.71C66.3118 204.842 66.2518 204.956 66.1318 205.052L65.5198 205.556H65.4118L64.9618 204.944C64.7458 204.656 64.4938 204.422 64.2058 204.242C63.9178 204.05 63.5638 203.954 63.1438 203.954C62.4118 203.954 61.8178 204.242 61.3618 204.818C60.9178 205.382 60.6958 206.192 60.6958 207.248C60.6958 207.872 60.8038 208.448 61.0198 208.976C61.2358 209.492 61.5718 209.906 62.0278 210.218C62.4958 210.518 63.1018 210.668 63.8458 210.668C64.7338 210.668 65.5498 210.404 66.2938 209.876H66.3478V210.074C66.0718 210.554 65.6698 210.962 65.1418 211.298C64.6138 211.622 63.9958 211.784 63.2878 211.784ZM69.7964 200.876C69.5324 200.876 69.3104 200.792 69.1304 200.624C68.9624 200.444 68.8784 200.222 68.8784 199.958C68.8784 199.682 68.9624 199.46 69.1304 199.292C69.3104 199.124 69.5324 199.04 69.7964 199.04C70.0724 199.04 70.2944 199.124 70.4624 199.292C70.6304 199.46 70.7144 199.682 70.7144 199.958C70.7144 200.222 70.6304 200.444 70.4624 200.624C70.2944 200.792 70.0724 200.876 69.7964 200.876ZM68.1944 211.604V211.316L69.3284 210.866V204.89L68.1584 204.188V204.008L70.4084 203.324H70.5524V210.866L71.7404 211.316V211.604H68.1944ZM77.4035 211.784C76.5995 211.784 75.9095 211.616 75.3335 211.28C74.7695 210.944 74.3375 210.482 74.0375 209.894C73.7375 209.294 73.5875 208.604 73.5875 207.824C73.5875 206.96 73.7615 206.192 74.1095 205.52C74.4575 204.836 74.9195 204.302 75.4955 203.918C76.0715 203.522 76.6955 203.324 77.3675 203.324C78.3155 203.324 79.0595 203.648 79.5995 204.296C80.1395 204.944 80.4275 205.856 80.4635 207.032L80.3915 207.104H74.7935C74.7935 207.152 74.7935 207.2 74.7935 207.248C74.7935 207.872 74.9015 208.448 75.1175 208.976C75.3335 209.492 75.6755 209.906 76.1435 210.218C76.6115 210.518 77.2175 210.668 77.9615 210.668C78.8495 210.668 79.6655 210.404 80.4095 209.876H80.4635V210.074C80.1995 210.554 79.7975 210.962 79.2575 211.298C78.7295 211.622 78.1115 211.784 77.4035 211.784ZM77.0975 203.954C76.5215 203.954 76.0295 204.176 75.6215 204.62C75.2135 205.052 74.9555 205.664 74.8475 206.456H79.2395C78.9995 204.788 78.2855 203.954 77.0975 203.954ZM82.3247 211.604V211.316L83.4587 210.866V204.89L82.2887 204.278V204.08L84.3947 203.324H84.5387L84.6647 204.638H84.7367C85.1927 204.194 85.6247 203.864 86.0327 203.648C86.4527 203.432 86.9147 203.324 87.4187 203.324C88.1387 203.324 88.7327 203.516 89.2007 203.9C89.6687 204.284 89.9027 204.842 89.9027 205.574V210.866L91.0367 211.316V211.604H87.4007V211.316L88.6787 210.866V206.276C88.6787 205.664 88.4987 205.202 88.1387 204.89C87.7787 204.566 87.3167 204.404 86.7527 204.404C86.4167 204.404 86.0447 204.476 85.6367 204.62C85.2407 204.752 84.9227 204.944 84.6827 205.196V210.866L85.9607 211.316V211.604H82.3247ZM96.4226 211.784C95.6186 211.784 94.9346 211.616 94.3706 211.28C93.8066 210.944 93.3746 210.482 93.0746 209.894C92.7746 209.294 92.6246 208.604 92.6246 207.824C92.6246 206.96 92.7986 206.192 93.1466 205.52C93.5066 204.836 93.9926 204.302 94.6046 203.918C95.2286 203.522 95.9306 203.324 96.7106 203.324C97.1906 203.324 97.6406 203.402 98.0606 203.558C98.4926 203.702 98.8226 203.882 99.0506 204.098C99.1826 204.23 99.2786 204.344 99.3386 204.44C99.4106 204.536 99.4466 204.626 99.4466 204.71C99.4466 204.842 99.3866 204.956 99.2666 205.052L98.6546 205.556H98.5466L98.0966 204.944C97.8806 204.656 97.6286 204.422 97.3406 204.242C97.0526 204.05 96.6986 203.954 96.2786 203.954C95.5466 203.954 94.9526 204.242 94.4966 204.818C94.0526 205.382 93.8306 206.192 93.8306 207.248C93.8306 207.872 93.9386 208.448 94.1546 208.976C94.3706 209.492 94.7066 209.906 95.1626 210.218C95.6306 210.518 96.2366 210.668 96.9806 210.668C97.8686 210.668 98.6846 210.404 99.4286 209.876H99.4826V210.074C99.2066 210.554 98.8046 210.962 98.2766 211.298C97.7486 211.622 97.1306 211.784 96.4226 211.784ZM105.001 211.784C104.197 211.784 103.507 211.616 102.931 211.28C102.367 210.944 101.935 210.482 101.635 209.894C101.335 209.294 101.185 208.604 101.185 207.824C101.185 206.96 101.359 206.192 101.707 205.52C102.055 204.836 102.517 204.302 103.093 203.918C103.669 203.522 104.293 203.324 104.965 203.324C105.913 203.324 106.657 203.648 107.197 204.296C107.737 204.944 108.025 205.856 108.061 207.032L107.989 207.104H102.391C102.391 207.152 102.391 207.2 102.391 207.248C102.391 207.872 102.499 208.448 102.715 208.976C102.931 209.492 103.273 209.906 103.741 210.218C104.209 210.518 104.815 210.668 105.559 210.668C106.447 210.668 107.263 210.404 108.007 209.876H108.061V210.074C107.797 210.554 107.395 210.962 106.855 211.298C106.327 211.622 105.709 211.784 105.001 211.784ZM104.695 203.954C104.119 203.954 103.627 204.176 103.219 204.62C102.811 205.052 102.553 205.664 102.445 206.456H106.837C106.597 204.788 105.883 203.954 104.695 203.954Z" fill="black"/>
<path d="M244.572 184.604V184.316L245.706 183.866V172.67L244.536 171.968V171.788L246.786 171.104H246.93V183.866L248.118 184.316V184.604H244.572ZM251.557 173.876C251.293 173.876 251.071 173.792 250.891 173.624C250.723 173.444 250.639 173.222 250.639 172.958C250.639 172.682 250.723 172.46 250.891 172.292C251.071 172.124 251.293 172.04 251.557 172.04C251.833 172.04 252.055 172.124 252.223 172.292C252.391 172.46 252.475 172.682 252.475 172.958C252.475 173.222 252.391 173.444 252.223 173.624C252.055 173.792 251.833 173.876 251.557 173.876ZM249.955 184.604V184.316L251.089 183.866V177.89L249.919 177.188V177.008L252.169 176.324H252.313V183.866L253.501 184.316V184.604H249.955ZM258.12 184.784C257.604 184.784 257.166 184.628 256.806 184.316C256.458 184.004 256.284 183.566 256.284 183.002V177.26H254.772V177.116L256.374 176.504L257.364 174.524H257.508V176.504H259.884V177.26H257.508V182.804C257.508 183.14 257.634 183.392 257.886 183.56C258.138 183.716 258.456 183.794 258.84 183.794C259.08 183.794 259.302 183.776 259.506 183.74C259.71 183.692 259.896 183.638 260.064 183.578L260.1 183.596V183.722C259.98 183.962 259.752 184.202 259.416 184.442C259.092 184.67 258.66 184.784 258.12 184.784ZM265.352 184.784C264.548 184.784 263.858 184.616 263.282 184.28C262.718 183.944 262.286 183.482 261.986 182.894C261.686 182.294 261.536 181.604 261.536 180.824C261.536 179.96 261.71 179.192 262.058 178.52C262.406 177.836 262.868 177.302 263.444 176.918C264.02 176.522 264.644 176.324 265.316 176.324C266.264 176.324 267.008 176.648 267.548 177.296C268.088 177.944 268.376 178.856 268.412 180.032L268.34 180.104H262.742C262.742 180.152 262.742 180.2 262.742 180.248C262.742 180.872 262.85 181.448 263.066 181.976C263.282 182.492 263.624 182.906 264.092 183.218C264.56 183.518 265.166 183.668 265.91 183.668C266.798 183.668 267.614 183.404 268.358 182.876H268.412V183.074C268.148 183.554 267.746 183.962 267.206 184.298C266.678 184.622 266.06 184.784 265.352 184.784ZM265.046 176.954C264.47 176.954 263.978 177.176 263.57 177.62C263.162 178.052 262.904 178.664 262.796 179.456H267.188C266.948 177.788 266.234 176.954 265.046 176.954ZM270.345 184.604V184.316L271.479 183.866V177.89L270.309 177.278V177.08L272.415 176.324H272.559L272.685 177.89H272.739C273.099 177.422 273.399 177.08 273.639 176.864C273.891 176.636 274.119 176.492 274.323 176.432C274.527 176.36 274.731 176.324 274.935 176.324C275.031 176.324 275.139 176.342 275.259 176.378C275.379 176.402 275.475 176.432 275.547 176.468C275.679 176.516 275.787 176.576 275.871 176.648C275.955 176.72 275.997 176.798 275.997 176.882C275.997 176.918 275.991 176.96 275.979 177.008C275.979 177.056 275.967 177.104 275.943 177.152L275.655 177.872H275.565L275.025 177.638C274.809 177.554 274.569 177.512 274.305 177.512C274.005 177.512 273.723 177.59 273.459 177.746C273.195 177.902 272.943 178.16 272.703 178.52V183.866L274.017 184.316V184.604H270.345ZM279.123 184.784C278.559 184.784 278.091 184.622 277.719 184.298C277.347 183.962 277.161 183.5 277.161 182.912C277.161 182.324 277.377 181.826 277.809 181.418C278.241 181.01 278.955 180.686 279.951 180.446L281.697 180.014V178.628C281.697 178.172 281.517 177.794 281.157 177.494C280.809 177.194 280.419 177.044 279.987 177.044C279.507 177.044 279.171 177.158 278.979 177.386C278.787 177.614 278.691 177.926 278.691 178.322V178.916L278.601 179.006H277.845C277.665 179.006 277.539 178.982 277.467 178.934C277.407 178.874 277.377 178.742 277.377 178.538C277.377 178.286 277.455 178.028 277.611 177.764C277.767 177.5 278.001 177.272 278.313 177.08C278.649 176.864 278.991 176.684 279.339 176.54C279.699 176.396 280.059 176.324 280.419 176.324C280.875 176.324 281.289 176.39 281.661 176.522C282.033 176.642 282.333 176.846 282.561 177.134C282.789 177.422 282.903 177.806 282.903 178.286V183.596C282.999 183.692 283.119 183.764 283.263 183.812C283.407 183.86 283.593 183.884 283.821 183.884H284.613L284.649 183.92V183.956C284.529 184.16 284.343 184.352 284.091 184.532C283.851 184.7 283.545 184.784 283.173 184.784C282.789 184.784 282.483 184.682 282.255 184.478C282.027 184.274 281.871 184.016 281.787 183.704H281.697C281.385 184.016 281.001 184.274 280.545 184.478C280.101 184.682 279.627 184.784 279.123 184.784ZM278.367 182.57C278.367 182.99 278.493 183.308 278.745 183.524C278.997 183.728 279.351 183.83 279.807 183.83C280.107 183.83 280.413 183.794 280.725 183.722C281.037 183.65 281.361 183.53 281.697 183.362V180.536C280.725 180.728 279.999 180.926 279.519 181.13C279.051 181.334 278.739 181.556 278.583 181.796C278.439 182.024 278.367 182.282 278.367 182.57ZM285.849 184.604V184.316L286.983 183.866V177.89L285.813 177.278V177.08L287.919 176.324H288.063L288.189 177.89H288.243C288.603 177.422 288.903 177.08 289.143 176.864C289.395 176.636 289.623 176.492 289.827 176.432C290.031 176.36 290.235 176.324 290.439 176.324C290.535 176.324 290.643 176.342 290.763 176.378C290.883 176.402 290.979 176.432 291.051 176.468C291.183 176.516 291.291 176.576 291.375 176.648C291.459 176.72 291.501 176.798 291.501 176.882C291.501 176.918 291.495 176.96 291.483 177.008C291.483 177.056 291.471 177.104 291.447 177.152L291.159 177.872H291.069L290.529 177.638C290.313 177.554 290.073 177.512 289.809 177.512C289.509 177.512 289.227 177.59 288.963 177.746C288.699 177.902 288.447 178.16 288.207 178.52V183.866L289.521 184.316V184.604H285.849ZM293.253 188.942C292.989 188.942 292.821 188.9 292.749 188.816C292.689 188.744 292.659 188.612 292.659 188.42V187.718L292.731 187.646H293.559C293.859 187.646 294.087 187.616 294.243 187.556C294.399 187.508 294.543 187.376 294.675 187.16C294.807 186.944 294.993 186.584 295.233 186.08L295.971 184.442L292.821 177.26L291.651 176.792V176.504H295.611V176.792L294.171 177.242V177.314L296.565 182.93H296.619L298.707 177.386V177.296L297.321 176.792V176.504H300.705V176.792L299.445 177.278L295.809 186.242C295.641 186.638 295.503 186.95 295.395 187.178C295.287 187.406 295.125 187.676 294.909 187.988C294.681 188.3 294.423 188.534 294.135 188.69C293.847 188.858 293.553 188.942 293.253 188.942ZM250.544 211.784C250.028 211.784 249.59 211.628 249.23 211.316C248.882 211.004 248.708 210.566 248.708 210.002V204.26H247.196V204.116L248.798 203.504L249.788 201.524H249.932V203.504H252.308V204.26H249.932V209.804C249.932 210.14 250.058 210.392 250.31 210.56C250.562 210.716 250.88 210.794 251.264 210.794C251.504 210.794 251.726 210.776 251.93 210.74C252.134 210.692 252.32 210.638 252.488 210.578L252.524 210.596V210.722C252.404 210.962 252.176 211.202 251.84 211.442C251.516 211.67 251.084 211.784 250.544 211.784ZM253.996 211.604V211.316L255.13 210.866V199.67L253.96 198.968V198.788L256.21 198.104H256.354V204.638H256.408C256.864 204.194 257.296 203.864 257.704 203.648C258.124 203.432 258.586 203.324 259.09 203.324C259.81 203.324 260.404 203.516 260.872 203.9C261.34 204.284 261.574 204.842 261.574 205.574V210.866L262.708 211.316V211.604H259.072V211.316L260.35 210.884V206.276C260.35 205.664 260.17 205.202 259.81 204.89C259.45 204.566 258.988 204.404 258.424 204.404C258.088 204.404 257.716 204.476 257.308 204.62C256.912 204.752 256.594 204.944 256.354 205.196V210.884L257.632 211.316V211.604H253.996ZM268.112 211.784C267.308 211.784 266.618 211.616 266.042 211.28C265.478 210.944 265.046 210.482 264.746 209.894C264.446 209.294 264.296 208.604 264.296 207.824C264.296 206.96 264.47 206.192 264.818 205.52C265.166 204.836 265.628 204.302 266.204 203.918C266.78 203.522 267.404 203.324 268.076 203.324C269.024 203.324 269.768 203.648 270.308 204.296C270.848 204.944 271.136 205.856 271.172 207.032L271.1 207.104H265.502C265.502 207.152 265.502 207.2 265.502 207.248C265.502 207.872 265.61 208.448 265.826 208.976C266.042 209.492 266.384 209.906 266.852 210.218C267.32 210.518 267.926 210.668 268.67 210.668C269.558 210.668 270.374 210.404 271.118 209.876H271.172V210.074C270.908 210.554 270.506 210.962 269.966 211.298C269.438 211.622 268.82 211.784 268.112 211.784ZM267.806 203.954C267.23 203.954 266.738 204.176 266.33 204.62C265.922 205.052 265.664 205.664 265.556 206.456H269.948C269.708 204.788 268.994 203.954 267.806 203.954ZM276.919 211.784C276.151 211.784 275.479 211.598 274.903 211.226C274.327 210.854 273.877 210.35 273.553 209.714C273.229 209.078 273.067 208.358 273.067 207.554C273.067 206.75 273.229 206.03 273.553 205.394C273.877 204.758 274.327 204.254 274.903 203.882C275.479 203.51 276.151 203.324 276.919 203.324C277.687 203.324 278.359 203.51 278.935 203.882C279.511 204.254 279.961 204.758 280.285 205.394C280.609 206.03 280.771 206.75 280.771 207.554C280.771 208.358 280.609 209.078 280.285 209.714C279.961 210.35 279.511 210.854 278.935 211.226C278.359 211.598 277.687 211.784 276.919 211.784ZM277.171 211.154C277.675 211.154 278.095 210.998 278.431 210.686C278.767 210.374 279.019 209.972 279.187 209.48C279.355 208.976 279.439 208.454 279.439 207.914C279.439 207.23 279.337 206.588 279.133 205.988C278.941 205.376 278.641 204.884 278.233 204.512C277.837 204.128 277.327 203.936 276.703 203.936C276.199 203.936 275.773 204.086 275.425 204.386C275.089 204.686 274.831 205.082 274.651 205.574C274.483 206.066 274.399 206.6 274.399 207.176C274.399 207.872 274.501 208.526 274.705 209.138C274.909 209.738 275.215 210.224 275.623 210.596C276.031 210.968 276.547 211.154 277.171 211.154ZM282.685 211.604V211.316L283.819 210.866V204.89L282.649 204.278V204.08L284.755 203.324H284.899L285.025 204.89H285.079C285.439 204.422 285.739 204.08 285.979 203.864C286.231 203.636 286.459 203.492 286.663 203.432C286.867 203.36 287.071 203.324 287.275 203.324C287.371 203.324 287.479 203.342 287.599 203.378C287.719 203.402 287.815 203.432 287.887 203.468C288.019 203.516 288.127 203.576 288.211 203.648C288.295 203.72 288.337 203.798 288.337 203.882C288.337 203.918 288.331 203.96 288.319 204.008C288.319 204.056 288.307 204.104 288.283 204.152L287.995 204.872H287.905L287.365 204.638C287.149 204.554 286.909 204.512 286.645 204.512C286.345 204.512 286.063 204.59 285.799 204.746C285.535 204.902 285.283 205.16 285.043 205.52V210.866L286.357 211.316V211.604H282.685ZM290.089 215.942C289.825 215.942 289.657 215.9 289.585 215.816C289.525 215.744 289.495 215.612 289.495 215.42V214.718L289.567 214.646H290.395C290.695 214.646 290.923 214.616 291.079 214.556C291.235 214.508 291.379 214.376 291.511 214.16C291.643 213.944 291.829 213.584 292.069 213.08L292.807 211.442L289.657 204.26L288.487 203.792V203.504H292.447V203.792L291.007 204.242V204.314L293.401 209.93H293.455L295.543 204.386V204.296L294.157 203.792V203.504H297.541V203.792L296.281 204.278L292.645 213.242C292.477 213.638 292.339 213.95 292.231 214.178C292.123 214.406 291.961 214.676 291.745 214.988C291.517 215.3 291.259 215.534 290.971 215.69C290.683 215.858 290.389 215.942 290.089 215.942Z" fill="black"/>
<path d="M451.6 184.784C450.892 184.784 450.304 184.592 449.836 184.208C449.38 183.824 449.152 183.266 449.152 182.534V177.242L447.964 176.792V176.504H450.376V181.832C450.376 182.444 450.55 182.912 450.898 183.236C451.246 183.548 451.702 183.704 452.266 183.704C452.602 183.704 452.962 183.638 453.346 183.506C453.742 183.374 454.06 183.176 454.3 182.912V177.242L452.95 176.792V176.504H455.524V183.884L456.802 184.316V184.604H454.3V183.488H454.228C453.772 183.944 453.34 184.274 452.932 184.478C452.524 184.682 452.08 184.784 451.6 184.784ZM457.789 184.604V184.316L458.797 183.83L461.119 180.572L458.797 177.242L457.879 176.792V176.504H461.389V176.792L460.201 177.224V177.314L461.929 179.798L463.459 177.386V177.296L462.451 176.792V176.504H465.259V176.792L464.287 177.314L462.199 180.194L464.755 183.866L465.565 184.316V184.604H462.289V184.316L463.351 183.884V183.794L461.407 181.004L459.697 183.722V183.812L460.759 184.316V184.604H457.789ZM437.172 211.784C436.572 211.784 436.038 211.634 435.57 211.334C435.102 211.034 434.73 210.602 434.454 210.038C434.19 209.474 434.058 208.808 434.058 208.04C434.058 207.032 434.25 206.18 434.634 205.484C435.03 204.776 435.552 204.242 436.2 203.882C436.86 203.51 437.574 203.324 438.342 203.324C438.654 203.324 438.942 203.348 439.206 203.396C439.47 203.444 439.716 203.51 439.944 203.594V199.67L438.72 198.968V198.788L441.024 198.104H441.168V210.884L442.446 211.316V211.604H440.124L439.962 210.686H439.872C439.428 211.058 438.99 211.334 438.558 211.514C438.126 211.694 437.664 211.784 437.172 211.784ZM435.246 207.68C435.246 208.4 435.372 208.988 435.624 209.444C435.876 209.9 436.206 210.242 436.614 210.47C437.034 210.686 437.484 210.794 437.964 210.794C438.3 210.794 438.636 210.74 438.972 210.632C439.32 210.512 439.644 210.338 439.944 210.11V204.746C439.62 204.518 439.302 204.344 438.99 204.224C438.678 204.104 438.33 204.044 437.946 204.044C437.466 204.044 437.016 204.164 436.596 204.404C436.188 204.644 435.858 205.034 435.606 205.574C435.366 206.102 435.246 206.804 435.246 207.68ZM447.896 211.784C447.092 211.784 446.402 211.616 445.826 211.28C445.262 210.944 444.83 210.482 444.53 209.894C444.23 209.294 444.08 208.604 444.08 207.824C444.08 206.96 444.254 206.192 444.602 205.52C444.95 204.836 445.412 204.302 445.988 203.918C446.564 203.522 447.188 203.324 447.86 203.324C448.808 203.324 449.552 203.648 450.092 204.296C450.632 204.944 450.92 205.856 450.956 207.032L450.884 207.104H445.286C445.286 207.152 445.286 207.2 445.286 207.248C445.286 207.872 445.394 208.448 445.61 208.976C445.826 209.492 446.168 209.906 446.636 210.218C447.104 210.518 447.71 210.668 448.454 210.668C449.342 210.668 450.158 210.404 450.902 209.876H450.956V210.074C450.692 210.554 450.29 210.962 449.75 211.298C449.222 211.622 448.604 211.784 447.896 211.784ZM447.59 203.954C447.014 203.954 446.522 204.176 446.114 204.62C445.706 205.052 445.448 205.664 445.34 206.456H449.732C449.492 204.788 448.778 203.954 447.59 203.954ZM455.481 211.784C454.977 211.784 454.533 211.736 454.149 211.64C453.777 211.544 453.399 211.4 453.015 211.208V209.246H453.249L453.699 210.164C453.855 210.5 454.077 210.764 454.365 210.956C454.665 211.136 455.049 211.226 455.517 211.226C456.045 211.226 456.447 211.106 456.723 210.866C457.011 210.614 457.155 210.26 457.155 209.804C457.155 209.312 456.993 208.946 456.669 208.706C456.345 208.466 455.865 208.208 455.229 207.932C454.569 207.656 454.071 207.35 453.735 207.014C453.399 206.678 453.231 206.204 453.231 205.592C453.231 205.184 453.345 204.806 453.573 204.458C453.813 204.11 454.119 203.834 454.491 203.63C454.863 203.426 455.253 203.324 455.661 203.324C456.117 203.324 456.525 203.378 456.885 203.486C457.245 203.594 457.587 203.732 457.911 203.9V205.808H457.677L457.227 204.926C457.071 204.554 456.849 204.29 456.561 204.134C456.285 203.978 455.997 203.9 455.697 203.9C455.265 203.9 454.923 204.02 454.671 204.26C454.431 204.488 454.311 204.8 454.311 205.196C454.311 205.604 454.449 205.928 454.725 206.168C455.013 206.396 455.445 206.636 456.021 206.888C456.429 207.068 456.801 207.254 457.137 207.446C457.473 207.626 457.737 207.866 457.929 208.166C458.133 208.466 458.235 208.88 458.235 209.408C458.235 209.888 458.103 210.308 457.839 210.668C457.575 211.016 457.233 211.292 456.813 211.496C456.393 211.688 455.949 211.784 455.481 211.784ZM462.103 200.876C461.839 200.876 461.617 200.792 461.437 200.624C461.269 200.444 461.185 200.222 461.185 199.958C461.185 199.682 461.269 199.46 461.437 199.292C461.617 199.124 461.839 199.04 462.103 199.04C462.379 199.04 462.601 199.124 462.769 199.292C462.937 199.46 463.021 199.682 463.021 199.958C463.021 200.222 462.937 200.444 462.769 200.624C462.601 200.792 462.379 200.876 462.103 200.876ZM460.501 211.604V211.316L461.635 210.866V204.89L460.465 204.188V204.008L462.715 203.324H462.859V210.866L464.047 211.316V211.604H460.501ZM469.44 208.976C468.984 208.976 468.564 208.898 468.18 208.742C467.856 208.862 467.634 209.006 467.514 209.174C467.394 209.342 467.334 209.534 467.334 209.75C467.334 210.098 467.448 210.356 467.676 210.524C467.916 210.68 468.294 210.758 468.81 210.758H470.916C471.72 210.758 472.32 210.944 472.716 211.316C473.124 211.676 473.328 212.198 473.328 212.882C473.328 213.386 473.154 213.866 472.806 214.322C472.47 214.79 471.99 215.174 471.366 215.474C470.754 215.774 470.028 215.924 469.188 215.924C468.084 215.924 467.292 215.714 466.812 215.294C466.332 214.886 466.092 214.382 466.092 213.782C466.092 213.35 466.194 212.966 466.398 212.63L467.586 211.766V211.712C467.166 211.616 466.842 211.442 466.614 211.19C466.386 210.926 466.272 210.614 466.272 210.254C466.272 209.81 466.416 209.45 466.704 209.174L467.712 208.616V208.508C467.304 208.256 466.98 207.926 466.74 207.518C466.512 207.11 466.398 206.654 466.398 206.15C466.398 205.61 466.53 205.13 466.794 204.71C467.058 204.278 467.418 203.942 467.874 203.702C468.33 203.45 468.852 203.324 469.44 203.324C469.692 203.324 469.962 203.354 470.25 203.414C470.55 203.474 470.808 203.552 471.024 203.648L473.634 203.504V204.386L471.888 204.26L471.834 204.314C472.026 204.53 472.182 204.806 472.302 205.142C472.422 205.478 472.482 205.814 472.482 206.15C472.482 206.69 472.35 207.176 472.086 207.608C471.822 208.028 471.462 208.364 471.006 208.616C470.55 208.856 470.028 208.976 469.44 208.976ZM469.62 208.4C470.112 208.4 470.502 208.196 470.79 207.788C471.078 207.368 471.222 206.84 471.222 206.204C471.222 205.472 471.036 204.902 470.664 204.494C470.304 204.086 469.854 203.882 469.314 203.882C468.786 203.882 468.372 204.098 468.072 204.53C467.784 204.95 467.64 205.472 467.64 206.096C467.64 206.804 467.826 207.368 468.198 207.788C468.57 208.196 469.044 208.4 469.62 208.4ZM467.19 213.584C467.19 214.124 467.406 214.568 467.838 214.916C468.27 215.276 468.798 215.456 469.422 215.456C469.974 215.456 470.46 215.348 470.88 215.132C471.3 214.928 471.63 214.652 471.87 214.304C472.11 213.968 472.23 213.608 472.23 213.224C472.23 212.672 472.086 212.294 471.798 212.09C471.51 211.886 470.994 211.784 470.25 211.784H468.342C468.246 211.784 468.156 211.778 468.072 211.766C467.736 211.97 467.502 212.216 467.37 212.504C467.25 212.804 467.19 213.164 467.19 213.584ZM475.37 211.604V211.316L476.504 210.866V204.89L475.334 204.278V204.08L477.44 203.324H477.584L477.71 204.638H477.782C478.238 204.194 478.67 203.864 479.078 203.648C479.498 203.432 479.96 203.324 480.464 203.324C481.184 203.324 481.778 203.516 482.246 203.9C482.714 204.284 482.948 204.842 482.948 205.574V210.866L484.082 211.316V211.604H480.446V211.316L481.724 210.866V206.276C481.724 205.664 481.544 205.202 481.184 204.89C480.824 204.566 480.362 204.404 479.798 204.404C479.462 204.404 479.09 204.476 478.682 204.62C478.286 204.752 477.968 204.944 477.728 205.196V210.866L479.006 211.316V211.604H475.37Z" fill="black"/>
<path d="M653.278 199.824C652.413 199.824 651.701 199.604 651.144 199.164C650.601 198.724 650.33 198.078 650.33 197.228V190.716L648.922 190.034V189.682H652.398V196.216C652.398 196.832 652.581 197.301 652.948 197.624C653.329 197.946 653.821 198.108 654.422 198.108C654.789 198.108 655.192 198.049 655.632 197.932C656.072 197.8 656.424 197.609 656.688 197.36V190.716L655.192 190.034V189.682H658.778V198.614L660.296 199.252V199.604H656.688V198.218H656.578C656.035 198.76 655.507 199.164 654.994 199.428C654.481 199.692 653.909 199.824 653.278 199.824ZM661.404 199.604V199.252L662.592 198.504L665.496 194.764L662.526 190.694L661.492 190.034V189.682H666.376V190.034L664.946 190.672V190.804L666.904 193.466L668.664 190.936V190.804L667.454 190.034V189.682H671.172V190.034L670.006 190.782L667.388 194.126L670.644 198.592L671.546 199.252V199.604H666.904V199.252L668.202 198.614V198.482L665.98 195.446L663.978 198.35V198.482L665.32 199.252V199.604H661.404ZM682.233 199.824C681.529 199.824 680.921 199.758 680.407 199.626C679.909 199.508 679.403 199.318 678.889 199.054V196.59H679.219L679.923 197.778C680.407 198.584 681.155 198.988 682.167 198.988C682.754 198.988 683.201 198.856 683.509 198.592C683.832 198.328 683.993 197.961 683.993 197.492C683.993 197.11 683.891 196.802 683.685 196.568C683.495 196.333 683.209 196.128 682.827 195.952C682.461 195.776 682.013 195.563 681.485 195.314C680.723 194.976 680.136 194.602 679.725 194.192C679.329 193.781 679.131 193.216 679.131 192.498C679.131 191.926 679.285 191.412 679.593 190.958C679.916 190.503 680.327 190.144 680.825 189.88C681.324 189.601 681.852 189.462 682.409 189.462C682.937 189.462 683.436 189.528 683.905 189.66C684.375 189.777 684.837 189.953 685.291 190.188V192.63H684.983L684.257 191.486C683.773 190.723 683.179 190.342 682.475 190.342C681.991 190.342 681.603 190.466 681.309 190.716C681.016 190.95 680.869 191.28 680.869 191.706C680.869 192.175 681.038 192.542 681.375 192.806C681.727 193.055 682.27 193.341 683.003 193.664C683.429 193.854 683.847 194.06 684.257 194.28C684.668 194.485 685.005 194.778 685.269 195.16C685.548 195.526 685.687 196.054 685.687 196.744C685.687 197.418 685.504 197.983 685.137 198.438C684.785 198.892 684.345 199.237 683.817 199.472C683.289 199.706 682.761 199.824 682.233 199.824ZM692.763 199.824C691.34 199.824 690.211 199.391 689.375 198.526C688.539 197.66 688.121 196.509 688.121 195.072C688.121 193.986 688.341 193.018 688.781 192.168C689.236 191.317 689.852 190.657 690.629 190.188C691.406 189.704 692.294 189.462 693.291 189.462C693.907 189.462 694.494 189.564 695.051 189.77C695.608 189.96 696.034 190.217 696.327 190.54C696.547 190.804 696.657 191.024 696.657 191.2C696.657 191.317 696.635 191.412 696.591 191.486C696.562 191.544 696.496 191.625 696.393 191.728L695.491 192.454H695.337L694.589 191.442C694.369 191.134 694.105 190.892 693.797 190.716C693.489 190.525 693.1 190.43 692.631 190.43C691.854 190.43 691.245 190.752 690.805 191.398C690.365 192.043 690.145 192.93 690.145 194.06C690.145 194.749 690.255 195.394 690.475 195.996C690.71 196.597 691.091 197.081 691.619 197.448C692.162 197.814 692.895 197.998 693.819 197.998C694.23 197.998 694.67 197.932 695.139 197.8C695.608 197.653 696.107 197.44 696.635 197.162H696.701V197.426C696.364 198.1 695.85 198.672 695.161 199.142C694.472 199.596 693.672 199.824 692.763 199.824ZM701.111 186.91C700.715 186.91 700.385 186.778 700.121 186.514C699.857 186.25 699.725 185.92 699.725 185.524C699.725 185.113 699.857 184.783 700.121 184.534C700.385 184.27 700.715 184.138 701.111 184.138C701.507 184.138 701.837 184.27 702.101 184.534C702.365 184.783 702.497 185.113 702.497 185.524C702.497 185.92 702.365 186.25 702.101 186.514C701.837 186.778 701.507 186.91 701.111 186.91ZM698.735 199.604V199.252L700.143 198.548V191.97L698.801 190.848V190.672L702.057 189.462H702.211V198.548L703.575 199.252V199.604H698.735ZM710.359 199.824C708.922 199.824 707.785 199.391 706.949 198.526C706.113 197.66 705.695 196.509 705.695 195.072C705.695 193.986 705.915 193.018 706.355 192.168C706.81 191.317 707.404 190.657 708.137 190.188C708.885 189.704 709.692 189.462 710.557 189.462C711.73 189.462 712.647 189.865 713.307 190.672C713.967 191.464 714.304 192.608 714.319 194.104L714.209 194.214H707.719C707.734 194.888 707.858 195.512 708.093 196.084C708.342 196.656 708.731 197.118 709.259 197.47C709.802 197.822 710.528 197.998 711.437 197.998C712.273 197.998 713.219 197.719 714.275 197.162H714.341V197.426C713.989 198.1 713.468 198.672 712.779 199.142C712.09 199.596 711.283 199.824 710.359 199.824ZM710.161 190.43C709.516 190.43 708.98 190.672 708.555 191.156C708.144 191.64 707.88 192.322 707.763 193.202H712.449C712.302 192.204 712.038 191.493 711.657 191.068C711.276 190.642 710.777 190.43 710.161 190.43ZM716.35 199.604V199.252L717.758 198.548V191.97L716.416 190.87V190.694L719.452 189.462H719.606L719.804 191.09H719.914C720.471 190.547 721.007 190.144 721.52 189.88C722.033 189.601 722.613 189.462 723.258 189.462C724.109 189.462 724.813 189.682 725.37 190.122C725.942 190.547 726.228 191.192 726.228 192.058V198.548L727.614 199.252V199.604H722.686V199.252L724.138 198.548V193.07C724.138 192.439 723.947 191.97 723.566 191.662C723.185 191.339 722.693 191.178 722.092 191.178C721.725 191.178 721.322 191.236 720.882 191.354C720.442 191.471 720.09 191.654 719.826 191.904V198.548L721.278 199.252V199.604H716.35ZM734.034 199.824C732.612 199.824 731.482 199.391 730.646 198.526C729.81 197.66 729.392 196.509 729.392 195.072C729.392 193.986 729.612 193.018 730.052 192.168C730.507 191.317 731.123 190.657 731.9 190.188C732.678 189.704 733.565 189.462 734.562 189.462C735.178 189.462 735.765 189.564 736.322 189.77C736.88 189.96 737.305 190.217 737.598 190.54C737.818 190.804 737.928 191.024 737.928 191.2C737.928 191.317 737.906 191.412 737.862 191.486C737.833 191.544 737.767 191.625 737.664 191.728L736.762 192.454H736.608L735.86 191.442C735.64 191.134 735.376 190.892 735.068 190.716C734.76 190.525 734.372 190.43 733.902 190.43C733.125 190.43 732.516 190.752 732.076 191.398C731.636 192.043 731.416 192.93 731.416 194.06C731.416 194.749 731.526 195.394 731.746 195.996C731.981 196.597 732.362 197.081 732.89 197.448C733.433 197.814 734.166 197.998 735.09 197.998C735.501 197.998 735.941 197.932 736.41 197.8C736.88 197.653 737.378 197.44 737.906 197.162H737.972V197.426C737.635 198.1 737.122 198.672 736.432 199.142C735.743 199.596 734.944 199.824 734.034 199.824ZM744.605 199.824C743.168 199.824 742.031 199.391 741.195 198.526C740.359 197.66 739.941 196.509 739.941 195.072C739.941 193.986 740.161 193.018 740.601 192.168C741.056 191.317 741.65 190.657 742.383 190.188C743.131 189.704 743.938 189.462 744.803 189.462C745.977 189.462 746.893 189.865 747.553 190.672C748.213 191.464 748.551 192.608 748.565 194.104L748.455 194.214H741.965C741.98 194.888 742.105 195.512 742.339 196.084C742.589 196.656 742.977 197.118 743.505 197.47C744.048 197.822 744.774 197.998 745.683 197.998C746.519 197.998 747.465 197.719 748.521 197.162H748.587V197.426C748.235 198.1 747.715 198.672 747.025 199.142C746.336 199.596 745.529 199.824 744.605 199.824ZM744.407 190.43C743.762 190.43 743.227 190.672 742.801 191.156C742.391 191.64 742.127 192.322 742.009 193.202H746.695C746.549 192.204 746.285 191.493 745.903 191.068C745.522 190.642 745.023 190.43 744.407 190.43Z" fill="#F4B400"/>
<circle cx="457.378" cy="167.851" r="4" fill="#4285F4"/>
<circle cx="657.378" cy="181.13" r="4" fill="#4285F4"/>
<path d="M458 165.604C550.4 -136.796 629.167 47.6037 657 177.604" stroke="#4285F4" stroke-width="2"/>
<circle cx="306.911" cy="196.422" r="4" fill="#DB4437"/>
<circle cx="674.911" cy="207.422" r="4" fill="#DB4437"/>
<path d="M307.5 197C482.3 408.6 625.333 292.5 675 208" stroke="#DB4437" stroke-width="2"/>
<circle cx="121.278" cy="196.129" r="4" fill="#0F9D58"/>
<circle cx="688.278" cy="181.129" r="4" fill="#0F9D58"/>
<path d="M122 194.5C338 -117.1 589.333 55 688 180" stroke="#0F9D58" stroke-width="2"/>
</svg>
