<svg width="842" height="296" viewBox="0 0 842 296" fill="none" xmlns="http://www.w3.org/2000/svg">
<rect width="841.999" height="296" rx="16" fill="black"/>
<path d="M51.5379 164.071C50.7339 164.071 50.0499 163.903 49.4859 163.567C48.9219 163.231 48.4899 162.769 48.1899 162.181C47.8899 161.581 47.7399 160.891 47.7399 160.111C47.7399 159.247 47.9139 158.479 48.2619 157.807C48.6219 157.123 49.1079 156.589 49.7199 156.205C50.3439 155.809 51.0459 155.611 51.8259 155.611C52.3059 155.611 52.7559 155.689 53.1759 155.845C53.6079 155.989 53.9379 156.169 54.1659 156.385C54.2979 156.517 54.3939 156.631 54.4539 156.727C54.5259 156.823 54.5619 156.913 54.5619 156.997C54.5619 157.129 54.5019 157.243 54.3819 157.339L53.7699 157.843H53.6619L53.2119 157.231C52.9959 156.943 52.7439 156.709 52.4559 156.529C52.1679 156.337 51.8139 156.241 51.3939 156.241C50.6619 156.241 50.0679 156.529 49.6119 157.105C49.1679 157.669 48.9459 158.479 48.9459 159.535C48.9459 160.159 49.0539 160.735 49.2699 161.263C49.4859 161.779 49.8219 162.193 50.2779 162.505C50.7459 162.805 51.3519 162.955 52.0959 162.955C52.9839 162.955 53.7999 162.691 54.5439 162.163H54.5979V162.361C54.3219 162.841 53.9199 163.249 53.3919 163.585C52.8639 163.909 52.2459 164.071 51.5379 164.071ZM60.1524 164.071C59.3844 164.071 58.7124 163.885 58.1364 163.513C57.5604 163.141 57.1104 162.637 56.7864 162.001C56.4624 161.365 56.3004 160.645 56.3004 159.841C56.3004 159.037 56.4624 158.317 56.7864 157.681C57.1104 157.045 57.5604 156.541 58.1364 156.169C58.7124 155.797 59.3844 155.611 60.1524 155.611C60.9204 155.611 61.5924 155.797 62.1684 156.169C62.7444 156.541 63.1944 157.045 63.5184 157.681C63.8424 158.317 64.0044 159.037 64.0044 159.841C64.0044 160.645 63.8424 161.365 63.5184 162.001C63.1944 162.637 62.7444 163.141 62.1684 163.513C61.5924 163.885 60.9204 164.071 60.1524 164.071ZM60.4044 163.441C60.9084 163.441 61.3284 163.285 61.6644 162.973C62.0004 162.661 62.2524 162.259 62.4204 161.767C62.5884 161.263 62.6724 160.741 62.6724 160.201C62.6724 159.517 62.5704 158.875 62.3664 158.275C62.1744 157.663 61.8744 157.171 61.4664 156.799C61.0704 156.415 60.5604 156.223 59.9364 156.223C59.4324 156.223 59.0064 156.373 58.6584 156.673C58.3224 156.973 58.0644 157.369 57.8844 157.861C57.7164 158.353 57.6324 158.887 57.6324 159.463C57.6324 160.159 57.7344 160.813 57.9384 161.425C58.1424 162.025 58.4484 162.511 58.8564 162.883C59.2644 163.255 59.7804 163.441 60.4044 163.441ZM65.8102 163.891V163.603L66.9442 163.153V157.177L65.7562 156.565V156.367L67.8802 155.611H68.0062L68.1322 156.925H68.2222C68.6542 156.481 69.0622 156.151 69.4462 155.935C69.8422 155.719 70.2802 155.611 70.7602 155.611C71.3002 155.611 71.7682 155.731 72.1642 155.971C72.5722 156.211 72.8482 156.571 72.9922 157.051H73.0462C73.5262 156.559 73.9702 156.199 74.3782 155.971C74.7982 155.731 75.2602 155.611 75.7642 155.611C76.4602 155.611 77.0302 155.803 77.4742 156.187C77.9302 156.571 78.1582 157.129 78.1582 157.861V163.153L79.2922 163.603V163.891H75.6562V163.603L76.9342 163.153V158.563C76.9342 157.951 76.7602 157.489 76.4122 157.177C76.0762 156.853 75.6442 156.691 75.1162 156.691C74.7442 156.691 74.3722 156.763 74.0002 156.907C73.6402 157.039 73.3402 157.237 73.1002 157.501C73.1122 157.609 73.1182 157.729 73.1182 157.861V163.153L74.3242 163.603V163.891H70.6702V163.603L71.9122 163.153V158.563C71.9122 157.951 71.7442 157.489 71.4082 157.177C71.0722 156.853 70.6402 156.691 70.1122 156.691C69.8002 156.691 69.4522 156.763 69.0682 156.907C68.6962 157.039 68.3902 157.231 68.1502 157.483V163.153L69.3742 163.603V163.891H65.8102ZM80.8755 168.031V167.743L82.0095 167.293V157.177L80.8395 156.565V156.367L82.9455 155.611H83.0895L83.1975 156.709H83.3055C83.7615 156.325 84.1995 156.049 84.6195 155.881C85.0515 155.701 85.5135 155.611 86.0055 155.611C86.6055 155.611 87.1395 155.767 87.6075 156.079C88.0755 156.391 88.4415 156.835 88.7055 157.411C88.9815 157.975 89.1195 158.653 89.1195 159.445C89.1195 160.429 88.9335 161.269 88.5615 161.965C88.1895 162.649 87.6915 163.171 87.0675 163.531C86.4435 163.891 85.7535 164.071 84.9975 164.071C84.6735 164.071 84.3615 164.041 84.0615 163.981C83.7735 163.933 83.4975 163.867 83.2335 163.783V167.293L84.5115 167.743V168.031H80.8755ZM85.2135 156.601C84.4935 156.601 83.8335 156.829 83.2335 157.285V162.613C83.5935 162.889 83.9595 163.087 84.3315 163.207C84.7035 163.315 85.1115 163.369 85.5555 163.369C85.9875 163.369 86.3835 163.255 86.7435 163.027C87.1035 162.799 87.3915 162.433 87.6075 161.929C87.8235 161.413 87.9315 160.741 87.9315 159.913C87.9315 159.145 87.8055 158.521 87.5535 158.041C87.3015 157.549 86.9655 157.189 86.5455 156.961C86.1375 156.721 85.6935 156.601 85.2135 156.601ZM94.1166 164.071C93.4086 164.071 92.8206 163.879 92.3526 163.495C91.8966 163.111 91.6686 162.553 91.6686 161.821V156.529L90.4806 156.079V155.791H92.8926V161.119C92.8926 161.731 93.0666 162.199 93.4146 162.523C93.7626 162.835 94.2186 162.991 94.7826 162.991C95.1186 162.991 95.4786 162.925 95.8626 162.793C96.2586 162.661 96.5766 162.463 96.8166 162.199V156.529L95.4666 156.079V155.791H98.0406V163.171L99.3186 163.603V163.891H96.8166V162.775H96.7446C96.2886 163.231 95.8566 163.561 95.4486 163.765C95.0406 163.969 94.5966 164.071 94.1166 164.071ZM103.51 164.071C102.994 164.071 102.556 163.915 102.196 163.603C101.848 163.291 101.674 162.853 101.674 162.289V156.547H100.162V156.403L101.764 155.791L102.754 153.811H102.898V155.791H105.274V156.547H102.898V162.091C102.898 162.427 103.024 162.679 103.276 162.847C103.528 163.003 103.846 163.081 104.23 163.081C104.47 163.081 104.692 163.063 104.896 163.027C105.1 162.979 105.286 162.925 105.454 162.865L105.49 162.883V163.009C105.37 163.249 105.142 163.489 104.806 163.729C104.482 163.957 104.05 164.071 103.51 164.071ZM110.741 164.071C109.937 164.071 109.247 163.903 108.671 163.567C108.107 163.231 107.675 162.769 107.375 162.181C107.075 161.581 106.925 160.891 106.925 160.111C106.925 159.247 107.099 158.479 107.447 157.807C107.795 157.123 108.257 156.589 108.833 156.205C109.409 155.809 110.033 155.611 110.705 155.611C111.653 155.611 112.397 155.935 112.937 156.583C113.477 157.231 113.765 158.143 113.801 159.319L113.729 159.391H108.131C108.131 159.439 108.131 159.487 108.131 159.535C108.131 160.159 108.239 160.735 108.455 161.263C108.671 161.779 109.013 162.193 109.481 162.505C109.949 162.805 110.555 162.955 111.299 162.955C112.187 162.955 113.003 162.691 113.747 162.163H113.801V162.361C113.537 162.841 113.135 163.249 112.595 163.585C112.067 163.909 111.449 164.071 110.741 164.071ZM110.435 156.241C109.859 156.241 109.367 156.463 108.959 156.907C108.551 157.339 108.293 157.951 108.185 158.743H112.577C112.337 157.075 111.623 156.241 110.435 156.241ZM115.735 163.891V163.603L116.869 163.153V157.177L115.699 156.565V156.367L117.805 155.611H117.949L118.075 157.177H118.129C118.489 156.709 118.789 156.367 119.029 156.151C119.281 155.923 119.509 155.779 119.713 155.719C119.917 155.647 120.121 155.611 120.325 155.611C120.421 155.611 120.529 155.629 120.649 155.665C120.769 155.689 120.865 155.719 120.937 155.755C121.069 155.803 121.177 155.863 121.261 155.935C121.345 156.007 121.387 156.085 121.387 156.169C121.387 156.205 121.381 156.247 121.369 156.295C121.369 156.343 121.357 156.391 121.333 156.439L121.045 157.159H120.955L120.415 156.925C120.199 156.841 119.959 156.799 119.695 156.799C119.395 156.799 119.113 156.877 118.849 157.033C118.585 157.189 118.333 157.447 118.093 157.807V163.153L119.407 163.603V163.891H115.735ZM61.0835 191.071C60.5795 191.071 60.1355 191.023 59.7515 190.927C59.3795 190.831 59.0015 190.687 58.6175 190.495V188.533H58.8515L59.3015 189.451C59.4575 189.787 59.6795 190.051 59.9675 190.243C60.2675 190.423 60.6515 190.513 61.1195 190.513C61.6475 190.513 62.0495 190.393 62.3255 190.153C62.6135 189.901 62.7575 189.547 62.7575 189.091C62.7575 188.599 62.5955 188.233 62.2715 187.993C61.9475 187.753 61.4675 187.495 60.8315 187.219C60.1715 186.943 59.6735 186.637 59.3375 186.301C59.0015 185.965 58.8335 185.491 58.8335 184.879C58.8335 184.471 58.9475 184.093 59.1755 183.745C59.4155 183.397 59.7215 183.121 60.0935 182.917C60.4655 182.713 60.8555 182.611 61.2635 182.611C61.7195 182.611 62.1275 182.665 62.4875 182.773C62.8475 182.881 63.1895 183.019 63.5135 183.187V185.095H63.2795L62.8295 184.213C62.6735 183.841 62.4515 183.577 62.1635 183.421C61.8875 183.265 61.5995 183.187 61.2995 183.187C60.8675 183.187 60.5255 183.307 60.2735 183.547C60.0335 183.775 59.9135 184.087 59.9135 184.483C59.9135 184.891 60.0515 185.215 60.3275 185.455C60.6155 185.683 61.0475 185.923 61.6235 186.175C62.0315 186.355 62.4035 186.541 62.7395 186.733C63.0755 186.913 63.3395 187.153 63.5315 187.453C63.7355 187.753 63.8375 188.167 63.8375 188.695C63.8375 189.175 63.7055 189.595 63.4415 189.955C63.1775 190.303 62.8355 190.579 62.4155 190.783C61.9955 190.975 61.5515 191.071 61.0835 191.071ZM69.7576 191.071C68.9536 191.071 68.2696 190.903 67.7056 190.567C67.1416 190.231 66.7096 189.769 66.4096 189.181C66.1096 188.581 65.9596 187.891 65.9596 187.111C65.9596 186.247 66.1336 185.479 66.4816 184.807C66.8416 184.123 67.3276 183.589 67.9396 183.205C68.5636 182.809 69.2656 182.611 70.0456 182.611C70.5256 182.611 70.9756 182.689 71.3956 182.845C71.8276 182.989 72.1576 183.169 72.3856 183.385C72.5176 183.517 72.6136 183.631 72.6736 183.727C72.7456 183.823 72.7816 183.913 72.7816 183.997C72.7816 184.129 72.7216 184.243 72.6016 184.339L71.9896 184.843H71.8816L71.4316 184.231C71.2156 183.943 70.9636 183.709 70.6756 183.529C70.3876 183.337 70.0336 183.241 69.6136 183.241C68.8816 183.241 68.2876 183.529 67.8316 184.105C67.3876 184.669 67.1656 185.479 67.1656 186.535C67.1656 187.159 67.2736 187.735 67.4896 188.263C67.7056 188.779 68.0416 189.193 68.4976 189.505C68.9656 189.805 69.5716 189.955 70.3156 189.955C71.2036 189.955 72.0196 189.691 72.7636 189.163H72.8176V189.361C72.5416 189.841 72.1396 190.249 71.6116 190.585C71.0836 190.909 70.4656 191.071 69.7576 191.071ZM76.2662 180.163C76.0022 180.163 75.7802 180.079 75.6002 179.911C75.4322 179.731 75.3482 179.509 75.3482 179.245C75.3482 178.969 75.4322 178.747 75.6002 178.579C75.7802 178.411 76.0022 178.327 76.2662 178.327C76.5422 178.327 76.7642 178.411 76.9322 178.579C77.1002 178.747 77.1842 178.969 77.1842 179.245C77.1842 179.509 77.1002 179.731 76.9322 179.911C76.7642 180.079 76.5422 180.163 76.2662 180.163ZM74.6642 190.891V190.603L75.7982 190.153V184.177L74.6282 183.475V183.295L76.8782 182.611H77.0222V190.153L78.2102 190.603V190.891H74.6642ZM83.8733 191.071C83.0693 191.071 82.3793 190.903 81.8033 190.567C81.2393 190.231 80.8073 189.769 80.5073 189.181C80.2073 188.581 80.0573 187.891 80.0573 187.111C80.0573 186.247 80.2313 185.479 80.5793 184.807C80.9273 184.123 81.3893 183.589 81.9653 183.205C82.5413 182.809 83.1653 182.611 83.8373 182.611C84.7853 182.611 85.5293 182.935 86.0693 183.583C86.6093 184.231 86.8973 185.143 86.9333 186.319L86.8613 186.391H81.2633C81.2633 186.439 81.2633 186.487 81.2633 186.535C81.2633 187.159 81.3713 187.735 81.5873 188.263C81.8033 188.779 82.1453 189.193 82.6133 189.505C83.0813 189.805 83.6873 189.955 84.4313 189.955C85.3193 189.955 86.1353 189.691 86.8793 189.163H86.9333V189.361C86.6693 189.841 86.2673 190.249 85.7273 190.585C85.1993 190.909 84.5813 191.071 83.8733 191.071ZM83.5673 183.241C82.9913 183.241 82.4993 183.463 82.0913 183.907C81.6833 184.339 81.4253 184.951 81.3173 185.743H85.7093C85.4693 184.075 84.7553 183.241 83.5673 183.241ZM88.7945 190.891V190.603L89.9285 190.153V184.177L88.7585 183.565V183.367L90.8645 182.611H91.0085L91.1345 183.925H91.2065C91.6625 183.481 92.0945 183.151 92.5025 182.935C92.9225 182.719 93.3845 182.611 93.8885 182.611C94.6085 182.611 95.2025 182.803 95.6705 183.187C96.1385 183.571 96.3725 184.129 96.3725 184.861V190.153L97.5065 190.603V190.891H93.8705V190.603L95.1485 190.153V185.563C95.1485 184.951 94.9685 184.489 94.6085 184.177C94.2485 183.853 93.7865 183.691 93.2225 183.691C92.8865 183.691 92.5145 183.763 92.1065 183.907C91.7105 184.039 91.3925 184.231 91.1525 184.483V190.153L92.4305 190.603V190.891H88.7945ZM102.892 191.071C102.088 191.071 101.404 190.903 100.84 190.567C100.276 190.231 99.8444 189.769 99.5444 189.181C99.2444 188.581 99.0944 187.891 99.0944 187.111C99.0944 186.247 99.2684 185.479 99.6164 184.807C99.9764 184.123 100.462 183.589 101.074 183.205C101.698 182.809 102.4 182.611 103.18 182.611C103.66 182.611 104.11 182.689 104.53 182.845C104.962 182.989 105.292 183.169 105.52 183.385C105.652 183.517 105.748 183.631 105.808 183.727C105.88 183.823 105.916 183.913 105.916 183.997C105.916 184.129 105.856 184.243 105.736 184.339L105.124 184.843H105.016L104.566 184.231C104.35 183.943 104.098 183.709 103.81 183.529C103.522 183.337 103.168 183.241 102.748 183.241C102.016 183.241 101.422 183.529 100.966 184.105C100.522 184.669 100.3 185.479 100.3 186.535C100.3 187.159 100.408 187.735 100.624 188.263C100.84 188.779 101.176 189.193 101.632 189.505C102.1 189.805 102.706 189.955 103.45 189.955C104.338 189.955 105.154 189.691 105.898 189.163H105.952V189.361C105.676 189.841 105.274 190.249 104.746 190.585C104.218 190.909 103.6 191.071 102.892 191.071ZM111.471 191.071C110.667 191.071 109.977 190.903 109.401 190.567C108.837 190.231 108.405 189.769 108.105 189.181C107.805 188.581 107.655 187.891 107.655 187.111C107.655 186.247 107.829 185.479 108.177 184.807C108.525 184.123 108.987 183.589 109.563 183.205C110.139 182.809 110.763 182.611 111.435 182.611C112.383 182.611 113.127 182.935 113.667 183.583C114.207 184.231 114.495 185.143 114.531 186.319L114.459 186.391H108.861C108.861 186.439 108.861 186.487 108.861 186.535C108.861 187.159 108.969 187.735 109.185 188.263C109.401 188.779 109.743 189.193 110.211 189.505C110.679 189.805 111.285 189.955 112.029 189.955C112.917 189.955 113.733 189.691 114.477 189.163H114.531V189.361C114.267 189.841 113.865 190.249 113.325 190.585C112.797 190.909 112.179 191.071 111.471 191.071ZM111.165 183.241C110.589 183.241 110.097 183.463 109.689 183.907C109.281 184.339 109.023 184.951 108.915 185.743H113.307C113.067 184.075 112.353 183.241 111.165 183.241Z" fill="white"/>
<path d="M266.569 163.891V163.603L267.703 163.153V151.957L266.533 151.255V151.075L268.783 150.391H268.927V163.153L270.115 163.603V163.891H266.569ZM273.555 153.163C273.291 153.163 273.069 153.079 272.889 152.911C272.721 152.731 272.637 152.509 272.637 152.245C272.637 151.969 272.721 151.747 272.889 151.579C273.069 151.411 273.291 151.327 273.555 151.327C273.831 151.327 274.053 151.411 274.221 151.579C274.389 151.747 274.473 151.969 274.473 152.245C274.473 152.509 274.389 152.731 274.221 152.911C274.053 153.079 273.831 153.163 273.555 153.163ZM271.953 163.891V163.603L273.087 163.153V157.177L271.917 156.475V156.295L274.167 155.611H274.311V163.153L275.499 163.603V163.891H271.953ZM280.118 164.071C279.602 164.071 279.164 163.915 278.804 163.603C278.456 163.291 278.282 162.853 278.282 162.289V156.547H276.77V156.403L278.372 155.791L279.362 153.811H279.506V155.791H281.882V156.547H279.506V162.091C279.506 162.427 279.632 162.679 279.884 162.847C280.136 163.003 280.454 163.081 280.838 163.081C281.078 163.081 281.3 163.063 281.504 163.027C281.708 162.979 281.894 162.925 282.062 162.865L282.098 162.883V163.009C281.978 163.249 281.75 163.489 281.414 163.729C281.09 163.957 280.658 164.071 280.118 164.071ZM287.349 164.071C286.545 164.071 285.855 163.903 285.279 163.567C284.715 163.231 284.283 162.769 283.983 162.181C283.683 161.581 283.533 160.891 283.533 160.111C283.533 159.247 283.707 158.479 284.055 157.807C284.403 157.123 284.865 156.589 285.441 156.205C286.017 155.809 286.641 155.611 287.313 155.611C288.261 155.611 289.005 155.935 289.545 156.583C290.085 157.231 290.373 158.143 290.409 159.319L290.337 159.391H284.739C284.739 159.439 284.739 159.487 284.739 159.535C284.739 160.159 284.847 160.735 285.063 161.263C285.279 161.779 285.621 162.193 286.089 162.505C286.557 162.805 287.163 162.955 287.907 162.955C288.795 162.955 289.611 162.691 290.355 162.163H290.409V162.361C290.145 162.841 289.743 163.249 289.203 163.585C288.675 163.909 288.057 164.071 287.349 164.071ZM287.043 156.241C286.467 156.241 285.975 156.463 285.567 156.907C285.159 157.339 284.901 157.951 284.793 158.743H289.185C288.945 157.075 288.231 156.241 287.043 156.241ZM292.342 163.891V163.603L293.476 163.153V157.177L292.306 156.565V156.367L294.412 155.611H294.556L294.682 157.177H294.736C295.096 156.709 295.396 156.367 295.636 156.151C295.888 155.923 296.116 155.779 296.32 155.719C296.524 155.647 296.728 155.611 296.932 155.611C297.028 155.611 297.136 155.629 297.256 155.665C297.376 155.689 297.472 155.719 297.544 155.755C297.676 155.803 297.784 155.863 297.868 155.935C297.952 156.007 297.994 156.085 297.994 156.169C297.994 156.205 297.988 156.247 297.976 156.295C297.976 156.343 297.964 156.391 297.94 156.439L297.652 157.159H297.562L297.022 156.925C296.806 156.841 296.566 156.799 296.302 156.799C296.002 156.799 295.72 156.877 295.456 157.033C295.192 157.189 294.94 157.447 294.7 157.807V163.153L296.014 163.603V163.891H292.342ZM301.121 164.071C300.557 164.071 300.089 163.909 299.717 163.585C299.345 163.249 299.159 162.787 299.159 162.199C299.159 161.611 299.375 161.113 299.807 160.705C300.239 160.297 300.953 159.973 301.949 159.733L303.695 159.301V157.915C303.695 157.459 303.515 157.081 303.155 156.781C302.807 156.481 302.417 156.331 301.985 156.331C301.505 156.331 301.169 156.445 300.977 156.673C300.785 156.901 300.689 157.213 300.689 157.609V158.203L300.599 158.293H299.843C299.663 158.293 299.537 158.269 299.465 158.221C299.405 158.161 299.375 158.029 299.375 157.825C299.375 157.573 299.453 157.315 299.609 157.051C299.765 156.787 299.999 156.559 300.311 156.367C300.647 156.151 300.989 155.971 301.337 155.827C301.697 155.683 302.057 155.611 302.417 155.611C302.873 155.611 303.287 155.677 303.659 155.809C304.031 155.929 304.331 156.133 304.559 156.421C304.787 156.709 304.901 157.093 304.901 157.573V162.883C304.997 162.979 305.117 163.051 305.261 163.099C305.405 163.147 305.591 163.171 305.819 163.171H306.611L306.647 163.207V163.243C306.527 163.447 306.341 163.639 306.089 163.819C305.849 163.987 305.543 164.071 305.171 164.071C304.787 164.071 304.481 163.969 304.253 163.765C304.025 163.561 303.869 163.303 303.785 162.991H303.695C303.383 163.303 302.999 163.561 302.543 163.765C302.099 163.969 301.625 164.071 301.121 164.071ZM300.365 161.857C300.365 162.277 300.491 162.595 300.743 162.811C300.995 163.015 301.349 163.117 301.805 163.117C302.105 163.117 302.411 163.081 302.723 163.009C303.035 162.937 303.359 162.817 303.695 162.649V159.823C302.723 160.015 301.997 160.213 301.517 160.417C301.049 160.621 300.737 160.843 300.581 161.083C300.437 161.311 300.365 161.569 300.365 161.857ZM307.846 163.891V163.603L308.98 163.153V157.177L307.81 156.565V156.367L309.916 155.611H310.06L310.186 157.177H310.24C310.6 156.709 310.9 156.367 311.14 156.151C311.392 155.923 311.62 155.779 311.824 155.719C312.028 155.647 312.232 155.611 312.436 155.611C312.532 155.611 312.64 155.629 312.76 155.665C312.88 155.689 312.976 155.719 313.048 155.755C313.18 155.803 313.288 155.863 313.372 155.935C313.456 156.007 313.498 156.085 313.498 156.169C313.498 156.205 313.492 156.247 313.48 156.295C313.48 156.343 313.468 156.391 313.444 156.439L313.156 157.159H313.066L312.526 156.925C312.31 156.841 312.07 156.799 311.806 156.799C311.506 156.799 311.224 156.877 310.96 157.033C310.696 157.189 310.444 157.447 310.204 157.807V163.153L311.518 163.603V163.891H307.846ZM315.251 168.229C314.987 168.229 314.819 168.187 314.747 168.103C314.687 168.031 314.657 167.899 314.657 167.707V167.005L314.729 166.933H315.557C315.857 166.933 316.085 166.903 316.241 166.843C316.397 166.795 316.541 166.663 316.673 166.447C316.805 166.231 316.991 165.871 317.231 165.367L317.969 163.729L314.819 156.547L313.649 156.079V155.791H317.609V156.079L316.169 156.529V156.601L318.563 162.217H318.617L320.705 156.673V156.583L319.319 156.079V155.791H322.703V156.079L321.443 156.565L317.807 165.529C317.639 165.925 317.501 166.237 317.393 166.465C317.285 166.693 317.123 166.963 316.907 167.275C316.679 167.587 316.421 167.821 316.133 167.977C315.845 168.145 315.551 168.229 315.251 168.229ZM272.541 191.071C272.025 191.071 271.587 190.915 271.227 190.603C270.879 190.291 270.705 189.853 270.705 189.289V183.547H269.193V183.403L270.795 182.791L271.785 180.811H271.929V182.791H274.305V183.547H271.929V189.091C271.929 189.427 272.055 189.679 272.307 189.847C272.559 190.003 272.877 190.081 273.261 190.081C273.501 190.081 273.723 190.063 273.927 190.027C274.131 189.979 274.317 189.925 274.485 189.865L274.521 189.883V190.009C274.401 190.249 274.173 190.489 273.837 190.729C273.513 190.957 273.081 191.071 272.541 191.071ZM275.993 190.891V190.603L277.127 190.153V178.957L275.957 178.255V178.075L278.207 177.391H278.351V183.925H278.405C278.861 183.481 279.293 183.151 279.701 182.935C280.121 182.719 280.583 182.611 281.087 182.611C281.807 182.611 282.401 182.803 282.869 183.187C283.337 183.571 283.571 184.129 283.571 184.861V190.153L284.705 190.603V190.891H281.069V190.603L282.347 190.171V185.563C282.347 184.951 282.167 184.489 281.807 184.177C281.447 183.853 280.985 183.691 280.421 183.691C280.085 183.691 279.713 183.763 279.305 183.907C278.909 184.039 278.591 184.231 278.351 184.483V190.171L279.629 190.603V190.891H275.993ZM290.109 191.071C289.305 191.071 288.615 190.903 288.039 190.567C287.475 190.231 287.043 189.769 286.743 189.181C286.443 188.581 286.293 187.891 286.293 187.111C286.293 186.247 286.467 185.479 286.815 184.807C287.163 184.123 287.625 183.589 288.201 183.205C288.777 182.809 289.401 182.611 290.073 182.611C291.021 182.611 291.765 182.935 292.305 183.583C292.845 184.231 293.133 185.143 293.169 186.319L293.097 186.391H287.499C287.499 186.439 287.499 186.487 287.499 186.535C287.499 187.159 287.607 187.735 287.823 188.263C288.039 188.779 288.381 189.193 288.849 189.505C289.317 189.805 289.923 189.955 290.667 189.955C291.555 189.955 292.371 189.691 293.115 189.163H293.169V189.361C292.905 189.841 292.503 190.249 291.963 190.585C291.435 190.909 290.817 191.071 290.109 191.071ZM289.803 183.241C289.227 183.241 288.735 183.463 288.327 183.907C287.919 184.339 287.661 184.951 287.553 185.743H291.945C291.705 184.075 290.991 183.241 289.803 183.241ZM298.916 191.071C298.148 191.071 297.476 190.885 296.9 190.513C296.324 190.141 295.874 189.637 295.55 189.001C295.226 188.365 295.064 187.645 295.064 186.841C295.064 186.037 295.226 185.317 295.55 184.681C295.874 184.045 296.324 183.541 296.9 183.169C297.476 182.797 298.148 182.611 298.916 182.611C299.684 182.611 300.356 182.797 300.932 183.169C301.508 183.541 301.958 184.045 302.282 184.681C302.606 185.317 302.768 186.037 302.768 186.841C302.768 187.645 302.606 188.365 302.282 189.001C301.958 189.637 301.508 190.141 300.932 190.513C300.356 190.885 299.684 191.071 298.916 191.071ZM299.168 190.441C299.672 190.441 300.092 190.285 300.428 189.973C300.764 189.661 301.016 189.259 301.184 188.767C301.352 188.263 301.436 187.741 301.436 187.201C301.436 186.517 301.334 185.875 301.13 185.275C300.938 184.663 300.638 184.171 300.23 183.799C299.834 183.415 299.324 183.223 298.7 183.223C298.196 183.223 297.77 183.373 297.422 183.673C297.086 183.973 296.828 184.369 296.648 184.861C296.48 185.353 296.396 185.887 296.396 186.463C296.396 187.159 296.498 187.813 296.702 188.425C296.906 189.025 297.212 189.511 297.62 189.883C298.028 190.255 298.544 190.441 299.168 190.441ZM304.682 190.891V190.603L305.816 190.153V184.177L304.646 183.565V183.367L306.752 182.611H306.896L307.022 184.177H307.076C307.436 183.709 307.736 183.367 307.976 183.151C308.228 182.923 308.456 182.779 308.66 182.719C308.864 182.647 309.068 182.611 309.272 182.611C309.368 182.611 309.476 182.629 309.596 182.665C309.716 182.689 309.812 182.719 309.884 182.755C310.016 182.803 310.124 182.863 310.208 182.935C310.292 183.007 310.334 183.085 310.334 183.169C310.334 183.205 310.328 183.247 310.316 183.295C310.316 183.343 310.304 183.391 310.28 183.439L309.992 184.159H309.902L309.362 183.925C309.146 183.841 308.906 183.799 308.642 183.799C308.342 183.799 308.06 183.877 307.796 184.033C307.532 184.189 307.28 184.447 307.04 184.807V190.153L308.354 190.603V190.891H304.682ZM312.087 195.229C311.823 195.229 311.655 195.187 311.583 195.103C311.523 195.031 311.493 194.899 311.493 194.707V194.005L311.565 193.933H312.393C312.693 193.933 312.921 193.903 313.077 193.843C313.233 193.795 313.377 193.663 313.509 193.447C313.641 193.231 313.827 192.871 314.067 192.367L314.805 190.729L311.655 183.547L310.485 183.079V182.791H314.445V183.079L313.005 183.529V183.601L315.399 189.217H315.453L317.541 183.673V183.583L316.155 183.079V182.791H319.539V183.079L318.279 183.565L314.643 192.529C314.475 192.925 314.337 193.237 314.229 193.465C314.121 193.693 313.959 193.963 313.743 194.275C313.515 194.587 313.257 194.821 312.969 194.977C312.681 195.145 312.387 195.229 312.087 195.229Z" fill="white"/>
<path d="M488.72 164.071C488.012 164.071 487.424 163.879 486.956 163.495C486.5 163.111 486.272 162.553 486.272 161.821V156.529L485.084 156.079V155.791H487.496V161.119C487.496 161.731 487.67 162.199 488.018 162.523C488.366 162.835 488.822 162.991 489.386 162.991C489.722 162.991 490.082 162.925 490.466 162.793C490.862 162.661 491.18 162.463 491.42 162.199V156.529L490.07 156.079V155.791H492.644V163.171L493.922 163.603V163.891H491.42V162.775H491.348C490.892 163.231 490.46 163.561 490.052 163.765C489.644 163.969 489.2 164.071 488.72 164.071ZM494.91 163.891V163.603L495.918 163.117L498.24 159.859L495.918 156.529L495 156.079V155.791H498.51V156.079L497.322 156.511V156.601L499.05 159.085L500.58 156.673V156.583L499.572 156.079V155.791H502.38V156.079L501.408 156.601L499.32 159.481L501.876 163.153L502.686 163.603V163.891H499.41V163.603L500.472 163.171V163.081L498.528 160.291L496.818 163.009V163.099L497.88 163.603V163.891H494.91ZM474.293 191.071C473.693 191.071 473.159 190.921 472.691 190.621C472.223 190.321 471.851 189.889 471.575 189.325C471.311 188.761 471.179 188.095 471.179 187.327C471.179 186.319 471.371 185.467 471.755 184.771C472.151 184.063 472.673 183.529 473.321 183.169C473.981 182.797 474.695 182.611 475.463 182.611C475.775 182.611 476.063 182.635 476.327 182.683C476.591 182.731 476.837 182.797 477.065 182.881V178.957L475.841 178.255V178.075L478.145 177.391H478.289V190.171L479.567 190.603V190.891H477.245L477.083 189.973H476.993C476.549 190.345 476.111 190.621 475.679 190.801C475.247 190.981 474.785 191.071 474.293 191.071ZM472.367 186.967C472.367 187.687 472.493 188.275 472.745 188.731C472.997 189.187 473.327 189.529 473.735 189.757C474.155 189.973 474.605 190.081 475.085 190.081C475.421 190.081 475.757 190.027 476.093 189.919C476.441 189.799 476.765 189.625 477.065 189.397V184.033C476.741 183.805 476.423 183.631 476.111 183.511C475.799 183.391 475.451 183.331 475.067 183.331C474.587 183.331 474.137 183.451 473.717 183.691C473.309 183.931 472.979 184.321 472.727 184.861C472.487 185.389 472.367 186.091 472.367 186.967ZM485.016 191.071C484.212 191.071 483.522 190.903 482.946 190.567C482.382 190.231 481.95 189.769 481.65 189.181C481.35 188.581 481.2 187.891 481.2 187.111C481.2 186.247 481.374 185.479 481.722 184.807C482.07 184.123 482.532 183.589 483.108 183.205C483.684 182.809 484.308 182.611 484.98 182.611C485.928 182.611 486.672 182.935 487.212 183.583C487.752 184.231 488.04 185.143 488.076 186.319L488.004 186.391H482.406C482.406 186.439 482.406 186.487 482.406 186.535C482.406 187.159 482.514 187.735 482.73 188.263C482.946 188.779 483.288 189.193 483.756 189.505C484.224 189.805 484.83 189.955 485.574 189.955C486.462 189.955 487.278 189.691 488.022 189.163H488.076V189.361C487.812 189.841 487.41 190.249 486.87 190.585C486.342 190.909 485.724 191.071 485.016 191.071ZM484.71 183.241C484.134 183.241 483.642 183.463 483.234 183.907C482.826 184.339 482.568 184.951 482.46 185.743H486.852C486.612 184.075 485.898 183.241 484.71 183.241ZM492.601 191.071C492.097 191.071 491.653 191.023 491.269 190.927C490.897 190.831 490.519 190.687 490.135 190.495V188.533H490.369L490.819 189.451C490.975 189.787 491.197 190.051 491.485 190.243C491.785 190.423 492.169 190.513 492.637 190.513C493.165 190.513 493.567 190.393 493.843 190.153C494.131 189.901 494.275 189.547 494.275 189.091C494.275 188.599 494.113 188.233 493.789 187.993C493.465 187.753 492.985 187.495 492.349 187.219C491.689 186.943 491.191 186.637 490.855 186.301C490.519 185.965 490.351 185.491 490.351 184.879C490.351 184.471 490.465 184.093 490.693 183.745C490.933 183.397 491.239 183.121 491.611 182.917C491.983 182.713 492.373 182.611 492.781 182.611C493.237 182.611 493.645 182.665 494.005 182.773C494.365 182.881 494.707 183.019 495.031 183.187V185.095H494.797L494.347 184.213C494.191 183.841 493.969 183.577 493.681 183.421C493.405 183.265 493.117 183.187 492.817 183.187C492.385 183.187 492.043 183.307 491.791 183.547C491.551 183.775 491.431 184.087 491.431 184.483C491.431 184.891 491.569 185.215 491.845 185.455C492.133 185.683 492.565 185.923 493.141 186.175C493.549 186.355 493.921 186.541 494.257 186.733C494.593 186.913 494.857 187.153 495.049 187.453C495.253 187.753 495.355 188.167 495.355 188.695C495.355 189.175 495.223 189.595 494.959 189.955C494.695 190.303 494.353 190.579 493.933 190.783C493.513 190.975 493.069 191.071 492.601 191.071ZM499.223 180.163C498.959 180.163 498.737 180.079 498.557 179.911C498.389 179.731 498.305 179.509 498.305 179.245C498.305 178.969 498.389 178.747 498.557 178.579C498.737 178.411 498.959 178.327 499.223 178.327C499.499 178.327 499.721 178.411 499.889 178.579C500.057 178.747 500.141 178.969 500.141 179.245C500.141 179.509 500.057 179.731 499.889 179.911C499.721 180.079 499.499 180.163 499.223 180.163ZM497.621 190.891V190.603L498.755 190.153V184.177L497.585 183.475V183.295L499.835 182.611H499.979V190.153L501.167 190.603V190.891H497.621ZM506.561 188.263C506.105 188.263 505.685 188.185 505.301 188.029C504.977 188.149 504.755 188.293 504.635 188.461C504.515 188.629 504.455 188.821 504.455 189.037C504.455 189.385 504.569 189.643 504.797 189.811C505.037 189.967 505.415 190.045 505.931 190.045H508.037C508.841 190.045 509.441 190.231 509.837 190.603C510.245 190.963 510.449 191.485 510.449 192.169C510.449 192.673 510.275 193.153 509.927 193.609C509.591 194.077 509.111 194.461 508.487 194.761C507.875 195.061 507.149 195.211 506.309 195.211C505.205 195.211 504.413 195.001 503.933 194.581C503.453 194.173 503.213 193.669 503.213 193.069C503.213 192.637 503.315 192.253 503.519 191.917L504.707 191.053V190.999C504.287 190.903 503.963 190.729 503.735 190.477C503.507 190.213 503.393 189.901 503.393 189.541C503.393 189.097 503.537 188.737 503.825 188.461L504.833 187.903V187.795C504.425 187.543 504.101 187.213 503.861 186.805C503.633 186.397 503.519 185.941 503.519 185.437C503.519 184.897 503.651 184.417 503.915 183.997C504.179 183.565 504.539 183.229 504.995 182.989C505.451 182.737 505.973 182.611 506.561 182.611C506.813 182.611 507.083 182.641 507.371 182.701C507.671 182.761 507.929 182.839 508.145 182.935L510.755 182.791V183.673L509.009 183.547L508.955 183.601C509.147 183.817 509.303 184.093 509.423 184.429C509.543 184.765 509.603 185.101 509.603 185.437C509.603 185.977 509.471 186.463 509.207 186.895C508.943 187.315 508.583 187.651 508.127 187.903C507.671 188.143 507.149 188.263 506.561 188.263ZM506.741 187.687C507.233 187.687 507.623 187.483 507.911 187.075C508.199 186.655 508.343 186.127 508.343 185.491C508.343 184.759 508.157 184.189 507.785 183.781C507.425 183.373 506.975 183.169 506.435 183.169C505.907 183.169 505.493 183.385 505.193 183.817C504.905 184.237 504.761 184.759 504.761 185.383C504.761 186.091 504.947 186.655 505.319 187.075C505.691 187.483 506.165 187.687 506.741 187.687ZM504.311 192.871C504.311 193.411 504.527 193.855 504.959 194.203C505.391 194.563 505.919 194.743 506.543 194.743C507.095 194.743 507.581 194.635 508.001 194.419C508.421 194.215 508.751 193.939 508.991 193.591C509.231 193.255 509.351 192.895 509.351 192.511C509.351 191.959 509.207 191.581 508.919 191.377C508.631 191.173 508.115 191.071 507.371 191.071H505.463C505.367 191.071 505.277 191.065 505.193 191.053C504.857 191.257 504.623 191.503 504.491 191.791C504.371 192.091 504.311 192.451 504.311 192.871ZM512.49 190.891V190.603L513.624 190.153V184.177L512.454 183.565V183.367L514.56 182.611H514.704L514.83 183.925H514.902C515.358 183.481 515.79 183.151 516.198 182.935C516.618 182.719 517.08 182.611 517.584 182.611C518.304 182.611 518.898 182.803 519.366 183.187C519.834 183.571 520.068 184.129 520.068 184.861V190.153L521.202 190.603V190.891H517.566V190.603L518.844 190.153V185.563C518.844 184.951 518.664 184.489 518.304 184.177C517.944 183.853 517.482 183.691 516.918 183.691C516.582 183.691 516.21 183.763 515.802 183.907C515.406 184.039 515.088 184.231 514.848 184.483V190.153L516.126 190.603V190.891H512.49Z" fill="white"/>
<path d="M709.808 178.111C708.943 178.111 708.231 177.891 707.674 177.451C707.131 177.011 706.86 176.366 706.86 175.515V169.003L705.452 168.321V167.969H708.928V174.503C708.928 175.119 709.111 175.589 709.478 175.911C709.859 176.234 710.351 176.395 710.952 176.395C711.319 176.395 711.722 176.337 712.162 176.219C712.602 176.087 712.954 175.897 713.218 175.647V169.003L711.722 168.321V167.969H715.308V176.901L716.826 177.539V177.891H713.218V176.505H713.108C712.565 177.048 712.037 177.451 711.524 177.715C711.011 177.979 710.439 178.111 709.808 178.111ZM717.934 177.891V177.539L719.122 176.791L722.026 173.051L719.056 168.981L718.022 168.321V167.969H722.906V168.321L721.476 168.959V169.091L723.434 171.753L725.194 169.223V169.091L723.984 168.321V167.969H727.702V168.321L726.536 169.069L723.918 172.413L727.174 176.879L728.076 177.539V177.891H723.434V177.539L724.732 176.901V176.769L722.51 173.733L720.508 176.637V176.769L721.85 177.539V177.891H717.934ZM738.763 178.111C738.059 178.111 737.451 178.045 736.937 177.913C736.439 177.796 735.933 177.605 735.419 177.341V174.877H735.749L736.453 176.065C736.937 176.872 737.685 177.275 738.697 177.275C739.284 177.275 739.731 177.143 740.039 176.879C740.362 176.615 740.523 176.249 740.523 175.779C740.523 175.398 740.421 175.09 740.215 174.855C740.025 174.621 739.739 174.415 739.357 174.239C738.991 174.063 738.543 173.851 738.015 173.601C737.253 173.264 736.666 172.89 736.255 172.479C735.859 172.069 735.661 171.504 735.661 170.785C735.661 170.213 735.815 169.7 736.123 169.245C736.446 168.791 736.857 168.431 737.355 168.167C737.854 167.889 738.382 167.749 738.939 167.749C739.467 167.749 739.966 167.815 740.435 167.947C740.905 168.065 741.367 168.241 741.821 168.475V170.917H741.513L740.787 169.773C740.303 169.011 739.709 168.629 739.005 168.629C738.521 168.629 738.133 168.754 737.839 169.003C737.546 169.238 737.399 169.568 737.399 169.993C737.399 170.463 737.568 170.829 737.905 171.093C738.257 171.343 738.8 171.629 739.533 171.951C739.959 172.142 740.377 172.347 740.787 172.567C741.198 172.773 741.535 173.066 741.799 173.447C742.078 173.814 742.217 174.342 742.217 175.031C742.217 175.706 742.034 176.271 741.667 176.725C741.315 177.18 740.875 177.525 740.347 177.759C739.819 177.994 739.291 178.111 738.763 178.111ZM749.293 178.111C747.87 178.111 746.741 177.679 745.905 176.813C745.069 175.948 744.651 174.797 744.651 173.359C744.651 172.274 744.871 171.306 745.311 170.455C745.766 169.605 746.382 168.945 747.159 168.475C747.936 167.991 748.824 167.749 749.821 167.749C750.437 167.749 751.024 167.852 751.581 168.057C752.138 168.248 752.564 168.505 752.857 168.827C753.077 169.091 753.187 169.311 753.187 169.487C753.187 169.605 753.165 169.7 753.121 169.773C753.092 169.832 753.026 169.913 752.923 170.015L752.021 170.741H751.867L751.119 169.729C750.899 169.421 750.635 169.179 750.327 169.003C750.019 168.813 749.63 168.717 749.161 168.717C748.384 168.717 747.775 169.04 747.335 169.685C746.895 170.331 746.675 171.218 746.675 172.347C746.675 173.037 746.785 173.682 747.005 174.283C747.24 174.885 747.621 175.369 748.149 175.735C748.692 176.102 749.425 176.285 750.349 176.285C750.76 176.285 751.2 176.219 751.669 176.087C752.138 175.941 752.637 175.728 753.165 175.449H753.231V175.713C752.894 176.388 752.38 176.96 751.691 177.429C751.002 177.884 750.202 178.111 749.293 178.111ZM757.641 165.197C757.245 165.197 756.915 165.065 756.651 164.801C756.387 164.537 756.255 164.207 756.255 163.811C756.255 163.401 756.387 163.071 756.651 162.821C756.915 162.557 757.245 162.425 757.641 162.425C758.037 162.425 758.367 162.557 758.631 162.821C758.895 163.071 759.027 163.401 759.027 163.811C759.027 164.207 758.895 164.537 758.631 164.801C758.367 165.065 758.037 165.197 757.641 165.197ZM755.265 177.891V177.539L756.673 176.835V170.257L755.331 169.135V168.959L758.587 167.749H758.741V176.835L760.105 177.539V177.891H755.265ZM766.889 178.111C765.452 178.111 764.315 177.679 763.479 176.813C762.643 175.948 762.225 174.797 762.225 173.359C762.225 172.274 762.445 171.306 762.885 170.455C763.34 169.605 763.934 168.945 764.667 168.475C765.415 167.991 766.222 167.749 767.087 167.749C768.261 167.749 769.177 168.153 769.837 168.959C770.497 169.751 770.835 170.895 770.849 172.391L770.739 172.501H764.249C764.264 173.176 764.389 173.799 764.623 174.371C764.873 174.943 765.261 175.405 765.789 175.757C766.332 176.109 767.058 176.285 767.967 176.285C768.803 176.285 769.749 176.007 770.805 175.449H770.871V175.713C770.519 176.388 769.999 176.96 769.309 177.429C768.62 177.884 767.813 178.111 766.889 178.111ZM766.691 168.717C766.046 168.717 765.511 168.959 765.085 169.443C764.675 169.927 764.411 170.609 764.293 171.489H768.979C768.833 170.492 768.569 169.781 768.187 169.355C767.806 168.93 767.307 168.717 766.691 168.717ZM772.88 177.891V177.539L774.288 176.835V170.257L772.946 169.157V168.981L775.982 167.749H776.136L776.334 169.377H776.444C777.001 168.835 777.537 168.431 778.05 168.167C778.563 167.889 779.143 167.749 779.788 167.749C780.639 167.749 781.343 167.969 781.9 168.409C782.472 168.835 782.758 169.48 782.758 170.345V176.835L784.144 177.539V177.891H779.216V177.539L780.668 176.835V171.357C780.668 170.727 780.477 170.257 780.096 169.949C779.715 169.627 779.223 169.465 778.622 169.465C778.255 169.465 777.852 169.524 777.412 169.641C776.972 169.759 776.62 169.942 776.356 170.191V176.835L777.808 177.539V177.891H772.88ZM790.564 178.111C789.142 178.111 788.012 177.679 787.176 176.813C786.34 175.948 785.922 174.797 785.922 173.359C785.922 172.274 786.142 171.306 786.582 170.455C787.037 169.605 787.653 168.945 788.43 168.475C789.208 167.991 790.095 167.749 791.092 167.749C791.708 167.749 792.295 167.852 792.852 168.057C793.41 168.248 793.835 168.505 794.128 168.827C794.348 169.091 794.458 169.311 794.458 169.487C794.458 169.605 794.436 169.7 794.392 169.773C794.363 169.832 794.297 169.913 794.194 170.015L793.292 170.741H793.138L792.39 169.729C792.17 169.421 791.906 169.179 791.598 169.003C791.29 168.813 790.902 168.717 790.432 168.717C789.655 168.717 789.046 169.04 788.606 169.685C788.166 170.331 787.946 171.218 787.946 172.347C787.946 173.037 788.056 173.682 788.276 174.283C788.511 174.885 788.892 175.369 789.42 175.735C789.963 176.102 790.696 176.285 791.62 176.285C792.031 176.285 792.471 176.219 792.94 176.087C793.41 175.941 793.908 175.728 794.436 175.449H794.502V175.713C794.165 176.388 793.652 176.96 792.962 177.429C792.273 177.884 791.474 178.111 790.564 178.111ZM801.135 178.111C799.698 178.111 798.561 177.679 797.725 176.813C796.889 175.948 796.471 174.797 796.471 173.359C796.471 172.274 796.691 171.306 797.131 170.455C797.586 169.605 798.18 168.945 798.913 168.475C799.661 167.991 800.468 167.749 801.333 167.749C802.507 167.749 803.423 168.153 804.083 168.959C804.743 169.751 805.081 170.895 805.095 172.391L804.985 172.501H798.495C798.51 173.176 798.635 173.799 798.869 174.371C799.119 174.943 799.507 175.405 800.035 175.757C800.578 176.109 801.304 176.285 802.213 176.285C803.049 176.285 803.995 176.007 805.051 175.449H805.117V175.713C804.765 176.388 804.245 176.96 803.555 177.429C802.866 177.884 802.059 178.111 801.135 178.111ZM800.937 168.717C800.292 168.717 799.757 168.959 799.331 169.443C798.921 169.927 798.657 170.609 798.539 171.489H803.225C803.079 170.492 802.815 169.781 802.433 169.355C802.052 168.93 801.553 168.717 800.937 168.717Z" fill="#F4B400"/>
<path d="M495.04 148.261C594.912 -75.5145 680.049 60.9415 710.133 157.141" stroke="white" stroke-width="2"/>
<circle cx="710" cy="158" r="4" fill="white"/>
<circle cx="496" cy="146" r="4" fill="white"/>
<path d="M332.368 178.155C521.305 334.739 675.905 248.825 729.589 186.295" stroke="white" stroke-width="2"/>
<circle cx="729" cy="187" r="4" fill="white"/>
<circle cx="330" cy="176" r="4" fill="white"/>
<path d="M131.866 169.645C365.335 -60.9392 636.994 66.4148 743.64 158.915" stroke="white" stroke-width="2"/>
<circle cx="742.378" cy="158.38" r="4" fill="white"/>
<circle cx="132" cy="170" r="4" fill="white"/>
</svg>
