<svg width="48" height="48" viewBox="0 0 48 48" fill="none" xmlns="http://www.w3.org/2000/svg">
<circle cx="24" cy="24" r="24" fill="#E37400"/>
<g clip-path="url(#clip0_90_109)">
<path d="M13.3333 22C12.2267 22 11.3333 22.8933 11.3333 24C11.3333 25.1067 12.2267 26 13.3333 26C14.44 26 15.3333 25.1067 15.3333 24C15.3333 22.8933 14.44 22 13.3333 22ZM13.3333 14C12.2267 14 11.3333 14.8933 11.3333 16C11.3333 17.1067 12.2267 18 13.3333 18C14.44 18 15.3333 17.1067 15.3333 16C15.3333 14.8933 14.44 14 13.3333 14ZM13.3333 30C12.2267 30 11.3333 30.9067 11.3333 32C11.3333 33.0933 12.24 34 13.3333 34C14.4267 34 15.3333 33.0933 15.3333 32C15.3333 30.9067 14.44 30 13.3333 30ZM17.3333 33.3333H36V30.6667H17.3333V33.3333ZM17.3333 25.3333H36V22.6667H17.3333V25.3333ZM17.3333 14.6667V17.3333H36V14.6667H17.3333Z" fill="#202124"/>
</g>
<defs>
<clipPath id="clip0_90_109">
<rect width="32" height="32" fill="white" transform="translate(8 8)"/>
</clipPath>
</defs>
</svg>
