<svg width="400" height="224" viewBox="0 0 400 224" fill="none" xmlns="http://www.w3.org/2000/svg">
<rect width="400" height="224" rx="8" fill="#FAFAFA"/>
<path d="M14.6025 109.501C13.8558 109.501 13.2265 109.341 12.7145 109.021C12.2131 108.701 11.8291 108.269 11.5625 107.725C11.3065 107.181 11.1785 106.568 11.1785 105.885C11.1785 105.138 11.3278 104.472 11.6265 103.885C11.9358 103.288 12.3571 102.824 12.8905 102.493C13.4345 102.152 14.0478 101.981 14.7305 101.981C15.1571 101.981 15.5358 102.04 15.8665 102.157C16.1971 102.274 16.4638 102.402 16.6665 102.541C17.0078 102.776 17.1785 102.978 17.1785 103.149C17.1785 103.224 17.1411 103.293 17.0665 103.357L16.6345 103.725H16.5705L16.3625 103.437C16.1278 103.117 15.8718 102.856 15.5945 102.653C15.3278 102.44 14.9811 102.333 14.5545 102.333C13.8078 102.333 13.1891 102.616 12.6985 103.181C12.2185 103.736 11.9785 104.568 11.9785 105.677C11.9785 106.616 12.2238 107.378 12.7145 107.965C13.2158 108.541 13.9198 108.829 14.8265 108.829C15.3171 108.829 15.7705 108.754 16.1865 108.605C16.6025 108.456 16.9278 108.253 17.1625 107.997H17.2105V108.205C16.9651 108.578 16.6185 108.888 16.1705 109.133C15.7225 109.378 15.1998 109.501 14.6025 109.501ZM22.1653 109.501C21.5147 109.501 20.944 109.336 20.4533 109.005C19.9627 108.674 19.5787 108.226 19.3013 107.661C19.024 107.096 18.8853 106.456 18.8853 105.741C18.8853 105.026 19.024 104.386 19.3013 103.821C19.5787 103.256 19.9627 102.808 20.4533 102.477C20.944 102.146 21.5147 101.981 22.1653 101.981C22.816 101.981 23.3867 102.146 23.8773 102.477C24.368 102.808 24.752 103.256 25.0293 103.821C25.3067 104.386 25.4453 105.026 25.4453 105.741C25.4453 106.456 25.3067 107.096 25.0293 107.661C24.752 108.226 24.368 108.674 23.8773 109.005C23.3867 109.336 22.816 109.501 22.1653 109.501ZM22.3893 109.133C22.88 109.133 23.2907 108.989 23.6213 108.701C23.9627 108.402 24.2187 108.018 24.3893 107.549C24.56 107.08 24.6453 106.584 24.6453 106.061C24.6453 105.368 24.544 104.744 24.3413 104.189C24.1387 103.624 23.8347 103.176 23.4293 102.845C23.0347 102.504 22.5493 102.333 21.9733 102.333C21.4933 102.333 21.0827 102.472 20.7413 102.749C20.4 103.016 20.1387 103.384 19.9573 103.853C19.776 104.312 19.6853 104.829 19.6853 105.405C19.6853 106.098 19.792 106.728 20.0053 107.293C20.2293 107.858 20.5387 108.306 20.9333 108.637C21.3387 108.968 21.824 109.133 22.3893 109.133ZM27.2336 109.341V109.101L28.2416 108.829V102.749L27.0736 102.605V102.365L28.8016 101.981H28.9616L29.0256 103.133H29.0736C29.4469 102.749 29.7989 102.461 30.1296 102.269C30.4603 102.077 30.8229 101.981 31.2176 101.981C31.6656 101.981 32.0603 102.077 32.4016 102.269C32.7429 102.461 32.9989 102.749 33.1696 103.133H33.2016C33.5856 102.738 33.9483 102.45 34.2896 102.269C34.6309 102.077 35.0096 101.981 35.4256 101.981C36.0763 101.981 36.6096 102.168 37.0256 102.541C37.4416 102.914 37.6496 103.458 37.6496 104.173V108.829L38.6576 109.101V109.341H35.7136V109.101L36.8496 108.829V104.605C36.8496 103.954 36.6789 103.464 36.3376 103.133C36.0069 102.792 35.5749 102.621 35.0416 102.621C34.7536 102.621 34.4389 102.69 34.0976 102.829C33.7669 102.957 33.4896 103.149 33.2656 103.405C33.3296 103.64 33.3616 103.896 33.3616 104.173V108.829L34.3696 109.101V109.341H31.4256V109.101L32.5616 108.829V104.605C32.5616 103.954 32.4016 103.464 32.0816 103.133C31.7616 102.792 31.3456 102.621 30.8336 102.621C30.5349 102.621 30.2149 102.701 29.8736 102.861C29.5323 103.01 29.2549 103.224 29.0416 103.501V108.829L30.1776 109.101V109.341H27.2336ZM40.2708 113.021V112.781L41.2788 112.509V102.749L40.1108 102.605V102.365L41.8388 101.981H41.9988L42.0628 102.973H42.1428C42.5482 102.632 42.9375 102.381 43.3108 102.221C43.6948 102.061 44.1055 101.981 44.5428 101.981C45.0762 101.981 45.5508 102.12 45.9668 102.397C46.3828 102.674 46.7082 103.069 46.9428 103.581C47.1882 104.082 47.3108 104.685 47.3108 105.389C47.3108 106.264 47.1402 107.01 46.7988 107.629C46.4575 108.237 46.0042 108.701 45.4388 109.021C44.8735 109.341 44.2495 109.501 43.5668 109.501C43.3322 109.501 43.0868 109.458 42.8308 109.373C42.5748 109.298 42.3242 109.197 42.0788 109.069V112.509L43.2148 112.781V113.021H40.2708ZM44.1108 102.525C43.7162 102.525 43.3482 102.594 43.0068 102.733C42.6762 102.872 42.3668 103.069 42.0788 103.325V108.429C42.4095 108.642 42.7348 108.808 43.0548 108.925C43.3748 109.032 43.7322 109.085 44.1268 109.085C44.5642 109.085 44.9642 108.973 45.3268 108.749C45.7002 108.525 45.9988 108.162 46.2228 107.661C46.4468 107.149 46.5588 106.477 46.5588 105.645C46.5588 104.93 46.4415 104.344 46.2068 103.885C45.9722 103.416 45.6628 103.074 45.2788 102.861C44.9055 102.637 44.5162 102.525 44.1108 102.525ZM52.0452 109.501C51.3946 109.501 50.8612 109.314 50.4452 108.941C50.0292 108.568 49.8212 108.024 49.8212 107.309V102.653L48.6852 102.381V102.141H50.6212V106.877C50.6212 107.528 50.7866 108.024 51.1172 108.365C51.4586 108.696 51.8959 108.861 52.4292 108.861C52.7386 108.861 53.0692 108.786 53.4212 108.637C53.7839 108.477 54.0772 108.253 54.3012 107.965V102.653L53.0052 102.381V102.141H55.1012V108.829L56.2372 109.101V109.341H54.3012V108.365H54.2532C53.8692 108.749 53.5066 109.037 53.1652 109.229C52.8239 109.41 52.4506 109.501 52.0452 109.501ZM60.034 109.501C59.5966 109.501 59.2393 109.362 58.962 109.085C58.6953 108.808 58.562 108.418 58.562 107.917V102.685H57.154V102.541L58.658 102.141L59.186 100.381H59.362V102.141H61.474V102.685H59.362V107.885C59.362 108.216 59.4633 108.466 59.666 108.637C59.8686 108.797 60.1353 108.877 60.466 108.877C60.7006 108.877 60.914 108.85 61.106 108.797C61.298 108.744 61.4793 108.669 61.65 108.573L61.666 108.589V108.653C61.5806 108.834 61.3993 109.021 61.122 109.213C60.8446 109.405 60.482 109.501 60.034 109.501ZM66.5792 109.501C65.8219 109.501 65.1819 109.341 64.6592 109.021C64.1472 108.701 63.7579 108.269 63.4912 107.725C63.2352 107.181 63.1072 106.568 63.1072 105.885C63.1072 105.16 63.2566 104.504 63.5552 103.917C63.8646 103.33 64.2646 102.861 64.7552 102.509C65.2566 102.157 65.8006 101.981 66.3872 101.981C67.2299 101.981 67.8912 102.258 68.3712 102.813C68.8512 103.368 69.1286 104.136 69.2032 105.117L69.1552 105.165H63.9232C63.9126 105.325 63.9072 105.496 63.9072 105.677C63.9072 106.616 64.1579 107.378 64.6592 107.965C65.1712 108.541 65.8859 108.829 66.8032 108.829C67.3046 108.829 67.7579 108.754 68.1632 108.605C68.5792 108.456 68.9046 108.253 69.1392 107.997H69.1872V108.205C68.9526 108.578 68.6059 108.888 68.1472 109.133C67.6992 109.378 67.1766 109.501 66.5792 109.501ZM66.1952 102.333C65.6726 102.333 65.2032 102.552 64.7872 102.989C64.3712 103.416 64.0992 104.024 63.9712 104.813H68.3232C68.2166 104.034 67.9979 103.426 67.6672 102.989C67.3366 102.552 66.8459 102.333 66.1952 102.333ZM71.1623 109.341V109.101L72.1703 108.829V102.749L71.0023 102.605V102.365L72.7303 101.981H72.8903L72.9703 103.405H73.0023C73.4183 102.968 73.749 102.648 73.9943 102.445C74.2397 102.242 74.4423 102.114 74.6023 102.061C74.7623 102.008 74.9437 101.981 75.1463 101.981C75.3277 101.981 75.493 102.013 75.6423 102.077C75.749 102.12 75.8237 102.162 75.8663 102.205C75.9197 102.237 75.9463 102.285 75.9463 102.349C75.9463 102.37 75.941 102.397 75.9303 102.429C75.9303 102.45 75.925 102.482 75.9143 102.525L75.7543 102.941H75.7223L75.4183 102.797C75.269 102.722 75.0717 102.685 74.8263 102.685C74.517 102.685 74.2077 102.77 73.8983 102.941C73.589 103.112 73.2797 103.41 72.9703 103.837V108.829L74.2023 109.101V109.341H71.1623ZM20.2786 133.501C19.9053 133.501 19.5693 133.458 19.2706 133.373C18.9826 133.298 18.6839 133.186 18.3746 133.037V131.373H18.5666L18.7906 132.093C18.8866 132.413 19.0626 132.669 19.3186 132.861C19.5746 133.042 19.9373 133.133 20.4066 133.133C20.9186 133.133 21.3133 133.01 21.5906 132.765C21.8786 132.509 22.0226 132.146 22.0226 131.677C22.0226 131.261 21.9106 130.936 21.6866 130.701C21.4626 130.456 21.0466 130.21 20.4386 129.965C19.7986 129.709 19.3239 129.432 19.0146 129.133C18.7159 128.834 18.5666 128.408 18.5666 127.853C18.5666 127.512 18.6573 127.202 18.8386 126.925C19.0306 126.637 19.2813 126.408 19.5906 126.237C19.8999 126.066 20.2306 125.981 20.5826 125.981C20.9773 125.981 21.3293 126.029 21.6386 126.125C21.9479 126.21 22.2146 126.312 22.4386 126.429V128.061H22.2466L22.0386 127.373C21.9319 127 21.7293 126.733 21.4306 126.573C21.1426 126.413 20.8493 126.333 20.5506 126.333C20.1346 126.333 19.8146 126.456 19.5906 126.701C19.3773 126.946 19.2706 127.266 19.2706 127.661C19.2706 128.056 19.3879 128.365 19.6226 128.589C19.8573 128.813 20.2359 129.032 20.7586 129.245C21.2279 129.437 21.6066 129.624 21.8946 129.805C22.1933 129.986 22.4119 130.21 22.5506 130.477C22.6893 130.733 22.7586 131.064 22.7586 131.469C22.7586 131.832 22.6573 132.168 22.4546 132.477C22.2519 132.786 21.9639 133.037 21.5906 133.229C21.2173 133.41 20.7799 133.501 20.2786 133.501ZM28.235 133.501C27.4883 133.501 26.859 133.341 26.347 133.021C25.8456 132.701 25.4616 132.269 25.195 131.725C24.939 131.181 24.811 130.568 24.811 129.885C24.811 129.138 24.9603 128.472 25.259 127.885C25.5683 127.288 25.9896 126.824 26.523 126.493C27.067 126.152 27.6803 125.981 28.363 125.981C28.7896 125.981 29.1683 126.04 29.499 126.157C29.8296 126.274 30.0963 126.402 30.299 126.541C30.6403 126.776 30.811 126.978 30.811 127.149C30.811 127.224 30.7736 127.293 30.699 127.357L30.267 127.725H30.203L29.995 127.437C29.7603 127.117 29.5043 126.856 29.227 126.653C28.9603 126.44 28.6136 126.333 28.187 126.333C27.4403 126.333 26.8216 126.616 26.331 127.181C25.851 127.736 25.611 128.568 25.611 129.677C25.611 130.616 25.8563 131.378 26.347 131.965C26.8483 132.541 27.5523 132.829 28.459 132.829C28.9496 132.829 29.403 132.754 29.819 132.605C30.235 132.456 30.5603 132.253 30.795 131.997H30.843V132.205C30.5976 132.578 30.251 132.888 29.803 133.133C29.355 133.378 28.8323 133.501 28.235 133.501ZM33.9258 123.453C33.7552 123.453 33.6112 123.394 33.4938 123.277C33.3765 123.16 33.3178 123.016 33.3178 122.845C33.3178 122.674 33.3765 122.53 33.4938 122.413C33.6112 122.296 33.7552 122.237 33.9258 122.237C34.0965 122.237 34.2405 122.296 34.3578 122.413C34.4752 122.53 34.5338 122.674 34.5338 122.845C34.5338 123.016 34.4752 123.16 34.3578 123.277C34.2405 123.394 34.0965 123.453 33.9258 123.453ZM32.7418 133.341V133.101L33.7498 132.829V126.749L32.5818 126.445V126.205L34.3898 125.981H34.5498V132.829L35.6858 133.101V133.341H32.7418ZM40.978 133.501C40.2206 133.501 39.5806 133.341 39.058 133.021C38.546 132.701 38.1566 132.269 37.89 131.725C37.634 131.181 37.506 130.568 37.506 129.885C37.506 129.16 37.6553 128.504 37.954 127.917C38.2633 127.33 38.6633 126.861 39.154 126.509C39.6553 126.157 40.1993 125.981 40.786 125.981C41.6286 125.981 42.29 126.258 42.77 126.813C43.25 127.368 43.5273 128.136 43.602 129.117L43.554 129.165H38.322C38.3113 129.325 38.306 129.496 38.306 129.677C38.306 130.616 38.5566 131.378 39.058 131.965C39.57 132.541 40.2846 132.829 41.202 132.829C41.7033 132.829 42.1566 132.754 42.562 132.605C42.978 132.456 43.3033 132.253 43.538 131.997H43.586V132.205C43.3513 132.578 43.0046 132.888 42.546 133.133C42.098 133.378 41.5753 133.501 40.978 133.501ZM40.594 126.333C40.0713 126.333 39.602 126.552 39.186 126.989C38.77 127.416 38.498 128.024 38.37 128.813H42.722C42.6153 128.034 42.3966 127.426 42.066 126.989C41.7353 126.552 41.2446 126.333 40.594 126.333ZM45.4971 133.341V133.101L46.5051 132.829V126.749L45.3371 126.605V126.365L47.0651 125.981H47.2251L47.2891 127.133H47.3371C47.7318 126.728 48.1051 126.434 48.4571 126.253C48.8091 126.072 49.2038 125.981 49.6411 125.981C50.3131 125.981 50.8624 126.168 51.2891 126.541C51.7264 126.914 51.9451 127.458 51.9451 128.173V132.829L52.9531 133.101V133.341H50.0091V133.101L51.1451 132.829V128.605C51.1451 127.954 50.9691 127.464 50.6171 127.133C50.2758 126.792 49.8224 126.621 49.2571 126.621C48.9371 126.621 48.5904 126.701 48.2171 126.861C47.8438 127.01 47.5398 127.229 47.3051 127.517V132.829L48.4411 133.101V133.341H45.4971ZM57.9375 133.501C57.1908 133.501 56.5615 133.341 56.0495 133.021C55.5481 132.701 55.1641 132.269 54.8975 131.725C54.6415 131.181 54.5135 130.568 54.5135 129.885C54.5135 129.138 54.6628 128.472 54.9615 127.885C55.2708 127.288 55.6921 126.824 56.2255 126.493C56.7695 126.152 57.3828 125.981 58.0655 125.981C58.4921 125.981 58.8708 126.04 59.2015 126.157C59.5321 126.274 59.7988 126.402 60.0015 126.541C60.3428 126.776 60.5135 126.978 60.5135 127.149C60.5135 127.224 60.4761 127.293 60.4015 127.357L59.9695 127.725H59.9055L59.6975 127.437C59.4628 127.117 59.2068 126.856 58.9295 126.653C58.6628 126.44 58.3161 126.333 57.8895 126.333C57.1428 126.333 56.5241 126.616 56.0335 127.181C55.5535 127.736 55.3135 128.568 55.3135 129.677C55.3135 130.616 55.5588 131.378 56.0495 131.965C56.5508 132.541 57.2548 132.829 58.1615 132.829C58.6521 132.829 59.1055 132.754 59.5215 132.605C59.9375 132.456 60.2628 132.253 60.4975 131.997H60.5455V132.205C60.3001 132.578 59.9535 132.888 59.5055 133.133C59.0575 133.378 58.5348 133.501 57.9375 133.501ZM65.6923 133.501C64.935 133.501 64.295 133.341 63.7723 133.021C63.2603 132.701 62.871 132.269 62.6043 131.725C62.3483 131.181 62.2203 130.568 62.2203 129.885C62.2203 129.16 62.3697 128.504 62.6683 127.917C62.9777 127.33 63.3777 126.861 63.8683 126.509C64.3697 126.157 64.9137 125.981 65.5003 125.981C66.343 125.981 67.0043 126.258 67.4843 126.813C67.9643 127.368 68.2417 128.136 68.3163 129.117L68.2683 129.165H63.0363C63.0257 129.325 63.0203 129.496 63.0203 129.677C63.0203 130.616 63.271 131.378 63.7723 131.965C64.2843 132.541 64.999 132.829 65.9163 132.829C66.4177 132.829 66.871 132.754 67.2763 132.605C67.6923 132.456 68.0177 132.253 68.2523 131.997H68.3003V132.205C68.0657 132.578 67.719 132.888 67.2603 133.133C66.8123 133.378 66.2897 133.501 65.6923 133.501ZM65.3083 126.333C64.7857 126.333 64.3163 126.552 63.9003 126.989C63.4843 127.416 63.2123 128.024 63.0843 128.813H67.4363C67.3297 128.034 67.111 127.426 66.7803 126.989C66.4497 126.552 65.959 126.333 65.3083 126.333Z" fill="black"/>
<path d="M106.117 108.202V107.962L107.125 107.69V96.9704L105.957 96.6664V96.4264L107.765 96.2024H107.925V107.69L109.061 107.962V108.202H106.117ZM112.137 98.3144C111.966 98.3144 111.822 98.2557 111.705 98.1384C111.588 98.0211 111.529 97.8771 111.529 97.7064C111.529 97.5357 111.588 97.3917 111.705 97.2744C111.822 97.1571 111.966 97.0984 112.137 97.0984C112.308 97.0984 112.452 97.1571 112.569 97.2744C112.686 97.3917 112.745 97.5357 112.745 97.7064C112.745 97.8771 112.686 98.0211 112.569 98.1384C112.452 98.2557 112.308 98.3144 112.137 98.3144ZM110.953 108.202V107.962L111.961 107.69V101.61L110.793 101.306V101.066L112.601 100.842H112.761V107.69L113.897 107.962V108.202H110.953ZM118.085 108.362C117.648 108.362 117.291 108.224 117.013 107.946C116.747 107.669 116.613 107.28 116.613 106.778V101.546H115.205V101.402L116.709 101.002L117.237 99.2424H117.413V101.002H119.525V101.546H117.413V106.746C117.413 107.077 117.515 107.328 117.717 107.498C117.92 107.658 118.187 107.738 118.517 107.738C118.752 107.738 118.965 107.712 119.157 107.658C119.349 107.605 119.531 107.53 119.701 107.434L119.717 107.45V107.514C119.632 107.696 119.451 107.882 119.173 108.074C118.896 108.266 118.533 108.362 118.085 108.362ZM124.63 108.362C123.873 108.362 123.233 108.202 122.71 107.882C122.198 107.562 121.809 107.13 121.542 106.586C121.286 106.042 121.158 105.429 121.158 104.746C121.158 104.021 121.308 103.365 121.606 102.778C121.916 102.192 122.316 101.722 122.806 101.37C123.308 101.018 123.852 100.842 124.438 100.842C125.281 100.842 125.942 101.12 126.422 101.674C126.902 102.229 127.18 102.997 127.254 103.978L127.206 104.026H121.974C121.964 104.186 121.958 104.357 121.958 104.538C121.958 105.477 122.209 106.24 122.71 106.826C123.222 107.402 123.937 107.69 124.854 107.69C125.356 107.69 125.809 107.616 126.214 107.466C126.63 107.317 126.956 107.114 127.19 106.858H127.238V107.066C127.004 107.44 126.657 107.749 126.198 107.994C125.75 108.24 125.228 108.362 124.63 108.362ZM124.246 101.194C123.724 101.194 123.254 101.413 122.838 101.85C122.422 102.277 122.15 102.885 122.022 103.674H126.374C126.268 102.896 126.049 102.288 125.718 101.85C125.388 101.413 124.897 101.194 124.246 101.194ZM129.214 108.202V107.962L130.222 107.69V101.61L129.054 101.466V101.226L130.782 100.842H130.942L131.022 102.266H131.054C131.47 101.829 131.8 101.509 132.046 101.306C132.291 101.104 132.494 100.976 132.654 100.922C132.814 100.869 132.995 100.842 133.198 100.842C133.379 100.842 133.544 100.874 133.694 100.938C133.8 100.981 133.875 101.024 133.918 101.066C133.971 101.098 133.998 101.146 133.998 101.21C133.998 101.232 133.992 101.258 133.982 101.29C133.982 101.312 133.976 101.344 133.966 101.386L133.806 101.802H133.774L133.47 101.658C133.32 101.584 133.123 101.546 132.878 101.546C132.568 101.546 132.259 101.632 131.95 101.802C131.64 101.973 131.331 102.272 131.022 102.698V107.69L132.254 107.962V108.202H129.214ZM136.659 108.362C136.168 108.362 135.758 108.218 135.427 107.93C135.096 107.632 134.931 107.221 134.931 106.698C134.931 106.186 135.112 105.76 135.475 105.418C135.848 105.077 136.462 104.8 137.315 104.586L138.883 104.186V102.858C138.883 102.4 138.718 102.032 138.387 101.754C138.056 101.466 137.678 101.322 137.251 101.322C136.792 101.322 136.467 101.418 136.275 101.61C136.094 101.792 136.003 102.042 136.003 102.362V103.018L135.923 103.098H135.507C135.336 103.098 135.224 103.072 135.171 103.018C135.118 102.965 135.091 102.864 135.091 102.714C135.091 102.512 135.16 102.304 135.299 102.09C135.438 101.877 135.64 101.685 135.907 101.514C136.195 101.333 136.483 101.178 136.771 101.05C137.07 100.912 137.352 100.842 137.619 100.842C138.259 100.842 138.76 100.986 139.123 101.274C139.496 101.552 139.683 101.989 139.683 102.586V107.562C139.768 107.637 139.864 107.696 139.971 107.738C140.088 107.781 140.222 107.802 140.371 107.802H141.203L141.219 107.818V107.85C141.144 107.957 141.022 108.069 140.851 108.186C140.68 108.304 140.451 108.362 140.163 108.362C139.79 108.362 139.502 108.266 139.299 108.074C139.096 107.882 138.974 107.658 138.931 107.402H138.899C138.622 107.68 138.286 107.909 137.891 108.09C137.507 108.272 137.096 108.362 136.659 108.362ZM135.731 106.41C135.731 106.848 135.854 107.178 136.099 107.402C136.344 107.616 136.691 107.722 137.139 107.722C137.406 107.722 137.694 107.685 138.003 107.61C138.312 107.525 138.606 107.397 138.883 107.226V104.522C137.998 104.704 137.326 104.885 136.867 105.066C136.419 105.248 136.115 105.445 135.955 105.658C135.806 105.872 135.731 106.122 135.731 106.41ZM142.549 108.202V107.962L143.557 107.69V101.61L142.389 101.466V101.226L144.117 100.842H144.277L144.357 102.266H144.389C144.805 101.829 145.136 101.509 145.381 101.306C145.627 101.104 145.829 100.976 145.989 100.922C146.149 100.869 146.331 100.842 146.533 100.842C146.715 100.842 146.88 100.874 147.029 100.938C147.136 100.981 147.211 101.024 147.253 101.066C147.307 101.098 147.333 101.146 147.333 101.21C147.333 101.232 147.328 101.258 147.317 101.29C147.317 101.312 147.312 101.344 147.301 101.386L147.141 101.802H147.109L146.805 101.658C146.656 101.584 146.459 101.546 146.213 101.546C145.904 101.546 145.595 101.632 145.285 101.802C144.976 101.973 144.667 102.272 144.357 102.698V107.69L145.589 107.962V108.202H142.549ZM148.951 112.058C148.727 112.058 148.583 112.021 148.519 111.946C148.466 111.882 148.439 111.765 148.439 111.594V111.242L148.535 111.146H149.239C149.506 111.146 149.709 111.125 149.847 111.082C149.986 111.04 150.114 110.922 150.231 110.73C150.349 110.538 150.514 110.224 150.727 109.786L151.559 108.026L148.935 101.546L147.927 101.242V101.002H150.999V101.242L149.767 101.514V101.562L151.911 107.05H151.959L153.911 101.578V101.53L152.615 101.242V101.002H155.447V101.242L154.423 101.546L151.079 109.93C150.951 110.25 150.829 110.512 150.711 110.714C150.605 110.928 150.482 111.136 150.343 111.338C150.183 111.573 149.975 111.749 149.719 111.866C149.474 111.994 149.218 112.058 148.951 112.058ZM111.193 132.362C110.755 132.362 110.398 132.224 110.121 131.946C109.854 131.669 109.721 131.28 109.721 130.778V125.546H108.313V125.402L109.817 125.002L110.345 123.242H110.521V125.002H112.633V125.546H110.521V130.746C110.521 131.077 110.622 131.328 110.825 131.498C111.027 131.658 111.294 131.738 111.625 131.738C111.859 131.738 112.073 131.712 112.265 131.658C112.457 131.605 112.638 131.53 112.809 131.434L112.825 131.45V131.514C112.739 131.696 112.558 131.882 112.281 132.074C112.003 132.266 111.641 132.362 111.193 132.362ZM114.394 132.202V131.962L115.402 131.69V120.97L114.234 120.666V120.426L116.042 120.202H116.202V125.994H116.234C116.629 125.589 117.002 125.296 117.354 125.114C117.706 124.933 118.101 124.842 118.538 124.842C119.21 124.842 119.759 125.029 120.186 125.402C120.623 125.776 120.842 126.32 120.842 127.034V131.69L121.85 131.962V132.202H118.906V131.962L120.042 131.69V127.466C120.042 126.816 119.866 126.325 119.514 125.994C119.173 125.653 118.719 125.482 118.154 125.482C117.834 125.482 117.487 125.562 117.114 125.722C116.741 125.872 116.437 126.09 116.202 126.378V131.69L117.338 131.962V132.202H114.394ZM126.882 132.362C126.125 132.362 125.485 132.202 124.962 131.882C124.45 131.562 124.061 131.13 123.794 130.586C123.538 130.042 123.41 129.429 123.41 128.746C123.41 128.021 123.56 127.365 123.858 126.778C124.168 126.192 124.568 125.722 125.058 125.37C125.56 125.018 126.104 124.842 126.69 124.842C127.533 124.842 128.194 125.12 128.674 125.674C129.154 126.229 129.432 126.997 129.506 127.978L129.458 128.026H124.226C124.216 128.186 124.21 128.357 124.21 128.538C124.21 129.477 124.461 130.24 124.962 130.826C125.474 131.402 126.189 131.69 127.106 131.69C127.608 131.69 128.061 131.616 128.466 131.466C128.882 131.317 129.208 131.114 129.442 130.858H129.49V131.066C129.256 131.44 128.909 131.749 128.45 131.994C128.002 132.24 127.48 132.362 126.882 132.362ZM126.498 125.194C125.976 125.194 125.506 125.413 125.09 125.85C124.674 126.277 124.402 126.885 124.274 127.674H128.626C128.52 126.896 128.301 126.288 127.97 125.85C127.64 125.413 127.149 125.194 126.498 125.194ZM134.71 132.362C134.059 132.362 133.488 132.197 132.998 131.866C132.507 131.536 132.123 131.088 131.846 130.522C131.568 129.957 131.43 129.317 131.43 128.602C131.43 127.888 131.568 127.248 131.846 126.682C132.123 126.117 132.507 125.669 132.998 125.338C133.488 125.008 134.059 124.842 134.71 124.842C135.36 124.842 135.931 125.008 136.422 125.338C136.912 125.669 137.296 126.117 137.574 126.682C137.851 127.248 137.99 127.888 137.99 128.602C137.99 129.317 137.851 129.957 137.574 130.522C137.296 131.088 136.912 131.536 136.422 131.866C135.931 132.197 135.36 132.362 134.71 132.362ZM134.934 131.994C135.424 131.994 135.835 131.85 136.166 131.562C136.507 131.264 136.763 130.88 136.934 130.41C137.104 129.941 137.19 129.445 137.19 128.922C137.19 128.229 137.088 127.605 136.886 127.05C136.683 126.485 136.379 126.037 135.974 125.706C135.579 125.365 135.094 125.194 134.518 125.194C134.038 125.194 133.627 125.333 133.286 125.61C132.944 125.877 132.683 126.245 132.502 126.714C132.32 127.173 132.23 127.69 132.23 128.266C132.23 128.96 132.336 129.589 132.55 130.154C132.774 130.72 133.083 131.168 133.478 131.498C133.883 131.829 134.368 131.994 134.934 131.994ZM139.938 132.202V131.962L140.946 131.69V125.61L139.778 125.466V125.226L141.506 124.842H141.666L141.746 126.266H141.778C142.194 125.829 142.525 125.509 142.77 125.306C143.015 125.104 143.218 124.976 143.378 124.922C143.538 124.869 143.719 124.842 143.922 124.842C144.103 124.842 144.269 124.874 144.418 124.938C144.525 124.981 144.599 125.024 144.642 125.066C144.695 125.098 144.722 125.146 144.722 125.21C144.722 125.232 144.717 125.258 144.706 125.29C144.706 125.312 144.701 125.344 144.69 125.386L144.53 125.802H144.498L144.194 125.658C144.045 125.584 143.847 125.546 143.602 125.546C143.293 125.546 142.983 125.632 142.674 125.802C142.365 125.973 142.055 126.272 141.746 126.698V131.69L142.978 131.962V132.202H139.938ZM146.34 136.058C146.116 136.058 145.972 136.021 145.908 135.946C145.855 135.882 145.828 135.765 145.828 135.594V135.242L145.924 135.146H146.628C146.895 135.146 147.097 135.125 147.236 135.082C147.375 135.04 147.503 134.922 147.62 134.73C147.737 134.538 147.903 134.224 148.116 133.786L148.948 132.026L146.324 125.546L145.316 125.242V125.002H148.388V125.242L147.156 125.514V125.562L149.3 131.05H149.348L151.3 125.578V125.53L150.004 125.242V125.002H152.836V125.242L151.812 125.546L148.468 133.93C148.34 134.25 148.217 134.512 148.1 134.714C147.993 134.928 147.871 135.136 147.732 135.338C147.572 135.573 147.364 135.749 147.108 135.866C146.863 135.994 146.607 136.058 146.34 136.058Z" fill="black"/>
<path d="M209.687 108.362C209.036 108.362 208.503 108.176 208.087 107.802C207.671 107.429 207.463 106.885 207.463 106.17V101.514L206.327 101.242V101.002H208.263V105.738C208.263 106.389 208.428 106.885 208.759 107.226C209.1 107.557 209.538 107.722 210.071 107.722C210.38 107.722 210.711 107.648 211.063 107.498C211.426 107.338 211.719 107.114 211.943 106.826V101.514L210.647 101.242V101.002H212.743V107.69L213.879 107.962V108.202H211.943V107.226H211.895C211.511 107.61 211.148 107.898 210.807 108.09C210.466 108.272 210.092 108.362 209.687 108.362ZM214.924 108.202V107.962L215.852 107.706L217.884 104.602L215.932 101.53L215.004 101.242V101.002H217.836V101.242L216.828 101.514V101.562L218.428 104.074L219.9 101.562V101.514L219.02 101.242V101.002H221.276V101.242L220.412 101.594L218.572 104.298L220.732 107.674L221.548 107.962V108.202H218.924V107.962L219.82 107.69V107.642L218.028 104.842L216.46 107.642V107.69L217.324 107.962V108.202H214.924ZM194.738 132.362C194.204 132.362 193.73 132.224 193.314 131.946C192.898 131.669 192.567 131.28 192.322 130.778C192.087 130.266 191.97 129.658 191.97 128.954C191.97 128.08 192.14 127.338 192.482 126.73C192.823 126.112 193.276 125.642 193.842 125.322C194.407 125.002 195.031 124.842 195.714 124.842C195.948 124.842 196.194 124.885 196.45 124.97C196.706 125.045 196.956 125.146 197.202 125.274V120.97L196.034 120.666V120.426L197.842 120.202H198.002V131.69L199.138 131.962V132.202H197.362L197.218 131.386H197.138C196.775 131.696 196.396 131.936 196.002 132.106C195.618 132.277 195.196 132.362 194.738 132.362ZM192.722 128.698C192.722 129.413 192.839 130.005 193.074 130.474C193.308 130.933 193.612 131.274 193.986 131.498C194.37 131.712 194.764 131.818 195.17 131.818C195.522 131.818 195.874 131.754 196.226 131.626C196.578 131.498 196.903 131.29 197.202 131.002V125.85C196.871 125.669 196.54 125.525 196.21 125.418C195.879 125.312 195.527 125.258 195.154 125.258C194.716 125.258 194.311 125.37 193.938 125.594C193.575 125.818 193.282 126.186 193.058 126.698C192.834 127.2 192.722 127.866 192.722 128.698ZM204.337 132.362C203.579 132.362 202.939 132.202 202.417 131.882C201.905 131.562 201.515 131.13 201.249 130.586C200.993 130.042 200.865 129.429 200.865 128.746C200.865 128.021 201.014 127.365 201.313 126.778C201.622 126.192 202.022 125.722 202.513 125.37C203.014 125.018 203.558 124.842 204.145 124.842C204.987 124.842 205.649 125.12 206.129 125.674C206.609 126.229 206.886 126.997 206.961 127.978L206.913 128.026H201.681C201.67 128.186 201.665 128.357 201.665 128.538C201.665 129.477 201.915 130.24 202.417 130.826C202.929 131.402 203.643 131.69 204.561 131.69C205.062 131.69 205.515 131.616 205.921 131.466C206.337 131.317 206.662 131.114 206.897 130.858H206.945V131.066C206.71 131.44 206.363 131.749 205.905 131.994C205.457 132.24 204.934 132.362 204.337 132.362ZM203.953 125.194C203.43 125.194 202.961 125.413 202.545 125.85C202.129 126.277 201.857 126.885 201.729 127.674H206.081C205.974 126.896 205.755 126.288 205.425 125.85C205.094 125.413 204.603 125.194 203.953 125.194ZM210.84 132.362C210.466 132.362 210.13 132.32 209.832 132.234C209.544 132.16 209.245 132.048 208.936 131.898V130.234H209.128L209.352 130.954C209.448 131.274 209.624 131.53 209.88 131.722C210.136 131.904 210.498 131.994 210.968 131.994C211.48 131.994 211.874 131.872 212.152 131.626C212.44 131.37 212.584 131.008 212.584 130.538C212.584 130.122 212.472 129.797 212.248 129.562C212.024 129.317 211.608 129.072 211 128.826C210.36 128.57 209.885 128.293 209.576 127.994C209.277 127.696 209.128 127.269 209.128 126.714C209.128 126.373 209.218 126.064 209.4 125.786C209.592 125.498 209.842 125.269 210.152 125.098C210.461 124.928 210.792 124.842 211.144 124.842C211.538 124.842 211.89 124.89 212.2 124.986C212.509 125.072 212.776 125.173 213 125.29V126.922H212.808L212.6 126.234C212.493 125.861 212.29 125.594 211.992 125.434C211.704 125.274 211.41 125.194 211.112 125.194C210.696 125.194 210.376 125.317 210.152 125.562C209.938 125.808 209.832 126.128 209.832 126.522C209.832 126.917 209.949 127.226 210.184 127.45C210.418 127.674 210.797 127.893 211.32 128.106C211.789 128.298 212.168 128.485 212.456 128.666C212.754 128.848 212.973 129.072 213.112 129.338C213.25 129.594 213.32 129.925 213.32 130.33C213.32 130.693 213.218 131.029 213.016 131.338C212.813 131.648 212.525 131.898 212.152 132.09C211.778 132.272 211.341 132.362 210.84 132.362ZM216.78 122.314C216.61 122.314 216.466 122.256 216.348 122.138C216.231 122.021 216.172 121.877 216.172 121.706C216.172 121.536 216.231 121.392 216.348 121.274C216.466 121.157 216.61 121.098 216.78 121.098C216.951 121.098 217.095 121.157 217.212 121.274C217.33 121.392 217.388 121.536 217.388 121.706C217.388 121.877 217.33 122.021 217.212 122.138C217.095 122.256 216.951 122.314 216.78 122.314ZM215.596 132.202V131.962L216.604 131.69V125.61L215.436 125.306V125.066L217.244 124.842H217.404V131.69L218.54 131.962V132.202H215.596ZM223.256 129.786C222.936 129.786 222.632 129.733 222.344 129.626C221.992 129.776 221.747 129.936 221.608 130.106C221.47 130.277 221.4 130.474 221.4 130.698C221.4 131.061 221.528 131.322 221.784 131.482C222.04 131.642 222.435 131.722 222.968 131.722H224.776C225.406 131.722 225.886 131.872 226.216 132.17C226.558 132.469 226.728 132.88 226.728 133.402C226.728 133.84 226.579 134.261 226.28 134.666C225.982 135.072 225.566 135.402 225.032 135.658C224.499 135.914 223.87 136.042 223.144 136.042C222.216 136.042 221.55 135.856 221.144 135.482C220.739 135.12 220.536 134.672 220.536 134.138C220.536 133.744 220.616 133.402 220.776 133.114L221.752 132.298V132.266C221.059 132.064 220.712 131.642 220.712 131.002C220.712 130.65 220.83 130.357 221.064 130.122L222.008 129.562V129.482C221.624 129.28 221.32 128.992 221.096 128.618C220.872 128.234 220.76 127.802 220.76 127.322C220.76 126.853 220.867 126.432 221.08 126.058C221.304 125.685 221.603 125.392 221.976 125.178C222.35 124.954 222.776 124.842 223.256 124.842C223.491 124.842 223.747 124.874 224.024 124.938C224.302 124.992 224.52 125.056 224.68 125.13L226.856 125.002V125.658L225.24 125.546L225.208 125.578C225.379 125.76 225.507 126.016 225.592 126.346C225.688 126.666 225.736 126.992 225.736 127.322C225.736 127.792 225.63 128.213 225.416 128.586C225.203 128.96 224.91 129.253 224.536 129.466C224.163 129.68 223.736 129.786 223.256 129.786ZM223.416 129.466C223.875 129.466 224.238 129.285 224.504 128.922C224.782 128.549 224.92 128.026 224.92 127.354C224.92 126.618 224.75 126.069 224.408 125.706C224.067 125.333 223.646 125.146 223.144 125.146C222.654 125.146 222.27 125.338 221.992 125.722C221.715 126.096 221.576 126.613 221.576 127.274C221.576 128.01 221.747 128.56 222.088 128.922C222.44 129.285 222.883 129.466 223.416 129.466ZM221.272 133.962C221.272 134.453 221.475 134.864 221.88 135.194C222.296 135.525 222.803 135.69 223.4 135.69C223.912 135.69 224.366 135.594 224.76 135.402C225.155 135.221 225.464 134.976 225.688 134.666C225.912 134.368 226.024 134.048 226.024 133.706C226.024 133.194 225.891 132.842 225.624 132.65C225.368 132.458 224.904 132.362 224.232 132.362H222.552C222.392 132.362 222.238 132.352 222.088 132.33C221.779 132.512 221.566 132.73 221.448 132.986C221.331 133.253 221.272 133.578 221.272 133.962ZM228.742 132.202V131.962L229.75 131.69V125.61L228.582 125.466V125.226L230.31 124.842H230.47L230.534 125.994H230.582C230.977 125.589 231.35 125.296 231.702 125.114C232.054 124.933 232.449 124.842 232.886 124.842C233.558 124.842 234.107 125.029 234.534 125.402C234.971 125.776 235.19 126.32 235.19 127.034V131.69L236.198 131.962V132.202H233.254V131.962L234.39 131.69V127.466C234.39 126.816 234.214 126.325 233.862 125.994C233.521 125.653 233.067 125.482 232.502 125.482C232.182 125.482 231.835 125.562 231.462 125.722C231.089 125.872 230.785 126.09 230.55 126.378V131.69L231.686 131.962V132.202H228.742Z" fill="black"/>
<path d="M308.061 121.382C307.329 121.382 306.729 121.172 306.261 120.752C305.793 120.332 305.559 119.72 305.559 118.916V113.678L304.281 113.372V113.102H306.459V118.43C306.459 119.162 306.645 119.72 307.017 120.104C307.401 120.476 307.893 120.662 308.493 120.662C308.841 120.662 309.213 120.578 309.609 120.41C310.017 120.23 310.347 119.978 310.599 119.654V113.678L309.141 113.372V113.102H311.499V120.626L312.777 120.932V121.202H310.599V120.104H310.545C310.113 120.536 309.705 120.86 309.321 121.076C308.937 121.28 308.517 121.382 308.061 121.382ZM314.204 121.202V120.932L315.248 120.644L317.534 117.152L315.338 113.696L314.294 113.372V113.102H317.48V113.372L316.346 113.678V113.732L318.146 116.558L319.802 113.732V113.678L318.812 113.372V113.102H321.35V113.372L320.378 113.768L318.308 116.81L320.738 120.608L321.656 120.932V121.202H318.704V120.932L319.712 120.626V120.572L317.696 117.422L315.932 120.572V120.626L316.904 120.932V121.202H314.204ZM330.761 121.382C330.341 121.382 329.963 121.334 329.627 121.238C329.303 121.154 328.967 121.028 328.619 120.86V118.988H328.835L329.087 119.798C329.195 120.158 329.393 120.446 329.681 120.662C329.969 120.866 330.377 120.968 330.905 120.968C331.481 120.968 331.925 120.83 332.237 120.554C332.561 120.266 332.723 119.858 332.723 119.33C332.723 118.862 332.597 118.496 332.345 118.232C332.093 117.956 331.625 117.68 330.941 117.404C330.221 117.116 329.687 116.804 329.339 116.468C329.003 116.132 328.835 115.652 328.835 115.028C328.835 114.644 328.937 114.296 329.141 113.984C329.357 113.66 329.639 113.402 329.987 113.21C330.335 113.018 330.707 112.922 331.103 112.922C331.547 112.922 331.943 112.976 332.291 113.084C332.639 113.18 332.939 113.294 333.191 113.426V115.262H332.975L332.741 114.488C332.621 114.068 332.393 113.768 332.057 113.588C331.733 113.408 331.403 113.318 331.067 113.318C330.599 113.318 330.239 113.456 329.987 113.732C329.747 114.008 329.627 114.368 329.627 114.812C329.627 115.256 329.759 115.604 330.023 115.856C330.287 116.108 330.713 116.354 331.301 116.594C331.829 116.81 332.255 117.02 332.579 117.224C332.915 117.428 333.161 117.68 333.317 117.98C333.473 118.268 333.551 118.64 333.551 119.096C333.551 119.504 333.437 119.882 333.209 120.23C332.981 120.578 332.657 120.86 332.237 121.076C331.817 121.28 331.325 121.382 330.761 121.382ZM339.964 121.382C339.124 121.382 338.416 121.202 337.84 120.842C337.276 120.482 336.844 119.996 336.544 119.384C336.256 118.772 336.112 118.082 336.112 117.314C336.112 116.474 336.28 115.724 336.616 115.064C336.964 114.392 337.438 113.87 338.038 113.498C338.65 113.114 339.34 112.922 340.108 112.922C340.588 112.922 341.014 112.988 341.386 113.12C341.758 113.252 342.058 113.396 342.286 113.552C342.67 113.816 342.862 114.044 342.862 114.236C342.862 114.32 342.82 114.398 342.736 114.47L342.25 114.884H342.178L341.944 114.56C341.68 114.2 341.392 113.906 341.08 113.678C340.78 113.438 340.39 113.318 339.91 113.318C339.07 113.318 338.374 113.636 337.822 114.272C337.282 114.896 337.012 115.832 337.012 117.08C337.012 118.136 337.288 118.994 337.84 119.654C338.404 120.302 339.196 120.626 340.216 120.626C340.768 120.626 341.278 120.542 341.746 120.374C342.214 120.206 342.58 119.978 342.844 119.69H342.898V119.924C342.622 120.344 342.232 120.692 341.728 120.968C341.224 121.244 340.636 121.382 339.964 121.382ZM346.618 110.078C346.426 110.078 346.264 110.012 346.132 109.88C346 109.748 345.934 109.586 345.934 109.394C345.934 109.202 346 109.04 346.132 108.908C346.264 108.776 346.426 108.71 346.618 108.71C346.81 108.71 346.972 108.776 347.104 108.908C347.236 109.04 347.302 109.202 347.302 109.394C347.302 109.586 347.236 109.748 347.104 109.88C346.972 110.012 346.81 110.078 346.618 110.078ZM345.286 121.202V120.932L346.42 120.626V113.786L345.106 113.444V113.174L347.14 112.922H347.32V120.626L348.598 120.932V121.202H345.286ZM354.804 121.382C353.952 121.382 353.232 121.202 352.644 120.842C352.068 120.482 351.63 119.996 351.33 119.384C351.042 118.772 350.898 118.082 350.898 117.314C350.898 116.498 351.066 115.76 351.402 115.1C351.75 114.44 352.2 113.912 352.752 113.516C353.316 113.12 353.928 112.922 354.588 112.922C355.536 112.922 356.28 113.234 356.82 113.858C357.36 114.482 357.672 115.346 357.756 116.45L357.702 116.504H351.816C351.804 116.684 351.798 116.876 351.798 117.08C351.798 118.136 352.08 118.994 352.644 119.654C353.22 120.302 354.024 120.626 355.056 120.626C355.62 120.626 356.13 120.542 356.586 120.374C357.054 120.206 357.42 119.978 357.684 119.69H357.738V119.924C357.474 120.344 357.084 120.692 356.568 120.968C356.064 121.244 355.476 121.382 354.804 121.382ZM354.372 113.318C353.784 113.318 353.256 113.564 352.788 114.056C352.32 114.536 352.014 115.22 351.87 116.108H356.766C356.646 115.232 356.4 114.548 356.028 114.056C355.656 113.564 355.104 113.318 354.372 113.318ZM360.14 121.202V120.932L361.274 120.626V113.786L359.96 113.624V113.354L361.904 112.922H362.084L362.156 114.218H362.21C362.654 113.762 363.074 113.432 363.47 113.228C363.866 113.024 364.31 112.922 364.802 112.922C365.558 112.922 366.176 113.132 366.656 113.552C367.148 113.972 367.394 114.584 367.394 115.388V120.626L368.528 120.932V121.202H365.216V120.932L366.494 120.626V115.874C366.494 115.142 366.296 114.59 365.9 114.218C365.516 113.834 365.006 113.642 364.37 113.642C364.01 113.642 363.62 113.732 363.2 113.912C362.78 114.08 362.438 114.326 362.174 114.65V120.626L363.452 120.932V121.202H360.14ZM374.387 121.382C373.547 121.382 372.839 121.202 372.263 120.842C371.699 120.482 371.267 119.996 370.967 119.384C370.679 118.772 370.535 118.082 370.535 117.314C370.535 116.474 370.703 115.724 371.039 115.064C371.387 114.392 371.861 113.87 372.461 113.498C373.073 113.114 373.763 112.922 374.531 112.922C375.011 112.922 375.437 112.988 375.809 113.12C376.181 113.252 376.481 113.396 376.709 113.552C377.093 113.816 377.285 114.044 377.285 114.236C377.285 114.32 377.243 114.398 377.159 114.47L376.673 114.884H376.601L376.367 114.56C376.103 114.2 375.815 113.906 375.503 113.678C375.203 113.438 374.813 113.318 374.333 113.318C373.493 113.318 372.797 113.636 372.245 114.272C371.705 114.896 371.435 115.832 371.435 117.08C371.435 118.136 371.711 118.994 372.263 119.654C372.827 120.302 373.619 120.626 374.639 120.626C375.191 120.626 375.701 120.542 376.169 120.374C376.637 120.206 377.003 119.978 377.267 119.69H377.321V119.924C377.045 120.344 376.655 120.692 376.151 120.968C375.647 121.244 375.059 121.382 374.387 121.382ZM383.363 121.382C382.511 121.382 381.791 121.202 381.203 120.842C380.627 120.482 380.189 119.996 379.889 119.384C379.601 118.772 379.457 118.082 379.457 117.314C379.457 116.498 379.625 115.76 379.961 115.1C380.309 114.44 380.759 113.912 381.311 113.516C381.875 113.12 382.487 112.922 383.147 112.922C384.095 112.922 384.839 113.234 385.379 113.858C385.919 114.482 386.231 115.346 386.315 116.45L386.261 116.504H380.375C380.363 116.684 380.357 116.876 380.357 117.08C380.357 118.136 380.639 118.994 381.203 119.654C381.779 120.302 382.583 120.626 383.615 120.626C384.179 120.626 384.689 120.542 385.145 120.374C385.613 120.206 385.979 119.978 386.243 119.69H386.297V119.924C386.033 120.344 385.643 120.692 385.127 120.968C384.623 121.244 384.035 121.382 383.363 121.382ZM382.931 113.318C382.343 113.318 381.815 113.564 381.347 114.056C380.879 114.536 380.573 115.22 380.429 116.108H385.325C385.205 115.232 384.959 114.548 384.587 114.056C384.215 113.564 383.663 113.318 382.931 113.318Z" fill="#F4B400"/>
<circle cx="335" cy="98.2024" r="4" fill="#CABCBE"/>
<circle cx="46" cy="87.2024" r="4" fill="#CABCBE"/>
<path d="M45 87.7023C179.4 0.502316 294.667 58.369 335.5 98.2023" stroke="#CABCBE" stroke-width="1.1"/>
<path d="M215.192 87.2024C280.592 -24.3976 309.17 47.0358 315.284 96.7024" stroke="#CABCBE" stroke-width="1.1"/>
<ellipse cx="215.192" cy="87.2024" rx="4.19231" ry="4" fill="#CABCBE"/>
<ellipse cx="315.808" cy="98.2024" rx="4.19231" ry="4" fill="#CABCBE"/>
<circle cx="373" cy="135.202" r="4" fill="#CABCBE"/>
<circle cx="134" cy="148.202" r="4" fill="#CABCBE"/>
<path d="M132 147.202C249.2 240.402 341.833 177.702 373.5 134.702" stroke="#CABCBE" stroke-width="1.1"/>
</svg>
