<svg width="385" height="170" viewBox="0 0 385 170" fill="none" xmlns="http://www.w3.org/2000/svg">
<path d="M6.19447 82.5011C5.4798 82.5011 4.8718 82.3518 4.37047 82.0531C3.86914 81.7545 3.48514 81.3438 3.21847 80.8211C2.9518 80.2878 2.81847 79.6745 2.81847 78.9811C2.81847 78.2131 2.97314 77.5305 3.28247 76.9331C3.60247 76.3251 4.03447 75.8505 4.57847 75.5091C5.13314 75.1571 5.75714 74.9811 6.45047 74.9811C6.87714 74.9811 7.27714 75.0505 7.65047 75.1891C8.03447 75.3171 8.3278 75.4771 8.53047 75.6691C8.6478 75.7865 8.73314 75.8878 8.78647 75.9731C8.85047 76.0585 8.88247 76.1385 8.88247 76.2131C8.88247 76.3305 8.82914 76.4318 8.72247 76.5171L8.17847 76.9651H8.08247L7.68247 76.4211C7.49047 76.1651 7.26647 75.9571 7.01047 75.7971C6.75447 75.6265 6.4398 75.5411 6.06647 75.5411C5.4158 75.5411 4.8878 75.7971 4.48247 76.3091C4.0878 76.8105 3.89047 77.5305 3.89047 78.4691C3.89047 79.0238 3.98647 79.5358 4.17847 80.0051C4.37047 80.4638 4.66914 80.8318 5.07447 81.1091C5.49047 81.3758 6.02914 81.5091 6.69047 81.5091C7.4798 81.5091 8.20514 81.2745 8.86647 80.8051H8.91447V80.9811C8.66914 81.4078 8.3118 81.7705 7.84247 82.0691C7.37314 82.3571 6.8238 82.5011 6.19447 82.5011ZM13.8518 82.5011C13.1692 82.5011 12.5718 82.3358 12.0598 82.0051C11.5478 81.6745 11.1478 81.2265 10.8598 80.6611C10.5718 80.0958 10.4278 79.4558 10.4278 78.7411C10.4278 78.0265 10.5718 77.3865 10.8598 76.8211C11.1478 76.2558 11.5478 75.8078 12.0598 75.4771C12.5718 75.1465 13.1692 74.9811 13.8518 74.9811C14.5345 74.9811 15.1318 75.1465 15.6438 75.4771C16.1558 75.8078 16.5558 76.2558 16.8438 76.8211C17.1318 77.3865 17.2758 78.0265 17.2758 78.7411C17.2758 79.4558 17.1318 80.0958 16.8438 80.6611C16.5558 81.2265 16.1558 81.6745 15.6438 82.0051C15.1318 82.3358 14.5345 82.5011 13.8518 82.5011ZM14.0758 81.9411C14.5238 81.9411 14.8972 81.8025 15.1958 81.5251C15.4945 81.2478 15.7185 80.8905 15.8678 80.4531C16.0172 80.0051 16.0918 79.5411 16.0918 79.0611C16.0918 78.4531 16.0012 77.8825 15.8198 77.3491C15.6492 76.8051 15.3825 76.3678 15.0198 76.0371C14.6678 75.6958 14.2145 75.5251 13.6598 75.5251C13.2118 75.5251 12.8332 75.6585 12.5238 75.9251C12.2252 76.1918 11.9958 76.5438 11.8358 76.9811C11.6865 77.4185 11.6118 77.8931 11.6118 78.4051C11.6118 79.0238 11.7025 79.6051 11.8838 80.1491C12.0652 80.6825 12.3372 81.1145 12.6998 81.4451C13.0625 81.7758 13.5212 81.9411 14.0758 81.9411ZM18.881 82.3411V82.0851L19.889 81.6851V76.3731L18.833 75.8291V75.6531L20.721 74.9811H20.833L20.945 76.1491H21.025C21.409 75.7545 21.7716 75.4611 22.113 75.2691C22.465 75.0771 22.8543 74.9811 23.281 74.9811C23.761 74.9811 24.177 75.0878 24.529 75.3011C24.8916 75.5145 25.137 75.8345 25.265 76.2611H25.313C25.7396 75.8238 26.1343 75.5038 26.497 75.3011C26.8703 75.0878 27.281 74.9811 27.729 74.9811C28.3476 74.9811 28.8543 75.1518 29.249 75.4931C29.6543 75.8345 29.857 76.3305 29.857 76.9811V81.6851L30.865 82.0851V82.3411H27.633V82.0851L28.769 81.6851V77.6051C28.769 77.0611 28.6143 76.6505 28.305 76.3731C28.0063 76.0851 27.6223 75.9411 27.153 75.9411C26.8223 75.9411 26.4916 76.0051 26.161 76.1331C25.841 76.2505 25.5743 76.4265 25.361 76.6611C25.3716 76.7571 25.377 76.8638 25.377 76.9811V81.6851L26.449 82.0851V82.3411H23.201V82.0851L24.305 81.6851V77.6051C24.305 77.0611 24.1556 76.6505 23.857 76.3731C23.5583 76.0851 23.1743 75.9411 22.705 75.9411C22.4276 75.9411 22.1183 76.0051 21.777 76.1331C21.4463 76.2505 21.1743 76.4211 20.961 76.6451V81.6851L22.049 82.0851V82.3411H18.881ZM32.2723 86.0211V85.7651L33.2803 85.3651V76.3731L32.2403 75.8291V75.6531L34.1123 74.9811H34.2403L34.3363 75.9571H34.4323C34.8377 75.6158 35.227 75.3705 35.6003 75.2211C35.9843 75.0611 36.395 74.9811 36.8323 74.9811C37.3657 74.9811 37.8403 75.1198 38.2563 75.3971C38.6723 75.6745 38.9977 76.0691 39.2323 76.5811C39.4777 77.0825 39.6003 77.6851 39.6003 78.3891C39.6003 79.2638 39.435 80.0105 39.1043 80.6291C38.7737 81.2371 38.331 81.7011 37.7763 82.0211C37.2217 82.3411 36.6083 82.5011 35.9363 82.5011C35.6483 82.5011 35.371 82.4745 35.1043 82.4211C34.8483 82.3785 34.603 82.3198 34.3683 82.2451V85.3651L35.5043 85.7651V86.0211H32.2723ZM36.1283 75.8611C35.4883 75.8611 34.9017 76.0638 34.3683 76.4691V81.2051C34.6883 81.4505 35.0137 81.6265 35.3443 81.7331C35.675 81.8291 36.0377 81.8771 36.4323 81.8771C36.8163 81.8771 37.1683 81.7758 37.4883 81.5731C37.8083 81.3705 38.0643 81.0451 38.2563 80.5971C38.4483 80.1385 38.5443 79.5411 38.5443 78.8051C38.5443 78.1225 38.4323 77.5678 38.2083 77.1411C37.9843 76.7038 37.6857 76.3838 37.3123 76.1811C36.9497 75.9678 36.555 75.8611 36.1283 75.8611ZM44.0422 82.5011C43.4129 82.5011 42.8902 82.3305 42.4742 81.9891C42.0689 81.6478 41.8662 81.1518 41.8662 80.5011V75.7971L40.8102 75.3971V75.1411H42.9542V79.8771C42.9542 80.4211 43.1089 80.8371 43.4182 81.1251C43.7276 81.4025 44.1329 81.5411 44.6342 81.5411C44.9329 81.5411 45.2529 81.4825 45.5942 81.3651C45.9462 81.2478 46.2289 81.0718 46.4422 80.8371V75.7971L45.2422 75.3971V75.1411H47.5302V81.7011L48.6662 82.0851V82.3411H46.4422V81.3491H46.3782C45.9729 81.7545 45.5889 82.0478 45.2262 82.2291C44.8636 82.4105 44.4689 82.5011 44.0422 82.5011ZM52.3918 82.5011C51.9332 82.5011 51.5438 82.3625 51.2238 82.0851C50.9145 81.8078 50.7598 81.4185 50.7598 80.9171V75.8131H49.4158V75.6851L50.8398 75.1411L51.7198 73.3811H51.8478V75.1411H53.9598V75.8131H51.8478V80.7411C51.8478 81.0398 51.9598 81.2638 52.1838 81.4131C52.4078 81.5518 52.6905 81.6211 53.0318 81.6211C53.2452 81.6211 53.4425 81.6051 53.6238 81.5731C53.8052 81.5305 53.9705 81.4825 54.1198 81.4291L54.1518 81.4451V81.5571C54.0452 81.7705 53.8425 81.9838 53.5438 82.1971C53.2558 82.3998 52.8718 82.5011 52.3918 82.5011ZM58.8198 82.5011C58.1052 82.5011 57.4918 82.3518 56.9798 82.0531C56.4785 81.7545 56.0945 81.3438 55.8278 80.8211C55.5612 80.2878 55.4278 79.6745 55.4278 78.9811C55.4278 78.2131 55.5825 77.5305 55.8918 76.9331C56.2012 76.3251 56.6118 75.8505 57.1238 75.5091C57.6358 75.1571 58.1905 74.9811 58.7878 74.9811C59.6305 74.9811 60.2918 75.2691 60.7718 75.8451C61.2518 76.4211 61.5078 77.2318 61.5398 78.2771L61.4758 78.3411H56.4998C56.4998 78.3838 56.4998 78.4265 56.4998 78.4691C56.4998 79.0238 56.5958 79.5358 56.7878 80.0051C56.9798 80.4638 57.2838 80.8318 57.6998 81.1091C58.1158 81.3758 58.6545 81.5091 59.3158 81.5091C60.1052 81.5091 60.8305 81.2745 61.4918 80.8051H61.5398V80.9811C61.3052 81.4078 60.9478 81.7705 60.4678 82.0691C59.9985 82.3571 59.4492 82.5011 58.8198 82.5011ZM58.5478 75.5411C58.0358 75.5411 57.5985 75.7385 57.2358 76.1331C56.8732 76.5171 56.6438 77.0611 56.5478 77.7651H60.4518C60.2385 76.2825 59.6038 75.5411 58.5478 75.5411ZM63.2582 82.3411V82.0851L64.2662 81.6851V76.3731L63.2262 75.8291V75.6531L65.0982 74.9811H65.2262L65.3382 76.3731H65.3862C65.7062 75.9571 65.9729 75.6531 66.1862 75.4611C66.4102 75.2585 66.6129 75.1305 66.7942 75.0771C66.9756 75.0131 67.1569 74.9811 67.3382 74.9811C67.4236 74.9811 67.5196 74.9971 67.6262 75.0291C67.7329 75.0505 67.8182 75.0771 67.8822 75.1091C67.9996 75.1518 68.0956 75.2051 68.1702 75.2691C68.2449 75.3331 68.2822 75.4025 68.2822 75.4771C68.2822 75.5091 68.2769 75.5465 68.2662 75.5891C68.2662 75.6318 68.2556 75.6745 68.2342 75.7171L67.9782 76.3571H67.8982L67.4182 76.1491C67.2262 76.0745 67.0129 76.0371 66.7782 76.0371C66.5116 76.0371 66.2609 76.1065 66.0262 76.2451C65.7916 76.3838 65.5676 76.6131 65.3542 76.9331V81.6851L66.5222 82.0851V82.3411H63.2582ZM12.6794 106.501C12.2314 106.501 11.8367 106.458 11.4954 106.373C11.1647 106.288 10.8287 106.16 10.4874 105.989V104.245H10.6954L11.0954 105.061C11.2341 105.36 11.4314 105.594 11.6874 105.765C11.9541 105.925 12.2954 106.005 12.7114 106.005C13.1807 106.005 13.5381 105.898 13.7834 105.685C14.0394 105.461 14.1674 105.146 14.1674 104.741C14.1674 104.304 14.0234 103.978 13.7354 103.765C13.4474 103.552 13.0207 103.322 12.4554 103.077C11.8687 102.832 11.4261 102.56 11.1274 102.261C10.8287 101.962 10.6794 101.541 10.6794 100.997C10.6794 100.634 10.7807 100.298 10.9834 99.9891C11.1967 99.6798 11.4687 99.4345 11.7994 99.2531C12.1301 99.0718 12.4767 98.9811 12.8394 98.9811C13.2447 98.9811 13.6074 99.0291 13.9274 99.1251C14.2474 99.2211 14.5514 99.3438 14.8394 99.4931V101.189H14.6314L14.2314 100.405C14.0927 100.074 13.8954 99.8398 13.6394 99.7011C13.3941 99.5625 13.1381 99.4931 12.8714 99.4931C12.4874 99.4931 12.1834 99.5998 11.9594 99.8131C11.7461 100.016 11.6394 100.293 11.6394 100.645C11.6394 101.008 11.7621 101.296 12.0074 101.509C12.2634 101.712 12.6474 101.925 13.1594 102.149C13.5221 102.309 13.8527 102.474 14.1514 102.645C14.4501 102.805 14.6847 103.018 14.8554 103.285C15.0367 103.552 15.1274 103.92 15.1274 104.389C15.1274 104.816 15.0101 105.189 14.7754 105.509C14.5407 105.818 14.2367 106.064 13.8634 106.245C13.4901 106.416 13.0954 106.501 12.6794 106.501ZM20.3898 106.501C19.6751 106.501 19.0671 106.352 18.5658 106.053C18.0644 105.754 17.6804 105.344 17.4138 104.821C17.1471 104.288 17.0138 103.674 17.0138 102.981C17.0138 102.213 17.1684 101.53 17.4778 100.933C17.7978 100.325 18.2298 99.8505 18.7738 99.5091C19.3285 99.1571 19.9525 98.9811 20.6458 98.9811C21.0725 98.9811 21.4725 99.0505 21.8458 99.1891C22.2298 99.3171 22.5231 99.4771 22.7258 99.6691C22.8431 99.7865 22.9285 99.8878 22.9818 99.9731C23.0458 100.058 23.0778 100.138 23.0778 100.213C23.0778 100.33 23.0245 100.432 22.9178 100.517L22.3738 100.965H22.2778L21.8778 100.421C21.6858 100.165 21.4618 99.9571 21.2058 99.7971C20.9498 99.6265 20.6351 99.5411 20.2618 99.5411C19.6111 99.5411 19.0831 99.7971 18.6778 100.309C18.2831 100.81 18.0858 101.53 18.0858 102.469C18.0858 103.024 18.1818 103.536 18.3738 104.005C18.5658 104.464 18.8645 104.832 19.2698 105.109C19.6858 105.376 20.2245 105.509 20.8858 105.509C21.6751 105.509 22.4005 105.274 23.0618 104.805H23.1098V104.981C22.8645 105.408 22.5071 105.77 22.0378 106.069C21.5685 106.357 21.0191 106.501 20.3898 106.501ZM26.1752 96.8051C25.9405 96.8051 25.7432 96.7305 25.5832 96.5811C25.4338 96.4211 25.3592 96.2238 25.3592 95.9891C25.3592 95.7438 25.4338 95.5465 25.5832 95.3971C25.7432 95.2478 25.9405 95.1731 26.1752 95.1731C26.4205 95.1731 26.6178 95.2478 26.7672 95.3971C26.9165 95.5465 26.9912 95.7438 26.9912 95.9891C26.9912 96.2238 26.9165 96.4211 26.7672 96.5811C26.6178 96.7305 26.4205 96.8051 26.1752 96.8051ZM24.7512 106.341V106.085L25.7592 105.685V100.373L24.7192 99.7491V99.5891L26.7192 98.9811H26.8472V105.685L27.9032 106.085V106.341H24.7512ZM32.937 106.501C32.2224 106.501 31.609 106.352 31.097 106.053C30.5957 105.754 30.2117 105.344 29.945 104.821C29.6784 104.288 29.545 103.674 29.545 102.981C29.545 102.213 29.6997 101.53 30.009 100.933C30.3184 100.325 30.729 99.8505 31.241 99.5091C31.753 99.1571 32.3077 98.9811 32.905 98.9811C33.7477 98.9811 34.409 99.2691 34.889 99.8451C35.369 100.421 35.625 101.232 35.657 102.277L35.593 102.341H30.617C30.617 102.384 30.617 102.426 30.617 102.469C30.617 103.024 30.713 103.536 30.905 104.005C31.097 104.464 31.401 104.832 31.817 105.109C32.233 105.376 32.7717 105.509 33.433 105.509C34.2224 105.509 34.9477 105.274 35.609 104.805H35.657V104.981C35.4224 105.408 35.065 105.77 34.585 106.069C34.1157 106.357 33.5664 106.501 32.937 106.501ZM32.665 99.5411C32.153 99.5411 31.7157 99.7385 31.353 100.133C30.9904 100.517 30.761 101.061 30.665 101.765H34.569C34.3557 100.282 33.721 99.5411 32.665 99.5411ZM37.3114 106.341V106.085L38.3194 105.685V100.373L37.2794 99.8291V99.6531L39.1514 98.9811H39.2794L39.3914 100.149H39.4554C39.8607 99.7545 40.2447 99.4611 40.6074 99.2691C40.9807 99.0771 41.3914 98.9811 41.8394 98.9811C42.4794 98.9811 43.0074 99.1518 43.4234 99.4931C43.8394 99.8345 44.0474 100.33 44.0474 100.981V105.685L45.0554 106.085V106.341H41.8234V106.085L42.9594 105.685V101.605C42.9594 101.061 42.7994 100.65 42.4794 100.373C42.1594 100.085 41.7487 99.9411 41.2474 99.9411C40.9487 99.9411 40.6181 100.005 40.2554 100.133C39.9034 100.25 39.6207 100.421 39.4074 100.645V105.685L40.5434 106.085V106.341H37.3114ZM49.8429 106.501C49.1282 106.501 48.5202 106.352 48.0189 106.053C47.5176 105.754 47.1336 105.344 46.8669 104.821C46.6002 104.288 46.4669 103.674 46.4669 102.981C46.4669 102.213 46.6216 101.53 46.9309 100.933C47.2509 100.325 47.6829 99.8505 48.2269 99.5091C48.7816 99.1571 49.4056 98.9811 50.0989 98.9811C50.5256 98.9811 50.9256 99.0505 51.2989 99.1891C51.6829 99.3171 51.9762 99.4771 52.1789 99.6691C52.2962 99.7865 52.3816 99.8878 52.4349 99.9731C52.4989 100.058 52.5309 100.138 52.5309 100.213C52.5309 100.33 52.4776 100.432 52.3709 100.517L51.8269 100.965H51.7309L51.3309 100.421C51.1389 100.165 50.9149 99.9571 50.6589 99.7971C50.4029 99.6265 50.0882 99.5411 49.7149 99.5411C49.0642 99.5411 48.5362 99.7971 48.1309 100.309C47.7362 100.81 47.5389 101.53 47.5389 102.469C47.5389 103.024 47.6349 103.536 47.8269 104.005C48.0189 104.464 48.3176 104.832 48.7229 105.109C49.1389 105.376 49.6776 105.509 50.3389 105.509C51.1282 105.509 51.8536 105.274 52.5149 104.805H52.5629V104.981C52.3176 105.408 51.9602 105.77 51.4909 106.069C51.0216 106.357 50.4722 106.501 49.8429 106.501ZM57.4683 106.501C56.7536 106.501 56.1403 106.352 55.6283 106.053C55.1269 105.754 54.7429 105.344 54.4763 104.821C54.2096 104.288 54.0763 103.674 54.0763 102.981C54.0763 102.213 54.2309 101.53 54.5403 100.933C54.8496 100.325 55.2603 99.8505 55.7723 99.5091C56.2843 99.1571 56.839 98.9811 57.4363 98.9811C58.279 98.9811 58.9403 99.2691 59.4203 99.8451C59.9003 100.421 60.1563 101.232 60.1883 102.277L60.1243 102.341H55.1483C55.1483 102.384 55.1483 102.426 55.1483 102.469C55.1483 103.024 55.2443 103.536 55.4363 104.005C55.6283 104.464 55.9323 104.832 56.3483 105.109C56.7643 105.376 57.303 105.509 57.9643 105.509C58.7536 105.509 59.479 105.274 60.1403 104.805H60.1883V104.981C59.9536 105.408 59.5963 105.77 59.1163 106.069C58.647 106.357 58.0976 106.501 57.4683 106.501ZM57.1963 99.5411C56.6843 99.5411 56.247 99.7385 55.8843 100.133C55.5216 100.517 55.2923 101.061 55.1963 101.765H59.1003C58.887 100.282 58.2523 99.5411 57.1963 99.5411Z" fill="black"/>
<path d="M96.8646 81.2024V80.9464L97.8726 80.5464V70.5944L96.8326 69.9704V69.8104L98.8326 69.2024H98.9606V80.5464L100.017 80.9464V81.2024H96.8646ZM103.074 71.6664C102.839 71.6664 102.642 71.5918 102.482 71.4424C102.332 71.2824 102.258 71.0851 102.258 70.8504C102.258 70.6051 102.332 70.4078 102.482 70.2584C102.642 70.1091 102.839 70.0344 103.074 70.0344C103.319 70.0344 103.516 70.1091 103.666 70.2584C103.815 70.4078 103.89 70.6051 103.89 70.8504C103.89 71.0851 103.815 71.2824 103.666 71.4424C103.516 71.5918 103.319 71.6664 103.074 71.6664ZM101.65 81.2024V80.9464L102.658 80.5464V75.2344L101.618 74.6104V74.4504L103.618 73.8424H103.746V80.5464L104.802 80.9464V81.2024H101.65ZM108.907 81.3624C108.449 81.3624 108.059 81.2238 107.739 80.9464C107.43 80.6691 107.275 80.2798 107.275 79.7784V74.6744H105.931V74.5464L107.355 74.0024L108.235 72.2424H108.363V74.0024H110.475V74.6744H108.363V79.6024C108.363 79.9011 108.475 80.1251 108.699 80.2744C108.923 80.4131 109.206 80.4824 109.547 80.4824C109.761 80.4824 109.958 80.4664 110.139 80.4344C110.321 80.3918 110.486 80.3438 110.635 80.2904L110.667 80.3064V80.4184C110.561 80.6318 110.358 80.8451 110.059 81.0584C109.771 81.2611 109.387 81.3624 108.907 81.3624ZM115.335 81.3624C114.621 81.3624 114.007 81.2131 113.495 80.9144C112.994 80.6158 112.61 80.2051 112.343 79.6824C112.077 79.1491 111.943 78.5358 111.943 77.8424C111.943 77.0744 112.098 76.3918 112.407 75.7944C112.717 75.1864 113.127 74.7118 113.639 74.3704C114.151 74.0184 114.706 73.8424 115.303 73.8424C116.146 73.8424 116.807 74.1304 117.287 74.7064C117.767 75.2824 118.023 76.0931 118.055 77.1384L117.991 77.2024H113.015C113.015 77.2451 113.015 77.2878 113.015 77.3304C113.015 77.8851 113.111 78.3971 113.303 78.8664C113.495 79.3251 113.799 79.6931 114.215 79.9704C114.631 80.2371 115.17 80.3704 115.831 80.3704C116.621 80.3704 117.346 80.1358 118.007 79.6664H118.055V79.8424C117.821 80.2691 117.463 80.6318 116.983 80.9304C116.514 81.2184 115.965 81.3624 115.335 81.3624ZM115.063 74.4024C114.551 74.4024 114.114 74.5998 113.751 74.9944C113.389 75.3784 113.159 75.9224 113.063 76.6264H116.967C116.754 75.1438 116.119 74.4024 115.063 74.4024ZM119.774 81.2024V80.9464L120.782 80.5464V75.2344L119.742 74.6904V74.5144L121.614 73.8424H121.742L121.854 75.2344H121.902C122.222 74.8184 122.489 74.5144 122.702 74.3224C122.926 74.1198 123.129 73.9918 123.31 73.9384C123.491 73.8744 123.673 73.8424 123.854 73.8424C123.939 73.8424 124.035 73.8584 124.142 73.8904C124.249 73.9118 124.334 73.9384 124.398 73.9704C124.515 74.0131 124.611 74.0664 124.686 74.1304C124.761 74.1944 124.798 74.2638 124.798 74.3384C124.798 74.3704 124.793 74.4078 124.782 74.4504C124.782 74.4931 124.771 74.5358 124.75 74.5784L124.494 75.2184H124.414L123.934 75.0104C123.742 74.9358 123.529 74.8984 123.294 74.8984C123.027 74.8984 122.777 74.9678 122.542 75.1064C122.307 75.2451 122.083 75.4744 121.87 75.7944V80.5464L123.038 80.9464V81.2024H119.774ZM127.577 81.3624C127.076 81.3624 126.66 81.2184 126.329 80.9304C125.998 80.6318 125.833 80.2211 125.833 79.6984C125.833 79.1758 126.025 78.7331 126.409 78.3704C126.793 78.0078 127.428 77.7198 128.313 77.5064L129.865 77.1224V75.8904C129.865 75.4851 129.705 75.1491 129.385 74.8824C129.076 74.6158 128.729 74.4824 128.345 74.4824C127.918 74.4824 127.62 74.5838 127.449 74.7864C127.278 74.9891 127.193 75.2664 127.193 75.6184V76.1464L127.113 76.2264H126.441C126.281 76.2264 126.169 76.2051 126.105 76.1624C126.052 76.1091 126.025 75.9918 126.025 75.8104C126.025 75.5864 126.094 75.3571 126.233 75.1224C126.372 74.8878 126.58 74.6851 126.857 74.5144C127.156 74.3224 127.46 74.1624 127.769 74.0344C128.089 73.9064 128.409 73.8424 128.729 73.8424C129.134 73.8424 129.502 73.9011 129.833 74.0184C130.164 74.1251 130.43 74.3064 130.633 74.5624C130.836 74.8184 130.937 75.1598 130.937 75.5864V80.3064C131.022 80.3918 131.129 80.4558 131.257 80.4984C131.385 80.5411 131.55 80.5624 131.753 80.5624H132.457L132.489 80.5944V80.6264C132.382 80.8078 132.217 80.9784 131.993 81.1384C131.78 81.2878 131.508 81.3624 131.177 81.3624C130.836 81.3624 130.564 81.2718 130.361 81.0904C130.158 80.9091 130.02 80.6798 129.945 80.4024H129.865C129.588 80.6798 129.246 80.9091 128.841 81.0904C128.446 81.2718 128.025 81.3624 127.577 81.3624ZM126.905 79.3944C126.905 79.7678 127.017 80.0504 127.241 80.2424C127.465 80.4238 127.78 80.5144 128.185 80.5144C128.452 80.5144 128.724 80.4824 129.001 80.4184C129.278 80.3544 129.566 80.2478 129.865 80.0984V77.5864C129.001 77.7571 128.356 77.9331 127.929 78.1144C127.513 78.2958 127.236 78.4931 127.097 78.7064C126.969 78.9091 126.905 79.1384 126.905 79.3944ZM133.555 81.2024V80.9464L134.563 80.5464V75.2344L133.523 74.6904V74.5144L135.395 73.8424H135.523L135.635 75.2344H135.683C136.003 74.8184 136.27 74.5144 136.483 74.3224C136.707 74.1198 136.91 73.9918 137.091 73.9384C137.272 73.8744 137.454 73.8424 137.635 73.8424C137.72 73.8424 137.816 73.8584 137.923 73.8904C138.03 73.9118 138.115 73.9384 138.179 73.9704C138.296 74.0131 138.392 74.0664 138.467 74.1304C138.542 74.1944 138.579 74.2638 138.579 74.3384C138.579 74.3704 138.574 74.4078 138.563 74.4504C138.563 74.4931 138.552 74.5358 138.531 74.5784L138.275 75.2184H138.195L137.715 75.0104C137.523 74.9358 137.31 74.8984 137.075 74.8984C136.808 74.8984 136.558 74.9678 136.323 75.1064C136.088 75.2451 135.864 75.4744 135.651 75.7944V80.5464L136.819 80.9464V81.2024H133.555ZM140.137 85.0584C139.902 85.0584 139.753 85.0211 139.689 84.9464C139.636 84.8824 139.609 84.7651 139.609 84.5944V83.9704L139.673 83.9064H140.409C140.676 83.9064 140.878 83.8798 141.017 83.8264C141.156 83.7838 141.284 83.6664 141.401 83.4744C141.518 83.2824 141.684 82.9624 141.897 82.5144L142.553 81.0584L139.753 74.6744L138.713 74.2584V74.0024H142.233V74.2584L140.953 74.6584V74.7224L143.081 79.7144H143.129L144.985 74.7864V74.7064L143.753 74.2584V74.0024H146.761V74.2584L145.641 74.6904L142.409 82.6584C142.26 83.0104 142.137 83.2878 142.041 83.4904C141.945 83.6931 141.801 83.9331 141.609 84.2104C141.406 84.4878 141.177 84.6958 140.921 84.8344C140.665 84.9838 140.404 85.0584 140.137 85.0584ZM102.173 105.362C101.714 105.362 101.325 105.224 101.005 104.946C100.696 104.669 100.541 104.28 100.541 103.778V98.6744H99.1971V98.5464L100.621 98.0024L101.501 96.2424H101.629V98.0024H103.741V98.6744H101.629V103.602C101.629 103.901 101.741 104.125 101.965 104.274C102.189 104.413 102.472 104.482 102.813 104.482C103.026 104.482 103.224 104.466 103.405 104.434C103.586 104.392 103.752 104.344 103.901 104.29L103.933 104.306V104.418C103.826 104.632 103.624 104.845 103.325 105.058C103.037 105.261 102.653 105.362 102.173 105.362ZM105.241 105.202V104.946L106.249 104.546V94.5944L105.209 93.9704V93.8104L107.209 93.2024H107.337V99.0104H107.385C107.79 98.6158 108.174 98.3224 108.537 98.1304C108.91 97.9384 109.321 97.8424 109.769 97.8424C110.409 97.8424 110.937 98.0131 111.353 98.3544C111.769 98.6958 111.977 99.1918 111.977 99.8424V104.546L112.985 104.946V105.202H109.753V104.946L110.889 104.562V100.466C110.889 99.9224 110.729 99.5118 110.409 99.2344C110.089 98.9464 109.678 98.8024 109.177 98.8024C108.878 98.8024 108.548 98.8664 108.185 98.9944C107.833 99.1118 107.55 99.2824 107.337 99.5064V104.562L108.473 104.946V105.202H105.241ZM117.789 105.362C117.074 105.362 116.461 105.213 115.949 104.914C115.447 104.616 115.063 104.205 114.797 103.682C114.53 103.149 114.397 102.536 114.397 101.842C114.397 101.074 114.551 100.392 114.861 99.7944C115.17 99.1864 115.581 98.7118 116.093 98.3704C116.605 98.0184 117.159 97.8424 117.757 97.8424C118.599 97.8424 119.261 98.1304 119.741 98.7064C120.221 99.2824 120.477 100.093 120.509 101.138L120.445 101.202H115.469C115.469 101.245 115.469 101.288 115.469 101.33C115.469 101.885 115.565 102.397 115.757 102.866C115.949 103.325 116.253 103.693 116.669 103.97C117.085 104.237 117.623 104.37 118.285 104.37C119.074 104.37 119.799 104.136 120.461 103.666H120.509V103.842C120.274 104.269 119.917 104.632 119.437 104.93C118.967 105.218 118.418 105.362 117.789 105.362ZM117.517 98.4024C117.005 98.4024 116.567 98.5998 116.205 98.9944C115.842 99.3784 115.613 99.9224 115.517 100.626H119.421C119.207 99.1438 118.573 98.4024 117.517 98.4024ZM125.617 105.362C124.935 105.362 124.337 105.197 123.825 104.866C123.313 104.536 122.913 104.088 122.625 103.522C122.337 102.957 122.193 102.317 122.193 101.602C122.193 100.888 122.337 100.248 122.625 99.6824C122.913 99.1171 123.313 98.6691 123.825 98.3384C124.337 98.0078 124.935 97.8424 125.617 97.8424C126.3 97.8424 126.897 98.0078 127.409 98.3384C127.921 98.6691 128.321 99.1171 128.609 99.6824C128.897 100.248 129.041 100.888 129.041 101.602C129.041 102.317 128.897 102.957 128.609 103.522C128.321 104.088 127.921 104.536 127.409 104.866C126.897 105.197 126.3 105.362 125.617 105.362ZM125.841 104.802C126.289 104.802 126.663 104.664 126.961 104.386C127.26 104.109 127.484 103.752 127.633 103.314C127.783 102.866 127.857 102.402 127.857 101.922C127.857 101.314 127.767 100.744 127.585 100.21C127.415 99.6664 127.148 99.2291 126.785 98.8984C126.433 98.5571 125.98 98.3864 125.425 98.3864C124.977 98.3864 124.599 98.5198 124.289 98.7864C123.991 99.0531 123.761 99.4051 123.601 99.8424C123.452 100.28 123.377 100.754 123.377 101.266C123.377 101.885 123.468 102.466 123.649 103.01C123.831 103.544 124.103 103.976 124.465 104.306C124.828 104.637 125.287 104.802 125.841 104.802ZM130.743 105.202V104.946L131.751 104.546V99.2344L130.711 98.6904V98.5144L132.583 97.8424H132.711L132.823 99.2344H132.871C133.191 98.8184 133.457 98.5144 133.671 98.3224C133.895 98.1198 134.097 97.9918 134.279 97.9384C134.46 97.8744 134.641 97.8424 134.823 97.8424C134.908 97.8424 135.004 97.8584 135.111 97.8904C135.217 97.9118 135.303 97.9384 135.367 97.9704C135.484 98.0131 135.58 98.0664 135.655 98.1304C135.729 98.1944 135.767 98.2638 135.767 98.3384C135.767 98.3704 135.761 98.4078 135.751 98.4504C135.751 98.4931 135.74 98.5358 135.719 98.5784L135.463 99.2184H135.383L134.903 99.0104C134.711 98.9358 134.497 98.8984 134.263 98.8984C133.996 98.8984 133.745 98.9678 133.511 99.1064C133.276 99.2451 133.052 99.4744 132.839 99.7944V104.546L134.007 104.946V105.202H130.743ZM137.324 109.058C137.09 109.058 136.94 109.021 136.876 108.946C136.823 108.882 136.796 108.765 136.796 108.594V107.97L136.86 107.906H137.596C137.863 107.906 138.066 107.88 138.204 107.826C138.343 107.784 138.471 107.666 138.588 107.474C138.706 107.282 138.871 106.962 139.084 106.514L139.74 105.058L136.94 98.6744L135.9 98.2584V98.0024H139.42V98.2584L138.14 98.6584V98.7224L140.268 103.714H140.316L142.172 98.7864V98.7064L140.94 98.2584V98.0024H143.948V98.2584L142.828 98.6904L139.596 106.658C139.447 107.01 139.324 107.288 139.228 107.49C139.132 107.693 138.988 107.933 138.796 108.21C138.594 108.488 138.364 108.696 138.108 108.834C137.852 108.984 137.591 109.058 137.324 109.058Z" fill="black"/>
<path d="M199.422 81.3624C198.793 81.3624 198.27 81.1918 197.854 80.8504C197.449 80.5091 197.246 80.0131 197.246 79.3624V74.6584L196.19 74.2584V74.0024H198.334V78.7384C198.334 79.2824 198.489 79.6984 198.798 79.9864C199.108 80.2638 199.513 80.4024 200.014 80.4024C200.313 80.4024 200.633 80.3438 200.974 80.2264C201.326 80.1091 201.609 79.9331 201.822 79.6984V74.6584L200.622 74.2584V74.0024H202.91V80.5624L204.046 80.9464V81.2024H201.822V80.2104H201.758C201.353 80.6158 200.969 80.9091 200.606 81.0904C200.244 81.2718 199.849 81.3624 199.422 81.3624ZM204.924 81.2024V80.9464L205.82 80.5144L207.884 77.6184L205.82 74.6584L205.004 74.2584V74.0024H208.124V74.2584L207.068 74.6424V74.7224L208.604 76.9304L209.964 74.7864V74.7064L209.068 74.2584V74.0024H211.564V74.2584L210.7 74.7224L208.844 77.2824L211.116 80.5464L211.836 80.9464V81.2024H208.924V80.9464L209.868 80.5624V80.4824L208.14 78.0024L206.62 80.4184V80.4984L207.564 80.9464V81.2024H204.924ZM184.598 105.362C184.064 105.362 183.59 105.229 183.174 104.962C182.758 104.696 182.427 104.312 182.182 103.81C181.947 103.309 181.83 102.717 181.83 102.034C181.83 101.138 182 100.381 182.342 99.7624C182.694 99.1331 183.158 98.6584 183.734 98.3384C184.32 98.0078 184.955 97.8424 185.638 97.8424C185.915 97.8424 186.171 97.8638 186.406 97.9064C186.64 97.9491 186.859 98.0078 187.062 98.0824V94.5944L185.974 93.9704V93.8104L188.022 93.2024H188.15V104.562L189.286 104.946V105.202H187.222L187.078 104.386H186.998C186.603 104.717 186.214 104.962 185.83 105.122C185.446 105.282 185.035 105.362 184.598 105.362ZM182.886 101.714C182.886 102.354 182.998 102.877 183.222 103.282C183.446 103.688 183.739 103.992 184.102 104.194C184.475 104.386 184.875 104.482 185.302 104.482C185.6 104.482 185.899 104.434 186.198 104.338C186.507 104.232 186.795 104.077 187.062 103.874V99.1064C186.774 98.9038 186.491 98.7491 186.214 98.6424C185.936 98.5358 185.627 98.4824 185.286 98.4824C184.859 98.4824 184.459 98.5891 184.086 98.8024C183.723 99.0158 183.43 99.3624 183.206 99.8424C182.992 100.312 182.886 100.936 182.886 101.714ZM194.13 105.362C193.415 105.362 192.802 105.213 192.289 104.914C191.788 104.616 191.404 104.205 191.138 103.682C190.871 103.149 190.738 102.536 190.738 101.842C190.738 101.074 190.892 100.392 191.202 99.7944C191.511 99.1864 191.922 98.7118 192.434 98.3704C192.946 98.0184 193.5 97.8424 194.098 97.8424C194.94 97.8424 195.602 98.1304 196.082 98.7064C196.562 99.2824 196.818 100.093 196.85 101.138L196.786 101.202H191.81C191.81 101.245 191.81 101.288 191.81 101.33C191.81 101.885 191.906 102.397 192.098 102.866C192.29 103.325 192.594 103.693 193.01 103.97C193.426 104.237 193.964 104.37 194.626 104.37C195.415 104.37 196.14 104.136 196.802 103.666H196.85V103.842C196.615 104.269 196.258 104.632 195.778 104.93C195.308 105.218 194.759 105.362 194.13 105.362ZM193.858 98.4024C193.346 98.4024 192.908 98.5998 192.546 98.9944C192.183 99.3784 191.954 99.9224 191.858 100.626H195.762C195.548 99.1438 194.914 98.4024 193.858 98.4024ZM200.872 105.362C200.424 105.362 200.029 105.32 199.688 105.234C199.357 105.149 199.021 105.021 198.68 104.85V103.106H198.888L199.288 103.922C199.427 104.221 199.624 104.456 199.88 104.626C200.147 104.786 200.488 104.866 200.904 104.866C201.373 104.866 201.731 104.76 201.976 104.546C202.232 104.322 202.36 104.008 202.36 103.602C202.36 103.165 202.216 102.84 201.928 102.626C201.64 102.413 201.213 102.184 200.648 101.938C200.061 101.693 199.619 101.421 199.32 101.122C199.021 100.824 198.872 100.402 198.872 99.8584C198.872 99.4958 198.973 99.1598 199.176 98.8504C199.389 98.5411 199.661 98.2958 199.992 98.1144C200.323 97.9331 200.669 97.8424 201.032 97.8424C201.437 97.8424 201.8 97.8904 202.12 97.9864C202.44 98.0824 202.744 98.2051 203.032 98.3544V100.05H202.824L202.424 99.2664C202.285 98.9358 202.088 98.7011 201.832 98.5624C201.587 98.4238 201.331 98.3544 201.064 98.3544C200.68 98.3544 200.376 98.4611 200.152 98.6744C199.939 98.8771 199.832 99.1544 199.832 99.5064C199.832 99.8691 199.955 100.157 200.2 100.37C200.456 100.573 200.84 100.786 201.352 101.01C201.715 101.17 202.045 101.336 202.344 101.506C202.643 101.666 202.877 101.88 203.048 102.146C203.229 102.413 203.32 102.781 203.32 103.25C203.32 103.677 203.203 104.05 202.968 104.37C202.733 104.68 202.429 104.925 202.056 105.106C201.683 105.277 201.288 105.362 200.872 105.362ZM206.758 95.6664C206.524 95.6664 206.326 95.5918 206.166 95.4424C206.017 95.2824 205.942 95.0851 205.942 94.8504C205.942 94.6051 206.017 94.4078 206.166 94.2584C206.326 94.1091 206.524 94.0344 206.758 94.0344C207.004 94.0344 207.201 94.1091 207.35 94.2584C207.5 94.4078 207.574 94.6051 207.574 94.8504C207.574 95.0851 207.5 95.2824 207.35 95.4424C207.201 95.5918 207.004 95.6664 206.758 95.6664ZM205.334 105.202V104.946L206.342 104.546V99.2344L205.302 98.6104V98.4504L207.302 97.8424H207.43V104.546L208.486 104.946V105.202H205.334ZM213.28 102.866C212.875 102.866 212.501 102.797 212.16 102.658C211.872 102.765 211.675 102.893 211.568 103.042C211.461 103.192 211.408 103.362 211.408 103.554C211.408 103.864 211.509 104.093 211.712 104.242C211.925 104.381 212.261 104.45 212.72 104.45H214.592C215.307 104.45 215.84 104.616 216.192 104.946C216.555 105.266 216.736 105.73 216.736 106.338C216.736 106.786 216.581 107.213 216.272 107.618C215.973 108.034 215.547 108.376 214.992 108.642C214.448 108.909 213.803 109.042 213.056 109.042C212.075 109.042 211.371 108.856 210.944 108.482C210.517 108.12 210.304 107.672 210.304 107.138C210.304 106.754 210.395 106.413 210.576 106.114L211.632 105.346V105.298C211.259 105.213 210.971 105.058 210.768 104.834C210.565 104.6 210.464 104.322 210.464 104.002C210.464 103.608 210.592 103.288 210.848 103.042L211.744 102.546V102.45C211.381 102.226 211.093 101.933 210.88 101.57C210.677 101.208 210.576 100.802 210.576 100.354C210.576 99.8744 210.693 99.4478 210.928 99.0744C211.163 98.6904 211.483 98.3918 211.888 98.1784C212.293 97.9544 212.757 97.8424 213.28 97.8424C213.504 97.8424 213.744 97.8691 214 97.9224C214.267 97.9758 214.496 98.0451 214.688 98.1304L217.008 98.0024V98.7864L215.456 98.6744L215.408 98.7224C215.579 98.9144 215.717 99.1598 215.824 99.4584C215.931 99.7571 215.984 100.056 215.984 100.354C215.984 100.834 215.867 101.266 215.632 101.65C215.397 102.024 215.077 102.322 214.672 102.546C214.267 102.76 213.803 102.866 213.28 102.866ZM213.44 102.354C213.877 102.354 214.224 102.173 214.48 101.81C214.736 101.437 214.864 100.968 214.864 100.402C214.864 99.7518 214.699 99.2451 214.368 98.8824C214.048 98.5198 213.648 98.3384 213.168 98.3384C212.699 98.3384 212.331 98.5304 212.064 98.9144C211.808 99.2878 211.68 99.7518 211.68 100.306C211.68 100.936 211.845 101.437 212.176 101.81C212.507 102.173 212.928 102.354 213.44 102.354ZM211.28 106.962C211.28 107.442 211.472 107.837 211.856 108.146C212.24 108.466 212.709 108.626 213.264 108.626C213.755 108.626 214.187 108.53 214.56 108.338C214.933 108.157 215.227 107.912 215.44 107.602C215.653 107.304 215.76 106.984 215.76 106.642C215.76 106.152 215.632 105.816 215.376 105.634C215.12 105.453 214.661 105.362 214 105.362H212.304C212.219 105.362 212.139 105.357 212.064 105.346C211.765 105.528 211.557 105.746 211.44 106.002C211.333 106.269 211.28 106.589 211.28 106.962ZM218.551 105.202V104.946L219.559 104.546V99.2344L218.519 98.6904V98.5144L220.391 97.8424H220.519L220.631 99.0104H220.695C221.1 98.6158 221.484 98.3224 221.847 98.1304C222.22 97.9384 222.631 97.8424 223.079 97.8424C223.719 97.8424 224.247 98.0131 224.663 98.3544C225.079 98.6958 225.287 99.1918 225.287 99.8424V104.546L226.295 104.946V105.202H223.063V104.946L224.199 104.546V100.466C224.199 99.9224 224.039 99.5118 223.719 99.2344C223.399 98.9464 222.988 98.8024 222.487 98.8024C222.188 98.8024 221.857 98.8664 221.495 98.9944C221.143 99.1118 220.86 99.2824 220.647 99.5064V104.546L221.783 104.946V105.202H218.551Z" fill="black"/>
<path d="M301.091 94.3824C300.383 94.3824 299.801 94.2024 299.345 93.8424C298.901 93.4824 298.679 92.9544 298.679 92.2584V86.9304L297.527 86.3724V86.0844H300.371V91.4304C300.371 91.9344 300.521 92.3184 300.821 92.5824C301.133 92.8464 301.535 92.9784 302.027 92.9784C302.327 92.9784 302.657 92.9304 303.017 92.8344C303.377 92.7264 303.665 92.5704 303.881 92.3664V86.9304L302.657 86.3724V86.0844H305.591V93.3924L306.833 93.9144V94.2024H303.881V93.0684H303.791C303.347 93.5124 302.915 93.8424 302.495 94.0584C302.075 94.2744 301.607 94.3824 301.091 94.3824ZM307.74 94.2024V93.9144L308.712 93.3024L311.088 90.2424L308.658 86.9124L307.812 86.3724V86.0844H311.808V86.3724L310.638 86.8944V87.0024L312.24 89.1804L313.68 87.1104V87.0024L312.69 86.3724V86.0844H315.732V86.3724L314.778 86.9844L312.636 89.7204L315.3 93.3744L316.038 93.9144V94.2024H312.24V93.9144L313.302 93.3924V93.2844L311.484 90.8004L309.846 93.1764V93.2844L310.944 93.9144V94.2024H307.74ZM324.782 94.3824C324.206 94.3824 323.708 94.3284 323.288 94.2204C322.88 94.1244 322.466 93.9684 322.046 93.7524V91.7364H322.316L322.892 92.7084C323.288 93.3684 323.9 93.6984 324.728 93.6984C325.208 93.6984 325.574 93.5904 325.826 93.3744C326.09 93.1584 326.222 92.8584 326.222 92.4744C326.222 92.1624 326.138 91.9104 325.97 91.7184C325.814 91.5264 325.58 91.3584 325.268 91.2144C324.968 91.0704 324.602 90.8964 324.17 90.6924C323.546 90.4164 323.066 90.1104 322.73 89.7744C322.406 89.4384 322.244 88.9764 322.244 88.3884C322.244 87.9204 322.37 87.5004 322.622 87.1284C322.886 86.7564 323.222 86.4624 323.63 86.2464C324.038 86.0184 324.47 85.9044 324.926 85.9044C325.358 85.9044 325.766 85.9584 326.15 86.0664C326.534 86.1624 326.912 86.3064 327.284 86.4984V88.4964H327.032L326.438 87.5604C326.042 86.9364 325.556 86.6244 324.98 86.6244C324.584 86.6244 324.266 86.7264 324.026 86.9304C323.786 87.1224 323.666 87.3924 323.666 87.7404C323.666 88.1244 323.804 88.4244 324.08 88.6404C324.368 88.8444 324.812 89.0784 325.412 89.3424C325.76 89.4984 326.102 89.6664 326.438 89.8464C326.774 90.0144 327.05 90.2544 327.266 90.5664C327.494 90.8664 327.608 91.2984 327.608 91.8624C327.608 92.4144 327.458 92.8764 327.158 93.2484C326.87 93.6204 326.51 93.9024 326.078 94.0944C325.646 94.2864 325.214 94.3824 324.782 94.3824ZM333.397 94.3824C332.233 94.3824 331.309 94.0284 330.625 93.3204C329.941 92.6124 329.599 91.6704 329.599 90.4944C329.599 89.6064 329.779 88.8144 330.139 88.1184C330.511 87.4224 331.015 86.8824 331.651 86.4984C332.287 86.1024 333.013 85.9044 333.829 85.9044C334.333 85.9044 334.813 85.9884 335.269 86.1564C335.725 86.3124 336.073 86.5224 336.313 86.7864C336.493 87.0024 336.583 87.1824 336.583 87.3264C336.583 87.4224 336.565 87.5004 336.529 87.5604C336.505 87.6084 336.451 87.6744 336.367 87.7584L335.629 88.3524H335.503L334.891 87.5244C334.711 87.2724 334.495 87.0744 334.243 86.9304C333.991 86.7744 333.673 86.6964 333.289 86.6964C332.653 86.6964 332.155 86.9604 331.795 87.4884C331.435 88.0164 331.255 88.7424 331.255 89.6664C331.255 90.2304 331.345 90.7584 331.525 91.2504C331.717 91.7424 332.029 92.1384 332.461 92.4384C332.905 92.7384 333.505 92.8884 334.261 92.8884C334.597 92.8884 334.957 92.8344 335.341 92.7264C335.725 92.6064 336.133 92.4324 336.565 92.2044H336.619V92.4204C336.343 92.9724 335.923 93.4404 335.359 93.8244C334.795 94.1964 334.141 94.3824 333.397 94.3824ZM340.227 83.8164C339.903 83.8164 339.633 83.7084 339.417 83.4924C339.201 83.2764 339.093 83.0064 339.093 82.6824C339.093 82.3464 339.201 82.0764 339.417 81.8724C339.633 81.6564 339.903 81.5484 340.227 81.5484C340.551 81.5484 340.821 81.6564 341.037 81.8724C341.253 82.0764 341.361 82.3464 341.361 82.6824C341.361 83.0064 341.253 83.2764 341.037 83.4924C340.821 83.7084 340.551 83.8164 340.227 83.8164ZM338.283 94.2024V93.9144L339.435 93.3384V87.9564L338.337 87.0384V86.8944L341.001 85.9044H341.127V93.3384L342.243 93.9144V94.2024H338.283ZM347.794 94.3824C346.618 94.3824 345.688 94.0284 345.004 93.3204C344.32 92.6124 343.978 91.6704 343.978 90.4944C343.978 89.6064 344.158 88.8144 344.518 88.1184C344.89 87.4224 345.376 86.8824 345.976 86.4984C346.588 86.1024 347.248 85.9044 347.956 85.9044C348.916 85.9044 349.666 86.2344 350.206 86.8944C350.746 87.5424 351.022 88.4784 351.034 89.7024L350.944 89.7924H345.634C345.646 90.3444 345.748 90.8544 345.94 91.3224C346.144 91.7904 346.462 92.1684 346.894 92.4564C347.338 92.7444 347.932 92.8884 348.676 92.8884C349.36 92.8884 350.134 92.6604 350.998 92.2044H351.052V92.4204C350.764 92.9724 350.338 93.4404 349.774 93.8244C349.21 94.1964 348.55 94.3824 347.794 94.3824ZM347.632 86.6964C347.104 86.6964 346.666 86.8944 346.318 87.2904C345.982 87.6864 345.766 88.2444 345.67 88.9644H349.504C349.384 88.1484 349.168 87.5664 348.856 87.2184C348.544 86.8704 348.136 86.6964 347.632 86.6964ZM352.695 94.2024V93.9144L353.847 93.3384V87.9564L352.749 87.0564V86.9124L355.233 85.9044H355.359L355.521 87.2364H355.611C356.067 86.7924 356.505 86.4624 356.925 86.2464C357.345 86.0184 357.819 85.9044 358.347 85.9044C359.043 85.9044 359.619 86.0844 360.075 86.4444C360.543 86.7924 360.777 87.3204 360.777 88.0284V93.3384L361.911 93.9144V94.2024H357.879V93.9144L359.067 93.3384V88.8564C359.067 88.3404 358.911 87.9564 358.599 87.7044C358.287 87.4404 357.885 87.3084 357.393 87.3084C357.093 87.3084 356.763 87.3564 356.403 87.4524C356.043 87.5484 355.755 87.6984 355.539 87.9024V93.3384L356.727 93.9144V94.2024H352.695ZM367.165 94.3824C366.001 94.3824 365.077 94.0284 364.393 93.3204C363.709 92.6124 363.367 91.6704 363.367 90.4944C363.367 89.6064 363.547 88.8144 363.907 88.1184C364.279 87.4224 364.783 86.8824 365.419 86.4984C366.055 86.1024 366.781 85.9044 367.597 85.9044C368.101 85.9044 368.581 85.9884 369.037 86.1564C369.493 86.3124 369.841 86.5224 370.081 86.7864C370.261 87.0024 370.351 87.1824 370.351 87.3264C370.351 87.4224 370.333 87.5004 370.297 87.5604C370.273 87.6084 370.219 87.6744 370.135 87.7584L369.397 88.3524H369.271L368.659 87.5244C368.479 87.2724 368.263 87.0744 368.011 86.9304C367.759 86.7744 367.441 86.6964 367.057 86.6964C366.421 86.6964 365.923 86.9604 365.563 87.4884C365.203 88.0164 365.023 88.7424 365.023 89.6664C365.023 90.2304 365.113 90.7584 365.293 91.2504C365.485 91.7424 365.797 92.1384 366.229 92.4384C366.673 92.7384 367.273 92.8884 368.029 92.8884C368.365 92.8884 368.725 92.8344 369.109 92.7264C369.493 92.6064 369.901 92.4324 370.333 92.2044H370.387V92.4204C370.111 92.9724 369.691 93.4404 369.127 93.8244C368.563 94.1964 367.909 94.3824 367.165 94.3824ZM375.813 94.3824C374.637 94.3824 373.707 94.0284 373.023 93.3204C372.339 92.6124 371.997 91.6704 371.997 90.4944C371.997 89.6064 372.177 88.8144 372.537 88.1184C372.909 87.4224 373.395 86.8824 373.995 86.4984C374.607 86.1024 375.267 85.9044 375.975 85.9044C376.935 85.9044 377.685 86.2344 378.225 86.8944C378.765 87.5424 379.041 88.4784 379.053 89.7024L378.963 89.7924H373.653C373.665 90.3444 373.767 90.8544 373.959 91.3224C374.163 91.7904 374.481 92.1684 374.913 92.4564C375.357 92.7444 375.951 92.8884 376.695 92.8884C377.379 92.8884 378.153 92.6604 379.017 92.2044H379.071V92.4204C378.783 92.9724 378.357 93.4404 377.793 93.8244C377.229 94.1964 376.569 94.3824 375.813 94.3824ZM375.651 86.6964C375.123 86.6964 374.685 86.8944 374.337 87.2904C374.001 87.6864 373.785 88.2444 373.689 88.9644H377.523C377.403 88.1484 377.187 87.5664 376.875 87.2184C376.563 86.8704 376.155 86.6964 375.651 86.6964Z" fill="#F4B400"/>
<circle cx="327" cy="71.2024" r="4" fill="#0F9D58"/>
<circle cx="38" cy="60.2024" r="4" fill="#0F9D58"/>
<path d="M37 60.7024C171.4 -26.4976 286.667 31.3691 327.5 71.2024" stroke="#0F9D58" stroke-width="2"/>
<path d="M205.192 60.2024C270.592 -51.3976 299.17 20.0358 305.284 69.7024" stroke="#4285F4" stroke-width="2"/>
<ellipse cx="205.192" cy="60.2024" rx="4.19231" ry="4" fill="#4285F4"/>
<ellipse cx="305.808" cy="71.2024" rx="4.19231" ry="4" fill="#4285F4"/>
<circle cx="364" cy="108.202" r="4" fill="#DB4437"/>
<circle cx="125" cy="121.202" r="4" fill="#DB4437"/>
<path d="M123 120.202C240.2 213.402 332.833 150.702 364.5 107.702" stroke="#DB4437" stroke-width="2"/>
</svg>
