<svg width="385" height="155" viewBox="0 0 385 155" fill="none" xmlns="http://www.w3.org/2000/svg">
<path d="M6.19447 75.5011C5.4798 75.5011 4.8718 75.3518 4.37047 75.0531C3.86914 74.7545 3.48514 74.3438 3.21847 73.8211C2.9518 73.2878 2.81847 72.6745 2.81847 71.9811C2.81847 71.2131 2.97314 70.5305 3.28247 69.9331C3.60247 69.3251 4.03447 68.8505 4.57847 68.5091C5.13314 68.1571 5.75714 67.9811 6.45047 67.9811C6.87714 67.9811 7.27714 68.0505 7.65047 68.1891C8.03447 68.3171 8.3278 68.4771 8.53047 68.6691C8.6478 68.7865 8.73314 68.8878 8.78647 68.9731C8.85047 69.0585 8.88247 69.1385 8.88247 69.2131C8.88247 69.3305 8.82914 69.4318 8.72247 69.5171L8.17847 69.9651H8.08247L7.68247 69.4211C7.49047 69.1651 7.26647 68.9571 7.01047 68.7971C6.75447 68.6265 6.4398 68.5411 6.06647 68.5411C5.4158 68.5411 4.8878 68.7971 4.48247 69.3091C4.0878 69.8105 3.89047 70.5305 3.89047 71.4691C3.89047 72.0238 3.98647 72.5358 4.17847 73.0051C4.37047 73.4638 4.66914 73.8318 5.07447 74.1091C5.49047 74.3758 6.02914 74.5091 6.69047 74.5091C7.4798 74.5091 8.20514 74.2745 8.86647 73.8051H8.91447V73.9811C8.66914 74.4078 8.3118 74.7705 7.84247 75.0691C7.37314 75.3571 6.8238 75.5011 6.19447 75.5011ZM13.8518 75.5011C13.1692 75.5011 12.5718 75.3358 12.0598 75.0051C11.5478 74.6745 11.1478 74.2265 10.8598 73.6611C10.5718 73.0958 10.4278 72.4558 10.4278 71.7411C10.4278 71.0265 10.5718 70.3865 10.8598 69.8211C11.1478 69.2558 11.5478 68.8078 12.0598 68.4771C12.5718 68.1465 13.1692 67.9811 13.8518 67.9811C14.5345 67.9811 15.1318 68.1465 15.6438 68.4771C16.1558 68.8078 16.5558 69.2558 16.8438 69.8211C17.1318 70.3865 17.2758 71.0265 17.2758 71.7411C17.2758 72.4558 17.1318 73.0958 16.8438 73.6611C16.5558 74.2265 16.1558 74.6745 15.6438 75.0051C15.1318 75.3358 14.5345 75.5011 13.8518 75.5011ZM14.0758 74.9411C14.5238 74.9411 14.8972 74.8025 15.1958 74.5251C15.4945 74.2478 15.7185 73.8905 15.8678 73.4531C16.0172 73.0051 16.0918 72.5411 16.0918 72.0611C16.0918 71.4531 16.0012 70.8825 15.8198 70.3491C15.6492 69.8051 15.3825 69.3678 15.0198 69.0371C14.6678 68.6958 14.2145 68.5251 13.6598 68.5251C13.2118 68.5251 12.8332 68.6585 12.5238 68.9251C12.2252 69.1918 11.9958 69.5438 11.8358 69.9811C11.6865 70.4185 11.6118 70.8931 11.6118 71.4051C11.6118 72.0238 11.7025 72.6051 11.8838 73.1491C12.0652 73.6825 12.3372 74.1145 12.6998 74.4451C13.0625 74.7758 13.5212 74.9411 14.0758 74.9411ZM18.881 75.3411V75.0851L19.889 74.6851V69.3731L18.833 68.8291V68.6531L20.721 67.9811H20.833L20.945 69.1491H21.025C21.409 68.7545 21.7716 68.4611 22.113 68.2691C22.465 68.0771 22.8543 67.9811 23.281 67.9811C23.761 67.9811 24.177 68.0878 24.529 68.3011C24.8916 68.5145 25.137 68.8345 25.265 69.2611H25.313C25.7396 68.8238 26.1343 68.5038 26.497 68.3011C26.8703 68.0878 27.281 67.9811 27.729 67.9811C28.3476 67.9811 28.8543 68.1518 29.249 68.4931C29.6543 68.8345 29.857 69.3305 29.857 69.9811V74.6851L30.865 75.0851V75.3411H27.633V75.0851L28.769 74.6851V70.6051C28.769 70.0611 28.6143 69.6505 28.305 69.3731C28.0063 69.0851 27.6223 68.9411 27.153 68.9411C26.8223 68.9411 26.4916 69.0051 26.161 69.1331C25.841 69.2505 25.5743 69.4265 25.361 69.6611C25.3716 69.7571 25.377 69.8638 25.377 69.9811V74.6851L26.449 75.0851V75.3411H23.201V75.0851L24.305 74.6851V70.6051C24.305 70.0611 24.1556 69.6505 23.857 69.3731C23.5583 69.0851 23.1743 68.9411 22.705 68.9411C22.4276 68.9411 22.1183 69.0051 21.777 69.1331C21.4463 69.2505 21.1743 69.4211 20.961 69.6451V74.6851L22.049 75.0851V75.3411H18.881ZM32.2723 79.0211V78.7651L33.2803 78.3651V69.3731L32.2403 68.8291V68.6531L34.1123 67.9811H34.2403L34.3363 68.9571H34.4323C34.8377 68.6158 35.227 68.3705 35.6003 68.2211C35.9843 68.0611 36.395 67.9811 36.8323 67.9811C37.3657 67.9811 37.8403 68.1198 38.2563 68.3971C38.6723 68.6745 38.9977 69.0691 39.2323 69.5811C39.4777 70.0825 39.6003 70.6851 39.6003 71.3891C39.6003 72.2638 39.435 73.0105 39.1043 73.6291C38.7737 74.2371 38.331 74.7011 37.7763 75.0211C37.2217 75.3411 36.6083 75.5011 35.9363 75.5011C35.6483 75.5011 35.371 75.4745 35.1043 75.4211C34.8483 75.3785 34.603 75.3198 34.3683 75.2451V78.3651L35.5043 78.7651V79.0211H32.2723ZM36.1283 68.8611C35.4883 68.8611 34.9017 69.0638 34.3683 69.4691V74.2051C34.6883 74.4505 35.0137 74.6265 35.3443 74.7331C35.675 74.8291 36.0377 74.8771 36.4323 74.8771C36.8163 74.8771 37.1683 74.7758 37.4883 74.5731C37.8083 74.3705 38.0643 74.0451 38.2563 73.5971C38.4483 73.1385 38.5443 72.5411 38.5443 71.8051C38.5443 71.1225 38.4323 70.5678 38.2083 70.1411C37.9843 69.7038 37.6857 69.3838 37.3123 69.1811C36.9497 68.9678 36.555 68.8611 36.1283 68.8611ZM44.0422 75.5011C43.4129 75.5011 42.8902 75.3305 42.4742 74.9891C42.0689 74.6478 41.8662 74.1518 41.8662 73.5011V68.7971L40.8102 68.3971V68.1411H42.9542V72.8771C42.9542 73.4211 43.1089 73.8371 43.4182 74.1251C43.7276 74.4025 44.1329 74.5411 44.6342 74.5411C44.9329 74.5411 45.2529 74.4825 45.5942 74.3651C45.9462 74.2478 46.2289 74.0718 46.4422 73.8371V68.7971L45.2422 68.3971V68.1411H47.5302V74.7011L48.6662 75.0851V75.3411H46.4422V74.3491H46.3782C45.9729 74.7545 45.5889 75.0478 45.2262 75.2291C44.8636 75.4105 44.4689 75.5011 44.0422 75.5011ZM52.3918 75.5011C51.9332 75.5011 51.5438 75.3625 51.2238 75.0851C50.9145 74.8078 50.7598 74.4185 50.7598 73.9171V68.8131H49.4158V68.6851L50.8398 68.1411L51.7198 66.3811H51.8478V68.1411H53.9598V68.8131H51.8478V73.7411C51.8478 74.0398 51.9598 74.2638 52.1838 74.4131C52.4078 74.5518 52.6905 74.6211 53.0318 74.6211C53.2452 74.6211 53.4425 74.6051 53.6238 74.5731C53.8052 74.5305 53.9705 74.4825 54.1198 74.4291L54.1518 74.4451V74.5571C54.0452 74.7705 53.8425 74.9838 53.5438 75.1971C53.2558 75.3998 52.8718 75.5011 52.3918 75.5011ZM58.8198 75.5011C58.1052 75.5011 57.4918 75.3518 56.9798 75.0531C56.4785 74.7545 56.0945 74.3438 55.8278 73.8211C55.5612 73.2878 55.4278 72.6745 55.4278 71.9811C55.4278 71.2131 55.5825 70.5305 55.8918 69.9331C56.2012 69.3251 56.6118 68.8505 57.1238 68.5091C57.6358 68.1571 58.1905 67.9811 58.7878 67.9811C59.6305 67.9811 60.2918 68.2691 60.7718 68.8451C61.2518 69.4211 61.5078 70.2318 61.5398 71.2771L61.4758 71.3411H56.4998C56.4998 71.3838 56.4998 71.4265 56.4998 71.4691C56.4998 72.0238 56.5958 72.5358 56.7878 73.0051C56.9798 73.4638 57.2838 73.8318 57.6998 74.1091C58.1158 74.3758 58.6545 74.5091 59.3158 74.5091C60.1052 74.5091 60.8305 74.2745 61.4918 73.8051H61.5398V73.9811C61.3052 74.4078 60.9478 74.7705 60.4678 75.0691C59.9985 75.3571 59.4492 75.5011 58.8198 75.5011ZM58.5478 68.5411C58.0358 68.5411 57.5985 68.7385 57.2358 69.1331C56.8732 69.5171 56.6438 70.0611 56.5478 70.7651H60.4518C60.2385 69.2825 59.6038 68.5411 58.5478 68.5411ZM63.2582 75.3411V75.0851L64.2662 74.6851V69.3731L63.2262 68.8291V68.6531L65.0982 67.9811H65.2262L65.3382 69.3731H65.3862C65.7062 68.9571 65.9729 68.6531 66.1862 68.4611C66.4102 68.2585 66.6129 68.1305 66.7942 68.0771C66.9756 68.0131 67.1569 67.9811 67.3382 67.9811C67.4236 67.9811 67.5196 67.9971 67.6262 68.0291C67.7329 68.0505 67.8182 68.0771 67.8822 68.1091C67.9996 68.1518 68.0956 68.2051 68.1702 68.2691C68.2449 68.3331 68.2822 68.4025 68.2822 68.4771C68.2822 68.5091 68.2769 68.5465 68.2662 68.5891C68.2662 68.6318 68.2556 68.6745 68.2342 68.7171L67.9782 69.3571H67.8982L67.4182 69.1491C67.2262 69.0745 67.0129 69.0371 66.7782 69.0371C66.5116 69.0371 66.2609 69.1065 66.0262 69.2451C65.7916 69.3838 65.5676 69.6131 65.3542 69.9331V74.6851L66.5222 75.0851V75.3411H63.2582ZM12.6794 99.5011C12.2314 99.5011 11.8367 99.4585 11.4954 99.3731C11.1647 99.2878 10.8287 99.1598 10.4874 98.9891V97.2451H10.6954L11.0954 98.0611C11.2341 98.3598 11.4314 98.5945 11.6874 98.7651C11.9541 98.9251 12.2954 99.0051 12.7114 99.0051C13.1807 99.0051 13.5381 98.8985 13.7834 98.6851C14.0394 98.4611 14.1674 98.1465 14.1674 97.7411C14.1674 97.3038 14.0234 96.9785 13.7354 96.7651C13.4474 96.5518 13.0207 96.3225 12.4554 96.0771C11.8687 95.8318 11.4261 95.5598 11.1274 95.2611C10.8287 94.9625 10.6794 94.5411 10.6794 93.9971C10.6794 93.6345 10.7807 93.2985 10.9834 92.9891C11.1967 92.6798 11.4687 92.4345 11.7994 92.2531C12.1301 92.0718 12.4767 91.9811 12.8394 91.9811C13.2447 91.9811 13.6074 92.0291 13.9274 92.1251C14.2474 92.2211 14.5514 92.3438 14.8394 92.4931V94.1891H14.6314L14.2314 93.4051C14.0927 93.0745 13.8954 92.8398 13.6394 92.7011C13.3941 92.5625 13.1381 92.4931 12.8714 92.4931C12.4874 92.4931 12.1834 92.5998 11.9594 92.8131C11.7461 93.0158 11.6394 93.2931 11.6394 93.6451C11.6394 94.0078 11.7621 94.2958 12.0074 94.5091C12.2634 94.7118 12.6474 94.9251 13.1594 95.1491C13.5221 95.3091 13.8527 95.4745 14.1514 95.6451C14.4501 95.8051 14.6847 96.0185 14.8554 96.2851C15.0367 96.5518 15.1274 96.9198 15.1274 97.3891C15.1274 97.8158 15.0101 98.1891 14.7754 98.5091C14.5407 98.8185 14.2367 99.0638 13.8634 99.2451C13.4901 99.4158 13.0954 99.5011 12.6794 99.5011ZM20.3898 99.5011C19.6751 99.5011 19.0671 99.3518 18.5658 99.0531C18.0644 98.7545 17.6804 98.3438 17.4138 97.8211C17.1471 97.2878 17.0138 96.6745 17.0138 95.9811C17.0138 95.2131 17.1684 94.5305 17.4778 93.9331C17.7978 93.3251 18.2298 92.8505 18.7738 92.5091C19.3285 92.1571 19.9525 91.9811 20.6458 91.9811C21.0725 91.9811 21.4725 92.0505 21.8458 92.1891C22.2298 92.3171 22.5231 92.4771 22.7258 92.6691C22.8431 92.7865 22.9285 92.8878 22.9818 92.9731C23.0458 93.0585 23.0778 93.1385 23.0778 93.2131C23.0778 93.3305 23.0245 93.4318 22.9178 93.5171L22.3738 93.9651H22.2778L21.8778 93.4211C21.6858 93.1651 21.4618 92.9571 21.2058 92.7971C20.9498 92.6265 20.6351 92.5411 20.2618 92.5411C19.6111 92.5411 19.0831 92.7971 18.6778 93.3091C18.2831 93.8105 18.0858 94.5305 18.0858 95.4691C18.0858 96.0238 18.1818 96.5358 18.3738 97.0051C18.5658 97.4638 18.8645 97.8318 19.2698 98.1091C19.6858 98.3758 20.2245 98.5091 20.8858 98.5091C21.6751 98.5091 22.4005 98.2745 23.0618 97.8051H23.1098V97.9811C22.8645 98.4078 22.5071 98.7705 22.0378 99.0691C21.5685 99.3571 21.0191 99.5011 20.3898 99.5011ZM26.1752 89.8051C25.9405 89.8051 25.7432 89.7305 25.5832 89.5811C25.4338 89.4211 25.3592 89.2238 25.3592 88.9891C25.3592 88.7438 25.4338 88.5465 25.5832 88.3971C25.7432 88.2478 25.9405 88.1731 26.1752 88.1731C26.4205 88.1731 26.6178 88.2478 26.7672 88.3971C26.9165 88.5465 26.9912 88.7438 26.9912 88.9891C26.9912 89.2238 26.9165 89.4211 26.7672 89.5811C26.6178 89.7305 26.4205 89.8051 26.1752 89.8051ZM24.7512 99.3411V99.0851L25.7592 98.6851V93.3731L24.7192 92.7491V92.5891L26.7192 91.9811H26.8472V98.6851L27.9032 99.0851V99.3411H24.7512ZM32.937 99.5011C32.2224 99.5011 31.609 99.3518 31.097 99.0531C30.5957 98.7545 30.2117 98.3438 29.945 97.8211C29.6784 97.2878 29.545 96.6745 29.545 95.9811C29.545 95.2131 29.6997 94.5305 30.009 93.9331C30.3184 93.3251 30.729 92.8505 31.241 92.5091C31.753 92.1571 32.3077 91.9811 32.905 91.9811C33.7477 91.9811 34.409 92.2691 34.889 92.8451C35.369 93.4211 35.625 94.2318 35.657 95.2771L35.593 95.3411H30.617C30.617 95.3838 30.617 95.4265 30.617 95.4691C30.617 96.0238 30.713 96.5358 30.905 97.0051C31.097 97.4638 31.401 97.8318 31.817 98.1091C32.233 98.3758 32.7717 98.5091 33.433 98.5091C34.2224 98.5091 34.9477 98.2745 35.609 97.8051H35.657V97.9811C35.4224 98.4078 35.065 98.7705 34.585 99.0691C34.1157 99.3571 33.5664 99.5011 32.937 99.5011ZM32.665 92.5411C32.153 92.5411 31.7157 92.7385 31.353 93.1331C30.9904 93.5171 30.761 94.0611 30.665 94.7651H34.569C34.3557 93.2825 33.721 92.5411 32.665 92.5411ZM37.3114 99.3411V99.0851L38.3194 98.6851V93.3731L37.2794 92.8291V92.6531L39.1514 91.9811H39.2794L39.3914 93.1491H39.4554C39.8607 92.7545 40.2447 92.4611 40.6074 92.2691C40.9807 92.0771 41.3914 91.9811 41.8394 91.9811C42.4794 91.9811 43.0074 92.1518 43.4234 92.4931C43.8394 92.8345 44.0474 93.3305 44.0474 93.9811V98.6851L45.0554 99.0851V99.3411H41.8234V99.0851L42.9594 98.6851V94.6051C42.9594 94.0611 42.7994 93.6505 42.4794 93.3731C42.1594 93.0851 41.7487 92.9411 41.2474 92.9411C40.9487 92.9411 40.6181 93.0051 40.2554 93.1331C39.9034 93.2505 39.6207 93.4211 39.4074 93.6451V98.6851L40.5434 99.0851V99.3411H37.3114ZM49.8429 99.5011C49.1282 99.5011 48.5202 99.3518 48.0189 99.0531C47.5176 98.7545 47.1336 98.3438 46.8669 97.8211C46.6002 97.2878 46.4669 96.6745 46.4669 95.9811C46.4669 95.2131 46.6216 94.5305 46.9309 93.9331C47.2509 93.3251 47.6829 92.8505 48.2269 92.5091C48.7816 92.1571 49.4056 91.9811 50.0989 91.9811C50.5256 91.9811 50.9256 92.0505 51.2989 92.1891C51.6829 92.3171 51.9762 92.4771 52.1789 92.6691C52.2962 92.7865 52.3816 92.8878 52.4349 92.9731C52.4989 93.0585 52.5309 93.1385 52.5309 93.2131C52.5309 93.3305 52.4776 93.4318 52.3709 93.5171L51.8269 93.9651H51.7309L51.3309 93.4211C51.1389 93.1651 50.9149 92.9571 50.6589 92.7971C50.4029 92.6265 50.0882 92.5411 49.7149 92.5411C49.0642 92.5411 48.5362 92.7971 48.1309 93.3091C47.7362 93.8105 47.5389 94.5305 47.5389 95.4691C47.5389 96.0238 47.6349 96.5358 47.8269 97.0051C48.0189 97.4638 48.3176 97.8318 48.7229 98.1091C49.1389 98.3758 49.6776 98.5091 50.3389 98.5091C51.1282 98.5091 51.8536 98.2745 52.5149 97.8051H52.5629V97.9811C52.3176 98.4078 51.9602 98.7705 51.4909 99.0691C51.0216 99.3571 50.4722 99.5011 49.8429 99.5011ZM57.4683 99.5011C56.7536 99.5011 56.1403 99.3518 55.6283 99.0531C55.1269 98.7545 54.7429 98.3438 54.4763 97.8211C54.2096 97.2878 54.0763 96.6745 54.0763 95.9811C54.0763 95.2131 54.2309 94.5305 54.5403 93.9331C54.8496 93.3251 55.2603 92.8505 55.7723 92.5091C56.2843 92.1571 56.839 91.9811 57.4363 91.9811C58.279 91.9811 58.9403 92.2691 59.4203 92.8451C59.9003 93.4211 60.1563 94.2318 60.1883 95.2771L60.1243 95.3411H55.1483C55.1483 95.3838 55.1483 95.4265 55.1483 95.4691C55.1483 96.0238 55.2443 96.5358 55.4363 97.0051C55.6283 97.4638 55.9323 97.8318 56.3483 98.1091C56.7643 98.3758 57.303 98.5091 57.9643 98.5091C58.7536 98.5091 59.479 98.2745 60.1403 97.8051H60.1883V97.9811C59.9536 98.4078 59.5963 98.7705 59.1163 99.0691C58.647 99.3571 58.0976 99.5011 57.4683 99.5011ZM57.1963 92.5411C56.6843 92.5411 56.247 92.7385 55.8843 93.1331C55.5216 93.5171 55.2923 94.0611 55.1963 94.7651H59.1003C58.887 93.2825 58.2523 92.5411 57.1963 92.5411Z" fill="black"/>
<path d="M96.8646 74.2024V73.9464L97.8726 73.5464V63.5944L96.8326 62.9704V62.8104L98.8326 62.2024H98.9606V73.5464L100.017 73.9464V74.2024H96.8646ZM103.074 64.6664C102.839 64.6664 102.642 64.5918 102.482 64.4424C102.332 64.2824 102.258 64.0851 102.258 63.8504C102.258 63.6051 102.332 63.4078 102.482 63.2584C102.642 63.1091 102.839 63.0344 103.074 63.0344C103.319 63.0344 103.516 63.1091 103.666 63.2584C103.815 63.4078 103.89 63.6051 103.89 63.8504C103.89 64.0851 103.815 64.2824 103.666 64.4424C103.516 64.5918 103.319 64.6664 103.074 64.6664ZM101.65 74.2024V73.9464L102.658 73.5464V68.2344L101.618 67.6104V67.4504L103.618 66.8424H103.746V73.5464L104.802 73.9464V74.2024H101.65ZM108.907 74.3624C108.449 74.3624 108.059 74.2238 107.739 73.9464C107.43 73.6691 107.275 73.2798 107.275 72.7784V67.6744H105.931V67.5464L107.355 67.0024L108.235 65.2424H108.363V67.0024H110.475V67.6744H108.363V72.6024C108.363 72.9011 108.475 73.1251 108.699 73.2744C108.923 73.4131 109.206 73.4824 109.547 73.4824C109.761 73.4824 109.958 73.4664 110.139 73.4344C110.321 73.3918 110.486 73.3438 110.635 73.2904L110.667 73.3064V73.4184C110.561 73.6318 110.358 73.8451 110.059 74.0584C109.771 74.2611 109.387 74.3624 108.907 74.3624ZM115.335 74.3624C114.621 74.3624 114.007 74.2131 113.495 73.9144C112.994 73.6158 112.61 73.2051 112.343 72.6824C112.077 72.1491 111.943 71.5358 111.943 70.8424C111.943 70.0744 112.098 69.3918 112.407 68.7944C112.717 68.1864 113.127 67.7118 113.639 67.3704C114.151 67.0184 114.706 66.8424 115.303 66.8424C116.146 66.8424 116.807 67.1304 117.287 67.7064C117.767 68.2824 118.023 69.0931 118.055 70.1384L117.991 70.2024H113.015C113.015 70.2451 113.015 70.2878 113.015 70.3304C113.015 70.8851 113.111 71.3971 113.303 71.8664C113.495 72.3251 113.799 72.6931 114.215 72.9704C114.631 73.2371 115.17 73.3704 115.831 73.3704C116.621 73.3704 117.346 73.1358 118.007 72.6664H118.055V72.8424C117.821 73.2691 117.463 73.6318 116.983 73.9304C116.514 74.2184 115.965 74.3624 115.335 74.3624ZM115.063 67.4024C114.551 67.4024 114.114 67.5998 113.751 67.9944C113.389 68.3784 113.159 68.9224 113.063 69.6264H116.967C116.754 68.1438 116.119 67.4024 115.063 67.4024ZM119.774 74.2024V73.9464L120.782 73.5464V68.2344L119.742 67.6904V67.5144L121.614 66.8424H121.742L121.854 68.2344H121.902C122.222 67.8184 122.489 67.5144 122.702 67.3224C122.926 67.1198 123.129 66.9918 123.31 66.9384C123.491 66.8744 123.673 66.8424 123.854 66.8424C123.939 66.8424 124.035 66.8584 124.142 66.8904C124.249 66.9118 124.334 66.9384 124.398 66.9704C124.515 67.0131 124.611 67.0664 124.686 67.1304C124.761 67.1944 124.798 67.2638 124.798 67.3384C124.798 67.3704 124.793 67.4078 124.782 67.4504C124.782 67.4931 124.771 67.5358 124.75 67.5784L124.494 68.2184H124.414L123.934 68.0104C123.742 67.9358 123.529 67.8984 123.294 67.8984C123.027 67.8984 122.777 67.9678 122.542 68.1064C122.307 68.2451 122.083 68.4744 121.87 68.7944V73.5464L123.038 73.9464V74.2024H119.774ZM127.577 74.3624C127.076 74.3624 126.66 74.2184 126.329 73.9304C125.998 73.6318 125.833 73.2211 125.833 72.6984C125.833 72.1758 126.025 71.7331 126.409 71.3704C126.793 71.0078 127.428 70.7198 128.313 70.5064L129.865 70.1224V68.8904C129.865 68.4851 129.705 68.1491 129.385 67.8824C129.076 67.6158 128.729 67.4824 128.345 67.4824C127.918 67.4824 127.62 67.5838 127.449 67.7864C127.278 67.9891 127.193 68.2664 127.193 68.6184V69.1464L127.113 69.2264H126.441C126.281 69.2264 126.169 69.2051 126.105 69.1624C126.052 69.1091 126.025 68.9918 126.025 68.8104C126.025 68.5864 126.094 68.3571 126.233 68.1224C126.372 67.8878 126.58 67.6851 126.857 67.5144C127.156 67.3224 127.46 67.1624 127.769 67.0344C128.089 66.9064 128.409 66.8424 128.729 66.8424C129.134 66.8424 129.502 66.9011 129.833 67.0184C130.164 67.1251 130.43 67.3064 130.633 67.5624C130.836 67.8184 130.937 68.1598 130.937 68.5864V73.3064C131.022 73.3918 131.129 73.4558 131.257 73.4984C131.385 73.5411 131.55 73.5624 131.753 73.5624H132.457L132.489 73.5944V73.6264C132.382 73.8078 132.217 73.9784 131.993 74.1384C131.78 74.2878 131.508 74.3624 131.177 74.3624C130.836 74.3624 130.564 74.2718 130.361 74.0904C130.158 73.9091 130.02 73.6798 129.945 73.4024H129.865C129.588 73.6798 129.246 73.9091 128.841 74.0904C128.446 74.2718 128.025 74.3624 127.577 74.3624ZM126.905 72.3944C126.905 72.7678 127.017 73.0504 127.241 73.2424C127.465 73.4238 127.78 73.5144 128.185 73.5144C128.452 73.5144 128.724 73.4824 129.001 73.4184C129.278 73.3544 129.566 73.2478 129.865 73.0984V70.5864C129.001 70.7571 128.356 70.9331 127.929 71.1144C127.513 71.2958 127.236 71.4931 127.097 71.7064C126.969 71.9091 126.905 72.1384 126.905 72.3944ZM133.555 74.2024V73.9464L134.563 73.5464V68.2344L133.523 67.6904V67.5144L135.395 66.8424H135.523L135.635 68.2344H135.683C136.003 67.8184 136.27 67.5144 136.483 67.3224C136.707 67.1198 136.91 66.9918 137.091 66.9384C137.272 66.8744 137.454 66.8424 137.635 66.8424C137.72 66.8424 137.816 66.8584 137.923 66.8904C138.03 66.9118 138.115 66.9384 138.179 66.9704C138.296 67.0131 138.392 67.0664 138.467 67.1304C138.542 67.1944 138.579 67.2638 138.579 67.3384C138.579 67.3704 138.574 67.4078 138.563 67.4504C138.563 67.4931 138.552 67.5358 138.531 67.5784L138.275 68.2184H138.195L137.715 68.0104C137.523 67.9358 137.31 67.8984 137.075 67.8984C136.808 67.8984 136.558 67.9678 136.323 68.1064C136.088 68.2451 135.864 68.4744 135.651 68.7944V73.5464L136.819 73.9464V74.2024H133.555ZM140.137 78.0584C139.902 78.0584 139.753 78.0211 139.689 77.9464C139.636 77.8824 139.609 77.7651 139.609 77.5944V76.9704L139.673 76.9064H140.409C140.676 76.9064 140.878 76.8798 141.017 76.8264C141.156 76.7838 141.284 76.6664 141.401 76.4744C141.518 76.2824 141.684 75.9624 141.897 75.5144L142.553 74.0584L139.753 67.6744L138.713 67.2584V67.0024H142.233V67.2584L140.953 67.6584V67.7224L143.081 72.7144H143.129L144.985 67.7864V67.7064L143.753 67.2584V67.0024H146.761V67.2584L145.641 67.6904L142.409 75.6584C142.26 76.0104 142.137 76.2878 142.041 76.4904C141.945 76.6931 141.801 76.9331 141.609 77.2104C141.406 77.4878 141.177 77.6958 140.921 77.8344C140.665 77.9838 140.404 78.0584 140.137 78.0584ZM102.173 98.3624C101.714 98.3624 101.325 98.2238 101.005 97.9464C100.696 97.6691 100.541 97.2798 100.541 96.7784V91.6744H99.1971V91.5464L100.621 91.0024L101.501 89.2424H101.629V91.0024H103.741V91.6744H101.629V96.6024C101.629 96.9011 101.741 97.1251 101.965 97.2744C102.189 97.4131 102.472 97.4824 102.813 97.4824C103.026 97.4824 103.224 97.4664 103.405 97.4344C103.586 97.3918 103.752 97.3438 103.901 97.2904L103.933 97.3064V97.4184C103.826 97.6318 103.624 97.8451 103.325 98.0584C103.037 98.2611 102.653 98.3624 102.173 98.3624ZM105.241 98.2024V97.9464L106.249 97.5464V87.5944L105.209 86.9704V86.8104L107.209 86.2024H107.337V92.0104H107.385C107.79 91.6158 108.174 91.3224 108.537 91.1304C108.91 90.9384 109.321 90.8424 109.769 90.8424C110.409 90.8424 110.937 91.0131 111.353 91.3544C111.769 91.6958 111.977 92.1918 111.977 92.8424V97.5464L112.985 97.9464V98.2024H109.753V97.9464L110.889 97.5624V93.4664C110.889 92.9224 110.729 92.5118 110.409 92.2344C110.089 91.9464 109.678 91.8024 109.177 91.8024C108.878 91.8024 108.548 91.8664 108.185 91.9944C107.833 92.1118 107.55 92.2824 107.337 92.5064V97.5624L108.473 97.9464V98.2024H105.241ZM117.789 98.3624C117.074 98.3624 116.461 98.2131 115.949 97.9144C115.447 97.6158 115.063 97.2051 114.797 96.6824C114.53 96.1491 114.397 95.5358 114.397 94.8424C114.397 94.0744 114.551 93.3918 114.861 92.7944C115.17 92.1864 115.581 91.7118 116.093 91.3704C116.605 91.0184 117.159 90.8424 117.757 90.8424C118.599 90.8424 119.261 91.1304 119.741 91.7064C120.221 92.2824 120.477 93.0931 120.509 94.1384L120.445 94.2024H115.469C115.469 94.2451 115.469 94.2878 115.469 94.3304C115.469 94.8851 115.565 95.3971 115.757 95.8664C115.949 96.3251 116.253 96.6931 116.669 96.9704C117.085 97.2371 117.623 97.3704 118.285 97.3704C119.074 97.3704 119.799 97.1358 120.461 96.6664H120.509V96.8424C120.274 97.2691 119.917 97.6318 119.437 97.9304C118.967 98.2184 118.418 98.3624 117.789 98.3624ZM117.517 91.4024C117.005 91.4024 116.567 91.5998 116.205 91.9944C115.842 92.3784 115.613 92.9224 115.517 93.6264H119.421C119.207 92.1438 118.573 91.4024 117.517 91.4024ZM125.617 98.3624C124.935 98.3624 124.337 98.1971 123.825 97.8664C123.313 97.5358 122.913 97.0878 122.625 96.5224C122.337 95.9571 122.193 95.3171 122.193 94.6024C122.193 93.8878 122.337 93.2478 122.625 92.6824C122.913 92.1171 123.313 91.6691 123.825 91.3384C124.337 91.0078 124.935 90.8424 125.617 90.8424C126.3 90.8424 126.897 91.0078 127.409 91.3384C127.921 91.6691 128.321 92.1171 128.609 92.6824C128.897 93.2478 129.041 93.8878 129.041 94.6024C129.041 95.3171 128.897 95.9571 128.609 96.5224C128.321 97.0878 127.921 97.5358 127.409 97.8664C126.897 98.1971 126.3 98.3624 125.617 98.3624ZM125.841 97.8024C126.289 97.8024 126.663 97.6638 126.961 97.3864C127.26 97.1091 127.484 96.7518 127.633 96.3144C127.783 95.8664 127.857 95.4024 127.857 94.9224C127.857 94.3144 127.767 93.7438 127.585 93.2104C127.415 92.6664 127.148 92.2291 126.785 91.8984C126.433 91.5571 125.98 91.3864 125.425 91.3864C124.977 91.3864 124.599 91.5198 124.289 91.7864C123.991 92.0531 123.761 92.4051 123.601 92.8424C123.452 93.2798 123.377 93.7544 123.377 94.2664C123.377 94.8851 123.468 95.4664 123.649 96.0104C123.831 96.5438 124.103 96.9758 124.465 97.3064C124.828 97.6371 125.287 97.8024 125.841 97.8024ZM130.743 98.2024V97.9464L131.751 97.5464V92.2344L130.711 91.6904V91.5144L132.583 90.8424H132.711L132.823 92.2344H132.871C133.191 91.8184 133.457 91.5144 133.671 91.3224C133.895 91.1198 134.097 90.9918 134.279 90.9384C134.46 90.8744 134.641 90.8424 134.823 90.8424C134.908 90.8424 135.004 90.8584 135.111 90.8904C135.217 90.9118 135.303 90.9384 135.367 90.9704C135.484 91.0131 135.58 91.0664 135.655 91.1304C135.729 91.1944 135.767 91.2638 135.767 91.3384C135.767 91.3704 135.761 91.4078 135.751 91.4504C135.751 91.4931 135.74 91.5358 135.719 91.5784L135.463 92.2184H135.383L134.903 92.0104C134.711 91.9358 134.497 91.8984 134.263 91.8984C133.996 91.8984 133.745 91.9678 133.511 92.1064C133.276 92.2451 133.052 92.4744 132.839 92.7944V97.5464L134.007 97.9464V98.2024H130.743ZM137.324 102.058C137.09 102.058 136.94 102.021 136.876 101.946C136.823 101.882 136.796 101.765 136.796 101.594V100.97L136.86 100.906H137.596C137.863 100.906 138.066 100.88 138.204 100.826C138.343 100.784 138.471 100.666 138.588 100.474C138.706 100.282 138.871 99.9624 139.084 99.5144L139.74 98.0584L136.94 91.6744L135.9 91.2584V91.0024H139.42V91.2584L138.14 91.6584V91.7224L140.268 96.7144H140.316L142.172 91.7864V91.7064L140.94 91.2584V91.0024H143.948V91.2584L142.828 91.6904L139.596 99.6584C139.447 100.01 139.324 100.288 139.228 100.49C139.132 100.693 138.988 100.933 138.796 101.21C138.594 101.488 138.364 101.696 138.108 101.834C137.852 101.984 137.591 102.058 137.324 102.058Z" fill="black"/>
<path d="M199.422 74.3624C198.793 74.3624 198.27 74.1918 197.854 73.8504C197.449 73.5091 197.246 73.0131 197.246 72.3624V67.6584L196.19 67.2584V67.0024H198.334V71.7384C198.334 72.2824 198.489 72.6984 198.798 72.9864C199.108 73.2638 199.513 73.4024 200.014 73.4024C200.313 73.4024 200.633 73.3438 200.974 73.2264C201.326 73.1091 201.609 72.9331 201.822 72.6984V67.6584L200.622 67.2584V67.0024H202.91V73.5624L204.046 73.9464V74.2024H201.822V73.2104H201.758C201.353 73.6158 200.969 73.9091 200.606 74.0904C200.244 74.2718 199.849 74.3624 199.422 74.3624ZM204.924 74.2024V73.9464L205.82 73.5144L207.884 70.6184L205.82 67.6584L205.004 67.2584V67.0024H208.124V67.2584L207.068 67.6424V67.7224L208.604 69.9304L209.964 67.7864V67.7064L209.068 67.2584V67.0024H211.564V67.2584L210.7 67.7224L208.844 70.2824L211.116 73.5464L211.836 73.9464V74.2024H208.924V73.9464L209.868 73.5624V73.4824L208.14 71.0024L206.62 73.4184V73.4984L207.564 73.9464V74.2024H204.924ZM184.598 98.3624C184.064 98.3624 183.59 98.2291 183.174 97.9624C182.758 97.6958 182.427 97.3118 182.182 96.8104C181.947 96.3091 181.83 95.7171 181.83 95.0344C181.83 94.1384 182 93.3811 182.342 92.7624C182.694 92.1331 183.158 91.6584 183.734 91.3384C184.32 91.0078 184.955 90.8424 185.638 90.8424C185.915 90.8424 186.171 90.8638 186.406 90.9064C186.64 90.9491 186.859 91.0078 187.062 91.0824V87.5944L185.974 86.9704V86.8104L188.022 86.2024H188.15V97.5624L189.286 97.9464V98.2024H187.222L187.078 97.3864H186.998C186.603 97.7171 186.214 97.9624 185.83 98.1224C185.446 98.2824 185.035 98.3624 184.598 98.3624ZM182.886 94.7144C182.886 95.3544 182.998 95.8771 183.222 96.2824C183.446 96.6878 183.739 96.9918 184.102 97.1944C184.475 97.3864 184.875 97.4824 185.302 97.4824C185.6 97.4824 185.899 97.4344 186.198 97.3384C186.507 97.2318 186.795 97.0771 187.062 96.8744V92.1064C186.774 91.9038 186.491 91.7491 186.214 91.6424C185.936 91.5358 185.627 91.4824 185.286 91.4824C184.859 91.4824 184.459 91.5891 184.086 91.8024C183.723 92.0158 183.43 92.3624 183.206 92.8424C182.992 93.3118 182.886 93.9358 182.886 94.7144ZM194.13 98.3624C193.415 98.3624 192.802 98.2131 192.289 97.9144C191.788 97.6158 191.404 97.2051 191.138 96.6824C190.871 96.1491 190.738 95.5358 190.738 94.8424C190.738 94.0744 190.892 93.3918 191.202 92.7944C191.511 92.1864 191.922 91.7118 192.434 91.3704C192.946 91.0184 193.5 90.8424 194.098 90.8424C194.94 90.8424 195.602 91.1304 196.082 91.7064C196.562 92.2824 196.818 93.0931 196.85 94.1384L196.786 94.2024H191.81C191.81 94.2451 191.81 94.2878 191.81 94.3304C191.81 94.8851 191.906 95.3971 192.098 95.8664C192.29 96.3251 192.594 96.6931 193.01 96.9704C193.426 97.2371 193.964 97.3704 194.626 97.3704C195.415 97.3704 196.14 97.1358 196.802 96.6664H196.85V96.8424C196.615 97.2691 196.258 97.6318 195.778 97.9304C195.308 98.2184 194.759 98.3624 194.13 98.3624ZM193.858 91.4024C193.346 91.4024 192.908 91.5998 192.546 91.9944C192.183 92.3784 191.954 92.9224 191.858 93.6264H195.762C195.548 92.1438 194.914 91.4024 193.858 91.4024ZM200.872 98.3624C200.424 98.3624 200.029 98.3198 199.688 98.2344C199.357 98.1491 199.021 98.0211 198.68 97.8504V96.1064H198.888L199.288 96.9224C199.427 97.2211 199.624 97.4558 199.88 97.6264C200.147 97.7864 200.488 97.8664 200.904 97.8664C201.373 97.8664 201.731 97.7598 201.976 97.5464C202.232 97.3224 202.36 97.0078 202.36 96.6024C202.36 96.1651 202.216 95.8398 201.928 95.6264C201.64 95.4131 201.213 95.1838 200.648 94.9384C200.061 94.6931 199.619 94.4211 199.32 94.1224C199.021 93.8238 198.872 93.4024 198.872 92.8584C198.872 92.4958 198.973 92.1598 199.176 91.8504C199.389 91.5411 199.661 91.2958 199.992 91.1144C200.323 90.9331 200.669 90.8424 201.032 90.8424C201.437 90.8424 201.8 90.8904 202.12 90.9864C202.44 91.0824 202.744 91.2051 203.032 91.3544V93.0504H202.824L202.424 92.2664C202.285 91.9358 202.088 91.7011 201.832 91.5624C201.587 91.4238 201.331 91.3544 201.064 91.3544C200.68 91.3544 200.376 91.4611 200.152 91.6744C199.939 91.8771 199.832 92.1544 199.832 92.5064C199.832 92.8691 199.955 93.1571 200.2 93.3704C200.456 93.5731 200.84 93.7864 201.352 94.0104C201.715 94.1704 202.045 94.3358 202.344 94.5064C202.643 94.6664 202.877 94.8798 203.048 95.1464C203.229 95.4131 203.32 95.7811 203.32 96.2504C203.32 96.6771 203.203 97.0504 202.968 97.3704C202.733 97.6798 202.429 97.9251 202.056 98.1064C201.683 98.2771 201.288 98.3624 200.872 98.3624ZM206.758 88.6664C206.524 88.6664 206.326 88.5918 206.166 88.4424C206.017 88.2824 205.942 88.0851 205.942 87.8504C205.942 87.6051 206.017 87.4078 206.166 87.2584C206.326 87.1091 206.524 87.0344 206.758 87.0344C207.004 87.0344 207.201 87.1091 207.35 87.2584C207.5 87.4078 207.574 87.6051 207.574 87.8504C207.574 88.0851 207.5 88.2824 207.35 88.4424C207.201 88.5918 207.004 88.6664 206.758 88.6664ZM205.334 98.2024V97.9464L206.342 97.5464V92.2344L205.302 91.6104V91.4504L207.302 90.8424H207.43V97.5464L208.486 97.9464V98.2024H205.334ZM213.28 95.8664C212.875 95.8664 212.501 95.7971 212.16 95.6584C211.872 95.7651 211.675 95.8931 211.568 96.0424C211.461 96.1918 211.408 96.3624 211.408 96.5544C211.408 96.8638 211.509 97.0931 211.712 97.2424C211.925 97.3811 212.261 97.4504 212.72 97.4504H214.592C215.307 97.4504 215.84 97.6158 216.192 97.9464C216.555 98.2664 216.736 98.7304 216.736 99.3384C216.736 99.7864 216.581 100.213 216.272 100.618C215.973 101.034 215.547 101.376 214.992 101.642C214.448 101.909 213.803 102.042 213.056 102.042C212.075 102.042 211.371 101.856 210.944 101.482C210.517 101.12 210.304 100.672 210.304 100.138C210.304 99.7544 210.395 99.4131 210.576 99.1144L211.632 98.3464V98.2984C211.259 98.2131 210.971 98.0584 210.768 97.8344C210.565 97.5998 210.464 97.3224 210.464 97.0024C210.464 96.6078 210.592 96.2878 210.848 96.0424L211.744 95.5464V95.4504C211.381 95.2264 211.093 94.9331 210.88 94.5704C210.677 94.2078 210.576 93.8024 210.576 93.3544C210.576 92.8744 210.693 92.4478 210.928 92.0744C211.163 91.6904 211.483 91.3918 211.888 91.1784C212.293 90.9544 212.757 90.8424 213.28 90.8424C213.504 90.8424 213.744 90.8691 214 90.9224C214.267 90.9758 214.496 91.0451 214.688 91.1304L217.008 91.0024V91.7864L215.456 91.6744L215.408 91.7224C215.579 91.9144 215.717 92.1598 215.824 92.4584C215.931 92.7571 215.984 93.0558 215.984 93.3544C215.984 93.8344 215.867 94.2664 215.632 94.6504C215.397 95.0238 215.077 95.3224 214.672 95.5464C214.267 95.7598 213.803 95.8664 213.28 95.8664ZM213.44 95.3544C213.877 95.3544 214.224 95.1731 214.48 94.8104C214.736 94.4371 214.864 93.9678 214.864 93.4024C214.864 92.7518 214.699 92.2451 214.368 91.8824C214.048 91.5198 213.648 91.3384 213.168 91.3384C212.699 91.3384 212.331 91.5304 212.064 91.9144C211.808 92.2878 211.68 92.7518 211.68 93.3064C211.68 93.9358 211.845 94.4371 212.176 94.8104C212.507 95.1731 212.928 95.3544 213.44 95.3544ZM211.28 99.9624C211.28 100.442 211.472 100.837 211.856 101.146C212.24 101.466 212.709 101.626 213.264 101.626C213.755 101.626 214.187 101.53 214.56 101.338C214.933 101.157 215.227 100.912 215.44 100.602C215.653 100.304 215.76 99.9838 215.76 99.6424C215.76 99.1518 215.632 98.8158 215.376 98.6344C215.12 98.4531 214.661 98.3624 214 98.3624H212.304C212.219 98.3624 212.139 98.3571 212.064 98.3464C211.765 98.5278 211.557 98.7464 211.44 99.0024C211.333 99.2691 211.28 99.5891 211.28 99.9624ZM218.551 98.2024V97.9464L219.559 97.5464V92.2344L218.519 91.6904V91.5144L220.391 90.8424H220.519L220.631 92.0104H220.695C221.1 91.6158 221.484 91.3224 221.847 91.1304C222.22 90.9384 222.631 90.8424 223.079 90.8424C223.719 90.8424 224.247 91.0131 224.663 91.3544C225.079 91.6958 225.287 92.1918 225.287 92.8424V97.5464L226.295 97.9464V98.2024H223.063V97.9464L224.199 97.5464V93.4664C224.199 92.9224 224.039 92.5118 223.719 92.2344C223.399 91.9464 222.988 91.8024 222.487 91.8024C222.188 91.8024 221.857 91.8664 221.495 91.9944C221.143 92.1118 220.86 92.2824 220.647 92.5064V97.5464L221.783 97.9464V98.2024H218.551Z" fill="black"/>
<path d="M301.091 87.3824C300.383 87.3824 299.801 87.2024 299.345 86.8424C298.901 86.4824 298.679 85.9544 298.679 85.2584V79.9304L297.527 79.3724V79.0844H300.371V84.4304C300.371 84.9344 300.521 85.3184 300.821 85.5824C301.133 85.8464 301.535 85.9784 302.027 85.9784C302.327 85.9784 302.657 85.9304 303.017 85.8344C303.377 85.7264 303.665 85.5704 303.881 85.3664V79.9304L302.657 79.3724V79.0844H305.591V86.3924L306.833 86.9144V87.2024H303.881V86.0684H303.791C303.347 86.5124 302.915 86.8424 302.495 87.0584C302.075 87.2744 301.607 87.3824 301.091 87.3824ZM307.74 87.2024V86.9144L308.712 86.3024L311.088 83.2424L308.658 79.9124L307.812 79.3724V79.0844H311.808V79.3724L310.638 79.8944V80.0024L312.24 82.1804L313.68 80.1104V80.0024L312.69 79.3724V79.0844H315.732V79.3724L314.778 79.9844L312.636 82.7204L315.3 86.3744L316.038 86.9144V87.2024H312.24V86.9144L313.302 86.3924V86.2844L311.484 83.8004L309.846 86.1764V86.2844L310.944 86.9144V87.2024H307.74ZM324.782 87.3824C324.206 87.3824 323.708 87.3284 323.288 87.2204C322.88 87.1244 322.466 86.9684 322.046 86.7524V84.7364H322.316L322.892 85.7084C323.288 86.3684 323.9 86.6984 324.728 86.6984C325.208 86.6984 325.574 86.5904 325.826 86.3744C326.09 86.1584 326.222 85.8584 326.222 85.4744C326.222 85.1624 326.138 84.9104 325.97 84.7184C325.814 84.5264 325.58 84.3584 325.268 84.2144C324.968 84.0704 324.602 83.8964 324.17 83.6924C323.546 83.4164 323.066 83.1104 322.73 82.7744C322.406 82.4384 322.244 81.9764 322.244 81.3884C322.244 80.9204 322.37 80.5004 322.622 80.1284C322.886 79.7564 323.222 79.4624 323.63 79.2464C324.038 79.0184 324.47 78.9044 324.926 78.9044C325.358 78.9044 325.766 78.9584 326.15 79.0664C326.534 79.1624 326.912 79.3064 327.284 79.4984V81.4964H327.032L326.438 80.5604C326.042 79.9364 325.556 79.6244 324.98 79.6244C324.584 79.6244 324.266 79.7264 324.026 79.9304C323.786 80.1224 323.666 80.3924 323.666 80.7404C323.666 81.1244 323.804 81.4244 324.08 81.6404C324.368 81.8444 324.812 82.0784 325.412 82.3424C325.76 82.4984 326.102 82.6664 326.438 82.8464C326.774 83.0144 327.05 83.2544 327.266 83.5664C327.494 83.8664 327.608 84.2984 327.608 84.8624C327.608 85.4144 327.458 85.8764 327.158 86.2484C326.87 86.6204 326.51 86.9024 326.078 87.0944C325.646 87.2864 325.214 87.3824 324.782 87.3824ZM333.397 87.3824C332.233 87.3824 331.309 87.0284 330.625 86.3204C329.941 85.6124 329.599 84.6704 329.599 83.4944C329.599 82.6064 329.779 81.8144 330.139 81.1184C330.511 80.4224 331.015 79.8824 331.651 79.4984C332.287 79.1024 333.013 78.9044 333.829 78.9044C334.333 78.9044 334.813 78.9884 335.269 79.1564C335.725 79.3124 336.073 79.5224 336.313 79.7864C336.493 80.0024 336.583 80.1824 336.583 80.3264C336.583 80.4224 336.565 80.5004 336.529 80.5604C336.505 80.6084 336.451 80.6744 336.367 80.7584L335.629 81.3524H335.503L334.891 80.5244C334.711 80.2724 334.495 80.0744 334.243 79.9304C333.991 79.7744 333.673 79.6964 333.289 79.6964C332.653 79.6964 332.155 79.9604 331.795 80.4884C331.435 81.0164 331.255 81.7424 331.255 82.6664C331.255 83.2304 331.345 83.7584 331.525 84.2504C331.717 84.7424 332.029 85.1384 332.461 85.4384C332.905 85.7384 333.505 85.8884 334.261 85.8884C334.597 85.8884 334.957 85.8344 335.341 85.7264C335.725 85.6064 336.133 85.4324 336.565 85.2044H336.619V85.4204C336.343 85.9724 335.923 86.4404 335.359 86.8244C334.795 87.1964 334.141 87.3824 333.397 87.3824ZM340.227 76.8164C339.903 76.8164 339.633 76.7084 339.417 76.4924C339.201 76.2764 339.093 76.0064 339.093 75.6824C339.093 75.3464 339.201 75.0764 339.417 74.8724C339.633 74.6564 339.903 74.5484 340.227 74.5484C340.551 74.5484 340.821 74.6564 341.037 74.8724C341.253 75.0764 341.361 75.3464 341.361 75.6824C341.361 76.0064 341.253 76.2764 341.037 76.4924C340.821 76.7084 340.551 76.8164 340.227 76.8164ZM338.283 87.2024V86.9144L339.435 86.3384V80.9564L338.337 80.0384V79.8944L341.001 78.9044H341.127V86.3384L342.243 86.9144V87.2024H338.283ZM347.794 87.3824C346.618 87.3824 345.688 87.0284 345.004 86.3204C344.32 85.6124 343.978 84.6704 343.978 83.4944C343.978 82.6064 344.158 81.8144 344.518 81.1184C344.89 80.4224 345.376 79.8824 345.976 79.4984C346.588 79.1024 347.248 78.9044 347.956 78.9044C348.916 78.9044 349.666 79.2344 350.206 79.8944C350.746 80.5424 351.022 81.4784 351.034 82.7024L350.944 82.7924H345.634C345.646 83.3444 345.748 83.8544 345.94 84.3224C346.144 84.7904 346.462 85.1684 346.894 85.4564C347.338 85.7444 347.932 85.8884 348.676 85.8884C349.36 85.8884 350.134 85.6604 350.998 85.2044H351.052V85.4204C350.764 85.9724 350.338 86.4404 349.774 86.8244C349.21 87.1964 348.55 87.3824 347.794 87.3824ZM347.632 79.6964C347.104 79.6964 346.666 79.8944 346.318 80.2904C345.982 80.6864 345.766 81.2444 345.67 81.9644H349.504C349.384 81.1484 349.168 80.5664 348.856 80.2184C348.544 79.8704 348.136 79.6964 347.632 79.6964ZM352.695 87.2024V86.9144L353.847 86.3384V80.9564L352.749 80.0564V79.9124L355.233 78.9044H355.359L355.521 80.2364H355.611C356.067 79.7924 356.505 79.4624 356.925 79.2464C357.345 79.0184 357.819 78.9044 358.347 78.9044C359.043 78.9044 359.619 79.0844 360.075 79.4444C360.543 79.7924 360.777 80.3204 360.777 81.0284V86.3384L361.911 86.9144V87.2024H357.879V86.9144L359.067 86.3384V81.8564C359.067 81.3404 358.911 80.9564 358.599 80.7044C358.287 80.4404 357.885 80.3084 357.393 80.3084C357.093 80.3084 356.763 80.3564 356.403 80.4524C356.043 80.5484 355.755 80.6984 355.539 80.9024V86.3384L356.727 86.9144V87.2024H352.695ZM367.165 87.3824C366.001 87.3824 365.077 87.0284 364.393 86.3204C363.709 85.6124 363.367 84.6704 363.367 83.4944C363.367 82.6064 363.547 81.8144 363.907 81.1184C364.279 80.4224 364.783 79.8824 365.419 79.4984C366.055 79.1024 366.781 78.9044 367.597 78.9044C368.101 78.9044 368.581 78.9884 369.037 79.1564C369.493 79.3124 369.841 79.5224 370.081 79.7864C370.261 80.0024 370.351 80.1824 370.351 80.3264C370.351 80.4224 370.333 80.5004 370.297 80.5604C370.273 80.6084 370.219 80.6744 370.135 80.7584L369.397 81.3524H369.271L368.659 80.5244C368.479 80.2724 368.263 80.0744 368.011 79.9304C367.759 79.7744 367.441 79.6964 367.057 79.6964C366.421 79.6964 365.923 79.9604 365.563 80.4884C365.203 81.0164 365.023 81.7424 365.023 82.6664C365.023 83.2304 365.113 83.7584 365.293 84.2504C365.485 84.7424 365.797 85.1384 366.229 85.4384C366.673 85.7384 367.273 85.8884 368.029 85.8884C368.365 85.8884 368.725 85.8344 369.109 85.7264C369.493 85.6064 369.901 85.4324 370.333 85.2044H370.387V85.4204C370.111 85.9724 369.691 86.4404 369.127 86.8244C368.563 87.1964 367.909 87.3824 367.165 87.3824ZM375.813 87.3824C374.637 87.3824 373.707 87.0284 373.023 86.3204C372.339 85.6124 371.997 84.6704 371.997 83.4944C371.997 82.6064 372.177 81.8144 372.537 81.1184C372.909 80.4224 373.395 79.8824 373.995 79.4984C374.607 79.1024 375.267 78.9044 375.975 78.9044C376.935 78.9044 377.685 79.2344 378.225 79.8944C378.765 80.5424 379.041 81.4784 379.053 82.7024L378.963 82.7924H373.653C373.665 83.3444 373.767 83.8544 373.959 84.3224C374.163 84.7904 374.481 85.1684 374.913 85.4564C375.357 85.7444 375.951 85.8884 376.695 85.8884C377.379 85.8884 378.153 85.6604 379.017 85.2044H379.071V85.4204C378.783 85.9724 378.357 86.4404 377.793 86.8244C377.229 87.1964 376.569 87.3824 375.813 87.3824ZM375.651 79.6964C375.123 79.6964 374.685 79.8944 374.337 80.2904C374.001 80.6864 373.785 81.2444 373.689 81.9644H377.523C377.403 81.1484 377.187 80.5664 376.875 80.2184C376.563 79.8704 376.155 79.6964 375.651 79.6964Z" fill="#F4B400"/>
<circle cx="327" cy="71.2024" r="4" fill="#0F9D58"/>
<circle cx="38" cy="60.2024" r="4" fill="#0F9D58"/>
<path d="M37 60.7024C171.4 -26.4976 286.667 31.3691 327.5 71.2024" stroke="#0F9D58" stroke-width="2"/>
<path d="M205.192 60.2024C270.592 -51.3976 299.17 20.0358 305.284 69.7024" stroke="#4285F4" stroke-width="2"/>
<ellipse cx="205.192" cy="60.2024" rx="4.19231" ry="4" fill="#4285F4"/>
<ellipse cx="305.808" cy="71.2024" rx="4.19231" ry="4" fill="#4285F4"/>
<circle cx="364" cy="93.2024" r="4" fill="#DB4437"/>
<circle cx="125" cy="106.202" r="4" fill="#DB4437"/>
<path d="M123 105.202C240.2 198.402 332.833 135.702 364.5 92.7024" stroke="#DB4437" stroke-width="2"/>
</svg>
