<svg width="400" height="224" viewBox="0 0 400 224" fill="none" xmlns="http://www.w3.org/2000/svg">
<rect width="400" height="224" rx="8" fill="#FAFAFA"/>
<path d="M13.1675 112.435C12.6102 112.435 12.0868 112.328 11.5972 112.115C11.1128 111.901 10.6858 111.601 10.316 111.216C9.95139 110.831 9.66493 110.38 9.4566 109.865C9.24826 109.344 9.1441 108.781 9.1441 108.177C9.1441 107.557 9.25087 106.992 9.46441 106.482C9.68316 105.966 9.98003 105.521 10.355 105.146C10.7352 104.771 11.1649 104.482 11.6441 104.279C12.1285 104.07 12.6389 103.966 13.1753 103.966C13.6337 103.966 14.0894 104.042 14.5425 104.193C15.0009 104.338 15.3967 104.536 15.73 104.786L15.3394 105.63C15.1727 105.469 14.9644 105.331 14.7144 105.216C14.4696 105.101 14.2118 105.016 13.941 104.958C13.6701 104.896 13.4201 104.865 13.191 104.865C12.6493 104.865 12.1467 105.005 11.6832 105.286C11.2196 105.562 10.8446 105.953 10.5582 106.458C10.2769 106.958 10.1363 107.539 10.1363 108.2C10.1363 108.831 10.2717 109.398 10.5425 109.904C10.8134 110.409 11.178 110.807 11.6363 111.099C12.0998 111.391 12.6207 111.536 13.1988 111.536C13.6519 111.536 14.0712 111.456 14.4566 111.294C14.8472 111.128 15.1519 110.932 15.3707 110.708L15.7613 111.568C15.4384 111.828 15.0503 112.039 14.5972 112.2C14.1493 112.357 13.6727 112.435 13.1675 112.435ZM20.9682 112.466C20.1921 112.466 19.502 112.284 18.8978 111.919C18.2989 111.549 17.8249 111.044 17.476 110.404C17.1322 109.758 16.9603 109.021 16.9603 108.193C16.9603 107.365 17.1322 106.635 17.476 106.005C17.8249 105.37 18.2989 104.872 18.8978 104.513C19.502 104.154 20.1921 103.974 20.9682 103.974C21.7494 103.974 22.4395 104.154 23.0385 104.513C23.6426 104.872 24.1166 105.37 24.4603 106.005C24.8041 106.635 24.976 107.365 24.976 108.193C24.976 109.021 24.8015 109.758 24.4525 110.404C24.1088 111.044 23.6348 111.549 23.0307 111.919C22.4265 112.284 21.739 112.466 20.9682 112.466ZM20.9682 111.568C21.5567 111.568 22.0775 111.424 22.5307 111.138C22.989 110.851 23.3458 110.456 23.601 109.95C23.8562 109.445 23.9838 108.859 23.9838 108.193C23.9838 107.531 23.8562 106.953 23.601 106.458C23.3458 105.958 22.989 105.57 22.5307 105.294C22.0775 105.018 21.5567 104.88 20.9682 104.88C20.3952 104.88 19.8796 105.018 19.4213 105.294C18.9682 105.57 18.6088 105.958 18.3432 106.458C18.0827 106.953 17.9525 107.531 17.9525 108.193C17.9525 108.859 18.0827 109.445 18.3432 109.95C18.6036 110.456 18.9603 110.851 19.4135 111.138C19.8666 111.424 20.3848 111.568 20.9682 111.568ZM27.0735 112.341V104.099H28.0422V105.161H28.2375L27.8078 105.708C28.0214 105.141 28.3521 104.711 28.8 104.419C29.2532 104.122 29.7584 103.974 30.3157 103.974C30.9355 103.974 31.4615 104.133 31.8938 104.45C32.3313 104.763 32.6282 105.187 32.7844 105.724L32.3157 105.286H32.9641L32.425 105.724C32.6386 105.146 33.0006 104.711 33.511 104.419C34.0214 104.122 34.5709 103.974 35.1594 103.974C35.5917 103.974 35.9771 104.047 36.3157 104.193C36.6542 104.333 36.9433 104.534 37.1828 104.794C37.4224 105.049 37.6047 105.351 37.7297 105.7C37.8547 106.049 37.9172 106.43 37.9172 106.841V112.341H36.9485V107.005C36.9485 106.312 36.7688 105.786 36.4094 105.427C36.05 105.062 35.5917 104.88 35.0344 104.88C34.6698 104.88 34.3313 104.961 34.0188 105.122C33.7063 105.279 33.4537 105.516 33.261 105.833C33.0683 106.146 32.9719 106.536 32.9719 107.005V112.341H32.0032V107.005C32.0032 106.312 31.8209 105.786 31.4563 105.427C31.0917 105.062 30.6308 104.88 30.0735 104.88C29.5214 104.88 29.0448 105.078 28.6438 105.474C28.2427 105.865 28.0422 106.427 28.0422 107.161V112.341H27.0735ZM40.421 115.622V104.099H41.3897V105.435H41.6007L41.2257 106.161V110.052L41.6085 110.95H41.3897V115.622H40.421ZM44.2335 112.466C43.5668 112.466 42.9626 112.294 42.421 111.95C41.8845 111.607 41.4574 111.117 41.1397 110.482C40.8272 109.841 40.6684 109.081 40.6632 108.2C40.6684 107.305 40.8272 106.542 41.1397 105.911C41.4574 105.281 41.8845 104.799 42.421 104.466C42.9574 104.133 43.5616 103.966 44.2335 103.966C44.9314 103.966 45.5564 104.138 46.1085 104.482C46.6658 104.82 47.1059 105.307 47.4288 105.943C47.7517 106.578 47.9132 107.333 47.9132 108.208C47.9132 108.865 47.8194 109.456 47.6319 109.982C47.4496 110.503 47.1918 110.948 46.8585 111.318C46.5251 111.687 46.1345 111.971 45.6866 112.169C45.2387 112.367 44.7543 112.466 44.2335 112.466ZM44.1163 111.591C44.658 111.591 45.1397 111.448 45.5616 111.161C45.9887 110.87 46.322 110.471 46.5616 109.966C46.8064 109.461 46.9262 108.875 46.921 108.208C46.9262 107.531 46.809 106.94 46.5694 106.435C46.3298 105.93 45.9965 105.539 45.5694 105.263C45.1475 104.982 44.6632 104.841 44.1163 104.841C43.6163 104.841 43.1527 104.971 42.7257 105.232C42.3038 105.487 41.9626 105.867 41.7022 106.372C41.447 106.872 41.3194 107.484 41.3194 108.208C41.3194 108.854 41.4392 109.432 41.6788 109.943C41.9236 110.448 42.2543 110.849 42.671 111.146C43.0928 111.443 43.5746 111.591 44.1163 111.591ZM52.9169 112.466C52.3284 112.466 51.8127 112.338 51.37 112.083C50.9325 111.828 50.5888 111.463 50.3388 110.99C50.094 110.51 49.9716 109.943 49.9716 109.286V104.099H50.9403V109.247C50.9403 109.971 51.1357 110.539 51.5263 110.95C51.9169 111.362 52.4221 111.568 53.0419 111.568C53.5263 111.568 53.9534 111.458 54.3232 111.24C54.6929 111.016 54.982 110.724 55.1903 110.365C55.3987 110 55.5028 109.607 55.5028 109.185V104.099H56.4716V110.224C56.4716 110.625 56.5185 110.922 56.6122 111.115C56.7112 111.302 56.8987 111.461 57.1747 111.591L56.8075 112.466C56.4325 112.279 56.1435 112.044 55.9403 111.763C55.7372 111.482 55.6331 111.161 55.6278 110.802L56.0966 111.099H55.331L55.8778 110.654C55.6747 111.133 55.3206 111.555 54.8153 111.919C54.3101 112.284 53.6773 112.466 52.9169 112.466ZM61.905 112.45C61.1759 112.45 60.629 112.234 60.2644 111.802C59.8998 111.365 59.7175 110.786 59.7175 110.068V101.349H60.6863V110.036C60.6863 110.51 60.7931 110.883 61.0066 111.154C61.2201 111.419 61.5248 111.552 61.9207 111.552C62.0352 111.552 62.1524 111.536 62.2722 111.505C62.392 111.474 62.4988 111.435 62.5925 111.388L62.9753 112.24C62.8191 112.302 62.655 112.351 62.4832 112.388C62.3113 112.43 62.1186 112.45 61.905 112.45ZM58.3582 104.982V104.099H62.8113V104.982H58.3582ZM67.9166 112.466C67.1562 112.466 66.4843 112.292 65.901 111.943C65.3228 111.588 64.8697 111.094 64.5416 110.458C64.2187 109.823 64.0572 109.075 64.0572 108.216C64.0572 107.362 64.2161 106.617 64.5338 105.982C64.8567 105.346 65.2994 104.854 65.8619 104.505C66.4244 104.151 67.065 103.974 67.7838 103.974C68.5129 103.974 69.1458 104.146 69.6822 104.49C70.2187 104.828 70.6327 105.284 70.9244 105.857C71.2161 106.424 71.3619 107.052 71.3619 107.74C71.3619 107.891 71.3541 108.047 71.3385 108.208C71.3281 108.365 71.315 108.484 71.2994 108.568H64.8072V107.74H70.401C70.4062 107.208 70.2994 106.726 70.0807 106.294C69.8671 105.862 69.565 105.518 69.1744 105.263C68.789 105.008 68.3307 104.88 67.7994 104.88C67.2629 104.88 66.7838 105.016 66.3619 105.286C65.94 105.552 65.6067 105.935 65.3619 106.435C65.1171 106.93 64.9947 107.521 64.9947 108.208C64.9947 108.891 65.1171 109.482 65.3619 109.982C65.6067 110.482 65.9478 110.87 66.3853 111.146C66.8281 111.422 67.3359 111.56 67.9088 111.56C68.2682 111.56 68.5989 111.513 68.901 111.419C69.2031 111.32 69.4713 111.2 69.7057 111.06C69.9452 110.914 70.1432 110.768 70.2994 110.622L70.69 111.529C70.3671 111.789 69.9661 112.01 69.4869 112.193C69.0129 112.375 68.4895 112.466 67.9166 112.466ZM73.436 112.341V104.099H74.4047V105.482H74.6078L74.2172 105.911C74.3891 105.542 74.6131 105.211 74.8891 104.919C75.1703 104.628 75.4907 104.398 75.85 104.232C76.2146 104.06 76.6105 103.974 77.0375 103.974C77.1834 103.974 77.3266 103.984 77.4672 104.005C77.6078 104.021 77.7172 104.044 77.7953 104.075L77.3969 105.005C77.3396 104.984 77.2615 104.966 77.1625 104.95C77.0688 104.935 76.9646 104.927 76.85 104.927C76.5948 104.927 76.324 104.987 76.0375 105.107C75.7563 105.226 75.4907 105.398 75.2407 105.622C74.9959 105.841 74.7953 106.109 74.6391 106.427C74.4828 106.74 74.4047 107.091 74.4047 107.482V112.341H73.436ZM20.2338 133.466C19.7755 133.466 19.3562 133.378 18.976 133.2C18.601 133.018 18.2833 132.784 18.0228 132.497C17.7624 132.211 17.5775 131.909 17.4682 131.591L18.3822 131.208C18.4968 131.536 18.7234 131.846 19.0619 132.138C19.4005 132.424 19.8015 132.568 20.265 132.568C20.5359 132.568 20.8015 132.51 21.0619 132.396C21.3275 132.276 21.5437 132.109 21.7103 131.896C21.8822 131.677 21.9682 131.419 21.9682 131.122C21.9682 130.862 21.9031 130.641 21.7728 130.458C21.6426 130.271 21.4734 130.115 21.265 129.99C21.0567 129.859 20.8301 129.75 20.5853 129.661C20.3406 129.568 20.1088 129.487 19.89 129.419C19.5827 129.32 19.2572 129.177 18.9135 128.99C18.5749 128.802 18.2859 128.557 18.0463 128.255C17.8067 127.948 17.6869 127.57 17.6869 127.122C17.6869 126.7 17.7963 126.328 18.015 126.005C18.239 125.682 18.5307 125.43 18.89 125.247C19.2494 125.065 19.64 124.974 20.0619 124.974C20.6296 124.974 21.1478 125.133 21.6166 125.45C22.0906 125.768 22.4239 126.169 22.6166 126.654L21.7494 127.021C21.5932 126.656 21.364 126.375 21.0619 126.177C20.765 125.979 20.4395 125.88 20.0853 125.88C19.6999 125.88 19.3588 125.995 19.0619 126.224C18.7702 126.448 18.627 126.75 18.6322 127.13C18.6322 127.458 18.7364 127.726 18.9447 127.935C19.1531 128.138 19.3978 128.302 19.6791 128.427C19.9603 128.547 20.213 128.643 20.4369 128.716C20.6661 128.784 20.9187 128.875 21.1947 128.99C21.476 129.104 21.7442 129.253 21.9994 129.435C22.2598 129.612 22.4734 129.836 22.64 130.107C22.8119 130.378 22.8978 130.706 22.8978 131.091C22.8978 131.56 22.7728 131.974 22.5228 132.333C22.2781 132.687 21.9525 132.966 21.5463 133.169C21.1452 133.367 20.7077 133.466 20.2338 133.466ZM28.4875 133.435C27.9302 133.435 27.4068 133.328 26.9172 133.115C26.4328 132.901 26.0058 132.601 25.636 132.216C25.2714 131.831 24.9849 131.38 24.7766 130.865C24.5683 130.344 24.4641 129.781 24.4641 129.177C24.4641 128.557 24.5709 127.992 24.7844 127.482C25.0032 126.966 25.3 126.521 25.675 126.146C26.0552 125.771 26.4849 125.482 26.9641 125.279C27.4485 125.07 27.9589 124.966 28.4953 124.966C28.9537 124.966 29.4094 125.042 29.8625 125.193C30.3209 125.338 30.7167 125.536 31.05 125.786L30.6594 126.63C30.4927 126.469 30.2844 126.331 30.0344 126.216C29.7896 126.101 29.5318 126.016 29.261 125.958C28.9901 125.896 28.7401 125.865 28.511 125.865C27.9693 125.865 27.4667 126.005 27.0032 126.286C26.5396 126.562 26.1646 126.953 25.8782 127.458C25.5969 127.958 25.4563 128.539 25.4563 129.2C25.4563 129.831 25.5917 130.398 25.8625 130.904C26.1334 131.409 26.498 131.807 26.9563 132.099C27.4198 132.391 27.9407 132.536 28.5188 132.536C28.9719 132.536 29.3912 132.456 29.7766 132.294C30.1672 132.128 30.4719 131.932 30.6907 131.708L31.0813 132.568C30.7584 132.828 30.3703 133.039 29.9172 133.2C29.4693 133.357 28.9927 133.435 28.4875 133.435ZM33.046 133.341V125.099H34.0147V133.341H33.046ZM33.5225 123.638C33.2777 123.638 33.072 123.555 32.9053 123.388C32.7387 123.216 32.6553 123.01 32.6553 122.771C32.6553 122.531 32.7387 122.328 32.9053 122.161C33.072 121.99 33.2777 121.904 33.5225 121.904C33.7621 121.904 33.9652 121.99 34.1319 122.161C34.3038 122.328 34.3897 122.531 34.3897 122.771C34.3897 123.01 34.3038 123.216 34.1319 123.388C33.9652 123.555 33.7621 123.638 33.5225 123.638ZM40.0028 133.466C39.2424 133.466 38.5706 133.292 37.9872 132.943C37.4091 132.588 36.956 132.094 36.6278 131.458C36.3049 130.823 36.1435 130.075 36.1435 129.216C36.1435 128.362 36.3023 127.617 36.62 126.982C36.9429 126.346 37.3857 125.854 37.9482 125.505C38.5107 125.151 39.1513 124.974 39.87 124.974C40.5992 124.974 41.232 125.146 41.7685 125.49C42.3049 125.828 42.719 126.284 43.0107 126.857C43.3023 127.424 43.4482 128.052 43.4482 128.74C43.4482 128.891 43.4403 129.047 43.4247 129.208C43.4143 129.365 43.4013 129.484 43.3857 129.568H36.8935V128.74H42.4872C42.4924 128.208 42.3857 127.726 42.1669 127.294C41.9534 126.862 41.6513 126.518 41.2607 126.263C40.8752 126.008 40.4169 125.88 39.8857 125.88C39.3492 125.88 38.87 126.016 38.4482 126.286C38.0263 126.552 37.6929 126.935 37.4482 127.435C37.2034 127.93 37.081 128.521 37.081 129.208C37.081 129.891 37.2034 130.482 37.4482 130.982C37.6929 131.482 38.0341 131.87 38.4716 132.146C38.9143 132.422 39.4221 132.56 39.995 132.56C40.3544 132.56 40.6851 132.513 40.9872 132.419C41.2893 132.32 41.5575 132.2 41.7919 132.06C42.0315 131.914 42.2294 131.768 42.3857 131.622L42.7763 132.529C42.4534 132.789 42.0523 133.01 41.5732 133.193C41.0992 133.375 40.5758 133.466 40.0028 133.466ZM45.5144 133.341V125.099H46.4832V126.279H46.7644L46.2878 126.755C46.4285 126.396 46.6342 126.083 46.905 125.818C47.1811 125.547 47.5092 125.338 47.8894 125.193C48.2696 125.047 48.6889 124.974 49.1472 124.974C49.7931 124.974 50.3269 125.112 50.7488 125.388C51.1759 125.659 51.4936 126.026 51.7019 126.49C51.9154 126.953 52.0222 127.469 52.0222 128.036V133.341H51.0535V128.255C51.0535 127.463 50.8634 126.87 50.4832 126.474C50.1082 126.073 49.5925 125.872 48.9363 125.872C48.4727 125.872 48.0561 125.974 47.6863 126.177C47.3165 126.375 47.0222 126.651 46.8035 127.005C46.5899 127.354 46.4832 127.76 46.4832 128.224V133.341H45.5144ZM57.9869 133.435C57.4296 133.435 56.9062 133.328 56.4166 133.115C55.9322 132.901 55.5051 132.601 55.1353 132.216C54.7708 131.831 54.4843 131.38 54.276 130.865C54.0676 130.344 53.9635 129.781 53.9635 129.177C53.9635 128.557 54.0702 127.992 54.2838 127.482C54.5025 126.966 54.7994 126.521 55.1744 126.146C55.5546 125.771 55.9843 125.482 56.4635 125.279C56.9478 125.07 57.4583 124.966 57.9947 124.966C58.4531 124.966 58.9088 125.042 59.3619 125.193C59.8202 125.338 60.2161 125.536 60.5494 125.786L60.1588 126.63C59.9921 126.469 59.7838 126.331 59.5338 126.216C59.289 126.101 59.0312 126.016 58.7603 125.958C58.4895 125.896 58.2395 125.865 58.0103 125.865C57.4687 125.865 56.9661 126.005 56.5025 126.286C56.039 126.562 55.664 126.953 55.3775 127.458C55.0963 127.958 54.9557 128.539 54.9557 129.2C54.9557 129.831 55.0911 130.398 55.3619 130.904C55.6327 131.409 55.9973 131.807 56.4557 132.099C56.9192 132.391 57.44 132.536 58.0182 132.536C58.4713 132.536 58.8906 132.456 59.276 132.294C59.6666 132.128 59.9713 131.932 60.19 131.708L60.5807 132.568C60.2577 132.828 59.8697 133.039 59.4166 133.2C58.9687 133.357 58.4921 133.435 57.9869 133.435ZM65.6391 133.466C64.8787 133.466 64.2068 133.292 63.6235 132.943C63.0453 132.588 62.5922 132.094 62.2641 131.458C61.9412 130.823 61.7797 130.075 61.7797 129.216C61.7797 128.362 61.9386 127.617 62.2563 126.982C62.5792 126.346 63.0219 125.854 63.5844 125.505C64.1469 125.151 64.7875 124.974 65.5063 124.974C66.2354 124.974 66.8683 125.146 67.4047 125.49C67.9412 125.828 68.3552 126.284 68.6469 126.857C68.9386 127.424 69.0844 128.052 69.0844 128.74C69.0844 128.891 69.0766 129.047 69.061 129.208C69.0506 129.365 69.0375 129.484 69.0219 129.568H62.5297V128.74H68.1235C68.1287 128.208 68.0219 127.726 67.8032 127.294C67.5896 126.862 67.2875 126.518 66.8969 126.263C66.5115 126.008 66.0532 125.88 65.5219 125.88C64.9854 125.88 64.5063 126.016 64.0844 126.286C63.6625 126.552 63.3292 126.935 63.0844 127.435C62.8396 127.93 62.7172 128.521 62.7172 129.208C62.7172 129.891 62.8396 130.482 63.0844 130.982C63.3292 131.482 63.6703 131.87 64.1078 132.146C64.5506 132.422 65.0584 132.56 65.6313 132.56C65.9907 132.56 66.3214 132.513 66.6235 132.419C66.9256 132.32 67.1938 132.2 67.4282 132.06C67.6677 131.914 67.8657 131.768 68.0219 131.622L68.4125 132.529C68.0896 132.789 67.6886 133.01 67.2094 133.193C66.7354 133.375 66.212 133.466 65.6391 133.466Z" fill="black"/>
<path d="M107.589 111.304C107.256 111.304 106.985 111.236 106.777 111.101C106.574 110.96 106.423 110.754 106.324 110.484C106.23 110.213 106.183 109.879 106.183 109.484V99.1711H107.152V109.507C107.152 109.632 107.16 109.765 107.175 109.906C107.196 110.046 107.248 110.163 107.332 110.257C107.415 110.351 107.558 110.398 107.761 110.398C107.839 110.398 107.918 110.39 107.996 110.374C108.079 110.353 108.149 110.333 108.207 110.312V111.21C108.128 111.241 108.032 111.265 107.918 111.281C107.808 111.296 107.699 111.304 107.589 111.304ZM110.187 111.202V102.96H111.156V111.202H110.187ZM110.663 101.499C110.419 101.499 110.213 101.416 110.046 101.249C109.88 101.077 109.796 100.872 109.796 100.632C109.796 100.392 109.88 100.189 110.046 100.023C110.213 99.8508 110.419 99.7649 110.663 99.7649C110.903 99.7649 111.106 99.8508 111.273 100.023C111.445 100.189 111.531 100.392 111.531 100.632C111.531 100.872 111.445 101.077 111.273 101.249C111.106 101.416 110.903 101.499 110.663 101.499ZM116.698 111.312C115.969 111.312 115.422 111.096 115.058 110.663C114.693 110.226 114.511 109.648 114.511 108.929V100.21H115.48V108.898C115.48 109.372 115.586 109.744 115.8 110.015C116.014 110.281 116.318 110.413 116.714 110.413C116.829 110.413 116.946 110.398 117.066 110.366C117.185 110.335 117.292 110.296 117.386 110.249L117.769 111.101C117.613 111.163 117.448 111.213 117.277 111.249C117.105 111.291 116.912 111.312 116.698 111.312ZM113.152 103.843V102.96H117.605V103.843H113.152ZM122.71 111.327C121.95 111.327 121.278 111.153 120.694 110.804C120.116 110.45 119.663 109.955 119.335 109.32C119.012 108.684 118.851 107.937 118.851 107.077C118.851 106.223 119.01 105.478 119.327 104.843C119.65 104.208 120.093 103.715 120.655 103.366C121.218 103.012 121.858 102.835 122.577 102.835C123.306 102.835 123.939 103.007 124.476 103.351C125.012 103.689 125.426 104.145 125.718 104.718C126.01 105.286 126.155 105.913 126.155 106.601C126.155 106.752 126.148 106.908 126.132 107.07C126.121 107.226 126.108 107.346 126.093 107.429H119.601V106.601H125.194C125.2 106.07 125.093 105.588 124.874 105.156C124.661 104.723 124.358 104.379 123.968 104.124C123.582 103.869 123.124 103.741 122.593 103.741C122.056 103.741 121.577 103.877 121.155 104.148C120.733 104.413 120.4 104.796 120.155 105.296C119.911 105.791 119.788 106.382 119.788 107.07C119.788 107.752 119.911 108.343 120.155 108.843C120.4 109.343 120.741 109.731 121.179 110.007C121.621 110.283 122.129 110.421 122.702 110.421C123.062 110.421 123.392 110.374 123.694 110.281C123.996 110.182 124.265 110.062 124.499 109.921C124.739 109.775 124.937 109.629 125.093 109.484L125.483 110.39C125.161 110.65 124.76 110.872 124.28 111.054C123.806 111.236 123.283 111.327 122.71 111.327ZM128.229 111.202V102.96H129.198V104.343H129.401L129.011 104.773C129.183 104.403 129.406 104.072 129.683 103.781C129.964 103.489 130.284 103.26 130.643 103.093C131.008 102.921 131.404 102.835 131.831 102.835C131.977 102.835 132.12 102.846 132.261 102.866C132.401 102.882 132.511 102.906 132.589 102.937L132.19 103.866C132.133 103.846 132.055 103.827 131.956 103.812C131.862 103.796 131.758 103.788 131.643 103.788C131.388 103.788 131.117 103.848 130.831 103.968C130.55 104.088 130.284 104.26 130.034 104.484C129.789 104.702 129.589 104.971 129.433 105.288C129.276 105.601 129.198 105.952 129.198 106.343V111.202H128.229ZM135.866 111.327C135.371 111.327 134.923 111.228 134.522 111.031C134.121 110.827 133.803 110.546 133.569 110.187C133.335 109.822 133.218 109.398 133.218 108.913C133.218 108.387 133.366 107.934 133.663 107.554C133.965 107.174 134.405 106.882 134.983 106.679C135.561 106.471 136.262 106.366 137.085 106.366H138.725V107.163H137.139C136.176 107.163 135.439 107.322 134.928 107.64C134.423 107.958 134.171 108.382 134.171 108.913C134.171 109.221 134.249 109.494 134.405 109.734C134.566 109.968 134.783 110.153 135.053 110.288C135.33 110.419 135.632 110.484 135.96 110.484C136.356 110.484 136.749 110.39 137.139 110.202C137.53 110.01 137.856 109.747 138.116 109.413C138.382 109.08 138.514 108.7 138.514 108.273V107.14L138.491 106.835V105.866C138.491 105.632 138.47 105.39 138.428 105.14C138.392 104.89 138.309 104.658 138.178 104.445C138.053 104.231 137.863 104.059 137.608 103.929C137.353 103.799 137.007 103.734 136.569 103.734C136.324 103.734 136.053 103.767 135.757 103.835C135.465 103.903 135.176 103.997 134.889 104.116C134.608 104.236 134.363 104.372 134.155 104.523L133.764 103.679C134.014 103.512 134.303 103.366 134.632 103.241C134.96 103.111 135.301 103.01 135.655 102.937C136.009 102.864 136.343 102.827 136.655 102.827C137.207 102.827 137.66 102.908 138.014 103.07C138.374 103.231 138.655 103.452 138.858 103.734C139.066 104.015 139.212 104.34 139.296 104.71C139.384 105.08 139.428 105.471 139.428 105.882V109.046C139.428 109.416 139.475 109.713 139.569 109.937C139.668 110.156 139.814 110.312 140.007 110.406L140.124 110.445L139.749 111.327L139.553 111.234C139.272 111.103 139.046 110.916 138.874 110.671C138.702 110.426 138.606 110.156 138.585 109.859L138.764 109.945H138.389L138.639 109.788C138.41 110.205 138.053 110.567 137.569 110.874C137.085 111.176 136.517 111.327 135.866 111.327ZM142.174 111.202V102.96H143.143V104.343H143.346L142.956 104.773C143.128 104.403 143.351 104.072 143.628 103.781C143.909 103.489 144.229 103.26 144.588 103.093C144.953 102.921 145.349 102.835 145.776 102.835C145.922 102.835 146.065 102.846 146.206 102.866C146.346 102.882 146.456 102.906 146.534 102.937L146.135 103.866C146.078 103.846 146 103.827 145.901 103.812C145.807 103.796 145.703 103.788 145.588 103.788C145.333 103.788 145.062 103.848 144.776 103.968C144.495 104.088 144.229 104.26 143.979 104.484C143.734 104.702 143.534 104.971 143.378 105.288C143.221 105.601 143.143 105.952 143.143 106.343V111.202H142.174ZM148.819 114.609C148.553 114.609 148.301 114.58 148.061 114.523C147.821 114.465 147.644 114.408 147.53 114.351L147.905 113.46C148.045 113.533 148.202 113.593 148.373 113.64C148.551 113.687 148.715 113.71 148.866 113.71C149.199 113.71 149.467 113.627 149.67 113.46C149.879 113.299 150.04 113.101 150.155 112.866C150.275 112.632 150.371 112.419 150.444 112.226L150.905 110.945L150.944 111.616L147.366 102.96H148.42L150.467 108.148L151.233 110.116H151.295L152.014 108.148L153.92 102.96H154.952L151.303 112.445C151.22 112.674 151.116 112.913 150.991 113.163C150.866 113.419 150.709 113.653 150.522 113.866C150.34 114.085 150.11 114.262 149.834 114.398C149.558 114.538 149.22 114.609 148.819 114.609ZM110.493 132.312C109.764 132.312 109.217 132.096 108.853 131.663C108.488 131.226 108.306 130.648 108.306 129.929V121.21H109.275V129.898C109.275 130.372 109.381 130.744 109.595 131.015C109.809 131.281 110.113 131.413 110.509 131.413C110.624 131.413 110.741 131.398 110.861 131.366C110.98 131.335 111.087 131.296 111.181 131.249L111.564 132.101C111.408 132.163 111.243 132.213 111.072 132.249C110.9 132.291 110.707 132.312 110.493 132.312ZM106.947 124.843V123.96H111.4V124.843H106.947ZM113.489 132.202V120.171H114.458V125.14H114.724L114.247 125.601C114.372 125.252 114.573 124.945 114.849 124.679C115.13 124.413 115.463 124.208 115.849 124.062C116.239 123.911 116.661 123.835 117.114 123.835C117.75 123.835 118.281 123.973 118.708 124.249C119.135 124.525 119.456 124.895 119.669 125.359C119.883 125.822 119.989 126.338 119.989 126.906V132.202H119.021V127.116C119.021 126.33 118.823 125.739 118.427 125.343C118.031 124.942 117.518 124.741 116.888 124.741C116.44 124.741 116.031 124.84 115.661 125.038C115.291 125.236 114.997 125.512 114.778 125.866C114.565 126.221 114.458 126.629 114.458 127.093V132.202H113.489ZM125.806 132.327C125.045 132.327 124.373 132.153 123.79 131.804C123.212 131.45 122.759 130.955 122.431 130.32C122.108 129.684 121.946 128.937 121.946 128.077C121.946 127.223 122.105 126.478 122.423 125.843C122.746 125.208 123.188 124.715 123.751 124.366C124.313 124.012 124.954 123.835 125.673 123.835C126.402 123.835 127.035 124.007 127.571 124.351C128.108 124.689 128.522 125.145 128.813 125.718C129.105 126.286 129.251 126.913 129.251 127.601C129.251 127.752 129.243 127.908 129.228 128.07C129.217 128.226 129.204 128.346 129.188 128.429H122.696V127.601H128.29C128.295 127.07 128.188 126.588 127.97 126.156C127.756 125.723 127.454 125.379 127.063 125.124C126.678 124.869 126.22 124.741 125.688 124.741C125.152 124.741 124.673 124.877 124.251 125.148C123.829 125.413 123.496 125.796 123.251 126.296C123.006 126.791 122.884 127.382 122.884 128.07C122.884 128.752 123.006 129.343 123.251 129.843C123.496 130.343 123.837 130.731 124.274 131.007C124.717 131.283 125.225 131.421 125.798 131.421C126.157 131.421 126.488 131.374 126.79 131.281C127.092 131.182 127.36 131.062 127.595 130.921C127.834 130.775 128.032 130.629 128.188 130.484L128.579 131.39C128.256 131.65 127.855 131.872 127.376 132.054C126.902 132.236 126.379 132.327 125.806 132.327ZM134.848 132.327C134.072 132.327 133.382 132.145 132.778 131.781C132.179 131.411 131.705 130.906 131.356 130.265C131.013 129.619 130.841 128.882 130.841 128.054C130.841 127.226 131.013 126.497 131.356 125.866C131.705 125.231 132.179 124.734 132.778 124.374C133.382 124.015 134.072 123.835 134.848 123.835C135.63 123.835 136.32 124.015 136.919 124.374C137.523 124.734 137.997 125.231 138.341 125.866C138.684 126.497 138.856 127.226 138.856 128.054C138.856 128.882 138.682 129.619 138.333 130.265C137.989 130.906 137.515 131.411 136.911 131.781C136.307 132.145 135.619 132.327 134.848 132.327ZM134.848 131.429C135.437 131.429 135.958 131.286 136.411 130.999C136.869 130.713 137.226 130.317 137.481 129.812C137.736 129.307 137.864 128.721 137.864 128.054C137.864 127.392 137.736 126.814 137.481 126.32C137.226 125.82 136.869 125.432 136.411 125.156C135.958 124.879 135.437 124.741 134.848 124.741C134.276 124.741 133.76 124.879 133.302 125.156C132.848 125.432 132.489 125.82 132.223 126.32C131.963 126.814 131.833 127.392 131.833 128.054C131.833 128.721 131.963 129.307 132.223 129.812C132.484 130.317 132.841 130.713 133.294 130.999C133.747 131.286 134.265 131.429 134.848 131.429ZM140.954 132.202V123.96H141.923V125.343H142.126L141.735 125.773C141.907 125.403 142.131 125.072 142.407 124.781C142.688 124.489 143.008 124.26 143.368 124.093C143.732 123.921 144.128 123.835 144.555 123.835C144.701 123.835 144.844 123.846 144.985 123.866C145.126 123.882 145.235 123.906 145.313 123.937L144.915 124.866C144.857 124.846 144.779 124.827 144.68 124.812C144.587 124.796 144.482 124.788 144.368 124.788C144.113 124.788 143.842 124.848 143.555 124.968C143.274 125.088 143.008 125.26 142.758 125.484C142.514 125.702 142.313 125.971 142.157 126.288C142.001 126.601 141.923 126.952 141.923 127.343V132.202H140.954ZM147.598 135.609C147.333 135.609 147.08 135.58 146.84 135.523C146.601 135.465 146.424 135.408 146.309 135.351L146.684 134.46C146.825 134.533 146.981 134.593 147.153 134.64C147.33 134.687 147.494 134.71 147.645 134.71C147.978 134.71 148.247 134.627 148.45 134.46C148.658 134.299 148.82 134.101 148.934 133.866C149.054 133.632 149.15 133.419 149.223 133.226L149.684 131.945L149.723 132.616L146.145 123.96H147.2L149.247 129.148L150.012 131.116H150.075L150.793 129.148L152.7 123.96H153.731L150.083 133.445C149.999 133.674 149.895 133.913 149.77 134.163C149.645 134.419 149.489 134.653 149.301 134.866C149.119 135.085 148.89 135.262 148.614 135.398C148.338 135.538 147.999 135.609 147.598 135.609Z" fill="black"/>
<path d="M209.465 111.327C208.876 111.327 208.361 111.2 207.918 110.945C207.481 110.689 207.137 110.325 206.887 109.851C206.642 109.372 206.52 108.804 206.52 108.148V102.96H207.488V108.109C207.488 108.833 207.684 109.4 208.074 109.812C208.465 110.223 208.97 110.429 209.59 110.429C210.074 110.429 210.501 110.32 210.871 110.101C211.241 109.877 211.53 109.585 211.738 109.226C211.947 108.861 212.051 108.468 212.051 108.046V102.96H213.02V109.085C213.02 109.486 213.067 109.783 213.16 109.976C213.259 110.163 213.447 110.322 213.723 110.452L213.356 111.327C212.981 111.14 212.692 110.906 212.488 110.624C212.285 110.343 212.181 110.023 212.176 109.663L212.645 109.96H211.879L212.426 109.515C212.223 109.994 211.869 110.416 211.363 110.781C210.858 111.145 210.225 111.327 209.465 111.327ZM220.797 111.202L218.492 107.773H218.398L217.812 107.101V107.038L214.977 102.96H216.086L218.43 106.429H218.523L219.102 107.038V107.101L221.969 111.202H220.797ZM214.953 111.202L217.812 107.101V107.038L218.398 106.429H218.492L220.828 102.96H221.953L219.102 107.038V107.101L218.523 107.773H218.43L216.117 111.202H214.953ZM198.647 132.327C198.376 132.187 198.155 132.038 197.983 131.882C197.816 131.726 197.691 131.544 197.608 131.335C197.53 131.122 197.485 130.859 197.475 130.546L197.717 130.695H197.186L197.538 129.921V125.991L197.194 125.257H197.373V120.171H198.342V130.116C198.342 130.507 198.389 130.794 198.483 130.976C198.577 131.158 198.761 131.317 199.038 131.452L198.647 132.327ZM194.545 132.327C194.024 132.327 193.54 132.228 193.092 132.031C192.644 131.833 192.254 131.549 191.92 131.179C191.592 130.809 191.334 130.364 191.147 129.843C190.959 129.317 190.866 128.726 190.866 128.07C190.866 127.195 191.027 126.439 191.35 125.804C191.673 125.169 192.11 124.682 192.663 124.343C193.22 123.999 193.847 123.827 194.545 123.827C195.217 123.827 195.821 123.994 196.358 124.327C196.894 124.661 197.321 125.142 197.639 125.773C197.957 126.403 198.116 127.166 198.116 128.062C198.116 128.942 197.957 129.702 197.639 130.343C197.321 130.978 196.892 131.468 196.35 131.812C195.814 132.156 195.212 132.327 194.545 132.327ZM194.663 131.452C195.204 131.452 195.686 131.304 196.108 131.007C196.53 130.71 196.86 130.309 197.1 129.804C197.34 129.294 197.459 128.715 197.459 128.07C197.459 127.346 197.329 126.734 197.069 126.234C196.814 125.728 196.472 125.348 196.045 125.093C195.623 124.833 195.163 124.702 194.663 124.702C194.116 124.702 193.629 124.843 193.202 125.124C192.78 125.4 192.449 125.791 192.209 126.296C191.97 126.801 191.853 127.392 191.858 128.07C191.853 128.736 191.97 129.322 192.209 129.827C192.454 130.333 192.788 130.731 193.209 131.023C193.636 131.309 194.121 131.452 194.663 131.452ZM204.416 132.327C203.656 132.327 202.984 132.153 202.401 131.804C201.823 131.45 201.369 130.955 201.041 130.32C200.718 129.684 200.557 128.937 200.557 128.077C200.557 127.223 200.716 126.478 201.033 125.843C201.356 125.208 201.799 124.715 202.362 124.366C202.924 124.012 203.565 123.835 204.283 123.835C205.013 123.835 205.645 124.007 206.182 124.351C206.718 124.689 207.132 125.145 207.424 125.718C207.716 126.286 207.862 126.913 207.862 127.601C207.862 127.752 207.854 127.908 207.838 128.07C207.828 128.226 207.815 128.346 207.799 128.429H201.307V127.601H206.901C206.906 127.07 206.799 126.588 206.58 126.156C206.367 125.723 206.065 125.379 205.674 125.124C205.289 124.869 204.83 124.741 204.299 124.741C203.763 124.741 203.283 124.877 202.862 125.148C202.44 125.413 202.106 125.796 201.862 126.296C201.617 126.791 201.494 127.382 201.494 128.07C201.494 128.752 201.617 129.343 201.862 129.843C202.106 130.343 202.448 130.731 202.885 131.007C203.328 131.283 203.836 131.421 204.408 131.421C204.768 131.421 205.099 131.374 205.401 131.281C205.703 131.182 205.971 131.062 206.205 130.921C206.445 130.775 206.643 130.629 206.799 130.484L207.19 131.39C206.867 131.65 206.466 131.872 205.987 132.054C205.513 132.236 204.989 132.327 204.416 132.327ZM212.225 132.327C211.766 132.327 211.347 132.239 210.967 132.062C210.592 131.879 210.274 131.645 210.014 131.359C209.753 131.072 209.568 130.77 209.459 130.452L210.373 130.07C210.488 130.398 210.714 130.708 211.053 130.999C211.391 131.286 211.792 131.429 212.256 131.429C212.527 131.429 212.792 131.372 213.053 131.257C213.318 131.137 213.535 130.971 213.701 130.757C213.873 130.538 213.959 130.281 213.959 129.984C213.959 129.723 213.894 129.502 213.764 129.32C213.634 129.132 213.464 128.976 213.256 128.851C213.048 128.721 212.821 128.611 212.576 128.523C212.331 128.429 212.1 128.348 211.881 128.281C211.574 128.182 211.248 128.038 210.904 127.851C210.566 127.663 210.277 127.419 210.037 127.116C209.798 126.809 209.678 126.432 209.678 125.984C209.678 125.562 209.787 125.189 210.006 124.866C210.23 124.544 210.522 124.291 210.881 124.109C211.24 123.926 211.631 123.835 212.053 123.835C212.621 123.835 213.139 123.994 213.608 124.312C214.081 124.629 214.415 125.031 214.608 125.515L213.74 125.882C213.584 125.517 213.355 125.236 213.053 125.038C212.756 124.84 212.43 124.741 212.076 124.741C211.691 124.741 211.35 124.856 211.053 125.085C210.761 125.309 210.618 125.611 210.623 125.991C210.623 126.32 210.727 126.588 210.936 126.796C211.144 126.999 211.389 127.163 211.67 127.288C211.951 127.408 212.204 127.504 212.428 127.577C212.657 127.645 212.91 127.736 213.186 127.851C213.467 127.965 213.735 128.114 213.99 128.296C214.251 128.473 214.464 128.697 214.631 128.968C214.803 129.239 214.889 129.567 214.889 129.952C214.889 130.421 214.764 130.835 214.514 131.195C214.269 131.549 213.943 131.827 213.537 132.031C213.136 132.228 212.699 132.327 212.225 132.327ZM217.111 132.202V123.96H218.08V132.202H217.111ZM217.588 122.499C217.343 122.499 217.137 122.416 216.971 122.249C216.804 122.077 216.721 121.872 216.721 121.632C216.721 121.392 216.804 121.189 216.971 121.023C217.137 120.851 217.343 120.765 217.588 120.765C217.827 120.765 218.031 120.851 218.197 121.023C218.369 121.189 218.455 121.392 218.455 121.632C218.455 121.872 218.369 122.077 218.197 122.249C218.031 122.416 217.827 122.499 217.588 122.499ZM223.951 135.609C223.404 135.609 222.862 135.528 222.326 135.366C221.789 135.205 221.362 135.01 221.045 134.781L221.42 133.906C221.706 134.135 222.073 134.327 222.521 134.484C222.974 134.645 223.441 134.726 223.92 134.726C224.399 134.726 224.855 134.629 225.287 134.437C225.724 134.249 226.079 133.96 226.349 133.57C226.62 133.179 226.756 132.682 226.756 132.077V130.726H226.584L226.795 130.101V125.921L226.537 125.281H226.732V123.96H227.701V132.038C227.701 132.679 227.589 133.226 227.365 133.679C227.146 134.132 226.852 134.499 226.482 134.781C226.118 135.062 225.714 135.27 225.271 135.406C224.829 135.541 224.388 135.609 223.951 135.609ZM223.888 132.273C223.373 132.273 222.894 132.176 222.451 131.984C222.008 131.786 221.62 131.502 221.287 131.132C220.954 130.762 220.693 130.317 220.506 129.796C220.318 129.27 220.224 128.679 220.224 128.023C220.224 127.148 220.386 126.398 220.709 125.773C221.032 125.148 221.472 124.669 222.029 124.335C222.592 124.002 223.222 123.835 223.92 123.835C224.592 123.835 225.196 123.999 225.732 124.327C226.274 124.656 226.701 125.129 227.013 125.749C227.331 126.369 227.49 127.122 227.49 128.007C227.49 128.892 227.329 129.656 227.006 130.296C226.683 130.932 226.248 131.421 225.701 131.765C225.159 132.103 224.555 132.273 223.888 132.273ZM223.99 131.366C224.537 131.366 225.019 131.223 225.435 130.937C225.857 130.645 226.188 130.244 226.427 129.734C226.667 129.223 226.787 128.635 226.787 127.968C226.787 127.312 226.667 126.741 226.427 126.257C226.188 125.773 225.857 125.398 225.435 125.132C225.019 124.866 224.537 124.734 223.99 124.734C223.433 124.734 222.943 124.872 222.521 125.148C222.099 125.424 221.774 125.809 221.545 126.304C221.316 126.799 221.201 127.372 221.201 128.023C221.201 128.689 221.321 129.275 221.56 129.781C221.805 130.281 222.136 130.671 222.552 130.952C222.974 131.228 223.454 131.366 223.99 131.366ZM230.236 132.202V123.96H231.205V125.14H231.486L231.009 125.616C231.15 125.257 231.356 124.945 231.627 124.679C231.903 124.408 232.231 124.2 232.611 124.054C232.991 123.908 233.41 123.835 233.869 123.835C234.515 123.835 235.048 123.973 235.47 124.249C235.897 124.52 236.215 124.887 236.423 125.351C236.637 125.814 236.744 126.33 236.744 126.898V132.202H235.775V127.116C235.775 126.325 235.585 125.731 235.205 125.335C234.83 124.934 234.314 124.734 233.658 124.734C233.194 124.734 232.778 124.835 232.408 125.038C232.038 125.236 231.744 125.512 231.525 125.866C231.311 126.215 231.205 126.622 231.205 127.085V132.202H230.236Z" fill="black"/>
<path d="M307.152 122.343C306.49 122.343 305.91 122.199 305.411 121.912C304.919 121.625 304.533 121.215 304.251 120.682C303.976 120.143 303.838 119.504 303.838 118.766V112.93H304.928V118.722C304.928 119.536 305.148 120.175 305.587 120.638C306.027 121.101 306.595 121.332 307.292 121.332C307.837 121.332 308.318 121.209 308.734 120.963C309.15 120.711 309.475 120.383 309.709 119.979C309.944 119.569 310.061 119.126 310.061 118.652V112.93H311.151V119.821C311.151 120.272 311.203 120.606 311.309 120.823C311.42 121.033 311.631 121.212 311.942 121.359L311.529 122.343C311.107 122.132 310.782 121.868 310.553 121.552C310.325 121.236 310.207 120.875 310.202 120.471L310.729 120.805H309.868L310.483 120.304C310.254 120.843 309.856 121.318 309.287 121.728C308.719 122.138 308.007 122.343 307.152 122.343ZM320.152 122.202L317.559 118.344H317.454L316.795 117.588V117.518L313.604 112.93H314.852L317.489 116.832H317.594L318.245 117.518V117.588L321.47 122.202H320.152ZM313.578 122.202L316.795 117.588V117.518L317.454 116.832H317.559L320.187 112.93H321.453L318.245 117.518V117.588L317.594 118.344H317.489L314.887 122.202H313.578ZM331.176 122.343C330.661 122.343 330.189 122.243 329.761 122.044C329.339 121.839 328.982 121.575 328.689 121.253C328.396 120.931 328.188 120.591 328.065 120.234L329.093 119.803C329.222 120.172 329.477 120.521 329.858 120.849C330.239 121.171 330.69 121.332 331.211 121.332C331.516 121.332 331.815 121.268 332.108 121.139C332.407 121.004 332.65 120.817 332.837 120.576C333.031 120.33 333.127 120.04 333.127 119.706C333.127 119.413 333.054 119.164 332.908 118.959C332.761 118.748 332.571 118.573 332.336 118.432C332.102 118.285 331.847 118.162 331.572 118.063C331.296 117.957 331.036 117.866 330.789 117.79C330.444 117.679 330.078 117.518 329.691 117.307C329.31 117.096 328.985 116.821 328.715 116.481C328.446 116.135 328.311 115.71 328.311 115.206C328.311 114.732 328.434 114.313 328.68 113.949C328.932 113.586 329.26 113.302 329.664 113.097C330.069 112.892 330.508 112.789 330.983 112.789C331.622 112.789 332.205 112.968 332.732 113.325C333.265 113.683 333.64 114.134 333.857 114.679L332.881 115.092C332.706 114.682 332.448 114.365 332.108 114.143C331.774 113.92 331.408 113.809 331.009 113.809C330.576 113.809 330.192 113.938 329.858 114.196C329.53 114.448 329.369 114.787 329.374 115.215C329.374 115.584 329.492 115.886 329.726 116.12C329.96 116.349 330.236 116.533 330.552 116.674C330.869 116.809 331.153 116.917 331.405 116.999C331.663 117.075 331.947 117.178 332.257 117.307C332.574 117.436 332.875 117.603 333.163 117.808C333.456 118.007 333.696 118.259 333.883 118.564C334.077 118.868 334.173 119.238 334.173 119.671C334.173 120.198 334.033 120.664 333.751 121.069C333.476 121.467 333.11 121.781 332.653 122.009C332.202 122.232 331.709 122.343 331.176 122.343ZM340.714 122.308C340.087 122.308 339.498 122.188 338.947 121.948C338.402 121.707 337.922 121.37 337.506 120.937C337.096 120.503 336.773 119.996 336.539 119.416C336.305 118.83 336.187 118.198 336.187 117.518C336.187 116.821 336.307 116.185 336.548 115.611C336.794 115.031 337.128 114.53 337.55 114.108C337.977 113.686 338.461 113.361 339 113.132C339.545 112.898 340.119 112.781 340.722 112.781C341.238 112.781 341.751 112.865 342.261 113.035C342.776 113.199 343.222 113.422 343.597 113.703L343.157 114.653C342.97 114.471 342.735 114.316 342.454 114.187C342.179 114.058 341.888 113.961 341.584 113.897C341.279 113.826 340.998 113.791 340.74 113.791C340.131 113.791 339.565 113.949 339.044 114.266C338.522 114.576 338.1 115.016 337.778 115.584C337.462 116.147 337.304 116.8 337.304 117.544C337.304 118.253 337.456 118.892 337.761 119.46C338.065 120.029 338.475 120.477 338.991 120.805C339.513 121.133 340.098 121.297 340.749 121.297C341.259 121.297 341.73 121.206 342.164 121.025C342.603 120.837 342.946 120.617 343.192 120.365L343.632 121.332C343.268 121.625 342.832 121.863 342.322 122.044C341.818 122.22 341.282 122.308 340.714 122.308ZM346.094 122.202V112.93H347.184V122.202H346.094ZM346.63 111.286C346.355 111.286 346.123 111.193 345.936 111.005C345.748 110.812 345.654 110.58 345.654 110.311C345.654 110.041 345.748 109.813 345.936 109.625C346.123 109.432 346.355 109.335 346.63 109.335C346.9 109.335 347.128 109.432 347.316 109.625C347.509 109.813 347.606 110.041 347.606 110.311C347.606 110.58 347.509 110.812 347.316 111.005C347.128 111.193 346.9 111.286 346.63 111.286ZM354.172 122.343C353.317 122.343 352.561 122.147 351.905 121.754C351.254 121.356 350.745 120.799 350.376 120.084C350.012 119.369 349.831 118.529 349.831 117.562C349.831 116.601 350.009 115.763 350.367 115.048C350.73 114.333 351.228 113.78 351.861 113.387C352.494 112.989 353.214 112.789 354.023 112.789C354.843 112.789 355.555 112.983 356.159 113.369C356.762 113.75 357.228 114.263 357.556 114.907C357.884 115.546 358.048 116.252 358.048 117.026C358.048 117.196 358.04 117.371 358.022 117.553C358.01 117.729 357.996 117.864 357.978 117.957H350.674V117.026H356.967C356.973 116.428 356.853 115.886 356.607 115.4C356.367 114.913 356.027 114.527 355.587 114.24C355.154 113.952 354.638 113.809 354.041 113.809C353.437 113.809 352.898 113.961 352.423 114.266C351.949 114.565 351.574 114.995 351.298 115.558C351.023 116.115 350.885 116.78 350.885 117.553C350.885 118.321 351.023 118.986 351.298 119.548C351.574 120.111 351.958 120.547 352.45 120.858C352.948 121.168 353.519 121.323 354.164 121.323C354.568 121.323 354.94 121.271 355.28 121.165C355.62 121.054 355.921 120.919 356.185 120.761C356.455 120.597 356.677 120.433 356.853 120.269L357.293 121.288C356.929 121.581 356.478 121.83 355.939 122.035C355.406 122.24 354.817 122.343 354.172 122.343ZM360.625 122.202V112.93H361.715V114.257H362.031L361.495 114.793C361.653 114.389 361.885 114.037 362.189 113.739C362.5 113.434 362.869 113.199 363.297 113.035C363.725 112.871 364.196 112.789 364.712 112.789C365.438 112.789 366.039 112.945 366.514 113.255C366.994 113.56 367.351 113.973 367.586 114.494C367.826 115.016 367.946 115.596 367.946 116.235V122.202H366.856V116.481C366.856 115.59 366.642 114.922 366.215 114.477C365.793 114.026 365.213 113.8 364.475 113.8C363.953 113.8 363.484 113.914 363.068 114.143C362.652 114.365 362.321 114.676 362.075 115.074C361.835 115.467 361.715 115.924 361.715 116.446V122.202H360.625ZM374.908 122.308C374.282 122.308 373.693 122.188 373.142 121.948C372.597 121.707 372.116 121.37 371.7 120.937C371.29 120.503 370.968 119.996 370.734 119.416C370.499 118.83 370.382 118.198 370.382 117.518C370.382 116.821 370.502 116.185 370.742 115.611C370.989 115.031 371.323 114.53 371.744 114.108C372.172 113.686 372.656 113.361 373.195 113.132C373.74 112.898 374.314 112.781 374.917 112.781C375.433 112.781 375.946 112.865 376.455 113.035C376.971 113.199 377.416 113.422 377.791 113.703L377.352 114.653C377.164 114.471 376.93 114.316 376.649 114.187C376.373 114.058 376.083 113.961 375.779 113.897C375.474 113.826 375.193 113.791 374.935 113.791C374.325 113.791 373.76 113.949 373.239 114.266C372.717 114.576 372.295 115.016 371.973 115.584C371.657 116.147 371.498 116.8 371.498 117.544C371.498 118.253 371.651 118.892 371.955 119.46C372.26 120.029 372.67 120.477 373.186 120.805C373.707 121.133 374.293 121.297 374.944 121.297C375.453 121.297 375.925 121.206 376.359 121.025C376.798 120.837 377.141 120.617 377.387 120.365L377.826 121.332C377.463 121.625 377.027 121.863 376.517 122.044C376.013 122.22 375.477 122.308 374.908 122.308ZM383.769 122.343C382.914 122.343 382.158 122.147 381.502 121.754C380.851 121.356 380.341 120.799 379.972 120.084C379.609 119.369 379.427 118.529 379.427 117.562C379.427 116.601 379.606 115.763 379.964 115.048C380.327 114.333 380.825 113.78 381.458 113.387C382.09 112.989 382.811 112.789 383.62 112.789C384.44 112.789 385.152 112.983 385.756 113.369C386.359 113.75 386.825 114.263 387.153 114.907C387.481 115.546 387.645 116.252 387.645 117.026C387.645 117.196 387.636 117.371 387.619 117.553C387.607 117.729 387.592 117.864 387.575 117.957H380.271V117.026H386.564C386.57 116.428 386.45 115.886 386.204 115.4C385.964 114.913 385.624 114.527 385.184 114.24C384.751 113.952 384.235 113.809 383.637 113.809C383.034 113.809 382.495 113.961 382.02 114.266C381.546 114.565 381.171 114.995 380.895 115.558C380.62 116.115 380.482 116.78 380.482 117.553C380.482 118.321 380.62 118.986 380.895 119.548C381.171 120.111 381.554 120.547 382.047 120.858C382.545 121.168 383.116 121.323 383.76 121.323C384.165 121.323 384.537 121.271 384.877 121.165C385.216 121.054 385.518 120.919 385.782 120.761C386.051 120.597 386.274 120.433 386.45 120.269L386.889 121.288C386.526 121.581 386.075 121.83 385.536 122.035C385.003 122.24 384.414 122.343 383.769 122.343Z" fill="#F4B400"/>
<circle cx="335" cy="98.2024" r="4" fill="#CABCBE"/>
<circle cx="46" cy="87.2024" r="4" fill="#CABCBE"/>
<path d="M45 87.7023C179.4 0.502316 294.667 58.369 335.5 98.2023" stroke="#CABCBE" stroke-width="1.1"/>
<path d="M215.192 87.2024C280.592 -24.3976 309.17 47.0358 315.284 96.7024" stroke="#CABCBE" stroke-width="1.1"/>
<ellipse cx="215.192" cy="87.2024" rx="4.19231" ry="4" fill="#CABCBE"/>
<ellipse cx="315.808" cy="98.2024" rx="4.19231" ry="4" fill="#CABCBE"/>
<circle cx="373" cy="135.202" r="4" fill="#CABCBE"/>
<circle cx="134" cy="148.202" r="4" fill="#CABCBE"/>
<path d="M132 147.202C249.2 240.402 341.833 177.702 373.5 134.702" stroke="#CABCBE" stroke-width="1.1"/>
</svg>
