<svg width="541" height="278" viewBox="0 0 541 278" fill="none" xmlns="http://www.w3.org/2000/svg">
<path d="M47.0949 34V33.52L49.1109 32.976V20.688H46.2949V19.6H49.1109V18.32C49.1109 17.4667 49.2495 16.56 49.5269 15.6C49.8255 14.64 50.2522 13.7333 50.8069 12.88C51.3829 12.0267 52.0975 11.3333 52.9509 10.8C53.8042 10.2667 54.7962 10 55.9269 10C56.2042 10 56.4495 10.0427 56.6629 10.128C57.0042 10.2773 57.1749 10.448 57.1749 10.64C57.1749 10.768 57.1429 10.9067 57.0789 11.056L56.7269 11.92H56.6629L55.9909 11.696C55.3295 11.4827 54.6895 11.376 54.0709 11.376C52.9829 11.376 52.1509 11.824 51.5749 12.72C50.9989 13.616 50.7109 15.056 50.7109 17.04V19.6H54.9349V20.688H50.7109V32.976L53.1749 33.52V34H47.0949ZM65.5934 34V33.52L67.6094 32.976V20.816L65.2734 20.528V20.048L68.7294 19.28H69.0494L69.2094 22.128H69.2734C70.1054 21.2533 70.7667 20.6133 71.2574 20.208C71.748 19.8027 72.1534 19.5467 72.4734 19.44C72.7934 19.3333 73.156 19.28 73.5614 19.28C73.924 19.28 74.2547 19.344 74.5534 19.472C74.7667 19.5573 74.916 19.6427 75.0014 19.728C75.108 19.792 75.1614 19.888 75.1614 20.016C75.1614 20.0587 75.1507 20.112 75.1294 20.176C75.1294 20.2187 75.1187 20.2827 75.0974 20.368L74.7774 21.2H74.7134L74.1054 20.912C73.8067 20.7627 73.412 20.688 72.9214 20.688C72.3027 20.688 71.684 20.8587 71.0654 21.2C70.4467 21.5413 69.828 22.1387 69.2094 22.992V32.976L71.6734 33.52V34H65.5934ZM84.9319 38.8V10.32H90.1159V10.896H86.0519V38.224H90.1159V38.8H84.9319ZM95.5389 34.32C94.5575 34.32 93.7362 34.032 93.0749 33.456C92.4135 32.8587 92.0829 32.0373 92.0829 30.992C92.0829 29.968 92.4455 29.1147 93.1709 28.432C93.9175 27.7493 95.1442 27.1947 96.8509 26.768L99.9869 25.968V23.312C99.9869 22.3947 99.6562 21.6587 98.9949 21.104C98.3335 20.528 97.5762 20.24 96.7229 20.24C95.8055 20.24 95.1549 20.432 94.7709 20.816C94.4082 21.1787 94.2269 21.68 94.2269 22.32V23.632L94.0669 23.792H93.2349C92.8935 23.792 92.6695 23.7387 92.5629 23.632C92.4562 23.5253 92.4029 23.3227 92.4029 23.024C92.4029 22.6187 92.5415 22.2027 92.8189 21.776C93.0962 21.3493 93.5015 20.9653 94.0349 20.624C94.6109 20.2613 95.1869 19.952 95.7629 19.696C96.3602 19.4187 96.9255 19.28 97.4589 19.28C98.7389 19.28 99.7415 19.568 100.467 20.144C101.214 20.6987 101.587 21.5733 101.587 22.768V32.72C101.758 32.8693 101.95 32.9867 102.163 33.072C102.398 33.1573 102.664 33.2 102.963 33.2H104.627L104.659 33.232V33.296C104.51 33.5093 104.264 33.7333 103.923 33.968C103.582 34.2027 103.123 34.32 102.547 34.32C101.8 34.32 101.224 34.128 100.819 33.744C100.414 33.36 100.168 32.912 100.083 32.4H100.019C99.4642 32.9547 98.7922 33.4133 98.0029 33.776C97.2349 34.1387 96.4135 34.32 95.5389 34.32ZM93.6829 30.416C93.6829 31.2907 93.9282 31.952 94.4189 32.4C94.9095 32.8267 95.6029 33.04 96.4989 33.04C97.0322 33.04 97.6082 32.9653 98.2269 32.816C98.8455 32.6453 99.4322 32.3893 99.9869 32.048V26.64C98.2162 27.0027 96.8722 27.3653 95.9549 27.728C95.0589 28.0907 94.4509 28.4853 94.1309 28.912C93.8322 29.3387 93.6829 29.84 93.6829 30.416ZM105.432 38.8V38.224H109.496V10.896H105.432V10.32H110.616V38.8H105.432ZM122.247 34V33.52L124.263 32.976V20.816L121.927 20.528V20.048L125.383 19.28H125.703L125.831 21.584H125.927C126.716 20.7733 127.463 20.1867 128.167 19.824C128.871 19.4613 129.66 19.28 130.535 19.28C131.879 19.28 132.977 19.6533 133.831 20.4C134.705 21.1467 135.143 22.2347 135.143 23.664V32.976L137.159 33.52V34H131.271V33.52L133.543 32.976V24.528C133.543 23.2267 133.191 22.2453 132.487 21.584C131.804 20.9013 130.897 20.56 129.767 20.56C129.127 20.56 128.433 20.72 127.687 21.04C126.94 21.3387 126.332 21.776 125.863 22.352V32.976L128.135 33.52V34H122.247ZM154.807 34.32C153.314 34.32 152.055 34 151.031 33.36C150.029 32.72 149.261 31.856 148.727 30.768C148.215 29.68 147.959 28.4533 147.959 27.088C147.959 25.5947 148.258 24.2613 148.855 23.088C149.474 21.8933 150.317 20.9653 151.383 20.304C152.471 19.6213 153.698 19.28 155.063 19.28C155.917 19.28 156.674 19.3973 157.335 19.632C157.997 19.8667 158.53 20.1227 158.935 20.4C159.618 20.8693 159.959 21.2747 159.959 21.616C159.959 21.7653 159.885 21.904 159.735 22.032L158.871 22.768H158.743L158.327 22.192C157.858 21.552 157.346 21.0293 156.791 20.624C156.258 20.1973 155.565 19.984 154.711 19.984C153.218 19.984 151.981 20.5493 150.999 21.68C150.039 22.7893 149.559 24.4533 149.559 26.672C149.559 28.5493 150.05 30.0747 151.031 31.248C152.034 32.4 153.442 32.976 155.255 32.976C156.237 32.976 157.143 32.8267 157.975 32.528C158.807 32.2293 159.458 31.824 159.927 31.312H160.023V31.728C159.533 32.4747 158.839 33.0933 157.943 33.584C157.047 34.0747 156.002 34.32 154.807 34.32ZM171.213 38.8V10.32H176.397V10.896H172.333V38.224H176.397V38.8H171.213ZM181.244 14.224C180.903 14.224 180.615 14.1067 180.38 13.872C180.145 13.6373 180.028 13.3493 180.028 13.008C180.028 12.6667 180.145 12.3787 180.38 12.144C180.615 11.9093 180.903 11.792 181.244 11.792C181.585 11.792 181.873 11.9093 182.108 12.144C182.343 12.3787 182.46 12.6667 182.46 13.008C182.46 13.3493 182.343 13.6373 182.108 13.872C181.873 14.1067 181.585 14.224 181.244 14.224ZM178.876 34V33.52L180.892 32.976V20.816L178.556 20.208V19.728L182.172 19.28H182.492V32.976L184.764 33.52V34H178.876ZM186.9 38.8V38.224H190.964V10.896H186.9V10.32H192.084V38.8H186.9ZM207.683 34.32C206.937 34.32 206.265 34.2347 205.667 34.064C205.091 33.9147 204.494 33.6907 203.875 33.392V30.064H204.259L204.707 31.504C204.899 32.144 205.251 32.656 205.763 33.04C206.275 33.4027 207.001 33.584 207.939 33.584C208.963 33.584 209.753 33.3387 210.307 32.848C210.883 32.336 211.171 31.6107 211.171 30.672C211.171 29.84 210.947 29.1893 210.499 28.72C210.051 28.2293 209.219 27.7387 208.003 27.248C206.723 26.736 205.774 26.1813 205.155 25.584C204.558 24.9867 204.259 24.1333 204.259 23.024C204.259 22.3413 204.441 21.7227 204.803 21.168C205.187 20.592 205.689 20.1333 206.307 19.792C206.926 19.4507 207.587 19.28 208.291 19.28C209.081 19.28 209.785 19.376 210.403 19.568C211.022 19.7387 211.555 19.9413 212.003 20.176V23.44H211.619L211.203 22.064C210.99 21.3173 210.585 20.784 209.987 20.464C209.411 20.144 208.825 19.984 208.227 19.984C207.395 19.984 206.755 20.2293 206.307 20.72C205.881 21.2107 205.667 21.8507 205.667 22.64C205.667 23.4293 205.902 24.048 206.371 24.496C206.841 24.944 207.598 25.3813 208.643 25.808C209.582 26.192 210.339 26.5653 210.915 26.928C211.513 27.2907 211.95 27.7387 212.227 28.272C212.505 28.784 212.643 29.4453 212.643 30.256C212.643 30.9813 212.441 31.6533 212.035 32.272C211.63 32.8907 211.054 33.392 210.307 33.776C209.561 34.1387 208.686 34.32 207.683 34.32ZM224.588 38.8V10.32H229.772V10.896H225.708V38.224H229.772V38.8H224.588ZM230.619 38.8V38.224H234.683V10.896H230.619V10.32H235.803V38.8H230.619ZM254.026 34.32C252.533 34.32 251.274 34 250.25 33.36C249.247 32.72 248.479 31.856 247.946 30.768C247.434 29.68 247.178 28.4533 247.178 27.088C247.178 25.5947 247.477 24.2613 248.074 23.088C248.693 21.8933 249.535 20.9653 250.602 20.304C251.69 19.6213 252.917 19.28 254.282 19.28C255.135 19.28 255.893 19.3973 256.554 19.632C257.215 19.8667 257.749 20.1227 258.154 20.4C258.837 20.8693 259.178 21.2747 259.178 21.616C259.178 21.7653 259.103 21.904 258.954 22.032L258.09 22.768H257.962L257.546 22.192C257.077 21.552 256.565 21.0293 256.01 20.624C255.477 20.1973 254.783 19.984 253.93 19.984C252.437 19.984 251.199 20.5493 250.218 21.68C249.258 22.7893 248.778 24.4533 248.778 26.672C248.778 28.5493 249.269 30.0747 250.25 31.248C251.253 32.4 252.661 32.976 254.474 32.976C255.455 32.976 256.362 32.8267 257.194 32.528C258.026 32.2293 258.677 31.824 259.146 31.312H259.242V31.728C258.751 32.4747 258.058 33.0933 257.162 33.584C256.266 34.0747 255.221 34.32 254.026 34.32ZM270.432 38.8V10.32H275.616V10.896H271.552V38.224H275.616V38.8H270.432ZM281.039 34.32C280.058 34.32 279.236 34.032 278.575 33.456C277.914 32.8587 277.583 32.0373 277.583 30.992C277.583 29.968 277.946 29.1147 278.671 28.432C279.418 27.7493 280.644 27.1947 282.351 26.768L285.487 25.968V23.312C285.487 22.3947 285.156 21.6587 284.495 21.104C283.834 20.528 283.076 20.24 282.223 20.24C281.306 20.24 280.655 20.432 280.271 20.816C279.908 21.1787 279.727 21.68 279.727 22.32V23.632L279.567 23.792H278.735C278.394 23.792 278.17 23.7387 278.063 23.632C277.956 23.5253 277.903 23.3227 277.903 23.024C277.903 22.6187 278.042 22.2027 278.319 21.776C278.596 21.3493 279.002 20.9653 279.535 20.624C280.111 20.2613 280.687 19.952 281.263 19.696C281.86 19.4187 282.426 19.28 282.959 19.28C284.239 19.28 285.242 19.568 285.967 20.144C286.714 20.6987 287.087 21.5733 287.087 22.768V32.72C287.258 32.8693 287.45 32.9867 287.663 33.072C287.898 33.1573 288.164 33.2 288.463 33.2H290.127L290.159 33.232V33.296C290.01 33.5093 289.764 33.7333 289.423 33.968C289.082 34.2027 288.623 34.32 288.047 34.32C287.3 34.32 286.724 34.128 286.319 33.744C285.914 33.36 285.668 32.912 285.583 32.4H285.519C284.964 32.9547 284.292 33.4133 283.503 33.776C282.735 34.1387 281.914 34.32 281.039 34.32ZM279.183 30.416C279.183 31.2907 279.428 31.952 279.919 32.4C280.41 32.8267 281.103 33.04 281.999 33.04C282.532 33.04 283.108 32.9653 283.727 32.816C284.346 32.6453 284.932 32.3893 285.487 32.048V26.64C283.716 27.0027 282.372 27.3653 281.455 27.728C280.559 28.0907 279.951 28.4853 279.631 28.912C279.332 29.3387 279.183 29.84 279.183 30.416ZM290.932 38.8V38.224H294.996V10.896H290.932V10.32H296.116V38.8H290.932ZM314.339 34.32C312.845 34.32 311.587 34 310.563 33.36C309.56 32.72 308.792 31.856 308.259 30.768C307.747 29.68 307.491 28.4533 307.491 27.088C307.491 25.5947 307.789 24.2613 308.387 23.088C309.005 21.8933 309.848 20.9653 310.915 20.304C312.003 19.6213 313.229 19.28 314.595 19.28C315.448 19.28 316.205 19.3973 316.867 19.632C317.528 19.8667 318.061 20.1227 318.467 20.4C319.149 20.8693 319.491 21.2747 319.491 21.616C319.491 21.7653 319.416 21.904 319.267 22.032L318.403 22.768H318.275L317.859 22.192C317.389 21.552 316.877 21.0293 316.323 20.624C315.789 20.1973 315.096 19.984 314.243 19.984C312.749 19.984 311.512 20.5493 310.531 21.68C309.571 22.7893 309.091 24.4533 309.091 26.672C309.091 28.5493 309.581 30.0747 310.563 31.248C311.565 32.4 312.973 32.976 314.787 32.976C315.768 32.976 316.675 32.8267 317.507 32.528C318.339 32.2293 318.989 31.824 319.459 31.312H319.555V31.728C319.064 32.4747 318.371 33.0933 317.475 33.584C316.579 34.0747 315.533 34.32 314.339 34.32ZM337.432 34.32C335.939 34.32 334.68 34 333.656 33.36C332.654 32.72 331.886 31.856 331.352 30.768C330.84 29.68 330.584 28.4533 330.584 27.088C330.584 25.5947 330.883 24.2613 331.48 23.088C332.099 21.8933 332.942 20.9653 334.008 20.304C335.096 19.6213 336.323 19.28 337.688 19.28C338.542 19.28 339.299 19.3973 339.96 19.632C340.622 19.8667 341.155 20.1227 341.56 20.4C342.243 20.8693 342.584 21.2747 342.584 21.616C342.584 21.7653 342.51 21.904 342.36 22.032L341.496 22.768H341.368L340.952 22.192C340.483 21.552 339.971 21.0293 339.416 20.624C338.883 20.1973 338.19 19.984 337.336 19.984C335.843 19.984 334.606 20.5493 333.624 21.68C332.664 22.7893 332.184 24.4533 332.184 26.672C332.184 28.5493 332.675 30.0747 333.656 31.248C334.659 32.4 336.067 32.976 337.88 32.976C338.862 32.976 339.768 32.8267 340.6 32.528C341.432 32.2293 342.083 31.824 342.552 31.312H342.648V31.728C342.158 32.4747 341.464 33.0933 340.568 33.584C339.672 34.0747 338.627 34.32 337.432 34.32ZM353.838 38.8V10.32H359.022V10.896H354.958V38.224H359.022V38.8H353.838ZM364.445 34.32C363.464 34.32 362.642 34.032 361.981 33.456C361.32 32.8587 360.989 32.0373 360.989 30.992C360.989 29.968 361.352 29.1147 362.077 28.432C362.824 27.7493 364.05 27.1947 365.757 26.768L368.893 25.968V23.312C368.893 22.3947 368.562 21.6587 367.901 21.104C367.24 20.528 366.482 20.24 365.629 20.24C364.712 20.24 364.061 20.432 363.677 20.816C363.314 21.1787 363.133 21.68 363.133 22.32V23.632L362.973 23.792H362.141C361.8 23.792 361.576 23.7387 361.469 23.632C361.362 23.5253 361.309 23.3227 361.309 23.024C361.309 22.6187 361.448 22.2027 361.725 21.776C362.002 21.3493 362.408 20.9653 362.941 20.624C363.517 20.2613 364.093 19.952 364.669 19.696C365.266 19.4187 365.832 19.28 366.365 19.28C367.645 19.28 368.648 19.568 369.373 20.144C370.12 20.6987 370.493 21.5733 370.493 22.768V32.72C370.664 32.8693 370.856 32.9867 371.069 33.072C371.304 33.1573 371.57 33.2 371.869 33.2H373.533L373.565 33.232V33.296C373.416 33.5093 373.17 33.7333 372.829 33.968C372.488 34.2027 372.029 34.32 371.453 34.32C370.706 34.32 370.13 34.128 369.725 33.744C369.32 33.36 369.074 32.912 368.989 32.4H368.925C368.37 32.9547 367.698 33.4133 366.909 33.776C366.141 34.1387 365.32 34.32 364.445 34.32ZM362.589 30.416C362.589 31.2907 362.834 31.952 363.325 32.4C363.816 32.8267 364.509 33.04 365.405 33.04C365.938 33.04 366.514 32.9653 367.133 32.816C367.752 32.6453 368.338 32.3893 368.893 32.048V26.64C367.122 27.0027 365.778 27.3653 364.861 27.728C363.965 28.0907 363.357 28.4853 363.037 28.912C362.738 29.3387 362.589 29.84 362.589 30.416ZM374.338 38.8V38.224H378.402V10.896H374.338V10.32H379.522V38.8H374.338ZM395.825 34.16L390.609 20.688L388.593 20.08V19.6H394.737V20.08L392.273 20.624V20.72L396.401 31.92H396.497L400.561 20.752V20.656L397.969 20.08V19.6H403.633V20.08L401.585 20.688L396.145 34.16H395.825ZM412.619 38.8V10.32H417.803V10.896H413.739V38.224H417.803V38.8H412.619ZM423.226 34.32C422.245 34.32 421.424 34.032 420.762 33.456C420.101 32.8587 419.77 32.0373 419.77 30.992C419.77 29.968 420.133 29.1147 420.858 28.432C421.605 27.7493 422.832 27.1947 424.538 26.768L427.674 25.968V23.312C427.674 22.3947 427.344 21.6587 426.682 21.104C426.021 20.528 425.264 20.24 424.41 20.24C423.493 20.24 422.842 20.432 422.458 20.816C422.096 21.1787 421.914 21.68 421.914 22.32V23.632L421.754 23.792H420.922C420.581 23.792 420.357 23.7387 420.25 23.632C420.144 23.5253 420.09 23.3227 420.09 23.024C420.09 22.6187 420.229 22.2027 420.506 21.776C420.784 21.3493 421.189 20.9653 421.722 20.624C422.298 20.2613 422.874 19.952 423.45 19.696C424.048 19.4187 424.613 19.28 425.146 19.28C426.426 19.28 427.429 19.568 428.154 20.144C428.901 20.6987 429.274 21.5733 429.274 22.768V32.72C429.445 32.8693 429.637 32.9867 429.85 33.072C430.085 33.1573 430.352 33.2 430.65 33.2H432.314L432.346 33.232V33.296C432.197 33.5093 431.952 33.7333 431.61 33.968C431.269 34.2027 430.81 34.32 430.234 34.32C429.488 34.32 428.912 34.128 428.506 33.744C428.101 33.36 427.856 32.912 427.77 32.4H427.706C427.152 32.9547 426.48 33.4133 425.69 33.776C424.922 34.1387 424.101 34.32 423.226 34.32ZM421.37 30.416C421.37 31.2907 421.616 31.952 422.106 32.4C422.597 32.8267 423.29 33.04 424.186 33.04C424.72 33.04 425.296 32.9653 425.914 32.816C426.533 32.6453 427.12 32.3893 427.674 32.048V26.64C425.904 27.0027 424.56 27.3653 423.642 27.728C422.746 28.0907 422.138 28.4853 421.818 28.912C421.52 29.3387 421.37 29.84 421.37 30.416ZM433.119 38.8V38.224H437.183V10.896H433.119V10.32H438.303V38.8H433.119ZM449.806 34V33.52L451.822 32.976V11.536L449.486 10.928V10.448L453.102 10H453.422V32.976L455.694 33.52V34H449.806ZM466.869 38.8V10.32H472.053V10.896H467.989V38.224H472.053V38.8H466.869ZM481.028 34.32C479.514 34.32 478.234 34 477.188 33.36C476.164 32.72 475.386 31.856 474.852 30.768C474.34 29.68 474.084 28.4533 474.084 27.088C474.084 25.6373 474.383 24.3253 474.98 23.152C475.599 21.9787 476.399 21.04 477.38 20.336C478.383 19.632 479.471 19.28 480.644 19.28C482.33 19.28 483.652 19.8347 484.612 20.944C485.572 22.0533 486.127 23.5893 486.276 25.552L486.18 25.648H475.716C475.695 25.968 475.684 26.3093 475.684 26.672C475.684 28.5493 476.186 30.0747 477.188 31.248C478.212 32.4 479.642 32.976 481.476 32.976C482.479 32.976 483.386 32.8267 484.196 32.528C485.028 32.2293 485.679 31.824 486.148 31.312H486.244V31.728C485.775 32.4747 485.082 33.0933 484.164 33.584C483.268 34.0747 482.223 34.32 481.028 34.32ZM480.26 19.984C479.215 19.984 478.276 20.4213 477.444 21.296C476.612 22.1493 476.068 23.3653 475.812 24.944H484.516C484.303 23.3867 483.866 22.1707 483.204 21.296C482.543 20.4213 481.562 19.984 480.26 19.984ZM487.994 38.8V38.224H492.058V10.896H487.994V10.32H493.178V38.8H487.994ZM64.6938 71V70.64L66.2058 70.232V61.112L64.4538 60.896V60.536L67.0458 59.96H67.2858L67.3818 61.688H67.4538C68.0138 61.112 68.5418 60.68 69.0378 60.392C69.5338 60.104 70.0778 59.96 70.6698 59.96C71.3418 59.96 71.9338 60.104 72.4458 60.392C72.9578 60.68 73.3418 61.112 73.5978 61.688H73.6458C74.2218 61.096 74.7658 60.664 75.2778 60.392C75.7898 60.104 76.3578 59.96 76.9818 59.96C77.9578 59.96 78.7578 60.24 79.3818 60.8C80.0058 61.36 80.3178 62.176 80.3178 63.248V70.232L81.8298 70.64V71H77.4138V70.64L79.1178 70.232V63.896C79.1178 62.92 78.8618 62.184 78.3498 61.688C77.8538 61.176 77.2058 60.92 76.4058 60.92C75.9738 60.92 75.5018 61.024 74.9898 61.232C74.4938 61.424 74.0778 61.712 73.7418 62.096C73.8378 62.448 73.8858 62.832 73.8858 63.248V70.232L75.3978 70.64V71H70.9818V70.64L72.6858 70.232V63.896C72.6858 62.92 72.4458 62.184 71.9658 61.688C71.4858 61.176 70.8618 60.92 70.0938 60.92C69.6458 60.92 69.1658 61.04 68.6538 61.28C68.1418 61.504 67.7258 61.824 67.4058 62.24V70.232L69.1098 70.64V71H64.6938ZM90.6817 71.24C89.9457 71.24 89.3297 71.024 88.8337 70.592C88.3377 70.144 88.0897 69.528 88.0897 68.744C88.0897 67.976 88.3617 67.336 88.9057 66.824C89.4657 66.312 90.3857 65.896 91.6657 65.576L94.0177 64.976V62.984C94.0177 62.296 93.7697 61.744 93.2737 61.328C92.7777 60.896 92.2097 60.68 91.5697 60.68C90.8817 60.68 90.3937 60.824 90.1057 61.112C89.8337 61.384 89.6977 61.76 89.6977 62.24V63.224L89.5777 63.344H88.9537C88.6977 63.344 88.5297 63.304 88.4497 63.224C88.3697 63.144 88.3297 62.992 88.3297 62.768C88.3297 62.464 88.4337 62.152 88.6417 61.832C88.8497 61.512 89.1537 61.224 89.5537 60.968C89.9857 60.696 90.4177 60.464 90.8497 60.272C91.2977 60.064 91.7217 59.96 92.1217 59.96C93.0817 59.96 93.8337 60.176 94.3777 60.608C94.9377 61.024 95.2177 61.68 95.2177 62.576V70.04C95.3457 70.152 95.4897 70.24 95.6497 70.304C95.8257 70.368 96.0257 70.4 96.2497 70.4H97.4977L97.5217 70.424V70.472C97.4097 70.632 97.2257 70.8 96.9697 70.976C96.7137 71.152 96.3697 71.24 95.9377 71.24C95.3777 71.24 94.9457 71.096 94.6417 70.808C94.3377 70.52 94.1537 70.184 94.0897 69.8H94.0417C93.6257 70.216 93.1217 70.56 92.5297 70.832C91.9537 71.104 91.3377 71.24 90.6817 71.24ZM89.2897 68.312C89.2897 68.968 89.4737 69.464 89.8417 69.8C90.2097 70.12 90.7297 70.28 91.4017 70.28C91.8017 70.28 92.2337 70.224 92.6977 70.112C93.1617 69.984 93.6017 69.792 94.0177 69.536V65.48C92.6897 65.752 91.6817 66.024 90.9937 66.296C90.3217 66.568 89.8657 66.864 89.6257 67.184C89.4017 67.504 89.2897 67.88 89.2897 68.312ZM107.653 67.376C107.173 67.376 106.717 67.296 106.285 67.136C105.757 67.36 105.389 67.6 105.181 67.856C104.973 68.112 104.869 68.408 104.869 68.744C104.869 69.288 105.061 69.68 105.445 69.92C105.829 70.16 106.421 70.28 107.221 70.28H109.933C110.877 70.28 111.597 70.504 112.093 70.952C112.605 71.4 112.861 72.016 112.861 72.8C112.861 73.456 112.637 74.088 112.189 74.696C111.741 75.304 111.117 75.8 110.317 76.184C109.517 76.568 108.573 76.76 107.485 76.76C106.093 76.76 105.093 76.48 104.485 75.92C103.877 75.376 103.573 74.704 103.573 73.904C103.573 73.312 103.693 72.8 103.933 72.368L105.397 71.144V71.096C104.357 70.792 103.837 70.16 103.837 69.2C103.837 68.672 104.013 68.232 104.365 67.88L105.781 67.04V66.92C105.205 66.616 104.749 66.184 104.413 65.624C104.077 65.048 103.909 64.4 103.909 63.68C103.909 62.976 104.069 62.344 104.389 61.784C104.725 61.224 105.173 60.784 105.733 60.464C106.293 60.128 106.933 59.96 107.653 59.96C108.005 59.96 108.389 60.008 108.805 60.104C109.221 60.184 109.549 60.28 109.789 60.392L113.053 60.2V61.184L110.629 61.016L110.581 61.064C110.837 61.336 111.029 61.72 111.157 62.216C111.301 62.696 111.373 63.184 111.373 63.68C111.373 64.384 111.213 65.016 110.893 65.576C110.573 66.136 110.133 66.576 109.573 66.896C109.013 67.216 108.373 67.376 107.653 67.376ZM107.893 66.896C108.581 66.896 109.125 66.624 109.525 66.08C109.941 65.52 110.149 64.736 110.149 63.728C110.149 62.624 109.893 61.8 109.381 61.256C108.869 60.696 108.237 60.416 107.485 60.416C106.749 60.416 106.173 60.704 105.757 61.28C105.341 61.84 105.133 62.616 105.133 63.608C105.133 64.712 105.389 65.536 105.901 66.08C106.429 66.624 107.093 66.896 107.893 66.896ZM104.677 73.64C104.677 74.376 104.981 74.992 105.589 75.488C106.213 75.984 106.973 76.232 107.869 76.232C108.637 76.232 109.317 76.088 109.909 75.8C110.501 75.528 110.965 75.16 111.301 74.696C111.637 74.248 111.805 73.768 111.805 73.256C111.805 72.488 111.605 71.96 111.205 71.672C110.821 71.384 110.125 71.24 109.117 71.24H106.597C106.357 71.24 106.125 71.224 105.901 71.192C105.437 71.464 105.117 71.792 104.941 72.176C104.765 72.576 104.677 73.064 104.677 73.64ZM121.882 56.168C121.626 56.168 121.41 56.08 121.234 55.904C121.058 55.728 120.97 55.512 120.97 55.256C120.97 55 121.058 54.784 121.234 54.608C121.41 54.432 121.626 54.344 121.882 54.344C122.138 54.344 122.354 54.432 122.53 54.608C122.706 54.784 122.794 55 122.794 55.256C122.794 55.512 122.706 55.728 122.53 55.904C122.354 56.08 122.138 56.168 121.882 56.168ZM120.106 71V70.64L121.618 70.232V61.112L119.866 60.656V60.296L122.578 59.96H122.818V70.232L124.522 70.64V71H120.106ZM136.468 71.24C135.348 71.24 134.404 71 133.636 70.52C132.884 70.04 132.308 69.392 131.908 68.576C131.524 67.76 131.332 66.84 131.332 65.816C131.332 64.696 131.556 63.696 132.004 62.816C132.468 61.92 133.1 61.224 133.9 60.728C134.716 60.216 135.636 59.96 136.66 59.96C137.3 59.96 137.868 60.048 138.364 60.224C138.86 60.4 139.26 60.592 139.564 60.8C140.076 61.152 140.332 61.456 140.332 61.712C140.332 61.824 140.276 61.928 140.164 62.024L139.516 62.576H139.42L139.108 62.144C138.756 61.664 138.372 61.272 137.956 60.968C137.556 60.648 137.036 60.488 136.396 60.488C135.276 60.488 134.348 60.912 133.612 61.76C132.892 62.592 132.532 63.84 132.532 65.504C132.532 66.912 132.9 68.056 133.636 68.936C134.388 69.8 135.444 70.232 136.804 70.232C137.54 70.232 138.22 70.12 138.844 69.896C139.468 69.672 139.956 69.368 140.308 68.984H140.38V69.296C140.012 69.856 139.492 70.32 138.82 70.688C138.148 71.056 137.364 71.24 136.468 71.24ZM147.092 74.6V53.24H150.98V53.672H147.932V74.168H150.98V74.6H147.092ZM165.482 74.6V74.168H168.53V53.672H165.482V53.24H169.37V74.6H165.482Z" fill="black"/>
<path d="M158.24 71.096C157.936 71.096 157.68 70.992 157.472 70.784C157.264 70.56 157.16 70.304 157.16 70.016C157.16 69.728 157.264 69.48 157.472 69.272C157.68 69.048 157.936 68.936 158.24 68.936C158.544 68.936 158.8 69.048 159.008 69.272C159.216 69.48 159.32 69.728 159.32 70.016C159.32 70.304 159.216 70.56 159.008 70.784C158.8 70.992 158.544 71.096 158.24 71.096ZM158.24 62.12C157.936 62.12 157.68 62.016 157.472 61.808C157.264 61.584 157.16 61.328 157.16 61.04C157.16 60.752 157.264 60.504 157.472 60.296C157.68 60.072 157.936 59.96 158.24 59.96C158.544 59.96 158.8 60.072 159.008 60.296C159.216 60.504 159.32 60.752 159.32 61.04C159.32 61.328 159.216 61.584 159.008 61.808C158.8 62.016 158.544 62.12 158.24 62.12ZM190.093 71.24C189.437 71.24 188.901 71.032 188.485 70.616C188.085 70.2 187.885 69.616 187.885 68.864V61.016H185.773V60.8L188.029 60.2L188.821 57.56H189.085V60.2H192.253V61.016H189.085V68.816C189.085 69.312 189.237 69.688 189.541 69.944C189.845 70.184 190.245 70.304 190.741 70.304C191.093 70.304 191.413 70.264 191.701 70.184C191.989 70.104 192.261 69.992 192.517 69.848L192.541 69.872V69.968C192.413 70.24 192.141 70.52 191.725 70.808C191.309 71.096 190.765 71.24 190.093 71.24ZM198.975 71V70.64L200.487 70.232V54.152L198.735 53.696V53.336L201.447 53H201.687V61.688H201.735C202.327 61.08 202.887 60.64 203.415 60.368C203.943 60.096 204.535 59.96 205.191 59.96C206.199 59.96 207.023 60.24 207.663 60.8C208.319 61.36 208.647 62.176 208.647 63.248V70.232L210.159 70.64V71H205.743V70.64L207.447 70.232V63.896C207.447 62.92 207.183 62.184 206.655 61.688C206.143 61.176 205.463 60.92 204.615 60.92C204.135 60.92 203.615 61.04 203.055 61.28C202.495 61.504 202.039 61.832 201.687 62.264V70.232L203.391 70.64V71H198.975ZM221.788 71.24C220.652 71.24 219.692 71 218.908 70.52C218.14 70.04 217.556 69.392 217.156 68.576C216.772 67.76 216.58 66.84 216.58 65.816C216.58 64.728 216.804 63.744 217.252 62.864C217.716 61.984 218.316 61.28 219.052 60.752C219.804 60.224 220.62 59.96 221.5 59.96C222.764 59.96 223.756 60.376 224.476 61.208C225.196 62.04 225.612 63.192 225.724 64.664L225.652 64.736H217.804C217.788 64.976 217.78 65.232 217.78 65.504C217.78 66.912 218.156 68.056 218.908 68.936C219.676 69.8 220.748 70.232 222.124 70.232C222.876 70.232 223.556 70.12 224.164 69.896C224.788 69.672 225.276 69.368 225.628 68.984H225.7V69.296C225.348 69.856 224.828 70.32 224.14 70.688C223.468 71.056 222.684 71.24 221.788 71.24ZM221.212 60.488C220.428 60.488 219.724 60.816 219.1 61.472C218.476 62.112 218.068 63.024 217.876 64.208H224.404C224.244 63.04 223.916 62.128 223.42 61.472C222.924 60.816 222.188 60.488 221.212 60.488ZM247.119 67.376C246.639 67.376 246.183 67.296 245.751 67.136C245.223 67.36 244.855 67.6 244.647 67.856C244.439 68.112 244.335 68.408 244.335 68.744C244.335 69.288 244.527 69.68 244.911 69.92C245.295 70.16 245.887 70.28 246.687 70.28H249.399C250.343 70.28 251.063 70.504 251.559 70.952C252.071 71.4 252.327 72.016 252.327 72.8C252.327 73.456 252.103 74.088 251.655 74.696C251.207 75.304 250.583 75.8 249.783 76.184C248.983 76.568 248.039 76.76 246.951 76.76C245.559 76.76 244.559 76.48 243.951 75.92C243.343 75.376 243.039 74.704 243.039 73.904C243.039 73.312 243.159 72.8 243.399 72.368L244.863 71.144V71.096C243.823 70.792 243.303 70.16 243.303 69.2C243.303 68.672 243.479 68.232 243.831 67.88L245.247 67.04V66.92C244.671 66.616 244.215 66.184 243.879 65.624C243.543 65.048 243.375 64.4 243.375 63.68C243.375 62.976 243.535 62.344 243.855 61.784C244.191 61.224 244.639 60.784 245.199 60.464C245.759 60.128 246.399 59.96 247.119 59.96C247.471 59.96 247.855 60.008 248.271 60.104C248.687 60.184 249.015 60.28 249.255 60.392L252.519 60.2V61.184L250.095 61.016L250.047 61.064C250.303 61.336 250.495 61.72 250.623 62.216C250.767 62.696 250.839 63.184 250.839 63.68C250.839 64.384 250.679 65.016 250.359 65.576C250.039 66.136 249.599 66.576 249.039 66.896C248.479 67.216 247.839 67.376 247.119 67.376ZM247.359 66.896C248.047 66.896 248.591 66.624 248.991 66.08C249.407 65.52 249.615 64.736 249.615 63.728C249.615 62.624 249.359 61.8 248.847 61.256C248.335 60.696 247.703 60.416 246.951 60.416C246.215 60.416 245.639 60.704 245.223 61.28C244.807 61.84 244.599 62.616 244.599 63.608C244.599 64.712 244.855 65.536 245.367 66.08C245.895 66.624 246.559 66.896 247.359 66.896ZM244.143 73.64C244.143 74.376 244.447 74.992 245.055 75.488C245.679 75.984 246.439 76.232 247.335 76.232C248.103 76.232 248.783 76.088 249.375 75.8C249.967 75.528 250.431 75.16 250.767 74.696C251.103 74.248 251.271 73.768 251.271 73.256C251.271 72.488 251.071 71.96 250.671 71.672C250.287 71.384 249.591 71.24 248.583 71.24H246.063C245.823 71.24 245.591 71.224 245.367 71.192C244.903 71.464 244.583 71.792 244.407 72.176C244.231 72.576 244.143 73.064 244.143 73.64ZM261.779 71.24C261.043 71.24 260.427 71.024 259.931 70.592C259.435 70.144 259.187 69.528 259.187 68.744C259.187 67.976 259.459 67.336 260.003 66.824C260.563 66.312 261.483 65.896 262.763 65.576L265.115 64.976V62.984C265.115 62.296 264.867 61.744 264.371 61.328C263.875 60.896 263.307 60.68 262.667 60.68C261.979 60.68 261.491 60.824 261.203 61.112C260.931 61.384 260.795 61.76 260.795 62.24V63.224L260.675 63.344H260.051C259.795 63.344 259.627 63.304 259.547 63.224C259.467 63.144 259.427 62.992 259.427 62.768C259.427 62.464 259.531 62.152 259.739 61.832C259.947 61.512 260.251 61.224 260.651 60.968C261.083 60.696 261.515 60.464 261.947 60.272C262.395 60.064 262.819 59.96 263.219 59.96C264.179 59.96 264.931 60.176 265.475 60.608C266.035 61.024 266.315 61.68 266.315 62.576V70.04C266.443 70.152 266.587 70.24 266.747 70.304C266.923 70.368 267.123 70.4 267.347 70.4H268.595L268.619 70.424V70.472C268.507 70.632 268.323 70.8 268.067 70.976C267.811 71.152 267.467 71.24 267.035 71.24C266.475 71.24 266.043 71.096 265.739 70.808C265.435 70.52 265.251 70.184 265.187 69.8H265.139C264.723 70.216 264.219 70.56 263.627 70.832C263.051 71.104 262.435 71.24 261.779 71.24ZM260.387 68.312C260.387 68.968 260.571 69.464 260.939 69.8C261.307 70.12 261.827 70.28 262.499 70.28C262.899 70.28 263.331 70.224 263.795 70.112C264.259 69.984 264.699 69.792 265.115 69.536V65.48C263.787 65.752 262.779 66.024 262.091 66.296C261.419 66.568 260.963 66.864 260.723 67.184C260.499 67.504 260.387 67.88 260.387 68.312ZM277.959 71.24C277.303 71.24 276.767 71.032 276.351 70.616C275.951 70.2 275.751 69.616 275.751 68.864V61.016H273.639V60.8L275.895 60.2L276.687 57.56H276.951V60.2H280.119V61.016H276.951V68.816C276.951 69.312 277.103 69.688 277.407 69.944C277.711 70.184 278.111 70.304 278.607 70.304C278.959 70.304 279.279 70.264 279.567 70.184C279.855 70.104 280.127 69.992 280.383 69.848L280.407 69.872V69.968C280.279 70.24 280.007 70.52 279.591 70.808C279.175 71.096 278.631 71.24 277.959 71.24ZM286.841 71V70.64L288.353 70.232V54.152L286.601 53.696V53.336L289.313 53H289.553V61.688H289.601C290.193 61.08 290.753 60.64 291.281 60.368C291.809 60.096 292.401 59.96 293.057 59.96C294.065 59.96 294.889 60.24 295.529 60.8C296.185 61.36 296.513 62.176 296.513 63.248V70.232L298.025 70.64V71H293.609V70.64L295.313 70.232V63.896C295.313 62.92 295.049 62.184 294.521 61.688C294.009 61.176 293.329 60.92 292.481 60.92C292.001 60.92 291.481 61.04 290.921 61.28C290.361 61.504 289.905 61.832 289.553 62.264V70.232L291.257 70.64V71H286.841ZM309.653 71.24C308.517 71.24 307.557 71 306.773 70.52C306.005 70.04 305.421 69.392 305.021 68.576C304.637 67.76 304.445 66.84 304.445 65.816C304.445 64.728 304.669 63.744 305.117 62.864C305.581 61.984 306.181 61.28 306.917 60.752C307.669 60.224 308.485 59.96 309.365 59.96C310.629 59.96 311.621 60.376 312.341 61.208C313.061 62.04 313.477 63.192 313.589 64.664L313.517 64.736H305.669C305.653 64.976 305.645 65.232 305.645 65.504C305.645 66.912 306.021 68.056 306.773 68.936C307.541 69.8 308.613 70.232 309.989 70.232C310.741 70.232 311.421 70.12 312.029 69.896C312.653 69.672 313.141 69.368 313.493 68.984H313.565V69.296C313.213 69.856 312.693 70.32 312.005 70.688C311.333 71.056 310.549 71.24 309.653 71.24ZM309.077 60.488C308.293 60.488 307.589 60.816 306.965 61.472C306.341 62.112 305.933 63.024 305.741 64.208H312.269C312.109 63.04 311.781 62.128 311.285 61.472C310.789 60.816 310.053 60.488 309.077 60.488ZM320.608 71V70.64L322.12 70.232V61.112L320.368 60.896V60.536L322.96 59.96H323.2L323.32 62.096H323.368C323.992 61.44 324.488 60.96 324.856 60.656C325.224 60.352 325.528 60.16 325.768 60.08C326.008 60 326.28 59.96 326.584 59.96C326.856 59.96 327.104 60.008 327.328 60.104C327.488 60.168 327.6 60.232 327.664 60.296C327.744 60.344 327.784 60.416 327.784 60.512C327.784 60.544 327.776 60.584 327.76 60.632C327.76 60.664 327.752 60.712 327.736 60.776L327.496 61.4H327.448L326.992 61.184C326.768 61.072 326.472 61.016 326.104 61.016C325.64 61.016 325.176 61.144 324.712 61.4C324.248 61.656 323.784 62.104 323.32 62.744V70.232L325.168 70.64V71H320.608ZM335.424 56.168C335.168 56.168 334.952 56.08 334.776 55.904C334.6 55.728 334.512 55.512 334.512 55.256C334.512 55 334.6 54.784 334.776 54.608C334.952 54.432 335.168 54.344 335.424 54.344C335.68 54.344 335.896 54.432 336.072 54.608C336.248 54.784 336.336 55 336.336 55.256C336.336 55.512 336.248 55.728 336.072 55.904C335.896 56.08 335.68 56.168 335.424 56.168ZM333.648 71V70.64L335.16 70.232V61.112L333.408 60.656V60.296L336.12 59.96H336.36V70.232L338.064 70.64V71H333.648ZM345.066 71V70.64L346.578 70.232V61.112L344.826 60.896V60.536L347.418 59.96H347.658L347.754 61.688H347.826C348.418 61.08 348.978 60.64 349.506 60.368C350.034 60.096 350.626 59.96 351.282 59.96C352.29 59.96 353.114 60.24 353.754 60.8C354.41 61.36 354.738 62.176 354.738 63.248V70.232L356.25 70.64V71H351.834V70.64L353.538 70.232V63.896C353.538 62.92 353.274 62.184 352.746 61.688C352.234 61.176 351.554 60.92 350.706 60.92C350.226 60.92 349.706 61.04 349.146 61.28C348.586 61.504 348.13 61.832 347.778 62.264V70.232L349.482 70.64V71H345.066ZM367.014 67.376C366.534 67.376 366.078 67.296 365.646 67.136C365.118 67.36 364.75 67.6 364.542 67.856C364.334 68.112 364.23 68.408 364.23 68.744C364.23 69.288 364.422 69.68 364.806 69.92C365.19 70.16 365.782 70.28 366.582 70.28H369.294C370.238 70.28 370.958 70.504 371.454 70.952C371.966 71.4 372.222 72.016 372.222 72.8C372.222 73.456 371.998 74.088 371.55 74.696C371.102 75.304 370.478 75.8 369.678 76.184C368.878 76.568 367.934 76.76 366.846 76.76C365.454 76.76 364.454 76.48 363.846 75.92C363.238 75.376 362.934 74.704 362.934 73.904C362.934 73.312 363.054 72.8 363.294 72.368L364.758 71.144V71.096C363.718 70.792 363.198 70.16 363.198 69.2C363.198 68.672 363.374 68.232 363.726 67.88L365.142 67.04V66.92C364.566 66.616 364.11 66.184 363.774 65.624C363.438 65.048 363.27 64.4 363.27 63.68C363.27 62.976 363.43 62.344 363.75 61.784C364.086 61.224 364.534 60.784 365.094 60.464C365.654 60.128 366.294 59.96 367.014 59.96C367.366 59.96 367.75 60.008 368.166 60.104C368.582 60.184 368.91 60.28 369.15 60.392L372.414 60.2V61.184L369.99 61.016L369.942 61.064C370.198 61.336 370.39 61.72 370.518 62.216C370.662 62.696 370.734 63.184 370.734 63.68C370.734 64.384 370.574 65.016 370.254 65.576C369.934 66.136 369.494 66.576 368.934 66.896C368.374 67.216 367.734 67.376 367.014 67.376ZM367.254 66.896C367.942 66.896 368.486 66.624 368.886 66.08C369.302 65.52 369.51 64.736 369.51 63.728C369.51 62.624 369.254 61.8 368.742 61.256C368.23 60.696 367.598 60.416 366.846 60.416C366.11 60.416 365.534 60.704 365.118 61.28C364.702 61.84 364.494 62.616 364.494 63.608C364.494 64.712 364.75 65.536 365.262 66.08C365.79 66.624 366.454 66.896 367.254 66.896ZM364.038 73.64C364.038 74.376 364.342 74.992 364.95 75.488C365.574 75.984 366.334 76.232 367.23 76.232C367.998 76.232 368.678 76.088 369.27 75.8C369.862 75.528 370.326 75.16 370.662 74.696C370.998 74.248 371.166 73.768 371.166 73.256C371.166 72.488 370.966 71.96 370.566 71.672C370.182 71.384 369.486 71.24 368.478 71.24H365.958C365.718 71.24 365.486 71.224 365.262 71.192C364.798 71.464 364.478 71.792 364.302 72.176C364.126 72.576 364.038 73.064 364.038 73.64Z" fill="#BABCBE"/>
<path d="M392.571 71.12L389.211 61.016L387.699 60.56V60.2H392.307V60.56L390.459 60.968V61.04L393.003 69.368H393.099L396.459 60.2H396.819L400.179 69.296H400.275L402.771 61.064V60.992L400.827 60.56V60.2H405.075V60.56L403.539 61.016L400.011 71.12H399.771L396.363 62.312L392.811 71.12H392.571ZM412.149 56.168C411.893 56.168 411.677 56.08 411.501 55.904C411.325 55.728 411.237 55.512 411.237 55.256C411.237 55 411.325 54.784 411.501 54.608C411.677 54.432 411.893 54.344 412.149 54.344C412.405 54.344 412.621 54.432 412.797 54.608C412.973 54.784 413.061 55 413.061 55.256C413.061 55.512 412.973 55.728 412.797 55.904C412.621 56.08 412.405 56.168 412.149 56.168ZM410.373 71V70.64L411.885 70.232V61.112L410.133 60.656V60.296L412.845 59.96H413.085V70.232L414.789 70.64V71H410.373ZM421.845 71V70.592L427.581 60.776H423.213L422.205 63.176H421.821L422.085 60.008H422.181C422.357 60.04 422.573 60.08 422.829 60.128C423.085 60.176 423.309 60.2 423.501 60.2H429.021V60.608L423.261 70.424H428.109L428.805 68.096H429.213V71H421.845ZM439.08 71.24C438.344 71.24 437.728 71.024 437.232 70.592C436.736 70.144 436.488 69.528 436.488 68.744C436.488 67.976 436.76 67.336 437.304 66.824C437.864 66.312 438.784 65.896 440.064 65.576L442.416 64.976V62.984C442.416 62.296 442.168 61.744 441.672 61.328C441.176 60.896 440.608 60.68 439.968 60.68C439.28 60.68 438.792 60.824 438.504 61.112C438.232 61.384 438.096 61.76 438.096 62.24V63.224L437.976 63.344H437.352C437.096 63.344 436.928 63.304 436.848 63.224C436.768 63.144 436.728 62.992 436.728 62.768C436.728 62.464 436.832 62.152 437.04 61.832C437.248 61.512 437.552 61.224 437.952 60.968C438.384 60.696 438.816 60.464 439.248 60.272C439.696 60.064 440.12 59.96 440.52 59.96C441.48 59.96 442.232 60.176 442.776 60.608C443.336 61.024 443.616 61.68 443.616 62.576V70.04C443.744 70.152 443.888 70.24 444.048 70.304C444.224 70.368 444.424 70.4 444.648 70.4H445.896L445.92 70.424V70.472C445.808 70.632 445.624 70.8 445.368 70.976C445.112 71.152 444.768 71.24 444.336 71.24C443.776 71.24 443.344 71.096 443.04 70.808C442.736 70.52 442.552 70.184 442.488 69.8H442.44C442.024 70.216 441.52 70.56 440.928 70.832C440.352 71.104 439.736 71.24 439.08 71.24ZM437.688 68.312C437.688 68.968 437.872 69.464 438.24 69.8C438.608 70.12 439.128 70.28 439.8 70.28C440.2 70.28 440.632 70.224 441.096 70.112C441.56 69.984 442 69.792 442.416 69.536V65.48C441.088 65.752 440.08 66.024 439.392 66.296C438.72 66.568 438.264 66.864 438.024 67.184C437.8 67.504 437.688 67.88 437.688 68.312ZM451.996 71V70.64L453.508 70.232V61.112L451.756 60.896V60.536L454.348 59.96H454.588L454.708 62.096H454.756C455.38 61.44 455.876 60.96 456.244 60.656C456.612 60.352 456.916 60.16 457.156 60.08C457.396 60 457.668 59.96 457.972 59.96C458.244 59.96 458.492 60.008 458.716 60.104C458.876 60.168 458.988 60.232 459.052 60.296C459.132 60.344 459.172 60.416 459.172 60.512C459.172 60.544 459.164 60.584 459.148 60.632C459.148 60.664 459.14 60.712 459.124 60.776L458.884 61.4H458.836L458.38 61.184C458.156 61.072 457.86 61.016 457.492 61.016C457.028 61.016 456.564 61.144 456.1 61.4C455.636 61.656 455.172 62.104 454.708 62.744V70.232L456.556 70.64V71H451.996ZM468.804 71.24C468.004 71.24 467.292 71.032 466.668 70.616C466.044 70.2 465.548 69.616 465.18 68.864C464.828 68.096 464.652 67.184 464.652 66.128C464.652 64.816 464.908 63.704 465.42 62.792C465.932 61.864 466.612 61.16 467.46 60.68C468.308 60.2 469.244 59.96 470.268 59.96C470.62 59.96 470.988 60.024 471.372 60.152C471.756 60.264 472.132 60.416 472.5 60.608V54.152L470.748 53.696V53.336L473.46 53H473.7V70.232L475.404 70.64V71H472.74L472.524 69.776H472.404C471.86 70.24 471.292 70.6 470.7 70.856C470.124 71.112 469.492 71.24 468.804 71.24ZM465.78 65.744C465.78 66.816 465.956 67.704 466.308 68.408C466.66 69.096 467.116 69.608 467.676 69.944C468.252 70.264 468.844 70.424 469.452 70.424C469.98 70.424 470.508 70.328 471.036 70.136C471.564 69.944 472.052 69.632 472.5 69.2V61.472C472.004 61.2 471.508 60.984 471.012 60.824C470.516 60.664 469.988 60.584 469.428 60.584C468.772 60.584 468.164 60.752 467.604 61.088C467.06 61.424 466.62 61.976 466.284 62.744C465.948 63.496 465.78 64.496 465.78 65.744Z" fill="#F4B400"/>
<ellipse cx="426.209" cy="80.1436" rx="3.7907" ry="4.14359" fill="#CABCBE"/>
<ellipse cx="411.994" cy="273.856" rx="3.7907" ry="4.14359" fill="#CABCBE"/>
<path d="M426.683 79.6257C297.041 193.16 362.873 256.419 411.994 273.857" stroke="#CABCBE" stroke-width="1.1"/>
<circle cx="4" cy="4" r="4" transform="matrix(-1 0 0 1 219 270)" fill="#CABCBE"/>
<circle cx="4" cy="4" r="4" transform="matrix(-1 0 0 1 453 76)" fill="#CABCBE"/>
<path d="M449.5 80C368.3 236.8 257.667 275 212.5 274.5" stroke="#CABCBE" stroke-width="1.1"/>
<path d="M27.7298 16C-26.6702 46.4 14.3965 65.3333 41.7298 71" stroke="#F4B400" stroke-width="1.1"/>
<circle cx="4" cy="4" r="4" transform="matrix(-1 0 0 1 45.7298 67)" fill="#F4B400"/>
<circle cx="4" cy="4" r="4" transform="matrix(-1 0 0 1 32.7298 12)" fill="#F4B400"/>
<path d="M513 16C567.4 46.4 526.333 65.3333 499 71" stroke="white" stroke-width="1.1"/>
<circle cx="499" cy="71" r="4" fill="white"/>
<circle cx="512" cy="16" r="4" fill="white"/>
</svg>
