<svg width="104" height="104" viewBox="0 0 104 104" fill="none" xmlns="http://www.w3.org/2000/svg">
<rect width="104" height="104" rx="8" fill="#424242"/>
<g clip-path="url(#clip0_1216_346)">
<path d="M52.0003 99.8947C78.452 99.8947 99.8954 78.4515 99.8954 52C99.8954 25.5484 78.452 4.10522 52.0003 4.10522C25.5486 4.10522 4.10522 25.5484 4.10522 52C4.10522 78.4515 25.5486 99.8947 52.0003 99.8947Z" fill="#B5AAA8"/>
<path d="M34.5938 19.2387L45.9576 8.81689L94.7952 57.6542L84.706 69.6279L82.2673 67.0782C82.2673 67.0782 87.2005 56.3238 81.99 50.6144C76.7794 44.9049 71.6792 39.6937 71.6792 39.6937L36.1457 74.7832C36.1457 74.7832 28.8843 80.3264 37.1994 88.3088L34.8712 90.9145L12.6971 69.129L15.2475 66.413C15.2475 66.413 21.9555 75.1717 28.5517 68.076C35.1479 60.9802 64.3619 32.5427 64.3619 32.5427L53.2196 21.678C53.2196 21.678 47.2334 17.2989 36.8668 21.4006L34.5938 19.2387Z" fill="#0D0708"/>
</g>
<defs>
<clipPath id="clip0_1216_346">
<rect width="95.7895" height="95.7895" fill="white" transform="translate(4.10522 4.10522)"/>
</clipPath>
</defs>
</svg>
