<svg width="32" height="32" viewBox="0 0 32 32" fill="none" xmlns="http://www.w3.org/2000/svg">
<g clip-path="url(#clip0_307_142)">
<path d="M26.6667 2.66663H10.6667C9.20002 2.66663 8.00002 3.86663 8.00002 5.33329V21.3333C8.00002 22.8 9.20002 24 10.6667 24H26.6667C28.1334 24 29.3334 22.8 29.3334 21.3333V5.33329C29.3334 3.86663 28.1334 2.66663 26.6667 2.66663ZM15.3334 12.6666C15.3334 13.7733 14.44 14.6666 13.3334 14.6666H12V17.3333H10V9.33329H13.3334C14.44 9.33329 15.3334 10.2266 15.3334 11.3333V12.6666ZM22 15.3333C22 16.44 21.1067 17.3333 20 17.3333H16.6667V9.33329H20C21.1067 9.33329 22 10.2266 22 11.3333V15.3333ZM27.3334 11.3333H25.3334V12.6666H27.3334V14.6666H25.3334V17.3333H23.3334V9.33329H27.3334V11.3333ZM12 12.6666H13.3334V11.3333H12V12.6666ZM5.33335 7.99996H2.66669V26.6666C2.66669 28.1333 3.86669 29.3333 5.33335 29.3333H24V26.6666H5.33335V7.99996ZM18.6667 15.3333H20V11.3333H18.6667V15.3333Z" fill="#DB4437"/>
</g>
<defs>
<clipPath id="clip0_307_142">
<rect width="32" height="32" fill="white"/>
</clipPath>
</defs>
</svg>
