<svg width="48" height="48" viewBox="0 0 48 48" fill="none" xmlns="http://www.w3.org/2000/svg">
<rect width="48" height="48" rx="24" fill="#FDD663"/>
<g clip-path="url(#clip0_90_70)">
<path d="M25.3334 12C18.7067 12 13.3334 17.3733 13.3334 24H9.33337L14.52 29.1867L14.6134 29.3733L20 24H16C16 18.84 20.1734 14.6667 25.3334 14.6667C30.4934 14.6667 34.6667 18.84 34.6667 24C34.6667 29.16 30.4934 33.3333 25.3334 33.3333C22.76 33.3333 20.4267 32.28 18.7467 30.5867L16.8534 32.48C19.0267 34.6533 22.0134 36 25.3334 36C31.96 36 37.3334 30.6267 37.3334 24C37.3334 17.3733 31.96 12 25.3334 12ZM24 18.6667V25.3333L29.7067 28.72L30.6667 27.1067L26 24.3333V18.6667H24Z" fill="black"/>
</g>
<defs>
<clipPath id="clip0_90_70">
<rect width="32" height="32" fill="white" transform="translate(8 8)"/>
</clipPath>
</defs>
</svg>
