<svg width="56" height="56" viewBox="0 0 56 56" fill="none" xmlns="http://www.w3.org/2000/svg">
<rect width="56" height="56" fill="white"/>
<g clip-path="url(#clip0_936_186)">
<path d="M28 5C19.72 5 13 11.72 13 20C13 28.28 19.72 35 28 35C36.28 35 43 28.28 43 20C43 11.72 36.28 5 28 5ZM26.5 31.895C20.575 31.16 16 26.12 16 20C16 19.07 16.12 18.185 16.315 17.315L23.5 24.5V26C23.5 27.65 24.85 29 26.5 29V31.895ZM36.85 28.085C36.46 26.87 35.35 26 34 26H32.5V21.5C32.5 20.675 31.825 20 31 20H22V17H25C25.825 17 26.5 16.325 26.5 15.5V12.5H29.5C31.15 12.5 32.5 11.15 32.5 9.5V8.885C36.895 10.67 40 14.975 40 20C40 23.12 38.8 25.955 36.85 28.085Z" fill="black"/>
</g>
<path d="M7.37027 54V53.725L8.25027 53.538V47.202L7.37027 47.015V46.74H9.57027C10.4356 46.74 11.1286 46.8977 11.6493 47.213C12.1773 47.5283 12.4413 48.027 12.4413 48.709C12.4413 49.1123 12.3129 49.4717 12.0563 49.787C11.8069 50.095 11.4549 50.3407 11.0003 50.524C10.5529 50.7073 10.0286 50.799 9.42727 50.799H8.91027V53.538L9.90027 53.725V54H7.37027ZM8.91027 47.125V50.414H9.73527C10.1166 50.414 10.4539 50.348 10.7473 50.216C11.0479 50.0767 11.2826 49.886 11.4513 49.644C11.6199 49.3947 11.7043 49.1123 11.7043 48.797C11.7043 48.2103 11.5173 47.785 11.1433 47.521C10.7766 47.257 10.2816 47.125 9.65827 47.125H8.91027ZM17.2276 54.11C16.5676 54.11 15.9773 53.9487 15.4566 53.626C14.9433 53.3033 14.5363 52.8597 14.2356 52.295C13.935 51.7303 13.7846 51.0887 13.7846 50.37C13.7846 49.6513 13.935 49.0097 14.2356 48.445C14.5363 47.8803 14.9433 47.4367 15.4566 47.114C15.9773 46.7913 16.5676 46.63 17.2276 46.63C17.895 46.63 18.4853 46.7913 18.9986 47.114C19.5193 47.4367 19.93 47.8803 20.2306 48.445C20.5313 49.0097 20.6816 49.6513 20.6816 50.37C20.6816 51.0887 20.5313 51.7303 20.2306 52.295C19.93 52.8597 19.5193 53.3033 18.9986 53.626C18.4853 53.9487 17.895 54.11 17.2276 54.11ZM17.4586 53.78C17.9573 53.78 18.3973 53.6553 18.7786 53.406C19.1673 53.1493 19.468 52.7937 19.6806 52.339C19.8933 51.877 19.9996 51.3343 19.9996 50.711C19.9996 49.9557 19.8676 49.2957 19.6036 48.731C19.3396 48.1663 18.984 47.73 18.5366 47.422C18.0893 47.1067 17.5906 46.949 17.0406 46.949C16.542 46.949 16.0983 47.0737 15.7096 47.323C15.321 47.5723 15.0166 47.928 14.7966 48.39C14.5766 48.8447 14.4666 49.3837 14.4666 50.007C14.4666 50.7623 14.5986 51.426 14.8626 51.998C15.134 52.5627 15.4933 53.0027 15.9406 53.318C16.3953 53.626 16.9013 53.78 17.4586 53.78ZM22.1623 54V53.725L23.0203 53.538V47.202L22.1623 47.015V46.74H27.0903V48.522H26.8703L26.4083 47.125H23.6803V50.062H25.6823L25.9573 49.149H26.1773V51.338H25.9573L25.6823 50.447H23.6803V53.615H26.7163L27.1783 52.108H27.3983V54H22.1623ZM30.3939 54V53.725L31.4939 53.538V47.125H29.3489L28.8869 48.742H28.6669V46.74H34.9809V48.742H34.7609L34.2989 47.125H32.1539V53.538L33.2539 53.725V54H30.3939ZM36.1916 54V53.725L37.0716 53.538V47.202L36.1916 47.015V46.74H38.3696C39.1396 46.74 39.7446 46.9013 40.1846 47.224C40.6319 47.5393 40.8556 47.9757 40.8556 48.533C40.8556 48.973 40.7126 49.347 40.4266 49.655C40.1479 49.963 39.7776 50.1903 39.3156 50.337L41.4386 53.582L42.1646 53.725V54H40.8886L38.6886 50.557H37.7316V53.527L38.5566 53.725V54H36.1916ZM38.4466 47.125H37.7316V50.172H38.5126C38.9746 50.172 39.3559 50.0327 39.6566 49.754C39.9646 49.468 40.1186 49.1087 40.1186 48.676C40.1186 48.1993 39.9682 47.8217 39.6676 47.543C39.3669 47.2643 38.9599 47.125 38.4466 47.125ZM44.2795 54V53.725L45.2695 53.538V50.557L42.8825 47.202L42.1565 47.015V46.74H44.4445V47.015L43.7075 47.169V47.213L45.7975 50.205L47.7005 47.213V47.169L46.9085 47.015V46.74H48.9545V47.015L48.2725 47.136L45.9295 50.59V53.538L46.9195 53.725V54H44.2795Z" fill="black"/>
<defs>
<clipPath id="clip0_936_186">
<rect width="40" height="40" fill="white" transform="translate(8)"/>
</clipPath>
</defs>
</svg>
