<svg width="40" height="40" viewBox="0 0 40 40" fill="none" xmlns="http://www.w3.org/2000/svg">
<path d="M20 5C11.72 5 4.99998 11.72 4.99998 20C4.99998 28.28 11.72 35 20 35C28.28 35 35 28.28 35 20C35 11.72 28.28 5 20 5ZM18.5 31.895C12.575 31.16 7.99998 26.12 7.99998 20C7.99998 19.07 8.11998 18.185 8.31498 17.315L15.5 24.5V26C15.5 27.65 16.85 29 18.5 29V31.895ZM28.85 28.085C28.46 26.87 27.35 26 26 26H24.5V21.5C24.5 20.675 23.825 20 23 20H14V17H17C17.825 17 18.5 16.325 18.5 15.5V12.5H21.5C23.15 12.5 24.5 11.15 24.5 9.5V8.885C28.895 10.67 32 14.975 32 20C32 23.12 30.8 25.955 28.85 28.085Z" fill="black"/>
</svg>
