<svg width="56" height="72" viewBox="0 0 56 72" fill="none" xmlns="http://www.w3.org/2000/svg">
<rect width="56" height="72" fill="white"/>
<g clip-path="url(#clip0_911_307)">
<path d="M28 21C19.72 21 13 27.72 13 36C13 44.28 19.72 51 28 51C36.28 51 43 44.28 43 36C43 27.72 36.28 21 28 21ZM26.5 47.895C20.575 47.16 16 42.12 16 36C16 35.07 16.12 34.185 16.315 33.315L23.5 40.5V42C23.5 43.65 24.85 45 26.5 45V47.895ZM36.85 44.085C36.46 42.87 35.35 42 34 42H32.5V37.5C32.5 36.675 31.825 36 31 36H22V33H25C25.825 33 26.5 32.325 26.5 31.5V28.5H29.5C31.15 28.5 32.5 27.15 32.5 25.5V24.885C36.895 26.67 40 30.975 40 36C40 39.12 38.8 41.955 36.85 44.085Z" fill="black"/>
</g>
<defs>
<clipPath id="clip0_911_307">
<rect width="40" height="40" fill="white" transform="translate(8 16)"/>
</clipPath>
</defs>
</svg>
