<svg width="56" height="56" viewBox="0 0 56 56" fill="none" xmlns="http://www.w3.org/2000/svg">
<rect width="56" height="56" fill="white"/>
<g clip-path="url(#clip0_911_278)">
<path d="M28 7C19.72 7 13 13.72 13 22C13 30.28 19.72 37 28 37C36.28 37 43 30.28 43 22C43 13.72 36.28 7 28 7ZM26.5 33.895C20.575 33.16 16 28.12 16 22C16 21.07 16.12 20.185 16.315 19.315L23.5 26.5V28C23.5 29.65 24.85 31 26.5 31V33.895ZM36.85 30.085C36.46 28.87 35.35 28 34 28H32.5V23.5C32.5 22.675 31.825 22 31 22H22V19H25C25.825 19 26.5 18.325 26.5 17.5V14.5H29.5C31.15 14.5 32.5 13.15 32.5 11.5V10.885C36.895 12.67 40 16.975 40 22C40 25.12 38.8 27.955 36.85 30.085Z" fill="black"/>
</g>
<path d="M9.2457 54V53.75L10.0457 53.58V47.82L9.2457 47.65V47.4H11.2457C12.0324 47.4 12.6624 47.5433 13.1357 47.83C13.6157 48.1167 13.8557 48.57 13.8557 49.19C13.8557 49.5567 13.739 49.8833 13.5057 50.17C13.279 50.45 12.959 50.6733 12.5457 50.84C12.139 51.0067 11.6624 51.09 11.1157 51.09H10.6457V53.58L11.5457 53.75V54H9.2457ZM10.6457 47.75V50.74H11.3957C11.7424 50.74 12.049 50.68 12.3157 50.56C12.589 50.4333 12.8024 50.26 12.9557 50.04C13.109 49.8133 13.1857 49.5567 13.1857 49.27C13.1857 48.7367 13.0157 48.35 12.6757 48.11C12.3424 47.87 11.8924 47.75 11.3257 47.75H10.6457ZM18.207 54.1C17.607 54.1 17.0703 53.9533 16.597 53.66C16.1303 53.3667 15.7603 52.9633 15.487 52.45C15.2136 51.9367 15.077 51.3533 15.077 50.7C15.077 50.0467 15.2136 49.4633 15.487 48.95C15.7603 48.4367 16.1303 48.0333 16.597 47.74C17.0703 47.4467 17.607 47.3 18.207 47.3C18.8136 47.3 19.3503 47.4467 19.817 47.74C20.2903 48.0333 20.6636 48.4367 20.937 48.95C21.2103 49.4633 21.347 50.0467 21.347 50.7C21.347 51.3533 21.2103 51.9367 20.937 52.45C20.6636 52.9633 20.2903 53.3667 19.817 53.66C19.3503 53.9533 18.8136 54.1 18.207 54.1ZM18.417 53.8C18.8703 53.8 19.2703 53.6867 19.617 53.46C19.9703 53.2267 20.2436 52.9033 20.437 52.49C20.6303 52.07 20.727 51.5767 20.727 51.01C20.727 50.3233 20.607 49.7233 20.367 49.21C20.127 48.6967 19.8036 48.3 19.397 48.02C18.9903 47.7333 18.537 47.59 18.037 47.59C17.5836 47.59 17.1803 47.7033 16.827 47.93C16.4736 48.1567 16.197 48.48 15.997 48.9C15.797 49.3133 15.697 49.8033 15.697 50.37C15.697 51.0567 15.817 51.66 16.057 52.18C16.3036 52.6933 16.6303 53.0933 17.037 53.38C17.4503 53.66 17.9103 53.8 18.417 53.8ZM22.693 54V53.75L23.473 53.58V47.82L22.693 47.65V47.4H27.173V49.02H26.973L26.553 47.75H24.073V50.42H25.893L26.143 49.59H26.343V51.58H26.143L25.893 50.77H24.073V53.65H26.833L27.253 52.28H27.453V54H22.693ZM30.1763 54V53.75L31.1763 53.58V47.75H29.2263L28.8063 49.22H28.6063V47.4H34.3463V49.22H34.1463L33.7263 47.75H31.7763V53.58L32.7763 53.75V54H30.1763ZM35.4469 54V53.75L36.2469 53.58V47.82L35.4469 47.65V47.4H37.4269C38.1269 47.4 38.6769 47.5467 39.0769 47.84C39.4835 48.1267 39.6869 48.5233 39.6869 49.03C39.6869 49.43 39.5569 49.77 39.2969 50.05C39.0435 50.33 38.7069 50.5367 38.2869 50.67L40.2169 53.62L40.8769 53.75V54H39.7169L37.7169 50.87H36.8469V53.57L37.5969 53.75V54H35.4469ZM37.4969 47.75H36.8469V50.52H37.5569C37.9769 50.52 38.3235 50.3933 38.5969 50.14C38.8769 49.88 39.0169 49.5533 39.0169 49.16C39.0169 48.7267 38.8802 48.3833 38.6069 48.13C38.3335 47.8767 37.9635 47.75 37.4969 47.75ZM42.7995 54V53.75L43.6995 53.58V50.87L41.5295 47.82L40.8695 47.65V47.4H42.9495V47.65L42.2795 47.79V47.83L44.1795 50.55L45.9095 47.83V47.79L45.1895 47.65V47.4H47.0495V47.65L46.4295 47.76L44.2995 50.9V53.58L45.1995 53.75V54H42.7995Z" fill="black"/>
<defs>
<clipPath id="clip0_911_278">
<rect width="40" height="40" fill="white" transform="translate(8 2)"/>
</clipPath>
</defs>
</svg>
