<svg width="56" height="56" viewBox="0 0 56 56" fill="none" xmlns="http://www.w3.org/2000/svg">
<rect width="56" height="56" fill="white"/>
<g clip-path="url(#clip0_911_307)">
<path d="M28 7C19.72 7 13 13.72 13 22C13 30.28 19.72 37 28 37C36.28 37 43 30.28 43 22C43 13.72 36.28 7 28 7ZM26.5 33.895C20.575 33.16 16 28.12 16 22C16 21.07 16.12 20.185 16.315 19.315L23.5 26.5V28C23.5 29.65 24.85 31 26.5 31V33.895ZM36.85 30.085C36.46 28.87 35.35 28 34 28H32.5V23.5C32.5 22.675 31.825 22 31 22H22V19H25C25.825 19 26.5 18.325 26.5 17.5V14.5H29.5C31.15 14.5 32.5 13.15 32.5 11.5V10.885C36.895 12.67 40 16.975 40 22C40 25.12 38.8 27.955 36.85 30.085Z" fill="black"/>
</g>
<defs>
<clipPath id="clip0_911_307">
<rect width="40" height="40" fill="white" transform="translate(8 2)"/>
</clipPath>
</defs>
</svg>
