<svg width="56" height="72" viewBox="0 0 56 72" fill="none" xmlns="http://www.w3.org/2000/svg">
<rect width="56" height="72" fill="white"/>
<g clip-path="url(#clip0_911_278)">
<path d="M28 21C19.72 21 13 27.72 13 36C13 44.28 19.72 51 28 51C36.28 51 43 44.28 43 36C43 27.72 36.28 21 28 21ZM26.5 47.895C20.575 47.16 16 42.12 16 36C16 35.07 16.12 34.185 16.315 33.315L23.5 40.5V42C23.5 43.65 24.85 45 26.5 45V47.895ZM36.85 44.085C36.46 42.87 35.35 42 34 42H32.5V37.5C32.5 36.675 31.825 36 31 36H22V33H25C25.825 33 26.5 32.325 26.5 31.5V28.5H29.5C31.15 28.5 32.5 27.15 32.5 25.5V24.885C36.895 26.67 40 30.975 40 36C40 39.12 38.8 41.955 36.85 44.085Z" fill="black"/>
</g>
<path d="M7.37027 70V69.725L8.25027 69.538V63.202L7.37027 63.015V62.74H9.57027C10.4356 62.74 11.1286 62.8977 11.6493 63.213C12.1773 63.5283 12.4413 64.027 12.4413 64.709C12.4413 65.1123 12.3129 65.4717 12.0563 65.787C11.8069 66.095 11.4549 66.3407 11.0003 66.524C10.5529 66.7073 10.0286 66.799 9.42727 66.799H8.91027V69.538L9.90027 69.725V70H7.37027ZM8.91027 63.125V66.414H9.73527C10.1166 66.414 10.4539 66.348 10.7473 66.216C11.0479 66.0767 11.2826 65.886 11.4513 65.644C11.6199 65.3947 11.7043 65.1123 11.7043 64.797C11.7043 64.2103 11.5173 63.785 11.1433 63.521C10.7766 63.257 10.2816 63.125 9.65827 63.125H8.91027ZM17.2276 70.11C16.5676 70.11 15.9773 69.9487 15.4566 69.626C14.9433 69.3033 14.5363 68.8597 14.2356 68.295C13.935 67.7303 13.7846 67.0887 13.7846 66.37C13.7846 65.6513 13.935 65.0097 14.2356 64.445C14.5363 63.8803 14.9433 63.4367 15.4566 63.114C15.9773 62.7913 16.5676 62.63 17.2276 62.63C17.895 62.63 18.4853 62.7913 18.9986 63.114C19.5193 63.4367 19.93 63.8803 20.2306 64.445C20.5313 65.0097 20.6816 65.6513 20.6816 66.37C20.6816 67.0887 20.5313 67.7303 20.2306 68.295C19.93 68.8597 19.5193 69.3033 18.9986 69.626C18.4853 69.9487 17.895 70.11 17.2276 70.11ZM17.4586 69.78C17.9573 69.78 18.3973 69.6553 18.7786 69.406C19.1673 69.1493 19.468 68.7937 19.6806 68.339C19.8933 67.877 19.9996 67.3343 19.9996 66.711C19.9996 65.9557 19.8676 65.2957 19.6036 64.731C19.3396 64.1663 18.984 63.73 18.5366 63.422C18.0893 63.1067 17.5906 62.949 17.0406 62.949C16.542 62.949 16.0983 63.0737 15.7096 63.323C15.321 63.5723 15.0166 63.928 14.7966 64.39C14.5766 64.8447 14.4666 65.3837 14.4666 66.007C14.4666 66.7623 14.5986 67.426 14.8626 67.998C15.134 68.5627 15.4933 69.0027 15.9406 69.318C16.3953 69.626 16.9013 69.78 17.4586 69.78ZM22.1623 70V69.725L23.0203 69.538V63.202L22.1623 63.015V62.74H27.0903V64.522H26.8703L26.4083 63.125H23.6803V66.062H25.6823L25.9573 65.149H26.1773V67.338H25.9573L25.6823 66.447H23.6803V69.615H26.7163L27.1783 68.108H27.3983V70H22.1623ZM30.3939 70V69.725L31.4939 69.538V63.125H29.3489L28.8869 64.742H28.6669V62.74H34.9809V64.742H34.7609L34.2989 63.125H32.1539V69.538L33.2539 69.725V70H30.3939ZM36.1916 70V69.725L37.0716 69.538V63.202L36.1916 63.015V62.74H38.3696C39.1396 62.74 39.7446 62.9013 40.1846 63.224C40.6319 63.5393 40.8556 63.9757 40.8556 64.533C40.8556 64.973 40.7126 65.347 40.4266 65.655C40.1479 65.963 39.7776 66.1903 39.3156 66.337L41.4386 69.582L42.1646 69.725V70H40.8886L38.6886 66.557H37.7316V69.527L38.5566 69.725V70H36.1916ZM38.4466 63.125H37.7316V66.172H38.5126C38.9746 66.172 39.3559 66.0327 39.6566 65.754C39.9646 65.468 40.1186 65.1087 40.1186 64.676C40.1186 64.1993 39.9682 63.8217 39.6676 63.543C39.3669 63.2643 38.9599 63.125 38.4466 63.125ZM44.2795 70V69.725L45.2695 69.538V66.557L42.8825 63.202L42.1565 63.015V62.74H44.4445V63.015L43.7075 63.169V63.213L45.7975 66.205L47.7005 63.213V63.169L46.9085 63.015V62.74H48.9545V63.015L48.2725 63.136L45.9295 66.59V69.538L46.9195 69.725V70H44.2795Z" fill="black"/>
<defs>
<clipPath id="clip0_911_278">
<rect width="40" height="40" fill="white" transform="translate(8 16)"/>
</clipPath>
</defs>
</svg>
