<svg width="400" height="264" viewBox="0 0 400 264" fill="none" xmlns="http://www.w3.org/2000/svg">
<rect width="400" height="264" rx="16" fill="#424242"/>
<path d="M112.109 188L121.594 164.969H123.266L132.75 188H130.641L127.688 180.75L127.391 180.031L122.484 167.75H122.359L117.469 180.031L117.172 180.75L114.219 188H112.109ZM116.219 181.359V179.5H128.641V181.359H116.219ZM135.625 188V171.516H137.562V173.875H138.125L137.172 174.828C137.453 174.109 137.865 173.484 138.406 172.953C138.958 172.411 139.615 171.995 140.375 171.703C141.135 171.411 141.974 171.266 142.891 171.266C144.182 171.266 145.25 171.542 146.094 172.094C146.948 172.635 147.583 173.37 148 174.297C148.427 175.224 148.641 176.255 148.641 177.391V188H146.703V177.828C146.703 176.245 146.323 175.057 145.562 174.266C144.812 173.464 143.781 173.062 142.469 173.062C141.542 173.062 140.708 173.266 139.969 173.672C139.229 174.068 138.641 174.62 138.203 175.328C137.776 176.026 137.562 176.839 137.562 177.766V188H135.625ZM161.438 188V164.969H173.75V166.828H163.469V175.312H172.203V177.172H163.469V186.141H173.75V188H161.438ZM187.875 188L183.266 181.141H183.078L181.906 179.797V179.672L176.234 171.516H178.453L183.141 178.453H183.328L184.484 179.672V179.797L190.219 188H187.875ZM176.188 188L181.906 179.797V179.672L183.078 178.453H183.266L187.938 171.516H190.188L184.484 179.672V179.797L183.328 181.141H183.141L178.516 188H176.188ZM199.875 188.188C198.76 188.188 197.714 187.974 196.734 187.547C195.766 187.12 194.911 186.521 194.172 185.75C193.443 184.979 192.87 184.078 192.453 183.047C192.036 182.005 191.828 180.88 191.828 179.672C191.828 178.432 192.042 177.302 192.469 176.281C192.906 175.25 193.5 174.359 194.25 173.609C195.01 172.859 195.87 172.281 196.828 171.875C197.797 171.458 198.818 171.25 199.891 171.25C200.807 171.25 201.719 171.401 202.625 171.703C203.542 171.995 204.333 172.391 205 172.891L204.219 174.578C203.885 174.255 203.469 173.979 202.969 173.75C202.479 173.521 201.964 173.349 201.422 173.234C200.88 173.109 200.38 173.047 199.922 173.047C198.839 173.047 197.833 173.328 196.906 173.891C195.979 174.443 195.229 175.224 194.656 176.234C194.094 177.234 193.812 178.396 193.812 179.719C193.812 180.979 194.083 182.115 194.625 183.125C195.167 184.135 195.896 184.932 196.812 185.516C197.74 186.099 198.781 186.391 199.938 186.391C200.844 186.391 201.682 186.229 202.453 185.906C203.234 185.573 203.844 185.182 204.281 184.734L205.062 186.453C204.417 186.974 203.641 187.396 202.734 187.719C201.839 188.031 200.885 188.188 199.875 188.188ZM214.859 188.25C213.339 188.25 211.995 187.901 210.828 187.203C209.672 186.495 208.766 185.505 208.109 184.234C207.464 182.964 207.141 181.469 207.141 179.75C207.141 178.042 207.458 176.552 208.094 175.281C208.74 174.01 209.625 173.026 210.75 172.328C211.875 171.62 213.156 171.266 214.594 171.266C216.052 171.266 217.318 171.609 218.391 172.297C219.464 172.974 220.292 173.885 220.875 175.031C221.458 176.167 221.75 177.422 221.75 178.797C221.75 179.099 221.734 179.411 221.703 179.734C221.682 180.047 221.656 180.286 221.625 180.453H208.641V178.797H219.828C219.839 177.734 219.625 176.771 219.188 175.906C218.76 175.042 218.156 174.354 217.375 173.844C216.604 173.333 215.688 173.078 214.625 173.078C213.552 173.078 212.594 173.349 211.75 173.891C210.906 174.422 210.24 175.188 209.75 176.188C209.26 177.177 209.016 178.359 209.016 179.734C209.016 181.099 209.26 182.281 209.75 183.281C210.24 184.281 210.922 185.057 211.797 185.609C212.682 186.161 213.698 186.438 214.844 186.438C215.562 186.438 216.224 186.344 216.828 186.156C217.432 185.958 217.969 185.719 218.438 185.438C218.917 185.146 219.312 184.854 219.625 184.562L220.406 186.375C219.76 186.896 218.958 187.339 218 187.703C217.052 188.068 216.005 188.25 214.859 188.25ZM225.578 188V171.516H227.516V174.281H227.922L227.141 175.141C227.484 174.401 227.932 173.74 228.484 173.156C229.047 172.573 229.688 172.115 230.406 171.781C231.135 171.438 231.927 171.266 232.781 171.266C233.073 171.266 233.359 171.286 233.641 171.328C233.922 171.359 234.141 171.406 234.297 171.469L233.5 173.328C233.385 173.286 233.229 173.25 233.031 173.219C232.844 173.188 232.635 173.172 232.406 173.172C231.896 173.172 231.354 173.292 230.781 173.531C230.219 173.771 229.688 174.115 229.188 174.562C228.698 175 228.297 175.536 227.984 176.172C227.672 176.797 227.516 177.5 227.516 178.281V188H225.578ZM242.906 188.188C241.792 188.188 240.745 187.974 239.766 187.547C238.797 187.12 237.943 186.521 237.203 185.75C236.474 184.979 235.901 184.078 235.484 183.047C235.068 182.005 234.859 180.88 234.859 179.672C234.859 178.432 235.073 177.302 235.5 176.281C235.938 175.25 236.531 174.359 237.281 173.609C238.042 172.859 238.901 172.281 239.859 171.875C240.828 171.458 241.849 171.25 242.922 171.25C243.839 171.25 244.75 171.401 245.656 171.703C246.573 171.995 247.365 172.391 248.031 172.891L247.25 174.578C246.917 174.255 246.5 173.979 246 173.75C245.51 173.521 244.995 173.349 244.453 173.234C243.911 173.109 243.411 173.047 242.953 173.047C241.87 173.047 240.865 173.328 239.938 173.891C239.01 174.443 238.26 175.224 237.688 176.234C237.125 177.234 236.844 178.396 236.844 179.719C236.844 180.979 237.115 182.115 237.656 183.125C238.198 184.135 238.927 184.932 239.844 185.516C240.771 186.099 241.812 186.391 242.969 186.391C243.875 186.391 244.714 186.229 245.484 185.906C246.266 185.573 246.875 185.182 247.312 184.734L248.094 186.453C247.448 186.974 246.672 187.396 245.766 187.719C244.87 188.031 243.917 188.188 242.906 188.188ZM251.703 188V171.516H253.641V188H251.703ZM252.656 168.594C252.167 168.594 251.755 168.427 251.422 168.094C251.089 167.75 250.922 167.339 250.922 166.859C250.922 166.38 251.089 165.974 251.422 165.641C251.755 165.297 252.167 165.125 252.656 165.125C253.135 165.125 253.542 165.297 253.875 165.641C254.219 165.974 254.391 166.38 254.391 166.859C254.391 167.339 254.219 167.75 253.875 168.094C253.542 168.427 253.135 168.594 252.656 168.594ZM263.188 188.25C262.271 188.25 261.432 188.073 260.672 187.719C259.922 187.354 259.286 186.885 258.766 186.312C258.245 185.74 257.875 185.135 257.656 184.5L259.484 183.734C259.714 184.391 260.167 185.01 260.844 185.594C261.521 186.167 262.323 186.453 263.25 186.453C263.792 186.453 264.323 186.339 264.844 186.109C265.375 185.87 265.807 185.536 266.141 185.109C266.484 184.672 266.656 184.156 266.656 183.562C266.656 183.042 266.526 182.599 266.266 182.234C266.005 181.859 265.667 181.547 265.25 181.297C264.833 181.036 264.38 180.818 263.891 180.641C263.401 180.453 262.938 180.292 262.5 180.156C261.885 179.958 261.234 179.672 260.547 179.297C259.87 178.922 259.292 178.432 258.812 177.828C258.333 177.214 258.094 176.458 258.094 175.562C258.094 174.719 258.312 173.974 258.75 173.328C259.198 172.682 259.781 172.177 260.5 171.812C261.219 171.448 262 171.266 262.844 171.266C263.979 171.266 265.016 171.583 265.953 172.219C266.901 172.854 267.568 173.656 267.953 174.625L266.219 175.359C265.906 174.63 265.448 174.068 264.844 173.672C264.25 173.276 263.599 173.078 262.891 173.078C262.12 173.078 261.438 173.307 260.844 173.766C260.26 174.214 259.974 174.818 259.984 175.578C259.984 176.234 260.193 176.771 260.609 177.188C261.026 177.594 261.516 177.922 262.078 178.172C262.641 178.411 263.146 178.604 263.594 178.75C264.052 178.885 264.557 179.068 265.109 179.297C265.672 179.526 266.208 179.823 266.719 180.188C267.24 180.542 267.667 180.99 268 181.531C268.344 182.073 268.516 182.729 268.516 183.5C268.516 184.438 268.266 185.266 267.766 185.984C267.276 186.693 266.625 187.25 265.812 187.656C265.01 188.052 264.135 188.25 263.188 188.25ZM279.047 188.25C277.526 188.25 276.182 187.901 275.016 187.203C273.859 186.495 272.953 185.505 272.297 184.234C271.651 182.964 271.328 181.469 271.328 179.75C271.328 178.042 271.646 176.552 272.281 175.281C272.927 174.01 273.812 173.026 274.938 172.328C276.062 171.62 277.344 171.266 278.781 171.266C280.24 171.266 281.505 171.609 282.578 172.297C283.651 172.974 284.479 173.885 285.062 175.031C285.646 176.167 285.938 177.422 285.938 178.797C285.938 179.099 285.922 179.411 285.891 179.734C285.87 180.047 285.844 180.286 285.812 180.453H272.828V178.797H284.016C284.026 177.734 283.812 176.771 283.375 175.906C282.948 175.042 282.344 174.354 281.562 173.844C280.792 173.333 279.875 173.078 278.812 173.078C277.74 173.078 276.781 173.349 275.938 173.891C275.094 174.422 274.427 175.188 273.938 176.188C273.448 177.177 273.203 178.359 273.203 179.734C273.203 181.099 273.448 182.281 273.938 183.281C274.427 184.281 275.109 185.057 275.984 185.609C276.87 186.161 277.885 186.438 279.031 186.438C279.75 186.438 280.411 186.344 281.016 186.156C281.62 185.958 282.156 185.719 282.625 185.438C283.104 185.146 283.5 184.854 283.812 184.562L284.594 186.375C283.948 186.896 283.146 187.339 282.188 187.703C281.24 188.068 280.193 188.25 279.047 188.25Z" fill="#FAFAFA"/>
<rect x="133" y="44" width="133.33" height="88" rx="44" fill="#F0EEE9"/>
<path d="M180.263 102.192C179.655 102.192 179.143 101.984 178.727 101.568C178.311 101.12 178.103 100.608 178.103 100.032C178.103 99.456 178.311 98.96 178.727 98.544C179.143 98.096 179.655 97.872 180.263 97.872C180.871 97.872 181.383 98.096 181.799 98.544C182.215 98.96 182.423 99.456 182.423 100.032C182.423 100.608 182.215 101.12 181.799 101.568C181.383 101.984 180.871 102.192 180.263 102.192ZM180.263 84.24C179.655 84.24 179.143 84.032 178.727 83.616C178.311 83.168 178.103 82.656 178.103 82.08C178.103 81.504 178.311 81.008 178.727 80.592C179.143 80.144 179.655 79.92 180.263 79.92C180.871 79.92 181.383 80.144 181.799 80.592C182.215 81.008 182.423 81.504 182.423 82.08C182.423 82.656 182.215 83.168 181.799 83.616C181.383 84.032 180.871 84.24 180.263 84.24ZM188.556 102V101.28L191.58 100.464V82.032H187.356V80.4H191.58V78.48C191.58 77.2 191.788 75.84 192.204 74.4C192.652 72.96 193.292 71.6 194.124 70.32C194.988 69.04 196.06 68 197.34 67.2C198.62 66.4 200.108 66 201.804 66C202.22 66 202.588 66.064 202.908 66.192C203.42 66.416 203.676 66.672 203.676 66.96C203.676 67.152 203.628 67.36 203.532 67.584L203.004 68.88H202.908L201.9 68.544C200.908 68.224 199.948 68.064 199.02 68.064C197.388 68.064 196.14 68.736 195.276 70.08C194.412 71.424 193.98 73.584 193.98 76.56V80.4H200.316V82.032H193.98V100.464L197.676 101.28V102H188.556ZM214 102.48C211.76 102.48 209.872 102 208.336 101.04C206.832 100.08 205.68 98.784 204.88 97.152C204.112 95.52 203.728 93.68 203.728 91.632C203.728 89.392 204.176 87.392 205.072 85.632C206 83.84 207.264 82.448 208.864 81.456C210.496 80.432 212.336 79.92 214.384 79.92C215.664 79.92 216.8 80.096 217.792 80.448C218.784 80.8 219.584 81.184 220.192 81.6C221.216 82.304 221.728 82.912 221.728 83.424C221.728 83.648 221.616 83.856 221.392 84.048L220.096 85.152H219.904L219.28 84.288C218.576 83.328 217.808 82.544 216.976 81.936C216.176 81.296 215.136 80.976 213.856 80.976C211.616 80.976 209.76 81.824 208.288 83.52C206.848 85.184 206.128 87.68 206.128 91.008C206.128 93.824 206.864 96.112 208.336 97.872C209.84 99.6 211.952 100.464 214.672 100.464C216.144 100.464 217.504 100.24 218.752 99.792C220 99.344 220.976 98.736 221.68 97.968H221.824V98.592C221.088 99.712 220.048 100.64 218.704 101.376C217.36 102.112 215.792 102.48 214 102.48Z" fill="#424242"/>
</svg>
