<svg width="288" height="288" viewBox="0 0 288 288" fill="none" xmlns="http://www.w3.org/2000/svg">
<g filter="url(#filter0_d_153_157)">
<rect x="4" width="280" height="280" rx="16" fill="white"/>
<path d="M70.2591 195.736C67.9285 195.736 65.9658 194.939 64.3711 193.344C62.7765 191.627 61.9791 189.664 61.9791 187.456C61.9791 185.248 62.7765 183.347 64.3711 181.752C65.9658 180.035 67.9285 179.176 70.2591 179.176C72.5898 179.176 74.5525 180.035 76.1471 181.752C77.7418 183.347 78.5391 185.248 78.5391 187.456C78.5391 189.664 77.7418 191.627 76.1471 193.344C74.5525 194.939 72.5898 195.736 70.2591 195.736ZM70.2591 126.92C67.9285 126.92 65.9658 126.123 64.3711 124.528C62.7765 122.811 61.9791 120.848 61.9791 118.64C61.9791 116.432 62.7765 114.531 64.3711 112.936C65.9658 111.219 67.9285 110.36 70.2591 110.36C72.5898 110.36 74.5525 111.219 76.1471 112.936C77.7418 114.531 78.5391 116.432 78.5391 118.64C78.5391 120.848 77.7418 122.811 76.1471 124.528C74.5525 126.123 72.5898 126.92 70.2591 126.92ZM102.049 195V192.24L113.641 189.112V118.456H97.4494V112.2H113.641V104.84C113.641 99.9333 114.439 94.72 116.033 89.2C117.751 83.68 120.204 78.4667 123.393 73.56C126.705 68.6533 130.815 64.6667 135.721 61.6C140.628 58.5333 146.332 57 152.833 57C154.428 57 155.839 57.2453 157.065 57.736C159.028 58.5947 160.009 59.576 160.009 60.68C160.009 61.416 159.825 62.2133 159.457 63.072L157.433 68.04H157.065L153.201 66.752C149.399 65.5253 145.719 64.912 142.161 64.912C135.905 64.912 131.121 67.488 127.809 72.64C124.497 77.792 122.841 86.072 122.841 97.48V112.2H147.129V118.456H122.841V189.112L137.009 192.24V195H102.049ZM199.584 196.84C190.997 196.84 183.76 195 177.872 191.32C172.106 187.64 167.69 182.672 164.624 176.416C161.68 170.16 160.208 163.107 160.208 155.256C160.208 146.669 161.925 139.003 165.36 132.256C168.917 125.387 173.762 120.051 179.896 116.248C186.152 112.323 193.205 110.36 201.056 110.36C205.962 110.36 210.317 111.035 214.12 112.384C217.922 113.733 220.989 115.205 223.32 116.8C227.245 119.499 229.208 121.829 229.208 123.792C229.208 124.651 228.778 125.448 227.92 126.184L222.952 130.416H222.216L219.824 127.104C217.125 123.424 214.181 120.419 210.992 118.088C207.925 115.635 203.938 114.408 199.032 114.408C190.445 114.408 183.33 117.659 177.688 124.16C172.168 130.539 169.408 140.107 169.408 152.864C169.408 163.659 172.229 172.429 177.872 179.176C183.637 185.8 191.733 189.112 202.16 189.112C207.802 189.112 213.016 188.253 217.8 186.536C222.584 184.819 226.325 182.488 229.024 179.544H229.576V181.936C226.754 186.229 222.768 189.787 217.616 192.608C212.464 195.429 206.453 196.84 199.584 196.84Z" fill="#424242"/>
</g>
<defs>
<filter id="filter0_d_153_157" x="0" y="0" width="288" height="288" filterUnits="userSpaceOnUse" color-interpolation-filters="sRGB">
<feFlood flood-opacity="0" result="BackgroundImageFix"/>
<feColorMatrix in="SourceAlpha" type="matrix" values="0 0 0 0 0 0 0 0 0 0 0 0 0 0 0 0 0 0 127 0" result="hardAlpha"/>
<feOffset dy="4"/>
<feGaussianBlur stdDeviation="2"/>
<feComposite in2="hardAlpha" operator="out"/>
<feColorMatrix type="matrix" values="0 0 0 0 0 0 0 0 0 0 0 0 0 0 0 0 0 0 0.25 0"/>
<feBlend mode="normal" in2="BackgroundImageFix" result="effect1_dropShadow_153_157"/>
<feBlend mode="normal" in="SourceGraphic" in2="effect1_dropShadow_153_157" result="shape"/>
</filter>
</defs>
</svg>
