<svg width="256" height="256" viewBox="0 0 256 256" fill="none" xmlns="http://www.w3.org/2000/svg">
<g filter="url(#filter0_d_153_157)">
<rect x="4" width="248" height="248" rx="16" fill="white"/>
<path d="M61.6749 173.815C59.2843 173.815 57.2196 172.946 55.4809 171.207C53.7423 169.36 52.8729 167.241 52.8729 164.85C52.8729 162.459 53.7423 160.395 55.4809 158.656C57.2196 156.917 59.2843 156.048 61.6749 156.048C64.0656 156.048 66.1303 156.917 67.8689 158.656C69.7163 160.395 70.6399 162.459 70.6399 164.85C70.6399 167.241 69.7163 169.36 67.8689 171.207C66.1303 172.946 64.0656 173.815 61.6749 173.815ZM61.6749 115.787C59.2843 115.787 57.2196 114.918 55.4809 113.179C53.7423 111.332 52.8729 109.213 52.8729 106.822C52.8729 104.431 53.7423 102.367 55.4809 100.628C57.2196 98.8893 59.2843 98.02 61.6749 98.02C64.0656 98.02 66.1303 98.8893 67.8689 100.628C69.7163 102.367 70.6399 104.431 70.6399 106.822C70.6399 109.213 69.7163 111.332 67.8689 113.179C66.1303 114.918 64.0656 115.787 61.6749 115.787ZM90.5756 173V170.392L100.845 166.317V106.496H87.4786V99.65H100.845V93.13C100.845 90.4133 101.334 87.262 102.312 83.676C103.398 79.9813 104.92 76.2323 106.876 72.429C108.94 68.6257 111.44 65.094 114.374 61.834C117.308 58.574 120.676 55.9117 124.48 53.847C128.283 51.7823 132.521 50.75 137.194 50.75C138.063 50.75 138.932 50.913 139.802 51.239C140.78 51.4563 141.54 51.6737 142.084 51.891C144.692 52.9777 145.996 54.2273 145.996 55.64C145.996 55.966 145.941 56.4007 145.833 56.944C145.833 57.3787 145.724 57.8133 145.507 58.248L142.899 64.768H142.084L138.009 63.301C134.857 62.1057 131.434 61.508 127.74 61.508C121.98 61.508 117.905 63.5727 115.515 67.702C113.124 71.7227 111.929 78.0253 111.929 86.61V99.65H133.445V106.496H111.929V166.48L123.828 170.392V173H90.5756ZM178.582 174.63C171.301 174.63 165.107 173.109 160 170.066C154.892 167.023 150.98 162.84 148.264 157.515C145.547 152.082 144.189 145.833 144.189 138.77C144.189 130.946 145.764 123.991 148.916 117.906C152.176 111.712 156.577 106.876 162.119 103.399C167.769 99.813 174.126 98.02 181.19 98.02C185.536 98.02 189.611 98.7263 193.415 100.139C197.327 101.443 200.315 103.073 202.38 105.029C203.575 106.224 204.444 107.257 204.988 108.126C205.64 108.995 205.966 109.81 205.966 110.571C205.966 111.766 205.422 112.799 204.336 113.668L198.794 118.232H197.816L193.741 112.69C191.785 110.082 189.503 107.963 186.895 106.333C184.287 104.594 181.081 103.725 177.278 103.725C170.649 103.725 165.27 106.333 161.141 111.549C157.12 116.656 155.11 123.991 155.11 133.554C155.11 139.205 156.088 144.421 158.044 149.202C160 153.875 163.042 157.624 167.172 160.449C171.41 163.166 176.897 164.524 183.635 164.524C191.676 164.524 199.065 162.133 205.803 157.352H206.292V159.145C203.792 163.492 200.152 167.186 195.371 170.229C190.589 173.163 184.993 174.63 178.582 174.63Z" fill="black"/>
</g>
<defs>
<filter id="filter0_d_153_157" x="0" y="0" width="256" height="256" filterUnits="userSpaceOnUse" color-interpolation-filters="sRGB">
<feFlood flood-opacity="0" result="BackgroundImageFix"/>
<feColorMatrix in="SourceAlpha" type="matrix" values="0 0 0 0 0 0 0 0 0 0 0 0 0 0 0 0 0 0 127 0" result="hardAlpha"/>
<feOffset dy="4"/>
<feGaussianBlur stdDeviation="2"/>
<feComposite in2="hardAlpha" operator="out"/>
<feColorMatrix type="matrix" values="0 0 0 0 0 0 0 0 0 0 0 0 0 0 0 0 0 0 0.25 0"/>
<feBlend mode="normal" in2="BackgroundImageFix" result="effect1_dropShadow_153_157"/>
<feBlend mode="normal" in="SourceGraphic" in2="effect1_dropShadow_153_157" result="shape"/>
</filter>
</defs>
</svg>
