<svg width="400" height="264" viewBox="0 0 400 264" fill="none" xmlns="http://www.w3.org/2000/svg">
<rect width="400" height="264" rx="16" fill="#F0EEE9"/>
<path d="M126.537 184.696C124.333 184.696 122.477 183.942 120.969 182.434C119.461 180.81 118.707 178.954 118.707 176.866C118.707 174.778 119.461 172.98 120.969 171.472C122.477 169.848 124.333 169.036 126.537 169.036C128.741 169.036 130.597 169.848 132.105 171.472C133.613 172.98 134.367 174.778 134.367 176.866C134.367 178.954 133.613 180.81 132.105 182.434C130.597 183.942 128.741 184.696 126.537 184.696ZM126.537 119.62C124.333 119.62 122.477 118.866 120.969 117.358C119.461 115.734 118.707 113.878 118.707 111.79C118.707 109.702 119.461 107.904 120.969 106.396C122.477 104.772 124.333 103.96 126.537 103.96C128.741 103.96 130.597 104.772 132.105 106.396C133.613 107.904 134.367 109.702 134.367 111.79C134.367 113.878 133.613 115.734 132.105 117.358C130.597 118.866 128.741 119.62 126.537 119.62ZM163.559 184V181.39L174.521 178.432V111.616H159.209V105.7H174.521V98.74C174.521 94.1 175.275 89.17 176.783 83.95C178.407 78.73 180.727 73.8 183.743 69.16C186.875 64.52 190.761 60.75 195.401 57.85C200.041 54.95 205.435 53.5 211.583 53.5C213.091 53.5 214.425 53.732 215.585 54.196C217.441 55.008 218.369 55.936 218.369 56.98C218.369 57.676 218.195 58.43 217.847 59.242L215.933 63.94H215.585L211.931 62.722C208.335 61.562 204.855 60.982 201.491 60.982C195.575 60.982 191.051 63.418 187.919 68.29C184.787 73.162 183.221 80.992 183.221 91.78V105.7H206.189V111.616H183.221V178.432L196.619 181.39V184H163.559ZM255.793 185.74C247.673 185.74 240.829 184 235.261 180.52C229.809 177.04 225.633 172.342 222.733 166.426C219.949 160.51 218.557 153.84 218.557 146.416C218.557 138.296 220.181 131.046 223.429 124.666C226.793 118.17 231.375 113.124 237.175 109.528C243.091 105.816 249.761 103.96 257.185 103.96C261.825 103.96 265.943 104.598 269.539 105.874C273.135 107.15 276.035 108.542 278.239 110.05C281.951 112.602 283.807 114.806 283.807 116.662C283.807 117.474 283.401 118.228 282.589 118.924L277.891 122.926H277.195L274.933 119.794C272.381 116.314 269.597 113.472 266.581 111.268C263.681 108.948 259.911 107.788 255.271 107.788C247.151 107.788 240.423 110.862 235.087 117.01C229.867 123.042 227.257 132.09 227.257 144.154C227.257 154.362 229.925 162.656 235.261 169.036C240.713 175.3 248.369 178.432 258.229 178.432C263.565 178.432 268.495 177.62 273.019 175.996C277.543 174.372 281.081 172.168 283.633 169.384H284.155V171.646C281.487 175.706 277.717 179.07 272.845 181.738C267.973 184.406 262.289 185.74 255.793 185.74Z" fill="#424242"/>
</svg>
