<svg width="400" height="264" viewBox="0 0 400 264" fill="none" xmlns="http://www.w3.org/2000/svg">
<rect width="400" height="264" rx="16" fill="#424242"/>
<path d="M37.8722 119V118.44L40.0842 117.6V101.92L37.8722 101.08V100.52H51.0882V105.224H50.6122L49.1002 101.836H42.2682V108.808H47.1682L48.2882 106.484H48.7642V112.392H48.2882L47.1682 110.124H42.2682V117.684H49.8842L51.3962 114.016H51.8722V119H37.8722ZM54.7776 119V118.552L56.3456 117.796L59.9576 112.728L56.3456 107.548L54.9176 106.848V106.4H60.3776V106.848L58.5296 107.52V107.66L61.2176 111.524L63.5976 107.772V107.632L62.0296 106.848V106.4H66.3976V106.848L64.8856 107.66L61.6376 112.14L65.6136 117.852L66.8736 118.552V119H61.7776V118.552L63.4296 117.88V117.74L60.4056 113.4L57.7456 117.628V117.768L59.3976 118.552V119H54.7776ZM74.8987 119.28C73.648 119.28 72.5747 119.019 71.6787 118.496C70.8013 117.973 70.1293 117.255 69.6627 116.34C69.196 115.407 68.9627 114.333 68.9627 113.12C68.9627 111.776 69.2333 110.581 69.7747 109.536C70.316 108.472 71.0347 107.641 71.9307 107.044C72.8267 106.428 73.7973 106.12 74.8427 106.12C76.3173 106.12 77.4747 106.624 78.3147 107.632C79.1547 108.64 79.6027 110.059 79.6587 111.888L79.5467 112H70.8387C70.8387 112.075 70.8387 112.149 70.8387 112.224C70.8387 113.195 71.0067 114.091 71.3427 114.912C71.6787 115.715 72.2107 116.359 72.9387 116.844C73.6667 117.311 74.6093 117.544 75.7667 117.544C77.148 117.544 78.4173 117.133 79.5747 116.312H79.6587V116.62C79.248 117.367 78.6227 118.001 77.7827 118.524C76.9613 119.028 76 119.28 74.8987 119.28ZM74.4227 107.1C73.5267 107.1 72.7613 107.445 72.1267 108.136C71.492 108.808 71.0907 109.76 70.9227 110.992H77.7547C77.3813 108.397 76.2707 107.1 74.4227 107.1ZM82.8898 119V118.552L84.6538 117.852V108.556L82.8338 107.604V107.296L86.1098 106.12H86.3338L86.5298 108.556H86.6138C87.1738 107.828 87.6405 107.296 88.0138 106.96C88.4058 106.605 88.7605 106.381 89.0778 106.288C89.3952 106.176 89.7125 106.12 90.0298 106.12C90.1792 106.12 90.3472 106.148 90.5338 106.204C90.7205 106.241 90.8698 106.288 90.9818 106.344C91.1872 106.419 91.3552 106.512 91.4858 106.624C91.6165 106.736 91.6818 106.857 91.6818 106.988C91.6818 107.044 91.6725 107.109 91.6538 107.184C91.6538 107.259 91.6352 107.333 91.5978 107.408L91.1498 108.528H91.0098L90.1698 108.164C89.8338 108.033 89.4605 107.968 89.0498 107.968C88.5832 107.968 88.1445 108.089 87.7338 108.332C87.3232 108.575 86.9312 108.976 86.5578 109.536V117.852L88.6018 118.552V119H82.8898ZM99.5452 119.28C98.2946 119.28 97.2306 119.019 96.3532 118.496C95.4759 117.973 94.8039 117.255 94.3372 116.34C93.8706 115.407 93.6372 114.333 93.6372 113.12C93.6372 111.776 93.9079 110.581 94.4492 109.536C95.0092 108.472 95.7652 107.641 96.7172 107.044C97.6879 106.428 98.7799 106.12 99.9932 106.12C100.74 106.12 101.44 106.241 102.093 106.484C102.765 106.708 103.279 106.988 103.633 107.324C103.839 107.529 103.988 107.707 104.081 107.856C104.193 108.005 104.249 108.145 104.249 108.276C104.249 108.481 104.156 108.659 103.969 108.808L103.017 109.592H102.849L102.149 108.64C101.813 108.192 101.421 107.828 100.973 107.548C100.525 107.249 99.9746 107.1 99.3212 107.1C98.1826 107.1 97.2586 107.548 96.5492 108.444C95.8586 109.321 95.5132 110.581 95.5132 112.224C95.5132 113.195 95.6812 114.091 96.0172 114.912C96.3532 115.715 96.8759 116.359 97.5852 116.844C98.3132 117.311 99.2559 117.544 100.413 117.544C101.795 117.544 103.064 117.133 104.221 116.312H104.305V116.62C103.876 117.367 103.251 118.001 102.429 118.524C101.608 119.028 100.647 119.28 99.5452 119.28ZM109.894 102.312C109.483 102.312 109.138 102.181 108.858 101.92C108.596 101.64 108.466 101.295 108.466 100.884C108.466 100.455 108.596 100.109 108.858 99.848C109.138 99.5867 109.483 99.456 109.894 99.456C110.323 99.456 110.668 99.5867 110.93 99.848C111.191 100.109 111.322 100.455 111.322 100.884C111.322 101.295 111.191 101.64 110.93 101.92C110.668 102.181 110.323 102.312 109.894 102.312ZM107.402 119V118.552L109.166 117.852V108.556L107.346 107.464V107.184L110.846 106.12H111.07V117.852L112.918 118.552V119H107.402ZM120.215 119.28C119.431 119.28 118.74 119.205 118.143 119.056C117.564 118.907 116.976 118.683 116.379 118.384V115.332H116.743L117.443 116.76C117.686 117.283 118.031 117.693 118.479 117.992C118.946 118.272 119.543 118.412 120.271 118.412C121.092 118.412 121.718 118.225 122.147 117.852C122.595 117.46 122.819 116.909 122.819 116.2C122.819 115.435 122.567 114.865 122.063 114.492C121.559 114.119 120.812 113.717 119.823 113.288C118.796 112.859 118.022 112.383 117.499 111.86C116.976 111.337 116.715 110.6 116.715 109.648C116.715 109.013 116.892 108.425 117.247 107.884C117.62 107.343 118.096 106.913 118.675 106.596C119.254 106.279 119.86 106.12 120.495 106.12C121.204 106.12 121.839 106.204 122.399 106.372C122.959 106.54 123.491 106.755 123.995 107.016V109.984H123.631L122.931 108.612C122.688 108.033 122.343 107.623 121.895 107.38C121.466 107.137 121.018 107.016 120.551 107.016C119.879 107.016 119.347 107.203 118.955 107.576C118.582 107.931 118.395 108.416 118.395 109.032C118.395 109.667 118.61 110.171 119.039 110.544C119.487 110.899 120.159 111.272 121.055 111.664C121.69 111.944 122.268 112.233 122.791 112.532C123.314 112.812 123.724 113.185 124.023 113.652C124.34 114.119 124.499 114.763 124.499 115.584C124.499 116.331 124.294 116.984 123.883 117.544C123.472 118.085 122.94 118.515 122.287 118.832C121.634 119.131 120.943 119.28 120.215 119.28ZM133.96 119.28C132.709 119.28 131.636 119.019 130.74 118.496C129.863 117.973 129.191 117.255 128.724 116.34C128.257 115.407 128.024 114.333 128.024 113.12C128.024 111.776 128.295 110.581 128.836 109.536C129.377 108.472 130.096 107.641 130.992 107.044C131.888 106.428 132.859 106.12 133.904 106.12C135.379 106.12 136.536 106.624 137.376 107.632C138.216 108.64 138.664 110.059 138.72 111.888L138.608 112H129.9C129.9 112.075 129.9 112.149 129.9 112.224C129.9 113.195 130.068 114.091 130.404 114.912C130.74 115.715 131.272 116.359 132 116.844C132.728 117.311 133.671 117.544 134.828 117.544C136.209 117.544 137.479 117.133 138.636 116.312H138.72V116.62C138.309 117.367 137.684 118.001 136.844 118.524C136.023 119.028 135.061 119.28 133.96 119.28ZM133.484 107.1C132.588 107.1 131.823 107.445 131.188 108.136C130.553 108.808 130.152 109.76 129.984 110.992H136.816C136.443 108.397 135.332 107.1 133.484 107.1ZM143.687 119.14C143.277 119.14 142.922 118.991 142.623 118.692C142.325 118.375 142.175 118.011 142.175 117.6C142.175 117.189 142.325 116.835 142.623 116.536C142.922 116.237 143.277 116.088 143.687 116.088C144.098 116.088 144.453 116.237 144.751 116.536C145.069 116.835 145.227 117.189 145.227 117.6C145.227 118.011 145.069 118.375 144.751 118.692C144.453 118.991 144.098 119.14 143.687 119.14ZM143.687 109.172C143.277 109.172 142.922 109.023 142.623 108.724C142.325 108.407 142.175 108.043 142.175 107.632C142.175 107.221 142.325 106.867 142.623 106.568C142.922 106.269 143.277 106.12 143.687 106.12C144.098 106.12 144.453 106.269 144.751 106.568C145.069 106.867 145.227 107.221 145.227 107.632C145.227 108.043 145.069 108.407 144.751 108.724C144.453 109.023 144.098 109.172 143.687 109.172ZM155.4 119V118.44L157.08 117.74L164.22 100.38H165.2L172.312 117.712L174.076 118.44V119H167.552V118.44L169.96 117.712L167.776 112.252H160.86L158.704 117.74L161.112 118.44V119H155.4ZM161.392 110.936H167.244L164.304 103.6L161.392 110.936ZM183.915 125.44V124.992L185.679 124.292V108.556L183.859 107.604V107.296L187.135 106.12H187.359L187.527 107.828H187.695C188.404 107.231 189.086 106.801 189.739 106.54C190.411 106.26 191.13 106.12 191.895 106.12C192.828 106.12 193.659 106.363 194.387 106.848C195.115 107.333 195.684 108.024 196.095 108.92C196.524 109.797 196.739 110.852 196.739 112.084C196.739 113.615 196.45 114.921 195.871 116.004C195.292 117.068 194.518 117.88 193.547 118.44C192.576 119 191.503 119.28 190.327 119.28C189.823 119.28 189.338 119.233 188.871 119.14C188.423 119.065 187.994 118.963 187.583 118.832V124.292L189.571 124.992V125.44H183.915ZM190.663 107.66C189.543 107.66 188.516 108.015 187.583 108.724V117.012C188.143 117.441 188.712 117.749 189.291 117.936C189.87 118.104 190.504 118.188 191.195 118.188C191.867 118.188 192.483 118.011 193.043 117.656C193.603 117.301 194.051 116.732 194.387 115.948C194.723 115.145 194.891 114.1 194.891 112.812C194.891 111.617 194.695 110.647 194.303 109.9C193.911 109.135 193.388 108.575 192.735 108.22C192.1 107.847 191.41 107.66 190.663 107.66ZM205.989 119.28C204.794 119.28 203.749 118.991 202.853 118.412C201.957 117.833 201.257 117.049 200.753 116.06C200.249 115.071 199.997 113.951 199.997 112.7C199.997 111.449 200.249 110.329 200.753 109.34C201.257 108.351 201.957 107.567 202.853 106.988C203.749 106.409 204.794 106.12 205.989 106.12C207.184 106.12 208.229 106.409 209.125 106.988C210.021 107.567 210.721 108.351 211.225 109.34C211.729 110.329 211.981 111.449 211.981 112.7C211.981 113.951 211.729 115.071 211.225 116.06C210.721 117.049 210.021 117.833 209.125 118.412C208.229 118.991 207.184 119.28 205.989 119.28ZM206.381 118.3C207.165 118.3 207.818 118.057 208.341 117.572C208.864 117.087 209.256 116.461 209.517 115.696C209.778 114.912 209.909 114.1 209.909 113.26C209.909 112.196 209.75 111.197 209.433 110.264C209.134 109.312 208.668 108.547 208.033 107.968C207.417 107.371 206.624 107.072 205.653 107.072C204.869 107.072 204.206 107.305 203.665 107.772C203.142 108.239 202.741 108.855 202.461 109.62C202.2 110.385 202.069 111.216 202.069 112.112C202.069 113.195 202.228 114.212 202.545 115.164C202.862 116.097 203.338 116.853 203.973 117.432C204.608 118.011 205.41 118.3 206.381 118.3ZM215.182 119V118.552L216.946 117.852V108.556L215.126 107.604V107.296L218.402 106.12H218.626L218.822 108.556H218.906C219.466 107.828 219.933 107.296 220.306 106.96C220.698 106.605 221.053 106.381 221.37 106.288C221.687 106.176 222.005 106.12 222.322 106.12C222.471 106.12 222.639 106.148 222.826 106.204C223.013 106.241 223.162 106.288 223.274 106.344C223.479 106.419 223.647 106.512 223.778 106.624C223.909 106.736 223.974 106.857 223.974 106.988C223.974 107.044 223.965 107.109 223.946 107.184C223.946 107.259 223.927 107.333 223.89 107.408L223.442 108.528H223.302L222.462 108.164C222.126 108.033 221.753 107.968 221.342 107.968C220.875 107.968 220.437 108.089 220.026 108.332C219.615 108.575 219.223 108.976 218.85 109.536V117.852L220.894 118.552V119H215.182ZM230.241 119.28C229.439 119.28 228.757 119.037 228.197 118.552C227.656 118.067 227.385 117.385 227.385 116.508V107.576H225.033V107.352L227.525 106.4L229.065 103.32H229.289V106.4H232.985V107.576H229.289V116.2C229.289 116.723 229.485 117.115 229.877 117.376C230.269 117.619 230.764 117.74 231.361 117.74C231.735 117.74 232.08 117.712 232.397 117.656C232.715 117.581 233.004 117.497 233.265 117.404L233.321 117.432V117.628C233.135 118.001 232.78 118.375 232.257 118.748C231.753 119.103 231.081 119.28 230.241 119.28ZM236.002 119V118.552L237.766 117.852V107.576H235.47V106.4H237.766V105.28C237.766 104.813 237.85 104.272 238.018 103.656C238.205 103.021 238.466 102.377 238.802 101.724C239.157 101.071 239.586 100.464 240.09 99.904C240.594 99.344 241.173 98.8867 241.826 98.532C242.48 98.1773 243.208 98 244.01 98C244.16 98 244.309 98.028 244.458 98.084C244.626 98.1213 244.757 98.1587 244.85 98.196C245.298 98.3827 245.522 98.5973 245.522 98.84C245.522 98.896 245.513 98.9707 245.494 99.064C245.494 99.1387 245.476 99.2133 245.438 99.288L244.99 100.408H244.85L244.15 100.156C243.609 99.9507 243.021 99.848 242.386 99.848C241.397 99.848 240.697 100.203 240.286 100.912C239.876 101.603 239.67 102.685 239.67 104.16V106.4H243.366V107.576H239.67V117.88L241.714 118.552V119H236.002ZM251.428 119.28C250.233 119.28 249.188 118.991 248.292 118.412C247.396 117.833 246.696 117.049 246.192 116.06C245.688 115.071 245.436 113.951 245.436 112.7C245.436 111.449 245.688 110.329 246.192 109.34C246.696 108.351 247.396 107.567 248.292 106.988C249.188 106.409 250.233 106.12 251.428 106.12C252.623 106.12 253.668 106.409 254.564 106.988C255.46 107.567 256.16 108.351 256.664 109.34C257.168 110.329 257.42 111.449 257.42 112.7C257.42 113.951 257.168 115.071 256.664 116.06C256.16 117.049 255.46 117.833 254.564 118.412C253.668 118.991 252.623 119.28 251.428 119.28ZM251.82 118.3C252.604 118.3 253.257 118.057 253.78 117.572C254.303 117.087 254.695 116.461 254.956 115.696C255.217 114.912 255.348 114.1 255.348 113.26C255.348 112.196 255.189 111.197 254.872 110.264C254.573 109.312 254.107 108.547 253.472 107.968C252.856 107.371 252.063 107.072 251.092 107.072C250.308 107.072 249.645 107.305 249.104 107.772C248.581 108.239 248.18 108.855 247.9 109.62C247.639 110.385 247.508 111.216 247.508 112.112C247.508 113.195 247.667 114.212 247.984 115.164C248.301 116.097 248.777 116.853 249.412 117.432C250.047 118.011 250.849 118.3 251.82 118.3ZM260.397 119V118.552L262.161 117.852V100.436L260.341 99.344V99.064L263.841 98H264.065V117.852L265.913 118.552V119H260.397ZM271.487 102.312C271.076 102.312 270.731 102.181 270.451 101.92C270.189 101.64 270.059 101.295 270.059 100.884C270.059 100.455 270.189 100.109 270.451 99.848C270.731 99.5867 271.076 99.456 271.487 99.456C271.916 99.456 272.261 99.5867 272.523 99.848C272.784 100.109 272.915 100.455 272.915 100.884C272.915 101.295 272.784 101.64 272.523 101.92C272.261 102.181 271.916 102.312 271.487 102.312ZM268.995 119V118.552L270.759 117.852V108.556L268.939 107.464V107.184L272.439 106.12H272.663V117.852L274.511 118.552V119H268.995ZM283.6 119.28C282.405 119.28 281.36 118.991 280.464 118.412C279.568 117.833 278.868 117.049 278.364 116.06C277.86 115.071 277.608 113.951 277.608 112.7C277.608 111.449 277.86 110.329 278.364 109.34C278.868 108.351 279.568 107.567 280.464 106.988C281.36 106.409 282.405 106.12 283.6 106.12C284.795 106.12 285.84 106.409 286.736 106.988C287.632 107.567 288.332 108.351 288.836 109.34C289.34 110.329 289.592 111.449 289.592 112.7C289.592 113.951 289.34 115.071 288.836 116.06C288.332 117.049 287.632 117.833 286.736 118.412C285.84 118.991 284.795 119.28 283.6 119.28ZM283.992 118.3C284.776 118.3 285.429 118.057 285.952 117.572C286.475 117.087 286.867 116.461 287.128 115.696C287.389 114.912 287.52 114.1 287.52 113.26C287.52 112.196 287.361 111.197 287.044 110.264C286.745 109.312 286.279 108.547 285.644 107.968C285.028 107.371 284.235 107.072 283.264 107.072C282.48 107.072 281.817 107.305 281.276 107.772C280.753 108.239 280.352 108.855 280.072 109.62C279.811 110.385 279.68 111.216 279.68 112.112C279.68 113.195 279.839 114.212 280.156 115.164C280.473 116.097 280.949 116.853 281.584 117.432C282.219 118.011 283.021 118.3 283.992 118.3ZM304.049 119.28C303.265 119.28 302.574 119.205 301.977 119.056C301.398 118.907 300.81 118.683 300.213 118.384V115.332H300.577L301.277 116.76C301.52 117.283 301.865 117.693 302.313 117.992C302.78 118.272 303.377 118.412 304.105 118.412C304.926 118.412 305.552 118.225 305.981 117.852C306.429 117.46 306.653 116.909 306.653 116.2C306.653 115.435 306.401 114.865 305.897 114.492C305.393 114.119 304.646 113.717 303.657 113.288C302.63 112.859 301.856 112.383 301.333 111.86C300.81 111.337 300.549 110.6 300.549 109.648C300.549 109.013 300.726 108.425 301.081 107.884C301.454 107.343 301.93 106.913 302.509 106.596C303.088 106.279 303.694 106.12 304.329 106.12C305.038 106.12 305.673 106.204 306.233 106.372C306.793 106.54 307.325 106.755 307.829 107.016V109.984H307.465L306.765 108.612C306.522 108.033 306.177 107.623 305.729 107.38C305.3 107.137 304.852 107.016 304.385 107.016C303.713 107.016 303.181 107.203 302.789 107.576C302.416 107.931 302.229 108.416 302.229 109.032C302.229 109.667 302.444 110.171 302.873 110.544C303.321 110.899 303.993 111.272 304.889 111.664C305.524 111.944 306.102 112.233 306.625 112.532C307.148 112.812 307.558 113.185 307.857 113.652C308.174 114.119 308.333 114.763 308.333 115.584C308.333 116.331 308.128 116.984 307.717 117.544C307.306 118.085 306.774 118.515 306.121 118.832C305.468 119.131 304.777 119.28 304.049 119.28ZM317.794 119.28C316.543 119.28 315.47 119.019 314.574 118.496C313.697 117.973 313.025 117.255 312.558 116.34C312.091 115.407 311.858 114.333 311.858 113.12C311.858 111.776 312.129 110.581 312.67 109.536C313.211 108.472 313.93 107.641 314.826 107.044C315.722 106.428 316.693 106.12 317.738 106.12C319.213 106.12 320.37 106.624 321.21 107.632C322.05 108.64 322.498 110.059 322.554 111.888L322.442 112H313.734C313.734 112.075 313.734 112.149 313.734 112.224C313.734 113.195 313.902 114.091 314.238 114.912C314.574 115.715 315.106 116.359 315.834 116.844C316.562 117.311 317.505 117.544 318.662 117.544C320.043 117.544 321.313 117.133 322.47 116.312H322.554V116.62C322.143 117.367 321.518 118.001 320.678 118.524C319.857 119.028 318.895 119.28 317.794 119.28ZM317.318 107.1C316.422 107.1 315.657 107.445 315.022 108.136C314.387 108.808 313.986 109.76 313.818 110.992H320.65C320.277 108.397 319.166 107.1 317.318 107.1ZM331.663 119.28C330.412 119.28 329.339 119.019 328.443 118.496C327.565 117.973 326.893 117.255 326.427 116.34C325.96 115.407 325.727 114.333 325.727 113.12C325.727 111.776 325.997 110.581 326.539 109.536C327.08 108.472 327.799 107.641 328.695 107.044C329.591 106.428 330.561 106.12 331.607 106.12C333.081 106.12 334.239 106.624 335.079 107.632C335.919 108.64 336.367 110.059 336.423 111.888L336.311 112H327.603C327.603 112.075 327.603 112.149 327.603 112.224C327.603 113.195 327.771 114.091 328.107 114.912C328.443 115.715 328.975 116.359 329.703 116.844C330.431 117.311 331.373 117.544 332.531 117.544C333.912 117.544 335.181 117.133 336.339 116.312H336.423V116.62C336.012 117.367 335.387 118.001 334.547 118.524C333.725 119.028 332.764 119.28 331.663 119.28ZM331.187 107.1C330.291 107.1 329.525 107.445 328.891 108.136C328.256 108.808 327.855 109.76 327.687 110.992H334.519C334.145 108.397 333.035 107.1 331.187 107.1ZM339.432 119V118.552L341.196 117.852V100.436L339.376 99.344V99.064L342.876 98H343.1V111.916L347.832 107.828V107.66L346.46 106.848V106.4H351.444V106.848L349.652 107.632L344.78 111.412L350.688 117.796L352.48 118.552V119H349.064L348.14 117.74L343.1 112.224V117.88L345.088 118.552V119H339.432ZM358.539 119.28C357.755 119.28 357.064 119.205 356.467 119.056C355.888 118.907 355.3 118.683 354.703 118.384V115.332H355.067L355.767 116.76C356.009 117.283 356.355 117.693 356.803 117.992C357.269 118.272 357.867 118.412 358.595 118.412C359.416 118.412 360.041 118.225 360.471 117.852C360.919 117.46 361.143 116.909 361.143 116.2C361.143 115.435 360.891 114.865 360.387 114.492C359.883 114.119 359.136 113.717 358.147 113.288C357.12 112.859 356.345 112.383 355.823 111.86C355.3 111.337 355.039 110.6 355.039 109.648C355.039 109.013 355.216 108.425 355.571 107.884C355.944 107.343 356.42 106.913 356.999 106.596C357.577 106.279 358.184 106.12 358.819 106.12C359.528 106.12 360.163 106.204 360.723 106.372C361.283 106.54 361.815 106.755 362.319 107.016V109.984H361.955L361.255 108.612C361.012 108.033 360.667 107.623 360.219 107.38C359.789 107.137 359.341 107.016 358.875 107.016C358.203 107.016 357.671 107.203 357.279 107.576C356.905 107.931 356.719 108.416 356.719 109.032C356.719 109.667 356.933 110.171 357.363 110.544C357.811 110.899 358.483 111.272 359.379 111.664C360.013 111.944 360.592 112.233 361.115 112.532C361.637 112.812 362.048 113.185 362.347 113.652C362.664 114.119 362.823 114.763 362.823 115.584C362.823 116.331 362.617 116.984 362.207 117.544C361.796 118.085 361.264 118.515 360.611 118.832C359.957 119.131 359.267 119.28 358.539 119.28ZM61.6698 162V161.552L63.4338 160.852V151.556L61.5858 150.604V150.296L64.8898 149.12H65.0858L65.2818 151.164H65.4218C66.0938 150.473 66.7284 149.96 67.3258 149.624C67.9418 149.288 68.6231 149.12 69.3698 149.12C70.2098 149.12 70.9378 149.307 71.5538 149.68C72.1884 150.053 72.6178 150.613 72.8418 151.36H72.9258C73.6724 150.595 74.3631 150.035 74.9978 149.68C75.6511 149.307 76.3698 149.12 77.1538 149.12C78.2364 149.12 79.1231 149.419 79.8138 150.016C80.5231 150.613 80.8778 151.481 80.8778 152.62V160.852L82.6418 161.552V162H76.9858V161.552L78.9738 160.852V153.712C78.9738 152.76 78.7031 152.041 78.1618 151.556C77.6391 151.052 76.9671 150.8 76.1458 150.8C75.5671 150.8 74.9884 150.912 74.4098 151.136C73.8498 151.341 73.3831 151.649 73.0098 152.06C73.0284 152.228 73.0378 152.415 73.0378 152.62V160.852L74.9138 161.552V162H69.2298V161.552L71.1618 160.852V153.712C71.1618 152.76 70.9004 152.041 70.3778 151.556C69.8551 151.052 69.1831 150.8 68.3618 150.8C67.8764 150.8 67.3351 150.912 66.7378 151.136C66.1591 151.341 65.6831 151.64 65.3098 152.032V160.852L67.2138 161.552V162H61.6698ZM91.2647 162.28C90.07 162.28 89.0247 161.991 88.1287 161.412C87.2327 160.833 86.5327 160.049 86.0287 159.06C85.5247 158.071 85.2727 156.951 85.2727 155.7C85.2727 154.449 85.5247 153.329 86.0287 152.34C86.5327 151.351 87.2327 150.567 88.1287 149.988C89.0247 149.409 90.07 149.12 91.2647 149.12C92.4593 149.12 93.5047 149.409 94.4007 149.988C95.2967 150.567 95.9967 151.351 96.5007 152.34C97.0047 153.329 97.2567 154.449 97.2567 155.7C97.2567 156.951 97.0047 158.071 96.5007 159.06C95.9967 160.049 95.2967 160.833 94.4007 161.412C93.5047 161.991 92.4593 162.28 91.2647 162.28ZM91.6567 161.3C92.4407 161.3 93.094 161.057 93.6167 160.572C94.1393 160.087 94.5313 159.461 94.7927 158.696C95.054 157.912 95.1847 157.1 95.1847 156.26C95.1847 155.196 95.026 154.197 94.7087 153.264C94.41 152.312 93.9433 151.547 93.3087 150.968C92.6927 150.371 91.8993 150.072 90.9287 150.072C90.1447 150.072 89.482 150.305 88.9407 150.772C88.418 151.239 88.0167 151.855 87.7367 152.62C87.4753 153.385 87.3447 154.216 87.3447 155.112C87.3447 156.195 87.5033 157.212 87.8207 158.164C88.138 159.097 88.614 159.853 89.2487 160.432C89.8833 161.011 90.686 161.3 91.6567 161.3ZM105.322 162.28C104.389 162.28 103.558 162.047 102.83 161.58C102.102 161.113 101.524 160.441 101.094 159.564C100.684 158.687 100.478 157.651 100.478 156.456C100.478 154.888 100.777 153.563 101.374 152.48C101.99 151.379 102.802 150.548 103.81 149.988C104.837 149.409 105.948 149.12 107.142 149.12C107.628 149.12 108.076 149.157 108.486 149.232C108.897 149.307 109.28 149.409 109.634 149.54V143.436L107.73 142.344V142.064L111.314 141H111.538V160.88L113.526 161.552V162H109.914L109.662 160.572H109.522C108.832 161.151 108.15 161.58 107.478 161.86C106.806 162.14 106.088 162.28 105.322 162.28ZM102.326 155.896C102.326 157.016 102.522 157.931 102.914 158.64C103.306 159.349 103.82 159.881 104.454 160.236C105.108 160.572 105.808 160.74 106.554 160.74C107.077 160.74 107.6 160.656 108.122 160.488C108.664 160.301 109.168 160.031 109.634 159.676V151.332C109.13 150.977 108.636 150.707 108.15 150.52C107.665 150.333 107.124 150.24 106.526 150.24C105.78 150.24 105.08 150.427 104.426 150.8C103.792 151.173 103.278 151.78 102.886 152.62C102.513 153.441 102.326 154.533 102.326 155.896ZM121.222 162.28C120.12 162.28 119.206 161.981 118.478 161.384C117.768 160.787 117.414 159.919 117.414 158.78V150.548L115.566 149.848V149.4H119.318V157.688C119.318 158.64 119.588 159.368 120.13 159.872C120.671 160.357 121.38 160.6 122.258 160.6C122.78 160.6 123.34 160.497 123.938 160.292C124.554 160.087 125.048 159.779 125.422 159.368V150.548L123.322 149.848V149.4H127.326V160.88L129.314 161.552V162H125.422V160.264H125.31C124.6 160.973 123.928 161.487 123.294 161.804C122.659 162.121 121.968 162.28 121.222 162.28ZM131.689 162V161.552L133.453 160.852V143.436L131.633 142.344V142.064L135.133 141H135.357V160.852L137.205 161.552V162H131.689ZM143.031 162.28C142.154 162.28 141.426 162.028 140.847 161.524C140.269 161.001 139.979 160.283 139.979 159.368C139.979 158.453 140.315 157.679 140.987 157.044C141.659 156.409 142.77 155.905 144.319 155.532L147.035 154.86V152.704C147.035 151.995 146.755 151.407 146.195 150.94C145.654 150.473 145.047 150.24 144.375 150.24C143.629 150.24 143.106 150.417 142.807 150.772C142.509 151.127 142.359 151.612 142.359 152.228V153.152L142.219 153.292H141.043C140.763 153.292 140.567 153.255 140.455 153.18C140.362 153.087 140.315 152.881 140.315 152.564C140.315 152.172 140.437 151.771 140.679 151.36C140.922 150.949 141.286 150.595 141.771 150.296C142.294 149.96 142.826 149.68 143.367 149.456C143.927 149.232 144.487 149.12 145.047 149.12C145.757 149.12 146.401 149.223 146.979 149.428C147.558 149.615 148.025 149.932 148.379 150.38C148.734 150.828 148.911 151.425 148.911 152.172V160.432C149.061 160.581 149.247 160.693 149.471 160.768C149.695 160.843 149.985 160.88 150.339 160.88H151.571L151.627 160.936V160.992C151.441 161.309 151.151 161.608 150.759 161.888C150.386 162.149 149.91 162.28 149.331 162.28C148.734 162.28 148.258 162.121 147.903 161.804C147.549 161.487 147.306 161.085 147.175 160.6H147.035C146.55 161.085 145.953 161.487 145.243 161.804C144.553 162.121 143.815 162.28 143.031 162.28ZM141.855 158.836C141.855 159.489 142.051 159.984 142.443 160.32C142.835 160.637 143.386 160.796 144.095 160.796C144.562 160.796 145.038 160.74 145.523 160.628C146.009 160.516 146.513 160.329 147.035 160.068V155.672C145.523 155.971 144.394 156.279 143.647 156.596C142.919 156.913 142.434 157.259 142.191 157.632C141.967 157.987 141.855 158.388 141.855 158.836ZM153.717 162V161.552L155.481 160.852V151.556L153.661 150.604V150.296L156.937 149.12H157.161L157.357 151.556H157.441C158.001 150.828 158.468 150.296 158.841 149.96C159.233 149.605 159.588 149.381 159.905 149.288C160.222 149.176 160.54 149.12 160.857 149.12C161.006 149.12 161.174 149.148 161.361 149.204C161.548 149.241 161.697 149.288 161.809 149.344C162.014 149.419 162.182 149.512 162.313 149.624C162.444 149.736 162.509 149.857 162.509 149.988C162.509 150.044 162.5 150.109 162.481 150.184C162.481 150.259 162.462 150.333 162.425 150.408L161.977 151.528H161.837L160.997 151.164C160.661 151.033 160.288 150.968 159.877 150.968C159.41 150.968 158.972 151.089 158.561 151.332C158.15 151.575 157.758 151.976 157.385 152.536V160.852L159.429 161.552V162H153.717ZM177.68 162.28C176.486 162.28 175.44 161.991 174.544 161.412C173.648 160.833 172.948 160.049 172.444 159.06C171.94 158.071 171.688 156.951 171.688 155.7C171.688 154.449 171.94 153.329 172.444 152.34C172.948 151.351 173.648 150.567 174.544 149.988C175.44 149.409 176.486 149.12 177.68 149.12C178.875 149.12 179.92 149.409 180.816 149.988C181.712 150.567 182.412 151.351 182.916 152.34C183.42 153.329 183.672 154.449 183.672 155.7C183.672 156.951 183.42 158.071 182.916 159.06C182.412 160.049 181.712 160.833 180.816 161.412C179.92 161.991 178.875 162.28 177.68 162.28ZM178.072 161.3C178.856 161.3 179.51 161.057 180.032 160.572C180.555 160.087 180.947 159.461 181.208 158.696C181.47 157.912 181.6 157.1 181.6 156.26C181.6 155.196 181.442 154.197 181.124 153.264C180.826 152.312 180.359 151.547 179.724 150.968C179.108 150.371 178.315 150.072 177.344 150.072C176.56 150.072 175.898 150.305 175.356 150.772C174.834 151.239 174.432 151.855 174.152 152.62C173.891 153.385 173.76 154.216 173.76 155.112C173.76 156.195 173.919 157.212 174.236 158.164C174.554 159.097 175.03 159.853 175.664 160.432C176.299 161.011 177.102 161.3 178.072 161.3ZM186.761 168.44V167.992L188.525 167.292V151.556L186.705 150.604V150.296L189.981 149.12H190.205L190.373 150.828H190.541C191.251 150.231 191.932 149.801 192.585 149.54C193.257 149.26 193.976 149.12 194.741 149.12C195.675 149.12 196.505 149.363 197.233 149.848C197.961 150.333 198.531 151.024 198.941 151.92C199.371 152.797 199.585 153.852 199.585 155.084C199.585 156.615 199.296 157.921 198.717 159.004C198.139 160.068 197.364 160.88 196.393 161.44C195.423 162 194.349 162.28 193.173 162.28C192.669 162.28 192.184 162.233 191.717 162.14C191.269 162.065 190.84 161.963 190.429 161.832V167.292L192.417 167.992V168.44H186.761ZM193.509 150.66C192.389 150.66 191.363 151.015 190.429 151.724V160.012C190.989 160.441 191.559 160.749 192.137 160.936C192.716 161.104 193.351 161.188 194.041 161.188C194.713 161.188 195.329 161.011 195.889 160.656C196.449 160.301 196.897 159.732 197.233 158.948C197.569 158.145 197.737 157.1 197.737 155.812C197.737 154.617 197.541 153.647 197.149 152.9C196.757 152.135 196.235 151.575 195.581 151.22C194.947 150.847 194.256 150.66 193.509 150.66ZM206.855 162.28C206.052 162.28 205.371 162.037 204.811 161.552C204.269 161.067 203.999 160.385 203.999 159.508V150.576H201.647V150.352L204.139 149.4L205.679 146.32H205.903V149.4H209.599V150.576H205.903V159.2C205.903 159.723 206.099 160.115 206.491 160.376C206.883 160.619 207.377 160.74 207.975 160.74C208.348 160.74 208.693 160.712 209.011 160.656C209.328 160.581 209.617 160.497 209.879 160.404L209.935 160.432V160.628C209.748 161.001 209.393 161.375 208.871 161.748C208.367 162.103 207.695 162.28 206.855 162.28ZM215.108 145.312C214.697 145.312 214.352 145.181 214.072 144.92C213.81 144.64 213.68 144.295 213.68 143.884C213.68 143.455 213.81 143.109 214.072 142.848C214.352 142.587 214.697 142.456 215.108 142.456C215.537 142.456 215.882 142.587 216.144 142.848C216.405 143.109 216.536 143.455 216.536 143.884C216.536 144.295 216.405 144.64 216.144 144.92C215.882 145.181 215.537 145.312 215.108 145.312ZM212.616 162V161.552L214.38 160.852V151.556L212.56 150.464V150.184L216.06 149.12H216.284V160.852L218.132 161.552V162H212.616ZM221.229 162V161.552L222.993 160.852V151.556L221.145 150.604V150.296L224.449 149.12H224.645L224.841 151.164H224.981C225.653 150.473 226.288 149.96 226.885 149.624C227.501 149.288 228.182 149.12 228.929 149.12C229.769 149.12 230.497 149.307 231.113 149.68C231.748 150.053 232.177 150.613 232.401 151.36H232.485C233.232 150.595 233.922 150.035 234.557 149.68C235.21 149.307 235.929 149.12 236.713 149.12C237.796 149.12 238.682 149.419 239.373 150.016C240.082 150.613 240.437 151.481 240.437 152.62V160.852L242.201 161.552V162H236.545V161.552L238.533 160.852V153.712C238.533 152.76 238.262 152.041 237.721 151.556C237.198 151.052 236.526 150.8 235.705 150.8C235.126 150.8 234.548 150.912 233.969 151.136C233.409 151.341 232.942 151.649 232.569 152.06C232.588 152.228 232.597 152.415 232.597 152.62V160.852L234.473 161.552V162H228.789V161.552L230.721 160.852V153.712C230.721 152.76 230.46 152.041 229.937 151.556C229.414 151.052 228.742 150.8 227.921 150.8C227.436 150.8 226.894 150.912 226.297 151.136C225.718 151.341 225.242 151.64 224.869 152.032V160.852L226.773 161.552V162H221.229ZM247.466 145.312C247.055 145.312 246.71 145.181 246.43 144.92C246.168 144.64 246.038 144.295 246.038 143.884C246.038 143.455 246.168 143.109 246.43 142.848C246.71 142.587 247.055 142.456 247.466 142.456C247.895 142.456 248.24 142.587 248.502 142.848C248.763 143.109 248.894 143.455 248.894 143.884C248.894 144.295 248.763 144.64 248.502 144.92C248.24 145.181 247.895 145.312 247.466 145.312ZM244.974 162V161.552L246.738 160.852V151.556L244.918 150.464V150.184L248.418 149.12H248.642V160.852L250.49 161.552V162H244.974ZM254.038 162V161.496L260.506 150.408H255.69L254.458 153.208H254.01L254.318 149.148H254.458C254.682 149.185 254.952 149.241 255.27 149.316C255.606 149.372 255.886 149.4 256.11 149.4H262.914V149.904L256.446 160.992H261.71L262.662 158.108H263.138V162H254.038ZM269.822 162.28C268.945 162.28 268.217 162.028 267.638 161.524C267.059 161.001 266.77 160.283 266.77 159.368C266.77 158.453 267.106 157.679 267.778 157.044C268.45 156.409 269.561 155.905 271.11 155.532L273.826 154.86V152.704C273.826 151.995 273.546 151.407 272.986 150.94C272.445 150.473 271.838 150.24 271.166 150.24C270.419 150.24 269.897 150.417 269.598 150.772C269.299 151.127 269.15 151.612 269.15 152.228V153.152L269.01 153.292H267.834C267.554 153.292 267.358 153.255 267.246 153.18C267.153 153.087 267.106 152.881 267.106 152.564C267.106 152.172 267.227 151.771 267.47 151.36C267.713 150.949 268.077 150.595 268.562 150.296C269.085 149.96 269.617 149.68 270.158 149.456C270.718 149.232 271.278 149.12 271.838 149.12C272.547 149.12 273.191 149.223 273.77 149.428C274.349 149.615 274.815 149.932 275.17 150.38C275.525 150.828 275.702 151.425 275.702 152.172V160.432C275.851 160.581 276.038 160.693 276.262 160.768C276.486 160.843 276.775 160.88 277.13 160.88H278.362L278.418 160.936V160.992C278.231 161.309 277.942 161.608 277.55 161.888C277.177 162.149 276.701 162.28 276.122 162.28C275.525 162.28 275.049 162.121 274.694 161.804C274.339 161.487 274.097 161.085 273.966 160.6H273.826C273.341 161.085 272.743 161.487 272.034 161.804C271.343 162.121 270.606 162.28 269.822 162.28ZM268.646 158.836C268.646 159.489 268.842 159.984 269.234 160.32C269.626 160.637 270.177 160.796 270.886 160.796C271.353 160.796 271.829 160.74 272.314 160.628C272.799 160.516 273.303 160.329 273.826 160.068V155.672C272.314 155.971 271.185 156.279 270.438 156.596C269.71 156.913 269.225 157.259 268.982 157.632C268.758 157.987 268.646 158.388 268.646 158.836ZM284.652 162.28C283.849 162.28 283.168 162.037 282.608 161.552C282.066 161.067 281.796 160.385 281.796 159.508V150.576H279.444V150.352L281.936 149.4L283.476 146.32H283.7V149.4H287.396V150.576H283.7V159.2C283.7 159.723 283.896 160.115 284.288 160.376C284.68 160.619 285.174 160.74 285.772 160.74C286.145 160.74 286.49 160.712 286.808 160.656C287.125 160.581 287.414 160.497 287.676 160.404L287.732 160.432V160.628C287.545 161.001 287.19 161.375 286.668 161.748C286.164 162.103 285.492 162.28 284.652 162.28ZM292.905 145.312C292.494 145.312 292.149 145.181 291.869 144.92C291.607 144.64 291.477 144.295 291.477 143.884C291.477 143.455 291.607 143.109 291.869 142.848C292.149 142.587 292.494 142.456 292.905 142.456C293.334 142.456 293.679 142.587 293.941 142.848C294.202 143.109 294.333 143.455 294.333 143.884C294.333 144.295 294.202 144.64 293.941 144.92C293.679 145.181 293.334 145.312 292.905 145.312ZM290.413 162V161.552L292.177 160.852V151.556L290.357 150.464V150.184L293.857 149.12H294.081V160.852L295.929 161.552V162H290.413ZM305.018 162.28C303.823 162.28 302.778 161.991 301.882 161.412C300.986 160.833 300.286 160.049 299.782 159.06C299.278 158.071 299.026 156.951 299.026 155.7C299.026 154.449 299.278 153.329 299.782 152.34C300.286 151.351 300.986 150.567 301.882 149.988C302.778 149.409 303.823 149.12 305.018 149.12C306.213 149.12 307.258 149.409 308.154 149.988C309.05 150.567 309.75 151.351 310.254 152.34C310.758 153.329 311.01 154.449 311.01 155.7C311.01 156.951 310.758 158.071 310.254 159.06C309.75 160.049 309.05 160.833 308.154 161.412C307.258 161.991 306.213 162.28 305.018 162.28ZM305.41 161.3C306.194 161.3 306.847 161.057 307.37 160.572C307.893 160.087 308.285 159.461 308.546 158.696C308.807 157.912 308.938 157.1 308.938 156.26C308.938 155.196 308.779 154.197 308.462 153.264C308.163 152.312 307.697 151.547 307.062 150.968C306.446 150.371 305.653 150.072 304.682 150.072C303.898 150.072 303.235 150.305 302.694 150.772C302.171 151.239 301.77 151.855 301.49 152.62C301.229 153.385 301.098 154.216 301.098 155.112C301.098 156.195 301.257 157.212 301.574 158.164C301.891 159.097 302.367 159.853 303.002 160.432C303.637 161.011 304.439 161.3 305.41 161.3ZM314.099 162V161.552L315.863 160.852V151.556L314.043 150.604V150.296L317.319 149.12H317.543L317.739 151.164H317.851C318.56 150.473 319.232 149.96 319.867 149.624C320.52 149.288 321.239 149.12 322.023 149.12C323.143 149.12 324.067 149.419 324.795 150.016C325.523 150.613 325.887 151.481 325.887 152.62V160.852L327.651 161.552V162H321.995V161.552L323.983 160.852V153.712C323.983 152.76 323.703 152.041 323.143 151.556C322.583 151.052 321.864 150.8 320.987 150.8C320.464 150.8 319.886 150.912 319.251 151.136C318.635 151.341 318.14 151.64 317.767 152.032V160.852L319.755 161.552V162H314.099ZM334.545 162.28C333.761 162.28 333.07 162.205 332.473 162.056C331.894 161.907 331.306 161.683 330.709 161.384V158.332H331.073L331.773 159.76C332.016 160.283 332.361 160.693 332.809 160.992C333.276 161.272 333.873 161.412 334.601 161.412C335.422 161.412 336.048 161.225 336.477 160.852C336.925 160.46 337.149 159.909 337.149 159.2C337.149 158.435 336.897 157.865 336.393 157.492C335.889 157.119 335.142 156.717 334.153 156.288C333.126 155.859 332.352 155.383 331.829 154.86C331.306 154.337 331.045 153.6 331.045 152.648C331.045 152.013 331.222 151.425 331.577 150.884C331.95 150.343 332.426 149.913 333.005 149.596C333.584 149.279 334.19 149.12 334.825 149.12C335.534 149.12 336.169 149.204 336.729 149.372C337.289 149.54 337.821 149.755 338.325 150.016V152.984H337.961L337.261 151.612C337.018 151.033 336.673 150.623 336.225 150.38C335.796 150.137 335.348 150.016 334.881 150.016C334.209 150.016 333.677 150.203 333.285 150.576C332.912 150.931 332.725 151.416 332.725 152.032C332.725 152.667 332.94 153.171 333.369 153.544C333.817 153.899 334.489 154.272 335.385 154.664C336.02 154.944 336.598 155.233 337.121 155.532C337.644 155.812 338.054 156.185 338.353 156.652C338.67 157.119 338.829 157.763 338.829 158.584C338.829 159.331 338.624 159.984 338.213 160.544C337.802 161.085 337.27 161.515 336.617 161.832C335.964 162.131 335.273 162.28 334.545 162.28Z" fill="#FAFAFA"/>
</svg>
