<svg width="112" height="112" viewBox="0 0 112 112" fill="none" xmlns="http://www.w3.org/2000/svg">
<g filter="url(#filter0_d_991_180)">
<rect x="4" width="104" height="104" rx="16" fill="white"/>
<path d="M28.5476 72.274C27.6799 72.274 26.9492 71.9772 26.3556 71.3835C25.7619 70.7442 25.4651 70.0135 25.4651 69.1915C25.4651 68.3695 25.7619 67.6617 26.3556 67.068C26.9492 66.4287 27.6799 66.109 28.5476 66.109C29.4152 66.109 30.1459 66.4287 30.7396 67.068C31.3332 67.6617 31.6301 68.3695 31.6301 69.1915C31.6301 70.0135 31.3332 70.7442 30.7396 71.3835C30.1459 71.9772 29.4152 72.274 28.5476 72.274ZM28.5476 46.655C27.6799 46.655 26.9492 46.3582 26.3556 45.7645C25.7619 45.1252 25.4651 44.3945 25.4651 43.5725C25.4651 42.7505 25.7619 42.0427 26.3556 41.449C26.9492 40.8097 27.6799 40.49 28.5476 40.49C29.4152 40.49 30.1459 40.8097 30.7396 41.449C31.3332 42.0427 31.6301 42.7505 31.6301 43.5725C31.6301 44.3945 31.3332 45.1252 30.7396 45.7645C30.1459 46.3582 29.4152 46.655 28.5476 46.655ZM40.3825 72V70.9725L44.698 69.808V43.504H38.67V41.175H44.698V38.435C44.698 36.6083 44.9949 34.6675 45.5885 32.6125C46.2279 30.5575 47.1412 28.6167 48.3285 26.79C49.5615 24.9633 51.0914 23.4792 52.918 22.3375C54.7447 21.1958 56.8682 20.625 59.2885 20.625C59.8822 20.625 60.4074 20.7163 60.864 20.899C61.5947 21.2187 61.96 21.584 61.96 21.995C61.96 22.269 61.8915 22.5658 61.7545 22.8855L61.001 24.735H60.864L59.4255 24.2555C58.0099 23.7988 56.6399 23.5705 55.3155 23.5705C52.9865 23.5705 51.2055 24.5295 49.9725 26.4475C48.7395 28.3655 48.123 31.448 48.123 35.695V41.175H57.165V43.504H48.123V69.808L53.3975 70.9725V72H40.3825ZM76.6929 72.685C73.4962 72.685 70.8019 72 68.6099 70.63C66.4636 69.26 64.8196 67.4105 63.6779 65.0815C62.5819 62.7525 62.0339 60.1267 62.0339 57.204C62.0339 54.0073 62.6732 51.1532 63.9519 48.6415C65.2762 46.0842 67.0801 44.0977 69.3634 42.682C71.6924 41.2207 74.3182 40.49 77.2409 40.49C79.0676 40.49 80.6887 40.7412 82.1044 41.2435C83.5201 41.7458 84.6617 42.2938 85.5294 42.8875C86.9907 43.8922 87.7214 44.7598 87.7214 45.4905C87.7214 45.8102 87.5616 46.107 87.2419 46.381L85.3924 47.9565H85.1184L84.2279 46.7235C83.2232 45.3535 82.1272 44.2347 80.9399 43.367C79.7982 42.4537 78.3141 41.997 76.4874 41.997C73.2907 41.997 70.6421 43.2072 68.5414 45.6275C66.4864 48.0022 65.4589 51.5642 65.4589 56.3135C65.4589 60.3322 66.5092 63.5973 68.6099 66.109C70.7562 68.575 73.7702 69.808 77.6519 69.808C79.7526 69.808 81.6934 69.4883 83.4744 68.849C85.2554 68.2097 86.6482 67.342 87.6529 66.246H87.8584V67.1365C86.8081 68.7348 85.3239 70.0592 83.4059 71.1095C81.4879 72.1598 79.2502 72.685 76.6929 72.685Z" fill="#1E1B16"/>
</g>
<defs>
<filter id="filter0_d_991_180" x="0" y="0" width="112" height="112" filterUnits="userSpaceOnUse" color-interpolation-filters="sRGB">
<feFlood flood-opacity="0" result="BackgroundImageFix"/>
<feColorMatrix in="SourceAlpha" type="matrix" values="0 0 0 0 0 0 0 0 0 0 0 0 0 0 0 0 0 0 127 0" result="hardAlpha"/>
<feOffset dy="4"/>
<feGaussianBlur stdDeviation="2"/>
<feComposite in2="hardAlpha" operator="out"/>
<feColorMatrix type="matrix" values="0 0 0 0 0 0 0 0 0 0 0 0 0 0 0 0 0 0 0.25 0"/>
<feBlend mode="normal" in2="BackgroundImageFix" result="effect1_dropShadow_991_180"/>
<feBlend mode="normal" in="SourceGraphic" in2="effect1_dropShadow_991_180" result="shape"/>
</filter>
</defs>
</svg>
