<svg width="744" height="304" viewBox="0 0 744 304" fill="none" xmlns="http://www.w3.org/2000/svg">
<g filter="url(#filter0_d_839_170)">
<rect x="4" width="736" height="296" rx="16" fill="white"/>
</g>
<path d="M298.009 203.736C295.678 203.736 293.716 202.939 292.121 201.344C290.526 199.627 289.729 197.664 289.729 195.456C289.729 193.248 290.526 191.347 292.121 189.752C293.716 188.035 295.678 187.176 298.009 187.176C300.34 187.176 302.302 188.035 303.897 189.752C305.492 191.347 306.289 193.248 306.289 195.456C306.289 197.664 305.492 199.627 303.897 201.344C302.302 202.939 300.34 203.736 298.009 203.736ZM298.009 134.92C295.678 134.92 293.716 134.123 292.121 132.528C290.526 130.811 289.729 128.848 289.729 126.64C289.729 124.432 290.526 122.531 292.121 120.936C293.716 119.219 295.678 118.36 298.009 118.36C300.34 118.36 302.302 119.219 303.897 120.936C305.492 122.531 306.289 124.432 306.289 126.64C306.289 128.848 305.492 130.811 303.897 132.528C302.302 134.123 300.34 134.92 298.009 134.92ZM329.799 203V200.24L341.391 197.112V126.456H325.199V120.2H341.391V112.84C341.391 107.933 342.189 102.72 343.783 97.2C345.501 91.68 347.954 86.4667 351.143 81.56C354.455 76.6533 358.565 72.6667 363.471 69.6C368.378 66.5333 374.082 65 380.583 65C382.178 65 383.589 65.2453 384.815 65.736C386.778 66.5947 387.759 67.576 387.759 68.68C387.759 69.416 387.575 70.2133 387.207 71.072L385.183 76.04H384.815L380.951 74.752C377.149 73.5253 373.469 72.912 369.911 72.912C363.655 72.912 358.871 75.488 355.559 80.64C352.247 85.792 350.591 94.072 350.591 105.48V120.2H374.879V126.456H350.591V197.112L364.759 200.24V203H329.799ZM427.334 204.84C418.747 204.84 411.51 203 405.622 199.32C399.856 195.64 395.44 190.672 392.374 184.416C389.43 178.16 387.958 171.107 387.958 163.256C387.958 154.669 389.675 147.003 393.11 140.256C396.667 133.387 401.512 128.051 407.646 124.248C413.902 120.323 420.955 118.36 428.806 118.36C433.712 118.36 438.067 119.035 441.87 120.384C445.672 121.733 448.739 123.205 451.07 124.8C454.995 127.499 456.958 129.829 456.958 131.792C456.958 132.651 456.528 133.448 455.67 134.184L450.702 138.416H449.966L447.574 135.104C444.875 131.424 441.931 128.419 438.742 126.088C435.675 123.635 431.688 122.408 426.782 122.408C418.195 122.408 411.08 125.659 405.438 132.16C399.918 138.539 397.158 148.107 397.158 160.864C397.158 171.659 399.979 180.429 405.622 187.176C411.387 193.8 419.483 197.112 429.91 197.112C435.552 197.112 440.766 196.253 445.55 194.536C450.334 192.819 454.075 190.488 456.774 187.544H457.326V189.936C454.504 194.229 450.518 197.787 445.366 200.608C440.214 203.429 434.203 204.84 427.334 204.84Z" fill="black"/>
<defs>
<filter id="filter0_d_839_170" x="0" y="0" width="744" height="304" filterUnits="userSpaceOnUse" color-interpolation-filters="sRGB">
<feFlood flood-opacity="0" result="BackgroundImageFix"/>
<feColorMatrix in="SourceAlpha" type="matrix" values="0 0 0 0 0 0 0 0 0 0 0 0 0 0 0 0 0 0 127 0" result="hardAlpha"/>
<feOffset dy="4"/>
<feGaussianBlur stdDeviation="2"/>
<feComposite in2="hardAlpha" operator="out"/>
<feColorMatrix type="matrix" values="0 0 0 0 0 0 0 0 0 0 0 0 0 0 0 0 0 0 0.25 0"/>
<feBlend mode="normal" in2="BackgroundImageFix" result="effect1_dropShadow_839_170"/>
<feBlend mode="normal" in="SourceGraphic" in2="effect1_dropShadow_839_170" result="shape"/>
</filter>
</defs>
</svg>
