<svg width="743" height="304" viewBox="0 0 743 304" fill="none" xmlns="http://www.w3.org/2000/svg">
<g filter="url(#filter0_d_839_170)">
<rect x="4" width="735" height="296" rx="16" fill="white"/>
</g>
<path d="M297.759 203.736C295.428 203.736 293.466 202.939 291.871 201.344C290.276 199.627 289.479 197.664 289.479 195.456C289.479 193.248 290.276 191.347 291.871 189.752C293.466 188.035 295.428 187.176 297.759 187.176C300.09 187.176 302.052 188.035 303.647 189.752C305.242 191.347 306.039 193.248 306.039 195.456C306.039 197.664 305.242 199.627 303.647 201.344C302.052 202.939 300.09 203.736 297.759 203.736ZM297.759 134.92C295.428 134.92 293.466 134.123 291.871 132.528C290.276 130.811 289.479 128.848 289.479 126.64C289.479 124.432 290.276 122.531 291.871 120.936C293.466 119.219 295.428 118.36 297.759 118.36C300.09 118.36 302.052 119.219 303.647 120.936C305.242 122.531 306.039 124.432 306.039 126.64C306.039 128.848 305.242 130.811 303.647 132.528C302.052 134.123 300.09 134.92 297.759 134.92ZM329.549 203V200.24L341.141 197.112V126.456H324.949V120.2H341.141V112.84C341.141 107.933 341.939 102.72 343.533 97.2C345.251 91.68 347.704 86.4667 350.893 81.56C354.205 76.6533 358.315 72.6667 363.221 69.6C368.128 66.5333 373.832 65 380.333 65C381.928 65 383.339 65.2453 384.565 65.736C386.528 66.5947 387.509 67.576 387.509 68.68C387.509 69.416 387.325 70.2133 386.957 71.072L384.933 76.04H384.565L380.701 74.752C376.899 73.5253 373.219 72.912 369.661 72.912C363.405 72.912 358.621 75.488 355.309 80.64C351.997 85.792 350.341 94.072 350.341 105.48V120.2H374.629V126.456H350.341V197.112L364.509 200.24V203H329.549ZM427.084 204.84C418.497 204.84 411.26 203 405.372 199.32C399.606 195.64 395.19 190.672 392.124 184.416C389.18 178.16 387.708 171.107 387.708 163.256C387.708 154.669 389.425 147.003 392.86 140.256C396.417 133.387 401.262 128.051 407.396 124.248C413.652 120.323 420.705 118.36 428.556 118.36C433.462 118.36 437.817 119.035 441.62 120.384C445.422 121.733 448.489 123.205 450.82 124.8C454.745 127.499 456.708 129.829 456.708 131.792C456.708 132.651 456.278 133.448 455.42 134.184L450.452 138.416H449.716L447.324 135.104C444.625 131.424 441.681 128.419 438.492 126.088C435.425 123.635 431.438 122.408 426.532 122.408C417.945 122.408 410.83 125.659 405.188 132.16C399.668 138.539 396.908 148.107 396.908 160.864C396.908 171.659 399.729 180.429 405.372 187.176C411.137 193.8 419.233 197.112 429.66 197.112C435.302 197.112 440.516 196.253 445.3 194.536C450.084 192.819 453.825 190.488 456.524 187.544H457.076V189.936C454.254 194.229 450.268 197.787 445.116 200.608C439.964 203.429 433.953 204.84 427.084 204.84Z" fill="black"/>
<defs>
<filter id="filter0_d_839_170" x="0" y="0" width="743" height="304" filterUnits="userSpaceOnUse" color-interpolation-filters="sRGB">
<feFlood flood-opacity="0" result="BackgroundImageFix"/>
<feColorMatrix in="SourceAlpha" type="matrix" values="0 0 0 0 0 0 0 0 0 0 0 0 0 0 0 0 0 0 127 0" result="hardAlpha"/>
<feOffset dy="4"/>
<feGaussianBlur stdDeviation="2"/>
<feComposite in2="hardAlpha" operator="out"/>
<feColorMatrix type="matrix" values="0 0 0 0 0 0 0 0 0 0 0 0 0 0 0 0 0 0 0.25 0"/>
<feBlend mode="normal" in2="BackgroundImageFix" result="effect1_dropShadow_839_170"/>
<feBlend mode="normal" in="SourceGraphic" in2="effect1_dropShadow_839_170" result="shape"/>
</filter>
</defs>
</svg>
