<svg width="1480" height="600" viewBox="0 0 1480 600" fill="none" xmlns="http://www.w3.org/2000/svg">
<g filter="url(#filter0_d_883_186)">
<rect x="4" width="1472" height="592" rx="16" fill="white"/>
</g>
<path d="M584.102 413.556C579.175 413.556 575.026 411.87 571.654 408.499C568.283 404.868 566.597 400.719 566.597 396.051C566.597 391.383 568.283 387.363 571.654 383.992C575.026 380.361 579.175 378.546 584.102 378.546C589.03 378.546 593.179 380.361 596.55 383.992C599.922 387.363 601.607 391.383 601.607 396.051C601.607 400.719 599.922 404.868 596.55 408.499C593.179 411.87 589.03 413.556 584.102 413.556ZM584.102 268.07C579.175 268.07 575.026 266.384 571.654 263.013C568.283 259.382 566.597 255.233 566.597 250.565C566.597 245.897 568.283 241.877 571.654 238.506C575.026 234.875 579.175 233.06 584.102 233.06C589.03 233.06 593.179 234.875 596.55 238.506C599.922 241.877 601.607 245.897 601.607 250.565C601.607 255.233 599.922 259.382 596.55 263.013C593.179 266.384 589.03 268.07 584.102 268.07ZM651.311 412V406.165L675.818 399.552V250.176H641.586V236.95H675.818V221.39C675.818 211.017 677.504 199.995 680.875 188.325C684.506 176.655 689.692 165.633 696.435 155.26C703.437 144.887 712.125 136.458 722.498 129.975C732.871 123.492 744.93 120.25 758.675 120.25C762.046 120.25 765.029 120.769 767.622 121.806C771.771 123.621 773.846 125.696 773.846 128.03C773.846 129.586 773.457 131.272 772.679 133.087L768.4 143.59H767.622L759.453 140.867C751.414 138.274 743.634 136.977 736.113 136.977C722.887 136.977 712.773 142.423 705.771 153.315C698.769 164.207 695.268 181.712 695.268 205.83V236.95H746.616V250.176H695.268V399.552L725.221 406.165V412H651.311ZM857.511 415.89C839.358 415.89 824.057 412 811.609 404.22C799.421 396.44 790.085 385.937 783.601 372.711C777.377 359.485 774.265 344.573 774.265 327.976C774.265 309.823 777.896 293.614 785.157 279.351C792.678 264.828 802.922 253.547 815.888 245.508C829.114 237.209 844.026 233.06 860.623 233.06C870.997 233.06 880.203 234.486 888.242 237.339C896.282 240.192 902.765 243.304 907.692 246.675C915.991 252.38 920.14 257.308 920.14 261.457C920.14 263.272 919.233 264.958 917.417 266.514L906.914 275.461H905.358L900.301 268.459C894.596 260.679 888.372 254.325 881.629 249.398C875.146 244.211 866.718 241.618 856.344 241.618C838.191 241.618 823.15 248.49 811.22 262.235C799.55 275.72 793.715 295.948 793.715 322.919C793.715 345.74 799.68 364.283 811.609 378.546C823.798 392.55 840.914 399.552 862.957 399.552C874.887 399.552 885.908 397.737 896.022 394.106C906.136 390.475 914.046 385.548 919.751 379.324H920.918V384.381C914.954 393.458 906.525 400.978 895.633 406.943C884.741 412.908 872.034 415.89 857.511 415.89Z" fill="black"/>
<defs>
<filter id="filter0_d_883_186" x="0" y="0" width="1480" height="600" filterUnits="userSpaceOnUse" color-interpolation-filters="sRGB">
<feFlood flood-opacity="0" result="BackgroundImageFix"/>
<feColorMatrix in="SourceAlpha" type="matrix" values="0 0 0 0 0 0 0 0 0 0 0 0 0 0 0 0 0 0 127 0" result="hardAlpha"/>
<feOffset dy="4"/>
<feGaussianBlur stdDeviation="2"/>
<feComposite in2="hardAlpha" operator="out"/>
<feColorMatrix type="matrix" values="0 0 0 0 0 0 0 0 0 0 0 0 0 0 0 0 0 0 0.25 0"/>
<feBlend mode="normal" in2="BackgroundImageFix" result="effect1_dropShadow_883_186"/>
<feBlend mode="normal" in="SourceGraphic" in2="effect1_dropShadow_883_186" result="shape"/>
</filter>
</defs>
</svg>
