<svg width="400" height="264" viewBox="0 0 400 264" fill="none" xmlns="http://www.w3.org/2000/svg">
<rect width="400" height="264" rx="16" fill="#C9B0A1"/>
<path d="M81.0523 61.4H92.9243V63.584H83.4043V70.08H92.7563V72.264H83.4043V78.816H93.0923V81H81.0523V61.4ZM108.109 67.112H110.601L106.513 73.72V74.056L110.937 81H108.389L104.609 74.896H104.105L100.325 81H97.7768L102.201 74.056V73.72L98.1128 67.112H100.605L104.105 72.88H104.609L108.109 67.112ZM117.189 74.728C117.245 76.1093 117.675 77.22 118.477 78.06C119.28 78.9 120.4 79.32 121.837 79.32C122.491 79.32 123.06 79.2453 123.545 79.096C124.031 78.9467 124.441 78.7413 124.777 78.48C125.132 78.2187 125.412 77.92 125.617 77.584C125.841 77.2293 126.019 76.856 126.149 76.464L128.221 77.024C127.829 78.312 127.101 79.3667 126.037 80.188C124.992 80.9907 123.573 81.392 121.781 81.392C120.792 81.392 119.877 81.224 119.037 80.888C118.216 80.5333 117.507 80.0387 116.909 79.404C116.312 78.7693 115.845 78.0133 115.509 77.136C115.173 76.2587 115.005 75.288 115.005 74.224V73.552C115.005 72.5813 115.173 71.676 115.509 70.836C115.864 69.996 116.349 69.2773 116.965 68.68C117.581 68.064 118.3 67.588 119.121 67.252C119.961 66.8973 120.867 66.72 121.837 66.72C122.976 66.72 123.956 66.9347 124.777 67.364C125.617 67.7747 126.299 68.288 126.821 68.904C127.363 69.52 127.755 70.192 127.997 70.92C128.259 71.648 128.389 72.32 128.389 72.936V74.728H117.189ZM121.837 68.792C121.221 68.792 120.643 68.8947 120.101 69.1C119.579 69.2867 119.112 69.5573 118.701 69.912C118.309 70.2667 117.983 70.6867 117.721 71.172C117.479 71.6387 117.32 72.152 117.245 72.712H126.205C126.168 72.1147 126.019 71.5733 125.757 71.088C125.515 70.6027 125.188 70.192 124.777 69.856C124.385 69.52 123.928 69.2587 123.405 69.072C122.901 68.8853 122.379 68.792 121.837 68.792ZM132.178 67.112H137.218V68.96H137.554C137.909 68.1947 138.413 67.6347 139.066 67.28C139.719 66.9067 140.466 66.72 141.306 66.72C142.706 66.72 143.835 67.1773 144.694 68.092C145.553 69.0067 146.01 70.3413 146.066 72.096L143.77 72.432C143.77 71.144 143.462 70.22 142.846 69.66C142.23 69.0813 141.474 68.792 140.578 68.792C139.999 68.792 139.495 68.904 139.066 69.128C138.655 69.352 138.31 69.66 138.03 70.052C137.75 70.444 137.545 70.9013 137.414 71.424C137.283 71.9467 137.218 72.5067 137.218 73.104V78.984H140.746V81H131.842V78.984H135.034V69.128H132.178V67.112ZM163.322 76.072C163.173 76.8373 162.912 77.5467 162.538 78.2C162.184 78.8533 161.726 79.4227 161.166 79.908C160.606 80.3747 159.953 80.7387 159.206 81C158.46 81.2613 157.629 81.392 156.714 81.392C155.744 81.392 154.82 81.2333 153.942 80.916C153.084 80.5987 152.328 80.1413 151.674 79.544C151.021 78.928 150.498 78.1813 150.106 77.304C149.733 76.4267 149.546 75.4187 149.546 74.28V73.944C149.546 72.824 149.733 71.816 150.106 70.92C150.498 70.024 151.021 69.268 151.674 68.652C152.328 68.036 153.084 67.56 153.942 67.224C154.82 66.888 155.744 66.72 156.714 66.72C157.592 66.72 158.404 66.8507 159.15 67.112C159.897 67.3733 160.55 67.7467 161.11 68.232C161.689 68.6987 162.156 69.2587 162.51 69.912C162.884 70.5653 163.136 71.2747 163.266 72.04L161.082 72.544C161.026 72.0587 160.886 71.592 160.662 71.144C160.457 70.6773 160.168 70.276 159.794 69.94C159.44 69.5853 159.001 69.3053 158.478 69.1C157.956 68.8947 157.349 68.792 156.658 68.792C155.986 68.792 155.352 68.9227 154.754 69.184C154.176 69.4267 153.662 69.7813 153.214 70.248C152.766 70.696 152.412 71.2373 152.15 71.872C151.908 72.5067 151.786 73.1973 151.786 73.944V74.28C151.786 75.064 151.908 75.7733 152.15 76.408C152.412 77.024 152.766 77.5467 153.214 77.976C153.662 78.4053 154.185 78.7413 154.782 78.984C155.38 79.208 156.024 79.32 156.714 79.32C157.405 79.32 158.002 79.2173 158.506 79.012C159.029 78.788 159.468 78.508 159.822 78.172C160.196 77.8173 160.485 77.416 160.69 76.968C160.914 76.52 161.064 76.0533 161.138 75.568L163.322 76.072ZM172.011 62.968C172.011 62.4267 172.198 61.9693 172.571 61.596C172.963 61.204 173.43 61.008 173.971 61.008C174.512 61.008 174.97 61.204 175.343 61.596C175.735 61.9693 175.931 62.4267 175.931 62.968C175.931 63.5093 175.735 63.976 175.343 64.368C174.97 64.7413 174.512 64.928 173.971 64.928C173.43 64.928 172.963 64.7413 172.571 64.368C172.198 63.976 172.011 63.5093 172.011 62.968ZM168.035 78.984H172.907V69.128H168.539V67.112H175.091V78.984H179.627V81H168.035V78.984ZM187.951 70.696C187.951 71.368 188.231 71.8813 188.791 72.236C189.37 72.5907 190.415 72.824 191.927 72.936C193.551 73.0667 194.783 73.4587 195.623 74.112C196.482 74.7467 196.911 75.68 196.911 76.912V77.08C196.911 77.752 196.771 78.3587 196.491 78.9C196.23 79.4227 195.857 79.8707 195.371 80.244C194.905 80.6173 194.326 80.8973 193.635 81.084C192.963 81.2893 192.226 81.392 191.423 81.392C190.341 81.392 189.407 81.252 188.623 80.972C187.858 80.6733 187.214 80.2907 186.691 79.824C186.187 79.3387 185.805 78.7973 185.543 78.2C185.282 77.584 185.133 76.968 185.095 76.352L187.167 75.848C187.261 76.912 187.671 77.7707 188.399 78.424C189.127 79.0587 190.098 79.376 191.311 79.376C192.338 79.376 193.159 79.18 193.775 78.788C194.41 78.3773 194.727 77.808 194.727 77.08C194.727 76.296 194.419 75.736 193.803 75.4C193.187 75.064 192.189 74.8493 190.807 74.756C189.202 74.644 187.97 74.2707 187.111 73.636C186.253 73.0013 185.823 72.0773 185.823 70.864V70.696C185.823 70.0427 185.963 69.4733 186.243 68.988C186.523 68.484 186.897 68.064 187.363 67.728C187.849 67.392 188.39 67.14 188.987 66.972C189.585 66.804 190.21 66.72 190.863 66.72C191.778 66.72 192.581 66.8507 193.271 67.112C193.962 67.3547 194.541 67.6813 195.007 68.092C195.474 68.484 195.829 68.9413 196.071 69.464C196.333 69.9867 196.501 70.5093 196.575 71.032L194.503 71.536C194.41 70.64 194.046 69.94 193.411 69.436C192.795 68.932 191.983 68.68 190.975 68.68C190.583 68.68 190.201 68.7267 189.827 68.82C189.473 68.8947 189.155 69.016 188.875 69.184C188.595 69.352 188.371 69.5667 188.203 69.828C188.035 70.0707 187.951 70.36 187.951 70.696ZM204.032 74.728C204.088 76.1093 204.517 77.22 205.32 78.06C206.123 78.9 207.243 79.32 208.68 79.32C209.333 79.32 209.903 79.2453 210.388 79.096C210.873 78.9467 211.284 78.7413 211.62 78.48C211.975 78.2187 212.255 77.92 212.46 77.584C212.684 77.2293 212.861 76.856 212.992 76.464L215.064 77.024C214.672 78.312 213.944 79.3667 212.88 80.188C211.835 80.9907 210.416 81.392 208.624 81.392C207.635 81.392 206.72 81.224 205.88 80.888C205.059 80.5333 204.349 80.0387 203.752 79.404C203.155 78.7693 202.688 78.0133 202.352 77.136C202.016 76.2587 201.848 75.288 201.848 74.224V73.552C201.848 72.5813 202.016 71.676 202.352 70.836C202.707 69.996 203.192 69.2773 203.808 68.68C204.424 68.064 205.143 67.588 205.964 67.252C206.804 66.8973 207.709 66.72 208.68 66.72C209.819 66.72 210.799 66.9347 211.62 67.364C212.46 67.7747 213.141 68.288 213.664 68.904C214.205 69.52 214.597 70.192 214.84 70.92C215.101 71.648 215.232 72.32 215.232 72.936V74.728H204.032ZM208.68 68.792C208.064 68.792 207.485 68.8947 206.944 69.1C206.421 69.2867 205.955 69.5573 205.544 69.912C205.152 70.2667 204.825 70.6867 204.564 71.172C204.321 71.6387 204.163 72.152 204.088 72.712H213.048C213.011 72.1147 212.861 71.5733 212.6 71.088C212.357 70.6027 212.031 70.192 211.62 69.856C211.228 69.52 210.771 69.2587 210.248 69.072C209.744 68.8853 209.221 68.792 208.68 68.792ZM223.977 79.432C223.977 78.8907 224.163 78.4333 224.537 78.06C224.929 77.668 225.395 77.472 225.937 77.472C226.478 77.472 226.935 77.668 227.309 78.06C227.701 78.4333 227.897 78.8907 227.897 79.432C227.897 79.9733 227.701 80.44 227.309 80.832C226.935 81.2053 226.478 81.392 225.937 81.392C225.395 81.392 224.929 81.2053 224.537 80.832C224.163 80.44 223.977 79.9733 223.977 79.432ZM223.977 68.68C223.977 68.1387 224.163 67.6813 224.537 67.308C224.929 66.916 225.395 66.72 225.937 66.72C226.478 66.72 226.935 66.916 227.309 67.308C227.701 67.6813 227.897 68.1387 227.897 68.68C227.897 69.2213 227.701 69.688 227.309 70.08C226.935 70.4533 226.478 70.64 225.937 70.64C225.395 70.64 224.929 70.4533 224.537 70.08C224.163 69.688 223.977 69.2213 223.977 68.68ZM264.874 76.128H256.474L255.046 81H252.526L258.462 61.4H262.886L268.822 81H266.302L264.874 76.128ZM260.506 62.408L257.118 73.944H264.23L260.842 62.408H260.506ZM291.043 61.4V74.392C291.043 75.9787 291.407 77.1827 292.135 78.004C292.881 78.8067 293.973 79.208 295.411 79.208C296.848 79.208 297.931 78.8067 298.659 78.004C299.405 77.1827 299.779 75.9787 299.779 74.392V61.4H302.131V74.392C302.131 76.6693 301.533 78.4053 300.339 79.6C299.144 80.7947 297.501 81.392 295.411 81.392C293.32 81.392 291.677 80.7947 290.483 79.6C289.288 78.4053 288.691 76.6693 288.691 74.392V61.4H291.043ZM308.131 61.4L312.527 70.08H313.031L317.427 61.4H320.003L315.103 71.004V71.34L320.003 81H317.427L313.031 72.264H312.527L308.131 81H305.555L310.455 71.34V71.004L305.555 61.4H308.131ZM73.852 127.6H71.668V108.112H73.852V110.296H74.188C74.6734 109.456 75.3454 108.821 76.204 108.392C77.0627 107.944 77.996 107.72 79.004 107.72C79.8627 107.72 80.6747 107.879 81.44 108.196C82.2054 108.513 82.8774 108.971 83.456 109.568C84.0534 110.165 84.52 110.903 84.856 111.78C85.2107 112.657 85.388 113.656 85.388 114.776V115.336C85.388 116.475 85.22 117.483 84.884 118.36C84.548 119.237 84.0814 119.975 83.484 120.572C82.9054 121.169 82.224 121.627 81.44 121.944C80.656 122.243 79.8254 122.392 78.948 122.392C78.5 122.392 78.0427 122.336 77.576 122.224C77.1094 122.131 76.6614 121.981 76.232 121.776C75.8214 121.552 75.4387 121.291 75.084 120.992C74.7294 120.675 74.4307 120.301 74.188 119.872H73.852V127.6ZM78.5 120.32C79.172 120.32 79.788 120.208 80.348 119.984C80.908 119.741 81.3934 119.405 81.804 118.976C82.2334 118.547 82.56 118.024 82.784 117.408C83.0267 116.792 83.148 116.101 83.148 115.336V114.776C83.148 114.029 83.0267 113.357 82.784 112.76C82.56 112.144 82.2334 111.621 81.804 111.192C81.3934 110.744 80.8987 110.399 80.32 110.156C79.76 109.913 79.1534 109.792 78.5 109.792C77.8467 109.792 77.24 109.923 76.68 110.184C76.12 110.427 75.6254 110.772 75.196 111.22C74.7854 111.668 74.4587 112.209 74.216 112.844C73.9734 113.46 73.852 114.141 73.852 114.888V115.224C73.852 115.989 73.9734 116.689 74.216 117.324C74.4587 117.94 74.7854 118.472 75.196 118.92C75.6254 119.368 76.12 119.713 76.68 119.956C77.24 120.199 77.8467 120.32 78.5 120.32ZM102.645 115.224C102.645 116.381 102.449 117.408 102.057 118.304C101.683 119.181 101.179 119.928 100.545 120.544C99.9099 121.141 99.1632 121.599 98.3046 121.916C97.4646 122.233 96.5872 122.392 95.6726 122.392C94.7392 122.392 93.8526 122.233 93.0126 121.916C92.1726 121.599 91.4352 121.141 90.8006 120.544C90.1659 119.928 89.6526 119.181 89.2606 118.304C88.8872 117.408 88.7006 116.381 88.7006 115.224V114.888C88.7006 113.749 88.8872 112.741 89.2606 111.864C89.6526 110.968 90.1659 110.212 90.8006 109.596C91.4539 108.98 92.2006 108.513 93.0406 108.196C93.8806 107.879 94.7579 107.72 95.6726 107.72C96.5872 107.72 97.4646 107.879 98.3046 108.196C99.1446 108.513 99.8819 108.98 100.517 109.596C101.17 110.212 101.683 110.968 102.057 111.864C102.449 112.741 102.645 113.749 102.645 114.888V115.224ZM95.6726 120.32C96.3446 120.32 96.9606 120.208 97.5206 119.984C98.0992 119.741 98.6032 119.396 99.0326 118.948C99.4619 118.5 99.7979 117.968 100.041 117.352C100.283 116.717 100.405 116.008 100.405 115.224V114.888C100.405 114.141 100.283 113.46 100.041 112.844C99.7979 112.209 99.4619 111.668 99.0326 111.22C98.6032 110.772 98.0992 110.427 97.5206 110.184C96.9419 109.923 96.3259 109.792 95.6726 109.792C95.0192 109.792 94.4032 109.923 93.8246 110.184C93.2459 110.427 92.7419 110.772 92.3126 111.22C91.8832 111.668 91.5472 112.209 91.3046 112.844C91.0619 113.46 90.9406 114.141 90.9406 114.888V115.224C90.9406 116.008 91.0619 116.717 91.3046 117.352C91.5472 117.968 91.8832 118.5 92.3126 118.948C92.7419 119.396 93.2366 119.741 93.7966 119.984C94.3752 120.208 95.0006 120.32 95.6726 120.32ZM106.125 108.112H111.165V109.96H111.501C111.856 109.195 112.36 108.635 113.013 108.28C113.666 107.907 114.413 107.72 115.253 107.72C116.653 107.72 117.782 108.177 118.641 109.092C119.5 110.007 119.957 111.341 120.013 113.096L117.717 113.432C117.717 112.144 117.409 111.22 116.793 110.66C116.177 110.081 115.421 109.792 114.525 109.792C113.946 109.792 113.442 109.904 113.013 110.128C112.602 110.352 112.257 110.66 111.977 111.052C111.697 111.444 111.492 111.901 111.361 112.424C111.23 112.947 111.165 113.507 111.165 114.104V119.984H114.693V122H105.789V119.984H108.981V110.128H106.125V108.112ZM123.802 108.112H128.17V102.4H130.354V108.112H135.73V110.128H130.354V119.144C130.354 119.704 130.606 119.984 131.11 119.984H135.058V122H130.326C129.691 122 129.168 121.795 128.758 121.384C128.366 120.973 128.17 120.451 128.17 119.816V110.128H123.802V108.112ZM141.506 108.112H145.79V104.584C145.79 103.949 145.986 103.427 146.378 103.016C146.789 102.605 147.311 102.4 147.946 102.4H153.434V104.416H148.73C148.226 104.416 147.974 104.696 147.974 105.256V108.112H153.77V110.128H147.974V122H145.79V110.128H141.506V108.112ZM172.119 115.224C172.119 116.381 171.923 117.408 171.531 118.304C171.157 119.181 170.653 119.928 170.019 120.544C169.384 121.141 168.637 121.599 167.779 121.916C166.939 122.233 166.061 122.392 165.147 122.392C164.213 122.392 163.327 122.233 162.487 121.916C161.647 121.599 160.909 121.141 160.275 120.544C159.64 119.928 159.127 119.181 158.735 118.304C158.361 117.408 158.175 116.381 158.175 115.224V114.888C158.175 113.749 158.361 112.741 158.735 111.864C159.127 110.968 159.64 110.212 160.275 109.596C160.928 108.98 161.675 108.513 162.515 108.196C163.355 107.879 164.232 107.72 165.147 107.72C166.061 107.72 166.939 107.879 167.779 108.196C168.619 108.513 169.356 108.98 169.991 109.596C170.644 110.212 171.157 110.968 171.531 111.864C171.923 112.741 172.119 113.749 172.119 114.888V115.224ZM165.147 120.32C165.819 120.32 166.435 120.208 166.995 119.984C167.573 119.741 168.077 119.396 168.507 118.948C168.936 118.5 169.272 117.968 169.515 117.352C169.757 116.717 169.879 116.008 169.879 115.224V114.888C169.879 114.141 169.757 113.46 169.515 112.844C169.272 112.209 168.936 111.668 168.507 111.22C168.077 110.772 167.573 110.427 166.995 110.184C166.416 109.923 165.8 109.792 165.147 109.792C164.493 109.792 163.877 109.923 163.299 110.184C162.72 110.427 162.216 110.772 161.787 111.22C161.357 111.668 161.021 112.209 160.779 112.844C160.536 113.46 160.415 114.141 160.415 114.888V115.224C160.415 116.008 160.536 116.717 160.779 117.352C161.021 117.968 161.357 118.5 161.787 118.948C162.216 119.396 162.711 119.741 163.271 119.984C163.849 120.208 164.475 120.32 165.147 120.32ZM176.383 119.984H181.423V104.416H176.551V102.4H183.607V119.984H188.647V122H176.383V119.984ZM198.064 103.968C198.064 103.427 198.25 102.969 198.624 102.596C199.016 102.204 199.482 102.008 200.024 102.008C200.565 102.008 201.022 102.204 201.396 102.596C201.788 102.969 201.984 103.427 201.984 103.968C201.984 104.509 201.788 104.976 201.396 105.368C201.022 105.741 200.565 105.928 200.024 105.928C199.482 105.928 199.016 105.741 198.624 105.368C198.25 104.976 198.064 104.509 198.064 103.968ZM194.088 119.984H198.96V110.128H194.592V108.112H201.144V119.984H205.68V122H194.088V119.984ZM224.224 115.224C224.224 116.381 224.028 117.408 223.636 118.304C223.263 119.181 222.759 119.928 222.124 120.544C221.49 121.141 220.743 121.599 219.884 121.916C219.044 122.233 218.167 122.392 217.252 122.392C216.319 122.392 215.432 122.233 214.592 121.916C213.752 121.599 213.015 121.141 212.38 120.544C211.746 119.928 211.232 119.181 210.84 118.304C210.467 117.408 210.28 116.381 210.28 115.224V114.888C210.28 113.749 210.467 112.741 210.84 111.864C211.232 110.968 211.746 110.212 212.38 109.596C213.034 108.98 213.78 108.513 214.62 108.196C215.46 107.879 216.338 107.72 217.252 107.72C218.167 107.72 219.044 107.879 219.884 108.196C220.724 108.513 221.462 108.98 222.096 109.596C222.75 110.212 223.263 110.968 223.636 111.864C224.028 112.741 224.224 113.749 224.224 114.888V115.224ZM217.252 120.32C217.924 120.32 218.54 120.208 219.1 119.984C219.679 119.741 220.183 119.396 220.612 118.948C221.042 118.5 221.378 117.968 221.62 117.352C221.863 116.717 221.984 116.008 221.984 115.224V114.888C221.984 114.141 221.863 113.46 221.62 112.844C221.378 112.209 221.042 111.668 220.612 111.22C220.183 110.772 219.679 110.427 219.1 110.184C218.522 109.923 217.906 109.792 217.252 109.792C216.599 109.792 215.983 109.923 215.404 110.184C214.826 110.427 214.322 110.772 213.892 111.22C213.463 111.668 213.127 112.209 212.884 112.844C212.642 113.46 212.52 114.141 212.52 114.888V115.224C212.52 116.008 212.642 116.717 212.884 117.352C213.127 117.968 213.463 118.5 213.892 118.948C214.322 119.396 214.816 119.741 215.376 119.984C215.955 120.208 216.58 120.32 217.252 120.32ZM248.741 111.696C248.741 112.368 249.021 112.881 249.581 113.236C250.16 113.591 251.205 113.824 252.717 113.936C254.341 114.067 255.573 114.459 256.413 115.112C257.272 115.747 257.701 116.68 257.701 117.912V118.08C257.701 118.752 257.561 119.359 257.281 119.9C257.02 120.423 256.647 120.871 256.161 121.244C255.695 121.617 255.116 121.897 254.425 122.084C253.753 122.289 253.016 122.392 252.213 122.392C251.131 122.392 250.197 122.252 249.413 121.972C248.648 121.673 248.004 121.291 247.481 120.824C246.977 120.339 246.595 119.797 246.333 119.2C246.072 118.584 245.923 117.968 245.885 117.352L247.957 116.848C248.051 117.912 248.461 118.771 249.189 119.424C249.917 120.059 250.888 120.376 252.101 120.376C253.128 120.376 253.949 120.18 254.565 119.788C255.2 119.377 255.517 118.808 255.517 118.08C255.517 117.296 255.209 116.736 254.593 116.4C253.977 116.064 252.979 115.849 251.597 115.756C249.992 115.644 248.76 115.271 247.901 114.636C247.043 114.001 246.613 113.077 246.613 111.864V111.696C246.613 111.043 246.753 110.473 247.033 109.988C247.313 109.484 247.687 109.064 248.153 108.728C248.639 108.392 249.18 108.14 249.777 107.972C250.375 107.804 251 107.72 251.653 107.72C252.568 107.72 253.371 107.851 254.061 108.112C254.752 108.355 255.331 108.681 255.797 109.092C256.264 109.484 256.619 109.941 256.861 110.464C257.123 110.987 257.291 111.509 257.365 112.032L255.293 112.536C255.2 111.64 254.836 110.94 254.201 110.436C253.585 109.932 252.773 109.68 251.765 109.68C251.373 109.68 250.991 109.727 250.617 109.82C250.263 109.895 249.945 110.016 249.665 110.184C249.385 110.352 249.161 110.567 248.993 110.828C248.825 111.071 248.741 111.36 248.741 111.696ZM264.822 115.728C264.878 117.109 265.307 118.22 266.11 119.06C266.913 119.9 268.033 120.32 269.47 120.32C270.123 120.32 270.693 120.245 271.178 120.096C271.663 119.947 272.074 119.741 272.41 119.48C272.765 119.219 273.045 118.92 273.25 118.584C273.474 118.229 273.651 117.856 273.782 117.464L275.854 118.024C275.462 119.312 274.734 120.367 273.67 121.188C272.625 121.991 271.206 122.392 269.414 122.392C268.425 122.392 267.51 122.224 266.67 121.888C265.849 121.533 265.139 121.039 264.542 120.404C263.945 119.769 263.478 119.013 263.142 118.136C262.806 117.259 262.638 116.288 262.638 115.224V114.552C262.638 113.581 262.806 112.676 263.142 111.836C263.497 110.996 263.982 110.277 264.598 109.68C265.214 109.064 265.933 108.588 266.754 108.252C267.594 107.897 268.499 107.72 269.47 107.72C270.609 107.72 271.589 107.935 272.41 108.364C273.25 108.775 273.931 109.288 274.454 109.904C274.995 110.52 275.387 111.192 275.63 111.92C275.891 112.648 276.022 113.32 276.022 113.936V115.728H264.822ZM269.47 109.792C268.854 109.792 268.275 109.895 267.734 110.1C267.211 110.287 266.745 110.557 266.334 110.912C265.942 111.267 265.615 111.687 265.354 112.172C265.111 112.639 264.953 113.152 264.878 113.712H273.838C273.801 113.115 273.651 112.573 273.39 112.088C273.147 111.603 272.821 111.192 272.41 110.856C272.018 110.52 271.561 110.259 271.038 110.072C270.534 109.885 270.011 109.792 269.47 109.792ZM282.19 115.728C282.246 117.109 282.676 118.22 283.478 119.06C284.281 119.9 285.401 120.32 286.838 120.32C287.492 120.32 288.061 120.245 288.546 120.096C289.032 119.947 289.442 119.741 289.778 119.48C290.133 119.219 290.413 118.92 290.618 118.584C290.842 118.229 291.02 117.856 291.15 117.464L293.222 118.024C292.83 119.312 292.102 120.367 291.038 121.188C289.993 121.991 288.574 122.392 286.782 122.392C285.793 122.392 284.878 122.224 284.038 121.888C283.217 121.533 282.508 121.039 281.91 120.404C281.313 119.769 280.846 119.013 280.51 118.136C280.174 117.259 280.006 116.288 280.006 115.224V114.552C280.006 113.581 280.174 112.676 280.51 111.836C280.865 110.996 281.35 110.277 281.966 109.68C282.582 109.064 283.301 108.588 284.122 108.252C284.962 107.897 285.868 107.72 286.838 107.72C287.977 107.72 288.957 107.935 289.778 108.364C290.618 108.775 291.3 109.288 291.822 109.904C292.364 110.52 292.756 111.192 292.998 111.92C293.26 112.648 293.39 113.32 293.39 113.936V115.728H282.19ZM286.838 109.792C286.222 109.792 285.644 109.895 285.102 110.1C284.58 110.287 284.113 110.557 283.702 110.912C283.31 111.267 282.984 111.687 282.722 112.172C282.48 112.639 282.321 113.152 282.246 113.712H291.206C291.169 113.115 291.02 112.573 290.758 112.088C290.516 111.603 290.189 111.192 289.778 110.856C289.386 110.52 288.929 110.259 288.406 110.072C287.902 109.885 287.38 109.792 286.838 109.792ZM301.547 113.88H302.023L307.315 108.112H310.003V108.28L304.235 114.636V115.14L310.675 121.832V122H307.987L302.079 115.896H301.547V122H299.363V102.4H301.547V113.88ZM318.215 111.696C318.215 112.368 318.495 112.881 319.055 113.236C319.634 113.591 320.679 113.824 322.191 113.936C323.815 114.067 325.047 114.459 325.887 115.112C326.746 115.747 327.175 116.68 327.175 117.912V118.08C327.175 118.752 327.035 119.359 326.755 119.9C326.494 120.423 326.121 120.871 325.635 121.244C325.169 121.617 324.59 121.897 323.899 122.084C323.227 122.289 322.49 122.392 321.687 122.392C320.605 122.392 319.671 122.252 318.887 121.972C318.122 121.673 317.478 121.291 316.955 120.824C316.451 120.339 316.069 119.797 315.807 119.2C315.546 118.584 315.397 117.968 315.359 117.352L317.431 116.848C317.525 117.912 317.935 118.771 318.663 119.424C319.391 120.059 320.362 120.376 321.575 120.376C322.602 120.376 323.423 120.18 324.039 119.788C324.674 119.377 324.991 118.808 324.991 118.08C324.991 117.296 324.683 116.736 324.067 116.4C323.451 116.064 322.453 115.849 321.071 115.756C319.466 115.644 318.234 115.271 317.375 114.636C316.517 114.001 316.087 113.077 316.087 111.864V111.696C316.087 111.043 316.227 110.473 316.507 109.988C316.787 109.484 317.161 109.064 317.627 108.728C318.113 108.392 318.654 108.14 319.251 107.972C319.849 107.804 320.474 107.72 321.127 107.72C322.042 107.72 322.845 107.851 323.535 108.112C324.226 108.355 324.805 108.681 325.271 109.092C325.738 109.484 326.093 109.941 326.335 110.464C326.597 110.987 326.765 111.509 326.839 112.032L324.767 112.536C324.674 111.64 324.31 110.94 323.675 110.436C323.059 109.932 322.247 109.68 321.239 109.68C320.847 109.68 320.465 109.727 320.091 109.82C319.737 109.895 319.419 110.016 319.139 110.184C318.859 110.352 318.635 110.567 318.467 110.828C318.299 111.071 318.215 111.36 318.215 111.696ZM155.002 163H152.818V153.032C152.818 152.379 152.669 151.847 152.37 151.436C152.071 151.007 151.595 150.792 150.942 150.792C150.326 150.792 149.822 151.025 149.43 151.492C149.057 151.94 148.87 152.64 148.87 153.592V163H146.686V152.92C146.686 152.304 146.518 151.8 146.182 151.408C145.846 150.997 145.398 150.792 144.838 150.792C144.166 150.792 143.643 151.035 143.27 151.52C142.915 152.005 142.738 152.64 142.738 153.424V163H140.554V149.112H142.738V150.624H143.074C143.317 149.971 143.671 149.495 144.138 149.196C144.605 148.879 145.155 148.72 145.79 148.72C146.462 148.72 147.013 148.897 147.442 149.252C147.89 149.607 148.198 150.064 148.366 150.624H148.702C149.337 149.355 150.345 148.72 151.726 148.72C152.771 148.72 153.574 149.056 154.134 149.728C154.713 150.381 155.002 151.24 155.002 152.304V163ZM172.119 156.224C172.119 157.381 171.923 158.408 171.531 159.304C171.157 160.181 170.653 160.928 170.019 161.544C169.384 162.141 168.637 162.599 167.779 162.916C166.939 163.233 166.061 163.392 165.147 163.392C164.213 163.392 163.327 163.233 162.487 162.916C161.647 162.599 160.909 162.141 160.275 161.544C159.64 160.928 159.127 160.181 158.735 159.304C158.361 158.408 158.175 157.381 158.175 156.224V155.888C158.175 154.749 158.361 153.741 158.735 152.864C159.127 151.968 159.64 151.212 160.275 150.596C160.928 149.98 161.675 149.513 162.515 149.196C163.355 148.879 164.232 148.72 165.147 148.72C166.061 148.72 166.939 148.879 167.779 149.196C168.619 149.513 169.356 149.98 169.991 150.596C170.644 151.212 171.157 151.968 171.531 152.864C171.923 153.741 172.119 154.749 172.119 155.888V156.224ZM165.147 161.32C165.819 161.32 166.435 161.208 166.995 160.984C167.573 160.741 168.077 160.396 168.507 159.948C168.936 159.5 169.272 158.968 169.515 158.352C169.757 157.717 169.879 157.008 169.879 156.224V155.888C169.879 155.141 169.757 154.46 169.515 153.844C169.272 153.209 168.936 152.668 168.507 152.22C168.077 151.772 167.573 151.427 166.995 151.184C166.416 150.923 165.8 150.792 165.147 150.792C164.493 150.792 163.877 150.923 163.299 151.184C162.72 151.427 162.216 151.772 161.787 152.22C161.357 152.668 161.021 153.209 160.779 153.844C160.536 154.46 160.415 155.141 160.415 155.888V156.224C160.415 157.008 160.536 157.717 160.779 158.352C161.021 158.968 161.357 159.5 161.787 159.948C162.216 160.396 162.711 160.741 163.271 160.984C163.849 161.208 164.475 161.32 165.147 161.32ZM187.135 160.872H186.799C186.575 161.301 186.286 161.675 185.931 161.992C185.595 162.309 185.222 162.571 184.811 162.776C184.419 162.981 183.999 163.131 183.551 163.224C183.103 163.336 182.674 163.392 182.263 163.392C181.33 163.392 180.462 163.233 179.659 162.916C178.857 162.599 178.147 162.141 177.531 161.544C176.934 160.947 176.458 160.209 176.103 159.332C175.767 158.436 175.599 157.419 175.599 156.28V155.832C175.599 154.712 175.777 153.713 176.131 152.836C176.486 151.94 176.962 151.193 177.559 150.596C178.157 149.98 178.857 149.513 179.659 149.196C180.462 148.879 181.311 148.72 182.207 148.72C183.159 148.72 184.046 148.935 184.867 149.364C185.707 149.775 186.351 150.419 186.799 151.296H187.135V143.4H189.319V163H187.135V160.872ZM182.487 161.32C183.141 161.32 183.747 161.199 184.307 160.956C184.867 160.713 185.353 160.368 185.763 159.92C186.193 159.472 186.529 158.94 186.771 158.324C187.014 157.689 187.135 156.989 187.135 156.224V155.888C187.135 155.141 187.014 154.46 186.771 153.844C186.529 153.209 186.193 152.668 185.763 152.22C185.353 151.772 184.858 151.427 184.279 151.184C183.719 150.923 183.122 150.792 182.487 150.792C181.834 150.792 181.218 150.913 180.639 151.156C180.079 151.399 179.585 151.744 179.155 152.192C178.745 152.64 178.418 153.172 178.175 153.788C177.951 154.404 177.839 155.085 177.839 155.832V156.28C177.839 157.064 177.951 157.764 178.175 158.38C178.418 158.996 178.745 159.528 179.155 159.976C179.585 160.405 180.079 160.741 180.639 160.984C181.199 161.208 181.815 161.32 182.487 161.32ZM203.664 149.112H205.848V163H203.664V160.48H203.328C202.88 161.376 202.292 162.085 201.564 162.608C200.836 163.131 199.912 163.392 198.792 163.392C198.026 163.392 197.317 163.261 196.664 163C196.029 162.757 195.478 162.384 195.012 161.88C194.564 161.376 194.209 160.751 193.948 160.004C193.705 159.257 193.584 158.389 193.584 157.4V149.112H195.768V157.12C195.768 158.576 196.066 159.64 196.664 160.312C197.261 160.984 198.176 161.32 199.408 161.32C200.733 161.32 201.769 160.872 202.516 159.976C203.281 159.061 203.664 157.848 203.664 156.336V149.112ZM211.12 160.984H216.16V145.416H211.288V143.4H218.344V160.984H223.384V163H211.12V160.984ZM238.569 160.648H238.233C237.785 161.581 237.159 162.272 236.357 162.72C235.573 163.168 234.742 163.392 233.865 163.392C232.95 163.392 232.101 163.243 231.317 162.944C230.533 162.627 229.842 162.169 229.245 161.572C228.666 160.956 228.209 160.209 227.873 159.332C227.537 158.455 227.369 157.437 227.369 156.28V155.832C227.369 154.693 227.537 153.685 227.873 152.808C228.209 151.931 228.666 151.193 229.245 150.596C229.842 149.98 230.533 149.513 231.317 149.196C232.101 148.879 232.931 148.72 233.809 148.72C234.761 148.72 235.619 148.935 236.385 149.364C237.169 149.775 237.785 150.419 238.233 151.296H238.569V149.112H240.753V160.144C240.753 160.704 241.005 160.984 241.509 160.984H242.209V163H240.725C240.09 163 239.567 162.795 239.157 162.384C238.765 161.973 238.569 161.451 238.569 160.816V160.648ZM234.089 161.32C234.742 161.32 235.339 161.199 235.881 160.956C236.441 160.713 236.917 160.368 237.309 159.92C237.701 159.472 238.009 158.94 238.233 158.324C238.457 157.689 238.569 156.989 238.569 156.224V155.888C238.569 155.141 238.457 154.46 238.233 153.844C238.009 153.209 237.691 152.668 237.281 152.22C236.889 151.772 236.413 151.427 235.853 151.184C235.311 150.923 234.723 150.792 234.089 150.792C233.435 150.792 232.838 150.913 232.297 151.156C231.755 151.399 231.279 151.744 230.869 152.192C230.477 152.621 230.169 153.153 229.945 153.788C229.721 154.404 229.609 155.085 229.609 155.832V156.28C229.609 157.867 230.019 159.108 230.841 160.004C231.681 160.881 232.763 161.32 234.089 161.32ZM245.073 149.112H250.113V150.96H250.449C250.804 150.195 251.308 149.635 251.961 149.28C252.615 148.907 253.361 148.72 254.201 148.72C255.601 148.72 256.731 149.177 257.589 150.092C258.448 151.007 258.905 152.341 258.961 154.096L256.665 154.432C256.665 153.144 256.357 152.22 255.741 151.66C255.125 151.081 254.369 150.792 253.473 150.792C252.895 150.792 252.391 150.904 251.961 151.128C251.551 151.352 251.205 151.66 250.925 152.052C250.645 152.444 250.44 152.901 250.309 153.424C250.179 153.947 250.113 154.507 250.113 155.104V160.984H253.641V163H244.737V160.984H247.929V151.128H245.073V149.112ZM102.757 197.224C102.757 198.381 102.561 199.408 102.169 200.304C101.795 201.181 101.291 201.928 100.657 202.544C100.022 203.141 99.2752 203.599 98.4165 203.916C97.5765 204.233 96.6992 204.392 95.7845 204.392C94.8512 204.392 93.9645 204.233 93.1245 203.916C92.2845 203.599 91.5472 203.141 90.9125 202.544C90.2779 201.928 89.7645 201.181 89.3725 200.304C88.9992 199.408 88.8125 198.381 88.8125 197.224V196.888C88.8125 195.749 88.9992 194.741 89.3725 193.864C89.7645 192.968 90.2779 192.212 90.9125 191.596C91.5659 190.98 92.3125 190.513 93.1525 190.196C93.9925 189.879 94.8699 189.72 95.7845 189.72C96.6992 189.72 97.5765 189.879 98.4165 190.196C99.2565 190.513 99.9939 190.98 100.629 191.596C101.282 192.212 101.795 192.968 102.169 193.864C102.561 194.741 102.757 195.749 102.757 196.888V197.224ZM95.7845 202.32C96.4565 202.32 97.0725 202.208 97.6325 201.984C98.2112 201.741 98.7152 201.396 99.1445 200.948C99.5739 200.5 99.9099 199.968 100.153 199.352C100.395 198.717 100.517 198.008 100.517 197.224V196.888C100.517 196.141 100.395 195.46 100.153 194.844C99.9099 194.209 99.5739 193.668 99.1445 193.22C98.7152 192.772 98.2112 192.427 97.6325 192.184C97.0539 191.923 96.4379 191.792 95.7845 191.792C95.1312 191.792 94.5152 191.923 93.9365 192.184C93.3579 192.427 92.8539 192.772 92.4245 193.22C91.9952 193.668 91.6592 194.209 91.4165 194.844C91.1739 195.46 91.0525 196.141 91.0525 196.888V197.224C91.0525 198.008 91.1739 198.717 91.4165 199.352C91.6592 199.968 91.9952 200.5 92.4245 200.948C92.8539 201.396 93.3485 201.741 93.9085 201.984C94.4872 202.208 95.1125 202.32 95.7845 202.32ZM108.701 209.6H106.517V190.112H108.701V192.296H109.037C109.522 191.456 110.194 190.821 111.053 190.392C111.912 189.944 112.845 189.72 113.853 189.72C114.712 189.72 115.524 189.879 116.289 190.196C117.054 190.513 117.726 190.971 118.305 191.568C118.902 192.165 119.369 192.903 119.705 193.78C120.06 194.657 120.237 195.656 120.237 196.776V197.336C120.237 198.475 120.069 199.483 119.733 200.36C119.397 201.237 118.93 201.975 118.333 202.572C117.754 203.169 117.073 203.627 116.289 203.944C115.505 204.243 114.674 204.392 113.797 204.392C113.349 204.392 112.892 204.336 112.425 204.224C111.958 204.131 111.51 203.981 111.081 203.776C110.67 203.552 110.288 203.291 109.933 202.992C109.578 202.675 109.28 202.301 109.037 201.872H108.701V209.6ZM113.349 202.32C114.021 202.32 114.637 202.208 115.197 201.984C115.757 201.741 116.242 201.405 116.653 200.976C117.082 200.547 117.409 200.024 117.633 199.408C117.876 198.792 117.997 198.101 117.997 197.336V196.776C117.997 196.029 117.876 195.357 117.633 194.76C117.409 194.144 117.082 193.621 116.653 193.192C116.242 192.744 115.748 192.399 115.169 192.156C114.609 191.913 114.002 191.792 113.349 191.792C112.696 191.792 112.089 191.923 111.529 192.184C110.969 192.427 110.474 192.772 110.045 193.22C109.634 193.668 109.308 194.209 109.065 194.844C108.822 195.46 108.701 196.141 108.701 196.888V197.224C108.701 197.989 108.822 198.689 109.065 199.324C109.308 199.94 109.634 200.472 110.045 200.92C110.474 201.368 110.969 201.713 111.529 201.956C112.089 202.199 112.696 202.32 113.349 202.32ZM123.914 190.112H128.282V184.4H130.466V190.112H135.842V192.128H130.466V201.144C130.466 201.704 130.718 201.984 131.222 201.984H135.17V204H130.438C129.803 204 129.28 203.795 128.87 203.384C128.478 202.973 128.282 202.451 128.282 201.816V192.128H123.914V190.112ZM146.07 185.968C146.07 185.427 146.257 184.969 146.63 184.596C147.022 184.204 147.489 184.008 148.03 184.008C148.571 184.008 149.029 184.204 149.402 184.596C149.794 184.969 149.99 185.427 149.99 185.968C149.99 186.509 149.794 186.976 149.402 187.368C149.029 187.741 148.571 187.928 148.03 187.928C147.489 187.928 147.022 187.741 146.63 187.368C146.257 186.976 146.07 186.509 146.07 185.968ZM142.094 201.984H146.966V192.128H142.598V190.112H149.15V201.984H153.686V204H142.094V201.984ZM172.483 204H170.299V194.032C170.299 193.379 170.149 192.847 169.851 192.436C169.552 192.007 169.076 191.792 168.423 191.792C167.807 191.792 167.303 192.025 166.911 192.492C166.537 192.94 166.351 193.64 166.351 194.592V204H164.167V193.92C164.167 193.304 163.999 192.8 163.663 192.408C163.327 191.997 162.879 191.792 162.319 191.792C161.647 191.792 161.124 192.035 160.751 192.52C160.396 193.005 160.219 193.64 160.219 194.424V204H158.035V190.112H160.219V191.624H160.555C160.797 190.971 161.152 190.495 161.619 190.196C162.085 189.879 162.636 189.72 163.271 189.72C163.943 189.72 164.493 189.897 164.923 190.252C165.371 190.607 165.679 191.064 165.847 191.624H166.183C166.817 190.355 167.825 189.72 169.207 189.72C170.252 189.72 171.055 190.056 171.615 190.728C172.193 191.381 172.483 192.24 172.483 193.304V204ZM180.807 185.968C180.807 185.427 180.994 184.969 181.367 184.596C181.759 184.204 182.226 184.008 182.767 184.008C183.309 184.008 183.766 184.204 184.139 184.596C184.531 184.969 184.727 185.427 184.727 185.968C184.727 186.509 184.531 186.976 184.139 187.368C183.766 187.741 183.309 187.928 182.767 187.928C182.226 187.928 181.759 187.741 181.367 187.368C180.994 186.976 180.807 186.509 180.807 185.968ZM176.831 201.984H181.703V192.128H177.335V190.112H183.887V201.984H188.423V204H176.831V201.984ZM206.072 201.984V204H193.976V200.528L203.888 192.464V192.128H194.144V190.112H205.736V193.472L195.768 201.648V201.984H206.072ZM221.312 201.648H220.976C220.528 202.581 219.903 203.272 219.1 203.72C218.316 204.168 217.486 204.392 216.608 204.392C215.694 204.392 214.844 204.243 214.06 203.944C213.276 203.627 212.586 203.169 211.988 202.572C211.41 201.956 210.952 201.209 210.616 200.332C210.28 199.455 210.112 198.437 210.112 197.28V196.832C210.112 195.693 210.28 194.685 210.616 193.808C210.952 192.931 211.41 192.193 211.988 191.596C212.586 190.98 213.276 190.513 214.06 190.196C214.844 189.879 215.675 189.72 216.552 189.72C217.504 189.72 218.363 189.935 219.128 190.364C219.912 190.775 220.528 191.419 220.976 192.296H221.312V190.112H223.496V201.144C223.496 201.704 223.748 201.984 224.252 201.984H224.952V204H223.468C222.834 204 222.311 203.795 221.9 203.384C221.508 202.973 221.312 202.451 221.312 201.816V201.648ZM216.832 202.32C217.486 202.32 218.083 202.199 218.624 201.956C219.184 201.713 219.66 201.368 220.052 200.92C220.444 200.472 220.752 199.94 220.976 199.324C221.2 198.689 221.312 197.989 221.312 197.224V196.888C221.312 196.141 221.2 195.46 220.976 194.844C220.752 194.209 220.435 193.668 220.024 193.22C219.632 192.772 219.156 192.427 218.596 192.184C218.055 191.923 217.467 191.792 216.832 191.792C216.179 191.792 215.582 191.913 215.04 192.156C214.499 192.399 214.023 192.744 213.612 193.192C213.22 193.621 212.912 194.153 212.688 194.788C212.464 195.404 212.352 196.085 212.352 196.832V197.28C212.352 198.867 212.763 200.108 213.584 201.004C214.424 201.881 215.507 202.32 216.832 202.32ZM228.125 190.112H232.493V184.4H234.677V190.112H240.053V192.128H234.677V201.144C234.677 201.704 234.929 201.984 235.433 201.984H239.381V204H234.649C234.014 204 233.491 203.795 233.081 203.384C232.689 202.973 232.493 202.451 232.493 201.816V192.128H228.125V190.112ZM250.281 185.968C250.281 185.427 250.468 184.969 250.841 184.596C251.233 184.204 251.7 184.008 252.241 184.008C252.783 184.008 253.24 184.204 253.613 184.596C254.005 184.969 254.201 185.427 254.201 185.968C254.201 186.509 254.005 186.976 253.613 187.368C253.24 187.741 252.783 187.928 252.241 187.928C251.7 187.928 251.233 187.741 250.841 187.368C250.468 186.976 250.281 186.509 250.281 185.968ZM246.305 201.984H251.177V192.128H246.809V190.112H253.361V201.984H257.897V204H246.305V201.984ZM276.442 197.224C276.442 198.381 276.246 199.408 275.854 200.304C275.481 201.181 274.977 201.928 274.342 202.544C273.707 203.141 272.961 203.599 272.102 203.916C271.262 204.233 270.385 204.392 269.47 204.392C268.537 204.392 267.65 204.233 266.81 203.916C265.97 203.599 265.233 203.141 264.598 202.544C263.963 201.928 263.45 201.181 263.058 200.304C262.685 199.408 262.498 198.381 262.498 197.224V196.888C262.498 195.749 262.685 194.741 263.058 193.864C263.45 192.968 263.963 192.212 264.598 191.596C265.251 190.98 265.998 190.513 266.838 190.196C267.678 189.879 268.555 189.72 269.47 189.72C270.385 189.72 271.262 189.879 272.102 190.196C272.942 190.513 273.679 190.98 274.314 191.596C274.967 192.212 275.481 192.968 275.854 193.864C276.246 194.741 276.442 195.749 276.442 196.888V197.224ZM269.47 202.32C270.142 202.32 270.758 202.208 271.318 201.984C271.897 201.741 272.401 201.396 272.83 200.948C273.259 200.5 273.595 199.968 273.838 199.352C274.081 198.717 274.202 198.008 274.202 197.224V196.888C274.202 196.141 274.081 195.46 273.838 194.844C273.595 194.209 273.259 193.668 272.83 193.22C272.401 192.772 271.897 192.427 271.318 192.184C270.739 191.923 270.123 191.792 269.47 191.792C268.817 191.792 268.201 191.923 267.622 192.184C267.043 192.427 266.539 192.772 266.11 193.22C265.681 193.668 265.345 194.209 265.102 194.844C264.859 195.46 264.738 196.141 264.738 196.888V197.224C264.738 198.008 264.859 198.717 265.102 199.352C265.345 199.968 265.681 200.5 266.11 200.948C266.539 201.396 267.034 201.741 267.594 201.984C268.173 202.208 268.798 202.32 269.47 202.32ZM282.89 204H280.706V190.112H282.89V192.464H283.226C284.085 190.635 285.578 189.72 287.706 189.72C289.312 189.72 290.59 190.224 291.542 191.232C292.494 192.221 292.97 193.715 292.97 195.712V204H290.786V196.16C290.786 194.704 290.46 193.612 289.806 192.884C289.153 192.156 288.266 191.792 287.146 191.792C285.821 191.792 284.776 192.249 284.01 193.164C283.264 194.06 282.89 195.264 282.89 196.776V204ZM300.959 193.696C300.959 194.368 301.239 194.881 301.799 195.236C302.378 195.591 303.423 195.824 304.935 195.936C306.559 196.067 307.791 196.459 308.631 197.112C309.49 197.747 309.919 198.68 309.919 199.912V200.08C309.919 200.752 309.779 201.359 309.499 201.9C309.238 202.423 308.864 202.871 308.379 203.244C307.912 203.617 307.334 203.897 306.643 204.084C305.971 204.289 305.234 204.392 304.431 204.392C303.348 204.392 302.415 204.252 301.631 203.972C300.866 203.673 300.222 203.291 299.699 202.824C299.195 202.339 298.812 201.797 298.551 201.2C298.29 200.584 298.14 199.968 298.103 199.352L300.175 198.848C300.268 199.912 300.679 200.771 301.407 201.424C302.135 202.059 303.106 202.376 304.319 202.376C305.346 202.376 306.167 202.18 306.783 201.788C307.418 201.377 307.735 200.808 307.735 200.08C307.735 199.296 307.427 198.736 306.811 198.4C306.195 198.064 305.196 197.849 303.815 197.756C302.21 197.644 300.978 197.271 300.119 196.636C299.26 196.001 298.831 195.077 298.831 193.864V193.696C298.831 193.043 298.971 192.473 299.251 191.988C299.531 191.484 299.904 191.064 300.371 190.728C300.856 190.392 301.398 190.14 301.995 189.972C302.592 189.804 303.218 189.72 303.871 189.72C304.786 189.72 305.588 189.851 306.279 190.112C306.97 190.355 307.548 190.681 308.015 191.092C308.482 191.484 308.836 191.941 309.079 192.464C309.34 192.987 309.508 193.509 309.583 194.032L307.511 194.536C307.418 193.64 307.054 192.94 306.419 192.436C305.803 191.932 304.991 191.68 303.983 191.68C303.591 191.68 303.208 191.727 302.835 191.82C302.48 191.895 302.163 192.016 301.883 192.184C301.603 192.352 301.379 192.567 301.211 192.828C301.043 193.071 300.959 193.36 300.959 193.696Z" fill="#424242"/>
</svg>
