<svg width="400" height="264" viewBox="0 0 400 264" fill="none" xmlns="http://www.w3.org/2000/svg">
<rect width="400" height="264" rx="16" fill="#F0EEE9"/>
<path d="M130.017 184.696C127.813 184.696 125.957 183.942 124.449 182.434C122.941 180.81 122.187 178.954 122.187 176.866C122.187 174.778 122.941 172.98 124.449 171.472C125.957 169.848 127.813 169.036 130.017 169.036C132.221 169.036 134.077 169.848 135.585 171.472C137.093 172.98 137.847 174.778 137.847 176.866C137.847 178.954 137.093 180.81 135.585 182.434C134.077 183.942 132.221 184.696 130.017 184.696ZM130.017 119.62C127.813 119.62 125.957 118.866 124.449 117.358C122.941 115.734 122.187 113.878 122.187 111.79C122.187 109.702 122.941 107.904 124.449 106.396C125.957 104.772 127.813 103.96 130.017 103.96C132.221 103.96 134.077 104.772 135.585 106.396C137.093 107.904 137.847 109.702 137.847 111.79C137.847 113.878 137.093 115.734 135.585 117.358C134.077 118.866 132.221 119.62 130.017 119.62ZM160.079 184V181.39L171.041 178.432V111.616H155.729V105.7H171.041V98.74C171.041 94.1 171.795 89.17 173.303 83.95C174.927 78.73 177.247 73.8 180.263 69.16C183.395 64.52 187.281 60.75 191.921 57.85C196.561 54.95 201.955 53.5 208.103 53.5C209.611 53.5 210.945 53.732 212.105 54.196C213.961 55.008 214.889 55.936 214.889 56.98C214.889 57.676 214.715 58.43 214.367 59.242L212.453 63.94H212.105L208.451 62.722C204.855 61.562 201.375 60.982 198.011 60.982C192.095 60.982 187.571 63.418 184.439 68.29C181.307 73.162 179.741 80.992 179.741 91.78V105.7H202.709V111.616H179.741V178.432L193.139 181.39V184H160.079ZM252.313 185.74C244.193 185.74 237.349 184 231.781 180.52C226.329 177.04 222.153 172.342 219.253 166.426C216.469 160.51 215.077 153.84 215.077 146.416C215.077 138.296 216.701 131.046 219.949 124.666C223.313 118.17 227.895 113.124 233.695 109.528C239.611 105.816 246.281 103.96 253.705 103.96C258.345 103.96 262.463 104.598 266.059 105.874C269.655 107.15 272.555 108.542 274.759 110.05C278.471 112.602 280.327 114.806 280.327 116.662C280.327 117.474 279.921 118.228 279.109 118.924L274.411 122.926H273.715L271.453 119.794C268.901 116.314 266.117 113.472 263.101 111.268C260.201 108.948 256.431 107.788 251.791 107.788C243.671 107.788 236.943 110.862 231.607 117.01C226.387 123.042 223.777 132.09 223.777 144.154C223.777 154.362 226.445 162.656 231.781 169.036C237.233 175.3 244.889 178.432 254.749 178.432C260.085 178.432 265.015 177.62 269.539 175.996C274.063 174.372 277.601 172.168 280.153 169.384H280.675V171.646C278.007 175.706 274.237 179.07 269.365 181.738C264.493 184.406 258.809 185.74 252.313 185.74Z" fill="#424242"/>
</svg>
