<svg width="880" height="624" viewBox="0 0 880 624" fill="none" xmlns="http://www.w3.org/2000/svg">
<rect width="880" height="624" fill="white"/>
<path d="M34 44.08C33.7333 44.08 33.504 43.984 33.312 43.792C33.12 43.6 33.024 43.3707 33.024 43.104C33.024 42.8373 33.12 42.608 33.312 42.416C33.504 42.224 33.7333 42.128 34 42.128C34.2667 42.128 34.496 42.224 34.688 42.416C34.88 42.608 34.976 42.8373 34.976 43.104C34.976 43.3707 34.88 43.6 34.688 43.792C34.496 43.984 34.2667 44.08 34 44.08ZM34 38.592C33.7333 38.592 33.504 38.496 33.312 38.304C33.12 38.112 33.024 37.8827 33.024 37.616C33.024 37.3493 33.12 37.12 33.312 36.928C33.504 36.736 33.7333 36.64 34 36.64C34.2667 36.64 34.496 36.736 34.688 36.928C34.88 37.12 34.976 37.3493 34.976 37.616C34.976 37.8827 34.88 38.112 34.688 38.304C34.496 38.496 34.2667 38.592 34 38.592ZM36.864 44V43.744L37.872 43.232V37.552H36.624V36.8H37.872V36.16C37.872 35.9467 37.9253 35.6693 38.032 35.328C38.1387 34.9867 38.2933 34.6293 38.496 34.256C38.7093 33.872 38.9653 33.5093 39.264 33.168C39.5627 32.8267 39.8987 32.5493 40.272 32.336C40.656 32.112 41.0773 32 41.536 32C41.632 32 41.7333 32.016 41.84 32.048C41.9467 32.08 42.0373 32.112 42.112 32.144C42.272 32.2187 42.3893 32.288 42.464 32.352C42.5493 32.416 42.592 32.496 42.592 32.592C42.592 32.688 42.5707 32.784 42.528 32.88L42.208 33.664H42.096L41.664 33.488C41.3653 33.3707 41.0187 33.312 40.624 33.312C40.0373 33.312 39.6427 33.4987 39.44 33.872C39.248 34.2347 39.152 34.784 39.152 35.52V36.8H41.264V37.552H39.152V43.264L40.288 43.744V44H36.864ZM45.6128 44.16C44.5781 44.16 43.7621 43.8453 43.1648 43.216C42.5674 42.5867 42.2688 41.7547 42.2688 40.72C42.2688 39.92 42.4288 39.216 42.7488 38.608C43.0794 37.9893 43.5221 37.5093 44.0768 37.168C44.6314 36.816 45.2554 36.64 45.9488 36.64C46.3754 36.64 46.7914 36.7147 47.1968 36.864C47.6021 37.0027 47.9114 37.1893 48.1248 37.424C48.2954 37.6267 48.3808 37.7867 48.3808 37.904C48.3808 38.0533 48.3114 38.1813 48.1728 38.288L47.5648 38.8H47.4528L46.9088 38.064C46.7488 37.8507 46.5461 37.68 46.3008 37.552C46.0661 37.4133 45.7728 37.344 45.4208 37.344C44.8341 37.344 44.3701 37.5787 44.0288 38.048C43.6981 38.5067 43.5328 39.152 43.5328 39.984C43.5328 40.496 43.6181 40.9813 43.7888 41.44C43.9594 41.888 44.2421 42.256 44.6368 42.544C45.0421 42.8213 45.5968 42.96 46.3008 42.96C46.8874 42.96 47.5754 42.7467 48.3648 42.32H48.4128V42.48C48.1674 42.9387 47.7994 43.3333 47.3088 43.664C46.8288 43.9947 46.2634 44.16 45.6128 44.16ZM53.125 45.92L56.325 32H57.125L53.925 45.92H53.125ZM61.893 47.68V47.424L62.901 46.912V38.464L61.941 37.632V37.52L63.925 36.64H64.021L64.149 37.616H64.261C64.6663 37.2747 65.0557 37.0293 65.429 36.88C65.8023 36.72 66.2077 36.64 66.645 36.64C67.189 36.64 67.669 36.7787 68.085 37.056C68.501 37.3333 68.8263 37.728 69.061 38.24C69.3063 38.7413 69.429 39.344 69.429 40.048C69.429 40.9227 69.2637 41.6693 68.933 42.288C68.613 42.896 68.1757 43.36 67.621 43.68C67.0663 44 66.4583 44.16 65.797 44.16C65.1997 44.16 64.661 44.1067 64.181 44V46.912L65.317 47.424V47.68H61.893ZM65.765 37.744C65.509 37.744 65.2423 37.7867 64.965 37.872C64.6983 37.9467 64.437 38.064 64.181 38.224V42.72C64.501 42.976 64.8263 43.152 65.157 43.248C65.4877 43.344 65.8557 43.392 66.261 43.392C66.773 43.392 67.2157 43.1787 67.589 42.752C67.9623 42.3147 68.149 41.5893 68.149 40.576C68.149 39.9147 68.0423 39.376 67.829 38.96C67.6157 38.544 67.3277 38.24 66.965 38.048C66.6023 37.8453 66.2023 37.744 65.765 37.744ZM71.0351 44V43.744L72.0431 43.232V38.464L71.0831 37.632V37.52L73.0671 36.64H73.1631L73.3071 38H73.3711C73.6165 37.6053 73.8405 37.312 74.0431 37.12C74.2565 36.9173 74.4538 36.7893 74.6351 36.736C74.8165 36.672 74.9978 36.64 75.1791 36.64C75.2645 36.64 75.3605 36.656 75.4671 36.688C75.5845 36.72 75.6805 36.752 75.7551 36.784C75.8725 36.8373 75.9791 36.9013 76.0751 36.976C76.1818 37.0507 76.2351 37.136 76.2351 37.232C76.2351 37.328 76.2138 37.424 76.1711 37.52L75.8511 38.304H75.7391L75.1311 38.064C75.0138 38.0107 74.8965 37.9787 74.7791 37.968C74.6725 37.9573 74.5658 37.952 74.4591 37.952C74.0111 37.952 73.6325 38.1813 73.3231 38.64V43.232L74.4591 43.744V44H71.0351ZM80.8825 44.16C80.1785 44.16 79.5598 43.9947 79.0265 43.664C78.5038 43.3333 78.0932 42.8853 77.7945 42.32C77.5065 41.7547 77.3625 41.1147 77.3625 40.4C77.3625 39.6853 77.5065 39.0453 77.7945 38.48C78.0932 37.9147 78.5038 37.4667 79.0265 37.136C79.5598 36.8053 80.1785 36.64 80.8825 36.64C81.5865 36.64 82.1998 36.8053 82.7225 37.136C83.2558 37.4667 83.6665 37.9147 83.9545 38.48C84.2532 39.0453 84.4025 39.6853 84.4025 40.4C84.4025 41.1147 84.2532 41.7547 83.9545 42.32C83.6665 42.8853 83.2558 43.3333 82.7225 43.664C82.1998 43.9947 81.5865 44.16 80.8825 44.16ZM81.1065 43.472C81.5332 43.472 81.8852 43.3387 82.1625 43.072C82.4398 42.8053 82.6425 42.464 82.7705 42.048C82.8985 41.6213 82.9625 41.1787 82.9625 40.72C82.9625 40.1547 82.8825 39.6107 82.7225 39.088C82.5732 38.5653 82.3278 38.1387 81.9865 37.808C81.6558 37.4773 81.2238 37.312 80.6905 37.312C80.2532 37.312 79.8958 37.4453 79.6185 37.712C79.3412 37.9787 79.1332 38.32 78.9945 38.736C78.8665 39.152 78.8025 39.5947 78.8025 40.064C78.8025 40.6293 78.8825 41.1733 79.0425 41.696C79.2025 42.2187 79.4532 42.6453 79.7945 42.976C80.1358 43.3067 80.5732 43.472 81.1065 43.472ZM88.7693 44.16C88.2359 44.16 87.7559 44.0267 87.3293 43.76C86.9133 43.4933 86.5826 43.12 86.3372 42.64C86.1026 42.1493 85.9853 41.568 85.9853 40.896C85.9853 39.9893 86.1613 39.2213 86.5133 38.592C86.8653 37.952 87.3346 37.4667 87.9213 37.136C88.5079 36.8053 89.1479 36.64 89.8413 36.64C90.1399 36.64 90.4013 36.656 90.6253 36.688C90.8493 36.7093 91.0519 36.7413 91.2333 36.784V33.824L90.1933 32.992V32.88L92.4173 32H92.5133V43.28L93.6493 43.744V44H91.3933L91.2653 43.184H91.1533C90.7479 43.5253 90.3533 43.776 89.9693 43.936C89.5959 44.0853 89.1959 44.16 88.7693 44.16ZM87.2653 40.528C87.2653 41.4133 87.4999 42.0587 87.9693 42.464C88.4386 42.8587 88.9986 43.056 89.6493 43.056C89.9053 43.056 90.1666 43.0187 90.4333 42.944C90.7106 42.8587 90.9773 42.736 91.2333 42.576V38.096C90.9773 37.872 90.7213 37.7067 90.4653 37.6C90.2199 37.4827 89.9426 37.424 89.6333 37.424C89.2066 37.424 88.8119 37.5307 88.4493 37.744C88.0973 37.9467 87.8093 38.2773 87.5853 38.736C87.3719 39.184 87.2653 39.7813 87.2653 40.528ZM97.8188 44.16C97.1894 44.16 96.6721 44.0053 96.2668 43.696C95.8721 43.376 95.6748 42.9067 95.6748 42.288V37.552L94.6668 37.056V36.8H96.9548V41.536C96.9548 42.0053 97.0988 42.3627 97.3868 42.608C97.6854 42.8533 98.0694 42.976 98.5388 42.976C98.8268 42.976 99.1414 42.928 99.4828 42.832C99.8348 42.736 100.112 42.5973 100.315 42.416V37.552L99.1788 37.056V36.8H101.595V43.28L102.731 43.744V44H100.315V42.992H100.235C99.8294 43.3973 99.4348 43.696 99.0508 43.888C98.6774 44.0693 98.2668 44.16 97.8188 44.16ZM107.332 44.16C106.297 44.16 105.481 43.8453 104.884 43.216C104.286 42.5867 103.988 41.7547 103.988 40.72C103.988 39.92 104.148 39.216 104.468 38.608C104.798 37.9893 105.241 37.5093 105.796 37.168C106.35 36.816 106.974 36.64 107.668 36.64C108.094 36.64 108.51 36.7147 108.916 36.864C109.321 37.0027 109.63 37.1893 109.844 37.424C110.014 37.6267 110.1 37.7867 110.1 37.904C110.1 38.0533 110.03 38.1813 109.892 38.288L109.284 38.8H109.172L108.628 38.064C108.468 37.8507 108.265 37.68 108.02 37.552C107.785 37.4133 107.492 37.344 107.14 37.344C106.553 37.344 106.089 37.5787 105.748 38.048C105.417 38.5067 105.252 39.152 105.252 39.984C105.252 40.496 105.337 40.9813 105.508 41.44C105.678 41.888 105.961 42.256 106.356 42.544C106.761 42.8213 107.316 42.96 108.02 42.96C108.606 42.96 109.294 42.7467 110.084 42.32H110.132V42.48C109.886 42.9387 109.518 43.3333 109.028 43.664C108.548 43.9947 107.982 44.16 107.332 44.16ZM114.172 44.16C113.702 44.16 113.297 44.0213 112.956 43.744C112.614 43.4667 112.444 43.0773 112.444 42.576V37.552H111.132V37.456L112.492 36.8L113.628 35.04H113.724V36.8H115.836V37.552H113.724V42.304C113.724 42.5813 113.846 42.784 114.092 42.912C114.337 43.04 114.625 43.104 114.956 43.104C115.158 43.104 115.345 43.0933 115.516 43.072C115.697 43.0507 115.852 43.024 115.98 42.992H116.028V43.152C115.921 43.3973 115.708 43.6267 115.388 43.84C115.078 44.0533 114.673 44.16 114.172 44.16ZM139.988 44.16C139.455 44.16 138.975 44.0267 138.548 43.76C138.132 43.4933 137.801 43.12 137.556 42.64C137.321 42.1493 137.204 41.568 137.204 40.896C137.204 39.9893 137.38 39.2213 137.732 38.592C138.084 37.952 138.553 37.4667 139.14 37.136C139.727 36.8053 140.367 36.64 141.06 36.64C141.359 36.64 141.62 36.656 141.844 36.688C142.068 36.7093 142.271 36.7413 142.452 36.784V33.824L141.412 32.992V32.88L143.636 32H143.732V43.28L144.868 43.744V44H142.612L142.484 43.184H142.372C141.967 43.5253 141.572 43.776 141.188 43.936C140.815 44.0853 140.415 44.16 139.988 44.16ZM138.484 40.528C138.484 41.4133 138.719 42.0587 139.188 42.464C139.657 42.8587 140.217 43.056 140.868 43.056C141.124 43.056 141.385 43.0187 141.652 42.944C141.929 42.8587 142.196 42.736 142.452 42.576V38.096C142.196 37.872 141.94 37.7067 141.684 37.6C141.439 37.4827 141.161 37.424 140.852 37.424C140.425 37.424 140.031 37.5307 139.668 37.744C139.316 37.9467 139.028 38.2773 138.804 38.736C138.591 39.184 138.484 39.7813 138.484 40.528ZM149.582 44.16C148.547 44.16 147.731 43.8453 147.134 43.216C146.536 42.5867 146.238 41.7547 146.238 40.72C146.238 39.92 146.392 39.216 146.702 38.608C147.022 37.9893 147.438 37.5093 147.95 37.168C148.472 36.816 149.038 36.64 149.646 36.64C150.488 36.64 151.15 36.9333 151.63 37.52C152.12 38.1067 152.366 38.9493 152.366 40.048L152.286 40.128H147.502C147.512 40.6187 147.608 41.0827 147.789 41.52C147.971 41.9467 148.259 42.2933 148.654 42.56C149.059 42.8267 149.598 42.96 150.27 42.96C150.856 42.96 151.544 42.7467 152.334 42.32H152.382V42.48C152.136 42.9387 151.768 43.3333 151.278 43.664C150.798 43.9947 150.232 44.16 149.582 44.16ZM149.39 37.344C148.878 37.344 148.456 37.5253 148.126 37.888C147.806 38.24 147.608 38.7413 147.534 39.392H151.15C151.032 38.6667 150.824 38.144 150.526 37.824C150.238 37.504 149.859 37.344 149.39 37.344ZM156.596 44.16C156.094 44.16 155.662 44.1173 155.299 44.032C154.937 43.9467 154.569 43.808 154.196 43.616V41.824H154.42L154.932 42.704C155.262 43.2907 155.801 43.584 156.548 43.584C156.974 43.584 157.305 43.4827 157.54 43.28C157.785 43.0773 157.908 42.8 157.908 42.448C157.908 42.1387 157.833 41.8987 157.684 41.728C157.534 41.5573 157.321 41.408 157.044 41.28C156.777 41.1413 156.457 40.9867 156.084 40.816C155.54 40.5707 155.118 40.304 154.82 40.016C154.532 39.7173 154.388 39.3013 154.388 38.768C154.388 38.3733 154.5 38.016 154.724 37.696C154.948 37.376 155.23 37.12 155.572 36.928C155.924 36.736 156.286 36.64 156.66 36.64C157.054 36.64 157.417 36.688 157.748 36.784C158.078 36.88 158.414 37.0133 158.756 37.184V38.928H158.532L158.004 38.08C157.822 37.792 157.625 37.584 157.411 37.456C157.198 37.328 156.969 37.264 156.724 37.264C156.361 37.264 156.068 37.3547 155.844 37.536C155.63 37.7173 155.524 37.968 155.524 38.288C155.524 38.6507 155.652 38.928 155.908 39.12C156.174 39.3013 156.558 39.5093 157.06 39.744C157.358 39.8933 157.657 40.0427 157.956 40.192C158.265 40.3413 158.516 40.5547 158.708 40.832C158.91 41.0987 159.012 41.4827 159.012 41.984C159.012 42.4533 158.884 42.8533 158.628 43.184C158.372 43.504 158.057 43.7493 157.684 43.92C157.31 44.08 156.948 44.16 156.596 44.16ZM162.558 34.704C162.28 34.704 162.051 34.6133 161.87 34.432C161.688 34.24 161.598 34.0107 161.598 33.744C161.598 33.4667 161.688 33.2373 161.87 33.056C162.051 32.8747 162.28 32.784 162.558 32.784C162.835 32.784 163.064 32.8747 163.246 33.056C163.427 33.2373 163.518 33.4667 163.518 33.744C163.518 34.0107 163.427 34.24 163.246 34.432C163.064 34.6133 162.835 34.704 162.558 34.704ZM160.958 44V43.744L161.966 43.232V38.464L161.006 37.632V37.52L163.15 36.64H163.246V43.232L164.254 43.744V44H160.958ZM169.237 41.728C168.768 41.728 168.336 41.6427 167.941 41.472C167.728 41.5573 167.573 41.6693 167.477 41.808C167.392 41.9467 167.349 42.096 167.349 42.256C167.349 42.7893 167.728 43.056 168.485 43.056H170.405C171.184 43.056 171.755 43.2267 172.117 43.568C172.491 43.9093 172.677 44.416 172.677 45.088C172.677 45.5467 172.523 45.984 172.213 46.4C171.915 46.8267 171.483 47.1733 170.917 47.44C170.363 47.7067 169.701 47.84 168.933 47.84C167.92 47.84 167.189 47.6533 166.741 47.28C166.304 46.9173 166.085 46.4693 166.085 45.936C166.085 45.5413 166.181 45.2 166.373 44.912L167.477 44.176V44.112C167.072 44.0267 166.763 43.872 166.549 43.648C166.336 43.4133 166.229 43.1307 166.229 42.8C166.229 42.3947 166.368 42.0533 166.645 41.776L167.509 41.328V41.232C167.168 41.008 166.896 40.72 166.693 40.368C166.491 40.016 166.389 39.6213 166.389 39.184C166.389 38.704 166.512 38.272 166.757 37.888C167.003 37.504 167.339 37.2 167.765 36.976C168.203 36.752 168.693 36.64 169.237 36.64C169.461 36.64 169.701 36.6667 169.957 36.72C170.224 36.7733 170.453 36.8427 170.645 36.928L173.045 36.8V37.664L171.557 37.568L171.493 37.632C171.664 37.824 171.803 38.0587 171.909 38.336C172.027 38.6133 172.085 38.896 172.085 39.184C172.085 39.664 171.963 40.096 171.717 40.48C171.472 40.864 171.131 41.168 170.693 41.392C170.267 41.616 169.781 41.728 169.237 41.728ZM169.397 41.072C169.824 41.072 170.16 40.8907 170.405 40.528C170.651 40.1547 170.773 39.7227 170.773 39.232C170.773 38.6453 170.613 38.176 170.293 37.824C169.973 37.4613 169.584 37.28 169.125 37.28C168.667 37.28 168.315 37.4667 168.069 37.84C167.824 38.2027 167.701 38.6347 167.701 39.136C167.701 39.6907 167.861 40.1547 168.181 40.528C168.501 40.8907 168.907 41.072 169.397 41.072ZM167.221 45.76C167.221 46.2293 167.403 46.6187 167.765 46.928C168.139 47.2373 168.592 47.392 169.125 47.392C169.605 47.392 170.021 47.296 170.373 47.104C170.736 46.9227 171.013 46.6773 171.205 46.368C171.408 46.0693 171.509 45.7493 171.509 45.408C171.509 44.9387 171.381 44.6133 171.125 44.432C170.88 44.2507 170.432 44.16 169.781 44.16H168.069C168.037 44.16 168.011 44.16 167.989 44.16C167.701 44.3307 167.499 44.544 167.381 44.8C167.275 45.0667 167.221 45.3867 167.221 45.76ZM174.456 44V43.744L175.464 43.232V38.464L174.504 37.632V37.52L176.488 36.64H176.584L176.728 37.824H176.808C177.213 37.4187 177.602 37.12 177.976 36.928C178.36 36.736 178.781 36.64 179.24 36.64C179.869 36.64 180.381 36.8 180.776 37.12C181.181 37.4293 181.384 37.8933 181.384 38.512V43.232L182.392 43.744V44H178.968V43.744L180.104 43.232V39.264C180.104 38.7947 179.954 38.4373 179.656 38.192C179.368 37.9467 178.989 37.824 178.52 37.824C178.232 37.824 177.912 37.872 177.56 37.968C177.218 38.064 176.946 38.2027 176.744 38.384V43.232L177.88 43.744V44H174.456ZM189.496 44.16C188.995 44.16 188.579 44.016 188.248 43.728C187.917 43.4293 187.752 43.0187 187.752 42.496C187.752 41.9733 187.944 41.52 188.328 41.136C188.723 40.752 189.379 40.4533 190.296 40.24L191.816 39.888V38.72C191.816 38.3573 191.667 38.048 191.368 37.792C191.08 37.5253 190.749 37.392 190.376 37.392C189.971 37.392 189.688 37.504 189.528 37.728C189.368 37.9413 189.288 38.2293 189.288 38.592V39.04L189.208 39.12H188.376C188.216 39.12 188.104 39.0933 188.04 39.04C187.987 38.9867 187.96 38.864 187.96 38.672C187.96 38.4373 188.029 38.1973 188.168 37.952C188.307 37.7067 188.52 37.4933 188.808 37.312C189.107 37.12 189.416 36.96 189.736 36.832C190.067 36.704 190.419 36.64 190.792 36.64C191.165 36.64 191.528 36.6933 191.88 36.8C192.243 36.9067 192.536 37.088 192.76 37.344C192.984 37.5893 193.096 37.936 193.096 38.384V42.928C193.171 43.0027 193.277 43.0667 193.416 43.12C193.555 43.1733 193.747 43.2 193.992 43.2H194.6L194.648 43.232V43.28C194.52 43.5147 194.328 43.7227 194.072 43.904C193.827 44.0747 193.523 44.16 193.16 44.16C192.829 44.16 192.557 44.0747 192.344 43.904C192.141 43.7227 191.997 43.488 191.912 43.2H191.816C191.539 43.4773 191.192 43.7067 190.776 43.888C190.371 44.0693 189.944 44.16 189.496 44.16ZM189 42.176C189 42.8373 189.4 43.168 190.2 43.168C190.456 43.168 190.707 43.1413 190.952 43.088C191.208 43.0347 191.496 42.9387 191.816 42.8V40.432C190.963 40.592 190.339 40.7627 189.944 40.944C189.549 41.1147 189.293 41.3013 189.176 41.504C189.059 41.7067 189 41.9307 189 42.176ZM202.428 44.16C201.799 44.16 201.281 44.0053 200.876 43.696C200.481 43.376 200.284 42.9067 200.284 42.288V37.552L199.276 37.056V36.8H201.564V41.536C201.564 42.0053 201.708 42.3627 201.996 42.608C202.295 42.8533 202.679 42.976 203.148 42.976C203.436 42.976 203.751 42.928 204.092 42.832C204.444 42.736 204.721 42.5973 204.924 42.416V37.552L203.788 37.056V36.8H206.204V43.28L207.34 43.744V44H204.924V42.992H204.844C204.439 43.3973 204.044 43.696 203.66 43.888C203.287 44.0693 202.876 44.16 202.428 44.16ZM211.205 44.16C210.704 44.16 210.272 44.1173 209.909 44.032C209.546 43.9467 209.178 43.808 208.805 43.616V41.824H209.029L209.541 42.704C209.872 43.2907 210.41 43.584 211.157 43.584C211.584 43.584 211.914 43.4827 212.149 43.28C212.394 43.0773 212.517 42.8 212.517 42.448C212.517 42.1387 212.442 41.8987 212.293 41.728C212.144 41.5573 211.93 41.408 211.653 41.28C211.386 41.1413 211.066 40.9867 210.693 40.816C210.149 40.5707 209.728 40.304 209.429 40.016C209.141 39.7173 208.997 39.3013 208.997 38.768C208.997 38.3733 209.109 38.016 209.333 37.696C209.557 37.376 209.84 37.12 210.181 36.928C210.533 36.736 210.896 36.64 211.269 36.64C211.664 36.64 212.026 36.688 212.357 36.784C212.688 36.88 213.024 37.0133 213.365 37.184V38.928H213.141L212.613 38.08C212.432 37.792 212.234 37.584 212.021 37.456C211.808 37.328 211.578 37.264 211.333 37.264C210.97 37.264 210.677 37.3547 210.453 37.536C210.24 37.7173 210.133 37.968 210.133 38.288C210.133 38.6507 210.261 38.928 210.517 39.12C210.784 39.3013 211.168 39.5093 211.669 39.744C211.968 39.8933 212.266 40.0427 212.565 40.192C212.874 40.3413 213.125 40.5547 213.317 40.832C213.52 41.0987 213.621 41.4827 213.621 41.984C213.621 42.4533 213.493 42.8533 213.237 43.184C212.981 43.504 212.666 43.7493 212.293 43.92C211.92 44.08 211.557 44.16 211.205 44.16ZM218.847 44.16C217.812 44.16 216.996 43.8453 216.399 43.216C215.802 42.5867 215.503 41.7547 215.503 40.72C215.503 39.92 215.658 39.216 215.967 38.608C216.287 37.9893 216.703 37.5093 217.215 37.168C217.738 36.816 218.303 36.64 218.911 36.64C219.754 36.64 220.415 36.9333 220.895 37.52C221.386 38.1067 221.631 38.9493 221.631 40.048L221.551 40.128H216.767C216.778 40.6187 216.874 41.0827 217.055 41.52C217.236 41.9467 217.524 42.2933 217.919 42.56C218.324 42.8267 218.863 42.96 219.535 42.96C220.122 42.96 220.81 42.7467 221.599 42.32H221.647V42.48C221.402 42.9387 221.034 43.3333 220.543 43.664C220.063 43.9947 219.498 44.16 218.847 44.16ZM218.655 37.344C218.143 37.344 217.722 37.5253 217.391 37.888C217.071 38.24 216.874 38.7413 216.799 39.392H220.415C220.298 38.6667 220.09 38.144 219.791 37.824C219.503 37.504 219.124 37.344 218.655 37.344ZM223.285 44V43.744L224.293 43.232V38.464L223.333 37.632V37.52L225.317 36.64H225.413L225.557 38H225.621C225.866 37.6053 226.09 37.312 226.293 37.12C226.506 36.9173 226.704 36.7893 226.885 36.736C227.066 36.672 227.248 36.64 227.429 36.64C227.514 36.64 227.61 36.656 227.717 36.688C227.834 36.72 227.93 36.752 228.005 36.784C228.122 36.8373 228.229 36.9013 228.325 36.976C228.432 37.0507 228.485 37.136 228.485 37.232C228.485 37.328 228.464 37.424 228.421 37.52L228.101 38.304H227.989L227.381 38.064C227.264 38.0107 227.146 37.9787 227.029 37.968C226.922 37.9573 226.816 37.952 226.709 37.952C226.261 37.952 225.882 38.1813 225.573 38.64V43.232L226.709 43.744V44H223.285ZM236.957 44.16C235.922 44.16 235.106 43.8453 234.509 43.216C233.911 42.5867 233.613 41.7547 233.613 40.72C233.613 39.92 233.767 39.216 234.077 38.608C234.397 37.9893 234.813 37.5093 235.325 37.168C235.847 36.816 236.413 36.64 237.021 36.64C237.863 36.64 238.525 36.9333 239.005 37.52C239.495 38.1067 239.741 38.9493 239.741 40.048L239.661 40.128H234.877C234.887 40.6187 234.983 41.0827 235.164 41.52C235.346 41.9467 235.634 42.2933 236.029 42.56C236.434 42.8267 236.973 42.96 237.645 42.96C238.231 42.96 238.919 42.7467 239.709 42.32H239.757V42.48C239.511 42.9387 239.143 43.3333 238.653 43.664C238.173 43.9947 237.607 44.16 236.957 44.16ZM236.765 37.344C236.253 37.344 235.831 37.5253 235.501 37.888C235.181 38.24 234.983 38.7413 234.909 39.392H238.525C238.407 38.6667 238.199 38.144 237.901 37.824C237.613 37.504 237.234 37.344 236.765 37.344ZM240.822 44V43.744L241.686 43.184L243.782 40.432L241.654 37.552L240.902 37.056V36.8H244.214V37.056L243.126 37.536V37.632L244.614 39.648L245.91 37.728V37.632L244.998 37.056V36.8H247.654V37.056L246.806 37.616L244.934 40.08L247.27 43.248L247.926 43.744V44H244.822V43.744L245.798 43.264V43.168L244.102 40.88L242.63 43.072V43.168L243.622 43.744V44H240.822ZM249.112 47.68V47.424L250.12 46.912V38.464L249.16 37.632V37.52L251.144 36.64H251.24L251.368 37.616H251.48C251.885 37.2747 252.274 37.0293 252.648 36.88C253.021 36.72 253.426 36.64 253.864 36.64C254.408 36.64 254.888 36.7787 255.304 37.056C255.72 37.3333 256.045 37.728 256.28 38.24C256.525 38.7413 256.648 39.344 256.648 40.048C256.648 40.9227 256.482 41.6693 256.152 42.288C255.832 42.896 255.394 43.36 254.84 43.68C254.285 44 253.677 44.16 253.016 44.16C252.418 44.16 251.88 44.1067 251.4 44V46.912L252.536 47.424V47.68H249.112ZM252.984 37.744C252.728 37.744 252.461 37.7867 252.184 37.872C251.917 37.9467 251.656 38.064 251.4 38.224V42.72C251.72 42.976 252.045 43.152 252.376 43.248C252.706 43.344 253.074 43.392 253.48 43.392C253.992 43.392 254.434 43.1787 254.808 42.752C255.181 42.3147 255.368 41.5893 255.368 40.576C255.368 39.9147 255.261 39.376 255.048 38.96C254.834 38.544 254.546 38.24 254.184 38.048C253.821 37.8453 253.421 37.744 252.984 37.744ZM261.644 44.16C260.609 44.16 259.793 43.8453 259.196 43.216C258.599 42.5867 258.3 41.7547 258.3 40.72C258.3 39.92 258.455 39.216 258.764 38.608C259.084 37.9893 259.5 37.5093 260.012 37.168C260.535 36.816 261.1 36.64 261.708 36.64C262.551 36.64 263.212 36.9333 263.692 37.52C264.183 38.1067 264.428 38.9493 264.428 40.048L264.348 40.128H259.564C259.575 40.6187 259.671 41.0827 259.852 41.52C260.033 41.9467 260.321 42.2933 260.716 42.56C261.121 42.8267 261.66 42.96 262.332 42.96C262.919 42.96 263.607 42.7467 264.396 42.32H264.444V42.48C264.199 42.9387 263.831 43.3333 263.34 43.664C262.86 43.9947 262.295 44.16 261.644 44.16ZM261.452 37.344C260.94 37.344 260.519 37.5253 260.188 37.888C259.868 38.24 259.671 38.7413 259.596 39.392H263.212C263.095 38.6667 262.887 38.144 262.588 37.824C262.3 37.504 261.921 37.344 261.452 37.344ZM266.082 44V43.744L267.09 43.232V38.464L266.13 37.632V37.52L268.114 36.64H268.21L268.354 38H268.418C268.663 37.6053 268.887 37.312 269.09 37.12C269.303 36.9173 269.501 36.7893 269.682 36.736C269.863 36.672 270.045 36.64 270.226 36.64C270.311 36.64 270.407 36.656 270.514 36.688C270.631 36.72 270.727 36.752 270.802 36.784C270.919 36.8373 271.026 36.9013 271.122 36.976C271.229 37.0507 271.282 37.136 271.282 37.232C271.282 37.328 271.261 37.424 271.218 37.52L270.898 38.304H270.786L270.178 38.064C270.061 38.0107 269.943 37.9787 269.826 37.968C269.719 37.9573 269.613 37.952 269.506 37.952C269.058 37.952 268.679 38.1813 268.37 38.64V43.232L269.506 43.744V44H266.082ZM274.073 34.704C273.796 34.704 273.567 34.6133 273.385 34.432C273.204 34.24 273.113 34.0107 273.113 33.744C273.113 33.4667 273.204 33.2373 273.385 33.056C273.567 32.8747 273.796 32.784 274.073 32.784C274.351 32.784 274.58 32.8747 274.761 33.056C274.943 33.2373 275.033 33.4667 275.033 33.744C275.033 34.0107 274.943 34.24 274.761 34.432C274.58 34.6133 274.351 34.704 274.073 34.704ZM272.473 44V43.744L273.481 43.232V38.464L272.521 37.632V37.52L274.665 36.64H274.761V43.232L275.769 43.744V44H272.473ZM280.769 44.16C279.734 44.16 278.918 43.8453 278.321 43.216C277.724 42.5867 277.425 41.7547 277.425 40.72C277.425 39.92 277.58 39.216 277.889 38.608C278.209 37.9893 278.625 37.5093 279.137 37.168C279.66 36.816 280.225 36.64 280.833 36.64C281.676 36.64 282.337 36.9333 282.817 37.52C283.308 38.1067 283.553 38.9493 283.553 40.048L283.473 40.128H278.689C278.7 40.6187 278.796 41.0827 278.977 41.52C279.158 41.9467 279.446 42.2933 279.841 42.56C280.246 42.8267 280.785 42.96 281.457 42.96C282.044 42.96 282.732 42.7467 283.521 42.32H283.569V42.48C283.324 42.9387 282.956 43.3333 282.465 43.664C281.985 43.9947 281.42 44.16 280.769 44.16ZM280.577 37.344C280.065 37.344 279.644 37.5253 279.313 37.888C278.993 38.24 278.796 38.7413 278.721 39.392H282.337C282.22 38.6667 282.012 38.144 281.713 37.824C281.425 37.504 281.046 37.344 280.577 37.344ZM285.143 44V43.744L286.151 43.232V38.464L285.191 37.632V37.52L287.175 36.64H287.271L287.415 37.824H287.495C287.9 37.4187 288.29 37.12 288.663 36.928C289.047 36.736 289.468 36.64 289.927 36.64C290.556 36.64 291.068 36.8 291.463 37.12C291.868 37.4293 292.071 37.8933 292.071 38.512V43.232L293.079 43.744V44H289.655V43.744L290.791 43.232V39.264C290.791 38.7947 290.642 38.4373 290.343 38.192C290.055 37.9467 289.676 37.824 289.207 37.824C288.919 37.824 288.599 37.872 288.247 37.968C287.906 38.064 287.634 38.2027 287.431 38.384V43.232L288.567 43.744V44H285.143ZM297.832 44.16C296.797 44.16 295.981 43.8453 295.384 43.216C294.786 42.5867 294.488 41.7547 294.488 40.72C294.488 39.92 294.648 39.216 294.968 38.608C295.298 37.9893 295.741 37.5093 296.296 37.168C296.85 36.816 297.474 36.64 298.168 36.64C298.594 36.64 299.01 36.7147 299.416 36.864C299.821 37.0027 300.13 37.1893 300.344 37.424C300.514 37.6267 300.6 37.7867 300.6 37.904C300.6 38.0533 300.53 38.1813 300.392 38.288L299.784 38.8H299.672L299.128 38.064C298.968 37.8507 298.765 37.68 298.52 37.552C298.285 37.4133 297.992 37.344 297.64 37.344C297.053 37.344 296.589 37.5787 296.248 38.048C295.917 38.5067 295.752 39.152 295.752 39.984C295.752 40.496 295.837 40.9813 296.008 41.44C296.178 41.888 296.461 42.256 296.856 42.544C297.261 42.8213 297.816 42.96 298.52 42.96C299.106 42.96 299.794 42.7467 300.584 42.32H300.632V42.48C300.386 42.9387 300.018 43.3333 299.528 43.664C299.048 43.9947 298.482 44.16 297.832 44.16ZM305.488 44.16C304.453 44.16 303.637 43.8453 303.04 43.216C302.442 42.5867 302.144 41.7547 302.144 40.72C302.144 39.92 302.298 39.216 302.608 38.608C302.928 37.9893 303.344 37.5093 303.856 37.168C304.378 36.816 304.944 36.64 305.552 36.64C306.394 36.64 307.056 36.9333 307.536 37.52C308.026 38.1067 308.272 38.9493 308.272 40.048L308.192 40.128H303.408C303.418 40.6187 303.514 41.0827 303.696 41.52C303.877 41.9467 304.165 42.2933 304.56 42.56C304.965 42.8267 305.504 42.96 306.176 42.96C306.762 42.96 307.45 42.7467 308.24 42.32H308.288V42.48C308.042 42.9387 307.674 43.3333 307.184 43.664C306.704 43.9947 306.138 44.16 305.488 44.16ZM305.296 37.344C304.784 37.344 304.362 37.5253 304.032 37.888C303.712 38.24 303.514 38.7413 303.44 39.392H307.056C306.938 38.6667 306.73 38.144 306.432 37.824C306.144 37.504 305.765 37.344 305.296 37.344ZM313.958 44V43.744L314.966 43.232V37.552H313.718V36.8H314.966V36.16C314.966 35.9467 315.019 35.6693 315.126 35.328C315.232 34.9867 315.387 34.6293 315.59 34.256C315.803 33.872 316.059 33.5093 316.358 33.168C316.656 32.8267 316.992 32.5493 317.366 32.336C317.75 32.112 318.171 32 318.63 32C318.726 32 318.827 32.016 318.934 32.048C319.04 32.08 319.131 32.112 319.206 32.144C319.366 32.2187 319.483 32.288 319.558 32.352C319.643 32.416 319.686 32.496 319.686 32.592C319.686 32.688 319.664 32.784 319.622 32.88L319.302 33.664H319.19L318.758 33.488C318.459 33.3707 318.112 33.312 317.718 33.312C317.131 33.312 316.736 33.4987 316.534 33.872C316.342 34.2347 316.246 34.784 316.246 35.52V36.8H318.358V37.552H316.246V43.264L317.382 43.744V44H313.958ZM322.883 44.16C322.179 44.16 321.56 43.9947 321.027 43.664C320.504 43.3333 320.093 42.8853 319.795 42.32C319.507 41.7547 319.363 41.1147 319.363 40.4C319.363 39.6853 319.507 39.0453 319.795 38.48C320.093 37.9147 320.504 37.4667 321.027 37.136C321.56 36.8053 322.179 36.64 322.883 36.64C323.587 36.64 324.2 36.8053 324.723 37.136C325.256 37.4667 325.667 37.9147 325.955 38.48C326.253 39.0453 326.403 39.6853 326.403 40.4C326.403 41.1147 326.253 41.7547 325.955 42.32C325.667 42.8853 325.256 43.3333 324.723 43.664C324.2 43.9947 323.587 44.16 322.883 44.16ZM323.107 43.472C323.533 43.472 323.885 43.3387 324.163 43.072C324.44 42.8053 324.643 42.464 324.771 42.048C324.899 41.6213 324.963 41.1787 324.963 40.72C324.963 40.1547 324.883 39.6107 324.723 39.088C324.573 38.5653 324.328 38.1387 323.987 37.808C323.656 37.4773 323.224 37.312 322.691 37.312C322.253 37.312 321.896 37.4453 321.619 37.712C321.341 37.9787 321.133 38.32 320.995 38.736C320.867 39.152 320.803 39.5947 320.803 40.064C320.803 40.6293 320.883 41.1733 321.043 41.696C321.203 42.2187 321.453 42.6453 321.795 42.976C322.136 43.3067 322.573 43.472 323.107 43.472ZM328.035 44V43.744L329.043 43.232V38.464L328.083 37.632V37.52L330.067 36.64H330.163L330.307 38H330.371C330.616 37.6053 330.84 37.312 331.043 37.12C331.256 36.9173 331.454 36.7893 331.635 36.736C331.816 36.672 331.998 36.64 332.179 36.64C332.264 36.64 332.36 36.656 332.467 36.688C332.584 36.72 332.68 36.752 332.755 36.784C332.872 36.8373 332.979 36.9013 333.075 36.976C333.182 37.0507 333.235 37.136 333.235 37.232C333.235 37.328 333.214 37.424 333.171 37.52L332.851 38.304H332.739L332.131 38.064C332.014 38.0107 331.896 37.9787 331.779 37.968C331.672 37.9573 331.566 37.952 331.459 37.952C331.011 37.952 330.632 38.1813 330.323 38.64V43.232L331.459 43.744V44H328.035ZM340.059 44.16C339.557 44.16 339.141 44.016 338.811 43.728C338.48 43.4293 338.315 43.0187 338.315 42.496C338.315 41.9733 338.507 41.52 338.891 41.136C339.285 40.752 339.941 40.4533 340.859 40.24L342.379 39.888V38.72C342.379 38.3573 342.229 38.048 341.931 37.792C341.643 37.5253 341.312 37.392 340.939 37.392C340.533 37.392 340.251 37.504 340.091 37.728C339.931 37.9413 339.851 38.2293 339.851 38.592V39.04L339.771 39.12H338.939C338.779 39.12 338.667 39.0933 338.603 39.04C338.549 38.9867 338.523 38.864 338.523 38.672C338.523 38.4373 338.592 38.1973 338.731 37.952C338.869 37.7067 339.083 37.4933 339.371 37.312C339.669 37.12 339.979 36.96 340.299 36.832C340.629 36.704 340.981 36.64 341.355 36.64C341.728 36.64 342.091 36.6933 342.443 36.8C342.805 36.9067 343.099 37.088 343.323 37.344C343.547 37.5893 343.659 37.936 343.659 38.384V42.928C343.733 43.0027 343.84 43.0667 343.979 43.12C344.117 43.1733 344.309 43.2 344.555 43.2H345.163L345.211 43.232V43.28C345.083 43.5147 344.891 43.7227 344.635 43.904C344.389 44.0747 344.085 44.16 343.723 44.16C343.392 44.16 343.12 44.0747 342.907 43.904C342.704 43.7227 342.56 43.488 342.475 43.2H342.379C342.101 43.4773 341.755 43.7067 341.339 43.888C340.933 44.0693 340.507 44.16 340.059 44.16ZM339.562 42.176C339.562 42.8373 339.963 43.168 340.763 43.168C341.019 43.168 341.269 43.1413 341.515 43.088C341.771 43.0347 342.059 42.9387 342.379 42.8V40.432C341.525 40.592 340.901 40.7627 340.507 40.944C340.112 41.1147 339.856 41.3013 339.739 41.504C339.621 41.7067 339.562 41.9307 339.562 42.176ZM352.799 44.16C352.297 44.16 351.865 44.1173 351.503 44.032C351.14 43.9467 350.772 43.808 350.399 43.616V41.824H350.623L351.135 42.704C351.465 43.2907 352.004 43.584 352.751 43.584C353.177 43.584 353.508 43.4827 353.743 43.28C353.988 43.0773 354.111 42.8 354.111 42.448C354.111 42.1387 354.036 41.8987 353.887 41.728C353.737 41.5573 353.524 41.408 353.247 41.28C352.98 41.1413 352.66 40.9867 352.287 40.816C351.743 40.5707 351.321 40.304 351.023 40.016C350.735 39.7173 350.591 39.3013 350.591 38.768C350.591 38.3733 350.703 38.016 350.927 37.696C351.151 37.376 351.433 37.12 351.775 36.928C352.127 36.736 352.489 36.64 352.863 36.64C353.257 36.64 353.62 36.688 353.951 36.784C354.281 36.88 354.617 37.0133 354.959 37.184V38.928H354.735L354.207 38.08C354.025 37.792 353.828 37.584 353.615 37.456C353.401 37.328 353.172 37.264 352.927 37.264C352.564 37.264 352.271 37.3547 352.047 37.536C351.833 37.7173 351.727 37.968 351.727 38.288C351.727 38.6507 351.855 38.928 352.111 39.12C352.377 39.3013 352.761 39.5093 353.263 39.744C353.561 39.8933 353.86 40.0427 354.159 40.192C354.468 40.3413 354.719 40.5547 354.911 40.832C355.113 41.0987 355.215 41.4827 355.215 41.984C355.215 42.4533 355.087 42.8533 354.831 43.184C354.575 43.504 354.26 43.7493 353.887 43.92C353.513 44.08 353.151 44.16 352.799 44.16ZM360.441 44.16C359.406 44.16 358.59 43.8453 357.993 43.216C357.396 42.5867 357.097 41.7547 357.097 40.72C357.097 39.92 357.252 39.216 357.561 38.608C357.881 37.9893 358.297 37.5093 358.809 37.168C359.332 36.816 359.897 36.64 360.505 36.64C361.348 36.64 362.009 36.9333 362.489 37.52C362.98 38.1067 363.225 38.9493 363.225 40.048L363.145 40.128H358.361C358.372 40.6187 358.468 41.0827 358.649 41.52C358.83 41.9467 359.118 42.2933 359.513 42.56C359.918 42.8267 360.457 42.96 361.129 42.96C361.716 42.96 362.404 42.7467 363.193 42.32H363.241V42.48C362.996 42.9387 362.628 43.3333 362.137 43.664C361.657 43.9947 361.092 44.16 360.441 44.16ZM360.249 37.344C359.737 37.344 359.316 37.5253 358.985 37.888C358.665 38.24 358.468 38.7413 358.393 39.392H362.009C361.892 38.6667 361.684 38.144 361.385 37.824C361.097 37.504 360.718 37.344 360.249 37.344ZM364.751 44V43.744L365.759 43.232V33.824L364.799 32.992V32.88L366.943 32H367.039V43.232L368.047 43.744V44H364.751ZM369.614 44V43.744L370.622 43.232V37.552H369.374V36.8H370.622V36.16C370.622 35.9467 370.675 35.6693 370.782 35.328C370.889 34.9867 371.043 34.6293 371.246 34.256C371.459 33.872 371.715 33.5093 372.014 33.168C372.313 32.8267 372.649 32.5493 373.022 32.336C373.406 32.112 373.827 32 374.286 32C374.382 32 374.483 32.016 374.59 32.048C374.697 32.08 374.787 32.112 374.862 32.144C375.022 32.2187 375.139 32.288 375.214 32.352C375.299 32.416 375.342 32.496 375.342 32.592C375.342 32.688 375.321 32.784 375.278 32.88L374.958 33.664H374.846L374.414 33.488C374.115 33.3707 373.769 33.312 373.374 33.312C372.787 33.312 372.393 33.4987 372.19 33.872C371.998 34.2347 371.902 34.784 371.902 35.52V36.8H374.014V37.552H371.902V43.264L373.038 43.744V44H369.614ZM374.706 40.448V39.328H379.106V40.448H374.706ZM380.674 47.68V47.424L381.682 46.912V38.464L380.722 37.632V37.52L382.706 36.64H382.802L382.93 37.616H383.042C383.448 37.2747 383.837 37.0293 384.21 36.88C384.584 36.72 384.989 36.64 385.426 36.64C385.97 36.64 386.45 36.7787 386.866 37.056C387.282 37.3333 387.608 37.728 387.842 38.24C388.088 38.7413 388.21 39.344 388.21 40.048C388.21 40.9227 388.045 41.6693 387.714 42.288C387.394 42.896 386.957 43.36 386.402 43.68C385.848 44 385.24 44.16 384.578 44.16C383.981 44.16 383.442 44.1067 382.962 44V46.912L384.098 47.424V47.68H380.674ZM384.546 37.744C384.29 37.744 384.024 37.7867 383.746 37.872C383.48 37.9467 383.218 38.064 382.962 38.224V42.72C383.282 42.976 383.608 43.152 383.938 43.248C384.269 43.344 384.637 43.392 385.042 43.392C385.554 43.392 385.997 43.1787 386.37 42.752C386.744 42.3147 386.93 41.5893 386.93 40.576C386.93 39.9147 386.824 39.376 386.61 38.96C386.397 38.544 386.109 38.24 385.746 38.048C385.384 37.8453 384.984 37.744 384.546 37.744ZM393.383 44.16C392.679 44.16 392.06 43.9947 391.527 43.664C391.004 43.3333 390.593 42.8853 390.295 42.32C390.007 41.7547 389.863 41.1147 389.863 40.4C389.863 39.6853 390.007 39.0453 390.295 38.48C390.593 37.9147 391.004 37.4667 391.527 37.136C392.06 36.8053 392.679 36.64 393.383 36.64C394.087 36.64 394.7 36.8053 395.223 37.136C395.756 37.4667 396.167 37.9147 396.455 38.48C396.753 39.0453 396.903 39.6853 396.903 40.4C396.903 41.1147 396.753 41.7547 396.455 42.32C396.167 42.8853 395.756 43.3333 395.223 43.664C394.7 43.9947 394.087 44.16 393.383 44.16ZM393.607 43.472C394.033 43.472 394.385 43.3387 394.663 43.072C394.94 42.8053 395.143 42.464 395.271 42.048C395.399 41.6213 395.463 41.1787 395.463 40.72C395.463 40.1547 395.383 39.6107 395.223 39.088C395.073 38.5653 394.828 38.1387 394.487 37.808C394.156 37.4773 393.724 37.312 393.191 37.312C392.753 37.312 392.396 37.4453 392.119 37.712C391.841 37.9787 391.633 38.32 391.495 38.736C391.367 39.152 391.303 39.5947 391.303 40.064C391.303 40.6293 391.383 41.1733 391.543 41.696C391.703 42.2187 391.953 42.6453 392.295 42.976C392.636 43.3067 393.073 43.472 393.607 43.472ZM398.535 44V43.744L399.543 43.232V38.464L398.583 37.632V37.52L400.567 36.64H400.663L400.807 38H400.871C401.116 37.6053 401.34 37.312 401.543 37.12C401.756 36.9173 401.954 36.7893 402.135 36.736C402.316 36.672 402.498 36.64 402.679 36.64C402.764 36.64 402.86 36.656 402.967 36.688C403.084 36.72 403.18 36.752 403.255 36.784C403.372 36.8373 403.479 36.9013 403.575 36.976C403.682 37.0507 403.735 37.136 403.735 37.232C403.735 37.328 403.714 37.424 403.671 37.52L403.351 38.304H403.239L402.631 38.064C402.514 38.0107 402.396 37.9787 402.279 37.968C402.172 37.9573 402.066 37.952 401.959 37.952C401.511 37.952 401.132 38.1813 400.823 38.64V43.232L401.959 43.744V44H398.535ZM407.391 44.16C406.921 44.16 406.516 44.0213 406.174 43.744C405.833 43.4667 405.663 43.0773 405.663 42.576V37.552H404.351V37.456L405.711 36.8L406.847 35.04H406.943V36.8H409.055V37.552H406.943V42.304C406.943 42.5813 407.065 42.784 407.311 42.912C407.556 43.04 407.844 43.104 408.174 43.104C408.377 43.104 408.564 43.0933 408.735 43.072C408.916 43.0507 409.071 43.024 409.199 42.992H409.247V43.152C409.14 43.3973 408.927 43.6267 408.607 43.84C408.297 44.0533 407.892 44.16 407.391 44.16ZM410.583 44V43.744L411.591 43.232V37.552H410.343V36.8H411.591V36.16C411.591 35.9467 411.644 35.6693 411.751 35.328C411.857 34.9867 412.012 34.6293 412.215 34.256C412.428 33.872 412.684 33.5093 412.983 33.168C413.281 32.8267 413.617 32.5493 413.991 32.336C414.375 32.112 414.796 32 415.255 32C415.351 32 415.452 32.016 415.559 32.048C415.665 32.08 415.756 32.112 415.831 32.144C415.991 32.2187 416.108 32.288 416.183 32.352C416.268 32.416 416.311 32.496 416.311 32.592C416.311 32.688 416.289 32.784 416.247 32.88L415.927 33.664H415.815L415.383 33.488C415.084 33.3707 414.737 33.312 414.343 33.312C413.756 33.312 413.361 33.4987 413.159 33.872C412.967 34.2347 412.871 34.784 412.871 35.52V36.8H414.983V37.552H412.871V43.264L414.007 43.744V44H410.583ZM419.508 44.16C418.804 44.16 418.185 43.9947 417.652 43.664C417.129 43.3333 416.718 42.8853 416.42 42.32C416.132 41.7547 415.988 41.1147 415.988 40.4C415.988 39.6853 416.132 39.0453 416.42 38.48C416.718 37.9147 417.129 37.4667 417.652 37.136C418.185 36.8053 418.804 36.64 419.508 36.64C420.212 36.64 420.825 36.8053 421.348 37.136C421.881 37.4667 422.292 37.9147 422.58 38.48C422.878 39.0453 423.028 39.6853 423.028 40.4C423.028 41.1147 422.878 41.7547 422.58 42.32C422.292 42.8853 421.881 43.3333 421.348 43.664C420.825 43.9947 420.212 44.16 419.508 44.16ZM419.732 43.472C420.158 43.472 420.51 43.3387 420.788 43.072C421.065 42.8053 421.268 42.464 421.396 42.048C421.524 41.6213 421.588 41.1787 421.588 40.72C421.588 40.1547 421.508 39.6107 421.348 39.088C421.198 38.5653 420.953 38.1387 420.612 37.808C420.281 37.4773 419.849 37.312 419.316 37.312C418.878 37.312 418.521 37.4453 418.244 37.712C417.966 37.9787 417.758 38.32 417.62 38.736C417.492 39.152 417.428 39.5947 417.428 40.064C417.428 40.6293 417.508 41.1733 417.668 41.696C417.828 42.2187 418.078 42.6453 418.42 42.976C418.761 43.3067 419.198 43.472 419.732 43.472ZM424.532 44V43.744L425.54 43.232V33.824L424.58 32.992V32.88L426.724 32H426.82V43.232L427.828 43.744V44H424.532ZM430.995 34.704C430.718 34.704 430.489 34.6133 430.307 34.432C430.126 34.24 430.035 34.0107 430.035 33.744C430.035 33.4667 430.126 33.2373 430.307 33.056C430.489 32.8747 430.718 32.784 430.995 32.784C431.273 32.784 431.502 32.8747 431.683 33.056C431.865 33.2373 431.955 33.4667 431.955 33.744C431.955 34.0107 431.865 34.24 431.683 34.432C431.502 34.6133 431.273 34.704 430.995 34.704ZM429.395 44V43.744L430.403 43.232V38.464L429.443 37.632V37.52L431.587 36.64H431.683V43.232L432.691 43.744V44H429.395ZM437.867 44.16C437.163 44.16 436.544 43.9947 436.011 43.664C435.488 43.3333 435.078 42.8853 434.779 42.32C434.491 41.7547 434.347 41.1147 434.347 40.4C434.347 39.6853 434.491 39.0453 434.779 38.48C435.078 37.9147 435.488 37.4667 436.011 37.136C436.544 36.8053 437.163 36.64 437.867 36.64C438.571 36.64 439.184 36.8053 439.707 37.136C440.24 37.4667 440.651 37.9147 440.939 38.48C441.238 39.0453 441.387 39.6853 441.387 40.4C441.387 41.1147 441.238 41.7547 440.939 42.32C440.651 42.8853 440.24 43.3333 439.707 43.664C439.184 43.9947 438.571 44.16 437.867 44.16ZM438.091 43.472C438.518 43.472 438.87 43.3387 439.147 43.072C439.424 42.8053 439.627 42.464 439.755 42.048C439.883 41.6213 439.947 41.1787 439.947 40.72C439.947 40.1547 439.867 39.6107 439.707 39.088C439.558 38.5653 439.312 38.1387 438.971 37.808C438.64 37.4773 438.208 37.312 437.675 37.312C437.238 37.312 436.88 37.4453 436.603 37.712C436.326 37.9787 436.118 38.32 435.979 38.736C435.851 39.152 435.787 39.5947 435.787 40.064C435.787 40.6293 435.867 41.1733 436.027 41.696C436.187 42.2187 436.438 42.6453 436.779 42.976C437.12 43.3067 437.558 43.472 438.091 43.472ZM446.188 45.92L449.388 32H450.188L446.988 45.92H446.188Z" fill="black"/>
<path d="M457.676 44.16C457.142 44.16 456.662 44.0267 456.236 43.76C455.82 43.4933 455.489 43.12 455.243 42.64C455.009 42.1493 454.892 41.568 454.892 40.896C454.892 39.9893 455.068 39.2213 455.42 38.592C455.772 37.952 456.241 37.4667 456.828 37.136C457.414 36.8053 458.054 36.64 458.748 36.64C459.046 36.64 459.308 36.656 459.532 36.688C459.756 36.7093 459.958 36.7413 460.14 36.784V33.824L459.1 32.992V32.88L461.324 32H461.42V43.28L462.556 43.744V44H460.3L460.172 43.184H460.06C459.654 43.5253 459.26 43.776 458.876 43.936C458.502 44.0853 458.102 44.16 457.676 44.16ZM456.172 40.528C456.172 41.4133 456.406 42.0587 456.876 42.464C457.345 42.8587 457.905 43.056 458.556 43.056C458.812 43.056 459.073 43.0187 459.34 42.944C459.617 42.8587 459.884 42.736 460.14 42.576V38.096C459.884 37.872 459.628 37.7067 459.372 37.6C459.126 37.4827 458.849 37.424 458.54 37.424C458.113 37.424 457.718 37.5307 457.356 37.744C457.004 37.9467 456.716 38.2773 456.492 38.736C456.278 39.184 456.172 39.7813 456.172 40.528ZM467.445 44.16C466.741 44.16 466.122 43.9947 465.589 43.664C465.066 43.3333 464.656 42.8853 464.357 42.32C464.069 41.7547 463.925 41.1147 463.925 40.4C463.925 39.6853 464.069 39.0453 464.357 38.48C464.656 37.9147 465.066 37.4667 465.589 37.136C466.122 36.8053 466.741 36.64 467.445 36.64C468.149 36.64 468.762 36.8053 469.285 37.136C469.818 37.4667 470.229 37.9147 470.517 38.48C470.816 39.0453 470.965 39.6853 470.965 40.4C470.965 41.1147 470.816 41.7547 470.517 42.32C470.229 42.8853 469.818 43.3333 469.285 43.664C468.762 43.9947 468.149 44.16 467.445 44.16ZM467.669 43.472C468.096 43.472 468.448 43.3387 468.725 43.072C469.002 42.8053 469.205 42.464 469.333 42.048C469.461 41.6213 469.525 41.1787 469.525 40.72C469.525 40.1547 469.445 39.6107 469.285 39.088C469.136 38.5653 468.89 38.1387 468.549 37.808C468.218 37.4773 467.786 37.312 467.253 37.312C466.816 37.312 466.458 37.4453 466.181 37.712C465.904 37.9787 465.696 38.32 465.557 38.736C465.429 39.152 465.365 39.5947 465.365 40.064C465.365 40.6293 465.445 41.1733 465.605 41.696C465.765 42.2187 466.016 42.6453 466.357 42.976C466.698 43.3067 467.136 43.472 467.669 43.472ZM474.982 44L472.47 37.552L471.398 37.056V36.8H475.222V37.056L473.91 37.536V37.632L475.574 42.064H475.638L477.91 36.8H478.246L480.518 42.016H480.582L482.198 37.728V37.632L481.046 37.056V36.8H484.182V37.056L482.998 37.616L480.326 44H479.99L477.686 38.784L475.318 44H474.982ZM484.581 44V43.744L485.589 43.232V38.464L484.629 37.632V37.52L486.613 36.64H486.709L486.853 37.824H486.933C487.338 37.4187 487.727 37.12 488.101 36.928C488.485 36.736 488.906 36.64 489.365 36.64C489.994 36.64 490.506 36.8 490.901 37.12C491.306 37.4293 491.509 37.8933 491.509 38.512V43.232L492.517 43.744V44H489.093V43.744L490.229 43.232V39.264C490.229 38.7947 490.079 38.4373 489.781 38.192C489.493 37.9467 489.114 37.824 488.645 37.824C488.357 37.824 488.037 37.872 487.685 37.968C487.343 38.064 487.071 38.2027 486.869 38.384V43.232L488.005 43.744V44H484.581ZM493.829 44V43.744L494.837 43.232V33.824L493.877 32.992V32.88L496.021 32H496.117V43.232L497.125 43.744V44H493.829ZM502.148 44.16C501.444 44.16 500.825 43.9947 500.292 43.664C499.769 43.3333 499.359 42.8853 499.06 42.32C498.772 41.7547 498.628 41.1147 498.628 40.4C498.628 39.6853 498.772 39.0453 499.06 38.48C499.359 37.9147 499.769 37.4667 500.292 37.136C500.825 36.8053 501.444 36.64 502.148 36.64C502.852 36.64 503.465 36.8053 503.988 37.136C504.521 37.4667 504.932 37.9147 505.22 38.48C505.519 39.0453 505.668 39.6853 505.668 40.4C505.668 41.1147 505.519 41.7547 505.22 42.32C504.932 42.8853 504.521 43.3333 503.988 43.664C503.465 43.9947 502.852 44.16 502.148 44.16ZM502.372 43.472C502.799 43.472 503.151 43.3387 503.428 43.072C503.705 42.8053 503.908 42.464 504.036 42.048C504.164 41.6213 504.228 41.1787 504.228 40.72C504.228 40.1547 504.148 39.6107 503.988 39.088C503.839 38.5653 503.593 38.1387 503.252 37.808C502.921 37.4773 502.489 37.312 501.956 37.312C501.519 37.312 501.161 37.4453 500.884 37.712C500.607 37.9787 500.399 38.32 500.26 38.736C500.132 39.152 500.068 39.5947 500.068 40.064C500.068 40.6293 500.148 41.1733 500.308 41.696C500.468 42.2187 500.719 42.6453 501.06 42.976C501.401 43.3067 501.839 43.472 502.372 43.472ZM509.043 44.16C508.542 44.16 508.126 44.016 507.795 43.728C507.464 43.4293 507.299 43.0187 507.299 42.496C507.299 41.9733 507.491 41.52 507.875 41.136C508.27 40.752 508.926 40.4533 509.843 40.24L511.363 39.888V38.72C511.363 38.3573 511.214 38.048 510.915 37.792C510.627 37.5253 510.296 37.392 509.923 37.392C509.518 37.392 509.235 37.504 509.075 37.728C508.915 37.9413 508.835 38.2293 508.835 38.592V39.04L508.755 39.12H507.923C507.763 39.12 507.651 39.0933 507.587 39.04C507.534 38.9867 507.507 38.864 507.507 38.672C507.507 38.4373 507.576 38.1973 507.715 37.952C507.854 37.7067 508.067 37.4933 508.355 37.312C508.654 37.12 508.963 36.96 509.283 36.832C509.614 36.704 509.966 36.64 510.339 36.64C510.712 36.64 511.075 36.6933 511.427 36.8C511.79 36.9067 512.083 37.088 512.307 37.344C512.531 37.5893 512.643 37.936 512.643 38.384V42.928C512.718 43.0027 512.824 43.0667 512.963 43.12C513.102 43.1733 513.294 43.2 513.539 43.2H514.147L514.195 43.232V43.28C514.067 43.5147 513.875 43.7227 513.619 43.904C513.374 44.0747 513.07 44.16 512.707 44.16C512.376 44.16 512.104 44.0747 511.891 43.904C511.688 43.7227 511.544 43.488 511.459 43.2H511.363C511.086 43.4773 510.739 43.7067 510.323 43.888C509.918 44.0693 509.491 44.16 509.043 44.16ZM508.547 42.176C508.547 42.8373 508.947 43.168 509.747 43.168C510.003 43.168 510.254 43.1413 510.499 43.088C510.755 43.0347 511.043 42.9387 511.363 42.8V40.432C510.51 40.592 509.886 40.7627 509.491 40.944C509.096 41.1147 508.84 41.3013 508.723 41.504C508.606 41.7067 508.547 41.9307 508.547 42.176ZM517.863 44.16C517.33 44.16 516.85 44.0267 516.423 43.76C516.007 43.4933 515.676 43.12 515.431 42.64C515.196 42.1493 515.079 41.568 515.079 40.896C515.079 39.9893 515.255 39.2213 515.607 38.592C515.959 37.952 516.428 37.4667 517.015 37.136C517.602 36.8053 518.242 36.64 518.935 36.64C519.234 36.64 519.495 36.656 519.719 36.688C519.943 36.7093 520.146 36.7413 520.327 36.784V33.824L519.287 32.992V32.88L521.511 32H521.607V43.28L522.743 43.744V44H520.487L520.359 43.184H520.247C519.842 43.5253 519.447 43.776 519.063 43.936C518.69 44.0853 518.29 44.16 517.863 44.16ZM516.359 40.528C516.359 41.4133 516.594 42.0587 517.063 42.464C517.532 42.8587 518.092 43.056 518.743 43.056C518.999 43.056 519.26 43.0187 519.527 42.944C519.804 42.8587 520.071 42.736 520.327 42.576V38.096C520.071 37.872 519.815 37.7067 519.559 37.6C519.314 37.4827 519.036 37.424 518.727 37.424C518.3 37.424 517.906 37.5307 517.543 37.744C517.191 37.9467 516.903 38.2773 516.679 38.736C516.466 39.184 516.359 39.7813 516.359 40.528Z" fill="#BABCBE"/>
<g clip-path="url(#clip0_433_158)">
<path d="M126 33.6666L125.06 34.6066L128.78 38.3333H120.667V39.6666H128.78L125.053 43.3866L126 44.3333L131.333 38.9999L126 33.6666Z" fill="black"/>
</g>
<path d="M407.5 243C403.358 243 400 246.358 400 250.5V345.5C400 349.642 403.358 353 407.5 353H472.5C476.642 353 480 349.642 480 345.5V273L450 243H407.5Z" fill="#F4B70A"/>
<path d="M407.5 353C403.358 353 400 349.642 400 345.5V344.25C400 348.392 403.358 351.75 407.5 351.75H472.5C476.642 351.75 480 348.392 480 344.25V345.5C480 349.642 476.642 353 472.5 353H407.5Z" fill="#EFA904"/>
<path d="M407.5 243C403.358 243 400 246.358 400 250.5V251.75C400 247.608 403.358 244.25 407.5 244.25H451.25L450 243H407.5Z" fill="#F6C028"/>
<path d="M480 298.625V273L475.625 268.625H454.527C452.856 268.625 452.02 270.645 453.201 271.826L480 298.625Z" fill="url(#paint0_linear_433_158)"/>
<path d="M450 243L480 273H457.5C453.358 273 450 269.642 450 265.5V243Z" fill="#FADC87"/>
<path fill-rule="evenodd" clip-rule="evenodd" d="M422.5 293C421.119 293 420 294.119 420 295.5V330.5C420 331.881 421.119 333 422.5 333H457.5C458.881 333 460 331.881 460 330.5V295.5C460 294.119 458.881 293 457.5 293H422.5ZM455 304.25H425V321.75H455V304.25Z" fill="white"/>
<path d="M385.15 377.8V367.12H387.226V367.372H385.774V377.548H387.226V377.8H385.15ZM387.948 378.76V378.568L388.704 378.268V371.524L387.924 371.116V370.984L389.328 370.48H389.424L389.496 371.212H389.568C389.872 370.956 390.164 370.772 390.444 370.66C390.732 370.54 391.04 370.48 391.368 370.48C391.768 370.48 392.124 370.584 392.436 370.792C392.748 371 392.992 371.296 393.168 371.68C393.352 372.056 393.444 372.508 393.444 373.036C393.444 373.692 393.32 374.252 393.072 374.716C392.824 375.172 392.492 375.52 392.076 375.76C391.66 376 391.2 376.12 390.696 376.12C390.48 376.12 390.272 376.1 390.072 376.06C389.88 376.028 389.696 375.984 389.52 375.928V378.268L390.372 378.568V378.76H387.948ZM390.84 371.14C390.36 371.14 389.92 371.292 389.52 371.596V375.148C389.76 375.332 390.004 375.464 390.252 375.544C390.5 375.616 390.772 375.652 391.068 375.652C391.356 375.652 391.62 375.576 391.86 375.424C392.1 375.272 392.292 375.028 392.436 374.692C392.58 374.348 392.652 373.9 392.652 373.348C392.652 372.836 392.568 372.42 392.4 372.1C392.232 371.772 392.008 371.532 391.728 371.38C391.456 371.22 391.16 371.14 390.84 371.14ZM397.313 376.12C396.801 376.12 396.353 375.996 395.969 375.748C395.585 375.5 395.285 375.164 395.069 374.74C394.853 374.316 394.745 373.836 394.745 373.3C394.745 372.764 394.853 372.284 395.069 371.86C395.285 371.436 395.585 371.1 395.969 370.852C396.353 370.604 396.801 370.48 397.313 370.48C397.825 370.48 398.273 370.604 398.657 370.852C399.041 371.1 399.341 371.436 399.557 371.86C399.773 372.284 399.881 372.764 399.881 373.3C399.881 373.836 399.773 374.316 399.557 374.74C399.341 375.164 399.041 375.5 398.657 375.748C398.273 375.996 397.825 376.12 397.313 376.12ZM397.481 375.7C397.817 375.7 398.097 375.596 398.321 375.388C398.545 375.18 398.713 374.912 398.825 374.584C398.937 374.248 398.993 373.9 398.993 373.54C398.993 373.084 398.925 372.656 398.789 372.256C398.661 371.848 398.461 371.52 398.189 371.272C397.925 371.016 397.585 370.888 397.169 370.888C396.833 370.888 396.549 370.988 396.317 371.188C396.093 371.388 395.921 371.652 395.801 371.98C395.689 372.308 395.633 372.664 395.633 373.048C395.633 373.512 395.701 373.948 395.837 374.356C395.973 374.756 396.177 375.08 396.449 375.328C396.721 375.576 397.065 375.7 397.481 375.7ZM401.156 376V375.808L401.912 375.508V371.524L401.132 371.116V370.984L402.536 370.48H402.632L402.716 371.524H402.752C402.992 371.212 403.192 370.984 403.352 370.84C403.52 370.688 403.672 370.592 403.808 370.552C403.944 370.504 404.08 370.48 404.216 370.48C404.28 370.48 404.352 370.492 404.432 370.516C404.512 370.532 404.576 370.552 404.624 370.576C404.712 370.608 404.784 370.648 404.84 370.696C404.896 370.744 404.924 370.796 404.924 370.852C404.924 370.876 404.92 370.904 404.912 370.936C404.912 370.968 404.904 371 404.888 371.032L404.696 371.512H404.636L404.276 371.356C404.132 371.3 403.972 371.272 403.796 371.272C403.596 371.272 403.408 371.324 403.232 371.428C403.056 371.532 402.888 371.704 402.728 371.944V375.508L403.604 375.808V376H401.156ZM407.514 376.12C407.17 376.12 406.878 376.016 406.638 375.808C406.406 375.6 406.29 375.308 406.29 374.932V371.104H405.282V371.008L406.35 370.6L407.01 369.28H407.106V370.6H408.69V371.104H407.106V374.8C407.106 375.024 407.19 375.192 407.358 375.304C407.526 375.408 407.738 375.46 407.994 375.46C408.154 375.46 408.302 375.448 408.438 375.424C408.574 375.392 408.698 375.356 408.81 375.316L408.834 375.328V375.412C408.754 375.572 408.602 375.732 408.378 375.892C408.162 376.044 407.874 376.12 407.514 376.12ZM409.887 376V375.808L410.643 375.508V371.104H409.659V370.6H410.643V370.12C410.643 369.92 410.679 369.688 410.751 369.424C410.831 369.152 410.943 368.876 411.087 368.596C411.239 368.316 411.423 368.056 411.639 367.816C411.855 367.576 412.103 367.38 412.383 367.228C412.663 367.076 412.975 367 413.319 367C413.383 367 413.447 367.012 413.511 367.036C413.583 367.052 413.639 367.068 413.679 367.084C413.871 367.164 413.967 367.256 413.967 367.36C413.967 367.384 413.963 367.416 413.955 367.456C413.955 367.488 413.947 367.52 413.931 367.552L413.739 368.032H413.679L413.379 367.924C413.147 367.836 412.895 367.792 412.623 367.792C412.199 367.792 411.899 367.944 411.723 368.248C411.547 368.544 411.459 369.008 411.459 369.64V370.6H413.043V371.104H411.459V375.52L412.335 375.808V376H409.887ZM416.402 376.12C415.89 376.12 415.442 375.996 415.058 375.748C414.674 375.5 414.374 375.164 414.158 374.74C413.942 374.316 413.834 373.836 413.834 373.3C413.834 372.764 413.942 372.284 414.158 371.86C414.374 371.436 414.674 371.1 415.058 370.852C415.442 370.604 415.89 370.48 416.402 370.48C416.914 370.48 417.362 370.604 417.746 370.852C418.13 371.1 418.43 371.436 418.646 371.86C418.862 372.284 418.97 372.764 418.97 373.3C418.97 373.836 418.862 374.316 418.646 374.74C418.43 375.164 418.13 375.5 417.746 375.748C417.362 375.996 416.914 376.12 416.402 376.12ZM416.57 375.7C416.906 375.7 417.186 375.596 417.41 375.388C417.634 375.18 417.802 374.912 417.914 374.584C418.026 374.248 418.082 373.9 418.082 373.54C418.082 373.084 418.014 372.656 417.878 372.256C417.75 371.848 417.55 371.52 417.278 371.272C417.014 371.016 416.674 370.888 416.258 370.888C415.922 370.888 415.638 370.988 415.406 371.188C415.182 371.388 415.01 371.652 414.89 371.98C414.778 372.308 414.722 372.664 414.722 373.048C414.722 373.512 414.79 373.948 414.926 374.356C415.062 374.756 415.266 375.08 415.538 375.328C415.81 375.576 416.154 375.7 416.57 375.7ZM420.15 376V375.808L420.906 375.508V368.044L420.126 367.576V367.456L421.626 367H421.722V375.508L422.514 375.808V376H420.15ZM424.807 368.848C424.631 368.848 424.483 368.792 424.363 368.68C424.251 368.56 424.195 368.412 424.195 368.236C424.195 368.052 424.251 367.904 424.363 367.792C424.483 367.68 424.631 367.624 424.807 367.624C424.991 367.624 425.139 367.68 425.251 367.792C425.363 367.904 425.419 368.052 425.419 368.236C425.419 368.412 425.363 368.56 425.251 368.68C425.139 368.792 424.991 368.848 424.807 368.848ZM423.739 376V375.808L424.495 375.508V371.524L423.715 371.056V370.936L425.215 370.48H425.311V375.508L426.103 375.808V376H423.739ZM429.902 376.12C429.39 376.12 428.942 375.996 428.558 375.748C428.174 375.5 427.874 375.164 427.658 374.74C427.442 374.316 427.334 373.836 427.334 373.3C427.334 372.764 427.442 372.284 427.658 371.86C427.874 371.436 428.174 371.1 428.558 370.852C428.942 370.604 429.39 370.48 429.902 370.48C430.414 370.48 430.862 370.604 431.246 370.852C431.63 371.1 431.93 371.436 432.146 371.86C432.362 372.284 432.47 372.764 432.47 373.3C432.47 373.836 432.362 374.316 432.146 374.74C431.93 375.164 431.63 375.5 431.246 375.748C430.862 375.996 430.414 376.12 429.902 376.12ZM430.07 375.7C430.406 375.7 430.686 375.596 430.91 375.388C431.134 375.18 431.302 374.912 431.414 374.584C431.526 374.248 431.582 373.9 431.582 373.54C431.582 373.084 431.514 372.656 431.378 372.256C431.25 371.848 431.05 371.52 430.778 371.272C430.514 371.016 430.174 370.888 429.758 370.888C429.422 370.888 429.138 370.988 428.906 371.188C428.682 371.388 428.51 371.652 428.39 371.98C428.278 372.308 428.222 372.664 428.222 373.048C428.222 373.512 428.29 373.948 428.426 374.356C428.562 374.756 428.766 375.08 429.038 375.328C429.31 375.576 429.654 375.7 430.07 375.7ZM434.373 376.06C434.197 376.06 434.045 375.996 433.917 375.868C433.789 375.732 433.725 375.576 433.725 375.4C433.725 375.224 433.789 375.072 433.917 374.944C434.045 374.816 434.197 374.752 434.373 374.752C434.549 374.752 434.701 374.816 434.829 374.944C434.965 375.072 435.033 375.224 435.033 375.4C435.033 375.576 434.965 375.732 434.829 375.868C434.701 375.996 434.549 376.06 434.373 376.06ZM436.429 378.76V378.568L437.185 378.268V371.524L436.405 371.116V370.984L437.809 370.48H437.905L437.977 371.212H438.049C438.353 370.956 438.645 370.772 438.925 370.66C439.213 370.54 439.521 370.48 439.849 370.48C440.249 370.48 440.605 370.584 440.917 370.792C441.229 371 441.473 371.296 441.649 371.68C441.833 372.056 441.925 372.508 441.925 373.036C441.925 373.692 441.801 374.252 441.553 374.716C441.305 375.172 440.973 375.52 440.557 375.76C440.141 376 439.681 376.12 439.177 376.12C438.961 376.12 438.753 376.1 438.553 376.06C438.361 376.028 438.177 375.984 438.001 375.928V378.268L438.853 378.568V378.76H436.429ZM439.321 371.14C438.841 371.14 438.401 371.292 438.001 371.596V375.148C438.241 375.332 438.485 375.464 438.733 375.544C438.981 375.616 439.253 375.652 439.549 375.652C439.837 375.652 440.101 375.576 440.341 375.424C440.581 375.272 440.773 375.028 440.917 374.692C441.061 374.348 441.133 373.9 441.133 373.348C441.133 372.836 441.049 372.42 440.881 372.1C440.713 371.772 440.489 371.532 440.209 371.38C439.937 371.22 439.641 371.14 439.321 371.14ZM445.253 376.12C444.853 376.12 444.497 376.02 444.185 375.82C443.873 375.62 443.625 375.332 443.441 374.956C443.265 374.58 443.177 374.136 443.177 373.624C443.177 372.952 443.305 372.384 443.561 371.92C443.825 371.448 444.173 371.092 444.605 370.852C445.045 370.604 445.521 370.48 446.033 370.48C446.241 370.48 446.433 370.496 446.609 370.528C446.785 370.56 446.949 370.604 447.101 370.66V368.044L446.285 367.576V367.456L447.821 367H447.917V375.52L448.769 375.808V376H447.221L447.113 375.388H447.053C446.757 375.636 446.465 375.82 446.177 375.94C445.889 376.06 445.581 376.12 445.253 376.12ZM443.969 373.384C443.969 373.864 444.053 374.256 444.221 374.56C444.389 374.864 444.609 375.092 444.881 375.244C445.161 375.388 445.461 375.46 445.781 375.46C446.005 375.46 446.229 375.424 446.453 375.352C446.685 375.272 446.901 375.156 447.101 375.004V371.428C446.885 371.276 446.673 371.16 446.465 371.08C446.257 371 446.025 370.96 445.769 370.96C445.449 370.96 445.149 371.04 444.869 371.2C444.597 371.36 444.377 371.62 444.209 371.98C444.049 372.332 443.969 372.8 443.969 373.384ZM449.954 376V375.808L450.71 375.508V371.104H449.726V370.6H450.71V370.12C450.71 369.92 450.746 369.688 450.818 369.424C450.898 369.152 451.01 368.876 451.154 368.596C451.306 368.316 451.49 368.056 451.706 367.816C451.922 367.576 452.17 367.38 452.45 367.228C452.73 367.076 453.042 367 453.386 367C453.45 367 453.514 367.012 453.578 367.036C453.65 367.052 453.706 367.068 453.746 367.084C453.938 367.164 454.034 367.256 454.034 367.36C454.034 367.384 454.03 367.416 454.022 367.456C454.022 367.488 454.014 367.52 453.998 367.552L453.806 368.032H453.746L453.446 367.924C453.214 367.836 452.962 367.792 452.69 367.792C452.266 367.792 451.966 367.944 451.79 368.248C451.614 368.544 451.526 369.008 451.526 369.64V370.6H453.11V371.104H451.526V375.52L452.402 375.808V376H449.954ZM453.68 378.388V378.148C454.328 377.804 454.652 377.376 454.652 376.864C454.652 376.64 454.596 376.456 454.484 376.312C454.38 376.168 454.24 376.044 454.064 375.94L453.692 375.712L453.668 375.616L453.944 375.148C454.04 374.98 454.136 374.896 454.232 374.896C454.32 374.896 454.416 374.928 454.52 374.992C454.76 375.128 454.94 375.32 455.06 375.568C455.188 375.816 455.252 376.084 455.252 376.372C455.252 376.756 455.132 377.124 454.892 377.476C454.652 377.836 454.248 378.14 453.68 378.388ZM460.727 376V375.76L461.795 375.4V369.088L459.827 370.144V369.748L462.431 368.08H462.647V375.4L463.595 375.76V376H460.727ZM466.283 376.06C466.107 376.06 465.955 375.996 465.827 375.868C465.699 375.732 465.635 375.576 465.635 375.4C465.635 375.224 465.699 375.072 465.827 374.944C465.955 374.816 466.107 374.752 466.283 374.752C466.459 374.752 466.611 374.816 466.739 374.944C466.875 375.072 466.943 375.224 466.943 375.4C466.943 375.576 466.875 375.732 466.739 375.868C466.611 375.996 466.459 376.06 466.283 376.06ZM469.575 376V375.76L470.643 375.4V369.088L468.675 370.144V369.748L471.279 368.08H471.495V375.4L472.443 375.76V376H469.575ZM474.435 376V375.76L475.383 375.4L475.635 368.704L474.603 368.32V368.08H476.679L479.499 374.656L482.355 368.08H484.347V368.32L483.339 368.692L483.543 375.4L484.383 375.76V376H481.743V375.76L482.631 375.412L482.499 369.196L479.523 376.06H479.103L476.187 369.22L476.043 375.412L477.015 375.76V376H474.435ZM485.885 376V375.76L486.833 375.4V368.68L485.885 368.32V368.08H488.573C489.093 368.08 489.565 368.148 489.989 368.284C490.413 368.412 490.749 368.608 490.997 368.872C491.245 369.128 491.369 369.456 491.369 369.856C491.369 370.272 491.229 370.656 490.949 371.008C490.677 371.352 490.285 371.6 489.773 371.752C490.493 371.848 491.053 372.064 491.453 372.4C491.853 372.736 492.053 373.168 492.053 373.696C492.053 374.136 491.913 374.532 491.633 374.884C491.361 375.228 490.989 375.5 490.517 375.7C490.045 375.9 489.505 376 488.897 376H485.885ZM488.441 368.644H487.769V371.632H488.513C489.081 371.632 489.533 371.504 489.869 371.248C490.205 370.992 490.373 370.632 490.373 370.168C490.373 369.664 490.209 369.284 489.881 369.028C489.553 368.772 489.073 368.644 488.441 368.644ZM488.897 372.196H487.769V375.448H488.981C489.613 375.448 490.117 375.296 490.493 374.992C490.869 374.68 491.057 374.288 491.057 373.816C491.057 373.256 490.865 372.848 490.481 372.592C490.105 372.328 489.577 372.196 488.897 372.196ZM492.772 377.8V377.548H494.224V367.372H492.772V367.12H494.848V377.8H492.772Z" fill="black"/>
<defs>
<linearGradient id="paint0_linear_433_158" x1="466.324" y1="298.625" x2="466.324" y2="268" gradientUnits="userSpaceOnUse">
<stop stop-color="#F4B70A"/>
<stop offset="1" stop-color="#E2930A"/>
</linearGradient>
<clipPath id="clip0_433_158">
<rect width="16" height="16" fill="white" transform="translate(118 47) rotate(-90)"/>
</clipPath>
</defs>
</svg>
