<svg width="408" height="272" viewBox="0 0 408 272" fill="none" xmlns="http://www.w3.org/2000/svg">
<g filter="url(#filter0_d_1398_318)">
<rect x="4" width="400" height="264" rx="16" fill="white"/>
</g>
<path d="M134.009 187.736C131.678 187.736 129.716 186.939 128.121 185.344C126.526 183.627 125.729 181.664 125.729 179.456C125.729 177.248 126.526 175.347 128.121 173.752C129.716 172.035 131.678 171.176 134.009 171.176C136.34 171.176 138.302 172.035 139.897 173.752C141.492 175.347 142.289 177.248 142.289 179.456C142.289 181.664 141.492 183.627 139.897 185.344C138.302 186.939 136.34 187.736 134.009 187.736ZM134.009 118.92C131.678 118.92 129.716 118.123 128.121 116.528C126.526 114.811 125.729 112.848 125.729 110.64C125.729 108.432 126.526 106.531 128.121 104.936C129.716 103.219 131.678 102.36 134.009 102.36C136.34 102.36 138.302 103.219 139.897 104.936C141.492 106.531 142.289 108.432 142.289 110.64C142.289 112.848 141.492 114.811 139.897 116.528C138.302 118.123 136.34 118.92 134.009 118.92ZM165.799 187V184.24L177.391 181.112V110.456H161.199V104.2H177.391V96.84C177.391 91.9333 178.189 86.72 179.783 81.2C181.501 75.68 183.954 70.4667 187.143 65.56C190.455 60.6533 194.565 56.6667 199.471 53.6C204.378 50.5333 210.082 49 216.583 49C218.178 49 219.589 49.2453 220.815 49.736C222.778 50.5947 223.759 51.576 223.759 52.68C223.759 53.416 223.575 54.2133 223.207 55.072L221.183 60.04H220.815L216.951 58.752C213.149 57.5253 209.469 56.912 205.911 56.912C199.655 56.912 194.871 59.488 191.559 64.64C188.247 69.792 186.591 78.072 186.591 89.48V104.2H210.879V110.456H186.591V181.112L200.759 184.24V187H165.799ZM263.334 188.84C254.747 188.84 247.51 187 241.622 183.32C235.856 179.64 231.44 174.672 228.374 168.416C225.43 162.16 223.958 155.107 223.958 147.256C223.958 138.669 225.675 131.003 229.11 124.256C232.667 117.387 237.512 112.051 243.646 108.248C249.902 104.323 256.955 102.36 264.806 102.36C269.712 102.36 274.067 103.035 277.87 104.384C281.672 105.733 284.739 107.205 287.07 108.8C290.995 111.499 292.958 113.829 292.958 115.792C292.958 116.651 292.528 117.448 291.67 118.184L286.702 122.416H285.966L283.574 119.104C280.875 115.424 277.931 112.419 274.742 110.088C271.675 107.635 267.688 106.408 262.782 106.408C254.195 106.408 247.08 109.659 241.438 116.16C235.918 122.539 233.158 132.107 233.158 144.864C233.158 155.659 235.979 164.429 241.622 171.176C247.387 177.8 255.483 181.112 265.91 181.112C271.552 181.112 276.766 180.253 281.55 178.536C286.334 176.819 290.075 174.488 292.774 171.544H293.326V173.936C290.504 178.229 286.518 181.787 281.366 184.608C276.214 187.429 270.203 188.84 263.334 188.84Z" fill="black"/>
<defs>
<filter id="filter0_d_1398_318" x="0" y="0" width="408" height="272" filterUnits="userSpaceOnUse" color-interpolation-filters="sRGB">
<feFlood flood-opacity="0" result="BackgroundImageFix"/>
<feColorMatrix in="SourceAlpha" type="matrix" values="0 0 0 0 0 0 0 0 0 0 0 0 0 0 0 0 0 0 127 0" result="hardAlpha"/>
<feOffset dy="4"/>
<feGaussianBlur stdDeviation="2"/>
<feComposite in2="hardAlpha" operator="out"/>
<feColorMatrix type="matrix" values="0 0 0 0 0 0 0 0 0 0 0 0 0 0 0 0 0 0 0.25 0"/>
<feBlend mode="normal" in2="BackgroundImageFix" result="effect1_dropShadow_1398_318"/>
<feBlend mode="normal" in="SourceGraphic" in2="effect1_dropShadow_1398_318" result="shape"/>
</filter>
</defs>
</svg>
