<svg width="428" height="288" viewBox="0 0 428 288" fill="none" xmlns="http://www.w3.org/2000/svg">
<g filter="url(#filter0_d_834_171)">
<rect x="4" width="420" height="280" rx="16" fill="white"/>
</g>
<path d="M140.259 195.736C137.928 195.736 135.966 194.939 134.371 193.344C132.776 191.627 131.979 189.664 131.979 187.456C131.979 185.248 132.776 183.347 134.371 181.752C135.966 180.035 137.928 179.176 140.259 179.176C142.59 179.176 144.552 180.035 146.147 181.752C147.742 183.347 148.539 185.248 148.539 187.456C148.539 189.664 147.742 191.627 146.147 193.344C144.552 194.939 142.59 195.736 140.259 195.736ZM140.259 126.92C137.928 126.92 135.966 126.123 134.371 124.528C132.776 122.811 131.979 120.848 131.979 118.64C131.979 116.432 132.776 114.531 134.371 112.936C135.966 111.219 137.928 110.36 140.259 110.36C142.59 110.36 144.552 111.219 146.147 112.936C147.742 114.531 148.539 116.432 148.539 118.64C148.539 120.848 147.742 122.811 146.147 124.528C144.552 126.123 142.59 126.92 140.259 126.92ZM172.049 195V192.24L183.641 189.112V118.456H167.449V112.2H183.641V104.84C183.641 99.9333 184.439 94.72 186.033 89.2C187.751 83.68 190.204 78.4667 193.393 73.56C196.705 68.6533 200.815 64.6667 205.721 61.6C210.628 58.5333 216.332 57 222.833 57C224.428 57 225.839 57.2453 227.065 57.736C229.028 58.5947 230.009 59.576 230.009 60.68C230.009 61.416 229.825 62.2133 229.457 63.072L227.433 68.04H227.065L223.201 66.752C219.399 65.5253 215.719 64.912 212.161 64.912C205.905 64.912 201.121 67.488 197.809 72.64C194.497 77.792 192.841 86.072 192.841 97.48V112.2H217.129V118.456H192.841V189.112L207.009 192.24V195H172.049ZM269.584 196.84C260.997 196.84 253.76 195 247.872 191.32C242.106 187.64 237.69 182.672 234.624 176.416C231.68 170.16 230.208 163.107 230.208 155.256C230.208 146.669 231.925 139.003 235.36 132.256C238.917 125.387 243.762 120.051 249.896 116.248C256.152 112.323 263.205 110.36 271.056 110.36C275.962 110.36 280.317 111.035 284.12 112.384C287.922 113.733 290.989 115.205 293.32 116.8C297.245 119.499 299.208 121.829 299.208 123.792C299.208 124.651 298.778 125.448 297.92 126.184L292.952 130.416H292.216L289.824 127.104C287.125 123.424 284.181 120.419 280.992 118.088C277.925 115.635 273.938 114.408 269.032 114.408C260.445 114.408 253.33 117.659 247.688 124.16C242.168 130.539 239.408 140.107 239.408 152.864C239.408 163.659 242.229 172.429 247.872 179.176C253.637 185.8 261.733 189.112 272.16 189.112C277.802 189.112 283.016 188.253 287.8 186.536C292.584 184.819 296.325 182.488 299.024 179.544H299.576V181.936C296.754 186.229 292.768 189.787 287.616 192.608C282.464 195.429 276.453 196.84 269.584 196.84Z" fill="black"/>
<defs>
<filter id="filter0_d_834_171" x="0" y="0" width="428" height="288" filterUnits="userSpaceOnUse" color-interpolation-filters="sRGB">
<feFlood flood-opacity="0" result="BackgroundImageFix"/>
<feColorMatrix in="SourceAlpha" type="matrix" values="0 0 0 0 0 0 0 0 0 0 0 0 0 0 0 0 0 0 127 0" result="hardAlpha"/>
<feOffset dy="4"/>
<feGaussianBlur stdDeviation="2"/>
<feComposite in2="hardAlpha" operator="out"/>
<feColorMatrix type="matrix" values="0 0 0 0 0 0 0 0 0 0 0 0 0 0 0 0 0 0 0.25 0"/>
<feBlend mode="normal" in2="BackgroundImageFix" result="effect1_dropShadow_834_171"/>
<feBlend mode="normal" in="SourceGraphic" in2="effect1_dropShadow_834_171" result="shape"/>
</filter>
</defs>
</svg>
