<svg width="880" height="624" viewBox="0 0 880 624" fill="none" xmlns="http://www.w3.org/2000/svg">
<g clip-path="url(#clip0_427_137)">
<rect width="880" height="624" fill="white"/>
<g clip-path="url(#clip1_427_137)">
<path d="M828 296L825.18 298.82L836.34 310H812V314H836.34L825.16 325.16L828 328L844 312L828 296Z" fill="black"/>
</g>
<path d="M34 44.08C33.7333 44.08 33.504 43.984 33.312 43.792C33.12 43.6 33.024 43.3707 33.024 43.104C33.024 42.8373 33.12 42.608 33.312 42.416C33.504 42.224 33.7333 42.128 34 42.128C34.2667 42.128 34.496 42.224 34.688 42.416C34.88 42.608 34.976 42.8373 34.976 43.104C34.976 43.3707 34.88 43.6 34.688 43.792C34.496 43.984 34.2667 44.08 34 44.08ZM34 38.592C33.7333 38.592 33.504 38.496 33.312 38.304C33.12 38.112 33.024 37.8827 33.024 37.616C33.024 37.3493 33.12 37.12 33.312 36.928C33.504 36.736 33.7333 36.64 34 36.64C34.2667 36.64 34.496 36.736 34.688 36.928C34.88 37.12 34.976 37.3493 34.976 37.616C34.976 37.8827 34.88 38.112 34.688 38.304C34.496 38.496 34.2667 38.592 34 38.592ZM36.864 44V43.744L37.872 43.232V37.552H36.624V36.8H37.872V36.16C37.872 35.9467 37.9253 35.6693 38.032 35.328C38.1387 34.9867 38.2933 34.6293 38.496 34.256C38.7093 33.872 38.9653 33.5093 39.264 33.168C39.5627 32.8267 39.8987 32.5493 40.272 32.336C40.656 32.112 41.0773 32 41.536 32C41.632 32 41.7333 32.016 41.84 32.048C41.9467 32.08 42.0373 32.112 42.112 32.144C42.272 32.2187 42.3893 32.288 42.464 32.352C42.5493 32.416 42.592 32.496 42.592 32.592C42.592 32.688 42.5707 32.784 42.528 32.88L42.208 33.664H42.096L41.664 33.488C41.3653 33.3707 41.0187 33.312 40.624 33.312C40.0373 33.312 39.6427 33.4987 39.44 33.872C39.248 34.2347 39.152 34.784 39.152 35.52V36.8H41.264V37.552H39.152V43.264L40.288 43.744V44H36.864ZM45.6128 44.16C44.5781 44.16 43.7621 43.8453 43.1648 43.216C42.5674 42.5867 42.2688 41.7547 42.2688 40.72C42.2688 39.92 42.4288 39.216 42.7488 38.608C43.0794 37.9893 43.5221 37.5093 44.0768 37.168C44.6314 36.816 45.2554 36.64 45.9488 36.64C46.3754 36.64 46.7914 36.7147 47.1968 36.864C47.6021 37.0027 47.9114 37.1893 48.1248 37.424C48.2954 37.6267 48.3808 37.7867 48.3808 37.904C48.3808 38.0533 48.3114 38.1813 48.1728 38.288L47.5648 38.8H47.4528L46.9088 38.064C46.7488 37.8507 46.5461 37.68 46.3008 37.552C46.0661 37.4133 45.7728 37.344 45.4208 37.344C44.8341 37.344 44.3701 37.5787 44.0288 38.048C43.6981 38.5067 43.5328 39.152 43.5328 39.984C43.5328 40.496 43.6181 40.9813 43.7888 41.44C43.9594 41.888 44.2421 42.256 44.6368 42.544C45.0421 42.8213 45.5968 42.96 46.3008 42.96C46.8874 42.96 47.5754 42.7467 48.3648 42.32H48.4128V42.48C48.1674 42.9387 47.7994 43.3333 47.3088 43.664C46.8288 43.9947 46.2634 44.16 45.6128 44.16ZM53.125 45.92L56.325 32H57.125L53.925 45.92H53.125ZM61.893 47.68V47.424L62.901 46.912V38.464L61.941 37.632V37.52L63.925 36.64H64.021L64.149 37.616H64.261C64.6663 37.2747 65.0557 37.0293 65.429 36.88C65.8023 36.72 66.2077 36.64 66.645 36.64C67.189 36.64 67.669 36.7787 68.085 37.056C68.501 37.3333 68.8263 37.728 69.061 38.24C69.3063 38.7413 69.429 39.344 69.429 40.048C69.429 40.9227 69.2637 41.6693 68.933 42.288C68.613 42.896 68.1757 43.36 67.621 43.68C67.0663 44 66.4583 44.16 65.797 44.16C65.1997 44.16 64.661 44.1067 64.181 44V46.912L65.317 47.424V47.68H61.893ZM65.765 37.744C65.509 37.744 65.2423 37.7867 64.965 37.872C64.6983 37.9467 64.437 38.064 64.181 38.224V42.72C64.501 42.976 64.8263 43.152 65.157 43.248C65.4877 43.344 65.8557 43.392 66.261 43.392C66.773 43.392 67.2157 43.1787 67.589 42.752C67.9623 42.3147 68.149 41.5893 68.149 40.576C68.149 39.9147 68.0423 39.376 67.829 38.96C67.6157 38.544 67.3277 38.24 66.965 38.048C66.6023 37.8453 66.2023 37.744 65.765 37.744ZM71.0351 44V43.744L72.0431 43.232V38.464L71.0831 37.632V37.52L73.0671 36.64H73.1631L73.3071 38H73.3711C73.6165 37.6053 73.8405 37.312 74.0431 37.12C74.2565 36.9173 74.4538 36.7893 74.6351 36.736C74.8165 36.672 74.9978 36.64 75.1791 36.64C75.2645 36.64 75.3605 36.656 75.4671 36.688C75.5845 36.72 75.6805 36.752 75.7551 36.784C75.8725 36.8373 75.9791 36.9013 76.0751 36.976C76.1818 37.0507 76.2351 37.136 76.2351 37.232C76.2351 37.328 76.2138 37.424 76.1711 37.52L75.8511 38.304H75.7391L75.1311 38.064C75.0138 38.0107 74.8965 37.9787 74.7791 37.968C74.6725 37.9573 74.5658 37.952 74.4591 37.952C74.0111 37.952 73.6325 38.1813 73.3231 38.64V43.232L74.4591 43.744V44H71.0351ZM80.8825 44.16C80.1785 44.16 79.5598 43.9947 79.0265 43.664C78.5038 43.3333 78.0932 42.8853 77.7945 42.32C77.5065 41.7547 77.3625 41.1147 77.3625 40.4C77.3625 39.6853 77.5065 39.0453 77.7945 38.48C78.0932 37.9147 78.5038 37.4667 79.0265 37.136C79.5598 36.8053 80.1785 36.64 80.8825 36.64C81.5865 36.64 82.1998 36.8053 82.7225 37.136C83.2558 37.4667 83.6665 37.9147 83.9545 38.48C84.2532 39.0453 84.4025 39.6853 84.4025 40.4C84.4025 41.1147 84.2532 41.7547 83.9545 42.32C83.6665 42.8853 83.2558 43.3333 82.7225 43.664C82.1998 43.9947 81.5865 44.16 80.8825 44.16ZM81.1065 43.472C81.5332 43.472 81.8852 43.3387 82.1625 43.072C82.4398 42.8053 82.6425 42.464 82.7705 42.048C82.8985 41.6213 82.9625 41.1787 82.9625 40.72C82.9625 40.1547 82.8825 39.6107 82.7225 39.088C82.5732 38.5653 82.3278 38.1387 81.9865 37.808C81.6558 37.4773 81.2238 37.312 80.6905 37.312C80.2532 37.312 79.8958 37.4453 79.6185 37.712C79.3412 37.9787 79.1332 38.32 78.9945 38.736C78.8665 39.152 78.8025 39.5947 78.8025 40.064C78.8025 40.6293 78.8825 41.1733 79.0425 41.696C79.2025 42.2187 79.4532 42.6453 79.7945 42.976C80.1358 43.3067 80.5732 43.472 81.1065 43.472ZM88.7693 44.16C88.2359 44.16 87.7559 44.0267 87.3293 43.76C86.9133 43.4933 86.5826 43.12 86.3372 42.64C86.1026 42.1493 85.9853 41.568 85.9853 40.896C85.9853 39.9893 86.1613 39.2213 86.5133 38.592C86.8653 37.952 87.3346 37.4667 87.9213 37.136C88.5079 36.8053 89.1479 36.64 89.8413 36.64C90.1399 36.64 90.4013 36.656 90.6253 36.688C90.8493 36.7093 91.0519 36.7413 91.2333 36.784V33.824L90.1933 32.992V32.88L92.4173 32H92.5133V43.28L93.6493 43.744V44H91.3933L91.2653 43.184H91.1533C90.7479 43.5253 90.3533 43.776 89.9693 43.936C89.5959 44.0853 89.1959 44.16 88.7693 44.16ZM87.2653 40.528C87.2653 41.4133 87.4999 42.0587 87.9693 42.464C88.4386 42.8587 88.9986 43.056 89.6493 43.056C89.9053 43.056 90.1666 43.0187 90.4333 42.944C90.7106 42.8587 90.9773 42.736 91.2333 42.576V38.096C90.9773 37.872 90.7213 37.7067 90.4653 37.6C90.2199 37.4827 89.9426 37.424 89.6333 37.424C89.2066 37.424 88.8119 37.5307 88.4493 37.744C88.0973 37.9467 87.8093 38.2773 87.5853 38.736C87.3719 39.184 87.2653 39.7813 87.2653 40.528ZM97.8188 44.16C97.1894 44.16 96.6721 44.0053 96.2668 43.696C95.8721 43.376 95.6748 42.9067 95.6748 42.288V37.552L94.6668 37.056V36.8H96.9548V41.536C96.9548 42.0053 97.0988 42.3627 97.3868 42.608C97.6854 42.8533 98.0694 42.976 98.5388 42.976C98.8268 42.976 99.1414 42.928 99.4828 42.832C99.8348 42.736 100.112 42.5973 100.315 42.416V37.552L99.1788 37.056V36.8H101.595V43.28L102.731 43.744V44H100.315V42.992H100.235C99.8294 43.3973 99.4348 43.696 99.0508 43.888C98.6774 44.0693 98.2668 44.16 97.8188 44.16ZM107.332 44.16C106.297 44.16 105.481 43.8453 104.884 43.216C104.286 42.5867 103.988 41.7547 103.988 40.72C103.988 39.92 104.148 39.216 104.468 38.608C104.798 37.9893 105.241 37.5093 105.796 37.168C106.35 36.816 106.974 36.64 107.668 36.64C108.094 36.64 108.51 36.7147 108.916 36.864C109.321 37.0027 109.63 37.1893 109.844 37.424C110.014 37.6267 110.1 37.7867 110.1 37.904C110.1 38.0533 110.03 38.1813 109.892 38.288L109.284 38.8H109.172L108.628 38.064C108.468 37.8507 108.265 37.68 108.02 37.552C107.785 37.4133 107.492 37.344 107.14 37.344C106.553 37.344 106.089 37.5787 105.748 38.048C105.417 38.5067 105.252 39.152 105.252 39.984C105.252 40.496 105.337 40.9813 105.508 41.44C105.678 41.888 105.961 42.256 106.356 42.544C106.761 42.8213 107.316 42.96 108.02 42.96C108.606 42.96 109.294 42.7467 110.084 42.32H110.132V42.48C109.886 42.9387 109.518 43.3333 109.028 43.664C108.548 43.9947 107.982 44.16 107.332 44.16ZM114.172 44.16C113.702 44.16 113.297 44.0213 112.956 43.744C112.614 43.4667 112.444 43.0773 112.444 42.576V37.552H111.132V37.456L112.492 36.8L113.628 35.04H113.724V36.8H115.836V37.552H113.724V42.304C113.724 42.5813 113.846 42.784 114.092 42.912C114.337 43.04 114.625 43.104 114.956 43.104C115.158 43.104 115.345 43.0933 115.516 43.072C115.697 43.0507 115.852 43.024 115.98 42.992H116.028V43.152C115.921 43.3973 115.708 43.6267 115.388 43.84C115.078 44.0533 114.673 44.16 114.172 44.16ZM139.988 44.16C139.455 44.16 138.975 44.0267 138.548 43.76C138.132 43.4933 137.801 43.12 137.556 42.64C137.321 42.1493 137.204 41.568 137.204 40.896C137.204 39.9893 137.38 39.2213 137.732 38.592C138.084 37.952 138.553 37.4667 139.14 37.136C139.727 36.8053 140.367 36.64 141.06 36.64C141.359 36.64 141.62 36.656 141.844 36.688C142.068 36.7093 142.271 36.7413 142.452 36.784V33.824L141.412 32.992V32.88L143.636 32H143.732V43.28L144.868 43.744V44H142.612L142.484 43.184H142.372C141.967 43.5253 141.572 43.776 141.188 43.936C140.815 44.0853 140.415 44.16 139.988 44.16ZM138.484 40.528C138.484 41.4133 138.719 42.0587 139.188 42.464C139.657 42.8587 140.217 43.056 140.868 43.056C141.124 43.056 141.385 43.0187 141.652 42.944C141.929 42.8587 142.196 42.736 142.452 42.576V38.096C142.196 37.872 141.94 37.7067 141.684 37.6C141.439 37.4827 141.161 37.424 140.852 37.424C140.425 37.424 140.031 37.5307 139.668 37.744C139.316 37.9467 139.028 38.2773 138.804 38.736C138.591 39.184 138.484 39.7813 138.484 40.528ZM149.582 44.16C148.547 44.16 147.731 43.8453 147.134 43.216C146.536 42.5867 146.238 41.7547 146.238 40.72C146.238 39.92 146.392 39.216 146.702 38.608C147.022 37.9893 147.438 37.5093 147.95 37.168C148.472 36.816 149.038 36.64 149.646 36.64C150.488 36.64 151.15 36.9333 151.63 37.52C152.12 38.1067 152.366 38.9493 152.366 40.048L152.286 40.128H147.502C147.512 40.6187 147.608 41.0827 147.789 41.52C147.971 41.9467 148.259 42.2933 148.654 42.56C149.059 42.8267 149.598 42.96 150.27 42.96C150.856 42.96 151.544 42.7467 152.334 42.32H152.382V42.48C152.136 42.9387 151.768 43.3333 151.278 43.664C150.798 43.9947 150.232 44.16 149.582 44.16ZM149.39 37.344C148.878 37.344 148.456 37.5253 148.126 37.888C147.806 38.24 147.608 38.7413 147.534 39.392H151.15C151.032 38.6667 150.824 38.144 150.526 37.824C150.238 37.504 149.859 37.344 149.39 37.344ZM156.596 44.16C156.094 44.16 155.662 44.1173 155.299 44.032C154.937 43.9467 154.569 43.808 154.196 43.616V41.824H154.42L154.932 42.704C155.262 43.2907 155.801 43.584 156.548 43.584C156.974 43.584 157.305 43.4827 157.54 43.28C157.785 43.0773 157.908 42.8 157.908 42.448C157.908 42.1387 157.833 41.8987 157.684 41.728C157.534 41.5573 157.321 41.408 157.044 41.28C156.777 41.1413 156.457 40.9867 156.084 40.816C155.54 40.5707 155.118 40.304 154.82 40.016C154.532 39.7173 154.388 39.3013 154.388 38.768C154.388 38.3733 154.5 38.016 154.724 37.696C154.948 37.376 155.23 37.12 155.572 36.928C155.924 36.736 156.286 36.64 156.66 36.64C157.054 36.64 157.417 36.688 157.748 36.784C158.078 36.88 158.414 37.0133 158.756 37.184V38.928H158.532L158.004 38.08C157.822 37.792 157.625 37.584 157.411 37.456C157.198 37.328 156.969 37.264 156.724 37.264C156.361 37.264 156.068 37.3547 155.844 37.536C155.63 37.7173 155.524 37.968 155.524 38.288C155.524 38.6507 155.652 38.928 155.908 39.12C156.174 39.3013 156.558 39.5093 157.06 39.744C157.358 39.8933 157.657 40.0427 157.956 40.192C158.265 40.3413 158.516 40.5547 158.708 40.832C158.91 41.0987 159.012 41.4827 159.012 41.984C159.012 42.4533 158.884 42.8533 158.628 43.184C158.372 43.504 158.057 43.7493 157.684 43.92C157.31 44.08 156.948 44.16 156.596 44.16ZM162.558 34.704C162.28 34.704 162.051 34.6133 161.87 34.432C161.688 34.24 161.598 34.0107 161.598 33.744C161.598 33.4667 161.688 33.2373 161.87 33.056C162.051 32.8747 162.28 32.784 162.558 32.784C162.835 32.784 163.064 32.8747 163.246 33.056C163.427 33.2373 163.518 33.4667 163.518 33.744C163.518 34.0107 163.427 34.24 163.246 34.432C163.064 34.6133 162.835 34.704 162.558 34.704ZM160.958 44V43.744L161.966 43.232V38.464L161.006 37.632V37.52L163.15 36.64H163.246V43.232L164.254 43.744V44H160.958ZM169.237 41.728C168.768 41.728 168.336 41.6427 167.941 41.472C167.728 41.5573 167.573 41.6693 167.477 41.808C167.392 41.9467 167.349 42.096 167.349 42.256C167.349 42.7893 167.728 43.056 168.485 43.056H170.405C171.184 43.056 171.755 43.2267 172.117 43.568C172.491 43.9093 172.677 44.416 172.677 45.088C172.677 45.5467 172.523 45.984 172.213 46.4C171.915 46.8267 171.483 47.1733 170.917 47.44C170.363 47.7067 169.701 47.84 168.933 47.84C167.92 47.84 167.189 47.6533 166.741 47.28C166.304 46.9173 166.085 46.4693 166.085 45.936C166.085 45.5413 166.181 45.2 166.373 44.912L167.477 44.176V44.112C167.072 44.0267 166.763 43.872 166.549 43.648C166.336 43.4133 166.229 43.1307 166.229 42.8C166.229 42.3947 166.368 42.0533 166.645 41.776L167.509 41.328V41.232C167.168 41.008 166.896 40.72 166.693 40.368C166.491 40.016 166.389 39.6213 166.389 39.184C166.389 38.704 166.512 38.272 166.757 37.888C167.003 37.504 167.339 37.2 167.765 36.976C168.203 36.752 168.693 36.64 169.237 36.64C169.461 36.64 169.701 36.6667 169.957 36.72C170.224 36.7733 170.453 36.8427 170.645 36.928L173.045 36.8V37.664L171.557 37.568L171.493 37.632C171.664 37.824 171.803 38.0587 171.909 38.336C172.027 38.6133 172.085 38.896 172.085 39.184C172.085 39.664 171.963 40.096 171.717 40.48C171.472 40.864 171.131 41.168 170.693 41.392C170.267 41.616 169.781 41.728 169.237 41.728ZM169.397 41.072C169.824 41.072 170.16 40.8907 170.405 40.528C170.651 40.1547 170.773 39.7227 170.773 39.232C170.773 38.6453 170.613 38.176 170.293 37.824C169.973 37.4613 169.584 37.28 169.125 37.28C168.667 37.28 168.315 37.4667 168.069 37.84C167.824 38.2027 167.701 38.6347 167.701 39.136C167.701 39.6907 167.861 40.1547 168.181 40.528C168.501 40.8907 168.907 41.072 169.397 41.072ZM167.221 45.76C167.221 46.2293 167.403 46.6187 167.765 46.928C168.139 47.2373 168.592 47.392 169.125 47.392C169.605 47.392 170.021 47.296 170.373 47.104C170.736 46.9227 171.013 46.6773 171.205 46.368C171.408 46.0693 171.509 45.7493 171.509 45.408C171.509 44.9387 171.381 44.6133 171.125 44.432C170.88 44.2507 170.432 44.16 169.781 44.16H168.069C168.037 44.16 168.011 44.16 167.989 44.16C167.701 44.3307 167.499 44.544 167.381 44.8C167.275 45.0667 167.221 45.3867 167.221 45.76ZM174.456 44V43.744L175.464 43.232V38.464L174.504 37.632V37.52L176.488 36.64H176.584L176.728 37.824H176.808C177.213 37.4187 177.602 37.12 177.976 36.928C178.36 36.736 178.781 36.64 179.24 36.64C179.869 36.64 180.381 36.8 180.776 37.12C181.181 37.4293 181.384 37.8933 181.384 38.512V43.232L182.392 43.744V44H178.968V43.744L180.104 43.232V39.264C180.104 38.7947 179.954 38.4373 179.656 38.192C179.368 37.9467 178.989 37.824 178.52 37.824C178.232 37.824 177.912 37.872 177.56 37.968C177.218 38.064 176.946 38.2027 176.744 38.384V43.232L177.88 43.744V44H174.456ZM189.496 44.16C188.995 44.16 188.579 44.016 188.248 43.728C187.917 43.4293 187.752 43.0187 187.752 42.496C187.752 41.9733 187.944 41.52 188.328 41.136C188.723 40.752 189.379 40.4533 190.296 40.24L191.816 39.888V38.72C191.816 38.3573 191.667 38.048 191.368 37.792C191.08 37.5253 190.749 37.392 190.376 37.392C189.971 37.392 189.688 37.504 189.528 37.728C189.368 37.9413 189.288 38.2293 189.288 38.592V39.04L189.208 39.12H188.376C188.216 39.12 188.104 39.0933 188.04 39.04C187.987 38.9867 187.96 38.864 187.96 38.672C187.96 38.4373 188.029 38.1973 188.168 37.952C188.307 37.7067 188.52 37.4933 188.808 37.312C189.107 37.12 189.416 36.96 189.736 36.832C190.067 36.704 190.419 36.64 190.792 36.64C191.165 36.64 191.528 36.6933 191.88 36.8C192.243 36.9067 192.536 37.088 192.76 37.344C192.984 37.5893 193.096 37.936 193.096 38.384V42.928C193.171 43.0027 193.277 43.0667 193.416 43.12C193.555 43.1733 193.747 43.2 193.992 43.2H194.6L194.648 43.232V43.28C194.52 43.5147 194.328 43.7227 194.072 43.904C193.827 44.0747 193.523 44.16 193.16 44.16C192.829 44.16 192.557 44.0747 192.344 43.904C192.141 43.7227 191.997 43.488 191.912 43.2H191.816C191.539 43.4773 191.192 43.7067 190.776 43.888C190.371 44.0693 189.944 44.16 189.496 44.16ZM189 42.176C189 42.8373 189.4 43.168 190.2 43.168C190.456 43.168 190.707 43.1413 190.952 43.088C191.208 43.0347 191.496 42.9387 191.816 42.8V40.432C190.963 40.592 190.339 40.7627 189.944 40.944C189.549 41.1147 189.293 41.3013 189.176 41.504C189.059 41.7067 189 41.9307 189 42.176ZM202.428 44.16C201.799 44.16 201.281 44.0053 200.876 43.696C200.481 43.376 200.284 42.9067 200.284 42.288V37.552L199.276 37.056V36.8H201.564V41.536C201.564 42.0053 201.708 42.3627 201.996 42.608C202.295 42.8533 202.679 42.976 203.148 42.976C203.436 42.976 203.751 42.928 204.092 42.832C204.444 42.736 204.721 42.5973 204.924 42.416V37.552L203.788 37.056V36.8H206.204V43.28L207.34 43.744V44H204.924V42.992H204.844C204.439 43.3973 204.044 43.696 203.66 43.888C203.287 44.0693 202.876 44.16 202.428 44.16ZM211.205 44.16C210.704 44.16 210.272 44.1173 209.909 44.032C209.546 43.9467 209.178 43.808 208.805 43.616V41.824H209.029L209.541 42.704C209.872 43.2907 210.41 43.584 211.157 43.584C211.584 43.584 211.914 43.4827 212.149 43.28C212.394 43.0773 212.517 42.8 212.517 42.448C212.517 42.1387 212.442 41.8987 212.293 41.728C212.144 41.5573 211.93 41.408 211.653 41.28C211.386 41.1413 211.066 40.9867 210.693 40.816C210.149 40.5707 209.728 40.304 209.429 40.016C209.141 39.7173 208.997 39.3013 208.997 38.768C208.997 38.3733 209.109 38.016 209.333 37.696C209.557 37.376 209.84 37.12 210.181 36.928C210.533 36.736 210.896 36.64 211.269 36.64C211.664 36.64 212.026 36.688 212.357 36.784C212.688 36.88 213.024 37.0133 213.365 37.184V38.928H213.141L212.613 38.08C212.432 37.792 212.234 37.584 212.021 37.456C211.808 37.328 211.578 37.264 211.333 37.264C210.97 37.264 210.677 37.3547 210.453 37.536C210.24 37.7173 210.133 37.968 210.133 38.288C210.133 38.6507 210.261 38.928 210.517 39.12C210.784 39.3013 211.168 39.5093 211.669 39.744C211.968 39.8933 212.266 40.0427 212.565 40.192C212.874 40.3413 213.125 40.5547 213.317 40.832C213.52 41.0987 213.621 41.4827 213.621 41.984C213.621 42.4533 213.493 42.8533 213.237 43.184C212.981 43.504 212.666 43.7493 212.293 43.92C211.92 44.08 211.557 44.16 211.205 44.16ZM218.847 44.16C217.812 44.16 216.996 43.8453 216.399 43.216C215.802 42.5867 215.503 41.7547 215.503 40.72C215.503 39.92 215.658 39.216 215.967 38.608C216.287 37.9893 216.703 37.5093 217.215 37.168C217.738 36.816 218.303 36.64 218.911 36.64C219.754 36.64 220.415 36.9333 220.895 37.52C221.386 38.1067 221.631 38.9493 221.631 40.048L221.551 40.128H216.767C216.778 40.6187 216.874 41.0827 217.055 41.52C217.236 41.9467 217.524 42.2933 217.919 42.56C218.324 42.8267 218.863 42.96 219.535 42.96C220.122 42.96 220.81 42.7467 221.599 42.32H221.647V42.48C221.402 42.9387 221.034 43.3333 220.543 43.664C220.063 43.9947 219.498 44.16 218.847 44.16ZM218.655 37.344C218.143 37.344 217.722 37.5253 217.391 37.888C217.071 38.24 216.874 38.7413 216.799 39.392H220.415C220.298 38.6667 220.09 38.144 219.791 37.824C219.503 37.504 219.124 37.344 218.655 37.344ZM223.285 44V43.744L224.293 43.232V38.464L223.333 37.632V37.52L225.317 36.64H225.413L225.557 38H225.621C225.866 37.6053 226.09 37.312 226.293 37.12C226.506 36.9173 226.704 36.7893 226.885 36.736C227.066 36.672 227.248 36.64 227.429 36.64C227.514 36.64 227.61 36.656 227.717 36.688C227.834 36.72 227.93 36.752 228.005 36.784C228.122 36.8373 228.229 36.9013 228.325 36.976C228.432 37.0507 228.485 37.136 228.485 37.232C228.485 37.328 228.464 37.424 228.421 37.52L228.101 38.304H227.989L227.381 38.064C227.264 38.0107 227.146 37.9787 227.029 37.968C226.922 37.9573 226.816 37.952 226.709 37.952C226.261 37.952 225.882 38.1813 225.573 38.64V43.232L226.709 43.744V44H223.285ZM236.957 44.16C235.922 44.16 235.106 43.8453 234.509 43.216C233.911 42.5867 233.613 41.7547 233.613 40.72C233.613 39.92 233.767 39.216 234.077 38.608C234.397 37.9893 234.813 37.5093 235.325 37.168C235.847 36.816 236.413 36.64 237.021 36.64C237.863 36.64 238.525 36.9333 239.005 37.52C239.495 38.1067 239.741 38.9493 239.741 40.048L239.661 40.128H234.877C234.887 40.6187 234.983 41.0827 235.164 41.52C235.346 41.9467 235.634 42.2933 236.029 42.56C236.434 42.8267 236.973 42.96 237.645 42.96C238.231 42.96 238.919 42.7467 239.709 42.32H239.757V42.48C239.511 42.9387 239.143 43.3333 238.653 43.664C238.173 43.9947 237.607 44.16 236.957 44.16ZM236.765 37.344C236.253 37.344 235.831 37.5253 235.501 37.888C235.181 38.24 234.983 38.7413 234.909 39.392H238.525C238.407 38.6667 238.199 38.144 237.901 37.824C237.613 37.504 237.234 37.344 236.765 37.344ZM240.822 44V43.744L241.686 43.184L243.782 40.432L241.654 37.552L240.902 37.056V36.8H244.214V37.056L243.126 37.536V37.632L244.614 39.648L245.91 37.728V37.632L244.998 37.056V36.8H247.654V37.056L246.806 37.616L244.934 40.08L247.27 43.248L247.926 43.744V44H244.822V43.744L245.798 43.264V43.168L244.102 40.88L242.63 43.072V43.168L243.622 43.744V44H240.822ZM249.112 47.68V47.424L250.12 46.912V38.464L249.16 37.632V37.52L251.144 36.64H251.24L251.368 37.616H251.48C251.885 37.2747 252.274 37.0293 252.648 36.88C253.021 36.72 253.426 36.64 253.864 36.64C254.408 36.64 254.888 36.7787 255.304 37.056C255.72 37.3333 256.045 37.728 256.28 38.24C256.525 38.7413 256.648 39.344 256.648 40.048C256.648 40.9227 256.482 41.6693 256.152 42.288C255.832 42.896 255.394 43.36 254.84 43.68C254.285 44 253.677 44.16 253.016 44.16C252.418 44.16 251.88 44.1067 251.4 44V46.912L252.536 47.424V47.68H249.112ZM252.984 37.744C252.728 37.744 252.461 37.7867 252.184 37.872C251.917 37.9467 251.656 38.064 251.4 38.224V42.72C251.72 42.976 252.045 43.152 252.376 43.248C252.706 43.344 253.074 43.392 253.48 43.392C253.992 43.392 254.434 43.1787 254.808 42.752C255.181 42.3147 255.368 41.5893 255.368 40.576C255.368 39.9147 255.261 39.376 255.048 38.96C254.834 38.544 254.546 38.24 254.184 38.048C253.821 37.8453 253.421 37.744 252.984 37.744ZM261.644 44.16C260.609 44.16 259.793 43.8453 259.196 43.216C258.599 42.5867 258.3 41.7547 258.3 40.72C258.3 39.92 258.455 39.216 258.764 38.608C259.084 37.9893 259.5 37.5093 260.012 37.168C260.535 36.816 261.1 36.64 261.708 36.64C262.551 36.64 263.212 36.9333 263.692 37.52C264.183 38.1067 264.428 38.9493 264.428 40.048L264.348 40.128H259.564C259.575 40.6187 259.671 41.0827 259.852 41.52C260.033 41.9467 260.321 42.2933 260.716 42.56C261.121 42.8267 261.66 42.96 262.332 42.96C262.919 42.96 263.607 42.7467 264.396 42.32H264.444V42.48C264.199 42.9387 263.831 43.3333 263.34 43.664C262.86 43.9947 262.295 44.16 261.644 44.16ZM261.452 37.344C260.94 37.344 260.519 37.5253 260.188 37.888C259.868 38.24 259.671 38.7413 259.596 39.392H263.212C263.095 38.6667 262.887 38.144 262.588 37.824C262.3 37.504 261.921 37.344 261.452 37.344ZM266.082 44V43.744L267.09 43.232V38.464L266.13 37.632V37.52L268.114 36.64H268.21L268.354 38H268.418C268.663 37.6053 268.887 37.312 269.09 37.12C269.303 36.9173 269.501 36.7893 269.682 36.736C269.863 36.672 270.045 36.64 270.226 36.64C270.311 36.64 270.407 36.656 270.514 36.688C270.631 36.72 270.727 36.752 270.802 36.784C270.919 36.8373 271.026 36.9013 271.122 36.976C271.229 37.0507 271.282 37.136 271.282 37.232C271.282 37.328 271.261 37.424 271.218 37.52L270.898 38.304H270.786L270.178 38.064C270.061 38.0107 269.943 37.9787 269.826 37.968C269.719 37.9573 269.613 37.952 269.506 37.952C269.058 37.952 268.679 38.1813 268.37 38.64V43.232L269.506 43.744V44H266.082ZM274.073 34.704C273.796 34.704 273.567 34.6133 273.385 34.432C273.204 34.24 273.113 34.0107 273.113 33.744C273.113 33.4667 273.204 33.2373 273.385 33.056C273.567 32.8747 273.796 32.784 274.073 32.784C274.351 32.784 274.58 32.8747 274.761 33.056C274.943 33.2373 275.033 33.4667 275.033 33.744C275.033 34.0107 274.943 34.24 274.761 34.432C274.58 34.6133 274.351 34.704 274.073 34.704ZM272.473 44V43.744L273.481 43.232V38.464L272.521 37.632V37.52L274.665 36.64H274.761V43.232L275.769 43.744V44H272.473ZM280.769 44.16C279.734 44.16 278.918 43.8453 278.321 43.216C277.724 42.5867 277.425 41.7547 277.425 40.72C277.425 39.92 277.58 39.216 277.889 38.608C278.209 37.9893 278.625 37.5093 279.137 37.168C279.66 36.816 280.225 36.64 280.833 36.64C281.676 36.64 282.337 36.9333 282.817 37.52C283.308 38.1067 283.553 38.9493 283.553 40.048L283.473 40.128H278.689C278.7 40.6187 278.796 41.0827 278.977 41.52C279.158 41.9467 279.446 42.2933 279.841 42.56C280.246 42.8267 280.785 42.96 281.457 42.96C282.044 42.96 282.732 42.7467 283.521 42.32H283.569V42.48C283.324 42.9387 282.956 43.3333 282.465 43.664C281.985 43.9947 281.42 44.16 280.769 44.16ZM280.577 37.344C280.065 37.344 279.644 37.5253 279.313 37.888C278.993 38.24 278.796 38.7413 278.721 39.392H282.337C282.22 38.6667 282.012 38.144 281.713 37.824C281.425 37.504 281.046 37.344 280.577 37.344ZM285.143 44V43.744L286.151 43.232V38.464L285.191 37.632V37.52L287.175 36.64H287.271L287.415 37.824H287.495C287.9 37.4187 288.29 37.12 288.663 36.928C289.047 36.736 289.468 36.64 289.927 36.64C290.556 36.64 291.068 36.8 291.463 37.12C291.868 37.4293 292.071 37.8933 292.071 38.512V43.232L293.079 43.744V44H289.655V43.744L290.791 43.232V39.264C290.791 38.7947 290.642 38.4373 290.343 38.192C290.055 37.9467 289.676 37.824 289.207 37.824C288.919 37.824 288.599 37.872 288.247 37.968C287.906 38.064 287.634 38.2027 287.431 38.384V43.232L288.567 43.744V44H285.143ZM297.832 44.16C296.797 44.16 295.981 43.8453 295.384 43.216C294.786 42.5867 294.488 41.7547 294.488 40.72C294.488 39.92 294.648 39.216 294.968 38.608C295.298 37.9893 295.741 37.5093 296.296 37.168C296.85 36.816 297.474 36.64 298.168 36.64C298.594 36.64 299.01 36.7147 299.416 36.864C299.821 37.0027 300.13 37.1893 300.344 37.424C300.514 37.6267 300.6 37.7867 300.6 37.904C300.6 38.0533 300.53 38.1813 300.392 38.288L299.784 38.8H299.672L299.128 38.064C298.968 37.8507 298.765 37.68 298.52 37.552C298.285 37.4133 297.992 37.344 297.64 37.344C297.053 37.344 296.589 37.5787 296.248 38.048C295.917 38.5067 295.752 39.152 295.752 39.984C295.752 40.496 295.837 40.9813 296.008 41.44C296.178 41.888 296.461 42.256 296.856 42.544C297.261 42.8213 297.816 42.96 298.52 42.96C299.106 42.96 299.794 42.7467 300.584 42.32H300.632V42.48C300.386 42.9387 300.018 43.3333 299.528 43.664C299.048 43.9947 298.482 44.16 297.832 44.16ZM305.488 44.16C304.453 44.16 303.637 43.8453 303.04 43.216C302.442 42.5867 302.144 41.7547 302.144 40.72C302.144 39.92 302.298 39.216 302.608 38.608C302.928 37.9893 303.344 37.5093 303.856 37.168C304.378 36.816 304.944 36.64 305.552 36.64C306.394 36.64 307.056 36.9333 307.536 37.52C308.026 38.1067 308.272 38.9493 308.272 40.048L308.192 40.128H303.408C303.418 40.6187 303.514 41.0827 303.696 41.52C303.877 41.9467 304.165 42.2933 304.56 42.56C304.965 42.8267 305.504 42.96 306.176 42.96C306.762 42.96 307.45 42.7467 308.24 42.32H308.288V42.48C308.042 42.9387 307.674 43.3333 307.184 43.664C306.704 43.9947 306.138 44.16 305.488 44.16ZM305.296 37.344C304.784 37.344 304.362 37.5253 304.032 37.888C303.712 38.24 303.514 38.7413 303.44 39.392H307.056C306.938 38.6667 306.73 38.144 306.432 37.824C306.144 37.504 305.765 37.344 305.296 37.344ZM313.958 44V43.744L314.966 43.232V37.552H313.718V36.8H314.966V36.16C314.966 35.9467 315.019 35.6693 315.126 35.328C315.232 34.9867 315.387 34.6293 315.59 34.256C315.803 33.872 316.059 33.5093 316.358 33.168C316.656 32.8267 316.992 32.5493 317.366 32.336C317.75 32.112 318.171 32 318.63 32C318.726 32 318.827 32.016 318.934 32.048C319.04 32.08 319.131 32.112 319.206 32.144C319.366 32.2187 319.483 32.288 319.558 32.352C319.643 32.416 319.686 32.496 319.686 32.592C319.686 32.688 319.664 32.784 319.622 32.88L319.302 33.664H319.19L318.758 33.488C318.459 33.3707 318.112 33.312 317.718 33.312C317.131 33.312 316.736 33.4987 316.534 33.872C316.342 34.2347 316.246 34.784 316.246 35.52V36.8H318.358V37.552H316.246V43.264L317.382 43.744V44H313.958ZM322.883 44.16C322.179 44.16 321.56 43.9947 321.027 43.664C320.504 43.3333 320.093 42.8853 319.795 42.32C319.507 41.7547 319.363 41.1147 319.363 40.4C319.363 39.6853 319.507 39.0453 319.795 38.48C320.093 37.9147 320.504 37.4667 321.027 37.136C321.56 36.8053 322.179 36.64 322.883 36.64C323.587 36.64 324.2 36.8053 324.723 37.136C325.256 37.4667 325.667 37.9147 325.955 38.48C326.253 39.0453 326.403 39.6853 326.403 40.4C326.403 41.1147 326.253 41.7547 325.955 42.32C325.667 42.8853 325.256 43.3333 324.723 43.664C324.2 43.9947 323.587 44.16 322.883 44.16ZM323.107 43.472C323.533 43.472 323.885 43.3387 324.163 43.072C324.44 42.8053 324.643 42.464 324.771 42.048C324.899 41.6213 324.963 41.1787 324.963 40.72C324.963 40.1547 324.883 39.6107 324.723 39.088C324.573 38.5653 324.328 38.1387 323.987 37.808C323.656 37.4773 323.224 37.312 322.691 37.312C322.253 37.312 321.896 37.4453 321.619 37.712C321.341 37.9787 321.133 38.32 320.995 38.736C320.867 39.152 320.803 39.5947 320.803 40.064C320.803 40.6293 320.883 41.1733 321.043 41.696C321.203 42.2187 321.453 42.6453 321.795 42.976C322.136 43.3067 322.573 43.472 323.107 43.472ZM328.035 44V43.744L329.043 43.232V38.464L328.083 37.632V37.52L330.067 36.64H330.163L330.307 38H330.371C330.616 37.6053 330.84 37.312 331.043 37.12C331.256 36.9173 331.454 36.7893 331.635 36.736C331.816 36.672 331.998 36.64 332.179 36.64C332.264 36.64 332.36 36.656 332.467 36.688C332.584 36.72 332.68 36.752 332.755 36.784C332.872 36.8373 332.979 36.9013 333.075 36.976C333.182 37.0507 333.235 37.136 333.235 37.232C333.235 37.328 333.214 37.424 333.171 37.52L332.851 38.304H332.739L332.131 38.064C332.014 38.0107 331.896 37.9787 331.779 37.968C331.672 37.9573 331.566 37.952 331.459 37.952C331.011 37.952 330.632 38.1813 330.323 38.64V43.232L331.459 43.744V44H328.035ZM340.059 44.16C339.557 44.16 339.141 44.016 338.811 43.728C338.48 43.4293 338.315 43.0187 338.315 42.496C338.315 41.9733 338.507 41.52 338.891 41.136C339.285 40.752 339.941 40.4533 340.859 40.24L342.379 39.888V38.72C342.379 38.3573 342.229 38.048 341.931 37.792C341.643 37.5253 341.312 37.392 340.939 37.392C340.533 37.392 340.251 37.504 340.091 37.728C339.931 37.9413 339.851 38.2293 339.851 38.592V39.04L339.771 39.12H338.939C338.779 39.12 338.667 39.0933 338.603 39.04C338.549 38.9867 338.523 38.864 338.523 38.672C338.523 38.4373 338.592 38.1973 338.731 37.952C338.869 37.7067 339.083 37.4933 339.371 37.312C339.669 37.12 339.979 36.96 340.299 36.832C340.629 36.704 340.981 36.64 341.355 36.64C341.728 36.64 342.091 36.6933 342.443 36.8C342.805 36.9067 343.099 37.088 343.323 37.344C343.547 37.5893 343.659 37.936 343.659 38.384V42.928C343.733 43.0027 343.84 43.0667 343.979 43.12C344.117 43.1733 344.309 43.2 344.555 43.2H345.163L345.211 43.232V43.28C345.083 43.5147 344.891 43.7227 344.635 43.904C344.389 44.0747 344.085 44.16 343.723 44.16C343.392 44.16 343.12 44.0747 342.907 43.904C342.704 43.7227 342.56 43.488 342.475 43.2H342.379C342.101 43.4773 341.755 43.7067 341.339 43.888C340.933 44.0693 340.507 44.16 340.059 44.16ZM339.562 42.176C339.562 42.8373 339.963 43.168 340.763 43.168C341.019 43.168 341.269 43.1413 341.515 43.088C341.771 43.0347 342.059 42.9387 342.379 42.8V40.432C341.525 40.592 340.901 40.7627 340.507 40.944C340.112 41.1147 339.856 41.3013 339.739 41.504C339.621 41.7067 339.562 41.9307 339.562 42.176ZM352.799 44.16C352.297 44.16 351.865 44.1173 351.503 44.032C351.14 43.9467 350.772 43.808 350.399 43.616V41.824H350.623L351.135 42.704C351.465 43.2907 352.004 43.584 352.751 43.584C353.177 43.584 353.508 43.4827 353.743 43.28C353.988 43.0773 354.111 42.8 354.111 42.448C354.111 42.1387 354.036 41.8987 353.887 41.728C353.737 41.5573 353.524 41.408 353.247 41.28C352.98 41.1413 352.66 40.9867 352.287 40.816C351.743 40.5707 351.321 40.304 351.023 40.016C350.735 39.7173 350.591 39.3013 350.591 38.768C350.591 38.3733 350.703 38.016 350.927 37.696C351.151 37.376 351.433 37.12 351.775 36.928C352.127 36.736 352.489 36.64 352.863 36.64C353.257 36.64 353.62 36.688 353.951 36.784C354.281 36.88 354.617 37.0133 354.959 37.184V38.928H354.735L354.207 38.08C354.025 37.792 353.828 37.584 353.615 37.456C353.401 37.328 353.172 37.264 352.927 37.264C352.564 37.264 352.271 37.3547 352.047 37.536C351.833 37.7173 351.727 37.968 351.727 38.288C351.727 38.6507 351.855 38.928 352.111 39.12C352.377 39.3013 352.761 39.5093 353.263 39.744C353.561 39.8933 353.86 40.0427 354.159 40.192C354.468 40.3413 354.719 40.5547 354.911 40.832C355.113 41.0987 355.215 41.4827 355.215 41.984C355.215 42.4533 355.087 42.8533 354.831 43.184C354.575 43.504 354.26 43.7493 353.887 43.92C353.513 44.08 353.151 44.16 352.799 44.16ZM360.441 44.16C359.406 44.16 358.59 43.8453 357.993 43.216C357.396 42.5867 357.097 41.7547 357.097 40.72C357.097 39.92 357.252 39.216 357.561 38.608C357.881 37.9893 358.297 37.5093 358.809 37.168C359.332 36.816 359.897 36.64 360.505 36.64C361.348 36.64 362.009 36.9333 362.489 37.52C362.98 38.1067 363.225 38.9493 363.225 40.048L363.145 40.128H358.361C358.372 40.6187 358.468 41.0827 358.649 41.52C358.83 41.9467 359.118 42.2933 359.513 42.56C359.918 42.8267 360.457 42.96 361.129 42.96C361.716 42.96 362.404 42.7467 363.193 42.32H363.241V42.48C362.996 42.9387 362.628 43.3333 362.137 43.664C361.657 43.9947 361.092 44.16 360.441 44.16ZM360.249 37.344C359.737 37.344 359.316 37.5253 358.985 37.888C358.665 38.24 358.468 38.7413 358.393 39.392H362.009C361.892 38.6667 361.684 38.144 361.385 37.824C361.097 37.504 360.718 37.344 360.249 37.344ZM364.751 44V43.744L365.759 43.232V33.824L364.799 32.992V32.88L366.943 32H367.039V43.232L368.047 43.744V44H364.751ZM369.614 44V43.744L370.622 43.232V37.552H369.374V36.8H370.622V36.16C370.622 35.9467 370.675 35.6693 370.782 35.328C370.889 34.9867 371.043 34.6293 371.246 34.256C371.459 33.872 371.715 33.5093 372.014 33.168C372.313 32.8267 372.649 32.5493 373.022 32.336C373.406 32.112 373.827 32 374.286 32C374.382 32 374.483 32.016 374.59 32.048C374.697 32.08 374.787 32.112 374.862 32.144C375.022 32.2187 375.139 32.288 375.214 32.352C375.299 32.416 375.342 32.496 375.342 32.592C375.342 32.688 375.321 32.784 375.278 32.88L374.958 33.664H374.846L374.414 33.488C374.115 33.3707 373.769 33.312 373.374 33.312C372.787 33.312 372.393 33.4987 372.19 33.872C371.998 34.2347 371.902 34.784 371.902 35.52V36.8H374.014V37.552H371.902V43.264L373.038 43.744V44H369.614ZM374.706 40.448V39.328H379.106V40.448H374.706ZM380.674 47.68V47.424L381.682 46.912V38.464L380.722 37.632V37.52L382.706 36.64H382.802L382.93 37.616H383.042C383.448 37.2747 383.837 37.0293 384.21 36.88C384.584 36.72 384.989 36.64 385.426 36.64C385.97 36.64 386.45 36.7787 386.866 37.056C387.282 37.3333 387.608 37.728 387.842 38.24C388.088 38.7413 388.21 39.344 388.21 40.048C388.21 40.9227 388.045 41.6693 387.714 42.288C387.394 42.896 386.957 43.36 386.402 43.68C385.848 44 385.24 44.16 384.578 44.16C383.981 44.16 383.442 44.1067 382.962 44V46.912L384.098 47.424V47.68H380.674ZM384.546 37.744C384.29 37.744 384.024 37.7867 383.746 37.872C383.48 37.9467 383.218 38.064 382.962 38.224V42.72C383.282 42.976 383.608 43.152 383.938 43.248C384.269 43.344 384.637 43.392 385.042 43.392C385.554 43.392 385.997 43.1787 386.37 42.752C386.744 42.3147 386.93 41.5893 386.93 40.576C386.93 39.9147 386.824 39.376 386.61 38.96C386.397 38.544 386.109 38.24 385.746 38.048C385.384 37.8453 384.984 37.744 384.546 37.744ZM393.383 44.16C392.679 44.16 392.06 43.9947 391.527 43.664C391.004 43.3333 390.593 42.8853 390.295 42.32C390.007 41.7547 389.863 41.1147 389.863 40.4C389.863 39.6853 390.007 39.0453 390.295 38.48C390.593 37.9147 391.004 37.4667 391.527 37.136C392.06 36.8053 392.679 36.64 393.383 36.64C394.087 36.64 394.7 36.8053 395.223 37.136C395.756 37.4667 396.167 37.9147 396.455 38.48C396.753 39.0453 396.903 39.6853 396.903 40.4C396.903 41.1147 396.753 41.7547 396.455 42.32C396.167 42.8853 395.756 43.3333 395.223 43.664C394.7 43.9947 394.087 44.16 393.383 44.16ZM393.607 43.472C394.033 43.472 394.385 43.3387 394.663 43.072C394.94 42.8053 395.143 42.464 395.271 42.048C395.399 41.6213 395.463 41.1787 395.463 40.72C395.463 40.1547 395.383 39.6107 395.223 39.088C395.073 38.5653 394.828 38.1387 394.487 37.808C394.156 37.4773 393.724 37.312 393.191 37.312C392.753 37.312 392.396 37.4453 392.119 37.712C391.841 37.9787 391.633 38.32 391.495 38.736C391.367 39.152 391.303 39.5947 391.303 40.064C391.303 40.6293 391.383 41.1733 391.543 41.696C391.703 42.2187 391.953 42.6453 392.295 42.976C392.636 43.3067 393.073 43.472 393.607 43.472ZM398.535 44V43.744L399.543 43.232V38.464L398.583 37.632V37.52L400.567 36.64H400.663L400.807 38H400.871C401.116 37.6053 401.34 37.312 401.543 37.12C401.756 36.9173 401.954 36.7893 402.135 36.736C402.316 36.672 402.498 36.64 402.679 36.64C402.764 36.64 402.86 36.656 402.967 36.688C403.084 36.72 403.18 36.752 403.255 36.784C403.372 36.8373 403.479 36.9013 403.575 36.976C403.682 37.0507 403.735 37.136 403.735 37.232C403.735 37.328 403.714 37.424 403.671 37.52L403.351 38.304H403.239L402.631 38.064C402.514 38.0107 402.396 37.9787 402.279 37.968C402.172 37.9573 402.066 37.952 401.959 37.952C401.511 37.952 401.132 38.1813 400.823 38.64V43.232L401.959 43.744V44H398.535ZM407.391 44.16C406.921 44.16 406.516 44.0213 406.174 43.744C405.833 43.4667 405.663 43.0773 405.663 42.576V37.552H404.351V37.456L405.711 36.8L406.847 35.04H406.943V36.8H409.055V37.552H406.943V42.304C406.943 42.5813 407.065 42.784 407.311 42.912C407.556 43.04 407.844 43.104 408.174 43.104C408.377 43.104 408.564 43.0933 408.735 43.072C408.916 43.0507 409.071 43.024 409.199 42.992H409.247V43.152C409.14 43.3973 408.927 43.6267 408.607 43.84C408.297 44.0533 407.892 44.16 407.391 44.16ZM410.583 44V43.744L411.591 43.232V37.552H410.343V36.8H411.591V36.16C411.591 35.9467 411.644 35.6693 411.751 35.328C411.857 34.9867 412.012 34.6293 412.215 34.256C412.428 33.872 412.684 33.5093 412.983 33.168C413.281 32.8267 413.617 32.5493 413.991 32.336C414.375 32.112 414.796 32 415.255 32C415.351 32 415.452 32.016 415.559 32.048C415.665 32.08 415.756 32.112 415.831 32.144C415.991 32.2187 416.108 32.288 416.183 32.352C416.268 32.416 416.311 32.496 416.311 32.592C416.311 32.688 416.289 32.784 416.247 32.88L415.927 33.664H415.815L415.383 33.488C415.084 33.3707 414.737 33.312 414.343 33.312C413.756 33.312 413.361 33.4987 413.159 33.872C412.967 34.2347 412.871 34.784 412.871 35.52V36.8H414.983V37.552H412.871V43.264L414.007 43.744V44H410.583ZM419.508 44.16C418.804 44.16 418.185 43.9947 417.652 43.664C417.129 43.3333 416.718 42.8853 416.42 42.32C416.132 41.7547 415.988 41.1147 415.988 40.4C415.988 39.6853 416.132 39.0453 416.42 38.48C416.718 37.9147 417.129 37.4667 417.652 37.136C418.185 36.8053 418.804 36.64 419.508 36.64C420.212 36.64 420.825 36.8053 421.348 37.136C421.881 37.4667 422.292 37.9147 422.58 38.48C422.878 39.0453 423.028 39.6853 423.028 40.4C423.028 41.1147 422.878 41.7547 422.58 42.32C422.292 42.8853 421.881 43.3333 421.348 43.664C420.825 43.9947 420.212 44.16 419.508 44.16ZM419.732 43.472C420.158 43.472 420.51 43.3387 420.788 43.072C421.065 42.8053 421.268 42.464 421.396 42.048C421.524 41.6213 421.588 41.1787 421.588 40.72C421.588 40.1547 421.508 39.6107 421.348 39.088C421.198 38.5653 420.953 38.1387 420.612 37.808C420.281 37.4773 419.849 37.312 419.316 37.312C418.878 37.312 418.521 37.4453 418.244 37.712C417.966 37.9787 417.758 38.32 417.62 38.736C417.492 39.152 417.428 39.5947 417.428 40.064C417.428 40.6293 417.508 41.1733 417.668 41.696C417.828 42.2187 418.078 42.6453 418.42 42.976C418.761 43.3067 419.198 43.472 419.732 43.472ZM424.532 44V43.744L425.54 43.232V33.824L424.58 32.992V32.88L426.724 32H426.82V43.232L427.828 43.744V44H424.532ZM430.995 34.704C430.718 34.704 430.489 34.6133 430.307 34.432C430.126 34.24 430.035 34.0107 430.035 33.744C430.035 33.4667 430.126 33.2373 430.307 33.056C430.489 32.8747 430.718 32.784 430.995 32.784C431.273 32.784 431.502 32.8747 431.683 33.056C431.865 33.2373 431.955 33.4667 431.955 33.744C431.955 34.0107 431.865 34.24 431.683 34.432C431.502 34.6133 431.273 34.704 430.995 34.704ZM429.395 44V43.744L430.403 43.232V38.464L429.443 37.632V37.52L431.587 36.64H431.683V43.232L432.691 43.744V44H429.395ZM437.867 44.16C437.163 44.16 436.544 43.9947 436.011 43.664C435.488 43.3333 435.078 42.8853 434.779 42.32C434.491 41.7547 434.347 41.1147 434.347 40.4C434.347 39.6853 434.491 39.0453 434.779 38.48C435.078 37.9147 435.488 37.4667 436.011 37.136C436.544 36.8053 437.163 36.64 437.867 36.64C438.571 36.64 439.184 36.8053 439.707 37.136C440.24 37.4667 440.651 37.9147 440.939 38.48C441.238 39.0453 441.387 39.6853 441.387 40.4C441.387 41.1147 441.238 41.7547 440.939 42.32C440.651 42.8853 440.24 43.3333 439.707 43.664C439.184 43.9947 438.571 44.16 437.867 44.16ZM438.091 43.472C438.518 43.472 438.87 43.3387 439.147 43.072C439.424 42.8053 439.627 42.464 439.755 42.048C439.883 41.6213 439.947 41.1787 439.947 40.72C439.947 40.1547 439.867 39.6107 439.707 39.088C439.558 38.5653 439.312 38.1387 438.971 37.808C438.64 37.4773 438.208 37.312 437.675 37.312C437.238 37.312 436.88 37.4453 436.603 37.712C436.326 37.9787 436.118 38.32 435.979 38.736C435.851 39.152 435.787 39.5947 435.787 40.064C435.787 40.6293 435.867 41.1733 436.027 41.696C436.187 42.2187 436.438 42.6453 436.779 42.976C437.12 43.3067 437.558 43.472 438.091 43.472ZM446.188 45.92L449.388 32H450.188L446.988 45.92H446.188Z" fill="black"/>
<path d="M456.652 34.704C456.374 34.704 456.145 34.6133 455.964 34.432C455.782 34.24 455.692 34.0107 455.692 33.744C455.692 33.4667 455.782 33.2373 455.964 33.056C456.145 32.8747 456.374 32.784 456.652 32.784C456.929 32.784 457.158 32.8747 457.34 33.056C457.521 33.2373 457.612 33.4667 457.612 33.744C457.612 34.0107 457.521 34.24 457.34 34.432C457.158 34.6133 456.929 34.704 456.652 34.704ZM455.052 44V43.744L456.06 43.232V38.464L455.1 37.632V37.52L457.244 36.64H457.34V43.232L458.348 43.744V44H455.052ZM459.971 44V43.744L460.979 43.232V38.464L460.019 37.632V37.52L462.003 36.64H462.099L462.243 37.824H462.323C462.728 37.4187 463.118 37.12 463.491 36.928C463.875 36.736 464.296 36.64 464.755 36.64C465.384 36.64 465.896 36.8 466.291 37.12C466.696 37.4293 466.899 37.8933 466.899 38.512V43.232L467.907 43.744V44H464.483V43.744L465.619 43.232V39.264C465.619 38.7947 465.47 38.4373 465.171 38.192C464.883 37.9467 464.504 37.824 464.035 37.824C463.747 37.824 463.427 37.872 463.075 37.968C462.734 38.064 462.462 38.2027 462.259 38.384V43.232L463.395 43.744V44H459.971ZM471.844 44.16C471.374 44.16 470.969 44.0213 470.628 43.744C470.286 43.4667 470.116 43.0773 470.116 42.576V37.552H468.804V37.456L470.164 36.8L471.3 35.04H471.396V36.8H473.508V37.552H471.396V42.304C471.396 42.5813 471.518 42.784 471.764 42.912C472.009 43.04 472.297 43.104 472.628 43.104C472.83 43.104 473.017 43.0933 473.188 43.072C473.369 43.0507 473.524 43.024 473.652 42.992H473.7V43.152C473.593 43.3973 473.38 43.6267 473.06 43.84C472.75 44.0533 472.345 44.16 471.844 44.16ZM475.16 44V43.744L476.168 43.232V38.464L475.208 37.632V37.52L477.192 36.64H477.288L477.432 38H477.496C477.741 37.6053 477.965 37.312 478.168 37.12C478.381 36.9173 478.579 36.7893 478.76 36.736C478.941 36.672 479.123 36.64 479.304 36.64C479.389 36.64 479.485 36.656 479.592 36.688C479.709 36.72 479.805 36.752 479.88 36.784C479.997 36.8373 480.104 36.9013 480.2 36.976C480.307 37.0507 480.36 37.136 480.36 37.232C480.36 37.328 480.339 37.424 480.296 37.52L479.976 38.304H479.864L479.256 38.064C479.139 38.0107 479.021 37.9787 478.904 37.968C478.797 37.9573 478.691 37.952 478.584 37.952C478.136 37.952 477.757 38.1813 477.448 38.64V43.232L478.584 43.744V44H475.16ZM485.008 44.16C484.304 44.16 483.685 43.9947 483.152 43.664C482.629 43.3333 482.218 42.8853 481.92 42.32C481.632 41.7547 481.488 41.1147 481.488 40.4C481.488 39.6853 481.632 39.0453 481.92 38.48C482.218 37.9147 482.629 37.4667 483.152 37.136C483.685 36.8053 484.304 36.64 485.008 36.64C485.712 36.64 486.325 36.8053 486.848 37.136C487.381 37.4667 487.792 37.9147 488.08 38.48C488.378 39.0453 488.528 39.6853 488.528 40.4C488.528 41.1147 488.378 41.7547 488.08 42.32C487.792 42.8853 487.381 43.3333 486.848 43.664C486.325 43.9947 485.712 44.16 485.008 44.16ZM485.232 43.472C485.658 43.472 486.01 43.3387 486.288 43.072C486.565 42.8053 486.768 42.464 486.896 42.048C487.024 41.6213 487.088 41.1787 487.088 40.72C487.088 40.1547 487.008 39.6107 486.848 39.088C486.698 38.5653 486.453 38.1387 486.112 37.808C485.781 37.4773 485.349 37.312 484.816 37.312C484.378 37.312 484.021 37.4453 483.744 37.712C483.466 37.9787 483.258 38.32 483.12 38.736C482.992 39.152 482.928 39.5947 482.928 40.064C482.928 40.6293 483.008 41.1733 483.168 41.696C483.328 42.2187 483.578 42.6453 483.92 42.976C484.261 43.3067 484.698 43.472 485.232 43.472Z" fill="#BABCBE"/>
<g clip-path="url(#clip2_427_137)">
<path d="M126 33.6666L125.06 34.6066L128.78 38.3333H120.667V39.6666H128.78L125.053 43.3866L126 44.3333L131.333 38.9999L126 33.6666Z" fill="black"/>
</g>
<path d="M275.686 435.64C270.493 435.64 266.119 433.863 262.566 430.31C259.013 426.483 257.236 422.11 257.236 417.19C257.236 412.27 259.013 408.033 262.566 404.48C266.119 400.653 270.493 398.74 275.686 398.74C280.879 398.74 285.253 400.653 288.806 404.48C292.359 408.033 294.136 412.27 294.136 417.19C294.136 422.11 292.359 426.483 288.806 430.31C285.253 433.863 280.879 435.64 275.686 435.64ZM275.686 282.3C270.493 282.3 266.119 280.523 262.566 276.97C259.013 273.143 257.236 268.77 257.236 263.85C257.236 258.93 259.013 254.693 262.566 251.14C266.119 247.313 270.493 245.4 275.686 245.4C280.879 245.4 285.253 247.313 288.806 251.14C292.359 254.693 294.136 258.93 294.136 263.85C294.136 268.77 292.359 273.143 288.806 276.97C285.253 280.523 280.879 282.3 275.686 282.3ZM346.523 434V427.85L372.353 420.88V263.44H336.273V249.5H372.353V233.1C372.353 222.167 374.13 210.55 377.683 198.25C381.51 185.95 386.977 174.333 394.083 163.4C401.463 152.467 410.62 143.583 421.553 136.75C432.487 129.917 445.197 126.5 459.683 126.5C463.237 126.5 466.38 127.047 469.113 128.14C473.487 130.053 475.673 132.24 475.673 134.7C475.673 136.34 475.263 138.117 474.443 140.03L469.933 151.1H469.113L460.503 148.23C452.03 145.497 443.83 144.13 435.903 144.13C421.963 144.13 411.303 149.87 403.923 161.35C396.543 172.83 392.853 191.28 392.853 216.7V249.5H446.973V263.44H392.853V420.88L424.423 427.85V434H346.523ZM563.855 438.1C544.722 438.1 528.595 434 515.475 425.8C502.629 417.6 492.789 406.53 485.955 392.59C479.395 378.65 476.115 362.933 476.115 345.44C476.115 326.307 479.942 309.223 487.595 294.19C495.522 278.883 506.319 266.993 519.985 258.52C533.925 249.773 549.642 245.4 567.135 245.4C578.069 245.4 587.772 246.903 596.245 249.91C604.719 252.917 611.552 256.197 616.745 259.75C625.492 265.763 629.865 270.957 629.865 275.33C629.865 277.243 628.909 279.02 626.995 280.66L615.925 290.09H614.285L608.955 282.71C602.942 274.51 596.382 267.813 589.275 262.62C582.442 257.153 573.559 254.42 562.625 254.42C543.492 254.42 527.639 261.663 515.065 276.15C502.765 290.363 496.615 311.683 496.615 340.11C496.615 364.163 502.902 383.707 515.475 398.74C528.322 413.5 546.362 420.88 569.595 420.88C582.169 420.88 593.785 418.967 604.445 415.14C615.105 411.313 623.442 406.12 629.455 399.56H630.685V404.89C624.399 414.457 615.515 422.383 604.035 428.67C592.555 434.957 579.162 438.1 563.855 438.1Z" fill="black"/>
</g>
<defs>
<clipPath id="clip0_427_137">
<rect width="880" height="624" fill="white"/>
</clipPath>
<clipPath id="clip1_427_137">
<rect width="48" height="48" fill="white" transform="translate(804 336) rotate(-90)"/>
</clipPath>
<clipPath id="clip2_427_137">
<rect width="16" height="16" fill="white" transform="translate(118 47) rotate(-90)"/>
</clipPath>
</defs>
</svg>
