<svg width="400" height="264" viewBox="0 0 400 264" fill="none" xmlns="http://www.w3.org/2000/svg">
<rect x="0.5" y="0.5" width="399" height="263" rx="15.5" fill="white" stroke="black"/>
<path d="M130.009 187.736C127.678 187.736 125.716 186.939 124.121 185.344C122.526 183.627 121.729 181.664 121.729 179.456C121.729 177.248 122.526 175.347 124.121 173.752C125.716 172.035 127.678 171.176 130.009 171.176C132.34 171.176 134.302 172.035 135.897 173.752C137.492 175.347 138.289 177.248 138.289 179.456C138.289 181.664 137.492 183.627 135.897 185.344C134.302 186.939 132.34 187.736 130.009 187.736ZM130.009 118.92C127.678 118.92 125.716 118.123 124.121 116.528C122.526 114.811 121.729 112.848 121.729 110.64C121.729 108.432 122.526 106.531 124.121 104.936C125.716 103.219 127.678 102.36 130.009 102.36C132.34 102.36 134.302 103.219 135.897 104.936C137.492 106.531 138.289 108.432 138.289 110.64C138.289 112.848 137.492 114.811 135.897 116.528C134.302 118.123 132.34 118.92 130.009 118.92ZM161.799 187V184.24L173.391 181.112V110.456H157.199V104.2H173.391V96.84C173.391 91.9333 174.189 86.72 175.783 81.2C177.501 75.68 179.954 70.4667 183.143 65.56C186.455 60.6533 190.565 56.6667 195.471 53.6C200.378 50.5333 206.082 49 212.583 49C214.178 49 215.589 49.2453 216.815 49.736C218.778 50.5947 219.759 51.576 219.759 52.68C219.759 53.416 219.575 54.2133 219.207 55.072L217.183 60.04H216.815L212.951 58.752C209.149 57.5253 205.469 56.912 201.911 56.912C195.655 56.912 190.871 59.488 187.559 64.64C184.247 69.792 182.591 78.072 182.591 89.48V104.2H206.879V110.456H182.591V181.112L196.759 184.24V187H161.799ZM259.334 188.84C250.747 188.84 243.51 187 237.622 183.32C231.856 179.64 227.44 174.672 224.374 168.416C221.43 162.16 219.958 155.107 219.958 147.256C219.958 138.669 221.675 131.003 225.11 124.256C228.667 117.387 233.512 112.051 239.646 108.248C245.902 104.323 252.955 102.36 260.806 102.36C265.712 102.36 270.067 103.035 273.87 104.384C277.672 105.733 280.739 107.205 283.07 108.8C286.995 111.499 288.958 113.829 288.958 115.792C288.958 116.651 288.528 117.448 287.67 118.184L282.702 122.416H281.966L279.574 119.104C276.875 115.424 273.931 112.419 270.742 110.088C267.675 107.635 263.688 106.408 258.782 106.408C250.195 106.408 243.08 109.659 237.438 116.16C231.918 122.539 229.158 132.107 229.158 144.864C229.158 155.659 231.979 164.429 237.622 171.176C243.387 177.8 251.483 181.112 261.91 181.112C267.552 181.112 272.766 180.253 277.55 178.536C282.334 176.819 286.075 174.488 288.774 171.544H289.326V173.936C286.504 178.229 282.518 181.787 277.366 184.608C272.214 187.429 266.203 188.84 259.334 188.84Z" fill="black"/>
<path d="M124.121 185.344L123.388 186.024L123.401 186.038L123.414 186.051L124.121 185.344ZM124.121 173.752L124.828 174.459L124.841 174.446L124.854 174.432L124.121 173.752ZM135.897 173.752L135.164 174.432L135.177 174.446L135.19 174.459L135.897 173.752ZM135.897 185.344L136.604 186.051L136.617 186.038L136.63 186.024L135.897 185.344ZM124.121 116.528L123.388 117.208L123.401 117.222L123.414 117.235L124.121 116.528ZM124.121 104.936L124.828 105.643L124.841 105.63L124.854 105.616L124.121 104.936ZM135.897 104.936L135.164 105.616L135.177 105.63L135.19 105.643L135.897 104.936ZM135.897 116.528L136.604 117.235L136.617 117.222L136.63 117.208L135.897 116.528ZM130.009 186.736C127.934 186.736 126.228 186.037 124.828 184.637L123.414 186.051C125.203 187.84 127.423 188.736 130.009 188.736V186.736ZM124.854 184.664C123.419 183.119 122.729 181.395 122.729 179.456H120.729C120.729 181.933 121.633 184.135 123.388 186.024L124.854 184.664ZM122.729 179.456C122.729 177.52 123.417 175.871 124.828 174.459L123.414 173.045C121.636 174.823 120.729 176.976 120.729 179.456H122.729ZM124.854 174.432C126.261 172.918 127.958 172.176 130.009 172.176V170.176C127.399 170.176 125.171 171.152 123.388 173.072L124.854 174.432ZM130.009 172.176C132.06 172.176 133.758 172.918 135.164 174.432L136.63 173.072C134.847 171.152 132.62 170.176 130.009 170.176V172.176ZM135.19 174.459C136.602 175.871 137.289 177.52 137.289 179.456H139.289C139.289 176.976 138.382 174.823 136.604 173.045L135.19 174.459ZM137.289 179.456C137.289 181.395 136.599 183.119 135.164 184.664L136.63 186.024C138.385 184.135 139.289 181.933 139.289 179.456H137.289ZM135.19 184.637C133.79 186.037 132.084 186.736 130.009 186.736V188.736C132.595 188.736 134.815 187.84 136.604 186.051L135.19 184.637ZM130.009 117.92C127.934 117.92 126.228 117.221 124.828 115.821L123.414 117.235C125.203 119.024 127.423 119.92 130.009 119.92V117.92ZM124.854 115.848C123.419 114.303 122.729 112.579 122.729 110.64H120.729C120.729 113.117 121.633 115.319 123.388 117.208L124.854 115.848ZM122.729 110.64C122.729 108.704 123.417 107.055 124.828 105.643L123.414 104.229C121.636 106.007 120.729 108.16 120.729 110.64H122.729ZM124.854 105.616C126.261 104.102 127.958 103.36 130.009 103.36V101.36C127.399 101.36 125.171 102.336 123.388 104.256L124.854 105.616ZM130.009 103.36C132.06 103.36 133.758 104.102 135.164 105.616L136.63 104.256C134.847 102.336 132.62 101.36 130.009 101.36V103.36ZM135.19 105.643C136.602 107.055 137.289 108.704 137.289 110.64H139.289C139.289 108.16 138.382 106.007 136.604 104.229L135.19 105.643ZM137.289 110.64C137.289 112.579 136.599 114.303 135.164 115.848L136.63 117.208C138.385 115.319 139.289 113.117 139.289 110.64H137.289ZM135.19 115.821C133.79 117.221 132.084 117.92 130.009 117.92V119.92C132.595 119.92 134.815 119.024 136.604 117.235L135.19 115.821ZM161.799 187H160.799V188H161.799V187ZM161.799 184.24L161.539 183.275L160.799 183.474V184.24H161.799ZM173.391 181.112L173.652 182.077L174.391 181.878V181.112H173.391ZM173.391 110.456H174.391V109.456H173.391V110.456ZM157.199 110.456H156.199V111.456H157.199V110.456ZM157.199 104.2V103.2H156.199V104.2H157.199ZM173.391 104.2V105.2H174.391V104.2H173.391ZM175.783 81.2L174.829 80.9029L174.826 80.9127L174.823 80.9225L175.783 81.2ZM183.143 65.56L182.315 65.0005L182.31 65.0077L182.305 65.015L183.143 65.56ZM195.471 53.6L196.001 54.448L196.001 54.448L195.471 53.6ZM216.815 49.736L217.216 48.8198L217.202 48.8134L217.187 48.8075L216.815 49.736ZM219.207 55.072L218.288 54.6781L218.285 54.6864L218.281 54.6947L219.207 55.072ZM217.183 60.04V61.04H217.856L218.11 60.4173L217.183 60.04ZM216.815 60.04L216.499 60.9887L216.653 61.04H216.815V60.04ZM212.951 58.752L213.268 57.8033L213.258 57.8003L212.951 58.752ZM187.559 64.64L188.401 65.1808L188.401 65.1808L187.559 64.64ZM182.591 104.2H181.591V105.2H182.591V104.2ZM206.879 104.2H207.879V103.2H206.879V104.2ZM206.879 110.456V111.456H207.879V110.456H206.879ZM182.591 110.456V109.456H181.591V110.456H182.591ZM182.591 181.112H181.591V181.915L182.376 182.088L182.591 181.112ZM196.759 184.24H197.759V183.437L196.975 183.264L196.759 184.24ZM196.759 187V188H197.759V187H196.759ZM162.799 187V184.24H160.799V187H162.799ZM162.06 185.205L173.652 182.077L173.131 180.147L161.539 183.275L162.06 185.205ZM174.391 181.112V110.456H172.391V181.112H174.391ZM173.391 109.456H157.199V111.456H173.391V109.456ZM158.199 110.456V104.2H156.199V110.456H158.199ZM157.199 105.2H173.391V103.2H157.199V105.2ZM174.391 104.2V96.84H172.391V104.2H174.391ZM174.391 96.84C174.391 92.0416 175.171 86.9223 176.744 81.4775L174.823 80.9225C173.206 86.5177 172.391 91.825 172.391 96.84H174.391ZM176.738 81.4971C178.428 76.0657 180.842 70.9357 183.982 66.105L182.305 65.015C179.066 69.9976 176.574 75.2943 174.829 80.9029L176.738 81.4971ZM183.972 66.1195C187.208 61.3261 191.216 57.4387 196.001 54.448L194.941 52.752C189.913 55.8946 185.703 59.9806 182.315 65.0005L183.972 66.1195ZM196.001 54.448C200.73 51.4926 206.246 50 212.583 50V48C205.919 48 200.026 49.5741 194.941 52.752L196.001 54.448ZM212.583 50C214.077 50 215.357 50.2297 216.444 50.6645L217.187 48.8075C215.82 48.2609 214.28 48 212.583 48V50ZM216.415 50.6521C217.337 51.0558 217.948 51.4551 218.316 51.8231C218.67 52.1771 218.759 52.4574 218.759 52.68H220.759C220.759 51.7986 220.358 51.0363 219.731 50.4089C219.117 49.7955 218.256 49.2749 217.216 48.8198L216.415 50.6521ZM218.759 52.68C218.759 53.2494 218.617 53.9116 218.288 54.6781L220.127 55.4659C220.534 54.515 220.759 53.5826 220.759 52.68H218.759ZM218.281 54.6947L216.257 59.6627L218.11 60.4173L220.134 55.4493L218.281 54.6947ZM217.183 59.04H216.815V61.04H217.183V59.04ZM217.132 59.0913L213.268 57.8033L212.635 59.7007L216.499 60.9887L217.132 59.0913ZM213.258 57.8003C209.369 56.5455 205.585 55.912 201.911 55.912V57.912C205.353 57.912 208.929 58.5051 212.644 59.7037L213.258 57.8003ZM201.911 55.912C195.324 55.912 190.219 58.6537 186.718 64.0992L188.401 65.1808C191.524 60.3223 195.987 57.912 201.911 57.912V55.912ZM186.718 64.0992C183.246 69.5001 181.591 78.0212 181.591 89.48H183.591C183.591 78.1228 185.249 70.0839 188.401 65.1808L186.718 64.0992ZM181.591 89.48V104.2H183.591V89.48H181.591ZM182.591 105.2H206.879V103.2H182.591V105.2ZM205.879 104.2V110.456H207.879V104.2H205.879ZM206.879 109.456H182.591V111.456H206.879V109.456ZM181.591 110.456V181.112H183.591V110.456H181.591ZM182.376 182.088L196.544 185.216L196.975 183.264L182.807 180.136L182.376 182.088ZM195.759 184.24V187H197.759V184.24H195.759ZM196.759 186H161.799V188H196.759V186ZM237.622 183.32L237.084 184.163L237.092 184.168L237.622 183.32ZM224.374 168.416L223.469 168.842L223.472 168.849L223.476 168.856L224.374 168.416ZM225.11 124.256L224.222 123.796L224.219 123.802L225.11 124.256ZM239.646 108.248L240.173 109.098L240.177 109.095L239.646 108.248ZM273.87 104.384L274.204 103.442L274.204 103.442L273.87 104.384ZM283.07 108.8L283.636 107.976L283.634 107.975L283.07 108.8ZM287.67 118.184L288.318 118.945L288.321 118.943L287.67 118.184ZM282.702 122.416V123.416H283.07L283.35 123.177L282.702 122.416ZM281.966 122.416L281.155 123.001L281.455 123.416H281.966V122.416ZM279.574 119.104L280.385 118.518L280.38 118.513L279.574 119.104ZM270.742 110.088L270.117 110.869L270.134 110.883L270.152 110.895L270.742 110.088ZM237.438 116.16L236.683 115.505L236.682 115.506L237.438 116.16ZM237.622 171.176L236.855 171.818L236.861 171.825L236.868 171.833L237.622 171.176ZM277.55 178.536L277.212 177.595L277.212 177.595L277.55 178.536ZM288.774 171.544V170.544H288.334L288.037 170.868L288.774 171.544ZM289.326 171.544H290.326V170.544H289.326V171.544ZM289.326 173.936L290.162 174.485L290.326 174.235V173.936H289.326ZM277.366 184.608L277.846 185.485L277.366 184.608ZM259.334 187.84C250.89 187.84 243.847 186.032 238.152 182.472L237.092 184.168C243.173 187.968 250.604 189.84 259.334 189.84V187.84ZM238.16 182.477C232.552 178.898 228.259 174.07 225.272 167.976L223.476 168.856C226.622 175.274 231.161 180.382 237.084 184.163L238.16 182.477ZM225.279 167.99C222.405 161.884 220.958 154.979 220.958 147.256H218.958C218.958 155.234 220.454 162.436 223.469 168.842L225.279 167.99ZM220.958 147.256C220.958 138.806 222.647 131.298 226.001 124.71L224.219 123.802C220.703 130.707 218.958 138.533 218.958 147.256H220.958ZM225.998 124.716C229.478 117.995 234.204 112.799 240.173 109.098L239.119 107.398C232.821 111.303 227.856 116.779 224.222 123.796L225.998 124.716ZM240.177 109.095C246.264 105.276 253.131 103.36 260.806 103.36V101.36C252.78 101.36 245.54 103.369 239.114 107.401L240.177 109.095ZM260.806 103.36C265.622 103.36 269.86 104.022 273.535 105.326L274.204 103.442C270.274 102.047 265.803 101.36 260.806 101.36V103.36ZM273.535 105.326C277.288 106.658 280.269 108.095 282.505 109.625L283.634 107.975C281.209 106.315 278.057 104.809 274.204 103.442L273.535 105.326ZM282.503 109.624C284.429 110.948 285.82 112.147 286.721 113.216C287.63 114.296 287.958 115.146 287.958 115.792H289.958C289.958 114.475 289.304 113.179 288.251 111.928C287.189 110.667 285.636 109.351 283.636 107.976L282.503 109.624ZM287.958 115.792C287.958 116.273 287.731 116.815 287.019 117.425L288.321 118.943C289.326 118.081 289.958 117.028 289.958 115.792H287.958ZM287.021 117.423L282.053 121.655L283.35 123.177L288.318 118.945L287.021 117.423ZM282.702 121.416H281.966V123.416H282.702V121.416ZM282.776 121.831L280.384 118.519L278.763 119.689L281.155 123.001L282.776 121.831ZM280.38 118.513C277.63 114.763 274.616 111.68 271.332 109.281L270.152 110.895C273.247 113.157 276.12 116.085 278.767 119.695L280.38 118.513ZM271.367 109.307C268.082 106.68 263.858 105.408 258.782 105.408V107.408C263.519 107.408 267.268 108.59 270.117 110.869L271.367 109.307ZM258.782 105.408C249.905 105.408 242.515 108.785 236.683 115.505L238.193 116.815C243.646 110.532 250.486 107.408 258.782 107.408V105.408ZM236.682 115.506C230.941 122.139 228.158 131.985 228.158 144.864H230.158C230.158 132.228 232.895 122.938 238.194 116.814L236.682 115.506ZM228.158 144.864C228.158 155.838 231.03 164.853 236.855 171.818L238.389 170.534C232.929 164.006 230.158 155.479 230.158 144.864H228.158ZM236.868 171.833C242.859 178.716 251.253 182.112 261.91 182.112V180.112C251.713 180.112 243.916 176.884 238.376 170.519L236.868 171.833ZM261.91 182.112C267.655 182.112 272.984 181.237 277.888 179.477L277.212 177.595C272.548 179.269 267.45 180.112 261.91 180.112V182.112ZM277.888 179.477C282.784 177.72 286.677 175.311 289.511 172.22L288.037 170.868C285.473 173.665 281.884 175.918 277.212 177.595L277.888 179.477ZM288.774 172.544H289.326V170.544H288.774V172.544ZM288.326 171.544V173.936H290.326V171.544H288.326ZM288.49 173.387C285.771 177.525 281.915 180.977 276.886 183.731L277.846 185.485C283.121 182.597 287.238 178.934 290.162 174.485L288.49 173.387ZM276.886 183.731C271.904 186.459 266.064 187.84 259.334 187.84V189.84C266.342 189.84 272.524 188.4 277.846 185.485L276.886 183.731Z" fill="black"/>
</svg>
