<svg width="848" height="1152" viewBox="0 0 848 1152" fill="none" xmlns="http://www.w3.org/2000/svg">
<rect width="848" height="1152" fill="white"/>
<path d="M363.644 488.2V487.6L366.164 486.92V462.52L363.244 462.16V461.56L367.564 460.6H367.964L368.124 463.08H368.324C369.338 462.227 370.311 461.6 371.244 461.2C372.204 460.8 373.231 460.6 374.324 460.6C375.658 460.6 376.844 460.947 377.884 461.64C378.924 462.333 379.738 463.32 380.324 464.6C380.938 465.853 381.244 467.36 381.244 469.12C381.244 471.307 380.818 473.173 379.964 474.72C379.111 476.24 377.978 477.4 376.564 478.2C375.151 479 373.591 479.4 371.884 479.4C371.298 479.4 370.684 479.293 370.044 479.08C369.404 478.893 368.778 478.64 368.164 478.32V486.92L371.004 487.6V488.2H363.644ZM373.244 461.96C372.258 461.96 371.338 462.133 370.484 462.48C369.658 462.827 368.884 463.32 368.164 463.96V476.72C368.991 477.253 369.804 477.667 370.604 477.96C371.404 478.227 372.298 478.36 373.284 478.36C374.378 478.36 375.378 478.08 376.284 477.52C377.218 476.96 377.964 476.053 378.524 474.8C379.084 473.52 379.364 471.84 379.364 469.76C379.364 467.973 379.071 466.507 378.484 465.36C377.898 464.187 377.124 463.333 376.164 462.8C375.231 462.24 374.258 461.96 373.244 461.96ZM385.64 479V478.4L388.16 477.72V462.52L385.24 462.16V461.56L389.56 460.6H389.96L390.16 464.16H390.24C391.28 463.067 392.107 462.267 392.72 461.76C393.333 461.253 393.84 460.933 394.24 460.8C394.64 460.667 395.093 460.6 395.6 460.6C396.053 460.6 396.467 460.68 396.84 460.84C397.107 460.947 397.293 461.053 397.4 461.16C397.533 461.24 397.6 461.36 397.6 461.52C397.6 461.573 397.587 461.64 397.56 461.72C397.56 461.773 397.547 461.853 397.52 461.96L397.12 463H397.04L396.28 462.64C395.907 462.453 395.413 462.36 394.8 462.36C394.027 462.36 393.253 462.573 392.48 463C391.707 463.427 390.933 464.173 390.16 465.24V477.72L393.24 478.4V479H385.64ZM408.293 479.4C406.4 479.4 404.8 479 403.493 478.2C402.213 477.4 401.24 476.32 400.573 474.96C399.933 473.6 399.613 472.067 399.613 470.36C399.613 468.547 399.987 466.907 400.733 465.44C401.507 463.973 402.507 462.8 403.733 461.92C404.987 461.04 406.347 460.6 407.813 460.6C409.92 460.6 411.573 461.293 412.773 462.68C413.973 464.067 414.667 465.987 414.853 468.44L414.733 468.56H401.653C401.627 468.96 401.613 469.387 401.613 469.84C401.613 472.187 402.24 474.093 403.493 475.56C404.773 477 406.56 477.72 408.853 477.72C410.107 477.72 411.24 477.533 412.253 477.16C413.293 476.787 414.107 476.28 414.693 475.64H414.813V476.16C414.227 477.093 413.36 477.867 412.213 478.48C411.093 479.093 409.787 479.4 408.293 479.4ZM407.333 461.48C406.027 461.48 404.853 462.027 403.813 463.12C402.773 464.187 402.093 465.707 401.773 467.68H412.653C412.387 465.733 411.84 464.213 411.013 463.12C410.187 462.027 408.96 461.48 407.333 461.48ZM419.431 479V478.4L421.951 477.72V462.36H418.431V461H421.951V459.4C421.951 458.333 422.124 457.2 422.471 456C422.844 454.8 423.378 453.667 424.071 452.6C424.791 451.533 425.684 450.667 426.751 450C427.818 449.333 429.058 449 430.471 449C430.818 449 431.124 449.053 431.391 449.16C431.818 449.347 432.031 449.56 432.031 449.8C432.031 449.96 431.991 450.133 431.911 450.32L431.471 451.4H431.391L430.551 451.12C429.724 450.853 428.924 450.72 428.151 450.72C426.791 450.72 425.751 451.28 425.031 452.4C424.311 453.52 423.951 455.32 423.951 457.8V461H429.231V462.36H423.951V477.72L427.031 478.4V479H419.431ZM436.314 479.4C435.088 479.4 434.061 479.04 433.234 478.32C432.408 477.573 431.994 476.547 431.994 475.24C431.994 473.96 432.448 472.893 433.354 472.04C434.288 471.187 435.821 470.493 437.954 469.96L441.874 468.96V465.64C441.874 464.493 441.461 463.573 440.634 462.88C439.808 462.16 438.861 461.8 437.794 461.8C436.648 461.8 435.834 462.04 435.354 462.52C434.901 462.973 434.674 463.6 434.674 464.4V466.04L434.474 466.24H433.434C433.008 466.24 432.728 466.173 432.594 466.04C432.461 465.907 432.394 465.653 432.394 465.28C432.394 464.773 432.568 464.253 432.914 463.72C433.261 463.187 433.768 462.707 434.434 462.28C435.154 461.827 435.874 461.44 436.594 461.12C437.341 460.773 438.048 460.6 438.714 460.6C440.314 460.6 441.568 460.96 442.474 461.68C443.408 462.373 443.874 463.467 443.874 464.96V477.4C444.088 477.587 444.328 477.733 444.594 477.84C444.888 477.947 445.221 478 445.594 478H447.674L447.714 478.04V478.12C447.528 478.387 447.221 478.667 446.794 478.96C446.368 479.253 445.794 479.4 445.074 479.4C444.141 479.4 443.421 479.16 442.914 478.68C442.408 478.2 442.101 477.64 441.994 477H441.914C441.221 477.693 440.381 478.267 439.394 478.72C438.434 479.173 437.408 479.4 436.314 479.4ZM433.994 474.52C433.994 475.613 434.301 476.44 434.914 477C435.528 477.533 436.394 477.8 437.514 477.8C438.181 477.8 438.901 477.707 439.674 477.52C440.448 477.307 441.181 476.987 441.874 476.56V469.8C439.661 470.253 437.981 470.707 436.834 471.16C435.714 471.613 434.954 472.107 434.554 472.64C434.181 473.173 433.994 473.8 433.994 474.52ZM459.111 479.4C457.244 479.4 455.671 479 454.391 478.2C453.137 477.4 452.177 476.32 451.511 474.96C450.871 473.6 450.551 472.067 450.551 470.36C450.551 468.493 450.924 466.827 451.671 465.36C452.444 463.867 453.497 462.707 454.831 461.88C456.191 461.027 457.724 460.6 459.431 460.6C460.497 460.6 461.444 460.747 462.271 461.04C463.097 461.333 463.764 461.653 464.271 462C465.124 462.587 465.551 463.093 465.551 463.52C465.551 463.707 465.457 463.88 465.271 464.04L464.191 464.96H464.031L463.511 464.24C462.924 463.44 462.284 462.787 461.591 462.28C460.924 461.747 460.057 461.48 458.991 461.48C457.124 461.48 455.577 462.187 454.351 463.6C453.151 464.987 452.551 467.067 452.551 469.84C452.551 472.187 453.164 474.093 454.391 475.56C455.644 477 457.404 477.72 459.671 477.72C460.897 477.72 462.031 477.533 463.071 477.16C464.111 476.787 464.924 476.28 465.511 475.64H465.631V476.16C465.017 477.093 464.151 477.867 463.031 478.48C461.911 479.093 460.604 479.4 459.111 479.4ZM478.098 479.4C476.205 479.4 474.605 479 473.298 478.2C472.018 477.4 471.045 476.32 470.378 474.96C469.738 473.6 469.418 472.067 469.418 470.36C469.418 468.547 469.791 466.907 470.538 465.44C471.311 463.973 472.311 462.8 473.538 461.92C474.791 461.04 476.151 460.6 477.618 460.6C479.725 460.6 481.378 461.293 482.578 462.68C483.778 464.067 484.471 465.987 484.658 468.44L484.538 468.56H471.458C471.431 468.96 471.418 469.387 471.418 469.84C471.418 472.187 472.045 474.093 473.298 475.56C474.578 477 476.365 477.72 478.658 477.72C479.911 477.72 481.045 477.533 482.058 477.16C483.098 476.787 483.911 476.28 484.498 475.64H484.618V476.16C484.031 477.093 483.165 477.867 482.018 478.48C480.898 479.093 479.591 479.4 478.098 479.4ZM477.138 461.48C475.831 461.48 474.658 462.027 473.618 463.12C472.578 464.187 471.898 465.707 471.578 467.68H482.458C482.191 465.733 481.645 464.213 480.818 463.12C479.991 462.027 478.765 461.48 477.138 461.48ZM66.3185 565.32C64.3985 565.32 62.6812 564.851 61.1665 563.912C59.6732 562.973 58.4892 561.683 57.6145 560.04C56.7398 558.397 56.3025 556.531 56.3025 554.44C56.3025 552.349 56.7398 550.483 57.6145 548.84C58.4892 547.197 59.6732 545.907 61.1665 544.968C62.6812 544.029 64.3985 543.56 66.3185 543.56C68.2598 543.56 69.9772 544.029 71.4705 544.968C72.9852 545.907 74.1798 547.197 75.0545 548.84C75.9292 550.483 76.3665 552.349 76.3665 554.44C76.3665 556.531 75.9292 558.397 75.0545 560.04C74.1798 561.683 72.9852 562.973 71.4705 563.912C69.9772 564.851 68.2598 565.32 66.3185 565.32ZM66.9905 564.36C68.4412 564.36 69.7212 563.997 70.8305 563.272C71.9612 562.525 72.8358 561.491 73.4545 560.168C74.0732 558.824 74.3825 557.245 74.3825 555.432C74.3825 553.235 73.9985 551.315 73.2305 549.672C72.4625 548.029 71.4278 546.76 70.1265 545.864C68.8252 544.947 67.3745 544.488 65.7745 544.488C64.3238 544.488 63.0332 544.851 61.9025 545.576C60.7718 546.301 59.8865 547.336 59.2465 548.68C58.6065 550.003 58.2865 551.571 58.2865 553.384C58.2865 555.581 58.6705 557.512 59.4385 559.176C60.2278 560.819 61.2732 562.099 62.5745 563.016C63.8972 563.912 65.3692 564.36 66.9905 564.36ZM80.4498 565V564.52L82.4658 563.976V551.816L80.1298 551.528V551.048L83.5858 550.28H83.9058L84.0338 552.584H84.1298C84.9191 551.773 85.6658 551.187 86.3698 550.824C87.0738 550.461 87.8631 550.28 88.7378 550.28C90.0818 550.28 91.1804 550.653 92.0338 551.4C92.9084 552.147 93.3458 553.235 93.3458 554.664V563.976L95.3618 564.52V565H89.4738V564.52L91.7458 563.976V555.528C91.7458 554.227 91.3938 553.245 90.6898 552.584C90.0071 551.901 89.1004 551.56 87.9698 551.56C87.3298 551.56 86.6364 551.72 85.8898 552.04C85.1431 552.339 84.5351 552.776 84.0658 553.352V563.976L86.3378 564.52V565H80.4498ZM97.978 565V564.52L99.994 563.976V542.536L97.658 541.928V541.448L101.274 541H101.594V563.976L103.866 564.52V565H97.978ZM106.593 572.712C106.145 572.712 105.857 572.637 105.729 572.488C105.623 572.36 105.569 572.125 105.569 571.784V571.08L105.761 570.888H107.169C107.703 570.888 108.108 570.845 108.385 570.76C108.663 570.675 108.919 570.44 109.153 570.056C109.388 569.672 109.719 569.043 110.145 568.168L111.809 564.648L106.561 551.688L104.545 551.08V550.6H110.689V551.08L108.225 551.624V551.72L112.513 562.696H112.609L116.513 551.752V551.656L113.921 551.08V550.6H119.585V551.08L117.537 551.688L110.849 568.456C110.593 569.096 110.348 569.619 110.113 570.024C109.9 570.451 109.655 570.867 109.377 571.272C109.057 571.741 108.641 572.093 108.129 572.328C107.639 572.584 107.127 572.712 106.593 572.712ZM131.836 565.32C130.854 565.32 130.033 565.032 129.372 564.456C128.71 563.859 128.38 563.037 128.38 561.992C128.38 560.968 128.742 560.115 129.468 559.432C130.214 558.749 131.441 558.195 133.148 557.768L136.284 556.968V554.312C136.284 553.395 135.953 552.659 135.292 552.104C134.63 551.528 133.873 551.24 133.02 551.24C132.102 551.24 131.452 551.432 131.068 551.816C130.705 552.179 130.524 552.68 130.524 553.32V554.632L130.364 554.792H129.532C129.19 554.792 128.966 554.739 128.86 554.632C128.753 554.525 128.7 554.323 128.7 554.024C128.7 553.619 128.838 553.203 129.116 552.776C129.393 552.349 129.798 551.965 130.332 551.624C130.908 551.261 131.484 550.952 132.06 550.696C132.657 550.419 133.222 550.28 133.756 550.28C135.036 550.28 136.038 550.568 136.764 551.144C137.51 551.699 137.884 552.573 137.884 553.768V563.72C138.054 563.869 138.246 563.987 138.46 564.072C138.694 564.157 138.961 564.2 139.26 564.2H140.924L140.956 564.232V564.296C140.806 564.509 140.561 564.733 140.22 564.968C139.878 565.203 139.42 565.32 138.844 565.32C138.097 565.32 137.521 565.128 137.116 564.744C136.71 564.36 136.465 563.912 136.38 563.4H136.316C135.761 563.955 135.089 564.413 134.3 564.776C133.532 565.139 132.71 565.32 131.836 565.32ZM129.98 561.416C129.98 562.291 130.225 562.952 130.716 563.4C131.206 563.827 131.9 564.04 132.796 564.04C133.329 564.04 133.905 563.965 134.524 563.816C135.142 563.645 135.729 563.389 136.284 563.048V557.64C134.513 558.003 133.169 558.365 132.252 558.728C131.356 559.091 130.748 559.485 130.428 559.912C130.129 560.339 129.98 560.84 129.98 561.416ZM143.361 565V564.52L145.377 563.976V551.688H142.561V550.6H145.377V549.32C145.377 548.467 145.515 547.56 145.793 546.6C146.091 545.64 146.518 544.733 147.073 543.88C147.649 543.027 148.363 542.333 149.217 541.8C150.07 541.267 151.062 541 152.193 541C152.47 541 152.715 541.043 152.929 541.128C153.27 541.277 153.441 541.448 153.441 541.64C153.441 541.683 153.43 541.747 153.409 541.832C153.409 541.896 153.398 541.96 153.377 542.024L152.993 542.92H152.929L152.257 542.696C151.595 542.483 150.955 542.376 150.337 542.376C149.249 542.376 148.417 542.824 147.841 543.72C147.265 544.616 146.977 546.056 146.977 548.04V550.6H155.457L156.513 547.08H156.865V550.6H161.089V551.688H156.865V562.088C156.865 562.749 157.067 563.251 157.472 563.592C157.878 563.912 158.411 564.072 159.073 564.072C159.542 564.072 159.969 564.019 160.353 563.912C160.737 563.805 161.099 563.656 161.441 563.464L161.473 563.496V563.624C161.302 563.987 160.939 564.36 160.385 564.744C159.83 565.128 159.105 565.32 158.208 565.32C157.334 565.32 156.619 565.043 156.065 564.488C155.531 563.933 155.265 563.155 155.265 562.152V551.688H146.977V563.976L149.441 564.52V565H143.361ZM170.982 565.32C169.467 565.32 168.187 565 167.141 564.36C166.118 563.72 165.339 562.856 164.806 561.768C164.294 560.68 164.038 559.453 164.038 558.088C164.038 556.637 164.336 555.325 164.934 554.152C165.552 552.979 166.352 552.04 167.334 551.336C168.336 550.632 169.424 550.28 170.598 550.28C172.283 550.28 173.606 550.835 174.566 551.944C175.526 553.053 176.08 554.589 176.23 556.552L176.134 556.648H165.67C165.648 556.968 165.638 557.309 165.638 557.672C165.638 559.549 166.139 561.075 167.141 562.248C168.166 563.4 169.595 563.976 171.43 563.976C172.432 563.976 173.339 563.827 174.15 563.528C174.982 563.229 175.632 562.824 176.102 562.312H176.198V562.728C175.728 563.475 175.035 564.093 174.118 564.584C173.222 565.075 172.176 565.32 170.982 565.32ZM170.214 550.984C169.168 550.984 168.23 551.421 167.398 552.296C166.566 553.149 166.022 554.365 165.766 555.944H174.47C174.256 554.387 173.819 553.171 173.158 552.296C172.496 551.421 171.515 550.984 170.214 550.984ZM179.828 565V564.52L181.844 563.976V551.816L179.508 551.528V551.048L182.964 550.28H183.284L183.444 553.128H183.508C184.34 552.253 185.001 551.613 185.492 551.208C185.982 550.803 186.388 550.547 186.708 550.44C187.028 550.333 187.39 550.28 187.796 550.28C188.158 550.28 188.489 550.344 188.788 550.472C189.001 550.557 189.15 550.643 189.236 550.728C189.342 550.792 189.396 550.888 189.396 551.016C189.396 551.059 189.385 551.112 189.364 551.176C189.364 551.219 189.353 551.283 189.332 551.368L189.012 552.2H188.948L188.34 551.912C188.041 551.763 187.646 551.688 187.156 551.688C186.537 551.688 185.918 551.859 185.3 552.2C184.681 552.541 184.062 553.139 183.444 553.992V563.976L185.908 564.52V565H179.828ZM203.742 565.32C202.868 565.32 202.153 565.043 201.598 564.488C201.065 563.933 200.798 563.155 200.798 562.152V551.688H197.982V551.4L200.99 550.6L202.046 547.08H202.398V550.6H206.622V551.688H202.398V562.088C202.398 562.749 202.601 563.251 203.006 563.592C203.412 563.912 203.945 564.072 204.606 564.072C205.076 564.072 205.502 564.019 205.886 563.912C206.27 563.805 206.633 563.656 206.974 563.464L207.006 563.496V563.624C206.836 563.987 206.473 564.36 205.918 564.744C205.364 565.128 204.638 565.32 203.742 565.32ZM209.825 565V564.52L211.841 563.976V542.536L209.505 541.928V541.448L213.121 541H213.441V552.584H213.505C214.294 551.773 215.041 551.187 215.745 550.824C216.449 550.461 217.238 550.28 218.113 550.28C219.457 550.28 220.555 550.653 221.409 551.4C222.283 552.147 222.721 553.235 222.721 554.664V563.976L224.737 564.52V565H218.849V564.52L221.121 563.976V555.528C221.121 554.227 220.769 553.245 220.065 552.584C219.382 551.901 218.475 551.56 217.345 551.56C216.705 551.56 216.011 551.72 215.265 552.04C214.518 552.339 213.91 552.776 213.441 553.352V563.976L215.713 564.52V565H209.825ZM234.482 565.32C232.967 565.32 231.687 565 230.641 564.36C229.618 563.72 228.839 562.856 228.306 561.768C227.794 560.68 227.538 559.453 227.538 558.088C227.538 556.637 227.836 555.325 228.434 554.152C229.052 552.979 229.852 552.04 230.834 551.336C231.836 550.632 232.924 550.28 234.098 550.28C235.783 550.28 237.106 550.835 238.066 551.944C239.026 553.053 239.58 554.589 239.73 556.552L239.634 556.648H229.17C229.148 556.968 229.138 557.309 229.138 557.672C229.138 559.549 229.639 561.075 230.641 562.248C231.666 563.4 233.095 563.976 234.93 563.976C235.932 563.976 236.839 563.827 237.65 563.528C238.482 563.229 239.132 562.824 239.602 562.312H239.698V562.728C239.228 563.475 238.535 564.093 237.618 564.584C236.722 565.075 235.676 565.32 234.482 565.32ZM233.714 550.984C232.668 550.984 231.73 551.421 230.898 552.296C230.066 553.149 229.522 554.365 229.266 555.944H237.97C237.756 554.387 237.319 553.171 236.658 552.296C235.996 551.421 235.015 550.984 233.714 550.984ZM251.392 565V564.52L253.408 563.976V551.688H250.592V550.6H253.408V549.32C253.408 548.467 253.546 547.56 253.824 546.6C254.122 545.64 254.549 544.733 255.104 543.88C255.68 543.027 256.394 542.333 257.248 541.8C258.101 541.267 259.093 541 260.224 541C260.501 541 260.746 541.043 260.96 541.128C261.301 541.277 261.472 541.448 261.472 541.64C261.472 541.768 261.44 541.907 261.376 542.056L261.024 542.92H260.96L260.288 542.696C259.626 542.483 258.986 542.376 258.368 542.376C257.28 542.376 256.448 542.824 255.872 543.72C255.296 544.616 255.008 546.056 255.008 548.04V550.6H259.232V551.688H255.008V563.976L257.472 564.52V565H251.392ZM264.898 565.32C263.917 565.32 263.096 565.032 262.434 564.456C261.773 563.859 261.442 563.037 261.442 561.992C261.442 560.968 261.805 560.115 262.53 559.432C263.277 558.749 264.504 558.195 266.21 557.768L269.346 556.968V554.312C269.346 553.395 269.016 552.659 268.354 552.104C267.693 551.528 266.936 551.24 266.082 551.24C265.165 551.24 264.514 551.432 264.13 551.816C263.768 552.179 263.586 552.68 263.586 553.32V554.632L263.426 554.792H262.594C262.253 554.792 262.029 554.739 261.922 554.632C261.816 554.525 261.762 554.323 261.762 554.024C261.762 553.619 261.901 553.203 262.178 552.776C262.456 552.349 262.861 551.965 263.394 551.624C263.97 551.261 264.546 550.952 265.122 550.696C265.72 550.419 266.285 550.28 266.818 550.28C268.098 550.28 269.101 550.568 269.826 551.144C270.573 551.699 270.946 552.573 270.946 553.768V563.72C271.117 563.869 271.309 563.987 271.522 564.072C271.757 564.157 272.024 564.2 272.322 564.2H273.986L274.018 564.232V564.296C273.869 564.509 273.624 564.733 273.282 564.968C272.941 565.203 272.482 565.32 271.906 565.32C271.16 565.32 270.584 565.128 270.178 564.744C269.773 564.36 269.528 563.912 269.442 563.4H269.378C268.824 563.955 268.152 564.413 267.362 564.776C266.594 565.139 265.773 565.32 264.898 565.32ZM263.042 561.416C263.042 562.291 263.288 562.952 263.778 563.4C264.269 563.827 264.962 564.04 265.858 564.04C266.392 564.04 266.968 563.965 267.586 563.816C268.205 563.645 268.792 563.389 269.346 563.048V557.64C267.576 558.003 266.232 558.365 265.314 558.728C264.418 559.091 263.81 559.485 263.49 559.912C263.192 560.339 263.042 560.84 263.042 561.416ZM283.135 565.32C281.642 565.32 280.384 565 279.36 564.36C278.357 563.72 277.589 562.856 277.056 561.768C276.544 560.68 276.288 559.453 276.288 558.088C276.288 556.595 276.586 555.261 277.184 554.088C277.802 552.893 278.645 551.965 279.712 551.304C280.8 550.621 282.026 550.28 283.392 550.28C284.245 550.28 285.002 550.397 285.664 550.632C286.325 550.867 286.858 551.123 287.264 551.4C287.946 551.869 288.288 552.275 288.288 552.616C288.288 552.765 288.213 552.904 288.064 553.032L287.2 553.768H287.072L286.656 553.192C286.186 552.552 285.674 552.029 285.12 551.624C284.586 551.197 283.893 550.984 283.04 550.984C281.546 550.984 280.309 551.549 279.328 552.68C278.368 553.789 277.888 555.453 277.888 557.672C277.888 559.549 278.378 561.075 279.36 562.248C280.362 563.4 281.77 563.976 283.584 563.976C284.565 563.976 285.472 563.827 286.304 563.528C287.136 563.229 287.786 562.824 288.256 562.312H288.352V562.728C287.861 563.475 287.168 564.093 286.272 564.584C285.376 565.075 284.33 565.32 283.135 565.32ZM296.117 565.32C295.243 565.32 294.528 565.043 293.973 564.488C293.44 563.933 293.173 563.155 293.173 562.152V551.688H290.357V551.4L293.365 550.6L294.421 547.08H294.773V550.6H298.997V551.688H294.773V562.088C294.773 562.749 294.976 563.251 295.381 563.592C295.787 563.912 296.32 564.072 296.981 564.072C297.451 564.072 297.877 564.019 298.261 563.912C298.645 563.805 299.008 563.656 299.349 563.464L299.381 563.496V563.624C299.211 563.987 298.848 564.36 298.293 564.744C297.739 565.128 297.013 565.32 296.117 565.32ZM316.504 565.32C315.202 565.32 314.061 564.989 313.08 564.328C312.098 563.667 311.33 562.771 310.776 561.64C310.221 560.509 309.944 559.229 309.944 557.8C309.944 556.371 310.221 555.091 310.776 553.96C311.33 552.829 312.098 551.933 313.08 551.272C314.061 550.611 315.202 550.28 316.504 550.28C317.805 550.28 318.946 550.611 319.928 551.272C320.909 551.933 321.677 552.829 322.232 553.96C322.786 555.091 323.064 556.371 323.064 557.8C323.064 559.229 322.786 560.509 322.232 561.64C321.677 562.771 320.909 563.667 319.928 564.328C318.946 564.989 317.805 565.32 316.504 565.32ZM316.952 564.584C317.933 564.584 318.754 564.296 319.416 563.72C320.098 563.123 320.61 562.355 320.952 561.416C321.293 560.477 321.464 559.485 321.464 558.44C321.464 557.053 321.261 555.805 320.856 554.696C320.45 553.565 319.842 552.669 319.032 552.008C318.242 551.325 317.272 550.984 316.12 550.984C315.16 550.984 314.338 551.261 313.656 551.816C312.973 552.349 312.45 553.085 312.088 554.024C311.725 554.941 311.544 555.976 311.544 557.128C311.544 558.515 311.757 559.773 312.184 560.904C312.632 562.035 313.25 562.931 314.04 563.592C314.85 564.253 315.821 564.584 316.952 564.584ZM326.704 565V564.52L328.72 563.976V551.688H325.904V550.6H328.72V549.32C328.72 548.467 328.859 547.56 329.136 546.6C329.435 545.64 329.862 544.733 330.416 543.88C330.992 543.027 331.707 542.333 332.56 541.8C333.414 541.267 334.406 541 335.536 541C335.814 541 336.059 541.043 336.272 541.128C336.614 541.277 336.784 541.448 336.784 541.64C336.784 541.768 336.752 541.907 336.688 542.056L336.336 542.92H336.272L335.6 542.696C334.939 542.483 334.299 542.376 333.68 542.376C332.592 542.376 331.76 542.824 331.184 543.72C330.608 544.616 330.32 546.056 330.32 548.04V550.6H334.544V551.688H330.32V563.976L332.784 564.52V565H326.704ZM351.763 565.32C350.248 565.32 348.968 565 347.923 564.36C346.899 563.72 346.12 562.856 345.587 561.768C345.075 560.68 344.819 559.453 344.819 558.088C344.819 556.637 345.117 555.325 345.715 554.152C346.333 552.979 347.133 552.04 348.115 551.336C349.117 550.632 350.205 550.28 351.379 550.28C353.064 550.28 354.387 550.835 355.347 551.944C356.307 553.053 356.861 554.589 357.011 556.552L356.915 556.648H346.451C346.429 556.968 346.419 557.309 346.419 557.672C346.419 559.549 346.92 561.075 347.923 562.248C348.947 563.4 350.376 563.976 352.211 563.976C353.213 563.976 354.12 563.827 354.931 563.528C355.763 563.229 356.413 562.824 356.883 562.312H356.979V562.728C356.509 563.475 355.816 564.093 354.899 564.584C354.003 565.075 352.957 565.32 351.763 565.32ZM350.995 550.984C349.949 550.984 349.011 551.421 348.179 552.296C347.347 553.149 346.803 554.365 346.547 555.944H355.251C355.037 554.387 354.6 553.171 353.939 552.296C353.277 551.421 352.296 550.984 350.995 550.984ZM363.617 565.32C362.636 565.32 361.814 565.032 361.153 564.456C360.492 563.859 360.161 563.037 360.161 561.992C360.161 560.968 360.524 560.115 361.249 559.432C361.996 558.749 363.222 558.195 364.929 557.768L368.065 556.968V554.312C368.065 553.395 367.734 552.659 367.073 552.104C366.412 551.528 365.654 551.24 364.801 551.24C363.884 551.24 363.233 551.432 362.849 551.816C362.486 552.179 362.305 552.68 362.305 553.32V554.632L362.145 554.792H361.313C360.972 554.792 360.748 554.739 360.641 554.632C360.534 554.525 360.481 554.323 360.481 554.024C360.481 553.619 360.62 553.203 360.897 552.776C361.174 552.349 361.58 551.965 362.113 551.624C362.689 551.261 363.265 550.952 363.841 550.696C364.438 550.419 365.004 550.28 365.537 550.28C366.817 550.28 367.82 550.568 368.545 551.144C369.292 551.699 369.665 552.573 369.665 553.768V563.72C369.836 563.869 370.028 563.987 370.241 564.072C370.476 564.157 370.742 564.2 371.041 564.2H372.705L372.737 564.232V564.296C372.588 564.509 372.342 564.733 372.001 564.968C371.66 565.203 371.201 565.32 370.625 565.32C369.878 565.32 369.302 565.128 368.897 564.744C368.492 564.36 368.246 563.912 368.161 563.4H368.097C367.542 563.955 366.87 564.413 366.081 564.776C365.313 565.139 364.492 565.32 363.617 565.32ZM361.761 561.416C361.761 562.291 362.006 562.952 362.497 563.4C362.988 563.827 363.681 564.04 364.577 564.04C365.11 564.04 365.686 563.965 366.305 563.816C366.924 563.645 367.51 563.389 368.065 563.048V557.64C366.294 558.003 364.95 558.365 364.033 558.728C363.137 559.091 362.529 559.485 362.209 559.912C361.91 560.339 361.761 560.84 361.761 561.416ZM381.854 565.32C380.361 565.32 379.102 565 378.078 564.36C377.076 563.72 376.308 562.856 375.774 561.768C375.262 560.68 375.006 559.453 375.006 558.088C375.006 556.595 375.305 555.261 375.902 554.088C376.521 552.893 377.364 551.965 378.43 551.304C379.518 550.621 380.745 550.28 382.11 550.28C382.964 550.28 383.721 550.397 384.382 550.632C385.044 550.867 385.577 551.123 385.982 551.4C386.665 551.869 387.006 552.275 387.006 552.616C387.006 552.765 386.932 552.904 386.782 553.032L385.918 553.768H385.79L385.374 553.192C384.905 552.552 384.393 552.029 383.838 551.624C383.305 551.197 382.612 550.984 381.758 550.984C380.265 550.984 379.028 551.549 378.046 552.68C377.086 553.789 376.606 555.453 376.606 557.672C376.606 559.549 377.097 561.075 378.078 562.248C379.081 563.4 380.489 563.976 382.302 563.976C383.284 563.976 384.19 563.827 385.022 563.528C385.854 563.229 386.505 562.824 386.974 562.312H387.07V562.728C386.58 563.475 385.886 564.093 384.99 564.584C384.094 565.075 383.049 565.32 381.854 565.32ZM390.356 565V564.52L392.372 563.976V542.536L390.036 541.928V541.448L393.652 541H393.972V552.584H394.036C394.825 551.773 395.572 551.187 396.276 550.824C396.98 550.461 397.769 550.28 398.644 550.28C399.988 550.28 401.087 550.653 401.94 551.4C402.815 552.147 403.252 553.235 403.252 554.664V563.976L405.268 564.52V565H399.38V564.52L401.652 563.976V555.528C401.652 554.227 401.3 553.245 400.596 552.584C399.913 551.901 399.007 551.56 397.876 551.56C397.236 551.56 396.543 551.72 395.796 552.04C395.049 552.339 394.441 552.776 393.972 553.352V563.976L396.244 564.52V565H390.356ZM416.325 572.36V571.88L418.341 571.336V551.816L416.005 551.528V551.048L419.461 550.28H419.781L419.909 552.264H420.069C420.879 551.581 421.658 551.08 422.405 550.76C423.173 550.44 423.994 550.28 424.869 550.28C425.935 550.28 426.885 550.557 427.717 551.112C428.549 551.667 429.199 552.456 429.669 553.48C430.159 554.483 430.405 555.688 430.405 557.096C430.405 558.845 430.063 560.339 429.381 561.576C428.698 562.792 427.791 563.72 426.661 564.36C425.53 565 424.282 565.32 422.917 565.32C422.447 565.32 421.957 565.235 421.445 565.064C420.933 564.915 420.431 564.712 419.941 564.456V571.336L422.213 571.88V572.36H416.325ZM424.005 551.368C423.215 551.368 422.479 551.507 421.797 551.784C421.135 552.061 420.517 552.456 419.941 552.968V563.176C420.602 563.603 421.253 563.933 421.893 564.168C422.533 564.381 423.247 564.488 424.037 564.488C424.911 564.488 425.711 564.264 426.437 563.816C427.183 563.368 427.781 562.643 428.229 561.64C428.677 560.616 428.901 559.272 428.901 557.608C428.901 556.179 428.666 555.005 428.197 554.088C427.727 553.149 427.109 552.467 426.341 552.04C425.594 551.592 424.815 551.368 424.005 551.368ZM440.723 565.32C439.421 565.32 438.28 564.989 437.299 564.328C436.317 563.667 435.549 562.771 434.995 561.64C434.44 560.509 434.163 559.229 434.163 557.8C434.163 556.371 434.44 555.091 434.995 553.96C435.549 552.829 436.317 551.933 437.299 551.272C438.28 550.611 439.421 550.28 440.723 550.28C442.024 550.28 443.165 550.611 444.147 551.272C445.128 551.933 445.896 552.829 446.451 553.96C447.005 555.091 447.283 556.371 447.283 557.8C447.283 559.229 447.005 560.509 446.451 561.64C445.896 562.771 445.128 563.667 444.147 564.328C443.165 564.989 442.024 565.32 440.723 565.32ZM441.171 564.584C442.152 564.584 442.973 564.296 443.635 563.72C444.317 563.123 444.829 562.355 445.171 561.416C445.512 560.477 445.683 559.485 445.683 558.44C445.683 557.053 445.48 555.805 445.075 554.696C444.669 553.565 444.061 552.669 443.251 552.008C442.461 551.325 441.491 550.984 440.339 550.984C439.379 550.984 438.557 551.261 437.875 551.816C437.192 552.349 436.669 553.085 436.307 554.024C435.944 554.941 435.763 555.976 435.763 557.128C435.763 558.515 435.976 559.773 436.403 560.904C436.851 562.035 437.469 562.931 438.259 563.592C439.069 564.253 440.04 564.584 441.171 564.584ZM458.044 565.32C456.529 565.32 455.249 565 454.204 564.36C453.18 563.72 452.401 562.856 451.868 561.768C451.356 560.68 451.1 559.453 451.1 558.088C451.1 556.637 451.399 555.325 451.996 554.152C452.615 552.979 453.415 552.04 454.396 551.336C455.399 550.632 456.487 550.28 457.66 550.28C459.345 550.28 460.668 550.835 461.628 551.944C462.588 553.053 463.143 554.589 463.292 556.552L463.196 556.648H452.732C452.711 556.968 452.7 557.309 452.7 557.672C452.7 559.549 453.201 561.075 454.204 562.248C455.228 563.4 456.657 563.976 458.492 563.976C459.495 563.976 460.401 563.827 461.212 563.528C462.044 563.229 462.695 562.824 463.164 562.312H463.26V562.728C462.791 563.475 462.097 564.093 461.18 564.584C460.284 565.075 459.239 565.32 458.044 565.32ZM457.276 550.984C456.231 550.984 455.292 551.421 454.46 552.296C453.628 553.149 453.084 554.365 452.828 555.944H461.532C461.319 554.387 460.881 553.171 460.22 552.296C459.559 551.421 458.577 550.984 457.276 550.984ZM466.57 565V564.52L468.586 563.976V551.816L466.25 551.528V551.048L469.706 550.28H470.026L470.154 552.584H470.25C470.997 551.816 471.701 551.24 472.362 550.856C473.024 550.472 473.749 550.28 474.538 550.28C475.434 550.28 476.224 550.472 476.906 550.856C477.589 551.24 478.101 551.816 478.442 552.584H478.506C479.274 551.795 480 551.219 480.682 550.856C481.365 550.472 482.122 550.28 482.954 550.28C484.256 550.28 485.322 550.653 486.154 551.4C486.986 552.147 487.402 553.235 487.402 554.664V563.976L489.418 564.52V565H483.53V564.52L485.802 563.976V555.528C485.802 554.227 485.461 553.245 484.778 552.584C484.117 551.901 483.253 551.56 482.186 551.56C481.61 551.56 480.981 551.699 480.298 551.976C479.637 552.232 479.082 552.616 478.634 553.128C478.762 553.597 478.826 554.109 478.826 554.664V563.976L480.842 564.52V565H474.954V564.52L477.226 563.976V555.528C477.226 554.227 476.906 553.245 476.266 552.584C475.626 551.901 474.794 551.56 473.77 551.56C473.173 551.56 472.533 551.72 471.85 552.04C471.168 552.339 470.613 552.765 470.186 553.32V563.976L472.458 564.52V565H466.57ZM504.229 565.16L499.749 551.688L497.733 551.08V550.6H503.877V551.08L501.413 551.624V551.72L504.805 562.824H504.933L509.413 550.6H509.893L514.373 562.728H514.501L517.829 551.752V551.656L515.237 551.08V550.6H520.901V551.08L518.853 551.688L514.149 565.16H513.829L509.285 553.416L504.549 565.16H504.229ZM522.14 565V564.52L524.156 563.976V551.816L521.82 551.528V551.048L525.276 550.28H525.596L525.756 553.128H525.82C526.652 552.253 527.314 551.613 527.804 551.208C528.295 550.803 528.7 550.547 529.02 550.44C529.34 550.333 529.703 550.28 530.108 550.28C530.471 550.28 530.802 550.344 531.1 550.472C531.314 550.557 531.463 550.643 531.548 550.728C531.655 550.792 531.708 550.888 531.708 551.016C531.708 551.059 531.698 551.112 531.676 551.176C531.676 551.219 531.666 551.283 531.644 551.368L531.324 552.2H531.26L530.652 551.912C530.354 551.763 529.959 551.688 529.468 551.688C528.85 551.688 528.231 551.859 527.612 552.2C526.994 552.541 526.375 553.139 525.756 553.992V563.976L528.22 564.52V565H522.14ZM536.135 545.224C535.793 545.224 535.505 545.107 535.271 544.872C535.036 544.637 534.919 544.349 534.919 544.008C534.919 543.667 535.036 543.379 535.271 543.144C535.505 542.909 535.793 542.792 536.135 542.792C536.476 542.792 536.764 542.909 536.999 543.144C537.233 543.379 537.351 543.667 537.351 544.008C537.351 544.349 537.233 544.637 536.999 544.872C536.764 545.107 536.476 545.224 536.135 545.224ZM533.767 565V564.52L535.783 563.976V551.816L533.447 551.208V550.728L537.063 550.28H537.383V563.976L539.655 564.52V565H533.767ZM547.711 565.32C546.836 565.32 546.122 565.043 545.567 564.488C545.034 563.933 544.767 563.155 544.767 562.152V551.688H541.951V551.4L544.959 550.6L546.015 547.08H546.367V550.6H550.591V551.688H546.367V562.088C546.367 562.749 546.57 563.251 546.975 563.592C547.38 563.912 547.914 564.072 548.575 564.072C549.044 564.072 549.471 564.019 549.855 563.912C550.239 563.805 550.602 563.656 550.943 563.464L550.975 563.496V563.624C550.804 563.987 550.442 564.36 549.887 564.744C549.332 565.128 548.607 565.32 547.711 565.32ZM558.274 565.32C557.399 565.32 556.684 565.043 556.13 564.488C555.596 563.933 555.33 563.155 555.33 562.152V551.688H552.514V551.4L555.522 550.6L556.578 547.08H556.93V550.6H561.154V551.688H556.93V562.088C556.93 562.749 557.132 563.251 557.538 563.592C557.943 563.912 558.476 564.072 559.138 564.072C559.607 564.072 560.034 564.019 560.418 563.912C560.802 563.805 561.164 563.656 561.506 563.464L561.538 563.496V563.624C561.367 563.987 561.004 564.36 560.45 564.744C559.895 565.128 559.17 565.32 558.274 565.32ZM571.044 565.32C569.529 565.32 568.249 565 567.204 564.36C566.18 563.72 565.401 562.856 564.868 561.768C564.356 560.68 564.1 559.453 564.1 558.088C564.1 556.637 564.399 555.325 564.996 554.152C565.615 552.979 566.415 552.04 567.396 551.336C568.399 550.632 569.487 550.28 570.66 550.28C572.345 550.28 573.668 550.835 574.628 551.944C575.588 553.053 576.143 554.589 576.292 556.552L576.196 556.648H565.732C565.711 556.968 565.7 557.309 565.7 557.672C565.7 559.549 566.201 561.075 567.204 562.248C568.228 563.4 569.657 563.976 571.492 563.976C572.495 563.976 573.401 563.827 574.212 563.528C575.044 563.229 575.695 562.824 576.164 562.312H576.26V562.728C575.791 563.475 575.097 564.093 574.18 564.584C573.284 565.075 572.239 565.32 571.044 565.32ZM570.276 550.984C569.231 550.984 568.292 551.421 567.46 552.296C566.628 553.149 566.084 554.365 565.828 555.944H574.532C574.319 554.387 573.881 553.171 573.22 552.296C572.559 551.421 571.577 550.984 570.276 550.984ZM579.762 565V564.52L581.778 563.976V551.816L579.442 551.528V551.048L582.898 550.28H583.218L583.346 552.584H583.442C584.232 551.773 584.978 551.187 585.682 550.824C586.386 550.461 587.176 550.28 588.05 550.28C589.394 550.28 590.493 550.653 591.346 551.4C592.221 552.147 592.658 553.235 592.658 554.664V563.976L594.674 564.52V565H588.786V564.52L591.058 563.976V555.528C591.058 554.227 590.706 553.245 590.002 552.584C589.32 551.901 588.413 551.56 587.282 551.56C586.642 551.56 585.949 551.72 585.202 552.04C584.456 552.339 583.848 552.776 583.378 553.352V563.976L585.65 564.52V565H579.762ZM597.603 571.112V570.504C598.456 570.056 599.107 569.576 599.555 569.064C600.003 568.552 600.227 567.923 600.227 567.176C600.227 566.557 600.067 566.056 599.747 565.672C599.448 565.309 599.107 564.989 598.723 564.712L597.827 564.104V563.912L598.307 563.176C598.414 563.005 598.52 562.856 598.627 562.728C598.755 562.6 598.894 562.536 599.043 562.536C599.235 562.536 599.47 562.621 599.747 562.792C600.323 563.155 600.75 563.645 601.027 564.264C601.326 564.883 601.475 565.544 601.475 566.248C601.475 567.123 601.187 567.997 600.611 568.872C600.056 569.747 599.054 570.493 597.603 571.112ZM618.166 565.32C617.099 565.32 616.15 565.043 615.318 564.488C614.486 563.933 613.824 563.155 613.334 562.152C612.864 561.128 612.63 559.912 612.63 558.504C612.63 556.755 612.971 555.272 613.654 554.056C614.336 552.819 615.243 551.88 616.374 551.24C617.504 550.6 618.752 550.28 620.118 550.28C620.587 550.28 621.078 550.365 621.59 550.536C622.102 550.685 622.603 550.888 623.094 551.144V542.536L620.758 541.928V541.448L624.374 541H624.694V563.976L626.966 564.52V565H623.414L623.126 563.368H622.966C622.24 563.987 621.483 564.467 620.694 564.808C619.926 565.149 619.083 565.32 618.166 565.32ZM614.134 557.992C614.134 559.421 614.368 560.605 614.838 561.544C615.307 562.461 615.915 563.144 616.662 563.592C617.43 564.019 618.219 564.232 619.03 564.232C619.734 564.232 620.438 564.104 621.142 563.848C621.846 563.592 622.496 563.176 623.094 562.6V552.296C622.432 551.933 621.771 551.645 621.11 551.432C620.448 551.219 619.744 551.112 618.998 551.112C618.123 551.112 617.312 551.336 616.566 551.784C615.84 552.232 615.254 552.968 614.806 553.992C614.358 554.995 614.134 556.328 614.134 557.992ZM632.916 545.224C632.575 545.224 632.287 545.107 632.052 544.872C631.817 544.637 631.7 544.349 631.7 544.008C631.7 543.667 631.817 543.379 632.052 543.144C632.287 542.909 632.575 542.792 632.916 542.792C633.257 542.792 633.545 542.909 633.78 543.144C634.015 543.379 634.132 543.667 634.132 544.008C634.132 544.349 634.015 544.637 633.78 544.872C633.545 545.107 633.257 545.224 632.916 545.224ZM630.548 565V564.52L632.564 563.976V551.816L630.228 551.208V550.728L633.844 550.28H634.164V563.976L636.436 564.52V565H630.548ZM645.228 565.32C644.162 565.32 643.212 565.043 642.38 564.488C641.548 563.933 640.887 563.155 640.396 562.152C639.927 561.128 639.692 559.912 639.692 558.504C639.692 556.755 640.034 555.272 640.716 554.056C641.399 552.819 642.306 551.88 643.436 551.24C644.567 550.6 645.815 550.28 647.18 550.28C647.65 550.28 648.14 550.365 648.652 550.536C649.164 550.685 649.666 550.888 650.156 551.144V542.536L647.82 541.928V541.448L651.436 541H651.756V563.976L654.028 564.52V565H650.476L650.188 563.368H650.028C649.303 563.987 648.546 564.467 647.756 564.808C646.988 565.149 646.146 565.32 645.228 565.32ZM641.196 557.992C641.196 559.421 641.431 560.605 641.9 561.544C642.37 562.461 642.978 563.144 643.724 563.592C644.492 564.019 645.282 564.232 646.092 564.232C646.796 564.232 647.5 564.104 648.204 563.848C648.908 563.592 649.559 563.176 650.156 562.6V552.296C649.495 551.933 648.834 551.645 648.172 551.432C647.511 551.219 646.807 551.112 646.06 551.112C645.186 551.112 644.375 551.336 643.628 551.784C642.903 552.232 642.316 552.968 641.868 553.992C641.42 554.995 641.196 556.328 641.196 557.992ZM665.803 565V564.2L668.299 563.656V545.224L665.803 544.68V543.88H672.715V544.68L670.219 545.224V563.656L672.715 564.2V565H665.803ZM684.953 565V564.52L686.969 563.976V551.816L684.633 551.528V551.048L688.089 550.28H688.409L688.569 553.128H688.633C689.465 552.253 690.126 551.613 690.617 551.208C691.107 550.803 691.513 550.547 691.833 550.44C692.153 550.333 692.515 550.28 692.921 550.28C693.283 550.28 693.614 550.344 693.913 550.472C694.126 550.557 694.275 550.643 694.361 550.728C694.467 550.792 694.521 550.888 694.521 551.016C694.521 551.059 694.51 551.112 694.489 551.176C694.489 551.219 694.478 551.283 694.457 551.368L694.137 552.2H694.073L693.465 551.912C693.166 551.763 692.771 551.688 692.281 551.688C691.662 551.688 691.043 551.859 690.425 552.2C689.806 552.541 689.187 553.139 688.569 553.992V563.976L691.033 564.52V565H684.953ZM703.075 565.32C701.561 565.32 700.281 565 699.235 564.36C698.211 563.72 697.433 562.856 696.899 561.768C696.387 560.68 696.131 559.453 696.131 558.088C696.131 556.637 696.43 555.325 697.027 554.152C697.646 552.979 698.446 552.04 699.427 551.336C700.43 550.632 701.518 550.28 702.691 550.28C704.377 550.28 705.699 550.835 706.659 551.944C707.619 553.053 708.174 554.589 708.323 556.552L708.227 556.648H697.763C697.742 556.968 697.731 557.309 697.731 557.672C697.731 559.549 698.233 561.075 699.235 562.248C700.259 563.4 701.689 563.976 703.523 563.976C704.526 563.976 705.433 563.827 706.243 563.528C707.075 563.229 707.726 562.824 708.195 562.312H708.291V562.728C707.822 563.475 707.129 564.093 706.211 564.584C705.315 565.075 704.27 565.32 703.075 565.32ZM702.307 550.984C701.262 550.984 700.323 551.421 699.491 552.296C698.659 553.149 698.115 554.365 697.859 555.944H706.563C706.35 554.387 705.913 553.171 705.251 552.296C704.59 551.421 703.609 550.984 702.307 550.984ZM714.93 565.32C713.948 565.32 713.127 565.032 712.466 564.456C711.804 563.859 711.474 563.037 711.474 561.992C711.474 560.968 711.836 560.115 712.562 559.432C713.308 558.749 714.535 558.195 716.242 557.768L719.378 556.968V554.312C719.378 553.395 719.047 552.659 718.385 552.104C717.724 551.528 716.967 551.24 716.114 551.24C715.196 551.24 714.546 551.432 714.161 551.816C713.799 552.179 713.618 552.68 713.618 553.32V554.632L713.458 554.792H712.626C712.284 554.792 712.06 554.739 711.954 554.632C711.847 554.525 711.794 554.323 711.794 554.024C711.794 553.619 711.932 553.203 712.21 552.776C712.487 552.349 712.892 551.965 713.426 551.624C714.002 551.261 714.578 550.952 715.154 550.696C715.751 550.419 716.316 550.28 716.85 550.28C718.13 550.28 719.132 550.568 719.858 551.144C720.604 551.699 720.978 552.573 720.978 553.768V563.72C721.148 563.869 721.34 563.987 721.554 564.072C721.788 564.157 722.055 564.2 722.354 564.2H724.018L724.05 564.232V564.296C723.9 564.509 723.655 564.733 723.314 564.968C722.972 565.203 722.514 565.32 721.938 565.32C721.191 565.32 720.615 565.128 720.21 564.744C719.804 564.36 719.559 563.912 719.474 563.4H719.41C718.855 563.955 718.183 564.413 717.394 564.776C716.626 565.139 715.804 565.32 714.93 565.32ZM713.074 561.416C713.074 562.291 713.319 562.952 713.81 563.4C714.3 563.827 714.994 564.04 715.89 564.04C716.423 564.04 716.999 563.965 717.618 563.816C718.236 563.645 718.823 563.389 719.378 563.048V557.64C717.607 558.003 716.263 558.365 715.346 558.728C714.45 559.091 713.842 559.485 713.522 559.912C713.223 560.339 713.074 560.84 713.074 561.416ZM726.134 565V564.52L728.15 563.976V542.536L725.814 541.928V541.448L729.43 541H729.75V563.976L732.022 564.52V565H726.134ZM737.854 545.224C737.512 545.224 737.224 545.107 736.99 544.872C736.755 544.637 736.638 544.349 736.638 544.008C736.638 543.667 736.755 543.379 736.99 543.144C737.224 542.909 737.512 542.792 737.854 542.792C738.195 542.792 738.483 542.909 738.718 543.144C738.952 543.379 739.07 543.667 739.07 544.008C739.07 544.349 738.952 544.637 738.718 544.872C738.483 545.107 738.195 545.224 737.854 545.224ZM735.486 565V564.52L737.502 563.976V551.816L735.166 551.208V550.728L738.782 550.28H739.102V563.976L741.374 564.52V565H735.486ZM748.918 565.32C748.171 565.32 747.499 565.235 746.902 565.064C746.326 564.915 745.728 564.691 745.11 564.392V561.064H745.494L745.942 562.504C746.134 563.144 746.486 563.656 746.998 564.04C747.51 564.403 748.235 564.584 749.174 564.584C750.198 564.584 750.987 564.339 751.542 563.848C752.118 563.336 752.406 562.611 752.406 561.672C752.406 560.84 752.182 560.189 751.734 559.72C751.286 559.229 750.454 558.739 749.238 558.248C747.958 557.736 747.008 557.181 746.39 556.584C745.792 555.987 745.494 555.133 745.494 554.024C745.494 553.341 745.675 552.723 746.038 552.168C746.422 551.592 746.923 551.133 747.542 550.792C748.16 550.451 748.822 550.28 749.526 550.28C750.315 550.28 751.019 550.376 751.638 550.568C752.256 550.739 752.79 550.941 753.238 551.176V554.44H752.854L752.438 553.064C752.224 552.317 751.819 551.784 751.222 551.464C750.646 551.144 750.059 550.984 749.462 550.984C748.63 550.984 747.99 551.229 747.542 551.72C747.115 552.211 746.902 552.851 746.902 553.64C746.902 554.429 747.136 555.048 747.606 555.496C748.075 555.944 748.832 556.381 749.878 556.808C750.816 557.192 751.574 557.565 752.15 557.928C752.747 558.291 753.184 558.739 753.462 559.272C753.739 559.784 753.878 560.445 753.878 561.256C753.878 561.981 753.675 562.653 753.27 563.272C752.864 563.891 752.288 564.392 751.542 564.776C750.795 565.139 749.92 565.32 748.918 565.32ZM764.607 565.32C763.092 565.32 761.812 565 760.766 564.36C759.743 563.72 758.964 562.856 758.431 561.768C757.919 560.68 757.663 559.453 757.663 558.088C757.663 556.637 757.961 555.325 758.559 554.152C759.177 552.979 759.977 552.04 760.959 551.336C761.961 550.632 763.049 550.28 764.223 550.28C765.908 550.28 767.231 550.835 768.191 551.944C769.151 553.053 769.705 554.589 769.855 556.552L769.759 556.648H759.295C759.273 556.968 759.263 557.309 759.263 557.672C759.263 559.549 759.764 561.075 760.766 562.248C761.791 563.4 763.22 563.976 765.055 563.976C766.057 563.976 766.964 563.827 767.775 563.528C768.607 563.229 769.257 562.824 769.727 562.312H769.823V562.728C769.353 563.475 768.66 564.093 767.743 564.584C766.847 565.075 765.801 565.32 764.607 565.32ZM763.839 550.984C762.793 550.984 761.855 551.421 761.023 552.296C760.191 553.149 759.647 554.365 759.391 555.944H768.095C767.881 554.387 767.444 553.171 766.783 552.296C766.121 551.421 765.14 550.984 763.839 550.984ZM784.461 565.32C783.479 565.32 782.658 565.032 781.997 564.456C781.335 563.859 781.005 563.037 781.005 561.992C781.005 560.968 781.367 560.115 782.093 559.432C782.839 558.749 784.066 558.195 785.773 557.768L788.909 556.968V554.312C788.909 553.395 788.578 552.659 787.917 552.104C787.255 551.528 786.498 551.24 785.645 551.24C784.727 551.24 784.077 551.432 783.693 551.816C783.33 552.179 783.149 552.68 783.149 553.32V554.632L782.989 554.792H782.157C781.815 554.792 781.591 554.739 781.485 554.632C781.378 554.525 781.325 554.323 781.325 554.024C781.325 553.619 781.463 553.203 781.741 552.776C782.018 552.349 782.423 551.965 782.957 551.624C783.533 551.261 784.109 550.952 784.685 550.696C785.282 550.419 785.847 550.28 786.381 550.28C787.661 550.28 788.663 550.568 789.389 551.144C790.135 551.699 790.509 552.573 790.509 553.768V563.72C790.679 563.869 790.871 563.987 791.085 564.072C791.319 564.157 791.586 564.2 791.885 564.2H793.549L793.581 564.232V564.296C793.431 564.509 793.186 564.733 792.845 564.968C792.503 565.203 792.045 565.32 791.469 565.32C790.722 565.32 790.146 565.128 789.741 564.744C789.335 564.36 789.09 563.912 789.005 563.4H788.941C788.386 563.955 787.714 564.413 786.925 564.776C786.157 565.139 785.335 565.32 784.461 565.32ZM782.605 561.416C782.605 562.291 782.85 562.952 783.341 563.4C783.831 563.827 784.525 564.04 785.421 564.04C785.954 564.04 786.53 563.965 787.149 563.816C787.767 563.645 788.354 563.389 788.909 563.048V557.64C787.138 558.003 785.794 558.365 784.877 558.728C783.981 559.091 783.373 559.485 783.053 559.912C782.754 560.339 782.605 560.84 782.605 561.416ZM123.354 614.32C121.861 614.32 120.602 614 119.578 613.36C118.576 612.72 117.808 611.856 117.274 610.768C116.762 609.68 116.506 608.453 116.506 607.088C116.506 605.595 116.805 604.261 117.402 603.088C118.021 601.893 118.864 600.965 119.93 600.304C121.018 599.621 122.245 599.28 123.61 599.28C124.464 599.28 125.221 599.397 125.882 599.632C126.544 599.867 127.077 600.123 127.482 600.4C128.165 600.869 128.506 601.275 128.506 601.616C128.506 601.765 128.432 601.904 128.282 602.032L127.418 602.768H127.29L126.874 602.192C126.405 601.552 125.893 601.029 125.338 600.624C124.805 600.197 124.112 599.984 123.258 599.984C121.765 599.984 120.528 600.549 119.546 601.68C118.586 602.789 118.106 604.453 118.106 606.672C118.106 608.549 118.597 610.075 119.578 611.248C120.581 612.4 121.989 612.976 123.802 612.976C124.784 612.976 125.69 612.827 126.522 612.528C127.354 612.229 128.005 611.824 128.474 611.312H128.57V611.728C128.08 612.475 127.386 613.093 126.49 613.584C125.594 614.075 124.549 614.32 123.354 614.32ZM138.16 614.32C136.859 614.32 135.717 613.989 134.736 613.328C133.755 612.667 132.987 611.771 132.432 610.64C131.877 609.509 131.6 608.229 131.6 606.8C131.6 605.371 131.877 604.091 132.432 602.96C132.987 601.829 133.755 600.933 134.736 600.272C135.717 599.611 136.859 599.28 138.16 599.28C139.461 599.28 140.603 599.611 141.584 600.272C142.565 600.933 143.333 601.829 143.888 602.96C144.443 604.091 144.72 605.371 144.72 606.8C144.72 608.229 144.443 609.509 143.888 610.64C143.333 611.771 142.565 612.667 141.584 613.328C140.603 613.989 139.461 614.32 138.16 614.32ZM138.608 613.584C139.589 613.584 140.411 613.296 141.072 612.72C141.755 612.123 142.267 611.355 142.608 610.416C142.949 609.477 143.12 608.485 143.12 607.44C143.12 606.053 142.917 604.805 142.512 603.696C142.107 602.565 141.499 601.669 140.688 601.008C139.899 600.325 138.928 599.984 137.776 599.984C136.816 599.984 135.995 600.261 135.312 600.816C134.629 601.349 134.107 602.085 133.744 603.024C133.381 603.941 133.2 604.976 133.2 606.128C133.2 607.515 133.413 608.773 133.84 609.904C134.288 611.035 134.907 611.931 135.696 612.592C136.507 613.253 137.477 613.584 138.608 613.584ZM148.297 614V613.52L150.312 612.976V600.816L147.977 600.528V600.048L151.433 599.28H151.753L151.913 602.128H151.977C152.809 601.253 153.47 600.613 153.961 600.208C154.451 599.803 154.857 599.547 155.177 599.44C155.497 599.333 155.859 599.28 156.265 599.28C156.627 599.28 156.958 599.344 157.257 599.472C157.47 599.557 157.619 599.643 157.705 599.728C157.811 599.792 157.865 599.888 157.865 600.016C157.865 600.059 157.854 600.112 157.833 600.176C157.833 600.219 157.822 600.283 157.801 600.368L157.481 601.2H157.417L156.809 600.912C156.51 600.763 156.115 600.688 155.625 600.688C155.006 600.688 154.387 600.859 153.769 601.2C153.15 601.541 152.531 602.139 151.913 602.992V612.976L154.377 613.52V614H148.297ZM159.859 614V613.52L161.875 612.976V600.816L159.539 600.528V600.048L162.995 599.28H163.315L163.475 602.128H163.539C164.371 601.253 165.032 600.613 165.523 600.208C166.014 599.803 166.419 599.547 166.739 599.44C167.059 599.333 167.422 599.28 167.827 599.28C168.19 599.28 168.52 599.344 168.819 599.472C169.032 599.557 169.182 599.643 169.267 599.728C169.374 599.792 169.427 599.888 169.427 600.016C169.427 600.059 169.416 600.112 169.395 600.176C169.395 600.219 169.384 600.283 169.363 600.368L169.043 601.2H168.979L168.371 600.912C168.072 600.763 167.678 600.688 167.187 600.688C166.568 600.688 165.95 600.859 165.331 601.2C164.712 601.541 164.094 602.139 163.475 602.992V612.976L165.939 613.52V614H159.859ZM177.982 614.32C176.467 614.32 175.187 614 174.141 613.36C173.118 612.72 172.339 611.856 171.806 610.768C171.294 609.68 171.038 608.453 171.038 607.088C171.038 605.637 171.336 604.325 171.934 603.152C172.552 601.979 173.352 601.04 174.334 600.336C175.336 599.632 176.424 599.28 177.598 599.28C179.283 599.28 180.606 599.835 181.566 600.944C182.526 602.053 183.08 603.589 183.23 605.552L183.134 605.648H172.67C172.648 605.968 172.638 606.309 172.638 606.672C172.638 608.549 173.139 610.075 174.141 611.248C175.166 612.4 176.595 612.976 178.43 612.976C179.432 612.976 180.339 612.827 181.15 612.528C181.982 612.229 182.632 611.824 183.102 611.312H183.198V611.728C182.728 612.475 182.035 613.093 181.118 613.584C180.222 614.075 179.176 614.32 177.982 614.32ZM177.214 599.984C176.168 599.984 175.23 600.421 174.398 601.296C173.566 602.149 173.022 603.365 172.766 604.944H181.47C181.256 603.387 180.819 602.171 180.158 601.296C179.496 600.421 178.515 599.984 177.214 599.984ZM190.668 614.32C189.921 614.32 189.249 614.235 188.652 614.064C188.076 613.915 187.478 613.691 186.86 613.392V610.064H187.244L187.692 611.504C187.884 612.144 188.236 612.656 188.748 613.04C189.26 613.403 189.985 613.584 190.924 613.584C191.948 613.584 192.737 613.339 193.292 612.848C193.868 612.336 194.156 611.611 194.156 610.672C194.156 609.84 193.932 609.189 193.484 608.72C193.036 608.229 192.204 607.739 190.988 607.248C189.708 606.736 188.758 606.181 188.14 605.584C187.542 604.987 187.244 604.133 187.244 603.024C187.244 602.341 187.425 601.723 187.788 601.168C188.172 600.592 188.673 600.133 189.292 599.792C189.91 599.451 190.572 599.28 191.276 599.28C192.065 599.28 192.769 599.376 193.388 599.568C194.006 599.739 194.54 599.941 194.988 600.176V603.44H194.604L194.188 602.064C193.974 601.317 193.569 600.784 192.972 600.464C192.396 600.144 191.809 599.984 191.212 599.984C190.38 599.984 189.74 600.229 189.292 600.72C188.865 601.211 188.652 601.851 188.652 602.64C188.652 603.429 188.886 604.048 189.356 604.496C189.825 604.944 190.582 605.381 191.628 605.808C192.566 606.192 193.324 606.565 193.9 606.928C194.497 607.291 194.934 607.739 195.212 608.272C195.489 608.784 195.628 609.445 195.628 610.256C195.628 610.981 195.425 611.653 195.02 612.272C194.614 612.891 194.038 613.392 193.292 613.776C192.545 614.139 191.67 614.32 190.668 614.32ZM199.669 621.36V620.88L201.685 620.336V600.816L199.349 600.528V600.048L202.805 599.28H203.125L203.253 601.264H203.413C204.223 600.581 205.002 600.08 205.749 599.76C206.517 599.44 207.338 599.28 208.213 599.28C209.279 599.28 210.229 599.557 211.061 600.112C211.893 600.667 212.543 601.456 213.013 602.48C213.503 603.483 213.749 604.688 213.749 606.096C213.749 607.845 213.407 609.339 212.725 610.576C212.042 611.792 211.135 612.72 210.005 613.36C208.874 614 207.626 614.32 206.26 614.32C205.791 614.32 205.301 614.235 204.789 614.064C204.277 613.915 203.775 613.712 203.285 613.456V620.336L205.557 620.88V621.36H199.669ZM207.349 600.368C206.559 600.368 205.823 600.507 205.141 600.784C204.479 601.061 203.861 601.456 203.285 601.968V612.176C203.946 612.603 204.597 612.933 205.237 613.168C205.877 613.381 206.591 613.488 207.381 613.488C208.255 613.488 209.055 613.264 209.781 612.816C210.527 612.368 211.125 611.643 211.573 610.64C212.021 609.616 212.245 608.272 212.245 606.608C212.245 605.179 212.01 604.005 211.541 603.088C211.071 602.149 210.453 601.467 209.685 601.04C208.938 600.592 208.159 600.368 207.349 600.368ZM224.066 614.32C222.765 614.32 221.624 613.989 220.642 613.328C219.661 612.667 218.893 611.771 218.338 610.64C217.784 609.509 217.506 608.229 217.506 606.8C217.506 605.371 217.784 604.091 218.338 602.96C218.893 601.829 219.661 600.933 220.642 600.272C221.624 599.611 222.765 599.28 224.066 599.28C225.368 599.28 226.509 599.611 227.49 600.272C228.472 600.933 229.24 601.829 229.794 602.96C230.349 604.091 230.626 605.371 230.626 606.8C230.626 608.229 230.349 609.509 229.794 610.64C229.24 611.771 228.472 612.667 227.49 613.328C226.509 613.989 225.368 614.32 224.066 614.32ZM224.514 613.584C225.496 613.584 226.317 613.296 226.978 612.72C227.661 612.123 228.173 611.355 228.514 610.416C228.856 609.477 229.026 608.485 229.026 607.44C229.026 606.053 228.824 604.805 228.418 603.696C228.013 602.565 227.405 601.669 226.594 601.008C225.805 600.325 224.834 599.984 223.682 599.984C222.722 599.984 221.901 600.261 221.218 600.816C220.536 601.349 220.013 602.085 219.65 603.024C219.288 603.941 219.106 604.976 219.106 606.128C219.106 607.515 219.32 608.773 219.746 609.904C220.194 611.035 220.813 611.931 221.602 612.592C222.413 613.253 223.384 613.584 224.514 613.584ZM234.075 614V613.52L236.091 612.976V600.816L233.755 600.528V600.048L237.211 599.28H237.531L237.659 601.584H237.755C238.544 600.773 239.291 600.187 239.995 599.824C240.699 599.461 241.488 599.28 242.363 599.28C243.707 599.28 244.805 599.653 245.659 600.4C246.533 601.147 246.971 602.235 246.971 603.664V612.976L248.987 613.52V614H243.099V613.52L245.371 612.976V604.528C245.371 603.227 245.019 602.245 244.315 601.584C243.632 600.901 242.725 600.56 241.595 600.56C240.955 600.56 240.261 600.72 239.515 601.04C238.768 601.339 238.16 601.776 237.691 602.352V612.976L239.963 613.52V614H234.075ZM257.26 614.32C256.193 614.32 255.244 614.043 254.411 613.488C253.58 612.933 252.918 612.155 252.428 611.152C251.958 610.128 251.724 608.912 251.724 607.504C251.724 605.755 252.065 604.272 252.748 603.056C253.43 601.819 254.337 600.88 255.468 600.24C256.598 599.6 257.846 599.28 259.212 599.28C259.681 599.28 260.172 599.365 260.684 599.536C261.196 599.685 261.697 599.888 262.188 600.144V591.536L259.852 590.928V590.448L263.468 590H263.788V612.976L266.06 613.52V614H262.508L262.22 612.368H262.06C261.334 612.987 260.577 613.467 259.788 613.808C259.02 614.149 258.177 614.32 257.26 614.32ZM253.228 606.992C253.228 608.421 253.462 609.605 253.932 610.544C254.401 611.461 255.009 612.144 255.756 612.592C256.524 613.019 257.313 613.232 258.124 613.232C258.828 613.232 259.532 613.104 260.236 612.848C260.94 612.592 261.59 612.176 262.188 611.6V601.296C261.526 600.933 260.865 600.645 260.204 600.432C259.542 600.219 258.838 600.112 258.092 600.112C257.217 600.112 256.406 600.336 255.66 600.784C254.934 601.232 254.348 601.968 253.9 602.992C253.452 603.995 253.228 605.328 253.228 606.992ZM276.138 614.32C274.623 614.32 273.343 614 272.298 613.36C271.274 612.72 270.495 611.856 269.962 610.768C269.45 609.68 269.194 608.453 269.194 607.088C269.194 605.637 269.492 604.325 270.09 603.152C270.708 601.979 271.508 601.04 272.49 600.336C273.492 599.632 274.58 599.28 275.754 599.28C277.439 599.28 278.762 599.835 279.722 600.944C280.682 602.053 281.236 603.589 281.386 605.552L281.29 605.648H270.826C270.804 605.968 270.794 606.309 270.794 606.672C270.794 608.549 271.295 610.075 272.298 611.248C273.322 612.4 274.751 612.976 276.586 612.976C277.588 612.976 278.495 612.827 279.306 612.528C280.138 612.229 280.788 611.824 281.258 611.312H281.354V611.728C280.884 612.475 280.191 613.093 279.274 613.584C278.378 614.075 277.332 614.32 276.138 614.32ZM275.37 599.984C274.324 599.984 273.386 600.421 272.554 601.296C271.722 602.149 271.178 603.365 270.922 604.944H279.626C279.412 603.387 278.975 602.171 278.314 601.296C277.652 600.421 276.671 599.984 275.37 599.984ZM284.856 614V613.52L286.872 612.976V600.816L284.536 600.528V600.048L287.992 599.28H288.312L288.44 601.584H288.536C289.325 600.773 290.072 600.187 290.776 599.824C291.48 599.461 292.269 599.28 293.144 599.28C294.488 599.28 295.587 599.653 296.44 600.4C297.315 601.147 297.752 602.235 297.752 603.664V612.976L299.768 613.52V614H293.88V613.52L296.152 612.976V604.528C296.152 603.227 295.8 602.245 295.096 601.584C294.413 600.901 293.507 600.56 292.376 600.56C291.736 600.56 291.043 600.72 290.296 601.04C289.549 601.339 288.941 601.776 288.472 602.352V612.976L290.744 613.52V614H284.856ZM309.417 614.32C307.923 614.32 306.665 614 305.641 613.36C304.638 612.72 303.87 611.856 303.337 610.768C302.825 609.68 302.569 608.453 302.569 607.088C302.569 605.595 302.867 604.261 303.465 603.088C304.083 601.893 304.926 600.965 305.993 600.304C307.081 599.621 308.307 599.28 309.673 599.28C310.526 599.28 311.283 599.397 311.945 599.632C312.606 599.867 313.139 600.123 313.545 600.4C314.227 600.869 314.569 601.275 314.569 601.616C314.569 601.765 314.494 601.904 314.345 602.032L313.481 602.768H313.353L312.937 602.192C312.467 601.552 311.955 601.029 311.401 600.624C310.867 600.197 310.174 599.984 309.321 599.984C307.827 599.984 306.59 600.549 305.609 601.68C304.649 602.789 304.169 604.453 304.169 606.672C304.169 608.549 304.659 610.075 305.641 611.248C306.643 612.4 308.051 612.976 309.865 612.976C310.846 612.976 311.753 612.827 312.585 612.528C313.417 612.229 314.067 611.824 314.537 611.312H314.633V611.728C314.142 612.475 313.449 613.093 312.553 613.584C311.657 614.075 310.611 614.32 309.417 614.32ZM324.607 614.32C323.092 614.32 321.812 614 320.766 613.36C319.743 612.72 318.964 611.856 318.431 610.768C317.919 609.68 317.663 608.453 317.663 607.088C317.663 605.637 317.961 604.325 318.559 603.152C319.177 601.979 319.977 601.04 320.959 600.336C321.961 599.632 323.049 599.28 324.223 599.28C325.908 599.28 327.231 599.835 328.191 600.944C329.151 602.053 329.705 603.589 329.855 605.552L329.759 605.648H319.295C319.273 605.968 319.263 606.309 319.263 606.672C319.263 608.549 319.764 610.075 320.766 611.248C321.791 612.4 323.22 612.976 325.055 612.976C326.057 612.976 326.964 612.827 327.775 612.528C328.607 612.229 329.257 611.824 329.727 611.312H329.823V611.728C329.353 612.475 328.66 613.093 327.743 613.584C326.847 614.075 325.801 614.32 324.607 614.32ZM323.839 599.984C322.793 599.984 321.855 600.421 321.023 601.296C320.191 602.149 319.647 603.365 319.391 604.944H328.095C327.881 603.387 327.444 602.171 326.783 601.296C326.121 600.421 325.14 599.984 323.839 599.984ZM345.805 614.32C344.93 614.32 344.215 614.043 343.661 613.488C343.127 612.933 342.861 612.155 342.861 611.152V600.688H340.045V600.4L343.053 599.6L344.109 596.08H344.461V599.6H348.685V600.688H344.461V611.088C344.461 611.749 344.663 612.251 345.069 612.592C345.474 612.912 346.007 613.072 346.669 613.072C347.138 613.072 347.565 613.019 347.949 612.912C348.333 612.805 348.695 612.656 349.037 612.464L349.069 612.496V612.624C348.898 612.987 348.535 613.36 347.981 613.744C347.426 614.128 346.701 614.32 345.805 614.32ZM358.191 614.32C356.89 614.32 355.749 613.989 354.767 613.328C353.786 612.667 353.018 611.771 352.463 610.64C351.909 609.509 351.631 608.229 351.631 606.8C351.631 605.371 351.909 604.091 352.463 602.96C353.018 601.829 353.786 600.933 354.767 600.272C355.749 599.611 356.89 599.28 358.191 599.28C359.493 599.28 360.634 599.611 361.615 600.272C362.597 600.933 363.365 601.829 363.919 602.96C364.474 604.091 364.751 605.371 364.751 606.8C364.751 608.229 364.474 609.509 363.919 610.64C363.365 611.771 362.597 612.667 361.615 613.328C360.634 613.989 359.493 614.32 358.191 614.32ZM358.639 613.584C359.621 613.584 360.442 613.296 361.103 612.72C361.786 612.123 362.298 611.355 362.639 610.416C362.981 609.477 363.151 608.485 363.151 607.44C363.151 606.053 362.949 604.805 362.543 603.696C362.138 602.565 361.53 601.669 360.719 601.008C359.93 600.325 358.959 599.984 357.807 599.984C356.847 599.984 356.026 600.261 355.343 600.816C354.661 601.349 354.138 602.085 353.775 603.024C353.413 603.941 353.231 604.976 353.231 606.128C353.231 607.515 353.445 608.773 353.871 609.904C354.319 611.035 354.938 611.931 355.727 612.592C356.538 613.253 357.509 613.584 358.639 613.584ZM376.2 621.36V620.88L378.216 620.336V600.816L375.88 600.528V600.048L379.336 599.28H379.656L379.784 601.264H379.944C380.754 600.581 381.533 600.08 382.28 599.76C383.048 599.44 383.869 599.28 384.744 599.28C385.81 599.28 386.76 599.557 387.592 600.112C388.424 600.667 389.074 601.456 389.544 602.48C390.034 603.483 390.28 604.688 390.28 606.096C390.28 607.845 389.938 609.339 389.256 610.576C388.573 611.792 387.666 612.72 386.536 613.36C385.405 614 384.157 614.32 382.792 614.32C382.322 614.32 381.832 614.235 381.32 614.064C380.808 613.915 380.306 613.712 379.816 613.456V620.336L382.088 620.88V621.36H376.2ZM383.88 600.368C383.09 600.368 382.354 600.507 381.672 600.784C381.01 601.061 380.392 601.456 379.816 601.968V612.176C380.477 612.603 381.128 612.933 381.768 613.168C382.408 613.381 383.122 613.488 383.912 613.488C384.786 613.488 385.586 613.264 386.312 612.816C387.058 612.368 387.656 611.643 388.104 610.64C388.552 609.616 388.776 608.272 388.776 606.608C388.776 605.179 388.541 604.005 388.072 603.088C387.602 602.149 386.984 601.467 386.216 601.04C385.469 600.592 384.69 600.368 383.88 600.368ZM396.805 614.32C395.823 614.32 395.002 614.032 394.341 613.456C393.679 612.859 393.349 612.037 393.349 610.992C393.349 609.968 393.711 609.115 394.437 608.432C395.183 607.749 396.41 607.195 398.117 606.768L401.253 605.968V603.312C401.253 602.395 400.922 601.659 400.26 601.104C399.599 600.528 398.842 600.24 397.989 600.24C397.071 600.24 396.421 600.432 396.036 600.816C395.674 601.179 395.493 601.68 395.493 602.32V603.632L395.333 603.792H394.501C394.159 603.792 393.935 603.739 393.829 603.632C393.722 603.525 393.669 603.323 393.669 603.024C393.669 602.619 393.807 602.203 394.085 601.776C394.362 601.349 394.767 600.965 395.301 600.624C395.877 600.261 396.453 599.952 397.029 599.696C397.626 599.419 398.191 599.28 398.725 599.28C400.005 599.28 401.007 599.568 401.733 600.144C402.479 600.699 402.853 601.573 402.853 602.768V612.72C403.023 612.869 403.215 612.987 403.429 613.072C403.663 613.157 403.93 613.2 404.229 613.2H405.893L405.925 613.232V613.296C405.775 613.509 405.53 613.733 405.189 613.968C404.847 614.203 404.389 614.32 403.813 614.32C403.066 614.32 402.49 614.128 402.085 613.744C401.679 613.36 401.434 612.912 401.349 612.4H401.285C400.73 612.955 400.058 613.413 399.269 613.776C398.501 614.139 397.679 614.32 396.805 614.32ZM394.949 610.416C394.949 611.291 395.194 611.952 395.685 612.4C396.175 612.827 396.869 613.04 397.765 613.04C398.298 613.04 398.874 612.965 399.493 612.816C400.111 612.645 400.698 612.389 401.253 612.048V606.64C399.482 607.003 398.138 607.365 397.221 607.728C396.325 608.091 395.717 608.485 395.397 608.912C395.098 609.339 394.949 609.84 394.949 610.416ZM410.697 594.224C410.356 594.224 410.068 594.107 409.833 593.872C409.599 593.637 409.481 593.349 409.481 593.008C409.481 592.667 409.599 592.379 409.833 592.144C410.068 591.909 410.356 591.792 410.697 591.792C411.039 591.792 411.327 591.909 411.561 592.144C411.796 592.379 411.913 592.667 411.913 593.008C411.913 593.349 411.796 593.637 411.561 593.872C411.327 594.107 411.039 594.224 410.697 594.224ZM408.329 614V613.52L410.345 612.976V600.816L408.009 600.208V599.728L411.625 599.28H411.945V612.976L414.217 613.52V614H408.329ZM417.794 614V613.52L419.81 612.976V600.816L417.474 600.528V600.048L420.93 599.28H421.25L421.378 601.584H421.474C422.263 600.773 423.01 600.187 423.714 599.824C424.418 599.461 425.207 599.28 426.082 599.28C427.426 599.28 428.524 599.653 429.378 600.4C430.252 601.147 430.69 602.235 430.69 603.664V612.976L432.706 613.52V614H426.818V613.52L429.09 612.976V604.528C429.09 603.227 428.738 602.245 428.034 601.584C427.351 600.901 426.444 600.56 425.314 600.56C424.674 600.56 423.98 600.72 423.234 601.04C422.487 601.339 421.879 601.776 421.41 602.352V612.976L423.682 613.52V614H417.794ZM440.242 614.32C439.368 614.32 438.653 614.043 438.098 613.488C437.565 612.933 437.298 612.155 437.298 611.152V600.688H434.482V600.4L437.49 599.6L438.546 596.08H438.898V599.6H443.122V600.688H438.898V611.088C438.898 611.749 439.101 612.251 439.506 612.592C439.912 612.912 440.445 613.072 441.106 613.072C441.576 613.072 442.002 613.019 442.386 612.912C442.77 612.805 443.133 612.656 443.474 612.464L443.506 612.496V612.624C443.336 612.987 442.973 613.36 442.418 613.744C441.864 614.128 441.138 614.32 440.242 614.32ZM448.885 594.224C448.543 594.224 448.255 594.107 448.021 593.872C447.786 593.637 447.669 593.349 447.669 593.008C447.669 592.667 447.786 592.379 448.021 592.144C448.255 591.909 448.543 591.792 448.885 591.792C449.226 591.792 449.514 591.909 449.749 592.144C449.983 592.379 450.101 592.667 450.101 593.008C450.101 593.349 449.983 593.637 449.749 593.872C449.514 594.107 449.226 594.224 448.885 594.224ZM446.517 614V613.52L448.533 612.976V600.816L446.197 600.208V599.728L449.813 599.28H450.133V612.976L452.405 613.52V614H446.517ZM455.981 614V613.52L457.997 612.976V600.816L455.661 600.528V600.048L459.117 599.28H459.437L459.565 601.584H459.661C460.45 600.773 461.197 600.187 461.901 599.824C462.605 599.461 463.394 599.28 464.269 599.28C465.613 599.28 466.712 599.653 467.565 600.4C468.44 601.147 468.877 602.235 468.877 603.664V612.976L470.893 613.52V614H465.005V613.52L467.277 612.976V604.528C467.277 603.227 466.925 602.245 466.221 601.584C465.538 600.901 464.632 600.56 463.501 600.56C462.861 600.56 462.168 600.72 461.421 601.04C460.674 601.339 460.066 601.776 459.597 602.352V612.976L461.869 613.52V614H455.981ZM479.486 609.168C478.846 609.168 478.238 609.061 477.662 608.848C476.958 609.147 476.467 609.467 476.19 609.808C475.912 610.149 475.774 610.544 475.774 610.992C475.774 611.717 476.03 612.24 476.542 612.56C477.054 612.88 477.843 613.04 478.91 613.04H482.526C483.784 613.04 484.744 613.339 485.406 613.936C486.088 614.533 486.43 615.355 486.43 616.4C486.43 617.275 486.131 618.117 485.534 618.928C484.936 619.739 484.104 620.4 483.038 620.912C481.971 621.424 480.712 621.68 479.262 621.68C477.406 621.68 476.072 621.307 475.262 620.56C474.451 619.835 474.046 618.939 474.046 617.872C474.046 617.083 474.206 616.4 474.526 615.824L476.478 614.192V614.128C475.091 613.723 474.398 612.88 474.398 611.6C474.398 610.896 474.632 610.309 475.102 609.84L476.99 608.72V608.56C476.222 608.155 475.614 607.579 475.166 606.832C474.718 606.064 474.494 605.2 474.494 604.24C474.494 603.301 474.707 602.459 475.134 601.712C475.582 600.965 476.179 600.379 476.926 599.952C477.672 599.504 478.526 599.28 479.486 599.28C479.955 599.28 480.467 599.344 481.022 599.472C481.576 599.579 482.014 599.707 482.334 599.856L486.686 599.6V600.912L483.454 600.688L483.39 600.752C483.731 601.115 483.987 601.627 484.158 602.288C484.35 602.928 484.446 603.579 484.446 604.24C484.446 605.179 484.232 606.021 483.806 606.768C483.379 607.515 482.792 608.101 482.046 608.528C481.299 608.955 480.446 609.168 479.486 609.168ZM479.806 608.528C480.723 608.528 481.448 608.165 481.982 607.44C482.536 606.693 482.814 605.648 482.814 604.304C482.814 602.832 482.472 601.733 481.79 601.008C481.107 600.261 480.264 599.888 479.262 599.888C478.28 599.888 477.512 600.272 476.958 601.04C476.403 601.787 476.126 602.821 476.126 604.144C476.126 605.616 476.467 606.715 477.15 607.44C477.854 608.165 478.739 608.528 479.806 608.528ZM475.518 617.52C475.518 618.501 475.923 619.323 476.734 619.984C477.566 620.645 478.579 620.976 479.774 620.976C480.798 620.976 481.704 620.784 482.494 620.4C483.283 620.037 483.902 619.547 484.35 618.928C484.798 618.331 485.022 617.691 485.022 617.008C485.022 615.984 484.755 615.28 484.222 614.896C483.71 614.512 482.782 614.32 481.438 614.32H478.078C477.758 614.32 477.448 614.299 477.15 614.256C476.531 614.619 476.104 615.056 475.87 615.568C475.635 616.101 475.518 616.752 475.518 617.52ZM494.105 614.32C493.359 614.32 492.687 614.235 492.089 614.064C491.513 613.915 490.916 613.691 490.297 613.392V610.064H490.681L491.129 611.504C491.321 612.144 491.673 612.656 492.185 613.04C492.697 613.403 493.423 613.584 494.361 613.584C495.385 613.584 496.175 613.339 496.729 612.848C497.305 612.336 497.593 611.611 497.593 610.672C497.593 609.84 497.369 609.189 496.921 608.72C496.473 608.229 495.641 607.739 494.425 607.248C493.145 606.736 492.196 606.181 491.577 605.584C490.98 604.987 490.681 604.133 490.681 603.024C490.681 602.341 490.863 601.723 491.225 601.168C491.609 600.592 492.111 600.133 492.729 599.792C493.348 599.451 494.009 599.28 494.713 599.28C495.503 599.28 496.207 599.376 496.825 599.568C497.444 599.739 497.977 599.941 498.425 600.176V603.44H498.041L497.625 602.064C497.412 601.317 497.007 600.784 496.409 600.464C495.833 600.144 495.247 599.984 494.649 599.984C493.817 599.984 493.177 600.229 492.729 600.72C492.303 601.211 492.089 601.851 492.089 602.64C492.089 603.429 492.324 604.048 492.793 604.496C493.263 604.944 494.02 605.381 495.065 605.808C496.004 606.192 496.761 606.565 497.337 606.928C497.935 607.291 498.372 607.739 498.649 608.272C498.927 608.784 499.065 609.445 499.065 610.256C499.065 610.981 498.863 611.653 498.457 612.272C498.052 612.891 497.476 613.392 496.729 613.776C495.983 614.139 495.108 614.32 494.105 614.32ZM512.962 614V591.536L510.626 591.088V590.608L514.242 590H514.562V601.264H514.69C515.501 600.581 516.29 600.08 517.058 599.76C517.826 599.44 518.637 599.28 519.49 599.28C520.557 599.28 521.506 599.557 522.338 600.112C523.17 600.667 523.821 601.456 524.29 602.48C524.781 603.483 525.026 604.688 525.026 606.096C525.026 607.845 524.685 609.339 524.002 610.576C523.319 611.792 522.413 612.72 521.282 613.36C520.151 614 518.903 614.32 517.538 614.32C516.983 614.32 516.375 614.203 515.714 613.968C515.074 613.733 514.477 613.445 513.922 613.104L513.25 614H512.962ZM518.626 600.368C517.837 600.368 517.101 600.507 516.418 600.784C515.757 601.061 515.138 601.456 514.562 601.968V612.176C515.223 612.603 515.874 612.933 516.514 613.168C517.154 613.381 517.869 613.488 518.658 613.488C519.511 613.488 520.311 613.264 521.058 612.816C521.805 612.368 522.402 611.643 522.85 610.64C523.298 609.616 523.522 608.272 523.522 606.608C523.522 605.179 523.287 604.005 522.818 603.088C522.349 602.149 521.741 601.467 520.994 601.04C520.247 600.592 519.458 600.368 518.626 600.368ZM528.218 621.712C527.77 621.712 527.482 621.637 527.354 621.488C527.248 621.36 527.194 621.125 527.194 620.784V620.08L527.386 619.888H528.794C529.328 619.888 529.733 619.845 530.01 619.76C530.288 619.675 530.544 619.44 530.778 619.056C531.013 618.672 531.344 618.043 531.77 617.168L533.434 613.648L528.186 600.688L526.17 600.08V599.6H532.314V600.08L529.85 600.624V600.72L534.138 611.696H534.234L538.138 600.752V600.656L535.546 600.08V599.6H541.21V600.08L539.162 600.688L532.474 617.456C532.218 618.096 531.973 618.619 531.738 619.024C531.525 619.451 531.28 619.867 531.002 620.272C530.682 620.741 530.266 621.093 529.754 621.328C529.264 621.584 528.752 621.712 528.218 621.712ZM556.597 614.32C555.359 614.32 554.303 614.192 553.429 613.936C552.554 613.68 551.647 613.317 550.709 612.848L550.389 607.92H550.965L552.789 611.984C553.514 612.517 554.218 612.88 554.901 613.072C555.583 613.243 556.287 613.328 557.013 613.328C558.442 613.328 559.519 612.955 560.245 612.208C560.97 611.44 561.333 610.373 561.333 609.008C561.333 607.984 561.087 607.184 560.597 606.608C560.127 606.032 559.445 605.52 558.549 605.072C557.674 604.624 556.639 604.101 555.445 603.504C554.506 603.035 553.717 602.565 553.077 602.096C552.458 601.627 551.989 601.083 551.669 600.464C551.349 599.824 551.189 599.035 551.189 598.096C551.189 597.179 551.466 596.304 552.021 595.472C552.597 594.619 553.333 593.925 554.229 593.392C555.125 592.837 556.085 592.56 557.109 592.56C558.047 592.56 558.901 592.677 559.669 592.912C560.458 593.147 561.269 593.477 562.101 593.904L562.421 598.704H561.845L560.437 594.896C559.903 594.405 559.381 594.053 558.869 593.84C558.357 593.627 557.759 593.52 557.077 593.52C555.775 593.52 554.773 593.893 554.069 594.64C553.365 595.387 553.013 596.293 553.013 597.36C553.013 598.171 553.173 598.853 553.493 599.408C553.834 599.963 554.346 600.464 555.029 600.912C555.711 601.36 556.575 601.84 557.621 602.352C558.901 602.971 559.957 603.568 560.789 604.144C561.621 604.699 562.229 605.339 562.613 606.064C563.018 606.789 563.221 607.707 563.221 608.816C563.221 609.883 562.89 610.832 562.229 611.664C561.589 612.475 560.767 613.125 559.765 613.616C558.762 614.085 557.706 614.32 556.597 614.32ZM570.273 614.32C569.292 614.32 568.471 614.032 567.809 613.456C567.148 612.859 566.817 612.037 566.817 610.992C566.817 609.968 567.18 609.115 567.905 608.432C568.652 607.749 569.879 607.195 571.585 606.768L574.721 605.968V603.312C574.721 602.395 574.391 601.659 573.729 601.104C573.068 600.528 572.311 600.24 571.457 600.24C570.54 600.24 569.889 600.432 569.505 600.816C569.143 601.179 568.961 601.68 568.961 602.32V603.632L568.801 603.792H567.969C567.628 603.792 567.404 603.739 567.297 603.632C567.191 603.525 567.137 603.323 567.137 603.024C567.137 602.619 567.276 602.203 567.553 601.776C567.831 601.349 568.236 600.965 568.769 600.624C569.345 600.261 569.921 599.952 570.497 599.696C571.095 599.419 571.66 599.28 572.193 599.28C573.473 599.28 574.476 599.568 575.201 600.144C575.948 600.699 576.321 601.573 576.321 602.768V612.72C576.492 612.869 576.684 612.987 576.897 613.072C577.132 613.157 577.399 613.2 577.697 613.2H579.361L579.393 613.232V613.296C579.244 613.509 578.999 613.733 578.657 613.968C578.316 614.203 577.857 614.32 577.281 614.32C576.535 614.32 575.959 614.128 575.553 613.744C575.148 613.36 574.903 612.912 574.817 612.4H574.753C574.199 612.955 573.527 613.413 572.737 613.776C571.969 614.139 571.148 614.32 570.273 614.32ZM568.417 610.416C568.417 611.291 568.663 611.952 569.153 612.4C569.644 612.827 570.337 613.04 571.233 613.04C571.767 613.04 572.343 612.965 572.961 612.816C573.58 612.645 574.167 612.389 574.721 612.048V606.64C572.951 607.003 571.607 607.365 570.689 607.728C569.793 608.091 569.185 608.485 568.865 608.912C568.567 609.339 568.417 609.84 568.417 610.416ZM581.478 614V613.52L583.494 612.976V591.536L581.158 590.928V590.448L584.774 590H585.094V612.976L587.366 613.52V614H581.478ZM595.309 614.16L590.093 600.688L588.077 600.08V599.6H594.221V600.08L591.757 600.624V600.72L595.885 611.92H595.981L600.045 600.752V600.656L597.453 600.08V599.6H603.117V600.08L601.069 600.688L595.629 614.16H595.309ZM607.336 614.32C606.354 614.32 605.533 614.032 604.872 613.456C604.21 612.859 603.88 612.037 603.88 610.992C603.88 609.968 604.242 609.115 604.968 608.432C605.714 607.749 606.941 607.195 608.648 606.768L611.784 605.968V603.312C611.784 602.395 611.453 601.659 610.792 601.104C610.13 600.528 609.373 600.24 608.52 600.24C607.602 600.24 606.952 600.432 606.568 600.816C606.205 601.179 606.024 601.68 606.024 602.32V603.632L605.864 603.792H605.032C604.69 603.792 604.466 603.739 604.36 603.632C604.253 603.525 604.2 603.323 604.2 603.024C604.2 602.619 604.338 602.203 604.616 601.776C604.893 601.349 605.298 600.965 605.832 600.624C606.408 600.261 606.984 599.952 607.56 599.696C608.157 599.419 608.722 599.28 609.256 599.28C610.536 599.28 611.538 599.568 612.264 600.144C613.01 600.699 613.384 601.573 613.384 602.768V612.72C613.554 612.869 613.746 612.987 613.96 613.072C614.194 613.157 614.461 613.2 614.76 613.2H616.424L616.456 613.232V613.296C616.306 613.509 616.061 613.733 615.72 613.968C615.378 614.203 614.92 614.32 614.344 614.32C613.597 614.32 613.021 614.128 612.616 613.744C612.21 613.36 611.965 612.912 611.88 612.4H611.816C611.261 612.955 610.589 613.413 609.8 613.776C609.032 614.139 608.21 614.32 607.336 614.32ZM605.48 610.416C605.48 611.291 605.725 611.952 606.216 612.4C606.706 612.827 607.4 613.04 608.296 613.04C608.829 613.04 609.405 612.965 610.024 612.816C610.642 612.645 611.229 612.389 611.784 612.048V606.64C610.013 607.003 608.669 607.365 607.752 607.728C606.856 608.091 606.248 608.485 605.928 608.912C605.629 609.339 605.48 609.84 605.48 610.416ZM624.197 614.32C623.13 614.32 622.181 614.043 621.349 613.488C620.517 612.933 619.856 612.155 619.365 611.152C618.896 610.128 618.661 608.912 618.661 607.504C618.661 605.755 619.002 604.272 619.685 603.056C620.368 601.819 621.274 600.88 622.405 600.24C623.536 599.6 624.784 599.28 626.149 599.28C626.618 599.28 627.109 599.365 627.621 599.536C628.133 599.685 628.634 599.888 629.125 600.144V591.536L626.789 590.928V590.448L630.405 590H630.725V612.976L632.997 613.52V614H629.445L629.157 612.368H628.997C628.272 612.987 627.514 613.467 626.725 613.808C625.957 614.149 625.114 614.32 624.197 614.32ZM620.165 606.992C620.165 608.421 620.4 609.605 620.869 610.544C621.338 611.461 621.946 612.144 622.693 612.592C623.461 613.019 624.25 613.232 625.061 613.232C625.765 613.232 626.469 613.104 627.173 612.848C627.877 612.592 628.528 612.176 629.125 611.6V601.296C628.464 600.933 627.802 600.645 627.141 600.432C626.48 600.219 625.776 600.112 625.029 600.112C624.154 600.112 623.344 600.336 622.597 600.784C621.872 601.232 621.285 601.968 620.837 602.992C620.389 603.995 620.165 605.328 620.165 606.992ZM642.691 614.32C641.39 614.32 640.249 613.989 639.267 613.328C638.286 612.667 637.518 611.771 636.963 610.64C636.409 609.509 636.131 608.229 636.131 606.8C636.131 605.371 636.409 604.091 636.963 602.96C637.518 601.829 638.286 600.933 639.267 600.272C640.249 599.611 641.39 599.28 642.691 599.28C643.993 599.28 645.134 599.611 646.115 600.272C647.097 600.933 647.865 601.829 648.419 602.96C648.974 604.091 649.251 605.371 649.251 606.8C649.251 608.229 648.974 609.509 648.419 610.64C647.865 611.771 647.097 612.667 646.115 613.328C645.134 613.989 643.993 614.32 642.691 614.32ZM643.139 613.584C644.121 613.584 644.942 613.296 645.603 612.72C646.286 612.123 646.798 611.355 647.139 610.416C647.481 609.477 647.651 608.485 647.651 607.44C647.651 606.053 647.449 604.805 647.043 603.696C646.638 602.565 646.03 601.669 645.219 601.008C644.43 600.325 643.459 599.984 642.307 599.984C641.347 599.984 640.526 600.261 639.843 600.816C639.161 601.349 638.638 602.085 638.275 603.024C637.913 603.941 637.731 604.976 637.731 606.128C637.731 607.515 637.945 608.773 638.371 609.904C638.819 611.035 639.438 611.931 640.227 612.592C641.038 613.253 642.009 613.584 643.139 613.584ZM652.828 614V613.52L654.844 612.976V600.816L652.508 600.528V600.048L655.964 599.28H656.284L656.444 602.128H656.508C657.34 601.253 658.001 600.613 658.492 600.208C658.982 599.803 659.388 599.547 659.708 599.44C660.028 599.333 660.39 599.28 660.796 599.28C661.158 599.28 661.489 599.344 661.788 599.472C662.001 599.557 662.15 599.643 662.236 599.728C662.342 599.792 662.396 599.888 662.396 600.016C662.396 600.059 662.385 600.112 662.364 600.176C662.364 600.219 662.353 600.283 662.332 600.368L662.012 601.2H661.948L661.34 600.912C661.041 600.763 660.646 600.688 660.156 600.688C659.537 600.688 658.918 600.859 658.3 601.2C657.681 601.541 657.062 602.139 656.444 602.992V612.976L658.908 613.52V614H652.828ZM672.486 614V613.2L675.046 612.656V594.224L672.486 593.68V592.88H679.942C682.289 592.88 684.294 593.296 685.958 594.128C687.622 594.96 688.881 596.101 689.734 597.552C690.609 599.003 691.046 600.645 691.046 602.48C691.046 604.848 690.577 606.896 689.638 608.624C688.721 610.331 687.42 611.653 685.734 612.592C684.049 613.531 682.044 614 679.718 614H672.486ZM680.166 594H676.966V612.88H680.326C682.076 612.88 683.59 612.485 684.87 611.696C686.172 610.885 687.174 609.776 687.878 608.368C688.604 606.96 688.966 605.328 688.966 603.472C688.966 601.573 688.625 599.909 687.942 598.48C687.26 597.051 686.257 595.952 684.934 595.184C683.633 594.395 682.044 594 680.166 594ZM698.273 614.32C697.292 614.32 696.471 614.032 695.809 613.456C695.148 612.859 694.817 612.037 694.817 610.992C694.817 609.968 695.18 609.115 695.905 608.432C696.652 607.749 697.879 607.195 699.585 606.768L702.721 605.968V603.312C702.721 602.395 702.391 601.659 701.729 601.104C701.068 600.528 700.311 600.24 699.457 600.24C698.54 600.24 697.889 600.432 697.505 600.816C697.143 601.179 696.961 601.68 696.961 602.32V603.632L696.801 603.792H695.969C695.628 603.792 695.404 603.739 695.297 603.632C695.191 603.525 695.137 603.323 695.137 603.024C695.137 602.619 695.276 602.203 695.553 601.776C695.831 601.349 696.236 600.965 696.769 600.624C697.345 600.261 697.921 599.952 698.497 599.696C699.095 599.419 699.66 599.28 700.193 599.28C701.473 599.28 702.476 599.568 703.201 600.144C703.948 600.699 704.321 601.573 704.321 602.768V612.72C704.492 612.869 704.684 612.987 704.897 613.072C705.132 613.157 705.399 613.2 705.697 613.2H707.361L707.393 613.232V613.296C707.244 613.509 706.999 613.733 706.657 613.968C706.316 614.203 705.857 614.32 705.281 614.32C704.535 614.32 703.959 614.128 703.553 613.744C703.148 613.36 702.903 612.912 702.817 612.4H702.753C702.199 612.955 701.527 613.413 700.737 613.776C699.969 614.139 699.148 614.32 698.273 614.32ZM696.417 610.416C696.417 611.291 696.663 611.952 697.153 612.4C697.644 612.827 698.337 613.04 699.233 613.04C699.767 613.04 700.343 612.965 700.961 612.816C701.58 612.645 702.167 612.389 702.721 612.048V606.64C700.951 607.003 699.607 607.365 698.689 607.728C697.793 608.091 697.185 608.485 696.865 608.912C696.567 609.339 696.417 609.84 696.417 610.416ZM709.478 614V613.52L711.494 612.976V591.536L709.158 590.928V590.448L712.774 590H713.094V612.976L715.366 613.52V614H709.478ZM718.829 614V613.52L720.845 612.976V600.816L718.509 600.208V599.728L722.125 599.28H722.445V612.976L724.717 613.52V614H718.829ZM721.421 597.04L724.429 591.376H725.933C725.933 591.696 725.848 592.005 725.677 592.304C725.507 592.581 725.24 592.944 724.877 593.392L721.869 597.04H721.421ZM729.613 614.128C729.208 614.128 728.866 613.989 728.589 613.712C728.312 613.413 728.173 613.072 728.173 612.688C728.173 612.304 728.312 611.973 728.589 611.696C728.866 611.397 729.208 611.248 729.613 611.248C730.018 611.248 730.36 611.397 730.637 611.696C730.914 611.973 731.053 612.304 731.053 612.688C731.053 613.072 730.914 613.413 730.637 613.712C730.36 613.989 730.018 614.128 729.613 614.128Z" fill="black"/>
</svg>
