<svg width="848" height="1152" viewBox="0 0 848 1152" fill="none" xmlns="http://www.w3.org/2000/svg">
<rect width="848" height="1152" fill="#FAFAFA"/>
<path d="M363.644 496.2V495.6L366.164 494.92V470.52L363.244 470.16V469.56L367.564 468.6H367.964L368.124 471.08H368.324C369.338 470.227 370.311 469.6 371.244 469.2C372.204 468.8 373.231 468.6 374.324 468.6C375.658 468.6 376.844 468.947 377.884 469.64C378.924 470.333 379.738 471.32 380.324 472.6C380.938 473.853 381.244 475.36 381.244 477.12C381.244 479.307 380.818 481.173 379.964 482.72C379.111 484.24 377.978 485.4 376.564 486.2C375.151 487 373.591 487.4 371.884 487.4C371.298 487.4 370.684 487.293 370.044 487.08C369.404 486.893 368.778 486.64 368.164 486.32V494.92L371.004 495.6V496.2H363.644ZM373.244 469.96C372.258 469.96 371.338 470.133 370.484 470.48C369.658 470.827 368.884 471.32 368.164 471.96V484.72C368.991 485.253 369.804 485.667 370.604 485.96C371.404 486.227 372.298 486.36 373.284 486.36C374.378 486.36 375.378 486.08 376.284 485.52C377.218 484.96 377.964 484.053 378.524 482.8C379.084 481.52 379.364 479.84 379.364 477.76C379.364 475.973 379.071 474.507 378.484 473.36C377.898 472.187 377.124 471.333 376.164 470.8C375.231 470.24 374.258 469.96 373.244 469.96ZM385.64 487V486.4L388.16 485.72V470.52L385.24 470.16V469.56L389.56 468.6H389.96L390.16 472.16H390.24C391.28 471.067 392.107 470.267 392.72 469.76C393.333 469.253 393.84 468.933 394.24 468.8C394.64 468.667 395.093 468.6 395.6 468.6C396.053 468.6 396.467 468.68 396.84 468.84C397.107 468.947 397.293 469.053 397.4 469.16C397.533 469.24 397.6 469.36 397.6 469.52C397.6 469.573 397.587 469.64 397.56 469.72C397.56 469.773 397.547 469.853 397.52 469.96L397.12 471H397.04L396.28 470.64C395.907 470.453 395.413 470.36 394.8 470.36C394.027 470.36 393.253 470.573 392.48 471C391.707 471.427 390.933 472.173 390.16 473.24V485.72L393.24 486.4V487H385.64ZM408.293 487.4C406.4 487.4 404.8 487 403.493 486.2C402.213 485.4 401.24 484.32 400.573 482.96C399.933 481.6 399.613 480.067 399.613 478.36C399.613 476.547 399.987 474.907 400.733 473.44C401.507 471.973 402.507 470.8 403.733 469.92C404.987 469.04 406.347 468.6 407.813 468.6C409.92 468.6 411.573 469.293 412.773 470.68C413.973 472.067 414.667 473.987 414.853 476.44L414.733 476.56H401.653C401.627 476.96 401.613 477.387 401.613 477.84C401.613 480.187 402.24 482.093 403.493 483.56C404.773 485 406.56 485.72 408.853 485.72C410.107 485.72 411.24 485.533 412.253 485.16C413.293 484.787 414.107 484.28 414.693 483.64H414.813V484.16C414.227 485.093 413.36 485.867 412.213 486.48C411.093 487.093 409.787 487.4 408.293 487.4ZM407.333 469.48C406.027 469.48 404.853 470.027 403.813 471.12C402.773 472.187 402.093 473.707 401.773 475.68H412.653C412.387 473.733 411.84 472.213 411.013 471.12C410.187 470.027 408.96 469.48 407.333 469.48ZM419.431 487V486.4L421.951 485.72V470.36H418.431V469H421.951V467.4C421.951 466.333 422.124 465.2 422.471 464C422.844 462.8 423.378 461.667 424.071 460.6C424.791 459.533 425.684 458.667 426.751 458C427.818 457.333 429.058 457 430.471 457C430.818 457 431.124 457.053 431.391 457.16C431.818 457.347 432.031 457.56 432.031 457.8C432.031 457.96 431.991 458.133 431.911 458.32L431.471 459.4H431.391L430.551 459.12C429.724 458.853 428.924 458.72 428.151 458.72C426.791 458.72 425.751 459.28 425.031 460.4C424.311 461.52 423.951 463.32 423.951 465.8V469H429.231V470.36H423.951V485.72L427.031 486.4V487H419.431ZM436.314 487.4C435.088 487.4 434.061 487.04 433.234 486.32C432.408 485.573 431.994 484.547 431.994 483.24C431.994 481.96 432.448 480.893 433.354 480.04C434.288 479.187 435.821 478.493 437.954 477.96L441.874 476.96V473.64C441.874 472.493 441.461 471.573 440.634 470.88C439.808 470.16 438.861 469.8 437.794 469.8C436.648 469.8 435.834 470.04 435.354 470.52C434.901 470.973 434.674 471.6 434.674 472.4V474.04L434.474 474.24H433.434C433.008 474.24 432.728 474.173 432.594 474.04C432.461 473.907 432.394 473.653 432.394 473.28C432.394 472.773 432.568 472.253 432.914 471.72C433.261 471.187 433.768 470.707 434.434 470.28C435.154 469.827 435.874 469.44 436.594 469.12C437.341 468.773 438.048 468.6 438.714 468.6C440.314 468.6 441.568 468.96 442.474 469.68C443.408 470.373 443.874 471.467 443.874 472.96V485.4C444.088 485.587 444.328 485.733 444.594 485.84C444.888 485.947 445.221 486 445.594 486H447.674L447.714 486.04V486.12C447.528 486.387 447.221 486.667 446.794 486.96C446.368 487.253 445.794 487.4 445.074 487.4C444.141 487.4 443.421 487.16 442.914 486.68C442.408 486.2 442.101 485.64 441.994 485H441.914C441.221 485.693 440.381 486.267 439.394 486.72C438.434 487.173 437.408 487.4 436.314 487.4ZM433.994 482.52C433.994 483.613 434.301 484.44 434.914 485C435.528 485.533 436.394 485.8 437.514 485.8C438.181 485.8 438.901 485.707 439.674 485.52C440.448 485.307 441.181 484.987 441.874 484.56V477.8C439.661 478.253 437.981 478.707 436.834 479.16C435.714 479.613 434.954 480.107 434.554 480.64C434.181 481.173 433.994 481.8 433.994 482.52ZM459.111 487.4C457.244 487.4 455.671 487 454.391 486.2C453.137 485.4 452.177 484.32 451.511 482.96C450.871 481.6 450.551 480.067 450.551 478.36C450.551 476.493 450.924 474.827 451.671 473.36C452.444 471.867 453.497 470.707 454.831 469.88C456.191 469.027 457.724 468.6 459.431 468.6C460.497 468.6 461.444 468.747 462.271 469.04C463.097 469.333 463.764 469.653 464.271 470C465.124 470.587 465.551 471.093 465.551 471.52C465.551 471.707 465.457 471.88 465.271 472.04L464.191 472.96H464.031L463.511 472.24C462.924 471.44 462.284 470.787 461.591 470.28C460.924 469.747 460.057 469.48 458.991 469.48C457.124 469.48 455.577 470.187 454.351 471.6C453.151 472.987 452.551 475.067 452.551 477.84C452.551 480.187 453.164 482.093 454.391 483.56C455.644 485 457.404 485.72 459.671 485.72C460.897 485.72 462.031 485.533 463.071 485.16C464.111 484.787 464.924 484.28 465.511 483.64H465.631V484.16C465.017 485.093 464.151 485.867 463.031 486.48C461.911 487.093 460.604 487.4 459.111 487.4ZM478.098 487.4C476.205 487.4 474.605 487 473.298 486.2C472.018 485.4 471.045 484.32 470.378 482.96C469.738 481.6 469.418 480.067 469.418 478.36C469.418 476.547 469.791 474.907 470.538 473.44C471.311 471.973 472.311 470.8 473.538 469.92C474.791 469.04 476.151 468.6 477.618 468.6C479.725 468.6 481.378 469.293 482.578 470.68C483.778 472.067 484.471 473.987 484.658 476.44L484.538 476.56H471.458C471.431 476.96 471.418 477.387 471.418 477.84C471.418 480.187 472.045 482.093 473.298 483.56C474.578 485 476.365 485.72 478.658 485.72C479.911 485.72 481.045 485.533 482.058 485.16C483.098 484.787 483.911 484.28 484.498 483.64H484.618V484.16C484.031 485.093 483.165 485.867 482.018 486.48C480.898 487.093 479.591 487.4 478.098 487.4ZM477.138 469.48C475.831 469.48 474.658 470.027 473.618 471.12C472.578 472.187 471.898 473.707 471.578 475.68H482.458C482.191 473.733 481.645 472.213 480.818 471.12C479.991 470.027 478.765 469.48 477.138 469.48ZM66.3185 573.32C64.3985 573.32 62.6812 572.851 61.1665 571.912C59.6732 570.973 58.4892 569.683 57.6145 568.04C56.7398 566.397 56.3025 564.531 56.3025 562.44C56.3025 560.349 56.7398 558.483 57.6145 556.84C58.4892 555.197 59.6732 553.907 61.1665 552.968C62.6812 552.029 64.3985 551.56 66.3185 551.56C68.2598 551.56 69.9772 552.029 71.4705 552.968C72.9852 553.907 74.1798 555.197 75.0545 556.84C75.9292 558.483 76.3665 560.349 76.3665 562.44C76.3665 564.531 75.9292 566.397 75.0545 568.04C74.1798 569.683 72.9852 570.973 71.4705 571.912C69.9772 572.851 68.2598 573.32 66.3185 573.32ZM66.9905 572.36C68.4412 572.36 69.7212 571.997 70.8305 571.272C71.9612 570.525 72.8358 569.491 73.4545 568.168C74.0732 566.824 74.3825 565.245 74.3825 563.432C74.3825 561.235 73.9985 559.315 73.2305 557.672C72.4625 556.029 71.4278 554.76 70.1265 553.864C68.8252 552.947 67.3745 552.488 65.7745 552.488C64.3238 552.488 63.0332 552.851 61.9025 553.576C60.7718 554.301 59.8865 555.336 59.2465 556.68C58.6065 558.003 58.2865 559.571 58.2865 561.384C58.2865 563.581 58.6705 565.512 59.4385 567.176C60.2278 568.819 61.2732 570.099 62.5745 571.016C63.8972 571.912 65.3692 572.36 66.9905 572.36ZM80.4498 573V572.52L82.4658 571.976V559.816L80.1298 559.528V559.048L83.5858 558.28H83.9058L84.0338 560.584H84.1298C84.9191 559.773 85.6658 559.187 86.3698 558.824C87.0738 558.461 87.8631 558.28 88.7378 558.28C90.0818 558.28 91.1804 558.653 92.0338 559.4C92.9084 560.147 93.3458 561.235 93.3458 562.664V571.976L95.3618 572.52V573H89.4738V572.52L91.7458 571.976V563.528C91.7458 562.227 91.3938 561.245 90.6898 560.584C90.0071 559.901 89.1004 559.56 87.9698 559.56C87.3298 559.56 86.6364 559.72 85.8898 560.04C85.1431 560.339 84.5351 560.776 84.0658 561.352V571.976L86.3378 572.52V573H80.4498ZM97.978 573V572.52L99.994 571.976V550.536L97.658 549.928V549.448L101.274 549H101.594V571.976L103.866 572.52V573H97.978ZM106.593 580.712C106.145 580.712 105.857 580.637 105.729 580.488C105.623 580.36 105.569 580.125 105.569 579.784V579.08L105.761 578.888H107.169C107.703 578.888 108.108 578.845 108.385 578.76C108.663 578.675 108.919 578.44 109.153 578.056C109.388 577.672 109.719 577.043 110.145 576.168L111.809 572.648L106.561 559.688L104.545 559.08V558.6H110.689V559.08L108.225 559.624V559.72L112.513 570.696H112.609L116.513 559.752V559.656L113.921 559.08V558.6H119.585V559.08L117.537 559.688L110.849 576.456C110.593 577.096 110.348 577.619 110.113 578.024C109.9 578.451 109.655 578.867 109.377 579.272C109.057 579.741 108.641 580.093 108.129 580.328C107.639 580.584 107.127 580.712 106.593 580.712ZM131.836 573.32C130.854 573.32 130.033 573.032 129.372 572.456C128.71 571.859 128.38 571.037 128.38 569.992C128.38 568.968 128.742 568.115 129.468 567.432C130.214 566.749 131.441 566.195 133.148 565.768L136.284 564.968V562.312C136.284 561.395 135.953 560.659 135.292 560.104C134.63 559.528 133.873 559.24 133.02 559.24C132.102 559.24 131.452 559.432 131.068 559.816C130.705 560.179 130.524 560.68 130.524 561.32V562.632L130.364 562.792H129.532C129.19 562.792 128.966 562.739 128.86 562.632C128.753 562.525 128.7 562.323 128.7 562.024C128.7 561.619 128.838 561.203 129.116 560.776C129.393 560.349 129.798 559.965 130.332 559.624C130.908 559.261 131.484 558.952 132.06 558.696C132.657 558.419 133.222 558.28 133.756 558.28C135.036 558.28 136.038 558.568 136.764 559.144C137.51 559.699 137.884 560.573 137.884 561.768V571.72C138.054 571.869 138.246 571.987 138.46 572.072C138.694 572.157 138.961 572.2 139.26 572.2H140.924L140.956 572.232V572.296C140.806 572.509 140.561 572.733 140.22 572.968C139.878 573.203 139.42 573.32 138.844 573.32C138.097 573.32 137.521 573.128 137.116 572.744C136.71 572.36 136.465 571.912 136.38 571.4H136.316C135.761 571.955 135.089 572.413 134.3 572.776C133.532 573.139 132.71 573.32 131.836 573.32ZM129.98 569.416C129.98 570.291 130.225 570.952 130.716 571.4C131.206 571.827 131.9 572.04 132.796 572.04C133.329 572.04 133.905 571.965 134.524 571.816C135.142 571.645 135.729 571.389 136.284 571.048V565.64C134.513 566.003 133.169 566.365 132.252 566.728C131.356 567.091 130.748 567.485 130.428 567.912C130.129 568.339 129.98 568.84 129.98 569.416ZM143.361 573V572.52L145.377 571.976V559.688H142.561V558.6H145.377V557.32C145.377 556.467 145.515 555.56 145.793 554.6C146.091 553.64 146.518 552.733 147.073 551.88C147.649 551.027 148.363 550.333 149.217 549.8C150.07 549.267 151.062 549 152.193 549C152.47 549 152.715 549.043 152.929 549.128C153.27 549.277 153.441 549.448 153.441 549.64C153.441 549.683 153.43 549.747 153.409 549.832C153.409 549.896 153.398 549.96 153.377 550.024L152.993 550.92H152.929L152.257 550.696C151.595 550.483 150.955 550.376 150.337 550.376C149.249 550.376 148.417 550.824 147.841 551.72C147.265 552.616 146.977 554.056 146.977 556.04V558.6H155.457L156.513 555.08H156.865V558.6H161.089V559.688H156.865V570.088C156.865 570.749 157.067 571.251 157.472 571.592C157.878 571.912 158.411 572.072 159.073 572.072C159.542 572.072 159.969 572.019 160.353 571.912C160.737 571.805 161.099 571.656 161.441 571.464L161.473 571.496V571.624C161.302 571.987 160.939 572.36 160.385 572.744C159.83 573.128 159.105 573.32 158.208 573.32C157.334 573.32 156.619 573.043 156.065 572.488C155.531 571.933 155.265 571.155 155.265 570.152V559.688H146.977V571.976L149.441 572.52V573H143.361ZM170.982 573.32C169.467 573.32 168.187 573 167.141 572.36C166.118 571.72 165.339 570.856 164.806 569.768C164.294 568.68 164.038 567.453 164.038 566.088C164.038 564.637 164.336 563.325 164.934 562.152C165.552 560.979 166.352 560.04 167.334 559.336C168.336 558.632 169.424 558.28 170.598 558.28C172.283 558.28 173.606 558.835 174.566 559.944C175.526 561.053 176.08 562.589 176.23 564.552L176.134 564.648H165.67C165.648 564.968 165.638 565.309 165.638 565.672C165.638 567.549 166.139 569.075 167.141 570.248C168.166 571.4 169.595 571.976 171.43 571.976C172.432 571.976 173.339 571.827 174.15 571.528C174.982 571.229 175.632 570.824 176.102 570.312H176.198V570.728C175.728 571.475 175.035 572.093 174.118 572.584C173.222 573.075 172.176 573.32 170.982 573.32ZM170.214 558.984C169.168 558.984 168.23 559.421 167.398 560.296C166.566 561.149 166.022 562.365 165.766 563.944H174.47C174.256 562.387 173.819 561.171 173.158 560.296C172.496 559.421 171.515 558.984 170.214 558.984ZM179.828 573V572.52L181.844 571.976V559.816L179.508 559.528V559.048L182.964 558.28H183.284L183.444 561.128H183.508C184.34 560.253 185.001 559.613 185.492 559.208C185.982 558.803 186.388 558.547 186.708 558.44C187.028 558.333 187.39 558.28 187.796 558.28C188.158 558.28 188.489 558.344 188.788 558.472C189.001 558.557 189.15 558.643 189.236 558.728C189.342 558.792 189.396 558.888 189.396 559.016C189.396 559.059 189.385 559.112 189.364 559.176C189.364 559.219 189.353 559.283 189.332 559.368L189.012 560.2H188.948L188.34 559.912C188.041 559.763 187.646 559.688 187.156 559.688C186.537 559.688 185.918 559.859 185.3 560.2C184.681 560.541 184.062 561.139 183.444 561.992V571.976L185.908 572.52V573H179.828ZM203.742 573.32C202.868 573.32 202.153 573.043 201.598 572.488C201.065 571.933 200.798 571.155 200.798 570.152V559.688H197.982V559.4L200.99 558.6L202.046 555.08H202.398V558.6H206.622V559.688H202.398V570.088C202.398 570.749 202.601 571.251 203.006 571.592C203.412 571.912 203.945 572.072 204.606 572.072C205.076 572.072 205.502 572.019 205.886 571.912C206.27 571.805 206.633 571.656 206.974 571.464L207.006 571.496V571.624C206.836 571.987 206.473 572.36 205.918 572.744C205.364 573.128 204.638 573.32 203.742 573.32ZM209.825 573V572.52L211.841 571.976V550.536L209.505 549.928V549.448L213.121 549H213.441V560.584H213.505C214.294 559.773 215.041 559.187 215.745 558.824C216.449 558.461 217.238 558.28 218.113 558.28C219.457 558.28 220.555 558.653 221.409 559.4C222.283 560.147 222.721 561.235 222.721 562.664V571.976L224.737 572.52V573H218.849V572.52L221.121 571.976V563.528C221.121 562.227 220.769 561.245 220.065 560.584C219.382 559.901 218.475 559.56 217.345 559.56C216.705 559.56 216.011 559.72 215.265 560.04C214.518 560.339 213.91 560.776 213.441 561.352V571.976L215.713 572.52V573H209.825ZM234.482 573.32C232.967 573.32 231.687 573 230.641 572.36C229.618 571.72 228.839 570.856 228.306 569.768C227.794 568.68 227.538 567.453 227.538 566.088C227.538 564.637 227.836 563.325 228.434 562.152C229.052 560.979 229.852 560.04 230.834 559.336C231.836 558.632 232.924 558.28 234.098 558.28C235.783 558.28 237.106 558.835 238.066 559.944C239.026 561.053 239.58 562.589 239.73 564.552L239.634 564.648H229.17C229.148 564.968 229.138 565.309 229.138 565.672C229.138 567.549 229.639 569.075 230.641 570.248C231.666 571.4 233.095 571.976 234.93 571.976C235.932 571.976 236.839 571.827 237.65 571.528C238.482 571.229 239.132 570.824 239.602 570.312H239.698V570.728C239.228 571.475 238.535 572.093 237.618 572.584C236.722 573.075 235.676 573.32 234.482 573.32ZM233.714 558.984C232.668 558.984 231.73 559.421 230.898 560.296C230.066 561.149 229.522 562.365 229.266 563.944H237.97C237.756 562.387 237.319 561.171 236.658 560.296C235.996 559.421 235.015 558.984 233.714 558.984ZM251.392 573V572.52L253.408 571.976V559.688H250.592V558.6H253.408V557.32C253.408 556.467 253.546 555.56 253.824 554.6C254.122 553.64 254.549 552.733 255.104 551.88C255.68 551.027 256.394 550.333 257.248 549.8C258.101 549.267 259.093 549 260.224 549C260.501 549 260.746 549.043 260.96 549.128C261.301 549.277 261.472 549.448 261.472 549.64C261.472 549.768 261.44 549.907 261.376 550.056L261.024 550.92H260.96L260.288 550.696C259.626 550.483 258.986 550.376 258.368 550.376C257.28 550.376 256.448 550.824 255.872 551.72C255.296 552.616 255.008 554.056 255.008 556.04V558.6H259.232V559.688H255.008V571.976L257.472 572.52V573H251.392ZM264.898 573.32C263.917 573.32 263.096 573.032 262.434 572.456C261.773 571.859 261.442 571.037 261.442 569.992C261.442 568.968 261.805 568.115 262.53 567.432C263.277 566.749 264.504 566.195 266.21 565.768L269.346 564.968V562.312C269.346 561.395 269.016 560.659 268.354 560.104C267.693 559.528 266.936 559.24 266.082 559.24C265.165 559.24 264.514 559.432 264.13 559.816C263.768 560.179 263.586 560.68 263.586 561.32V562.632L263.426 562.792H262.594C262.253 562.792 262.029 562.739 261.922 562.632C261.816 562.525 261.762 562.323 261.762 562.024C261.762 561.619 261.901 561.203 262.178 560.776C262.456 560.349 262.861 559.965 263.394 559.624C263.97 559.261 264.546 558.952 265.122 558.696C265.72 558.419 266.285 558.28 266.818 558.28C268.098 558.28 269.101 558.568 269.826 559.144C270.573 559.699 270.946 560.573 270.946 561.768V571.72C271.117 571.869 271.309 571.987 271.522 572.072C271.757 572.157 272.024 572.2 272.322 572.2H273.986L274.018 572.232V572.296C273.869 572.509 273.624 572.733 273.282 572.968C272.941 573.203 272.482 573.32 271.906 573.32C271.16 573.32 270.584 573.128 270.178 572.744C269.773 572.36 269.528 571.912 269.442 571.4H269.378C268.824 571.955 268.152 572.413 267.362 572.776C266.594 573.139 265.773 573.32 264.898 573.32ZM263.042 569.416C263.042 570.291 263.288 570.952 263.778 571.4C264.269 571.827 264.962 572.04 265.858 572.04C266.392 572.04 266.968 571.965 267.586 571.816C268.205 571.645 268.792 571.389 269.346 571.048V565.64C267.576 566.003 266.232 566.365 265.314 566.728C264.418 567.091 263.81 567.485 263.49 567.912C263.192 568.339 263.042 568.84 263.042 569.416ZM283.135 573.32C281.642 573.32 280.384 573 279.36 572.36C278.357 571.72 277.589 570.856 277.056 569.768C276.544 568.68 276.288 567.453 276.288 566.088C276.288 564.595 276.586 563.261 277.184 562.088C277.802 560.893 278.645 559.965 279.712 559.304C280.8 558.621 282.026 558.28 283.392 558.28C284.245 558.28 285.002 558.397 285.664 558.632C286.325 558.867 286.858 559.123 287.264 559.4C287.946 559.869 288.288 560.275 288.288 560.616C288.288 560.765 288.213 560.904 288.064 561.032L287.2 561.768H287.072L286.656 561.192C286.186 560.552 285.674 560.029 285.12 559.624C284.586 559.197 283.893 558.984 283.04 558.984C281.546 558.984 280.309 559.549 279.328 560.68C278.368 561.789 277.888 563.453 277.888 565.672C277.888 567.549 278.378 569.075 279.36 570.248C280.362 571.4 281.77 571.976 283.584 571.976C284.565 571.976 285.472 571.827 286.304 571.528C287.136 571.229 287.786 570.824 288.256 570.312H288.352V570.728C287.861 571.475 287.168 572.093 286.272 572.584C285.376 573.075 284.33 573.32 283.135 573.32ZM296.117 573.32C295.243 573.32 294.528 573.043 293.973 572.488C293.44 571.933 293.173 571.155 293.173 570.152V559.688H290.357V559.4L293.365 558.6L294.421 555.08H294.773V558.6H298.997V559.688H294.773V570.088C294.773 570.749 294.976 571.251 295.381 571.592C295.787 571.912 296.32 572.072 296.981 572.072C297.451 572.072 297.877 572.019 298.261 571.912C298.645 571.805 299.008 571.656 299.349 571.464L299.381 571.496V571.624C299.211 571.987 298.848 572.36 298.293 572.744C297.739 573.128 297.013 573.32 296.117 573.32ZM316.504 573.32C315.202 573.32 314.061 572.989 313.08 572.328C312.098 571.667 311.33 570.771 310.776 569.64C310.221 568.509 309.944 567.229 309.944 565.8C309.944 564.371 310.221 563.091 310.776 561.96C311.33 560.829 312.098 559.933 313.08 559.272C314.061 558.611 315.202 558.28 316.504 558.28C317.805 558.28 318.946 558.611 319.928 559.272C320.909 559.933 321.677 560.829 322.232 561.96C322.786 563.091 323.064 564.371 323.064 565.8C323.064 567.229 322.786 568.509 322.232 569.64C321.677 570.771 320.909 571.667 319.928 572.328C318.946 572.989 317.805 573.32 316.504 573.32ZM316.952 572.584C317.933 572.584 318.754 572.296 319.416 571.72C320.098 571.123 320.61 570.355 320.952 569.416C321.293 568.477 321.464 567.485 321.464 566.44C321.464 565.053 321.261 563.805 320.856 562.696C320.45 561.565 319.842 560.669 319.032 560.008C318.242 559.325 317.272 558.984 316.12 558.984C315.16 558.984 314.338 559.261 313.656 559.816C312.973 560.349 312.45 561.085 312.088 562.024C311.725 562.941 311.544 563.976 311.544 565.128C311.544 566.515 311.757 567.773 312.184 568.904C312.632 570.035 313.25 570.931 314.04 571.592C314.85 572.253 315.821 572.584 316.952 572.584ZM326.704 573V572.52L328.72 571.976V559.688H325.904V558.6H328.72V557.32C328.72 556.467 328.859 555.56 329.136 554.6C329.435 553.64 329.862 552.733 330.416 551.88C330.992 551.027 331.707 550.333 332.56 549.8C333.414 549.267 334.406 549 335.536 549C335.814 549 336.059 549.043 336.272 549.128C336.614 549.277 336.784 549.448 336.784 549.64C336.784 549.768 336.752 549.907 336.688 550.056L336.336 550.92H336.272L335.6 550.696C334.939 550.483 334.299 550.376 333.68 550.376C332.592 550.376 331.76 550.824 331.184 551.72C330.608 552.616 330.32 554.056 330.32 556.04V558.6H334.544V559.688H330.32V571.976L332.784 572.52V573H326.704ZM351.763 573.32C350.248 573.32 348.968 573 347.923 572.36C346.899 571.72 346.12 570.856 345.587 569.768C345.075 568.68 344.819 567.453 344.819 566.088C344.819 564.637 345.117 563.325 345.715 562.152C346.333 560.979 347.133 560.04 348.115 559.336C349.117 558.632 350.205 558.28 351.379 558.28C353.064 558.28 354.387 558.835 355.347 559.944C356.307 561.053 356.861 562.589 357.011 564.552L356.915 564.648H346.451C346.429 564.968 346.419 565.309 346.419 565.672C346.419 567.549 346.92 569.075 347.923 570.248C348.947 571.4 350.376 571.976 352.211 571.976C353.213 571.976 354.12 571.827 354.931 571.528C355.763 571.229 356.413 570.824 356.883 570.312H356.979V570.728C356.509 571.475 355.816 572.093 354.899 572.584C354.003 573.075 352.957 573.32 351.763 573.32ZM350.995 558.984C349.949 558.984 349.011 559.421 348.179 560.296C347.347 561.149 346.803 562.365 346.547 563.944H355.251C355.037 562.387 354.6 561.171 353.939 560.296C353.277 559.421 352.296 558.984 350.995 558.984ZM363.617 573.32C362.636 573.32 361.814 573.032 361.153 572.456C360.492 571.859 360.161 571.037 360.161 569.992C360.161 568.968 360.524 568.115 361.249 567.432C361.996 566.749 363.222 566.195 364.929 565.768L368.065 564.968V562.312C368.065 561.395 367.734 560.659 367.073 560.104C366.412 559.528 365.654 559.24 364.801 559.24C363.884 559.24 363.233 559.432 362.849 559.816C362.486 560.179 362.305 560.68 362.305 561.32V562.632L362.145 562.792H361.313C360.972 562.792 360.748 562.739 360.641 562.632C360.534 562.525 360.481 562.323 360.481 562.024C360.481 561.619 360.62 561.203 360.897 560.776C361.174 560.349 361.58 559.965 362.113 559.624C362.689 559.261 363.265 558.952 363.841 558.696C364.438 558.419 365.004 558.28 365.537 558.28C366.817 558.28 367.82 558.568 368.545 559.144C369.292 559.699 369.665 560.573 369.665 561.768V571.72C369.836 571.869 370.028 571.987 370.241 572.072C370.476 572.157 370.742 572.2 371.041 572.2H372.705L372.737 572.232V572.296C372.588 572.509 372.342 572.733 372.001 572.968C371.66 573.203 371.201 573.32 370.625 573.32C369.878 573.32 369.302 573.128 368.897 572.744C368.492 572.36 368.246 571.912 368.161 571.4H368.097C367.542 571.955 366.87 572.413 366.081 572.776C365.313 573.139 364.492 573.32 363.617 573.32ZM361.761 569.416C361.761 570.291 362.006 570.952 362.497 571.4C362.988 571.827 363.681 572.04 364.577 572.04C365.11 572.04 365.686 571.965 366.305 571.816C366.924 571.645 367.51 571.389 368.065 571.048V565.64C366.294 566.003 364.95 566.365 364.033 566.728C363.137 567.091 362.529 567.485 362.209 567.912C361.91 568.339 361.761 568.84 361.761 569.416ZM381.854 573.32C380.361 573.32 379.102 573 378.078 572.36C377.076 571.72 376.308 570.856 375.774 569.768C375.262 568.68 375.006 567.453 375.006 566.088C375.006 564.595 375.305 563.261 375.902 562.088C376.521 560.893 377.364 559.965 378.43 559.304C379.518 558.621 380.745 558.28 382.11 558.28C382.964 558.28 383.721 558.397 384.382 558.632C385.044 558.867 385.577 559.123 385.982 559.4C386.665 559.869 387.006 560.275 387.006 560.616C387.006 560.765 386.932 560.904 386.782 561.032L385.918 561.768H385.79L385.374 561.192C384.905 560.552 384.393 560.029 383.838 559.624C383.305 559.197 382.612 558.984 381.758 558.984C380.265 558.984 379.028 559.549 378.046 560.68C377.086 561.789 376.606 563.453 376.606 565.672C376.606 567.549 377.097 569.075 378.078 570.248C379.081 571.4 380.489 571.976 382.302 571.976C383.284 571.976 384.19 571.827 385.022 571.528C385.854 571.229 386.505 570.824 386.974 570.312H387.07V570.728C386.58 571.475 385.886 572.093 384.99 572.584C384.094 573.075 383.049 573.32 381.854 573.32ZM390.356 573V572.52L392.372 571.976V550.536L390.036 549.928V549.448L393.652 549H393.972V560.584H394.036C394.825 559.773 395.572 559.187 396.276 558.824C396.98 558.461 397.769 558.28 398.644 558.28C399.988 558.28 401.087 558.653 401.94 559.4C402.815 560.147 403.252 561.235 403.252 562.664V571.976L405.268 572.52V573H399.38V572.52L401.652 571.976V563.528C401.652 562.227 401.3 561.245 400.596 560.584C399.913 559.901 399.007 559.56 397.876 559.56C397.236 559.56 396.543 559.72 395.796 560.04C395.049 560.339 394.441 560.776 393.972 561.352V571.976L396.244 572.52V573H390.356ZM416.325 580.36V579.88L418.341 579.336V559.816L416.005 559.528V559.048L419.461 558.28H419.781L419.909 560.264H420.069C420.879 559.581 421.658 559.08 422.405 558.76C423.173 558.44 423.994 558.28 424.869 558.28C425.935 558.28 426.885 558.557 427.717 559.112C428.549 559.667 429.199 560.456 429.669 561.48C430.159 562.483 430.405 563.688 430.405 565.096C430.405 566.845 430.063 568.339 429.381 569.576C428.698 570.792 427.791 571.72 426.661 572.36C425.53 573 424.282 573.32 422.917 573.32C422.447 573.32 421.957 573.235 421.445 573.064C420.933 572.915 420.431 572.712 419.941 572.456V579.336L422.213 579.88V580.36H416.325ZM424.005 559.368C423.215 559.368 422.479 559.507 421.797 559.784C421.135 560.061 420.517 560.456 419.941 560.968V571.176C420.602 571.603 421.253 571.933 421.893 572.168C422.533 572.381 423.247 572.488 424.037 572.488C424.911 572.488 425.711 572.264 426.437 571.816C427.183 571.368 427.781 570.643 428.229 569.64C428.677 568.616 428.901 567.272 428.901 565.608C428.901 564.179 428.666 563.005 428.197 562.088C427.727 561.149 427.109 560.467 426.341 560.04C425.594 559.592 424.815 559.368 424.005 559.368ZM440.723 573.32C439.421 573.32 438.28 572.989 437.299 572.328C436.317 571.667 435.549 570.771 434.995 569.64C434.44 568.509 434.163 567.229 434.163 565.8C434.163 564.371 434.44 563.091 434.995 561.96C435.549 560.829 436.317 559.933 437.299 559.272C438.28 558.611 439.421 558.28 440.723 558.28C442.024 558.28 443.165 558.611 444.147 559.272C445.128 559.933 445.896 560.829 446.451 561.96C447.005 563.091 447.283 564.371 447.283 565.8C447.283 567.229 447.005 568.509 446.451 569.64C445.896 570.771 445.128 571.667 444.147 572.328C443.165 572.989 442.024 573.32 440.723 573.32ZM441.171 572.584C442.152 572.584 442.973 572.296 443.635 571.72C444.317 571.123 444.829 570.355 445.171 569.416C445.512 568.477 445.683 567.485 445.683 566.44C445.683 565.053 445.48 563.805 445.075 562.696C444.669 561.565 444.061 560.669 443.251 560.008C442.461 559.325 441.491 558.984 440.339 558.984C439.379 558.984 438.557 559.261 437.875 559.816C437.192 560.349 436.669 561.085 436.307 562.024C435.944 562.941 435.763 563.976 435.763 565.128C435.763 566.515 435.976 567.773 436.403 568.904C436.851 570.035 437.469 570.931 438.259 571.592C439.069 572.253 440.04 572.584 441.171 572.584ZM458.044 573.32C456.529 573.32 455.249 573 454.204 572.36C453.18 571.72 452.401 570.856 451.868 569.768C451.356 568.68 451.1 567.453 451.1 566.088C451.1 564.637 451.399 563.325 451.996 562.152C452.615 560.979 453.415 560.04 454.396 559.336C455.399 558.632 456.487 558.28 457.66 558.28C459.345 558.28 460.668 558.835 461.628 559.944C462.588 561.053 463.143 562.589 463.292 564.552L463.196 564.648H452.732C452.711 564.968 452.7 565.309 452.7 565.672C452.7 567.549 453.201 569.075 454.204 570.248C455.228 571.4 456.657 571.976 458.492 571.976C459.495 571.976 460.401 571.827 461.212 571.528C462.044 571.229 462.695 570.824 463.164 570.312H463.26V570.728C462.791 571.475 462.097 572.093 461.18 572.584C460.284 573.075 459.239 573.32 458.044 573.32ZM457.276 558.984C456.231 558.984 455.292 559.421 454.46 560.296C453.628 561.149 453.084 562.365 452.828 563.944H461.532C461.319 562.387 460.881 561.171 460.22 560.296C459.559 559.421 458.577 558.984 457.276 558.984ZM466.57 573V572.52L468.586 571.976V559.816L466.25 559.528V559.048L469.706 558.28H470.026L470.154 560.584H470.25C470.997 559.816 471.701 559.24 472.362 558.856C473.024 558.472 473.749 558.28 474.538 558.28C475.434 558.28 476.224 558.472 476.906 558.856C477.589 559.24 478.101 559.816 478.442 560.584H478.506C479.274 559.795 480 559.219 480.682 558.856C481.365 558.472 482.122 558.28 482.954 558.28C484.256 558.28 485.322 558.653 486.154 559.4C486.986 560.147 487.402 561.235 487.402 562.664V571.976L489.418 572.52V573H483.53V572.52L485.802 571.976V563.528C485.802 562.227 485.461 561.245 484.778 560.584C484.117 559.901 483.253 559.56 482.186 559.56C481.61 559.56 480.981 559.699 480.298 559.976C479.637 560.232 479.082 560.616 478.634 561.128C478.762 561.597 478.826 562.109 478.826 562.664V571.976L480.842 572.52V573H474.954V572.52L477.226 571.976V563.528C477.226 562.227 476.906 561.245 476.266 560.584C475.626 559.901 474.794 559.56 473.77 559.56C473.173 559.56 472.533 559.72 471.85 560.04C471.168 560.339 470.613 560.765 470.186 561.32V571.976L472.458 572.52V573H466.57ZM504.229 573.16L499.749 559.688L497.733 559.08V558.6H503.877V559.08L501.413 559.624V559.72L504.805 570.824H504.933L509.413 558.6H509.893L514.373 570.728H514.501L517.829 559.752V559.656L515.237 559.08V558.6H520.901V559.08L518.853 559.688L514.149 573.16H513.829L509.285 561.416L504.549 573.16H504.229ZM522.14 573V572.52L524.156 571.976V559.816L521.82 559.528V559.048L525.276 558.28H525.596L525.756 561.128H525.82C526.652 560.253 527.314 559.613 527.804 559.208C528.295 558.803 528.7 558.547 529.02 558.44C529.34 558.333 529.703 558.28 530.108 558.28C530.471 558.28 530.802 558.344 531.1 558.472C531.314 558.557 531.463 558.643 531.548 558.728C531.655 558.792 531.708 558.888 531.708 559.016C531.708 559.059 531.698 559.112 531.676 559.176C531.676 559.219 531.666 559.283 531.644 559.368L531.324 560.2H531.26L530.652 559.912C530.354 559.763 529.959 559.688 529.468 559.688C528.85 559.688 528.231 559.859 527.612 560.2C526.994 560.541 526.375 561.139 525.756 561.992V571.976L528.22 572.52V573H522.14ZM536.135 553.224C535.793 553.224 535.505 553.107 535.271 552.872C535.036 552.637 534.919 552.349 534.919 552.008C534.919 551.667 535.036 551.379 535.271 551.144C535.505 550.909 535.793 550.792 536.135 550.792C536.476 550.792 536.764 550.909 536.999 551.144C537.233 551.379 537.351 551.667 537.351 552.008C537.351 552.349 537.233 552.637 536.999 552.872C536.764 553.107 536.476 553.224 536.135 553.224ZM533.767 573V572.52L535.783 571.976V559.816L533.447 559.208V558.728L537.063 558.28H537.383V571.976L539.655 572.52V573H533.767ZM547.711 573.32C546.836 573.32 546.122 573.043 545.567 572.488C545.034 571.933 544.767 571.155 544.767 570.152V559.688H541.951V559.4L544.959 558.6L546.015 555.08H546.367V558.6H550.591V559.688H546.367V570.088C546.367 570.749 546.57 571.251 546.975 571.592C547.38 571.912 547.914 572.072 548.575 572.072C549.044 572.072 549.471 572.019 549.855 571.912C550.239 571.805 550.602 571.656 550.943 571.464L550.975 571.496V571.624C550.804 571.987 550.442 572.36 549.887 572.744C549.332 573.128 548.607 573.32 547.711 573.32ZM558.274 573.32C557.399 573.32 556.684 573.043 556.13 572.488C555.596 571.933 555.33 571.155 555.33 570.152V559.688H552.514V559.4L555.522 558.6L556.578 555.08H556.93V558.6H561.154V559.688H556.93V570.088C556.93 570.749 557.132 571.251 557.538 571.592C557.943 571.912 558.476 572.072 559.138 572.072C559.607 572.072 560.034 572.019 560.418 571.912C560.802 571.805 561.164 571.656 561.506 571.464L561.538 571.496V571.624C561.367 571.987 561.004 572.36 560.45 572.744C559.895 573.128 559.17 573.32 558.274 573.32ZM571.044 573.32C569.529 573.32 568.249 573 567.204 572.36C566.18 571.72 565.401 570.856 564.868 569.768C564.356 568.68 564.1 567.453 564.1 566.088C564.1 564.637 564.399 563.325 564.996 562.152C565.615 560.979 566.415 560.04 567.396 559.336C568.399 558.632 569.487 558.28 570.66 558.28C572.345 558.28 573.668 558.835 574.628 559.944C575.588 561.053 576.143 562.589 576.292 564.552L576.196 564.648H565.732C565.711 564.968 565.7 565.309 565.7 565.672C565.7 567.549 566.201 569.075 567.204 570.248C568.228 571.4 569.657 571.976 571.492 571.976C572.495 571.976 573.401 571.827 574.212 571.528C575.044 571.229 575.695 570.824 576.164 570.312H576.26V570.728C575.791 571.475 575.097 572.093 574.18 572.584C573.284 573.075 572.239 573.32 571.044 573.32ZM570.276 558.984C569.231 558.984 568.292 559.421 567.46 560.296C566.628 561.149 566.084 562.365 565.828 563.944H574.532C574.319 562.387 573.881 561.171 573.22 560.296C572.559 559.421 571.577 558.984 570.276 558.984ZM579.762 573V572.52L581.778 571.976V559.816L579.442 559.528V559.048L582.898 558.28H583.218L583.346 560.584H583.442C584.232 559.773 584.978 559.187 585.682 558.824C586.386 558.461 587.176 558.28 588.05 558.28C589.394 558.28 590.493 558.653 591.346 559.4C592.221 560.147 592.658 561.235 592.658 562.664V571.976L594.674 572.52V573H588.786V572.52L591.058 571.976V563.528C591.058 562.227 590.706 561.245 590.002 560.584C589.32 559.901 588.413 559.56 587.282 559.56C586.642 559.56 585.949 559.72 585.202 560.04C584.456 560.339 583.848 560.776 583.378 561.352V571.976L585.65 572.52V573H579.762ZM597.603 579.112V578.504C598.456 578.056 599.107 577.576 599.555 577.064C600.003 576.552 600.227 575.923 600.227 575.176C600.227 574.557 600.067 574.056 599.747 573.672C599.448 573.309 599.107 572.989 598.723 572.712L597.827 572.104V571.912L598.307 571.176C598.414 571.005 598.52 570.856 598.627 570.728C598.755 570.6 598.894 570.536 599.043 570.536C599.235 570.536 599.47 570.621 599.747 570.792C600.323 571.155 600.75 571.645 601.027 572.264C601.326 572.883 601.475 573.544 601.475 574.248C601.475 575.123 601.187 575.997 600.611 576.872C600.056 577.747 599.054 578.493 597.603 579.112ZM618.166 573.32C617.099 573.32 616.15 573.043 615.318 572.488C614.486 571.933 613.824 571.155 613.334 570.152C612.864 569.128 612.63 567.912 612.63 566.504C612.63 564.755 612.971 563.272 613.654 562.056C614.336 560.819 615.243 559.88 616.374 559.24C617.504 558.6 618.752 558.28 620.118 558.28C620.587 558.28 621.078 558.365 621.59 558.536C622.102 558.685 622.603 558.888 623.094 559.144V550.536L620.758 549.928V549.448L624.374 549H624.694V571.976L626.966 572.52V573H623.414L623.126 571.368H622.966C622.24 571.987 621.483 572.467 620.694 572.808C619.926 573.149 619.083 573.32 618.166 573.32ZM614.134 565.992C614.134 567.421 614.368 568.605 614.838 569.544C615.307 570.461 615.915 571.144 616.662 571.592C617.43 572.019 618.219 572.232 619.03 572.232C619.734 572.232 620.438 572.104 621.142 571.848C621.846 571.592 622.496 571.176 623.094 570.6V560.296C622.432 559.933 621.771 559.645 621.11 559.432C620.448 559.219 619.744 559.112 618.998 559.112C618.123 559.112 617.312 559.336 616.566 559.784C615.84 560.232 615.254 560.968 614.806 561.992C614.358 562.995 614.134 564.328 614.134 565.992ZM632.916 553.224C632.575 553.224 632.287 553.107 632.052 552.872C631.817 552.637 631.7 552.349 631.7 552.008C631.7 551.667 631.817 551.379 632.052 551.144C632.287 550.909 632.575 550.792 632.916 550.792C633.257 550.792 633.545 550.909 633.78 551.144C634.015 551.379 634.132 551.667 634.132 552.008C634.132 552.349 634.015 552.637 633.78 552.872C633.545 553.107 633.257 553.224 632.916 553.224ZM630.548 573V572.52L632.564 571.976V559.816L630.228 559.208V558.728L633.844 558.28H634.164V571.976L636.436 572.52V573H630.548ZM645.228 573.32C644.162 573.32 643.212 573.043 642.38 572.488C641.548 571.933 640.887 571.155 640.396 570.152C639.927 569.128 639.692 567.912 639.692 566.504C639.692 564.755 640.034 563.272 640.716 562.056C641.399 560.819 642.306 559.88 643.436 559.24C644.567 558.6 645.815 558.28 647.18 558.28C647.65 558.28 648.14 558.365 648.652 558.536C649.164 558.685 649.666 558.888 650.156 559.144V550.536L647.82 549.928V549.448L651.436 549H651.756V571.976L654.028 572.52V573H650.476L650.188 571.368H650.028C649.303 571.987 648.546 572.467 647.756 572.808C646.988 573.149 646.146 573.32 645.228 573.32ZM641.196 565.992C641.196 567.421 641.431 568.605 641.9 569.544C642.37 570.461 642.978 571.144 643.724 571.592C644.492 572.019 645.282 572.232 646.092 572.232C646.796 572.232 647.5 572.104 648.204 571.848C648.908 571.592 649.559 571.176 650.156 570.6V560.296C649.495 559.933 648.834 559.645 648.172 559.432C647.511 559.219 646.807 559.112 646.06 559.112C645.186 559.112 644.375 559.336 643.628 559.784C642.903 560.232 642.316 560.968 641.868 561.992C641.42 562.995 641.196 564.328 641.196 565.992ZM665.803 573V572.2L668.299 571.656V553.224L665.803 552.68V551.88H672.715V552.68L670.219 553.224V571.656L672.715 572.2V573H665.803ZM684.953 573V572.52L686.969 571.976V559.816L684.633 559.528V559.048L688.089 558.28H688.409L688.569 561.128H688.633C689.465 560.253 690.126 559.613 690.617 559.208C691.107 558.803 691.513 558.547 691.833 558.44C692.153 558.333 692.515 558.28 692.921 558.28C693.283 558.28 693.614 558.344 693.913 558.472C694.126 558.557 694.275 558.643 694.361 558.728C694.467 558.792 694.521 558.888 694.521 559.016C694.521 559.059 694.51 559.112 694.489 559.176C694.489 559.219 694.478 559.283 694.457 559.368L694.137 560.2H694.073L693.465 559.912C693.166 559.763 692.771 559.688 692.281 559.688C691.662 559.688 691.043 559.859 690.425 560.2C689.806 560.541 689.187 561.139 688.569 561.992V571.976L691.033 572.52V573H684.953ZM703.075 573.32C701.561 573.32 700.281 573 699.235 572.36C698.211 571.72 697.433 570.856 696.899 569.768C696.387 568.68 696.131 567.453 696.131 566.088C696.131 564.637 696.43 563.325 697.027 562.152C697.646 560.979 698.446 560.04 699.427 559.336C700.43 558.632 701.518 558.28 702.691 558.28C704.377 558.28 705.699 558.835 706.659 559.944C707.619 561.053 708.174 562.589 708.323 564.552L708.227 564.648H697.763C697.742 564.968 697.731 565.309 697.731 565.672C697.731 567.549 698.233 569.075 699.235 570.248C700.259 571.4 701.689 571.976 703.523 571.976C704.526 571.976 705.433 571.827 706.243 571.528C707.075 571.229 707.726 570.824 708.195 570.312H708.291V570.728C707.822 571.475 707.129 572.093 706.211 572.584C705.315 573.075 704.27 573.32 703.075 573.32ZM702.307 558.984C701.262 558.984 700.323 559.421 699.491 560.296C698.659 561.149 698.115 562.365 697.859 563.944H706.563C706.35 562.387 705.913 561.171 705.251 560.296C704.59 559.421 703.609 558.984 702.307 558.984ZM714.93 573.32C713.948 573.32 713.127 573.032 712.466 572.456C711.804 571.859 711.474 571.037 711.474 569.992C711.474 568.968 711.836 568.115 712.562 567.432C713.308 566.749 714.535 566.195 716.242 565.768L719.378 564.968V562.312C719.378 561.395 719.047 560.659 718.385 560.104C717.724 559.528 716.967 559.24 716.114 559.24C715.196 559.24 714.546 559.432 714.161 559.816C713.799 560.179 713.618 560.68 713.618 561.32V562.632L713.458 562.792H712.626C712.284 562.792 712.06 562.739 711.954 562.632C711.847 562.525 711.794 562.323 711.794 562.024C711.794 561.619 711.932 561.203 712.21 560.776C712.487 560.349 712.892 559.965 713.426 559.624C714.002 559.261 714.578 558.952 715.154 558.696C715.751 558.419 716.316 558.28 716.85 558.28C718.13 558.28 719.132 558.568 719.858 559.144C720.604 559.699 720.978 560.573 720.978 561.768V571.72C721.148 571.869 721.34 571.987 721.554 572.072C721.788 572.157 722.055 572.2 722.354 572.2H724.018L724.05 572.232V572.296C723.9 572.509 723.655 572.733 723.314 572.968C722.972 573.203 722.514 573.32 721.938 573.32C721.191 573.32 720.615 573.128 720.21 572.744C719.804 572.36 719.559 571.912 719.474 571.4H719.41C718.855 571.955 718.183 572.413 717.394 572.776C716.626 573.139 715.804 573.32 714.93 573.32ZM713.074 569.416C713.074 570.291 713.319 570.952 713.81 571.4C714.3 571.827 714.994 572.04 715.89 572.04C716.423 572.04 716.999 571.965 717.618 571.816C718.236 571.645 718.823 571.389 719.378 571.048V565.64C717.607 566.003 716.263 566.365 715.346 566.728C714.45 567.091 713.842 567.485 713.522 567.912C713.223 568.339 713.074 568.84 713.074 569.416ZM726.134 573V572.52L728.15 571.976V550.536L725.814 549.928V549.448L729.43 549H729.75V571.976L732.022 572.52V573H726.134ZM737.854 553.224C737.512 553.224 737.224 553.107 736.99 552.872C736.755 552.637 736.638 552.349 736.638 552.008C736.638 551.667 736.755 551.379 736.99 551.144C737.224 550.909 737.512 550.792 737.854 550.792C738.195 550.792 738.483 550.909 738.718 551.144C738.952 551.379 739.07 551.667 739.07 552.008C739.07 552.349 738.952 552.637 738.718 552.872C738.483 553.107 738.195 553.224 737.854 553.224ZM735.486 573V572.52L737.502 571.976V559.816L735.166 559.208V558.728L738.782 558.28H739.102V571.976L741.374 572.52V573H735.486ZM748.918 573.32C748.171 573.32 747.499 573.235 746.902 573.064C746.326 572.915 745.728 572.691 745.11 572.392V569.064H745.494L745.942 570.504C746.134 571.144 746.486 571.656 746.998 572.04C747.51 572.403 748.235 572.584 749.174 572.584C750.198 572.584 750.987 572.339 751.542 571.848C752.118 571.336 752.406 570.611 752.406 569.672C752.406 568.84 752.182 568.189 751.734 567.72C751.286 567.229 750.454 566.739 749.238 566.248C747.958 565.736 747.008 565.181 746.39 564.584C745.792 563.987 745.494 563.133 745.494 562.024C745.494 561.341 745.675 560.723 746.038 560.168C746.422 559.592 746.923 559.133 747.542 558.792C748.16 558.451 748.822 558.28 749.526 558.28C750.315 558.28 751.019 558.376 751.638 558.568C752.256 558.739 752.79 558.941 753.238 559.176V562.44H752.854L752.438 561.064C752.224 560.317 751.819 559.784 751.222 559.464C750.646 559.144 750.059 558.984 749.462 558.984C748.63 558.984 747.99 559.229 747.542 559.72C747.115 560.211 746.902 560.851 746.902 561.64C746.902 562.429 747.136 563.048 747.606 563.496C748.075 563.944 748.832 564.381 749.878 564.808C750.816 565.192 751.574 565.565 752.15 565.928C752.747 566.291 753.184 566.739 753.462 567.272C753.739 567.784 753.878 568.445 753.878 569.256C753.878 569.981 753.675 570.653 753.27 571.272C752.864 571.891 752.288 572.392 751.542 572.776C750.795 573.139 749.92 573.32 748.918 573.32ZM764.607 573.32C763.092 573.32 761.812 573 760.766 572.36C759.743 571.72 758.964 570.856 758.431 569.768C757.919 568.68 757.663 567.453 757.663 566.088C757.663 564.637 757.961 563.325 758.559 562.152C759.177 560.979 759.977 560.04 760.959 559.336C761.961 558.632 763.049 558.28 764.223 558.28C765.908 558.28 767.231 558.835 768.191 559.944C769.151 561.053 769.705 562.589 769.855 564.552L769.759 564.648H759.295C759.273 564.968 759.263 565.309 759.263 565.672C759.263 567.549 759.764 569.075 760.766 570.248C761.791 571.4 763.22 571.976 765.055 571.976C766.057 571.976 766.964 571.827 767.775 571.528C768.607 571.229 769.257 570.824 769.727 570.312H769.823V570.728C769.353 571.475 768.66 572.093 767.743 572.584C766.847 573.075 765.801 573.32 764.607 573.32ZM763.839 558.984C762.793 558.984 761.855 559.421 761.023 560.296C760.191 561.149 759.647 562.365 759.391 563.944H768.095C767.881 562.387 767.444 561.171 766.783 560.296C766.121 559.421 765.14 558.984 763.839 558.984ZM784.461 573.32C783.479 573.32 782.658 573.032 781.997 572.456C781.335 571.859 781.005 571.037 781.005 569.992C781.005 568.968 781.367 568.115 782.093 567.432C782.839 566.749 784.066 566.195 785.773 565.768L788.909 564.968V562.312C788.909 561.395 788.578 560.659 787.917 560.104C787.255 559.528 786.498 559.24 785.645 559.24C784.727 559.24 784.077 559.432 783.693 559.816C783.33 560.179 783.149 560.68 783.149 561.32V562.632L782.989 562.792H782.157C781.815 562.792 781.591 562.739 781.485 562.632C781.378 562.525 781.325 562.323 781.325 562.024C781.325 561.619 781.463 561.203 781.741 560.776C782.018 560.349 782.423 559.965 782.957 559.624C783.533 559.261 784.109 558.952 784.685 558.696C785.282 558.419 785.847 558.28 786.381 558.28C787.661 558.28 788.663 558.568 789.389 559.144C790.135 559.699 790.509 560.573 790.509 561.768V571.72C790.679 571.869 790.871 571.987 791.085 572.072C791.319 572.157 791.586 572.2 791.885 572.2H793.549L793.581 572.232V572.296C793.431 572.509 793.186 572.733 792.845 572.968C792.503 573.203 792.045 573.32 791.469 573.32C790.722 573.32 790.146 573.128 789.741 572.744C789.335 572.36 789.09 571.912 789.005 571.4H788.941C788.386 571.955 787.714 572.413 786.925 572.776C786.157 573.139 785.335 573.32 784.461 573.32ZM782.605 569.416C782.605 570.291 782.85 570.952 783.341 571.4C783.831 571.827 784.525 572.04 785.421 572.04C785.954 572.04 786.53 571.965 787.149 571.816C787.767 571.645 788.354 571.389 788.909 571.048V565.64C787.138 566.003 785.794 566.365 784.877 566.728C783.981 567.091 783.373 567.485 783.053 567.912C782.754 568.339 782.605 568.84 782.605 569.416ZM123.354 622.32C121.861 622.32 120.602 622 119.578 621.36C118.576 620.72 117.808 619.856 117.274 618.768C116.762 617.68 116.506 616.453 116.506 615.088C116.506 613.595 116.805 612.261 117.402 611.088C118.021 609.893 118.864 608.965 119.93 608.304C121.018 607.621 122.245 607.28 123.61 607.28C124.464 607.28 125.221 607.397 125.882 607.632C126.544 607.867 127.077 608.123 127.482 608.4C128.165 608.869 128.506 609.275 128.506 609.616C128.506 609.765 128.432 609.904 128.282 610.032L127.418 610.768H127.29L126.874 610.192C126.405 609.552 125.893 609.029 125.338 608.624C124.805 608.197 124.112 607.984 123.258 607.984C121.765 607.984 120.528 608.549 119.546 609.68C118.586 610.789 118.106 612.453 118.106 614.672C118.106 616.549 118.597 618.075 119.578 619.248C120.581 620.4 121.989 620.976 123.802 620.976C124.784 620.976 125.69 620.827 126.522 620.528C127.354 620.229 128.005 619.824 128.474 619.312H128.57V619.728C128.08 620.475 127.386 621.093 126.49 621.584C125.594 622.075 124.549 622.32 123.354 622.32ZM138.16 622.32C136.859 622.32 135.717 621.989 134.736 621.328C133.755 620.667 132.987 619.771 132.432 618.64C131.877 617.509 131.6 616.229 131.6 614.8C131.6 613.371 131.877 612.091 132.432 610.96C132.987 609.829 133.755 608.933 134.736 608.272C135.717 607.611 136.859 607.28 138.16 607.28C139.461 607.28 140.603 607.611 141.584 608.272C142.565 608.933 143.333 609.829 143.888 610.96C144.443 612.091 144.72 613.371 144.72 614.8C144.72 616.229 144.443 617.509 143.888 618.64C143.333 619.771 142.565 620.667 141.584 621.328C140.603 621.989 139.461 622.32 138.16 622.32ZM138.608 621.584C139.589 621.584 140.411 621.296 141.072 620.72C141.755 620.123 142.267 619.355 142.608 618.416C142.949 617.477 143.12 616.485 143.12 615.44C143.12 614.053 142.917 612.805 142.512 611.696C142.107 610.565 141.499 609.669 140.688 609.008C139.899 608.325 138.928 607.984 137.776 607.984C136.816 607.984 135.995 608.261 135.312 608.816C134.629 609.349 134.107 610.085 133.744 611.024C133.381 611.941 133.2 612.976 133.2 614.128C133.2 615.515 133.413 616.773 133.84 617.904C134.288 619.035 134.907 619.931 135.696 620.592C136.507 621.253 137.477 621.584 138.608 621.584ZM148.297 622V621.52L150.312 620.976V608.816L147.977 608.528V608.048L151.433 607.28H151.753L151.913 610.128H151.977C152.809 609.253 153.47 608.613 153.961 608.208C154.451 607.803 154.857 607.547 155.177 607.44C155.497 607.333 155.859 607.28 156.265 607.28C156.627 607.28 156.958 607.344 157.257 607.472C157.47 607.557 157.619 607.643 157.705 607.728C157.811 607.792 157.865 607.888 157.865 608.016C157.865 608.059 157.854 608.112 157.833 608.176C157.833 608.219 157.822 608.283 157.801 608.368L157.481 609.2H157.417L156.809 608.912C156.51 608.763 156.115 608.688 155.625 608.688C155.006 608.688 154.387 608.859 153.769 609.2C153.15 609.541 152.531 610.139 151.913 610.992V620.976L154.377 621.52V622H148.297ZM159.859 622V621.52L161.875 620.976V608.816L159.539 608.528V608.048L162.995 607.28H163.315L163.475 610.128H163.539C164.371 609.253 165.032 608.613 165.523 608.208C166.014 607.803 166.419 607.547 166.739 607.44C167.059 607.333 167.422 607.28 167.827 607.28C168.19 607.28 168.52 607.344 168.819 607.472C169.032 607.557 169.182 607.643 169.267 607.728C169.374 607.792 169.427 607.888 169.427 608.016C169.427 608.059 169.416 608.112 169.395 608.176C169.395 608.219 169.384 608.283 169.363 608.368L169.043 609.2H168.979L168.371 608.912C168.072 608.763 167.678 608.688 167.187 608.688C166.568 608.688 165.95 608.859 165.331 609.2C164.712 609.541 164.094 610.139 163.475 610.992V620.976L165.939 621.52V622H159.859ZM177.982 622.32C176.467 622.32 175.187 622 174.141 621.36C173.118 620.72 172.339 619.856 171.806 618.768C171.294 617.68 171.038 616.453 171.038 615.088C171.038 613.637 171.336 612.325 171.934 611.152C172.552 609.979 173.352 609.04 174.334 608.336C175.336 607.632 176.424 607.28 177.598 607.28C179.283 607.28 180.606 607.835 181.566 608.944C182.526 610.053 183.08 611.589 183.23 613.552L183.134 613.648H172.67C172.648 613.968 172.638 614.309 172.638 614.672C172.638 616.549 173.139 618.075 174.141 619.248C175.166 620.4 176.595 620.976 178.43 620.976C179.432 620.976 180.339 620.827 181.15 620.528C181.982 620.229 182.632 619.824 183.102 619.312H183.198V619.728C182.728 620.475 182.035 621.093 181.118 621.584C180.222 622.075 179.176 622.32 177.982 622.32ZM177.214 607.984C176.168 607.984 175.23 608.421 174.398 609.296C173.566 610.149 173.022 611.365 172.766 612.944H181.47C181.256 611.387 180.819 610.171 180.158 609.296C179.496 608.421 178.515 607.984 177.214 607.984ZM190.668 622.32C189.921 622.32 189.249 622.235 188.652 622.064C188.076 621.915 187.478 621.691 186.86 621.392V618.064H187.244L187.692 619.504C187.884 620.144 188.236 620.656 188.748 621.04C189.26 621.403 189.985 621.584 190.924 621.584C191.948 621.584 192.737 621.339 193.292 620.848C193.868 620.336 194.156 619.611 194.156 618.672C194.156 617.84 193.932 617.189 193.484 616.72C193.036 616.229 192.204 615.739 190.988 615.248C189.708 614.736 188.758 614.181 188.14 613.584C187.542 612.987 187.244 612.133 187.244 611.024C187.244 610.341 187.425 609.723 187.788 609.168C188.172 608.592 188.673 608.133 189.292 607.792C189.91 607.451 190.572 607.28 191.276 607.28C192.065 607.28 192.769 607.376 193.388 607.568C194.006 607.739 194.54 607.941 194.988 608.176V611.44H194.604L194.188 610.064C193.974 609.317 193.569 608.784 192.972 608.464C192.396 608.144 191.809 607.984 191.212 607.984C190.38 607.984 189.74 608.229 189.292 608.72C188.865 609.211 188.652 609.851 188.652 610.64C188.652 611.429 188.886 612.048 189.356 612.496C189.825 612.944 190.582 613.381 191.628 613.808C192.566 614.192 193.324 614.565 193.9 614.928C194.497 615.291 194.934 615.739 195.212 616.272C195.489 616.784 195.628 617.445 195.628 618.256C195.628 618.981 195.425 619.653 195.02 620.272C194.614 620.891 194.038 621.392 193.292 621.776C192.545 622.139 191.67 622.32 190.668 622.32ZM199.669 629.36V628.88L201.685 628.336V608.816L199.349 608.528V608.048L202.805 607.28H203.125L203.253 609.264H203.413C204.223 608.581 205.002 608.08 205.749 607.76C206.517 607.44 207.338 607.28 208.213 607.28C209.279 607.28 210.229 607.557 211.061 608.112C211.893 608.667 212.543 609.456 213.013 610.48C213.503 611.483 213.749 612.688 213.749 614.096C213.749 615.845 213.407 617.339 212.725 618.576C212.042 619.792 211.135 620.72 210.005 621.36C208.874 622 207.626 622.32 206.26 622.32C205.791 622.32 205.301 622.235 204.789 622.064C204.277 621.915 203.775 621.712 203.285 621.456V628.336L205.557 628.88V629.36H199.669ZM207.349 608.368C206.559 608.368 205.823 608.507 205.141 608.784C204.479 609.061 203.861 609.456 203.285 609.968V620.176C203.946 620.603 204.597 620.933 205.237 621.168C205.877 621.381 206.591 621.488 207.381 621.488C208.255 621.488 209.055 621.264 209.781 620.816C210.527 620.368 211.125 619.643 211.573 618.64C212.021 617.616 212.245 616.272 212.245 614.608C212.245 613.179 212.01 612.005 211.541 611.088C211.071 610.149 210.453 609.467 209.685 609.04C208.938 608.592 208.159 608.368 207.349 608.368ZM224.066 622.32C222.765 622.32 221.624 621.989 220.642 621.328C219.661 620.667 218.893 619.771 218.338 618.64C217.784 617.509 217.506 616.229 217.506 614.8C217.506 613.371 217.784 612.091 218.338 610.96C218.893 609.829 219.661 608.933 220.642 608.272C221.624 607.611 222.765 607.28 224.066 607.28C225.368 607.28 226.509 607.611 227.49 608.272C228.472 608.933 229.24 609.829 229.794 610.96C230.349 612.091 230.626 613.371 230.626 614.8C230.626 616.229 230.349 617.509 229.794 618.64C229.24 619.771 228.472 620.667 227.49 621.328C226.509 621.989 225.368 622.32 224.066 622.32ZM224.514 621.584C225.496 621.584 226.317 621.296 226.978 620.72C227.661 620.123 228.173 619.355 228.514 618.416C228.856 617.477 229.026 616.485 229.026 615.44C229.026 614.053 228.824 612.805 228.418 611.696C228.013 610.565 227.405 609.669 226.594 609.008C225.805 608.325 224.834 607.984 223.682 607.984C222.722 607.984 221.901 608.261 221.218 608.816C220.536 609.349 220.013 610.085 219.65 611.024C219.288 611.941 219.106 612.976 219.106 614.128C219.106 615.515 219.32 616.773 219.746 617.904C220.194 619.035 220.813 619.931 221.602 620.592C222.413 621.253 223.384 621.584 224.514 621.584ZM234.075 622V621.52L236.091 620.976V608.816L233.755 608.528V608.048L237.211 607.28H237.531L237.659 609.584H237.755C238.544 608.773 239.291 608.187 239.995 607.824C240.699 607.461 241.488 607.28 242.363 607.28C243.707 607.28 244.805 607.653 245.659 608.4C246.533 609.147 246.971 610.235 246.971 611.664V620.976L248.987 621.52V622H243.099V621.52L245.371 620.976V612.528C245.371 611.227 245.019 610.245 244.315 609.584C243.632 608.901 242.725 608.56 241.595 608.56C240.955 608.56 240.261 608.72 239.515 609.04C238.768 609.339 238.16 609.776 237.691 610.352V620.976L239.963 621.52V622H234.075ZM257.26 622.32C256.193 622.32 255.244 622.043 254.411 621.488C253.58 620.933 252.918 620.155 252.428 619.152C251.958 618.128 251.724 616.912 251.724 615.504C251.724 613.755 252.065 612.272 252.748 611.056C253.43 609.819 254.337 608.88 255.468 608.24C256.598 607.6 257.846 607.28 259.212 607.28C259.681 607.28 260.172 607.365 260.684 607.536C261.196 607.685 261.697 607.888 262.188 608.144V599.536L259.852 598.928V598.448L263.468 598H263.788V620.976L266.06 621.52V622H262.508L262.22 620.368H262.06C261.334 620.987 260.577 621.467 259.788 621.808C259.02 622.149 258.177 622.32 257.26 622.32ZM253.228 614.992C253.228 616.421 253.462 617.605 253.932 618.544C254.401 619.461 255.009 620.144 255.756 620.592C256.524 621.019 257.313 621.232 258.124 621.232C258.828 621.232 259.532 621.104 260.236 620.848C260.94 620.592 261.59 620.176 262.188 619.6V609.296C261.526 608.933 260.865 608.645 260.204 608.432C259.542 608.219 258.838 608.112 258.092 608.112C257.217 608.112 256.406 608.336 255.66 608.784C254.934 609.232 254.348 609.968 253.9 610.992C253.452 611.995 253.228 613.328 253.228 614.992ZM276.138 622.32C274.623 622.32 273.343 622 272.298 621.36C271.274 620.72 270.495 619.856 269.962 618.768C269.45 617.68 269.194 616.453 269.194 615.088C269.194 613.637 269.492 612.325 270.09 611.152C270.708 609.979 271.508 609.04 272.49 608.336C273.492 607.632 274.58 607.28 275.754 607.28C277.439 607.28 278.762 607.835 279.722 608.944C280.682 610.053 281.236 611.589 281.386 613.552L281.29 613.648H270.826C270.804 613.968 270.794 614.309 270.794 614.672C270.794 616.549 271.295 618.075 272.298 619.248C273.322 620.4 274.751 620.976 276.586 620.976C277.588 620.976 278.495 620.827 279.306 620.528C280.138 620.229 280.788 619.824 281.258 619.312H281.354V619.728C280.884 620.475 280.191 621.093 279.274 621.584C278.378 622.075 277.332 622.32 276.138 622.32ZM275.37 607.984C274.324 607.984 273.386 608.421 272.554 609.296C271.722 610.149 271.178 611.365 270.922 612.944H279.626C279.412 611.387 278.975 610.171 278.314 609.296C277.652 608.421 276.671 607.984 275.37 607.984ZM284.856 622V621.52L286.872 620.976V608.816L284.536 608.528V608.048L287.992 607.28H288.312L288.44 609.584H288.536C289.325 608.773 290.072 608.187 290.776 607.824C291.48 607.461 292.269 607.28 293.144 607.28C294.488 607.28 295.587 607.653 296.44 608.4C297.315 609.147 297.752 610.235 297.752 611.664V620.976L299.768 621.52V622H293.88V621.52L296.152 620.976V612.528C296.152 611.227 295.8 610.245 295.096 609.584C294.413 608.901 293.507 608.56 292.376 608.56C291.736 608.56 291.043 608.72 290.296 609.04C289.549 609.339 288.941 609.776 288.472 610.352V620.976L290.744 621.52V622H284.856ZM309.417 622.32C307.923 622.32 306.665 622 305.641 621.36C304.638 620.72 303.87 619.856 303.337 618.768C302.825 617.68 302.569 616.453 302.569 615.088C302.569 613.595 302.867 612.261 303.465 611.088C304.083 609.893 304.926 608.965 305.993 608.304C307.081 607.621 308.307 607.28 309.673 607.28C310.526 607.28 311.283 607.397 311.945 607.632C312.606 607.867 313.139 608.123 313.545 608.4C314.227 608.869 314.569 609.275 314.569 609.616C314.569 609.765 314.494 609.904 314.345 610.032L313.481 610.768H313.353L312.937 610.192C312.467 609.552 311.955 609.029 311.401 608.624C310.867 608.197 310.174 607.984 309.321 607.984C307.827 607.984 306.59 608.549 305.609 609.68C304.649 610.789 304.169 612.453 304.169 614.672C304.169 616.549 304.659 618.075 305.641 619.248C306.643 620.4 308.051 620.976 309.865 620.976C310.846 620.976 311.753 620.827 312.585 620.528C313.417 620.229 314.067 619.824 314.537 619.312H314.633V619.728C314.142 620.475 313.449 621.093 312.553 621.584C311.657 622.075 310.611 622.32 309.417 622.32ZM324.607 622.32C323.092 622.32 321.812 622 320.766 621.36C319.743 620.72 318.964 619.856 318.431 618.768C317.919 617.68 317.663 616.453 317.663 615.088C317.663 613.637 317.961 612.325 318.559 611.152C319.177 609.979 319.977 609.04 320.959 608.336C321.961 607.632 323.049 607.28 324.223 607.28C325.908 607.28 327.231 607.835 328.191 608.944C329.151 610.053 329.705 611.589 329.855 613.552L329.759 613.648H319.295C319.273 613.968 319.263 614.309 319.263 614.672C319.263 616.549 319.764 618.075 320.766 619.248C321.791 620.4 323.22 620.976 325.055 620.976C326.057 620.976 326.964 620.827 327.775 620.528C328.607 620.229 329.257 619.824 329.727 619.312H329.823V619.728C329.353 620.475 328.66 621.093 327.743 621.584C326.847 622.075 325.801 622.32 324.607 622.32ZM323.839 607.984C322.793 607.984 321.855 608.421 321.023 609.296C320.191 610.149 319.647 611.365 319.391 612.944H328.095C327.881 611.387 327.444 610.171 326.783 609.296C326.121 608.421 325.14 607.984 323.839 607.984ZM345.805 622.32C344.93 622.32 344.215 622.043 343.661 621.488C343.127 620.933 342.861 620.155 342.861 619.152V608.688H340.045V608.4L343.053 607.6L344.109 604.08H344.461V607.6H348.685V608.688H344.461V619.088C344.461 619.749 344.663 620.251 345.069 620.592C345.474 620.912 346.007 621.072 346.669 621.072C347.138 621.072 347.565 621.019 347.949 620.912C348.333 620.805 348.695 620.656 349.037 620.464L349.069 620.496V620.624C348.898 620.987 348.535 621.36 347.981 621.744C347.426 622.128 346.701 622.32 345.805 622.32ZM358.191 622.32C356.89 622.32 355.749 621.989 354.767 621.328C353.786 620.667 353.018 619.771 352.463 618.64C351.909 617.509 351.631 616.229 351.631 614.8C351.631 613.371 351.909 612.091 352.463 610.96C353.018 609.829 353.786 608.933 354.767 608.272C355.749 607.611 356.89 607.28 358.191 607.28C359.493 607.28 360.634 607.611 361.615 608.272C362.597 608.933 363.365 609.829 363.919 610.96C364.474 612.091 364.751 613.371 364.751 614.8C364.751 616.229 364.474 617.509 363.919 618.64C363.365 619.771 362.597 620.667 361.615 621.328C360.634 621.989 359.493 622.32 358.191 622.32ZM358.639 621.584C359.621 621.584 360.442 621.296 361.103 620.72C361.786 620.123 362.298 619.355 362.639 618.416C362.981 617.477 363.151 616.485 363.151 615.44C363.151 614.053 362.949 612.805 362.543 611.696C362.138 610.565 361.53 609.669 360.719 609.008C359.93 608.325 358.959 607.984 357.807 607.984C356.847 607.984 356.026 608.261 355.343 608.816C354.661 609.349 354.138 610.085 353.775 611.024C353.413 611.941 353.231 612.976 353.231 614.128C353.231 615.515 353.445 616.773 353.871 617.904C354.319 619.035 354.938 619.931 355.727 620.592C356.538 621.253 357.509 621.584 358.639 621.584ZM376.2 629.36V628.88L378.216 628.336V608.816L375.88 608.528V608.048L379.336 607.28H379.656L379.784 609.264H379.944C380.754 608.581 381.533 608.08 382.28 607.76C383.048 607.44 383.869 607.28 384.744 607.28C385.81 607.28 386.76 607.557 387.592 608.112C388.424 608.667 389.074 609.456 389.544 610.48C390.034 611.483 390.28 612.688 390.28 614.096C390.28 615.845 389.938 617.339 389.256 618.576C388.573 619.792 387.666 620.72 386.536 621.36C385.405 622 384.157 622.32 382.792 622.32C382.322 622.32 381.832 622.235 381.32 622.064C380.808 621.915 380.306 621.712 379.816 621.456V628.336L382.088 628.88V629.36H376.2ZM383.88 608.368C383.09 608.368 382.354 608.507 381.672 608.784C381.01 609.061 380.392 609.456 379.816 609.968V620.176C380.477 620.603 381.128 620.933 381.768 621.168C382.408 621.381 383.122 621.488 383.912 621.488C384.786 621.488 385.586 621.264 386.312 620.816C387.058 620.368 387.656 619.643 388.104 618.64C388.552 617.616 388.776 616.272 388.776 614.608C388.776 613.179 388.541 612.005 388.072 611.088C387.602 610.149 386.984 609.467 386.216 609.04C385.469 608.592 384.69 608.368 383.88 608.368ZM396.805 622.32C395.823 622.32 395.002 622.032 394.341 621.456C393.679 620.859 393.349 620.037 393.349 618.992C393.349 617.968 393.711 617.115 394.437 616.432C395.183 615.749 396.41 615.195 398.117 614.768L401.253 613.968V611.312C401.253 610.395 400.922 609.659 400.26 609.104C399.599 608.528 398.842 608.24 397.989 608.24C397.071 608.24 396.421 608.432 396.036 608.816C395.674 609.179 395.493 609.68 395.493 610.32V611.632L395.333 611.792H394.501C394.159 611.792 393.935 611.739 393.829 611.632C393.722 611.525 393.669 611.323 393.669 611.024C393.669 610.619 393.807 610.203 394.085 609.776C394.362 609.349 394.767 608.965 395.301 608.624C395.877 608.261 396.453 607.952 397.029 607.696C397.626 607.419 398.191 607.28 398.725 607.28C400.005 607.28 401.007 607.568 401.733 608.144C402.479 608.699 402.853 609.573 402.853 610.768V620.72C403.023 620.869 403.215 620.987 403.429 621.072C403.663 621.157 403.93 621.2 404.229 621.2H405.893L405.925 621.232V621.296C405.775 621.509 405.53 621.733 405.189 621.968C404.847 622.203 404.389 622.32 403.813 622.32C403.066 622.32 402.49 622.128 402.085 621.744C401.679 621.36 401.434 620.912 401.349 620.4H401.285C400.73 620.955 400.058 621.413 399.269 621.776C398.501 622.139 397.679 622.32 396.805 622.32ZM394.949 618.416C394.949 619.291 395.194 619.952 395.685 620.4C396.175 620.827 396.869 621.04 397.765 621.04C398.298 621.04 398.874 620.965 399.493 620.816C400.111 620.645 400.698 620.389 401.253 620.048V614.64C399.482 615.003 398.138 615.365 397.221 615.728C396.325 616.091 395.717 616.485 395.397 616.912C395.098 617.339 394.949 617.84 394.949 618.416ZM410.697 602.224C410.356 602.224 410.068 602.107 409.833 601.872C409.599 601.637 409.481 601.349 409.481 601.008C409.481 600.667 409.599 600.379 409.833 600.144C410.068 599.909 410.356 599.792 410.697 599.792C411.039 599.792 411.327 599.909 411.561 600.144C411.796 600.379 411.913 600.667 411.913 601.008C411.913 601.349 411.796 601.637 411.561 601.872C411.327 602.107 411.039 602.224 410.697 602.224ZM408.329 622V621.52L410.345 620.976V608.816L408.009 608.208V607.728L411.625 607.28H411.945V620.976L414.217 621.52V622H408.329ZM417.794 622V621.52L419.81 620.976V608.816L417.474 608.528V608.048L420.93 607.28H421.25L421.378 609.584H421.474C422.263 608.773 423.01 608.187 423.714 607.824C424.418 607.461 425.207 607.28 426.082 607.28C427.426 607.28 428.524 607.653 429.378 608.4C430.252 609.147 430.69 610.235 430.69 611.664V620.976L432.706 621.52V622H426.818V621.52L429.09 620.976V612.528C429.09 611.227 428.738 610.245 428.034 609.584C427.351 608.901 426.444 608.56 425.314 608.56C424.674 608.56 423.98 608.72 423.234 609.04C422.487 609.339 421.879 609.776 421.41 610.352V620.976L423.682 621.52V622H417.794ZM440.242 622.32C439.368 622.32 438.653 622.043 438.098 621.488C437.565 620.933 437.298 620.155 437.298 619.152V608.688H434.482V608.4L437.49 607.6L438.546 604.08H438.898V607.6H443.122V608.688H438.898V619.088C438.898 619.749 439.101 620.251 439.506 620.592C439.912 620.912 440.445 621.072 441.106 621.072C441.576 621.072 442.002 621.019 442.386 620.912C442.77 620.805 443.133 620.656 443.474 620.464L443.506 620.496V620.624C443.336 620.987 442.973 621.36 442.418 621.744C441.864 622.128 441.138 622.32 440.242 622.32ZM448.885 602.224C448.543 602.224 448.255 602.107 448.021 601.872C447.786 601.637 447.669 601.349 447.669 601.008C447.669 600.667 447.786 600.379 448.021 600.144C448.255 599.909 448.543 599.792 448.885 599.792C449.226 599.792 449.514 599.909 449.749 600.144C449.983 600.379 450.101 600.667 450.101 601.008C450.101 601.349 449.983 601.637 449.749 601.872C449.514 602.107 449.226 602.224 448.885 602.224ZM446.517 622V621.52L448.533 620.976V608.816L446.197 608.208V607.728L449.813 607.28H450.133V620.976L452.405 621.52V622H446.517ZM455.981 622V621.52L457.997 620.976V608.816L455.661 608.528V608.048L459.117 607.28H459.437L459.565 609.584H459.661C460.45 608.773 461.197 608.187 461.901 607.824C462.605 607.461 463.394 607.28 464.269 607.28C465.613 607.28 466.712 607.653 467.565 608.4C468.44 609.147 468.877 610.235 468.877 611.664V620.976L470.893 621.52V622H465.005V621.52L467.277 620.976V612.528C467.277 611.227 466.925 610.245 466.221 609.584C465.538 608.901 464.632 608.56 463.501 608.56C462.861 608.56 462.168 608.72 461.421 609.04C460.674 609.339 460.066 609.776 459.597 610.352V620.976L461.869 621.52V622H455.981ZM479.486 617.168C478.846 617.168 478.238 617.061 477.662 616.848C476.958 617.147 476.467 617.467 476.19 617.808C475.912 618.149 475.774 618.544 475.774 618.992C475.774 619.717 476.03 620.24 476.542 620.56C477.054 620.88 477.843 621.04 478.91 621.04H482.526C483.784 621.04 484.744 621.339 485.406 621.936C486.088 622.533 486.43 623.355 486.43 624.4C486.43 625.275 486.131 626.117 485.534 626.928C484.936 627.739 484.104 628.4 483.038 628.912C481.971 629.424 480.712 629.68 479.262 629.68C477.406 629.68 476.072 629.307 475.262 628.56C474.451 627.835 474.046 626.939 474.046 625.872C474.046 625.083 474.206 624.4 474.526 623.824L476.478 622.192V622.128C475.091 621.723 474.398 620.88 474.398 619.6C474.398 618.896 474.632 618.309 475.102 617.84L476.99 616.72V616.56C476.222 616.155 475.614 615.579 475.166 614.832C474.718 614.064 474.494 613.2 474.494 612.24C474.494 611.301 474.707 610.459 475.134 609.712C475.582 608.965 476.179 608.379 476.926 607.952C477.672 607.504 478.526 607.28 479.486 607.28C479.955 607.28 480.467 607.344 481.022 607.472C481.576 607.579 482.014 607.707 482.334 607.856L486.686 607.6V608.912L483.454 608.688L483.39 608.752C483.731 609.115 483.987 609.627 484.158 610.288C484.35 610.928 484.446 611.579 484.446 612.24C484.446 613.179 484.232 614.021 483.806 614.768C483.379 615.515 482.792 616.101 482.046 616.528C481.299 616.955 480.446 617.168 479.486 617.168ZM479.806 616.528C480.723 616.528 481.448 616.165 481.982 615.44C482.536 614.693 482.814 613.648 482.814 612.304C482.814 610.832 482.472 609.733 481.79 609.008C481.107 608.261 480.264 607.888 479.262 607.888C478.28 607.888 477.512 608.272 476.958 609.04C476.403 609.787 476.126 610.821 476.126 612.144C476.126 613.616 476.467 614.715 477.15 615.44C477.854 616.165 478.739 616.528 479.806 616.528ZM475.518 625.52C475.518 626.501 475.923 627.323 476.734 627.984C477.566 628.645 478.579 628.976 479.774 628.976C480.798 628.976 481.704 628.784 482.494 628.4C483.283 628.037 483.902 627.547 484.35 626.928C484.798 626.331 485.022 625.691 485.022 625.008C485.022 623.984 484.755 623.28 484.222 622.896C483.71 622.512 482.782 622.32 481.438 622.32H478.078C477.758 622.32 477.448 622.299 477.15 622.256C476.531 622.619 476.104 623.056 475.87 623.568C475.635 624.101 475.518 624.752 475.518 625.52ZM494.105 622.32C493.359 622.32 492.687 622.235 492.089 622.064C491.513 621.915 490.916 621.691 490.297 621.392V618.064H490.681L491.129 619.504C491.321 620.144 491.673 620.656 492.185 621.04C492.697 621.403 493.423 621.584 494.361 621.584C495.385 621.584 496.175 621.339 496.729 620.848C497.305 620.336 497.593 619.611 497.593 618.672C497.593 617.84 497.369 617.189 496.921 616.72C496.473 616.229 495.641 615.739 494.425 615.248C493.145 614.736 492.196 614.181 491.577 613.584C490.98 612.987 490.681 612.133 490.681 611.024C490.681 610.341 490.863 609.723 491.225 609.168C491.609 608.592 492.111 608.133 492.729 607.792C493.348 607.451 494.009 607.28 494.713 607.28C495.503 607.28 496.207 607.376 496.825 607.568C497.444 607.739 497.977 607.941 498.425 608.176V611.44H498.041L497.625 610.064C497.412 609.317 497.007 608.784 496.409 608.464C495.833 608.144 495.247 607.984 494.649 607.984C493.817 607.984 493.177 608.229 492.729 608.72C492.303 609.211 492.089 609.851 492.089 610.64C492.089 611.429 492.324 612.048 492.793 612.496C493.263 612.944 494.02 613.381 495.065 613.808C496.004 614.192 496.761 614.565 497.337 614.928C497.935 615.291 498.372 615.739 498.649 616.272C498.927 616.784 499.065 617.445 499.065 618.256C499.065 618.981 498.863 619.653 498.457 620.272C498.052 620.891 497.476 621.392 496.729 621.776C495.983 622.139 495.108 622.32 494.105 622.32ZM512.962 622V599.536L510.626 599.088V598.608L514.242 598H514.562V609.264H514.69C515.501 608.581 516.29 608.08 517.058 607.76C517.826 607.44 518.637 607.28 519.49 607.28C520.557 607.28 521.506 607.557 522.338 608.112C523.17 608.667 523.821 609.456 524.29 610.48C524.781 611.483 525.026 612.688 525.026 614.096C525.026 615.845 524.685 617.339 524.002 618.576C523.319 619.792 522.413 620.72 521.282 621.36C520.151 622 518.903 622.32 517.538 622.32C516.983 622.32 516.375 622.203 515.714 621.968C515.074 621.733 514.477 621.445 513.922 621.104L513.25 622H512.962ZM518.626 608.368C517.837 608.368 517.101 608.507 516.418 608.784C515.757 609.061 515.138 609.456 514.562 609.968V620.176C515.223 620.603 515.874 620.933 516.514 621.168C517.154 621.381 517.869 621.488 518.658 621.488C519.511 621.488 520.311 621.264 521.058 620.816C521.805 620.368 522.402 619.643 522.85 618.64C523.298 617.616 523.522 616.272 523.522 614.608C523.522 613.179 523.287 612.005 522.818 611.088C522.349 610.149 521.741 609.467 520.994 609.04C520.247 608.592 519.458 608.368 518.626 608.368ZM528.218 629.712C527.77 629.712 527.482 629.637 527.354 629.488C527.248 629.36 527.194 629.125 527.194 628.784V628.08L527.386 627.888H528.794C529.328 627.888 529.733 627.845 530.01 627.76C530.288 627.675 530.544 627.44 530.778 627.056C531.013 626.672 531.344 626.043 531.77 625.168L533.434 621.648L528.186 608.688L526.17 608.08V607.6H532.314V608.08L529.85 608.624V608.72L534.138 619.696H534.234L538.138 608.752V608.656L535.546 608.08V607.6H541.21V608.08L539.162 608.688L532.474 625.456C532.218 626.096 531.973 626.619 531.738 627.024C531.525 627.451 531.28 627.867 531.002 628.272C530.682 628.741 530.266 629.093 529.754 629.328C529.264 629.584 528.752 629.712 528.218 629.712ZM556.597 622.32C555.359 622.32 554.303 622.192 553.429 621.936C552.554 621.68 551.647 621.317 550.709 620.848L550.389 615.92H550.965L552.789 619.984C553.514 620.517 554.218 620.88 554.901 621.072C555.583 621.243 556.287 621.328 557.013 621.328C558.442 621.328 559.519 620.955 560.245 620.208C560.97 619.44 561.333 618.373 561.333 617.008C561.333 615.984 561.087 615.184 560.597 614.608C560.127 614.032 559.445 613.52 558.549 613.072C557.674 612.624 556.639 612.101 555.445 611.504C554.506 611.035 553.717 610.565 553.077 610.096C552.458 609.627 551.989 609.083 551.669 608.464C551.349 607.824 551.189 607.035 551.189 606.096C551.189 605.179 551.466 604.304 552.021 603.472C552.597 602.619 553.333 601.925 554.229 601.392C555.125 600.837 556.085 600.56 557.109 600.56C558.047 600.56 558.901 600.677 559.669 600.912C560.458 601.147 561.269 601.477 562.101 601.904L562.421 606.704H561.845L560.437 602.896C559.903 602.405 559.381 602.053 558.869 601.84C558.357 601.627 557.759 601.52 557.077 601.52C555.775 601.52 554.773 601.893 554.069 602.64C553.365 603.387 553.013 604.293 553.013 605.36C553.013 606.171 553.173 606.853 553.493 607.408C553.834 607.963 554.346 608.464 555.029 608.912C555.711 609.36 556.575 609.84 557.621 610.352C558.901 610.971 559.957 611.568 560.789 612.144C561.621 612.699 562.229 613.339 562.613 614.064C563.018 614.789 563.221 615.707 563.221 616.816C563.221 617.883 562.89 618.832 562.229 619.664C561.589 620.475 560.767 621.125 559.765 621.616C558.762 622.085 557.706 622.32 556.597 622.32ZM570.273 622.32C569.292 622.32 568.471 622.032 567.809 621.456C567.148 620.859 566.817 620.037 566.817 618.992C566.817 617.968 567.18 617.115 567.905 616.432C568.652 615.749 569.879 615.195 571.585 614.768L574.721 613.968V611.312C574.721 610.395 574.391 609.659 573.729 609.104C573.068 608.528 572.311 608.24 571.457 608.24C570.54 608.24 569.889 608.432 569.505 608.816C569.143 609.179 568.961 609.68 568.961 610.32V611.632L568.801 611.792H567.969C567.628 611.792 567.404 611.739 567.297 611.632C567.191 611.525 567.137 611.323 567.137 611.024C567.137 610.619 567.276 610.203 567.553 609.776C567.831 609.349 568.236 608.965 568.769 608.624C569.345 608.261 569.921 607.952 570.497 607.696C571.095 607.419 571.66 607.28 572.193 607.28C573.473 607.28 574.476 607.568 575.201 608.144C575.948 608.699 576.321 609.573 576.321 610.768V620.72C576.492 620.869 576.684 620.987 576.897 621.072C577.132 621.157 577.399 621.2 577.697 621.2H579.361L579.393 621.232V621.296C579.244 621.509 578.999 621.733 578.657 621.968C578.316 622.203 577.857 622.32 577.281 622.32C576.535 622.32 575.959 622.128 575.553 621.744C575.148 621.36 574.903 620.912 574.817 620.4H574.753C574.199 620.955 573.527 621.413 572.737 621.776C571.969 622.139 571.148 622.32 570.273 622.32ZM568.417 618.416C568.417 619.291 568.663 619.952 569.153 620.4C569.644 620.827 570.337 621.04 571.233 621.04C571.767 621.04 572.343 620.965 572.961 620.816C573.58 620.645 574.167 620.389 574.721 620.048V614.64C572.951 615.003 571.607 615.365 570.689 615.728C569.793 616.091 569.185 616.485 568.865 616.912C568.567 617.339 568.417 617.84 568.417 618.416ZM581.478 622V621.52L583.494 620.976V599.536L581.158 598.928V598.448L584.774 598H585.094V620.976L587.366 621.52V622H581.478ZM595.309 622.16L590.093 608.688L588.077 608.08V607.6H594.221V608.08L591.757 608.624V608.72L595.885 619.92H595.981L600.045 608.752V608.656L597.453 608.08V607.6H603.117V608.08L601.069 608.688L595.629 622.16H595.309ZM607.336 622.32C606.354 622.32 605.533 622.032 604.872 621.456C604.21 620.859 603.88 620.037 603.88 618.992C603.88 617.968 604.242 617.115 604.968 616.432C605.714 615.749 606.941 615.195 608.648 614.768L611.784 613.968V611.312C611.784 610.395 611.453 609.659 610.792 609.104C610.13 608.528 609.373 608.24 608.52 608.24C607.602 608.24 606.952 608.432 606.568 608.816C606.205 609.179 606.024 609.68 606.024 610.32V611.632L605.864 611.792H605.032C604.69 611.792 604.466 611.739 604.36 611.632C604.253 611.525 604.2 611.323 604.2 611.024C604.2 610.619 604.338 610.203 604.616 609.776C604.893 609.349 605.298 608.965 605.832 608.624C606.408 608.261 606.984 607.952 607.56 607.696C608.157 607.419 608.722 607.28 609.256 607.28C610.536 607.28 611.538 607.568 612.264 608.144C613.01 608.699 613.384 609.573 613.384 610.768V620.72C613.554 620.869 613.746 620.987 613.96 621.072C614.194 621.157 614.461 621.2 614.76 621.2H616.424L616.456 621.232V621.296C616.306 621.509 616.061 621.733 615.72 621.968C615.378 622.203 614.92 622.32 614.344 622.32C613.597 622.32 613.021 622.128 612.616 621.744C612.21 621.36 611.965 620.912 611.88 620.4H611.816C611.261 620.955 610.589 621.413 609.8 621.776C609.032 622.139 608.21 622.32 607.336 622.32ZM605.48 618.416C605.48 619.291 605.725 619.952 606.216 620.4C606.706 620.827 607.4 621.04 608.296 621.04C608.829 621.04 609.405 620.965 610.024 620.816C610.642 620.645 611.229 620.389 611.784 620.048V614.64C610.013 615.003 608.669 615.365 607.752 615.728C606.856 616.091 606.248 616.485 605.928 616.912C605.629 617.339 605.48 617.84 605.48 618.416ZM624.197 622.32C623.13 622.32 622.181 622.043 621.349 621.488C620.517 620.933 619.856 620.155 619.365 619.152C618.896 618.128 618.661 616.912 618.661 615.504C618.661 613.755 619.002 612.272 619.685 611.056C620.368 609.819 621.274 608.88 622.405 608.24C623.536 607.6 624.784 607.28 626.149 607.28C626.618 607.28 627.109 607.365 627.621 607.536C628.133 607.685 628.634 607.888 629.125 608.144V599.536L626.789 598.928V598.448L630.405 598H630.725V620.976L632.997 621.52V622H629.445L629.157 620.368H628.997C628.272 620.987 627.514 621.467 626.725 621.808C625.957 622.149 625.114 622.32 624.197 622.32ZM620.165 614.992C620.165 616.421 620.4 617.605 620.869 618.544C621.338 619.461 621.946 620.144 622.693 620.592C623.461 621.019 624.25 621.232 625.061 621.232C625.765 621.232 626.469 621.104 627.173 620.848C627.877 620.592 628.528 620.176 629.125 619.6V609.296C628.464 608.933 627.802 608.645 627.141 608.432C626.48 608.219 625.776 608.112 625.029 608.112C624.154 608.112 623.344 608.336 622.597 608.784C621.872 609.232 621.285 609.968 620.837 610.992C620.389 611.995 620.165 613.328 620.165 614.992ZM642.691 622.32C641.39 622.32 640.249 621.989 639.267 621.328C638.286 620.667 637.518 619.771 636.963 618.64C636.409 617.509 636.131 616.229 636.131 614.8C636.131 613.371 636.409 612.091 636.963 610.96C637.518 609.829 638.286 608.933 639.267 608.272C640.249 607.611 641.39 607.28 642.691 607.28C643.993 607.28 645.134 607.611 646.115 608.272C647.097 608.933 647.865 609.829 648.419 610.96C648.974 612.091 649.251 613.371 649.251 614.8C649.251 616.229 648.974 617.509 648.419 618.64C647.865 619.771 647.097 620.667 646.115 621.328C645.134 621.989 643.993 622.32 642.691 622.32ZM643.139 621.584C644.121 621.584 644.942 621.296 645.603 620.72C646.286 620.123 646.798 619.355 647.139 618.416C647.481 617.477 647.651 616.485 647.651 615.44C647.651 614.053 647.449 612.805 647.043 611.696C646.638 610.565 646.03 609.669 645.219 609.008C644.43 608.325 643.459 607.984 642.307 607.984C641.347 607.984 640.526 608.261 639.843 608.816C639.161 609.349 638.638 610.085 638.275 611.024C637.913 611.941 637.731 612.976 637.731 614.128C637.731 615.515 637.945 616.773 638.371 617.904C638.819 619.035 639.438 619.931 640.227 620.592C641.038 621.253 642.009 621.584 643.139 621.584ZM652.828 622V621.52L654.844 620.976V608.816L652.508 608.528V608.048L655.964 607.28H656.284L656.444 610.128H656.508C657.34 609.253 658.001 608.613 658.492 608.208C658.982 607.803 659.388 607.547 659.708 607.44C660.028 607.333 660.39 607.28 660.796 607.28C661.158 607.28 661.489 607.344 661.788 607.472C662.001 607.557 662.15 607.643 662.236 607.728C662.342 607.792 662.396 607.888 662.396 608.016C662.396 608.059 662.385 608.112 662.364 608.176C662.364 608.219 662.353 608.283 662.332 608.368L662.012 609.2H661.948L661.34 608.912C661.041 608.763 660.646 608.688 660.156 608.688C659.537 608.688 658.918 608.859 658.3 609.2C657.681 609.541 657.062 610.139 656.444 610.992V620.976L658.908 621.52V622H652.828ZM672.486 622V621.2L675.046 620.656V602.224L672.486 601.68V600.88H679.942C682.289 600.88 684.294 601.296 685.958 602.128C687.622 602.96 688.881 604.101 689.734 605.552C690.609 607.003 691.046 608.645 691.046 610.48C691.046 612.848 690.577 614.896 689.638 616.624C688.721 618.331 687.42 619.653 685.734 620.592C684.049 621.531 682.044 622 679.718 622H672.486ZM680.166 602H676.966V620.88H680.326C682.076 620.88 683.59 620.485 684.87 619.696C686.172 618.885 687.174 617.776 687.878 616.368C688.604 614.96 688.966 613.328 688.966 611.472C688.966 609.573 688.625 607.909 687.942 606.48C687.26 605.051 686.257 603.952 684.934 603.184C683.633 602.395 682.044 602 680.166 602ZM698.273 622.32C697.292 622.32 696.471 622.032 695.809 621.456C695.148 620.859 694.817 620.037 694.817 618.992C694.817 617.968 695.18 617.115 695.905 616.432C696.652 615.749 697.879 615.195 699.585 614.768L702.721 613.968V611.312C702.721 610.395 702.391 609.659 701.729 609.104C701.068 608.528 700.311 608.24 699.457 608.24C698.54 608.24 697.889 608.432 697.505 608.816C697.143 609.179 696.961 609.68 696.961 610.32V611.632L696.801 611.792H695.969C695.628 611.792 695.404 611.739 695.297 611.632C695.191 611.525 695.137 611.323 695.137 611.024C695.137 610.619 695.276 610.203 695.553 609.776C695.831 609.349 696.236 608.965 696.769 608.624C697.345 608.261 697.921 607.952 698.497 607.696C699.095 607.419 699.66 607.28 700.193 607.28C701.473 607.28 702.476 607.568 703.201 608.144C703.948 608.699 704.321 609.573 704.321 610.768V620.72C704.492 620.869 704.684 620.987 704.897 621.072C705.132 621.157 705.399 621.2 705.697 621.2H707.361L707.393 621.232V621.296C707.244 621.509 706.999 621.733 706.657 621.968C706.316 622.203 705.857 622.32 705.281 622.32C704.535 622.32 703.959 622.128 703.553 621.744C703.148 621.36 702.903 620.912 702.817 620.4H702.753C702.199 620.955 701.527 621.413 700.737 621.776C699.969 622.139 699.148 622.32 698.273 622.32ZM696.417 618.416C696.417 619.291 696.663 619.952 697.153 620.4C697.644 620.827 698.337 621.04 699.233 621.04C699.767 621.04 700.343 620.965 700.961 620.816C701.58 620.645 702.167 620.389 702.721 620.048V614.64C700.951 615.003 699.607 615.365 698.689 615.728C697.793 616.091 697.185 616.485 696.865 616.912C696.567 617.339 696.417 617.84 696.417 618.416ZM709.478 622V621.52L711.494 620.976V599.536L709.158 598.928V598.448L712.774 598H713.094V620.976L715.366 621.52V622H709.478ZM718.829 622V621.52L720.845 620.976V608.816L718.509 608.208V607.728L722.125 607.28H722.445V620.976L724.717 621.52V622H718.829ZM721.421 605.04L724.429 599.376H725.933C725.933 599.696 725.848 600.005 725.677 600.304C725.507 600.581 725.24 600.944 724.877 601.392L721.869 605.04H721.421ZM729.613 622.128C729.208 622.128 728.866 621.989 728.589 621.712C728.312 621.413 728.173 621.072 728.173 620.688C728.173 620.304 728.312 619.973 728.589 619.696C728.866 619.397 729.208 619.248 729.613 619.248C730.018 619.248 730.36 619.397 730.637 619.696C730.914 619.973 731.053 620.304 731.053 620.688C731.053 621.072 730.914 621.413 730.637 621.712C730.36 621.989 730.018 622.128 729.613 622.128Z" fill="black"/>
</svg>
