<svg width="848" height="1152" viewBox="0 0 848 1152" fill="none" xmlns="http://www.w3.org/2000/svg">
<rect width="848" height="1152" fill="#FAFAFA"/>
<path d="M362.444 480.2V479.6L364.964 478.92V454.52L362.044 454.16V453.56L366.364 452.6H366.764L366.924 455.08H367.124C368.138 454.227 369.111 453.6 370.044 453.2C371.004 452.8 372.031 452.6 373.124 452.6C374.458 452.6 375.644 452.947 376.684 453.64C377.724 454.333 378.538 455.32 379.124 456.6C379.738 457.853 380.044 459.36 380.044 461.12C380.044 463.307 379.618 465.173 378.764 466.72C377.911 468.24 376.778 469.4 375.364 470.2C373.951 471 372.391 471.4 370.684 471.4C370.098 471.4 369.484 471.293 368.844 471.08C368.204 470.893 367.578 470.64 366.964 470.32V478.92L369.804 479.6V480.2H362.444ZM372.044 453.96C371.058 453.96 370.138 454.133 369.284 454.48C368.458 454.827 367.684 455.32 366.964 455.96V468.72C367.791 469.253 368.604 469.667 369.404 469.96C370.204 470.227 371.098 470.36 372.084 470.36C373.178 470.36 374.178 470.08 375.084 469.52C376.018 468.96 376.764 468.053 377.324 466.8C377.884 465.52 378.164 463.84 378.164 461.76C378.164 459.973 377.871 458.507 377.284 457.36C376.698 456.187 375.924 455.333 374.964 454.8C374.031 454.24 373.058 453.96 372.044 453.96ZM384.84 471V470.4L387.36 469.72V454.52L384.44 454.16V453.56L388.76 452.6H389.16L389.36 456.16H389.44C390.48 455.067 391.307 454.267 391.92 453.76C392.533 453.253 393.04 452.933 393.44 452.8C393.84 452.667 394.293 452.6 394.8 452.6C395.253 452.6 395.667 452.68 396.04 452.84C396.307 452.947 396.493 453.053 396.6 453.16C396.733 453.24 396.8 453.36 396.8 453.52C396.8 453.573 396.787 453.64 396.76 453.72C396.76 453.773 396.747 453.853 396.72 453.96L396.32 455H396.24L395.48 454.64C395.107 454.453 394.613 454.36 394 454.36C393.227 454.36 392.453 454.573 391.68 455C390.907 455.427 390.133 456.173 389.36 457.24V469.72L392.44 470.4V471H384.84ZM407.893 471.4C406 471.4 404.4 471 403.093 470.2C401.813 469.4 400.84 468.32 400.173 466.96C399.533 465.6 399.213 464.067 399.213 462.36C399.213 460.547 399.587 458.907 400.333 457.44C401.107 455.973 402.107 454.8 403.333 453.92C404.587 453.04 405.947 452.6 407.413 452.6C409.52 452.6 411.173 453.293 412.373 454.68C413.573 456.067 414.267 457.987 414.453 460.44L414.333 460.56H401.253C401.227 460.96 401.213 461.387 401.213 461.84C401.213 464.187 401.84 466.093 403.093 467.56C404.373 469 406.16 469.72 408.453 469.72C409.707 469.72 410.84 469.533 411.853 469.16C412.893 468.787 413.707 468.28 414.293 467.64H414.413V468.16C413.827 469.093 412.96 469.867 411.813 470.48C410.693 471.093 409.387 471.4 407.893 471.4ZM406.933 453.48C405.627 453.48 404.453 454.027 403.413 455.12C402.373 456.187 401.693 457.707 401.373 459.68H412.253C411.987 457.733 411.44 456.213 410.613 455.12C409.787 454.027 408.56 453.48 406.933 453.48ZM419.431 471V470.4L421.951 469.72V454.36H418.431V453H421.951V451.4C421.951 450.333 422.124 449.2 422.471 448C422.844 446.8 423.378 445.667 424.071 444.6C424.791 443.533 425.684 442.667 426.751 442C427.818 441.333 429.058 441 430.471 441C430.818 441 431.124 441.053 431.391 441.16C431.818 441.347 432.031 441.56 432.031 441.8C432.031 441.96 431.991 442.133 431.911 442.32L431.471 443.4H431.391L430.551 443.12C429.724 442.853 428.924 442.72 428.151 442.72C426.791 442.72 425.751 443.28 425.031 444.4C424.311 445.52 423.951 447.32 423.951 449.8V453H429.231V454.36H423.951V469.72L427.031 470.4V471H419.431ZM436.714 471.4C435.488 471.4 434.461 471.04 433.634 470.32C432.808 469.573 432.394 468.547 432.394 467.24C432.394 465.96 432.848 464.893 433.754 464.04C434.688 463.187 436.221 462.493 438.354 461.96L442.274 460.96V457.64C442.274 456.493 441.861 455.573 441.034 454.88C440.208 454.16 439.261 453.8 438.194 453.8C437.048 453.8 436.234 454.04 435.754 454.52C435.301 454.973 435.074 455.6 435.074 456.4V458.04L434.874 458.24H433.834C433.408 458.24 433.128 458.173 432.994 458.04C432.861 457.907 432.794 457.653 432.794 457.28C432.794 456.773 432.968 456.253 433.314 455.72C433.661 455.187 434.168 454.707 434.834 454.28C435.554 453.827 436.274 453.44 436.994 453.12C437.741 452.773 438.448 452.6 439.114 452.6C440.714 452.6 441.968 452.96 442.874 453.68C443.808 454.373 444.274 455.467 444.274 456.96V469.4C444.488 469.587 444.728 469.733 444.994 469.84C445.288 469.947 445.621 470 445.994 470H448.074L448.114 470.04V470.12C447.928 470.387 447.621 470.667 447.194 470.96C446.768 471.253 446.194 471.4 445.474 471.4C444.541 471.4 443.821 471.16 443.314 470.68C442.808 470.2 442.501 469.64 442.394 469H442.314C441.621 469.693 440.781 470.267 439.794 470.72C438.834 471.173 437.808 471.4 436.714 471.4ZM434.394 466.52C434.394 467.613 434.701 468.44 435.314 469C435.928 469.533 436.794 469.8 437.914 469.8C438.581 469.8 439.301 469.707 440.074 469.52C440.848 469.307 441.581 468.987 442.274 468.56V461.8C440.061 462.253 438.381 462.707 437.234 463.16C436.114 463.613 435.354 464.107 434.954 464.64C434.581 465.173 434.394 465.8 434.394 466.52ZM459.911 471.4C458.044 471.4 456.471 471 455.191 470.2C453.937 469.4 452.977 468.32 452.311 466.96C451.671 465.6 451.351 464.067 451.351 462.36C451.351 460.493 451.724 458.827 452.471 457.36C453.244 455.867 454.297 454.707 455.631 453.88C456.991 453.027 458.524 452.6 460.231 452.6C461.297 452.6 462.244 452.747 463.071 453.04C463.897 453.333 464.564 453.653 465.071 454C465.924 454.587 466.351 455.093 466.351 455.52C466.351 455.707 466.257 455.88 466.071 456.04L464.991 456.96H464.831L464.311 456.24C463.724 455.44 463.084 454.787 462.391 454.28C461.724 453.747 460.857 453.48 459.791 453.48C457.924 453.48 456.377 454.187 455.151 455.6C453.951 456.987 453.351 459.067 453.351 461.84C453.351 464.187 453.964 466.093 455.191 467.56C456.444 469 458.204 469.72 460.471 469.72C461.697 469.72 462.831 469.533 463.871 469.16C464.911 468.787 465.724 468.28 466.311 467.64H466.431V468.16C465.817 469.093 464.951 469.867 463.831 470.48C462.711 471.093 461.404 471.4 459.911 471.4ZM479.298 471.4C477.405 471.4 475.805 471 474.498 470.2C473.218 469.4 472.245 468.32 471.578 466.96C470.938 465.6 470.618 464.067 470.618 462.36C470.618 460.547 470.991 458.907 471.738 457.44C472.511 455.973 473.511 454.8 474.738 453.92C475.991 453.04 477.351 452.6 478.818 452.6C480.925 452.6 482.578 453.293 483.778 454.68C484.978 456.067 485.671 457.987 485.858 460.44L485.738 460.56H472.658C472.631 460.96 472.618 461.387 472.618 461.84C472.618 464.187 473.245 466.093 474.498 467.56C475.778 469 477.565 469.72 479.858 469.72C481.111 469.72 482.245 469.533 483.258 469.16C484.298 468.787 485.111 468.28 485.698 467.64H485.818V468.16C485.231 469.093 484.365 469.867 483.218 470.48C482.098 471.093 480.791 471.4 479.298 471.4ZM478.338 453.48C477.031 453.48 475.858 454.027 474.818 455.12C473.778 456.187 473.098 457.707 472.778 459.68H483.658C483.391 457.733 482.845 456.213 482.018 455.12C481.191 454.027 479.965 453.48 478.338 453.48ZM65.4225 557.32C63.5025 557.32 61.7852 556.851 60.2705 555.912C58.7772 554.973 57.5932 553.683 56.7185 552.04C55.8438 550.397 55.4065 548.531 55.4065 546.44C55.4065 544.349 55.8438 542.483 56.7185 540.84C57.5932 539.197 58.7772 537.907 60.2705 536.968C61.7852 536.029 63.5025 535.56 65.4225 535.56C67.3638 535.56 69.0812 536.029 70.5745 536.968C72.0892 537.907 73.2838 539.197 74.1585 540.84C75.0332 542.483 75.4705 544.349 75.4705 546.44C75.4705 548.531 75.0332 550.397 74.1585 552.04C73.2838 553.683 72.0892 554.973 70.5745 555.912C69.0812 556.851 67.3638 557.32 65.4225 557.32ZM66.0945 556.36C67.5452 556.36 68.8252 555.997 69.9345 555.272C71.0652 554.525 71.9398 553.491 72.5585 552.168C73.1772 550.824 73.4865 549.245 73.4865 547.432C73.4865 545.235 73.1025 543.315 72.3345 541.672C71.5665 540.029 70.5318 538.76 69.2305 537.864C67.9292 536.947 66.4785 536.488 64.8785 536.488C63.4278 536.488 62.1372 536.851 61.0065 537.576C59.8758 538.301 58.9905 539.336 58.3505 540.68C57.7105 542.003 57.3905 543.571 57.3905 545.384C57.3905 547.581 57.7745 549.512 58.5425 551.176C59.3318 552.819 60.3772 554.099 61.6785 555.016C63.0012 555.912 64.4732 556.36 66.0945 556.36ZM79.5858 557V556.52L81.6018 555.976V543.816L79.2658 543.528V543.048L82.7218 542.28H83.0418L83.1698 544.584H83.2658C84.0551 543.773 84.8018 543.187 85.5058 542.824C86.2098 542.461 86.9991 542.28 87.8738 542.28C89.2178 542.28 90.3164 542.653 91.1698 543.4C92.0444 544.147 92.4818 545.235 92.4818 546.664V555.976L94.4978 556.52V557H88.6098V556.52L90.8818 555.976V547.528C90.8818 546.227 90.5298 545.245 89.8258 544.584C89.1431 543.901 88.2364 543.56 87.1058 543.56C86.4658 543.56 85.7724 543.72 85.0258 544.04C84.2791 544.339 83.6711 544.776 83.2018 545.352V555.976L85.4738 556.52V557H79.5858ZM97.146 557V556.52L99.162 555.976V534.536L96.826 533.928V533.448L100.442 533H100.762V555.976L103.034 556.52V557H97.146ZM105.793 564.712C105.345 564.712 105.057 564.637 104.929 564.488C104.823 564.36 104.769 564.125 104.769 563.784V563.08L104.961 562.888H106.369C106.903 562.888 107.308 562.845 107.585 562.76C107.863 562.675 108.119 562.44 108.353 562.056C108.588 561.672 108.919 561.043 109.345 560.168L111.009 556.648L105.761 543.688L103.745 543.08V542.6H109.889V543.08L107.425 543.624V543.72L111.713 554.696H111.809L115.713 543.752V543.656L113.121 543.08V542.6H118.785V543.08L116.737 543.688L110.049 560.456C109.793 561.096 109.548 561.619 109.313 562.024C109.1 562.451 108.855 562.867 108.577 563.272C108.257 563.741 107.841 564.093 107.329 564.328C106.839 564.584 106.327 564.712 105.793 564.712ZM131.1 557.32C130.118 557.32 129.297 557.032 128.636 556.456C127.974 555.859 127.644 555.037 127.644 553.992C127.644 552.968 128.006 552.115 128.732 551.432C129.478 550.749 130.705 550.195 132.412 549.768L135.548 548.968V546.312C135.548 545.395 135.217 544.659 134.556 544.104C133.894 543.528 133.137 543.24 132.284 543.24C131.366 543.24 130.716 543.432 130.332 543.816C129.969 544.179 129.788 544.68 129.788 545.32V546.632L129.628 546.792H128.796C128.454 546.792 128.23 546.739 128.124 546.632C128.017 546.525 127.964 546.323 127.964 546.024C127.964 545.619 128.102 545.203 128.38 544.776C128.657 544.349 129.062 543.965 129.596 543.624C130.172 543.261 130.748 542.952 131.324 542.696C131.921 542.419 132.486 542.28 133.02 542.28C134.3 542.28 135.302 542.568 136.028 543.144C136.774 543.699 137.148 544.573 137.148 545.768V555.72C137.318 555.869 137.51 555.987 137.724 556.072C137.958 556.157 138.225 556.2 138.524 556.2H140.188L140.22 556.232V556.296C140.07 556.509 139.825 556.733 139.484 556.968C139.142 557.203 138.684 557.32 138.108 557.32C137.361 557.32 136.785 557.128 136.38 556.744C135.974 556.36 135.729 555.912 135.644 555.4H135.58C135.025 555.955 134.353 556.413 133.564 556.776C132.796 557.139 131.974 557.32 131.1 557.32ZM129.244 553.416C129.244 554.291 129.489 554.952 129.98 555.4C130.47 555.827 131.164 556.04 132.06 556.04C132.593 556.04 133.169 555.965 133.788 555.816C134.406 555.645 134.993 555.389 135.548 555.048V549.64C133.777 550.003 132.433 550.365 131.516 550.728C130.62 551.091 130.012 551.485 129.692 551.912C129.393 552.339 129.244 552.84 129.244 553.416ZM142.657 557V556.52L144.673 555.976V543.688H141.857V542.6H144.673V541.32C144.673 540.467 144.811 539.56 145.089 538.6C145.387 537.64 145.814 536.733 146.369 535.88C146.945 535.027 147.659 534.333 148.513 533.8C149.366 533.267 150.358 533 151.489 533C151.766 533 152.011 533.043 152.225 533.128C152.566 533.277 152.737 533.448 152.737 533.64C152.737 533.683 152.726 533.747 152.705 533.832C152.705 533.896 152.694 533.96 152.673 534.024L152.289 534.92H152.225L151.553 534.696C150.891 534.483 150.251 534.376 149.633 534.376C148.545 534.376 147.713 534.824 147.137 535.72C146.561 536.616 146.273 538.056 146.273 540.04V542.6H154.753L155.809 539.08H156.161V542.6H160.385V543.688H156.161V554.088C156.161 554.749 156.363 555.251 156.769 555.592C157.174 555.912 157.707 556.072 158.369 556.072C158.838 556.072 159.265 556.019 159.649 555.912C160.033 555.805 160.395 555.656 160.737 555.464L160.769 555.496V555.624C160.598 555.987 160.235 556.36 159.681 556.744C159.126 557.128 158.401 557.32 157.505 557.32C156.63 557.32 155.915 557.043 155.361 556.488C154.827 555.933 154.561 555.155 154.561 554.152V543.688H146.273V555.976L148.737 556.52V557H142.657ZM170.31 557.32C168.795 557.32 167.515 557 166.47 556.36C165.446 555.72 164.667 554.856 164.134 553.768C163.622 552.68 163.366 551.453 163.366 550.088C163.366 548.637 163.664 547.325 164.262 546.152C164.88 544.979 165.68 544.04 166.662 543.336C167.664 542.632 168.752 542.28 169.926 542.28C171.611 542.28 172.934 542.835 173.894 543.944C174.854 545.053 175.408 546.589 175.558 548.552L175.462 548.648H164.998C164.976 548.968 164.966 549.309 164.966 549.672C164.966 551.549 165.467 553.075 166.47 554.248C167.494 555.4 168.923 555.976 170.758 555.976C171.76 555.976 172.667 555.827 173.478 555.528C174.31 555.229 174.96 554.824 175.43 554.312H175.526V554.728C175.056 555.475 174.363 556.093 173.446 556.584C172.55 557.075 171.504 557.32 170.31 557.32ZM169.542 542.984C168.496 542.984 167.558 543.421 166.726 544.296C165.894 545.149 165.35 546.365 165.094 547.944H173.798C173.584 546.387 173.147 545.171 172.486 544.296C171.824 543.421 170.843 542.984 169.542 542.984ZM179.188 557V556.52L181.204 555.976V543.816L178.868 543.528V543.048L182.324 542.28H182.644L182.804 545.128H182.868C183.7 544.253 184.361 543.613 184.852 543.208C185.342 542.803 185.748 542.547 186.068 542.44C186.388 542.333 186.75 542.28 187.156 542.28C187.518 542.28 187.849 542.344 188.148 542.472C188.361 542.557 188.51 542.643 188.596 542.728C188.702 542.792 188.756 542.888 188.756 543.016C188.756 543.059 188.745 543.112 188.724 543.176C188.724 543.219 188.713 543.283 188.692 543.368L188.372 544.2H188.308L187.7 543.912C187.401 543.763 187.006 543.688 186.516 543.688C185.897 543.688 185.278 543.859 184.66 544.2C184.041 544.541 183.422 545.139 182.804 545.992V555.976L185.268 556.52V557H179.188ZM203.166 557.32C202.292 557.32 201.577 557.043 201.022 556.488C200.489 555.933 200.222 555.155 200.222 554.152V543.688H197.406V543.4L200.414 542.6L201.47 539.08H201.822V542.6H206.046V543.688H201.822V554.088C201.822 554.749 202.025 555.251 202.43 555.592C202.836 555.912 203.369 556.072 204.03 556.072C204.5 556.072 204.926 556.019 205.31 555.912C205.694 555.805 206.057 555.656 206.398 555.464L206.43 555.496V555.624C206.26 555.987 205.897 556.36 205.342 556.744C204.788 557.128 204.062 557.32 203.166 557.32ZM209.281 557V556.52L211.297 555.976V534.536L208.961 533.928V533.448L212.577 533H212.897V544.584H212.961C213.75 543.773 214.497 543.187 215.201 542.824C215.905 542.461 216.694 542.28 217.569 542.28C218.913 542.28 220.011 542.653 220.865 543.4C221.739 544.147 222.177 545.235 222.177 546.664V555.976L224.193 556.52V557H218.305V556.52L220.577 555.976V547.528C220.577 546.227 220.225 545.245 219.521 544.584C218.838 543.901 217.931 543.56 216.801 543.56C216.161 543.56 215.467 543.72 214.721 544.04C213.974 544.339 213.366 544.776 212.897 545.352V555.976L215.169 556.52V557H209.281ZM233.97 557.32C232.455 557.32 231.175 557 230.13 556.36C229.106 555.72 228.327 554.856 227.794 553.768C227.282 552.68 227.026 551.453 227.026 550.088C227.026 548.637 227.324 547.325 227.922 546.152C228.54 544.979 229.34 544.04 230.322 543.336C231.324 542.632 232.412 542.28 233.586 542.28C235.271 542.28 236.594 542.835 237.554 543.944C238.514 545.053 239.068 546.589 239.218 548.552L239.122 548.648H228.658C228.636 548.968 228.626 549.309 228.626 549.672C228.626 551.549 229.127 553.075 230.13 554.248C231.154 555.4 232.583 555.976 234.418 555.976C235.42 555.976 236.327 555.827 237.138 555.528C237.97 555.229 238.62 554.824 239.09 554.312H239.186V554.728C238.716 555.475 238.023 556.093 237.106 556.584C236.21 557.075 235.164 557.32 233.97 557.32ZM233.202 542.984C232.156 542.984 231.218 543.421 230.386 544.296C229.554 545.149 229.01 546.365 228.754 547.944H237.458C237.244 546.387 236.807 545.171 236.146 544.296C235.484 543.421 234.503 542.984 233.202 542.984ZM250.944 557V556.52L252.96 555.976V543.688H250.144V542.6H252.96V541.32C252.96 540.467 253.098 539.56 253.376 538.6C253.674 537.64 254.101 536.733 254.656 535.88C255.232 535.027 255.946 534.333 256.8 533.8C257.653 533.267 258.645 533 259.776 533C260.053 533 260.298 533.043 260.512 533.128C260.853 533.277 261.024 533.448 261.024 533.64C261.024 533.768 260.992 533.907 260.928 534.056L260.576 534.92H260.512L259.84 534.696C259.178 534.483 258.538 534.376 257.92 534.376C256.832 534.376 256 534.824 255.424 535.72C254.848 536.616 254.56 538.056 254.56 540.04V542.6H258.784V543.688H254.56V555.976L257.024 556.52V557H250.944ZM264.482 557.32C263.501 557.32 262.68 557.032 262.018 556.456C261.357 555.859 261.026 555.037 261.026 553.992C261.026 552.968 261.389 552.115 262.114 551.432C262.861 550.749 264.088 550.195 265.794 549.768L268.93 548.968V546.312C268.93 545.395 268.6 544.659 267.938 544.104C267.277 543.528 266.52 543.24 265.666 543.24C264.749 543.24 264.098 543.432 263.714 543.816C263.352 544.179 263.17 544.68 263.17 545.32V546.632L263.01 546.792H262.178C261.837 546.792 261.613 546.739 261.506 546.632C261.4 546.525 261.346 546.323 261.346 546.024C261.346 545.619 261.485 545.203 261.762 544.776C262.04 544.349 262.445 543.965 262.978 543.624C263.554 543.261 264.13 542.952 264.706 542.696C265.304 542.419 265.869 542.28 266.402 542.28C267.682 542.28 268.685 542.568 269.41 543.144C270.157 543.699 270.53 544.573 270.53 545.768V555.72C270.701 555.869 270.893 555.987 271.106 556.072C271.341 556.157 271.608 556.2 271.906 556.2H273.57L273.602 556.232V556.296C273.453 556.509 273.208 556.733 272.866 556.968C272.525 557.203 272.066 557.32 271.49 557.32C270.744 557.32 270.168 557.128 269.762 556.744C269.357 556.36 269.112 555.912 269.026 555.4H268.962C268.408 555.955 267.736 556.413 266.946 556.776C266.178 557.139 265.357 557.32 264.482 557.32ZM262.626 553.416C262.626 554.291 262.872 554.952 263.362 555.4C263.853 555.827 264.546 556.04 265.442 556.04C265.976 556.04 266.552 555.965 267.17 555.816C267.789 555.645 268.376 555.389 268.93 555.048V549.64C267.16 550.003 265.816 550.365 264.898 550.728C264.002 551.091 263.394 551.485 263.074 551.912C262.776 552.339 262.626 552.84 262.626 553.416ZM282.751 557.32C281.258 557.32 279.999 557 278.975 556.36C277.973 555.72 277.205 554.856 276.671 553.768C276.159 552.68 275.903 551.453 275.903 550.088C275.903 548.595 276.202 547.261 276.799 546.088C277.418 544.893 278.261 543.965 279.327 543.304C280.415 542.621 281.642 542.28 283.007 542.28C283.861 542.28 284.618 542.397 285.279 542.632C285.941 542.867 286.474 543.123 286.879 543.4C287.562 543.869 287.903 544.275 287.903 544.616C287.903 544.765 287.829 544.904 287.679 545.032L286.815 545.768H286.687L286.271 545.192C285.802 544.552 285.29 544.029 284.735 543.624C284.202 543.197 283.509 542.984 282.655 542.984C281.162 542.984 279.925 543.549 278.943 544.68C277.983 545.789 277.503 547.453 277.503 549.672C277.503 551.549 277.994 553.075 278.975 554.248C279.978 555.4 281.386 555.976 283.199 555.976C284.181 555.976 285.087 555.827 285.919 555.528C286.751 555.229 287.402 554.824 287.871 554.312H287.967V554.728C287.477 555.475 286.783 556.093 285.887 556.584C284.991 557.075 283.946 557.32 282.751 557.32ZM295.765 557.32C294.891 557.32 294.176 557.043 293.621 556.488C293.088 555.933 292.821 555.155 292.821 554.152V543.688H290.005V543.4L293.013 542.6L294.069 539.08H294.421V542.6H298.645V543.688H294.421V554.088C294.421 554.749 294.624 555.251 295.029 555.592C295.435 555.912 295.968 556.072 296.629 556.072C297.099 556.072 297.525 556.019 297.909 555.912C298.293 555.805 298.656 555.656 298.997 555.464L299.029 555.496V555.624C298.859 555.987 298.496 556.36 297.941 556.744C297.387 557.128 296.661 557.32 295.765 557.32ZM316.216 557.32C314.914 557.32 313.773 556.989 312.792 556.328C311.81 555.667 311.042 554.771 310.488 553.64C309.933 552.509 309.656 551.229 309.656 549.8C309.656 548.371 309.933 547.091 310.488 545.96C311.042 544.829 311.81 543.933 312.792 543.272C313.773 542.611 314.914 542.28 316.216 542.28C317.517 542.28 318.658 542.611 319.64 543.272C320.621 543.933 321.389 544.829 321.944 545.96C322.498 547.091 322.776 548.371 322.776 549.8C322.776 551.229 322.498 552.509 321.944 553.64C321.389 554.771 320.621 555.667 319.64 556.328C318.658 556.989 317.517 557.32 316.216 557.32ZM316.664 556.584C317.645 556.584 318.466 556.296 319.128 555.72C319.81 555.123 320.322 554.355 320.664 553.416C321.005 552.477 321.176 551.485 321.176 550.44C321.176 549.053 320.973 547.805 320.568 546.696C320.162 545.565 319.554 544.669 318.744 544.008C317.954 543.325 316.984 542.984 315.832 542.984C314.872 542.984 314.05 543.261 313.368 543.816C312.685 544.349 312.162 545.085 311.8 546.024C311.437 546.941 311.256 547.976 311.256 549.128C311.256 550.515 311.469 551.773 311.896 552.904C312.344 554.035 312.962 554.931 313.752 555.592C314.562 556.253 315.533 556.584 316.664 556.584ZM326.448 557V556.52L328.464 555.976V543.688H325.648V542.6H328.464V541.32C328.464 540.467 328.603 539.56 328.88 538.6C329.179 537.64 329.606 536.733 330.16 535.88C330.736 535.027 331.451 534.333 332.304 533.8C333.158 533.267 334.15 533 335.28 533C335.558 533 335.803 533.043 336.016 533.128C336.358 533.277 336.528 533.448 336.528 533.64C336.528 533.768 336.496 533.907 336.432 534.056L336.08 534.92H336.016L335.344 534.696C334.683 534.483 334.043 534.376 333.424 534.376C332.336 534.376 331.504 534.824 330.928 535.72C330.352 536.616 330.064 538.056 330.064 540.04V542.6H334.288V543.688H330.064V555.976L332.528 556.52V557H326.448ZM351.571 557.32C350.056 557.32 348.776 557 347.731 556.36C346.707 555.72 345.928 554.856 345.395 553.768C344.883 552.68 344.627 551.453 344.627 550.088C344.627 548.637 344.925 547.325 345.523 546.152C346.141 544.979 346.941 544.04 347.923 543.336C348.925 542.632 350.013 542.28 351.187 542.28C352.872 542.28 354.195 542.835 355.155 543.944C356.115 545.053 356.669 546.589 356.819 548.552L356.723 548.648H346.259C346.237 548.968 346.227 549.309 346.227 549.672C346.227 551.549 346.728 553.075 347.731 554.248C348.755 555.4 350.184 555.976 352.019 555.976C353.021 555.976 353.928 555.827 354.739 555.528C355.571 555.229 356.221 554.824 356.691 554.312H356.787V554.728C356.317 555.475 355.624 556.093 354.707 556.584C353.811 557.075 352.765 557.32 351.571 557.32ZM350.803 542.984C349.757 542.984 348.819 543.421 347.987 544.296C347.155 545.149 346.611 546.365 346.355 547.944H355.059C354.845 546.387 354.408 545.171 353.747 544.296C353.085 543.421 352.104 542.984 350.803 542.984ZM363.457 557.32C362.476 557.32 361.654 557.032 360.993 556.456C360.332 555.859 360.001 555.037 360.001 553.992C360.001 552.968 360.364 552.115 361.089 551.432C361.836 550.749 363.062 550.195 364.769 549.768L367.905 548.968V546.312C367.905 545.395 367.574 544.659 366.913 544.104C366.252 543.528 365.494 543.24 364.641 543.24C363.724 543.24 363.073 543.432 362.689 543.816C362.326 544.179 362.145 544.68 362.145 545.32V546.632L361.985 546.792H361.153C360.812 546.792 360.588 546.739 360.481 546.632C360.374 546.525 360.321 546.323 360.321 546.024C360.321 545.619 360.46 545.203 360.737 544.776C361.014 544.349 361.42 543.965 361.953 543.624C362.529 543.261 363.105 542.952 363.681 542.696C364.278 542.419 364.844 542.28 365.377 542.28C366.657 542.28 367.66 542.568 368.385 543.144C369.132 543.699 369.505 544.573 369.505 545.768V555.72C369.676 555.869 369.868 555.987 370.081 556.072C370.316 556.157 370.582 556.2 370.881 556.2H372.545L372.577 556.232V556.296C372.428 556.509 372.182 556.733 371.841 556.968C371.5 557.203 371.041 557.32 370.465 557.32C369.718 557.32 369.142 557.128 368.737 556.744C368.332 556.36 368.086 555.912 368.001 555.4H367.937C367.382 555.955 366.71 556.413 365.921 556.776C365.153 557.139 364.332 557.32 363.457 557.32ZM361.601 553.416C361.601 554.291 361.846 554.952 362.337 555.4C362.828 555.827 363.521 556.04 364.417 556.04C364.95 556.04 365.526 555.965 366.145 555.816C366.764 555.645 367.35 555.389 367.905 555.048V549.64C366.134 550.003 364.79 550.365 363.873 550.728C362.977 551.091 362.369 551.485 362.049 551.912C361.75 552.339 361.601 552.84 361.601 553.416ZM381.726 557.32C380.233 557.32 378.974 557 377.95 556.36C376.948 555.72 376.18 554.856 375.646 553.768C375.134 552.68 374.878 551.453 374.878 550.088C374.878 548.595 375.177 547.261 375.774 546.088C376.393 544.893 377.236 543.965 378.302 543.304C379.39 542.621 380.617 542.28 381.982 542.28C382.836 542.28 383.593 542.397 384.254 542.632C384.916 542.867 385.449 543.123 385.854 543.4C386.537 543.869 386.878 544.275 386.878 544.616C386.878 544.765 386.804 544.904 386.654 545.032L385.79 545.768H385.662L385.246 545.192C384.777 544.552 384.265 544.029 383.71 543.624C383.177 543.197 382.484 542.984 381.63 542.984C380.137 542.984 378.9 543.549 377.918 544.68C376.958 545.789 376.478 547.453 376.478 549.672C376.478 551.549 376.969 553.075 377.95 554.248C378.953 555.4 380.361 555.976 382.174 555.976C383.156 555.976 384.062 555.827 384.894 555.528C385.726 555.229 386.377 554.824 386.846 554.312H386.942V554.728C386.452 555.475 385.758 556.093 384.862 556.584C383.966 557.075 382.921 557.32 381.726 557.32ZM390.26 557V556.52L392.276 555.976V534.536L389.94 533.928V533.448L393.556 533H393.876V544.584H393.94C394.729 543.773 395.476 543.187 396.18 542.824C396.884 542.461 397.673 542.28 398.548 542.28C399.892 542.28 400.991 542.653 401.844 543.4C402.719 544.147 403.156 545.235 403.156 546.664V555.976L405.172 556.52V557H399.284V556.52L401.556 555.976V547.528C401.556 546.227 401.204 545.245 400.5 544.584C399.817 543.901 398.911 543.56 397.78 543.56C397.14 543.56 396.447 543.72 395.7 544.04C394.953 544.339 394.345 544.776 393.876 545.352V555.976L396.148 556.52V557H390.26ZM416.293 564.36V563.88L418.309 563.336V543.816L415.973 543.528V543.048L419.429 542.28H419.749L419.877 544.264H420.037C420.847 543.581 421.626 543.08 422.373 542.76C423.141 542.44 423.962 542.28 424.837 542.28C425.903 542.28 426.853 542.557 427.685 543.112C428.517 543.667 429.167 544.456 429.637 545.48C430.127 546.483 430.373 547.688 430.373 549.096C430.373 550.845 430.031 552.339 429.349 553.576C428.666 554.792 427.759 555.72 426.629 556.36C425.498 557 424.25 557.32 422.885 557.32C422.415 557.32 421.925 557.235 421.413 557.064C420.901 556.915 420.399 556.712 419.909 556.456V563.336L422.181 563.88V564.36H416.293ZM423.973 543.368C423.183 543.368 422.447 543.507 421.765 543.784C421.103 544.061 420.485 544.456 419.909 544.968V555.176C420.57 555.603 421.221 555.933 421.861 556.168C422.501 556.381 423.215 556.488 424.005 556.488C424.879 556.488 425.679 556.264 426.405 555.816C427.151 555.368 427.749 554.643 428.197 553.64C428.645 552.616 428.869 551.272 428.869 549.608C428.869 548.179 428.634 547.005 428.165 546.088C427.695 545.149 427.077 544.467 426.309 544.04C425.562 543.592 424.783 543.368 423.973 543.368ZM440.723 557.32C439.421 557.32 438.28 556.989 437.299 556.328C436.317 555.667 435.549 554.771 434.995 553.64C434.44 552.509 434.163 551.229 434.163 549.8C434.163 548.371 434.44 547.091 434.995 545.96C435.549 544.829 436.317 543.933 437.299 543.272C438.28 542.611 439.421 542.28 440.723 542.28C442.024 542.28 443.165 542.611 444.147 543.272C445.128 543.933 445.896 544.829 446.451 545.96C447.005 547.091 447.283 548.371 447.283 549.8C447.283 551.229 447.005 552.509 446.451 553.64C445.896 554.771 445.128 555.667 444.147 556.328C443.165 556.989 442.024 557.32 440.723 557.32ZM441.171 556.584C442.152 556.584 442.973 556.296 443.635 555.72C444.317 555.123 444.829 554.355 445.171 553.416C445.512 552.477 445.683 551.485 445.683 550.44C445.683 549.053 445.48 547.805 445.075 546.696C444.669 545.565 444.061 544.669 443.251 544.008C442.461 543.325 441.491 542.984 440.339 542.984C439.379 542.984 438.557 543.261 437.875 543.816C437.192 544.349 436.669 545.085 436.307 546.024C435.944 546.941 435.763 547.976 435.763 549.128C435.763 550.515 435.976 551.773 436.403 552.904C436.851 554.035 437.469 554.931 438.259 555.592C439.069 556.253 440.04 556.584 441.171 556.584ZM458.076 557.32C456.561 557.32 455.281 557 454.236 556.36C453.212 555.72 452.433 554.856 451.9 553.768C451.388 552.68 451.132 551.453 451.132 550.088C451.132 548.637 451.431 547.325 452.028 546.152C452.647 544.979 453.447 544.04 454.428 543.336C455.431 542.632 456.519 542.28 457.692 542.28C459.377 542.28 460.7 542.835 461.66 543.944C462.62 545.053 463.175 546.589 463.324 548.552L463.228 548.648H452.764C452.743 548.968 452.732 549.309 452.732 549.672C452.732 551.549 453.233 553.075 454.236 554.248C455.26 555.4 456.689 555.976 458.524 555.976C459.527 555.976 460.433 555.827 461.244 555.528C462.076 555.229 462.727 554.824 463.196 554.312H463.292V554.728C462.823 555.475 462.129 556.093 461.212 556.584C460.316 557.075 459.271 557.32 458.076 557.32ZM457.308 542.984C456.263 542.984 455.324 543.421 454.492 544.296C453.66 545.149 453.116 546.365 452.86 547.944H461.564C461.351 546.387 460.913 545.171 460.252 544.296C459.591 543.421 458.609 542.984 457.308 542.984ZM466.634 557V556.52L468.65 555.976V543.816L466.314 543.528V543.048L469.77 542.28H470.09L470.218 544.584H470.314C471.061 543.816 471.765 543.24 472.426 542.856C473.088 542.472 473.813 542.28 474.602 542.28C475.498 542.28 476.288 542.472 476.97 542.856C477.653 543.24 478.165 543.816 478.506 544.584H478.57C479.338 543.795 480.064 543.219 480.746 542.856C481.429 542.472 482.186 542.28 483.018 542.28C484.32 542.28 485.386 542.653 486.218 543.4C487.05 544.147 487.466 545.235 487.466 546.664V555.976L489.482 556.52V557H483.594V556.52L485.866 555.976V547.528C485.866 546.227 485.525 545.245 484.842 544.584C484.181 543.901 483.317 543.56 482.25 543.56C481.674 543.56 481.045 543.699 480.362 543.976C479.701 544.232 479.146 544.616 478.698 545.128C478.826 545.597 478.89 546.109 478.89 546.664V555.976L480.906 556.52V557H475.018V556.52L477.29 555.976V547.528C477.29 546.227 476.97 545.245 476.33 544.584C475.69 543.901 474.858 543.56 473.834 543.56C473.237 543.56 472.597 543.72 471.914 544.04C471.232 544.339 470.677 544.765 470.25 545.32V555.976L472.522 556.52V557H466.634ZM504.357 557.16L499.877 543.688L497.861 543.08V542.6H504.005V543.08L501.541 543.624V543.72L504.933 554.824H505.061L509.541 542.6H510.021L514.501 554.728H514.629L517.957 543.752V543.656L515.365 543.08V542.6H521.029V543.08L518.981 543.688L514.277 557.16H513.957L509.413 545.416L504.677 557.16H504.357ZM522.3 557V556.52L524.316 555.976V543.816L521.98 543.528V543.048L525.436 542.28H525.756L525.916 545.128H525.98C526.812 544.253 527.474 543.613 527.964 543.208C528.455 542.803 528.86 542.547 529.18 542.44C529.5 542.333 529.863 542.28 530.268 542.28C530.631 542.28 530.962 542.344 531.26 542.472C531.474 542.557 531.623 542.643 531.708 542.728C531.815 542.792 531.868 542.888 531.868 543.016C531.868 543.059 531.858 543.112 531.836 543.176C531.836 543.219 531.826 543.283 531.804 543.368L531.484 544.2H531.42L530.812 543.912C530.514 543.763 530.119 543.688 529.628 543.688C529.01 543.688 528.391 543.859 527.772 544.2C527.154 544.541 526.535 545.139 525.916 545.992V555.976L528.38 556.52V557H522.3ZM536.327 537.224C535.985 537.224 535.697 537.107 535.463 536.872C535.228 536.637 535.111 536.349 535.111 536.008C535.111 535.667 535.228 535.379 535.463 535.144C535.697 534.909 535.985 534.792 536.327 534.792C536.668 534.792 536.956 534.909 537.191 535.144C537.425 535.379 537.543 535.667 537.543 536.008C537.543 536.349 537.425 536.637 537.191 536.872C536.956 537.107 536.668 537.224 536.327 537.224ZM533.959 557V556.52L535.975 555.976V543.816L533.639 543.208V542.728L537.255 542.28H537.575V555.976L539.847 556.52V557H533.959ZM547.935 557.32C547.06 557.32 546.346 557.043 545.791 556.488C545.258 555.933 544.991 555.155 544.991 554.152V543.688H542.175V543.4L545.183 542.6L546.239 539.08H546.591V542.6H550.815V543.688H546.591V554.088C546.591 554.749 546.794 555.251 547.199 555.592C547.604 555.912 548.138 556.072 548.799 556.072C549.268 556.072 549.695 556.019 550.079 555.912C550.463 555.805 550.826 555.656 551.167 555.464L551.199 555.496V555.624C551.028 555.987 550.666 556.36 550.111 556.744C549.556 557.128 548.831 557.32 547.935 557.32ZM558.529 557.32C557.655 557.32 556.94 557.043 556.385 556.488C555.852 555.933 555.585 555.155 555.585 554.152V543.688H552.769V543.4L555.777 542.6L556.833 539.08H557.185V542.6H561.409V543.688H557.185V554.088C557.185 554.749 557.388 555.251 557.793 555.592C558.199 555.912 558.732 556.072 559.393 556.072C559.863 556.072 560.289 556.019 560.673 555.912C561.057 555.805 561.42 555.656 561.761 555.464L561.793 555.496V555.624C561.623 555.987 561.26 556.36 560.705 556.744C560.151 557.128 559.425 557.32 558.529 557.32ZM571.332 557.32C569.817 557.32 568.537 557 567.492 556.36C566.468 555.72 565.689 554.856 565.156 553.768C564.644 552.68 564.388 551.453 564.388 550.088C564.388 548.637 564.687 547.325 565.284 546.152C565.903 544.979 566.703 544.04 567.684 543.336C568.687 542.632 569.775 542.28 570.948 542.28C572.633 542.28 573.956 542.835 574.916 543.944C575.876 545.053 576.431 546.589 576.58 548.552L576.484 548.648H566.02C565.999 548.968 565.988 549.309 565.988 549.672C565.988 551.549 566.489 553.075 567.492 554.248C568.516 555.4 569.945 555.976 571.78 555.976C572.783 555.976 573.689 555.827 574.5 555.528C575.332 555.229 575.983 554.824 576.452 554.312H576.548V554.728C576.079 555.475 575.385 556.093 574.468 556.584C573.572 557.075 572.527 557.32 571.332 557.32ZM570.564 542.984C569.519 542.984 568.58 543.421 567.748 544.296C566.916 545.149 566.372 546.365 566.116 547.944H574.82C574.607 546.387 574.169 545.171 573.508 544.296C572.847 543.421 571.865 542.984 570.564 542.984ZM580.082 557V556.52L582.098 555.976V543.816L579.762 543.528V543.048L583.218 542.28H583.538L583.666 544.584H583.762C584.552 543.773 585.298 543.187 586.002 542.824C586.706 542.461 587.496 542.28 588.37 542.28C589.714 542.28 590.813 542.653 591.666 543.4C592.541 544.147 592.978 545.235 592.978 546.664V555.976L594.994 556.52V557H589.106V556.52L591.378 555.976V547.528C591.378 546.227 591.026 545.245 590.322 544.584C589.64 543.901 588.733 543.56 587.602 543.56C586.962 543.56 586.269 543.72 585.522 544.04C584.776 544.339 584.168 544.776 583.698 545.352V555.976L585.97 556.52V557H580.082ZM597.955 563.112V562.504C598.808 562.056 599.459 561.576 599.907 561.064C600.355 560.552 600.579 559.923 600.579 559.176C600.579 558.557 600.419 558.056 600.099 557.672C599.8 557.309 599.459 556.989 599.075 556.712L598.179 556.104V555.912L598.659 555.176C598.766 555.005 598.872 554.856 598.979 554.728C599.107 554.6 599.246 554.536 599.395 554.536C599.587 554.536 599.822 554.621 600.099 554.792C600.675 555.155 601.102 555.645 601.379 556.264C601.678 556.883 601.827 557.544 601.827 558.248C601.827 559.123 601.539 559.997 600.963 560.872C600.408 561.747 599.406 562.493 597.955 563.112ZM618.582 557.32C617.515 557.32 616.566 557.043 615.734 556.488C614.902 555.933 614.24 555.155 613.75 554.152C613.28 553.128 613.046 551.912 613.046 550.504C613.046 548.755 613.387 547.272 614.07 546.056C614.752 544.819 615.659 543.88 616.79 543.24C617.92 542.6 619.168 542.28 620.534 542.28C621.003 542.28 621.494 542.365 622.006 542.536C622.518 542.685 623.019 542.888 623.51 543.144V534.536L621.174 533.928V533.448L624.79 533H625.11V555.976L627.382 556.52V557H623.83L623.542 555.368H623.382C622.656 555.987 621.899 556.467 621.11 556.808C620.342 557.149 619.499 557.32 618.582 557.32ZM614.55 549.992C614.55 551.421 614.784 552.605 615.254 553.544C615.723 554.461 616.331 555.144 617.078 555.592C617.846 556.019 618.635 556.232 619.446 556.232C620.15 556.232 620.854 556.104 621.558 555.848C622.262 555.592 622.912 555.176 623.51 554.6V544.296C622.848 543.933 622.187 543.645 621.526 543.432C620.864 543.219 620.16 543.112 619.414 543.112C618.539 543.112 617.728 543.336 616.982 543.784C616.256 544.232 615.67 544.968 615.222 545.992C614.774 546.995 614.55 548.328 614.55 549.992ZM633.364 537.224C633.023 537.224 632.735 537.107 632.5 536.872C632.265 536.637 632.148 536.349 632.148 536.008C632.148 535.667 632.265 535.379 632.5 535.144C632.735 534.909 633.023 534.792 633.364 534.792C633.705 534.792 633.993 534.909 634.228 535.144C634.463 535.379 634.58 535.667 634.58 536.008C634.58 536.349 634.463 536.637 634.228 536.872C633.993 537.107 633.705 537.224 633.364 537.224ZM630.996 557V556.52L633.012 555.976V543.816L630.676 543.208V542.728L634.292 542.28H634.612V555.976L636.884 556.52V557H630.996ZM645.708 557.32C644.642 557.32 643.692 557.043 642.86 556.488C642.028 555.933 641.367 555.155 640.876 554.152C640.407 553.128 640.172 551.912 640.172 550.504C640.172 548.755 640.514 547.272 641.196 546.056C641.879 544.819 642.786 543.88 643.916 543.24C645.047 542.6 646.295 542.28 647.66 542.28C648.13 542.28 648.62 542.365 649.132 542.536C649.644 542.685 650.146 542.888 650.636 543.144V534.536L648.3 533.928V533.448L651.916 533H652.236V555.976L654.508 556.52V557H650.956L650.668 555.368H650.508C649.783 555.987 649.026 556.467 648.236 556.808C647.468 557.149 646.626 557.32 645.708 557.32ZM641.676 549.992C641.676 551.421 641.911 552.605 642.38 553.544C642.85 554.461 643.458 555.144 644.204 555.592C644.972 556.019 645.762 556.232 646.572 556.232C647.276 556.232 647.98 556.104 648.684 555.848C649.388 555.592 650.039 555.176 650.636 554.6V544.296C649.975 543.933 649.314 543.645 648.652 543.432C647.991 543.219 647.287 543.112 646.54 543.112C645.666 543.112 644.855 543.336 644.108 543.784C643.383 544.232 642.796 544.968 642.348 545.992C641.9 546.995 641.676 548.328 641.676 549.992ZM666.347 557V556.2L668.843 555.656V537.224L666.347 536.68V535.88H673.259V536.68L670.763 537.224V555.656L673.259 556.2V557H666.347ZM685.561 557V556.52L687.577 555.976V543.816L685.241 543.528V543.048L688.697 542.28H689.017L689.177 545.128H689.241C690.073 544.253 690.734 543.613 691.225 543.208C691.715 542.803 692.121 542.547 692.441 542.44C692.761 542.333 693.123 542.28 693.529 542.28C693.891 542.28 694.222 542.344 694.521 542.472C694.734 542.557 694.883 542.643 694.969 542.728C695.075 542.792 695.129 542.888 695.129 543.016C695.129 543.059 695.118 543.112 695.097 543.176C695.097 543.219 695.086 543.283 695.065 543.368L694.745 544.2H694.681L694.073 543.912C693.774 543.763 693.379 543.688 692.889 543.688C692.27 543.688 691.651 543.859 691.033 544.2C690.414 544.541 689.795 545.139 689.177 545.992V555.976L691.641 556.52V557H685.561ZM703.715 557.32C702.201 557.32 700.921 557 699.875 556.36C698.851 555.72 698.073 554.856 697.539 553.768C697.027 552.68 696.771 551.453 696.771 550.088C696.771 548.637 697.07 547.325 697.667 546.152C698.286 544.979 699.086 544.04 700.067 543.336C701.07 542.632 702.158 542.28 703.331 542.28C705.017 542.28 706.339 542.835 707.299 543.944C708.259 545.053 708.814 546.589 708.963 548.552L708.867 548.648H698.403C698.382 548.968 698.371 549.309 698.371 549.672C698.371 551.549 698.873 553.075 699.875 554.248C700.899 555.4 702.329 555.976 704.163 555.976C705.166 555.976 706.073 555.827 706.883 555.528C707.715 555.229 708.366 554.824 708.835 554.312H708.931V554.728C708.462 555.475 707.769 556.093 706.851 556.584C705.955 557.075 704.91 557.32 703.715 557.32ZM702.947 542.984C701.902 542.984 700.963 543.421 700.131 544.296C699.299 545.149 698.755 546.365 698.499 547.944H707.203C706.99 546.387 706.553 545.171 705.891 544.296C705.23 543.421 704.249 542.984 702.947 542.984ZM715.601 557.32C714.62 557.32 713.799 557.032 713.137 556.456C712.476 555.859 712.145 555.037 712.145 553.992C712.145 552.968 712.508 552.115 713.233 551.432C713.98 550.749 715.207 550.195 716.913 549.768L720.049 548.968V546.312C720.049 545.395 719.719 544.659 719.057 544.104C718.396 543.528 717.639 543.24 716.785 543.24C715.868 543.24 715.217 543.432 714.833 543.816C714.471 544.179 714.289 544.68 714.289 545.32V546.632L714.129 546.792H713.297C712.956 546.792 712.732 546.739 712.625 546.632C712.519 546.525 712.465 546.323 712.465 546.024C712.465 545.619 712.604 545.203 712.881 544.776C713.159 544.349 713.564 543.965 714.097 543.624C714.673 543.261 715.249 542.952 715.825 542.696C716.423 542.419 716.988 542.28 717.521 542.28C718.801 542.28 719.804 542.568 720.529 543.144C721.276 543.699 721.649 544.573 721.649 545.768V555.72C721.82 555.869 722.012 555.987 722.225 556.072C722.46 556.157 722.727 556.2 723.025 556.2H724.689L724.721 556.232V556.296C724.572 556.509 724.327 556.733 723.985 556.968C723.644 557.203 723.185 557.32 722.609 557.32C721.863 557.32 721.287 557.128 720.881 556.744C720.476 556.36 720.231 555.912 720.145 555.4H720.081C719.527 555.955 718.855 556.413 718.065 556.776C717.297 557.139 716.476 557.32 715.601 557.32ZM713.745 553.416C713.745 554.291 713.991 554.952 714.481 555.4C714.972 555.827 715.665 556.04 716.561 556.04C717.095 556.04 717.671 555.965 718.289 555.816C718.908 555.645 719.495 555.389 720.049 555.048V549.64C718.279 550.003 716.935 550.365 716.017 550.728C715.121 551.091 714.513 551.485 714.193 551.912C713.895 552.339 713.745 552.84 713.745 553.416ZM726.838 557V556.52L728.854 555.976V534.536L726.518 533.928V533.448L730.134 533H730.454V555.976L732.726 556.52V557H726.838ZM738.59 537.224C738.248 537.224 737.96 537.107 737.726 536.872C737.491 536.637 737.374 536.349 737.374 536.008C737.374 535.667 737.491 535.379 737.726 535.144C737.96 534.909 738.248 534.792 738.59 534.792C738.931 534.792 739.219 534.909 739.454 535.144C739.688 535.379 739.806 535.667 739.806 536.008C739.806 536.349 739.688 536.637 739.454 536.872C739.219 537.107 738.931 537.224 738.59 537.224ZM736.222 557V556.52L738.238 555.976V543.816L735.902 543.208V542.728L739.518 542.28H739.838V555.976L742.11 556.52V557H736.222ZM749.686 557.32C748.939 557.32 748.267 557.235 747.67 557.064C747.094 556.915 746.496 556.691 745.878 556.392V553.064H746.262L746.71 554.504C746.902 555.144 747.254 555.656 747.766 556.04C748.278 556.403 749.003 556.584 749.942 556.584C750.966 556.584 751.755 556.339 752.31 555.848C752.886 555.336 753.174 554.611 753.174 553.672C753.174 552.84 752.95 552.189 752.502 551.72C752.054 551.229 751.222 550.739 750.006 550.248C748.726 549.736 747.776 549.181 747.158 548.584C746.56 547.987 746.262 547.133 746.262 546.024C746.262 545.341 746.443 544.723 746.806 544.168C747.19 543.592 747.691 543.133 748.31 542.792C748.928 542.451 749.59 542.28 750.294 542.28C751.083 542.28 751.787 542.376 752.406 542.568C753.024 542.739 753.558 542.941 754.006 543.176V546.44H753.622L753.206 545.064C752.992 544.317 752.587 543.784 751.99 543.464C751.414 543.144 750.827 542.984 750.23 542.984C749.398 542.984 748.758 543.229 748.31 543.72C747.883 544.211 747.67 544.851 747.67 545.64C747.67 546.429 747.904 547.048 748.374 547.496C748.843 547.944 749.6 548.381 750.646 548.808C751.584 549.192 752.342 549.565 752.918 549.928C753.515 550.291 753.952 550.739 754.23 551.272C754.507 551.784 754.646 552.445 754.646 553.256C754.646 553.981 754.443 554.653 754.038 555.272C753.632 555.891 753.056 556.392 752.31 556.776C751.563 557.139 750.688 557.32 749.686 557.32ZM765.406 557.32C763.892 557.32 762.612 557 761.566 556.36C760.542 555.72 759.764 554.856 759.23 553.768C758.718 552.68 758.462 551.453 758.462 550.088C758.462 548.637 758.761 547.325 759.358 546.152C759.977 544.979 760.777 544.04 761.758 543.336C762.761 542.632 763.849 542.28 765.022 542.28C766.708 542.28 768.03 542.835 768.99 543.944C769.95 545.053 770.505 546.589 770.654 548.552L770.558 548.648H760.094C760.073 548.968 760.062 549.309 760.062 549.672C760.062 551.549 760.564 553.075 761.566 554.248C762.59 555.4 764.02 555.976 765.854 555.976C766.857 555.976 767.764 555.827 768.574 555.528C769.406 555.229 770.057 554.824 770.526 554.312H770.622V554.728C770.153 555.475 769.46 556.093 768.542 556.584C767.646 557.075 766.601 557.32 765.406 557.32ZM764.638 542.984C763.593 542.984 762.654 543.421 761.822 544.296C760.99 545.149 760.446 546.365 760.19 547.944H768.894C768.681 546.387 768.244 545.171 767.582 544.296C766.921 543.421 765.94 542.984 764.638 542.984ZM785.325 557.32C784.343 557.32 783.522 557.032 782.861 556.456C782.199 555.859 781.869 555.037 781.869 553.992C781.869 552.968 782.231 552.115 782.957 551.432C783.703 550.749 784.93 550.195 786.637 549.768L789.773 548.968V546.312C789.773 545.395 789.442 544.659 788.781 544.104C788.119 543.528 787.362 543.24 786.509 543.24C785.591 543.24 784.941 543.432 784.557 543.816C784.194 544.179 784.013 544.68 784.013 545.32V546.632L783.853 546.792H783.021C782.679 546.792 782.455 546.739 782.349 546.632C782.242 546.525 782.189 546.323 782.189 546.024C782.189 545.619 782.327 545.203 782.605 544.776C782.882 544.349 783.287 543.965 783.821 543.624C784.397 543.261 784.973 542.952 785.549 542.696C786.146 542.419 786.711 542.28 787.245 542.28C788.525 542.28 789.527 542.568 790.253 543.144C790.999 543.699 791.373 544.573 791.373 545.768V555.72C791.543 555.869 791.735 555.987 791.949 556.072C792.183 556.157 792.45 556.2 792.749 556.2H794.413L794.445 556.232V556.296C794.295 556.509 794.05 556.733 793.709 556.968C793.367 557.203 792.909 557.32 792.333 557.32C791.586 557.32 791.01 557.128 790.605 556.744C790.199 556.36 789.954 555.912 789.869 555.4H789.805C789.25 555.955 788.578 556.413 787.789 556.776C787.021 557.139 786.199 557.32 785.325 557.32ZM783.469 553.416C783.469 554.291 783.714 554.952 784.205 555.4C784.695 555.827 785.389 556.04 786.285 556.04C786.818 556.04 787.394 555.965 788.013 555.816C788.631 555.645 789.218 555.389 789.773 555.048V549.64C788.002 550.003 786.658 550.365 785.741 550.728C784.845 551.091 784.237 551.485 783.917 551.912C783.618 552.339 783.469 552.84 783.469 553.416ZM122.65 606.32C121.157 606.32 119.898 606 118.874 605.36C117.872 604.72 117.104 603.856 116.57 602.768C116.058 601.68 115.802 600.453 115.802 599.088C115.802 597.595 116.101 596.261 116.698 595.088C117.317 593.893 118.16 592.965 119.226 592.304C120.314 591.621 121.541 591.28 122.906 591.28C123.76 591.28 124.517 591.397 125.178 591.632C125.84 591.867 126.373 592.123 126.778 592.4C127.461 592.869 127.802 593.275 127.802 593.616C127.802 593.765 127.728 593.904 127.578 594.032L126.714 594.768H126.586L126.17 594.192C125.701 593.552 125.189 593.029 124.634 592.624C124.101 592.197 123.408 591.984 122.554 591.984C121.061 591.984 119.824 592.549 118.842 593.68C117.882 594.789 117.402 596.453 117.402 598.672C117.402 600.549 117.893 602.075 118.874 603.248C119.877 604.4 121.285 604.976 123.098 604.976C124.08 604.976 124.986 604.827 125.818 604.528C126.65 604.229 127.301 603.824 127.77 603.312H127.866V603.728C127.376 604.475 126.682 605.093 125.786 605.584C124.89 606.075 123.845 606.32 122.65 606.32ZM137.488 606.32C136.187 606.32 135.045 605.989 134.064 605.328C133.083 604.667 132.315 603.771 131.76 602.64C131.205 601.509 130.928 600.229 130.928 598.8C130.928 597.371 131.205 596.091 131.76 594.96C132.315 593.829 133.083 592.933 134.064 592.272C135.045 591.611 136.187 591.28 137.488 591.28C138.789 591.28 139.931 591.611 140.912 592.272C141.893 592.933 142.661 593.829 143.216 594.96C143.771 596.091 144.048 597.371 144.048 598.8C144.048 600.229 143.771 601.509 143.216 602.64C142.661 603.771 141.893 604.667 140.912 605.328C139.931 605.989 138.789 606.32 137.488 606.32ZM137.936 605.584C138.917 605.584 139.739 605.296 140.4 604.72C141.083 604.123 141.595 603.355 141.936 602.416C142.277 601.477 142.448 600.485 142.448 599.44C142.448 598.053 142.245 596.805 141.84 595.696C141.435 594.565 140.827 593.669 140.016 593.008C139.227 592.325 138.256 591.984 137.104 591.984C136.144 591.984 135.323 592.261 134.64 592.816C133.957 593.349 133.435 594.085 133.072 595.024C132.709 595.941 132.528 596.976 132.528 598.128C132.528 599.515 132.741 600.773 133.168 601.904C133.616 603.035 134.235 603.931 135.024 604.592C135.835 605.253 136.805 605.584 137.936 605.584ZM147.656 606V605.52L149.672 604.976V592.816L147.336 592.528V592.048L150.792 591.28H151.112L151.272 594.128H151.336C152.168 593.253 152.83 592.613 153.32 592.208C153.811 591.803 154.216 591.547 154.536 591.44C154.856 591.333 155.219 591.28 155.624 591.28C155.987 591.28 156.318 591.344 156.616 591.472C156.83 591.557 156.979 591.643 157.064 591.728C157.171 591.792 157.224 591.888 157.224 592.016C157.224 592.059 157.214 592.112 157.192 592.176C157.192 592.219 157.182 592.283 157.16 592.368L156.84 593.2H156.776L156.168 592.912C155.87 592.763 155.475 592.688 154.984 592.688C154.366 592.688 153.747 592.859 153.128 593.2C152.51 593.541 151.891 594.139 151.272 594.992V604.976L153.736 605.52V606H147.656ZM159.251 606V605.52L161.267 604.976V592.816L158.931 592.528V592.048L162.387 591.28H162.707L162.867 594.128H162.931C163.763 593.253 164.424 592.613 164.915 592.208C165.406 591.803 165.811 591.547 166.131 591.44C166.451 591.333 166.814 591.28 167.219 591.28C167.582 591.28 167.912 591.344 168.211 591.472C168.424 591.557 168.574 591.643 168.659 591.728C168.766 591.792 168.819 591.888 168.819 592.016C168.819 592.059 168.808 592.112 168.787 592.176C168.787 592.219 168.776 592.283 168.755 592.368L168.435 593.2H168.371L167.763 592.912C167.464 592.763 167.07 592.688 166.579 592.688C165.96 592.688 165.342 592.859 164.723 593.2C164.104 593.541 163.486 594.139 162.867 594.992V604.976L165.331 605.52V606H159.251ZM177.405 606.32C175.891 606.32 174.611 606 173.565 605.36C172.541 604.72 171.763 603.856 171.229 602.768C170.717 601.68 170.461 600.453 170.461 599.088C170.461 597.637 170.76 596.325 171.357 595.152C171.976 593.979 172.776 593.04 173.757 592.336C174.76 591.632 175.848 591.28 177.021 591.28C178.707 591.28 180.029 591.835 180.989 592.944C181.949 594.053 182.504 595.589 182.653 597.552L182.557 597.648H172.093C172.072 597.968 172.061 598.309 172.061 598.672C172.061 600.549 172.563 602.075 173.565 603.248C174.589 604.4 176.019 604.976 177.853 604.976C178.856 604.976 179.763 604.827 180.573 604.528C181.405 604.229 182.056 603.824 182.525 603.312H182.621V603.728C182.152 604.475 181.459 605.093 180.541 605.584C179.645 606.075 178.6 606.32 177.405 606.32ZM176.637 591.984C175.592 591.984 174.653 592.421 173.821 593.296C172.989 594.149 172.445 595.365 172.189 596.944H180.893C180.68 595.387 180.243 594.171 179.581 593.296C178.92 592.421 177.939 591.984 176.637 591.984ZM190.124 606.32C189.377 606.32 188.705 606.235 188.108 606.064C187.532 605.915 186.934 605.691 186.316 605.392V602.064H186.7L187.148 603.504C187.34 604.144 187.692 604.656 188.204 605.04C188.716 605.403 189.441 605.584 190.38 605.584C191.404 605.584 192.193 605.339 192.748 604.848C193.324 604.336 193.612 603.611 193.612 602.672C193.612 601.84 193.388 601.189 192.94 600.72C192.492 600.229 191.66 599.739 190.444 599.248C189.164 598.736 188.214 598.181 187.596 597.584C186.998 596.987 186.7 596.133 186.7 595.024C186.7 594.341 186.881 593.723 187.244 593.168C187.628 592.592 188.129 592.133 188.748 591.792C189.366 591.451 190.028 591.28 190.732 591.28C191.521 591.28 192.225 591.376 192.844 591.568C193.462 591.739 193.996 591.941 194.444 592.176V595.44H194.06L193.644 594.064C193.43 593.317 193.025 592.784 192.428 592.464C191.852 592.144 191.265 591.984 190.668 591.984C189.836 591.984 189.196 592.229 188.748 592.72C188.321 593.211 188.108 593.851 188.108 594.64C188.108 595.429 188.342 596.048 188.812 596.496C189.281 596.944 190.038 597.381 191.084 597.808C192.022 598.192 192.78 598.565 193.356 598.928C193.953 599.291 194.39 599.739 194.668 600.272C194.945 600.784 195.084 601.445 195.084 602.256C195.084 602.981 194.881 603.653 194.476 604.272C194.07 604.891 193.494 605.392 192.748 605.776C192.001 606.139 191.126 606.32 190.124 606.32ZM199.156 613.36V612.88L201.172 612.336V592.816L198.836 592.528V592.048L202.292 591.28H202.612L202.74 593.264H202.9C203.711 592.581 204.49 592.08 205.236 591.76C206.004 591.44 206.826 591.28 207.7 591.28C208.767 591.28 209.716 591.557 210.548 592.112C211.38 592.667 212.031 593.456 212.5 594.48C212.991 595.483 213.236 596.688 213.236 598.096C213.236 599.845 212.895 601.339 212.212 602.576C211.53 603.792 210.623 604.72 209.492 605.36C208.362 606 207.114 606.32 205.748 606.32C205.279 606.32 204.788 606.235 204.276 606.064C203.764 605.915 203.263 605.712 202.772 605.456V612.336L205.044 612.88V613.36H199.156ZM206.836 592.368C206.047 592.368 205.311 592.507 204.628 592.784C203.967 593.061 203.348 593.456 202.772 593.968V604.176C203.434 604.603 204.084 604.933 204.724 605.168C205.364 605.381 206.079 605.488 206.868 605.488C207.743 605.488 208.543 605.264 209.268 604.816C210.015 604.368 210.612 603.643 211.06 602.64C211.508 601.616 211.732 600.272 211.732 598.608C211.732 597.179 211.498 596.005 211.028 595.088C210.559 594.149 209.94 593.467 209.172 593.04C208.426 592.592 207.647 592.368 206.836 592.368ZM223.586 606.32C222.285 606.32 221.144 605.989 220.162 605.328C219.181 604.667 218.413 603.771 217.858 602.64C217.304 601.509 217.026 600.229 217.026 598.8C217.026 597.371 217.304 596.091 217.858 594.96C218.413 593.829 219.181 592.933 220.162 592.272C221.144 591.611 222.285 591.28 223.586 591.28C224.888 591.28 226.029 591.611 227.01 592.272C227.992 592.933 228.76 593.829 229.314 594.96C229.869 596.091 230.146 597.371 230.146 598.8C230.146 600.229 229.869 601.509 229.314 602.64C228.76 603.771 227.992 604.667 227.01 605.328C226.029 605.989 224.888 606.32 223.586 606.32ZM224.034 605.584C225.016 605.584 225.837 605.296 226.498 604.72C227.181 604.123 227.693 603.355 228.034 602.416C228.376 601.477 228.546 600.485 228.546 599.44C228.546 598.053 228.344 596.805 227.938 595.696C227.533 594.565 226.925 593.669 226.114 593.008C225.325 592.325 224.354 591.984 223.202 591.984C222.242 591.984 221.421 592.261 220.738 592.816C220.056 593.349 219.533 594.085 219.17 595.024C218.808 595.941 218.626 596.976 218.626 598.128C218.626 599.515 218.84 600.773 219.266 601.904C219.714 603.035 220.333 603.931 221.122 604.592C221.933 605.253 222.904 605.584 224.034 605.584ZM233.627 606V605.52L235.643 604.976V592.816L233.307 592.528V592.048L236.763 591.28H237.083L237.211 593.584H237.307C238.096 592.773 238.843 592.187 239.547 591.824C240.251 591.461 241.04 591.28 241.915 591.28C243.259 591.28 244.357 591.653 245.211 592.4C246.085 593.147 246.523 594.235 246.523 595.664V604.976L248.539 605.52V606H242.651V605.52L244.923 604.976V596.528C244.923 595.227 244.571 594.245 243.867 593.584C243.184 592.901 242.277 592.56 241.147 592.56C240.507 592.56 239.813 592.72 239.067 593.04C238.32 593.339 237.712 593.776 237.243 594.352V604.976L239.515 605.52V606H233.627ZM256.843 606.32C255.777 606.32 254.827 606.043 253.995 605.488C253.163 604.933 252.502 604.155 252.011 603.152C251.542 602.128 251.307 600.912 251.307 599.504C251.307 597.755 251.649 596.272 252.331 595.056C253.014 593.819 253.921 592.88 255.051 592.24C256.182 591.6 257.43 591.28 258.795 591.28C259.265 591.28 259.755 591.365 260.267 591.536C260.779 591.685 261.281 591.888 261.771 592.144V583.536L259.435 582.928V582.448L263.051 582H263.371V604.976L265.643 605.52V606H262.091L261.803 604.368H261.643C260.918 604.987 260.161 605.467 259.371 605.808C258.603 606.149 257.761 606.32 256.843 606.32ZM252.811 598.992C252.811 600.421 253.046 601.605 253.515 602.544C253.985 603.461 254.593 604.144 255.339 604.592C256.107 605.019 256.897 605.232 257.707 605.232C258.411 605.232 259.115 605.104 259.819 604.848C260.523 604.592 261.174 604.176 261.771 603.6V593.296C261.11 592.933 260.449 592.645 259.787 592.432C259.126 592.219 258.422 592.112 257.675 592.112C256.801 592.112 255.99 592.336 255.243 592.784C254.518 593.232 253.931 593.968 253.483 594.992C253.035 595.995 252.811 597.328 252.811 598.992ZM275.754 606.32C274.239 606.32 272.959 606 271.914 605.36C270.89 604.72 270.111 603.856 269.578 602.768C269.066 601.68 268.81 600.453 268.81 599.088C268.81 597.637 269.108 596.325 269.706 595.152C270.324 593.979 271.124 593.04 272.106 592.336C273.108 591.632 274.196 591.28 275.37 591.28C277.055 591.28 278.378 591.835 279.338 592.944C280.298 594.053 280.852 595.589 281.002 597.552L280.906 597.648H270.442C270.42 597.968 270.41 598.309 270.41 598.672C270.41 600.549 270.911 602.075 271.914 603.248C272.938 604.4 274.367 604.976 276.202 604.976C277.204 604.976 278.111 604.827 278.922 604.528C279.754 604.229 280.404 603.824 280.874 603.312H280.97V603.728C280.5 604.475 279.807 605.093 278.89 605.584C277.994 606.075 276.948 606.32 275.754 606.32ZM274.986 591.984C273.94 591.984 273.002 592.421 272.17 593.296C271.338 594.149 270.794 595.365 270.538 596.944H279.242C279.028 595.387 278.591 594.171 277.93 593.296C277.268 592.421 276.287 591.984 274.986 591.984ZM284.504 606V605.52L286.52 604.976V592.816L284.184 592.528V592.048L287.64 591.28H287.96L288.088 593.584H288.184C288.973 592.773 289.72 592.187 290.424 591.824C291.128 591.461 291.917 591.28 292.792 591.28C294.136 591.28 295.235 591.653 296.088 592.4C296.963 593.147 297.4 594.235 297.4 595.664V604.976L299.416 605.52V606H293.528V605.52L295.8 604.976V596.528C295.8 595.227 295.448 594.245 294.744 593.584C294.061 592.901 293.155 592.56 292.024 592.56C291.384 592.56 290.691 592.72 289.944 593.04C289.197 593.339 288.589 593.776 288.12 594.352V604.976L290.392 605.52V606H284.504ZM309.097 606.32C307.603 606.32 306.345 606 305.321 605.36C304.318 604.72 303.55 603.856 303.017 602.768C302.505 601.68 302.249 600.453 302.249 599.088C302.249 597.595 302.547 596.261 303.145 595.088C303.763 593.893 304.606 592.965 305.673 592.304C306.761 591.621 307.987 591.28 309.353 591.28C310.206 591.28 310.963 591.397 311.625 591.632C312.286 591.867 312.819 592.123 313.225 592.4C313.907 592.869 314.249 593.275 314.249 593.616C314.249 593.765 314.174 593.904 314.025 594.032L313.161 594.768H313.033L312.617 594.192C312.147 593.552 311.635 593.029 311.081 592.624C310.547 592.197 309.854 591.984 309.001 591.984C307.507 591.984 306.27 592.549 305.289 593.68C304.329 594.789 303.849 596.453 303.849 598.672C303.849 600.549 304.339 602.075 305.321 603.248C306.323 604.4 307.731 604.976 309.545 604.976C310.526 604.976 311.433 604.827 312.265 604.528C313.097 604.229 313.747 603.824 314.217 603.312H314.313V603.728C313.822 604.475 313.129 605.093 312.233 605.584C311.337 606.075 310.291 606.32 309.097 606.32ZM324.318 606.32C322.804 606.32 321.524 606 320.478 605.36C319.454 604.72 318.676 603.856 318.142 602.768C317.63 601.68 317.374 600.453 317.374 599.088C317.374 597.637 317.673 596.325 318.27 595.152C318.889 593.979 319.689 593.04 320.67 592.336C321.673 591.632 322.761 591.28 323.934 591.28C325.62 591.28 326.942 591.835 327.902 592.944C328.862 594.053 329.417 595.589 329.566 597.552L329.47 597.648H319.006C318.985 597.968 318.974 598.309 318.974 598.672C318.974 600.549 319.476 602.075 320.478 603.248C321.502 604.4 322.932 604.976 324.766 604.976C325.769 604.976 326.676 604.827 327.486 604.528C328.318 604.229 328.969 603.824 329.438 603.312H329.534V603.728C329.065 604.475 328.372 605.093 327.454 605.584C326.558 606.075 325.513 606.32 324.318 606.32ZM323.55 591.984C322.505 591.984 321.566 592.421 320.734 593.296C319.902 594.149 319.358 595.365 319.102 596.944H327.806C327.593 595.387 327.156 594.171 326.494 593.296C325.833 592.421 324.852 591.984 323.55 591.984ZM345.581 606.32C344.706 606.32 343.991 606.043 343.437 605.488C342.903 604.933 342.637 604.155 342.637 603.152V592.688H339.821V592.4L342.829 591.6L343.885 588.08H344.237V591.6H348.461V592.688H344.237V603.088C344.237 603.749 344.439 604.251 344.845 604.592C345.25 604.912 345.783 605.072 346.445 605.072C346.914 605.072 347.341 605.019 347.725 604.912C348.109 604.805 348.471 604.656 348.813 604.464L348.845 604.496V604.624C348.674 604.987 348.311 605.36 347.757 605.744C347.202 606.128 346.477 606.32 345.581 606.32ZM357.999 606.32C356.698 606.32 355.557 605.989 354.575 605.328C353.594 604.667 352.826 603.771 352.271 602.64C351.717 601.509 351.439 600.229 351.439 598.8C351.439 597.371 351.717 596.091 352.271 594.96C352.826 593.829 353.594 592.933 354.575 592.272C355.557 591.611 356.698 591.28 357.999 591.28C359.301 591.28 360.442 591.611 361.423 592.272C362.405 592.933 363.173 593.829 363.727 594.96C364.282 596.091 364.559 597.371 364.559 598.8C364.559 600.229 364.282 601.509 363.727 602.64C363.173 603.771 362.405 604.667 361.423 605.328C360.442 605.989 359.301 606.32 357.999 606.32ZM358.447 605.584C359.429 605.584 360.25 605.296 360.911 604.72C361.594 604.123 362.106 603.355 362.447 602.416C362.789 601.477 362.959 600.485 362.959 599.44C362.959 598.053 362.757 596.805 362.351 595.696C361.946 594.565 361.338 593.669 360.527 593.008C359.738 592.325 358.767 591.984 357.615 591.984C356.655 591.984 355.834 592.261 355.151 592.816C354.469 593.349 353.946 594.085 353.583 595.024C353.221 595.941 353.039 596.976 353.039 598.128C353.039 599.515 353.253 600.773 353.679 601.904C354.127 603.035 354.746 603.931 355.535 604.592C356.346 605.253 357.317 605.584 358.447 605.584ZM376.072 613.36V612.88L378.088 612.336V592.816L375.752 592.528V592.048L379.208 591.28H379.528L379.656 593.264H379.816C380.626 592.581 381.405 592.08 382.152 591.76C382.92 591.44 383.741 591.28 384.616 591.28C385.682 591.28 386.632 591.557 387.464 592.112C388.296 592.667 388.946 593.456 389.416 594.48C389.906 595.483 390.152 596.688 390.152 598.096C390.152 599.845 389.81 601.339 389.128 602.576C388.445 603.792 387.538 604.72 386.408 605.36C385.277 606 384.029 606.32 382.664 606.32C382.194 606.32 381.704 606.235 381.192 606.064C380.68 605.915 380.178 605.712 379.688 605.456V612.336L381.96 612.88V613.36H376.072ZM383.752 592.368C382.962 592.368 382.226 592.507 381.544 592.784C380.882 593.061 380.264 593.456 379.688 593.968V604.176C380.349 604.603 381 604.933 381.64 605.168C382.28 605.381 382.994 605.488 383.784 605.488C384.658 605.488 385.458 605.264 386.184 604.816C386.93 604.368 387.528 603.643 387.976 602.64C388.424 601.616 388.648 600.272 388.648 598.608C388.648 597.179 388.413 596.005 387.944 595.088C387.474 594.149 386.856 593.467 386.088 593.04C385.341 592.592 384.562 592.368 383.752 592.368ZM396.708 606.32C395.727 606.32 394.906 606.032 394.244 605.456C393.583 604.859 393.252 604.037 393.252 602.992C393.252 601.968 393.615 601.115 394.34 600.432C395.087 599.749 396.314 599.195 398.02 598.768L401.156 597.968V595.312C401.156 594.395 400.826 593.659 400.164 593.104C399.503 592.528 398.746 592.24 397.892 592.24C396.975 592.24 396.324 592.432 395.94 592.816C395.578 593.179 395.396 593.68 395.396 594.32V595.632L395.236 595.792H394.404C394.063 595.792 393.839 595.739 393.732 595.632C393.626 595.525 393.572 595.323 393.572 595.024C393.572 594.619 393.711 594.203 393.988 593.776C394.266 593.349 394.671 592.965 395.204 592.624C395.78 592.261 396.356 591.952 396.932 591.696C397.53 591.419 398.095 591.28 398.628 591.28C399.908 591.28 400.911 591.568 401.636 592.144C402.383 592.699 402.756 593.573 402.756 594.768V604.72C402.927 604.869 403.119 604.987 403.332 605.072C403.567 605.157 403.834 605.2 404.132 605.2H405.796L405.828 605.232V605.296C405.679 605.509 405.434 605.733 405.092 605.968C404.751 606.203 404.292 606.32 403.716 606.32C402.97 606.32 402.394 606.128 401.988 605.744C401.583 605.36 401.338 604.912 401.252 604.4H401.188C400.634 604.955 399.962 605.413 399.172 605.776C398.404 606.139 397.583 606.32 396.708 606.32ZM394.852 602.416C394.852 603.291 395.098 603.952 395.588 604.4C396.079 604.827 396.772 605.04 397.668 605.04C398.202 605.04 398.778 604.965 399.396 604.816C400.015 604.645 400.602 604.389 401.156 604.048V598.64C399.386 599.003 398.042 599.365 397.124 599.728C396.228 600.091 395.62 600.485 395.3 600.912C395.002 601.339 394.852 601.84 394.852 602.416ZM410.633 586.224C410.292 586.224 410.004 586.107 409.769 585.872C409.535 585.637 409.417 585.349 409.417 585.008C409.417 584.667 409.535 584.379 409.769 584.144C410.004 583.909 410.292 583.792 410.633 583.792C410.975 583.792 411.263 583.909 411.497 584.144C411.732 584.379 411.849 584.667 411.849 585.008C411.849 585.349 411.732 585.637 411.497 585.872C411.263 586.107 410.975 586.224 410.633 586.224ZM408.265 606V605.52L410.281 604.976V592.816L407.945 592.208V591.728L411.561 591.28H411.881V604.976L414.153 605.52V606H408.265ZM417.761 606V605.52L419.777 604.976V592.816L417.441 592.528V592.048L420.897 591.28H421.217L421.345 593.584H421.441C422.231 592.773 422.977 592.187 423.681 591.824C424.385 591.461 425.175 591.28 426.049 591.28C427.393 591.28 428.492 591.653 429.345 592.4C430.22 593.147 430.657 594.235 430.657 595.664V604.976L432.673 605.52V606H426.785V605.52L429.057 604.976V596.528C429.057 595.227 428.705 594.245 428.001 593.584C427.319 592.901 426.412 592.56 425.281 592.56C424.641 592.56 423.948 592.72 423.201 593.04C422.455 593.339 421.847 593.776 421.377 594.352V604.976L423.649 605.52V606H417.761ZM440.242 606.32C439.368 606.32 438.653 606.043 438.098 605.488C437.565 604.933 437.298 604.155 437.298 603.152V592.688H434.482V592.4L437.49 591.6L438.546 588.08H438.898V591.6H443.122V592.688H438.898V603.088C438.898 603.749 439.101 604.251 439.506 604.592C439.912 604.912 440.445 605.072 441.106 605.072C441.576 605.072 442.002 605.019 442.386 604.912C442.77 604.805 443.133 604.656 443.474 604.464L443.506 604.496V604.624C443.336 604.987 442.973 605.36 442.418 605.744C441.864 606.128 441.138 606.32 440.242 606.32ZM448.917 586.224C448.575 586.224 448.287 586.107 448.053 585.872C447.818 585.637 447.701 585.349 447.701 585.008C447.701 584.667 447.818 584.379 448.053 584.144C448.287 583.909 448.575 583.792 448.917 583.792C449.258 583.792 449.546 583.909 449.781 584.144C450.015 584.379 450.133 584.667 450.133 585.008C450.133 585.349 450.015 585.637 449.781 585.872C449.546 586.107 449.258 586.224 448.917 586.224ZM446.549 606V605.52L448.565 604.976V592.816L446.229 592.208V591.728L449.845 591.28H450.165V604.976L452.437 605.52V606H446.549ZM456.045 606V605.52L458.061 604.976V592.816L455.725 592.528V592.048L459.181 591.28H459.501L459.629 593.584H459.725C460.514 592.773 461.261 592.187 461.965 591.824C462.669 591.461 463.458 591.28 464.333 591.28C465.677 591.28 466.776 591.653 467.629 592.4C468.504 593.147 468.941 594.235 468.941 595.664V604.976L470.957 605.52V606H465.069V605.52L467.341 604.976V596.528C467.341 595.227 466.989 594.245 466.285 593.584C465.602 592.901 464.696 592.56 463.565 592.56C462.925 592.56 462.232 592.72 461.485 593.04C460.738 593.339 460.13 593.776 459.661 594.352V604.976L461.933 605.52V606H456.045ZM479.582 601.168C478.942 601.168 478.334 601.061 477.758 600.848C477.054 601.147 476.563 601.467 476.286 601.808C476.008 602.149 475.87 602.544 475.87 602.992C475.87 603.717 476.126 604.24 476.638 604.56C477.15 604.88 477.939 605.04 479.006 605.04H482.622C483.88 605.04 484.84 605.339 485.502 605.936C486.184 606.533 486.526 607.355 486.526 608.4C486.526 609.275 486.227 610.117 485.63 610.928C485.032 611.739 484.2 612.4 483.134 612.912C482.067 613.424 480.808 613.68 479.358 613.68C477.502 613.68 476.168 613.307 475.358 612.56C474.547 611.835 474.142 610.939 474.142 609.872C474.142 609.083 474.302 608.4 474.622 607.824L476.574 606.192V606.128C475.187 605.723 474.494 604.88 474.494 603.6C474.494 602.896 474.728 602.309 475.198 601.84L477.086 600.72V600.56C476.318 600.155 475.71 599.579 475.262 598.832C474.814 598.064 474.59 597.2 474.59 596.24C474.59 595.301 474.803 594.459 475.23 593.712C475.678 592.965 476.275 592.379 477.022 591.952C477.768 591.504 478.622 591.28 479.582 591.28C480.051 591.28 480.563 591.344 481.118 591.472C481.672 591.579 482.11 591.707 482.43 591.856L486.782 591.6V592.912L483.55 592.688L483.486 592.752C483.827 593.115 484.083 593.627 484.254 594.288C484.446 594.928 484.542 595.579 484.542 596.24C484.542 597.179 484.328 598.021 483.902 598.768C483.475 599.515 482.888 600.101 482.142 600.528C481.395 600.955 480.542 601.168 479.582 601.168ZM479.902 600.528C480.819 600.528 481.544 600.165 482.078 599.44C482.632 598.693 482.91 597.648 482.91 596.304C482.91 594.832 482.568 593.733 481.886 593.008C481.203 592.261 480.36 591.888 479.358 591.888C478.376 591.888 477.608 592.272 477.054 593.04C476.499 593.787 476.222 594.821 476.222 596.144C476.222 597.616 476.563 598.715 477.246 599.44C477.95 600.165 478.835 600.528 479.902 600.528ZM475.614 609.52C475.614 610.501 476.019 611.323 476.83 611.984C477.662 612.645 478.675 612.976 479.87 612.976C480.894 612.976 481.8 612.784 482.59 612.4C483.379 612.037 483.998 611.547 484.446 610.928C484.894 610.331 485.118 609.691 485.118 609.008C485.118 607.984 484.851 607.28 484.318 606.896C483.806 606.512 482.878 606.32 481.534 606.32H478.174C477.854 606.32 477.544 606.299 477.246 606.256C476.627 606.619 476.2 607.056 475.966 607.568C475.731 608.101 475.614 608.752 475.614 609.52ZM494.233 606.32C493.487 606.32 492.815 606.235 492.217 606.064C491.641 605.915 491.044 605.691 490.425 605.392V602.064H490.809L491.257 603.504C491.449 604.144 491.801 604.656 492.313 605.04C492.825 605.403 493.551 605.584 494.489 605.584C495.513 605.584 496.303 605.339 496.857 604.848C497.433 604.336 497.721 603.611 497.721 602.672C497.721 601.84 497.497 601.189 497.049 600.72C496.601 600.229 495.769 599.739 494.553 599.248C493.273 598.736 492.324 598.181 491.705 597.584C491.108 596.987 490.809 596.133 490.809 595.024C490.809 594.341 490.991 593.723 491.353 593.168C491.737 592.592 492.239 592.133 492.857 591.792C493.476 591.451 494.137 591.28 494.841 591.28C495.631 591.28 496.335 591.376 496.953 591.568C497.572 591.739 498.105 591.941 498.553 592.176V595.44H498.169L497.753 594.064C497.54 593.317 497.135 592.784 496.537 592.464C495.961 592.144 495.375 591.984 494.777 591.984C493.945 591.984 493.305 592.229 492.857 592.72C492.431 593.211 492.217 593.851 492.217 594.64C492.217 595.429 492.452 596.048 492.921 596.496C493.391 596.944 494.148 597.381 495.193 597.808C496.132 598.192 496.889 598.565 497.465 598.928C498.063 599.291 498.5 599.739 498.777 600.272C499.055 600.784 499.193 601.445 499.193 602.256C499.193 602.981 498.991 603.653 498.585 604.272C498.18 604.891 497.604 605.392 496.857 605.776C496.111 606.139 495.236 606.32 494.233 606.32ZM513.154 606V583.536L510.818 583.088V582.608L514.434 582H514.754V593.264H514.882C515.693 592.581 516.482 592.08 517.25 591.76C518.018 591.44 518.829 591.28 519.682 591.28C520.749 591.28 521.698 591.557 522.53 592.112C523.362 592.667 524.013 593.456 524.482 594.48C524.973 595.483 525.218 596.688 525.218 598.096C525.218 599.845 524.877 601.339 524.194 602.576C523.511 603.792 522.605 604.72 521.474 605.36C520.343 606 519.095 606.32 517.73 606.32C517.175 606.32 516.567 606.203 515.906 605.968C515.266 605.733 514.669 605.445 514.114 605.104L513.442 606H513.154ZM518.818 592.368C518.029 592.368 517.293 592.507 516.61 592.784C515.949 593.061 515.33 593.456 514.754 593.968V604.176C515.415 604.603 516.066 604.933 516.706 605.168C517.346 605.381 518.061 605.488 518.85 605.488C519.703 605.488 520.503 605.264 521.25 604.816C521.997 604.368 522.594 603.643 523.042 602.64C523.49 601.616 523.714 600.272 523.714 598.608C523.714 597.179 523.479 596.005 523.01 595.088C522.541 594.149 521.933 593.467 521.186 593.04C520.439 592.592 519.65 592.368 518.818 592.368ZM528.442 613.712C527.994 613.712 527.706 613.637 527.578 613.488C527.472 613.36 527.418 613.125 527.418 612.784V612.08L527.61 611.888H529.018C529.552 611.888 529.957 611.845 530.234 611.76C530.512 611.675 530.768 611.44 531.002 611.056C531.237 610.672 531.568 610.043 531.994 609.168L533.658 605.648L528.41 592.688L526.394 592.08V591.6H532.538V592.08L530.074 592.624V592.72L534.362 603.696H534.458L538.362 592.752V592.656L535.77 592.08V591.6H541.434V592.08L539.386 592.688L532.698 609.456C532.442 610.096 532.197 610.619 531.962 611.024C531.749 611.451 531.504 611.867 531.226 612.272C530.906 612.741 530.49 613.093 529.978 613.328C529.488 613.584 528.976 613.712 528.442 613.712ZM556.885 606.32C555.647 606.32 554.591 606.192 553.717 605.936C552.842 605.68 551.935 605.317 550.997 604.848L550.677 599.92H551.253L553.077 603.984C553.802 604.517 554.506 604.88 555.189 605.072C555.871 605.243 556.575 605.328 557.301 605.328C558.73 605.328 559.807 604.955 560.533 604.208C561.258 603.44 561.621 602.373 561.621 601.008C561.621 599.984 561.375 599.184 560.885 598.608C560.415 598.032 559.733 597.52 558.837 597.072C557.962 596.624 556.927 596.101 555.733 595.504C554.794 595.035 554.005 594.565 553.365 594.096C552.746 593.627 552.277 593.083 551.957 592.464C551.637 591.824 551.477 591.035 551.477 590.096C551.477 589.179 551.754 588.304 552.309 587.472C552.885 586.619 553.621 585.925 554.517 585.392C555.413 584.837 556.373 584.56 557.397 584.56C558.335 584.56 559.189 584.677 559.957 584.912C560.746 585.147 561.557 585.477 562.389 585.904L562.709 590.704H562.133L560.725 586.896C560.191 586.405 559.669 586.053 559.157 585.84C558.645 585.627 558.047 585.52 557.365 585.52C556.063 585.52 555.061 585.893 554.357 586.64C553.653 587.387 553.301 588.293 553.301 589.36C553.301 590.171 553.461 590.853 553.781 591.408C554.122 591.963 554.634 592.464 555.317 592.912C555.999 593.36 556.863 593.84 557.909 594.352C559.189 594.971 560.245 595.568 561.077 596.144C561.909 596.699 562.517 597.339 562.901 598.064C563.306 598.789 563.509 599.707 563.509 600.816C563.509 601.883 563.178 602.832 562.517 603.664C561.877 604.475 561.055 605.125 560.053 605.616C559.05 606.085 557.994 606.32 556.885 606.32ZM570.593 606.32C569.612 606.32 568.791 606.032 568.129 605.456C567.468 604.859 567.137 604.037 567.137 602.992C567.137 601.968 567.5 601.115 568.225 600.432C568.972 599.749 570.199 599.195 571.905 598.768L575.041 597.968V595.312C575.041 594.395 574.711 593.659 574.049 593.104C573.388 592.528 572.631 592.24 571.777 592.24C570.86 592.24 570.209 592.432 569.825 592.816C569.463 593.179 569.281 593.68 569.281 594.32V595.632L569.121 595.792H568.289C567.948 595.792 567.724 595.739 567.617 595.632C567.511 595.525 567.457 595.323 567.457 595.024C567.457 594.619 567.596 594.203 567.873 593.776C568.151 593.349 568.556 592.965 569.089 592.624C569.665 592.261 570.241 591.952 570.817 591.696C571.415 591.419 571.98 591.28 572.513 591.28C573.793 591.28 574.796 591.568 575.521 592.144C576.268 592.699 576.641 593.573 576.641 594.768V604.72C576.812 604.869 577.004 604.987 577.217 605.072C577.452 605.157 577.719 605.2 578.017 605.2H579.681L579.713 605.232V605.296C579.564 605.509 579.319 605.733 578.977 605.968C578.636 606.203 578.177 606.32 577.601 606.32C576.855 606.32 576.279 606.128 575.873 605.744C575.468 605.36 575.223 604.912 575.137 604.4H575.073C574.519 604.955 573.847 605.413 573.057 605.776C572.289 606.139 571.468 606.32 570.593 606.32ZM568.737 602.416C568.737 603.291 568.983 603.952 569.473 604.4C569.964 604.827 570.657 605.04 571.553 605.04C572.087 605.04 572.663 604.965 573.281 604.816C573.9 604.645 574.487 604.389 575.041 604.048V598.64C573.271 599.003 571.927 599.365 571.009 599.728C570.113 600.091 569.505 600.485 569.185 600.912C568.887 601.339 568.737 601.84 568.737 602.416ZM581.83 606V605.52L583.846 604.976V583.536L581.51 582.928V582.448L585.126 582H585.446V604.976L587.718 605.52V606H581.83ZM595.693 606.16L590.477 592.688L588.461 592.08V591.6H594.605V592.08L592.141 592.624V592.72L596.269 603.92H596.365L600.429 592.752V592.656L597.837 592.08V591.6H603.501V592.08L601.453 592.688L596.013 606.16H595.693ZM607.752 606.32C606.77 606.32 605.949 606.032 605.288 605.456C604.626 604.859 604.296 604.037 604.296 602.992C604.296 601.968 604.658 601.115 605.384 600.432C606.13 599.749 607.357 599.195 609.064 598.768L612.2 597.968V595.312C612.2 594.395 611.869 593.659 611.208 593.104C610.546 592.528 609.789 592.24 608.936 592.24C608.018 592.24 607.368 592.432 606.984 592.816C606.621 593.179 606.44 593.68 606.44 594.32V595.632L606.28 595.792H605.448C605.106 595.792 604.882 595.739 604.776 595.632C604.669 595.525 604.616 595.323 604.616 595.024C604.616 594.619 604.754 594.203 605.032 593.776C605.309 593.349 605.714 592.965 606.248 592.624C606.824 592.261 607.4 591.952 607.976 591.696C608.573 591.419 609.138 591.28 609.672 591.28C610.952 591.28 611.954 591.568 612.68 592.144C613.426 592.699 613.8 593.573 613.8 594.768V604.72C613.97 604.869 614.162 604.987 614.376 605.072C614.61 605.157 614.877 605.2 615.176 605.2H616.84L616.872 605.232V605.296C616.722 605.509 616.477 605.733 616.136 605.968C615.794 606.203 615.336 606.32 614.76 606.32C614.013 606.32 613.437 606.128 613.032 605.744C612.626 605.36 612.381 604.912 612.296 604.4H612.232C611.677 604.955 611.005 605.413 610.216 605.776C609.448 606.139 608.626 606.32 607.752 606.32ZM605.896 602.416C605.896 603.291 606.141 603.952 606.632 604.4C607.122 604.827 607.816 605.04 608.712 605.04C609.245 605.04 609.821 604.965 610.44 604.816C611.058 604.645 611.645 604.389 612.2 604.048V598.64C610.429 599.003 609.085 599.365 608.168 599.728C607.272 600.091 606.664 600.485 606.344 600.912C606.045 601.339 605.896 601.84 605.896 602.416ZM624.645 606.32C623.578 606.32 622.629 606.043 621.797 605.488C620.965 604.933 620.304 604.155 619.813 603.152C619.344 602.128 619.109 600.912 619.109 599.504C619.109 597.755 619.45 596.272 620.133 595.056C620.816 593.819 621.722 592.88 622.853 592.24C623.984 591.6 625.232 591.28 626.597 591.28C627.066 591.28 627.557 591.365 628.069 591.536C628.581 591.685 629.082 591.888 629.573 592.144V583.536L627.237 582.928V582.448L630.853 582H631.173V604.976L633.445 605.52V606H629.893L629.605 604.368H629.445C628.72 604.987 627.962 605.467 627.173 605.808C626.405 606.149 625.562 606.32 624.645 606.32ZM620.613 598.992C620.613 600.421 620.848 601.605 621.317 602.544C621.786 603.461 622.394 604.144 623.141 604.592C623.909 605.019 624.698 605.232 625.509 605.232C626.213 605.232 626.917 605.104 627.621 604.848C628.325 604.592 628.976 604.176 629.573 603.6V593.296C628.912 592.933 628.25 592.645 627.589 592.432C626.928 592.219 626.224 592.112 625.477 592.112C624.602 592.112 623.792 592.336 623.045 592.784C622.32 593.232 621.733 593.968 621.285 594.992C620.837 595.995 620.613 597.328 620.613 598.992ZM643.171 606.32C641.87 606.32 640.729 605.989 639.747 605.328C638.766 604.667 637.998 603.771 637.443 602.64C636.889 601.509 636.611 600.229 636.611 598.8C636.611 597.371 636.889 596.091 637.443 594.96C637.998 593.829 638.766 592.933 639.747 592.272C640.729 591.611 641.87 591.28 643.171 591.28C644.473 591.28 645.614 591.611 646.595 592.272C647.577 592.933 648.345 593.829 648.899 594.96C649.454 596.091 649.731 597.371 649.731 598.8C649.731 600.229 649.454 601.509 648.899 602.64C648.345 603.771 647.577 604.667 646.595 605.328C645.614 605.989 644.473 606.32 643.171 606.32ZM643.619 605.584C644.601 605.584 645.422 605.296 646.083 604.72C646.766 604.123 647.278 603.355 647.619 602.416C647.961 601.477 648.131 600.485 648.131 599.44C648.131 598.053 647.929 596.805 647.523 595.696C647.118 594.565 646.51 593.669 645.699 593.008C644.91 592.325 643.939 591.984 642.787 591.984C641.827 591.984 641.006 592.261 640.323 592.816C639.641 593.349 639.118 594.085 638.755 595.024C638.393 595.941 638.211 596.976 638.211 598.128C638.211 599.515 638.425 600.773 638.851 601.904C639.299 603.035 639.918 603.931 640.707 604.592C641.518 605.253 642.489 605.584 643.619 605.584ZM653.34 606V605.52L655.356 604.976V592.816L653.02 592.528V592.048L656.476 591.28H656.796L656.956 594.128H657.02C657.852 593.253 658.513 592.613 659.004 592.208C659.494 591.803 659.9 591.547 660.22 591.44C660.54 591.333 660.902 591.28 661.308 591.28C661.67 591.28 662.001 591.344 662.3 591.472C662.513 591.557 662.662 591.643 662.748 591.728C662.854 591.792 662.908 591.888 662.908 592.016C662.908 592.059 662.897 592.112 662.876 592.176C662.876 592.219 662.865 592.283 662.844 592.368L662.524 593.2H662.46L661.852 592.912C661.553 592.763 661.158 592.688 660.668 592.688C660.049 592.688 659.43 592.859 658.812 593.2C658.193 593.541 657.574 594.139 656.956 594.992V604.976L659.42 605.52V606H653.34ZM673.062 606V605.2L675.622 604.656V586.224L673.062 585.68V584.88H680.518C682.865 584.88 684.87 585.296 686.534 586.128C688.198 586.96 689.457 588.101 690.31 589.552C691.185 591.003 691.622 592.645 691.622 594.48C691.622 596.848 691.153 598.896 690.214 600.624C689.297 602.331 687.996 603.653 686.31 604.592C684.625 605.531 682.62 606 680.294 606H673.062ZM680.742 586H677.542V604.88H680.902C682.652 604.88 684.166 604.485 685.446 603.696C686.748 602.885 687.75 601.776 688.454 600.368C689.18 598.96 689.542 597.328 689.542 595.472C689.542 593.573 689.201 591.909 688.518 590.48C687.836 589.051 686.833 587.952 685.51 587.184C684.209 586.395 682.62 586 680.742 586ZM698.881 606.32C697.9 606.32 697.079 606.032 696.417 605.456C695.756 604.859 695.425 604.037 695.425 602.992C695.425 601.968 695.788 601.115 696.513 600.432C697.26 599.749 698.487 599.195 700.193 598.768L703.329 597.968V595.312C703.329 594.395 702.999 593.659 702.337 593.104C701.676 592.528 700.919 592.24 700.065 592.24C699.148 592.24 698.497 592.432 698.113 592.816C697.751 593.179 697.569 593.68 697.569 594.32V595.632L697.409 595.792H696.577C696.236 595.792 696.012 595.739 695.905 595.632C695.799 595.525 695.745 595.323 695.745 595.024C695.745 594.619 695.884 594.203 696.161 593.776C696.439 593.349 696.844 592.965 697.377 592.624C697.953 592.261 698.529 591.952 699.105 591.696C699.703 591.419 700.268 591.28 700.801 591.28C702.081 591.28 703.084 591.568 703.809 592.144C704.556 592.699 704.929 593.573 704.929 594.768V604.72C705.1 604.869 705.292 604.987 705.505 605.072C705.74 605.157 706.007 605.2 706.305 605.2H707.969L708.001 605.232V605.296C707.852 605.509 707.607 605.733 707.265 605.968C706.924 606.203 706.465 606.32 705.889 606.32C705.143 606.32 704.567 606.128 704.161 605.744C703.756 605.36 703.511 604.912 703.425 604.4H703.361C702.807 604.955 702.135 605.413 701.345 605.776C700.577 606.139 699.756 606.32 698.881 606.32ZM697.025 602.416C697.025 603.291 697.271 603.952 697.761 604.4C698.252 604.827 698.945 605.04 699.841 605.04C700.375 605.04 700.951 604.965 701.569 604.816C702.188 604.645 702.775 604.389 703.329 604.048V598.64C701.559 599.003 700.215 599.365 699.297 599.728C698.401 600.091 697.793 600.485 697.473 600.912C697.175 601.339 697.025 601.84 697.025 602.416ZM710.118 606V605.52L712.134 604.976V583.536L709.798 582.928V582.448L713.414 582H713.734V604.976L716.006 605.52V606H710.118ZM719.501 606V605.52L721.517 604.976V592.816L719.181 592.208V591.728L722.797 591.28H723.117V604.976L725.389 605.52V606H719.501ZM722.093 589.04L725.101 583.376H726.605C726.605 583.696 726.52 584.005 726.349 584.304C726.179 584.581 725.912 584.944 725.549 585.392L722.541 589.04H722.093ZM730.317 606.128C729.912 606.128 729.57 605.989 729.293 605.712C729.016 605.413 728.877 605.072 728.877 604.688C728.877 604.304 729.016 603.973 729.293 603.696C729.57 603.397 729.912 603.248 730.317 603.248C730.722 603.248 731.064 603.397 731.341 603.696C731.618 603.973 731.757 604.304 731.757 604.688C731.757 605.072 731.618 605.413 731.341 605.712C731.064 605.989 730.722 606.128 730.317 606.128Z" fill="black"/>
</svg>
