<svg width="48" height="48" viewBox="0 0 48 48" fill="none" xmlns="http://www.w3.org/2000/svg">
<rect width="48" height="48" rx="24" fill="#9AA0A6"/>
<g clip-path="url(#clip0_90_80)">
<path d="M37.3333 12L35.1066 14.2267L32.8933 12L30.6666 14.2267L28.44 12L26.2266 14.2267L24 12L21.7733 14.2267L19.56 12L17.3333 14.2267L15.1066 12L12.8933 14.2267L10.6666 12V33.3333C10.6666 34.8 11.8666 36 13.3333 36H34.6666C36.1333 36 37.3333 34.8 37.3333 33.3333V12ZM22.6666 33.3333H13.3333V25.3333H22.6666V33.3333ZM34.6666 33.3333H25.3333V30.6667H34.6666V33.3333ZM34.6666 28H25.3333V25.3333H34.6666V28ZM34.6666 22.6667H13.3333V18.6667H34.6666V22.6667Z" fill="#202124"/>
</g>
<defs>
<clipPath id="clip0_90_80">
<rect width="32" height="32" fill="white" transform="translate(8 8)"/>
</clipPath>
</defs>
</svg>
