<svg width="120" height="50" viewBox="0 0 120 50" fill="none" xmlns="http://www.w3.org/2000/svg">
<path d="M49.3333 8.12001L56 1.45334C57.04 0.41334 58.7333 0.41334 59.7733 1.45334L70.9867 12.6667H67.2133L57.8667 3.33334L51.2133 10H54.6667V12.6667H46.6667V4.66667H49.3333V8.12001ZM70.6667 23.3333H73.3333V15.3333H65.3333V18H68.7867L62.1333 24.6667L52.7867 15.3333H49.0133L60.2267 26.5467C61.2667 27.5867 62.96 27.5867 64 26.5467L70.6667 19.88V23.3333Z" fill="black"/>
<path d="M3.37191 46V45.72L4.49191 45.3V37.46L3.37191 37.04V36.76H6.63391C7.61391 36.76 8.38391 36.9653 8.94391 37.376C9.51325 37.7773 9.79791 38.3327 9.79791 39.042C9.79791 39.5833 9.61591 40.0593 9.25191 40.47C8.89725 40.8713 8.43058 41.17 7.85191 41.366L10.5259 45.356L11.4499 45.72V46H9.60191L6.85791 41.702H5.58391V45.286L6.63391 45.72V46H3.37191ZM6.49391 37.418H5.58391V41.044H6.57791C7.16591 41.044 7.65125 40.8713 8.03391 40.526C8.42591 40.1807 8.62191 39.7467 8.62191 39.224C8.62191 38.664 8.43058 38.2253 8.04791 37.908C7.66525 37.5813 7.14725 37.418 6.49391 37.418ZM15.072 46.14C14.4746 46.14 13.952 45.9953 13.504 45.706C13.056 45.4167 12.706 45.0247 12.454 44.53C12.202 44.0353 12.076 43.4753 12.076 42.85C12.076 42.2247 12.202 41.6647 12.454 41.17C12.706 40.6753 13.056 40.2833 13.504 39.994C13.952 39.7047 14.4746 39.56 15.072 39.56C15.6693 39.56 16.192 39.7047 16.64 39.994C17.088 40.2833 17.438 40.6753 17.69 41.17C17.942 41.6647 18.068 42.2247 18.068 42.85C18.068 43.4753 17.942 44.0353 17.69 44.53C17.438 45.0247 17.088 45.4167 16.64 45.706C16.192 45.9953 15.6693 46.14 15.072 46.14ZM15.268 45.65C15.66 45.65 15.9866 45.5287 16.248 45.286C16.5093 45.0433 16.7053 44.7307 16.836 44.348C16.9666 43.956 17.032 43.55 17.032 43.13C17.032 42.598 16.9526 42.0987 16.794 41.632C16.6446 41.156 16.4113 40.7733 16.094 40.484C15.786 40.1853 15.3893 40.036 14.904 40.036C14.512 40.036 14.1806 40.1527 13.91 40.386C13.6486 40.6193 13.448 40.9273 13.308 41.31C13.1773 41.6927 13.112 42.108 13.112 42.556C13.112 43.0973 13.1913 43.606 13.35 44.082C13.5086 44.5487 13.7466 44.9267 14.064 45.216C14.3813 45.5053 14.7826 45.65 15.268 45.65ZM21.6285 46.14C21.2271 46.14 20.8865 46.0187 20.6065 45.776C20.3358 45.5333 20.2005 45.1927 20.2005 44.754V40.288H19.0245V40.176L20.2705 39.7L21.0405 38.16H21.1525V39.7H23.0005V40.288H21.1525V44.6C21.1525 44.8613 21.2505 45.0573 21.4465 45.188C21.6425 45.3093 21.8898 45.37 22.1885 45.37C22.3751 45.37 22.5478 45.356 22.7065 45.328C22.8651 45.2907 23.0098 45.2487 23.1405 45.202L23.1685 45.216V45.314C23.0751 45.5007 22.8978 45.6873 22.6365 45.874C22.3845 46.0513 22.0485 46.14 21.6285 46.14ZM25.769 46.14C25.3303 46.14 24.9663 46.014 24.677 45.762C24.3876 45.5007 24.243 45.1413 24.243 44.684C24.243 44.2267 24.411 43.8393 24.747 43.522C25.083 43.2047 25.6383 42.9527 26.413 42.766L27.771 42.43V41.352C27.771 40.9973 27.631 40.7033 27.351 40.47C27.0803 40.2367 26.777 40.12 26.441 40.12C26.0676 40.12 25.8063 40.2087 25.657 40.386C25.5076 40.5633 25.433 40.806 25.433 41.114V41.576L25.363 41.646H24.775C24.635 41.646 24.537 41.6273 24.481 41.59C24.4343 41.5433 24.411 41.4407 24.411 41.282C24.411 41.086 24.4716 40.8853 24.593 40.68C24.7143 40.4747 24.8963 40.2973 25.139 40.148C25.4003 39.98 25.6663 39.84 25.937 39.728C26.217 39.616 26.497 39.56 26.777 39.56C27.1316 39.56 27.4536 39.6113 27.743 39.714C28.0323 39.8073 28.2656 39.966 28.443 40.19C28.6203 40.414 28.709 40.7127 28.709 41.086V45.216C28.7836 45.2907 28.877 45.3467 28.989 45.384C29.101 45.4213 29.2456 45.44 29.423 45.44H30.039L30.067 45.468V45.496C29.9736 45.6547 29.829 45.804 29.633 45.944C29.4463 46.0747 29.2083 46.14 28.919 46.14C28.6203 46.14 28.3823 46.0607 28.205 45.902C28.0276 45.7433 27.9063 45.5427 27.841 45.3H27.771C27.5283 45.5427 27.2296 45.7433 26.875 45.902C26.5296 46.0607 26.161 46.14 25.769 46.14ZM25.181 44.418C25.181 44.7447 25.279 44.992 25.475 45.16C25.671 45.3187 25.9463 45.398 26.301 45.398C26.5343 45.398 26.7723 45.37 27.015 45.314C27.2576 45.258 27.5096 45.1647 27.771 45.034V42.836C27.015 42.9853 26.4503 43.1393 26.077 43.298C25.713 43.4567 25.4703 43.6293 25.349 43.816C25.237 43.9933 25.181 44.194 25.181 44.418ZM33.0718 46.14C32.6705 46.14 32.3298 46.0187 32.0498 45.776C31.7792 45.5333 31.6438 45.1927 31.6438 44.754V40.288H30.4678V40.176L31.7138 39.7L32.4838 38.16H32.5958V39.7H34.4438V40.288H32.5958V44.6C32.5958 44.8613 32.6938 45.0573 32.8898 45.188C33.0858 45.3093 33.3332 45.37 33.6318 45.37C33.8185 45.37 33.9912 45.356 34.1498 45.328C34.3085 45.2907 34.4532 45.2487 34.5838 45.202L34.6118 45.216V45.314C34.5185 45.5007 34.3412 45.6873 34.0798 45.874C33.8278 46.0513 33.4918 46.14 33.0718 46.14ZM38.6963 46.14C38.071 46.14 37.5343 46.0093 37.0863 45.748C36.6477 45.4867 36.3117 45.1273 36.0783 44.67C35.845 44.2033 35.7283 43.6667 35.7283 43.06C35.7283 42.388 35.8637 41.7907 36.1343 41.268C36.405 40.736 36.7643 40.3207 37.2123 40.022C37.6603 39.714 38.1457 39.56 38.6683 39.56C39.4057 39.56 39.9843 39.812 40.4043 40.316C40.8243 40.82 41.0483 41.5293 41.0763 42.444L41.0203 42.5H36.6663C36.6663 42.5373 36.6663 42.5747 36.6663 42.612C36.6663 43.0973 36.7503 43.5453 36.9183 43.956C37.0863 44.3573 37.3523 44.6793 37.7163 44.922C38.0803 45.1553 38.5517 45.272 39.1303 45.272C39.821 45.272 40.4557 45.0667 41.0343 44.656H41.0763V44.81C40.871 45.1833 40.5583 45.5007 40.1383 45.762C39.7277 46.014 39.247 46.14 38.6963 46.14ZM38.4583 40.05C38.0103 40.05 37.6277 40.2227 37.3103 40.568C36.993 40.904 36.7923 41.38 36.7083 41.996H40.1243C39.9377 40.6987 39.3823 40.05 38.4583 40.05ZM46.2199 49.374C46.0146 49.374 45.8839 49.3413 45.8279 49.276C45.7812 49.22 45.7579 49.1173 45.7579 48.968V48.422L45.8139 48.366H46.4579C46.6912 48.366 46.8686 48.3427 46.9899 48.296C47.1112 48.2587 47.2232 48.156 47.3259 47.988C47.4286 47.82 47.5732 47.54 47.7599 47.148L48.3339 45.874L45.8839 40.288L44.9739 39.924V39.7H48.0539V39.924L46.9339 40.274V40.33L48.7959 44.698H48.8379L50.4619 40.386V40.316L49.3839 39.924V39.7H52.0159V39.924L51.0359 40.302L48.2079 47.274C48.0772 47.582 47.9699 47.8247 47.8859 48.002C47.8019 48.1793 47.6759 48.3893 47.5079 48.632C47.3306 48.8747 47.1299 49.0567 46.9059 49.178C46.6819 49.3087 46.4532 49.374 46.2199 49.374ZM55.3903 46.14C54.793 46.14 54.2703 45.9953 53.8223 45.706C53.3743 45.4167 53.0243 45.0247 52.7723 44.53C52.5203 44.0353 52.3943 43.4753 52.3943 42.85C52.3943 42.2247 52.5203 41.6647 52.7723 41.17C53.0243 40.6753 53.3743 40.2833 53.8223 39.994C54.2703 39.7047 54.793 39.56 55.3903 39.56C55.9877 39.56 56.5103 39.7047 56.9583 39.994C57.4063 40.2833 57.7563 40.6753 58.0083 41.17C58.2603 41.6647 58.3863 42.2247 58.3863 42.85C58.3863 43.4753 58.2603 44.0353 58.0083 44.53C57.7563 45.0247 57.4063 45.4167 56.9583 45.706C56.5103 45.9953 55.9877 46.14 55.3903 46.14ZM55.5863 45.65C55.9783 45.65 56.305 45.5287 56.5663 45.286C56.8277 45.0433 57.0237 44.7307 57.1543 44.348C57.285 43.956 57.3503 43.55 57.3503 43.13C57.3503 42.598 57.271 42.0987 57.1123 41.632C56.963 41.156 56.7297 40.7733 56.4123 40.484C56.1043 40.1853 55.7077 40.036 55.2223 40.036C54.8303 40.036 54.499 40.1527 54.2283 40.386C53.967 40.6193 53.7663 40.9273 53.6263 41.31C53.4957 41.6927 53.4303 42.108 53.4303 42.556C53.4303 43.0973 53.5097 43.606 53.6683 44.082C53.827 44.5487 54.065 44.9267 54.3823 45.216C54.6997 45.5053 55.101 45.65 55.5863 45.65ZM62.3108 46.14C61.7602 46.14 61.3028 45.9907 60.9388 45.692C60.5842 45.3933 60.4068 44.9593 60.4068 44.39V40.274L59.4828 39.924V39.7H61.3588V43.844C61.3588 44.32 61.4942 44.684 61.7648 44.936C62.0355 45.1787 62.3902 45.3 62.8288 45.3C63.0902 45.3 63.3702 45.2487 63.6688 45.146C63.9768 45.0433 64.2242 44.8893 64.4108 44.684V40.274L63.3608 39.924V39.7H65.3628V45.44L66.3568 45.776V46H64.4108V45.132H64.3548C64.0002 45.4867 63.6642 45.7433 63.3468 45.902C63.0295 46.0607 62.6842 46.14 62.3108 46.14ZM67.5447 46V45.776L68.4267 45.426V40.778L67.5167 40.302V40.148L69.1547 39.56H69.2667L69.3647 40.778H69.4067C69.6867 40.414 69.9201 40.148 70.1067 39.98C70.3027 39.8027 70.4801 39.6907 70.6387 39.644C70.7974 39.588 70.9561 39.56 71.1147 39.56C71.1894 39.56 71.2734 39.574 71.3667 39.602C71.4601 39.6207 71.5347 39.644 71.5907 39.672C71.6934 39.7093 71.7774 39.756 71.8427 39.812C71.9081 39.868 71.9407 39.9287 71.9407 39.994C71.9407 40.022 71.9361 40.0547 71.9267 40.092C71.9267 40.1293 71.9174 40.1667 71.8987 40.204L71.6747 40.764H71.6047L71.1847 40.582C71.0167 40.5167 70.8301 40.484 70.6247 40.484C70.3914 40.484 70.1721 40.5447 69.9667 40.666C69.7614 40.7873 69.5654 40.988 69.3787 41.268V45.426L70.4007 45.776V46H67.5447ZM78.6724 46.14C78.2058 46.14 77.7904 46.0233 77.4264 45.79C77.0624 45.5567 76.7731 45.2207 76.5584 44.782C76.3531 44.3433 76.2504 43.8253 76.2504 43.228C76.2504 42.444 76.3998 41.7813 76.6984 41.24C77.0064 40.6893 77.4124 40.274 77.9164 39.994C78.4298 39.7047 78.9851 39.56 79.5824 39.56C79.8251 39.56 80.0491 39.5787 80.2544 39.616C80.4598 39.6533 80.6511 39.7047 80.8284 39.77V36.718L79.8764 36.172V36.032L81.6684 35.5H81.7804V45.44L82.7744 45.776V46H80.9684L80.8424 45.286H80.7724C80.4271 45.5753 80.0864 45.79 79.7504 45.93C79.4144 46.07 79.0551 46.14 78.6724 46.14ZM77.1744 42.948C77.1744 43.508 77.2724 43.9653 77.4684 44.32C77.6644 44.6747 77.9211 44.9407 78.2384 45.118C78.5651 45.286 78.9151 45.37 79.2884 45.37C79.5498 45.37 79.8111 45.328 80.0724 45.244C80.3431 45.1507 80.5951 45.0153 80.8284 44.838V40.666C80.5764 40.4887 80.3291 40.3533 80.0864 40.26C79.8438 40.1667 79.5731 40.12 79.2744 40.12C78.9011 40.12 78.5511 40.2133 78.2244 40.4C77.9071 40.5867 77.6504 40.89 77.4544 41.31C77.2678 41.7207 77.1744 42.2667 77.1744 42.948ZM87.0127 46.14C86.3874 46.14 85.8507 46.0093 85.4027 45.748C84.9641 45.4867 84.6281 45.1273 84.3947 44.67C84.1614 44.2033 84.0447 43.6667 84.0447 43.06C84.0447 42.388 84.1801 41.7907 84.4507 41.268C84.7214 40.736 85.0807 40.3207 85.5287 40.022C85.9767 39.714 86.4621 39.56 86.9847 39.56C87.7221 39.56 88.3007 39.812 88.7207 40.316C89.1407 40.82 89.3647 41.5293 89.3927 42.444L89.3367 42.5H84.9827C84.9827 42.5373 84.9827 42.5747 84.9827 42.612C84.9827 43.0973 85.0667 43.5453 85.2347 43.956C85.4027 44.3573 85.6687 44.6793 86.0327 44.922C86.3967 45.1553 86.8681 45.272 87.4467 45.272C88.1374 45.272 88.7721 45.0667 89.3507 44.656H89.3927V44.81C89.1874 45.1833 88.8747 45.5007 88.4547 45.762C88.0441 46.014 87.5634 46.14 87.0127 46.14ZM86.7747 40.05C86.3267 40.05 85.9441 40.2227 85.6267 40.568C85.3094 40.904 85.1087 41.38 85.0247 41.996H88.4407C88.2541 40.6987 87.6987 40.05 86.7747 40.05ZM93.219 46.028L90.769 40.288L89.845 39.924V39.7H92.925V39.924L91.805 40.26V40.33L93.611 44.642H93.653L95.319 40.386V40.316L94.255 39.924V39.7H96.887V39.924L95.921 40.316L93.443 46.028H93.219ZM98.6234 37.656C98.4181 37.656 98.2454 37.5907 98.1054 37.46C97.9748 37.32 97.9094 37.1473 97.9094 36.942C97.9094 36.7273 97.9748 36.5547 98.1054 36.424C98.2454 36.2933 98.4181 36.228 98.6234 36.228C98.8381 36.228 99.0108 36.2933 99.1414 36.424C99.2721 36.5547 99.3374 36.7273 99.3374 36.942C99.3374 37.1473 99.2721 37.32 99.1414 37.46C99.0108 37.5907 98.8381 37.656 98.6234 37.656ZM97.3774 46V45.776L98.2594 45.426V40.778L97.3494 40.232V40.092L99.0994 39.56H99.2114V45.426L100.135 45.776V46H97.3774ZM104.526 46.14C103.901 46.14 103.369 46.0093 102.93 45.748C102.491 45.4867 102.155 45.1273 101.922 44.67C101.689 44.2033 101.572 43.6667 101.572 43.06C101.572 42.388 101.707 41.7907 101.978 41.268C102.258 40.736 102.636 40.3207 103.112 40.022C103.597 39.714 104.143 39.56 104.75 39.56C105.123 39.56 105.473 39.6207 105.8 39.742C106.136 39.854 106.393 39.994 106.57 40.162C106.673 40.2647 106.747 40.3533 106.794 40.428C106.85 40.5027 106.878 40.5727 106.878 40.638C106.878 40.7407 106.831 40.8293 106.738 40.904L106.262 41.296H106.178L105.828 40.82C105.66 40.596 105.464 40.414 105.24 40.274C105.016 40.1247 104.741 40.05 104.414 40.05C103.845 40.05 103.383 40.274 103.028 40.722C102.683 41.1607 102.51 41.7907 102.51 42.612C102.51 43.0973 102.594 43.5453 102.762 43.956C102.93 44.3573 103.191 44.6793 103.546 44.922C103.91 45.1553 104.381 45.272 104.96 45.272C105.651 45.272 106.285 45.0667 106.864 44.656H106.906V44.81C106.691 45.1833 106.379 45.5007 105.968 45.762C105.557 46.014 105.077 46.14 104.526 46.14ZM111.198 46.14C110.573 46.14 110.036 46.0093 109.588 45.748C109.15 45.4867 108.814 45.1273 108.58 44.67C108.347 44.2033 108.23 43.6667 108.23 43.06C108.23 42.388 108.366 41.7907 108.636 41.268C108.907 40.736 109.266 40.3207 109.714 40.022C110.162 39.714 110.648 39.56 111.17 39.56C111.908 39.56 112.486 39.812 112.906 40.316C113.326 40.82 113.55 41.5293 113.578 42.444L113.522 42.5H109.168C109.168 42.5373 109.168 42.5747 109.168 42.612C109.168 43.0973 109.252 43.5453 109.42 43.956C109.588 44.3573 109.854 44.6793 110.218 44.922C110.582 45.1553 111.054 45.272 111.632 45.272C112.323 45.272 112.958 45.0667 113.536 44.656H113.578V44.81C113.373 45.1833 113.06 45.5007 112.64 45.762C112.23 46.014 111.749 46.14 111.198 46.14ZM110.96 40.05C110.512 40.05 110.13 40.2227 109.812 40.568C109.495 40.904 109.294 41.38 109.21 41.996H112.626C112.44 40.6987 111.884 40.05 110.96 40.05ZM115.868 46.07C115.662 46.07 115.485 45.9953 115.336 45.846C115.186 45.6873 115.112 45.5053 115.112 45.3C115.112 45.0947 115.186 44.9173 115.336 44.768C115.485 44.6187 115.662 44.544 115.868 44.544C116.073 44.544 116.25 44.6187 116.4 44.768C116.558 44.9173 116.638 45.0947 116.638 45.3C116.638 45.5053 116.558 45.6873 116.4 45.846C116.25 45.9953 116.073 46.07 115.868 46.07Z" fill="black"/>
</svg>
