<svg width="304" height="474" viewBox="0 0 304 474" fill="none" xmlns="http://www.w3.org/2000/svg">
<rect y="170" width="304" height="304" rx="6" fill="#424242" fill-opacity="0.5"/>
<g clip-path="url(#clip0_1135_211)">
<path d="M152.001 462C229.321 462 292.002 399.32 292.002 322C292.002 244.68 229.321 182 152.001 182C74.6806 182 12 244.68 12 322C12 399.32 74.6806 462 152.001 462Z" fill="#B5AAA8"/>
<path d="M101.12 226.236L134.338 195.772L277.094 338.528L247.602 373.528L240.474 366.075C240.474 366.075 254.894 334.639 239.663 317.95C224.432 301.261 209.524 286.028 209.524 286.028L105.657 388.597C105.657 388.597 84.4311 404.8 108.737 428.134L101.931 435.75L37.1146 372.069L44.5697 364.13C44.5697 364.13 64.1776 389.733 83.4588 368.991C102.74 348.25 188.135 265.125 188.135 265.125L155.565 233.366C155.565 233.366 138.067 220.566 107.765 232.556L101.12 226.236Z" fill="#0D0708"/>
</g>
<defs>
<clipPath id="clip0_1135_211">
<rect width="280" height="280" fill="white" transform="translate(12 182)"/>
</clipPath>
</defs>
</svg>
