<svg width="304" height="473" viewBox="0 0 304 473" fill="none" xmlns="http://www.w3.org/2000/svg">
<rect y="169" width="304" height="304" rx="6" fill="#424242" fill-opacity="0.5"/>
<g clip-path="url(#clip0_1135_211)">
<path d="M152.001 461C229.321 461 292.002 398.32 292.002 321C292.002 243.68 229.321 181 152.001 181C74.6806 181 12 243.68 12 321C12 398.32 74.6806 461 152.001 461Z" fill="#B5AAA8"/>
<path d="M101.12 225.236L134.338 194.772L277.094 337.528L247.602 372.528L240.474 365.075C240.474 365.075 254.894 333.639 239.663 316.95C224.432 300.261 209.524 285.028 209.524 285.028L105.657 387.597C105.657 387.597 84.4311 403.8 108.737 427.134L101.931 434.75L37.1146 371.069L44.5697 363.13C44.5697 363.13 64.1776 388.733 83.4588 367.991C102.74 347.25 188.135 264.125 188.135 264.125L155.565 232.366C155.565 232.366 138.067 219.566 107.765 231.556L101.12 225.236Z" fill="#0D0708"/>
</g>
<defs>
<clipPath id="clip0_1135_211">
<rect width="280" height="280" fill="white" transform="translate(12 181)"/>
</clipPath>
</defs>
</svg>
