<svg width="20" height="20" viewBox="0 0 20 20" fill="none" xmlns="http://www.w3.org/2000/svg">
<circle cx="9.75" cy="9.75439" r="9.75" fill="#FAFAFA"/>
<g clip-path="url(#clip0_1192_466)">
<path d="M12.9518 9.25699C12.8937 9.22912 12.8346 9.20229 12.7748 9.17661C12.6706 7.25659 11.6214 6.15738 9.85982 6.14613C9.85184 6.14608 9.8439 6.14608 9.83592 6.14608C8.78225 6.14608 7.90592 6.59584 7.36655 7.41427L8.33538 8.07887C8.73832 7.46754 9.37068 7.33721 9.83639 7.33721C9.84176 7.33721 9.84717 7.33721 9.85249 7.33726C10.4325 7.34096 10.8702 7.5096 11.1535 7.83848C11.3597 8.07792 11.4975 8.40879 11.5658 8.82636C11.0516 8.73896 10.4954 8.71208 9.90082 8.74617C8.22596 8.84265 7.14922 9.81946 7.22153 11.1768C7.25823 11.8653 7.60123 12.4576 8.1873 12.8445C8.68283 13.1716 9.32102 13.3316 9.9843 13.2954C10.8602 13.2473 11.5474 12.9131 12.0268 12.3021C12.3909 11.838 12.6211 11.2366 12.7228 10.4789C13.1403 10.7308 13.4496 11.0623 13.6205 11.4608C13.911 12.1383 13.928 13.2516 13.0196 14.1592C12.2237 14.9542 11.2671 15.2982 9.82126 15.3088C8.21748 15.297 7.00456 14.7826 6.21596 13.7801C5.4775 12.8414 5.09585 11.4855 5.08162 9.75C5.09585 8.01453 5.4775 6.65861 6.21596 5.71988C7.00456 4.71738 8.21746 4.20305 9.82124 4.19113C11.4367 4.20314 12.6707 4.71994 13.4895 5.72728C13.891 6.22127 14.1937 6.84249 14.3932 7.56682L15.5286 7.2639C15.2867 6.37234 14.9061 5.60407 14.3882 4.96692C13.3385 3.67547 11.8033 3.01372 9.8252 3H9.81728C7.84324 3.01367 6.32523 3.67794 5.30543 4.97433C4.39795 6.12795 3.92984 7.73314 3.91411 9.74525L3.91406 9.75L3.91411 9.75475C3.92984 11.7668 4.39795 13.3721 5.30543 14.5257C6.32523 15.822 7.84324 16.4864 9.81728 16.5H9.8252C11.5802 16.4878 12.8173 16.0283 13.8364 15.0101C15.1698 13.6781 15.1296 12.0084 14.6902 10.9834C14.3749 10.2483 13.7738 9.6513 12.9518 9.25699ZM9.9216 12.106C9.18754 12.1473 8.42492 11.8178 8.38732 11.1121C8.35944 10.5888 8.7597 10.005 9.96665 9.9354C10.1049 9.92743 10.2405 9.92353 10.3737 9.92353C10.8121 9.92353 11.2223 9.96612 11.5951 10.0476C11.4561 11.7845 10.6403 12.0665 9.9216 12.106Z" fill="black"/>
</g>
<defs>
<clipPath id="clip0_1192_466">
<rect width="13.5" height="13.5" fill="white" transform="translate(3 3)"/>
</clipPath>
</defs>
</svg>
