<svg width="541" height="278" viewBox="0 0 541 278" fill="none" xmlns="http://www.w3.org/2000/svg">
<path d="M47.0949 34V33.52L49.1109 32.976V20.688H46.2949V19.6H49.1109V18.32C49.1109 17.4667 49.2495 16.56 49.5269 15.6C49.8255 14.64 50.2522 13.7333 50.8069 12.88C51.3829 12.0267 52.0975 11.3333 52.9509 10.8C53.8042 10.2667 54.7962 10 55.9269 10C56.2042 10 56.4495 10.0427 56.6629 10.128C57.0042 10.2773 57.1749 10.448 57.1749 10.64C57.1749 10.768 57.1429 10.9067 57.0789 11.056L56.7269 11.92H56.6629L55.9909 11.696C55.3295 11.4827 54.6895 11.376 54.0709 11.376C52.9829 11.376 52.1509 11.824 51.5749 12.72C50.9989 13.616 50.7109 15.056 50.7109 17.04V19.6H54.9349V20.688H50.7109V32.976L53.1749 33.52V34H47.0949ZM65.5934 34V33.52L67.6094 32.976V20.816L65.2734 20.528V20.048L68.7294 19.28H69.0494L69.2094 22.128H69.2734C70.1054 21.2533 70.7667 20.6133 71.2574 20.208C71.748 19.8027 72.1534 19.5467 72.4734 19.44C72.7934 19.3333 73.156 19.28 73.5614 19.28C73.924 19.28 74.2547 19.344 74.5534 19.472C74.7667 19.5573 74.916 19.6427 75.0014 19.728C75.108 19.792 75.1614 19.888 75.1614 20.016C75.1614 20.0587 75.1507 20.112 75.1294 20.176C75.1294 20.2187 75.1187 20.2827 75.0974 20.368L74.7774 21.2H74.7134L74.1054 20.912C73.8067 20.7627 73.412 20.688 72.9214 20.688C72.3027 20.688 71.684 20.8587 71.0654 21.2C70.4467 21.5413 69.828 22.1387 69.2094 22.992V32.976L71.6734 33.52V34H65.5934ZM84.9319 38.8V10.32H90.1159V10.896H86.0519V38.224H90.1159V38.8H84.9319ZM95.5389 34.32C94.5575 34.32 93.7362 34.032 93.0749 33.456C92.4135 32.8587 92.0829 32.0373 92.0829 30.992C92.0829 29.968 92.4455 29.1147 93.1709 28.432C93.9175 27.7493 95.1442 27.1947 96.8509 26.768L99.9869 25.968V23.312C99.9869 22.3947 99.6562 21.6587 98.9949 21.104C98.3335 20.528 97.5762 20.24 96.7229 20.24C95.8055 20.24 95.1549 20.432 94.7709 20.816C94.4082 21.1787 94.2269 21.68 94.2269 22.32V23.632L94.0669 23.792H93.2349C92.8935 23.792 92.6695 23.7387 92.5629 23.632C92.4562 23.5253 92.4029 23.3227 92.4029 23.024C92.4029 22.6187 92.5415 22.2027 92.8189 21.776C93.0962 21.3493 93.5015 20.9653 94.0349 20.624C94.6109 20.2613 95.1869 19.952 95.7629 19.696C96.3602 19.4187 96.9255 19.28 97.4589 19.28C98.7389 19.28 99.7415 19.568 100.467 20.144C101.214 20.6987 101.587 21.5733 101.587 22.768V32.72C101.758 32.8693 101.95 32.9867 102.163 33.072C102.398 33.1573 102.664 33.2 102.963 33.2H104.627L104.659 33.232V33.296C104.51 33.5093 104.264 33.7333 103.923 33.968C103.582 34.2027 103.123 34.32 102.547 34.32C101.8 34.32 101.224 34.128 100.819 33.744C100.414 33.36 100.168 32.912 100.083 32.4H100.019C99.4642 32.9547 98.7922 33.4133 98.0029 33.776C97.2349 34.1387 96.4135 34.32 95.5389 34.32ZM93.6829 30.416C93.6829 31.2907 93.9282 31.952 94.4189 32.4C94.9095 32.8267 95.6029 33.04 96.4989 33.04C97.0322 33.04 97.6082 32.9653 98.2269 32.816C98.8455 32.6453 99.4322 32.3893 99.9869 32.048V26.64C98.2162 27.0027 96.8722 27.3653 95.9549 27.728C95.0589 28.0907 94.4509 28.4853 94.1309 28.912C93.8322 29.3387 93.6829 29.84 93.6829 30.416ZM105.432 38.8V38.224H109.496V10.896H105.432V10.32H110.616V38.8H105.432ZM122.247 34V33.52L124.263 32.976V20.816L121.927 20.528V20.048L125.383 19.28H125.703L125.831 21.584H125.927C126.716 20.7733 127.463 20.1867 128.167 19.824C128.871 19.4613 129.66 19.28 130.535 19.28C131.879 19.28 132.977 19.6533 133.831 20.4C134.705 21.1467 135.143 22.2347 135.143 23.664V32.976L137.159 33.52V34H131.271V33.52L133.543 32.976V24.528C133.543 23.2267 133.191 22.2453 132.487 21.584C131.804 20.9013 130.897 20.56 129.767 20.56C129.127 20.56 128.433 20.72 127.687 21.04C126.94 21.3387 126.332 21.776 125.863 22.352V32.976L128.135 33.52V34H122.247ZM154.807 34.32C153.314 34.32 152.055 34 151.031 33.36C150.029 32.72 149.261 31.856 148.727 30.768C148.215 29.68 147.959 28.4533 147.959 27.088C147.959 25.5947 148.258 24.2613 148.855 23.088C149.474 21.8933 150.317 20.9653 151.383 20.304C152.471 19.6213 153.698 19.28 155.063 19.28C155.917 19.28 156.674 19.3973 157.335 19.632C157.997 19.8667 158.53 20.1227 158.935 20.4C159.618 20.8693 159.959 21.2747 159.959 21.616C159.959 21.7653 159.885 21.904 159.735 22.032L158.871 22.768H158.743L158.327 22.192C157.858 21.552 157.346 21.0293 156.791 20.624C156.258 20.1973 155.565 19.984 154.711 19.984C153.218 19.984 151.981 20.5493 150.999 21.68C150.039 22.7893 149.559 24.4533 149.559 26.672C149.559 28.5493 150.05 30.0747 151.031 31.248C152.034 32.4 153.442 32.976 155.255 32.976C156.237 32.976 157.143 32.8267 157.975 32.528C158.807 32.2293 159.458 31.824 159.927 31.312H160.023V31.728C159.533 32.4747 158.839 33.0933 157.943 33.584C157.047 34.0747 156.002 34.32 154.807 34.32ZM171.213 38.8V10.32H176.397V10.896H172.333V38.224H176.397V38.8H171.213ZM181.244 14.224C180.903 14.224 180.615 14.1067 180.38 13.872C180.145 13.6373 180.028 13.3493 180.028 13.008C180.028 12.6667 180.145 12.3787 180.38 12.144C180.615 11.9093 180.903 11.792 181.244 11.792C181.585 11.792 181.873 11.9093 182.108 12.144C182.343 12.3787 182.46 12.6667 182.46 13.008C182.46 13.3493 182.343 13.6373 182.108 13.872C181.873 14.1067 181.585 14.224 181.244 14.224ZM178.876 34V33.52L180.892 32.976V20.816L178.556 20.208V19.728L182.172 19.28H182.492V32.976L184.764 33.52V34H178.876ZM186.9 38.8V38.224H190.964V10.896H186.9V10.32H192.084V38.8H186.9ZM207.683 34.32C206.937 34.32 206.265 34.2347 205.667 34.064C205.091 33.9147 204.494 33.6907 203.875 33.392V30.064H204.259L204.707 31.504C204.899 32.144 205.251 32.656 205.763 33.04C206.275 33.4027 207.001 33.584 207.939 33.584C208.963 33.584 209.753 33.3387 210.307 32.848C210.883 32.336 211.171 31.6107 211.171 30.672C211.171 29.84 210.947 29.1893 210.499 28.72C210.051 28.2293 209.219 27.7387 208.003 27.248C206.723 26.736 205.774 26.1813 205.155 25.584C204.558 24.9867 204.259 24.1333 204.259 23.024C204.259 22.3413 204.441 21.7227 204.803 21.168C205.187 20.592 205.689 20.1333 206.307 19.792C206.926 19.4507 207.587 19.28 208.291 19.28C209.081 19.28 209.785 19.376 210.403 19.568C211.022 19.7387 211.555 19.9413 212.003 20.176V23.44H211.619L211.203 22.064C210.99 21.3173 210.585 20.784 209.987 20.464C209.411 20.144 208.825 19.984 208.227 19.984C207.395 19.984 206.755 20.2293 206.307 20.72C205.881 21.2107 205.667 21.8507 205.667 22.64C205.667 23.4293 205.902 24.048 206.371 24.496C206.841 24.944 207.598 25.3813 208.643 25.808C209.582 26.192 210.339 26.5653 210.915 26.928C211.513 27.2907 211.95 27.7387 212.227 28.272C212.505 28.784 212.643 29.4453 212.643 30.256C212.643 30.9813 212.441 31.6533 212.035 32.272C211.63 32.8907 211.054 33.392 210.307 33.776C209.561 34.1387 208.686 34.32 207.683 34.32ZM224.588 38.8V10.32H229.772V10.896H225.708V38.224H229.772V38.8H224.588ZM230.619 38.8V38.224H234.683V10.896H230.619V10.32H235.803V38.8H230.619ZM254.026 34.32C252.533 34.32 251.274 34 250.25 33.36C249.247 32.72 248.479 31.856 247.946 30.768C247.434 29.68 247.178 28.4533 247.178 27.088C247.178 25.5947 247.477 24.2613 248.074 23.088C248.693 21.8933 249.535 20.9653 250.602 20.304C251.69 19.6213 252.917 19.28 254.282 19.28C255.135 19.28 255.893 19.3973 256.554 19.632C257.215 19.8667 257.749 20.1227 258.154 20.4C258.837 20.8693 259.178 21.2747 259.178 21.616C259.178 21.7653 259.103 21.904 258.954 22.032L258.09 22.768H257.962L257.546 22.192C257.077 21.552 256.565 21.0293 256.01 20.624C255.477 20.1973 254.783 19.984 253.93 19.984C252.437 19.984 251.199 20.5493 250.218 21.68C249.258 22.7893 248.778 24.4533 248.778 26.672C248.778 28.5493 249.269 30.0747 250.25 31.248C251.253 32.4 252.661 32.976 254.474 32.976C255.455 32.976 256.362 32.8267 257.194 32.528C258.026 32.2293 258.677 31.824 259.146 31.312H259.242V31.728C258.751 32.4747 258.058 33.0933 257.162 33.584C256.266 34.0747 255.221 34.32 254.026 34.32ZM270.432 38.8V10.32H275.616V10.896H271.552V38.224H275.616V38.8H270.432ZM281.039 34.32C280.058 34.32 279.236 34.032 278.575 33.456C277.914 32.8587 277.583 32.0373 277.583 30.992C277.583 29.968 277.946 29.1147 278.671 28.432C279.418 27.7493 280.644 27.1947 282.351 26.768L285.487 25.968V23.312C285.487 22.3947 285.156 21.6587 284.495 21.104C283.834 20.528 283.076 20.24 282.223 20.24C281.306 20.24 280.655 20.432 280.271 20.816C279.908 21.1787 279.727 21.68 279.727 22.32V23.632L279.567 23.792H278.735C278.394 23.792 278.17 23.7387 278.063 23.632C277.956 23.5253 277.903 23.3227 277.903 23.024C277.903 22.6187 278.042 22.2027 278.319 21.776C278.596 21.3493 279.002 20.9653 279.535 20.624C280.111 20.2613 280.687 19.952 281.263 19.696C281.86 19.4187 282.426 19.28 282.959 19.28C284.239 19.28 285.242 19.568 285.967 20.144C286.714 20.6987 287.087 21.5733 287.087 22.768V32.72C287.258 32.8693 287.45 32.9867 287.663 33.072C287.898 33.1573 288.164 33.2 288.463 33.2H290.127L290.159 33.232V33.296C290.01 33.5093 289.764 33.7333 289.423 33.968C289.082 34.2027 288.623 34.32 288.047 34.32C287.3 34.32 286.724 34.128 286.319 33.744C285.914 33.36 285.668 32.912 285.583 32.4H285.519C284.964 32.9547 284.292 33.4133 283.503 33.776C282.735 34.1387 281.914 34.32 281.039 34.32ZM279.183 30.416C279.183 31.2907 279.428 31.952 279.919 32.4C280.41 32.8267 281.103 33.04 281.999 33.04C282.532 33.04 283.108 32.9653 283.727 32.816C284.346 32.6453 284.932 32.3893 285.487 32.048V26.64C283.716 27.0027 282.372 27.3653 281.455 27.728C280.559 28.0907 279.951 28.4853 279.631 28.912C279.332 29.3387 279.183 29.84 279.183 30.416ZM290.932 38.8V38.224H294.996V10.896H290.932V10.32H296.116V38.8H290.932ZM314.339 34.32C312.845 34.32 311.587 34 310.563 33.36C309.56 32.72 308.792 31.856 308.259 30.768C307.747 29.68 307.491 28.4533 307.491 27.088C307.491 25.5947 307.789 24.2613 308.387 23.088C309.005 21.8933 309.848 20.9653 310.915 20.304C312.003 19.6213 313.229 19.28 314.595 19.28C315.448 19.28 316.205 19.3973 316.867 19.632C317.528 19.8667 318.061 20.1227 318.467 20.4C319.149 20.8693 319.491 21.2747 319.491 21.616C319.491 21.7653 319.416 21.904 319.267 22.032L318.403 22.768H318.275L317.859 22.192C317.389 21.552 316.877 21.0293 316.323 20.624C315.789 20.1973 315.096 19.984 314.243 19.984C312.749 19.984 311.512 20.5493 310.531 21.68C309.571 22.7893 309.091 24.4533 309.091 26.672C309.091 28.5493 309.581 30.0747 310.563 31.248C311.565 32.4 312.973 32.976 314.787 32.976C315.768 32.976 316.675 32.8267 317.507 32.528C318.339 32.2293 318.989 31.824 319.459 31.312H319.555V31.728C319.064 32.4747 318.371 33.0933 317.475 33.584C316.579 34.0747 315.533 34.32 314.339 34.32ZM337.432 34.32C335.939 34.32 334.68 34 333.656 33.36C332.654 32.72 331.886 31.856 331.352 30.768C330.84 29.68 330.584 28.4533 330.584 27.088C330.584 25.5947 330.883 24.2613 331.48 23.088C332.099 21.8933 332.942 20.9653 334.008 20.304C335.096 19.6213 336.323 19.28 337.688 19.28C338.542 19.28 339.299 19.3973 339.96 19.632C340.622 19.8667 341.155 20.1227 341.56 20.4C342.243 20.8693 342.584 21.2747 342.584 21.616C342.584 21.7653 342.51 21.904 342.36 22.032L341.496 22.768H341.368L340.952 22.192C340.483 21.552 339.971 21.0293 339.416 20.624C338.883 20.1973 338.19 19.984 337.336 19.984C335.843 19.984 334.606 20.5493 333.624 21.68C332.664 22.7893 332.184 24.4533 332.184 26.672C332.184 28.5493 332.675 30.0747 333.656 31.248C334.659 32.4 336.067 32.976 337.88 32.976C338.862 32.976 339.768 32.8267 340.6 32.528C341.432 32.2293 342.083 31.824 342.552 31.312H342.648V31.728C342.158 32.4747 341.464 33.0933 340.568 33.584C339.672 34.0747 338.627 34.32 337.432 34.32ZM353.838 38.8V10.32H359.022V10.896H354.958V38.224H359.022V38.8H353.838ZM364.445 34.32C363.464 34.32 362.642 34.032 361.981 33.456C361.32 32.8587 360.989 32.0373 360.989 30.992C360.989 29.968 361.352 29.1147 362.077 28.432C362.824 27.7493 364.05 27.1947 365.757 26.768L368.893 25.968V23.312C368.893 22.3947 368.562 21.6587 367.901 21.104C367.24 20.528 366.482 20.24 365.629 20.24C364.712 20.24 364.061 20.432 363.677 20.816C363.314 21.1787 363.133 21.68 363.133 22.32V23.632L362.973 23.792H362.141C361.8 23.792 361.576 23.7387 361.469 23.632C361.362 23.5253 361.309 23.3227 361.309 23.024C361.309 22.6187 361.448 22.2027 361.725 21.776C362.002 21.3493 362.408 20.9653 362.941 20.624C363.517 20.2613 364.093 19.952 364.669 19.696C365.266 19.4187 365.832 19.28 366.365 19.28C367.645 19.28 368.648 19.568 369.373 20.144C370.12 20.6987 370.493 21.5733 370.493 22.768V32.72C370.664 32.8693 370.856 32.9867 371.069 33.072C371.304 33.1573 371.57 33.2 371.869 33.2H373.533L373.565 33.232V33.296C373.416 33.5093 373.17 33.7333 372.829 33.968C372.488 34.2027 372.029 34.32 371.453 34.32C370.706 34.32 370.13 34.128 369.725 33.744C369.32 33.36 369.074 32.912 368.989 32.4H368.925C368.37 32.9547 367.698 33.4133 366.909 33.776C366.141 34.1387 365.32 34.32 364.445 34.32ZM362.589 30.416C362.589 31.2907 362.834 31.952 363.325 32.4C363.816 32.8267 364.509 33.04 365.405 33.04C365.938 33.04 366.514 32.9653 367.133 32.816C367.752 32.6453 368.338 32.3893 368.893 32.048V26.64C367.122 27.0027 365.778 27.3653 364.861 27.728C363.965 28.0907 363.357 28.4853 363.037 28.912C362.738 29.3387 362.589 29.84 362.589 30.416ZM374.338 38.8V38.224H378.402V10.896H374.338V10.32H379.522V38.8H374.338ZM395.825 34.16L390.609 20.688L388.593 20.08V19.6H394.737V20.08L392.273 20.624V20.72L396.401 31.92H396.497L400.561 20.752V20.656L397.969 20.08V19.6H403.633V20.08L401.585 20.688L396.145 34.16H395.825ZM412.619 38.8V10.32H417.803V10.896H413.739V38.224H417.803V38.8H412.619ZM423.226 34.32C422.245 34.32 421.424 34.032 420.762 33.456C420.101 32.8587 419.77 32.0373 419.77 30.992C419.77 29.968 420.133 29.1147 420.858 28.432C421.605 27.7493 422.832 27.1947 424.538 26.768L427.674 25.968V23.312C427.674 22.3947 427.344 21.6587 426.682 21.104C426.021 20.528 425.264 20.24 424.41 20.24C423.493 20.24 422.842 20.432 422.458 20.816C422.096 21.1787 421.914 21.68 421.914 22.32V23.632L421.754 23.792H420.922C420.581 23.792 420.357 23.7387 420.25 23.632C420.144 23.5253 420.09 23.3227 420.09 23.024C420.09 22.6187 420.229 22.2027 420.506 21.776C420.784 21.3493 421.189 20.9653 421.722 20.624C422.298 20.2613 422.874 19.952 423.45 19.696C424.048 19.4187 424.613 19.28 425.146 19.28C426.426 19.28 427.429 19.568 428.154 20.144C428.901 20.6987 429.274 21.5733 429.274 22.768V32.72C429.445 32.8693 429.637 32.9867 429.85 33.072C430.085 33.1573 430.352 33.2 430.65 33.2H432.314L432.346 33.232V33.296C432.197 33.5093 431.952 33.7333 431.61 33.968C431.269 34.2027 430.81 34.32 430.234 34.32C429.488 34.32 428.912 34.128 428.506 33.744C428.101 33.36 427.856 32.912 427.77 32.4H427.706C427.152 32.9547 426.48 33.4133 425.69 33.776C424.922 34.1387 424.101 34.32 423.226 34.32ZM421.37 30.416C421.37 31.2907 421.616 31.952 422.106 32.4C422.597 32.8267 423.29 33.04 424.186 33.04C424.72 33.04 425.296 32.9653 425.914 32.816C426.533 32.6453 427.12 32.3893 427.674 32.048V26.64C425.904 27.0027 424.56 27.3653 423.642 27.728C422.746 28.0907 422.138 28.4853 421.818 28.912C421.52 29.3387 421.37 29.84 421.37 30.416ZM433.119 38.8V38.224H437.183V10.896H433.119V10.32H438.303V38.8H433.119ZM449.806 34V33.52L451.822 32.976V11.536L449.486 10.928V10.448L453.102 10H453.422V32.976L455.694 33.52V34H449.806ZM466.869 38.8V10.32H472.053V10.896H467.989V38.224H472.053V38.8H466.869ZM481.028 34.32C479.514 34.32 478.234 34 477.188 33.36C476.164 32.72 475.386 31.856 474.852 30.768C474.34 29.68 474.084 28.4533 474.084 27.088C474.084 25.6373 474.383 24.3253 474.98 23.152C475.599 21.9787 476.399 21.04 477.38 20.336C478.383 19.632 479.471 19.28 480.644 19.28C482.33 19.28 483.652 19.8347 484.612 20.944C485.572 22.0533 486.127 23.5893 486.276 25.552L486.18 25.648H475.716C475.695 25.968 475.684 26.3093 475.684 26.672C475.684 28.5493 476.186 30.0747 477.188 31.248C478.212 32.4 479.642 32.976 481.476 32.976C482.479 32.976 483.386 32.8267 484.196 32.528C485.028 32.2293 485.679 31.824 486.148 31.312H486.244V31.728C485.775 32.4747 485.082 33.0933 484.164 33.584C483.268 34.0747 482.223 34.32 481.028 34.32ZM480.26 19.984C479.215 19.984 478.276 20.4213 477.444 21.296C476.612 22.1493 476.068 23.3653 475.812 24.944H484.516C484.303 23.3867 483.866 22.1707 483.204 21.296C482.543 20.4213 481.562 19.984 480.26 19.984ZM487.994 38.8V38.224H492.058V10.896H487.994V10.32H493.178V38.8H487.994ZM57.0895 74.6V53.24H60.9775V53.672H57.9295V74.168H60.9775V74.6H57.0895ZM67.0128 71.24C66.0368 71.24 65.2368 70.96 64.6128 70.4C63.9888 69.84 63.6768 69.024 63.6768 67.952V60.968L61.9728 60.56V60.2H64.8768V67.304C64.8768 68.28 65.1248 69.024 65.6208 69.536C66.1328 70.032 66.7888 70.28 67.5888 70.28C68.0528 70.28 68.5488 70.168 69.0768 69.944C69.6208 69.704 70.0608 69.368 70.3968 68.936V60.968L68.4528 60.56V60.2H71.5968V70.232L73.3008 70.64V71H70.3968V69.536H70.3248C69.7488 70.112 69.2048 70.544 68.6928 70.832C68.1808 71.104 67.6208 71.24 67.0128 71.24ZM74.3159 74.6V74.168H77.3639V53.672H74.3159V53.24H78.2039V74.6H74.3159ZM80.1592 71V70.64L81.5512 70.256L84.5992 65.6L81.6712 60.992L80.2792 60.56V60.2H84.5272V60.56L83.0152 60.968V61.04L85.4152 64.808L87.6232 61.04V60.968L86.3032 60.56V60.2H89.6872V60.56L88.3912 61.088L85.6312 65.144L88.8712 70.208L90.0952 70.64V71H86.1592V70.64L87.5032 70.232V70.16L84.8152 65.96L82.4632 70.16V70.232L83.7592 70.64V71H80.1592Z" fill="black"/>
<path d="M102.019 71.24C101.219 71.24 100.507 71.032 99.8828 70.616C99.2588 70.2 98.7628 69.616 98.3948 68.864C98.0428 68.096 97.8668 67.184 97.8668 66.128C97.8668 64.816 98.1228 63.704 98.6348 62.792C99.1468 61.864 99.8268 61.16 100.675 60.68C101.523 60.2 102.459 59.96 103.483 59.96C103.835 59.96 104.203 60.024 104.587 60.152C104.971 60.264 105.347 60.416 105.715 60.608V54.152L103.963 53.696V53.336L106.675 53H106.915V70.232L108.619 70.64V71H105.955L105.739 69.776H105.619C105.075 70.24 104.507 70.6 103.915 70.856C103.339 71.112 102.707 71.24 102.019 71.24ZM98.9948 65.744C98.9948 66.816 99.1708 67.704 99.5228 68.408C99.8748 69.096 100.331 69.608 100.891 69.944C101.467 70.264 102.059 70.424 102.667 70.424C103.195 70.424 103.723 70.328 104.251 70.136C104.779 69.944 105.267 69.632 105.715 69.2V61.472C105.219 61.2 104.723 60.984 104.227 60.824C103.731 60.664 103.203 60.584 102.643 60.584C101.987 60.584 101.379 60.752 100.819 61.088C100.275 61.424 99.8348 61.976 99.4988 62.744C99.1628 63.496 98.9948 64.496 98.9948 65.744ZM116.178 71.24C115.042 71.24 114.082 71 113.298 70.52C112.53 70.04 111.946 69.392 111.546 68.576C111.162 67.76 110.97 66.84 110.97 65.816C110.97 64.728 111.194 63.744 111.642 62.864C112.106 61.984 112.706 61.28 113.442 60.752C114.194 60.224 115.01 59.96 115.89 59.96C117.154 59.96 118.146 60.376 118.866 61.208C119.586 62.04 120.002 63.192 120.114 64.664L120.042 64.736H112.194C112.178 64.976 112.17 65.232 112.17 65.504C112.17 66.912 112.546 68.056 113.298 68.936C114.066 69.8 115.138 70.232 116.514 70.232C117.266 70.232 117.946 70.12 118.554 69.896C119.178 69.672 119.666 69.368 120.018 68.984H120.09V69.296C119.738 69.856 119.218 70.32 118.53 70.688C117.858 71.056 117.074 71.24 116.178 71.24ZM115.602 60.488C114.818 60.488 114.114 60.816 113.49 61.472C112.866 62.112 112.458 63.024 112.266 64.208H118.794C118.634 63.04 118.306 62.128 117.81 61.472C117.314 60.816 116.578 60.488 115.602 60.488ZM125.692 71.24C125.132 71.24 124.628 71.176 124.18 71.048C123.748 70.936 123.3 70.768 122.836 70.544V68.048H123.124L123.46 69.128C123.604 69.608 123.868 69.992 124.252 70.28C124.636 70.552 125.18 70.688 125.884 70.688C126.652 70.688 127.244 70.504 127.66 70.136C128.092 69.752 128.308 69.208 128.308 68.504C128.308 67.88 128.14 67.392 127.804 67.04C127.468 66.672 126.844 66.304 125.932 65.936C124.972 65.552 124.26 65.136 123.796 64.688C123.348 64.24 123.124 63.6 123.124 62.768C123.124 62.256 123.26 61.792 123.532 61.376C123.82 60.944 124.196 60.6 124.66 60.344C125.124 60.088 125.62 59.96 126.148 59.96C126.74 59.96 127.268 60.032 127.732 60.176C128.196 60.304 128.596 60.456 128.932 60.632V63.08H128.644L128.332 62.048C128.172 61.488 127.868 61.088 127.42 60.848C126.988 60.608 126.548 60.488 126.1 60.488C125.476 60.488 124.996 60.672 124.66 61.04C124.34 61.408 124.18 61.888 124.18 62.48C124.18 63.072 124.356 63.536 124.708 63.872C125.06 64.208 125.628 64.536 126.412 64.856C127.116 65.144 127.684 65.424 128.116 65.696C128.564 65.968 128.892 66.304 129.1 66.704C129.308 67.088 129.412 67.584 129.412 68.192C129.412 68.736 129.26 69.24 128.956 69.704C128.652 70.168 128.22 70.544 127.66 70.832C127.1 71.104 126.444 71.24 125.692 71.24ZM134.363 56.168C134.107 56.168 133.891 56.08 133.715 55.904C133.539 55.728 133.451 55.512 133.451 55.256C133.451 55 133.539 54.784 133.715 54.608C133.891 54.432 134.107 54.344 134.363 54.344C134.619 54.344 134.835 54.432 135.011 54.608C135.187 54.784 135.275 55 135.275 55.256C135.275 55.512 135.187 55.728 135.011 55.904C134.835 56.08 134.619 56.168 134.363 56.168ZM132.587 71V70.64L134.099 70.232V61.112L132.347 60.656V60.296L135.059 59.96H135.299V70.232L137.003 70.64V71H132.587ZM143.837 67.376C143.357 67.376 142.901 67.296 142.469 67.136C141.941 67.36 141.573 67.6 141.365 67.856C141.157 68.112 141.053 68.408 141.053 68.744C141.053 69.288 141.245 69.68 141.629 69.92C142.013 70.16 142.605 70.28 143.405 70.28H146.117C147.061 70.28 147.781 70.504 148.277 70.952C148.789 71.4 149.045 72.016 149.045 72.8C149.045 73.456 148.821 74.088 148.373 74.696C147.925 75.304 147.301 75.8 146.501 76.184C145.701 76.568 144.757 76.76 143.669 76.76C142.277 76.76 141.277 76.48 140.669 75.92C140.061 75.376 139.757 74.704 139.757 73.904C139.757 73.312 139.877 72.8 140.117 72.368L141.581 71.144V71.096C140.541 70.792 140.021 70.16 140.021 69.2C140.021 68.672 140.197 68.232 140.549 67.88L141.965 67.04V66.92C141.389 66.616 140.933 66.184 140.597 65.624C140.261 65.048 140.093 64.4 140.093 63.68C140.093 62.976 140.253 62.344 140.573 61.784C140.909 61.224 141.357 60.784 141.917 60.464C142.477 60.128 143.117 59.96 143.837 59.96C144.189 59.96 144.573 60.008 144.989 60.104C145.405 60.184 145.733 60.28 145.973 60.392L149.237 60.2V61.184L146.813 61.016L146.765 61.064C147.021 61.336 147.213 61.72 147.341 62.216C147.485 62.696 147.557 63.184 147.557 63.68C147.557 64.384 147.397 65.016 147.077 65.576C146.757 66.136 146.317 66.576 145.757 66.896C145.197 67.216 144.557 67.376 143.837 67.376ZM144.077 66.896C144.765 66.896 145.309 66.624 145.709 66.08C146.125 65.52 146.333 64.736 146.333 63.728C146.333 62.624 146.077 61.8 145.565 61.256C145.053 60.696 144.421 60.416 143.669 60.416C142.933 60.416 142.357 60.704 141.941 61.28C141.525 61.84 141.317 62.616 141.317 63.608C141.317 64.712 141.573 65.536 142.085 66.08C142.613 66.624 143.277 66.896 144.077 66.896ZM140.861 73.64C140.861 74.376 141.165 74.992 141.773 75.488C142.397 75.984 143.157 76.232 144.053 76.232C144.821 76.232 145.501 76.088 146.093 75.8C146.685 75.528 147.149 75.16 147.485 74.696C147.821 74.248 147.989 73.768 147.989 73.256C147.989 72.488 147.789 71.96 147.389 71.672C147.005 71.384 146.309 71.24 145.301 71.24H142.781C142.541 71.24 142.309 71.224 142.085 71.192C141.621 71.464 141.301 71.792 141.125 72.176C140.949 72.576 140.861 73.064 140.861 73.64ZM151.826 71V70.64L153.338 70.232V61.112L151.586 60.896V60.536L154.178 59.96H154.418L154.514 61.688H154.586C155.178 61.08 155.738 60.64 156.266 60.368C156.794 60.096 157.386 59.96 158.042 59.96C159.05 59.96 159.874 60.24 160.514 60.8C161.17 61.36 161.498 62.176 161.498 63.248V70.232L163.01 70.64V71H158.594V70.64L160.298 70.232V63.896C160.298 62.92 160.034 62.184 159.506 61.688C158.994 61.176 158.314 60.92 157.466 60.92C156.986 60.92 156.466 61.04 155.906 61.28C155.346 61.504 154.89 61.832 154.538 62.264V70.232L156.242 70.64V71H151.826ZM170.318 71.24C169.182 71.24 168.222 71 167.438 70.52C166.67 70.04 166.086 69.392 165.686 68.576C165.302 67.76 165.11 66.84 165.11 65.816C165.11 64.728 165.334 63.744 165.782 62.864C166.246 61.984 166.846 61.28 167.582 60.752C168.334 60.224 169.15 59.96 170.03 59.96C171.294 59.96 172.286 60.376 173.006 61.208C173.726 62.04 174.142 63.192 174.254 64.664L174.182 64.736H166.334C166.318 64.976 166.31 65.232 166.31 65.504C166.31 66.912 166.686 68.056 167.438 68.936C168.206 69.8 169.278 70.232 170.654 70.232C171.406 70.232 172.086 70.12 172.694 69.896C173.318 69.672 173.806 69.368 174.158 68.984H174.23V69.296C173.878 69.856 173.358 70.32 172.67 70.688C171.998 71.056 171.214 71.24 170.318 71.24ZM169.742 60.488C168.958 60.488 168.254 60.816 167.63 61.472C167.006 62.112 166.598 63.024 166.406 64.208H172.934C172.774 63.04 172.446 62.128 171.95 61.472C171.454 60.816 170.718 60.488 169.742 60.488ZM176.953 71V70.64L178.465 70.232V61.112L176.713 60.896V60.536L179.305 59.96H179.545L179.665 62.096H179.713C180.337 61.44 180.833 60.96 181.201 60.656C181.569 60.352 181.873 60.16 182.113 60.08C182.353 60 182.625 59.96 182.929 59.96C183.201 59.96 183.449 60.008 183.673 60.104C183.833 60.168 183.945 60.232 184.009 60.296C184.089 60.344 184.129 60.416 184.129 60.512C184.129 60.544 184.121 60.584 184.105 60.632C184.105 60.664 184.097 60.712 184.081 60.776L183.841 61.4H183.793L183.337 61.184C183.113 61.072 182.817 61.016 182.449 61.016C181.985 61.016 181.521 61.144 181.057 61.4C180.593 61.656 180.129 62.104 179.665 62.744V70.232L181.513 70.64V71H176.953ZM196.545 71.24C195.409 71.24 194.449 71 193.665 70.52C192.897 70.04 192.313 69.392 191.913 68.576C191.529 67.76 191.337 66.84 191.337 65.816C191.337 64.728 191.561 63.744 192.009 62.864C192.473 61.984 193.073 61.28 193.809 60.752C194.561 60.224 195.377 59.96 196.257 59.96C197.521 59.96 198.513 60.376 199.233 61.208C199.953 62.04 200.369 63.192 200.481 64.664L200.409 64.736H192.561C192.545 64.976 192.537 65.232 192.537 65.504C192.537 66.912 192.913 68.056 193.665 68.936C194.433 69.8 195.505 70.232 196.881 70.232C197.633 70.232 198.313 70.12 198.921 69.896C199.545 69.672 200.033 69.368 200.385 68.984H200.457V69.296C200.105 69.856 199.585 70.32 198.897 70.688C198.225 71.056 197.441 71.24 196.545 71.24ZM195.969 60.488C195.185 60.488 194.481 60.816 193.857 61.472C193.233 62.112 192.825 63.024 192.633 64.208H199.161C199.001 63.04 198.673 62.128 198.177 61.472C197.681 60.816 196.945 60.488 195.969 60.488ZM203.083 71V70.64L204.595 70.232V61.112L202.843 60.896V60.536L205.435 59.96H205.675L205.771 61.688H205.843C206.435 61.08 206.995 60.64 207.523 60.368C208.051 60.096 208.643 59.96 209.299 59.96C210.307 59.96 211.131 60.24 211.771 60.8C212.427 61.36 212.755 62.176 212.755 63.248V70.232L214.267 70.64V71H209.851V70.64L211.555 70.232V63.896C211.555 62.92 211.291 62.184 210.763 61.688C210.251 61.176 209.571 60.92 208.723 60.92C208.243 60.92 207.723 61.04 207.163 61.28C206.603 61.504 206.147 61.832 205.795 62.264V70.232L207.499 70.64V71H203.083ZM220.712 67.376C220.232 67.376 219.776 67.296 219.344 67.136C218.816 67.36 218.448 67.6 218.24 67.856C218.032 68.112 217.928 68.408 217.928 68.744C217.928 69.288 218.12 69.68 218.504 69.92C218.888 70.16 219.48 70.28 220.28 70.28H222.992C223.936 70.28 224.656 70.504 225.152 70.952C225.664 71.4 225.92 72.016 225.92 72.8C225.92 73.456 225.696 74.088 225.248 74.696C224.8 75.304 224.176 75.8 223.376 76.184C222.576 76.568 221.632 76.76 220.544 76.76C219.152 76.76 218.152 76.48 217.544 75.92C216.936 75.376 216.632 74.704 216.632 73.904C216.632 73.312 216.752 72.8 216.992 72.368L218.456 71.144V71.096C217.416 70.792 216.896 70.16 216.896 69.2C216.896 68.672 217.072 68.232 217.424 67.88L218.84 67.04V66.92C218.264 66.616 217.808 66.184 217.472 65.624C217.136 65.048 216.968 64.4 216.968 63.68C216.968 62.976 217.128 62.344 217.448 61.784C217.784 61.224 218.232 60.784 218.792 60.464C219.352 60.128 219.992 59.96 220.712 59.96C221.064 59.96 221.448 60.008 221.864 60.104C222.28 60.184 222.608 60.28 222.848 60.392L226.112 60.2V61.184L223.688 61.016L223.64 61.064C223.896 61.336 224.088 61.72 224.216 62.216C224.36 62.696 224.432 63.184 224.432 63.68C224.432 64.384 224.272 65.016 223.952 65.576C223.632 66.136 223.192 66.576 222.632 66.896C222.072 67.216 221.432 67.376 220.712 67.376ZM220.952 66.896C221.64 66.896 222.184 66.624 222.584 66.08C223 65.52 223.208 64.736 223.208 63.728C223.208 62.624 222.952 61.8 222.44 61.256C221.928 60.696 221.296 60.416 220.544 60.416C219.808 60.416 219.232 60.704 218.816 61.28C218.4 61.84 218.192 62.616 218.192 63.608C218.192 64.712 218.448 65.536 218.96 66.08C219.488 66.624 220.152 66.896 220.952 66.896ZM217.736 73.64C217.736 74.376 218.04 74.992 218.648 75.488C219.272 75.984 220.032 76.232 220.928 76.232C221.696 76.232 222.376 76.088 222.968 75.8C223.56 75.528 224.024 75.16 224.36 74.696C224.696 74.248 224.864 73.768 224.864 73.256C224.864 72.488 224.664 71.96 224.264 71.672C223.88 71.384 223.184 71.24 222.176 71.24H219.656C219.416 71.24 219.184 71.224 218.96 71.192C218.496 71.464 218.176 71.792 218 72.176C217.824 72.576 217.736 73.064 217.736 73.64ZM230.621 56.168C230.365 56.168 230.149 56.08 229.973 55.904C229.797 55.728 229.709 55.512 229.709 55.256C229.709 55 229.797 54.784 229.973 54.608C230.149 54.432 230.365 54.344 230.621 54.344C230.877 54.344 231.093 54.432 231.269 54.608C231.445 54.784 231.533 55 231.533 55.256C231.533 55.512 231.445 55.728 231.269 55.904C231.093 56.08 230.877 56.168 230.621 56.168ZM228.845 71V70.64L230.357 70.232V61.112L228.605 60.656V60.296L231.317 59.96H231.557V70.232L233.261 70.64V71H228.845ZM235.943 71V70.64L237.455 70.232V61.112L235.703 60.896V60.536L238.295 59.96H238.535L238.631 61.688H238.703C239.295 61.08 239.855 60.64 240.383 60.368C240.911 60.096 241.503 59.96 242.159 59.96C243.167 59.96 243.991 60.24 244.631 60.8C245.287 61.36 245.615 62.176 245.615 63.248V70.232L247.127 70.64V71H242.711V70.64L244.415 70.232V63.896C244.415 62.92 244.151 62.184 243.623 61.688C243.111 61.176 242.431 60.92 241.583 60.92C241.103 60.92 240.583 61.04 240.023 61.28C239.463 61.504 239.007 61.832 238.655 62.264V70.232L240.359 70.64V71H235.943ZM254.435 71.24C253.299 71.24 252.339 71 251.555 70.52C250.787 70.04 250.203 69.392 249.803 68.576C249.419 67.76 249.227 66.84 249.227 65.816C249.227 64.728 249.451 63.744 249.899 62.864C250.363 61.984 250.963 61.28 251.699 60.752C252.451 60.224 253.267 59.96 254.147 59.96C255.411 59.96 256.403 60.376 257.123 61.208C257.843 62.04 258.259 63.192 258.371 64.664L258.299 64.736H250.451C250.435 64.976 250.427 65.232 250.427 65.504C250.427 66.912 250.803 68.056 251.555 68.936C252.323 69.8 253.395 70.232 254.771 70.232C255.523 70.232 256.203 70.12 256.811 69.896C257.435 69.672 257.923 69.368 258.275 68.984H258.347V69.296C257.995 69.856 257.475 70.32 256.787 70.688C256.115 71.056 255.331 71.24 254.435 71.24ZM253.859 60.488C253.075 60.488 252.371 60.816 251.747 61.472C251.123 62.112 250.715 63.024 250.523 64.208H257.051C256.891 63.04 256.563 62.128 256.067 61.472C255.571 60.816 254.835 60.488 253.859 60.488ZM266.224 71.24C265.088 71.24 264.128 71 263.344 70.52C262.576 70.04 261.992 69.392 261.592 68.576C261.208 67.76 261.016 66.84 261.016 65.816C261.016 64.728 261.24 63.744 261.688 62.864C262.152 61.984 262.752 61.28 263.488 60.752C264.24 60.224 265.056 59.96 265.936 59.96C267.2 59.96 268.192 60.376 268.912 61.208C269.632 62.04 270.048 63.192 270.16 64.664L270.088 64.736H262.24C262.224 64.976 262.216 65.232 262.216 65.504C262.216 66.912 262.592 68.056 263.344 68.936C264.112 69.8 265.184 70.232 266.56 70.232C267.312 70.232 267.992 70.12 268.6 69.896C269.224 69.672 269.712 69.368 270.064 68.984H270.136V69.296C269.784 69.856 269.264 70.32 268.576 70.688C267.904 71.056 267.12 71.24 266.224 71.24ZM265.648 60.488C264.864 60.488 264.16 60.816 263.536 61.472C262.912 62.112 262.504 63.024 262.312 64.208H268.84C268.68 63.04 268.352 62.128 267.856 61.472C267.36 60.816 266.624 60.488 265.648 60.488ZM272.859 71V70.64L274.371 70.232V61.112L272.619 60.896V60.536L275.211 59.96H275.451L275.571 62.096H275.619C276.243 61.44 276.739 60.96 277.107 60.656C277.475 60.352 277.779 60.16 278.019 60.08C278.259 60 278.531 59.96 278.835 59.96C279.107 59.96 279.355 60.008 279.579 60.104C279.739 60.168 279.851 60.232 279.915 60.296C279.995 60.344 280.035 60.416 280.035 60.512C280.035 60.544 280.027 60.584 280.011 60.632C280.011 60.664 280.003 60.712 279.987 60.776L279.747 61.4H279.699L279.243 61.184C279.019 61.072 278.723 61.016 278.355 61.016C277.891 61.016 277.427 61.144 276.963 61.4C276.499 61.656 276.035 62.104 275.571 62.744V70.232L277.419 70.64V71H272.859ZM287.531 71V70.64L289.043 70.232V61.112L287.291 60.896V60.536L289.883 59.96H290.123L290.243 62.096H290.291C290.915 61.44 291.411 60.96 291.779 60.656C292.147 60.352 292.451 60.16 292.691 60.08C292.931 60 293.203 59.96 293.507 59.96C293.779 59.96 294.027 60.008 294.251 60.104C294.411 60.168 294.523 60.232 294.587 60.296C294.667 60.344 294.707 60.416 294.707 60.512C294.707 60.544 294.699 60.584 294.683 60.632C294.683 60.664 294.675 60.712 294.659 60.776L294.419 61.4H294.371L293.915 61.184C293.691 61.072 293.395 61.016 293.027 61.016C292.563 61.016 292.099 61.144 291.635 61.4C291.171 61.656 290.707 62.104 290.243 62.744V70.232L292.091 70.64V71H287.531ZM301.123 71.24C299.987 71.24 299.027 71 298.243 70.52C297.475 70.04 296.891 69.392 296.491 68.576C296.107 67.76 295.915 66.84 295.915 65.816C295.915 64.728 296.139 63.744 296.587 62.864C297.051 61.984 297.651 61.28 298.387 60.752C299.139 60.224 299.955 59.96 300.835 59.96C302.099 59.96 303.091 60.376 303.811 61.208C304.531 62.04 304.947 63.192 305.059 64.664L304.987 64.736H297.139C297.123 64.976 297.115 65.232 297.115 65.504C297.115 66.912 297.491 68.056 298.243 68.936C299.011 69.8 300.083 70.232 301.459 70.232C302.211 70.232 302.891 70.12 303.499 69.896C304.123 69.672 304.611 69.368 304.963 68.984H305.035V69.296C304.683 69.856 304.163 70.32 303.475 70.688C302.803 71.056 302.019 71.24 301.123 71.24ZM300.547 60.488C299.763 60.488 299.059 60.816 298.435 61.472C297.811 62.112 297.403 63.024 297.211 64.208H303.739C303.579 63.04 303.251 62.128 302.755 61.472C302.259 60.816 301.523 60.488 300.547 60.488ZM310.638 71.24C310.078 71.24 309.574 71.176 309.126 71.048C308.694 70.936 308.246 70.768 307.782 70.544V68.048H308.07L308.406 69.128C308.55 69.608 308.814 69.992 309.198 70.28C309.582 70.552 310.126 70.688 310.83 70.688C311.598 70.688 312.19 70.504 312.606 70.136C313.038 69.752 313.254 69.208 313.254 68.504C313.254 67.88 313.086 67.392 312.75 67.04C312.414 66.672 311.79 66.304 310.878 65.936C309.918 65.552 309.206 65.136 308.742 64.688C308.294 64.24 308.07 63.6 308.07 62.768C308.07 62.256 308.206 61.792 308.478 61.376C308.766 60.944 309.142 60.6 309.606 60.344C310.07 60.088 310.566 59.96 311.094 59.96C311.686 59.96 312.214 60.032 312.678 60.176C313.142 60.304 313.542 60.456 313.878 60.632V63.08H313.59L313.278 62.048C313.118 61.488 312.814 61.088 312.366 60.848C311.934 60.608 311.494 60.488 311.046 60.488C310.422 60.488 309.942 60.672 309.606 61.04C309.286 61.408 309.126 61.888 309.126 62.48C309.126 63.072 309.302 63.536 309.654 63.872C310.006 64.208 310.574 64.536 311.358 64.856C312.062 65.144 312.63 65.424 313.062 65.696C313.51 65.968 313.838 66.304 314.046 66.704C314.254 67.088 314.358 67.584 314.358 68.192C314.358 68.736 314.206 69.24 313.902 69.704C313.598 70.168 313.166 70.544 312.606 70.832C312.046 71.104 311.39 71.24 310.638 71.24ZM322.404 71.24C321.268 71.24 320.308 71 319.524 70.52C318.756 70.04 318.172 69.392 317.772 68.576C317.388 67.76 317.196 66.84 317.196 65.816C317.196 64.728 317.42 63.744 317.868 62.864C318.332 61.984 318.932 61.28 319.668 60.752C320.42 60.224 321.236 59.96 322.116 59.96C323.38 59.96 324.372 60.376 325.092 61.208C325.812 62.04 326.228 63.192 326.34 64.664L326.268 64.736H318.42C318.404 64.976 318.396 65.232 318.396 65.504C318.396 66.912 318.772 68.056 319.524 68.936C320.292 69.8 321.364 70.232 322.74 70.232C323.492 70.232 324.172 70.12 324.78 69.896C325.404 69.672 325.892 69.368 326.244 68.984H326.316V69.296C325.964 69.856 325.444 70.32 324.756 70.688C324.084 71.056 323.3 71.24 322.404 71.24ZM321.828 60.488C321.044 60.488 320.34 60.816 319.716 61.472C319.092 62.112 318.684 63.024 318.492 64.208H325.02C324.86 63.04 324.532 62.128 324.036 61.472C323.54 60.816 322.804 60.488 321.828 60.488ZM331.295 71.24C330.559 71.24 329.943 71.024 329.447 70.592C328.951 70.144 328.703 69.528 328.703 68.744C328.703 67.976 328.975 67.336 329.519 66.824C330.079 66.312 330.999 65.896 332.279 65.576L334.631 64.976V62.984C334.631 62.296 334.383 61.744 333.887 61.328C333.391 60.896 332.823 60.68 332.183 60.68C331.495 60.68 331.007 60.824 330.719 61.112C330.447 61.384 330.311 61.76 330.311 62.24V63.224L330.191 63.344H329.567C329.311 63.344 329.143 63.304 329.063 63.224C328.983 63.144 328.943 62.992 328.943 62.768C328.943 62.464 329.047 62.152 329.255 61.832C329.463 61.512 329.767 61.224 330.167 60.968C330.599 60.696 331.031 60.464 331.463 60.272C331.911 60.064 332.335 59.96 332.735 59.96C333.695 59.96 334.447 60.176 334.991 60.608C335.551 61.024 335.831 61.68 335.831 62.576V70.04C335.959 70.152 336.103 70.24 336.263 70.304C336.439 70.368 336.639 70.4 336.863 70.4H338.111L338.135 70.424V70.472C338.023 70.632 337.839 70.8 337.583 70.976C337.327 71.152 336.983 71.24 336.551 71.24C335.991 71.24 335.559 71.096 335.255 70.808C334.951 70.52 334.767 70.184 334.703 69.8H334.655C334.239 70.216 333.735 70.56 333.143 70.832C332.567 71.104 331.951 71.24 331.295 71.24ZM329.903 68.312C329.903 68.968 330.087 69.464 330.455 69.8C330.823 70.12 331.343 70.28 332.015 70.28C332.415 70.28 332.847 70.224 333.311 70.112C333.775 69.984 334.215 69.792 334.631 69.536V65.48C333.303 65.752 332.295 66.024 331.607 66.296C330.935 66.568 330.479 66.864 330.239 67.184C330.015 67.504 329.903 67.88 329.903 68.312ZM339.89 71V70.64L341.402 70.232V61.112L339.65 60.896V60.536L342.242 59.96H342.482L342.602 62.096H342.65C343.274 61.44 343.77 60.96 344.138 60.656C344.506 60.352 344.81 60.16 345.05 60.08C345.29 60 345.562 59.96 345.866 59.96C346.138 59.96 346.386 60.008 346.61 60.104C346.77 60.168 346.882 60.232 346.946 60.296C347.026 60.344 347.066 60.416 347.066 60.512C347.066 60.544 347.058 60.584 347.042 60.632C347.042 60.664 347.034 60.712 347.018 60.776L346.778 61.4H346.73L346.274 61.184C346.05 61.072 345.754 61.016 345.386 61.016C344.922 61.016 344.458 61.144 343.994 61.4C343.53 61.656 343.066 62.104 342.602 62.744V70.232L344.45 70.64V71H339.89ZM353.41 71.24C352.29 71.24 351.346 71 350.578 70.52C349.826 70.04 349.25 69.392 348.85 68.576C348.466 67.76 348.274 66.84 348.274 65.816C348.274 64.696 348.498 63.696 348.946 62.816C349.41 61.92 350.042 61.224 350.842 60.728C351.658 60.216 352.578 59.96 353.602 59.96C354.242 59.96 354.81 60.048 355.306 60.224C355.802 60.4 356.202 60.592 356.506 60.8C357.018 61.152 357.274 61.456 357.274 61.712C357.274 61.824 357.218 61.928 357.106 62.024L356.458 62.576H356.362L356.05 62.144C355.698 61.664 355.314 61.272 354.898 60.968C354.498 60.648 353.978 60.488 353.338 60.488C352.218 60.488 351.29 60.912 350.554 61.76C349.834 62.592 349.474 63.84 349.474 65.504C349.474 66.912 349.842 68.056 350.578 68.936C351.33 69.8 352.386 70.232 353.746 70.232C354.482 70.232 355.162 70.12 355.786 69.896C356.41 69.672 356.898 69.368 357.25 68.984H357.322V69.296C356.954 69.856 356.434 70.32 355.762 70.688C355.09 71.056 354.306 71.24 353.41 71.24ZM359.787 71V70.64L361.299 70.232V54.152L359.547 53.696V53.336L362.259 53H362.499V61.688H362.547C363.139 61.08 363.699 60.64 364.227 60.368C364.755 60.096 365.347 59.96 366.003 59.96C367.011 59.96 367.835 60.24 368.475 60.8C369.131 61.36 369.459 62.176 369.459 63.248V70.232L370.971 70.64V71H366.555V70.64L368.259 70.232V63.896C368.259 62.92 367.995 62.184 367.467 61.688C366.955 61.176 366.275 60.92 365.427 60.92C364.947 60.92 364.427 61.04 363.867 61.28C363.307 61.504 362.851 61.832 362.499 62.264V70.232L364.203 70.64V71H359.787ZM378.279 71.24C377.143 71.24 376.183 71 375.399 70.52C374.631 70.04 374.047 69.392 373.647 68.576C373.263 67.76 373.071 66.84 373.071 65.816C373.071 64.728 373.295 63.744 373.743 62.864C374.207 61.984 374.807 61.28 375.543 60.752C376.295 60.224 377.111 59.96 377.991 59.96C379.255 59.96 380.247 60.376 380.967 61.208C381.687 62.04 382.103 63.192 382.215 64.664L382.143 64.736H374.295C374.279 64.976 374.271 65.232 374.271 65.504C374.271 66.912 374.647 68.056 375.399 68.936C376.167 69.8 377.239 70.232 378.615 70.232C379.367 70.232 380.047 70.12 380.655 69.896C381.279 69.672 381.767 69.368 382.119 68.984H382.191V69.296C381.839 69.856 381.319 70.32 380.631 70.688C379.959 71.056 379.175 71.24 378.279 71.24ZM377.703 60.488C376.919 60.488 376.215 60.816 375.591 61.472C374.967 62.112 374.559 63.024 374.367 64.208H380.895C380.735 63.04 380.407 62.128 379.911 61.472C379.415 60.816 378.679 60.488 377.703 60.488ZM384.914 71V70.64L386.426 70.232V61.112L384.674 60.896V60.536L387.266 59.96H387.506L387.626 62.096H387.674C388.298 61.44 388.794 60.96 389.162 60.656C389.53 60.352 389.834 60.16 390.074 60.08C390.314 60 390.586 59.96 390.89 59.96C391.162 59.96 391.41 60.008 391.634 60.104C391.794 60.168 391.906 60.232 391.97 60.296C392.05 60.344 392.09 60.416 392.09 60.512C392.09 60.544 392.082 60.584 392.066 60.632C392.066 60.664 392.058 60.712 392.042 60.776L391.802 61.4H391.754L391.298 61.184C391.074 61.072 390.778 61.016 390.41 61.016C389.946 61.016 389.482 61.144 389.018 61.4C388.554 61.656 388.09 62.104 387.626 62.744V70.232L389.474 70.64V71H384.914Z" fill="#BABCBE"/>
<path d="M402.466 71.24C401.906 71.24 401.402 71.176 400.954 71.048C400.522 70.936 400.074 70.768 399.61 70.544V68.048H399.898L400.234 69.128C400.378 69.608 400.642 69.992 401.026 70.28C401.41 70.552 401.954 70.688 402.658 70.688C403.426 70.688 404.018 70.504 404.434 70.136C404.866 69.752 405.082 69.208 405.082 68.504C405.082 67.88 404.914 67.392 404.578 67.04C404.242 66.672 403.618 66.304 402.706 65.936C401.746 65.552 401.034 65.136 400.57 64.688C400.122 64.24 399.898 63.6 399.898 62.768C399.898 62.256 400.034 61.792 400.306 61.376C400.594 60.944 400.97 60.6 401.434 60.344C401.898 60.088 402.394 59.96 402.922 59.96C403.514 59.96 404.042 60.032 404.506 60.176C404.97 60.304 405.37 60.456 405.706 60.632V63.08H405.418L405.106 62.048C404.946 61.488 404.642 61.088 404.194 60.848C403.762 60.608 403.322 60.488 402.874 60.488C402.25 60.488 401.77 60.672 401.434 61.04C401.114 61.408 400.954 61.888 400.954 62.48C400.954 63.072 401.13 63.536 401.482 63.872C401.834 64.208 402.402 64.536 403.186 64.856C403.89 65.144 404.458 65.424 404.89 65.696C405.338 65.968 405.666 66.304 405.874 66.704C406.082 67.088 406.186 67.584 406.186 68.192C406.186 68.736 406.034 69.24 405.73 69.704C405.426 70.168 404.994 70.544 404.434 70.832C403.874 71.104 403.218 71.24 402.466 71.24ZM414.16 71.24C413.04 71.24 412.096 71 411.328 70.52C410.576 70.04 410 69.392 409.6 68.576C409.216 67.76 409.024 66.84 409.024 65.816C409.024 64.696 409.248 63.696 409.696 62.816C410.16 61.92 410.792 61.224 411.592 60.728C412.408 60.216 413.328 59.96 414.352 59.96C414.992 59.96 415.56 60.048 416.056 60.224C416.552 60.4 416.952 60.592 417.256 60.8C417.768 61.152 418.024 61.456 418.024 61.712C418.024 61.824 417.968 61.928 417.856 62.024L417.208 62.576H417.112L416.8 62.144C416.448 61.664 416.064 61.272 415.648 60.968C415.248 60.648 414.728 60.488 414.088 60.488C412.968 60.488 412.04 60.912 411.304 61.76C410.584 62.592 410.224 63.84 410.224 65.504C410.224 66.912 410.592 68.056 411.328 68.936C412.08 69.8 413.136 70.232 414.496 70.232C415.232 70.232 415.912 70.12 416.536 69.896C417.16 69.672 417.648 69.368 418 68.984H418.072V69.296C417.704 69.856 417.184 70.32 416.512 70.688C415.84 71.056 415.056 71.24 414.16 71.24ZM422.457 56.168C422.201 56.168 421.985 56.08 421.809 55.904C421.633 55.728 421.545 55.512 421.545 55.256C421.545 55 421.633 54.784 421.809 54.608C421.985 54.432 422.201 54.344 422.457 54.344C422.713 54.344 422.929 54.432 423.105 54.608C423.281 54.784 423.369 55 423.369 55.256C423.369 55.512 423.281 55.728 423.105 55.904C422.929 56.08 422.713 56.168 422.457 56.168ZM420.681 71V70.64L422.193 70.232V61.112L420.441 60.656V60.296L423.153 59.96H423.393V70.232L425.097 70.64V71H420.681ZM432.795 71.24C431.659 71.24 430.699 71 429.915 70.52C429.147 70.04 428.563 69.392 428.163 68.576C427.779 67.76 427.587 66.84 427.587 65.816C427.587 64.728 427.811 63.744 428.259 62.864C428.723 61.984 429.323 61.28 430.059 60.752C430.811 60.224 431.627 59.96 432.507 59.96C433.771 59.96 434.763 60.376 435.483 61.208C436.203 62.04 436.619 63.192 436.731 64.664L436.659 64.736H428.811C428.795 64.976 428.787 65.232 428.787 65.504C428.787 66.912 429.163 68.056 429.915 68.936C430.683 69.8 431.755 70.232 433.131 70.232C433.883 70.232 434.563 70.12 435.171 69.896C435.795 69.672 436.283 69.368 436.635 68.984H436.707V69.296C436.355 69.856 435.835 70.32 435.147 70.688C434.475 71.056 433.691 71.24 432.795 71.24ZM432.219 60.488C431.435 60.488 430.731 60.816 430.107 61.472C429.483 62.112 429.075 63.024 428.883 64.208H435.411C435.251 63.04 434.923 62.128 434.427 61.472C433.931 60.816 433.195 60.488 432.219 60.488ZM439.333 71V70.64L440.845 70.232V61.112L439.093 60.896V60.536L441.685 59.96H441.925L442.021 61.688H442.093C442.685 61.08 443.245 60.64 443.773 60.368C444.301 60.096 444.893 59.96 445.549 59.96C446.557 59.96 447.381 60.24 448.021 60.8C448.677 61.36 449.005 62.176 449.005 63.248V70.232L450.517 70.64V71H446.101V70.64L447.805 70.232V63.896C447.805 62.92 447.541 62.184 447.013 61.688C446.501 61.176 445.821 60.92 444.973 60.92C444.493 60.92 443.973 61.04 443.413 61.28C442.853 61.504 442.397 61.832 442.045 62.264V70.232L443.749 70.64V71H439.333ZM456.17 71.24C455.514 71.24 454.978 71.032 454.562 70.616C454.162 70.2 453.962 69.616 453.962 68.864V61.016H451.85V60.8L454.106 60.2L454.898 57.56H455.162V60.2H458.33V61.016H455.162V68.816C455.162 69.312 455.314 69.688 455.618 69.944C455.922 70.184 456.322 70.304 456.818 70.304C457.17 70.304 457.49 70.264 457.778 70.184C458.066 70.104 458.338 69.992 458.594 69.848L458.618 69.872V69.968C458.49 70.24 458.218 70.52 457.802 70.808C457.386 71.096 456.842 71.24 456.17 71.24ZM462.652 56.168C462.396 56.168 462.18 56.08 462.004 55.904C461.828 55.728 461.74 55.512 461.74 55.256C461.74 55 461.828 54.784 462.004 54.608C462.18 54.432 462.396 54.344 462.652 54.344C462.908 54.344 463.124 54.432 463.3 54.608C463.476 54.784 463.564 55 463.564 55.256C463.564 55.512 463.476 55.728 463.3 55.904C463.124 56.08 462.908 56.168 462.652 56.168ZM460.876 71V70.64L462.388 70.232V61.112L460.636 60.656V60.296L463.348 59.96H463.588V70.232L465.292 70.64V71H460.876ZM470.95 71.24C470.39 71.24 469.886 71.176 469.438 71.048C469.006 70.936 468.558 70.768 468.094 70.544V68.048H468.382L468.718 69.128C468.862 69.608 469.126 69.992 469.51 70.28C469.894 70.552 470.438 70.688 471.142 70.688C471.91 70.688 472.502 70.504 472.918 70.136C473.35 69.752 473.566 69.208 473.566 68.504C473.566 67.88 473.398 67.392 473.062 67.04C472.726 66.672 472.102 66.304 471.19 65.936C470.23 65.552 469.518 65.136 469.054 64.688C468.606 64.24 468.382 63.6 468.382 62.768C468.382 62.256 468.518 61.792 468.79 61.376C469.078 60.944 469.454 60.6 469.918 60.344C470.382 60.088 470.878 59.96 471.406 59.96C471.998 59.96 472.526 60.032 472.99 60.176C473.454 60.304 473.854 60.456 474.19 60.632V63.08H473.902L473.59 62.048C473.43 61.488 473.126 61.088 472.678 60.848C472.246 60.608 471.806 60.488 471.358 60.488C470.734 60.488 470.254 60.672 469.918 61.04C469.598 61.408 469.438 61.888 469.438 62.48C469.438 63.072 469.614 63.536 469.966 63.872C470.318 64.208 470.886 64.536 471.67 64.856C472.374 65.144 472.942 65.424 473.374 65.696C473.822 65.968 474.15 66.304 474.358 66.704C474.566 67.088 474.67 67.584 474.67 68.192C474.67 68.736 474.518 69.24 474.214 69.704C473.91 70.168 473.478 70.544 472.918 70.832C472.358 71.104 471.702 71.24 470.95 71.24ZM481.061 71.24C480.405 71.24 479.869 71.032 479.453 70.616C479.053 70.2 478.853 69.616 478.853 68.864V61.016H476.741V60.8L478.997 60.2L479.789 57.56H480.053V60.2H483.221V61.016H480.053V68.816C480.053 69.312 480.205 69.688 480.509 69.944C480.813 70.184 481.213 70.304 481.709 70.304C482.061 70.304 482.381 70.264 482.669 70.184C482.957 70.104 483.229 69.992 483.485 69.848L483.509 69.872V69.968C483.381 70.24 483.109 70.52 482.693 70.808C482.277 71.096 481.733 71.24 481.061 71.24Z" fill="#F4B400"/>
<path d="M96.7148 64.76H184.129V65.48H96.7148V64.76ZM190.137 64.76H280.035V65.48H190.137V64.76ZM286.043 64.76H392.09V65.48H286.043V64.76Z" fill="#BABCBE"/>
<ellipse cx="426.209" cy="80.1436" rx="3.7907" ry="4.14359" fill="#4285F4"/>
<ellipse cx="411.994" cy="273.856" rx="3.7907" ry="4.14359" fill="#4285F4"/>
<path d="M426.683 79.6257C297.041 193.16 362.873 256.419 411.994 273.857" stroke="#4285F4" stroke-width="2"/>
<circle cx="4" cy="4" r="4" transform="matrix(-1 0 0 1 219 270)" fill="#0F9D58"/>
<circle cx="4" cy="4" r="4" transform="matrix(-1 0 0 1 453 76)" fill="#0F9D58"/>
<path d="M449.5 80C368.3 236.8 257.667 275 212.5 274.5" stroke="#0F9D58" stroke-width="2"/>
<path d="M27.7298 16C-26.6702 46.4 14.3965 65.3333 41.7298 71" stroke="#F4B400" stroke-width="2"/>
<circle cx="4" cy="4" r="4" transform="matrix(-1 0 0 1 45.7298 67)" fill="#F4B400"/>
<circle cx="4" cy="4" r="4" transform="matrix(-1 0 0 1 32.7298 12)" fill="#F4B400"/>
<path d="M513 16C567.4 46.4 526.333 65.3333 499 71" stroke="white" stroke-width="2"/>
<circle cx="499" cy="71" r="4" fill="white"/>
<circle cx="512" cy="16" r="4" fill="white"/>
</svg>
