<svg width="2141" height="625" viewBox="0 0 2141 625" fill="none" xmlns="http://www.w3.org/2000/svg">
<rect x="1.45" y="1.45" width="2138.1" height="171.1" rx="8.55" fill="white" stroke="#424242" stroke-width="1.1"/>
<ellipse cx="13.29" cy="13.2913" rx="13.29" ry="13.2913" transform="matrix(0 -1 -1 0 937.583 624.58)" fill="#CABCBE"/>
<ellipse cx="13.29" cy="13.2913" rx="13.29" ry="13.2913" transform="matrix(0 -1 -1 0 1829.07 434.07)" fill="#CABCBE"/>
<line y1="-1.2" x2="904" y2="-1.2" transform="matrix(0.978148 -0.207912 -0.207912 -0.978148 932 607.952)" stroke="#CABCBE" stroke-width="2.4"/>
<ellipse cx="1693.94" cy="611.291" rx="13.29" ry="13.2913" fill="#424242"/>
<ellipse cx="1693.69" cy="374.291" rx="13.29" ry="13.2913" fill="#424242"/>
<line x1="1693.82" y1="607.004" x2="1693.82" y2="387.004" stroke="#424242" stroke-width="2.4"/>
<path d="M385.957 110V108.8L390.997 107.44V76.72H383.957V74H390.997V70.8C390.997 68.6667 391.344 66.4 392.037 64C392.784 61.6 393.85 59.3333 395.237 57.2C396.677 55.0667 398.464 53.3333 400.597 52C402.73 50.6667 405.21 50 408.037 50C408.73 50 409.344 50.1067 409.877 50.32C410.73 50.6933 411.157 51.12 411.157 51.6C411.157 51.92 411.077 52.2667 410.917 52.64L410.037 54.8H409.877L408.197 54.24C406.544 53.7067 404.944 53.44 403.397 53.44C400.677 53.44 398.597 54.56 397.157 56.8C395.717 59.04 394.997 62.64 394.997 67.6V74H405.557V76.72H394.997V107.44L401.157 108.8V110H385.957ZM444.043 110V108.8L449.083 107.44V77.04L443.243 76.32V75.12L451.883 73.2H452.683L453.083 80.32H453.243C455.323 78.1333 456.977 76.5333 458.203 75.52C459.43 74.5067 460.443 73.8667 461.243 73.6C462.043 73.3333 462.95 73.2 463.963 73.2C464.87 73.2 465.697 73.36 466.443 73.68C466.977 73.8933 467.35 74.1067 467.563 74.32C467.83 74.48 467.963 74.72 467.963 75.04C467.963 75.1467 467.937 75.28 467.883 75.44C467.883 75.5467 467.857 75.7067 467.803 75.92L467.003 78H466.843L465.323 77.28C464.577 76.9067 463.59 76.72 462.363 76.72C460.817 76.72 459.27 77.1467 457.723 78C456.177 78.8533 454.63 80.3467 453.083 82.48V107.44L459.243 108.8V110H444.043ZM504.23 122V50.8H517.19V52.24H507.03V120.56H517.19V122H504.23ZM536.667 110.8C534.214 110.8 532.16 110.08 530.507 108.64C528.854 107.147 528.027 105.093 528.027 102.48C528.027 99.92 528.934 97.7867 530.747 96.08C532.614 94.3733 535.68 92.9867 539.947 91.92L547.787 89.92V83.28C547.787 80.9867 546.96 79.1467 545.307 77.76C543.654 76.32 541.76 75.6 539.627 75.6C537.334 75.6 535.707 76.08 534.747 77.04C533.84 77.9467 533.387 79.2 533.387 80.8V84.08L532.987 84.48H530.907C530.054 84.48 529.494 84.3467 529.227 84.08C528.96 83.8133 528.827 83.3067 528.827 82.56C528.827 81.5467 529.174 80.5067 529.867 79.44C530.56 78.3733 531.574 77.4133 532.907 76.56C534.347 75.6533 535.787 74.88 537.227 74.24C538.72 73.5467 540.134 73.2 541.467 73.2C544.667 73.2 547.174 73.92 548.987 75.36C550.854 76.7467 551.787 78.9333 551.787 81.92V106.8C552.214 107.173 552.694 107.467 553.227 107.68C553.814 107.893 554.48 108 555.227 108H559.387L559.467 108.08V108.24C559.094 108.773 558.48 109.333 557.627 109.92C556.774 110.507 555.627 110.8 554.187 110.8C552.32 110.8 550.88 110.32 549.867 109.36C548.854 108.4 548.24 107.28 548.027 106H547.867C546.48 107.387 544.8 108.533 542.827 109.44C540.907 110.347 538.854 110.8 536.667 110.8ZM532.027 101.04C532.027 103.227 532.64 104.88 533.867 106C535.094 107.067 536.827 107.6 539.067 107.6C540.4 107.6 541.84 107.413 543.387 107.04C544.934 106.613 546.4 105.973 547.787 105.12V91.6C543.36 92.5067 540 93.4133 537.707 94.32C535.467 95.2267 533.947 96.2133 533.147 97.28C532.4 98.3467 532.027 99.6 532.027 101.04ZM567.319 122V120.56H577.479V52.24H567.319V50.8H580.279V122H567.319ZM621.197 110V108.8L626.237 107.44V77.04L620.397 76.32V75.12L629.037 73.2H629.837L630.157 78.96H630.397C632.37 76.9333 634.237 75.4667 635.997 74.56C637.757 73.6533 639.73 73.2 641.917 73.2C645.277 73.2 648.023 74.1333 650.157 76C652.343 77.8667 653.437 80.5867 653.437 84.16V107.44L658.477 108.8V110H643.757V108.8L649.437 107.44V86.32C649.437 83.0667 648.557 80.6133 646.797 78.96C645.09 77.2533 642.823 76.4 639.997 76.4C638.397 76.4 636.663 76.8 634.797 77.6C632.93 78.3467 631.41 79.44 630.237 80.88V107.44L635.917 108.8V110H621.197ZM714.438 110.8C710.705 110.8 707.558 110 704.998 108.4C702.492 106.8 700.572 104.64 699.238 101.92C697.958 99.2 697.318 96.1333 697.318 92.72C697.318 88.9867 698.065 85.6533 699.558 82.72C701.105 79.7333 703.212 77.4133 705.878 75.76C708.598 74.0533 711.665 73.2 715.078 73.2C717.212 73.2 719.105 73.4933 720.758 74.08C722.412 74.6667 723.745 75.3067 724.758 76C726.465 77.1733 727.318 78.1867 727.318 79.04C727.318 79.4133 727.132 79.76 726.758 80.08L724.598 81.92H724.278L723.238 80.48C722.065 78.88 720.785 77.5733 719.398 76.56C718.065 75.4933 716.332 74.96 714.198 74.96C710.465 74.96 707.372 76.3733 704.918 79.2C702.518 81.9733 701.318 86.1333 701.318 91.68C701.318 96.3733 702.545 100.187 704.998 103.12C707.505 106 711.025 107.44 715.558 107.44C718.012 107.44 720.278 107.067 722.358 106.32C724.438 105.573 726.065 104.56 727.238 103.28H727.478V104.32C726.252 106.187 724.518 107.733 722.278 108.96C720.038 110.187 717.425 110.8 714.438 110.8ZM767.293 122V50.8H780.253V52.24H770.093V120.56H780.253V122H767.293ZM798.29 60.56C797.437 60.56 796.717 60.2667 796.13 59.68C795.544 59.0933 795.25 58.3733 795.25 57.52C795.25 56.6667 795.544 55.9467 796.13 55.36C796.717 54.7733 797.437 54.48 798.29 54.48C799.144 54.48 799.864 54.7733 800.45 55.36C801.037 55.9467 801.33 56.6667 801.33 57.52C801.33 58.3733 801.037 59.0933 800.45 59.68C799.864 60.2667 799.144 60.56 798.29 60.56ZM792.37 110V108.8L797.41 107.44V77.04L791.57 75.52V74.32L800.61 73.2H801.41V107.44L807.09 108.8V110H792.37ZM818.351 122V120.56H828.511V52.24H818.351V50.8H831.311V122H818.351ZM882.148 110.8C880.282 110.8 878.602 110.587 877.108 110.16C875.668 109.787 874.175 109.227 872.628 108.48V100.16H873.588L874.708 103.76C875.188 105.36 876.068 106.64 877.348 107.6C878.628 108.507 880.442 108.96 882.788 108.96C885.348 108.96 887.322 108.347 888.708 107.12C890.148 105.84 890.868 104.027 890.868 101.68C890.868 99.6 890.308 97.9733 889.188 96.8C888.068 95.5733 885.988 94.3467 882.948 93.12C879.748 91.84 877.375 90.4533 875.828 88.96C874.335 87.4667 873.588 85.3333 873.588 82.56C873.588 80.8533 874.042 79.3067 874.948 77.92C875.908 76.48 877.162 75.3333 878.708 74.48C880.255 73.6267 881.908 73.2 883.668 73.2C885.642 73.2 887.402 73.44 888.948 73.92C890.495 74.3467 891.828 74.8533 892.948 75.44V83.6H891.988L890.948 80.16C890.415 78.2933 889.402 76.96 887.908 76.16C886.468 75.36 885.002 74.96 883.508 74.96C881.428 74.96 879.828 75.5733 878.708 76.8C877.642 78.0267 877.108 79.6267 877.108 81.6C877.108 83.5733 877.695 85.12 878.868 86.24C880.042 87.36 881.935 88.4533 884.548 89.52C886.895 90.48 888.788 91.4133 890.228 92.32C891.722 93.2267 892.815 94.3467 893.508 95.68C894.202 96.96 894.548 98.6133 894.548 100.64C894.548 102.453 894.042 104.133 893.028 105.68C892.015 107.227 890.575 108.48 888.708 109.44C886.842 110.347 884.655 110.8 882.148 110.8ZM936.25 122V50.8H949.21V52.24H939.05V120.56H949.21V122H936.25ZM951.328 122V120.56H961.488V52.24H951.328V50.8H964.288V122H951.328ZM1015.77 110.8C1012.03 110.8 1008.89 110 1006.33 108.4C1003.82 106.8 1001.9 104.64 1000.57 101.92C999.285 99.2 998.645 96.1333 998.645 92.72C998.645 88.9867 999.392 85.6533 1000.89 82.72C1002.43 79.7333 1004.54 77.4133 1007.21 75.76C1009.93 74.0533 1012.99 73.2 1016.41 73.2C1018.54 73.2 1020.43 73.4933 1022.09 74.08C1023.74 74.6667 1025.07 75.3067 1026.09 76C1027.79 77.1733 1028.65 78.1867 1028.65 79.04C1028.65 79.4133 1028.46 79.76 1028.09 80.08L1025.93 81.92H1025.61L1024.57 80.48C1023.39 78.88 1022.11 77.5733 1020.73 76.56C1019.39 75.4933 1017.66 74.96 1015.53 74.96C1011.79 74.96 1008.7 76.3733 1006.25 79.2C1003.85 81.9733 1002.65 86.1333 1002.65 91.68C1002.65 96.3733 1003.87 100.187 1006.33 103.12C1008.83 106 1012.35 107.44 1016.89 107.44C1019.34 107.44 1021.61 107.067 1023.69 106.32C1025.77 105.573 1027.39 104.56 1028.57 103.28H1028.81V104.32C1027.58 106.187 1025.85 107.733 1023.61 108.96C1021.37 110.187 1018.75 110.8 1015.77 110.8ZM1068.62 122V50.8H1081.58V52.24H1071.42V120.56H1081.58V122H1068.62ZM1101.06 110.8C1098.6 110.8 1096.55 110.08 1094.9 108.64C1093.24 107.147 1092.42 105.093 1092.42 102.48C1092.42 99.92 1093.32 97.7867 1095.14 96.08C1097 94.3733 1100.07 92.9867 1104.34 91.92L1112.18 89.92V83.28C1112.18 80.9867 1111.35 79.1467 1109.7 77.76C1108.04 76.32 1106.15 75.6 1104.02 75.6C1101.72 75.6 1100.1 76.08 1099.14 77.04C1098.23 77.9467 1097.78 79.2 1097.78 80.8V84.08L1097.38 84.48H1095.3C1094.44 84.48 1093.88 84.3467 1093.62 84.08C1093.35 83.8133 1093.22 83.3067 1093.22 82.56C1093.22 81.5467 1093.56 80.5067 1094.26 79.44C1094.95 78.3733 1095.96 77.4133 1097.3 76.56C1098.74 75.6533 1100.18 74.88 1101.62 74.24C1103.11 73.5467 1104.52 73.2 1105.86 73.2C1109.06 73.2 1111.56 73.92 1113.38 75.36C1115.24 76.7467 1116.18 78.9333 1116.18 81.92V106.8C1116.6 107.173 1117.08 107.467 1117.62 107.68C1118.2 107.893 1118.87 108 1119.62 108H1123.78L1123.86 108.08V108.24C1123.48 108.773 1122.87 109.333 1122.02 109.92C1121.16 110.507 1120.02 110.8 1118.58 110.8C1116.71 110.8 1115.27 110.32 1114.26 109.36C1113.24 108.4 1112.63 107.28 1112.42 106H1112.26C1110.87 107.387 1109.19 108.533 1107.22 109.44C1105.3 110.347 1103.24 110.8 1101.06 110.8ZM1096.42 101.04C1096.42 103.227 1097.03 104.88 1098.26 106C1099.48 107.067 1101.22 107.6 1103.46 107.6C1104.79 107.6 1106.23 107.413 1107.78 107.04C1109.32 106.613 1110.79 105.973 1112.18 105.12V91.6C1107.75 92.5067 1104.39 93.4133 1102.1 94.32C1099.86 95.2267 1098.34 96.2133 1097.54 97.28C1096.79 98.3467 1096.42 99.6 1096.42 101.04ZM1131.71 122V120.56H1141.87V52.24H1131.71V50.8H1144.67V122H1131.71ZM1202.07 110.8C1198.33 110.8 1195.19 110 1192.63 108.4C1190.12 106.8 1188.2 104.64 1186.87 101.92C1185.59 99.2 1184.95 96.1333 1184.95 92.72C1184.95 88.9867 1185.69 85.6533 1187.19 82.72C1188.73 79.7333 1190.84 77.4133 1193.51 75.76C1196.23 74.0533 1199.29 73.2 1202.71 73.2C1204.84 73.2 1206.73 73.4933 1208.39 74.08C1210.04 74.6667 1211.37 75.3067 1212.39 76C1214.09 77.1733 1214.95 78.1867 1214.95 79.04C1214.95 79.4133 1214.76 79.76 1214.39 80.08L1212.23 81.92H1211.91L1210.87 80.48C1209.69 78.88 1208.41 77.5733 1207.03 76.56C1205.69 75.4933 1203.96 74.96 1201.83 74.96C1198.09 74.96 1195 76.3733 1192.55 79.2C1190.15 81.9733 1188.95 86.1333 1188.95 91.68C1188.95 96.3733 1190.17 100.187 1192.63 103.12C1195.13 106 1198.65 107.44 1203.19 107.44C1205.64 107.44 1207.91 107.067 1209.99 106.32C1212.07 105.573 1213.69 104.56 1214.87 103.28H1215.11V104.32C1213.88 106.187 1212.15 107.733 1209.91 108.96C1207.67 110.187 1205.05 110.8 1202.07 110.8ZM1271.64 110.8C1267.91 110.8 1264.76 110 1262.2 108.4C1259.69 106.8 1257.77 104.64 1256.44 101.92C1255.16 99.2 1254.52 96.1333 1254.52 92.72C1254.52 88.9867 1255.27 85.6533 1256.76 82.72C1258.31 79.7333 1260.41 77.4133 1263.08 75.76C1265.8 74.0533 1268.87 73.2 1272.28 73.2C1274.41 73.2 1276.31 73.4933 1277.96 74.08C1279.61 74.6667 1280.95 75.3067 1281.96 76C1283.67 77.1733 1284.52 78.1867 1284.52 79.04C1284.52 79.4133 1284.33 79.76 1283.96 80.08L1281.8 81.92H1281.48L1280.44 80.48C1279.27 78.88 1277.99 77.5733 1276.6 76.56C1275.27 75.4933 1273.53 74.96 1271.4 74.96C1267.67 74.96 1264.57 76.3733 1262.12 79.2C1259.72 81.9733 1258.52 86.1333 1258.52 91.68C1258.52 96.3733 1259.75 100.187 1262.2 103.12C1264.71 106 1268.23 107.44 1272.76 107.44C1275.21 107.44 1277.48 107.067 1279.56 106.32C1281.64 105.573 1283.27 104.56 1284.44 103.28H1284.68V104.32C1283.45 106.187 1281.72 107.733 1279.48 108.96C1277.24 110.187 1274.63 110.8 1271.64 110.8ZM1324.5 122V50.8H1337.46V52.24H1327.3V120.56H1337.46V122H1324.5ZM1356.93 110.8C1354.48 110.8 1352.43 110.08 1350.77 108.64C1349.12 107.147 1348.29 105.093 1348.29 102.48C1348.29 99.92 1349.2 97.7867 1351.01 96.08C1352.88 94.3733 1355.95 92.9867 1360.21 91.92L1368.05 89.92V83.28C1368.05 80.9867 1367.23 79.1467 1365.57 77.76C1363.92 76.32 1362.03 75.6 1359.89 75.6C1357.6 75.6 1355.97 76.08 1355.01 77.04C1354.11 77.9467 1353.65 79.2 1353.65 80.8V84.08L1353.25 84.48H1351.17C1350.32 84.48 1349.76 84.3467 1349.49 84.08C1349.23 83.8133 1349.09 83.3067 1349.09 82.56C1349.09 81.5467 1349.44 80.5067 1350.13 79.44C1350.83 78.3733 1351.84 77.4133 1353.17 76.56C1354.61 75.6533 1356.05 74.88 1357.49 74.24C1358.99 73.5467 1360.4 73.2 1361.73 73.2C1364.93 73.2 1367.44 73.92 1369.25 75.36C1371.12 76.7467 1372.05 78.9333 1372.05 81.92V106.8C1372.48 107.173 1372.96 107.467 1373.49 107.68C1374.08 107.893 1374.75 108 1375.49 108H1379.65L1379.73 108.08V108.24C1379.36 108.773 1378.75 109.333 1377.89 109.92C1377.04 110.507 1375.89 110.8 1374.45 110.8C1372.59 110.8 1371.15 110.32 1370.13 109.36C1369.12 108.4 1368.51 107.28 1368.29 106H1368.13C1366.75 107.387 1365.07 108.533 1363.09 109.44C1361.17 110.347 1359.12 110.8 1356.93 110.8ZM1352.29 101.04C1352.29 103.227 1352.91 104.88 1354.13 106C1355.36 107.067 1357.09 107.6 1359.33 107.6C1360.67 107.6 1362.11 107.413 1363.65 107.04C1365.2 106.613 1366.67 105.973 1368.05 105.12V91.6C1363.63 92.5067 1360.27 93.4133 1357.97 94.32C1355.73 95.2267 1354.21 96.2133 1353.41 97.28C1352.67 98.3467 1352.29 99.6 1352.29 101.04ZM1387.58 122V120.56H1397.74V52.24H1387.58V50.8H1400.54V122H1387.58ZM1453.14 110.4L1440.1 76.72L1435.06 75.2V74H1450.42V75.2L1444.26 76.56V76.8L1454.58 104.8H1454.82L1464.98 76.88V76.64L1458.5 75.2V74H1472.66V75.2L1467.54 76.72L1453.94 110.4H1453.14ZM1506.97 122V50.8H1519.93V52.24H1509.77V120.56H1519.93V122H1506.97ZM1539.41 110.8C1536.95 110.8 1534.9 110.08 1533.25 108.64C1531.59 107.147 1530.77 105.093 1530.77 102.48C1530.77 99.92 1531.67 97.7867 1533.49 96.08C1535.35 94.3733 1538.42 92.9867 1542.69 91.92L1550.53 89.92V83.28C1550.53 80.9867 1549.7 79.1467 1548.05 77.76C1546.39 76.32 1544.5 75.6 1542.37 75.6C1540.07 75.6 1538.45 76.08 1537.49 77.04C1536.58 77.9467 1536.13 79.2 1536.13 80.8V84.08L1535.73 84.48H1533.65C1532.79 84.48 1532.23 84.3467 1531.97 84.08C1531.7 83.8133 1531.57 83.3067 1531.57 82.56C1531.57 81.5467 1531.91 80.5067 1532.61 79.44C1533.3 78.3733 1534.31 77.4133 1535.65 76.56C1537.09 75.6533 1538.53 74.88 1539.97 74.24C1541.46 73.5467 1542.87 73.2 1544.21 73.2C1547.41 73.2 1549.91 73.92 1551.73 75.36C1553.59 76.7467 1554.53 78.9333 1554.53 81.92V106.8C1554.95 107.173 1555.43 107.467 1555.97 107.68C1556.55 107.893 1557.22 108 1557.97 108H1562.13L1562.21 108.08V108.24C1561.83 108.773 1561.22 109.333 1560.37 109.92C1559.51 110.507 1558.37 110.8 1556.93 110.8C1555.06 110.8 1553.62 110.32 1552.61 109.36C1551.59 108.4 1550.98 107.28 1550.77 106H1550.61C1549.22 107.387 1547.54 108.533 1545.57 109.44C1543.65 110.347 1541.59 110.8 1539.41 110.8ZM1534.77 101.04C1534.77 103.227 1535.38 104.88 1536.61 106C1537.83 107.067 1539.57 107.6 1541.81 107.6C1543.14 107.6 1544.58 107.413 1546.13 107.04C1547.67 106.613 1549.14 105.973 1550.53 105.12V91.6C1546.1 92.5067 1542.74 93.4133 1540.45 94.32C1538.21 95.2267 1536.69 96.2133 1535.89 97.28C1535.14 98.3467 1534.77 99.6 1534.77 101.04ZM1570.06 122V120.56H1580.22V52.24H1570.06V50.8H1583.02V122H1570.06ZM1623.62 110V108.8L1628.66 107.44V53.84L1622.82 52.32V51.12L1631.86 50H1632.66V107.44L1638.34 108.8V110H1623.62ZM1678.11 122V50.8H1691.07V52.24H1680.91V120.56H1691.07V122H1678.11ZM1719.43 110.8C1715.64 110.8 1712.44 110 1709.83 108.4C1707.27 106.8 1705.32 104.64 1703.99 101.92C1702.71 99.2 1702.07 96.1333 1702.07 92.72C1702.07 89.0933 1702.82 85.8133 1704.31 82.88C1705.86 79.9467 1707.86 77.6 1710.31 75.84C1712.82 74.08 1715.54 73.2 1718.47 73.2C1722.68 73.2 1725.99 74.5867 1728.39 77.36C1730.79 80.1333 1732.18 83.9733 1732.55 88.88L1732.31 89.12H1706.15C1706.1 89.92 1706.07 90.7733 1706.07 91.68C1706.07 96.3733 1707.32 100.187 1709.83 103.12C1712.39 106 1715.96 107.44 1720.55 107.44C1723.06 107.44 1725.32 107.067 1727.35 106.32C1729.43 105.573 1731.06 104.56 1732.23 103.28H1732.47V104.32C1731.3 106.187 1729.56 107.733 1727.27 108.96C1725.03 110.187 1722.42 110.8 1719.43 110.8ZM1717.51 74.96C1714.9 74.96 1712.55 76.0533 1710.47 78.24C1708.39 80.3733 1707.03 83.4133 1706.39 87.36H1728.15C1727.62 83.4667 1726.52 80.4267 1724.87 78.24C1723.22 76.0533 1720.76 74.96 1717.51 74.96ZM1742.77 122V120.56H1752.93V52.24H1742.77V50.8H1755.73V122H1742.77Z" fill="#424242"/>
<rect x="167" y="172" width="1972" height="170" rx="8" fill="#424242"/>
<path d="M551.957 285.75V227.9H562.487V229.07H554.232V284.58H562.487V285.75H551.957ZM582.732 276.65C580.089 276.65 577.922 275.892 576.232 274.375C574.542 272.858 573.697 270.648 573.697 267.745V248.83L569.082 247.725V246.75H576.947V265.99C576.947 268.633 577.619 270.648 578.962 272.035C580.349 273.378 582.126 274.05 584.292 274.05C585.549 274.05 586.892 273.747 588.322 273.14C589.796 272.49 590.987 271.58 591.897 270.41V248.83L586.632 247.725V246.75H595.147V273.92L599.762 275.025V276H591.897V272.035H591.702C590.142 273.595 588.669 274.765 587.282 275.545C585.896 276.282 584.379 276.65 582.732 276.65ZM606.412 285.75V284.58H614.667V229.07H606.412V227.9H616.942V285.75H606.412ZM627.437 276V275.025L631.207 273.985L639.462 261.375L631.532 248.895L627.762 247.725V246.75H639.267V247.725L635.172 248.83V249.025L641.672 259.23L647.652 249.025V248.83L644.077 247.725V246.75H653.242V247.725L649.732 249.155L642.257 260.14L651.032 273.855L654.347 275.025V276H643.687V275.025L647.327 273.92V273.725L640.047 262.35L633.677 273.725V273.92L637.187 275.025V276H627.437ZM694.831 276.65C691.754 276.65 689.154 276 687.031 274.7C684.951 273.4 683.369 271.645 682.286 269.435C681.246 267.225 680.726 264.733 680.726 261.96C680.726 259.013 681.332 256.348 682.546 253.965C683.802 251.582 685.427 249.675 687.421 248.245C689.457 246.815 691.667 246.1 694.051 246.1C697.474 246.1 700.161 247.227 702.111 249.48C704.061 251.733 705.187 254.853 705.491 258.84L705.296 259.035H684.041C683.997 259.685 683.976 260.378 683.976 261.115C683.976 264.928 684.994 268.027 687.031 270.41C689.111 272.75 692.014 273.92 695.741 273.92C697.777 273.92 699.619 273.617 701.266 273.01C702.956 272.403 704.277 271.58 705.231 270.54H705.426V271.385C704.472 272.902 703.064 274.158 701.201 275.155C699.381 276.152 697.257 276.65 694.831 276.65ZM693.271 247.53C691.147 247.53 689.241 248.418 687.551 250.195C685.861 251.928 684.756 254.398 684.236 257.605H701.916C701.482 254.442 700.594 251.972 699.251 250.195C697.907 248.418 695.914 247.53 693.271 247.53ZM715.139 276V275.025L719.234 273.92V249.22L714.489 248.635V247.66L721.509 246.1H722.159L722.419 250.78H722.614C724.218 249.133 725.734 247.942 727.164 247.205C728.594 246.468 730.198 246.1 731.974 246.1C734.704 246.1 736.936 246.858 738.669 248.375C740.446 249.892 741.334 252.102 741.334 255.005V273.92L745.429 275.025V276H733.469V275.025L738.084 273.92V256.76C738.084 254.117 737.369 252.123 735.939 250.78C734.553 249.393 732.711 248.7 730.414 248.7C729.114 248.7 727.706 249.025 726.189 249.675C724.673 250.282 723.438 251.17 722.484 252.34V273.92L727.099 275.025V276H715.139ZM765.484 266.185C764.184 266.185 762.949 265.968 761.779 265.535C760.349 266.142 759.352 266.792 758.789 267.485C758.225 268.178 757.944 268.98 757.944 269.89C757.944 271.363 758.464 272.425 759.504 273.075C760.544 273.725 762.147 274.05 764.314 274.05H771.659C774.215 274.05 776.165 274.657 777.509 275.87C778.895 277.083 779.589 278.752 779.589 280.875C779.589 282.652 778.982 284.363 777.769 286.01C776.555 287.657 774.865 289 772.699 290.04C770.532 291.08 767.975 291.6 765.029 291.6C761.259 291.6 758.55 290.842 756.904 289.325C755.257 287.852 754.434 286.032 754.434 283.865C754.434 282.262 754.759 280.875 755.409 279.705L759.374 276.39V276.26C756.557 275.437 755.149 273.725 755.149 271.125C755.149 269.695 755.625 268.503 756.579 267.55L760.414 265.275V264.95C758.854 264.127 757.619 262.957 756.709 261.44C755.799 259.88 755.344 258.125 755.344 256.175C755.344 254.268 755.777 252.557 756.644 251.04C757.554 249.523 758.767 248.332 760.284 247.465C761.8 246.555 763.534 246.1 765.484 246.1C766.437 246.1 767.477 246.23 768.604 246.49C769.73 246.707 770.619 246.967 771.269 247.27L780.109 246.75V249.415L773.544 248.96L773.414 249.09C774.107 249.827 774.627 250.867 774.974 252.21C775.364 253.51 775.559 254.832 775.559 256.175C775.559 258.082 775.125 259.793 774.259 261.31C773.392 262.827 772.2 264.018 770.684 264.885C769.167 265.752 767.434 266.185 765.484 266.185ZM766.134 264.885C767.997 264.885 769.47 264.148 770.554 262.675C771.68 261.158 772.244 259.035 772.244 256.305C772.244 253.315 771.55 251.083 770.164 249.61C768.777 248.093 767.065 247.335 765.029 247.335C763.035 247.335 761.475 248.115 760.349 249.675C759.222 251.192 758.659 253.293 758.659 255.98C758.659 258.97 759.352 261.202 760.739 262.675C762.169 264.148 763.967 264.885 766.134 264.885ZM757.424 283.15C757.424 285.143 758.247 286.812 759.894 288.155C761.584 289.498 763.642 290.17 766.069 290.17C768.149 290.17 769.99 289.78 771.594 289C773.197 288.263 774.454 287.267 775.364 286.01C776.274 284.797 776.729 283.497 776.729 282.11C776.729 280.03 776.187 278.6 775.104 277.82C774.064 277.04 772.179 276.65 769.449 276.65H762.624C761.974 276.65 761.345 276.607 760.739 276.52C759.482 277.257 758.615 278.145 758.139 279.185C757.662 280.268 757.424 281.59 757.424 283.15ZM794.919 235.83C794.226 235.83 793.641 235.592 793.164 235.115C792.688 234.638 792.449 234.053 792.449 233.36C792.449 232.667 792.688 232.082 793.164 231.605C793.641 231.128 794.226 230.89 794.919 230.89C795.613 230.89 796.198 231.128 796.674 231.605C797.151 232.082 797.389 232.667 797.389 233.36C797.389 234.053 797.151 234.638 796.674 235.115C796.198 235.592 795.613 235.83 794.919 235.83ZM790.109 276V275.025L794.204 273.92V249.22L789.459 247.985V247.01L796.804 246.1H797.454V273.92L802.069 275.025V276H790.109ZM811.934 276V275.025L816.029 273.92V249.22L811.284 248.635V247.66L818.304 246.1H818.954L819.214 250.78H819.409C821.012 249.133 822.529 247.942 823.959 247.205C825.389 246.468 826.992 246.1 828.769 246.1C831.499 246.1 833.73 246.858 835.464 248.375C837.24 249.892 838.129 252.102 838.129 255.005V273.92L842.224 275.025V276H830.264V275.025L834.879 273.92V256.76C834.879 254.117 834.164 252.123 832.734 250.78C831.347 249.393 829.505 248.7 827.209 248.7C825.909 248.7 824.5 249.025 822.984 249.675C821.467 250.282 820.232 251.17 819.279 252.34V273.92L823.894 275.025V276H811.934ZM864.618 276.65C861.541 276.65 858.941 276 856.818 274.7C854.738 273.4 853.156 271.645 852.073 269.435C851.033 267.225 850.513 264.733 850.513 261.96C850.513 259.013 851.119 256.348 852.333 253.965C853.589 251.582 855.214 249.675 857.208 248.245C859.244 246.815 861.454 246.1 863.838 246.1C867.261 246.1 869.948 247.227 871.898 249.48C873.848 251.733 874.974 254.853 875.278 258.84L875.083 259.035H853.828C853.784 259.685 853.763 260.378 853.763 261.115C853.763 264.928 854.781 268.027 856.818 270.41C858.898 272.75 861.801 273.92 865.528 273.92C867.564 273.92 869.406 273.617 871.053 273.01C872.743 272.403 874.064 271.58 875.018 270.54H875.213V271.385C874.259 272.902 872.851 274.158 870.988 275.155C869.168 276.152 867.044 276.65 864.618 276.65ZM863.058 247.53C860.934 247.53 859.028 248.418 857.338 250.195C855.648 251.928 854.543 254.398 854.023 257.605H871.703C871.269 254.442 870.381 251.972 869.038 250.195C867.694 248.418 865.701 247.53 863.058 247.53ZM899.146 276.65C896.07 276.65 893.47 276 891.346 274.7C889.266 273.4 887.685 271.645 886.601 269.435C885.561 267.225 885.041 264.733 885.041 261.96C885.041 259.013 885.648 256.348 886.861 253.965C888.118 251.582 889.743 249.675 891.736 248.245C893.773 246.815 895.983 246.1 898.366 246.1C901.79 246.1 904.476 247.227 906.426 249.48C908.376 251.733 909.503 254.853 909.806 258.84L909.611 259.035H888.356C888.313 259.685 888.291 260.378 888.291 261.115C888.291 264.928 889.31 268.027 891.346 270.41C893.426 272.75 896.33 273.92 900.056 273.92C902.093 273.92 903.935 273.617 905.581 273.01C907.271 272.403 908.593 271.58 909.546 270.54H909.741V271.385C908.788 272.902 907.38 274.158 905.516 275.155C903.696 276.152 901.573 276.65 899.146 276.65ZM897.586 247.53C895.463 247.53 893.556 248.418 891.866 250.195C890.176 251.928 889.071 254.398 888.551 257.605H906.231C905.798 254.442 904.91 251.972 903.566 250.195C902.223 248.418 900.23 247.53 897.586 247.53ZM919.715 276V275.025L923.81 273.92V249.22L919.065 248.635V247.66L926.085 246.1H926.735L927.06 251.885H927.19C928.88 250.108 930.224 248.808 931.22 247.985C932.217 247.162 933.04 246.642 933.69 246.425C934.34 246.208 935.077 246.1 935.9 246.1C936.637 246.1 937.309 246.23 937.915 246.49C938.349 246.663 938.652 246.837 938.825 247.01C939.042 247.14 939.15 247.335 939.15 247.595C939.15 247.682 939.129 247.79 939.085 247.92C939.085 248.007 939.064 248.137 939.02 248.31L938.37 250H938.24L937.005 249.415C936.399 249.112 935.597 248.96 934.6 248.96C933.344 248.96 932.087 249.307 930.83 250C929.574 250.693 928.317 251.907 927.06 253.64V273.92L932.065 275.025V276H919.715ZM964.652 276V275.025L968.747 273.92V249.22L964.002 248.635V247.66L971.022 246.1H971.672L971.997 251.885H972.127C973.817 250.108 975.16 248.808 976.157 247.985C977.153 247.162 977.977 246.642 978.627 246.425C979.277 246.208 980.013 246.1 980.837 246.1C981.573 246.1 982.245 246.23 982.852 246.49C983.285 246.663 983.588 246.837 983.762 247.01C983.978 247.14 984.087 247.335 984.087 247.595C984.087 247.682 984.065 247.79 984.022 247.92C984.022 248.007 984 248.137 983.957 248.31L983.307 250H983.177L981.942 249.415C981.335 249.112 980.533 248.96 979.537 248.96C978.28 248.96 977.023 249.307 975.767 250C974.51 250.693 973.253 251.907 971.997 253.64V273.92L977.002 275.025V276H964.652ZM1004.06 276.65C1000.99 276.65 998.386 276 996.263 274.7C994.183 273.4 992.601 271.645 991.518 269.435C990.478 267.225 989.958 264.733 989.958 261.96C989.958 259.013 990.565 256.348 991.778 253.965C993.035 251.582 994.66 249.675 996.653 248.245C998.69 246.815 1000.9 246.1 1003.28 246.1C1006.71 246.1 1009.39 247.227 1011.34 249.48C1013.29 251.733 1014.42 254.853 1014.72 258.84L1014.53 259.035H993.273C993.23 259.685 993.208 260.378 993.208 261.115C993.208 264.928 994.226 268.027 996.263 270.41C998.343 272.75 1001.25 273.92 1004.97 273.92C1007.01 273.92 1008.85 273.617 1010.5 273.01C1012.19 272.403 1013.51 271.58 1014.46 270.54H1014.66V271.385C1013.7 272.902 1012.3 274.158 1010.43 275.155C1008.61 276.152 1006.49 276.65 1004.06 276.65ZM1002.5 247.53C1000.38 247.53 998.473 248.418 996.783 250.195C995.093 251.928 993.988 254.398 993.468 257.605H1011.15C1010.71 254.442 1009.83 251.972 1008.48 250.195C1007.14 248.418 1005.15 247.53 1002.5 247.53ZM1032.43 276.65C1030.92 276.65 1029.55 276.477 1028.34 276.13C1027.17 275.827 1025.95 275.372 1024.7 274.765V268.005H1025.48L1026.39 270.93C1026.78 272.23 1027.49 273.27 1028.53 274.05C1029.57 274.787 1031.05 275.155 1032.95 275.155C1035.03 275.155 1036.64 274.657 1037.76 273.66C1038.93 272.62 1039.52 271.147 1039.52 269.24C1039.52 267.55 1039.06 266.228 1038.15 265.275C1037.24 264.278 1035.55 263.282 1033.08 262.285C1030.48 261.245 1028.55 260.118 1027.3 258.905C1026.08 257.692 1025.48 255.958 1025.48 253.705C1025.48 252.318 1025.85 251.062 1026.58 249.935C1027.36 248.765 1028.38 247.833 1029.64 247.14C1030.89 246.447 1032.24 246.1 1033.67 246.1C1035.27 246.1 1036.7 246.295 1037.96 246.685C1039.21 247.032 1040.3 247.443 1041.21 247.92V254.55H1040.43L1039.58 251.755C1039.15 250.238 1038.33 249.155 1037.11 248.505C1035.94 247.855 1034.75 247.53 1033.54 247.53C1031.85 247.53 1030.55 248.028 1029.64 249.025C1028.77 250.022 1028.34 251.322 1028.34 252.925C1028.34 254.528 1028.81 255.785 1029.77 256.695C1030.72 257.605 1032.26 258.493 1034.38 259.36C1036.29 260.14 1037.83 260.898 1039 261.635C1040.21 262.372 1041.1 263.282 1041.66 264.365C1042.23 265.405 1042.51 266.748 1042.51 268.395C1042.51 269.868 1042.1 271.233 1041.27 272.49C1040.45 273.747 1039.28 274.765 1037.76 275.545C1036.25 276.282 1034.47 276.65 1032.43 276.65ZM1066.9 276.65C1063.82 276.65 1061.22 276 1059.1 274.7C1057.02 273.4 1055.44 271.645 1054.35 269.435C1053.31 267.225 1052.79 264.733 1052.79 261.96C1052.79 259.013 1053.4 256.348 1054.61 253.965C1055.87 251.582 1057.5 249.675 1059.49 248.245C1061.53 246.815 1063.74 246.1 1066.12 246.1C1069.54 246.1 1072.23 247.227 1074.18 249.48C1076.13 251.733 1077.26 254.853 1077.56 258.84L1077.36 259.035H1056.11C1056.07 259.685 1056.04 260.378 1056.04 261.115C1056.04 264.928 1057.06 268.027 1059.1 270.41C1061.18 272.75 1064.08 273.92 1067.81 273.92C1069.85 273.92 1071.69 273.617 1073.33 273.01C1075.02 272.403 1076.35 271.58 1077.3 270.54H1077.49V271.385C1076.54 272.902 1075.13 274.158 1073.27 275.155C1071.45 276.152 1069.33 276.65 1066.9 276.65ZM1065.34 247.53C1063.22 247.53 1061.31 248.418 1059.62 250.195C1057.93 251.928 1056.82 254.398 1056.3 257.605H1073.98C1073.55 254.442 1072.66 251.972 1071.32 250.195C1069.98 248.418 1067.98 247.53 1065.34 247.53ZM1093.58 276.65C1091.59 276.65 1089.92 276.065 1088.57 274.895C1087.23 273.682 1086.56 272.013 1086.56 269.89C1086.56 267.81 1087.3 266.077 1088.77 264.69C1090.29 263.303 1092.78 262.177 1096.24 261.31L1102.61 259.685V254.29C1102.61 252.427 1101.94 250.932 1100.6 249.805C1099.26 248.635 1097.72 248.05 1095.98 248.05C1094.12 248.05 1092.8 248.44 1092.02 249.22C1091.28 249.957 1090.91 250.975 1090.91 252.275V254.94L1090.59 255.265H1088.9C1088.21 255.265 1087.75 255.157 1087.53 254.94C1087.32 254.723 1087.21 254.312 1087.21 253.705C1087.21 252.882 1087.49 252.037 1088.05 251.17C1088.62 250.303 1089.44 249.523 1090.52 248.83C1091.69 248.093 1092.86 247.465 1094.03 246.945C1095.25 246.382 1096.4 246.1 1097.48 246.1C1100.08 246.1 1102.12 246.685 1103.59 247.855C1105.11 248.982 1105.86 250.758 1105.86 253.185V273.4C1106.21 273.703 1106.6 273.942 1107.03 274.115C1107.51 274.288 1108.05 274.375 1108.66 274.375H1112.04L1112.1 274.44V274.57C1111.8 275.003 1111.3 275.458 1110.61 275.935C1109.92 276.412 1108.98 276.65 1107.81 276.65C1106.3 276.65 1105.13 276.26 1104.3 275.48C1103.48 274.7 1102.98 273.79 1102.81 272.75H1102.68C1101.55 273.877 1100.19 274.808 1098.58 275.545C1097.02 276.282 1095.36 276.65 1093.58 276.65ZM1089.81 268.72C1089.81 270.497 1090.31 271.84 1091.3 272.75C1092.3 273.617 1093.71 274.05 1095.53 274.05C1096.61 274.05 1097.78 273.898 1099.04 273.595C1100.3 273.248 1101.49 272.728 1102.61 272.035V261.05C1099.02 261.787 1096.29 262.523 1094.42 263.26C1092.6 263.997 1091.37 264.798 1090.72 265.665C1090.11 266.532 1089.81 267.55 1089.81 268.72ZM1119.46 276V275.025L1123.55 273.92V249.22L1118.81 248.635V247.66L1125.83 246.1H1126.48L1126.8 251.885H1126.93C1128.62 250.108 1129.97 248.808 1130.96 247.985C1131.96 247.162 1132.78 246.642 1133.43 246.425C1134.08 246.208 1134.82 246.1 1135.64 246.1C1136.38 246.1 1137.05 246.23 1137.66 246.49C1138.09 246.663 1138.39 246.837 1138.57 247.01C1138.78 247.14 1138.89 247.335 1138.89 247.595C1138.89 247.682 1138.87 247.79 1138.83 247.92C1138.83 248.007 1138.81 248.137 1138.76 248.31L1138.11 250H1137.98L1136.75 249.415C1136.14 249.112 1135.34 248.96 1134.34 248.96C1133.09 248.96 1131.83 249.307 1130.57 250C1129.32 250.693 1128.06 251.907 1126.8 253.64V273.92L1131.81 275.025V276H1119.46ZM1158.67 276.65C1155.64 276.65 1153.08 276 1151 274.7C1148.97 273.4 1147.41 271.645 1146.32 269.435C1145.28 267.225 1144.76 264.733 1144.76 261.96C1144.76 258.927 1145.37 256.218 1146.58 253.835C1147.84 251.408 1149.55 249.523 1151.72 248.18C1153.93 246.793 1156.42 246.1 1159.19 246.1C1160.93 246.1 1162.47 246.338 1163.81 246.815C1165.15 247.292 1166.24 247.812 1167.06 248.375C1168.45 249.328 1169.14 250.152 1169.14 250.845C1169.14 251.148 1168.99 251.43 1168.68 251.69L1166.93 253.185H1166.67L1165.82 252.015C1164.87 250.715 1163.83 249.653 1162.7 248.83C1161.62 247.963 1160.21 247.53 1158.48 247.53C1155.45 247.53 1152.93 248.678 1150.94 250.975C1148.99 253.228 1148.01 256.608 1148.01 261.115C1148.01 264.928 1149.01 268.027 1151 270.41C1153.04 272.75 1155.9 273.92 1159.58 273.92C1161.58 273.92 1163.42 273.617 1165.11 273.01C1166.8 272.403 1168.12 271.58 1169.07 270.54H1169.27V271.385C1168.27 272.902 1166.86 274.158 1165.04 275.155C1163.22 276.152 1161.1 276.65 1158.67 276.65ZM1178.54 276V275.025L1182.64 273.92V230.37L1177.89 229.135V228.16L1185.24 227.25H1185.89V250.78H1186.02C1187.62 249.133 1189.14 247.942 1190.57 247.205C1192 246.468 1193.6 246.1 1195.38 246.1C1198.11 246.1 1200.34 246.858 1202.07 248.375C1203.85 249.892 1204.74 252.102 1204.74 255.005V273.92L1208.83 275.025V276H1196.87V275.025L1201.49 273.92V256.76C1201.49 254.117 1200.77 252.123 1199.34 250.78C1197.96 249.393 1196.12 248.7 1193.82 248.7C1192.52 248.7 1191.11 249.025 1189.59 249.675C1188.08 250.282 1186.84 251.17 1185.89 252.34V273.92L1190.5 275.025V276H1178.54ZM1231.23 276.65C1228.15 276.65 1225.55 276 1223.43 274.7C1221.35 273.4 1219.77 271.645 1218.68 269.435C1217.64 267.225 1217.12 264.733 1217.12 261.96C1217.12 259.013 1217.73 256.348 1218.94 253.965C1220.2 251.582 1221.82 249.675 1223.82 248.245C1225.85 246.815 1228.06 246.1 1230.45 246.1C1233.87 246.1 1236.56 247.227 1238.51 249.48C1240.46 251.733 1241.58 254.853 1241.89 258.84L1241.69 259.035H1220.44C1220.39 259.685 1220.37 260.378 1220.37 261.115C1220.37 264.928 1221.39 268.027 1223.43 270.41C1225.51 272.75 1228.41 273.92 1232.14 273.92C1234.17 273.92 1236.02 273.617 1237.66 273.01C1239.35 272.403 1240.67 271.58 1241.63 270.54H1241.82V271.385C1240.87 272.902 1239.46 274.158 1237.6 275.155C1235.78 276.152 1233.65 276.65 1231.23 276.65ZM1229.67 247.53C1227.54 247.53 1225.64 248.418 1223.95 250.195C1222.26 251.928 1221.15 254.398 1220.63 257.605H1238.31C1237.88 254.442 1236.99 251.972 1235.65 250.195C1234.3 248.418 1232.31 247.53 1229.67 247.53ZM1251.8 276V275.025L1255.89 273.92V249.22L1251.15 248.635V247.66L1258.17 246.1H1258.82L1259.14 251.885H1259.27C1260.96 250.108 1262.31 248.808 1263.3 247.985C1264.3 247.162 1265.12 246.642 1265.77 246.425C1266.42 246.208 1267.16 246.1 1267.98 246.1C1268.72 246.1 1269.39 246.23 1270 246.49C1270.43 246.663 1270.73 246.837 1270.91 247.01C1271.12 247.14 1271.23 247.335 1271.23 247.595C1271.23 247.682 1271.21 247.79 1271.17 247.92C1271.17 248.007 1271.15 248.137 1271.1 248.31L1270.45 250H1270.32L1269.09 249.415C1268.48 249.112 1267.68 248.96 1266.68 248.96C1265.43 248.96 1264.17 249.307 1262.91 250C1261.66 250.693 1260.4 251.907 1259.14 253.64V273.92L1264.15 275.025V276H1251.8ZM1304.4 276.325L1295.3 248.96L1291.21 247.725V246.75H1303.69V247.725L1298.68 248.83V249.025L1305.57 271.58H1305.83L1314.93 246.75H1315.91L1325.01 271.385H1325.27L1332.03 249.09V248.895L1326.76 247.725V246.75H1338.27V247.725L1334.11 248.96L1324.55 276.325H1323.9L1314.67 252.47L1305.05 276.325H1304.4ZM1343.39 276V275.025L1347.48 273.92V249.22L1342.74 248.635V247.66L1349.76 246.1H1350.41L1350.73 251.885H1350.86C1352.55 250.108 1353.89 248.808 1354.89 247.985C1355.89 247.162 1356.71 246.642 1357.36 246.425C1358.01 246.208 1358.75 246.1 1359.57 246.1C1360.31 246.1 1360.98 246.23 1361.59 246.49C1362.02 246.663 1362.32 246.837 1362.5 247.01C1362.71 247.14 1362.82 247.335 1362.82 247.595C1362.82 247.682 1362.8 247.79 1362.76 247.92C1362.76 248.007 1362.73 248.137 1362.69 248.31L1362.04 250H1361.91L1360.68 249.415C1360.07 249.112 1359.27 248.96 1358.27 248.96C1357.01 248.96 1355.76 249.307 1354.5 250C1353.24 250.693 1351.99 251.907 1350.73 253.64V273.92L1355.74 275.025V276H1343.39ZM1374.41 235.83C1373.72 235.83 1373.13 235.592 1372.66 235.115C1372.18 234.638 1371.94 234.053 1371.94 233.36C1371.94 232.667 1372.18 232.082 1372.66 231.605C1373.13 231.128 1373.72 230.89 1374.41 230.89C1375.11 230.89 1375.69 231.128 1376.17 231.605C1376.64 232.082 1376.88 232.667 1376.88 233.36C1376.88 234.053 1376.64 234.638 1376.17 235.115C1375.69 235.592 1375.11 235.83 1374.41 235.83ZM1369.6 276V275.025L1373.7 273.92V249.22L1368.95 247.985V247.01L1376.3 246.1H1376.95V273.92L1381.56 275.025V276H1369.6ZM1400.53 276.65C1398.75 276.65 1397.3 276.087 1396.17 274.96C1395.09 273.833 1394.55 272.252 1394.55 270.215V248.96H1388.83V248.375L1394.94 246.75L1397.08 239.6H1397.8V246.75H1406.38V248.96H1397.8V270.085C1397.8 271.428 1398.21 272.447 1399.03 273.14C1399.85 273.79 1400.94 274.115 1402.28 274.115C1403.23 274.115 1404.1 274.007 1404.88 273.79C1405.66 273.573 1406.4 273.27 1407.09 272.88L1407.16 272.945V273.205C1406.81 273.942 1406.07 274.7 1404.95 275.48C1403.82 276.26 1402.35 276.65 1400.53 276.65ZM1429.07 276.65C1425.99 276.65 1423.39 276 1421.27 274.7C1419.19 273.4 1417.6 271.645 1416.52 269.435C1415.48 267.225 1414.96 264.733 1414.96 261.96C1414.96 259.013 1415.57 256.348 1416.78 253.965C1418.04 251.582 1419.66 249.675 1421.66 248.245C1423.69 246.815 1425.9 246.1 1428.29 246.1C1431.71 246.1 1434.4 247.227 1436.35 249.48C1438.3 251.733 1439.42 254.853 1439.73 258.84L1439.53 259.035H1418.28C1418.23 259.685 1418.21 260.378 1418.21 261.115C1418.21 264.928 1419.23 268.027 1421.27 270.41C1423.35 272.75 1426.25 273.92 1429.98 273.92C1432.01 273.92 1433.85 273.617 1435.5 273.01C1437.19 272.403 1438.51 271.58 1439.47 270.54H1439.66V271.385C1438.71 272.902 1437.3 274.158 1435.44 275.155C1433.62 276.152 1431.49 276.65 1429.07 276.65ZM1427.51 247.53C1425.38 247.53 1423.48 248.418 1421.79 250.195C1420.1 251.928 1418.99 254.398 1418.47 257.605H1436.15C1435.72 254.442 1434.83 251.972 1433.49 250.195C1432.14 248.418 1430.15 247.53 1427.51 247.53ZM1449.64 276V275.025L1453.73 273.92V249.22L1448.99 248.635V247.66L1456.01 246.1H1456.66L1456.98 251.885H1457.11C1458.8 250.108 1460.14 248.808 1461.14 247.985C1462.14 247.162 1462.96 246.642 1463.61 246.425C1464.26 246.208 1465 246.1 1465.82 246.1C1466.56 246.1 1467.23 246.23 1467.84 246.49C1468.27 246.663 1468.57 246.837 1468.75 247.01C1468.96 247.14 1469.07 247.335 1469.07 247.595C1469.07 247.682 1469.05 247.79 1469.01 247.92C1469.01 248.007 1468.98 248.137 1468.94 248.31L1468.29 250H1468.16L1466.93 249.415C1466.32 249.112 1465.52 248.96 1464.52 248.96C1463.26 248.96 1462.01 249.307 1460.75 250C1459.49 250.693 1458.24 251.907 1456.98 253.64V273.92L1461.99 275.025V276H1449.64Z" fill="#FAFAFA"/>
<path d="M1504.97 276.65C1503.46 276.65 1502.09 276.477 1500.88 276.13C1499.71 275.827 1498.49 275.372 1497.24 274.765V268.005H1498.02L1498.93 270.93C1499.32 272.23 1500.03 273.27 1501.07 274.05C1502.11 274.787 1503.59 275.155 1505.49 275.155C1507.57 275.155 1509.18 274.657 1510.3 273.66C1511.47 272.62 1512.06 271.147 1512.06 269.24C1512.06 267.55 1511.6 266.228 1510.69 265.275C1509.78 264.278 1508.09 263.282 1505.62 262.285C1503.02 261.245 1501.09 260.118 1499.84 258.905C1498.62 257.692 1498.02 255.958 1498.02 253.705C1498.02 252.318 1498.39 251.062 1499.12 249.935C1499.9 248.765 1500.92 247.833 1502.18 247.14C1503.43 246.447 1504.78 246.1 1506.21 246.1C1507.81 246.1 1509.24 246.295 1510.5 246.685C1511.75 247.032 1512.84 247.443 1513.75 247.92V254.55H1512.97L1512.12 251.755C1511.69 250.238 1510.87 249.155 1509.65 248.505C1508.48 247.855 1507.29 247.53 1506.08 247.53C1504.39 247.53 1503.09 248.028 1502.18 249.025C1501.31 250.022 1500.88 251.322 1500.88 252.925C1500.88 254.528 1501.35 255.785 1502.31 256.695C1503.26 257.605 1504.8 258.493 1506.92 259.36C1508.83 260.14 1510.37 260.898 1511.54 261.635C1512.75 262.372 1513.64 263.282 1514.2 264.365C1514.77 265.405 1515.05 266.748 1515.05 268.395C1515.05 269.868 1514.64 271.233 1513.81 272.49C1512.99 273.747 1511.82 274.765 1510.3 275.545C1508.79 276.282 1507.01 276.65 1504.97 276.65ZM1540.54 276.65C1537.51 276.65 1534.95 276 1532.87 274.7C1530.84 273.4 1529.28 271.645 1528.19 269.435C1527.15 267.225 1526.63 264.733 1526.63 261.96C1526.63 258.927 1527.24 256.218 1528.45 253.835C1529.71 251.408 1531.42 249.523 1533.59 248.18C1535.8 246.793 1538.29 246.1 1541.06 246.1C1542.8 246.1 1544.34 246.338 1545.68 246.815C1547.02 247.292 1548.11 247.812 1548.93 248.375C1550.32 249.328 1551.01 250.152 1551.01 250.845C1551.01 251.148 1550.86 251.43 1550.55 251.69L1548.8 253.185H1548.54L1547.69 252.015C1546.74 250.715 1545.7 249.653 1544.57 248.83C1543.49 247.963 1542.08 247.53 1540.35 247.53C1537.32 247.53 1534.8 248.678 1532.81 250.975C1530.86 253.228 1529.88 256.608 1529.88 261.115C1529.88 264.928 1530.88 268.027 1532.87 270.41C1534.91 272.75 1537.77 273.92 1541.45 273.92C1543.45 273.92 1545.29 273.617 1546.98 273.01C1548.67 272.403 1549.99 271.58 1550.94 270.54H1551.14V271.385C1550.14 272.902 1548.73 274.158 1546.91 275.155C1545.09 276.152 1542.97 276.65 1540.54 276.65ZM1566.91 235.83C1566.22 235.83 1565.64 235.592 1565.16 235.115C1564.68 234.638 1564.44 234.053 1564.44 233.36C1564.44 232.667 1564.68 232.082 1565.16 231.605C1565.64 231.128 1566.22 230.89 1566.91 230.89C1567.61 230.89 1568.19 231.128 1568.67 231.605C1569.15 232.082 1569.38 232.667 1569.38 233.36C1569.38 234.053 1569.15 234.638 1568.67 235.115C1568.19 235.592 1567.61 235.83 1566.91 235.83ZM1562.1 276V275.025L1566.2 273.92V249.22L1561.45 247.985V247.01L1568.8 246.1H1569.45V273.92L1574.06 275.025V276H1562.1ZM1598.81 276.65C1595.74 276.65 1593.14 276 1591.01 274.7C1588.93 273.4 1587.35 271.645 1586.27 269.435C1585.23 267.225 1584.71 264.733 1584.71 261.96C1584.71 259.013 1585.31 256.348 1586.53 253.965C1587.78 251.582 1589.41 249.675 1591.4 248.245C1593.44 246.815 1595.65 246.1 1598.03 246.1C1601.46 246.1 1604.14 247.227 1606.09 249.48C1608.04 251.733 1609.17 254.853 1609.47 258.84L1609.28 259.035H1588.02C1587.98 259.685 1587.96 260.378 1587.96 261.115C1587.96 264.928 1588.98 268.027 1591.01 270.41C1593.09 272.75 1596 273.92 1599.72 273.92C1601.76 273.92 1603.6 273.617 1605.25 273.01C1606.94 272.403 1608.26 271.58 1609.21 270.54H1609.41V271.385C1608.45 272.902 1607.05 274.158 1605.18 275.155C1603.36 276.152 1601.24 276.65 1598.81 276.65ZM1597.25 247.53C1595.13 247.53 1593.22 248.418 1591.53 250.195C1589.84 251.928 1588.74 254.398 1588.22 257.605H1605.9C1605.46 254.442 1604.58 251.972 1603.23 250.195C1601.89 248.418 1599.9 247.53 1597.25 247.53ZM1620.42 276V275.025L1624.52 273.92V249.22L1619.77 248.635V247.66L1626.79 246.1H1627.44L1627.7 250.78H1627.9C1629.5 249.133 1631.02 247.942 1632.45 247.205C1633.88 246.468 1635.48 246.1 1637.26 246.1C1639.99 246.1 1642.22 246.858 1643.95 248.375C1645.73 249.892 1646.62 252.102 1646.62 255.005V273.92L1650.71 275.025V276H1638.75V275.025L1643.37 273.92V256.76C1643.37 254.117 1642.65 252.123 1641.22 250.78C1639.84 249.393 1637.99 248.7 1635.7 248.7C1634.4 248.7 1632.99 249.025 1631.47 249.675C1629.96 250.282 1628.72 251.17 1627.77 252.34V273.92L1632.38 275.025V276H1620.42ZM1669.92 276.65C1668.14 276.65 1666.69 276.087 1665.57 274.96C1664.48 273.833 1663.94 272.252 1663.94 270.215V248.96H1658.22V248.375L1664.33 246.75L1666.48 239.6H1667.19V246.75H1675.77V248.96H1667.19V270.085C1667.19 271.428 1667.6 272.447 1668.43 273.14C1669.25 273.79 1670.33 274.115 1671.68 274.115C1672.63 274.115 1673.5 274.007 1674.28 273.79C1675.06 273.573 1675.79 273.27 1676.49 272.88L1676.55 272.945V273.205C1676.2 273.942 1675.47 274.7 1674.34 275.48C1673.21 276.26 1671.74 276.65 1669.92 276.65ZM1691.38 235.83C1690.68 235.83 1690.1 235.592 1689.62 235.115C1689.14 234.638 1688.91 234.053 1688.91 233.36C1688.91 232.667 1689.14 232.082 1689.62 231.605C1690.1 231.128 1690.68 230.89 1691.38 230.89C1692.07 230.89 1692.65 231.128 1693.13 231.605C1693.61 232.082 1693.85 232.667 1693.85 233.36C1693.85 234.053 1693.61 234.638 1693.13 235.115C1692.65 235.592 1692.07 235.83 1691.38 235.83ZM1686.57 276V275.025L1690.66 273.92V249.22L1685.92 247.985V247.01L1693.26 246.1H1693.91V273.92L1698.53 275.025V276H1686.57ZM1717.75 276.65C1716.23 276.65 1714.87 276.477 1713.66 276.13C1712.49 275.827 1711.27 275.372 1710.02 274.765V268.005H1710.8L1711.71 270.93C1712.1 272.23 1712.81 273.27 1713.85 274.05C1714.89 274.787 1716.36 275.155 1718.27 275.155C1720.35 275.155 1721.95 274.657 1723.08 273.66C1724.25 272.62 1724.84 271.147 1724.84 269.24C1724.84 267.55 1724.38 266.228 1723.47 265.275C1722.56 264.278 1720.87 263.282 1718.4 262.285C1715.8 261.245 1713.87 260.118 1712.62 258.905C1711.4 257.692 1710.8 255.958 1710.8 253.705C1710.8 252.318 1711.16 251.062 1711.9 249.935C1712.68 248.765 1713.7 247.833 1714.96 247.14C1716.21 246.447 1717.56 246.1 1718.99 246.1C1720.59 246.1 1722.02 246.295 1723.28 246.685C1724.53 247.032 1725.62 247.443 1726.53 247.92V254.55H1725.75L1724.9 251.755C1724.47 250.238 1723.64 249.155 1722.43 248.505C1721.26 247.855 1720.07 247.53 1718.86 247.53C1717.17 247.53 1715.87 248.028 1714.96 249.025C1714.09 250.022 1713.66 251.322 1713.66 252.925C1713.66 254.528 1714.13 255.785 1715.09 256.695C1716.04 257.605 1717.58 258.493 1719.7 259.36C1721.61 260.14 1723.15 260.898 1724.32 261.635C1725.53 262.372 1726.42 263.282 1726.98 264.365C1727.54 265.405 1727.83 266.748 1727.83 268.395C1727.83 269.868 1727.41 271.233 1726.59 272.49C1725.77 273.747 1724.6 274.765 1723.08 275.545C1721.56 276.282 1719.79 276.65 1717.75 276.65ZM1749.03 276.65C1747.26 276.65 1745.8 276.087 1744.68 274.96C1743.59 273.833 1743.05 272.252 1743.05 270.215V248.96H1737.33V248.375L1743.44 246.75L1745.59 239.6H1746.3V246.75H1754.88V248.96H1746.3V270.085C1746.3 271.428 1746.71 272.447 1747.54 273.14C1748.36 273.79 1749.44 274.115 1750.79 274.115C1751.74 274.115 1752.61 274.007 1753.39 273.79C1754.17 273.573 1754.9 273.27 1755.6 272.88L1755.66 272.945V273.205C1755.32 273.942 1754.58 274.7 1753.45 275.48C1752.33 276.26 1750.85 276.65 1749.03 276.65Z" fill="#F4B400"/>
<path d="M677.476 259.1H941.75V261.05H677.476V259.1ZM960.622 259.1H1273.83V261.05H960.622V259.1Z" fill="#FAFAFA"/>
<path d="M1292.7 259.1H1471.67V261.05H1292.7V259.1Z" fill="#FAFAFA"/>
<ellipse cx="13.29" cy="13.2913" rx="13.29" ry="13.2913" transform="matrix(1 0 0 -1 73 100.583)" fill="#F4B400"/>
<ellipse cx="13.29" cy="13.2913" rx="13.29" ry="13.2913" transform="matrix(1 0 0 -1 73 270.583)" fill="#F4B400"/>
<line x1="87.2" y1="87" x2="87.2" y2="257" stroke="#F4B400" stroke-width="2.4"/>
</svg>
