<svg width="1824" height="474" viewBox="0 0 1824 474" fill="none" xmlns="http://www.w3.org/2000/svg">
<rect y="170" width="1824" height="304" rx="6" fill="#424242" fill-opacity="0.64"/>
<rect y="170" width="1824" height="304" rx="6" fill="#424242" fill-opacity="0.88"/>
<path d="M221.354 345V343.845L226.205 342.536V313.276L220.584 312.583V311.428L228.9 309.58H229.67L229.978 315.124H230.209C232.006 313.276 233.7 311.89 235.291 310.966C236.883 310.042 238.628 309.58 240.527 309.58C242.683 309.58 244.583 310.042 246.225 310.966C247.868 311.89 249.1 313.276 249.921 315.124H250.075C251.923 313.225 253.669 311.839 255.311 310.966C256.954 310.042 258.776 309.58 260.778 309.58C263.91 309.58 266.476 310.478 268.478 312.275C270.48 314.072 271.481 316.69 271.481 320.129V342.536L276.332 343.845V345H262.164V343.845L267.631 342.536V322.208C267.631 319.077 266.81 316.715 265.167 315.124C263.576 313.481 261.497 312.66 258.93 312.66C257.544 312.66 256.03 312.994 254.387 313.661C252.796 314.277 251.461 315.201 250.383 316.433C250.691 317.562 250.845 318.794 250.845 320.129V342.536L255.696 343.845V345H241.528V343.845L246.995 342.536V322.208C246.995 319.077 246.225 316.715 244.685 315.124C243.145 313.481 241.143 312.66 238.679 312.66C237.242 312.66 235.702 313.045 234.059 313.815C232.417 314.534 231.082 315.56 230.055 316.895V342.536L235.522 343.845V345H221.354ZM309.737 345.77C307.376 345.77 305.399 345.077 303.808 343.691C302.217 342.254 301.421 340.277 301.421 337.762C301.421 335.298 302.294 333.245 304.039 331.602C305.836 329.959 308.787 328.625 312.894 327.598L320.44 325.673V319.282C320.44 317.075 319.644 315.304 318.053 313.969C316.462 312.583 314.639 311.89 312.586 311.89C310.379 311.89 308.813 312.352 307.889 313.276C307.016 314.149 306.58 315.355 306.58 316.895V320.052L306.195 320.437H304.193C303.372 320.437 302.833 320.309 302.576 320.052C302.319 319.795 302.191 319.308 302.191 318.589C302.191 317.614 302.525 316.613 303.192 315.586C303.859 314.559 304.835 313.635 306.118 312.814C307.504 311.941 308.89 311.197 310.276 310.581C311.713 309.914 313.074 309.58 314.357 309.58C317.437 309.58 319.85 310.273 321.595 311.659C323.392 312.994 324.29 315.098 324.29 317.973V341.92C324.701 342.279 325.163 342.562 325.676 342.767C326.241 342.972 326.882 343.075 327.601 343.075H331.605L331.682 343.152V343.306C331.323 343.819 330.732 344.358 329.911 344.923C329.09 345.488 327.986 345.77 326.6 345.77C324.803 345.77 323.417 345.308 322.442 344.384C321.467 343.46 320.876 342.382 320.671 341.15H320.517C319.182 342.485 317.565 343.588 315.666 344.461C313.818 345.334 311.842 345.77 309.737 345.77ZM305.271 336.376C305.271 338.481 305.861 340.072 307.042 341.15C308.223 342.177 309.891 342.69 312.047 342.69C313.33 342.69 314.716 342.51 316.205 342.151C317.694 341.74 319.105 341.124 320.44 340.303V327.29C316.179 328.163 312.945 329.035 310.738 329.908C308.582 330.781 307.119 331.73 306.349 332.757C305.63 333.784 305.271 334.99 305.271 336.376ZM369.192 333.373C367.652 333.373 366.189 333.116 364.803 332.603C363.109 333.322 361.929 334.092 361.261 334.913C360.594 335.734 360.26 336.684 360.26 337.762C360.26 339.507 360.876 340.765 362.108 341.535C363.34 342.305 365.24 342.69 367.806 342.69H376.507C379.536 342.69 381.846 343.409 383.437 344.846C385.08 346.283 385.901 348.26 385.901 350.775C385.901 352.88 385.183 354.907 383.745 356.858C382.308 358.809 380.306 360.4 377.739 361.632C375.173 362.864 372.144 363.48 368.653 363.48C364.187 363.48 360.979 362.582 359.028 360.785C357.078 359.04 356.102 356.884 356.102 354.317C356.102 352.418 356.487 350.775 357.257 349.389L361.954 345.462V345.308C358.618 344.333 356.949 342.305 356.949 339.225C356.949 337.531 357.514 336.119 358.643 334.99L363.186 332.295V331.91C361.338 330.935 359.875 329.549 358.797 327.752C357.719 325.904 357.18 323.825 357.18 321.515C357.18 319.256 357.694 317.229 358.72 315.432C359.798 313.635 361.236 312.224 363.032 311.197C364.829 310.119 366.882 309.58 369.192 309.58C370.322 309.58 371.554 309.734 372.888 310.042C374.223 310.299 375.275 310.607 376.045 310.966L386.517 310.35V313.507L378.74 312.968L378.586 313.122C379.408 313.995 380.024 315.227 380.434 316.818C380.896 318.358 381.127 319.924 381.127 321.515C381.127 323.774 380.614 325.801 379.587 327.598C378.561 329.395 377.149 330.806 375.352 331.833C373.556 332.86 371.502 333.373 369.192 333.373ZM369.962 331.833C372.17 331.833 373.915 330.96 375.198 329.215C376.533 327.418 377.2 324.903 377.2 321.669C377.2 318.127 376.379 315.483 374.736 313.738C373.094 311.941 371.066 311.043 368.653 311.043C366.292 311.043 364.444 311.967 363.109 313.815C361.775 315.612 361.107 318.101 361.107 321.284C361.107 324.826 361.929 327.47 363.571 329.215C365.265 330.96 367.396 331.833 369.962 331.833ZM359.644 353.47C359.644 355.831 360.62 357.808 362.57 359.399C364.572 360.99 367.011 361.786 369.885 361.786C372.349 361.786 374.531 361.324 376.43 360.4C378.33 359.527 379.818 358.347 380.896 356.858C381.974 355.421 382.513 353.881 382.513 352.238C382.513 349.774 381.872 348.08 380.588 347.156C379.356 346.232 377.123 345.77 373.889 345.77H365.804C365.034 345.77 364.29 345.719 363.571 345.616C362.083 346.489 361.056 347.541 360.491 348.773C359.927 350.056 359.644 351.622 359.644 353.47ZM419.848 297.414C419.026 297.414 418.333 297.132 417.769 296.567C417.204 296.002 416.922 295.309 416.922 294.488C416.922 293.667 417.204 292.974 417.769 292.409C418.333 291.844 419.026 291.562 419.848 291.562C420.669 291.562 421.362 291.844 421.927 292.409C422.491 292.974 422.774 293.667 422.774 294.488C422.774 295.309 422.491 296.002 421.927 296.567C421.362 297.132 420.669 297.414 419.848 297.414ZM414.15 345V343.845L419.001 342.536V313.276L413.38 311.813V310.658L422.081 309.58H422.851V342.536L428.318 343.845V345H414.15ZM471.65 345.77C468.057 345.77 465.028 345 462.564 343.46C460.151 341.92 458.303 339.841 457.02 337.223C455.788 334.605 455.172 331.653 455.172 328.368C455.172 324.775 455.891 321.566 457.328 318.743C458.817 315.868 460.844 313.635 463.411 312.044C466.029 310.401 468.981 309.58 472.266 309.58C474.319 309.58 476.142 309.862 477.733 310.427C479.324 310.992 480.608 311.608 481.583 312.275C483.226 313.404 484.047 314.38 484.047 315.201C484.047 315.56 483.867 315.894 483.508 316.202L481.429 317.973H481.121L480.12 316.587C478.991 315.047 477.759 313.789 476.424 312.814C475.141 311.787 473.472 311.274 471.419 311.274C467.826 311.274 464.848 312.634 462.487 315.355C460.177 318.024 459.022 322.028 459.022 327.367C459.022 331.884 460.203 335.555 462.564 338.378C464.977 341.15 468.365 342.536 472.728 342.536C475.089 342.536 477.271 342.177 479.273 341.458C481.275 340.739 482.841 339.764 483.97 338.532H484.201V339.533C483.02 341.33 481.352 342.818 479.196 343.999C477.04 345.18 474.525 345.77 471.65 345.77ZM551.51 345.308C550.535 345.308 549.714 344.974 549.046 344.307C548.379 343.588 548.045 342.767 548.045 341.843C548.045 340.919 548.379 340.123 549.046 339.456C549.714 338.737 550.535 338.378 551.51 338.378C552.486 338.378 553.307 338.737 553.974 339.456C554.642 340.123 554.975 340.919 554.975 341.843C554.975 342.767 554.642 343.588 553.974 344.307C553.307 344.974 552.486 345.308 551.51 345.308ZM551.51 316.51C550.535 316.51 549.714 316.176 549.046 315.509C548.379 314.79 548.045 313.969 548.045 313.045C548.045 312.121 548.379 311.325 549.046 310.658C549.714 309.939 550.535 309.58 551.51 309.58C552.486 309.58 553.307 309.939 553.974 310.658C554.642 311.325 554.975 312.121 554.975 313.045C554.975 313.969 554.642 314.79 553.974 315.509C553.307 316.176 552.486 316.51 551.51 316.51Z" fill="#FAFAFA"/>
<path d="M510.741 356.55V288.02H523.215V289.406H513.436V355.164H523.215V356.55H510.741ZM579.752 356.55V355.164H589.531V289.406H579.752V288.02H592.226V356.55H579.752ZM668.723 345.77C666.618 345.77 664.899 345.103 663.564 343.768C662.281 342.433 661.639 340.56 661.639 338.147V312.968H654.863V312.275L662.101 310.35L664.642 301.88H665.489V310.35H675.653V312.968H665.489V337.993C665.489 339.584 665.977 340.791 666.952 341.612C667.927 342.382 669.211 342.767 670.802 342.767C671.931 342.767 672.958 342.639 673.882 342.382C674.806 342.125 675.679 341.766 676.5 341.304L676.577 341.381V341.689C676.166 342.562 675.294 343.46 673.959 344.384C672.624 345.308 670.879 345.77 668.723 345.77ZM702.224 345V343.845L707.075 342.536V290.946L701.454 289.483V288.328L710.155 287.25H710.925V315.124H711.079C712.978 313.173 714.775 311.762 716.469 310.889C718.163 310.016 720.062 309.58 722.167 309.58C725.401 309.58 728.045 310.478 730.098 312.275C732.203 314.072 733.255 316.69 733.255 320.129V342.536L738.106 343.845V345H723.938V343.845L729.405 342.536V322.208C729.405 319.077 728.558 316.715 726.864 315.124C725.221 313.481 723.04 312.66 720.319 312.66C718.779 312.66 717.111 313.045 715.314 313.815C713.517 314.534 712.054 315.586 710.925 316.972V342.536L716.392 343.845V345H702.224ZM780.419 345.77C776.775 345.77 773.695 345 771.179 343.46C768.715 341.92 766.842 339.841 765.558 337.223C764.326 334.605 763.71 331.653 763.71 328.368C763.71 324.877 764.429 321.72 765.866 318.897C767.355 316.074 769.28 313.815 771.641 312.121C774.054 310.427 776.672 309.58 779.495 309.58C783.551 309.58 786.733 310.915 789.043 313.584C791.353 316.253 792.688 319.949 793.047 324.672L792.816 324.903H767.637C767.586 325.673 767.56 326.494 767.56 327.367C767.56 331.884 768.767 335.555 771.179 338.378C773.643 341.15 777.083 342.536 781.497 342.536C783.91 342.536 786.092 342.177 788.042 341.458C790.044 340.739 791.61 339.764 792.739 338.532H792.97V339.533C791.841 341.33 790.173 342.818 787.965 343.999C785.809 345.18 783.294 345.77 780.419 345.77ZM778.571 311.274C776.056 311.274 773.797 312.326 771.795 314.431C769.793 316.484 768.484 319.41 767.868 323.209H788.812C788.299 319.462 787.247 316.536 785.655 314.431C784.064 312.326 781.703 311.274 778.571 311.274ZM871.699 333.373C870.159 333.373 868.696 333.116 867.31 332.603C865.616 333.322 864.435 334.092 863.768 334.913C863.1 335.734 862.767 336.684 862.767 337.762C862.767 339.507 863.383 340.765 864.615 341.535C865.847 342.305 867.746 342.69 870.313 342.69H879.014C882.042 342.69 884.352 343.409 885.944 344.846C887.586 346.283 888.408 348.26 888.408 350.775C888.408 352.88 887.689 354.907 886.252 356.858C884.814 358.809 882.812 360.4 880.246 361.632C877.679 362.864 874.65 363.48 871.16 363.48C866.694 363.48 863.485 362.582 861.535 360.785C859.584 359.04 858.609 356.884 858.609 354.317C858.609 352.418 858.994 350.775 859.764 349.389L864.461 345.462V345.308C861.124 344.333 859.456 342.305 859.456 339.225C859.456 337.531 860.02 336.119 861.15 334.99L865.693 332.295V331.91C863.845 330.935 862.382 329.549 861.304 327.752C860.226 325.904 859.687 323.825 859.687 321.515C859.687 319.256 860.2 317.229 861.227 315.432C862.305 313.635 863.742 312.224 865.539 311.197C867.335 310.119 869.389 309.58 871.699 309.58C872.828 309.58 874.06 309.734 875.395 310.042C876.729 310.299 877.782 310.607 878.552 310.966L889.024 310.35V313.507L881.247 312.968L881.093 313.122C881.914 313.995 882.53 315.227 882.941 316.818C883.403 318.358 883.634 319.924 883.634 321.515C883.634 323.774 883.12 325.801 882.094 327.598C881.067 329.395 879.655 330.806 877.859 331.833C876.062 332.86 874.009 333.373 871.699 333.373ZM872.469 331.833C874.676 331.833 876.421 330.96 877.705 329.215C879.039 327.418 879.707 324.903 879.707 321.669C879.707 318.127 878.885 315.483 877.243 313.738C875.6 311.941 873.572 311.043 871.16 311.043C868.798 311.043 866.95 311.967 865.616 313.815C864.281 315.612 863.614 318.101 863.614 321.284C863.614 324.826 864.435 327.47 866.078 329.215C867.772 330.96 869.902 331.833 872.469 331.833ZM862.151 353.47C862.151 355.831 863.126 357.808 865.077 359.399C867.079 360.99 869.517 361.786 872.392 361.786C874.856 361.786 877.037 361.324 878.937 360.4C880.836 359.527 882.325 358.347 883.403 356.858C884.481 355.421 885.02 353.881 885.02 352.238C885.02 349.774 884.378 348.08 883.095 347.156C881.863 346.232 879.63 345.77 876.396 345.77H868.311C867.541 345.77 866.796 345.719 866.078 345.616C864.589 346.489 863.562 347.541 862.998 348.773C862.433 350.056 862.151 351.622 862.151 353.47ZM923.74 345.77C921.378 345.77 919.402 345.077 917.811 343.691C916.219 342.254 915.424 340.277 915.424 337.762C915.424 335.298 916.296 333.245 918.042 331.602C919.838 329.959 922.79 328.625 926.897 327.598L934.443 325.673V319.282C934.443 317.075 933.647 315.304 932.056 313.969C930.464 312.583 928.642 311.89 926.589 311.89C924.381 311.89 922.816 312.352 921.892 313.276C921.019 314.149 920.583 315.355 920.583 316.895V320.052L920.198 320.437H918.196C917.374 320.437 916.835 320.309 916.579 320.052C916.322 319.795 916.194 319.308 916.194 318.589C916.194 317.614 916.527 316.613 917.195 315.586C917.862 314.559 918.837 313.635 920.121 312.814C921.507 311.941 922.893 311.197 924.279 310.581C925.716 309.914 927.076 309.58 928.36 309.58C931.44 309.58 933.852 310.273 935.598 311.659C937.394 312.994 938.293 315.098 938.293 317.973V341.92C938.703 342.279 939.165 342.562 939.679 342.767C940.243 342.972 940.885 343.075 941.604 343.075H945.608L945.685 343.152V343.306C945.325 343.819 944.735 344.358 943.914 344.923C943.092 345.488 941.989 345.77 940.603 345.77C938.806 345.77 937.42 345.308 936.445 344.384C935.469 343.46 934.879 342.382 934.674 341.15H934.52C933.185 342.485 931.568 343.588 929.669 344.461C927.821 345.334 925.844 345.77 923.74 345.77ZM919.274 336.376C919.274 338.481 919.864 340.072 921.045 341.15C922.225 342.177 923.894 342.69 926.05 342.69C927.333 342.69 928.719 342.51 930.208 342.151C931.696 341.74 933.108 341.124 934.443 340.303V327.29C930.182 328.163 926.948 329.035 924.741 329.908C922.585 330.781 921.122 331.73 920.352 332.757C919.633 333.784 919.274 334.99 919.274 336.376ZM980.654 345.77C978.55 345.77 976.83 345.103 975.495 343.768C974.212 342.433 973.57 340.56 973.57 338.147V312.968H966.794V312.275L974.032 310.35L976.573 301.88H977.42V310.35H987.584V312.968H977.42V337.993C977.42 339.584 977.908 340.791 978.883 341.612C979.859 342.382 981.142 342.767 982.733 342.767C983.863 342.767 984.889 342.639 985.813 342.382C986.737 342.125 987.61 341.766 988.431 341.304L988.508 341.381V341.689C988.098 342.562 987.225 343.46 985.89 344.384C984.556 345.308 982.81 345.77 980.654 345.77ZM1014.16 345V343.845L1019.01 342.536V290.946L1013.39 289.483V288.328L1022.09 287.25H1022.86V315.124H1023.01C1024.91 313.173 1026.71 311.762 1028.4 310.889C1030.09 310.016 1031.99 309.58 1034.1 309.58C1037.33 309.58 1039.98 310.478 1042.03 312.275C1044.13 314.072 1045.19 316.69 1045.19 320.129V342.536L1050.04 343.845V345H1035.87V343.845L1041.34 342.536V322.208C1041.34 319.077 1040.49 316.715 1038.8 315.124C1037.15 313.481 1034.97 312.66 1032.25 312.66C1030.71 312.66 1029.04 313.045 1027.25 313.815C1025.45 314.534 1023.99 315.586 1022.86 316.972V342.536L1028.32 343.845V345H1014.16ZM1092.35 345.77C1088.71 345.77 1085.63 345 1083.11 343.46C1080.65 341.92 1078.77 339.841 1077.49 337.223C1076.26 334.605 1075.64 331.653 1075.64 328.368C1075.64 324.877 1076.36 321.72 1077.8 318.897C1079.29 316.074 1081.21 313.815 1083.57 312.121C1085.99 310.427 1088.6 309.58 1091.43 309.58C1095.48 309.58 1098.66 310.915 1100.97 313.584C1103.28 316.253 1104.62 319.949 1104.98 324.672L1104.75 324.903H1079.57C1079.52 325.673 1079.49 326.494 1079.49 327.367C1079.49 331.884 1080.7 335.555 1083.11 338.378C1085.57 341.15 1089.01 342.536 1093.43 342.536C1095.84 342.536 1098.02 342.177 1099.97 341.458C1101.98 340.739 1103.54 339.764 1104.67 338.532H1104.9V339.533C1103.77 341.33 1102.1 342.818 1099.9 343.999C1097.74 345.18 1095.23 345.77 1092.35 345.77ZM1090.5 311.274C1087.99 311.274 1085.73 312.326 1083.73 314.431C1081.72 316.484 1080.42 319.41 1079.8 323.209H1100.74C1100.23 319.462 1099.18 316.536 1097.59 314.431C1096 312.326 1093.63 311.274 1090.5 311.274ZM1132.5 345V343.845L1137.35 342.536V313.276L1131.73 312.583V311.428L1140.05 309.58H1140.82L1141.2 316.433H1141.36C1143.36 314.328 1144.95 312.788 1146.13 311.813C1147.31 310.838 1148.29 310.222 1149.06 309.965C1149.83 309.708 1150.7 309.58 1151.67 309.58C1152.55 309.58 1153.34 309.734 1154.06 310.042C1154.58 310.247 1154.93 310.453 1155.14 310.658C1155.4 310.812 1155.52 311.043 1155.52 311.351C1155.52 311.454 1155.5 311.582 1155.45 311.736C1155.45 311.839 1155.42 311.993 1155.37 312.198L1154.6 314.2H1154.45L1152.98 313.507C1152.27 313.148 1151.32 312.968 1150.13 312.968C1148.65 312.968 1147.16 313.379 1145.67 314.2C1144.18 315.021 1142.69 316.459 1141.2 318.512V342.536L1147.13 343.845V345H1132.5ZM1185.04 297.414C1184.22 297.414 1183.53 297.132 1182.96 296.567C1182.4 296.002 1182.12 295.309 1182.12 294.488C1182.12 293.667 1182.4 292.974 1182.96 292.409C1183.53 291.844 1184.22 291.562 1185.04 291.562C1185.86 291.562 1186.56 291.844 1187.12 292.409C1187.68 292.974 1187.97 293.667 1187.97 294.488C1187.97 295.309 1187.68 296.002 1187.12 296.567C1186.56 297.132 1185.86 297.414 1185.04 297.414ZM1179.34 345V343.845L1184.19 342.536V313.276L1178.57 311.813V310.658L1187.27 309.58H1188.04V342.536L1193.51 343.845V345H1179.34ZM1220.98 345V343.845L1225.83 342.536V313.276L1220.21 312.583V311.428L1228.53 309.58H1229.3L1229.61 315.124H1229.84C1231.74 313.173 1233.53 311.762 1235.23 310.889C1236.92 310.016 1238.82 309.58 1240.92 309.58C1244.16 309.58 1246.8 310.478 1248.86 312.275C1250.96 314.072 1252.01 316.69 1252.01 320.129V342.536L1256.86 343.845V345H1242.7V343.845L1248.16 342.536V322.208C1248.16 319.077 1247.32 316.715 1245.62 315.124C1243.98 313.481 1241.8 312.66 1239.08 312.66C1237.54 312.66 1235.87 313.045 1234.07 313.815C1232.27 314.534 1230.81 315.586 1229.68 316.972V342.536L1235.15 343.845V345H1220.98ZM1296.4 333.373C1294.86 333.373 1293.4 333.116 1292.02 332.603C1290.32 333.322 1289.14 334.092 1288.47 334.913C1287.81 335.734 1287.47 336.684 1287.47 337.762C1287.47 339.507 1288.09 340.765 1289.32 341.535C1290.55 342.305 1292.45 342.69 1295.02 342.69H1303.72C1306.75 342.69 1309.06 343.409 1310.65 344.846C1312.29 346.283 1313.11 348.26 1313.11 350.775C1313.11 352.88 1312.4 354.907 1310.96 356.858C1309.52 358.809 1307.52 360.4 1304.95 361.632C1302.39 362.864 1299.36 363.48 1295.87 363.48C1291.4 363.48 1288.19 362.582 1286.24 360.785C1284.29 359.04 1283.31 356.884 1283.31 354.317C1283.31 352.418 1283.7 350.775 1284.47 349.389L1289.17 345.462V345.308C1285.83 344.333 1284.16 342.305 1284.16 339.225C1284.16 337.531 1284.73 336.119 1285.86 334.99L1290.4 332.295V331.91C1288.55 330.935 1287.09 329.549 1286.01 327.752C1284.93 325.904 1284.39 323.825 1284.39 321.515C1284.39 319.256 1284.91 317.229 1285.93 315.432C1287.01 313.635 1288.45 312.224 1290.24 311.197C1292.04 310.119 1294.09 309.58 1296.4 309.58C1297.53 309.58 1298.77 309.734 1300.1 310.042C1301.44 310.299 1302.49 310.607 1303.26 310.966L1313.73 310.35V313.507L1305.95 312.968L1305.8 313.122C1306.62 313.995 1307.24 315.227 1307.65 316.818C1308.11 318.358 1308.34 319.924 1308.34 321.515C1308.34 323.774 1307.83 325.801 1306.8 327.598C1305.77 329.395 1304.36 330.806 1302.56 331.833C1300.77 332.86 1298.71 333.373 1296.4 333.373ZM1297.17 331.833C1299.38 331.833 1301.13 330.96 1302.41 329.215C1303.75 327.418 1304.41 324.903 1304.41 321.669C1304.41 318.127 1303.59 315.483 1301.95 313.738C1300.31 311.941 1298.28 311.043 1295.87 311.043C1293.5 311.043 1291.66 311.967 1290.32 313.815C1288.99 315.612 1288.32 318.101 1288.32 321.284C1288.32 324.826 1289.14 327.47 1290.78 329.215C1292.48 330.96 1294.61 331.833 1297.17 331.833ZM1286.86 353.47C1286.86 355.831 1287.83 357.808 1289.78 359.399C1291.78 360.99 1294.22 361.786 1297.1 361.786C1299.56 361.786 1301.74 361.324 1303.64 360.4C1305.54 359.527 1307.03 358.347 1308.11 356.858C1309.19 355.421 1309.73 353.881 1309.73 352.238C1309.73 349.774 1309.08 348.08 1307.8 347.156C1306.57 346.232 1304.34 345.77 1301.1 345.77H1293.02C1292.25 345.77 1291.5 345.719 1290.78 345.616C1289.3 346.489 1288.27 347.541 1287.7 348.773C1287.14 350.056 1286.86 351.622 1286.86 353.47Z" fill="black"/>
<path d="M1388.41 345.385L1377.63 312.968L1372.78 311.505V310.35H1387.56V311.505L1381.63 312.814V313.045L1389.79 339.764H1390.1L1400.88 310.35H1402.04L1412.82 339.533H1413.13L1421.13 313.122V312.891L1414.9 311.505V310.35H1428.53V311.505L1423.6 312.968L1412.28 345.385H1411.51L1400.57 317.126L1389.18 345.385H1388.41ZM1456.23 297.414C1455.4 297.414 1454.71 297.132 1454.15 296.567C1453.58 296.002 1453.3 295.309 1453.3 294.488C1453.3 293.667 1453.58 292.974 1454.15 292.409C1454.71 291.844 1455.4 291.562 1456.23 291.562C1457.05 291.562 1457.74 291.844 1458.3 292.409C1458.87 292.974 1459.15 293.667 1459.15 294.488C1459.15 295.309 1458.87 296.002 1458.3 296.567C1457.74 297.132 1457.05 297.414 1456.23 297.414ZM1450.53 345V343.845L1455.38 342.536V313.276L1449.76 311.813V310.658L1458.46 309.58H1459.23V342.536L1464.7 343.845V345H1450.53ZM1492.34 345V343.691L1510.74 312.198H1496.73L1493.49 319.898H1492.26L1493.11 309.734H1493.42C1493.98 309.837 1494.67 309.965 1495.49 310.119C1496.32 310.273 1497.03 310.35 1497.65 310.35H1515.36V311.659L1496.88 343.152H1512.43L1514.67 335.683H1515.98V345H1492.34ZM1552.64 345.77C1550.28 345.77 1548.3 345.077 1546.71 343.691C1545.12 342.254 1544.32 340.277 1544.32 337.762C1544.32 335.298 1545.2 333.245 1546.94 331.602C1548.74 329.959 1551.69 328.625 1555.8 327.598L1563.34 325.673V319.282C1563.34 317.075 1562.55 315.304 1560.96 313.969C1559.36 312.583 1557.54 311.89 1555.49 311.89C1553.28 311.89 1551.72 312.352 1550.79 313.276C1549.92 314.149 1549.48 315.355 1549.48 316.895V320.052L1549.1 320.437H1547.1C1546.27 320.437 1545.74 320.309 1545.48 320.052C1545.22 319.795 1545.09 319.308 1545.09 318.589C1545.09 317.614 1545.43 316.613 1546.1 315.586C1546.76 314.559 1547.74 313.635 1549.02 312.814C1550.41 311.941 1551.79 311.197 1553.18 310.581C1554.62 309.914 1555.98 309.58 1557.26 309.58C1560.34 309.58 1562.75 310.273 1564.5 311.659C1566.29 312.994 1567.19 315.098 1567.19 317.973V341.92C1567.6 342.279 1568.07 342.562 1568.58 342.767C1569.14 342.972 1569.79 343.075 1570.5 343.075H1574.51L1574.59 343.152V343.306C1574.23 343.819 1573.64 344.358 1572.81 344.923C1571.99 345.488 1570.89 345.77 1569.5 345.77C1567.71 345.77 1566.32 345.308 1565.35 344.384C1564.37 343.46 1563.78 342.382 1563.57 341.15H1563.42C1562.09 342.485 1560.47 343.588 1558.57 344.461C1556.72 345.334 1554.74 345.77 1552.64 345.77ZM1548.17 336.376C1548.17 338.481 1548.76 340.072 1549.95 341.15C1551.13 342.177 1552.79 342.69 1554.95 342.69C1556.23 342.69 1557.62 342.51 1559.11 342.151C1560.6 341.74 1562.01 341.124 1563.34 340.303V327.29C1559.08 328.163 1555.85 329.035 1553.64 329.908C1551.49 330.781 1550.02 331.73 1549.25 332.757C1548.53 333.784 1548.17 334.99 1548.17 336.376ZM1599.08 345V343.845L1603.93 342.536V313.276L1598.31 312.583V311.428L1606.63 309.58H1607.4L1607.78 316.433H1607.94C1609.94 314.328 1611.53 312.788 1612.71 311.813C1613.89 310.838 1614.87 310.222 1615.64 309.965C1616.41 309.708 1617.28 309.58 1618.26 309.58C1619.13 309.58 1619.92 309.734 1620.64 310.042C1621.16 310.247 1621.52 310.453 1621.72 310.658C1621.98 310.812 1622.11 311.043 1622.11 311.351C1622.11 311.454 1622.08 311.582 1622.03 311.736C1622.03 311.839 1622 311.993 1621.95 312.198L1621.18 314.2H1621.03L1619.56 313.507C1618.85 313.148 1617.9 312.968 1616.72 312.968C1615.23 312.968 1613.74 313.379 1612.25 314.2C1610.76 315.021 1609.27 316.459 1607.78 318.512V342.536L1613.71 343.845V345H1599.08ZM1658.01 345.77C1655.45 345.77 1653.16 345.103 1651.16 343.768C1649.16 342.433 1647.57 340.56 1646.39 338.147C1645.26 335.683 1644.69 332.757 1644.69 329.369C1644.69 325.16 1645.51 321.592 1647.16 318.666C1648.8 315.689 1650.98 313.43 1653.7 311.89C1656.42 310.35 1659.42 309.58 1662.71 309.58C1663.84 309.58 1665.02 309.785 1666.25 310.196C1667.48 310.555 1668.69 311.043 1669.87 311.659V290.946L1664.25 289.483V288.328L1672.95 287.25H1673.72V342.536L1679.19 343.845V345H1670.64L1669.95 341.073H1669.56C1667.82 342.562 1666 343.717 1664.1 344.538C1662.25 345.359 1660.22 345.77 1658.01 345.77ZM1648.31 328.137C1648.31 331.576 1648.88 334.425 1650 336.684C1651.13 338.891 1652.6 340.534 1654.39 341.612C1656.24 342.639 1658.14 343.152 1660.09 343.152C1661.79 343.152 1663.48 342.844 1665.17 342.228C1666.87 341.612 1668.43 340.611 1669.87 339.225V314.431C1668.28 313.558 1666.69 312.865 1665.1 312.352C1663.51 311.839 1661.81 311.582 1660.01 311.582C1657.91 311.582 1655.96 312.121 1654.16 313.199C1652.42 314.277 1651.01 316.048 1649.93 318.512C1648.85 320.925 1648.31 324.133 1648.31 328.137Z" fill="#CDEBC2"/>
<ellipse cx="24" cy="24.0007" rx="24" ry="24.0007" transform="matrix(1 0 0 -1 52 271.001)" fill="black"/>
<ellipse cx="24" cy="24.0007" rx="24" ry="24.0007" transform="matrix(1 0 0 -1 52 420.001)" fill="black"/>
<ellipse cx="785.89" cy="139.291" rx="13.29" ry="13.2913" fill="#424242"/>
<ellipse cx="785.89" cy="13.2913" rx="13.29" ry="13.2913" fill="#424242"/>
<line x1="785.821" y1="135.004" x2="785.821" y2="25.0044" stroke="#424242" stroke-width="2.4"/>
</svg>
