<svg width="1656" height="445" viewBox="0 0 1656 445" fill="none" xmlns="http://www.w3.org/2000/svg">
<mask id="path-1-inside-1_1398_254" fill="white">
<rect width="1656" height="132" rx="1"/>
</mask>
<rect width="1656" height="132" rx="1" fill="white" stroke="#424242" stroke-width="2.2" mask="url(#path-1-inside-1_1398_254)"/>
<path d="M290.539 86V53.8711C290.539 51.5742 290.958 49.6419 291.797 48.0742C292.654 46.5065 293.811 45.3216 295.27 44.5195C296.728 43.7174 298.396 43.3164 300.273 43.3164C301.549 43.3164 302.853 43.5169 304.184 43.918C305.533 44.319 306.754 44.8659 307.848 45.5586L306.562 48.4297C305.615 47.7734 304.603 47.2812 303.527 46.9531C302.452 46.6068 301.431 46.4336 300.465 46.4336C298.551 46.4336 296.983 47.0352 295.762 48.2383C294.54 49.4414 293.93 51.2461 293.93 53.6523V86H290.539ZM283.074 60.2422V57.1523H306.48V60.2422H283.074ZM325.913 86V57.1523H329.304V62.0742H330.261L328.784 63.9336C329.094 62.6576 329.696 61.4727 330.589 60.3789C331.482 59.2852 332.585 58.401 333.897 57.7266C335.21 57.0521 336.65 56.7148 338.218 56.7148C339.767 56.7148 341.153 56.9792 342.374 57.5078C343.595 58.0365 344.644 58.7747 345.519 59.7227C346.394 60.6523 347.077 61.737 347.569 62.9766L344.425 64.2617C343.86 63.0221 342.994 61.9922 341.827 61.1719C340.679 60.3516 339.239 59.9414 337.507 59.9414C336.012 59.9414 334.636 60.3516 333.378 61.1719C332.138 61.974 331.145 63.1042 330.397 64.5625C329.668 66.0026 329.304 67.6797 329.304 69.5938V86H325.913ZM373.018 86.4375C371.249 86.4375 369.654 86.0911 368.232 85.3984C366.811 84.6875 365.68 83.7031 364.842 82.4453C364.022 81.1693 363.611 79.6745 363.611 77.9609C363.611 76.1562 364.113 74.5612 365.115 73.1758C366.136 71.7721 367.658 70.6693 369.682 69.8672C371.723 69.0651 374.275 68.6641 377.338 68.6641H383.162V71.4805H377.502C375.497 71.4805 373.692 71.7174 372.088 72.1914C370.502 72.6654 369.244 73.3854 368.315 74.3516C367.403 75.2995 366.947 76.5026 366.947 77.9609C366.947 79.0547 367.23 80.0117 367.795 80.832C368.378 81.6523 369.153 82.2995 370.119 82.7734C371.085 83.2292 372.152 83.457 373.318 83.457C374.704 83.457 376.089 83.1289 377.475 82.4727C378.878 81.8164 380.045 80.9141 380.975 79.7656C381.904 78.599 382.369 77.2591 382.369 75.7461V71.7812L382.315 70.6875V67.3242C382.315 66.5039 382.242 65.6562 382.096 64.7812C381.968 63.9062 381.676 63.1042 381.221 62.375C380.783 61.6276 380.1 61.0169 379.17 60.543C378.259 60.069 377.028 59.832 375.479 59.832C374.622 59.832 373.656 59.9596 372.58 60.2148C371.523 60.4701 370.484 60.8073 369.463 61.2266C368.442 61.6458 367.567 62.1289 366.838 62.6758L365.58 59.6133C366.437 59.0482 367.449 58.5469 368.615 58.1094C369.782 57.6536 370.985 57.3073 372.225 57.0703C373.482 56.8151 374.667 56.6875 375.779 56.6875C378.368 56.6875 380.373 57.1797 381.795 58.1641C383.217 59.1484 384.201 60.4518 384.748 62.0742C385.313 63.6784 385.596 65.4375 385.596 67.3516V78.4805C385.596 79.7565 385.76 80.7865 386.088 81.5703C386.434 82.3359 386.954 82.8737 387.647 83.1836L388.057 83.375L386.799 86.4375L386.061 86.1094C385.058 85.6536 384.256 84.9974 383.654 84.1406C383.053 83.2656 382.716 82.3177 382.643 81.2969L383.244 81.5703H381.932L382.807 81.0508C382.005 82.5091 380.747 83.776 379.033 84.8516C377.32 85.9089 375.315 86.4375 373.018 86.4375ZM405.165 86V57.1523H408.528V61.1992H409.485L407.9 62.8672C408.428 61.099 409.568 59.6315 411.318 58.4648C413.068 57.2982 415.118 56.7148 417.47 56.7148C420.441 56.7148 422.802 57.6901 424.552 59.6406C426.32 61.5911 427.204 64.1979 427.204 67.4609V86H423.814V68.0625C423.814 65.5469 423.157 63.5599 421.845 62.1016C420.551 60.625 418.764 59.8867 416.485 59.8867C414.954 59.8867 413.587 60.2331 412.384 60.9258C411.199 61.6003 410.26 62.5573 409.568 63.7969C408.893 65.0182 408.556 66.4583 408.556 68.1172V86H405.165ZM458.641 86.3281C455.979 86.3281 453.61 85.6992 451.531 84.4414C449.472 83.1836 447.84 81.4427 446.637 79.2188C445.452 76.9766 444.86 74.3789 444.86 71.4258C444.86 68.5273 445.443 65.9753 446.61 63.7695C447.794 61.5456 449.426 59.8138 451.504 58.5742C453.582 57.3164 455.961 56.6875 458.641 56.6875C460.227 56.6875 461.84 56.9701 463.481 57.5352C465.139 58.1003 466.598 58.9206 467.856 59.9961L466.516 62.9219C465.677 62.0651 464.556 61.3359 463.152 60.7344C461.767 60.1328 460.291 59.832 458.723 59.832C456.681 59.832 454.876 60.3242 453.309 61.3086C451.759 62.293 450.538 63.6602 449.645 65.4102C448.751 67.1419 448.305 69.1654 448.305 71.4805C448.305 73.7773 448.751 75.8099 449.645 77.5781C450.556 79.3281 451.796 80.7044 453.363 81.707C454.949 82.6914 456.763 83.1836 458.805 83.1836C460.427 83.1836 461.94 82.8646 463.344 82.2266C464.748 81.5885 465.841 80.7956 466.625 79.8477L467.992 82.8555C466.899 83.8581 465.513 84.6875 463.836 85.3438C462.159 86 460.427 86.3281 458.641 86.3281ZM496.886 86V57.1523H500.277V86H496.886ZM487.152 60.2422V57.1523H500.277V60.2422H487.152ZM498.609 52.0391C497.752 52.0391 497.032 51.7474 496.448 51.1641C495.865 50.5807 495.573 49.8607 495.573 49.0039C495.573 48.1471 495.865 47.4271 496.448 46.8438C497.032 46.2604 497.752 45.9688 498.609 45.9688C499.465 45.9688 500.185 46.2604 500.769 46.8438C501.352 47.4271 501.644 48.1471 501.644 49.0039C501.644 49.8607 501.352 50.5807 500.769 51.1641C500.185 51.7474 499.465 52.0391 498.609 52.0391ZM537.783 86.4375C535.906 86.4375 534.201 86.1276 532.67 85.5078C531.139 84.888 529.845 84.0859 528.787 83.1016C527.73 82.1172 526.974 81.0781 526.518 79.9844L529.744 78.6445C530.309 79.8659 531.312 80.9505 532.752 81.8984C534.211 82.8281 535.924 83.293 537.893 83.293C539.187 83.293 540.39 83.0833 541.502 82.6641C542.614 82.2266 543.507 81.625 544.182 80.8594C544.856 80.0938 545.194 79.2096 545.194 78.207C545.194 77.0221 544.765 76.0833 543.908 75.3906C543.052 74.6797 541.949 74.1055 540.6 73.668C539.269 73.2122 537.847 72.7747 536.334 72.3555C534.839 71.918 533.418 71.3893 532.069 70.7695C530.72 70.1497 529.617 69.3294 528.76 68.3086C527.921 67.2878 527.502 65.9297 527.502 64.2344C527.502 62.6484 527.949 61.2995 528.842 60.1875C529.753 59.0573 530.948 58.2005 532.424 57.6172C533.919 57.0156 535.541 56.7148 537.291 56.7148C539.625 56.7148 541.694 57.2253 543.498 58.2461C545.303 59.2669 546.625 60.5612 547.463 62.1289L544.319 63.4414C543.772 62.5117 542.878 61.6914 541.639 60.9805C540.418 60.2513 538.932 59.8867 537.182 59.8867C535.377 59.8867 533.855 60.2878 532.615 61.0898C531.394 61.8737 530.793 62.9492 530.811 64.3164C530.847 65.5013 531.294 66.4492 532.151 67.1602C533.026 67.8529 534.128 68.4271 535.459 68.8828C536.808 69.3203 538.23 69.7487 539.725 70.168C541.22 70.569 542.632 71.0703 543.963 71.6719C545.312 72.2552 546.406 73.0482 547.244 74.0508C548.083 75.0352 548.502 76.3477 548.502 77.9883C548.502 79.7018 548.01 81.1875 547.026 82.4453C546.041 83.7031 544.738 84.6875 543.115 85.3984C541.493 86.0911 539.716 86.4375 537.783 86.4375ZM565.173 94.2031L587.021 40.5547H590.138L568.29 94.2031H565.173Z" fill="#424242"/>
<path d="M619.305 86.4375C616.68 86.4375 614.365 85.8086 612.36 84.5508C610.373 83.293 608.823 81.543 607.711 79.3008C606.599 77.0586 606.043 74.4701 606.043 71.5352C606.043 68.6003 606.581 66.0208 607.657 63.7969C608.75 61.5729 610.254 59.8411 612.168 58.6016C614.101 57.3438 616.334 56.7148 618.867 56.7148C621.219 56.7148 623.297 57.2799 625.102 58.4102C626.907 59.5404 628.31 61.1172 629.313 63.1406C630.315 65.1458 630.817 67.4883 630.817 70.168C630.817 70.5143 630.798 70.9518 630.762 71.4805C630.744 72.0091 630.689 72.4648 630.598 72.8477H608.668V70.0039H627.481C627.499 67.9987 627.144 66.2396 626.414 64.7266C625.703 63.2135 624.692 62.0286 623.379 61.1719C622.067 60.3151 620.554 59.8867 618.84 59.8867C616.963 59.8867 615.304 60.3789 613.864 61.3633C612.442 62.3477 611.321 63.724 610.5 65.4922C609.698 67.2422 609.297 69.2656 609.297 71.5625C609.297 73.8776 609.716 75.9193 610.555 77.6875C611.394 79.4375 612.56 80.8138 614.055 81.8164C615.55 82.8008 617.282 83.293 619.25 83.293C620.69 83.293 622.112 83.0104 623.516 82.4453C624.92 81.862 626.187 81.069 627.317 80.0664L628.602 83.1289C627.399 84.1315 625.977 84.9336 624.336 85.5352C622.696 86.1367 621.019 86.4375 619.305 86.4375ZM659.163 86.4375C657.286 86.4375 655.581 86.1276 654.05 85.5078C652.519 84.888 651.225 84.0859 650.167 83.1016C649.11 82.1172 648.354 81.0781 647.898 79.9844L651.124 78.6445C651.689 79.8659 652.692 80.9505 654.132 81.8984C655.591 82.8281 657.304 83.293 659.273 83.293C660.567 83.293 661.77 83.0833 662.882 82.6641C663.994 82.2266 664.887 81.625 665.562 80.8594C666.236 80.0938 666.574 79.2096 666.574 78.207C666.574 77.0221 666.145 76.0833 665.288 75.3906C664.432 74.6797 663.329 74.1055 661.98 73.668C660.649 73.2122 659.227 72.7747 657.714 72.3555C656.219 71.918 654.798 71.3893 653.449 70.7695C652.1 70.1497 650.997 69.3294 650.14 68.3086C649.301 67.2878 648.882 65.9297 648.882 64.2344C648.882 62.6484 649.329 61.2995 650.222 60.1875C651.134 59.0573 652.328 58.2005 653.804 57.6172C655.299 57.0156 656.921 56.7148 658.671 56.7148C661.005 56.7148 663.074 57.2253 664.878 58.2461C666.683 59.2669 668.005 60.5612 668.843 62.1289L665.699 63.4414C665.152 62.5117 664.259 61.6914 663.019 60.9805C661.798 60.2513 660.312 59.8867 658.562 59.8867C656.757 59.8867 655.235 60.2878 653.995 61.0898C652.774 61.8737 652.173 62.9492 652.191 64.3164C652.227 65.5013 652.674 66.4492 653.531 67.1602C654.406 67.8529 655.509 68.4271 656.839 68.8828C658.188 69.3203 659.61 69.7487 661.105 70.168C662.6 70.569 664.012 71.0703 665.343 71.6719C666.692 72.2552 667.786 73.0482 668.624 74.0508C669.463 75.0352 669.882 76.3477 669.882 77.9883C669.882 79.7018 669.39 81.1875 668.406 82.4453C667.421 83.7031 666.118 84.6875 664.495 85.3984C662.873 86.0911 661.096 86.4375 659.163 86.4375ZM688.385 97.4844V57.1523H691.748V61.8281H692.487L691.311 64.3711V77.9883L692.541 81.1328H691.776V97.4844H688.385ZM700.58 86.4375C698.338 86.4375 696.379 85.8177 694.702 84.5781C693.024 83.3385 691.721 81.6068 690.791 79.3828C689.862 77.1406 689.397 74.5156 689.397 71.5078C689.397 68.5365 689.862 65.9388 690.791 63.7148C691.721 61.4909 693.024 59.7682 694.702 58.5469C696.379 57.3073 698.338 56.6875 700.58 56.6875C702.877 56.6875 704.883 57.2982 706.596 58.5195C708.328 59.7409 709.668 61.4727 710.616 63.7148C711.564 65.9388 712.037 68.5456 712.037 71.5352C712.037 74.5612 711.564 77.1953 710.616 79.4375C709.668 81.6615 708.328 83.3841 706.596 84.6055C704.883 85.8268 702.877 86.4375 700.58 86.4375ZM700.116 83.375C701.829 83.375 703.324 82.8828 704.6 81.8984C705.876 80.9141 706.86 79.5378 707.553 77.7695C708.264 76.0013 708.62 73.9232 708.62 71.5352C708.62 69.1654 708.264 67.0964 707.553 65.3281C706.842 63.5599 705.84 62.1927 704.545 61.2266C703.269 60.2422 701.774 59.75 700.061 59.75C698.366 59.75 696.88 60.2422 695.604 61.2266C694.328 62.1927 693.334 63.5599 692.623 65.3281C691.931 67.0781 691.584 69.1471 691.584 71.5352C691.584 73.9232 691.931 76.0013 692.623 77.7695C693.334 79.5378 694.328 80.9141 695.604 81.8984C696.898 82.8828 698.402 83.375 700.116 83.375ZM739.81 86.4375C737.313 86.4375 735.116 85.8086 733.22 84.5508C731.343 83.293 729.875 81.5521 728.818 79.3281C727.779 77.1042 727.259 74.5247 727.259 71.5898C727.259 68.6367 727.779 66.0482 728.818 63.8242C729.875 61.582 731.343 59.832 733.22 58.5742C735.116 57.3164 737.313 56.6875 739.81 56.6875C742.307 56.6875 744.495 57.3164 746.372 58.5742C748.268 59.832 749.736 61.582 750.775 63.8242C751.832 66.0482 752.361 68.6367 752.361 71.5898C752.361 74.5247 751.832 77.1042 750.775 79.3281C749.736 81.5521 748.268 83.293 746.372 84.5508C744.495 85.8086 742.307 86.4375 739.81 86.4375ZM739.81 83.293C741.669 83.293 743.283 82.8099 744.65 81.8438C746.035 80.8594 747.102 79.4922 747.849 77.7422C748.596 75.974 748.97 73.9232 748.97 71.5898C748.97 69.2383 748.596 67.1875 747.849 65.4375C747.102 63.6693 746.035 62.293 744.65 61.3086C743.283 60.3242 741.669 59.832 739.81 59.832C737.951 59.832 736.328 60.3242 734.943 61.3086C733.576 62.293 732.518 63.6693 731.771 65.4375C731.024 67.1875 730.65 69.2383 730.65 71.5898C730.65 73.9232 731.024 75.974 731.771 77.7422C732.518 79.4922 733.576 80.8594 734.943 81.8438C736.328 82.8099 737.951 83.293 739.81 83.293ZM780.543 86.4375C778.666 86.4375 776.961 86.1276 775.43 85.5078C773.899 84.888 772.605 84.0859 771.547 83.1016C770.49 82.1172 769.734 81.0781 769.278 79.9844L772.504 78.6445C773.069 79.8659 774.072 80.9505 775.512 81.8984C776.971 82.8281 778.684 83.293 780.653 83.293C781.947 83.293 783.15 83.0833 784.262 82.6641C785.374 82.2266 786.267 81.625 786.942 80.8594C787.616 80.0938 787.954 79.2096 787.954 78.207C787.954 77.0221 787.525 76.0833 786.668 75.3906C785.812 74.6797 784.709 74.1055 783.36 73.668C782.029 73.2122 780.607 72.7747 779.094 72.3555C777.599 71.918 776.178 71.3893 774.829 70.7695C773.48 70.1497 772.377 69.3294 771.52 68.3086C770.681 67.2878 770.262 65.9297 770.262 64.2344C770.262 62.6484 770.709 61.2995 771.602 60.1875C772.514 59.0573 773.708 58.2005 775.184 57.6172C776.679 57.0156 778.301 56.7148 780.051 56.7148C782.385 56.7148 784.454 57.2253 786.258 58.2461C788.063 59.2669 789.385 60.5612 790.223 62.1289L787.079 63.4414C786.532 62.5117 785.639 61.6914 784.399 60.9805C783.178 60.2513 781.692 59.8867 779.942 59.8867C778.137 59.8867 776.615 60.2878 775.375 61.0898C774.154 61.8737 773.553 62.9492 773.571 64.3164C773.607 65.5013 774.054 66.4492 774.911 67.1602C775.786 67.8529 776.889 68.4271 778.219 68.8828C779.568 69.3203 780.99 69.7487 782.485 70.168C783.98 70.569 785.392 71.0703 786.723 71.6719C788.072 72.2552 789.166 73.0482 790.004 74.0508C790.843 75.0352 791.262 76.3477 791.262 77.9883C791.262 79.7018 790.77 81.1875 789.786 82.4453C788.801 83.7031 787.498 84.6875 785.875 85.3984C784.253 86.0911 782.476 86.4375 780.543 86.4375ZM821.003 86V57.1523H824.394V86H821.003ZM811.269 60.2422V57.1523H824.394V60.2422H811.269ZM822.726 52.0391C821.869 52.0391 821.149 51.7474 820.566 51.1641C819.983 50.5807 819.691 49.8607 819.691 49.0039C819.691 48.1471 819.983 47.4271 820.566 46.8438C821.149 46.2604 821.869 45.9688 822.726 45.9688C823.583 45.9688 824.303 46.2604 824.886 46.8438C825.47 47.4271 825.761 48.1471 825.761 49.0039C825.761 49.8607 825.47 50.5807 824.886 51.1641C824.303 51.7474 823.583 52.0391 822.726 52.0391ZM865.538 86.3828C863.66 86.3828 861.974 86.0182 860.479 85.2891C858.984 84.5417 857.799 83.4661 856.924 82.0625C856.068 80.6589 855.639 78.9544 855.639 76.9492V47.5547H859.03V76.7578C859.03 78.763 859.65 80.349 860.889 81.5156C862.147 82.6641 863.706 83.2383 865.565 83.2383C866.713 83.2383 867.88 83.0195 869.065 82.582C870.268 82.1263 871.325 81.5794 872.237 80.9414L873.549 84.0312C872.346 84.7604 871.061 85.3346 869.694 85.7539C868.327 86.1732 866.941 86.3828 865.538 86.3828ZM848.53 60.2422V57.1523H871.663V60.2422H848.53ZM901.65 86.4375C899.153 86.4375 896.956 85.8086 895.06 84.5508C893.183 83.293 891.715 81.5521 890.658 79.3281C889.619 77.1042 889.099 74.5247 889.099 71.5898C889.099 68.6367 889.619 66.0482 890.658 63.8242C891.715 61.582 893.183 59.832 895.06 58.5742C896.956 57.3164 899.153 56.6875 901.65 56.6875C904.147 56.6875 906.335 57.3164 908.213 58.5742C910.108 59.832 911.576 61.582 912.615 63.8242C913.672 66.0482 914.201 68.6367 914.201 71.5898C914.201 74.5247 913.672 77.1042 912.615 79.3281C911.576 81.5521 910.108 83.293 908.213 84.5508C906.335 85.8086 904.147 86.4375 901.65 86.4375ZM901.65 83.293C903.509 83.293 905.123 82.8099 906.49 81.8438C907.875 80.8594 908.942 79.4922 909.689 77.7422C910.436 75.974 910.81 73.9232 910.81 71.5898C910.81 69.2383 910.436 67.1875 909.689 65.4375C908.942 63.6693 907.875 62.293 906.49 61.3086C905.123 60.3242 903.509 59.832 901.65 59.832C899.791 59.832 898.168 60.3242 896.783 61.3086C895.416 62.293 894.358 63.6693 893.611 65.4375C892.864 67.1875 892.49 69.2383 892.49 71.5898C892.49 73.9232 892.864 75.974 893.611 77.7422C894.358 79.4922 895.416 80.8594 896.783 81.8438C898.168 82.8099 899.791 83.293 901.65 83.293ZM929.942 70.4141V67.2695H954.278V70.4141H929.942ZM984.621 86.3281C981.959 86.3281 979.59 85.6992 977.511 84.4414C975.452 83.1836 973.82 81.4427 972.617 79.2188C971.432 76.9766 970.84 74.3789 970.84 71.4258C970.84 68.5273 971.423 65.9753 972.59 63.7695C973.774 61.5456 975.406 59.8138 977.484 58.5742C979.562 57.3164 981.941 56.6875 984.621 56.6875C986.207 56.6875 987.82 56.9701 989.461 57.5352C991.119 58.1003 992.578 58.9206 993.836 59.9961L992.496 62.9219C991.657 62.0651 990.536 61.3359 989.133 60.7344C987.747 60.1328 986.271 59.832 984.703 59.832C982.661 59.832 980.856 60.3242 979.289 61.3086C977.739 62.293 976.518 63.6602 975.625 65.4102C974.731 67.1419 974.285 69.1654 974.285 71.4805C974.285 73.7773 974.731 75.8099 975.625 77.5781C976.536 79.3281 977.776 80.7044 979.343 81.707C980.929 82.6914 982.743 83.1836 984.785 83.1836C986.407 83.1836 987.92 82.8646 989.324 82.2266C990.728 81.5885 991.821 80.7956 992.605 79.8477L993.972 82.8555C992.879 83.8581 991.493 84.6875 989.816 85.3438C988.139 86 986.407 86.3281 984.621 86.3281ZM1020.38 86.4375C1018.61 86.4375 1017.01 86.0911 1015.59 85.3984C1014.17 84.6875 1013.04 83.7031 1012.2 82.4453C1011.38 81.1693 1010.97 79.6745 1010.97 77.9609C1010.97 76.1562 1011.47 74.5612 1012.48 73.1758C1013.5 71.7721 1015.02 70.6693 1017.04 69.8672C1019.08 69.0651 1021.64 68.6641 1024.7 68.6641H1030.52V71.4805H1024.86C1022.86 71.4805 1021.05 71.7174 1019.45 72.1914C1017.86 72.6654 1016.6 73.3854 1015.67 74.3516C1014.76 75.2995 1014.31 76.5026 1014.31 77.9609C1014.31 79.0547 1014.59 80.0117 1015.16 80.832C1015.74 81.6523 1016.51 82.2995 1017.48 82.7734C1018.45 83.2292 1019.51 83.457 1020.68 83.457C1022.06 83.457 1023.45 83.1289 1024.83 82.4727C1026.24 81.8164 1027.41 80.9141 1028.33 79.7656C1029.26 78.599 1029.73 77.2591 1029.73 75.7461V71.7812L1029.67 70.6875V67.3242C1029.67 66.5039 1029.6 65.6562 1029.46 64.7812C1029.33 63.9062 1029.04 63.1042 1028.58 62.375C1028.14 61.6276 1027.46 61.0169 1026.53 60.543C1025.62 60.069 1024.39 59.832 1022.84 59.832C1021.98 59.832 1021.02 59.9596 1019.94 60.2148C1018.88 60.4701 1017.84 60.8073 1016.82 61.2266C1015.8 61.6458 1014.93 62.1289 1014.2 62.6758L1012.94 59.6133C1013.8 59.0482 1014.81 58.5469 1015.98 58.1094C1017.14 57.6536 1018.35 57.3073 1019.58 57.0703C1020.84 56.8151 1022.03 56.6875 1023.14 56.6875C1025.73 56.6875 1027.73 57.1797 1029.16 58.1641C1030.58 59.1484 1031.56 60.4518 1032.11 62.0742C1032.67 63.6784 1032.96 65.4375 1032.96 67.3516V78.4805C1032.96 79.7565 1033.12 80.7865 1033.45 81.5703C1033.79 82.3359 1034.31 82.8737 1035.01 83.1836L1035.42 83.375L1034.16 86.4375L1033.42 86.1094C1032.42 85.6536 1031.62 84.9974 1031.01 84.1406C1030.41 83.2656 1030.08 82.3177 1030 81.2969L1030.6 81.5703H1029.29L1030.17 81.0508C1029.36 82.5091 1028.11 83.776 1026.39 84.8516C1024.68 85.9089 1022.67 86.4375 1020.38 86.4375ZM1065.54 86.3281C1062.88 86.3281 1060.51 85.6992 1058.43 84.4414C1056.37 83.1836 1054.74 81.4427 1053.54 79.2188C1052.35 76.9766 1051.76 74.3789 1051.76 71.4258C1051.76 68.5273 1052.34 65.9753 1053.51 63.7695C1054.69 61.5456 1056.33 59.8138 1058.4 58.5742C1060.48 57.3164 1062.86 56.6875 1065.54 56.6875C1067.13 56.6875 1068.74 56.9701 1070.38 57.5352C1072.04 58.1003 1073.5 58.9206 1074.76 59.9961L1073.42 62.9219C1072.58 62.0651 1071.46 61.3359 1070.05 60.7344C1068.67 60.1328 1067.19 59.832 1065.62 59.832C1063.58 59.832 1061.78 60.3242 1060.21 61.3086C1058.66 62.293 1057.44 63.6602 1056.54 65.4102C1055.65 67.1419 1055.2 69.1654 1055.2 71.4805C1055.2 73.7773 1055.65 75.8099 1056.54 77.5781C1057.46 79.3281 1058.7 80.7044 1060.26 81.707C1061.85 82.6914 1063.66 83.1836 1065.7 83.1836C1067.33 83.1836 1068.84 82.8646 1070.24 82.2266C1071.65 81.5885 1072.74 80.7956 1073.53 79.8477L1074.89 82.8555C1073.8 83.8581 1072.41 84.6875 1070.74 85.3438C1069.06 86 1067.33 86.3281 1065.54 86.3281ZM1106 86.3281C1103.34 86.3281 1100.97 85.6992 1098.89 84.4414C1096.83 83.1836 1095.2 81.4427 1094 79.2188C1092.81 76.9766 1092.22 74.3789 1092.22 71.4258C1092.22 68.5273 1092.8 65.9753 1093.97 63.7695C1095.15 61.5456 1096.79 59.8138 1098.86 58.5742C1100.94 57.3164 1103.32 56.6875 1106 56.6875C1107.59 56.6875 1109.2 56.9701 1110.84 57.5352C1112.5 58.1003 1113.96 58.9206 1115.22 59.9961L1113.88 62.9219C1113.04 62.0651 1111.92 61.3359 1110.51 60.7344C1109.13 60.1328 1107.65 59.832 1106.08 59.832C1104.04 59.832 1102.24 60.3242 1100.67 61.3086C1099.12 62.293 1097.9 63.6602 1097 65.4102C1096.11 67.1419 1095.66 69.1654 1095.66 71.4805C1095.66 73.7773 1096.11 75.8099 1097 77.5781C1097.92 79.3281 1099.16 80.7044 1100.72 81.707C1102.31 82.6914 1104.12 83.1836 1106.16 83.1836C1107.79 83.1836 1109.3 82.8646 1110.7 82.2266C1112.11 81.5885 1113.2 80.7956 1113.99 79.8477L1115.35 82.8555C1114.26 83.8581 1112.87 84.6875 1111.2 85.3438C1109.52 86 1107.79 86.3281 1106 86.3281ZM1141.76 86.4375C1139.99 86.4375 1138.39 86.0911 1136.97 85.3984C1135.55 84.6875 1134.42 83.7031 1133.58 82.4453C1132.76 81.1693 1132.35 79.6745 1132.35 77.9609C1132.35 76.1562 1132.85 74.5612 1133.86 73.1758C1134.88 71.7721 1136.4 70.6693 1138.42 69.8672C1140.46 69.0651 1143.02 68.6641 1146.08 68.6641H1151.9V71.4805H1146.24C1144.24 71.4805 1142.43 71.7174 1140.83 72.1914C1139.24 72.6654 1137.98 73.3854 1137.05 74.3516C1136.14 75.2995 1135.69 76.5026 1135.69 77.9609C1135.69 79.0547 1135.97 80.0117 1136.53 80.832C1137.12 81.6523 1137.89 82.2995 1138.86 82.7734C1139.83 83.2292 1140.89 83.457 1142.06 83.457C1143.44 83.457 1144.83 83.1289 1146.21 82.4727C1147.62 81.8164 1148.78 80.9141 1149.71 79.7656C1150.64 78.599 1151.11 77.2591 1151.11 75.7461V71.7812L1151.05 70.6875V67.3242C1151.05 66.5039 1150.98 65.6562 1150.84 64.7812C1150.71 63.9062 1150.42 63.1042 1149.96 62.375C1149.52 61.6276 1148.84 61.0169 1147.91 60.543C1147 60.069 1145.77 59.832 1144.22 59.832C1143.36 59.832 1142.4 59.9596 1141.32 60.2148C1140.26 60.4701 1139.22 60.8073 1138.2 61.2266C1137.18 61.6458 1136.31 62.1289 1135.58 62.6758L1134.32 59.6133C1135.18 59.0482 1136.19 58.5469 1137.36 58.1094C1138.52 57.6536 1139.73 57.3073 1140.96 57.0703C1142.22 56.8151 1143.41 56.6875 1144.52 56.6875C1147.11 56.6875 1149.11 57.1797 1150.53 58.1641C1151.96 59.1484 1152.94 60.4518 1153.49 62.0742C1154.05 63.6784 1154.34 65.4375 1154.34 67.3516V78.4805C1154.34 79.7565 1154.5 80.7865 1154.83 81.5703C1155.17 82.3359 1155.69 82.8737 1156.39 83.1836L1156.8 83.375L1155.54 86.4375L1154.8 86.1094C1153.8 85.6536 1153 84.9974 1152.39 84.1406C1151.79 83.2656 1151.46 82.3177 1151.38 81.2969L1151.98 81.5703H1150.67L1151.55 81.0508C1150.74 82.5091 1149.49 83.776 1147.77 84.8516C1146.06 85.9089 1144.05 86.4375 1141.76 86.4375ZM1183.17 86L1171.44 57.1523H1175.19L1181.81 74.5703L1184.71 81.8711H1184.95L1187.85 74.5703L1194.49 57.1523H1198.21L1186.51 86H1183.17ZM1222.68 86.4375C1220.91 86.4375 1219.31 86.0911 1217.89 85.3984C1216.47 84.6875 1215.34 83.7031 1214.5 82.4453C1213.68 81.1693 1213.27 79.6745 1213.27 77.9609C1213.27 76.1562 1213.77 74.5612 1214.78 73.1758C1215.8 71.7721 1217.32 70.6693 1219.34 69.8672C1221.38 69.0651 1223.94 68.6641 1227 68.6641H1232.82V71.4805H1227.16C1225.16 71.4805 1223.35 71.7174 1221.75 72.1914C1220.16 72.6654 1218.9 73.3854 1217.97 74.3516C1217.06 75.2995 1216.61 76.5026 1216.61 77.9609C1216.61 79.0547 1216.89 80.0117 1217.46 80.832C1218.04 81.6523 1218.81 82.2995 1219.78 82.7734C1220.75 83.2292 1221.81 83.457 1222.98 83.457C1224.36 83.457 1225.75 83.1289 1227.13 82.4727C1228.54 81.8164 1229.71 80.9141 1230.63 79.7656C1231.56 78.599 1232.03 77.2591 1232.03 75.7461V71.7812L1231.97 70.6875V67.3242C1231.97 66.5039 1231.9 65.6562 1231.76 64.7812C1231.63 63.9062 1231.34 63.1042 1230.88 62.375C1230.44 61.6276 1229.76 61.0169 1228.83 60.543C1227.92 60.069 1226.69 59.832 1225.14 59.832C1224.28 59.832 1223.32 59.9596 1222.24 60.2148C1221.18 60.4701 1220.14 60.8073 1219.12 61.2266C1218.1 61.6458 1217.23 62.1289 1216.5 62.6758L1215.24 59.6133C1216.1 59.0482 1217.11 58.5469 1218.28 58.1094C1219.44 57.6536 1220.65 57.3073 1221.88 57.0703C1223.14 56.8151 1224.33 56.6875 1225.44 56.6875C1228.03 56.6875 1230.03 57.1797 1231.46 58.1641C1232.88 59.1484 1233.86 60.4518 1234.41 62.0742C1234.97 63.6784 1235.26 65.4375 1235.26 67.3516V78.4805C1235.26 79.7565 1235.42 80.7865 1235.75 81.5703C1236.09 82.3359 1236.61 82.8737 1237.31 83.1836L1237.72 83.375L1236.46 86.4375L1235.72 86.1094C1234.72 85.6536 1233.92 84.9974 1233.31 84.1406C1232.71 83.2656 1232.38 82.3177 1232.3 81.2969L1232.9 81.5703H1231.59L1232.47 81.0508C1231.66 82.5091 1230.41 83.776 1228.69 84.8516C1226.98 85.9089 1224.97 86.4375 1222.68 86.4375ZM1270.3 86.3828C1268.41 86.3828 1266.73 86.0182 1265.27 85.2891C1263.83 84.5417 1262.69 83.4661 1261.85 82.0625C1261.03 80.6589 1260.62 78.9544 1260.62 76.9492V43.8906H1264.01V76.7578C1264.01 78.763 1264.58 80.349 1265.71 81.5156C1266.86 82.6641 1268.37 83.2383 1270.25 83.2383C1271.43 83.2383 1272.64 83.0104 1273.86 82.5547C1275.08 82.099 1276.14 81.5521 1277.06 80.9141L1278.37 84.0039C1277.17 84.7331 1275.87 85.3164 1274.49 85.7539C1273.12 86.1732 1271.72 86.3828 1270.3 86.3828ZM1307.12 86.4375C1304.5 86.4375 1302.18 85.8086 1300.18 84.5508C1298.19 83.293 1296.64 81.543 1295.53 79.3008C1294.42 77.0586 1293.86 74.4701 1293.86 71.5352C1293.86 68.6003 1294.4 66.0208 1295.48 63.7969C1296.57 61.5729 1298.07 59.8411 1299.99 58.6016C1301.92 57.3438 1304.15 56.7148 1306.69 56.7148C1309.04 56.7148 1311.12 57.2799 1312.92 58.4102C1314.73 59.5404 1316.13 61.1172 1317.13 63.1406C1318.14 65.1458 1318.64 67.4883 1318.64 70.168C1318.64 70.5143 1318.62 70.9518 1318.58 71.4805C1318.56 72.0091 1318.51 72.4648 1318.42 72.8477H1296.49V70.0039H1315.3C1315.32 67.9987 1314.96 66.2396 1314.23 64.7266C1313.52 63.2135 1312.51 62.0286 1311.2 61.1719C1309.89 60.3151 1308.37 59.8867 1306.66 59.8867C1304.78 59.8867 1303.12 60.3789 1301.68 61.3633C1300.26 62.3477 1299.14 63.724 1298.32 65.4922C1297.52 67.2422 1297.12 69.2656 1297.12 71.5625C1297.12 73.8776 1297.54 75.9193 1298.38 77.6875C1299.21 79.4375 1300.38 80.8138 1301.88 81.8164C1303.37 82.8008 1305.1 83.293 1307.07 83.293C1308.51 83.293 1309.93 83.0104 1311.34 82.4453C1312.74 81.862 1314.01 81.069 1315.14 80.0664L1316.42 83.1289C1315.22 84.1315 1313.8 84.9336 1312.16 85.5352C1310.52 86.1367 1308.84 86.4375 1307.12 86.4375Z" fill="#424242" fill-opacity="0.4"/>
<rect x="165" y="132" width="1491" height="132" rx="1" fill="#424242"/>
<path d="M350.004 217.859V179.539H359.516V181.434H352.191V215.965H359.516V217.859H350.004ZM377.512 212.312C376.093 212.312 374.843 212.007 373.762 211.395C372.695 210.77 371.861 209.904 371.262 208.797C370.664 207.677 370.364 206.375 370.364 204.891V191.395H372.786V204.793C372.786 206.355 373.248 207.618 374.173 208.582C375.097 209.546 376.321 210.04 377.845 210.066C378.964 210.079 379.947 209.852 380.794 209.383C381.653 208.901 382.324 208.25 382.805 207.43C383.3 206.609 383.548 205.685 383.548 204.656V191.395H385.97V206.883C385.97 207.677 386.165 208.335 386.555 208.855C386.959 209.363 387.532 209.786 388.274 210.125L387.376 212.312C386.334 211.818 385.488 211.225 384.837 210.535C384.186 209.845 383.854 209.09 383.841 208.27L384.856 208.992H383.157L384.485 207.918C383.899 209.233 382.975 210.294 381.712 211.102C380.462 211.909 379.062 212.312 377.512 212.312ZM408.096 217.859H398.584V215.965H405.909V181.434H398.584V179.539H408.096V217.859ZM417.968 212L425.448 201.746V201.59L426.874 200.066H427.109L433.3 191.395H436.093L428.613 201.59V201.746L427.187 203.426H426.952L420.839 212H417.968ZM433.202 212L427.109 203.426H426.874L425.448 201.746V201.59L418.007 191.395H420.741L426.952 200.066H427.167L428.613 201.59V201.746L436.113 212H433.202ZM475.875 212.312C474 212.312 472.346 211.863 470.914 210.965C469.495 210.066 468.388 208.816 467.594 207.215C466.799 205.613 466.402 203.764 466.402 201.668C466.402 199.572 466.786 197.729 467.555 196.141C468.336 194.552 469.41 193.315 470.777 192.43C472.158 191.531 473.753 191.082 475.562 191.082C477.242 191.082 478.727 191.486 480.016 192.293C481.305 193.1 482.307 194.227 483.023 195.672C483.74 197.104 484.098 198.777 484.098 200.691C484.098 200.939 484.085 201.251 484.059 201.629C484.046 202.007 484.007 202.332 483.941 202.605H468.277V200.574H481.715C481.728 199.142 481.474 197.885 480.953 196.805C480.445 195.724 479.723 194.878 478.785 194.266C477.848 193.654 476.767 193.348 475.543 193.348C474.202 193.348 473.017 193.699 471.988 194.402C470.973 195.105 470.172 196.089 469.586 197.352C469.013 198.602 468.727 200.047 468.727 201.688C468.727 203.341 469.026 204.799 469.625 206.062C470.224 207.312 471.057 208.296 472.125 209.012C473.193 209.715 474.43 210.066 475.836 210.066C476.865 210.066 477.88 209.865 478.883 209.461C479.885 209.044 480.79 208.478 481.598 207.762L482.516 209.949C481.656 210.665 480.641 211.238 479.469 211.668C478.297 212.098 477.099 212.312 475.875 212.312ZM491.118 212V191.395H493.52V194.285H494.204L493.071 195.477C493.449 194.214 494.263 193.165 495.513 192.332C496.763 191.499 498.227 191.082 499.907 191.082C502.029 191.082 503.716 191.779 504.966 193.172C506.229 194.565 506.86 196.427 506.86 198.758V212H504.438V199.188C504.438 197.391 503.97 195.971 503.032 194.93C502.108 193.875 500.832 193.348 499.204 193.348C498.11 193.348 497.134 193.595 496.274 194.09C495.428 194.572 494.757 195.255 494.263 196.141C493.781 197.013 493.54 198.042 493.54 199.227V212H491.118ZM522.103 220.516C520.905 220.516 519.694 220.307 518.47 219.891C517.246 219.487 516.276 219.012 515.56 218.465L516.439 216.258C517.077 216.844 517.897 217.332 518.9 217.723C519.903 218.113 520.905 218.309 521.908 218.309C522.936 218.309 523.933 218.068 524.896 217.586C525.873 217.117 526.673 216.395 527.298 215.418C527.923 214.454 528.236 213.217 528.236 211.707V208.289H527.845L528.314 206.766V196.297L527.709 194.676H528.177V191.395H530.599V211.57C530.599 213.172 530.345 214.539 529.837 215.672C529.343 216.805 528.679 217.729 527.845 218.445C527.012 219.161 526.094 219.682 525.091 220.008C524.102 220.346 523.106 220.516 522.103 220.516ZM521.966 212.176C520.834 212.176 519.766 211.935 518.763 211.453C517.761 210.958 516.875 210.249 516.107 209.324C515.352 208.4 514.759 207.286 514.33 205.984C513.9 204.669 513.685 203.191 513.685 201.551C513.685 199.376 514.056 197.508 514.798 195.945C515.554 194.383 516.563 193.185 517.826 192.352C519.102 191.505 520.521 191.082 522.084 191.082C523.555 191.082 524.883 191.492 526.068 192.312C527.266 193.133 528.21 194.324 528.9 195.887C529.603 197.436 529.955 199.311 529.955 201.512C529.955 203.725 529.597 205.626 528.88 207.215C528.164 208.803 527.201 210.027 525.99 210.887C524.779 211.746 523.438 212.176 521.966 212.176ZM522.279 209.93C523.438 209.93 524.466 209.565 525.365 208.836C526.276 208.107 526.992 207.104 527.513 205.828C528.034 204.539 528.295 203.074 528.295 201.434C528.295 199.793 528.034 198.367 527.513 197.156C526.992 195.945 526.276 195.008 525.365 194.344C524.466 193.68 523.438 193.348 522.279 193.348C521.055 193.348 519.981 193.693 519.056 194.383C518.145 195.06 517.429 196.017 516.908 197.254C516.4 198.491 516.146 199.923 516.146 201.551C516.146 203.204 516.413 204.663 516.947 205.926C517.494 207.176 518.223 208.159 519.134 208.875C520.059 209.578 521.107 209.93 522.279 209.93ZM546.233 212V191.395H548.655V212H546.233ZM539.28 193.602V191.395H548.655V193.602H539.28ZM547.463 187.742C546.851 187.742 546.337 187.534 545.92 187.117C545.504 186.701 545.295 186.186 545.295 185.574C545.295 184.962 545.504 184.448 545.92 184.031C546.337 183.615 546.851 183.406 547.463 183.406C548.075 183.406 548.59 183.615 549.006 184.031C549.423 184.448 549.631 184.962 549.631 185.574C549.631 186.186 549.423 186.701 549.006 187.117C548.59 187.534 548.075 187.742 547.463 187.742ZM562.218 212V191.395H564.62V194.285H565.304L564.171 195.477C564.549 194.214 565.362 193.165 566.612 192.332C567.862 191.499 569.327 191.082 571.007 191.082C573.129 191.082 574.816 191.779 576.066 193.172C577.329 194.565 577.96 196.427 577.96 198.758V212H575.538V199.188C575.538 197.391 575.07 195.971 574.132 194.93C573.208 193.875 571.931 193.348 570.304 193.348C569.21 193.348 568.234 193.595 567.374 194.09C566.528 194.572 565.857 195.255 565.362 196.141C564.881 197.013 564.64 198.042 564.64 199.227V212H562.218ZM594.375 212.312C592.5 212.312 590.846 211.863 589.414 210.965C587.995 210.066 586.888 208.816 586.094 207.215C585.299 205.613 584.902 203.764 584.902 201.668C584.902 199.572 585.286 197.729 586.055 196.141C586.836 194.552 587.91 193.315 589.277 192.43C590.658 191.531 592.253 191.082 594.062 191.082C595.742 191.082 597.227 191.486 598.516 192.293C599.805 193.1 600.807 194.227 601.523 195.672C602.24 197.104 602.598 198.777 602.598 200.691C602.598 200.939 602.585 201.251 602.559 201.629C602.546 202.007 602.507 202.332 602.441 202.605H586.777V200.574H600.215C600.228 199.142 599.974 197.885 599.453 196.805C598.945 195.724 598.223 194.878 597.285 194.266C596.348 193.654 595.267 193.348 594.043 193.348C592.702 193.348 591.517 193.699 590.488 194.402C589.473 195.105 588.672 196.089 588.086 197.352C587.513 198.602 587.227 200.047 587.227 201.688C587.227 203.341 587.526 204.799 588.125 206.062C588.724 207.312 589.557 208.296 590.625 209.012C591.693 209.715 592.93 210.066 594.336 210.066C595.365 210.066 596.38 209.865 597.383 209.461C598.385 209.044 599.29 208.478 600.098 207.762L601.016 209.949C600.156 210.665 599.141 211.238 597.969 211.668C596.797 212.098 595.599 212.312 594.375 212.312ZM618.075 212.312C616.2 212.312 614.546 211.863 613.114 210.965C611.695 210.066 610.588 208.816 609.794 207.215C608.999 205.613 608.602 203.764 608.602 201.668C608.602 199.572 608.986 197.729 609.755 196.141C610.536 194.552 611.61 193.315 612.977 192.43C614.358 191.531 615.953 191.082 617.763 191.082C619.442 191.082 620.927 191.486 622.216 192.293C623.505 193.1 624.507 194.227 625.223 195.672C625.94 197.104 626.298 198.777 626.298 200.691C626.298 200.939 626.285 201.251 626.259 201.629C626.246 202.007 626.207 202.332 626.141 202.605H610.477V200.574H623.915C623.928 199.142 623.674 197.885 623.153 196.805C622.645 195.724 621.923 194.878 620.985 194.266C620.048 193.654 618.967 193.348 617.743 193.348C616.402 193.348 615.217 193.699 614.188 194.402C613.173 195.105 612.372 196.089 611.786 197.352C611.213 198.602 610.927 200.047 610.927 201.688C610.927 203.341 611.226 204.799 611.825 206.062C612.424 207.312 613.257 208.296 614.325 209.012C615.393 209.715 616.63 210.066 618.036 210.066C619.065 210.066 620.08 209.865 621.083 209.461C622.085 209.044 622.99 208.478 623.798 207.762L624.716 209.949C623.856 210.665 622.841 211.238 621.669 211.668C620.497 212.098 619.299 212.312 618.075 212.312ZM634.509 212V191.395H636.931V194.91H637.615L636.56 196.238C636.782 195.327 637.211 194.48 637.849 193.699C638.487 192.918 639.275 192.286 640.212 191.805C641.15 191.323 642.179 191.082 643.298 191.082C644.405 191.082 645.395 191.271 646.267 191.648C647.14 192.026 647.888 192.553 648.513 193.23C649.138 193.895 649.627 194.669 649.978 195.555L647.732 196.473C647.328 195.587 646.71 194.852 645.877 194.266C645.056 193.68 644.028 193.387 642.791 193.387C641.723 193.387 640.74 193.68 639.841 194.266C638.956 194.839 638.246 195.646 637.712 196.688C637.192 197.716 636.931 198.914 636.931 200.281V212H634.509ZM682.309 212V191.395H684.731V194.91H685.415L684.36 196.238C684.582 195.327 685.011 194.48 685.649 193.699C686.287 192.918 687.075 192.286 688.013 191.805C688.95 191.323 689.979 191.082 691.098 191.082C692.205 191.082 693.195 191.271 694.067 191.648C694.94 192.026 695.688 192.553 696.313 193.23C696.938 193.895 697.427 194.669 697.778 195.555L695.532 196.473C695.128 195.587 694.51 194.852 693.677 194.266C692.856 193.68 691.828 193.387 690.591 193.387C689.523 193.387 688.54 193.68 687.641 194.266C686.756 194.839 686.046 195.646 685.513 196.688C684.992 197.716 684.731 198.914 684.731 200.281V212H682.309ZM713.275 212.312C711.4 212.312 709.746 211.863 708.314 210.965C706.895 210.066 705.788 208.816 704.994 207.215C704.2 205.613 703.802 203.764 703.802 201.668C703.802 199.572 704.186 197.729 704.955 196.141C705.736 194.552 706.81 193.315 708.177 192.43C709.558 191.531 711.153 191.082 712.963 191.082C714.642 191.082 716.127 191.486 717.416 192.293C718.705 193.1 719.707 194.227 720.423 195.672C721.14 197.104 721.498 198.777 721.498 200.691C721.498 200.939 721.485 201.251 721.459 201.629C721.446 202.007 721.407 202.332 721.341 202.605H705.677V200.574H719.115C719.128 199.142 718.874 197.885 718.353 196.805C717.845 195.724 717.123 194.878 716.185 194.266C715.248 193.654 714.167 193.348 712.943 193.348C711.602 193.348 710.417 193.699 709.388 194.402C708.373 195.105 707.572 196.089 706.986 197.352C706.413 198.602 706.127 200.047 706.127 201.688C706.127 203.341 706.426 204.799 707.025 206.062C707.624 207.312 708.457 208.296 709.525 209.012C710.593 209.715 711.83 210.066 713.236 210.066C714.265 210.066 715.28 209.865 716.283 209.461C717.285 209.044 718.19 208.478 718.998 207.762L719.916 209.949C719.056 210.665 718.041 211.238 716.869 211.668C715.697 212.098 714.499 212.312 713.275 212.312ZM736.545 212.312C735.204 212.312 733.987 212.091 732.893 211.648C731.799 211.206 730.875 210.633 730.12 209.93C729.364 209.227 728.824 208.484 728.498 207.703L730.803 206.746C731.207 207.618 731.923 208.393 732.952 209.07C733.993 209.734 735.217 210.066 736.623 210.066C737.548 210.066 738.407 209.917 739.202 209.617C739.996 209.305 740.634 208.875 741.116 208.328C741.597 207.781 741.838 207.15 741.838 206.434C741.838 205.587 741.532 204.917 740.92 204.422C740.308 203.914 739.521 203.504 738.557 203.191C737.606 202.866 736.591 202.553 735.51 202.254C734.442 201.941 733.427 201.564 732.463 201.121C731.5 200.678 730.712 200.092 730.1 199.363C729.501 198.634 729.202 197.664 729.202 196.453C729.202 195.32 729.521 194.357 730.159 193.562C730.81 192.755 731.662 192.143 732.717 191.727C733.785 191.297 734.944 191.082 736.194 191.082C737.86 191.082 739.338 191.447 740.627 192.176C741.916 192.905 742.86 193.829 743.459 194.949L741.213 195.887C740.823 195.223 740.185 194.637 739.299 194.129C738.427 193.608 737.366 193.348 736.116 193.348C734.827 193.348 733.739 193.634 732.854 194.207C731.981 194.767 731.552 195.535 731.565 196.512C731.591 197.358 731.91 198.035 732.522 198.543C733.147 199.038 733.935 199.448 734.885 199.773C735.849 200.086 736.864 200.392 737.932 200.691C739 200.978 740.009 201.336 740.959 201.766C741.923 202.182 742.704 202.749 743.303 203.465C743.902 204.168 744.202 205.105 744.202 206.277C744.202 207.501 743.85 208.562 743.147 209.461C742.444 210.359 741.513 211.062 740.354 211.57C739.195 212.065 737.925 212.312 736.545 212.312ZM760.675 212.312C758.8 212.312 757.146 211.863 755.714 210.965C754.295 210.066 753.188 208.816 752.394 207.215C751.599 205.613 751.202 203.764 751.202 201.668C751.202 199.572 751.586 197.729 752.355 196.141C753.136 194.552 754.21 193.315 755.577 192.43C756.958 191.531 758.553 191.082 760.362 191.082C762.042 191.082 763.527 191.486 764.816 192.293C766.105 193.1 767.107 194.227 767.823 195.672C768.54 197.104 768.898 198.777 768.898 200.691C768.898 200.939 768.885 201.251 768.859 201.629C768.846 202.007 768.806 202.332 768.741 202.605H753.077V200.574H766.515C766.528 199.142 766.274 197.885 765.753 196.805C765.245 195.724 764.523 194.878 763.585 194.266C762.648 193.654 761.567 193.348 760.343 193.348C759.002 193.348 757.817 193.699 756.788 194.402C755.773 195.105 754.972 196.089 754.386 197.352C753.813 198.602 753.527 200.047 753.527 201.688C753.527 203.341 753.826 204.799 754.425 206.062C755.024 207.312 755.857 208.296 756.925 209.012C757.993 209.715 759.23 210.066 760.636 210.066C761.665 210.066 762.68 209.865 763.683 209.461C764.685 209.044 765.59 208.478 766.398 207.762L767.316 209.949C766.456 210.665 765.441 211.238 764.269 211.668C763.097 212.098 761.899 212.312 760.675 212.312ZM781.855 212.312C780.592 212.312 779.453 212.065 778.438 211.57C777.422 211.062 776.615 210.359 776.016 209.461C775.43 208.549 775.137 207.482 775.137 206.258C775.137 204.969 775.495 203.829 776.211 202.84C776.94 201.837 778.027 201.049 779.473 200.477C780.931 199.904 782.754 199.617 784.941 199.617H789.102V201.629H785.059C783.626 201.629 782.337 201.798 781.191 202.137C780.059 202.475 779.16 202.99 778.496 203.68C777.845 204.357 777.52 205.216 777.52 206.258C777.52 207.039 777.721 207.723 778.125 208.309C778.542 208.895 779.095 209.357 779.785 209.695C780.475 210.021 781.237 210.184 782.07 210.184C783.06 210.184 784.049 209.949 785.039 209.48C786.042 209.012 786.875 208.367 787.539 207.547C788.203 206.714 788.535 205.757 788.535 204.676V201.844L788.496 201.062V198.66C788.496 198.074 788.444 197.469 788.34 196.844C788.249 196.219 788.04 195.646 787.715 195.125C787.402 194.591 786.914 194.155 786.25 193.816C785.599 193.478 784.72 193.309 783.613 193.309C783.001 193.309 782.311 193.4 781.543 193.582C780.788 193.764 780.046 194.005 779.316 194.305C778.587 194.604 777.962 194.949 777.441 195.34L776.543 193.152C777.155 192.749 777.878 192.391 778.711 192.078C779.544 191.753 780.404 191.505 781.289 191.336C782.188 191.154 783.034 191.062 783.828 191.062C785.677 191.062 787.109 191.414 788.125 192.117C789.141 192.82 789.844 193.751 790.234 194.91C790.638 196.056 790.84 197.312 790.84 198.68V206.629C790.84 207.54 790.957 208.276 791.191 208.836C791.439 209.383 791.81 209.767 792.305 209.988L792.598 210.125L791.699 212.312L791.172 212.078C790.456 211.753 789.883 211.284 789.453 210.672C789.023 210.047 788.783 209.37 788.73 208.641L789.16 208.836H788.223L788.848 208.465C788.275 209.507 787.376 210.411 786.152 211.18C784.928 211.935 783.496 212.312 781.855 212.312ZM800.809 212V191.395H803.231V194.91H803.915L802.86 196.238C803.082 195.327 803.511 194.48 804.149 193.699C804.787 192.918 805.575 192.286 806.513 191.805C807.45 191.323 808.479 191.082 809.598 191.082C810.705 191.082 811.695 191.271 812.567 191.648C813.44 192.026 814.188 192.553 814.813 193.23C815.438 193.895 815.927 194.669 816.278 195.555L814.032 196.473C813.628 195.587 813.01 194.852 812.177 194.266C811.356 193.68 810.328 193.387 809.091 193.387C808.023 193.387 807.04 193.68 806.141 194.266C805.256 194.839 804.546 195.646 804.013 196.688C803.492 197.716 803.231 198.914 803.231 200.281V212H800.809ZM832.615 212.234C830.714 212.234 829.021 211.785 827.537 210.887C826.065 209.988 824.9 208.745 824.041 207.156C823.194 205.555 822.771 203.699 822.771 201.59C822.771 199.52 823.188 197.697 824.021 196.121C824.867 194.533 826.033 193.296 827.517 192.41C829.002 191.512 830.701 191.062 832.615 191.062C833.748 191.062 834.9 191.264 836.072 191.668C837.257 192.072 838.298 192.658 839.197 193.426L838.24 195.516C837.641 194.904 836.84 194.383 835.838 193.953C834.848 193.523 833.793 193.309 832.673 193.309C831.215 193.309 829.926 193.66 828.806 194.363C827.7 195.066 826.827 196.043 826.189 197.293C825.551 198.53 825.232 199.975 825.232 201.629C825.232 203.27 825.551 204.721 826.189 205.984C826.84 207.234 827.726 208.217 828.845 208.934C829.978 209.637 831.274 209.988 832.732 209.988C833.891 209.988 834.972 209.76 835.974 209.305C836.977 208.849 837.758 208.283 838.318 207.605L839.295 209.754C838.513 210.47 837.524 211.062 836.326 211.531C835.128 212 833.891 212.234 832.615 212.234ZM847.018 212V181.922H849.44V194.207H850.143L848.932 195.438C849.205 194.565 849.668 193.803 850.319 193.152C850.97 192.501 851.764 191.993 852.702 191.629C853.639 191.264 854.668 191.082 855.787 191.082C857.298 191.082 858.574 191.44 859.616 192.156C860.657 192.872 861.439 193.816 861.959 194.988C862.493 196.16 862.76 197.417 862.76 198.758V212H860.338V199.188C860.338 197.299 859.863 195.854 858.912 194.852C857.975 193.849 856.718 193.348 855.143 193.348C854.088 193.348 853.125 193.582 852.252 194.051C851.393 194.507 850.709 195.177 850.202 196.062C849.694 196.935 849.44 197.99 849.44 199.227V212H847.018ZM879.175 212.312C877.3 212.312 875.646 211.863 874.214 210.965C872.795 210.066 871.688 208.816 870.894 207.215C870.099 205.613 869.702 203.764 869.702 201.668C869.702 199.572 870.086 197.729 870.855 196.141C871.636 194.552 872.71 193.315 874.077 192.43C875.458 191.531 877.053 191.082 878.862 191.082C880.542 191.082 882.027 191.486 883.316 192.293C884.605 193.1 885.607 194.227 886.323 195.672C887.04 197.104 887.398 198.777 887.398 200.691C887.398 200.939 887.385 201.251 887.359 201.629C887.346 202.007 887.306 202.332 887.241 202.605H871.577V200.574H885.015C885.028 199.142 884.774 197.885 884.253 196.805C883.745 195.724 883.023 194.878 882.085 194.266C881.148 193.654 880.067 193.348 878.843 193.348C877.502 193.348 876.317 193.699 875.288 194.402C874.273 195.105 873.472 196.089 872.886 197.352C872.313 198.602 872.027 200.047 872.027 201.688C872.027 203.341 872.326 204.799 872.925 206.062C873.524 207.312 874.357 208.296 875.425 209.012C876.493 209.715 877.73 210.066 879.136 210.066C880.165 210.066 881.18 209.865 882.183 209.461C883.185 209.044 884.09 208.478 884.898 207.762L885.816 209.949C884.956 210.665 883.941 211.238 882.769 211.668C881.597 212.098 880.399 212.312 879.175 212.312ZM895.609 212V191.395H898.031V194.91H898.715L897.66 196.238C897.882 195.327 898.311 194.48 898.949 193.699C899.587 192.918 900.375 192.286 901.312 191.805C902.25 191.323 903.279 191.082 904.398 191.082C905.505 191.082 906.495 191.271 907.367 191.648C908.24 192.026 908.988 192.553 909.613 193.23C910.238 193.895 910.727 194.669 911.078 195.555L908.832 196.473C908.428 195.587 907.81 194.852 906.977 194.266C906.156 193.68 905.128 193.387 903.891 193.387C902.823 193.387 901.84 193.68 900.941 194.266C900.056 194.839 899.346 195.646 898.812 196.688C898.292 197.716 898.031 198.914 898.031 200.281V212H895.609ZM943.507 212L939.445 191.395H941.886L943.976 203.406L944.933 209.051H945.03L946.437 204.91L949.288 196.688H950.812L953.663 204.91L955.07 209.051H955.167L956.124 203.406L958.234 191.395H960.655L956.593 212H954.073L952.374 206.961L950.089 200.359H949.991L947.726 206.961L946.027 212H943.507ZM967.109 212V191.395H969.531V194.91H970.215L969.16 196.238C969.382 195.327 969.811 194.48 970.449 193.699C971.087 192.918 971.875 192.286 972.812 191.805C973.75 191.323 974.779 191.082 975.898 191.082C977.005 191.082 977.995 191.271 978.867 191.648C979.74 192.026 980.488 192.553 981.113 193.23C981.738 193.895 982.227 194.669 982.578 195.555L980.332 196.473C979.928 195.587 979.31 194.852 978.477 194.266C977.656 193.68 976.628 193.387 975.391 193.387C974.323 193.387 973.34 193.68 972.441 194.266C971.556 194.839 970.846 195.646 970.312 196.688C969.792 197.716 969.531 198.914 969.531 200.281V212H967.109ZM997.645 212V191.395H1000.07V212H997.645ZM990.692 193.602V191.395H1000.07V193.602H990.692ZM998.876 187.742C998.264 187.742 997.749 187.534 997.333 187.117C996.916 186.701 996.708 186.186 996.708 185.574C996.708 184.962 996.916 184.448 997.333 184.031C997.749 183.615 998.264 183.406 998.876 183.406C999.488 183.406 1000 183.615 1000.42 184.031C1000.84 184.448 1001.04 184.962 1001.04 185.574C1001.04 186.186 1000.84 186.701 1000.42 187.117C1000 187.534 999.488 187.742 998.876 187.742ZM1024.26 212.273C1022.91 212.273 1021.71 212.013 1020.64 211.492C1019.57 210.958 1018.73 210.19 1018.1 209.188C1017.49 208.185 1017.19 206.967 1017.19 205.535V184.539H1019.61V205.398C1019.61 206.831 1020.05 207.964 1020.94 208.797C1021.83 209.617 1022.95 210.027 1024.28 210.027C1025.1 210.027 1025.93 209.871 1026.78 209.559C1027.63 209.233 1028.39 208.842 1029.04 208.387L1029.98 210.594C1029.12 211.115 1028.2 211.525 1027.22 211.824C1026.25 212.124 1025.26 212.273 1024.26 212.273ZM1012.11 193.602V191.395H1028.63V193.602H1012.11ZM1045.47 212.312C1043.6 212.312 1041.95 211.863 1040.51 210.965C1039.09 210.066 1037.99 208.816 1037.19 207.215C1036.4 205.613 1036 203.764 1036 201.668C1036 199.572 1036.39 197.729 1037.15 196.141C1037.94 194.552 1039.01 193.315 1040.38 192.43C1041.76 191.531 1043.35 191.082 1045.16 191.082C1046.84 191.082 1048.33 191.486 1049.62 192.293C1050.9 193.1 1051.91 194.227 1052.62 195.672C1053.34 197.104 1053.7 198.777 1053.7 200.691C1053.7 200.939 1053.68 201.251 1053.66 201.629C1053.65 202.007 1053.61 202.332 1053.54 202.605H1037.88V200.574H1051.31C1051.33 199.142 1051.07 197.885 1050.55 196.805C1050.05 195.724 1049.32 194.878 1048.39 194.266C1047.45 193.654 1046.37 193.348 1045.14 193.348C1043.8 193.348 1042.62 193.699 1041.59 194.402C1040.57 195.105 1039.77 196.089 1039.19 197.352C1038.61 198.602 1038.33 200.047 1038.33 201.688C1038.33 203.341 1038.63 204.799 1039.22 206.062C1039.82 207.312 1040.66 208.296 1041.72 209.012C1042.79 209.715 1044.03 210.066 1045.44 210.066C1046.46 210.066 1047.48 209.865 1048.48 209.461C1049.49 209.044 1050.39 208.478 1051.2 207.762L1052.12 209.949C1051.26 210.665 1050.24 211.238 1049.07 211.668C1047.9 212.098 1046.7 212.312 1045.47 212.312ZM1061.91 212V191.395H1064.33V194.91H1065.01L1063.96 196.238C1064.18 195.327 1064.61 194.48 1065.25 193.699C1065.89 192.918 1066.67 192.286 1067.61 191.805C1068.55 191.323 1069.58 191.082 1070.7 191.082C1071.81 191.082 1072.79 191.271 1073.67 191.648C1074.54 192.026 1075.29 192.553 1075.91 193.23C1076.54 193.895 1077.03 194.669 1077.38 195.555L1075.13 196.473C1074.73 195.587 1074.11 194.852 1073.28 194.266C1072.46 193.68 1071.43 193.387 1070.19 193.387C1069.12 193.387 1068.14 193.68 1067.24 194.266C1066.36 194.839 1065.65 195.646 1065.11 196.688C1064.59 197.716 1064.33 198.914 1064.33 200.281V212H1061.91Z" fill="#FAFAFA"/>
<path d="M1118.15 212.312C1116.8 212.312 1115.59 212.091 1114.49 211.648C1113.4 211.206 1112.47 210.633 1111.72 209.93C1110.96 209.227 1110.42 208.484 1110.1 207.703L1112.4 206.746C1112.81 207.618 1113.52 208.393 1114.55 209.07C1115.59 209.734 1116.82 210.066 1118.22 210.066C1119.15 210.066 1120.01 209.917 1120.8 209.617C1121.6 209.305 1122.23 208.875 1122.72 208.328C1123.2 207.781 1123.44 207.15 1123.44 206.434C1123.44 205.587 1123.13 204.917 1122.52 204.422C1121.91 203.914 1121.12 203.504 1120.16 203.191C1119.21 202.866 1118.19 202.553 1117.11 202.254C1116.04 201.941 1115.03 201.564 1114.06 201.121C1113.1 200.678 1112.31 200.092 1111.7 199.363C1111.1 198.634 1110.8 197.664 1110.8 196.453C1110.8 195.32 1111.12 194.357 1111.76 193.562C1112.41 192.755 1113.26 192.143 1114.32 191.727C1115.38 191.297 1116.54 191.082 1117.79 191.082C1119.46 191.082 1120.94 191.447 1122.23 192.176C1123.52 192.905 1124.46 193.829 1125.06 194.949L1122.81 195.887C1122.42 195.223 1121.78 194.637 1120.9 194.129C1120.03 193.608 1118.97 193.348 1117.72 193.348C1116.43 193.348 1115.34 193.634 1114.45 194.207C1113.58 194.767 1113.15 195.535 1113.16 196.512C1113.19 197.358 1113.51 198.035 1114.12 198.543C1114.75 199.038 1115.53 199.448 1116.49 199.773C1117.45 200.086 1118.46 200.392 1119.53 200.691C1120.6 200.978 1121.61 201.336 1122.56 201.766C1123.52 202.182 1124.3 202.749 1124.9 203.465C1125.5 204.168 1125.8 205.105 1125.8 206.277C1125.8 207.501 1125.45 208.562 1124.75 209.461C1124.04 210.359 1123.11 211.062 1121.95 211.57C1120.8 212.065 1119.53 212.312 1118.15 212.312ZM1143.51 212.234C1141.61 212.234 1139.92 211.785 1138.44 210.887C1136.97 209.988 1135.8 208.745 1134.94 207.156C1134.09 205.555 1133.67 203.699 1133.67 201.59C1133.67 199.52 1134.09 197.697 1134.92 196.121C1135.77 194.533 1136.93 193.296 1138.42 192.41C1139.9 191.512 1141.6 191.062 1143.51 191.062C1144.65 191.062 1145.8 191.264 1146.97 191.668C1148.16 192.072 1149.2 192.658 1150.1 193.426L1149.14 195.516C1148.54 194.904 1147.74 194.383 1146.74 193.953C1145.75 193.523 1144.69 193.309 1143.57 193.309C1142.12 193.309 1140.83 193.66 1139.71 194.363C1138.6 195.066 1137.73 196.043 1137.09 197.293C1136.45 198.53 1136.13 199.975 1136.13 201.629C1136.13 203.27 1136.45 204.721 1137.09 205.984C1137.74 207.234 1138.63 208.217 1139.75 208.934C1140.88 209.637 1142.17 209.988 1143.63 209.988C1144.79 209.988 1145.87 209.76 1146.87 209.305C1147.88 208.849 1148.66 208.283 1149.22 207.605L1150.19 209.754C1149.41 210.47 1148.42 211.062 1147.23 211.531C1146.03 212 1144.79 212.234 1143.51 212.234ZM1166.03 212V191.395H1168.45V212H1166.03ZM1159.08 193.602V191.395H1168.45V193.602H1159.08ZM1167.26 187.742C1166.65 187.742 1166.14 187.534 1165.72 187.117C1165.3 186.701 1165.1 186.186 1165.1 185.574C1165.1 184.962 1165.3 184.448 1165.72 184.031C1166.14 183.615 1166.65 183.406 1167.26 183.406C1167.88 183.406 1168.39 183.615 1168.81 184.031C1169.22 184.448 1169.43 184.962 1169.43 185.574C1169.43 186.186 1169.22 186.701 1168.81 187.117C1168.39 187.534 1167.88 187.742 1167.26 187.742ZM1190.88 212.312C1189 212.312 1187.35 211.863 1185.91 210.965C1184.49 210.066 1183.39 208.816 1182.59 207.215C1181.8 205.613 1181.4 203.764 1181.4 201.668C1181.4 199.572 1181.79 197.729 1182.55 196.141C1183.34 194.552 1184.41 193.315 1185.78 192.43C1187.16 191.531 1188.75 191.082 1190.56 191.082C1192.24 191.082 1193.73 191.486 1195.02 192.293C1196.3 193.1 1197.31 194.227 1198.02 195.672C1198.74 197.104 1199.1 198.777 1199.1 200.691C1199.1 200.939 1199.08 201.251 1199.06 201.629C1199.05 202.007 1199.01 202.332 1198.94 202.605H1183.28V200.574H1196.71C1196.73 199.142 1196.47 197.885 1195.95 196.805C1195.45 195.724 1194.72 194.878 1193.79 194.266C1192.85 193.654 1191.77 193.348 1190.54 193.348C1189.2 193.348 1188.02 193.699 1186.99 194.402C1185.97 195.105 1185.17 196.089 1184.59 197.352C1184.01 198.602 1183.73 200.047 1183.73 201.688C1183.73 203.341 1184.03 204.799 1184.62 206.062C1185.22 207.312 1186.06 208.296 1187.12 209.012C1188.19 209.715 1189.43 210.066 1190.84 210.066C1191.86 210.066 1192.88 209.865 1193.88 209.461C1194.89 209.044 1195.79 208.478 1196.6 207.762L1197.52 209.949C1196.66 210.665 1195.64 211.238 1194.47 211.668C1193.3 212.098 1192.1 212.312 1190.88 212.312ZM1206.52 212V191.395H1208.92V194.285H1209.6L1208.47 195.477C1208.85 194.214 1209.66 193.165 1210.91 192.332C1212.16 191.499 1213.63 191.082 1215.31 191.082C1217.43 191.082 1219.12 191.779 1220.37 193.172C1221.63 194.565 1222.26 196.427 1222.26 198.758V212H1219.84V199.188C1219.84 197.391 1219.37 195.971 1218.43 194.93C1217.51 193.875 1216.23 193.348 1214.6 193.348C1213.51 193.348 1212.53 193.595 1211.67 194.09C1210.83 194.572 1210.16 195.255 1209.66 196.141C1209.18 197.013 1208.94 198.042 1208.94 199.227V212H1206.52ZM1241.56 212.273C1240.21 212.273 1239.01 212.013 1237.94 211.492C1236.87 210.958 1236.03 210.19 1235.4 209.188C1234.79 208.185 1234.49 206.967 1234.49 205.535V184.539H1236.91V205.398C1236.91 206.831 1237.35 207.964 1238.24 208.797C1239.13 209.617 1240.25 210.027 1241.57 210.027C1242.4 210.027 1243.23 209.871 1244.07 209.559C1244.93 209.233 1245.69 208.842 1246.34 208.387L1247.28 210.594C1246.42 211.115 1245.5 211.525 1244.52 211.824C1243.55 212.124 1242.56 212.273 1241.56 212.273ZM1229.41 193.602V191.395H1245.93V193.602H1229.41ZM1262.43 212V191.395H1264.85V212H1262.43ZM1255.48 193.602V191.395H1264.85V193.602H1255.48ZM1263.66 187.742C1263.05 187.742 1262.54 187.534 1262.12 187.117C1261.7 186.701 1261.5 186.186 1261.5 185.574C1261.5 184.962 1261.7 184.448 1262.12 184.031C1262.54 183.615 1263.05 183.406 1263.66 183.406C1264.28 183.406 1264.79 183.615 1265.21 184.031C1265.62 184.448 1265.83 184.962 1265.83 185.574C1265.83 186.186 1265.62 186.701 1265.21 187.117C1264.79 187.534 1264.28 187.742 1263.66 187.742ZM1286.85 212.312C1285.5 212.312 1284.29 212.091 1283.19 211.648C1282.1 211.206 1281.17 210.633 1280.42 209.93C1279.66 209.227 1279.12 208.484 1278.8 207.703L1281.1 206.746C1281.51 207.618 1282.22 208.393 1283.25 209.07C1284.29 209.734 1285.52 210.066 1286.92 210.066C1287.85 210.066 1288.71 209.917 1289.5 209.617C1290.3 209.305 1290.93 208.875 1291.42 208.328C1291.9 207.781 1292.14 207.15 1292.14 206.434C1292.14 205.587 1291.83 204.917 1291.22 204.422C1290.61 203.914 1289.82 203.504 1288.86 203.191C1287.91 202.866 1286.89 202.553 1285.81 202.254C1284.74 201.941 1283.73 201.564 1282.76 201.121C1281.8 200.678 1281.01 200.092 1280.4 199.363C1279.8 198.634 1279.5 197.664 1279.5 196.453C1279.5 195.32 1279.82 194.357 1280.46 193.562C1281.11 192.755 1281.96 192.143 1283.02 191.727C1284.08 191.297 1285.24 191.082 1286.49 191.082C1288.16 191.082 1289.64 191.447 1290.93 192.176C1292.22 192.905 1293.16 193.829 1293.76 194.949L1291.51 195.887C1291.12 195.223 1290.48 194.637 1289.6 194.129C1288.73 193.608 1287.67 193.348 1286.42 193.348C1285.13 193.348 1284.04 193.634 1283.15 194.207C1282.28 194.767 1281.85 195.535 1281.86 196.512C1281.89 197.358 1282.21 198.035 1282.82 198.543C1283.45 199.038 1284.23 199.448 1285.19 199.773C1286.15 200.086 1287.16 200.392 1288.23 200.691C1289.3 200.978 1290.31 201.336 1291.26 201.766C1292.22 202.182 1293 202.749 1293.6 203.465C1294.2 204.168 1294.5 205.105 1294.5 206.277C1294.5 207.501 1294.15 208.562 1293.45 209.461C1292.74 210.359 1291.81 211.062 1290.65 211.57C1289.5 212.065 1288.23 212.312 1286.85 212.312ZM1313.86 212.273C1312.51 212.273 1311.31 212.013 1310.24 211.492C1309.17 210.958 1308.33 210.19 1307.7 209.188C1307.09 208.185 1306.79 206.967 1306.79 205.535V184.539H1309.21V205.398C1309.21 206.831 1309.65 207.964 1310.54 208.797C1311.43 209.617 1312.55 210.027 1313.88 210.027C1314.7 210.027 1315.53 209.871 1316.38 209.559C1317.23 209.233 1317.99 208.842 1318.64 208.387L1319.58 210.594C1318.72 211.115 1317.8 211.525 1316.82 211.824C1315.85 212.124 1314.86 212.273 1313.86 212.273ZM1301.71 193.602V191.395H1318.23V193.602H1301.71Z" fill="#F4B400"/>
<path d="M464 201.844H653.6V204.188H464V201.844ZM677.7 201.844H914.7V204.188H677.7V201.844Z" fill="#FAFAFA"/>
<path d="M938.8 201.844H1081V204.188H938.8V201.844Z" fill="#FAFAFA"/>
<ellipse cx="10" cy="10.001" rx="10" ry="10.001" transform="matrix(1 0 0 -1 76 76.002)" fill="#F4B400"/>
<ellipse cx="10" cy="10.001" rx="10" ry="10.001" transform="matrix(1 0 0 -1 76 208.002)" fill="#F4B400"/>
<line x1="85.7" y1="198.002" x2="85.7" y2="65.9995" stroke="#F4B400" stroke-width="1.6"/>
<ellipse cx="10" cy="10.001" rx="10" ry="10.001" transform="matrix(0 -1 -1 0 640.002 445)" fill="#CABCBE"/>
<ellipse cx="10" cy="10.001" rx="10" ry="10.001" transform="matrix(0 -1 -1 0 1376.07 328.07)" fill="#CABCBE"/>
<line x1="629.874" y1="434.21" x2="1365.87" y2="317.21" stroke="#CABCBE" stroke-width="1.6"/>
<ellipse cx="1244.65" cy="435.001" rx="10" ry="10.001" fill="#424242"/>
<ellipse cx="1244.4" cy="290.001" rx="10" ry="10.001" fill="#424242"/>
<line x1="1244.22" y1="434.004" x2="1244.22" y2="298.004" stroke="#424242" stroke-width="1.6"/>
<path d="M1261 349.393L1276.83 344.773V346.771L1267.6 349.307L1263.69 350.316V350.424L1275.22 354.248V355.043L1263.69 358.867V358.953L1267.6 359.963L1276.83 362.52V364.496L1261 359.877V358.115L1270.86 354.678V354.592L1261 351.154V349.393ZM1260.83 373.434C1260.83 372.324 1261.03 371.292 1261.43 370.34C1261.83 369.395 1262.4 368.567 1263.13 367.858C1263.86 367.157 1264.71 366.609 1265.69 366.215C1266.68 365.828 1267.76 365.635 1268.93 365.635C1270.08 365.635 1271.15 365.828 1272.13 366.215C1273.11 366.602 1273.97 367.142 1274.7 367.837C1275.43 368.539 1275.99 369.362 1276.39 370.308C1276.8 371.253 1277.01 372.281 1277.01 373.391C1277.01 374.515 1276.8 375.55 1276.39 376.495C1275.99 377.448 1275.43 378.275 1274.7 378.977C1273.97 379.686 1273.11 380.233 1272.12 380.62C1271.14 381.014 1270.07 381.211 1268.91 381.211C1267.75 381.211 1266.68 381.014 1265.69 380.62C1264.71 380.233 1263.86 379.686 1263.13 378.977C1262.4 378.275 1261.83 377.451 1261.43 376.506C1261.03 375.568 1260.83 374.544 1260.83 373.434ZM1262.59 373.391C1262.59 374.243 1262.75 375.027 1263.06 375.743C1263.38 376.466 1263.83 377.09 1264.41 377.612C1264.98 378.142 1265.65 378.55 1266.41 378.837C1267.19 379.131 1268.03 379.277 1268.93 379.277C1269.85 379.277 1270.7 379.127 1271.46 378.826C1272.24 378.533 1272.91 378.117 1273.47 377.58C1274.04 377.05 1274.47 376.427 1274.78 375.711C1275.09 374.995 1275.24 374.221 1275.24 373.391C1275.24 372.574 1275.09 371.812 1274.78 371.103C1274.47 370.401 1274.04 369.785 1273.47 369.255C1272.91 368.725 1272.24 368.31 1271.46 368.009C1270.7 367.715 1269.85 367.568 1268.93 367.568C1268.02 367.568 1267.18 367.712 1266.4 367.998C1265.63 368.292 1264.96 368.7 1264.38 369.223C1263.82 369.745 1263.38 370.361 1263.06 371.07C1262.75 371.779 1262.59 372.553 1262.59 373.391ZM1267.42 385.293H1269.1V388.559C1269.1 389.203 1269.22 389.765 1269.46 390.245C1269.72 390.732 1270.07 391.108 1270.52 391.373C1270.98 391.645 1271.51 391.781 1272.13 391.781C1273.05 391.781 1273.77 391.473 1274.29 390.857C1274.81 390.249 1275.07 389.439 1275.07 388.43V385.293H1276.83V388.73C1276.83 389.676 1276.65 390.524 1276.29 391.276C1275.93 392.028 1275.41 392.623 1274.73 393.06C1274.06 393.496 1273.25 393.715 1272.3 393.715C1271.4 393.715 1270.58 393.5 1269.84 393.07C1269.1 392.648 1268.52 392.039 1268.08 391.244C1267.64 390.456 1267.42 389.518 1267.42 388.43V385.293ZM1261 384.025H1276.83V385.959H1261V384.025ZM1261 392.705L1267.72 388.473L1268.88 389.977L1261 394.939V392.705ZM1261 397.604H1276.83V399.537H1269.49V400.117L1269.1 399.279L1276.83 406.176V408.689L1268.43 401.17H1269.4L1261 409.141V406.584L1268.69 399.279L1268.35 400.117V399.537H1261V397.604Z" fill="#424242"/>
<path d="M736.061 400.577L740.056 383.913L741.626 383.665L750.575 398.278L748.581 398.594L745.91 394.232L745.548 393.593L741.297 386.392L741.212 386.406L739.394 394.568L739.247 395.287L738.056 400.261L736.061 400.577ZM738.426 396.005L738.15 394.265L746.638 392.92L746.914 394.66L738.426 396.005ZM762.268 396.427L757.076 390.702L756.948 390.722L755.559 389.506L755.546 389.421L749.138 382.475L751.303 382.132L756.557 387.978L756.685 387.957L758.05 389.025L758.063 389.109L764.559 396.064L762.268 396.427ZM751.53 398.127L755.559 389.506L755.546 389.421L756.515 387.984L756.642 387.964L759.833 380.781L761.997 380.438L758.05 389.025L758.063 389.109L757.118 390.695L756.991 390.715L753.822 397.764L751.53 398.127ZM767.254 395.637L764.777 379.998L766.687 379.695L769.164 395.334L767.254 395.637ZM779.865 393.814C778.768 393.987 777.718 393.95 776.715 393.703C775.718 393.455 774.813 393.026 773.998 392.415C773.191 391.804 772.516 391.044 771.973 390.137C771.437 389.221 771.077 388.187 770.895 387.034C770.714 385.895 770.738 384.811 770.967 383.781C771.195 382.752 771.595 381.822 772.167 380.992C772.746 380.16 773.471 379.473 774.342 378.929C775.212 378.378 776.195 378.015 777.291 377.842C778.402 377.666 779.456 377.706 780.453 377.961C781.457 378.208 782.362 378.637 783.17 379.249C783.984 379.86 784.66 380.623 785.196 381.538C785.739 382.446 786.101 383.472 786.282 384.618C786.464 385.764 786.437 386.852 786.201 387.883C785.973 388.913 785.566 389.844 784.98 390.676C784.401 391.507 783.676 392.195 782.805 392.739C781.941 393.282 780.961 393.64 779.865 393.814ZM779.546 392.08C780.388 391.947 781.138 391.669 781.796 391.245C782.46 390.814 783.005 390.274 783.432 389.627C783.866 388.978 784.164 388.253 784.327 387.451C784.497 386.641 784.51 385.791 784.369 384.9C784.225 383.987 783.944 383.176 783.527 382.466C783.116 381.748 782.601 381.152 781.982 380.677C781.37 380.201 780.686 379.867 779.931 379.675C779.175 379.483 778.387 379.452 777.567 379.582C776.761 379.709 776.031 379.981 775.379 380.396C774.734 380.81 774.194 381.338 773.759 381.979C773.324 382.621 773.019 383.347 772.843 384.158C772.673 384.961 772.66 385.819 772.804 386.731C772.947 387.63 773.22 388.438 773.624 389.157C774.035 389.875 774.543 390.476 775.149 390.96C775.754 391.437 776.431 391.776 777.181 391.976C777.93 392.177 778.719 392.211 779.546 392.08ZM790.299 391.987L787.822 376.348L789.414 376.096L796.375 384.89L796.46 384.877L800.363 374.362L801.954 374.109L804.431 389.749L802.522 390.051L801.181 381.584L800.729 378.458L800.644 378.472L797.224 387.779L796.545 387.887L790.416 380.092L790.331 380.105L790.868 383.218L792.209 391.684L790.299 391.987ZM806.341 389.446L810.336 372.782L811.907 372.533L820.856 387.147L818.861 387.463L816.191 383.101L815.828 382.462L811.577 375.261L811.492 375.274L809.675 383.437L809.528 384.156L808.336 389.13L806.341 389.446ZM808.706 384.873L808.43 383.133L816.918 381.789L817.194 383.529L808.706 384.873ZM824.463 386.576L822.204 372.316L824.114 372.014L826.373 386.273L824.463 386.576ZM818.081 373.339L817.806 371.599L828.055 369.976L828.331 371.716L818.081 373.339ZM829.959 385.705L833.954 369.041L835.524 368.793L844.473 383.407L842.479 383.722L839.808 379.36L839.446 378.721L835.195 371.52L835.11 371.534L833.292 379.696L833.145 380.415L831.954 385.389L829.959 385.705ZM832.324 381.133L832.048 379.393L840.536 378.048L840.811 379.788L832.324 381.133Z" fill="#CABCBE"/>
</svg>
