<svg width="2141" height="625" viewBox="0 0 2141 625" fill="none" xmlns="http://www.w3.org/2000/svg">
<rect x="1.20024" y="1.2" width="2138.6" height="341.6" rx="8.8" fill="#424242" fill-opacity="0.64" stroke="#424242" stroke-width="1.6"/>
<path d="M317.503 142V140.68L323.047 139.184V105.392H315.303V102.4H323.047V98.88C323.047 96.5333 323.428 94.04 324.191 91.4C325.012 88.76 326.186 86.2667 327.711 83.92C329.295 81.5733 331.26 79.6667 333.607 78.2C335.954 76.7333 338.682 76 341.791 76C342.554 76 343.228 76.1173 343.815 76.352C344.754 76.7627 345.223 77.232 345.223 77.76C345.223 78.112 345.135 78.4933 344.959 78.904L343.991 81.28H343.815L341.967 80.664C340.148 80.0773 338.388 79.784 336.687 79.784C333.695 79.784 331.407 81.016 329.823 83.48C328.239 85.944 327.447 89.904 327.447 95.36V102.4H339.063V105.392H327.447V139.184L334.223 140.68V142H317.503ZM381.398 142V140.68L386.942 139.184V105.744L380.518 104.952V103.632L390.022 101.52H390.902L391.342 109.352H391.518C393.806 106.947 395.625 105.187 396.974 104.072C398.323 102.957 399.438 102.253 400.318 101.96C401.198 101.667 402.195 101.52 403.31 101.52C404.307 101.52 405.217 101.696 406.038 102.048C406.625 102.283 407.035 102.517 407.27 102.752C407.563 102.928 407.71 103.192 407.71 103.544C407.71 103.661 407.681 103.808 407.622 103.984C407.622 104.101 407.593 104.277 407.534 104.512L406.654 106.8H406.478L404.806 106.008C403.985 105.597 402.899 105.392 401.55 105.392C399.849 105.392 398.147 105.861 396.446 106.8C394.745 107.739 393.043 109.381 391.342 111.728V139.184L398.118 140.68V142H381.398ZM447.603 155.2V76.88H461.859V78.464H450.683V153.616H461.859V155.2H447.603ZM483.284 142.88C480.585 142.88 478.327 142.088 476.508 140.504C474.689 138.861 473.78 136.603 473.78 133.728C473.78 130.912 474.777 128.565 476.772 126.688C478.825 124.811 482.199 123.285 486.892 122.112L495.516 119.912V112.608C495.516 110.085 494.607 108.061 492.788 106.536C490.969 104.952 488.887 104.16 486.54 104.16C484.017 104.16 482.228 104.688 481.172 105.744C480.175 106.741 479.676 108.12 479.676 109.88V113.488L479.236 113.928H476.948C476.009 113.928 475.393 113.781 475.1 113.488C474.807 113.195 474.66 112.637 474.66 111.816C474.66 110.701 475.041 109.557 475.804 108.384C476.567 107.211 477.681 106.155 479.148 105.216C480.732 104.219 482.316 103.368 483.9 102.664C485.543 101.901 487.097 101.52 488.564 101.52C492.084 101.52 494.841 102.312 496.836 103.896C498.889 105.421 499.916 107.827 499.916 111.112V138.48C500.385 138.891 500.913 139.213 501.5 139.448C502.145 139.683 502.879 139.8 503.7 139.8H508.276L508.364 139.888V140.064C507.953 140.651 507.279 141.267 506.34 141.912C505.401 142.557 504.14 142.88 502.556 142.88C500.503 142.88 498.919 142.352 497.804 141.296C496.689 140.24 496.015 139.008 495.78 137.6H495.604C494.079 139.125 492.231 140.387 490.06 141.384C487.948 142.381 485.689 142.88 483.284 142.88ZM478.18 132.144C478.18 134.549 478.855 136.368 480.204 137.6C481.553 138.773 483.46 139.36 485.924 139.36C487.391 139.36 488.975 139.155 490.676 138.744C492.377 138.275 493.991 137.571 495.516 136.632V121.76C490.647 122.757 486.951 123.755 484.428 124.752C481.964 125.749 480.292 126.835 479.412 128.008C478.591 129.181 478.18 130.56 478.18 132.144ZM517.001 155.2V153.616H528.177V78.464H517.001V76.88H531.257V155.2H517.001ZM576.266 142V140.68L581.81 139.184V105.744L575.386 104.952V103.632L584.89 101.52H585.77L586.122 107.856H586.386C588.557 105.627 590.61 104.013 592.546 103.016C594.482 102.019 596.653 101.52 599.058 101.52C602.754 101.52 605.776 102.547 608.122 104.6C610.528 106.653 611.73 109.645 611.73 113.576V139.184L617.274 140.68V142H601.082V140.68L607.33 139.184V115.952C607.33 112.373 606.362 109.675 604.426 107.856C602.549 105.979 600.056 105.04 596.946 105.04C595.186 105.04 593.28 105.48 591.226 106.36C589.173 107.181 587.501 108.384 586.21 109.968V139.184L592.458 140.68V142H576.266ZM678.833 142.88C674.726 142.88 671.265 142 668.449 140.24C665.691 138.48 663.579 136.104 662.113 133.112C660.705 130.12 660.001 126.747 660.001 122.992C660.001 118.885 660.822 115.219 662.465 111.992C664.166 108.707 666.483 106.155 669.417 104.336C672.409 102.459 675.782 101.52 679.537 101.52C681.883 101.52 683.966 101.843 685.785 102.488C687.603 103.133 689.07 103.837 690.185 104.6C692.062 105.891 693.001 107.005 693.001 107.944C693.001 108.355 692.795 108.736 692.385 109.088L690.009 111.112H689.657L688.513 109.528C687.222 107.768 685.814 106.331 684.289 105.216C682.822 104.043 680.915 103.456 678.569 103.456C674.462 103.456 671.059 105.011 668.361 108.12C665.721 111.171 664.401 115.747 664.401 121.848C664.401 127.011 665.75 131.205 668.449 134.432C671.206 137.6 675.078 139.184 680.065 139.184C682.763 139.184 685.257 138.773 687.545 137.952C689.833 137.131 691.622 136.016 692.913 134.608H693.177V135.752C691.827 137.805 689.921 139.507 687.457 140.856C684.993 142.205 682.118 142.88 678.833 142.88ZM736.972 155.2V76.88H751.228V78.464H740.052V153.616H751.228V155.2H736.972ZM771.07 87.616C770.131 87.616 769.339 87.2933 768.694 86.648C768.048 86.0027 767.726 85.2107 767.726 84.272C767.726 83.3333 768.048 82.5413 768.694 81.896C769.339 81.2507 770.131 80.928 771.07 80.928C772.008 80.928 772.8 81.2507 773.446 81.896C774.091 82.5413 774.414 83.3333 774.414 84.272C774.414 85.2107 774.091 86.0027 773.446 86.648C772.8 87.2933 772.008 87.616 771.07 87.616ZM764.558 142V140.68L770.102 139.184V105.744L763.678 104.072V102.752L773.622 101.52H774.502V139.184L780.75 140.68V142H764.558ZM793.136 155.2V153.616H804.312V78.464H793.136V76.88H807.392V155.2H793.136ZM863.314 142.88C861.26 142.88 859.412 142.645 857.77 142.176C856.186 141.765 854.543 141.149 852.842 140.328V131.176H853.898L855.13 135.136C855.658 136.896 856.626 138.304 858.034 139.36C859.442 140.357 861.436 140.856 864.018 140.856C866.834 140.856 869.004 140.181 870.53 138.832C872.114 137.424 872.906 135.429 872.906 132.848C872.906 130.56 872.29 128.771 871.058 127.48C869.826 126.131 867.538 124.781 864.194 123.432C860.674 122.024 858.063 120.499 856.362 118.856C854.719 117.213 853.898 114.867 853.898 111.816C853.898 109.939 854.396 108.237 855.394 106.712C856.45 105.128 857.828 103.867 859.53 102.928C861.231 101.989 863.05 101.52 864.986 101.52C867.156 101.52 869.092 101.784 870.794 102.312C872.495 102.781 873.962 103.339 875.194 103.984V112.96H874.138L872.994 109.176C872.407 107.123 871.292 105.656 869.65 104.776C868.066 103.896 866.452 103.456 864.81 103.456C862.522 103.456 860.762 104.131 859.53 105.48C858.356 106.829 857.77 108.589 857.77 110.76C857.77 112.931 858.415 114.632 859.706 115.864C860.996 117.096 863.079 118.299 865.954 119.472C868.535 120.528 870.618 121.555 872.202 122.552C873.844 123.549 875.047 124.781 875.81 126.248C876.572 127.656 876.954 129.475 876.954 131.704C876.954 133.699 876.396 135.547 875.282 137.248C874.167 138.949 872.583 140.328 870.53 141.384C868.476 142.381 866.071 142.88 863.314 142.88ZM922.826 155.2V76.88H937.082V78.464H925.906V153.616H937.082V155.2H922.826ZM939.411 155.2V153.616H950.587V78.464H939.411V76.88H953.667V155.2H939.411ZM1010.29 142.88C1006.19 142.88 1002.72 142 999.908 140.24C997.151 138.48 995.039 136.104 993.572 133.112C992.164 130.12 991.46 126.747 991.46 122.992C991.46 118.885 992.281 115.219 993.924 111.992C995.625 108.707 997.943 106.155 1000.88 104.336C1003.87 102.459 1007.24 101.52 1011 101.52C1013.34 101.52 1015.43 101.843 1017.24 102.488C1019.06 103.133 1020.53 103.837 1021.64 104.6C1023.52 105.891 1024.46 107.005 1024.46 107.944C1024.46 108.355 1024.25 108.736 1023.84 109.088L1021.47 111.112H1021.12L1019.97 109.528C1018.68 107.768 1017.27 106.331 1015.75 105.216C1014.28 104.043 1012.37 103.456 1010.03 103.456C1005.92 103.456 1002.52 105.011 999.82 108.12C997.18 111.171 995.86 115.747 995.86 121.848C995.86 127.011 997.209 131.205 999.908 134.432C1002.67 137.6 1006.54 139.184 1011.52 139.184C1014.22 139.184 1016.72 138.773 1019 137.952C1021.29 137.131 1023.08 136.016 1024.37 134.608H1024.64V135.752C1023.29 137.805 1021.38 139.507 1018.92 140.856C1016.45 142.205 1013.58 142.88 1010.29 142.88ZM1068.43 155.2V76.88H1082.69V78.464H1071.51V153.616H1082.69V155.2H1068.43ZM1104.11 142.88C1101.41 142.88 1099.16 142.088 1097.34 140.504C1095.52 138.861 1094.61 136.603 1094.61 133.728C1094.61 130.912 1095.61 128.565 1097.6 126.688C1099.65 124.811 1103.03 123.285 1107.72 122.112L1116.35 119.912V112.608C1116.35 110.085 1115.44 108.061 1113.62 106.536C1111.8 104.952 1109.72 104.16 1107.37 104.16C1104.85 104.16 1103.06 104.688 1102 105.744C1101 106.741 1100.51 108.12 1100.51 109.88V113.488L1100.07 113.928H1097.78C1096.84 113.928 1096.22 113.781 1095.93 113.488C1095.64 113.195 1095.49 112.637 1095.49 111.816C1095.49 110.701 1095.87 109.557 1096.63 108.384C1097.4 107.211 1098.51 106.155 1099.98 105.216C1101.56 104.219 1103.15 103.368 1104.73 102.664C1106.37 101.901 1107.93 101.52 1109.39 101.52C1112.91 101.52 1115.67 102.312 1117.67 103.896C1119.72 105.421 1120.75 107.827 1120.75 111.112V138.48C1121.21 138.891 1121.74 139.213 1122.33 139.448C1122.97 139.683 1123.71 139.8 1124.53 139.8H1129.11L1129.19 139.888V140.064C1128.78 140.651 1128.11 141.267 1127.17 141.912C1126.23 142.557 1124.97 142.88 1123.39 142.88C1121.33 142.88 1119.75 142.352 1118.63 141.296C1117.52 140.24 1116.84 139.008 1116.61 137.6H1116.43C1114.91 139.125 1113.06 140.387 1110.89 141.384C1108.78 142.381 1106.52 142.88 1104.11 142.88ZM1099.01 132.144C1099.01 134.549 1099.68 136.368 1101.03 137.6C1102.38 138.773 1104.29 139.36 1106.75 139.36C1108.22 139.36 1109.8 139.155 1111.51 138.744C1113.21 138.275 1114.82 137.571 1116.35 136.632V121.76C1111.48 122.757 1107.78 123.755 1105.26 124.752C1102.79 125.749 1101.12 126.835 1100.24 128.008C1099.42 129.181 1099.01 130.56 1099.01 132.144ZM1137.83 155.2V153.616H1149.01V78.464H1137.83V76.88H1152.09V155.2H1137.83ZM1215.22 142.88C1211.12 142.88 1207.66 142 1204.84 140.24C1202.08 138.48 1199.97 136.104 1198.5 133.112C1197.1 130.12 1196.39 126.747 1196.39 122.992C1196.39 118.885 1197.21 115.219 1198.86 111.992C1200.56 108.707 1202.87 106.155 1205.81 104.336C1208.8 102.459 1212.17 101.52 1215.93 101.52C1218.27 101.52 1220.36 101.843 1222.18 102.488C1223.99 103.133 1225.46 103.837 1226.58 104.6C1228.45 105.891 1229.39 107.005 1229.39 107.944C1229.39 108.355 1229.19 108.736 1228.78 109.088L1226.4 111.112H1226.05L1224.9 109.528C1223.61 107.768 1222.2 106.331 1220.68 105.216C1219.21 104.043 1217.31 103.456 1214.96 103.456C1210.85 103.456 1207.45 105.011 1204.75 108.12C1202.11 111.171 1200.79 115.747 1200.79 121.848C1200.79 127.011 1202.14 131.205 1204.84 134.432C1207.6 137.6 1211.47 139.184 1216.46 139.184C1219.15 139.184 1221.65 138.773 1223.94 137.952C1226.22 137.131 1228.01 136.016 1229.3 134.608H1229.57V135.752C1228.22 137.805 1226.31 139.507 1223.85 140.856C1221.38 142.205 1218.51 142.88 1215.22 142.88ZM1291.76 142.88C1287.65 142.88 1284.19 142 1281.37 140.24C1278.61 138.48 1276.5 136.104 1275.04 133.112C1273.63 130.12 1272.92 126.747 1272.92 122.992C1272.92 118.885 1273.74 115.219 1275.39 111.992C1277.09 108.707 1279.41 106.155 1282.34 104.336C1285.33 102.459 1288.7 101.52 1292.46 101.52C1294.81 101.52 1296.89 101.843 1298.71 102.488C1300.53 103.133 1301.99 103.837 1303.11 104.6C1304.98 105.891 1305.92 107.005 1305.92 107.944C1305.92 108.355 1305.72 108.736 1305.31 109.088L1302.93 111.112H1302.58L1301.44 109.528C1300.14 107.768 1298.74 106.331 1297.21 105.216C1295.74 104.043 1293.84 103.456 1291.49 103.456C1287.38 103.456 1283.98 105.011 1281.28 108.12C1278.64 111.171 1277.32 115.747 1277.32 121.848C1277.32 127.011 1278.67 131.205 1281.37 134.432C1284.13 137.6 1288 139.184 1292.99 139.184C1295.69 139.184 1298.18 138.773 1300.47 137.952C1302.76 137.131 1304.54 136.016 1305.84 134.608H1306.1V135.752C1304.75 137.805 1302.84 139.507 1300.38 140.856C1297.92 142.205 1295.04 142.88 1291.76 142.88ZM1349.9 155.2V76.88H1364.15V78.464H1352.98V153.616H1364.15V155.2H1349.9ZM1385.58 142.88C1382.88 142.88 1380.62 142.088 1378.8 140.504C1376.98 138.861 1376.07 136.603 1376.07 133.728C1376.07 130.912 1377.07 128.565 1379.06 126.688C1381.12 124.811 1384.49 123.285 1389.18 122.112L1397.81 119.912V112.608C1397.81 110.085 1396.9 108.061 1395.08 106.536C1393.26 104.952 1391.18 104.16 1388.83 104.16C1386.31 104.16 1384.52 104.688 1383.46 105.744C1382.47 106.741 1381.97 108.12 1381.97 109.88V113.488L1381.53 113.928H1379.24C1378.3 113.928 1377.69 113.781 1377.39 113.488C1377.1 113.195 1376.95 112.637 1376.95 111.816C1376.95 110.701 1377.33 109.557 1378.1 108.384C1378.86 107.211 1379.97 106.155 1381.44 105.216C1383.02 104.219 1384.61 103.368 1386.19 102.664C1387.84 101.901 1389.39 101.52 1390.86 101.52C1394.38 101.52 1397.13 102.312 1399.13 103.896C1401.18 105.421 1402.21 107.827 1402.21 111.112V138.48C1402.68 138.891 1403.21 139.213 1403.79 139.448C1404.44 139.683 1405.17 139.8 1405.99 139.8H1410.57L1410.66 139.888V140.064C1410.25 140.651 1409.57 141.267 1408.63 141.912C1407.69 142.557 1406.43 142.88 1404.85 142.88C1402.8 142.88 1401.21 142.352 1400.1 141.296C1398.98 140.24 1398.31 139.008 1398.07 137.6H1397.9C1396.37 139.125 1394.52 140.387 1392.35 141.384C1390.24 142.381 1387.98 142.88 1385.58 142.88ZM1380.47 132.144C1380.47 134.549 1381.15 136.368 1382.5 137.6C1383.85 138.773 1385.75 139.36 1388.22 139.36C1389.68 139.36 1391.27 139.155 1392.97 138.744C1394.67 138.275 1396.28 137.571 1397.81 136.632V121.76C1392.94 122.757 1389.24 123.755 1386.72 124.752C1384.26 125.749 1382.58 126.835 1381.7 128.008C1380.88 129.181 1380.47 130.56 1380.47 132.144ZM1419.29 155.2V153.616H1430.47V78.464H1419.29V76.88H1433.55V155.2H1419.29ZM1491.41 142.44L1477.06 105.392L1471.52 103.72V102.4H1488.41V103.72L1481.64 105.216V105.48L1492.99 136.28H1493.25L1504.43 105.568V105.304L1497.3 103.72V102.4H1512.88V103.72L1507.25 105.392L1492.29 142.44H1491.41ZM1550.62 155.2V76.88H1564.87V78.464H1553.7V153.616H1564.87V155.2H1550.62ZM1586.3 142.88C1583.6 142.88 1581.34 142.088 1579.52 140.504C1577.7 138.861 1576.79 136.603 1576.79 133.728C1576.79 130.912 1577.79 128.565 1579.78 126.688C1581.84 124.811 1585.21 123.285 1589.9 122.112L1598.53 119.912V112.608C1598.53 110.085 1597.62 108.061 1595.8 106.536C1593.98 104.952 1591.9 104.16 1589.55 104.16C1587.03 104.16 1585.24 104.688 1584.18 105.744C1583.19 106.741 1582.69 108.12 1582.69 109.88V113.488L1582.25 113.928H1579.96C1579.02 113.928 1578.41 113.781 1578.11 113.488C1577.82 113.195 1577.67 112.637 1577.67 111.816C1577.67 110.701 1578.05 109.557 1578.82 108.384C1579.58 107.211 1580.69 106.155 1582.16 105.216C1583.74 104.219 1585.33 103.368 1586.91 102.664C1588.56 101.901 1590.11 101.52 1591.58 101.52C1595.1 101.52 1597.85 102.312 1599.85 103.896C1601.9 105.421 1602.93 107.827 1602.93 111.112V138.48C1603.4 138.891 1603.93 139.213 1604.51 139.448C1605.16 139.683 1605.89 139.8 1606.71 139.8H1611.29L1611.38 139.888V140.064C1610.97 140.651 1610.29 141.267 1609.35 141.912C1608.41 142.557 1607.15 142.88 1605.57 142.88C1603.52 142.88 1601.93 142.352 1600.82 141.296C1599.7 140.24 1599.03 139.008 1598.79 137.6H1598.62C1597.09 139.125 1595.24 140.387 1593.07 141.384C1590.96 142.381 1588.7 142.88 1586.3 142.88ZM1581.19 132.144C1581.19 134.549 1581.87 136.368 1583.22 137.6C1584.57 138.773 1586.47 139.36 1588.94 139.36C1590.4 139.36 1591.99 139.155 1593.69 138.744C1595.39 138.275 1597 137.571 1598.53 136.632V121.76C1593.66 122.757 1589.96 123.755 1587.44 124.752C1584.98 125.749 1583.3 126.835 1582.42 128.008C1581.6 129.181 1581.19 130.56 1581.19 132.144ZM1620.01 155.2V153.616H1631.19V78.464H1620.01V76.88H1634.27V155.2H1620.01ZM1678.93 142V140.68L1684.47 139.184V80.224L1678.05 78.552V77.232L1687.99 76H1688.87V139.184L1695.12 140.68V142H1678.93ZM1738.87 155.2V76.88H1753.13V78.464H1741.95V153.616H1753.13V155.2H1738.87ZM1784.32 142.88C1780.16 142.88 1776.64 142 1773.76 140.24C1770.95 138.48 1768.81 136.104 1767.34 133.112C1765.93 130.12 1765.23 126.747 1765.23 122.992C1765.23 119.003 1766.05 115.395 1767.69 112.168C1769.39 108.941 1771.59 106.36 1774.29 104.424C1777.05 102.488 1780.04 101.52 1783.27 101.52C1787.9 101.52 1791.54 103.045 1794.18 106.096C1796.82 109.147 1798.35 113.371 1798.76 118.768L1798.49 119.032H1769.72C1769.66 119.912 1769.63 120.851 1769.63 121.848C1769.63 127.011 1771.01 131.205 1773.76 134.432C1776.58 137.6 1780.51 139.184 1785.56 139.184C1788.31 139.184 1790.81 138.773 1793.04 137.952C1795.32 137.131 1797.11 136.016 1798.4 134.608H1798.67V135.752C1797.38 137.805 1795.47 139.507 1792.95 140.856C1790.48 142.205 1787.61 142.88 1784.32 142.88ZM1782.21 103.456C1779.34 103.456 1776.76 104.659 1774.47 107.064C1772.18 109.411 1770.68 112.755 1769.98 117.096H1793.92C1793.33 112.813 1792.13 109.469 1790.31 107.064C1788.49 104.659 1785.79 103.456 1782.21 103.456ZM1809.99 155.2V153.616H1821.17V78.464H1809.99V76.88H1824.25V155.2H1809.99ZM336.284 270.55V202.02H348.759V203.406H338.979V269.164H348.759V270.55H336.284ZM372.742 259.77C369.61 259.77 367.044 258.872 365.042 257.075C363.04 255.278 362.039 252.66 362.039 249.221V226.814L356.572 225.505V224.35H365.889V247.142C365.889 250.273 366.684 252.66 368.276 254.303C369.918 255.894 372.023 256.69 374.59 256.69C376.078 256.69 377.67 256.331 379.364 255.612C381.109 254.842 382.521 253.764 383.599 252.378V226.814L377.362 225.505V224.35H387.449V256.536L392.916 257.845V259H383.599V254.303H383.368C381.52 256.151 379.774 257.537 378.132 258.461C376.489 259.334 374.692 259.77 372.742 259.77ZM400.792 270.55V269.164H410.571V203.406H400.792V202.02H413.266V270.55H400.792ZM425.7 259V257.845L430.166 256.613L439.945 241.675L430.551 226.891L426.085 225.505V224.35H439.714V225.505L434.863 226.814V227.045L442.563 239.134L449.647 227.045V226.814L445.412 225.505V224.35H456.269V225.505L452.111 227.199L443.256 240.212L453.651 256.459L457.578 257.845V259H444.95V257.845L449.262 256.536V256.305L440.638 242.83L433.092 256.305V256.536L437.25 257.845V259H425.7Z" fill="black"/>
<path d="M497.681 259.77C495.114 259.77 492.83 259.103 490.828 257.768C488.826 256.433 487.234 254.56 486.054 252.147C484.924 249.683 484.36 246.757 484.36 243.369C484.36 239.16 485.181 235.592 486.824 232.666C488.466 229.689 490.648 227.43 493.369 225.89C496.089 224.35 499.092 223.58 502.378 223.58C503.507 223.58 504.688 223.785 505.92 224.196C507.152 224.555 508.358 225.043 509.539 225.659V204.946L503.918 203.483V202.328L512.619 201.25H513.389V256.536L518.856 257.845V259H510.309L509.616 255.073H509.231C507.485 256.562 505.663 257.717 503.764 258.538C501.916 259.359 499.888 259.77 497.681 259.77ZM487.979 242.137C487.979 245.576 488.543 248.425 489.673 250.684C490.802 252.891 492.265 254.534 494.062 255.612C495.91 256.639 497.809 257.152 499.76 257.152C501.454 257.152 503.148 256.844 504.842 256.228C506.536 255.612 508.101 254.611 509.539 253.225V228.431C507.947 227.558 506.356 226.865 504.765 226.352C503.173 225.839 501.479 225.582 499.683 225.582C497.578 225.582 495.627 226.121 493.831 227.199C492.085 228.277 490.674 230.048 489.596 232.512C488.518 234.925 487.979 238.133 487.979 242.137ZM544.955 259.77C541.31 259.77 538.23 259 535.715 257.46C533.251 255.92 531.377 253.841 530.094 251.223C528.862 248.605 528.246 245.653 528.246 242.368C528.246 238.877 528.964 235.72 530.402 232.897C531.89 230.074 533.815 227.815 536.177 226.121C538.589 224.427 541.207 223.58 544.031 223.58C548.086 223.58 551.269 224.915 553.579 227.584C555.889 230.253 557.223 233.949 557.583 238.672L557.352 238.903H532.173C532.121 239.673 532.096 240.494 532.096 241.367C532.096 245.884 533.302 249.555 535.715 252.378C538.179 255.15 541.618 256.536 546.033 256.536C548.445 256.536 550.627 256.177 552.578 255.458C554.58 254.739 556.145 253.764 557.275 252.532H557.506V253.533C556.376 255.33 554.708 256.818 552.501 257.999C550.345 259.18 547.829 259.77 544.955 259.77ZM543.107 225.274C540.591 225.274 538.333 226.326 536.331 228.431C534.329 230.484 533.02 233.41 532.404 237.209H553.348C552.834 233.462 551.782 230.536 550.191 228.431C548.599 226.326 546.238 225.274 543.107 225.274ZM577.329 259.77C575.532 259.77 573.915 259.565 572.478 259.154C571.092 258.795 569.654 258.256 568.166 257.537V249.529H569.09L570.168 252.994C570.63 254.534 571.477 255.766 572.709 256.69C573.941 257.563 575.686 257.999 577.945 257.999C580.409 257.999 582.308 257.409 583.643 256.228C585.029 254.996 585.722 253.251 585.722 250.992C585.722 248.99 585.183 247.424 584.105 246.295C583.027 245.114 581.025 243.934 578.099 242.753C575.019 241.521 572.734 240.186 571.246 238.749C569.808 237.312 569.09 235.258 569.09 232.589C569.09 230.946 569.526 229.458 570.399 228.123C571.323 226.737 572.529 225.633 574.018 224.812C575.506 223.991 577.098 223.58 578.792 223.58C580.691 223.58 582.385 223.811 583.874 224.273C585.362 224.684 586.646 225.171 587.724 225.736V233.59H586.8L585.799 230.279C585.285 228.482 584.31 227.199 582.873 226.429C581.487 225.659 580.075 225.274 578.638 225.274C576.636 225.274 575.096 225.864 574.018 227.045C572.991 228.226 572.478 229.766 572.478 231.665C572.478 233.564 573.042 235.053 574.172 236.131C575.301 237.209 577.123 238.261 579.639 239.288C581.897 240.212 583.72 241.11 585.106 241.983C586.543 242.856 587.595 243.934 588.263 245.217C588.93 246.449 589.264 248.04 589.264 249.991C589.264 251.736 588.776 253.353 587.801 254.842C586.825 256.331 585.439 257.537 583.643 258.461C581.846 259.334 579.741 259.77 577.329 259.77ZM606.995 211.414C606.174 211.414 605.481 211.132 604.916 210.567C604.351 210.002 604.069 209.309 604.069 208.488C604.069 207.667 604.351 206.974 604.916 206.409C605.481 205.844 606.174 205.562 606.995 205.562C607.816 205.562 608.509 205.844 609.074 206.409C609.639 206.974 609.921 207.667 609.921 208.488C609.921 209.309 609.639 210.002 609.074 210.567C608.509 211.132 607.816 211.414 606.995 211.414ZM601.297 259V257.845L606.148 256.536V227.276L600.527 225.813V224.658L609.228 223.58H609.998V256.536L615.465 257.845V259H601.297ZM639.239 247.373C637.699 247.373 636.236 247.116 634.85 246.603C633.156 247.322 631.976 248.092 631.308 248.913C630.641 249.734 630.307 250.684 630.307 251.762C630.307 253.507 630.923 254.765 632.155 255.535C633.387 256.305 635.287 256.69 637.853 256.69H646.554C649.583 256.69 651.893 257.409 653.484 258.846C655.127 260.283 655.948 262.26 655.948 264.775C655.948 266.88 655.23 268.907 653.792 270.858C652.355 272.809 650.353 274.4 647.786 275.632C645.22 276.864 642.191 277.48 638.7 277.48C634.234 277.48 631.026 276.582 629.075 274.785C627.125 273.04 626.149 270.884 626.149 268.317C626.149 266.418 626.534 264.775 627.304 263.389L632.001 259.462V259.308C628.665 258.333 626.996 256.305 626.996 253.225C626.996 251.531 627.561 250.119 628.69 248.99L633.233 246.295V245.91C631.385 244.935 629.922 243.549 628.844 241.752C627.766 239.904 627.227 237.825 627.227 235.515C627.227 233.256 627.741 231.229 628.767 229.432C629.845 227.635 631.283 226.224 633.079 225.197C634.876 224.119 636.929 223.58 639.239 223.58C640.369 223.58 641.601 223.734 642.935 224.042C644.27 224.299 645.322 224.607 646.092 224.966L656.564 224.35V227.507L648.787 226.968L648.633 227.122C649.455 227.995 650.071 229.227 650.481 230.818C650.943 232.358 651.174 233.924 651.174 235.515C651.174 237.774 650.661 239.801 649.634 241.598C648.608 243.395 647.196 244.806 645.399 245.833C643.603 246.86 641.549 247.373 639.239 247.373ZM640.009 245.833C642.217 245.833 643.962 244.96 645.245 243.215C646.58 241.418 647.247 238.903 647.247 235.669C647.247 232.127 646.426 229.483 644.783 227.738C643.141 225.941 641.113 225.043 638.7 225.043C636.339 225.043 634.491 225.967 633.156 227.815C631.822 229.612 631.154 232.101 631.154 235.284C631.154 238.826 631.976 241.47 633.618 243.215C635.312 244.96 637.443 245.833 640.009 245.833ZM629.691 267.47C629.691 269.831 630.667 271.808 632.617 273.399C634.619 274.99 637.058 275.786 639.932 275.786C642.396 275.786 644.578 275.324 646.477 274.4C648.377 273.527 649.865 272.347 650.943 270.858C652.021 269.421 652.56 267.881 652.56 266.238C652.56 263.774 651.919 262.08 650.635 261.156C649.403 260.232 647.17 259.77 643.936 259.77H635.851C635.081 259.77 634.337 259.719 633.618 259.616C632.13 260.489 631.103 261.541 630.538 262.773C629.974 264.056 629.691 265.622 629.691 267.47ZM666.717 259V257.845L671.568 256.536V227.276L665.947 226.583V225.428L674.263 223.58H675.033L675.341 229.124H675.572C677.472 227.173 679.268 225.762 680.962 224.889C682.656 224.016 684.556 223.58 686.66 223.58C689.894 223.58 692.538 224.478 694.591 226.275C696.696 228.072 697.748 230.69 697.748 234.129V256.536L702.599 257.845V259H688.431V257.845L693.898 256.536V236.208C693.898 233.077 693.051 230.715 691.357 229.124C689.715 227.481 687.533 226.66 684.812 226.66C683.272 226.66 681.604 227.045 679.807 227.815C678.011 228.534 676.548 229.586 675.418 230.972V256.536L680.885 257.845V259H666.717ZM727.896 259.77C724.251 259.77 721.171 259 718.656 257.46C716.192 255.92 714.318 253.841 713.035 251.223C711.803 248.605 711.187 245.653 711.187 242.368C711.187 238.877 711.905 235.72 713.343 232.897C714.831 230.074 716.756 227.815 719.118 226.121C721.53 224.427 724.148 223.58 726.972 223.58C731.027 223.58 734.21 224.915 736.52 227.584C738.83 230.253 740.164 233.949 740.524 238.672L740.293 238.903H715.114C715.062 239.673 715.037 240.494 715.037 241.367C715.037 245.884 716.243 249.555 718.656 252.378C721.12 255.15 724.559 256.536 728.974 256.536C731.386 256.536 733.568 256.177 735.519 255.458C737.521 254.739 739.086 253.764 740.216 252.532H740.447V253.533C739.317 255.33 737.649 256.818 735.442 257.999C733.286 259.18 730.77 259.77 727.896 259.77ZM726.048 225.274C723.532 225.274 721.274 226.326 719.272 228.431C717.27 230.484 715.961 233.41 715.345 237.209H736.289C735.775 233.462 734.723 230.536 733.132 228.431C731.54 226.326 729.179 225.274 726.048 225.274ZM751.03 259V257.845L755.881 256.536V227.276L750.26 226.583V225.428L758.576 223.58H759.346L759.731 230.433H759.885C761.887 228.328 763.478 226.788 764.659 225.813C765.84 224.838 766.815 224.222 767.585 223.965C768.355 223.708 769.228 223.58 770.203 223.58C771.076 223.58 771.871 223.734 772.59 224.042C773.103 224.247 773.463 224.453 773.668 224.658C773.925 224.812 774.053 225.043 774.053 225.351C774.053 225.454 774.027 225.582 773.976 225.736C773.976 225.839 773.95 225.993 773.899 226.198L773.129 228.2H772.975L771.512 227.507C770.793 227.148 769.844 226.968 768.663 226.968C767.174 226.968 765.686 227.379 764.197 228.2C762.708 229.021 761.22 230.459 759.731 232.512V256.536L765.66 257.845V259H751.03ZM815.735 259.77C812.091 259.77 809.011 259 806.495 257.46C804.031 255.92 802.158 253.841 800.874 251.223C799.642 248.605 799.026 245.653 799.026 242.368C799.026 238.877 799.745 235.72 801.182 232.897C802.671 230.074 804.596 227.815 806.957 226.121C809.37 224.427 811.988 223.58 814.811 223.58C818.867 223.58 822.049 224.915 824.359 227.584C826.669 230.253 828.004 233.949 828.363 238.672L828.132 238.903H802.953C802.902 239.673 802.876 240.494 802.876 241.367C802.876 245.884 804.083 249.555 806.495 252.378C808.959 255.15 812.399 256.536 816.813 256.536C819.226 256.536 821.408 256.177 823.358 255.458C825.36 254.739 826.926 253.764 828.055 252.532H828.286V253.533C827.157 255.33 825.489 256.818 823.281 257.999C821.125 259.18 818.61 259.77 815.735 259.77ZM813.887 225.274C811.372 225.274 809.113 226.326 807.111 228.431C805.109 230.484 803.8 233.41 803.184 237.209H824.128C823.615 233.462 822.563 230.536 820.971 228.431C819.38 226.326 817.019 225.274 813.887 225.274ZM838.562 259V257.845L843.413 256.536V227.276L837.792 226.583V225.428L846.108 223.58H846.878L847.186 229.124H847.417C849.316 227.173 851.113 225.762 852.807 224.889C854.501 224.016 856.4 223.58 858.505 223.58C861.739 223.58 864.382 224.478 866.436 226.275C868.54 228.072 869.593 230.69 869.593 234.129V256.536L874.444 257.845V259H860.276V257.845L865.743 256.536V236.208C865.743 233.077 864.896 230.715 863.202 229.124C861.559 227.481 859.377 226.66 856.657 226.66C855.117 226.66 853.448 227.045 851.652 227.815C849.855 228.534 848.392 229.586 847.263 230.972V256.536L852.73 257.845V259H838.562ZM896.968 247.373C895.428 247.373 893.965 247.116 892.579 246.603C890.885 247.322 889.704 248.092 889.037 248.913C888.37 249.734 888.036 250.684 888.036 251.762C888.036 253.507 888.652 254.765 889.884 255.535C891.116 256.305 893.015 256.69 895.582 256.69H904.283C907.312 256.69 909.622 257.409 911.213 258.846C912.856 260.283 913.677 262.26 913.677 264.775C913.677 266.88 912.958 268.907 911.521 270.858C910.084 272.809 908.082 274.4 905.515 275.632C902.948 276.864 899.92 277.48 896.429 277.48C891.963 277.48 888.755 276.582 886.804 274.785C884.853 273.04 883.878 270.884 883.878 268.317C883.878 266.418 884.263 264.775 885.033 263.389L889.73 259.462V259.308C886.393 258.333 884.725 256.305 884.725 253.225C884.725 251.531 885.29 250.119 886.419 248.99L890.962 246.295V245.91C889.114 244.935 887.651 243.549 886.573 241.752C885.495 239.904 884.956 237.825 884.956 235.515C884.956 233.256 885.469 231.229 886.496 229.432C887.574 227.635 889.011 226.224 890.808 225.197C892.605 224.119 894.658 223.58 896.968 223.58C898.097 223.58 899.329 223.734 900.664 224.042C901.999 224.299 903.051 224.607 903.821 224.966L914.293 224.35V227.507L906.516 226.968L906.362 227.122C907.183 227.995 907.799 229.227 908.21 230.818C908.672 232.358 908.903 233.924 908.903 235.515C908.903 237.774 908.39 239.801 907.363 241.598C906.336 243.395 904.925 244.806 903.128 245.833C901.331 246.86 899.278 247.373 896.968 247.373ZM897.738 245.833C899.945 245.833 901.691 244.96 902.974 243.215C904.309 241.418 904.976 238.903 904.976 235.669C904.976 232.127 904.155 229.483 902.512 227.738C900.869 225.941 898.842 225.043 896.429 225.043C894.068 225.043 892.22 225.967 890.885 227.815C889.55 229.612 888.883 232.101 888.883 235.284C888.883 238.826 889.704 241.47 891.347 243.215C893.041 244.96 895.171 245.833 897.738 245.833ZM887.42 267.47C887.42 269.831 888.395 271.808 890.346 273.399C892.348 274.99 894.786 275.786 897.661 275.786C900.125 275.786 902.307 275.324 904.206 274.4C906.105 273.527 907.594 272.347 908.672 270.858C909.75 269.421 910.289 267.881 910.289 266.238C910.289 263.774 909.647 262.08 908.364 261.156C907.132 260.232 904.899 259.77 901.665 259.77H893.58C892.81 259.77 892.066 259.719 891.347 259.616C889.858 260.489 888.832 261.541 888.267 262.773C887.702 264.056 887.42 265.622 887.42 267.47ZM930.606 211.414C929.785 211.414 929.092 211.132 928.527 210.567C927.962 210.002 927.68 209.309 927.68 208.488C927.68 207.667 927.962 206.974 928.527 206.409C929.092 205.844 929.785 205.562 930.606 205.562C931.427 205.562 932.12 205.844 932.685 206.409C933.25 206.974 933.532 207.667 933.532 208.488C933.532 209.309 933.25 210.002 932.685 210.567C932.12 211.132 931.427 211.414 930.606 211.414ZM924.908 259V257.845L929.759 256.536V227.276L924.138 225.813V224.658L932.839 223.58H933.609V256.536L939.076 257.845V259H924.908ZM949.529 259V257.845L954.38 256.536V227.276L948.759 226.583V225.428L957.075 223.58H957.845L958.153 229.124H958.384C960.284 227.173 962.08 225.762 963.774 224.889C965.468 224.016 967.368 223.58 969.472 223.58C972.706 223.58 975.35 224.478 977.403 226.275C979.508 228.072 980.56 230.69 980.56 234.129V256.536L985.411 257.845V259H971.243V257.845L976.71 256.536V236.208C976.71 233.077 975.863 230.715 974.169 229.124C972.527 227.481 970.345 226.66 967.624 226.66C966.084 226.66 964.416 227.045 962.619 227.815C960.823 228.534 959.36 229.586 958.23 230.972V256.536L963.697 257.845V259H949.529ZM1010.71 259.77C1007.06 259.77 1003.98 259 1001.47 257.46C999.004 255.92 997.13 253.841 995.847 251.223C994.615 248.605 993.999 245.653 993.999 242.368C993.999 238.877 994.717 235.72 996.155 232.897C997.643 230.074 999.568 227.815 1001.93 226.121C1004.34 224.427 1006.96 223.58 1009.78 223.58C1013.84 223.58 1017.02 224.915 1019.33 227.584C1021.64 230.253 1022.98 233.949 1023.34 238.672L1023.1 238.903H997.926C997.874 239.673 997.849 240.494 997.849 241.367C997.849 245.884 999.055 249.555 1001.47 252.378C1003.93 255.15 1007.37 256.536 1011.79 256.536C1014.2 256.536 1016.38 256.177 1018.33 255.458C1020.33 254.739 1021.9 253.764 1023.03 252.532H1023.26V253.533C1022.13 255.33 1020.46 256.818 1018.25 257.999C1016.1 259.18 1013.58 259.77 1010.71 259.77ZM1008.86 225.274C1006.34 225.274 1004.09 226.326 1002.08 228.431C1000.08 230.484 998.773 233.41 998.157 237.209H1019.1C1018.59 233.462 1017.53 230.536 1015.94 228.431C1014.35 226.326 1011.99 225.274 1008.86 225.274ZM1050.38 259.77C1046.73 259.77 1043.65 259 1041.14 257.46C1038.67 255.92 1036.8 253.841 1035.52 251.223C1034.29 248.605 1033.67 245.653 1033.67 242.368C1033.67 238.877 1034.39 235.72 1035.83 232.897C1037.31 230.074 1039.24 227.815 1041.6 226.121C1044.01 224.427 1046.63 223.58 1049.45 223.58C1053.51 223.58 1056.69 224.915 1059 227.584C1061.31 230.253 1062.65 233.949 1063.01 238.672L1062.78 238.903H1037.6C1037.55 239.673 1037.52 240.494 1037.52 241.367C1037.52 245.884 1038.73 249.555 1041.14 252.378C1043.6 255.15 1047.04 256.536 1051.46 256.536C1053.87 256.536 1056.05 256.177 1058 255.458C1060 254.739 1061.57 253.764 1062.7 252.532H1062.93V253.533C1061.8 255.33 1060.13 256.818 1057.92 257.999C1055.77 259.18 1053.25 259.77 1050.38 259.77ZM1048.53 225.274C1046.02 225.274 1043.76 226.326 1041.75 228.431C1039.75 230.484 1038.44 233.41 1037.83 237.209H1058.77C1058.26 233.462 1057.21 230.536 1055.61 228.431C1054.02 226.326 1051.66 225.274 1048.53 225.274ZM1073.51 259V257.845L1078.36 256.536V227.276L1072.74 226.583V225.428L1081.06 223.58H1081.83L1082.21 230.433H1082.37C1084.37 228.328 1085.96 226.788 1087.14 225.813C1088.32 224.838 1089.3 224.222 1090.07 223.965C1090.84 223.708 1091.71 223.58 1092.69 223.58C1093.56 223.58 1094.35 223.734 1095.07 224.042C1095.59 224.247 1095.95 224.453 1096.15 224.658C1096.41 224.812 1096.54 225.043 1096.54 225.351C1096.54 225.454 1096.51 225.582 1096.46 225.736C1096.46 225.839 1096.43 225.993 1096.38 226.198L1095.61 228.2H1095.46L1094 227.507C1093.28 227.148 1092.33 226.968 1091.15 226.968C1089.66 226.968 1088.17 227.379 1086.68 228.2C1085.19 229.021 1083.7 230.459 1082.21 232.512V256.536L1088.14 257.845V259H1073.51ZM1122.43 259V257.845L1127.28 256.536V227.276L1121.66 226.583V225.428L1129.98 223.58H1130.75L1131.13 230.433H1131.29C1133.29 228.328 1134.88 226.788 1136.06 225.813C1137.24 224.838 1138.22 224.222 1138.99 223.965C1139.76 223.708 1140.63 223.58 1141.61 223.58C1142.48 223.58 1143.27 223.734 1143.99 224.042C1144.51 224.247 1144.87 224.453 1145.07 224.658C1145.33 224.812 1145.46 225.043 1145.46 225.351C1145.46 225.454 1145.43 225.582 1145.38 225.736C1145.38 225.839 1145.35 225.993 1145.3 226.198L1144.53 228.2H1144.38L1142.92 227.507C1142.2 227.148 1141.25 226.968 1140.07 226.968C1138.58 226.968 1137.09 227.379 1135.6 228.2C1134.11 229.021 1132.62 230.459 1131.13 232.512V256.536L1137.06 257.845V259H1122.43ZM1167.89 259.77C1164.24 259.77 1161.16 259 1158.65 257.46C1156.18 255.92 1154.31 253.841 1153.03 251.223C1151.8 248.605 1151.18 245.653 1151.18 242.368C1151.18 238.877 1151.9 235.72 1153.34 232.897C1154.82 230.074 1156.75 227.815 1159.11 226.121C1161.52 224.427 1164.14 223.58 1166.96 223.58C1171.02 223.58 1174.2 224.915 1176.51 227.584C1178.82 230.253 1180.16 233.949 1180.52 238.672L1180.29 238.903H1155.11C1155.06 239.673 1155.03 240.494 1155.03 241.367C1155.03 245.884 1156.24 249.555 1158.65 252.378C1161.11 255.15 1164.55 256.536 1168.97 256.536C1171.38 256.536 1173.56 256.177 1175.51 255.458C1177.51 254.739 1179.08 253.764 1180.21 252.532H1180.44V253.533C1179.31 255.33 1177.64 256.818 1175.43 257.999C1173.28 259.18 1170.76 259.77 1167.89 259.77ZM1166.04 225.274C1163.53 225.274 1161.27 226.326 1159.26 228.431C1157.26 230.484 1155.95 233.41 1155.34 237.209H1176.28C1175.77 233.462 1174.72 230.536 1173.12 228.431C1171.53 226.326 1169.17 225.274 1166.04 225.274ZM1200.26 259.77C1198.47 259.77 1196.85 259.565 1195.41 259.154C1194.03 258.795 1192.59 258.256 1191.1 257.537V249.529H1192.02L1193.1 252.994C1193.56 254.534 1194.41 255.766 1195.64 256.69C1196.88 257.563 1198.62 257.999 1200.88 257.999C1203.34 257.999 1205.24 257.409 1206.58 256.228C1207.96 254.996 1208.66 253.251 1208.66 250.992C1208.66 248.99 1208.12 247.424 1207.04 246.295C1205.96 245.114 1203.96 243.934 1201.03 242.753C1197.95 241.521 1195.67 240.186 1194.18 238.749C1192.74 237.312 1192.02 235.258 1192.02 232.589C1192.02 230.946 1192.46 229.458 1193.33 228.123C1194.26 226.737 1195.46 225.633 1196.95 224.812C1198.44 223.991 1200.03 223.58 1201.73 223.58C1203.63 223.58 1205.32 223.811 1206.81 224.273C1208.3 224.684 1209.58 225.171 1210.66 225.736V233.59H1209.73L1208.73 230.279C1208.22 228.482 1207.24 227.199 1205.81 226.429C1204.42 225.659 1203.01 225.274 1201.57 225.274C1199.57 225.274 1198.03 225.864 1196.95 227.045C1195.93 228.226 1195.41 229.766 1195.41 231.665C1195.41 233.564 1195.98 235.053 1197.11 236.131C1198.24 237.209 1200.06 238.261 1202.57 239.288C1204.83 240.212 1206.65 241.11 1208.04 241.983C1209.48 242.856 1210.53 243.934 1211.2 245.217C1211.86 246.449 1212.2 248.04 1212.2 249.991C1212.2 251.736 1211.71 253.353 1210.74 254.842C1209.76 256.331 1208.37 257.537 1206.58 258.461C1204.78 259.334 1202.68 259.77 1200.26 259.77ZM1239.86 259.77C1236.22 259.77 1233.14 259 1230.62 257.46C1228.16 255.92 1226.28 253.841 1225 251.223C1223.77 248.605 1223.15 245.653 1223.15 242.368C1223.15 238.877 1223.87 235.72 1225.31 232.897C1226.8 230.074 1228.72 227.815 1231.08 226.121C1233.5 224.427 1236.11 223.58 1238.94 223.58C1242.99 223.58 1246.18 224.915 1248.49 227.584C1250.8 230.253 1252.13 233.949 1252.49 238.672L1252.26 238.903H1227.08C1227.03 239.673 1227 240.494 1227 241.367C1227 245.884 1228.21 249.555 1230.62 252.378C1233.09 255.15 1236.53 256.536 1240.94 256.536C1243.35 256.536 1245.53 256.177 1247.48 255.458C1249.49 254.739 1251.05 253.764 1252.18 252.532H1252.41V253.533C1251.28 255.33 1249.62 256.818 1247.41 257.999C1245.25 259.18 1242.74 259.77 1239.86 259.77ZM1238.01 225.274C1235.5 225.274 1233.24 226.326 1231.24 228.431C1229.24 230.484 1227.93 233.41 1227.31 237.209H1248.25C1247.74 233.462 1246.69 230.536 1245.1 228.431C1243.51 226.326 1241.15 225.274 1238.01 225.274ZM1270.23 259.77C1267.87 259.77 1265.9 259.077 1264.31 257.691C1262.71 256.254 1261.92 254.277 1261.92 251.762C1261.92 249.298 1262.79 247.245 1264.54 245.602C1266.33 243.959 1269.28 242.625 1273.39 241.598L1280.94 239.673V233.282C1280.94 231.075 1280.14 229.304 1278.55 227.969C1276.96 226.583 1275.14 225.89 1273.08 225.89C1270.88 225.89 1269.31 226.352 1268.39 227.276C1267.51 228.149 1267.08 229.355 1267.08 230.895V234.052L1266.69 234.437H1264.69C1263.87 234.437 1263.33 234.309 1263.07 234.052C1262.82 233.795 1262.69 233.308 1262.69 232.589C1262.69 231.614 1263.02 230.613 1263.69 229.586C1264.36 228.559 1265.33 227.635 1266.62 226.814C1268 225.941 1269.39 225.197 1270.77 224.581C1272.21 223.914 1273.57 223.58 1274.85 223.58C1277.93 223.58 1280.35 224.273 1282.09 225.659C1283.89 226.994 1284.79 229.098 1284.79 231.973V255.92C1285.2 256.279 1285.66 256.562 1286.17 256.767C1286.74 256.972 1287.38 257.075 1288.1 257.075H1292.1L1292.18 257.152V257.306C1291.82 257.819 1291.23 258.358 1290.41 258.923C1289.59 259.488 1288.48 259.77 1287.1 259.77C1285.3 259.77 1283.91 259.308 1282.94 258.384C1281.96 257.46 1281.37 256.382 1281.17 255.15H1281.01C1279.68 256.485 1278.06 257.588 1276.16 258.461C1274.32 259.334 1272.34 259.77 1270.23 259.77ZM1265.77 250.376C1265.77 252.481 1266.36 254.072 1267.54 255.15C1268.72 256.177 1270.39 256.69 1272.54 256.69C1273.83 256.69 1275.21 256.51 1276.7 256.151C1278.19 255.74 1279.6 255.124 1280.94 254.303V241.29C1276.68 242.163 1273.44 243.035 1271.24 243.908C1269.08 244.781 1267.62 245.73 1266.85 246.757C1266.13 247.784 1265.77 248.99 1265.77 250.376ZM1299.66 259V257.845L1304.51 256.536V227.276L1298.89 226.583V225.428L1307.21 223.58H1307.98L1308.36 230.433H1308.51C1310.52 228.328 1312.11 226.788 1313.29 225.813C1314.47 224.838 1315.44 224.222 1316.21 223.965C1316.98 223.708 1317.86 223.58 1318.83 223.58C1319.71 223.58 1320.5 223.734 1321.22 224.042C1321.73 224.247 1322.09 224.453 1322.3 224.658C1322.55 224.812 1322.68 225.043 1322.68 225.351C1322.68 225.454 1322.66 225.582 1322.61 225.736C1322.61 225.839 1322.58 225.993 1322.53 226.198L1321.76 228.2H1321.6L1320.14 227.507C1319.42 227.148 1318.47 226.968 1317.29 226.968C1315.8 226.968 1314.32 227.379 1312.83 228.2C1311.34 229.021 1309.85 230.459 1308.36 232.512V256.536L1314.29 257.845V259H1299.66ZM1344.88 259.77C1341.29 259.77 1338.26 259 1335.8 257.46C1333.39 255.92 1331.54 253.841 1330.25 251.223C1329.02 248.605 1328.41 245.653 1328.41 242.368C1328.41 238.775 1329.12 235.566 1330.56 232.743C1332.05 229.868 1334.08 227.635 1336.65 226.044C1339.26 224.401 1342.21 223.58 1345.5 223.58C1347.55 223.58 1349.38 223.862 1350.97 224.427C1352.56 224.992 1353.84 225.608 1354.82 226.275C1356.46 227.404 1357.28 228.38 1357.28 229.201C1357.28 229.56 1357.1 229.894 1356.74 230.202L1354.66 231.973H1354.36L1353.35 230.587C1352.22 229.047 1350.99 227.789 1349.66 226.814C1348.37 225.787 1346.71 225.274 1344.65 225.274C1341.06 225.274 1338.08 226.634 1335.72 229.355C1333.41 232.024 1332.26 236.028 1332.26 241.367C1332.26 245.884 1333.44 249.555 1335.8 252.378C1338.21 255.15 1341.6 256.536 1345.96 256.536C1348.32 256.536 1350.51 256.177 1352.51 255.458C1354.51 254.739 1356.07 253.764 1357.2 252.532H1357.44V253.533C1356.25 255.33 1354.59 256.818 1352.43 257.999C1350.27 259.18 1347.76 259.77 1344.88 259.77ZM1367.19 259V257.845L1372.04 256.536V204.946L1366.42 203.483V202.328L1375.12 201.25H1375.89V229.124H1376.04C1377.94 227.173 1379.74 225.762 1381.43 224.889C1383.13 224.016 1385.03 223.58 1387.13 223.58C1390.37 223.58 1393.01 224.478 1395.06 226.275C1397.17 228.072 1398.22 230.69 1398.22 234.129V256.536L1403.07 257.845V259H1388.9V257.845L1394.37 256.536V236.208C1394.37 233.077 1393.52 230.715 1391.83 229.124C1390.19 227.481 1388.01 226.66 1385.28 226.66C1383.74 226.66 1382.08 227.045 1380.28 227.815C1378.48 228.534 1377.02 229.586 1375.89 230.972V256.536L1381.36 257.845V259H1367.19ZM1428.37 259.77C1424.72 259.77 1421.64 259 1419.13 257.46C1416.66 255.92 1414.79 253.841 1413.51 251.223C1412.27 248.605 1411.66 245.653 1411.66 242.368C1411.66 238.877 1412.38 235.72 1413.81 232.897C1415.3 230.074 1417.23 227.815 1419.59 226.121C1422 224.427 1424.62 223.58 1427.44 223.58C1431.5 223.58 1434.68 224.915 1436.99 227.584C1439.3 230.253 1440.64 233.949 1441 238.672L1440.76 238.903H1415.59C1415.53 239.673 1415.51 240.494 1415.51 241.367C1415.51 245.884 1416.71 249.555 1419.13 252.378C1421.59 255.15 1425.03 256.536 1429.45 256.536C1431.86 256.536 1434.04 256.177 1435.99 255.458C1437.99 254.739 1439.56 253.764 1440.69 252.532H1440.92V253.533C1439.79 255.33 1438.12 256.818 1435.91 257.999C1433.76 259.18 1431.24 259.77 1428.37 259.77ZM1426.52 225.274C1424 225.274 1421.75 226.326 1419.74 228.431C1417.74 230.484 1416.43 233.41 1415.82 237.209H1436.76C1436.25 233.462 1435.19 230.536 1433.6 228.431C1432.01 226.326 1429.65 225.274 1426.52 225.274ZM1451.5 259V257.845L1456.35 256.536V227.276L1450.73 226.583V225.428L1459.05 223.58H1459.82L1460.2 230.433H1460.36C1462.36 228.328 1463.95 226.788 1465.13 225.813C1466.31 224.838 1467.29 224.222 1468.06 223.965C1468.83 223.708 1469.7 223.58 1470.68 223.58C1471.55 223.58 1472.34 223.734 1473.06 224.042C1473.58 224.247 1473.93 224.453 1474.14 224.658C1474.4 224.812 1474.53 225.043 1474.53 225.351C1474.53 225.454 1474.5 225.582 1474.45 225.736C1474.45 225.839 1474.42 225.993 1474.37 226.198L1473.6 228.2H1473.45L1471.98 227.507C1471.27 227.148 1470.32 226.968 1469.14 226.968C1467.65 226.968 1466.16 227.379 1464.67 228.2C1463.18 229.021 1461.69 230.459 1460.2 232.512V256.536L1466.13 257.845V259H1451.5Z" fill="#BABCBE"/>
<path d="M1509.66 259.77C1507.87 259.77 1506.25 259.565 1504.81 259.154C1503.43 258.795 1501.99 258.256 1500.5 257.537V249.529H1501.42L1502.5 252.994C1502.96 254.534 1503.81 255.766 1505.04 256.69C1506.27 257.563 1508.02 257.999 1510.28 257.999C1512.74 257.999 1514.64 257.409 1515.98 256.228C1517.36 254.996 1518.06 253.251 1518.06 250.992C1518.06 248.99 1517.52 247.424 1516.44 246.295C1515.36 245.114 1513.36 243.934 1510.43 242.753C1507.35 241.521 1505.07 240.186 1503.58 238.749C1502.14 237.312 1501.42 235.258 1501.42 232.589C1501.42 230.946 1501.86 229.458 1502.73 228.123C1503.66 226.737 1504.86 225.633 1506.35 224.812C1507.84 223.991 1509.43 223.58 1511.13 223.58C1513.02 223.58 1514.72 223.811 1516.21 224.273C1517.7 224.684 1518.98 225.171 1520.06 225.736V233.59H1519.13L1518.13 230.279C1517.62 228.482 1516.64 227.199 1515.21 226.429C1513.82 225.659 1512.41 225.274 1510.97 225.274C1508.97 225.274 1507.43 225.864 1506.35 227.045C1505.32 228.226 1504.81 229.766 1504.81 231.665C1504.81 233.564 1505.38 235.053 1506.51 236.131C1507.63 237.209 1509.46 238.261 1511.97 239.288C1514.23 240.212 1516.05 241.11 1517.44 241.983C1518.88 242.856 1519.93 243.934 1520.6 245.217C1521.26 246.449 1521.6 248.04 1521.6 249.991C1521.6 251.736 1521.11 253.353 1520.13 254.842C1519.16 256.331 1517.77 257.537 1515.98 258.461C1514.18 259.334 1512.07 259.77 1509.66 259.77ZM1551.8 259.77C1548.21 259.77 1545.18 259 1542.72 257.46C1540.3 255.92 1538.46 253.841 1537.17 251.223C1535.94 248.605 1535.32 245.653 1535.32 242.368C1535.32 238.775 1536.04 235.566 1537.48 232.743C1538.97 229.868 1541 227.635 1543.56 226.044C1546.18 224.401 1549.13 223.58 1552.42 223.58C1554.47 223.58 1556.29 223.862 1557.89 224.427C1559.48 224.992 1560.76 225.608 1561.74 226.275C1563.38 227.404 1564.2 228.38 1564.2 229.201C1564.2 229.56 1564.02 229.894 1563.66 230.202L1561.58 231.973H1561.27L1560.27 230.587C1559.14 229.047 1557.91 227.789 1556.58 226.814C1555.29 225.787 1553.62 225.274 1551.57 225.274C1547.98 225.274 1545 226.634 1542.64 229.355C1540.33 232.024 1539.17 236.028 1539.17 241.367C1539.17 245.884 1540.36 249.555 1542.72 252.378C1545.13 255.15 1548.52 256.536 1552.88 256.536C1555.24 256.536 1557.42 256.177 1559.43 255.458C1561.43 254.739 1562.99 253.764 1564.12 252.532H1564.35V253.533C1563.17 255.33 1561.5 256.818 1559.35 257.999C1557.19 259.18 1554.68 259.77 1551.8 259.77ZM1583.04 211.414C1582.22 211.414 1581.53 211.132 1580.96 210.567C1580.4 210.002 1580.11 209.309 1580.11 208.488C1580.11 207.667 1580.4 206.974 1580.96 206.409C1581.53 205.844 1582.22 205.562 1583.04 205.562C1583.86 205.562 1584.55 205.844 1585.12 206.409C1585.68 206.974 1585.97 207.667 1585.97 208.488C1585.97 209.309 1585.68 210.002 1585.12 210.567C1584.55 211.132 1583.86 211.414 1583.04 211.414ZM1577.34 259V257.845L1582.19 256.536V227.276L1576.57 225.813V224.658L1585.27 223.58H1586.04V256.536L1591.51 257.845V259H1577.34ZM1620.83 259.77C1617.18 259.77 1614.1 259 1611.59 257.46C1609.12 255.92 1607.25 253.841 1605.97 251.223C1604.74 248.605 1604.12 245.653 1604.12 242.368C1604.12 238.877 1604.84 235.72 1606.28 232.897C1607.76 230.074 1609.69 227.815 1612.05 226.121C1614.46 224.427 1617.08 223.58 1619.9 223.58C1623.96 223.58 1627.14 224.915 1629.45 227.584C1631.76 230.253 1633.1 233.949 1633.46 238.672L1633.23 238.903H1608.05C1607.99 239.673 1607.97 240.494 1607.97 241.367C1607.97 245.884 1609.18 249.555 1611.59 252.378C1614.05 255.15 1617.49 256.536 1621.91 256.536C1624.32 256.536 1626.5 256.177 1628.45 255.458C1630.45 254.739 1632.02 253.764 1633.15 252.532H1633.38V253.533C1632.25 255.33 1630.58 256.818 1628.37 257.999C1626.22 259.18 1623.7 259.77 1620.83 259.77ZM1618.98 225.274C1616.46 225.274 1614.21 226.326 1612.2 228.431C1610.2 230.484 1608.89 233.41 1608.28 237.209H1629.22C1628.71 233.462 1627.66 230.536 1626.06 228.431C1624.47 226.326 1622.11 225.274 1618.98 225.274ZM1646.43 259V257.845L1651.28 256.536V227.276L1645.66 226.583V225.428L1653.97 223.58H1654.74L1655.05 229.124H1655.28C1657.18 227.173 1658.98 225.762 1660.67 224.889C1662.37 224.016 1664.26 223.58 1666.37 223.58C1669.6 223.58 1672.25 224.478 1674.3 226.275C1676.4 228.072 1677.46 230.69 1677.46 234.129V256.536L1682.31 257.845V259H1668.14V257.845L1673.61 256.536V236.208C1673.61 233.077 1672.76 230.715 1671.07 229.124C1669.42 227.481 1667.24 226.66 1664.52 226.66C1662.98 226.66 1661.31 227.045 1659.52 227.815C1657.72 228.534 1656.26 229.586 1655.13 230.972V256.536L1660.59 257.845V259H1646.43ZM1705.06 259.77C1702.96 259.77 1701.24 259.103 1699.9 257.768C1698.62 256.433 1697.98 254.56 1697.98 252.147V226.968H1691.2V226.275L1698.44 224.35L1700.98 215.88H1701.83V224.35H1711.99V226.968H1701.83V251.993C1701.83 253.584 1702.32 254.791 1703.29 255.612C1704.27 256.382 1705.55 256.767 1707.14 256.767C1708.27 256.767 1709.3 256.639 1710.22 256.382C1711.15 256.125 1712.02 255.766 1712.84 255.304L1712.92 255.381V255.689C1712.51 256.562 1711.63 257.46 1710.3 258.384C1708.96 259.308 1707.22 259.77 1705.06 259.77ZM1730.48 211.414C1729.66 211.414 1728.97 211.132 1728.4 210.567C1727.84 210.002 1727.55 209.309 1727.55 208.488C1727.55 207.667 1727.84 206.974 1728.4 206.409C1728.97 205.844 1729.66 205.562 1730.48 205.562C1731.3 205.562 1731.99 205.844 1732.56 206.409C1733.12 206.974 1733.41 207.667 1733.41 208.488C1733.41 209.309 1733.12 210.002 1732.56 210.567C1731.99 211.132 1731.3 211.414 1730.48 211.414ZM1724.78 259V257.845L1729.63 256.536V227.276L1724.01 225.813V224.658L1732.71 223.58H1733.48V256.536L1738.95 257.845V259H1724.78ZM1761.72 259.77C1759.93 259.77 1758.31 259.565 1756.87 259.154C1755.49 258.795 1754.05 258.256 1752.56 257.537V249.529H1753.48L1754.56 252.994C1755.02 254.534 1755.87 255.766 1757.1 256.69C1758.33 257.563 1760.08 257.999 1762.34 257.999C1764.8 257.999 1766.7 257.409 1768.04 256.228C1769.42 254.996 1770.12 253.251 1770.12 250.992C1770.12 248.99 1769.58 247.424 1768.5 246.295C1767.42 245.114 1765.42 243.934 1762.49 242.753C1759.41 241.521 1757.13 240.186 1755.64 238.749C1754.2 237.312 1753.48 235.258 1753.48 232.589C1753.48 230.946 1753.92 229.458 1754.79 228.123C1755.72 226.737 1756.92 225.633 1758.41 224.812C1759.9 223.991 1761.49 223.58 1763.19 223.58C1765.09 223.58 1766.78 223.811 1768.27 224.273C1769.76 224.684 1771.04 225.171 1772.12 225.736V233.59H1771.19L1770.19 230.279C1769.68 228.482 1768.7 227.199 1767.27 226.429C1765.88 225.659 1764.47 225.274 1763.03 225.274C1761.03 225.274 1759.49 225.864 1758.41 227.045C1757.39 228.226 1756.87 229.766 1756.87 231.665C1756.87 233.564 1757.44 235.053 1758.57 236.131C1759.7 237.209 1761.52 238.261 1764.03 239.288C1766.29 240.212 1768.11 241.11 1769.5 241.983C1770.94 242.856 1771.99 243.934 1772.66 245.217C1773.32 246.449 1773.66 248.04 1773.66 249.991C1773.66 251.736 1773.17 253.353 1772.19 254.842C1771.22 256.331 1769.83 257.537 1768.04 258.461C1766.24 259.334 1764.14 259.77 1761.72 259.77ZM1798.78 259.77C1796.68 259.77 1794.96 259.103 1793.62 257.768C1792.34 256.433 1791.7 254.56 1791.7 252.147V226.968H1784.92V226.275L1792.16 224.35L1794.7 215.88H1795.55V224.35H1805.71V226.968H1795.55V251.993C1795.55 253.584 1796.03 254.791 1797.01 255.612C1797.99 256.382 1799.27 256.767 1800.86 256.767C1801.99 256.767 1803.02 256.639 1803.94 256.382C1804.86 256.125 1805.74 255.766 1806.56 255.304L1806.63 255.381V255.689C1806.22 256.562 1805.35 257.46 1804.02 258.384C1802.68 259.308 1800.94 259.77 1798.78 259.77Z" fill="#F4B400"/>
<path d="M480.664 238.98H775.901V241.29H480.664V238.98ZM795.176 238.98H1098.38V241.29H795.176V238.98ZM1117.66 238.98H1476.37V241.29H1117.66V238.98Z" fill="#BABCBE"/>
<path d="M262.632 84.7506C74.654 157.656 197.7 236.809 282.721 267.272" stroke="#F4B400" stroke-width="1.6"/>
<ellipse cx="12.6707" cy="12.671" rx="12.6707" ry="12.671" transform="matrix(-0.990268 -0.139173 -0.139173 0.990268 297.337 256.257)" fill="#F4B400"/>
<ellipse cx="12.6707" cy="12.671" rx="12.6707" ry="12.671" transform="matrix(-0.990268 -0.139173 -0.139173 0.990268 281.274 73.3848)" fill="#F4B400"/>
<ellipse cx="1666.29" cy="611.291" rx="13.29" ry="13.2913" fill="#CABCBE"/>
<ellipse cx="1665.29" cy="374.291" rx="13.29" ry="13.2913" fill="#CABCBE"/>
<line x1="1665.82" y1="607.004" x2="1665.82" y2="387.004" stroke="#CABCBE" stroke-width="2.4"/>
<ellipse cx="13.29" cy="13.2913" rx="13.29" ry="13.2913" transform="matrix(0 -1 -1 0 909.583 624.58)" fill="#CABCBE"/>
<ellipse cx="13.29" cy="13.2913" rx="13.29" ry="13.2913" transform="matrix(0 -1 -1 0 1801.07 434.07)" fill="#CABCBE"/>
<line y1="-1.2" x2="904" y2="-1.2" transform="matrix(0.978148 -0.207912 -0.207912 -0.978148 904 607.952)" stroke="#CABCBE" stroke-width="2.4"/>
</svg>
