<svg width="1864" height="474" viewBox="0 0 1864 474" fill="none" xmlns="http://www.w3.org/2000/svg">
<rect y="170" width="1864" height="304" rx="6.1" fill="#424242" fill-opacity="0.9"/>
<path d="M241.354 345V343.845L246.205 342.536V313.276L240.584 312.583V311.428L248.9 309.58H249.67L249.978 315.124H250.209C252.006 313.276 253.7 311.89 255.291 310.966C256.883 310.042 258.628 309.58 260.527 309.58C262.683 309.58 264.583 310.042 266.225 310.966C267.868 311.89 269.1 313.276 269.921 315.124H270.075C271.923 313.225 273.669 311.839 275.311 310.966C276.954 310.042 278.776 309.58 280.778 309.58C283.91 309.58 286.476 310.478 288.478 312.275C290.48 314.072 291.481 316.69 291.481 320.129V342.536L296.332 343.845V345H282.164V343.845L287.631 342.536V322.208C287.631 319.077 286.81 316.715 285.167 315.124C283.576 313.481 281.497 312.66 278.93 312.66C277.544 312.66 276.03 312.994 274.387 313.661C272.796 314.277 271.461 315.201 270.383 316.433C270.691 317.562 270.845 318.794 270.845 320.129V342.536L275.696 343.845V345H261.528V343.845L266.995 342.536V322.208C266.995 319.077 266.225 316.715 264.685 315.124C263.145 313.481 261.143 312.66 258.679 312.66C257.242 312.66 255.702 313.045 254.059 313.815C252.417 314.534 251.082 315.56 250.055 316.895V342.536L255.522 343.845V345H241.354ZM329.737 345.77C327.376 345.77 325.399 345.077 323.808 343.691C322.217 342.254 321.421 340.277 321.421 337.762C321.421 335.298 322.294 333.245 324.039 331.602C325.836 329.959 328.787 328.625 332.894 327.598L340.44 325.673V319.282C340.44 317.075 339.644 315.304 338.053 313.969C336.462 312.583 334.639 311.89 332.586 311.89C330.379 311.89 328.813 312.352 327.889 313.276C327.016 314.149 326.58 315.355 326.58 316.895V320.052L326.195 320.437H324.193C323.372 320.437 322.833 320.309 322.576 320.052C322.319 319.795 322.191 319.308 322.191 318.589C322.191 317.614 322.525 316.613 323.192 315.586C323.859 314.559 324.835 313.635 326.118 312.814C327.504 311.941 328.89 311.197 330.276 310.581C331.713 309.914 333.074 309.58 334.357 309.58C337.437 309.58 339.85 310.273 341.595 311.659C343.392 312.994 344.29 315.098 344.29 317.973V341.92C344.701 342.279 345.163 342.562 345.676 342.767C346.241 342.972 346.882 343.075 347.601 343.075H351.605L351.682 343.152V343.306C351.323 343.819 350.732 344.358 349.911 344.923C349.09 345.488 347.986 345.77 346.6 345.77C344.803 345.77 343.417 345.308 342.442 344.384C341.467 343.46 340.876 342.382 340.671 341.15H340.517C339.182 342.485 337.565 343.588 335.666 344.461C333.818 345.334 331.842 345.77 329.737 345.77ZM325.271 336.376C325.271 338.481 325.861 340.072 327.042 341.15C328.223 342.177 329.891 342.69 332.047 342.69C333.33 342.69 334.716 342.51 336.205 342.151C337.694 341.74 339.105 341.124 340.44 340.303V327.29C336.179 328.163 332.945 329.035 330.738 329.908C328.582 330.781 327.119 331.73 326.349 332.757C325.63 333.784 325.271 334.99 325.271 336.376ZM389.192 333.373C387.652 333.373 386.189 333.116 384.803 332.603C383.109 333.322 381.929 334.092 381.261 334.913C380.594 335.734 380.26 336.684 380.26 337.762C380.26 339.507 380.876 340.765 382.108 341.535C383.34 342.305 385.24 342.69 387.806 342.69H396.507C399.536 342.69 401.846 343.409 403.437 344.846C405.08 346.283 405.901 348.26 405.901 350.775C405.901 352.88 405.183 354.907 403.745 356.858C402.308 358.809 400.306 360.4 397.739 361.632C395.173 362.864 392.144 363.48 388.653 363.48C384.187 363.48 380.979 362.582 379.028 360.785C377.078 359.04 376.102 356.884 376.102 354.317C376.102 352.418 376.487 350.775 377.257 349.389L381.954 345.462V345.308C378.618 344.333 376.949 342.305 376.949 339.225C376.949 337.531 377.514 336.119 378.643 334.99L383.186 332.295V331.91C381.338 330.935 379.875 329.549 378.797 327.752C377.719 325.904 377.18 323.825 377.18 321.515C377.18 319.256 377.694 317.229 378.72 315.432C379.798 313.635 381.236 312.224 383.032 311.197C384.829 310.119 386.882 309.58 389.192 309.58C390.322 309.58 391.554 309.734 392.888 310.042C394.223 310.299 395.275 310.607 396.045 310.966L406.517 310.35V313.507L398.74 312.968L398.586 313.122C399.408 313.995 400.024 315.227 400.434 316.818C400.896 318.358 401.127 319.924 401.127 321.515C401.127 323.774 400.614 325.801 399.587 327.598C398.561 329.395 397.149 330.806 395.352 331.833C393.556 332.86 391.502 333.373 389.192 333.373ZM389.962 331.833C392.17 331.833 393.915 330.96 395.198 329.215C396.533 327.418 397.2 324.903 397.2 321.669C397.2 318.127 396.379 315.483 394.736 313.738C393.094 311.941 391.066 311.043 388.653 311.043C386.292 311.043 384.444 311.967 383.109 313.815C381.775 315.612 381.107 318.101 381.107 321.284C381.107 324.826 381.929 327.47 383.571 329.215C385.265 330.96 387.396 331.833 389.962 331.833ZM379.644 353.47C379.644 355.831 380.62 357.808 382.57 359.399C384.572 360.99 387.011 361.786 389.885 361.786C392.349 361.786 394.531 361.324 396.43 360.4C398.33 359.527 399.818 358.347 400.896 356.858C401.974 355.421 402.513 353.881 402.513 352.238C402.513 349.774 401.872 348.08 400.588 347.156C399.356 346.232 397.123 345.77 393.889 345.77H385.804C385.034 345.77 384.29 345.719 383.571 345.616C382.083 346.489 381.056 347.541 380.491 348.773C379.927 350.056 379.644 351.622 379.644 353.47ZM439.848 297.414C439.026 297.414 438.333 297.132 437.769 296.567C437.204 296.002 436.922 295.309 436.922 294.488C436.922 293.667 437.204 292.974 437.769 292.409C438.333 291.844 439.026 291.562 439.848 291.562C440.669 291.562 441.362 291.844 441.927 292.409C442.491 292.974 442.774 293.667 442.774 294.488C442.774 295.309 442.491 296.002 441.927 296.567C441.362 297.132 440.669 297.414 439.848 297.414ZM434.15 345V343.845L439.001 342.536V313.276L433.38 311.813V310.658L442.081 309.58H442.851V342.536L448.318 343.845V345H434.15ZM491.65 345.77C488.057 345.77 485.028 345 482.564 343.46C480.151 341.92 478.303 339.841 477.02 337.223C475.788 334.605 475.172 331.653 475.172 328.368C475.172 324.775 475.891 321.566 477.328 318.743C478.817 315.868 480.844 313.635 483.411 312.044C486.029 310.401 488.981 309.58 492.266 309.58C494.319 309.58 496.142 309.862 497.733 310.427C499.324 310.992 500.608 311.608 501.583 312.275C503.226 313.404 504.047 314.38 504.047 315.201C504.047 315.56 503.867 315.894 503.508 316.202L501.429 317.973H501.121L500.12 316.587C498.991 315.047 497.759 313.789 496.424 312.814C495.141 311.787 493.472 311.274 491.419 311.274C487.826 311.274 484.848 312.634 482.487 315.355C480.177 318.024 479.022 322.028 479.022 327.367C479.022 331.884 480.203 335.555 482.564 338.378C484.977 341.15 488.365 342.536 492.728 342.536C495.089 342.536 497.271 342.177 499.273 341.458C501.275 340.739 502.841 339.764 503.97 338.532H504.201V339.533C503.02 341.33 501.352 342.818 499.196 343.999C497.04 345.18 494.525 345.77 491.65 345.77ZM571.51 345.308C570.535 345.308 569.714 344.974 569.046 344.307C568.379 343.588 568.045 342.767 568.045 341.843C568.045 340.919 568.379 340.123 569.046 339.456C569.714 338.737 570.535 338.378 571.51 338.378C572.486 338.378 573.307 338.737 573.974 339.456C574.642 340.123 574.975 340.919 574.975 341.843C574.975 342.767 574.642 343.588 573.974 344.307C573.307 344.974 572.486 345.308 571.51 345.308ZM571.51 316.51C570.535 316.51 569.714 316.176 569.046 315.509C568.379 314.79 568.045 313.969 568.045 313.045C568.045 312.121 568.379 311.325 569.046 310.658C569.714 309.939 570.535 309.58 571.51 309.58C572.486 309.58 573.307 309.939 573.974 310.658C574.642 311.325 574.975 312.121 574.975 313.045C574.975 313.969 574.642 314.79 573.974 315.509C573.307 316.176 572.486 316.51 571.51 316.51Z" fill="#FAFAFA"/>
<path d="M530.741 356.55V288.02H543.215V289.406H533.436V355.164H543.215V356.55H530.741ZM599.752 356.55V355.164H609.531V289.406H599.752V288.02H612.226V356.55H599.752ZM688.723 345.77C686.618 345.77 684.899 345.103 683.564 343.768C682.281 342.433 681.639 340.56 681.639 338.147V312.968H674.863V312.275L682.101 310.35L684.642 301.88H685.489V310.35H695.653V312.968H685.489V337.993C685.489 339.584 685.977 340.791 686.952 341.612C687.927 342.382 689.211 342.767 690.802 342.767C691.931 342.767 692.958 342.639 693.882 342.382C694.806 342.125 695.679 341.766 696.5 341.304L696.577 341.381V341.689C696.166 342.562 695.294 343.46 693.959 344.384C692.624 345.308 690.879 345.77 688.723 345.77ZM722.224 345V343.845L727.075 342.536V290.946L721.454 289.483V288.328L730.155 287.25H730.925V315.124H731.079C732.978 313.173 734.775 311.762 736.469 310.889C738.163 310.016 740.062 309.58 742.167 309.58C745.401 309.58 748.045 310.478 750.098 312.275C752.203 314.072 753.255 316.69 753.255 320.129V342.536L758.106 343.845V345H743.938V343.845L749.405 342.536V322.208C749.405 319.077 748.558 316.715 746.864 315.124C745.221 313.481 743.04 312.66 740.319 312.66C738.779 312.66 737.111 313.045 735.314 313.815C733.517 314.534 732.054 315.586 730.925 316.972V342.536L736.392 343.845V345H722.224ZM800.419 345.77C796.775 345.77 793.695 345 791.179 343.46C788.715 341.92 786.842 339.841 785.558 337.223C784.326 334.605 783.71 331.653 783.71 328.368C783.71 324.877 784.429 321.72 785.866 318.897C787.355 316.074 789.28 313.815 791.641 312.121C794.054 310.427 796.672 309.58 799.495 309.58C803.551 309.58 806.733 310.915 809.043 313.584C811.353 316.253 812.688 319.949 813.047 324.672L812.816 324.903H787.637C787.586 325.673 787.56 326.494 787.56 327.367C787.56 331.884 788.767 335.555 791.179 338.378C793.643 341.15 797.083 342.536 801.497 342.536C803.91 342.536 806.092 342.177 808.042 341.458C810.044 340.739 811.61 339.764 812.739 338.532H812.97V339.533C811.841 341.33 810.173 342.818 807.965 343.999C805.809 345.18 803.294 345.77 800.419 345.77ZM798.571 311.274C796.056 311.274 793.797 312.326 791.795 314.431C789.793 316.484 788.484 319.41 787.868 323.209H808.812C808.299 319.462 807.247 316.536 805.655 314.431C804.064 312.326 801.703 311.274 798.571 311.274ZM891.699 333.373C890.159 333.373 888.696 333.116 887.31 332.603C885.616 333.322 884.435 334.092 883.768 334.913C883.1 335.734 882.767 336.684 882.767 337.762C882.767 339.507 883.383 340.765 884.615 341.535C885.847 342.305 887.746 342.69 890.313 342.69H899.014C902.042 342.69 904.352 343.409 905.944 344.846C907.586 346.283 908.408 348.26 908.408 350.775C908.408 352.88 907.689 354.907 906.252 356.858C904.814 358.809 902.812 360.4 900.246 361.632C897.679 362.864 894.65 363.48 891.16 363.48C886.694 363.48 883.485 362.582 881.535 360.785C879.584 359.04 878.609 356.884 878.609 354.317C878.609 352.418 878.994 350.775 879.764 349.389L884.461 345.462V345.308C881.124 344.333 879.456 342.305 879.456 339.225C879.456 337.531 880.02 336.119 881.15 334.99L885.693 332.295V331.91C883.845 330.935 882.382 329.549 881.304 327.752C880.226 325.904 879.687 323.825 879.687 321.515C879.687 319.256 880.2 317.229 881.227 315.432C882.305 313.635 883.742 312.224 885.539 311.197C887.335 310.119 889.389 309.58 891.699 309.58C892.828 309.58 894.06 309.734 895.395 310.042C896.729 310.299 897.782 310.607 898.552 310.966L909.024 310.35V313.507L901.247 312.968L901.093 313.122C901.914 313.995 902.53 315.227 902.941 316.818C903.403 318.358 903.634 319.924 903.634 321.515C903.634 323.774 903.12 325.801 902.094 327.598C901.067 329.395 899.655 330.806 897.859 331.833C896.062 332.86 894.009 333.373 891.699 333.373ZM892.469 331.833C894.676 331.833 896.421 330.96 897.705 329.215C899.039 327.418 899.707 324.903 899.707 321.669C899.707 318.127 898.885 315.483 897.243 313.738C895.6 311.941 893.572 311.043 891.16 311.043C888.798 311.043 886.95 311.967 885.616 313.815C884.281 315.612 883.614 318.101 883.614 321.284C883.614 324.826 884.435 327.47 886.078 329.215C887.772 330.96 889.902 331.833 892.469 331.833ZM882.151 353.47C882.151 355.831 883.126 357.808 885.077 359.399C887.079 360.99 889.517 361.786 892.392 361.786C894.856 361.786 897.037 361.324 898.937 360.4C900.836 359.527 902.325 358.347 903.403 356.858C904.481 355.421 905.02 353.881 905.02 352.238C905.02 349.774 904.378 348.08 903.095 347.156C901.863 346.232 899.63 345.77 896.396 345.77H888.311C887.541 345.77 886.796 345.719 886.078 345.616C884.589 346.489 883.562 347.541 882.998 348.773C882.433 350.056 882.151 351.622 882.151 353.47ZM943.74 345.77C941.378 345.77 939.402 345.077 937.811 343.691C936.219 342.254 935.424 340.277 935.424 337.762C935.424 335.298 936.296 333.245 938.042 331.602C939.838 329.959 942.79 328.625 946.897 327.598L954.443 325.673V319.282C954.443 317.075 953.647 315.304 952.056 313.969C950.464 312.583 948.642 311.89 946.589 311.89C944.381 311.89 942.816 312.352 941.892 313.276C941.019 314.149 940.583 315.355 940.583 316.895V320.052L940.198 320.437H938.196C937.374 320.437 936.835 320.309 936.579 320.052C936.322 319.795 936.194 319.308 936.194 318.589C936.194 317.614 936.527 316.613 937.195 315.586C937.862 314.559 938.837 313.635 940.121 312.814C941.507 311.941 942.893 311.197 944.279 310.581C945.716 309.914 947.076 309.58 948.36 309.58C951.44 309.58 953.852 310.273 955.598 311.659C957.394 312.994 958.293 315.098 958.293 317.973V341.92C958.703 342.279 959.165 342.562 959.679 342.767C960.243 342.972 960.885 343.075 961.604 343.075H965.608L965.685 343.152V343.306C965.325 343.819 964.735 344.358 963.914 344.923C963.092 345.488 961.989 345.77 960.603 345.77C958.806 345.77 957.42 345.308 956.445 344.384C955.469 343.46 954.879 342.382 954.674 341.15H954.52C953.185 342.485 951.568 343.588 949.669 344.461C947.821 345.334 945.844 345.77 943.74 345.77ZM939.274 336.376C939.274 338.481 939.864 340.072 941.045 341.15C942.225 342.177 943.894 342.69 946.05 342.69C947.333 342.69 948.719 342.51 950.208 342.151C951.696 341.74 953.108 341.124 954.443 340.303V327.29C950.182 328.163 946.948 329.035 944.741 329.908C942.585 330.781 941.122 331.73 940.352 332.757C939.633 333.784 939.274 334.99 939.274 336.376ZM1000.65 345.77C998.55 345.77 996.83 345.103 995.495 343.768C994.212 342.433 993.57 340.56 993.57 338.147V312.968H986.794V312.275L994.032 310.35L996.573 301.88H997.42V310.35H1007.58V312.968H997.42V337.993C997.42 339.584 997.908 340.791 998.883 341.612C999.859 342.382 1001.14 342.767 1002.73 342.767C1003.86 342.767 1004.89 342.639 1005.81 342.382C1006.74 342.125 1007.61 341.766 1008.43 341.304L1008.51 341.381V341.689C1008.1 342.562 1007.22 343.46 1005.89 344.384C1004.56 345.308 1002.81 345.77 1000.65 345.77ZM1034.16 345V343.845L1039.01 342.536V290.946L1033.39 289.483V288.328L1042.09 287.25H1042.86V315.124H1043.01C1044.91 313.173 1046.71 311.762 1048.4 310.889C1050.09 310.016 1051.99 309.58 1054.1 309.58C1057.33 309.58 1059.98 310.478 1062.03 312.275C1064.13 314.072 1065.19 316.69 1065.19 320.129V342.536L1070.04 343.845V345H1055.87V343.845L1061.34 342.536V322.208C1061.34 319.077 1060.49 316.715 1058.8 315.124C1057.15 313.481 1054.97 312.66 1052.25 312.66C1050.71 312.66 1049.04 313.045 1047.25 313.815C1045.45 314.534 1043.99 315.586 1042.86 316.972V342.536L1048.32 343.845V345H1034.16ZM1112.35 345.77C1108.71 345.77 1105.63 345 1103.11 343.46C1100.65 341.92 1098.77 339.841 1097.49 337.223C1096.26 334.605 1095.64 331.653 1095.64 328.368C1095.64 324.877 1096.36 321.72 1097.8 318.897C1099.29 316.074 1101.21 313.815 1103.57 312.121C1105.99 310.427 1108.6 309.58 1111.43 309.58C1115.48 309.58 1118.66 310.915 1120.97 313.584C1123.28 316.253 1124.62 319.949 1124.98 324.672L1124.75 324.903H1099.57C1099.52 325.673 1099.49 326.494 1099.49 327.367C1099.49 331.884 1100.7 335.555 1103.11 338.378C1105.57 341.15 1109.01 342.536 1113.43 342.536C1115.84 342.536 1118.02 342.177 1119.97 341.458C1121.98 340.739 1123.54 339.764 1124.67 338.532H1124.9V339.533C1123.77 341.33 1122.1 342.818 1119.9 343.999C1117.74 345.18 1115.23 345.77 1112.35 345.77ZM1110.5 311.274C1107.99 311.274 1105.73 312.326 1103.73 314.431C1101.72 316.484 1100.42 319.41 1099.8 323.209H1120.74C1120.23 319.462 1119.18 316.536 1117.59 314.431C1116 312.326 1113.63 311.274 1110.5 311.274ZM1152.5 345V343.845L1157.35 342.536V313.276L1151.73 312.583V311.428L1160.05 309.58H1160.82L1161.2 316.433H1161.36C1163.36 314.328 1164.95 312.788 1166.13 311.813C1167.31 310.838 1168.29 310.222 1169.06 309.965C1169.83 309.708 1170.7 309.58 1171.67 309.58C1172.55 309.58 1173.34 309.734 1174.06 310.042C1174.58 310.247 1174.93 310.453 1175.14 310.658C1175.4 310.812 1175.52 311.043 1175.52 311.351C1175.52 311.454 1175.5 311.582 1175.45 311.736C1175.45 311.839 1175.42 311.993 1175.37 312.198L1174.6 314.2H1174.45L1172.98 313.507C1172.27 313.148 1171.32 312.968 1170.13 312.968C1168.65 312.968 1167.16 313.379 1165.67 314.2C1164.18 315.021 1162.69 316.459 1161.2 318.512V342.536L1167.13 343.845V345H1152.5ZM1205.04 297.414C1204.22 297.414 1203.53 297.132 1202.96 296.567C1202.4 296.002 1202.12 295.309 1202.12 294.488C1202.12 293.667 1202.4 292.974 1202.96 292.409C1203.53 291.844 1204.22 291.562 1205.04 291.562C1205.86 291.562 1206.56 291.844 1207.12 292.409C1207.68 292.974 1207.97 293.667 1207.97 294.488C1207.97 295.309 1207.68 296.002 1207.12 296.567C1206.56 297.132 1205.86 297.414 1205.04 297.414ZM1199.34 345V343.845L1204.19 342.536V313.276L1198.57 311.813V310.658L1207.27 309.58H1208.04V342.536L1213.51 343.845V345H1199.34ZM1240.98 345V343.845L1245.83 342.536V313.276L1240.21 312.583V311.428L1248.53 309.58H1249.3L1249.61 315.124H1249.84C1251.74 313.173 1253.53 311.762 1255.23 310.889C1256.92 310.016 1258.82 309.58 1260.92 309.58C1264.16 309.58 1266.8 310.478 1268.86 312.275C1270.96 314.072 1272.01 316.69 1272.01 320.129V342.536L1276.86 343.845V345H1262.7V343.845L1268.16 342.536V322.208C1268.16 319.077 1267.32 316.715 1265.62 315.124C1263.98 313.481 1261.8 312.66 1259.08 312.66C1257.54 312.66 1255.87 313.045 1254.07 313.815C1252.27 314.534 1250.81 315.586 1249.68 316.972V342.536L1255.15 343.845V345H1240.98ZM1316.4 333.373C1314.86 333.373 1313.4 333.116 1312.02 332.603C1310.32 333.322 1309.14 334.092 1308.47 334.913C1307.81 335.734 1307.47 336.684 1307.47 337.762C1307.47 339.507 1308.09 340.765 1309.32 341.535C1310.55 342.305 1312.45 342.69 1315.02 342.69H1323.72C1326.75 342.69 1329.06 343.409 1330.65 344.846C1332.29 346.283 1333.11 348.26 1333.11 350.775C1333.11 352.88 1332.4 354.907 1330.96 356.858C1329.52 358.809 1327.52 360.4 1324.95 361.632C1322.39 362.864 1319.36 363.48 1315.87 363.48C1311.4 363.48 1308.19 362.582 1306.24 360.785C1304.29 359.04 1303.31 356.884 1303.31 354.317C1303.31 352.418 1303.7 350.775 1304.47 349.389L1309.17 345.462V345.308C1305.83 344.333 1304.16 342.305 1304.16 339.225C1304.16 337.531 1304.73 336.119 1305.86 334.99L1310.4 332.295V331.91C1308.55 330.935 1307.09 329.549 1306.01 327.752C1304.93 325.904 1304.39 323.825 1304.39 321.515C1304.39 319.256 1304.91 317.229 1305.93 315.432C1307.01 313.635 1308.45 312.224 1310.24 311.197C1312.04 310.119 1314.09 309.58 1316.4 309.58C1317.53 309.58 1318.77 309.734 1320.1 310.042C1321.44 310.299 1322.49 310.607 1323.26 310.966L1333.73 310.35V313.507L1325.95 312.968L1325.8 313.122C1326.62 313.995 1327.24 315.227 1327.65 316.818C1328.11 318.358 1328.34 319.924 1328.34 321.515C1328.34 323.774 1327.83 325.801 1326.8 327.598C1325.77 329.395 1324.36 330.806 1322.56 331.833C1320.77 332.86 1318.71 333.373 1316.4 333.373ZM1317.17 331.833C1319.38 331.833 1321.13 330.96 1322.41 329.215C1323.75 327.418 1324.41 324.903 1324.41 321.669C1324.41 318.127 1323.59 315.483 1321.95 313.738C1320.31 311.941 1318.28 311.043 1315.87 311.043C1313.5 311.043 1311.66 311.967 1310.32 313.815C1308.99 315.612 1308.32 318.101 1308.32 321.284C1308.32 324.826 1309.14 327.47 1310.78 329.215C1312.48 330.96 1314.61 331.833 1317.17 331.833ZM1306.86 353.47C1306.86 355.831 1307.83 357.808 1309.78 359.399C1311.78 360.99 1314.22 361.786 1317.1 361.786C1319.56 361.786 1321.74 361.324 1323.64 360.4C1325.54 359.527 1327.03 358.347 1328.11 356.858C1329.19 355.421 1329.73 353.881 1329.73 352.238C1329.73 349.774 1329.08 348.08 1327.8 347.156C1326.57 346.232 1324.34 345.77 1321.1 345.77H1313.02C1312.25 345.77 1311.5 345.719 1310.78 345.616C1309.3 346.489 1308.27 347.541 1307.7 348.773C1307.14 350.056 1306.86 351.622 1306.86 353.47Z" fill="black"/>
<path d="M1408.41 345.385L1397.63 312.968L1392.78 311.505V310.35H1407.56V311.505L1401.63 312.814V313.045L1409.79 339.764H1410.1L1420.88 310.35H1422.04L1432.82 339.533H1433.13L1441.13 313.122V312.891L1434.9 311.505V310.35H1448.53V311.505L1443.6 312.968L1432.28 345.385H1431.51L1420.57 317.126L1409.18 345.385H1408.41ZM1476.23 297.414C1475.4 297.414 1474.71 297.132 1474.15 296.567C1473.58 296.002 1473.3 295.309 1473.3 294.488C1473.3 293.667 1473.58 292.974 1474.15 292.409C1474.71 291.844 1475.4 291.562 1476.23 291.562C1477.05 291.562 1477.74 291.844 1478.3 292.409C1478.87 292.974 1479.15 293.667 1479.15 294.488C1479.15 295.309 1478.87 296.002 1478.3 296.567C1477.74 297.132 1477.05 297.414 1476.23 297.414ZM1470.53 345V343.845L1475.38 342.536V313.276L1469.76 311.813V310.658L1478.46 309.58H1479.23V342.536L1484.7 343.845V345H1470.53ZM1512.34 345V343.691L1530.74 312.198H1516.73L1513.49 319.898H1512.26L1513.11 309.734H1513.42C1513.98 309.837 1514.67 309.965 1515.49 310.119C1516.32 310.273 1517.03 310.35 1517.65 310.35H1535.36V311.659L1516.88 343.152H1532.43L1534.67 335.683H1535.98V345H1512.34ZM1572.64 345.77C1570.28 345.77 1568.3 345.077 1566.71 343.691C1565.12 342.254 1564.32 340.277 1564.32 337.762C1564.32 335.298 1565.2 333.245 1566.94 331.602C1568.74 329.959 1571.69 328.625 1575.8 327.598L1583.34 325.673V319.282C1583.34 317.075 1582.55 315.304 1580.96 313.969C1579.36 312.583 1577.54 311.89 1575.49 311.89C1573.28 311.89 1571.72 312.352 1570.79 313.276C1569.92 314.149 1569.48 315.355 1569.48 316.895V320.052L1569.1 320.437H1567.1C1566.27 320.437 1565.74 320.309 1565.48 320.052C1565.22 319.795 1565.09 319.308 1565.09 318.589C1565.09 317.614 1565.43 316.613 1566.1 315.586C1566.76 314.559 1567.74 313.635 1569.02 312.814C1570.41 311.941 1571.79 311.197 1573.18 310.581C1574.62 309.914 1575.98 309.58 1577.26 309.58C1580.34 309.58 1582.75 310.273 1584.5 311.659C1586.29 312.994 1587.19 315.098 1587.19 317.973V341.92C1587.6 342.279 1588.07 342.562 1588.58 342.767C1589.14 342.972 1589.79 343.075 1590.5 343.075H1594.51L1594.59 343.152V343.306C1594.23 343.819 1593.64 344.358 1592.81 344.923C1591.99 345.488 1590.89 345.77 1589.5 345.77C1587.71 345.77 1586.32 345.308 1585.35 344.384C1584.37 343.46 1583.78 342.382 1583.57 341.15H1583.42C1582.09 342.485 1580.47 343.588 1578.57 344.461C1576.72 345.334 1574.74 345.77 1572.64 345.77ZM1568.17 336.376C1568.17 338.481 1568.76 340.072 1569.95 341.15C1571.13 342.177 1572.79 342.69 1574.95 342.69C1576.23 342.69 1577.62 342.51 1579.11 342.151C1580.6 341.74 1582.01 341.124 1583.34 340.303V327.29C1579.08 328.163 1575.85 329.035 1573.64 329.908C1571.49 330.781 1570.02 331.73 1569.25 332.757C1568.53 333.784 1568.17 334.99 1568.17 336.376ZM1619.08 345V343.845L1623.93 342.536V313.276L1618.31 312.583V311.428L1626.63 309.58H1627.4L1627.78 316.433H1627.94C1629.94 314.328 1631.53 312.788 1632.71 311.813C1633.89 310.838 1634.87 310.222 1635.64 309.965C1636.41 309.708 1637.28 309.58 1638.26 309.58C1639.13 309.58 1639.92 309.734 1640.64 310.042C1641.16 310.247 1641.52 310.453 1641.72 310.658C1641.98 310.812 1642.11 311.043 1642.11 311.351C1642.11 311.454 1642.08 311.582 1642.03 311.736C1642.03 311.839 1642 311.993 1641.95 312.198L1641.18 314.2H1641.03L1639.56 313.507C1638.85 313.148 1637.9 312.968 1636.72 312.968C1635.23 312.968 1633.74 313.379 1632.25 314.2C1630.76 315.021 1629.27 316.459 1627.78 318.512V342.536L1633.71 343.845V345H1619.08ZM1678.01 345.77C1675.45 345.77 1673.16 345.103 1671.16 343.768C1669.16 342.433 1667.57 340.56 1666.39 338.147C1665.26 335.683 1664.69 332.757 1664.69 329.369C1664.69 325.16 1665.51 321.592 1667.16 318.666C1668.8 315.689 1670.98 313.43 1673.7 311.89C1676.42 310.35 1679.42 309.58 1682.71 309.58C1683.84 309.58 1685.02 309.785 1686.25 310.196C1687.48 310.555 1688.69 311.043 1689.87 311.659V290.946L1684.25 289.483V288.328L1692.95 287.25H1693.72V342.536L1699.19 343.845V345H1690.64L1689.95 341.073H1689.56C1687.82 342.562 1686 343.717 1684.1 344.538C1682.25 345.359 1680.22 345.77 1678.01 345.77ZM1668.31 328.137C1668.31 331.576 1668.88 334.425 1670 336.684C1671.13 338.891 1672.6 340.534 1674.39 341.612C1676.24 342.639 1678.14 343.152 1680.09 343.152C1681.79 343.152 1683.48 342.844 1685.17 342.228C1686.87 341.612 1688.43 340.611 1689.87 339.225V314.431C1688.28 313.558 1686.69 312.865 1685.1 312.352C1683.51 311.839 1681.81 311.582 1680.01 311.582C1677.91 311.582 1675.96 312.121 1674.16 313.199C1672.42 314.277 1671.01 316.048 1669.93 318.512C1668.85 320.925 1668.31 324.133 1668.31 328.137Z" fill="#CDEBC2"/>
<ellipse cx="24.4211" cy="24.0007" rx="24.4211" ry="24.0007" transform="matrix(1 0 0 -1 57 271.001)" fill="black"/>
<ellipse cx="24.4211" cy="24.0007" rx="24.4211" ry="24.0007" transform="matrix(1 0 0 -1 57 420.001)" fill="black"/>
<ellipse cx="785.89" cy="139.291" rx="13.29" ry="13.2913" fill="#424242"/>
<ellipse cx="785.89" cy="13.2913" rx="13.29" ry="13.2913" fill="#424242"/>
<line x1="785.821" y1="135.004" x2="785.821" y2="25.0044" stroke="#424242" stroke-width="2.4"/>
</svg>
