<svg width="2141" height="625" viewBox="0 0 2141 625" fill="none" xmlns="http://www.w3.org/2000/svg">
<rect x="1.45" y="1.45" width="2138.1" height="171.1" rx="8.55" fill="white" stroke="#424242" stroke-width="1.1"/>
<ellipse cx="13.29" cy="13.2913" rx="13.29" ry="13.2913" transform="matrix(0 -1 -1 0 934.583 624.58)" fill="#CABCBE"/>
<ellipse cx="13.29" cy="13.2913" rx="13.29" ry="13.2913" transform="matrix(0 -1 -1 0 1826.07 434.07)" fill="#CABCBE"/>
<line y1="-1.2" x2="904" y2="-1.2" transform="matrix(0.978148 -0.207912 -0.207912 -0.978148 929 607.952)" stroke="#CABCBE" stroke-width="2.4"/>
<ellipse cx="1690.94" cy="611.291" rx="13.29" ry="13.2913" fill="#424242"/>
<ellipse cx="1690.69" cy="374.291" rx="13.29" ry="13.2913" fill="#424242"/>
<line x1="1690.82" y1="607.004" x2="1690.82" y2="387.004" stroke="#424242" stroke-width="2.4"/>
<path d="M317.503 112V110.68L323.047 109.184V75.392H315.303V72.4H323.047V68.88C323.047 66.5333 323.428 64.04 324.191 61.4C325.012 58.76 326.186 56.2667 327.711 53.92C329.295 51.5733 331.26 49.6667 333.607 48.2C335.954 46.7333 338.682 46 341.791 46C342.554 46 343.228 46.1173 343.815 46.352C344.754 46.7627 345.223 47.232 345.223 47.76C345.223 48.112 345.135 48.4933 344.959 48.904L343.991 51.28H343.815L341.967 50.664C340.148 50.0773 338.388 49.784 336.687 49.784C333.695 49.784 331.407 51.016 329.823 53.48C328.239 55.944 327.447 59.904 327.447 65.36V72.4H339.063V75.392H327.447V109.184L334.223 110.68V112H317.503ZM381.398 112V110.68L386.942 109.184V75.744L380.518 74.952V73.632L390.022 71.52H390.902L391.342 79.352H391.518C393.806 76.9467 395.624 75.1867 396.974 74.072C398.323 72.9573 399.438 72.2533 400.318 71.96C401.198 71.6667 402.195 71.52 403.31 71.52C404.307 71.52 405.216 71.696 406.038 72.048C406.624 72.2827 407.035 72.5173 407.27 72.752C407.563 72.928 407.71 73.192 407.71 73.544C407.71 73.6613 407.68 73.808 407.622 73.984C407.622 74.1013 407.592 74.2773 407.534 74.512L406.654 76.8H406.478L404.806 76.008C403.984 75.5973 402.899 75.392 401.55 75.392C399.848 75.392 398.147 75.8613 396.446 76.8C394.744 77.7387 393.043 79.3813 391.342 81.728V109.184L398.118 110.68V112H381.398ZM447.603 125.2V46.88H461.859V48.464H450.683V123.616H461.859V125.2H447.603ZM483.284 112.88C480.585 112.88 478.327 112.088 476.508 110.504C474.689 108.861 473.78 106.603 473.78 103.728C473.78 100.912 474.777 98.5653 476.772 96.688C478.825 94.8107 482.199 93.2853 486.892 92.112L495.516 89.912V82.608C495.516 80.0853 494.607 78.0613 492.788 76.536C490.969 74.952 488.887 74.16 486.54 74.16C484.017 74.16 482.228 74.688 481.172 75.744C480.175 76.7413 479.676 78.12 479.676 79.88V83.488L479.236 83.928H476.948C476.009 83.928 475.393 83.7813 475.1 83.488C474.807 83.1947 474.66 82.6373 474.66 81.816C474.66 80.7013 475.041 79.5573 475.804 78.384C476.567 77.2107 477.681 76.1547 479.148 75.216C480.732 74.2187 482.316 73.368 483.9 72.664C485.543 71.9013 487.097 71.52 488.564 71.52C492.084 71.52 494.841 72.312 496.836 73.896C498.889 75.4213 499.916 77.8267 499.916 81.112V108.48C500.385 108.891 500.913 109.213 501.5 109.448C502.145 109.683 502.879 109.8 503.7 109.8H508.276L508.364 109.888V110.064C507.953 110.651 507.279 111.267 506.34 111.912C505.401 112.557 504.14 112.88 502.556 112.88C500.503 112.88 498.919 112.352 497.804 111.296C496.689 110.24 496.015 109.008 495.78 107.6H495.604C494.079 109.125 492.231 110.387 490.06 111.384C487.948 112.381 485.689 112.88 483.284 112.88ZM478.18 102.144C478.18 104.549 478.855 106.368 480.204 107.6C481.553 108.773 483.46 109.36 485.924 109.36C487.391 109.36 488.975 109.155 490.676 108.744C492.377 108.275 493.991 107.571 495.516 106.632V91.76C490.647 92.7573 486.951 93.7547 484.428 94.752C481.964 95.7493 480.292 96.8347 479.412 98.008C478.591 99.1813 478.18 100.56 478.18 102.144ZM517.001 125.2V123.616H528.177V48.464H517.001V46.88H531.257V125.2H517.001ZM576.266 112V110.68L581.81 109.184V75.744L575.386 74.952V73.632L584.89 71.52H585.77L586.122 77.856H586.386C588.557 75.6267 590.61 74.0133 592.546 73.016C594.482 72.0187 596.653 71.52 599.058 71.52C602.754 71.52 605.776 72.5467 608.122 74.6C610.528 76.6533 611.73 79.6453 611.73 83.576V109.184L617.274 110.68V112H601.082V110.68L607.33 109.184V85.952C607.33 82.3733 606.362 79.6747 604.426 77.856C602.549 75.9787 600.056 75.04 596.946 75.04C595.186 75.04 593.28 75.48 591.226 76.36C589.173 77.1813 587.501 78.384 586.21 79.968V109.184L592.458 110.68V112H576.266ZM678.832 112.88C674.726 112.88 671.264 112 668.448 110.24C665.691 108.48 663.579 106.104 662.112 103.112C660.704 100.12 660 96.7467 660 92.992C660 88.8853 660.822 85.2187 662.464 81.992C664.166 78.7067 666.483 76.1547 669.416 74.336C672.408 72.4587 675.782 71.52 679.536 71.52C681.883 71.52 683.966 71.8427 685.784 72.488C687.603 73.1333 689.07 73.8373 690.184 74.6C692.062 75.8907 693 77.0053 693 77.944C693 78.3547 692.795 78.736 692.384 79.088L690.008 81.112H689.656L688.512 79.528C687.222 77.768 685.814 76.3307 684.288 75.216C682.822 74.0427 680.915 73.456 678.568 73.456C674.462 73.456 671.059 75.0107 668.36 78.12C665.72 81.1707 664.4 85.7467 664.4 91.848C664.4 97.0107 665.75 101.205 668.448 104.432C671.206 107.6 675.078 109.184 680.064 109.184C682.763 109.184 685.256 108.773 687.544 107.952C689.832 107.131 691.622 106.016 692.912 104.608H693.176V105.752C691.827 107.805 689.92 109.507 687.456 110.856C684.992 112.205 682.118 112.88 678.832 112.88ZM736.972 125.2V46.88H751.228V48.464H740.052V123.616H751.228V125.2H736.972ZM771.069 57.616C770.131 57.616 769.339 57.2933 768.693 56.648C768.048 56.0027 767.725 55.2107 767.725 54.272C767.725 53.3333 768.048 52.5413 768.693 51.896C769.339 51.2507 770.131 50.928 771.069 50.928C772.008 50.928 772.8 51.2507 773.445 51.896C774.091 52.5413 774.413 53.3333 774.413 54.272C774.413 55.2107 774.091 56.0027 773.445 56.648C772.8 57.2933 772.008 57.616 771.069 57.616ZM764.557 112V110.68L770.101 109.184V75.744L763.677 74.072V72.752L773.621 71.52H774.501V109.184L780.749 110.68V112H764.557ZM793.136 125.2V123.616H804.312V48.464H793.136V46.88H807.392V125.2H793.136ZM863.313 112.88C861.26 112.88 859.412 112.645 857.769 112.176C856.185 111.765 854.543 111.149 852.841 110.328V101.176H853.897L855.129 105.136C855.657 106.896 856.625 108.304 858.033 109.36C859.441 110.357 861.436 110.856 864.017 110.856C866.833 110.856 869.004 110.181 870.529 108.832C872.113 107.424 872.905 105.429 872.905 102.848C872.905 100.56 872.289 98.7707 871.057 97.48C869.825 96.1307 867.537 94.7813 864.193 93.432C860.673 92.024 858.063 90.4987 856.361 88.856C854.719 87.2133 853.897 84.8667 853.897 81.816C853.897 79.9387 854.396 78.2373 855.393 76.712C856.449 75.128 857.828 73.8667 859.529 72.928C861.231 71.9893 863.049 71.52 864.985 71.52C867.156 71.52 869.092 71.784 870.793 72.312C872.495 72.7813 873.961 73.3387 875.193 73.984V82.96H874.137L872.993 79.176C872.407 77.1227 871.292 75.656 869.649 74.776C868.065 73.896 866.452 73.456 864.809 73.456C862.521 73.456 860.761 74.1307 859.529 75.48C858.356 76.8293 857.769 78.5893 857.769 80.76C857.769 82.9307 858.415 84.632 859.705 85.864C860.996 87.096 863.079 88.2987 865.953 89.472C868.535 90.528 870.617 91.5547 872.201 92.552C873.844 93.5493 875.047 94.7813 875.809 96.248C876.572 97.656 876.953 99.4747 876.953 101.704C876.953 103.699 876.396 105.547 875.281 107.248C874.167 108.949 872.583 110.328 870.529 111.384C868.476 112.381 866.071 112.88 863.313 112.88ZM922.825 125.2V46.88H937.081V48.464H925.905V123.616H937.081V125.2H922.825ZM939.411 125.2V123.616H950.587V48.464H939.411V46.88H953.667V125.2H939.411ZM1010.29 112.88C1006.19 112.88 1002.72 112 999.908 110.24C997.151 108.48 995.039 106.104 993.572 103.112C992.164 100.12 991.46 96.7467 991.46 92.992C991.46 88.8853 992.281 85.2187 993.924 81.992C995.625 78.7067 997.943 76.1547 1000.88 74.336C1003.87 72.4587 1007.24 71.52 1011 71.52C1013.34 71.52 1015.43 71.8427 1017.24 72.488C1019.06 73.1333 1020.53 73.8373 1021.64 74.6C1023.52 75.8907 1024.46 77.0053 1024.46 77.944C1024.46 78.3547 1024.25 78.736 1023.84 79.088L1021.47 81.112H1021.12L1019.97 79.528C1018.68 77.768 1017.27 76.3307 1015.75 75.216C1014.28 74.0427 1012.37 73.456 1010.03 73.456C1005.92 73.456 1002.52 75.0107 999.82 78.12C997.18 81.1707 995.86 85.7467 995.86 91.848C995.86 97.0107 997.209 101.205 999.908 104.432C1002.67 107.6 1006.54 109.184 1011.52 109.184C1014.22 109.184 1016.72 108.773 1019 107.952C1021.29 107.131 1023.08 106.016 1024.37 104.608H1024.64V105.752C1023.29 107.805 1021.38 109.507 1018.92 110.856C1016.45 112.205 1013.58 112.88 1010.29 112.88ZM1068.43 125.2V46.88H1082.69V48.464H1071.51V123.616H1082.69V125.2H1068.43ZM1104.11 112.88C1101.41 112.88 1099.16 112.088 1097.34 110.504C1095.52 108.861 1094.61 106.603 1094.61 103.728C1094.61 100.912 1095.61 98.5653 1097.6 96.688C1099.65 94.8107 1103.03 93.2853 1107.72 92.112L1116.34 89.912V82.608C1116.34 80.0853 1115.44 78.0613 1113.62 76.536C1111.8 74.952 1109.72 74.16 1107.37 74.16C1104.85 74.16 1103.06 74.688 1102 75.744C1101 76.7413 1100.5 78.12 1100.5 79.88V83.488L1100.06 83.928H1097.78C1096.84 83.928 1096.22 83.7813 1095.93 83.488C1095.64 83.1947 1095.49 82.6373 1095.49 81.816C1095.49 80.7013 1095.87 79.5573 1096.63 78.384C1097.4 77.2107 1098.51 76.1547 1099.98 75.216C1101.56 74.2187 1103.14 73.368 1104.73 72.664C1106.37 71.9013 1107.93 71.52 1109.39 71.52C1112.91 71.52 1115.67 72.312 1117.66 73.896C1119.72 75.4213 1120.74 77.8267 1120.74 81.112V108.48C1121.21 108.891 1121.74 109.213 1122.33 109.448C1122.97 109.683 1123.71 109.8 1124.53 109.8H1129.1L1129.19 109.888V110.064C1128.78 110.651 1128.11 111.267 1127.17 111.912C1126.23 112.557 1124.97 112.88 1123.38 112.88C1121.33 112.88 1119.75 112.352 1118.63 111.296C1117.52 110.24 1116.84 109.008 1116.61 107.6H1116.43C1114.91 109.125 1113.06 110.387 1110.89 111.384C1108.78 112.381 1106.52 112.88 1104.11 112.88ZM1099.01 102.144C1099.01 104.549 1099.68 106.368 1101.03 107.6C1102.38 108.773 1104.29 109.36 1106.75 109.36C1108.22 109.36 1109.8 109.155 1111.5 108.744C1113.21 108.275 1114.82 107.571 1116.34 106.632V91.76C1111.48 92.7573 1107.78 93.7547 1105.26 94.752C1102.79 95.7493 1101.12 96.8347 1100.24 98.008C1099.42 99.1813 1099.01 100.56 1099.01 102.144ZM1137.83 125.2V123.616H1149.01V48.464H1137.83V46.88H1152.09V125.2H1137.83ZM1215.22 112.88C1211.12 112.88 1207.66 112 1204.84 110.24C1202.08 108.48 1199.97 106.104 1198.5 103.112C1197.1 100.12 1196.39 96.7467 1196.39 92.992C1196.39 88.8853 1197.21 85.2187 1198.86 81.992C1200.56 78.7067 1202.87 76.1547 1205.81 74.336C1208.8 72.4587 1212.17 71.52 1215.93 71.52C1218.27 71.52 1220.36 71.8427 1222.18 72.488C1223.99 73.1333 1225.46 73.8373 1226.58 74.6C1228.45 75.8907 1229.39 77.0053 1229.39 77.944C1229.39 78.3547 1229.19 78.736 1228.78 79.088L1226.4 81.112H1226.05L1224.9 79.528C1223.61 77.768 1222.2 76.3307 1220.68 75.216C1219.21 74.0427 1217.31 73.456 1214.96 73.456C1210.85 73.456 1207.45 75.0107 1204.75 78.12C1202.11 81.1707 1200.79 85.7467 1200.79 91.848C1200.79 97.0107 1202.14 101.205 1204.84 104.432C1207.6 107.6 1211.47 109.184 1216.46 109.184C1219.15 109.184 1221.65 108.773 1223.94 107.952C1226.22 107.131 1228.01 106.016 1229.3 104.608H1229.57V105.752C1228.22 107.805 1226.31 109.507 1223.85 110.856C1221.38 112.205 1218.51 112.88 1215.22 112.88ZM1291.75 112.88C1287.65 112.88 1284.19 112 1281.37 110.24C1278.61 108.48 1276.5 106.104 1275.03 103.112C1273.63 100.12 1272.92 96.7467 1272.92 92.992C1272.92 88.8853 1273.74 85.2187 1275.39 81.992C1277.09 78.7067 1279.41 76.1547 1282.34 74.336C1285.33 72.4587 1288.7 71.52 1292.46 71.52C1294.81 71.52 1296.89 71.8427 1298.71 72.488C1300.53 73.1333 1301.99 73.8373 1303.11 74.6C1304.98 75.8907 1305.92 77.0053 1305.92 77.944C1305.92 78.3547 1305.72 78.736 1305.31 79.088L1302.93 81.112H1302.58L1301.43 79.528C1300.14 77.768 1298.74 76.3307 1297.21 75.216C1295.74 74.0427 1293.84 73.456 1291.49 73.456C1287.38 73.456 1283.98 75.0107 1281.28 78.12C1278.64 81.1707 1277.32 85.7467 1277.32 91.848C1277.32 97.0107 1278.67 101.205 1281.37 104.432C1284.13 107.6 1288 109.184 1292.99 109.184C1295.69 109.184 1298.18 108.773 1300.47 107.952C1302.75 107.131 1304.54 106.016 1305.83 104.608H1306.1V105.752C1304.75 107.805 1302.84 109.507 1300.38 110.856C1297.91 112.205 1295.04 112.88 1291.75 112.88ZM1349.89 125.2V46.88H1364.15V48.464H1352.97V123.616H1364.15V125.2H1349.89ZM1385.58 112.88C1382.88 112.88 1380.62 112.088 1378.8 110.504C1376.98 108.861 1376.07 106.603 1376.07 103.728C1376.07 100.912 1377.07 98.5653 1379.06 96.688C1381.12 94.8107 1384.49 93.2853 1389.18 92.112L1397.81 89.912V82.608C1397.81 80.0853 1396.9 78.0613 1395.08 76.536C1393.26 74.952 1391.18 74.16 1388.83 74.16C1386.31 74.16 1384.52 74.688 1383.46 75.744C1382.47 76.7413 1381.97 78.12 1381.97 79.88V83.488L1381.53 83.928H1379.24C1378.3 83.928 1377.69 83.7813 1377.39 83.488C1377.1 83.1947 1376.95 82.6373 1376.95 81.816C1376.95 80.7013 1377.33 79.5573 1378.1 78.384C1378.86 77.2107 1379.97 76.1547 1381.44 75.216C1383.02 74.2187 1384.61 73.368 1386.19 72.664C1387.83 71.9013 1389.39 71.52 1390.86 71.52C1394.38 71.52 1397.13 72.312 1399.13 73.896C1401.18 75.4213 1402.21 77.8267 1402.21 81.112V108.48C1402.68 108.891 1403.21 109.213 1403.79 109.448C1404.44 109.683 1405.17 109.8 1405.99 109.8H1410.57L1410.66 109.888V110.064C1410.25 110.651 1409.57 111.267 1408.63 111.912C1407.69 112.557 1406.43 112.88 1404.85 112.88C1402.79 112.88 1401.21 112.352 1400.1 111.296C1398.98 110.24 1398.31 109.008 1398.07 107.6H1397.9C1396.37 109.125 1394.52 110.387 1392.35 111.384C1390.24 112.381 1387.98 112.88 1385.58 112.88ZM1380.47 102.144C1380.47 104.549 1381.15 106.368 1382.5 107.6C1383.85 108.773 1385.75 109.36 1388.22 109.36C1389.68 109.36 1391.27 109.155 1392.97 108.744C1394.67 108.275 1396.28 107.571 1397.81 106.632V91.76C1392.94 92.7573 1389.24 93.7547 1386.72 94.752C1384.26 95.7493 1382.58 96.8347 1381.7 98.008C1380.88 99.1813 1380.47 100.56 1380.47 102.144ZM1419.29 125.2V123.616H1430.47V48.464H1419.29V46.88H1433.55V125.2H1419.29ZM1491.41 112.44L1477.06 75.392L1471.52 73.72V72.4H1488.41V73.72L1481.64 75.216V75.48L1492.99 106.28H1493.25L1504.43 75.568V75.304L1497.3 73.72V72.4H1512.88V73.72L1507.25 75.392L1492.29 112.44H1491.41ZM1550.62 125.2V46.88H1564.87V48.464H1553.7V123.616H1564.87V125.2H1550.62ZM1586.3 112.88C1583.6 112.88 1581.34 112.088 1579.52 110.504C1577.7 108.861 1576.79 106.603 1576.79 103.728C1576.79 100.912 1577.79 98.5653 1579.78 96.688C1581.84 94.8107 1585.21 93.2853 1589.9 92.112L1598.53 89.912V82.608C1598.53 80.0853 1597.62 78.0613 1595.8 76.536C1593.98 74.952 1591.9 74.16 1589.55 74.16C1587.03 74.16 1585.24 74.688 1584.18 75.744C1583.19 76.7413 1582.69 78.12 1582.69 79.88V83.488L1582.25 83.928H1579.96C1579.02 83.928 1578.41 83.7813 1578.11 83.488C1577.82 83.1947 1577.67 82.6373 1577.67 81.816C1577.67 80.7013 1578.05 79.5573 1578.82 78.384C1579.58 77.2107 1580.69 76.1547 1582.16 75.216C1583.74 74.2187 1585.33 73.368 1586.91 72.664C1588.56 71.9013 1590.11 71.52 1591.58 71.52C1595.1 71.52 1597.85 72.312 1599.85 73.896C1601.9 75.4213 1602.93 77.8267 1602.93 81.112V108.48C1603.4 108.891 1603.93 109.213 1604.51 109.448C1605.16 109.683 1605.89 109.8 1606.71 109.8H1611.29L1611.38 109.888V110.064C1610.97 110.651 1610.29 111.267 1609.35 111.912C1608.41 112.557 1607.15 112.88 1605.57 112.88C1603.52 112.88 1601.93 112.352 1600.82 111.296C1599.7 110.24 1599.03 109.008 1598.79 107.6H1598.62C1597.09 109.125 1595.24 110.387 1593.07 111.384C1590.96 112.381 1588.7 112.88 1586.3 112.88ZM1581.19 102.144C1581.19 104.549 1581.87 106.368 1583.22 107.6C1584.57 108.773 1586.47 109.36 1588.94 109.36C1590.4 109.36 1591.99 109.155 1593.69 108.744C1595.39 108.275 1597 107.571 1598.53 106.632V91.76C1593.66 92.7573 1589.96 93.7547 1587.44 94.752C1584.98 95.7493 1583.3 96.8347 1582.42 98.008C1581.6 99.1813 1581.19 100.56 1581.19 102.144ZM1620.01 125.2V123.616H1631.19V48.464H1620.01V46.88H1634.27V125.2H1620.01ZM1678.93 112V110.68L1684.47 109.184V50.224L1678.05 48.552V47.232L1687.99 46H1688.87V109.184L1695.12 110.68V112H1678.93ZM1738.87 125.2V46.88H1753.13V48.464H1741.95V123.616H1753.13V125.2H1738.87ZM1784.32 112.88C1780.16 112.88 1776.64 112 1773.76 110.24C1770.95 108.48 1768.81 106.104 1767.34 103.112C1765.93 100.12 1765.23 96.7467 1765.23 92.992C1765.23 89.0027 1766.05 85.3947 1767.69 82.168C1769.39 78.9413 1771.59 76.36 1774.29 74.424C1777.05 72.488 1780.04 71.52 1783.27 71.52C1787.9 71.52 1791.54 73.0453 1794.18 76.096C1796.82 79.1467 1798.35 83.3707 1798.76 88.768L1798.49 89.032H1769.72C1769.66 89.912 1769.63 90.8507 1769.63 91.848C1769.63 97.0107 1771.01 101.205 1773.76 104.432C1776.58 107.6 1780.51 109.184 1785.56 109.184C1788.31 109.184 1790.81 108.773 1793.04 107.952C1795.32 107.131 1797.11 106.016 1798.4 104.608H1798.67V105.752C1797.38 107.805 1795.47 109.507 1792.95 110.856C1790.48 112.205 1787.61 112.88 1784.32 112.88ZM1782.21 73.456C1779.34 73.456 1776.76 74.6587 1774.47 77.064C1772.18 79.4107 1770.68 82.7547 1769.98 87.096H1793.92C1793.33 82.8133 1792.13 79.4693 1790.31 77.064C1788.49 74.6587 1785.79 73.456 1782.21 73.456ZM1809.99 125.2V123.616H1821.17V48.464H1809.99V46.88H1824.25V125.2H1809.99Z" fill="#424242"/>
<rect x="167" y="172" width="1972" height="170" rx="8" fill="#424242"/>
<path d="M487.229 288.8V224.72H498.893V226.016H489.749V287.504H498.893V288.8H487.229ZM521.319 278.72C518.391 278.72 515.991 277.88 514.119 276.2C512.247 274.52 511.311 272.072 511.311 268.856V247.904L506.199 246.68V245.6H514.911V266.912C514.911 269.84 515.655 272.072 517.143 273.608C518.679 275.096 520.647 275.84 523.047 275.84C524.439 275.84 525.927 275.504 527.511 274.832C529.143 274.112 530.463 273.104 531.471 271.808V247.904L525.639 246.68V245.6H535.071V275.696L540.183 276.92V278H531.471V273.608H531.255C529.527 275.336 527.895 276.632 526.359 277.496C524.823 278.312 523.143 278.72 521.319 278.72ZM547.548 288.8V287.504H556.692V226.016H547.548V224.72H559.212V288.8H547.548ZM570.838 278V276.92L575.014 275.768L584.158 261.8L575.374 247.976L571.198 246.68V245.6H583.942V246.68L579.406 247.904V248.12L586.606 259.424L593.23 248.12V247.904L589.27 246.68V245.6H599.422V246.68L595.534 248.264L587.254 260.432L596.974 275.624L600.646 276.92V278H588.838V276.92L592.87 275.696V275.48L584.806 262.88L577.75 275.48V275.696L581.638 276.92V278H570.838Z" fill="black"/>
<path d="M645.489 278.72C642.081 278.72 639.201 278 636.849 276.56C634.545 275.12 632.793 273.176 631.593 270.728C630.441 268.28 629.865 265.52 629.865 262.448C629.865 259.184 630.537 256.232 631.881 253.592C633.273 250.952 635.073 248.84 637.281 247.256C639.537 245.672 641.985 244.88 644.625 244.88C648.417 244.88 651.393 246.128 653.553 248.624C655.713 251.12 656.961 254.576 657.297 258.992L657.081 259.208H633.537C633.489 259.928 633.465 260.696 633.465 261.512C633.465 265.736 634.593 269.168 636.849 271.808C639.153 274.4 642.369 275.696 646.497 275.696C648.753 275.696 650.793 275.36 652.617 274.688C654.489 274.016 655.953 273.104 657.009 271.952H657.225V272.888C656.169 274.568 654.609 275.96 652.545 277.064C650.529 278.168 648.177 278.72 645.489 278.72ZM643.761 246.464C641.409 246.464 639.297 247.448 637.425 249.416C635.553 251.336 634.329 254.072 633.753 257.624H653.337C652.857 254.12 651.873 251.384 650.385 249.416C648.897 247.448 646.689 246.464 643.761 246.464ZM667.985 278V276.92L672.521 275.696V248.336L667.265 247.688V246.608L675.041 244.88H675.761L676.049 250.064H676.265C678.041 248.24 679.721 246.92 681.305 246.104C682.889 245.288 684.665 244.88 686.633 244.88C689.657 244.88 692.129 245.72 694.049 247.4C696.017 249.08 697.001 251.528 697.001 254.744V275.696L701.537 276.92V278H688.289V276.92L693.401 275.696V256.688C693.401 253.76 692.609 251.552 691.025 250.064C689.489 248.528 687.449 247.76 684.905 247.76C683.465 247.76 681.905 248.12 680.225 248.84C678.545 249.512 677.177 250.496 676.121 251.792V275.696L681.233 276.92V278H667.985ZM723.751 267.128C722.311 267.128 720.943 266.888 719.647 266.408C718.063 267.08 716.959 267.8 716.335 268.568C715.711 269.336 715.399 270.224 715.399 271.232C715.399 272.864 715.975 274.04 717.127 274.76C718.279 275.48 720.055 275.84 722.455 275.84H730.591C733.423 275.84 735.583 276.512 737.071 277.856C738.607 279.2 739.375 281.048 739.375 283.4C739.375 285.368 738.703 287.264 737.359 289.088C736.015 290.912 734.143 292.4 731.743 293.552C729.343 294.704 726.511 295.28 723.247 295.28C719.071 295.28 716.071 294.44 714.247 292.76C712.423 291.128 711.511 289.112 711.511 286.712C711.511 284.936 711.871 283.4 712.591 282.104L716.983 278.432V278.288C713.863 277.376 712.303 275.48 712.303 272.6C712.303 271.016 712.831 269.696 713.887 268.64L718.135 266.12V265.76C716.407 264.848 715.039 263.552 714.031 261.872C713.023 260.144 712.519 258.2 712.519 256.04C712.519 253.928 712.999 252.032 713.959 250.352C714.967 248.672 716.311 247.352 717.991 246.392C719.671 245.384 721.591 244.88 723.751 244.88C724.807 244.88 725.959 245.024 727.207 245.312C728.455 245.552 729.439 245.84 730.159 246.176L739.951 245.6V248.552L732.679 248.048L732.535 248.192C733.303 249.008 733.879 250.16 734.263 251.648C734.695 253.088 734.911 254.552 734.911 256.04C734.911 258.152 734.431 260.048 733.471 261.728C732.511 263.408 731.191 264.728 729.511 265.688C727.831 266.648 725.911 267.128 723.751 267.128ZM724.471 265.688C726.535 265.688 728.167 264.872 729.367 263.24C730.615 261.56 731.239 259.208 731.239 256.184C731.239 252.872 730.471 250.4 728.935 248.768C727.399 247.088 725.503 246.248 723.247 246.248C721.039 246.248 719.311 247.112 718.063 248.84C716.815 250.52 716.191 252.848 716.191 255.824C716.191 259.136 716.959 261.608 718.495 263.24C720.079 264.872 722.071 265.688 724.471 265.688ZM714.823 285.92C714.823 288.128 715.735 289.976 717.559 291.464C719.431 292.952 721.711 293.696 724.399 293.696C726.703 293.696 728.743 293.264 730.519 292.4C732.295 291.584 733.687 290.48 734.695 289.088C735.703 287.744 736.207 286.304 736.207 284.768C736.207 282.464 735.607 280.88 734.407 280.016C733.255 279.152 731.167 278.72 728.143 278.72H720.583C719.863 278.72 719.167 278.672 718.495 278.576C717.103 279.392 716.143 280.376 715.615 281.528C715.087 282.728 714.823 284.192 714.823 285.92ZM756.357 233.504C755.589 233.504 754.941 233.24 754.413 232.712C753.885 232.184 753.621 231.536 753.621 230.768C753.621 230 753.885 229.352 754.413 228.824C754.941 228.296 755.589 228.032 756.357 228.032C757.125 228.032 757.773 228.296 758.301 228.824C758.829 229.352 759.093 230 759.093 230.768C759.093 231.536 758.829 232.184 758.301 232.712C757.773 233.24 757.125 233.504 756.357 233.504ZM751.029 278V276.92L755.565 275.696V248.336L750.309 246.968V245.888L758.445 244.88H759.165V275.696L764.277 276.92V278H751.029ZM775.203 278V276.92L779.739 275.696V248.336L774.483 247.688V246.608L782.259 244.88H782.979L783.267 250.064H783.483C785.259 248.24 786.939 246.92 788.523 246.104C790.107 245.288 791.883 244.88 793.851 244.88C796.875 244.88 799.347 245.72 801.267 247.4C803.235 249.08 804.219 251.528 804.219 254.744V275.696L808.755 276.92V278H795.507V276.92L800.619 275.696V256.688C800.619 253.76 799.827 251.552 798.243 250.064C796.707 248.528 794.667 247.76 792.123 247.76C790.683 247.76 789.123 248.12 787.443 248.84C785.763 249.512 784.395 250.496 783.339 251.792V275.696L788.451 276.92V278H775.203ZM833.561 278.72C830.153 278.72 827.273 278 824.921 276.56C822.617 275.12 820.865 273.176 819.665 270.728C818.513 268.28 817.937 265.52 817.937 262.448C817.937 259.184 818.609 256.232 819.953 253.592C821.345 250.952 823.145 248.84 825.353 247.256C827.609 245.672 830.057 244.88 832.697 244.88C836.489 244.88 839.465 246.128 841.625 248.624C843.785 251.12 845.033 254.576 845.369 258.992L845.153 259.208H821.609C821.561 259.928 821.537 260.696 821.537 261.512C821.537 265.736 822.665 269.168 824.921 271.808C827.225 274.4 830.441 275.696 834.569 275.696C836.825 275.696 838.865 275.36 840.689 274.688C842.561 274.016 844.025 273.104 845.081 271.952H845.297V272.888C844.241 274.568 842.681 275.96 840.617 277.064C838.601 278.168 836.249 278.72 833.561 278.72ZM831.833 246.464C829.481 246.464 827.369 247.448 825.497 249.416C823.625 251.336 822.401 254.072 821.825 257.624H841.409C840.929 254.12 839.945 251.384 838.457 249.416C836.969 247.448 834.761 246.464 831.833 246.464ZM871.808 278.72C868.4 278.72 865.52 278 863.168 276.56C860.864 275.12 859.112 273.176 857.912 270.728C856.76 268.28 856.184 265.52 856.184 262.448C856.184 259.184 856.856 256.232 858.2 253.592C859.592 250.952 861.392 248.84 863.6 247.256C865.856 245.672 868.304 244.88 870.944 244.88C874.736 244.88 877.712 246.128 879.872 248.624C882.032 251.12 883.28 254.576 883.616 258.992L883.4 259.208H859.856C859.808 259.928 859.784 260.696 859.784 261.512C859.784 265.736 860.912 269.168 863.168 271.808C865.472 274.4 868.688 275.696 872.816 275.696C875.072 275.696 877.112 275.36 878.936 274.688C880.808 274.016 882.272 273.104 883.328 271.952H883.544V272.888C882.488 274.568 880.928 275.96 878.864 277.064C876.848 278.168 874.496 278.72 871.808 278.72ZM870.08 246.464C867.728 246.464 865.616 247.448 863.744 249.416C861.872 251.336 860.648 254.072 860.072 257.624H879.656C879.176 254.12 878.192 251.384 876.704 249.416C875.216 247.448 873.008 246.464 870.08 246.464ZM894.592 278V276.92L899.128 275.696V248.336L893.872 247.688V246.608L901.648 244.88H902.368L902.728 251.288H902.872C904.744 249.32 906.232 247.88 907.336 246.968C908.44 246.056 909.352 245.48 910.072 245.24C910.792 245 911.608 244.88 912.52 244.88C913.336 244.88 914.08 245.024 914.752 245.312C915.232 245.504 915.568 245.696 915.76 245.888C916 246.032 916.12 246.248 916.12 246.536C916.12 246.632 916.096 246.752 916.048 246.896C916.048 246.992 916.024 247.136 915.976 247.328L915.256 249.2H915.112L913.744 248.552C913.072 248.216 912.184 248.048 911.08 248.048C909.688 248.048 908.296 248.432 906.904 249.2C905.512 249.968 904.12 251.312 902.728 253.232V275.696L908.272 276.92V278H894.592ZM944.368 278V276.92L948.904 275.696V248.336L943.648 247.688V246.608L951.424 244.88H952.144L952.504 251.288H952.648C954.52 249.32 956.008 247.88 957.112 246.968C958.216 246.056 959.128 245.48 959.848 245.24C960.568 245 961.384 244.88 962.296 244.88C963.112 244.88 963.856 245.024 964.528 245.312C965.008 245.504 965.344 245.696 965.536 245.888C965.776 246.032 965.896 246.248 965.896 246.536C965.896 246.632 965.872 246.752 965.824 246.896C965.824 246.992 965.8 247.136 965.752 247.328L965.032 249.2H964.888L963.52 248.552C962.848 248.216 961.96 248.048 960.856 248.048C959.464 248.048 958.072 248.432 956.68 249.2C955.288 249.968 953.896 251.312 952.504 253.232V275.696L958.048 276.92V278H944.368ZM988.024 278.72C984.616 278.72 981.736 278 979.384 276.56C977.08 275.12 975.328 273.176 974.128 270.728C972.976 268.28 972.4 265.52 972.4 262.448C972.4 259.184 973.072 256.232 974.416 253.592C975.808 250.952 977.608 248.84 979.816 247.256C982.072 245.672 984.52 244.88 987.16 244.88C990.952 244.88 993.928 246.128 996.088 248.624C998.248 251.12 999.496 254.576 999.832 258.992L999.616 259.208H976.072C976.024 259.928 976 260.696 976 261.512C976 265.736 977.128 269.168 979.384 271.808C981.688 274.4 984.904 275.696 989.032 275.696C991.288 275.696 993.328 275.36 995.152 274.688C997.024 274.016 998.488 273.104 999.544 271.952H999.76V272.888C998.704 274.568 997.144 275.96 995.08 277.064C993.064 278.168 990.712 278.72 988.024 278.72ZM986.296 246.464C983.944 246.464 981.832 247.448 979.96 249.416C978.088 251.336 976.864 254.072 976.288 257.624H995.872C995.392 254.12 994.408 251.384 992.92 249.416C991.432 247.448 989.224 246.464 986.296 246.464ZM1019.45 278.72C1017.77 278.72 1016.26 278.528 1014.91 278.144C1013.62 277.808 1012.27 277.304 1010.88 276.632V269.144H1011.74L1012.75 272.384C1013.18 273.824 1013.98 274.976 1015.13 275.84C1016.28 276.656 1017.91 277.064 1020.02 277.064C1022.33 277.064 1024.1 276.512 1025.35 275.408C1026.65 274.256 1027.3 272.624 1027.3 270.512C1027.3 268.64 1026.79 267.176 1025.78 266.12C1024.78 265.016 1022.9 263.912 1020.17 262.808C1017.29 261.656 1015.15 260.408 1013.76 259.064C1012.42 257.72 1011.74 255.8 1011.74 253.304C1011.74 251.768 1012.15 250.376 1012.97 249.128C1013.83 247.832 1014.96 246.8 1016.35 246.032C1017.74 245.264 1019.23 244.88 1020.82 244.88C1022.59 244.88 1024.18 245.096 1025.57 245.528C1026.96 245.912 1028.16 246.368 1029.17 246.896V254.24H1028.3L1027.37 251.144C1026.89 249.464 1025.98 248.264 1024.63 247.544C1023.34 246.824 1022.02 246.464 1020.67 246.464C1018.8 246.464 1017.36 247.016 1016.35 248.12C1015.39 249.224 1014.91 250.664 1014.91 252.44C1014.91 254.216 1015.44 255.608 1016.5 256.616C1017.55 257.624 1019.26 258.608 1021.61 259.568C1023.72 260.432 1025.42 261.272 1026.72 262.088C1028.06 262.904 1029.05 263.912 1029.67 265.112C1030.3 266.264 1030.61 267.752 1030.61 269.576C1030.61 271.208 1030.15 272.72 1029.24 274.112C1028.33 275.504 1027.03 276.632 1025.35 277.496C1023.67 278.312 1021.7 278.72 1019.45 278.72ZM1057.63 278.72C1054.22 278.72 1051.34 278 1048.99 276.56C1046.68 275.12 1044.93 273.176 1043.73 270.728C1042.58 268.28 1042 265.52 1042 262.448C1042 259.184 1042.68 256.232 1044.02 253.592C1045.41 250.952 1047.21 248.84 1049.42 247.256C1051.68 245.672 1054.12 244.88 1056.76 244.88C1060.56 244.88 1063.53 246.128 1065.69 248.624C1067.85 251.12 1069.1 254.576 1069.44 258.992L1069.22 259.208H1045.68C1045.63 259.928 1045.6 260.696 1045.6 261.512C1045.6 265.736 1046.73 269.168 1048.99 271.808C1051.29 274.4 1054.51 275.696 1058.64 275.696C1060.89 275.696 1062.93 275.36 1064.76 274.688C1066.63 274.016 1068.09 273.104 1069.15 271.952H1069.36V272.888C1068.31 274.568 1066.75 275.96 1064.68 277.064C1062.67 278.168 1060.32 278.72 1057.63 278.72ZM1055.9 246.464C1053.55 246.464 1051.44 247.448 1049.56 249.416C1047.69 251.336 1046.47 254.072 1045.89 257.624H1065.48C1065 254.12 1064.01 251.384 1062.52 249.416C1061.04 247.448 1058.83 246.464 1055.9 246.464ZM1087.18 278.72C1084.97 278.72 1083.12 278.072 1081.64 276.776C1080.15 275.432 1079.4 273.584 1079.4 271.232C1079.4 268.928 1080.22 267.008 1081.85 265.472C1083.53 263.936 1086.29 262.688 1090.13 261.728L1097.19 259.928V253.952C1097.19 251.888 1096.44 250.232 1094.96 248.984C1093.47 247.688 1091.76 247.04 1089.84 247.04C1087.78 247.04 1086.32 247.472 1085.45 248.336C1084.64 249.152 1084.23 250.28 1084.23 251.72V254.672L1083.87 255.032H1082C1081.23 255.032 1080.72 254.912 1080.48 254.672C1080.24 254.432 1080.12 253.976 1080.12 253.304C1080.12 252.392 1080.44 251.456 1081.06 250.496C1081.68 249.536 1082.6 248.672 1083.8 247.904C1085.09 247.088 1086.39 246.392 1087.68 245.816C1089.03 245.192 1090.3 244.88 1091.5 244.88C1094.38 244.88 1096.64 245.528 1098.27 246.824C1099.95 248.072 1100.79 250.04 1100.79 252.728V275.12C1101.17 275.456 1101.6 275.72 1102.08 275.912C1102.61 276.104 1103.21 276.2 1103.88 276.2H1107.63L1107.7 276.272V276.416C1107.36 276.896 1106.81 277.4 1106.04 277.928C1105.28 278.456 1104.24 278.72 1102.95 278.72C1101.27 278.72 1099.97 278.288 1099.06 277.424C1098.15 276.56 1097.6 275.552 1097.4 274.4H1097.26C1096.01 275.648 1094.5 276.68 1092.72 277.496C1091 278.312 1089.15 278.72 1087.18 278.72ZM1083 269.936C1083 271.904 1083.56 273.392 1084.66 274.4C1085.76 275.36 1087.32 275.84 1089.34 275.84C1090.54 275.84 1091.84 275.672 1093.23 275.336C1094.62 274.952 1095.94 274.376 1097.19 273.608V261.44C1093.2 262.256 1090.18 263.072 1088.12 263.888C1086.1 264.704 1084.73 265.592 1084.01 266.552C1083.34 267.512 1083 268.64 1083 269.936ZM1115.85 278V276.92L1120.38 275.696V248.336L1115.13 247.688V246.608L1122.9 244.88H1123.62L1123.98 251.288H1124.13C1126 249.32 1127.49 247.88 1128.59 246.968C1129.69 246.056 1130.61 245.48 1131.33 245.24C1132.05 245 1132.86 244.88 1133.77 244.88C1134.59 244.88 1135.33 245.024 1136.01 245.312C1136.49 245.504 1136.82 245.696 1137.01 245.888C1137.25 246.032 1137.37 246.248 1137.37 246.536C1137.37 246.632 1137.35 246.752 1137.3 246.896C1137.3 246.992 1137.28 247.136 1137.23 247.328L1136.51 249.2H1136.37L1135 248.552C1134.33 248.216 1133.44 248.048 1132.33 248.048C1130.94 248.048 1129.55 248.432 1128.16 249.2C1126.77 249.968 1125.37 251.312 1123.98 253.232V275.696L1129.53 276.92V278H1115.85ZM1159.29 278.72C1155.93 278.72 1153.09 278 1150.79 276.56C1148.53 275.12 1146.81 273.176 1145.61 270.728C1144.45 268.28 1143.88 265.52 1143.88 262.448C1143.88 259.088 1144.55 256.088 1145.89 253.448C1147.29 250.76 1149.18 248.672 1151.58 247.184C1154.03 245.648 1156.79 244.88 1159.86 244.88C1161.78 244.88 1163.49 245.144 1164.97 245.672C1166.46 246.2 1167.66 246.776 1168.57 247.4C1170.11 248.456 1170.88 249.368 1170.88 250.136C1170.88 250.472 1170.71 250.784 1170.37 251.072L1168.43 252.728H1168.14L1167.21 251.432C1166.15 249.992 1165 248.816 1163.75 247.904C1162.55 246.944 1160.99 246.464 1159.07 246.464C1155.71 246.464 1152.93 247.736 1150.72 250.28C1148.56 252.776 1147.48 256.52 1147.48 261.512C1147.48 265.736 1148.58 269.168 1150.79 271.808C1153.05 274.4 1156.21 275.696 1160.29 275.696C1162.5 275.696 1164.54 275.36 1166.41 274.688C1168.29 274.016 1169.75 273.104 1170.81 271.952H1171.02V272.888C1169.92 274.568 1168.36 275.96 1166.34 277.064C1164.33 278.168 1161.97 278.72 1159.29 278.72ZM1181.29 278V276.92L1185.83 275.696V227.456L1180.57 226.088V225.008L1188.71 224H1189.43V250.064H1189.57C1191.35 248.24 1193.03 246.92 1194.61 246.104C1196.2 245.288 1197.97 244.88 1199.94 244.88C1202.97 244.88 1205.44 245.72 1207.36 247.4C1209.33 249.08 1210.31 251.528 1210.31 254.744V275.696L1214.85 276.92V278H1201.6V276.92L1206.71 275.696V256.688C1206.71 253.76 1205.92 251.552 1204.33 250.064C1202.8 248.528 1200.76 247.76 1198.21 247.76C1196.77 247.76 1195.21 248.12 1193.53 248.84C1191.85 249.512 1190.49 250.496 1189.43 251.792V275.696L1194.54 276.92V278H1181.29ZM1239.65 278.72C1236.24 278.72 1233.36 278 1231.01 276.56C1228.71 275.12 1226.96 273.176 1225.76 270.728C1224.6 268.28 1224.03 265.52 1224.03 262.448C1224.03 259.184 1224.7 256.232 1226.04 253.592C1227.44 250.952 1229.24 248.84 1231.44 247.256C1233.7 245.672 1236.15 244.88 1238.79 244.88C1242.58 244.88 1245.56 246.128 1247.72 248.624C1249.88 251.12 1251.12 254.576 1251.46 258.992L1251.24 259.208H1227.7C1227.65 259.928 1227.63 260.696 1227.63 261.512C1227.63 265.736 1228.76 269.168 1231.01 271.808C1233.32 274.4 1236.53 275.696 1240.66 275.696C1242.92 275.696 1244.96 275.36 1246.78 274.688C1248.65 274.016 1250.12 273.104 1251.17 271.952H1251.39V272.888C1250.33 274.568 1248.77 275.96 1246.71 277.064C1244.69 278.168 1242.34 278.72 1239.65 278.72ZM1237.92 246.464C1235.57 246.464 1233.46 247.448 1231.59 249.416C1229.72 251.336 1228.49 254.072 1227.92 257.624H1247.5C1247.02 254.12 1246.04 251.384 1244.55 249.416C1243.06 247.448 1240.85 246.464 1237.92 246.464ZM1262.44 278V276.92L1266.97 275.696V248.336L1261.72 247.688V246.608L1269.49 244.88H1270.21L1270.57 251.288H1270.72C1272.59 249.32 1274.08 247.88 1275.18 246.968C1276.28 246.056 1277.2 245.48 1277.92 245.24C1278.64 245 1279.45 244.88 1280.36 244.88C1281.18 244.88 1281.92 245.024 1282.6 245.312C1283.08 245.504 1283.41 245.696 1283.6 245.888C1283.84 246.032 1283.96 246.248 1283.96 246.536C1283.96 246.632 1283.94 246.752 1283.89 246.896C1283.89 246.992 1283.87 247.136 1283.82 247.328L1283.1 249.2H1282.96L1281.59 248.552C1280.92 248.216 1280.03 248.048 1278.92 248.048C1277.53 248.048 1276.14 248.432 1274.75 249.2C1273.36 249.968 1271.96 251.312 1270.57 253.232V275.696L1276.12 276.92V278H1262.44ZM1320.71 278.36L1310.63 248.048L1306.09 246.68V245.6H1319.92V246.68L1314.37 247.904V248.12L1322 273.104H1322.29L1332.37 245.6H1333.45L1343.53 272.888H1343.82L1351.31 248.192V247.976L1345.48 246.68V245.6H1358.22V246.68L1353.61 248.048L1343.03 278.36H1342.31L1332.08 251.936L1321.43 278.36H1320.71ZM1363.89 278V276.92L1368.42 275.696V248.336L1363.17 247.688V246.608L1370.94 244.88H1371.66L1372.02 251.288H1372.17C1374.04 249.32 1375.53 247.88 1376.63 246.968C1377.74 246.056 1378.65 245.48 1379.37 245.24C1380.09 245 1380.9 244.88 1381.82 244.88C1382.63 244.88 1383.38 245.024 1384.05 245.312C1384.53 245.504 1384.86 245.696 1385.06 245.888C1385.3 246.032 1385.42 246.248 1385.42 246.536C1385.42 246.632 1385.39 246.752 1385.34 246.896C1385.34 246.992 1385.32 247.136 1385.27 247.328L1384.55 249.2H1384.41L1383.04 248.552C1382.37 248.216 1381.48 248.048 1380.38 248.048C1378.98 248.048 1377.59 248.432 1376.2 249.2C1374.81 249.968 1373.42 251.312 1372.02 253.232V275.696L1377.57 276.92V278H1363.89ZM1398.26 233.504C1397.49 233.504 1396.84 233.24 1396.31 232.712C1395.78 232.184 1395.52 231.536 1395.52 230.768C1395.52 230 1395.78 229.352 1396.31 228.824C1396.84 228.296 1397.49 228.032 1398.26 228.032C1399.02 228.032 1399.67 228.296 1400.2 228.824C1400.73 229.352 1400.99 230 1400.99 230.768C1400.99 231.536 1400.73 232.184 1400.2 232.712C1399.67 233.24 1399.02 233.504 1398.26 233.504ZM1392.93 278V276.92L1397.46 275.696V248.336L1392.21 246.968V245.888L1400.34 244.88H1401.06V275.696L1406.18 276.92V278H1392.93ZM1427.18 278.72C1425.22 278.72 1423.61 278.096 1422.36 276.848C1421.16 275.6 1420.56 273.848 1420.56 271.592V248.048H1414.22V247.4L1420.99 245.6L1423.37 237.68H1424.16V245.6H1433.66V248.048H1424.16V271.448C1424.16 272.936 1424.62 274.064 1425.53 274.832C1426.44 275.552 1427.64 275.912 1429.13 275.912C1430.18 275.912 1431.14 275.792 1432.01 275.552C1432.87 275.312 1433.69 274.976 1434.46 274.544L1434.53 274.616V274.904C1434.14 275.72 1433.33 276.56 1432.08 277.424C1430.83 278.288 1429.2 278.72 1427.18 278.72ZM1458.8 278.72C1455.39 278.72 1452.51 278 1450.16 276.56C1447.85 275.12 1446.1 273.176 1444.9 270.728C1443.75 268.28 1443.17 265.52 1443.17 262.448C1443.17 259.184 1443.84 256.232 1445.19 253.592C1446.58 250.952 1448.38 248.84 1450.59 247.256C1452.84 245.672 1455.29 244.88 1457.93 244.88C1461.72 244.88 1464.7 246.128 1466.86 248.624C1469.02 251.12 1470.27 254.576 1470.6 258.992L1470.39 259.208H1446.84C1446.8 259.928 1446.77 260.696 1446.77 261.512C1446.77 265.736 1447.9 269.168 1450.16 271.808C1452.46 274.4 1455.68 275.696 1459.8 275.696C1462.06 275.696 1464.1 275.36 1465.92 274.688C1467.8 274.016 1469.26 273.104 1470.32 271.952H1470.53V272.888C1469.48 274.568 1467.92 275.96 1465.85 277.064C1463.84 278.168 1461.48 278.72 1458.8 278.72ZM1457.07 246.464C1454.72 246.464 1452.6 247.448 1450.73 249.416C1448.86 251.336 1447.64 254.072 1447.06 257.624H1466.64C1466.16 254.12 1465.18 251.384 1463.69 249.416C1462.2 247.448 1460 246.464 1457.07 246.464ZM1481.58 278V276.92L1486.12 275.696V248.336L1480.86 247.688V246.608L1488.64 244.88H1489.36L1489.72 251.288H1489.86C1491.73 249.32 1493.22 247.88 1494.32 246.968C1495.43 246.056 1496.34 245.48 1497.06 245.24C1497.78 245 1498.6 244.88 1499.51 244.88C1500.32 244.88 1501.07 245.024 1501.74 245.312C1502.22 245.504 1502.56 245.696 1502.75 245.888C1502.99 246.032 1503.11 246.248 1503.11 246.536C1503.11 246.632 1503.08 246.752 1503.04 246.896C1503.04 246.992 1503.01 247.136 1502.96 247.328L1502.24 249.2H1502.1L1500.73 248.552C1500.06 248.216 1499.17 248.048 1498.07 248.048C1496.68 248.048 1495.28 248.432 1493.89 249.2C1492.5 249.968 1491.11 251.312 1489.72 253.232V275.696L1495.26 276.92V278H1481.58Z" fill="#FAFAFA"/>
<path d="M1542.88 278.72C1541.2 278.72 1539.68 278.528 1538.34 278.144C1537.04 277.808 1535.7 277.304 1534.31 276.632V269.144H1535.17L1536.18 272.384C1536.61 273.824 1537.4 274.976 1538.56 275.84C1539.71 276.656 1541.34 277.064 1543.45 277.064C1545.76 277.064 1547.53 276.512 1548.78 275.408C1550.08 274.256 1550.72 272.624 1550.72 270.512C1550.72 268.64 1550.22 267.176 1549.21 266.12C1548.2 265.016 1546.33 263.912 1543.6 262.808C1540.72 261.656 1538.58 260.408 1537.19 259.064C1535.84 257.72 1535.17 255.8 1535.17 253.304C1535.17 251.768 1535.58 250.376 1536.4 249.128C1537.26 247.832 1538.39 246.8 1539.78 246.032C1541.17 245.264 1542.66 244.88 1544.24 244.88C1546.02 244.88 1547.6 245.096 1549 245.528C1550.39 245.912 1551.59 246.368 1552.6 246.896V254.24H1551.73L1550.8 251.144C1550.32 249.464 1549.4 248.264 1548.06 247.544C1546.76 246.824 1545.44 246.464 1544.1 246.464C1542.23 246.464 1540.79 247.016 1539.78 248.12C1538.82 249.224 1538.34 250.664 1538.34 252.44C1538.34 254.216 1538.87 255.608 1539.92 256.616C1540.98 257.624 1542.68 258.608 1545.04 259.568C1547.15 260.432 1548.85 261.272 1550.15 262.088C1551.49 262.904 1552.48 263.912 1553.1 265.112C1553.72 266.264 1554.04 267.752 1554.04 269.576C1554.04 271.208 1553.58 272.72 1552.67 274.112C1551.76 275.504 1550.46 276.632 1548.78 277.496C1547.1 278.312 1545.13 278.72 1542.88 278.72ZM1582.28 278.72C1578.92 278.72 1576.09 278 1573.78 276.56C1571.53 275.12 1569.8 273.176 1568.6 270.728C1567.45 268.28 1566.87 265.52 1566.87 262.448C1566.87 259.088 1567.54 256.088 1568.89 253.448C1570.28 250.76 1572.18 248.672 1574.58 247.184C1577.02 245.648 1579.78 244.88 1582.86 244.88C1584.78 244.88 1586.48 245.144 1587.97 245.672C1589.46 246.2 1590.66 246.776 1591.57 247.4C1593.1 248.456 1593.87 249.368 1593.87 250.136C1593.87 250.472 1593.7 250.784 1593.37 251.072L1591.42 252.728H1591.14L1590.2 251.432C1589.14 249.992 1587.99 248.816 1586.74 247.904C1585.54 246.944 1583.98 246.464 1582.06 246.464C1578.7 246.464 1575.92 247.736 1573.71 250.28C1571.55 252.776 1570.47 256.52 1570.47 261.512C1570.47 265.736 1571.58 269.168 1573.78 271.808C1576.04 274.4 1579.21 275.696 1583.29 275.696C1585.5 275.696 1587.54 275.36 1589.41 274.688C1591.28 274.016 1592.74 273.104 1593.8 271.952H1594.02V272.888C1592.91 274.568 1591.35 275.96 1589.34 277.064C1587.32 278.168 1584.97 278.72 1582.28 278.72ZM1611.49 233.504C1610.72 233.504 1610.07 233.24 1609.54 232.712C1609.02 232.184 1608.75 231.536 1608.75 230.768C1608.75 230 1609.02 229.352 1609.54 228.824C1610.07 228.296 1610.72 228.032 1611.49 228.032C1612.26 228.032 1612.9 228.296 1613.43 228.824C1613.96 229.352 1614.22 230 1614.22 230.768C1614.22 231.536 1613.96 232.184 1613.43 232.712C1612.9 233.24 1612.26 233.504 1611.49 233.504ZM1606.16 278V276.92L1610.7 275.696V248.336L1605.44 246.968V245.888L1613.58 244.88H1614.3V275.696L1619.41 276.92V278H1606.16ZM1646.82 278.72C1643.42 278.72 1640.54 278 1638.18 276.56C1635.88 275.12 1634.13 273.176 1632.93 270.728C1631.78 268.28 1631.2 265.52 1631.2 262.448C1631.2 259.184 1631.87 256.232 1633.22 253.592C1634.61 250.952 1636.41 248.84 1638.62 247.256C1640.87 245.672 1643.32 244.88 1645.96 244.88C1649.75 244.88 1652.73 246.128 1654.89 248.624C1657.05 251.12 1658.3 254.576 1658.63 258.992L1658.42 259.208H1634.87C1634.82 259.928 1634.8 260.696 1634.8 261.512C1634.8 265.736 1635.93 269.168 1638.18 271.808C1640.49 274.4 1643.7 275.696 1647.83 275.696C1650.09 275.696 1652.13 275.36 1653.95 274.688C1655.82 274.016 1657.29 273.104 1658.34 271.952H1658.56V272.888C1657.5 274.568 1655.94 275.96 1653.88 277.064C1651.86 278.168 1649.51 278.72 1646.82 278.72ZM1645.1 246.464C1642.74 246.464 1640.63 247.448 1638.76 249.416C1636.89 251.336 1635.66 254.072 1635.09 257.624H1654.67C1654.19 254.12 1653.21 251.384 1651.72 249.416C1650.23 247.448 1648.02 246.464 1645.1 246.464ZM1670.76 278V276.92L1675.3 275.696V248.336L1670.04 247.688V246.608L1677.82 244.88H1678.54L1678.82 250.064H1679.04C1680.82 248.24 1682.5 246.92 1684.08 246.104C1685.66 245.288 1687.44 244.88 1689.41 244.88C1692.43 244.88 1694.9 245.72 1696.82 247.4C1698.79 249.08 1699.78 251.528 1699.78 254.744V275.696L1704.31 276.92V278H1691.06V276.92L1696.18 275.696V256.688C1696.18 253.76 1695.38 251.552 1693.8 250.064C1692.26 248.528 1690.22 247.76 1687.68 247.76C1686.24 247.76 1684.68 248.12 1683 248.84C1681.32 249.512 1679.95 250.496 1678.9 251.792V275.696L1684.01 276.92V278H1670.76ZM1725.59 278.72C1723.62 278.72 1722.01 278.096 1720.77 276.848C1719.57 275.6 1718.97 273.848 1718.97 271.592V248.048H1712.63V247.4L1719.4 245.6L1721.77 237.68H1722.57V245.6H1732.07V248.048H1722.57V271.448C1722.57 272.936 1723.02 274.064 1723.93 274.832C1724.85 275.552 1726.05 275.912 1727.53 275.912C1728.59 275.912 1729.55 275.792 1730.41 275.552C1731.28 275.312 1732.09 274.976 1732.86 274.544L1732.93 274.616V274.904C1732.55 275.72 1731.73 276.56 1730.49 277.424C1729.24 278.288 1727.61 278.72 1725.59 278.72ZM1749.35 233.504C1748.59 233.504 1747.94 233.24 1747.41 232.712C1746.88 232.184 1746.62 231.536 1746.62 230.768C1746.62 230 1746.88 229.352 1747.41 228.824C1747.94 228.296 1748.59 228.032 1749.35 228.032C1750.12 228.032 1750.77 228.296 1751.3 228.824C1751.83 229.352 1752.09 230 1752.09 230.768C1752.09 231.536 1751.83 232.184 1751.3 232.712C1750.77 233.24 1750.12 233.504 1749.35 233.504ZM1744.03 278V276.92L1748.56 275.696V248.336L1743.31 246.968V245.888L1751.44 244.88H1752.16V275.696L1757.27 276.92V278H1744.03ZM1778.57 278.72C1776.89 278.72 1775.38 278.528 1774.03 278.144C1772.74 277.808 1771.39 277.304 1770 276.632V269.144H1770.87L1771.87 272.384C1772.31 273.824 1773.1 274.976 1774.25 275.84C1775.4 276.656 1777.03 277.064 1779.15 277.064C1781.45 277.064 1783.23 276.512 1784.47 275.408C1785.77 274.256 1786.42 272.624 1786.42 270.512C1786.42 268.64 1785.91 267.176 1784.91 266.12C1783.9 265.016 1782.03 263.912 1779.29 262.808C1776.41 261.656 1774.27 260.408 1772.88 259.064C1771.54 257.72 1770.87 255.8 1770.87 253.304C1770.87 251.768 1771.27 250.376 1772.09 249.128C1772.95 247.832 1774.08 246.8 1775.47 246.032C1776.87 245.264 1778.35 244.88 1779.94 244.88C1781.71 244.88 1783.3 245.096 1784.69 245.528C1786.08 245.912 1787.28 246.368 1788.29 246.896V254.24H1787.43L1786.49 251.144C1786.01 249.464 1785.1 248.264 1783.75 247.544C1782.46 246.824 1781.14 246.464 1779.79 246.464C1777.92 246.464 1776.48 247.016 1775.47 248.12C1774.51 249.224 1774.03 250.664 1774.03 252.44C1774.03 254.216 1774.56 255.608 1775.62 256.616C1776.67 257.624 1778.38 258.608 1780.73 259.568C1782.84 260.432 1784.55 261.272 1785.84 262.088C1787.19 262.904 1788.17 263.912 1788.79 265.112C1789.42 266.264 1789.73 267.752 1789.73 269.576C1789.73 271.208 1789.27 272.72 1788.36 274.112C1787.45 275.504 1786.15 276.632 1784.47 277.496C1782.79 278.312 1780.83 278.72 1778.57 278.72ZM1813.22 278.72C1811.25 278.72 1809.65 278.096 1808.4 276.848C1807.2 275.6 1806.6 273.848 1806.6 271.592V248.048H1800.26V247.4L1807.03 245.6L1809.41 237.68H1810.2V245.6H1819.7V248.048H1810.2V271.448C1810.2 272.936 1810.65 274.064 1811.57 274.832C1812.48 275.552 1813.68 275.912 1815.17 275.912C1816.22 275.912 1817.18 275.792 1818.05 275.552C1818.91 275.312 1819.73 274.976 1820.49 274.544L1820.57 274.616V274.904C1820.18 275.72 1819.37 276.56 1818.12 277.424C1816.87 278.288 1815.24 278.72 1813.22 278.72Z" fill="#F4B400"/>
<path d="M626.265 259.28H919V261.44H626.265V259.28ZM939.904 259.28H1286.84V261.44H939.904V259.28Z" fill="#FAFAFA"/>
<path d="M1307.75 259.28H1505.99V261.44H1307.75V259.28Z" fill="#FAFAFA"/>
<ellipse cx="13.29" cy="13.2913" rx="13.29" ry="13.2913" transform="matrix(1 0 0 -1 73 100.583)" fill="#F4B400"/>
<ellipse cx="13.29" cy="13.2913" rx="13.29" ry="13.2913" transform="matrix(1 0 0 -1 73 270.583)" fill="#F4B400"/>
<line x1="87.2" y1="87" x2="87.2" y2="257" stroke="#F4B400" stroke-width="2.4"/>
</svg>
