<svg width="1656" height="445" viewBox="0 0 1656 445" fill="none" xmlns="http://www.w3.org/2000/svg">
<mask id="path-1-inside-1_1398_254" fill="white">
<rect width="1656" height="132" rx="1"/>
</mask>
<rect width="1656" height="132" rx="1" fill="white" stroke="#424242" stroke-width="2.2" mask="url(#path-1-inside-1_1398_254)"/>
<path d="M383.537 83V82.16L387.065 81.208V59.704H382.137V57.8H387.065V55.56C387.065 54.0667 387.308 52.48 387.793 50.8C388.316 49.12 389.062 47.5333 390.033 46.04C391.041 44.5467 392.292 43.3333 393.785 42.4C395.278 41.4667 397.014 41 398.993 41C399.478 41 399.908 41.0747 400.281 41.224C400.878 41.4853 401.177 41.784 401.177 42.12C401.177 42.344 401.121 42.5867 401.009 42.848L400.393 44.36H400.281L399.105 43.968C397.948 43.5947 396.828 43.408 395.745 43.408C393.841 43.408 392.385 44.192 391.377 45.76C390.369 47.328 389.865 49.848 389.865 53.32V57.8H397.257V59.704H389.865V81.208L394.177 82.16V83H383.537ZM415.35 83V82.16L418.878 81.208V59.928L414.79 59.424V58.584L420.838 57.24H421.398L421.678 62.224H421.79C423.246 60.6933 424.403 59.5733 425.262 58.864C426.12 58.1547 426.83 57.7067 427.39 57.52C427.95 57.3333 428.584 57.24 429.294 57.24C429.928 57.24 430.507 57.352 431.03 57.576C431.403 57.7253 431.664 57.8747 431.814 58.024C432 58.136 432.094 58.304 432.094 58.528C432.094 58.6027 432.075 58.696 432.038 58.808C432.038 58.8827 432.019 58.9947 431.982 59.144L431.422 60.6H431.31L430.246 60.096C429.723 59.8347 429.032 59.704 428.174 59.704C427.091 59.704 426.008 60.0027 424.926 60.6C423.843 61.1973 422.76 62.2427 421.678 63.736V81.208L425.99 82.16V83H415.35ZM454.288 83.56C452.571 83.56 451.133 83.056 449.976 82.048C448.819 81.0027 448.24 79.5653 448.24 77.736C448.24 75.944 448.875 74.4507 450.144 73.256C451.451 72.0613 453.597 71.0907 456.584 70.344L462.072 68.944V64.296C462.072 62.6907 461.493 61.4027 460.336 60.432C459.179 59.424 457.853 58.92 456.36 58.92C454.755 58.92 453.616 59.256 452.944 59.928C452.309 60.5627 451.992 61.44 451.992 62.56V64.856L451.712 65.136H450.256C449.659 65.136 449.267 65.0427 449.08 64.856C448.893 64.6693 448.8 64.3147 448.8 63.792C448.8 63.0827 449.043 62.3547 449.528 61.608C450.013 60.8613 450.723 60.1893 451.656 59.592C452.664 58.9573 453.672 58.416 454.68 57.968C455.725 57.4827 456.715 57.24 457.648 57.24C459.888 57.24 461.643 57.744 462.912 58.752C464.219 59.7227 464.872 61.2533 464.872 63.344V80.76C465.171 81.0213 465.507 81.2267 465.88 81.376C466.291 81.5253 466.757 81.6 467.28 81.6H470.192L470.248 81.656V81.768C469.987 82.1413 469.557 82.5333 468.96 82.944C468.363 83.3547 467.56 83.56 466.552 83.56C465.245 83.56 464.237 83.224 463.528 82.552C462.819 81.88 462.389 81.096 462.24 80.2H462.128C461.157 81.1707 459.981 81.9733 458.6 82.608C457.256 83.2427 455.819 83.56 454.288 83.56ZM451.04 76.728C451.04 78.2587 451.469 79.416 452.328 80.2C453.187 80.9467 454.4 81.32 455.968 81.32C456.901 81.32 457.909 81.1893 458.992 80.928C460.075 80.6293 461.101 80.1813 462.072 79.584V70.12C458.973 70.7547 456.621 71.3893 455.016 72.024C453.448 72.6587 452.384 73.3493 451.824 74.096C451.301 74.8427 451.04 75.72 451.04 76.728ZM487.56 83V82.16L491.088 81.208V59.928L487 59.424V58.584L493.048 57.24H493.608L493.832 61.272H494C495.382 59.8533 496.688 58.8267 497.92 58.192C499.152 57.5573 500.534 57.24 502.064 57.24C504.416 57.24 506.339 57.8933 507.832 59.2C509.363 60.5067 510.128 62.4107 510.128 64.912V81.208L513.656 82.16V83H503.352V82.16L507.328 81.208V66.424C507.328 64.1467 506.712 62.4293 505.48 61.272C504.286 60.0773 502.699 59.48 500.72 59.48C499.6 59.48 498.387 59.76 497.08 60.32C495.774 60.8427 494.71 61.608 493.888 62.616V81.208L497.864 82.16V83H487.56ZM543.982 83.56C541.368 83.56 539.166 83 537.374 81.88C535.619 80.76 534.275 79.248 533.342 77.344C532.446 75.44 531.998 73.2933 531.998 70.904C531.998 68.2907 532.52 65.9573 533.566 63.904C534.648 61.8133 536.123 60.1893 537.99 59.032C539.894 57.8373 542.04 57.24 544.43 57.24C545.923 57.24 547.248 57.4453 548.406 57.856C549.563 58.2667 550.496 58.7147 551.206 59.2C552.4 60.0213 552.998 60.7307 552.998 61.328C552.998 61.5893 552.867 61.832 552.606 62.056L551.094 63.344H550.87L550.142 62.336C549.32 61.216 548.424 60.3013 547.454 59.592C546.52 58.8453 545.307 58.472 543.814 58.472C541.2 58.472 539.035 59.4613 537.318 61.44C535.638 63.3813 534.798 66.2933 534.798 70.176C534.798 73.4613 535.656 76.1307 537.374 78.184C539.128 80.2 541.592 81.208 544.766 81.208C546.483 81.208 548.07 80.9467 549.526 80.424C550.982 79.9013 552.12 79.192 552.942 78.296H553.11V79.024C552.251 80.3307 551.038 81.4133 549.47 82.272C547.902 83.1307 546.072 83.56 543.982 83.56ZM576.78 48.392C576.182 48.392 575.678 48.1867 575.268 47.776C574.857 47.3653 574.652 46.8613 574.652 46.264C574.652 45.6667 574.857 45.1627 575.268 44.752C575.678 44.3413 576.182 44.136 576.78 44.136C577.377 44.136 577.881 44.3413 578.292 44.752C578.702 45.1627 578.908 45.6667 578.908 46.264C578.908 46.8613 578.702 47.3653 578.292 47.776C577.881 48.1867 577.377 48.392 576.78 48.392ZM572.636 83V82.16L576.164 81.208V59.928L572.076 58.864V58.024L578.404 57.24H578.964V81.208L582.94 82.16V83H572.636ZM609.582 83.56C608.275 83.56 607.099 83.4107 606.054 83.112C605.046 82.8507 604.001 82.4587 602.918 81.936V76.112H603.59L604.374 78.632C604.71 79.752 605.326 80.648 606.222 81.32C607.118 81.9547 608.387 82.272 610.03 82.272C611.822 82.272 613.203 81.8427 614.174 80.984C615.182 80.088 615.686 78.8187 615.686 77.176C615.686 75.72 615.294 74.5813 614.51 73.76C613.726 72.9013 612.27 72.0427 610.142 71.184C607.902 70.288 606.241 69.3173 605.158 68.272C604.113 67.2267 603.59 65.7333 603.59 63.792C603.59 62.5973 603.907 61.5147 604.542 60.544C605.214 59.536 606.091 58.7333 607.174 58.136C608.257 57.5387 609.414 57.24 610.646 57.24C612.027 57.24 613.259 57.408 614.342 57.744C615.425 58.0427 616.358 58.3973 617.142 58.808V64.52H616.47L615.742 62.112C615.369 60.8053 614.659 59.872 613.614 59.312C612.606 58.752 611.579 58.472 610.534 58.472C609.078 58.472 607.958 58.9013 607.174 59.76C606.427 60.6187 606.054 61.7387 606.054 63.12C606.054 64.5013 606.465 65.584 607.286 66.368C608.107 67.152 609.433 67.9173 611.262 68.664C612.905 69.336 614.23 69.9893 615.238 70.624C616.283 71.2587 617.049 72.0427 617.534 72.976C618.019 73.872 618.262 75.0293 618.262 76.448C618.262 77.7173 617.907 78.8933 617.198 79.976C616.489 81.0587 615.481 81.936 614.174 82.608C612.867 83.2427 611.337 83.56 609.582 83.56ZM638.605 91.4V41.56H647.677V42.568H640.565V90.392H647.677V91.4H638.605ZM676.824 83.56C674.173 83.56 671.933 83 670.104 81.88C668.312 80.76 666.949 79.248 666.016 77.344C665.12 75.44 664.672 73.2933 664.672 70.904C664.672 68.3653 665.194 66.0693 666.24 64.016C667.322 61.9627 668.722 60.32 670.44 59.088C672.194 57.856 674.098 57.24 676.152 57.24C679.101 57.24 681.416 58.2107 683.096 60.152C684.776 62.0933 685.746 64.7813 686.008 68.216L685.84 68.384H667.528C667.49 68.944 667.472 69.5413 667.472 70.176C667.472 73.4613 668.349 76.1307 670.104 78.184C671.896 80.2 674.397 81.208 677.608 81.208C679.362 81.208 680.949 80.9467 682.368 80.424C683.824 79.9013 684.962 79.192 685.784 78.296H685.952V79.024C685.13 80.3307 683.917 81.4133 682.312 82.272C680.744 83.1307 678.914 83.56 676.824 83.56ZM675.48 58.472C673.65 58.472 672.008 59.2373 670.552 60.768C669.096 62.2613 668.144 64.3893 667.696 67.152H682.928C682.554 64.4267 681.789 62.2987 680.632 60.768C679.474 59.2373 677.757 58.472 675.48 58.472ZM712.464 83.56C711.158 83.56 709.982 83.4107 708.936 83.112C707.928 82.8507 706.883 82.4587 705.8 81.936V76.112H706.472L707.256 78.632C707.592 79.752 708.208 80.648 709.104 81.32C710 81.9547 711.27 82.272 712.912 82.272C714.704 82.272 716.086 81.8427 717.056 80.984C718.064 80.088 718.568 78.8187 718.568 77.176C718.568 75.72 718.176 74.5813 717.392 73.76C716.608 72.9013 715.152 72.0427 713.024 71.184C710.784 70.288 709.123 69.3173 708.04 68.272C706.995 67.2267 706.472 65.7333 706.472 63.792C706.472 62.5973 706.79 61.5147 707.424 60.544C708.096 59.536 708.974 58.7333 710.056 58.136C711.139 57.5387 712.296 57.24 713.528 57.24C714.91 57.24 716.142 57.408 717.224 57.744C718.307 58.0427 719.24 58.3973 720.024 58.808V64.52H719.352L718.624 62.112C718.251 60.8053 717.542 59.872 716.496 59.312C715.488 58.752 714.462 58.472 713.416 58.472C711.96 58.472 710.84 58.9013 710.056 59.76C709.31 60.6187 708.936 61.7387 708.936 63.12C708.936 64.5013 709.347 65.584 710.168 66.368C710.99 67.152 712.315 67.9173 714.144 68.664C715.787 69.336 717.112 69.9893 718.12 70.624C719.166 71.2587 719.931 72.0427 720.416 72.976C720.902 73.872 721.144 75.0293 721.144 76.448C721.144 77.7173 720.79 78.8933 720.08 79.976C719.371 81.0587 718.363 81.936 717.056 82.608C715.75 83.2427 714.219 83.56 712.464 83.56ZM741.656 95.88V95.04L745.184 94.088V59.928L741.096 59.424V58.584L747.144 57.24H747.704L747.928 60.712H748.208C749.627 59.5173 750.989 58.64 752.296 58.08C753.64 57.52 755.077 57.24 756.608 57.24C758.475 57.24 760.136 57.7253 761.592 58.696C763.048 59.6667 764.187 61.048 765.008 62.84C765.867 64.5947 766.296 66.704 766.296 69.168C766.296 72.2293 765.699 74.8427 764.504 77.008C763.309 79.136 761.723 80.76 759.744 81.88C757.765 83 755.581 83.56 753.192 83.56C752.371 83.56 751.512 83.4107 750.616 83.112C749.72 82.8507 748.843 82.496 747.984 82.048V94.088L751.96 95.04V95.88H741.656ZM755.096 59.144C753.715 59.144 752.427 59.3867 751.232 59.872C750.075 60.3573 748.992 61.048 747.984 61.944V79.808C749.141 80.5547 750.28 81.1333 751.4 81.544C752.52 81.9173 753.771 82.104 755.152 82.104C756.683 82.104 758.083 81.712 759.352 80.928C760.659 80.144 761.704 78.8747 762.488 77.12C763.272 75.328 763.664 72.976 763.664 70.064C763.664 67.5627 763.253 65.5093 762.432 63.904C761.611 62.2613 760.528 61.0667 759.184 60.32C757.877 59.536 756.515 59.144 755.096 59.144ZM797.792 83.56C795.515 83.56 793.517 82.9813 791.8 81.824C790.083 80.6667 788.739 79.0987 787.768 77.12C786.797 75.1413 786.312 72.9013 786.312 70.4C786.312 67.8987 786.797 65.6587 787.768 63.68C788.739 61.7013 790.083 60.1333 791.8 58.976C793.517 57.8187 795.515 57.24 797.792 57.24C800.069 57.24 802.067 57.8187 803.784 58.976C805.501 60.1333 806.845 61.7013 807.816 63.68C808.787 65.6587 809.272 67.8987 809.272 70.4C809.272 72.9013 808.787 75.1413 807.816 77.12C806.845 79.0987 805.501 80.6667 803.784 81.824C802.067 82.9813 800.069 83.56 797.792 83.56ZM798.576 82.272C800.293 82.272 801.731 81.768 802.888 80.76C804.083 79.7147 804.979 78.3707 805.576 76.728C806.173 75.0853 806.472 73.3493 806.472 71.52C806.472 69.0933 806.117 66.9093 805.408 64.968C804.699 62.9893 803.635 61.4213 802.216 60.264C800.835 59.0693 799.136 58.472 797.12 58.472C795.44 58.472 794.003 58.9573 792.808 59.928C791.613 60.8613 790.699 62.1493 790.064 63.792C789.429 65.3973 789.112 67.208 789.112 69.224C789.112 71.6507 789.485 73.8533 790.232 75.832C791.016 77.8107 792.099 79.3787 793.48 80.536C794.899 81.6933 796.597 82.272 798.576 82.272ZM835.691 83.56C834.384 83.56 833.208 83.4107 832.163 83.112C831.155 82.8507 830.109 82.4587 829.027 81.936V76.112H829.699L830.483 78.632C830.819 79.752 831.435 80.648 832.331 81.32C833.227 81.9547 834.496 82.272 836.139 82.272C837.931 82.272 839.312 81.8427 840.283 80.984C841.291 80.088 841.795 78.8187 841.795 77.176C841.795 75.72 841.403 74.5813 840.619 73.76C839.835 72.9013 838.379 72.0427 836.251 71.184C834.011 70.288 832.349 69.3173 831.267 68.272C830.221 67.2267 829.699 65.7333 829.699 63.792C829.699 62.5973 830.016 61.5147 830.651 60.544C831.323 59.536 832.2 58.7333 833.283 58.136C834.365 57.5387 835.523 57.24 836.755 57.24C838.136 57.24 839.368 57.408 840.451 57.744C841.533 58.0427 842.467 58.3973 843.251 58.808V64.52H842.579L841.851 62.112C841.477 60.8053 840.768 59.872 839.723 59.312C838.715 58.752 837.688 58.472 836.643 58.472C835.187 58.472 834.067 58.9013 833.283 59.76C832.536 60.6187 832.163 61.7387 832.163 63.12C832.163 64.5013 832.573 65.584 833.395 66.368C834.216 67.152 835.541 67.9173 837.371 68.664C839.013 69.336 840.339 69.9893 841.347 70.624C842.392 71.2587 843.157 72.0427 843.643 72.976C844.128 73.872 844.371 75.0293 844.371 76.448C844.371 77.7173 844.016 78.8933 843.307 79.976C842.597 81.0587 841.589 81.936 840.283 82.608C838.976 83.2427 837.445 83.56 835.691 83.56ZM869.362 48.392C868.765 48.392 868.261 48.1867 867.85 47.776C867.439 47.3653 867.234 46.8613 867.234 46.264C867.234 45.6667 867.439 45.1627 867.85 44.752C868.261 44.3413 868.765 44.136 869.362 44.136C869.959 44.136 870.463 44.3413 870.874 44.752C871.285 45.1627 871.49 45.6667 871.49 46.264C871.49 46.8613 871.285 47.3653 870.874 47.776C870.463 48.1867 869.959 48.392 869.362 48.392ZM865.218 83V82.16L868.746 81.208V59.928L864.658 58.864V58.024L870.986 57.24H871.546V81.208L875.522 82.16V83H865.218ZM903.06 83.56C901.53 83.56 900.279 83.0747 899.308 82.104C898.375 81.1333 897.908 79.7707 897.908 78.016V59.704H892.98V59.2L898.244 57.8L900.092 51.64H900.708V57.8H908.1V59.704H900.708V77.904C900.708 79.0613 901.063 79.9387 901.772 80.536C902.482 81.096 903.415 81.376 904.572 81.376C905.394 81.376 906.14 81.2827 906.812 81.096C907.484 80.9093 908.119 80.648 908.716 80.312L908.772 80.368V80.592C908.474 81.2267 907.839 81.88 906.868 82.552C905.898 83.224 904.628 83.56 903.06 83.56ZM938.177 83.56C935.9 83.56 933.902 82.9813 932.185 81.824C930.468 80.6667 929.124 79.0987 928.153 77.12C927.182 75.1413 926.697 72.9013 926.697 70.4C926.697 67.8987 927.182 65.6587 928.153 63.68C929.124 61.7013 930.468 60.1333 932.185 58.976C933.902 57.8187 935.9 57.24 938.177 57.24C940.454 57.24 942.452 57.8187 944.169 58.976C945.886 60.1333 947.23 61.7013 948.201 63.68C949.172 65.6587 949.657 67.8987 949.657 70.4C949.657 72.9013 949.172 75.1413 948.201 77.12C947.23 79.0987 945.886 80.6667 944.169 81.824C942.452 82.9813 940.454 83.56 938.177 83.56ZM938.961 82.272C940.678 82.272 942.116 81.768 943.273 80.76C944.468 79.7147 945.364 78.3707 945.961 76.728C946.558 75.0853 946.857 73.3493 946.857 71.52C946.857 69.0933 946.502 66.9093 945.793 64.968C945.084 62.9893 944.02 61.4213 942.601 60.264C941.22 59.0693 939.521 58.472 937.505 58.472C935.825 58.472 934.388 58.9573 933.193 59.928C931.998 60.8613 931.084 62.1493 930.449 63.792C929.814 65.3973 929.497 67.208 929.497 69.224C929.497 71.6507 929.87 73.8533 930.617 75.832C931.401 77.8107 932.484 79.3787 933.865 80.536C935.284 81.6933 936.982 82.272 938.961 82.272ZM966.612 91.4V90.392H973.724V42.568H966.612V41.56H975.684V91.4H966.612ZM1007.01 83.56C1004.4 83.56 1002.2 83 1000.41 81.88C998.651 80.76 997.307 79.248 996.374 77.344C995.478 75.44 995.03 73.2933 995.03 70.904C995.03 68.2907 995.553 65.9573 996.598 63.904C997.681 61.8133 999.155 60.1893 1001.02 59.032C1002.93 57.8373 1005.07 57.24 1007.46 57.24C1008.96 57.24 1010.28 57.4453 1011.44 57.856C1012.6 58.2667 1013.53 58.7147 1014.24 59.2C1015.43 60.0213 1016.03 60.7307 1016.03 61.328C1016.03 61.5893 1015.9 61.832 1015.64 62.056L1014.13 63.344H1013.9L1013.17 62.336C1012.35 61.216 1011.46 60.3013 1010.49 59.592C1009.55 58.8453 1008.34 58.472 1006.85 58.472C1004.23 58.472 1002.07 59.4613 1000.35 61.44C998.67 63.3813 997.83 66.2933 997.83 70.176C997.83 73.4613 998.689 76.1307 1000.41 78.184C1002.16 80.2 1004.62 81.208 1007.8 81.208C1009.52 81.208 1011.1 80.9467 1012.56 80.424C1014.01 79.9013 1015.15 79.192 1015.97 78.296H1016.14V79.024C1015.28 80.3307 1014.07 81.4133 1012.5 82.272C1010.93 83.1307 1009.1 83.56 1007.01 83.56ZM1040.82 83.56C1039.1 83.56 1037.67 83.056 1036.51 82.048C1035.35 81.0027 1034.77 79.5653 1034.77 77.736C1034.77 75.944 1035.41 74.4507 1036.68 73.256C1037.98 72.0613 1040.13 71.0907 1043.12 70.344L1048.6 68.944V64.296C1048.6 62.6907 1048.03 61.4027 1046.87 60.432C1045.71 59.424 1044.39 58.92 1042.89 58.92C1041.29 58.92 1040.15 59.256 1039.48 59.928C1038.84 60.5627 1038.52 61.44 1038.52 62.56V64.856L1038.24 65.136H1036.79C1036.19 65.136 1035.8 65.0427 1035.61 64.856C1035.43 64.6693 1035.33 64.3147 1035.33 63.792C1035.33 63.0827 1035.57 62.3547 1036.06 61.608C1036.55 60.8613 1037.25 60.1893 1038.19 59.592C1039.2 58.9573 1040.2 58.416 1041.21 57.968C1042.26 57.4827 1043.25 57.24 1044.18 57.24C1046.42 57.24 1048.17 57.744 1049.44 58.752C1050.75 59.7227 1051.4 61.2533 1051.4 63.344V80.76C1051.7 81.0213 1052.04 81.2267 1052.41 81.376C1052.82 81.5253 1053.29 81.6 1053.81 81.6H1056.72L1056.78 81.656V81.768C1056.52 82.1413 1056.09 82.5333 1055.49 82.944C1054.89 83.3547 1054.09 83.56 1053.08 83.56C1051.78 83.56 1050.77 83.224 1050.06 82.552C1049.35 81.88 1048.92 81.096 1048.77 80.2H1048.66C1047.69 81.1707 1046.51 81.9733 1045.13 82.608C1043.79 83.2427 1042.35 83.56 1040.82 83.56ZM1037.57 76.728C1037.57 78.2587 1038 79.416 1038.86 80.2C1039.72 80.9467 1040.93 81.32 1042.5 81.32C1043.43 81.32 1044.44 81.1893 1045.52 80.928C1046.61 80.6293 1047.63 80.1813 1048.6 79.584V70.12C1045.51 70.7547 1043.15 71.3893 1041.55 72.024C1039.98 72.6587 1038.92 73.3493 1038.36 74.096C1037.83 74.8427 1037.57 75.72 1037.57 76.728ZM1086.18 83.56C1083.56 83.56 1081.36 83 1079.57 81.88C1077.81 80.76 1076.47 79.248 1075.54 77.344C1074.64 75.44 1074.19 73.2933 1074.19 70.904C1074.19 68.2907 1074.71 65.9573 1075.76 63.904C1076.84 61.8133 1078.32 60.1893 1080.18 59.032C1082.09 57.8373 1084.23 57.24 1086.62 57.24C1088.12 57.24 1089.44 57.4453 1090.6 57.856C1091.76 58.2667 1092.69 58.7147 1093.4 59.2C1094.59 60.0213 1095.19 60.7307 1095.19 61.328C1095.19 61.5893 1095.06 61.832 1094.8 62.056L1093.29 63.344H1093.06L1092.34 62.336C1091.51 61.216 1090.62 60.3013 1089.65 59.592C1088.71 58.8453 1087.5 58.472 1086.01 58.472C1083.39 58.472 1081.23 59.4613 1079.51 61.44C1077.83 63.3813 1076.99 66.2933 1076.99 70.176C1076.99 73.4613 1077.85 76.1307 1079.57 78.184C1081.32 80.2 1083.79 81.208 1086.96 81.208C1088.68 81.208 1090.26 80.9467 1091.72 80.424C1093.18 79.9013 1094.31 79.192 1095.14 78.296H1095.3V79.024C1094.44 80.3307 1093.23 81.4133 1091.66 82.272C1090.1 83.1307 1088.27 83.56 1086.18 83.56ZM1126.03 83.56C1123.42 83.56 1121.21 83 1119.42 81.88C1117.67 80.76 1116.32 79.248 1115.39 77.344C1114.49 75.44 1114.05 73.2933 1114.05 70.904C1114.05 68.2907 1114.57 65.9573 1115.61 63.904C1116.7 61.8133 1118.17 60.1893 1120.04 59.032C1121.94 57.8373 1124.09 57.24 1126.48 57.24C1127.97 57.24 1129.3 57.4453 1130.45 57.856C1131.61 58.2667 1132.54 58.7147 1133.25 59.2C1134.45 60.0213 1135.05 60.7307 1135.05 61.328C1135.05 61.5893 1134.91 61.832 1134.65 62.056L1133.14 63.344H1132.92L1132.19 62.336C1131.37 61.216 1130.47 60.3013 1129.5 59.592C1128.57 58.8453 1127.35 58.472 1125.86 58.472C1123.25 58.472 1121.08 59.4613 1119.37 61.44C1117.69 63.3813 1116.85 66.2933 1116.85 70.176C1116.85 73.4613 1117.7 76.1307 1119.42 78.184C1121.18 80.2 1123.64 81.208 1126.81 81.208C1128.53 81.208 1130.12 80.9467 1131.57 80.424C1133.03 79.9013 1134.17 79.192 1134.99 78.296H1135.16V79.024C1134.3 80.3307 1133.09 81.4133 1131.52 82.272C1129.95 83.1307 1128.12 83.56 1126.03 83.56ZM1159.84 83.56C1158.12 83.56 1156.68 83.056 1155.52 82.048C1154.37 81.0027 1153.79 79.5653 1153.79 77.736C1153.79 75.944 1154.42 74.4507 1155.69 73.256C1157 72.0613 1159.14 71.0907 1162.13 70.344L1167.62 68.944V64.296C1167.62 62.6907 1167.04 61.4027 1165.88 60.432C1164.73 59.424 1163.4 58.92 1161.91 58.92C1160.3 58.92 1159.16 59.256 1158.49 59.928C1157.86 60.5627 1157.54 61.44 1157.54 62.56V64.856L1157.26 65.136H1155.8C1155.21 65.136 1154.81 65.0427 1154.63 64.856C1154.44 64.6693 1154.35 64.3147 1154.35 63.792C1154.35 63.0827 1154.59 62.3547 1155.08 61.608C1155.56 60.8613 1156.27 60.1893 1157.2 59.592C1158.21 58.9573 1159.22 58.416 1160.23 57.968C1161.27 57.4827 1162.26 57.24 1163.2 57.24C1165.44 57.24 1167.19 57.744 1168.46 58.752C1169.77 59.7227 1170.42 61.2533 1170.42 63.344V80.76C1170.72 81.0213 1171.05 81.2267 1171.43 81.376C1171.84 81.5253 1172.3 81.6 1172.83 81.6H1175.74L1175.8 81.656V81.768C1175.53 82.1413 1175.1 82.5333 1174.51 82.944C1173.91 83.3547 1173.11 83.56 1172.1 83.56C1170.79 83.56 1169.78 83.224 1169.08 82.552C1168.37 81.88 1167.94 81.096 1167.79 80.2H1167.68C1166.7 81.1707 1165.53 81.9733 1164.15 82.608C1162.8 83.2427 1161.37 83.56 1159.84 83.56ZM1156.59 76.728C1156.59 78.2587 1157.02 79.416 1157.88 80.2C1158.73 80.9467 1159.95 81.32 1161.52 81.32C1162.45 81.32 1163.46 81.1893 1164.54 80.928C1165.62 80.6293 1166.65 80.1813 1167.62 79.584V70.12C1164.52 70.7547 1162.17 71.3893 1160.56 72.024C1159 72.6587 1157.93 73.3493 1157.37 74.096C1156.85 74.8427 1156.59 75.72 1156.59 76.728ZM1201.28 83.28L1192.16 59.704L1188.63 58.64V57.8H1199.38V58.64L1195.07 59.592V59.76L1202.29 79.36H1202.46L1209.57 59.816V59.648L1205.04 58.64V57.8H1214.95V58.64L1211.36 59.704L1201.84 83.28H1201.28ZM1235.77 83.56C1234.05 83.56 1232.62 83.056 1231.46 82.048C1230.3 81.0027 1229.72 79.5653 1229.72 77.736C1229.72 75.944 1230.36 74.4507 1231.63 73.256C1232.93 72.0613 1235.08 71.0907 1238.07 70.344L1243.55 68.944V64.296C1243.55 62.6907 1242.98 61.4027 1241.82 60.432C1240.66 59.424 1239.34 58.92 1237.84 58.92C1236.24 58.92 1235.1 59.256 1234.43 59.928C1233.79 60.5627 1233.47 61.44 1233.47 62.56V64.856L1233.19 65.136H1231.74C1231.14 65.136 1230.75 65.0427 1230.56 64.856C1230.38 64.6693 1230.28 64.3147 1230.28 63.792C1230.28 63.0827 1230.52 62.3547 1231.01 61.608C1231.5 60.8613 1232.2 60.1893 1233.14 59.592C1234.15 58.9573 1235.15 58.416 1236.16 57.968C1237.21 57.4827 1238.2 57.24 1239.13 57.24C1241.37 57.24 1243.12 57.744 1244.39 58.752C1245.7 59.7227 1246.35 61.2533 1246.35 63.344V80.76C1246.65 81.0213 1246.99 81.2267 1247.36 81.376C1247.77 81.5253 1248.24 81.6 1248.76 81.6H1251.67L1251.73 81.656V81.768C1251.47 82.1413 1251.04 82.5333 1250.44 82.944C1249.84 83.3547 1249.04 83.56 1248.03 83.56C1246.73 83.56 1245.72 83.224 1245.01 82.552C1244.3 81.88 1243.87 81.096 1243.72 80.2H1243.61C1242.64 81.1707 1241.46 81.9733 1240.08 82.608C1238.74 83.2427 1237.3 83.56 1235.77 83.56ZM1232.52 76.728C1232.52 78.2587 1232.95 79.416 1233.81 80.2C1234.67 80.9467 1235.88 81.32 1237.45 81.32C1238.38 81.32 1239.39 81.1893 1240.47 80.928C1241.56 80.6293 1242.58 80.1813 1243.55 79.584V70.12C1240.46 70.7547 1238.1 71.3893 1236.5 72.024C1234.93 72.6587 1233.87 73.3493 1233.31 74.096C1232.78 74.8427 1232.52 75.72 1232.52 76.728ZM1268.82 83V82.16L1272.35 81.208V43.688L1268.26 42.624V41.784L1274.59 41H1275.15V81.208L1279.12 82.16V83H1268.82ZM1309.99 83.56C1307.34 83.56 1305.1 83 1303.27 81.88C1301.48 80.76 1300.12 79.248 1299.18 77.344C1298.29 75.44 1297.84 73.2933 1297.84 70.904C1297.84 68.3653 1298.36 66.0693 1299.41 64.016C1300.49 61.9627 1301.89 60.32 1303.61 59.088C1305.36 57.856 1307.27 57.24 1309.32 57.24C1312.27 57.24 1314.58 58.2107 1316.26 60.152C1317.94 62.0933 1318.91 64.7813 1319.18 68.216L1319.01 68.384H1300.7C1300.66 68.944 1300.64 69.5413 1300.64 70.176C1300.64 73.4613 1301.52 76.1307 1303.27 78.184C1305.06 80.2 1307.56 81.208 1310.78 81.208C1312.53 81.208 1314.12 80.9467 1315.54 80.424C1316.99 79.9013 1318.13 79.192 1318.95 78.296H1319.12V79.024C1318.3 80.3307 1317.08 81.4133 1315.48 82.272C1313.91 83.1307 1312.08 83.56 1309.99 83.56ZM1308.65 58.472C1306.82 58.472 1305.18 59.2373 1303.72 60.768C1302.26 62.2613 1301.31 64.3893 1300.86 67.152H1316.1C1315.72 64.4267 1314.96 62.2987 1313.8 60.768C1312.64 59.2373 1310.92 58.472 1308.65 58.472Z" fill="#424242"/>
<rect x="165" y="132" width="1491" height="132" rx="1" fill="#424242"/>
<path d="M580.055 216V180.4H586.535V181.12H581.455V215.28H586.535V216H580.055ZM598.993 210.4C597.367 210.4 596.033 209.933 594.993 209C593.953 208.067 593.433 206.707 593.433 204.92V193.28L590.593 192.6V192H595.433V203.84C595.433 205.467 595.847 206.707 596.673 207.56C597.527 208.387 598.62 208.8 599.953 208.8C600.727 208.8 601.553 208.613 602.433 208.24C603.34 207.84 604.073 207.28 604.633 206.56V193.28L601.393 192.6V192H606.633V208.72L609.473 209.4V210H604.633V207.56H604.513C603.553 208.52 602.647 209.24 601.793 209.72C600.94 210.173 600.007 210.4 598.993 210.4ZM613.565 216V215.28H618.645V181.12H613.565V180.4H620.045V216H613.565ZM626.504 210V209.4L628.824 208.76L633.904 201L629.024 193.32L626.704 192.6V192H633.784V192.6L631.264 193.28V193.4L635.264 199.68L638.944 193.4V193.28L636.744 192.6V192H642.384V192.6L640.224 193.48L635.624 200.24L641.024 208.68L643.064 209.4V210H636.504V209.4L638.744 208.72V208.6L634.264 201.6L630.344 208.6V208.72L632.504 209.4V210H626.504ZM667.977 210.4C666.084 210.4 664.484 210 663.177 209.2C661.897 208.4 660.924 207.32 660.257 205.96C659.617 204.6 659.297 203.067 659.297 201.36C659.297 199.547 659.67 197.907 660.417 196.44C661.19 194.973 662.19 193.8 663.417 192.92C664.67 192.04 666.03 191.6 667.497 191.6C669.604 191.6 671.257 192.293 672.457 193.68C673.657 195.067 674.35 196.987 674.537 199.44L674.417 199.56H661.337C661.31 199.96 661.297 200.387 661.297 200.84C661.297 203.187 661.924 205.093 663.177 206.56C664.457 208 666.244 208.72 668.537 208.72C669.79 208.72 670.924 208.533 671.937 208.16C672.977 207.787 673.79 207.28 674.377 206.64H674.497V207.16C673.91 208.093 673.044 208.867 671.897 209.48C670.777 210.093 669.47 210.4 667.977 210.4ZM667.017 192.48C665.71 192.48 664.537 193.027 663.497 194.12C662.457 195.187 661.777 196.707 661.457 198.68H672.337C672.07 196.733 671.524 195.213 670.697 194.12C669.87 193.027 668.644 192.48 667.017 192.48ZM680.475 210V209.4L682.995 208.72V193.52L680.075 193.16V192.56L684.395 191.6H684.795L684.955 194.48H685.075C686.061 193.467 686.995 192.733 687.875 192.28C688.755 191.827 689.741 191.6 690.835 191.6C692.515 191.6 693.888 192.067 694.955 193C696.048 193.933 696.595 195.293 696.595 197.08V208.72L699.115 209.4V210H691.755V209.4L694.595 208.72V198.16C694.595 196.533 694.155 195.307 693.275 194.48C692.421 193.627 691.288 193.2 689.875 193.2C689.075 193.2 688.208 193.4 687.275 193.8C686.341 194.173 685.581 194.72 684.995 195.44V208.72L687.835 209.4V210H680.475ZM711.456 203.96C710.656 203.96 709.896 203.827 709.176 203.56C708.296 203.933 707.682 204.333 707.336 204.76C706.989 205.187 706.816 205.68 706.816 206.24C706.816 207.147 707.136 207.8 707.776 208.2C708.416 208.6 709.402 208.8 710.736 208.8H715.256C716.829 208.8 718.029 209.173 718.856 209.92C719.709 210.667 720.136 211.693 720.136 213C720.136 214.093 719.762 215.147 719.016 216.16C718.269 217.173 717.229 218 715.896 218.64C714.562 219.28 712.989 219.6 711.176 219.6C708.856 219.6 707.189 219.133 706.176 218.2C705.162 217.293 704.656 216.173 704.656 214.84C704.656 213.853 704.856 213 705.256 212.28L707.696 210.24V210.16C705.962 209.653 705.096 208.6 705.096 207C705.096 206.12 705.389 205.387 705.976 204.8L708.336 203.4V203.2C707.376 202.693 706.616 201.973 706.056 201.04C705.496 200.08 705.216 199 705.216 197.8C705.216 196.627 705.482 195.573 706.016 194.64C706.576 193.707 707.322 192.973 708.256 192.44C709.189 191.88 710.256 191.6 711.456 191.6C712.042 191.6 712.682 191.68 713.376 191.84C714.069 191.973 714.616 192.133 715.016 192.32L720.456 192V193.64L716.416 193.36L716.336 193.44C716.762 193.893 717.082 194.533 717.296 195.36C717.536 196.16 717.656 196.973 717.656 197.8C717.656 198.973 717.389 200.027 716.856 200.96C716.322 201.893 715.589 202.627 714.656 203.16C713.722 203.693 712.656 203.96 711.456 203.96ZM711.856 203.16C713.002 203.16 713.909 202.707 714.576 201.8C715.269 200.867 715.616 199.56 715.616 197.88C715.616 196.04 715.189 194.667 714.336 193.76C713.482 192.827 712.429 192.36 711.176 192.36C709.949 192.36 708.989 192.84 708.296 193.8C707.602 194.733 707.256 196.027 707.256 197.68C707.256 199.52 707.682 200.893 708.536 201.8C709.416 202.707 710.522 203.16 711.856 203.16ZM706.496 214.4C706.496 215.627 707.002 216.653 708.016 217.48C709.056 218.307 710.322 218.72 711.816 218.72C713.096 218.72 714.229 218.48 715.216 218C716.202 217.547 716.976 216.933 717.536 216.16C718.096 215.413 718.376 214.613 718.376 213.76C718.376 212.48 718.042 211.6 717.376 211.12C716.736 210.64 715.576 210.4 713.896 210.4H709.696C709.296 210.4 708.909 210.373 708.536 210.32C707.762 210.773 707.229 211.32 706.936 211.96C706.642 212.627 706.496 213.44 706.496 214.4ZM729.57 185.28C729.143 185.28 728.783 185.133 728.49 184.84C728.197 184.547 728.05 184.187 728.05 183.76C728.05 183.333 728.197 182.973 728.49 182.68C728.783 182.387 729.143 182.24 729.57 182.24C729.997 182.24 730.357 182.387 730.65 182.68C730.943 182.973 731.09 183.333 731.09 183.76C731.09 184.187 730.943 184.547 730.65 184.84C730.357 185.133 729.997 185.28 729.57 185.28ZM726.61 210V209.4L729.13 208.72V193.52L726.21 192.76V192.16L730.73 191.6H731.13V208.72L733.97 209.4V210H726.61ZM740.04 210V209.4L742.56 208.72V193.52L739.64 193.16V192.56L743.96 191.6H744.36L744.52 194.48H744.64C745.627 193.467 746.56 192.733 747.44 192.28C748.32 191.827 749.307 191.6 750.4 191.6C752.08 191.6 753.454 192.067 754.52 193C755.614 193.933 756.16 195.293 756.16 197.08V208.72L758.68 209.4V210H751.32V209.4L754.16 208.72V198.16C754.16 196.533 753.72 195.307 752.84 194.48C751.987 193.627 750.854 193.2 749.44 193.2C748.64 193.2 747.774 193.4 746.84 193.8C745.907 194.173 745.147 194.72 744.56 195.44V208.72L747.4 209.4V210H740.04ZM772.461 210.4C770.568 210.4 768.968 210 767.661 209.2C766.381 208.4 765.408 207.32 764.741 205.96C764.101 204.6 763.781 203.067 763.781 201.36C763.781 199.547 764.155 197.907 764.901 196.44C765.675 194.973 766.675 193.8 767.901 192.92C769.155 192.04 770.515 191.6 771.981 191.6C774.088 191.6 775.741 192.293 776.941 193.68C778.141 195.067 778.835 196.987 779.021 199.44L778.901 199.56H765.821C765.795 199.96 765.781 200.387 765.781 200.84C765.781 203.187 766.408 205.093 767.661 206.56C768.941 208 770.728 208.72 773.021 208.72C774.275 208.72 775.408 208.533 776.421 208.16C777.461 207.787 778.275 207.28 778.861 206.64H778.981V207.16C778.395 208.093 777.528 208.867 776.381 209.48C775.261 210.093 773.955 210.4 772.461 210.4ZM771.501 192.48C770.195 192.48 769.021 193.027 767.981 194.12C766.941 195.187 766.261 196.707 765.941 198.68H776.821C776.555 196.733 776.008 195.213 775.181 194.12C774.355 193.027 773.128 192.48 771.501 192.48ZM793.71 210.4C791.816 210.4 790.216 210 788.91 209.2C787.63 208.4 786.656 207.32 785.99 205.96C785.35 204.6 785.03 203.067 785.03 201.36C785.03 199.547 785.403 197.907 786.15 196.44C786.923 194.973 787.923 193.8 789.15 192.92C790.403 192.04 791.763 191.6 793.23 191.6C795.336 191.6 796.99 192.293 798.19 193.68C799.39 195.067 800.083 196.987 800.27 199.44L800.15 199.56H787.07C787.043 199.96 787.03 200.387 787.03 200.84C787.03 203.187 787.656 205.093 788.91 206.56C790.19 208 791.976 208.72 794.27 208.72C795.523 208.72 796.656 208.533 797.67 208.16C798.71 207.787 799.523 207.28 800.11 206.64H800.23V207.16C799.643 208.093 798.776 208.867 797.63 209.48C796.51 210.093 795.203 210.4 793.71 210.4ZM792.75 192.48C791.443 192.48 790.27 193.027 789.23 194.12C788.19 195.187 787.51 196.707 787.19 198.68H798.07C797.803 196.733 797.256 195.213 796.43 194.12C795.603 193.027 794.376 192.48 792.75 192.48ZM806.367 210V209.4L808.887 208.72V193.52L805.967 193.16V192.56L810.287 191.6H810.687L810.887 195.16H810.967C812.007 194.067 812.834 193.267 813.447 192.76C814.061 192.253 814.567 191.933 814.967 191.8C815.367 191.667 815.821 191.6 816.327 191.6C816.781 191.6 817.194 191.68 817.567 191.84C817.834 191.947 818.021 192.053 818.127 192.16C818.261 192.24 818.327 192.36 818.327 192.52C818.327 192.573 818.314 192.64 818.287 192.72C818.287 192.773 818.274 192.853 818.247 192.96L817.847 194H817.767L817.007 193.64C816.634 193.453 816.141 193.36 815.527 193.36C814.754 193.36 813.981 193.573 813.207 194C812.434 194.427 811.661 195.173 810.887 196.24V208.72L813.967 209.4V210H806.367ZM834.021 210V209.4L836.541 208.72V193.52L833.621 193.16V192.56L837.941 191.6H838.341L838.541 195.16H838.621C839.661 194.067 840.487 193.267 841.101 192.76C841.714 192.253 842.221 191.933 842.621 191.8C843.021 191.667 843.474 191.6 843.981 191.6C844.434 191.6 844.847 191.68 845.221 191.84C845.487 191.947 845.674 192.053 845.781 192.16C845.914 192.24 845.981 192.36 845.981 192.52C845.981 192.573 845.967 192.64 845.941 192.72C845.941 192.773 845.927 192.853 845.901 192.96L845.501 194H845.421L844.661 193.64C844.287 193.453 843.794 193.36 843.181 193.36C842.407 193.36 841.634 193.573 840.861 194C840.087 194.427 839.314 195.173 838.541 196.24V208.72L841.621 209.4V210H834.021ZM858.274 210.4C856.38 210.4 854.78 210 853.474 209.2C852.194 208.4 851.22 207.32 850.554 205.96C849.914 204.6 849.594 203.067 849.594 201.36C849.594 199.547 849.967 197.907 850.714 196.44C851.487 194.973 852.487 193.8 853.714 192.92C854.967 192.04 856.327 191.6 857.794 191.6C859.9 191.6 861.554 192.293 862.754 193.68C863.954 195.067 864.647 196.987 864.834 199.44L864.714 199.56H851.634C851.607 199.96 851.594 200.387 851.594 200.84C851.594 203.187 852.22 205.093 853.474 206.56C854.754 208 856.54 208.72 858.834 208.72C860.087 208.72 861.22 208.533 862.234 208.16C863.274 207.787 864.087 207.28 864.674 206.64H864.794V207.16C864.207 208.093 863.34 208.867 862.194 209.48C861.074 210.093 859.767 210.4 858.274 210.4ZM857.314 192.48C856.007 192.48 854.834 193.027 853.794 194.12C852.754 195.187 852.074 196.707 851.754 198.68H862.634C862.367 196.733 861.82 195.213 860.994 194.12C860.167 193.027 858.94 192.48 857.314 192.48ZM875.732 210.4C874.798 210.4 873.958 210.293 873.212 210.08C872.492 209.893 871.745 209.613 870.972 209.24V205.08H871.452L872.012 206.88C872.252 207.68 872.692 208.32 873.332 208.8C873.972 209.253 874.878 209.48 876.052 209.48C877.332 209.48 878.318 209.173 879.012 208.56C879.732 207.92 880.092 207.013 880.092 205.84C880.092 204.8 879.812 203.987 879.252 203.4C878.692 202.787 877.652 202.173 876.132 201.56C874.532 200.92 873.345 200.227 872.572 199.48C871.825 198.733 871.452 197.667 871.452 196.28C871.452 195.427 871.678 194.653 872.132 193.96C872.612 193.24 873.238 192.667 874.012 192.24C874.785 191.813 875.612 191.6 876.492 191.6C877.478 191.6 878.358 191.72 879.132 191.96C879.905 192.173 880.572 192.427 881.132 192.72V196.8H880.652L880.132 195.08C879.865 194.147 879.358 193.48 878.612 193.08C877.892 192.68 877.158 192.48 876.412 192.48C875.372 192.48 874.572 192.787 874.012 193.4C873.478 194.013 873.212 194.813 873.212 195.8C873.212 196.787 873.505 197.56 874.092 198.12C874.678 198.68 875.625 199.227 876.932 199.76C878.105 200.24 879.052 200.707 879.772 201.16C880.518 201.613 881.065 202.173 881.412 202.84C881.758 203.48 881.932 204.307 881.932 205.32C881.932 206.227 881.678 207.067 881.172 207.84C880.665 208.613 879.945 209.24 879.012 209.72C878.078 210.173 876.985 210.4 875.732 210.4ZM896.942 210.4C895.049 210.4 893.449 210 892.142 209.2C890.862 208.4 889.889 207.32 889.222 205.96C888.582 204.6 888.262 203.067 888.262 201.36C888.262 199.547 888.636 197.907 889.382 196.44C890.156 194.973 891.156 193.8 892.382 192.92C893.636 192.04 894.996 191.6 896.462 191.6C898.569 191.6 900.222 192.293 901.422 193.68C902.622 195.067 903.316 196.987 903.502 199.44L903.382 199.56H890.302C890.276 199.96 890.262 200.387 890.262 200.84C890.262 203.187 890.889 205.093 892.142 206.56C893.422 208 895.209 208.72 897.502 208.72C898.756 208.72 899.889 208.533 900.902 208.16C901.942 207.787 902.756 207.28 903.342 206.64H903.462V207.16C902.876 208.093 902.009 208.867 900.862 209.48C899.742 210.093 898.436 210.4 896.942 210.4ZM895.982 192.48C894.676 192.48 893.502 193.027 892.462 194.12C891.422 195.187 890.742 196.707 890.422 198.68H901.302C901.036 196.733 900.489 195.213 899.662 194.12C898.836 193.027 897.609 192.48 895.982 192.48ZM913.36 210.4C912.134 210.4 911.107 210.04 910.28 209.32C909.454 208.573 909.04 207.547 909.04 206.24C909.04 204.96 909.494 203.893 910.4 203.04C911.334 202.187 912.867 201.493 915 200.96L918.92 199.96V196.64C918.92 195.493 918.507 194.573 917.68 193.88C916.854 193.16 915.907 192.8 914.84 192.8C913.694 192.8 912.88 193.04 912.4 193.52C911.947 193.973 911.72 194.6 911.72 195.4V197.04L911.52 197.24H910.48C910.054 197.24 909.774 197.173 909.64 197.04C909.507 196.907 909.44 196.653 909.44 196.28C909.44 195.773 909.614 195.253 909.96 194.72C910.307 194.187 910.814 193.707 911.48 193.28C912.2 192.827 912.92 192.44 913.64 192.12C914.387 191.773 915.094 191.6 915.76 191.6C917.36 191.6 918.614 191.96 919.52 192.68C920.454 193.373 920.92 194.467 920.92 195.96V208.4C921.134 208.587 921.374 208.733 921.64 208.84C921.934 208.947 922.267 209 922.64 209H924.72L924.76 209.04V209.12C924.574 209.387 924.267 209.667 923.84 209.96C923.414 210.253 922.84 210.4 922.12 210.4C921.187 210.4 920.467 210.16 919.96 209.68C919.454 209.2 919.147 208.64 919.04 208H918.96C918.267 208.693 917.427 209.267 916.44 209.72C915.48 210.173 914.454 210.4 913.36 210.4ZM911.04 205.52C911.04 206.613 911.347 207.44 911.96 208C912.574 208.533 913.44 208.8 914.56 208.8C915.227 208.8 915.947 208.707 916.72 208.52C917.494 208.307 918.227 207.987 918.92 207.56V200.8C916.707 201.253 915.027 201.707 913.88 202.16C912.76 202.613 912 203.107 911.6 203.64C911.227 204.173 911.04 204.8 911.04 205.52ZM929.286 210V209.4L931.806 208.72V193.52L928.886 193.16V192.56L933.206 191.6H933.606L933.806 195.16H933.886C934.926 194.067 935.753 193.267 936.366 192.76C936.98 192.253 937.486 191.933 937.886 191.8C938.286 191.667 938.74 191.6 939.246 191.6C939.7 191.6 940.113 191.68 940.486 191.84C940.753 191.947 940.94 192.053 941.046 192.16C941.18 192.24 941.246 192.36 941.246 192.52C941.246 192.573 941.233 192.64 941.206 192.72C941.206 192.773 941.193 192.853 941.166 192.96L940.766 194H940.686L939.926 193.64C939.553 193.453 939.06 193.36 938.446 193.36C937.673 193.36 936.9 193.573 936.126 194C935.353 194.427 934.58 195.173 933.806 196.24V208.72L936.886 209.4V210H929.286ZM953.419 210.4C951.553 210.4 949.979 210 948.699 209.2C947.446 208.4 946.486 207.32 945.819 205.96C945.179 204.6 944.859 203.067 944.859 201.36C944.859 199.493 945.233 197.827 945.979 196.36C946.753 194.867 947.806 193.707 949.139 192.88C950.499 192.027 952.033 191.6 953.739 191.6C954.806 191.6 955.753 191.747 956.579 192.04C957.406 192.333 958.073 192.653 958.579 193C959.433 193.587 959.859 194.093 959.859 194.52C959.859 194.707 959.766 194.88 959.579 195.04L958.499 195.96H958.339L957.819 195.24C957.233 194.44 956.593 193.787 955.899 193.28C955.233 192.747 954.366 192.48 953.299 192.48C951.433 192.48 949.886 193.187 948.659 194.6C947.459 195.987 946.859 198.067 946.859 200.84C946.859 203.187 947.473 205.093 948.699 206.56C949.953 208 951.713 208.72 953.979 208.72C955.206 208.72 956.339 208.533 957.379 208.16C958.419 207.787 959.233 207.28 959.819 206.64H959.939V207.16C959.326 208.093 958.459 208.867 957.339 209.48C956.219 210.093 954.913 210.4 953.419 210.4ZM965.647 210V209.4L968.167 208.72V181.92L965.247 181.16V180.56L969.767 180H970.167V194.48H970.247C971.233 193.467 972.167 192.733 973.047 192.28C973.927 191.827 974.913 191.6 976.007 191.6C977.687 191.6 979.06 192.067 980.127 193C981.22 193.933 981.767 195.293 981.767 197.08V208.72L984.287 209.4V210H976.927V209.4L979.767 208.72V198.16C979.767 196.533 979.327 195.307 978.447 194.48C977.593 193.627 976.46 193.2 975.047 193.2C974.247 193.2 973.38 193.4 972.447 193.8C971.513 194.173 970.753 194.72 970.167 195.44V208.72L973.007 209.4V210H965.647ZM998.067 210.4C996.174 210.4 994.574 210 993.267 209.2C991.987 208.4 991.014 207.32 990.347 205.96C989.707 204.6 989.387 203.067 989.387 201.36C989.387 199.547 989.761 197.907 990.507 196.44C991.281 194.973 992.281 193.8 993.507 192.92C994.761 192.04 996.121 191.6 997.587 191.6C999.694 191.6 1001.35 192.293 1002.55 193.68C1003.75 195.067 1004.44 196.987 1004.63 199.44L1004.51 199.56H991.427C991.401 199.96 991.387 200.387 991.387 200.84C991.387 203.187 992.014 205.093 993.267 206.56C994.547 208 996.334 208.72 998.627 208.72C999.881 208.72 1001.01 208.533 1002.03 208.16C1003.07 207.787 1003.88 207.28 1004.47 206.64H1004.59V207.16C1004 208.093 1003.13 208.867 1001.99 209.48C1000.87 210.093 999.561 210.4 998.067 210.4ZM997.107 192.48C995.801 192.48 994.627 193.027 993.587 194.12C992.547 195.187 991.867 196.707 991.547 198.68H1002.43C1002.16 196.733 1001.61 195.213 1000.79 194.12C999.961 193.027 998.734 192.48 997.107 192.48ZM1010.73 210V209.4L1013.25 208.72V193.52L1010.33 193.16V192.56L1014.65 191.6H1015.05L1015.25 195.16H1015.33C1016.37 194.067 1017.19 193.267 1017.81 192.76C1018.42 192.253 1018.93 191.933 1019.33 191.8C1019.73 191.667 1020.18 191.6 1020.69 191.6C1021.14 191.6 1021.55 191.68 1021.93 191.84C1022.19 191.947 1022.38 192.053 1022.49 192.16C1022.62 192.24 1022.69 192.36 1022.69 192.52C1022.69 192.573 1022.67 192.64 1022.65 192.72C1022.65 192.773 1022.63 192.853 1022.61 192.96L1022.21 194H1022.13L1021.37 193.64C1020.99 193.453 1020.5 193.36 1019.89 193.36C1019.11 193.36 1018.34 193.573 1017.57 194C1016.79 194.427 1016.02 195.173 1015.25 196.24V208.72L1018.33 209.4V210H1010.73ZM1043.1 210.2L1037.5 193.36L1034.98 192.6V192H1042.66V192.6L1039.58 193.28V193.4L1043.82 207.28H1043.98L1049.58 192H1050.18L1055.78 207.16H1055.94L1060.1 193.44V193.32L1056.86 192.6V192H1063.94V192.6L1061.38 193.36L1055.5 210.2H1055.1L1049.42 195.52L1043.5 210.2H1043.1ZM1067.09 210V209.4L1069.61 208.72V193.52L1066.69 193.16V192.56L1071.01 191.6H1071.41L1071.61 195.16H1071.69C1072.73 194.067 1073.55 193.267 1074.17 192.76C1074.78 192.253 1075.29 191.933 1075.69 191.8C1076.09 191.667 1076.54 191.6 1077.05 191.6C1077.5 191.6 1077.91 191.68 1078.29 191.84C1078.55 191.947 1078.74 192.053 1078.85 192.16C1078.98 192.24 1079.05 192.36 1079.05 192.52C1079.05 192.573 1079.03 192.64 1079.01 192.72C1079.01 192.773 1078.99 192.853 1078.97 192.96L1078.57 194H1078.49L1077.73 193.64C1077.35 193.453 1076.86 193.36 1076.25 193.36C1075.47 193.36 1074.7 193.573 1073.93 194C1073.15 194.427 1072.38 195.173 1071.61 196.24V208.72L1074.69 209.4V210H1067.09ZM1086.18 185.28C1085.75 185.28 1085.39 185.133 1085.1 184.84C1084.81 184.547 1084.66 184.187 1084.66 183.76C1084.66 183.333 1084.81 182.973 1085.1 182.68C1085.39 182.387 1085.75 182.24 1086.18 182.24C1086.61 182.24 1086.97 182.387 1087.26 182.68C1087.55 182.973 1087.7 183.333 1087.7 183.76C1087.7 184.187 1087.55 184.547 1087.26 184.84C1086.97 185.133 1086.61 185.28 1086.18 185.28ZM1083.22 210V209.4L1085.74 208.72V193.52L1082.82 192.76V192.16L1087.34 191.6H1087.74V208.72L1090.58 209.4V210H1083.22ZM1102.25 210.4C1101.16 210.4 1100.26 210.053 1099.57 209.36C1098.9 208.667 1098.57 207.693 1098.57 206.44V193.36H1095.05V193L1098.81 192L1100.13 187.6H1100.57V192H1105.85V193.36H1100.57V206.36C1100.57 207.187 1100.82 207.813 1101.33 208.24C1101.84 208.64 1102.5 208.84 1103.33 208.84C1103.92 208.84 1104.45 208.773 1104.93 208.64C1105.41 208.507 1105.86 208.32 1106.29 208.08L1106.33 208.12V208.28C1106.12 208.733 1105.66 209.2 1104.97 209.68C1104.28 210.16 1103.37 210.4 1102.25 210.4ZM1119.81 210.4C1117.92 210.4 1116.32 210 1115.01 209.2C1113.73 208.4 1112.76 207.32 1112.09 205.96C1111.45 204.6 1111.13 203.067 1111.13 201.36C1111.13 199.547 1111.51 197.907 1112.25 196.44C1113.03 194.973 1114.03 193.8 1115.25 192.92C1116.51 192.04 1117.87 191.6 1119.33 191.6C1121.44 191.6 1123.09 192.293 1124.29 193.68C1125.49 195.067 1126.19 196.987 1126.37 199.44L1126.25 199.56H1113.17C1113.15 199.96 1113.13 200.387 1113.13 200.84C1113.13 203.187 1113.76 205.093 1115.01 206.56C1116.29 208 1118.08 208.72 1120.37 208.72C1121.63 208.72 1122.76 208.533 1123.77 208.16C1124.81 207.787 1125.63 207.28 1126.21 206.64H1126.33V207.16C1125.75 208.093 1124.88 208.867 1123.73 209.48C1122.61 210.093 1121.31 210.4 1119.81 210.4ZM1118.85 192.48C1117.55 192.48 1116.37 193.027 1115.33 194.12C1114.29 195.187 1113.61 196.707 1113.29 198.68H1124.17C1123.91 196.733 1123.36 195.213 1122.53 194.12C1121.71 193.027 1120.48 192.48 1118.85 192.48ZM1132.47 210V209.4L1134.99 208.72V193.52L1132.07 193.16V192.56L1136.39 191.6H1136.79L1136.99 195.16H1137.07C1138.11 194.067 1138.94 193.267 1139.55 192.76C1140.17 192.253 1140.67 191.933 1141.07 191.8C1141.47 191.667 1141.93 191.6 1142.43 191.6C1142.89 191.6 1143.3 191.68 1143.67 191.84C1143.94 191.947 1144.13 192.053 1144.23 192.16C1144.37 192.24 1144.43 192.36 1144.43 192.52C1144.43 192.573 1144.42 192.64 1144.39 192.72C1144.39 192.773 1144.38 192.853 1144.35 192.96L1143.95 194H1143.87L1143.11 193.64C1142.74 193.453 1142.25 193.36 1141.63 193.36C1140.86 193.36 1140.09 193.573 1139.31 194C1138.54 194.427 1137.77 195.173 1136.99 196.24V208.72L1140.07 209.4V210H1132.47Z" fill="#FAFAFA"/>
<path d="M1166.53 210.4C1165.59 210.4 1164.75 210.293 1164.01 210.08C1163.29 209.893 1162.54 209.613 1161.77 209.24V205.08H1162.25L1162.81 206.88C1163.05 207.68 1163.49 208.32 1164.13 208.8C1164.77 209.253 1165.67 209.48 1166.85 209.48C1168.13 209.48 1169.11 209.173 1169.81 208.56C1170.53 207.92 1170.89 207.013 1170.89 205.84C1170.89 204.8 1170.61 203.987 1170.05 203.4C1169.49 202.787 1168.45 202.173 1166.93 201.56C1165.33 200.92 1164.14 200.227 1163.37 199.48C1162.62 198.733 1162.25 197.667 1162.25 196.28C1162.25 195.427 1162.47 194.653 1162.93 193.96C1163.41 193.24 1164.03 192.667 1164.81 192.24C1165.58 191.813 1166.41 191.6 1167.29 191.6C1168.27 191.6 1169.15 191.72 1169.93 191.96C1170.7 192.173 1171.37 192.427 1171.93 192.72V196.8H1171.45L1170.93 195.08C1170.66 194.147 1170.15 193.48 1169.41 193.08C1168.69 192.68 1167.95 192.48 1167.21 192.48C1166.17 192.48 1165.37 192.787 1164.81 193.4C1164.27 194.013 1164.01 194.813 1164.01 195.8C1164.01 196.787 1164.3 197.56 1164.89 198.12C1165.47 198.68 1166.42 199.227 1167.73 199.76C1168.9 200.24 1169.85 200.707 1170.57 201.16C1171.31 201.613 1171.86 202.173 1172.21 202.84C1172.55 203.48 1172.73 204.307 1172.73 205.32C1172.73 206.227 1172.47 207.067 1171.97 207.84C1171.46 208.613 1170.74 209.24 1169.81 209.72C1168.87 210.173 1167.78 210.4 1166.53 210.4ZM1188.42 210.4C1186.55 210.4 1184.98 210 1183.7 209.2C1182.44 208.4 1181.48 207.32 1180.82 205.96C1180.18 204.6 1179.86 203.067 1179.86 201.36C1179.86 199.493 1180.23 197.827 1180.98 196.36C1181.75 194.867 1182.8 193.707 1184.14 192.88C1185.5 192.027 1187.03 191.6 1188.74 191.6C1189.8 191.6 1190.75 191.747 1191.58 192.04C1192.4 192.333 1193.07 192.653 1193.58 193C1194.43 193.587 1194.86 194.093 1194.86 194.52C1194.86 194.707 1194.76 194.88 1194.58 195.04L1193.5 195.96H1193.34L1192.82 195.24C1192.23 194.44 1191.59 193.787 1190.9 193.28C1190.23 192.747 1189.36 192.48 1188.3 192.48C1186.43 192.48 1184.88 193.187 1183.66 194.6C1182.46 195.987 1181.86 198.067 1181.86 200.84C1181.86 203.187 1182.47 205.093 1183.7 206.56C1184.95 208 1186.71 208.72 1188.98 208.72C1190.2 208.72 1191.34 208.533 1192.38 208.16C1193.42 207.787 1194.23 207.28 1194.82 206.64H1194.94V207.16C1194.32 208.093 1193.46 208.867 1192.34 209.48C1191.22 210.093 1189.91 210.4 1188.42 210.4ZM1204.64 185.28C1204.22 185.28 1203.86 185.133 1203.56 184.84C1203.27 184.547 1203.12 184.187 1203.12 183.76C1203.12 183.333 1203.27 182.973 1203.56 182.68C1203.86 182.387 1204.22 182.24 1204.64 182.24C1205.07 182.24 1205.43 182.387 1205.72 182.68C1206.02 182.973 1206.16 183.333 1206.16 183.76C1206.16 184.187 1206.02 184.547 1205.72 184.84C1205.43 185.133 1205.07 185.28 1204.64 185.28ZM1201.68 210V209.4L1204.2 208.72V193.52L1201.28 192.76V192.16L1205.8 191.6H1206.2V208.72L1209.04 209.4V210H1201.68ZM1224.27 210.4C1222.38 210.4 1220.78 210 1219.47 209.2C1218.19 208.4 1217.22 207.32 1216.55 205.96C1215.91 204.6 1215.59 203.067 1215.59 201.36C1215.59 199.547 1215.97 197.907 1216.71 196.44C1217.49 194.973 1218.49 193.8 1219.71 192.92C1220.97 192.04 1222.33 191.6 1223.79 191.6C1225.9 191.6 1227.55 192.293 1228.75 193.68C1229.95 195.067 1230.65 196.987 1230.83 199.44L1230.71 199.56H1217.63C1217.61 199.96 1217.59 200.387 1217.59 200.84C1217.59 203.187 1218.22 205.093 1219.47 206.56C1220.75 208 1222.54 208.72 1224.83 208.72C1226.09 208.72 1227.22 208.533 1228.23 208.16C1229.27 207.787 1230.09 207.28 1230.67 206.64H1230.79V207.16C1230.21 208.093 1229.34 208.867 1228.19 209.48C1227.07 210.093 1225.77 210.4 1224.27 210.4ZM1223.31 192.48C1222.01 192.48 1220.83 193.027 1219.79 194.12C1218.75 195.187 1218.07 196.707 1217.75 198.68H1228.63C1228.37 196.733 1227.82 195.213 1226.99 194.12C1226.17 193.027 1224.94 192.48 1223.31 192.48ZM1237.57 210V209.4L1240.09 208.72V193.52L1237.17 193.16V192.56L1241.49 191.6H1241.89L1242.05 194.48H1242.17C1243.16 193.467 1244.09 192.733 1244.97 192.28C1245.85 191.827 1246.84 191.6 1247.93 191.6C1249.61 191.6 1250.98 192.067 1252.05 193C1253.14 193.933 1253.69 195.293 1253.69 197.08V208.72L1256.21 209.4V210H1248.85V209.4L1251.69 208.72V198.16C1251.69 196.533 1251.25 195.307 1250.37 194.48C1249.52 193.627 1248.38 193.2 1246.97 193.2C1246.17 193.2 1245.3 193.4 1244.37 193.8C1243.44 194.173 1242.68 194.72 1242.09 195.44V208.72L1244.93 209.4V210H1237.57ZM1268.03 210.4C1266.94 210.4 1266.05 210.053 1265.35 209.36C1264.69 208.667 1264.35 207.693 1264.35 206.44V193.36H1260.83V193L1264.59 192L1265.91 187.6H1266.35V192H1271.63V193.36H1266.35V206.36C1266.35 207.187 1266.61 207.813 1267.11 208.24C1267.62 208.64 1268.29 208.84 1269.11 208.84C1269.7 208.84 1270.23 208.773 1270.71 208.64C1271.19 208.507 1271.65 208.32 1272.07 208.08L1272.11 208.12V208.28C1271.9 208.733 1271.45 209.2 1270.75 209.68C1270.06 210.16 1269.15 210.4 1268.03 210.4ZM1281.24 185.28C1280.81 185.28 1280.45 185.133 1280.16 184.84C1279.86 184.547 1279.72 184.187 1279.72 183.76C1279.72 183.333 1279.86 182.973 1280.16 182.68C1280.45 182.387 1280.81 182.24 1281.24 182.24C1281.66 182.24 1282.02 182.387 1282.32 182.68C1282.61 182.973 1282.76 183.333 1282.76 183.76C1282.76 184.187 1282.61 184.547 1282.32 184.84C1282.02 185.133 1281.66 185.28 1281.24 185.28ZM1278.28 210V209.4L1280.8 208.72V193.52L1277.88 192.76V192.16L1282.4 191.6H1282.8V208.72L1285.64 209.4V210H1278.28ZM1297.47 210.4C1296.53 210.4 1295.69 210.293 1294.95 210.08C1294.23 209.893 1293.48 209.613 1292.71 209.24V205.08H1293.19L1293.75 206.88C1293.99 207.68 1294.43 208.32 1295.07 208.8C1295.71 209.253 1296.61 209.48 1297.79 209.48C1299.07 209.48 1300.05 209.173 1300.75 208.56C1301.47 207.92 1301.83 207.013 1301.83 205.84C1301.83 204.8 1301.55 203.987 1300.99 203.4C1300.43 202.787 1299.39 202.173 1297.87 201.56C1296.27 200.92 1295.08 200.227 1294.31 199.48C1293.56 198.733 1293.19 197.667 1293.19 196.28C1293.19 195.427 1293.41 194.653 1293.87 193.96C1294.35 193.24 1294.97 192.667 1295.75 192.24C1296.52 191.813 1297.35 191.6 1298.23 191.6C1299.21 191.6 1300.09 191.72 1300.87 191.96C1301.64 192.173 1302.31 192.427 1302.87 192.72V196.8H1302.39L1301.87 195.08C1301.6 194.147 1301.09 193.48 1300.35 193.08C1299.63 192.68 1298.89 192.48 1298.15 192.48C1297.11 192.48 1296.31 192.787 1295.75 193.4C1295.21 194.013 1294.95 194.813 1294.95 195.8C1294.95 196.787 1295.24 197.56 1295.83 198.12C1296.41 198.68 1297.36 199.227 1298.67 199.76C1299.84 200.24 1300.79 200.707 1301.51 201.16C1302.25 201.613 1302.8 202.173 1303.15 202.84C1303.49 203.48 1303.67 204.307 1303.67 205.32C1303.67 206.227 1303.41 207.067 1302.91 207.84C1302.4 208.613 1301.68 209.24 1300.75 209.72C1299.81 210.173 1298.72 210.4 1297.47 210.4ZM1316.72 210.4C1315.62 210.4 1314.73 210.053 1314.04 209.36C1313.37 208.667 1313.04 207.693 1313.04 206.44V193.36H1309.52V193L1313.28 192L1314.6 187.6H1315.04V192H1320.32V193.36H1315.04V206.36C1315.04 207.187 1315.29 207.813 1315.8 208.24C1316.3 208.64 1316.97 208.84 1317.8 208.84C1318.38 208.84 1318.92 208.773 1319.4 208.64C1319.88 208.507 1320.33 208.32 1320.76 208.08L1320.8 208.12V208.28C1320.58 208.733 1320.13 209.2 1319.44 209.68C1318.74 210.16 1317.84 210.4 1316.72 210.4Z" fill="#F4B400"/>
<path d="M657.297 199.6H819.927V200.8H657.297V199.6ZM831.541 199.6H1024.29V200.8H831.541V199.6Z" fill="#FAFAFA"/>
<path d="M1035.9 199.6H1146.03V200.8H1035.9V199.6Z" fill="#FAFAFA"/>
<ellipse cx="10" cy="10.001" rx="10" ry="10.001" transform="matrix(1 0 0 -1 76 76.002)" fill="#F4B400"/>
<ellipse cx="10" cy="10.001" rx="10" ry="10.001" transform="matrix(1 0 0 -1 76 208.002)" fill="#F4B400"/>
<line x1="85.7" y1="198.002" x2="85.7" y2="65.9995" stroke="#F4B400" stroke-width="1.6"/>
<ellipse cx="10" cy="10.001" rx="10" ry="10.001" transform="matrix(0 -1 -1 0 693.002 445)" fill="#CABCBE"/>
<ellipse cx="10" cy="10.001" rx="10" ry="10.001" transform="matrix(0 -1 -1 0 1429.07 328.07)" fill="#CABCBE"/>
<line x1="682.874" y1="434.21" x2="1418.87" y2="317.21" stroke="#CABCBE" stroke-width="1.6"/>
<ellipse cx="1297.65" cy="435.001" rx="10" ry="10.001" fill="#424242"/>
<ellipse cx="1297.4" cy="290.001" rx="10" ry="10.001" fill="#424242"/>
<line x1="1297.22" y1="434.004" x2="1297.22" y2="298.004" stroke="#424242" stroke-width="1.6"/>
</svg>
