<svg width="548" height="280" viewBox="0 0 548 280" fill="none" xmlns="http://www.w3.org/2000/svg">
<path d="M51.0949 34V33.52L53.1109 32.976V20.688H50.2949V19.6H53.1109V18.32C53.1109 17.4667 53.2495 16.56 53.5269 15.6C53.8255 14.64 54.2522 13.7333 54.8069 12.88C55.3829 12.0267 56.0975 11.3333 56.9509 10.8C57.8042 10.2667 58.7962 10 59.9269 10C60.2042 10 60.4495 10.0427 60.6629 10.128C61.0042 10.2773 61.1749 10.448 61.1749 10.64C61.1749 10.768 61.1429 10.9067 61.0789 11.056L60.7269 11.92H60.6629L59.9909 11.696C59.3295 11.4827 58.6895 11.376 58.0709 11.376C56.9829 11.376 56.1509 11.824 55.5749 12.72C54.9989 13.616 54.7109 15.056 54.7109 17.04V19.6H58.9349V20.688H54.7109V32.976L57.1749 33.52V34H51.0949ZM69.5934 34V33.52L71.6094 32.976V20.816L69.2734 20.528V20.048L72.7294 19.28H73.0494L73.2094 22.128H73.2734C74.1054 21.2533 74.7667 20.6133 75.2574 20.208C75.748 19.8027 76.1534 19.5467 76.4734 19.44C76.7934 19.3333 77.156 19.28 77.5614 19.28C77.924 19.28 78.2547 19.344 78.5534 19.472C78.7667 19.5573 78.916 19.6427 79.0014 19.728C79.108 19.792 79.1614 19.888 79.1614 20.016C79.1614 20.0587 79.1507 20.112 79.1294 20.176C79.1294 20.2187 79.1187 20.2827 79.0974 20.368L78.7774 21.2H78.7134L78.1054 20.912C77.8067 20.7627 77.412 20.688 76.9214 20.688C76.3027 20.688 75.684 20.8587 75.0654 21.2C74.4467 21.5413 73.828 22.1387 73.2094 22.992V32.976L75.6734 33.52V34H69.5934ZM88.9319 38.8V10.32H94.1159V10.896H90.0519V38.224H94.1159V38.8H88.9319ZM99.5389 34.32C98.5575 34.32 97.7362 34.032 97.0749 33.456C96.4135 32.8587 96.0829 32.0373 96.0829 30.992C96.0829 29.968 96.4455 29.1147 97.1709 28.432C97.9175 27.7493 99.1442 27.1947 100.851 26.768L103.987 25.968V23.312C103.987 22.3947 103.656 21.6587 102.995 21.104C102.334 20.528 101.576 20.24 100.723 20.24C99.8055 20.24 99.1549 20.432 98.7709 20.816C98.4082 21.1787 98.2269 21.68 98.2269 22.32V23.632L98.0669 23.792H97.2349C96.8935 23.792 96.6695 23.7387 96.5629 23.632C96.4562 23.5253 96.4029 23.3227 96.4029 23.024C96.4029 22.6187 96.5415 22.2027 96.8189 21.776C97.0962 21.3493 97.5015 20.9653 98.0349 20.624C98.6109 20.2613 99.1869 19.952 99.7629 19.696C100.36 19.4187 100.926 19.28 101.459 19.28C102.739 19.28 103.742 19.568 104.467 20.144C105.214 20.6987 105.587 21.5733 105.587 22.768V32.72C105.758 32.8693 105.95 32.9867 106.163 33.072C106.398 33.1573 106.664 33.2 106.963 33.2H108.627L108.659 33.232V33.296C108.51 33.5093 108.264 33.7333 107.923 33.968C107.582 34.2027 107.123 34.32 106.547 34.32C105.8 34.32 105.224 34.128 104.819 33.744C104.414 33.36 104.168 32.912 104.083 32.4H104.019C103.464 32.9547 102.792 33.4133 102.003 33.776C101.235 34.1387 100.414 34.32 99.5389 34.32ZM97.6829 30.416C97.6829 31.2907 97.9282 31.952 98.4189 32.4C98.9095 32.8267 99.6029 33.04 100.499 33.04C101.032 33.04 101.608 32.9653 102.227 32.816C102.846 32.6453 103.432 32.3893 103.987 32.048V26.64C102.216 27.0027 100.872 27.3653 99.9549 27.728C99.0589 28.0907 98.4509 28.4853 98.1309 28.912C97.8322 29.3387 97.6829 29.84 97.6829 30.416ZM109.432 38.8V38.224H113.496V10.896H109.432V10.32H114.616V38.8H109.432ZM126.247 34V33.52L128.263 32.976V20.816L125.927 20.528V20.048L129.383 19.28H129.703L129.831 21.584H129.927C130.716 20.7733 131.463 20.1867 132.167 19.824C132.871 19.4613 133.66 19.28 134.535 19.28C135.879 19.28 136.977 19.6533 137.831 20.4C138.705 21.1467 139.143 22.2347 139.143 23.664V32.976L141.159 33.52V34H135.271V33.52L137.543 32.976V24.528C137.543 23.2267 137.191 22.2453 136.487 21.584C135.804 20.9013 134.897 20.56 133.767 20.56C133.127 20.56 132.433 20.72 131.687 21.04C130.94 21.3387 130.332 21.776 129.863 22.352V32.976L132.135 33.52V34H126.247ZM158.807 34.32C157.314 34.32 156.055 34 155.031 33.36C154.029 32.72 153.261 31.856 152.727 30.768C152.215 29.68 151.959 28.4533 151.959 27.088C151.959 25.5947 152.258 24.2613 152.855 23.088C153.474 21.8933 154.317 20.9653 155.383 20.304C156.471 19.6213 157.698 19.28 159.063 19.28C159.917 19.28 160.674 19.3973 161.335 19.632C161.997 19.8667 162.53 20.1227 162.935 20.4C163.618 20.8693 163.959 21.2747 163.959 21.616C163.959 21.7653 163.885 21.904 163.735 22.032L162.871 22.768H162.743L162.327 22.192C161.858 21.552 161.346 21.0293 160.791 20.624C160.258 20.1973 159.565 19.984 158.711 19.984C157.218 19.984 155.981 20.5493 154.999 21.68C154.039 22.7893 153.559 24.4533 153.559 26.672C153.559 28.5493 154.05 30.0747 155.031 31.248C156.034 32.4 157.442 32.976 159.255 32.976C160.237 32.976 161.143 32.8267 161.975 32.528C162.807 32.2293 163.458 31.824 163.927 31.312H164.023V31.728C163.533 32.4747 162.839 33.0933 161.943 33.584C161.047 34.0747 160.002 34.32 158.807 34.32ZM175.213 38.8V10.32H180.397V10.896H176.333V38.224H180.397V38.8H175.213ZM185.244 14.224C184.903 14.224 184.615 14.1067 184.38 13.872C184.145 13.6373 184.028 13.3493 184.028 13.008C184.028 12.6667 184.145 12.3787 184.38 12.144C184.615 11.9093 184.903 11.792 185.244 11.792C185.585 11.792 185.873 11.9093 186.108 12.144C186.343 12.3787 186.46 12.6667 186.46 13.008C186.46 13.3493 186.343 13.6373 186.108 13.872C185.873 14.1067 185.585 14.224 185.244 14.224ZM182.876 34V33.52L184.892 32.976V20.816L182.556 20.208V19.728L186.172 19.28H186.492V32.976L188.764 33.52V34H182.876ZM190.9 38.8V38.224H194.964V10.896H190.9V10.32H196.084V38.8H190.9ZM211.683 34.32C210.937 34.32 210.265 34.2347 209.667 34.064C209.091 33.9147 208.494 33.6907 207.875 33.392V30.064H208.259L208.707 31.504C208.899 32.144 209.251 32.656 209.763 33.04C210.275 33.4027 211.001 33.584 211.939 33.584C212.963 33.584 213.753 33.3387 214.307 32.848C214.883 32.336 215.171 31.6107 215.171 30.672C215.171 29.84 214.947 29.1893 214.499 28.72C214.051 28.2293 213.219 27.7387 212.003 27.248C210.723 26.736 209.774 26.1813 209.155 25.584C208.558 24.9867 208.259 24.1333 208.259 23.024C208.259 22.3413 208.441 21.7227 208.803 21.168C209.187 20.592 209.689 20.1333 210.307 19.792C210.926 19.4507 211.587 19.28 212.291 19.28C213.081 19.28 213.785 19.376 214.403 19.568C215.022 19.7387 215.555 19.9413 216.003 20.176V23.44H215.619L215.203 22.064C214.99 21.3173 214.585 20.784 213.987 20.464C213.411 20.144 212.825 19.984 212.227 19.984C211.395 19.984 210.755 20.2293 210.307 20.72C209.881 21.2107 209.667 21.8507 209.667 22.64C209.667 23.4293 209.902 24.048 210.371 24.496C210.841 24.944 211.598 25.3813 212.643 25.808C213.582 26.192 214.339 26.5653 214.915 26.928C215.513 27.2907 215.95 27.7387 216.227 28.272C216.505 28.784 216.643 29.4453 216.643 30.256C216.643 30.9813 216.441 31.6533 216.035 32.272C215.63 32.8907 215.054 33.392 214.307 33.776C213.561 34.1387 212.686 34.32 211.683 34.32ZM228.588 38.8V10.32H233.772V10.896H229.708V38.224H233.772V38.8H228.588ZM234.619 38.8V38.224H238.683V10.896H234.619V10.32H239.803V38.8H234.619ZM258.026 34.32C256.533 34.32 255.274 34 254.25 33.36C253.247 32.72 252.479 31.856 251.946 30.768C251.434 29.68 251.178 28.4533 251.178 27.088C251.178 25.5947 251.477 24.2613 252.074 23.088C252.693 21.8933 253.535 20.9653 254.602 20.304C255.69 19.6213 256.917 19.28 258.282 19.28C259.135 19.28 259.893 19.3973 260.554 19.632C261.215 19.8667 261.749 20.1227 262.154 20.4C262.837 20.8693 263.178 21.2747 263.178 21.616C263.178 21.7653 263.103 21.904 262.954 22.032L262.09 22.768H261.962L261.546 22.192C261.077 21.552 260.565 21.0293 260.01 20.624C259.477 20.1973 258.783 19.984 257.93 19.984C256.437 19.984 255.199 20.5493 254.218 21.68C253.258 22.7893 252.778 24.4533 252.778 26.672C252.778 28.5493 253.269 30.0747 254.25 31.248C255.253 32.4 256.661 32.976 258.474 32.976C259.455 32.976 260.362 32.8267 261.194 32.528C262.026 32.2293 262.677 31.824 263.146 31.312H263.242V31.728C262.751 32.4747 262.058 33.0933 261.162 33.584C260.266 34.0747 259.221 34.32 258.026 34.32ZM274.432 38.8V10.32H279.616V10.896H275.552V38.224H279.616V38.8H274.432ZM285.039 34.32C284.058 34.32 283.236 34.032 282.575 33.456C281.914 32.8587 281.583 32.0373 281.583 30.992C281.583 29.968 281.946 29.1147 282.671 28.432C283.418 27.7493 284.644 27.1947 286.351 26.768L289.487 25.968V23.312C289.487 22.3947 289.156 21.6587 288.495 21.104C287.834 20.528 287.076 20.24 286.223 20.24C285.306 20.24 284.655 20.432 284.271 20.816C283.908 21.1787 283.727 21.68 283.727 22.32V23.632L283.567 23.792H282.735C282.394 23.792 282.17 23.7387 282.063 23.632C281.956 23.5253 281.903 23.3227 281.903 23.024C281.903 22.6187 282.042 22.2027 282.319 21.776C282.596 21.3493 283.002 20.9653 283.535 20.624C284.111 20.2613 284.687 19.952 285.263 19.696C285.86 19.4187 286.426 19.28 286.959 19.28C288.239 19.28 289.242 19.568 289.967 20.144C290.714 20.6987 291.087 21.5733 291.087 22.768V32.72C291.258 32.8693 291.45 32.9867 291.663 33.072C291.898 33.1573 292.164 33.2 292.463 33.2H294.127L294.159 33.232V33.296C294.01 33.5093 293.764 33.7333 293.423 33.968C293.082 34.2027 292.623 34.32 292.047 34.32C291.3 34.32 290.724 34.128 290.319 33.744C289.914 33.36 289.668 32.912 289.583 32.4H289.519C288.964 32.9547 288.292 33.4133 287.503 33.776C286.735 34.1387 285.914 34.32 285.039 34.32ZM283.183 30.416C283.183 31.2907 283.428 31.952 283.919 32.4C284.41 32.8267 285.103 33.04 285.999 33.04C286.532 33.04 287.108 32.9653 287.727 32.816C288.346 32.6453 288.932 32.3893 289.487 32.048V26.64C287.716 27.0027 286.372 27.3653 285.455 27.728C284.559 28.0907 283.951 28.4853 283.631 28.912C283.332 29.3387 283.183 29.84 283.183 30.416ZM294.932 38.8V38.224H298.996V10.896H294.932V10.32H300.116V38.8H294.932ZM318.339 34.32C316.845 34.32 315.587 34 314.563 33.36C313.56 32.72 312.792 31.856 312.259 30.768C311.747 29.68 311.491 28.4533 311.491 27.088C311.491 25.5947 311.789 24.2613 312.387 23.088C313.005 21.8933 313.848 20.9653 314.915 20.304C316.003 19.6213 317.229 19.28 318.595 19.28C319.448 19.28 320.205 19.3973 320.867 19.632C321.528 19.8667 322.061 20.1227 322.467 20.4C323.149 20.8693 323.491 21.2747 323.491 21.616C323.491 21.7653 323.416 21.904 323.267 22.032L322.403 22.768H322.275L321.859 22.192C321.389 21.552 320.877 21.0293 320.323 20.624C319.789 20.1973 319.096 19.984 318.243 19.984C316.749 19.984 315.512 20.5493 314.531 21.68C313.571 22.7893 313.091 24.4533 313.091 26.672C313.091 28.5493 313.581 30.0747 314.563 31.248C315.565 32.4 316.973 32.976 318.787 32.976C319.768 32.976 320.675 32.8267 321.507 32.528C322.339 32.2293 322.989 31.824 323.459 31.312H323.555V31.728C323.064 32.4747 322.371 33.0933 321.475 33.584C320.579 34.0747 319.533 34.32 318.339 34.32ZM341.432 34.32C339.939 34.32 338.68 34 337.656 33.36C336.654 32.72 335.886 31.856 335.352 30.768C334.84 29.68 334.584 28.4533 334.584 27.088C334.584 25.5947 334.883 24.2613 335.48 23.088C336.099 21.8933 336.942 20.9653 338.008 20.304C339.096 19.6213 340.323 19.28 341.688 19.28C342.542 19.28 343.299 19.3973 343.96 19.632C344.622 19.8667 345.155 20.1227 345.56 20.4C346.243 20.8693 346.584 21.2747 346.584 21.616C346.584 21.7653 346.51 21.904 346.36 22.032L345.496 22.768H345.368L344.952 22.192C344.483 21.552 343.971 21.0293 343.416 20.624C342.883 20.1973 342.19 19.984 341.336 19.984C339.843 19.984 338.606 20.5493 337.624 21.68C336.664 22.7893 336.184 24.4533 336.184 26.672C336.184 28.5493 336.675 30.0747 337.656 31.248C338.659 32.4 340.067 32.976 341.88 32.976C342.862 32.976 343.768 32.8267 344.6 32.528C345.432 32.2293 346.083 31.824 346.552 31.312H346.648V31.728C346.158 32.4747 345.464 33.0933 344.568 33.584C343.672 34.0747 342.627 34.32 341.432 34.32ZM357.838 38.8V10.32H363.022V10.896H358.958V38.224H363.022V38.8H357.838ZM368.445 34.32C367.464 34.32 366.642 34.032 365.981 33.456C365.32 32.8587 364.989 32.0373 364.989 30.992C364.989 29.968 365.352 29.1147 366.077 28.432C366.824 27.7493 368.05 27.1947 369.757 26.768L372.893 25.968V23.312C372.893 22.3947 372.562 21.6587 371.901 21.104C371.24 20.528 370.482 20.24 369.629 20.24C368.712 20.24 368.061 20.432 367.677 20.816C367.314 21.1787 367.133 21.68 367.133 22.32V23.632L366.973 23.792H366.141C365.8 23.792 365.576 23.7387 365.469 23.632C365.362 23.5253 365.309 23.3227 365.309 23.024C365.309 22.6187 365.448 22.2027 365.725 21.776C366.002 21.3493 366.408 20.9653 366.941 20.624C367.517 20.2613 368.093 19.952 368.669 19.696C369.266 19.4187 369.832 19.28 370.365 19.28C371.645 19.28 372.648 19.568 373.373 20.144C374.12 20.6987 374.493 21.5733 374.493 22.768V32.72C374.664 32.8693 374.856 32.9867 375.069 33.072C375.304 33.1573 375.57 33.2 375.869 33.2H377.533L377.565 33.232V33.296C377.416 33.5093 377.17 33.7333 376.829 33.968C376.488 34.2027 376.029 34.32 375.453 34.32C374.706 34.32 374.13 34.128 373.725 33.744C373.32 33.36 373.074 32.912 372.989 32.4H372.925C372.37 32.9547 371.698 33.4133 370.909 33.776C370.141 34.1387 369.32 34.32 368.445 34.32ZM366.589 30.416C366.589 31.2907 366.834 31.952 367.325 32.4C367.816 32.8267 368.509 33.04 369.405 33.04C369.938 33.04 370.514 32.9653 371.133 32.816C371.752 32.6453 372.338 32.3893 372.893 32.048V26.64C371.122 27.0027 369.778 27.3653 368.861 27.728C367.965 28.0907 367.357 28.4853 367.037 28.912C366.738 29.3387 366.589 29.84 366.589 30.416ZM378.338 38.8V38.224H382.402V10.896H378.338V10.32H383.522V38.8H378.338ZM399.825 34.16L394.609 20.688L392.593 20.08V19.6H398.737V20.08L396.273 20.624V20.72L400.401 31.92H400.497L404.561 20.752V20.656L401.969 20.08V19.6H407.633V20.08L405.585 20.688L400.145 34.16H399.825ZM416.619 38.8V10.32H421.803V10.896H417.739V38.224H421.803V38.8H416.619ZM427.226 34.32C426.245 34.32 425.424 34.032 424.762 33.456C424.101 32.8587 423.77 32.0373 423.77 30.992C423.77 29.968 424.133 29.1147 424.858 28.432C425.605 27.7493 426.832 27.1947 428.538 26.768L431.674 25.968V23.312C431.674 22.3947 431.344 21.6587 430.682 21.104C430.021 20.528 429.264 20.24 428.41 20.24C427.493 20.24 426.842 20.432 426.458 20.816C426.096 21.1787 425.914 21.68 425.914 22.32V23.632L425.754 23.792H424.922C424.581 23.792 424.357 23.7387 424.25 23.632C424.144 23.5253 424.09 23.3227 424.09 23.024C424.09 22.6187 424.229 22.2027 424.506 21.776C424.784 21.3493 425.189 20.9653 425.722 20.624C426.298 20.2613 426.874 19.952 427.45 19.696C428.048 19.4187 428.613 19.28 429.146 19.28C430.426 19.28 431.429 19.568 432.154 20.144C432.901 20.6987 433.274 21.5733 433.274 22.768V32.72C433.445 32.8693 433.637 32.9867 433.85 33.072C434.085 33.1573 434.352 33.2 434.65 33.2H436.314L436.346 33.232V33.296C436.197 33.5093 435.952 33.7333 435.61 33.968C435.269 34.2027 434.81 34.32 434.234 34.32C433.488 34.32 432.912 34.128 432.506 33.744C432.101 33.36 431.856 32.912 431.77 32.4H431.706C431.152 32.9547 430.48 33.4133 429.69 33.776C428.922 34.1387 428.101 34.32 427.226 34.32ZM425.37 30.416C425.37 31.2907 425.616 31.952 426.106 32.4C426.597 32.8267 427.29 33.04 428.186 33.04C428.72 33.04 429.296 32.9653 429.914 32.816C430.533 32.6453 431.12 32.3893 431.674 32.048V26.64C429.904 27.0027 428.56 27.3653 427.642 27.728C426.746 28.0907 426.138 28.4853 425.818 28.912C425.52 29.3387 425.37 29.84 425.37 30.416ZM437.119 38.8V38.224H441.183V10.896H437.119V10.32H442.303V38.8H437.119ZM453.806 34V33.52L455.822 32.976V11.536L453.486 10.928V10.448L457.102 10H457.422V32.976L459.694 33.52V34H453.806ZM470.869 38.8V10.32H476.053V10.896H471.989V38.224H476.053V38.8H470.869ZM485.028 34.32C483.514 34.32 482.234 34 481.188 33.36C480.164 32.72 479.386 31.856 478.852 30.768C478.34 29.68 478.084 28.4533 478.084 27.088C478.084 25.6373 478.383 24.3253 478.98 23.152C479.599 21.9787 480.399 21.04 481.38 20.336C482.383 19.632 483.471 19.28 484.644 19.28C486.33 19.28 487.652 19.8347 488.612 20.944C489.572 22.0533 490.127 23.5893 490.276 25.552L490.18 25.648H479.716C479.695 25.968 479.684 26.3093 479.684 26.672C479.684 28.5493 480.186 30.0747 481.188 31.248C482.212 32.4 483.642 32.976 485.476 32.976C486.479 32.976 487.386 32.8267 488.196 32.528C489.028 32.2293 489.679 31.824 490.148 31.312H490.244V31.728C489.775 32.4747 489.082 33.0933 488.164 33.584C487.268 34.0747 486.223 34.32 485.028 34.32ZM484.26 19.984C483.215 19.984 482.276 20.4213 481.444 21.296C480.612 22.1493 480.068 23.3653 479.812 24.944H488.516C488.303 23.3867 487.866 22.1707 487.204 21.296C486.543 20.4213 485.562 19.984 484.26 19.984ZM491.994 38.8V38.224H496.058V10.896H491.994V10.32H497.178V38.8H491.994ZM59.1695 74.6V53.24H63.0575V53.672H60.0095V74.168H63.0575V74.6H59.1695ZM69.0928 71.24C68.1168 71.24 67.3168 70.96 66.6928 70.4C66.0688 69.84 65.7568 69.024 65.7568 67.952V60.968L64.0528 60.56V60.2H66.9568V67.304C66.9568 68.28 67.2048 69.024 67.7008 69.536C68.2128 70.032 68.8688 70.28 69.6688 70.28C70.1328 70.28 70.6288 70.168 71.1568 69.944C71.7008 69.704 72.1408 69.368 72.4768 68.936V60.968L70.5328 60.56V60.2H73.6768V70.232L75.3808 70.64V71H72.4768V69.536H72.4048C71.8288 70.112 71.2848 70.544 70.7728 70.832C70.2608 71.104 69.7008 71.24 69.0928 71.24ZM76.3959 74.6V74.168H79.4439V53.672H76.3959V53.24H80.2839V74.6H76.3959ZM84.1592 71V70.64L85.5512 70.256L88.5992 65.6L85.6712 60.992L84.2792 60.56V60.2H88.5272V60.56L87.0152 60.968V61.04L89.4152 64.808L91.6232 61.04V60.968L90.3032 60.56V60.2H93.6872V60.56L92.3912 61.088L89.6312 65.144L92.8712 70.208L94.0952 70.64V71H90.1592V70.64L91.5032 70.232V70.16L88.8152 65.96L86.4632 70.16V70.232L87.7592 70.64V71H84.1592Z" fill="black"/>
<path d="M107.939 71.24C107.139 71.24 106.427 71.032 105.803 70.616C105.179 70.2 104.683 69.616 104.315 68.864C103.963 68.096 103.787 67.184 103.787 66.128C103.787 64.816 104.043 63.704 104.555 62.792C105.067 61.864 105.747 61.16 106.595 60.68C107.443 60.2 108.379 59.96 109.403 59.96C109.755 59.96 110.123 60.024 110.507 60.152C110.891 60.264 111.267 60.416 111.635 60.608V54.152L109.883 53.696V53.336L112.595 53H112.835V70.232L114.539 70.64V71H111.875L111.659 69.776H111.539C110.995 70.24 110.427 70.6 109.835 70.856C109.259 71.112 108.627 71.24 107.939 71.24ZM104.915 65.744C104.915 66.816 105.091 67.704 105.443 68.408C105.795 69.096 106.251 69.608 106.811 69.944C107.387 70.264 107.979 70.424 108.587 70.424C109.115 70.424 109.643 70.328 110.171 70.136C110.699 69.944 111.187 69.632 111.635 69.2V61.472C111.139 61.2 110.643 60.984 110.147 60.824C109.651 60.664 109.123 60.584 108.563 60.584C107.907 60.584 107.299 60.752 106.739 61.088C106.195 61.424 105.755 61.976 105.419 62.744C105.083 63.496 104.915 64.496 104.915 65.744ZM122.098 71.24C120.962 71.24 120.002 71 119.218 70.52C118.45 70.04 117.866 69.392 117.466 68.576C117.082 67.76 116.89 66.84 116.89 65.816C116.89 64.728 117.114 63.744 117.562 62.864C118.026 61.984 118.626 61.28 119.362 60.752C120.114 60.224 120.93 59.96 121.81 59.96C123.074 59.96 124.066 60.376 124.786 61.208C125.506 62.04 125.922 63.192 126.034 64.664L125.962 64.736H118.114C118.098 64.976 118.09 65.232 118.09 65.504C118.09 66.912 118.466 68.056 119.218 68.936C119.986 69.8 121.058 70.232 122.434 70.232C123.186 70.232 123.866 70.12 124.474 69.896C125.098 69.672 125.586 69.368 125.938 68.984H126.01V69.296C125.658 69.856 125.138 70.32 124.45 70.688C123.778 71.056 122.994 71.24 122.098 71.24ZM121.522 60.488C120.738 60.488 120.034 60.816 119.41 61.472C118.786 62.112 118.378 63.024 118.186 64.208H124.714C124.554 63.04 124.226 62.128 123.73 61.472C123.234 60.816 122.498 60.488 121.522 60.488ZM131.612 71.24C131.052 71.24 130.548 71.176 130.1 71.048C129.668 70.936 129.22 70.768 128.756 70.544V68.048H129.044L129.38 69.128C129.524 69.608 129.788 69.992 130.172 70.28C130.556 70.552 131.1 70.688 131.804 70.688C132.572 70.688 133.164 70.504 133.58 70.136C134.012 69.752 134.228 69.208 134.228 68.504C134.228 67.88 134.06 67.392 133.724 67.04C133.388 66.672 132.764 66.304 131.852 65.936C130.892 65.552 130.18 65.136 129.716 64.688C129.268 64.24 129.044 63.6 129.044 62.768C129.044 62.256 129.18 61.792 129.452 61.376C129.74 60.944 130.116 60.6 130.58 60.344C131.044 60.088 131.54 59.96 132.068 59.96C132.66 59.96 133.188 60.032 133.652 60.176C134.116 60.304 134.516 60.456 134.852 60.632V63.08H134.564L134.252 62.048C134.092 61.488 133.788 61.088 133.34 60.848C132.908 60.608 132.468 60.488 132.02 60.488C131.396 60.488 130.916 60.672 130.58 61.04C130.26 61.408 130.1 61.888 130.1 62.48C130.1 63.072 130.276 63.536 130.628 63.872C130.98 64.208 131.548 64.536 132.332 64.856C133.036 65.144 133.604 65.424 134.036 65.696C134.484 65.968 134.812 66.304 135.02 66.704C135.228 67.088 135.332 67.584 135.332 68.192C135.332 68.736 135.18 69.24 134.876 69.704C134.572 70.168 134.14 70.544 133.58 70.832C133.02 71.104 132.364 71.24 131.612 71.24ZM140.283 56.168C140.027 56.168 139.811 56.08 139.635 55.904C139.459 55.728 139.371 55.512 139.371 55.256C139.371 55 139.459 54.784 139.635 54.608C139.811 54.432 140.027 54.344 140.283 54.344C140.539 54.344 140.755 54.432 140.931 54.608C141.107 54.784 141.195 55 141.195 55.256C141.195 55.512 141.107 55.728 140.931 55.904C140.755 56.08 140.539 56.168 140.283 56.168ZM138.507 71V70.64L140.019 70.232V61.112L138.267 60.656V60.296L140.979 59.96H141.219V70.232L142.923 70.64V71H138.507ZM149.757 67.376C149.277 67.376 148.821 67.296 148.389 67.136C147.861 67.36 147.493 67.6 147.285 67.856C147.077 68.112 146.973 68.408 146.973 68.744C146.973 69.288 147.165 69.68 147.549 69.92C147.933 70.16 148.525 70.28 149.325 70.28H152.037C152.981 70.28 153.701 70.504 154.197 70.952C154.709 71.4 154.965 72.016 154.965 72.8C154.965 73.456 154.741 74.088 154.293 74.696C153.845 75.304 153.221 75.8 152.421 76.184C151.621 76.568 150.677 76.76 149.589 76.76C148.197 76.76 147.197 76.48 146.589 75.92C145.981 75.376 145.677 74.704 145.677 73.904C145.677 73.312 145.797 72.8 146.037 72.368L147.501 71.144V71.096C146.461 70.792 145.941 70.16 145.941 69.2C145.941 68.672 146.117 68.232 146.469 67.88L147.885 67.04V66.92C147.309 66.616 146.853 66.184 146.517 65.624C146.181 65.048 146.013 64.4 146.013 63.68C146.013 62.976 146.173 62.344 146.493 61.784C146.829 61.224 147.277 60.784 147.837 60.464C148.397 60.128 149.037 59.96 149.757 59.96C150.109 59.96 150.493 60.008 150.909 60.104C151.325 60.184 151.653 60.28 151.893 60.392L155.157 60.2V61.184L152.733 61.016L152.685 61.064C152.941 61.336 153.133 61.72 153.261 62.216C153.405 62.696 153.477 63.184 153.477 63.68C153.477 64.384 153.317 65.016 152.997 65.576C152.677 66.136 152.237 66.576 151.677 66.896C151.117 67.216 150.477 67.376 149.757 67.376ZM149.997 66.896C150.685 66.896 151.229 66.624 151.629 66.08C152.045 65.52 152.253 64.736 152.253 63.728C152.253 62.624 151.997 61.8 151.485 61.256C150.973 60.696 150.341 60.416 149.589 60.416C148.853 60.416 148.277 60.704 147.861 61.28C147.445 61.84 147.237 62.616 147.237 63.608C147.237 64.712 147.493 65.536 148.005 66.08C148.533 66.624 149.197 66.896 149.997 66.896ZM146.781 73.64C146.781 74.376 147.085 74.992 147.693 75.488C148.317 75.984 149.077 76.232 149.973 76.232C150.741 76.232 151.421 76.088 152.013 75.8C152.605 75.528 153.069 75.16 153.405 74.696C153.741 74.248 153.909 73.768 153.909 73.256C153.909 72.488 153.709 71.96 153.309 71.672C152.925 71.384 152.229 71.24 151.221 71.24H148.701C148.461 71.24 148.229 71.224 148.005 71.192C147.541 71.464 147.221 71.792 147.045 72.176C146.869 72.576 146.781 73.064 146.781 73.64ZM157.746 71V70.64L159.258 70.232V61.112L157.506 60.896V60.536L160.098 59.96H160.338L160.434 61.688H160.506C161.098 61.08 161.658 60.64 162.186 60.368C162.714 60.096 163.306 59.96 163.962 59.96C164.97 59.96 165.794 60.24 166.434 60.8C167.09 61.36 167.418 62.176 167.418 63.248V70.232L168.93 70.64V71H164.514V70.64L166.218 70.232V63.896C166.218 62.92 165.954 62.184 165.426 61.688C164.914 61.176 164.234 60.92 163.386 60.92C162.906 60.92 162.386 61.04 161.826 61.28C161.266 61.504 160.81 61.832 160.458 62.264V70.232L162.162 70.64V71H157.746ZM176.238 71.24C175.102 71.24 174.142 71 173.358 70.52C172.59 70.04 172.006 69.392 171.606 68.576C171.222 67.76 171.03 66.84 171.03 65.816C171.03 64.728 171.254 63.744 171.702 62.864C172.166 61.984 172.766 61.28 173.502 60.752C174.254 60.224 175.07 59.96 175.95 59.96C177.214 59.96 178.206 60.376 178.926 61.208C179.646 62.04 180.062 63.192 180.174 64.664L180.102 64.736H172.254C172.238 64.976 172.23 65.232 172.23 65.504C172.23 66.912 172.606 68.056 173.358 68.936C174.126 69.8 175.198 70.232 176.574 70.232C177.326 70.232 178.006 70.12 178.614 69.896C179.238 69.672 179.726 69.368 180.078 68.984H180.15V69.296C179.798 69.856 179.278 70.32 178.59 70.688C177.918 71.056 177.134 71.24 176.238 71.24ZM175.662 60.488C174.878 60.488 174.174 60.816 173.55 61.472C172.926 62.112 172.518 63.024 172.326 64.208H178.854C178.694 63.04 178.366 62.128 177.87 61.472C177.374 60.816 176.638 60.488 175.662 60.488ZM182.873 71V70.64L184.385 70.232V61.112L182.633 60.896V60.536L185.225 59.96H185.465L185.585 62.096H185.633C186.257 61.44 186.753 60.96 187.121 60.656C187.489 60.352 187.793 60.16 188.033 60.08C188.273 60 188.545 59.96 188.849 59.96C189.121 59.96 189.369 60.008 189.593 60.104C189.753 60.168 189.865 60.232 189.929 60.296C190.009 60.344 190.049 60.416 190.049 60.512C190.049 60.544 190.041 60.584 190.025 60.632C190.025 60.664 190.017 60.712 190.001 60.776L189.761 61.4H189.713L189.257 61.184C189.033 61.072 188.737 61.016 188.369 61.016C187.905 61.016 187.441 61.144 186.977 61.4C186.513 61.656 186.049 62.104 185.585 62.744V70.232L187.433 70.64V71H182.873ZM202.465 71.24C201.329 71.24 200.369 71 199.585 70.52C198.817 70.04 198.233 69.392 197.833 68.576C197.449 67.76 197.257 66.84 197.257 65.816C197.257 64.728 197.481 63.744 197.929 62.864C198.393 61.984 198.993 61.28 199.729 60.752C200.481 60.224 201.297 59.96 202.177 59.96C203.441 59.96 204.433 60.376 205.153 61.208C205.873 62.04 206.289 63.192 206.401 64.664L206.329 64.736H198.481C198.465 64.976 198.457 65.232 198.457 65.504C198.457 66.912 198.833 68.056 199.585 68.936C200.353 69.8 201.425 70.232 202.801 70.232C203.553 70.232 204.233 70.12 204.841 69.896C205.465 69.672 205.953 69.368 206.305 68.984H206.377V69.296C206.025 69.856 205.505 70.32 204.817 70.688C204.145 71.056 203.361 71.24 202.465 71.24ZM201.889 60.488C201.105 60.488 200.401 60.816 199.777 61.472C199.153 62.112 198.745 63.024 198.553 64.208H205.081C204.921 63.04 204.593 62.128 204.097 61.472C203.601 60.816 202.865 60.488 201.889 60.488ZM209.003 71V70.64L210.515 70.232V61.112L208.763 60.896V60.536L211.355 59.96H211.595L211.691 61.688H211.763C212.355 61.08 212.915 60.64 213.443 60.368C213.971 60.096 214.563 59.96 215.219 59.96C216.227 59.96 217.051 60.24 217.691 60.8C218.347 61.36 218.675 62.176 218.675 63.248V70.232L220.187 70.64V71H215.771V70.64L217.475 70.232V63.896C217.475 62.92 217.211 62.184 216.683 61.688C216.171 61.176 215.491 60.92 214.643 60.92C214.163 60.92 213.643 61.04 213.083 61.28C212.523 61.504 212.067 61.832 211.715 62.264V70.232L213.419 70.64V71H209.003ZM226.632 67.376C226.152 67.376 225.696 67.296 225.264 67.136C224.736 67.36 224.368 67.6 224.16 67.856C223.952 68.112 223.848 68.408 223.848 68.744C223.848 69.288 224.04 69.68 224.424 69.92C224.808 70.16 225.4 70.28 226.2 70.28H228.912C229.856 70.28 230.576 70.504 231.072 70.952C231.584 71.4 231.84 72.016 231.84 72.8C231.84 73.456 231.616 74.088 231.168 74.696C230.72 75.304 230.096 75.8 229.296 76.184C228.496 76.568 227.552 76.76 226.464 76.76C225.072 76.76 224.072 76.48 223.464 75.92C222.856 75.376 222.552 74.704 222.552 73.904C222.552 73.312 222.672 72.8 222.912 72.368L224.376 71.144V71.096C223.336 70.792 222.816 70.16 222.816 69.2C222.816 68.672 222.992 68.232 223.344 67.88L224.76 67.04V66.92C224.184 66.616 223.728 66.184 223.392 65.624C223.056 65.048 222.888 64.4 222.888 63.68C222.888 62.976 223.048 62.344 223.368 61.784C223.704 61.224 224.152 60.784 224.712 60.464C225.272 60.128 225.912 59.96 226.632 59.96C226.984 59.96 227.368 60.008 227.784 60.104C228.2 60.184 228.528 60.28 228.768 60.392L232.032 60.2V61.184L229.608 61.016L229.56 61.064C229.816 61.336 230.008 61.72 230.136 62.216C230.28 62.696 230.352 63.184 230.352 63.68C230.352 64.384 230.192 65.016 229.872 65.576C229.552 66.136 229.112 66.576 228.552 66.896C227.992 67.216 227.352 67.376 226.632 67.376ZM226.872 66.896C227.56 66.896 228.104 66.624 228.504 66.08C228.92 65.52 229.128 64.736 229.128 63.728C229.128 62.624 228.872 61.8 228.36 61.256C227.848 60.696 227.216 60.416 226.464 60.416C225.728 60.416 225.152 60.704 224.736 61.28C224.32 61.84 224.112 62.616 224.112 63.608C224.112 64.712 224.368 65.536 224.88 66.08C225.408 66.624 226.072 66.896 226.872 66.896ZM223.656 73.64C223.656 74.376 223.96 74.992 224.568 75.488C225.192 75.984 225.952 76.232 226.848 76.232C227.616 76.232 228.296 76.088 228.888 75.8C229.48 75.528 229.944 75.16 230.28 74.696C230.616 74.248 230.784 73.768 230.784 73.256C230.784 72.488 230.584 71.96 230.184 71.672C229.8 71.384 229.104 71.24 228.096 71.24H225.576C225.336 71.24 225.104 71.224 224.88 71.192C224.416 71.464 224.096 71.792 223.92 72.176C223.744 72.576 223.656 73.064 223.656 73.64ZM236.541 56.168C236.285 56.168 236.069 56.08 235.893 55.904C235.717 55.728 235.629 55.512 235.629 55.256C235.629 55 235.717 54.784 235.893 54.608C236.069 54.432 236.285 54.344 236.541 54.344C236.797 54.344 237.013 54.432 237.189 54.608C237.365 54.784 237.453 55 237.453 55.256C237.453 55.512 237.365 55.728 237.189 55.904C237.013 56.08 236.797 56.168 236.541 56.168ZM234.765 71V70.64L236.277 70.232V61.112L234.525 60.656V60.296L237.237 59.96H237.477V70.232L239.181 70.64V71H234.765ZM241.863 71V70.64L243.375 70.232V61.112L241.623 60.896V60.536L244.215 59.96H244.455L244.551 61.688H244.623C245.215 61.08 245.775 60.64 246.303 60.368C246.831 60.096 247.423 59.96 248.079 59.96C249.087 59.96 249.911 60.24 250.551 60.8C251.207 61.36 251.535 62.176 251.535 63.248V70.232L253.047 70.64V71H248.631V70.64L250.335 70.232V63.896C250.335 62.92 250.071 62.184 249.543 61.688C249.031 61.176 248.351 60.92 247.503 60.92C247.023 60.92 246.503 61.04 245.943 61.28C245.383 61.504 244.927 61.832 244.575 62.264V70.232L246.279 70.64V71H241.863ZM260.355 71.24C259.219 71.24 258.259 71 257.475 70.52C256.707 70.04 256.123 69.392 255.723 68.576C255.339 67.76 255.147 66.84 255.147 65.816C255.147 64.728 255.371 63.744 255.819 62.864C256.283 61.984 256.883 61.28 257.619 60.752C258.371 60.224 259.187 59.96 260.067 59.96C261.331 59.96 262.323 60.376 263.043 61.208C263.763 62.04 264.179 63.192 264.291 64.664L264.219 64.736H256.371C256.355 64.976 256.347 65.232 256.347 65.504C256.347 66.912 256.723 68.056 257.475 68.936C258.243 69.8 259.315 70.232 260.691 70.232C261.443 70.232 262.123 70.12 262.731 69.896C263.355 69.672 263.843 69.368 264.195 68.984H264.267V69.296C263.915 69.856 263.395 70.32 262.707 70.688C262.035 71.056 261.251 71.24 260.355 71.24ZM259.779 60.488C258.995 60.488 258.291 60.816 257.667 61.472C257.043 62.112 256.635 63.024 256.443 64.208H262.971C262.811 63.04 262.483 62.128 261.987 61.472C261.491 60.816 260.755 60.488 259.779 60.488ZM272.144 71.24C271.008 71.24 270.048 71 269.264 70.52C268.496 70.04 267.912 69.392 267.512 68.576C267.128 67.76 266.936 66.84 266.936 65.816C266.936 64.728 267.16 63.744 267.608 62.864C268.072 61.984 268.672 61.28 269.408 60.752C270.16 60.224 270.976 59.96 271.856 59.96C273.12 59.96 274.112 60.376 274.832 61.208C275.552 62.04 275.968 63.192 276.08 64.664L276.008 64.736H268.16C268.144 64.976 268.136 65.232 268.136 65.504C268.136 66.912 268.512 68.056 269.264 68.936C270.032 69.8 271.104 70.232 272.48 70.232C273.232 70.232 273.912 70.12 274.52 69.896C275.144 69.672 275.632 69.368 275.984 68.984H276.056V69.296C275.704 69.856 275.184 70.32 274.496 70.688C273.824 71.056 273.04 71.24 272.144 71.24ZM271.568 60.488C270.784 60.488 270.08 60.816 269.456 61.472C268.832 62.112 268.424 63.024 268.232 64.208H274.76C274.6 63.04 274.272 62.128 273.776 61.472C273.28 60.816 272.544 60.488 271.568 60.488ZM278.779 71V70.64L280.291 70.232V61.112L278.539 60.896V60.536L281.131 59.96H281.371L281.491 62.096H281.539C282.163 61.44 282.659 60.96 283.027 60.656C283.395 60.352 283.699 60.16 283.939 60.08C284.179 60 284.451 59.96 284.755 59.96C285.027 59.96 285.275 60.008 285.499 60.104C285.659 60.168 285.771 60.232 285.835 60.296C285.915 60.344 285.955 60.416 285.955 60.512C285.955 60.544 285.947 60.584 285.931 60.632C285.931 60.664 285.923 60.712 285.907 60.776L285.667 61.4H285.619L285.163 61.184C284.939 61.072 284.643 61.016 284.275 61.016C283.811 61.016 283.347 61.144 282.883 61.4C282.419 61.656 281.955 62.104 281.491 62.744V70.232L283.339 70.64V71H278.779ZM293.451 71V70.64L294.963 70.232V61.112L293.211 60.896V60.536L295.803 59.96H296.043L296.163 62.096H296.211C296.835 61.44 297.331 60.96 297.699 60.656C298.067 60.352 298.371 60.16 298.611 60.08C298.851 60 299.123 59.96 299.427 59.96C299.699 59.96 299.947 60.008 300.171 60.104C300.331 60.168 300.443 60.232 300.507 60.296C300.587 60.344 300.627 60.416 300.627 60.512C300.627 60.544 300.619 60.584 300.603 60.632C300.603 60.664 300.595 60.712 300.579 60.776L300.339 61.4H300.291L299.835 61.184C299.611 61.072 299.315 61.016 298.947 61.016C298.483 61.016 298.019 61.144 297.555 61.4C297.091 61.656 296.627 62.104 296.163 62.744V70.232L298.011 70.64V71H293.451ZM307.043 71.24C305.907 71.24 304.947 71 304.163 70.52C303.395 70.04 302.811 69.392 302.411 68.576C302.027 67.76 301.835 66.84 301.835 65.816C301.835 64.728 302.059 63.744 302.507 62.864C302.971 61.984 303.571 61.28 304.307 60.752C305.059 60.224 305.875 59.96 306.755 59.96C308.019 59.96 309.011 60.376 309.731 61.208C310.451 62.04 310.867 63.192 310.979 64.664L310.907 64.736H303.059C303.043 64.976 303.035 65.232 303.035 65.504C303.035 66.912 303.411 68.056 304.163 68.936C304.931 69.8 306.003 70.232 307.379 70.232C308.131 70.232 308.811 70.12 309.419 69.896C310.043 69.672 310.531 69.368 310.883 68.984H310.955V69.296C310.603 69.856 310.083 70.32 309.395 70.688C308.723 71.056 307.939 71.24 307.043 71.24ZM306.467 60.488C305.683 60.488 304.979 60.816 304.355 61.472C303.731 62.112 303.323 63.024 303.131 64.208H309.659C309.499 63.04 309.171 62.128 308.675 61.472C308.179 60.816 307.443 60.488 306.467 60.488ZM316.558 71.24C315.998 71.24 315.494 71.176 315.046 71.048C314.614 70.936 314.166 70.768 313.702 70.544V68.048H313.99L314.326 69.128C314.47 69.608 314.734 69.992 315.118 70.28C315.502 70.552 316.046 70.688 316.75 70.688C317.518 70.688 318.11 70.504 318.526 70.136C318.958 69.752 319.174 69.208 319.174 68.504C319.174 67.88 319.006 67.392 318.67 67.04C318.334 66.672 317.71 66.304 316.798 65.936C315.838 65.552 315.126 65.136 314.662 64.688C314.214 64.24 313.99 63.6 313.99 62.768C313.99 62.256 314.126 61.792 314.398 61.376C314.686 60.944 315.062 60.6 315.526 60.344C315.99 60.088 316.486 59.96 317.014 59.96C317.606 59.96 318.134 60.032 318.598 60.176C319.062 60.304 319.462 60.456 319.798 60.632V63.08H319.51L319.198 62.048C319.038 61.488 318.734 61.088 318.286 60.848C317.854 60.608 317.414 60.488 316.966 60.488C316.342 60.488 315.862 60.672 315.526 61.04C315.206 61.408 315.046 61.888 315.046 62.48C315.046 63.072 315.222 63.536 315.574 63.872C315.926 64.208 316.494 64.536 317.278 64.856C317.982 65.144 318.55 65.424 318.982 65.696C319.43 65.968 319.758 66.304 319.966 66.704C320.174 67.088 320.278 67.584 320.278 68.192C320.278 68.736 320.126 69.24 319.822 69.704C319.518 70.168 319.086 70.544 318.526 70.832C317.966 71.104 317.31 71.24 316.558 71.24ZM328.324 71.24C327.188 71.24 326.228 71 325.444 70.52C324.676 70.04 324.092 69.392 323.692 68.576C323.308 67.76 323.116 66.84 323.116 65.816C323.116 64.728 323.34 63.744 323.788 62.864C324.252 61.984 324.852 61.28 325.588 60.752C326.34 60.224 327.156 59.96 328.036 59.96C329.3 59.96 330.292 60.376 331.012 61.208C331.732 62.04 332.148 63.192 332.26 64.664L332.188 64.736H324.34C324.324 64.976 324.316 65.232 324.316 65.504C324.316 66.912 324.692 68.056 325.444 68.936C326.212 69.8 327.284 70.232 328.66 70.232C329.412 70.232 330.092 70.12 330.7 69.896C331.324 69.672 331.812 69.368 332.164 68.984H332.236V69.296C331.884 69.856 331.364 70.32 330.676 70.688C330.004 71.056 329.22 71.24 328.324 71.24ZM327.748 60.488C326.964 60.488 326.26 60.816 325.636 61.472C325.012 62.112 324.604 63.024 324.412 64.208H330.94C330.78 63.04 330.452 62.128 329.956 61.472C329.46 60.816 328.724 60.488 327.748 60.488ZM337.215 71.24C336.479 71.24 335.863 71.024 335.367 70.592C334.871 70.144 334.623 69.528 334.623 68.744C334.623 67.976 334.895 67.336 335.439 66.824C335.999 66.312 336.919 65.896 338.199 65.576L340.551 64.976V62.984C340.551 62.296 340.303 61.744 339.807 61.328C339.311 60.896 338.743 60.68 338.103 60.68C337.415 60.68 336.927 60.824 336.639 61.112C336.367 61.384 336.231 61.76 336.231 62.24V63.224L336.111 63.344H335.487C335.231 63.344 335.063 63.304 334.983 63.224C334.903 63.144 334.863 62.992 334.863 62.768C334.863 62.464 334.967 62.152 335.175 61.832C335.383 61.512 335.687 61.224 336.087 60.968C336.519 60.696 336.951 60.464 337.383 60.272C337.831 60.064 338.255 59.96 338.655 59.96C339.615 59.96 340.367 60.176 340.911 60.608C341.471 61.024 341.751 61.68 341.751 62.576V70.04C341.879 70.152 342.023 70.24 342.183 70.304C342.359 70.368 342.559 70.4 342.783 70.4H344.031L344.055 70.424V70.472C343.943 70.632 343.759 70.8 343.503 70.976C343.247 71.152 342.903 71.24 342.471 71.24C341.911 71.24 341.479 71.096 341.175 70.808C340.871 70.52 340.687 70.184 340.623 69.8H340.575C340.159 70.216 339.655 70.56 339.063 70.832C338.487 71.104 337.871 71.24 337.215 71.24ZM335.823 68.312C335.823 68.968 336.007 69.464 336.375 69.8C336.743 70.12 337.263 70.28 337.935 70.28C338.335 70.28 338.767 70.224 339.231 70.112C339.695 69.984 340.135 69.792 340.551 69.536V65.48C339.223 65.752 338.215 66.024 337.527 66.296C336.855 66.568 336.399 66.864 336.159 67.184C335.935 67.504 335.823 67.88 335.823 68.312ZM345.81 71V70.64L347.322 70.232V61.112L345.57 60.896V60.536L348.162 59.96H348.402L348.522 62.096H348.57C349.194 61.44 349.69 60.96 350.058 60.656C350.426 60.352 350.73 60.16 350.97 60.08C351.21 60 351.482 59.96 351.786 59.96C352.058 59.96 352.306 60.008 352.53 60.104C352.69 60.168 352.802 60.232 352.866 60.296C352.946 60.344 352.986 60.416 352.986 60.512C352.986 60.544 352.978 60.584 352.962 60.632C352.962 60.664 352.954 60.712 352.938 60.776L352.698 61.4H352.65L352.194 61.184C351.97 61.072 351.674 61.016 351.306 61.016C350.842 61.016 350.378 61.144 349.914 61.4C349.45 61.656 348.986 62.104 348.522 62.744V70.232L350.37 70.64V71H345.81ZM359.33 71.24C358.21 71.24 357.266 71 356.498 70.52C355.746 70.04 355.17 69.392 354.77 68.576C354.386 67.76 354.194 66.84 354.194 65.816C354.194 64.696 354.418 63.696 354.866 62.816C355.33 61.92 355.962 61.224 356.762 60.728C357.578 60.216 358.498 59.96 359.522 59.96C360.162 59.96 360.73 60.048 361.226 60.224C361.722 60.4 362.122 60.592 362.426 60.8C362.938 61.152 363.194 61.456 363.194 61.712C363.194 61.824 363.138 61.928 363.026 62.024L362.378 62.576H362.282L361.97 62.144C361.618 61.664 361.234 61.272 360.818 60.968C360.418 60.648 359.898 60.488 359.258 60.488C358.138 60.488 357.21 60.912 356.474 61.76C355.754 62.592 355.394 63.84 355.394 65.504C355.394 66.912 355.762 68.056 356.498 68.936C357.25 69.8 358.306 70.232 359.666 70.232C360.402 70.232 361.082 70.12 361.706 69.896C362.33 69.672 362.818 69.368 363.17 68.984H363.242V69.296C362.874 69.856 362.354 70.32 361.682 70.688C361.01 71.056 360.226 71.24 359.33 71.24ZM365.707 71V70.64L367.219 70.232V54.152L365.467 53.696V53.336L368.179 53H368.419V61.688H368.467C369.059 61.08 369.619 60.64 370.147 60.368C370.675 60.096 371.267 59.96 371.923 59.96C372.931 59.96 373.755 60.24 374.395 60.8C375.051 61.36 375.379 62.176 375.379 63.248V70.232L376.891 70.64V71H372.475V70.64L374.179 70.232V63.896C374.179 62.92 373.915 62.184 373.387 61.688C372.875 61.176 372.195 60.92 371.347 60.92C370.867 60.92 370.347 61.04 369.787 61.28C369.227 61.504 368.771 61.832 368.419 62.264V70.232L370.123 70.64V71H365.707ZM384.199 71.24C383.063 71.24 382.103 71 381.319 70.52C380.551 70.04 379.967 69.392 379.567 68.576C379.183 67.76 378.991 66.84 378.991 65.816C378.991 64.728 379.215 63.744 379.663 62.864C380.127 61.984 380.727 61.28 381.463 60.752C382.215 60.224 383.031 59.96 383.911 59.96C385.175 59.96 386.167 60.376 386.887 61.208C387.607 62.04 388.023 63.192 388.135 64.664L388.063 64.736H380.215C380.199 64.976 380.191 65.232 380.191 65.504C380.191 66.912 380.567 68.056 381.319 68.936C382.087 69.8 383.159 70.232 384.535 70.232C385.287 70.232 385.967 70.12 386.575 69.896C387.199 69.672 387.687 69.368 388.039 68.984H388.111V69.296C387.759 69.856 387.239 70.32 386.551 70.688C385.879 71.056 385.095 71.24 384.199 71.24ZM383.623 60.488C382.839 60.488 382.135 60.816 381.511 61.472C380.887 62.112 380.479 63.024 380.287 64.208H386.815C386.655 63.04 386.327 62.128 385.831 61.472C385.335 60.816 384.599 60.488 383.623 60.488ZM390.834 71V70.64L392.346 70.232V61.112L390.594 60.896V60.536L393.186 59.96H393.426L393.546 62.096H393.594C394.218 61.44 394.714 60.96 395.082 60.656C395.45 60.352 395.754 60.16 395.994 60.08C396.234 60 396.506 59.96 396.81 59.96C397.082 59.96 397.33 60.008 397.554 60.104C397.714 60.168 397.826 60.232 397.89 60.296C397.97 60.344 398.01 60.416 398.01 60.512C398.01 60.544 398.002 60.584 397.986 60.632C397.986 60.664 397.978 60.712 397.962 60.776L397.722 61.4H397.674L397.218 61.184C396.994 61.072 396.698 61.016 396.33 61.016C395.866 61.016 395.402 61.144 394.938 61.4C394.474 61.656 394.01 62.104 393.546 62.744V70.232L395.394 70.64V71H390.834Z" fill="#BABCBE"/>
<path d="M408.386 71.24C407.826 71.24 407.322 71.176 406.874 71.048C406.442 70.936 405.994 70.768 405.53 70.544V68.048H405.818L406.154 69.128C406.298 69.608 406.562 69.992 406.946 70.28C407.33 70.552 407.874 70.688 408.578 70.688C409.346 70.688 409.938 70.504 410.354 70.136C410.786 69.752 411.002 69.208 411.002 68.504C411.002 67.88 410.834 67.392 410.498 67.04C410.162 66.672 409.538 66.304 408.626 65.936C407.666 65.552 406.954 65.136 406.49 64.688C406.042 64.24 405.818 63.6 405.818 62.768C405.818 62.256 405.954 61.792 406.226 61.376C406.514 60.944 406.89 60.6 407.354 60.344C407.818 60.088 408.314 59.96 408.842 59.96C409.434 59.96 409.962 60.032 410.426 60.176C410.89 60.304 411.29 60.456 411.626 60.632V63.08H411.338L411.026 62.048C410.866 61.488 410.562 61.088 410.114 60.848C409.682 60.608 409.242 60.488 408.794 60.488C408.17 60.488 407.69 60.672 407.354 61.04C407.034 61.408 406.874 61.888 406.874 62.48C406.874 63.072 407.05 63.536 407.402 63.872C407.754 64.208 408.322 64.536 409.106 64.856C409.81 65.144 410.378 65.424 410.81 65.696C411.258 65.968 411.586 66.304 411.794 66.704C412.002 67.088 412.106 67.584 412.106 68.192C412.106 68.736 411.954 69.24 411.65 69.704C411.346 70.168 410.914 70.544 410.354 70.832C409.794 71.104 409.138 71.24 408.386 71.24ZM420.08 71.24C418.96 71.24 418.016 71 417.248 70.52C416.496 70.04 415.92 69.392 415.52 68.576C415.136 67.76 414.944 66.84 414.944 65.816C414.944 64.696 415.168 63.696 415.616 62.816C416.08 61.92 416.712 61.224 417.512 60.728C418.328 60.216 419.248 59.96 420.272 59.96C420.912 59.96 421.48 60.048 421.976 60.224C422.472 60.4 422.872 60.592 423.176 60.8C423.688 61.152 423.944 61.456 423.944 61.712C423.944 61.824 423.888 61.928 423.776 62.024L423.128 62.576H423.032L422.72 62.144C422.368 61.664 421.984 61.272 421.568 60.968C421.168 60.648 420.648 60.488 420.008 60.488C418.888 60.488 417.96 60.912 417.224 61.76C416.504 62.592 416.144 63.84 416.144 65.504C416.144 66.912 416.512 68.056 417.248 68.936C418 69.8 419.056 70.232 420.416 70.232C421.152 70.232 421.832 70.12 422.456 69.896C423.08 69.672 423.568 69.368 423.92 68.984H423.992V69.296C423.624 69.856 423.104 70.32 422.432 70.688C421.76 71.056 420.976 71.24 420.08 71.24ZM428.377 56.168C428.121 56.168 427.905 56.08 427.729 55.904C427.553 55.728 427.465 55.512 427.465 55.256C427.465 55 427.553 54.784 427.729 54.608C427.905 54.432 428.121 54.344 428.377 54.344C428.633 54.344 428.849 54.432 429.025 54.608C429.201 54.784 429.289 55 429.289 55.256C429.289 55.512 429.201 55.728 429.025 55.904C428.849 56.08 428.633 56.168 428.377 56.168ZM426.601 71V70.64L428.113 70.232V61.112L426.361 60.656V60.296L429.073 59.96H429.313V70.232L431.017 70.64V71H426.601ZM438.715 71.24C437.579 71.24 436.619 71 435.835 70.52C435.067 70.04 434.483 69.392 434.083 68.576C433.699 67.76 433.507 66.84 433.507 65.816C433.507 64.728 433.731 63.744 434.179 62.864C434.643 61.984 435.243 61.28 435.979 60.752C436.731 60.224 437.547 59.96 438.427 59.96C439.691 59.96 440.683 60.376 441.403 61.208C442.123 62.04 442.539 63.192 442.651 64.664L442.579 64.736H434.731C434.715 64.976 434.707 65.232 434.707 65.504C434.707 66.912 435.083 68.056 435.835 68.936C436.603 69.8 437.675 70.232 439.051 70.232C439.803 70.232 440.483 70.12 441.091 69.896C441.715 69.672 442.203 69.368 442.555 68.984H442.627V69.296C442.275 69.856 441.755 70.32 441.067 70.688C440.395 71.056 439.611 71.24 438.715 71.24ZM438.139 60.488C437.355 60.488 436.651 60.816 436.027 61.472C435.403 62.112 434.995 63.024 434.803 64.208H441.331C441.171 63.04 440.843 62.128 440.347 61.472C439.851 60.816 439.115 60.488 438.139 60.488ZM445.253 71V70.64L446.765 70.232V61.112L445.013 60.896V60.536L447.605 59.96H447.845L447.941 61.688H448.013C448.605 61.08 449.165 60.64 449.693 60.368C450.221 60.096 450.813 59.96 451.469 59.96C452.477 59.96 453.301 60.24 453.941 60.8C454.597 61.36 454.925 62.176 454.925 63.248V70.232L456.437 70.64V71H452.021V70.64L453.725 70.232V63.896C453.725 62.92 453.461 62.184 452.933 61.688C452.421 61.176 451.741 60.92 450.893 60.92C450.413 60.92 449.893 61.04 449.333 61.28C448.773 61.504 448.317 61.832 447.965 62.264V70.232L449.669 70.64V71H445.253ZM462.09 71.24C461.434 71.24 460.898 71.032 460.482 70.616C460.082 70.2 459.882 69.616 459.882 68.864V61.016H457.77V60.8L460.026 60.2L460.818 57.56H461.082V60.2H464.25V61.016H461.082V68.816C461.082 69.312 461.234 69.688 461.538 69.944C461.842 70.184 462.242 70.304 462.738 70.304C463.09 70.304 463.41 70.264 463.698 70.184C463.986 70.104 464.258 69.992 464.514 69.848L464.538 69.872V69.968C464.41 70.24 464.138 70.52 463.722 70.808C463.306 71.096 462.762 71.24 462.09 71.24ZM468.572 56.168C468.316 56.168 468.1 56.08 467.924 55.904C467.748 55.728 467.66 55.512 467.66 55.256C467.66 55 467.748 54.784 467.924 54.608C468.1 54.432 468.316 54.344 468.572 54.344C468.828 54.344 469.044 54.432 469.22 54.608C469.396 54.784 469.484 55 469.484 55.256C469.484 55.512 469.396 55.728 469.22 55.904C469.044 56.08 468.828 56.168 468.572 56.168ZM466.796 71V70.64L468.308 70.232V61.112L466.556 60.656V60.296L469.268 59.96H469.508V70.232L471.212 70.64V71H466.796ZM476.87 71.24C476.31 71.24 475.806 71.176 475.358 71.048C474.926 70.936 474.478 70.768 474.014 70.544V68.048H474.302L474.638 69.128C474.782 69.608 475.046 69.992 475.43 70.28C475.814 70.552 476.358 70.688 477.062 70.688C477.83 70.688 478.422 70.504 478.838 70.136C479.27 69.752 479.486 69.208 479.486 68.504C479.486 67.88 479.318 67.392 478.982 67.04C478.646 66.672 478.022 66.304 477.11 65.936C476.15 65.552 475.438 65.136 474.974 64.688C474.526 64.24 474.302 63.6 474.302 62.768C474.302 62.256 474.438 61.792 474.71 61.376C474.998 60.944 475.374 60.6 475.838 60.344C476.302 60.088 476.798 59.96 477.326 59.96C477.918 59.96 478.446 60.032 478.91 60.176C479.374 60.304 479.774 60.456 480.11 60.632V63.08H479.822L479.51 62.048C479.35 61.488 479.046 61.088 478.598 60.848C478.166 60.608 477.726 60.488 477.278 60.488C476.654 60.488 476.174 60.672 475.838 61.04C475.518 61.408 475.358 61.888 475.358 62.48C475.358 63.072 475.534 63.536 475.886 63.872C476.238 64.208 476.806 64.536 477.59 64.856C478.294 65.144 478.862 65.424 479.294 65.696C479.742 65.968 480.07 66.304 480.278 66.704C480.486 67.088 480.59 67.584 480.59 68.192C480.59 68.736 480.438 69.24 480.134 69.704C479.83 70.168 479.398 70.544 478.838 70.832C478.278 71.104 477.622 71.24 476.87 71.24ZM486.981 71.24C486.325 71.24 485.789 71.032 485.373 70.616C484.973 70.2 484.773 69.616 484.773 68.864V61.016H482.661V60.8L484.917 60.2L485.709 57.56H485.973V60.2H489.141V61.016H485.973V68.816C485.973 69.312 486.125 69.688 486.429 69.944C486.733 70.184 487.133 70.304 487.629 70.304C487.981 70.304 488.301 70.264 488.589 70.184C488.877 70.104 489.149 69.992 489.405 69.848L489.429 69.872V69.968C489.301 70.24 489.029 70.52 488.613 70.808C488.197 71.096 487.653 71.24 486.981 71.24Z" fill="#F4B400"/>
<path d="M102.635 64.76H190.049V65.48H102.635V64.76ZM196.057 64.76H285.955V65.48H196.057V64.76ZM291.963 64.76H398.01V65.48H291.963V64.76Z" fill="#BABCBE"/>
<ellipse cx="430.209" cy="82.1436" rx="3.7907" ry="4.14359" fill="#4285F4"/>
<ellipse cx="415.994" cy="275.856" rx="3.7907" ry="4.14359" fill="#4285F4"/>
<path d="M430.683 81.6257C301.041 195.16 366.873 258.419 415.994 275.857" stroke="#4285F4" stroke-width="1.1"/>
<circle cx="4" cy="4" r="4" transform="matrix(-1 0 0 1 223 272)" fill="#0F9D58"/>
<circle cx="4" cy="4" r="4" transform="matrix(-1 0 0 1 457 78)" fill="#0F9D58"/>
<path d="M453.5 82C372.3 238.8 261.667 277 216.5 276.5" stroke="#0F9D58" stroke-width="1.1"/>
<path d="M35.5146 14.8751C-22.5869 37.4082 15.4451 61.8727 41.7238 71.2883" stroke="#F4B400" stroke-width="1.1"/>
<circle cx="4" cy="4" r="4" transform="matrix(-0.990268 -0.139173 -0.139173 0.990268 46.2416 67.8839)" fill="#F4B400"/>
<circle cx="4" cy="4" r="4" transform="matrix(-0.990268 -0.139173 -0.139173 0.990268 41.0226 11.6099)" fill="#F4B400"/>
<path d="M513.215 14.8751C571.317 37.4082 533.285 61.8727 507.006 71.2883" stroke="white" stroke-width="1.1"/>
<circle cx="507.006" cy="71.2883" r="4" transform="rotate(-8 507.006 71.2883)" fill="white"/>
<circle cx="512.225" cy="15.0142" r="4" transform="rotate(-8 512.225 15.0142)" fill="white"/>
</svg>
