<svg width="548" height="281" viewBox="0 0 548 281" fill="none" xmlns="http://www.w3.org/2000/svg">
<path d="M51.0949 34V33.52L53.1109 32.976V20.688H50.2949V19.6H53.1109V18.32C53.1109 17.4667 53.2495 16.56 53.5269 15.6C53.8255 14.64 54.2522 13.7333 54.8069 12.88C55.3829 12.0267 56.0975 11.3333 56.9509 10.8C57.8042 10.2667 58.7962 10 59.9269 10C60.2042 10 60.4495 10.0427 60.6629 10.128C61.0042 10.2773 61.1749 10.448 61.1749 10.64C61.1749 10.768 61.1429 10.9067 61.0789 11.056L60.7269 11.92H60.6629L59.9909 11.696C59.3295 11.4827 58.6895 11.376 58.0709 11.376C56.9829 11.376 56.1509 11.824 55.5749 12.72C54.9989 13.616 54.7109 15.056 54.7109 17.04V19.6H58.9349V20.688H54.7109V32.976L57.1749 33.52V34H51.0949ZM69.5934 34V33.52L71.6094 32.976V20.816L69.2734 20.528V20.048L72.7294 19.28H73.0494L73.2094 22.128H73.2734C74.1054 21.2533 74.7667 20.6133 75.2574 20.208C75.748 19.8027 76.1534 19.5467 76.4734 19.44C76.7934 19.3333 77.156 19.28 77.5614 19.28C77.924 19.28 78.2547 19.344 78.5534 19.472C78.7667 19.5573 78.916 19.6427 79.0014 19.728C79.108 19.792 79.1614 19.888 79.1614 20.016C79.1614 20.0587 79.1507 20.112 79.1294 20.176C79.1294 20.2187 79.1187 20.2827 79.0974 20.368L78.7774 21.2H78.7134L78.1054 20.912C77.8067 20.7627 77.412 20.688 76.9214 20.688C76.3027 20.688 75.684 20.8587 75.0654 21.2C74.4467 21.5413 73.828 22.1387 73.2094 22.992V32.976L75.6734 33.52V34H69.5934ZM88.9319 38.8V10.32H94.1159V10.896H90.0519V38.224H94.1159V38.8H88.9319ZM99.5389 34.32C98.5575 34.32 97.7362 34.032 97.0749 33.456C96.4135 32.8587 96.0829 32.0373 96.0829 30.992C96.0829 29.968 96.4455 29.1147 97.1709 28.432C97.9175 27.7493 99.1442 27.1947 100.851 26.768L103.987 25.968V23.312C103.987 22.3947 103.656 21.6587 102.995 21.104C102.334 20.528 101.576 20.24 100.723 20.24C99.8055 20.24 99.1549 20.432 98.7709 20.816C98.4082 21.1787 98.2269 21.68 98.2269 22.32V23.632L98.0669 23.792H97.2349C96.8935 23.792 96.6695 23.7387 96.5629 23.632C96.4562 23.5253 96.4029 23.3227 96.4029 23.024C96.4029 22.6187 96.5415 22.2027 96.8189 21.776C97.0962 21.3493 97.5015 20.9653 98.0349 20.624C98.6109 20.2613 99.1869 19.952 99.7629 19.696C100.36 19.4187 100.926 19.28 101.459 19.28C102.739 19.28 103.742 19.568 104.467 20.144C105.214 20.6987 105.587 21.5733 105.587 22.768V32.72C105.758 32.8693 105.95 32.9867 106.163 33.072C106.398 33.1573 106.664 33.2 106.963 33.2H108.627L108.659 33.232V33.296C108.51 33.5093 108.264 33.7333 107.923 33.968C107.582 34.2027 107.123 34.32 106.547 34.32C105.8 34.32 105.224 34.128 104.819 33.744C104.414 33.36 104.168 32.912 104.083 32.4H104.019C103.464 32.9547 102.792 33.4133 102.003 33.776C101.235 34.1387 100.414 34.32 99.5389 34.32ZM97.6829 30.416C97.6829 31.2907 97.9282 31.952 98.4189 32.4C98.9095 32.8267 99.6029 33.04 100.499 33.04C101.032 33.04 101.608 32.9653 102.227 32.816C102.846 32.6453 103.432 32.3893 103.987 32.048V26.64C102.216 27.0027 100.872 27.3653 99.9549 27.728C99.0589 28.0907 98.4509 28.4853 98.1309 28.912C97.8322 29.3387 97.6829 29.84 97.6829 30.416ZM109.432 38.8V38.224H113.496V10.896H109.432V10.32H114.616V38.8H109.432ZM126.247 34V33.52L128.263 32.976V20.816L125.927 20.528V20.048L129.383 19.28H129.703L129.831 21.584H129.927C130.716 20.7733 131.463 20.1867 132.167 19.824C132.871 19.4613 133.66 19.28 134.535 19.28C135.879 19.28 136.977 19.6533 137.831 20.4C138.705 21.1467 139.143 22.2347 139.143 23.664V32.976L141.159 33.52V34H135.271V33.52L137.543 32.976V24.528C137.543 23.2267 137.191 22.2453 136.487 21.584C135.804 20.9013 134.897 20.56 133.767 20.56C133.127 20.56 132.433 20.72 131.687 21.04C130.94 21.3387 130.332 21.776 129.863 22.352V32.976L132.135 33.52V34H126.247ZM158.807 34.32C157.314 34.32 156.055 34 155.031 33.36C154.029 32.72 153.261 31.856 152.727 30.768C152.215 29.68 151.959 28.4533 151.959 27.088C151.959 25.5947 152.258 24.2613 152.855 23.088C153.474 21.8933 154.317 20.9653 155.383 20.304C156.471 19.6213 157.698 19.28 159.063 19.28C159.917 19.28 160.674 19.3973 161.335 19.632C161.997 19.8667 162.53 20.1227 162.935 20.4C163.618 20.8693 163.959 21.2747 163.959 21.616C163.959 21.7653 163.885 21.904 163.735 22.032L162.871 22.768H162.743L162.327 22.192C161.858 21.552 161.346 21.0293 160.791 20.624C160.258 20.1973 159.565 19.984 158.711 19.984C157.218 19.984 155.981 20.5493 154.999 21.68C154.039 22.7893 153.559 24.4533 153.559 26.672C153.559 28.5493 154.05 30.0747 155.031 31.248C156.034 32.4 157.442 32.976 159.255 32.976C160.237 32.976 161.143 32.8267 161.975 32.528C162.807 32.2293 163.458 31.824 163.927 31.312H164.023V31.728C163.533 32.4747 162.839 33.0933 161.943 33.584C161.047 34.0747 160.002 34.32 158.807 34.32ZM175.213 38.8V10.32H180.397V10.896H176.333V38.224H180.397V38.8H175.213ZM185.244 14.224C184.903 14.224 184.615 14.1067 184.38 13.872C184.145 13.6373 184.028 13.3493 184.028 13.008C184.028 12.6667 184.145 12.3787 184.38 12.144C184.615 11.9093 184.903 11.792 185.244 11.792C185.585 11.792 185.873 11.9093 186.108 12.144C186.343 12.3787 186.46 12.6667 186.46 13.008C186.46 13.3493 186.343 13.6373 186.108 13.872C185.873 14.1067 185.585 14.224 185.244 14.224ZM182.876 34V33.52L184.892 32.976V20.816L182.556 20.208V19.728L186.172 19.28H186.492V32.976L188.764 33.52V34H182.876ZM190.9 38.8V38.224H194.964V10.896H190.9V10.32H196.084V38.8H190.9ZM211.683 34.32C210.937 34.32 210.265 34.2347 209.667 34.064C209.091 33.9147 208.494 33.6907 207.875 33.392V30.064H208.259L208.707 31.504C208.899 32.144 209.251 32.656 209.763 33.04C210.275 33.4027 211.001 33.584 211.939 33.584C212.963 33.584 213.753 33.3387 214.307 32.848C214.883 32.336 215.171 31.6107 215.171 30.672C215.171 29.84 214.947 29.1893 214.499 28.72C214.051 28.2293 213.219 27.7387 212.003 27.248C210.723 26.736 209.774 26.1813 209.155 25.584C208.558 24.9867 208.259 24.1333 208.259 23.024C208.259 22.3413 208.441 21.7227 208.803 21.168C209.187 20.592 209.689 20.1333 210.307 19.792C210.926 19.4507 211.587 19.28 212.291 19.28C213.081 19.28 213.785 19.376 214.403 19.568C215.022 19.7387 215.555 19.9413 216.003 20.176V23.44H215.619L215.203 22.064C214.99 21.3173 214.585 20.784 213.987 20.464C213.411 20.144 212.825 19.984 212.227 19.984C211.395 19.984 210.755 20.2293 210.307 20.72C209.881 21.2107 209.667 21.8507 209.667 22.64C209.667 23.4293 209.902 24.048 210.371 24.496C210.841 24.944 211.598 25.3813 212.643 25.808C213.582 26.192 214.339 26.5653 214.915 26.928C215.513 27.2907 215.95 27.7387 216.227 28.272C216.505 28.784 216.643 29.4453 216.643 30.256C216.643 30.9813 216.441 31.6533 216.035 32.272C215.63 32.8907 215.054 33.392 214.307 33.776C213.561 34.1387 212.686 34.32 211.683 34.32ZM228.588 38.8V10.32H233.772V10.896H229.708V38.224H233.772V38.8H228.588ZM234.619 38.8V38.224H238.683V10.896H234.619V10.32H239.803V38.8H234.619ZM258.026 34.32C256.533 34.32 255.274 34 254.25 33.36C253.247 32.72 252.479 31.856 251.946 30.768C251.434 29.68 251.178 28.4533 251.178 27.088C251.178 25.5947 251.477 24.2613 252.074 23.088C252.693 21.8933 253.535 20.9653 254.602 20.304C255.69 19.6213 256.917 19.28 258.282 19.28C259.135 19.28 259.893 19.3973 260.554 19.632C261.215 19.8667 261.749 20.1227 262.154 20.4C262.837 20.8693 263.178 21.2747 263.178 21.616C263.178 21.7653 263.103 21.904 262.954 22.032L262.09 22.768H261.962L261.546 22.192C261.077 21.552 260.565 21.0293 260.01 20.624C259.477 20.1973 258.783 19.984 257.93 19.984C256.437 19.984 255.199 20.5493 254.218 21.68C253.258 22.7893 252.778 24.4533 252.778 26.672C252.778 28.5493 253.269 30.0747 254.25 31.248C255.253 32.4 256.661 32.976 258.474 32.976C259.455 32.976 260.362 32.8267 261.194 32.528C262.026 32.2293 262.677 31.824 263.146 31.312H263.242V31.728C262.751 32.4747 262.058 33.0933 261.162 33.584C260.266 34.0747 259.221 34.32 258.026 34.32ZM274.432 38.8V10.32H279.616V10.896H275.552V38.224H279.616V38.8H274.432ZM285.039 34.32C284.058 34.32 283.236 34.032 282.575 33.456C281.914 32.8587 281.583 32.0373 281.583 30.992C281.583 29.968 281.946 29.1147 282.671 28.432C283.418 27.7493 284.644 27.1947 286.351 26.768L289.487 25.968V23.312C289.487 22.3947 289.156 21.6587 288.495 21.104C287.834 20.528 287.076 20.24 286.223 20.24C285.306 20.24 284.655 20.432 284.271 20.816C283.908 21.1787 283.727 21.68 283.727 22.32V23.632L283.567 23.792H282.735C282.394 23.792 282.17 23.7387 282.063 23.632C281.956 23.5253 281.903 23.3227 281.903 23.024C281.903 22.6187 282.042 22.2027 282.319 21.776C282.596 21.3493 283.002 20.9653 283.535 20.624C284.111 20.2613 284.687 19.952 285.263 19.696C285.86 19.4187 286.426 19.28 286.959 19.28C288.239 19.28 289.242 19.568 289.967 20.144C290.714 20.6987 291.087 21.5733 291.087 22.768V32.72C291.258 32.8693 291.45 32.9867 291.663 33.072C291.898 33.1573 292.164 33.2 292.463 33.2H294.127L294.159 33.232V33.296C294.01 33.5093 293.764 33.7333 293.423 33.968C293.082 34.2027 292.623 34.32 292.047 34.32C291.3 34.32 290.724 34.128 290.319 33.744C289.914 33.36 289.668 32.912 289.583 32.4H289.519C288.964 32.9547 288.292 33.4133 287.503 33.776C286.735 34.1387 285.914 34.32 285.039 34.32ZM283.183 30.416C283.183 31.2907 283.428 31.952 283.919 32.4C284.41 32.8267 285.103 33.04 285.999 33.04C286.532 33.04 287.108 32.9653 287.727 32.816C288.346 32.6453 288.932 32.3893 289.487 32.048V26.64C287.716 27.0027 286.372 27.3653 285.455 27.728C284.559 28.0907 283.951 28.4853 283.631 28.912C283.332 29.3387 283.183 29.84 283.183 30.416ZM294.932 38.8V38.224H298.996V10.896H294.932V10.32H300.116V38.8H294.932ZM318.339 34.32C316.845 34.32 315.587 34 314.563 33.36C313.56 32.72 312.792 31.856 312.259 30.768C311.747 29.68 311.491 28.4533 311.491 27.088C311.491 25.5947 311.789 24.2613 312.387 23.088C313.005 21.8933 313.848 20.9653 314.915 20.304C316.003 19.6213 317.229 19.28 318.595 19.28C319.448 19.28 320.205 19.3973 320.867 19.632C321.528 19.8667 322.061 20.1227 322.467 20.4C323.149 20.8693 323.491 21.2747 323.491 21.616C323.491 21.7653 323.416 21.904 323.267 22.032L322.403 22.768H322.275L321.859 22.192C321.389 21.552 320.877 21.0293 320.323 20.624C319.789 20.1973 319.096 19.984 318.243 19.984C316.749 19.984 315.512 20.5493 314.531 21.68C313.571 22.7893 313.091 24.4533 313.091 26.672C313.091 28.5493 313.581 30.0747 314.563 31.248C315.565 32.4 316.973 32.976 318.787 32.976C319.768 32.976 320.675 32.8267 321.507 32.528C322.339 32.2293 322.989 31.824 323.459 31.312H323.555V31.728C323.064 32.4747 322.371 33.0933 321.475 33.584C320.579 34.0747 319.533 34.32 318.339 34.32ZM341.432 34.32C339.939 34.32 338.68 34 337.656 33.36C336.654 32.72 335.886 31.856 335.352 30.768C334.84 29.68 334.584 28.4533 334.584 27.088C334.584 25.5947 334.883 24.2613 335.48 23.088C336.099 21.8933 336.942 20.9653 338.008 20.304C339.096 19.6213 340.323 19.28 341.688 19.28C342.542 19.28 343.299 19.3973 343.96 19.632C344.622 19.8667 345.155 20.1227 345.56 20.4C346.243 20.8693 346.584 21.2747 346.584 21.616C346.584 21.7653 346.51 21.904 346.36 22.032L345.496 22.768H345.368L344.952 22.192C344.483 21.552 343.971 21.0293 343.416 20.624C342.883 20.1973 342.19 19.984 341.336 19.984C339.843 19.984 338.606 20.5493 337.624 21.68C336.664 22.7893 336.184 24.4533 336.184 26.672C336.184 28.5493 336.675 30.0747 337.656 31.248C338.659 32.4 340.067 32.976 341.88 32.976C342.862 32.976 343.768 32.8267 344.6 32.528C345.432 32.2293 346.083 31.824 346.552 31.312H346.648V31.728C346.158 32.4747 345.464 33.0933 344.568 33.584C343.672 34.0747 342.627 34.32 341.432 34.32ZM357.838 38.8V10.32H363.022V10.896H358.958V38.224H363.022V38.8H357.838ZM368.445 34.32C367.464 34.32 366.642 34.032 365.981 33.456C365.32 32.8587 364.989 32.0373 364.989 30.992C364.989 29.968 365.352 29.1147 366.077 28.432C366.824 27.7493 368.05 27.1947 369.757 26.768L372.893 25.968V23.312C372.893 22.3947 372.562 21.6587 371.901 21.104C371.24 20.528 370.482 20.24 369.629 20.24C368.712 20.24 368.061 20.432 367.677 20.816C367.314 21.1787 367.133 21.68 367.133 22.32V23.632L366.973 23.792H366.141C365.8 23.792 365.576 23.7387 365.469 23.632C365.362 23.5253 365.309 23.3227 365.309 23.024C365.309 22.6187 365.448 22.2027 365.725 21.776C366.002 21.3493 366.408 20.9653 366.941 20.624C367.517 20.2613 368.093 19.952 368.669 19.696C369.266 19.4187 369.832 19.28 370.365 19.28C371.645 19.28 372.648 19.568 373.373 20.144C374.12 20.6987 374.493 21.5733 374.493 22.768V32.72C374.664 32.8693 374.856 32.9867 375.069 33.072C375.304 33.1573 375.57 33.2 375.869 33.2H377.533L377.565 33.232V33.296C377.416 33.5093 377.17 33.7333 376.829 33.968C376.488 34.2027 376.029 34.32 375.453 34.32C374.706 34.32 374.13 34.128 373.725 33.744C373.32 33.36 373.074 32.912 372.989 32.4H372.925C372.37 32.9547 371.698 33.4133 370.909 33.776C370.141 34.1387 369.32 34.32 368.445 34.32ZM366.589 30.416C366.589 31.2907 366.834 31.952 367.325 32.4C367.816 32.8267 368.509 33.04 369.405 33.04C369.938 33.04 370.514 32.9653 371.133 32.816C371.752 32.6453 372.338 32.3893 372.893 32.048V26.64C371.122 27.0027 369.778 27.3653 368.861 27.728C367.965 28.0907 367.357 28.4853 367.037 28.912C366.738 29.3387 366.589 29.84 366.589 30.416ZM378.338 38.8V38.224H382.402V10.896H378.338V10.32H383.522V38.8H378.338ZM399.825 34.16L394.609 20.688L392.593 20.08V19.6H398.737V20.08L396.273 20.624V20.72L400.401 31.92H400.497L404.561 20.752V20.656L401.969 20.08V19.6H407.633V20.08L405.585 20.688L400.145 34.16H399.825ZM416.619 38.8V10.32H421.803V10.896H417.739V38.224H421.803V38.8H416.619ZM427.226 34.32C426.245 34.32 425.424 34.032 424.762 33.456C424.101 32.8587 423.77 32.0373 423.77 30.992C423.77 29.968 424.133 29.1147 424.858 28.432C425.605 27.7493 426.832 27.1947 428.538 26.768L431.674 25.968V23.312C431.674 22.3947 431.344 21.6587 430.682 21.104C430.021 20.528 429.264 20.24 428.41 20.24C427.493 20.24 426.842 20.432 426.458 20.816C426.096 21.1787 425.914 21.68 425.914 22.32V23.632L425.754 23.792H424.922C424.581 23.792 424.357 23.7387 424.25 23.632C424.144 23.5253 424.09 23.3227 424.09 23.024C424.09 22.6187 424.229 22.2027 424.506 21.776C424.784 21.3493 425.189 20.9653 425.722 20.624C426.298 20.2613 426.874 19.952 427.45 19.696C428.048 19.4187 428.613 19.28 429.146 19.28C430.426 19.28 431.429 19.568 432.154 20.144C432.901 20.6987 433.274 21.5733 433.274 22.768V32.72C433.445 32.8693 433.637 32.9867 433.85 33.072C434.085 33.1573 434.352 33.2 434.65 33.2H436.314L436.346 33.232V33.296C436.197 33.5093 435.952 33.7333 435.61 33.968C435.269 34.2027 434.81 34.32 434.234 34.32C433.488 34.32 432.912 34.128 432.506 33.744C432.101 33.36 431.856 32.912 431.77 32.4H431.706C431.152 32.9547 430.48 33.4133 429.69 33.776C428.922 34.1387 428.101 34.32 427.226 34.32ZM425.37 30.416C425.37 31.2907 425.616 31.952 426.106 32.4C426.597 32.8267 427.29 33.04 428.186 33.04C428.72 33.04 429.296 32.9653 429.914 32.816C430.533 32.6453 431.12 32.3893 431.674 32.048V26.64C429.904 27.0027 428.56 27.3653 427.642 27.728C426.746 28.0907 426.138 28.4853 425.818 28.912C425.52 29.3387 425.37 29.84 425.37 30.416ZM437.119 38.8V38.224H441.183V10.896H437.119V10.32H442.303V38.8H437.119ZM453.806 34V33.52L455.822 32.976V11.536L453.486 10.928V10.448L457.102 10H457.422V32.976L459.694 33.52V34H453.806ZM470.869 38.8V10.32H476.053V10.896H471.989V38.224H476.053V38.8H470.869ZM485.028 34.32C483.514 34.32 482.234 34 481.188 33.36C480.164 32.72 479.386 31.856 478.852 30.768C478.34 29.68 478.084 28.4533 478.084 27.088C478.084 25.6373 478.383 24.3253 478.98 23.152C479.599 21.9787 480.399 21.04 481.38 20.336C482.383 19.632 483.471 19.28 484.644 19.28C486.33 19.28 487.652 19.8347 488.612 20.944C489.572 22.0533 490.127 23.5893 490.276 25.552L490.18 25.648H479.716C479.695 25.968 479.684 26.3093 479.684 26.672C479.684 28.5493 480.186 30.0747 481.188 31.248C482.212 32.4 483.642 32.976 485.476 32.976C486.479 32.976 487.386 32.8267 488.196 32.528C489.028 32.2293 489.679 31.824 490.148 31.312H490.244V31.728C489.775 32.4747 489.082 33.0933 488.164 33.584C487.268 34.0747 486.223 34.32 485.028 34.32ZM484.26 19.984C483.215 19.984 482.276 20.4213 481.444 21.296C480.612 22.1493 480.068 23.3653 479.812 24.944H488.516C488.303 23.3867 487.866 22.1707 487.204 21.296C486.543 20.4213 485.562 19.984 484.26 19.984ZM491.994 38.8V38.224H496.058V10.896H491.994V10.32H497.178V38.8H491.994ZM58.1135 74.6V53.24H62.0015V53.672H58.9535V74.168H62.0015V74.6H58.1135ZM68.0368 71.24C67.0608 71.24 66.2608 70.96 65.6368 70.4C65.0128 69.84 64.7008 69.024 64.7008 67.952V60.968L62.9968 60.56V60.2H65.9008V67.304C65.9008 68.28 66.1488 69.024 66.6448 69.536C67.1568 70.032 67.8128 70.28 68.6128 70.28C69.0768 70.28 69.5728 70.168 70.1008 69.944C70.6448 69.704 71.0848 69.368 71.4208 68.936V60.968L69.4768 60.56V60.2H72.6208V70.232L74.3248 70.64V71H71.4208V69.536H71.3488C70.7728 70.112 70.2288 70.544 69.7168 70.832C69.2048 71.104 68.6448 71.24 68.0368 71.24ZM75.3399 74.6V74.168H78.3879V53.672H75.3399V53.24H79.2279V74.6H75.3399ZM83.1032 71V70.64L84.4952 70.256L87.5432 65.6L84.6152 60.992L83.2232 60.56V60.2H87.4712V60.56L85.9592 60.968V61.04L88.3592 64.808L90.5672 61.04V60.968L89.2472 60.56V60.2H92.6312V60.56L91.3352 61.088L88.5752 65.144L91.8152 70.208L93.0392 70.64V71H89.1032V70.64L90.4472 70.232V70.16L87.7592 65.96L85.4072 70.16V70.232L86.7032 70.64V71H83.1032Z" fill="black"/>
<path d="M106.883 71.24C106.083 71.24 105.371 71.032 104.747 70.616C104.123 70.2 103.627 69.616 103.259 68.864C102.907 68.096 102.731 67.184 102.731 66.128C102.731 64.816 102.987 63.704 103.499 62.792C104.011 61.864 104.691 61.16 105.539 60.68C106.387 60.2 107.323 59.96 108.347 59.96C108.699 59.96 109.067 60.024 109.451 60.152C109.835 60.264 110.211 60.416 110.579 60.608V54.152L108.827 53.696V53.336L111.539 53H111.779V70.232L113.483 70.64V71H110.819L110.603 69.776H110.483C109.939 70.24 109.371 70.6 108.779 70.856C108.203 71.112 107.571 71.24 106.883 71.24ZM103.859 65.744C103.859 66.816 104.035 67.704 104.387 68.408C104.739 69.096 105.195 69.608 105.755 69.944C106.331 70.264 106.923 70.424 107.531 70.424C108.059 70.424 108.587 70.328 109.115 70.136C109.643 69.944 110.131 69.632 110.579 69.2V61.472C110.083 61.2 109.587 60.984 109.091 60.824C108.595 60.664 108.067 60.584 107.507 60.584C106.851 60.584 106.243 60.752 105.683 61.088C105.139 61.424 104.699 61.976 104.363 62.744C104.027 63.496 103.859 64.496 103.859 65.744ZM121.042 71.24C119.906 71.24 118.946 71 118.162 70.52C117.394 70.04 116.81 69.392 116.41 68.576C116.026 67.76 115.834 66.84 115.834 65.816C115.834 64.728 116.058 63.744 116.506 62.864C116.97 61.984 117.57 61.28 118.306 60.752C119.058 60.224 119.874 59.96 120.754 59.96C122.018 59.96 123.01 60.376 123.73 61.208C124.45 62.04 124.866 63.192 124.978 64.664L124.906 64.736H117.058C117.042 64.976 117.034 65.232 117.034 65.504C117.034 66.912 117.41 68.056 118.162 68.936C118.93 69.8 120.002 70.232 121.378 70.232C122.13 70.232 122.81 70.12 123.418 69.896C124.042 69.672 124.53 69.368 124.882 68.984H124.954V69.296C124.602 69.856 124.082 70.32 123.394 70.688C122.722 71.056 121.938 71.24 121.042 71.24ZM120.466 60.488C119.682 60.488 118.978 60.816 118.354 61.472C117.73 62.112 117.322 63.024 117.13 64.208H123.658C123.498 63.04 123.17 62.128 122.674 61.472C122.178 60.816 121.442 60.488 120.466 60.488ZM130.556 71.24C129.996 71.24 129.492 71.176 129.044 71.048C128.612 70.936 128.164 70.768 127.7 70.544V68.048H127.988L128.324 69.128C128.468 69.608 128.732 69.992 129.116 70.28C129.5 70.552 130.044 70.688 130.748 70.688C131.516 70.688 132.108 70.504 132.524 70.136C132.956 69.752 133.172 69.208 133.172 68.504C133.172 67.88 133.004 67.392 132.668 67.04C132.332 66.672 131.708 66.304 130.796 65.936C129.836 65.552 129.124 65.136 128.66 64.688C128.212 64.24 127.988 63.6 127.988 62.768C127.988 62.256 128.124 61.792 128.396 61.376C128.684 60.944 129.06 60.6 129.524 60.344C129.988 60.088 130.484 59.96 131.012 59.96C131.604 59.96 132.132 60.032 132.596 60.176C133.06 60.304 133.46 60.456 133.796 60.632V63.08H133.508L133.196 62.048C133.036 61.488 132.732 61.088 132.284 60.848C131.852 60.608 131.412 60.488 130.964 60.488C130.34 60.488 129.86 60.672 129.524 61.04C129.204 61.408 129.044 61.888 129.044 62.48C129.044 63.072 129.22 63.536 129.572 63.872C129.924 64.208 130.492 64.536 131.276 64.856C131.98 65.144 132.548 65.424 132.98 65.696C133.428 65.968 133.756 66.304 133.964 66.704C134.172 67.088 134.276 67.584 134.276 68.192C134.276 68.736 134.124 69.24 133.82 69.704C133.516 70.168 133.084 70.544 132.524 70.832C131.964 71.104 131.308 71.24 130.556 71.24ZM139.227 56.168C138.971 56.168 138.755 56.08 138.579 55.904C138.403 55.728 138.315 55.512 138.315 55.256C138.315 55 138.403 54.784 138.579 54.608C138.755 54.432 138.971 54.344 139.227 54.344C139.483 54.344 139.699 54.432 139.875 54.608C140.051 54.784 140.139 55 140.139 55.256C140.139 55.512 140.051 55.728 139.875 55.904C139.699 56.08 139.483 56.168 139.227 56.168ZM137.451 71V70.64L138.963 70.232V61.112L137.211 60.656V60.296L139.923 59.96H140.163V70.232L141.867 70.64V71H137.451ZM148.701 67.376C148.221 67.376 147.765 67.296 147.333 67.136C146.805 67.36 146.437 67.6 146.229 67.856C146.021 68.112 145.917 68.408 145.917 68.744C145.917 69.288 146.109 69.68 146.493 69.92C146.877 70.16 147.469 70.28 148.269 70.28H150.981C151.925 70.28 152.645 70.504 153.141 70.952C153.653 71.4 153.909 72.016 153.909 72.8C153.909 73.456 153.685 74.088 153.237 74.696C152.789 75.304 152.165 75.8 151.365 76.184C150.565 76.568 149.621 76.76 148.533 76.76C147.141 76.76 146.141 76.48 145.533 75.92C144.925 75.376 144.621 74.704 144.621 73.904C144.621 73.312 144.741 72.8 144.981 72.368L146.445 71.144V71.096C145.405 70.792 144.885 70.16 144.885 69.2C144.885 68.672 145.061 68.232 145.413 67.88L146.829 67.04V66.92C146.253 66.616 145.797 66.184 145.461 65.624C145.125 65.048 144.957 64.4 144.957 63.68C144.957 62.976 145.117 62.344 145.437 61.784C145.773 61.224 146.221 60.784 146.781 60.464C147.341 60.128 147.981 59.96 148.701 59.96C149.053 59.96 149.437 60.008 149.853 60.104C150.269 60.184 150.597 60.28 150.837 60.392L154.101 60.2V61.184L151.677 61.016L151.629 61.064C151.885 61.336 152.077 61.72 152.205 62.216C152.349 62.696 152.421 63.184 152.421 63.68C152.421 64.384 152.261 65.016 151.941 65.576C151.621 66.136 151.181 66.576 150.621 66.896C150.061 67.216 149.421 67.376 148.701 67.376ZM148.941 66.896C149.629 66.896 150.173 66.624 150.573 66.08C150.989 65.52 151.197 64.736 151.197 63.728C151.197 62.624 150.941 61.8 150.429 61.256C149.917 60.696 149.285 60.416 148.533 60.416C147.797 60.416 147.221 60.704 146.805 61.28C146.389 61.84 146.181 62.616 146.181 63.608C146.181 64.712 146.437 65.536 146.949 66.08C147.477 66.624 148.141 66.896 148.941 66.896ZM145.725 73.64C145.725 74.376 146.029 74.992 146.637 75.488C147.261 75.984 148.021 76.232 148.917 76.232C149.685 76.232 150.365 76.088 150.957 75.8C151.549 75.528 152.013 75.16 152.349 74.696C152.685 74.248 152.853 73.768 152.853 73.256C152.853 72.488 152.653 71.96 152.253 71.672C151.869 71.384 151.173 71.24 150.165 71.24H147.645C147.405 71.24 147.173 71.224 146.949 71.192C146.485 71.464 146.165 71.792 145.989 72.176C145.813 72.576 145.725 73.064 145.725 73.64ZM156.69 71V70.64L158.202 70.232V61.112L156.45 60.896V60.536L159.042 59.96H159.282L159.378 61.688H159.45C160.042 61.08 160.602 60.64 161.13 60.368C161.658 60.096 162.25 59.96 162.906 59.96C163.914 59.96 164.738 60.24 165.378 60.8C166.034 61.36 166.362 62.176 166.362 63.248V70.232L167.874 70.64V71H163.458V70.64L165.162 70.232V63.896C165.162 62.92 164.898 62.184 164.37 61.688C163.858 61.176 163.178 60.92 162.33 60.92C161.85 60.92 161.33 61.04 160.77 61.28C160.21 61.504 159.754 61.832 159.402 62.264V70.232L161.106 70.64V71H156.69ZM175.182 71.24C174.046 71.24 173.086 71 172.302 70.52C171.534 70.04 170.95 69.392 170.55 68.576C170.166 67.76 169.974 66.84 169.974 65.816C169.974 64.728 170.198 63.744 170.646 62.864C171.11 61.984 171.71 61.28 172.446 60.752C173.198 60.224 174.014 59.96 174.894 59.96C176.158 59.96 177.15 60.376 177.87 61.208C178.59 62.04 179.006 63.192 179.118 64.664L179.046 64.736H171.198C171.182 64.976 171.174 65.232 171.174 65.504C171.174 66.912 171.55 68.056 172.302 68.936C173.07 69.8 174.142 70.232 175.518 70.232C176.27 70.232 176.95 70.12 177.558 69.896C178.182 69.672 178.67 69.368 179.022 68.984H179.094V69.296C178.742 69.856 178.222 70.32 177.534 70.688C176.862 71.056 176.078 71.24 175.182 71.24ZM174.606 60.488C173.822 60.488 173.118 60.816 172.494 61.472C171.87 62.112 171.462 63.024 171.27 64.208H177.798C177.638 63.04 177.31 62.128 176.814 61.472C176.318 60.816 175.582 60.488 174.606 60.488ZM181.817 71V70.64L183.329 70.232V61.112L181.577 60.896V60.536L184.169 59.96H184.409L184.529 62.096H184.577C185.201 61.44 185.697 60.96 186.065 60.656C186.433 60.352 186.737 60.16 186.977 60.08C187.217 60 187.489 59.96 187.793 59.96C188.065 59.96 188.313 60.008 188.537 60.104C188.697 60.168 188.809 60.232 188.873 60.296C188.953 60.344 188.993 60.416 188.993 60.512C188.993 60.544 188.985 60.584 188.969 60.632C188.969 60.664 188.961 60.712 188.945 60.776L188.705 61.4H188.657L188.201 61.184C187.977 61.072 187.681 61.016 187.313 61.016C186.849 61.016 186.385 61.144 185.921 61.4C185.457 61.656 184.993 62.104 184.529 62.744V70.232L186.377 70.64V71H181.817ZM201.409 71.24C200.273 71.24 199.313 71 198.529 70.52C197.761 70.04 197.177 69.392 196.777 68.576C196.393 67.76 196.201 66.84 196.201 65.816C196.201 64.728 196.425 63.744 196.873 62.864C197.337 61.984 197.937 61.28 198.673 60.752C199.425 60.224 200.241 59.96 201.121 59.96C202.385 59.96 203.377 60.376 204.097 61.208C204.817 62.04 205.233 63.192 205.345 64.664L205.273 64.736H197.425C197.409 64.976 197.401 65.232 197.401 65.504C197.401 66.912 197.777 68.056 198.529 68.936C199.297 69.8 200.369 70.232 201.745 70.232C202.497 70.232 203.177 70.12 203.785 69.896C204.409 69.672 204.897 69.368 205.249 68.984H205.321V69.296C204.969 69.856 204.449 70.32 203.761 70.688C203.089 71.056 202.305 71.24 201.409 71.24ZM200.833 60.488C200.049 60.488 199.345 60.816 198.721 61.472C198.097 62.112 197.689 63.024 197.497 64.208H204.025C203.865 63.04 203.537 62.128 203.041 61.472C202.545 60.816 201.809 60.488 200.833 60.488ZM207.947 71V70.64L209.459 70.232V61.112L207.707 60.896V60.536L210.299 59.96H210.539L210.635 61.688H210.707C211.299 61.08 211.859 60.64 212.387 60.368C212.915 60.096 213.507 59.96 214.163 59.96C215.171 59.96 215.995 60.24 216.635 60.8C217.291 61.36 217.619 62.176 217.619 63.248V70.232L219.131 70.64V71H214.715V70.64L216.419 70.232V63.896C216.419 62.92 216.155 62.184 215.627 61.688C215.115 61.176 214.435 60.92 213.587 60.92C213.107 60.92 212.587 61.04 212.027 61.28C211.467 61.504 211.011 61.832 210.659 62.264V70.232L212.363 70.64V71H207.947ZM225.576 67.376C225.096 67.376 224.64 67.296 224.208 67.136C223.68 67.36 223.312 67.6 223.104 67.856C222.896 68.112 222.792 68.408 222.792 68.744C222.792 69.288 222.984 69.68 223.368 69.92C223.752 70.16 224.344 70.28 225.144 70.28H227.856C228.8 70.28 229.52 70.504 230.016 70.952C230.528 71.4 230.784 72.016 230.784 72.8C230.784 73.456 230.56 74.088 230.112 74.696C229.664 75.304 229.04 75.8 228.24 76.184C227.44 76.568 226.496 76.76 225.408 76.76C224.016 76.76 223.016 76.48 222.408 75.92C221.8 75.376 221.496 74.704 221.496 73.904C221.496 73.312 221.616 72.8 221.856 72.368L223.32 71.144V71.096C222.28 70.792 221.76 70.16 221.76 69.2C221.76 68.672 221.936 68.232 222.288 67.88L223.704 67.04V66.92C223.128 66.616 222.672 66.184 222.336 65.624C222 65.048 221.832 64.4 221.832 63.68C221.832 62.976 221.992 62.344 222.312 61.784C222.648 61.224 223.096 60.784 223.656 60.464C224.216 60.128 224.856 59.96 225.576 59.96C225.928 59.96 226.312 60.008 226.728 60.104C227.144 60.184 227.472 60.28 227.712 60.392L230.976 60.2V61.184L228.552 61.016L228.504 61.064C228.76 61.336 228.952 61.72 229.08 62.216C229.224 62.696 229.296 63.184 229.296 63.68C229.296 64.384 229.136 65.016 228.816 65.576C228.496 66.136 228.056 66.576 227.496 66.896C226.936 67.216 226.296 67.376 225.576 67.376ZM225.816 66.896C226.504 66.896 227.048 66.624 227.448 66.08C227.864 65.52 228.072 64.736 228.072 63.728C228.072 62.624 227.816 61.8 227.304 61.256C226.792 60.696 226.16 60.416 225.408 60.416C224.672 60.416 224.096 60.704 223.68 61.28C223.264 61.84 223.056 62.616 223.056 63.608C223.056 64.712 223.312 65.536 223.824 66.08C224.352 66.624 225.016 66.896 225.816 66.896ZM222.6 73.64C222.6 74.376 222.904 74.992 223.512 75.488C224.136 75.984 224.896 76.232 225.792 76.232C226.56 76.232 227.24 76.088 227.832 75.8C228.424 75.528 228.888 75.16 229.224 74.696C229.56 74.248 229.728 73.768 229.728 73.256C229.728 72.488 229.528 71.96 229.128 71.672C228.744 71.384 228.048 71.24 227.04 71.24H224.52C224.28 71.24 224.048 71.224 223.824 71.192C223.36 71.464 223.04 71.792 222.864 72.176C222.688 72.576 222.6 73.064 222.6 73.64ZM235.485 56.168C235.229 56.168 235.013 56.08 234.837 55.904C234.661 55.728 234.573 55.512 234.573 55.256C234.573 55 234.661 54.784 234.837 54.608C235.013 54.432 235.229 54.344 235.485 54.344C235.741 54.344 235.957 54.432 236.133 54.608C236.309 54.784 236.397 55 236.397 55.256C236.397 55.512 236.309 55.728 236.133 55.904C235.957 56.08 235.741 56.168 235.485 56.168ZM233.709 71V70.64L235.221 70.232V61.112L233.469 60.656V60.296L236.181 59.96H236.421V70.232L238.125 70.64V71H233.709ZM240.807 71V70.64L242.319 70.232V61.112L240.567 60.896V60.536L243.159 59.96H243.399L243.495 61.688H243.567C244.159 61.08 244.719 60.64 245.247 60.368C245.775 60.096 246.367 59.96 247.023 59.96C248.031 59.96 248.855 60.24 249.495 60.8C250.151 61.36 250.479 62.176 250.479 63.248V70.232L251.991 70.64V71H247.575V70.64L249.279 70.232V63.896C249.279 62.92 249.015 62.184 248.487 61.688C247.975 61.176 247.295 60.92 246.447 60.92C245.967 60.92 245.447 61.04 244.887 61.28C244.327 61.504 243.871 61.832 243.519 62.264V70.232L245.223 70.64V71H240.807ZM259.299 71.24C258.163 71.24 257.203 71 256.419 70.52C255.651 70.04 255.067 69.392 254.667 68.576C254.283 67.76 254.091 66.84 254.091 65.816C254.091 64.728 254.315 63.744 254.763 62.864C255.227 61.984 255.827 61.28 256.563 60.752C257.315 60.224 258.131 59.96 259.011 59.96C260.275 59.96 261.267 60.376 261.987 61.208C262.707 62.04 263.123 63.192 263.235 64.664L263.163 64.736H255.315C255.299 64.976 255.291 65.232 255.291 65.504C255.291 66.912 255.667 68.056 256.419 68.936C257.187 69.8 258.259 70.232 259.635 70.232C260.387 70.232 261.067 70.12 261.675 69.896C262.299 69.672 262.787 69.368 263.139 68.984H263.211V69.296C262.859 69.856 262.339 70.32 261.651 70.688C260.979 71.056 260.195 71.24 259.299 71.24ZM258.723 60.488C257.939 60.488 257.235 60.816 256.611 61.472C255.987 62.112 255.579 63.024 255.387 64.208H261.915C261.755 63.04 261.427 62.128 260.931 61.472C260.435 60.816 259.699 60.488 258.723 60.488ZM271.088 71.24C269.952 71.24 268.992 71 268.208 70.52C267.44 70.04 266.856 69.392 266.456 68.576C266.072 67.76 265.88 66.84 265.88 65.816C265.88 64.728 266.104 63.744 266.552 62.864C267.016 61.984 267.616 61.28 268.352 60.752C269.104 60.224 269.92 59.96 270.8 59.96C272.064 59.96 273.056 60.376 273.776 61.208C274.496 62.04 274.912 63.192 275.024 64.664L274.952 64.736H267.104C267.088 64.976 267.08 65.232 267.08 65.504C267.08 66.912 267.456 68.056 268.208 68.936C268.976 69.8 270.048 70.232 271.424 70.232C272.176 70.232 272.856 70.12 273.464 69.896C274.088 69.672 274.576 69.368 274.928 68.984H275V69.296C274.648 69.856 274.128 70.32 273.44 70.688C272.768 71.056 271.984 71.24 271.088 71.24ZM270.512 60.488C269.728 60.488 269.024 60.816 268.4 61.472C267.776 62.112 267.368 63.024 267.176 64.208H273.704C273.544 63.04 273.216 62.128 272.72 61.472C272.224 60.816 271.488 60.488 270.512 60.488ZM277.723 71V70.64L279.235 70.232V61.112L277.483 60.896V60.536L280.075 59.96H280.315L280.435 62.096H280.483C281.107 61.44 281.603 60.96 281.971 60.656C282.339 60.352 282.643 60.16 282.883 60.08C283.123 60 283.395 59.96 283.699 59.96C283.971 59.96 284.219 60.008 284.443 60.104C284.603 60.168 284.715 60.232 284.779 60.296C284.859 60.344 284.899 60.416 284.899 60.512C284.899 60.544 284.891 60.584 284.875 60.632C284.875 60.664 284.867 60.712 284.851 60.776L284.611 61.4H284.563L284.107 61.184C283.883 61.072 283.587 61.016 283.219 61.016C282.755 61.016 282.291 61.144 281.827 61.4C281.363 61.656 280.899 62.104 280.435 62.744V70.232L282.283 70.64V71H277.723ZM292.395 71V70.64L293.907 70.232V61.112L292.155 60.896V60.536L294.747 59.96H294.987L295.107 62.096H295.155C295.779 61.44 296.275 60.96 296.643 60.656C297.011 60.352 297.315 60.16 297.555 60.08C297.795 60 298.067 59.96 298.371 59.96C298.643 59.96 298.891 60.008 299.115 60.104C299.275 60.168 299.387 60.232 299.451 60.296C299.531 60.344 299.571 60.416 299.571 60.512C299.571 60.544 299.563 60.584 299.547 60.632C299.547 60.664 299.539 60.712 299.523 60.776L299.283 61.4H299.235L298.779 61.184C298.555 61.072 298.259 61.016 297.891 61.016C297.427 61.016 296.963 61.144 296.499 61.4C296.035 61.656 295.571 62.104 295.107 62.744V70.232L296.955 70.64V71H292.395ZM305.987 71.24C304.851 71.24 303.891 71 303.107 70.52C302.339 70.04 301.755 69.392 301.355 68.576C300.971 67.76 300.779 66.84 300.779 65.816C300.779 64.728 301.003 63.744 301.451 62.864C301.915 61.984 302.515 61.28 303.251 60.752C304.003 60.224 304.819 59.96 305.699 59.96C306.963 59.96 307.955 60.376 308.675 61.208C309.395 62.04 309.811 63.192 309.923 64.664L309.851 64.736H302.003C301.987 64.976 301.979 65.232 301.979 65.504C301.979 66.912 302.355 68.056 303.107 68.936C303.875 69.8 304.947 70.232 306.323 70.232C307.075 70.232 307.755 70.12 308.363 69.896C308.987 69.672 309.475 69.368 309.827 68.984H309.899V69.296C309.547 69.856 309.027 70.32 308.339 70.688C307.667 71.056 306.883 71.24 305.987 71.24ZM305.411 60.488C304.627 60.488 303.923 60.816 303.299 61.472C302.675 62.112 302.267 63.024 302.075 64.208H308.603C308.443 63.04 308.115 62.128 307.619 61.472C307.123 60.816 306.387 60.488 305.411 60.488ZM315.502 71.24C314.942 71.24 314.438 71.176 313.99 71.048C313.558 70.936 313.11 70.768 312.646 70.544V68.048H312.934L313.27 69.128C313.414 69.608 313.678 69.992 314.062 70.28C314.446 70.552 314.99 70.688 315.694 70.688C316.462 70.688 317.054 70.504 317.47 70.136C317.902 69.752 318.118 69.208 318.118 68.504C318.118 67.88 317.95 67.392 317.614 67.04C317.278 66.672 316.654 66.304 315.742 65.936C314.782 65.552 314.07 65.136 313.606 64.688C313.158 64.24 312.934 63.6 312.934 62.768C312.934 62.256 313.07 61.792 313.342 61.376C313.63 60.944 314.006 60.6 314.47 60.344C314.934 60.088 315.43 59.96 315.958 59.96C316.55 59.96 317.078 60.032 317.542 60.176C318.006 60.304 318.406 60.456 318.742 60.632V63.08H318.454L318.142 62.048C317.982 61.488 317.678 61.088 317.23 60.848C316.798 60.608 316.358 60.488 315.91 60.488C315.286 60.488 314.806 60.672 314.47 61.04C314.15 61.408 313.99 61.888 313.99 62.48C313.99 63.072 314.166 63.536 314.518 63.872C314.87 64.208 315.438 64.536 316.222 64.856C316.926 65.144 317.494 65.424 317.926 65.696C318.374 65.968 318.702 66.304 318.91 66.704C319.118 67.088 319.222 67.584 319.222 68.192C319.222 68.736 319.07 69.24 318.766 69.704C318.462 70.168 318.03 70.544 317.47 70.832C316.91 71.104 316.254 71.24 315.502 71.24ZM327.268 71.24C326.132 71.24 325.172 71 324.388 70.52C323.62 70.04 323.036 69.392 322.636 68.576C322.252 67.76 322.06 66.84 322.06 65.816C322.06 64.728 322.284 63.744 322.732 62.864C323.196 61.984 323.796 61.28 324.532 60.752C325.284 60.224 326.1 59.96 326.98 59.96C328.244 59.96 329.236 60.376 329.956 61.208C330.676 62.04 331.092 63.192 331.204 64.664L331.132 64.736H323.284C323.268 64.976 323.26 65.232 323.26 65.504C323.26 66.912 323.636 68.056 324.388 68.936C325.156 69.8 326.228 70.232 327.604 70.232C328.356 70.232 329.036 70.12 329.644 69.896C330.268 69.672 330.756 69.368 331.108 68.984H331.18V69.296C330.828 69.856 330.308 70.32 329.62 70.688C328.948 71.056 328.164 71.24 327.268 71.24ZM326.692 60.488C325.908 60.488 325.204 60.816 324.58 61.472C323.956 62.112 323.548 63.024 323.356 64.208H329.884C329.724 63.04 329.396 62.128 328.9 61.472C328.404 60.816 327.668 60.488 326.692 60.488ZM336.159 71.24C335.423 71.24 334.807 71.024 334.311 70.592C333.815 70.144 333.567 69.528 333.567 68.744C333.567 67.976 333.839 67.336 334.383 66.824C334.943 66.312 335.863 65.896 337.143 65.576L339.495 64.976V62.984C339.495 62.296 339.247 61.744 338.751 61.328C338.255 60.896 337.687 60.68 337.047 60.68C336.359 60.68 335.871 60.824 335.583 61.112C335.311 61.384 335.175 61.76 335.175 62.24V63.224L335.055 63.344H334.431C334.175 63.344 334.007 63.304 333.927 63.224C333.847 63.144 333.807 62.992 333.807 62.768C333.807 62.464 333.911 62.152 334.119 61.832C334.327 61.512 334.631 61.224 335.031 60.968C335.463 60.696 335.895 60.464 336.327 60.272C336.775 60.064 337.199 59.96 337.599 59.96C338.559 59.96 339.311 60.176 339.855 60.608C340.415 61.024 340.695 61.68 340.695 62.576V70.04C340.823 70.152 340.967 70.24 341.127 70.304C341.303 70.368 341.503 70.4 341.727 70.4H342.975L342.999 70.424V70.472C342.887 70.632 342.703 70.8 342.447 70.976C342.191 71.152 341.847 71.24 341.415 71.24C340.855 71.24 340.423 71.096 340.119 70.808C339.815 70.52 339.631 70.184 339.567 69.8H339.519C339.103 70.216 338.599 70.56 338.007 70.832C337.431 71.104 336.815 71.24 336.159 71.24ZM334.767 68.312C334.767 68.968 334.951 69.464 335.319 69.8C335.687 70.12 336.207 70.28 336.879 70.28C337.279 70.28 337.711 70.224 338.175 70.112C338.639 69.984 339.079 69.792 339.495 69.536V65.48C338.167 65.752 337.159 66.024 336.471 66.296C335.799 66.568 335.343 66.864 335.103 67.184C334.879 67.504 334.767 67.88 334.767 68.312ZM344.754 71V70.64L346.266 70.232V61.112L344.514 60.896V60.536L347.106 59.96H347.346L347.466 62.096H347.514C348.138 61.44 348.634 60.96 349.002 60.656C349.37 60.352 349.674 60.16 349.914 60.08C350.154 60 350.426 59.96 350.73 59.96C351.002 59.96 351.25 60.008 351.474 60.104C351.634 60.168 351.746 60.232 351.81 60.296C351.89 60.344 351.93 60.416 351.93 60.512C351.93 60.544 351.922 60.584 351.906 60.632C351.906 60.664 351.898 60.712 351.882 60.776L351.642 61.4H351.594L351.138 61.184C350.914 61.072 350.618 61.016 350.25 61.016C349.786 61.016 349.322 61.144 348.858 61.4C348.394 61.656 347.93 62.104 347.466 62.744V70.232L349.314 70.64V71H344.754ZM358.274 71.24C357.154 71.24 356.21 71 355.442 70.52C354.69 70.04 354.114 69.392 353.714 68.576C353.33 67.76 353.138 66.84 353.138 65.816C353.138 64.696 353.362 63.696 353.81 62.816C354.274 61.92 354.906 61.224 355.706 60.728C356.522 60.216 357.442 59.96 358.466 59.96C359.106 59.96 359.674 60.048 360.17 60.224C360.666 60.4 361.066 60.592 361.37 60.8C361.882 61.152 362.138 61.456 362.138 61.712C362.138 61.824 362.082 61.928 361.97 62.024L361.322 62.576H361.226L360.914 62.144C360.562 61.664 360.178 61.272 359.762 60.968C359.362 60.648 358.842 60.488 358.202 60.488C357.082 60.488 356.154 60.912 355.418 61.76C354.698 62.592 354.338 63.84 354.338 65.504C354.338 66.912 354.706 68.056 355.442 68.936C356.194 69.8 357.25 70.232 358.61 70.232C359.346 70.232 360.026 70.12 360.65 69.896C361.274 69.672 361.762 69.368 362.114 68.984H362.186V69.296C361.818 69.856 361.298 70.32 360.626 70.688C359.954 71.056 359.17 71.24 358.274 71.24ZM364.651 71V70.64L366.163 70.232V54.152L364.411 53.696V53.336L367.123 53H367.363V61.688H367.411C368.003 61.08 368.563 60.64 369.091 60.368C369.619 60.096 370.211 59.96 370.867 59.96C371.875 59.96 372.699 60.24 373.339 60.8C373.995 61.36 374.323 62.176 374.323 63.248V70.232L375.835 70.64V71H371.419V70.64L373.123 70.232V63.896C373.123 62.92 372.859 62.184 372.331 61.688C371.819 61.176 371.139 60.92 370.291 60.92C369.811 60.92 369.291 61.04 368.731 61.28C368.171 61.504 367.715 61.832 367.363 62.264V70.232L369.067 70.64V71H364.651ZM383.143 71.24C382.007 71.24 381.047 71 380.263 70.52C379.495 70.04 378.911 69.392 378.511 68.576C378.127 67.76 377.935 66.84 377.935 65.816C377.935 64.728 378.159 63.744 378.607 62.864C379.071 61.984 379.671 61.28 380.407 60.752C381.159 60.224 381.975 59.96 382.855 59.96C384.119 59.96 385.111 60.376 385.831 61.208C386.551 62.04 386.967 63.192 387.079 64.664L387.007 64.736H379.159C379.143 64.976 379.135 65.232 379.135 65.504C379.135 66.912 379.511 68.056 380.263 68.936C381.031 69.8 382.103 70.232 383.479 70.232C384.231 70.232 384.911 70.12 385.519 69.896C386.143 69.672 386.631 69.368 386.983 68.984H387.055V69.296C386.703 69.856 386.183 70.32 385.495 70.688C384.823 71.056 384.039 71.24 383.143 71.24ZM382.567 60.488C381.783 60.488 381.079 60.816 380.455 61.472C379.831 62.112 379.423 63.024 379.231 64.208H385.759C385.599 63.04 385.271 62.128 384.775 61.472C384.279 60.816 383.543 60.488 382.567 60.488ZM389.778 71V70.64L391.29 70.232V61.112L389.538 60.896V60.536L392.13 59.96H392.37L392.49 62.096H392.538C393.162 61.44 393.658 60.96 394.026 60.656C394.394 60.352 394.698 60.16 394.938 60.08C395.178 60 395.45 59.96 395.754 59.96C396.026 59.96 396.274 60.008 396.498 60.104C396.658 60.168 396.77 60.232 396.834 60.296C396.914 60.344 396.954 60.416 396.954 60.512C396.954 60.544 396.946 60.584 396.93 60.632C396.93 60.664 396.922 60.712 396.906 60.776L396.666 61.4H396.618L396.162 61.184C395.938 61.072 395.642 61.016 395.274 61.016C394.81 61.016 394.346 61.144 393.882 61.4C393.418 61.656 392.954 62.104 392.49 62.744V70.232L394.338 70.64V71H389.778Z" fill="#BABCBE"/>
<path d="M407.33 71.24C406.77 71.24 406.266 71.176 405.818 71.048C405.386 70.936 404.938 70.768 404.474 70.544V68.048H404.762L405.098 69.128C405.242 69.608 405.506 69.992 405.89 70.28C406.274 70.552 406.818 70.688 407.522 70.688C408.29 70.688 408.882 70.504 409.298 70.136C409.73 69.752 409.946 69.208 409.946 68.504C409.946 67.88 409.778 67.392 409.442 67.04C409.106 66.672 408.482 66.304 407.57 65.936C406.61 65.552 405.898 65.136 405.434 64.688C404.986 64.24 404.762 63.6 404.762 62.768C404.762 62.256 404.898 61.792 405.17 61.376C405.458 60.944 405.834 60.6 406.298 60.344C406.762 60.088 407.258 59.96 407.786 59.96C408.378 59.96 408.906 60.032 409.37 60.176C409.834 60.304 410.234 60.456 410.57 60.632V63.08H410.282L409.97 62.048C409.81 61.488 409.506 61.088 409.058 60.848C408.626 60.608 408.186 60.488 407.738 60.488C407.114 60.488 406.634 60.672 406.298 61.04C405.978 61.408 405.818 61.888 405.818 62.48C405.818 63.072 405.994 63.536 406.346 63.872C406.698 64.208 407.266 64.536 408.05 64.856C408.754 65.144 409.322 65.424 409.754 65.696C410.202 65.968 410.53 66.304 410.738 66.704C410.946 67.088 411.05 67.584 411.05 68.192C411.05 68.736 410.898 69.24 410.594 69.704C410.29 70.168 409.858 70.544 409.298 70.832C408.738 71.104 408.082 71.24 407.33 71.24ZM419.288 71.24C418.168 71.24 417.224 71 416.456 70.52C415.704 70.04 415.128 69.392 414.728 68.576C414.344 67.76 414.152 66.84 414.152 65.816C414.152 64.696 414.376 63.696 414.824 62.816C415.288 61.92 415.92 61.224 416.72 60.728C417.536 60.216 418.456 59.96 419.48 59.96C420.12 59.96 420.688 60.048 421.184 60.224C421.68 60.4 422.08 60.592 422.384 60.8C422.896 61.152 423.152 61.456 423.152 61.712C423.152 61.824 423.096 61.928 422.984 62.024L422.336 62.576H422.24L421.928 62.144C421.576 61.664 421.192 61.272 420.776 60.968C420.376 60.648 419.856 60.488 419.216 60.488C418.096 60.488 417.168 60.912 416.432 61.76C415.712 62.592 415.352 63.84 415.352 65.504C415.352 66.912 415.72 68.056 416.456 68.936C417.208 69.8 418.264 70.232 419.624 70.232C420.36 70.232 421.04 70.12 421.664 69.896C422.288 69.672 422.776 69.368 423.128 68.984H423.2V69.296C422.832 69.856 422.312 70.32 421.64 70.688C420.968 71.056 420.184 71.24 419.288 71.24ZM427.849 56.168C427.593 56.168 427.377 56.08 427.201 55.904C427.025 55.728 426.937 55.512 426.937 55.256C426.937 55 427.025 54.784 427.201 54.608C427.377 54.432 427.593 54.344 427.849 54.344C428.105 54.344 428.321 54.432 428.497 54.608C428.673 54.784 428.761 55 428.761 55.256C428.761 55.512 428.673 55.728 428.497 55.904C428.321 56.08 428.105 56.168 427.849 56.168ZM426.073 71V70.64L427.585 70.232V61.112L425.833 60.656V60.296L428.545 59.96H428.785V70.232L430.489 70.64V71H426.073ZM438.451 71.24C437.315 71.24 436.355 71 435.571 70.52C434.803 70.04 434.219 69.392 433.819 68.576C433.435 67.76 433.243 66.84 433.243 65.816C433.243 64.728 433.467 63.744 433.915 62.864C434.379 61.984 434.979 61.28 435.715 60.752C436.467 60.224 437.283 59.96 438.163 59.96C439.427 59.96 440.419 60.376 441.139 61.208C441.859 62.04 442.275 63.192 442.387 64.664L442.315 64.736H434.467C434.451 64.976 434.443 65.232 434.443 65.504C434.443 66.912 434.819 68.056 435.571 68.936C436.339 69.8 437.411 70.232 438.787 70.232C439.539 70.232 440.219 70.12 440.827 69.896C441.451 69.672 441.939 69.368 442.291 68.984H442.363V69.296C442.011 69.856 441.491 70.32 440.803 70.688C440.131 71.056 439.347 71.24 438.451 71.24ZM437.875 60.488C437.091 60.488 436.387 60.816 435.763 61.472C435.139 62.112 434.731 63.024 434.539 64.208H441.067C440.907 63.04 440.579 62.128 440.083 61.472C439.587 60.816 438.851 60.488 437.875 60.488ZM445.253 71V70.64L446.765 70.232V61.112L445.013 60.896V60.536L447.605 59.96H447.845L447.941 61.688H448.013C448.605 61.08 449.165 60.64 449.693 60.368C450.221 60.096 450.813 59.96 451.469 59.96C452.477 59.96 453.301 60.24 453.941 60.8C454.597 61.36 454.925 62.176 454.925 63.248V70.232L456.437 70.64V71H452.021V70.64L453.725 70.232V63.896C453.725 62.92 453.461 62.184 452.933 61.688C452.421 61.176 451.741 60.92 450.893 60.92C450.413 60.92 449.893 61.04 449.333 61.28C448.773 61.504 448.317 61.832 447.965 62.264V70.232L449.669 70.64V71H445.253ZM462.354 71.24C461.698 71.24 461.162 71.032 460.746 70.616C460.346 70.2 460.146 69.616 460.146 68.864V61.016H458.034V60.8L460.29 60.2L461.082 57.56H461.346V60.2H464.514V61.016H461.346V68.816C461.346 69.312 461.498 69.688 461.802 69.944C462.106 70.184 462.506 70.304 463.002 70.304C463.354 70.304 463.674 70.264 463.962 70.184C464.25 70.104 464.522 69.992 464.778 69.848L464.802 69.872V69.968C464.674 70.24 464.402 70.52 463.986 70.808C463.57 71.096 463.026 71.24 462.354 71.24ZM469.1 56.168C468.844 56.168 468.628 56.08 468.452 55.904C468.276 55.728 468.188 55.512 468.188 55.256C468.188 55 468.276 54.784 468.452 54.608C468.628 54.432 468.844 54.344 469.1 54.344C469.356 54.344 469.572 54.432 469.748 54.608C469.924 54.784 470.012 55 470.012 55.256C470.012 55.512 469.924 55.728 469.748 55.904C469.572 56.08 469.356 56.168 469.1 56.168ZM467.324 71V70.64L468.836 70.232V61.112L467.084 60.656V60.296L469.796 59.96H470.036V70.232L471.74 70.64V71H467.324ZM477.662 71.24C477.102 71.24 476.598 71.176 476.15 71.048C475.718 70.936 475.27 70.768 474.806 70.544V68.048H475.094L475.43 69.128C475.574 69.608 475.838 69.992 476.222 70.28C476.606 70.552 477.15 70.688 477.854 70.688C478.622 70.688 479.214 70.504 479.63 70.136C480.062 69.752 480.278 69.208 480.278 68.504C480.278 67.88 480.11 67.392 479.774 67.04C479.438 66.672 478.814 66.304 477.902 65.936C476.942 65.552 476.23 65.136 475.766 64.688C475.318 64.24 475.094 63.6 475.094 62.768C475.094 62.256 475.23 61.792 475.502 61.376C475.79 60.944 476.166 60.6 476.63 60.344C477.094 60.088 477.59 59.96 478.118 59.96C478.71 59.96 479.238 60.032 479.702 60.176C480.166 60.304 480.566 60.456 480.902 60.632V63.08H480.614L480.302 62.048C480.142 61.488 479.838 61.088 479.39 60.848C478.958 60.608 478.518 60.488 478.07 60.488C477.446 60.488 476.966 60.672 476.63 61.04C476.31 61.408 476.15 61.888 476.15 62.48C476.15 63.072 476.326 63.536 476.678 63.872C477.03 64.208 477.598 64.536 478.382 64.856C479.086 65.144 479.654 65.424 480.086 65.696C480.534 65.968 480.862 66.304 481.07 66.704C481.278 67.088 481.382 67.584 481.382 68.192C481.382 68.736 481.23 69.24 480.926 69.704C480.622 70.168 480.19 70.544 479.63 70.832C479.07 71.104 478.414 71.24 477.662 71.24ZM488.037 71.24C487.381 71.24 486.845 71.032 486.429 70.616C486.029 70.2 485.829 69.616 485.829 68.864V61.016H483.717V60.8L485.973 60.2L486.765 57.56H487.029V60.2H490.197V61.016H487.029V68.816C487.029 69.312 487.181 69.688 487.485 69.944C487.789 70.184 488.189 70.304 488.685 70.304C489.037 70.304 489.357 70.264 489.645 70.184C489.933 70.104 490.205 69.992 490.461 69.848L490.485 69.872V69.968C490.357 70.24 490.085 70.52 489.669 70.808C489.253 71.096 488.709 71.24 488.037 71.24Z" fill="#F4B400"/>
<path d="M101.579 64.76H188.993V65.48H101.579V64.76ZM195.001 64.76H284.899V65.48H195.001V64.76ZM290.907 64.76H396.954V65.48H290.907V64.76Z" fill="#BABCBE"/>
<ellipse cx="430.209" cy="83.1436" rx="3.7907" ry="4.14359" fill="#4285F4"/>
<ellipse cx="415.994" cy="276.856" rx="3.7907" ry="4.14359" fill="#4285F4"/>
<path d="M430.683 82.6257C301.041 196.16 366.873 259.419 415.994 276.857" stroke="#4285F4" stroke-width="1.1"/>
<circle cx="4" cy="4" r="4" transform="matrix(-1 0 0 1 223 273)" fill="#0F9D58"/>
<circle cx="4" cy="4" r="4" transform="matrix(-1 0 0 1 457 79)" fill="#0F9D58"/>
<path d="M453.5 83C372.3 239.8 261.667 278 216.5 277.5" stroke="#0F9D58" stroke-width="1.1"/>
<path d="M35.5146 14.8751C-22.5869 37.4082 15.4451 61.8727 41.7238 71.2883" stroke="#F4B400" stroke-width="1.1"/>
<circle cx="4" cy="4" r="4" transform="matrix(-0.990268 -0.139173 -0.139173 0.990268 46.2416 67.8839)" fill="#F4B400"/>
<circle cx="4" cy="4" r="4" transform="matrix(-0.990268 -0.139173 -0.139173 0.990268 41.0226 11.6099)" fill="#F4B400"/>
<path d="M513.215 14.8751C571.317 37.4082 533.285 61.8727 507.006 71.2883" stroke="white" stroke-width="1.1"/>
<circle cx="507.006" cy="71.2883" r="4" transform="rotate(-8 507.006 71.2883)" fill="white"/>
<circle cx="512.225" cy="15.0142" r="4" transform="rotate(-8 512.225 15.0142)" fill="white"/>
</svg>
