<svg width="2137" height="623" viewBox="0 0 2137 623" fill="none" xmlns="http://www.w3.org/2000/svg">
<rect x="0.000244141" width="2137" height="340" rx="8" fill="#424242" fill-opacity="0.64"/>
<path d="M315.503 140V138.68L321.047 137.184V103.392H313.303V100.4H321.047V96.88C321.047 94.5333 321.428 92.04 322.191 89.4C323.012 86.76 324.186 84.2667 325.711 81.92C327.295 79.5733 329.26 77.6667 331.607 76.2C333.954 74.7333 336.682 74 339.791 74C340.554 74 341.228 74.1173 341.815 74.352C342.754 74.7627 343.223 75.232 343.223 75.76C343.223 76.112 343.135 76.4933 342.959 76.904L341.991 79.28H341.815L339.967 78.664C338.148 78.0773 336.388 77.784 334.687 77.784C331.695 77.784 329.407 79.016 327.823 81.48C326.239 83.944 325.447 87.904 325.447 93.36V100.4H337.063V103.392H325.447V137.184L332.223 138.68V140H315.503ZM379.398 140V138.68L384.942 137.184V103.744L378.518 102.952V101.632L388.022 99.52H388.902L389.342 107.352H389.518C391.806 104.947 393.625 103.187 394.974 102.072C396.323 100.957 397.438 100.253 398.318 99.96C399.198 99.6667 400.195 99.52 401.31 99.52C402.307 99.52 403.217 99.696 404.038 100.048C404.625 100.283 405.035 100.517 405.27 100.752C405.563 100.928 405.71 101.192 405.71 101.544C405.71 101.661 405.681 101.808 405.622 101.984C405.622 102.101 405.593 102.277 405.534 102.512L404.654 104.8H404.478L402.806 104.008C401.985 103.597 400.899 103.392 399.55 103.392C397.849 103.392 396.147 103.861 394.446 104.8C392.745 105.739 391.043 107.381 389.342 109.728V137.184L396.118 138.68V140H379.398ZM445.603 153.2V74.88H459.859V76.464H448.683V151.616H459.859V153.2H445.603ZM481.284 140.88C478.585 140.88 476.327 140.088 474.508 138.504C472.689 136.861 471.78 134.603 471.78 131.728C471.78 128.912 472.777 126.565 474.772 124.688C476.825 122.811 480.199 121.285 484.892 120.112L493.516 117.912V110.608C493.516 108.085 492.607 106.061 490.788 104.536C488.969 102.952 486.887 102.16 484.54 102.16C482.017 102.16 480.228 102.688 479.172 103.744C478.175 104.741 477.676 106.12 477.676 107.88V111.488L477.236 111.928H474.948C474.009 111.928 473.393 111.781 473.1 111.488C472.807 111.195 472.66 110.637 472.66 109.816C472.66 108.701 473.041 107.557 473.804 106.384C474.567 105.211 475.681 104.155 477.148 103.216C478.732 102.219 480.316 101.368 481.9 100.664C483.543 99.9013 485.097 99.52 486.564 99.52C490.084 99.52 492.841 100.312 494.836 101.896C496.889 103.421 497.916 105.827 497.916 109.112V136.48C498.385 136.891 498.913 137.213 499.5 137.448C500.145 137.683 500.879 137.8 501.7 137.8H506.276L506.364 137.888V138.064C505.953 138.651 505.279 139.267 504.34 139.912C503.401 140.557 502.14 140.88 500.556 140.88C498.503 140.88 496.919 140.352 495.804 139.296C494.689 138.24 494.015 137.008 493.78 135.6H493.604C492.079 137.125 490.231 138.387 488.06 139.384C485.948 140.381 483.689 140.88 481.284 140.88ZM476.18 130.144C476.18 132.549 476.855 134.368 478.204 135.6C479.553 136.773 481.46 137.36 483.924 137.36C485.391 137.36 486.975 137.155 488.676 136.744C490.377 136.275 491.991 135.571 493.516 134.632V119.76C488.647 120.757 484.951 121.755 482.428 122.752C479.964 123.749 478.292 124.835 477.412 126.008C476.591 127.181 476.18 128.56 476.18 130.144ZM515.001 153.2V151.616H526.177V76.464H515.001V74.88H529.257V153.2H515.001ZM574.266 140V138.68L579.81 137.184V103.744L573.386 102.952V101.632L582.89 99.52H583.77L584.122 105.856H584.386C586.557 103.627 588.61 102.013 590.546 101.016C592.482 100.019 594.653 99.52 597.058 99.52C600.754 99.52 603.776 100.547 606.122 102.6C608.528 104.653 609.73 107.645 609.73 111.576V137.184L615.274 138.68V140H599.082V138.68L605.33 137.184V113.952C605.33 110.373 604.362 107.675 602.426 105.856C600.549 103.979 598.056 103.04 594.946 103.04C593.186 103.04 591.28 103.48 589.226 104.36C587.173 105.181 585.501 106.384 584.21 107.968V137.184L590.458 138.68V140H574.266ZM676.833 140.88C672.726 140.88 669.265 140 666.449 138.24C663.691 136.48 661.579 134.104 660.113 131.112C658.705 128.12 658.001 124.747 658.001 120.992C658.001 116.885 658.822 113.219 660.465 109.992C662.166 106.707 664.483 104.155 667.417 102.336C670.409 100.459 673.782 99.52 677.537 99.52C679.883 99.52 681.966 99.8427 683.785 100.488C685.603 101.133 687.07 101.837 688.185 102.6C690.062 103.891 691.001 105.005 691.001 105.944C691.001 106.355 690.795 106.736 690.385 107.088L688.009 109.112H687.657L686.513 107.528C685.222 105.768 683.814 104.331 682.289 103.216C680.822 102.043 678.915 101.456 676.569 101.456C672.462 101.456 669.059 103.011 666.361 106.12C663.721 109.171 662.401 113.747 662.401 119.848C662.401 125.011 663.75 129.205 666.449 132.432C669.206 135.6 673.078 137.184 678.065 137.184C680.763 137.184 683.257 136.773 685.545 135.952C687.833 135.131 689.622 134.016 690.913 132.608H691.177V133.752C689.827 135.805 687.921 137.507 685.457 138.856C682.993 140.205 680.118 140.88 676.833 140.88ZM734.972 153.2V74.88H749.228V76.464H738.052V151.616H749.228V153.2H734.972ZM769.07 85.616C768.131 85.616 767.339 85.2933 766.694 84.648C766.048 84.0027 765.726 83.2107 765.726 82.272C765.726 81.3333 766.048 80.5413 766.694 79.896C767.339 79.2507 768.131 78.928 769.07 78.928C770.008 78.928 770.8 79.2507 771.446 79.896C772.091 80.5413 772.414 81.3333 772.414 82.272C772.414 83.2107 772.091 84.0027 771.446 84.648C770.8 85.2933 770.008 85.616 769.07 85.616ZM762.558 140V138.68L768.102 137.184V103.744L761.678 102.072V100.752L771.622 99.52H772.502V137.184L778.75 138.68V140H762.558ZM791.136 153.2V151.616H802.312V76.464H791.136V74.88H805.392V153.2H791.136ZM861.314 140.88C859.26 140.88 857.412 140.645 855.77 140.176C854.186 139.765 852.543 139.149 850.842 138.328V129.176H851.898L853.13 133.136C853.658 134.896 854.626 136.304 856.034 137.36C857.442 138.357 859.436 138.856 862.018 138.856C864.834 138.856 867.004 138.181 868.53 136.832C870.114 135.424 870.906 133.429 870.906 130.848C870.906 128.56 870.29 126.771 869.058 125.48C867.826 124.131 865.538 122.781 862.194 121.432C858.674 120.024 856.063 118.499 854.362 116.856C852.719 115.213 851.898 112.867 851.898 109.816C851.898 107.939 852.396 106.237 853.394 104.712C854.45 103.128 855.828 101.867 857.53 100.928C859.231 99.9893 861.05 99.52 862.986 99.52C865.156 99.52 867.092 99.784 868.794 100.312C870.495 100.781 871.962 101.339 873.194 101.984V110.96H872.138L870.994 107.176C870.407 105.123 869.292 103.656 867.65 102.776C866.066 101.896 864.452 101.456 862.81 101.456C860.522 101.456 858.762 102.131 857.53 103.48C856.356 104.829 855.77 106.589 855.77 108.76C855.77 110.931 856.415 112.632 857.706 113.864C858.996 115.096 861.079 116.299 863.954 117.472C866.535 118.528 868.618 119.555 870.202 120.552C871.844 121.549 873.047 122.781 873.81 124.248C874.572 125.656 874.954 127.475 874.954 129.704C874.954 131.699 874.396 133.547 873.282 135.248C872.167 136.949 870.583 138.328 868.53 139.384C866.476 140.381 864.071 140.88 861.314 140.88ZM920.826 153.2V74.88H935.082V76.464H923.906V151.616H935.082V153.2H920.826ZM937.411 153.2V151.616H948.587V76.464H937.411V74.88H951.667V153.2H937.411ZM1008.29 140.88C1004.19 140.88 1000.72 140 997.908 138.24C995.151 136.48 993.039 134.104 991.572 131.112C990.164 128.12 989.46 124.747 989.46 120.992C989.46 116.885 990.281 113.219 991.924 109.992C993.625 106.707 995.943 104.155 998.876 102.336C1001.87 100.459 1005.24 99.52 1009 99.52C1011.34 99.52 1013.43 99.8427 1015.24 100.488C1017.06 101.133 1018.53 101.837 1019.64 102.6C1021.52 103.891 1022.46 105.005 1022.46 105.944C1022.46 106.355 1022.25 106.736 1021.84 107.088L1019.47 109.112H1019.12L1017.97 107.528C1016.68 105.768 1015.27 104.331 1013.75 103.216C1012.28 102.043 1010.37 101.456 1008.03 101.456C1003.92 101.456 1000.52 103.011 997.82 106.12C995.18 109.171 993.86 113.747 993.86 119.848C993.86 125.011 995.209 129.205 997.908 132.432C1000.67 135.6 1004.54 137.184 1009.52 137.184C1012.22 137.184 1014.72 136.773 1017 135.952C1019.29 135.131 1021.08 134.016 1022.37 132.608H1022.64V133.752C1021.29 135.805 1019.38 137.507 1016.92 138.856C1014.45 140.205 1011.58 140.88 1008.29 140.88ZM1066.43 153.2V74.88H1080.69V76.464H1069.51V151.616H1080.69V153.2H1066.43ZM1102.11 140.88C1099.41 140.88 1097.16 140.088 1095.34 138.504C1093.52 136.861 1092.61 134.603 1092.61 131.728C1092.61 128.912 1093.61 126.565 1095.6 124.688C1097.65 122.811 1101.03 121.285 1105.72 120.112L1114.35 117.912V110.608C1114.35 108.085 1113.44 106.061 1111.62 104.536C1109.8 102.952 1107.72 102.16 1105.37 102.16C1102.85 102.16 1101.06 102.688 1100 103.744C1099 104.741 1098.51 106.12 1098.51 107.88V111.488L1098.07 111.928H1095.78C1094.84 111.928 1094.22 111.781 1093.93 111.488C1093.64 111.195 1093.49 110.637 1093.49 109.816C1093.49 108.701 1093.87 107.557 1094.63 106.384C1095.4 105.211 1096.51 104.155 1097.98 103.216C1099.56 102.219 1101.15 101.368 1102.73 100.664C1104.37 99.9013 1105.93 99.52 1107.39 99.52C1110.91 99.52 1113.67 100.312 1115.67 101.896C1117.72 103.421 1118.75 105.827 1118.75 109.112V136.48C1119.21 136.891 1119.74 137.213 1120.33 137.448C1120.97 137.683 1121.71 137.8 1122.53 137.8H1127.11L1127.19 137.888V138.064C1126.78 138.651 1126.11 139.267 1125.17 139.912C1124.23 140.557 1122.97 140.88 1121.39 140.88C1119.33 140.88 1117.75 140.352 1116.63 139.296C1115.52 138.24 1114.84 137.008 1114.61 135.6H1114.43C1112.91 137.125 1111.06 138.387 1108.89 139.384C1106.78 140.381 1104.52 140.88 1102.11 140.88ZM1097.01 130.144C1097.01 132.549 1097.68 134.368 1099.03 135.6C1100.38 136.773 1102.29 137.36 1104.75 137.36C1106.22 137.36 1107.8 137.155 1109.51 136.744C1111.21 136.275 1112.82 135.571 1114.35 134.632V119.76C1109.48 120.757 1105.78 121.755 1103.26 122.752C1100.79 123.749 1099.12 124.835 1098.24 126.008C1097.42 127.181 1097.01 128.56 1097.01 130.144ZM1135.83 153.2V151.616H1147.01V76.464H1135.83V74.88H1150.09V153.2H1135.83ZM1213.22 140.88C1209.12 140.88 1205.66 140 1202.84 138.24C1200.08 136.48 1197.97 134.104 1196.5 131.112C1195.1 128.12 1194.39 124.747 1194.39 120.992C1194.39 116.885 1195.21 113.219 1196.86 109.992C1198.56 106.707 1200.87 104.155 1203.81 102.336C1206.8 100.459 1210.17 99.52 1213.93 99.52C1216.27 99.52 1218.36 99.8427 1220.18 100.488C1221.99 101.133 1223.46 101.837 1224.58 102.6C1226.45 103.891 1227.39 105.005 1227.39 105.944C1227.39 106.355 1227.19 106.736 1226.78 107.088L1224.4 109.112H1224.05L1222.9 107.528C1221.61 105.768 1220.2 104.331 1218.68 103.216C1217.21 102.043 1215.31 101.456 1212.96 101.456C1208.85 101.456 1205.45 103.011 1202.75 106.12C1200.11 109.171 1198.79 113.747 1198.79 119.848C1198.79 125.011 1200.14 129.205 1202.84 132.432C1205.6 135.6 1209.47 137.184 1214.46 137.184C1217.15 137.184 1219.65 136.773 1221.94 135.952C1224.22 135.131 1226.01 134.016 1227.3 132.608H1227.57V133.752C1226.22 135.805 1224.31 137.507 1221.85 138.856C1219.38 140.205 1216.51 140.88 1213.22 140.88ZM1289.76 140.88C1285.65 140.88 1282.19 140 1279.37 138.24C1276.61 136.48 1274.5 134.104 1273.04 131.112C1271.63 128.12 1270.92 124.747 1270.92 120.992C1270.92 116.885 1271.74 113.219 1273.39 109.992C1275.09 106.707 1277.41 104.155 1280.34 102.336C1283.33 100.459 1286.7 99.52 1290.46 99.52C1292.81 99.52 1294.89 99.8427 1296.71 100.488C1298.53 101.133 1299.99 101.837 1301.11 102.6C1302.98 103.891 1303.92 105.005 1303.92 105.944C1303.92 106.355 1303.72 106.736 1303.31 107.088L1300.93 109.112H1300.58L1299.44 107.528C1298.14 105.768 1296.74 104.331 1295.21 103.216C1293.74 102.043 1291.84 101.456 1289.49 101.456C1285.38 101.456 1281.98 103.011 1279.28 106.12C1276.64 109.171 1275.32 113.747 1275.32 119.848C1275.32 125.011 1276.67 129.205 1279.37 132.432C1282.13 135.6 1286 137.184 1290.99 137.184C1293.69 137.184 1296.18 136.773 1298.47 135.952C1300.76 135.131 1302.54 134.016 1303.84 132.608H1304.1V133.752C1302.75 135.805 1300.84 137.507 1298.38 138.856C1295.92 140.205 1293.04 140.88 1289.76 140.88ZM1347.9 153.2V74.88H1362.15V76.464H1350.98V151.616H1362.15V153.2H1347.9ZM1383.58 140.88C1380.88 140.88 1378.62 140.088 1376.8 138.504C1374.98 136.861 1374.07 134.603 1374.07 131.728C1374.07 128.912 1375.07 126.565 1377.06 124.688C1379.12 122.811 1382.49 121.285 1387.18 120.112L1395.81 117.912V110.608C1395.81 108.085 1394.9 106.061 1393.08 104.536C1391.26 102.952 1389.18 102.16 1386.83 102.16C1384.31 102.16 1382.52 102.688 1381.46 103.744C1380.47 104.741 1379.97 106.12 1379.97 107.88V111.488L1379.53 111.928H1377.24C1376.3 111.928 1375.69 111.781 1375.39 111.488C1375.1 111.195 1374.95 110.637 1374.95 109.816C1374.95 108.701 1375.33 107.557 1376.1 106.384C1376.86 105.211 1377.97 104.155 1379.44 103.216C1381.02 102.219 1382.61 101.368 1384.19 100.664C1385.84 99.9013 1387.39 99.52 1388.86 99.52C1392.38 99.52 1395.13 100.312 1397.13 101.896C1399.18 103.421 1400.21 105.827 1400.21 109.112V136.48C1400.68 136.891 1401.21 137.213 1401.79 137.448C1402.44 137.683 1403.17 137.8 1403.99 137.8H1408.57L1408.66 137.888V138.064C1408.25 138.651 1407.57 139.267 1406.63 139.912C1405.69 140.557 1404.43 140.88 1402.85 140.88C1400.8 140.88 1399.21 140.352 1398.1 139.296C1396.98 138.24 1396.31 137.008 1396.07 135.6H1395.9C1394.37 137.125 1392.52 138.387 1390.35 139.384C1388.24 140.381 1385.98 140.88 1383.58 140.88ZM1378.47 130.144C1378.47 132.549 1379.15 134.368 1380.5 135.6C1381.85 136.773 1383.75 137.36 1386.22 137.36C1387.68 137.36 1389.27 137.155 1390.97 136.744C1392.67 136.275 1394.28 135.571 1395.81 134.632V119.76C1390.94 120.757 1387.24 121.755 1384.72 122.752C1382.26 123.749 1380.58 124.835 1379.7 126.008C1378.88 127.181 1378.47 128.56 1378.47 130.144ZM1417.29 153.2V151.616H1428.47V76.464H1417.29V74.88H1431.55V153.2H1417.29ZM1489.41 140.44L1475.06 103.392L1469.52 101.72V100.4H1486.41V101.72L1479.64 103.216V103.48L1490.99 134.28H1491.25L1502.43 103.568V103.304L1495.3 101.72V100.4H1510.88V101.72L1505.25 103.392L1490.29 140.44H1489.41ZM1548.62 153.2V74.88H1562.87V76.464H1551.7V151.616H1562.87V153.2H1548.62ZM1584.3 140.88C1581.6 140.88 1579.34 140.088 1577.52 138.504C1575.7 136.861 1574.79 134.603 1574.79 131.728C1574.79 128.912 1575.79 126.565 1577.78 124.688C1579.84 122.811 1583.21 121.285 1587.9 120.112L1596.53 117.912V110.608C1596.53 108.085 1595.62 106.061 1593.8 104.536C1591.98 102.952 1589.9 102.16 1587.55 102.16C1585.03 102.16 1583.24 102.688 1582.18 103.744C1581.19 104.741 1580.69 106.12 1580.69 107.88V111.488L1580.25 111.928H1577.96C1577.02 111.928 1576.41 111.781 1576.11 111.488C1575.82 111.195 1575.67 110.637 1575.67 109.816C1575.67 108.701 1576.05 107.557 1576.82 106.384C1577.58 105.211 1578.69 104.155 1580.16 103.216C1581.74 102.219 1583.33 101.368 1584.91 100.664C1586.56 99.9013 1588.11 99.52 1589.58 99.52C1593.1 99.52 1595.85 100.312 1597.85 101.896C1599.9 103.421 1600.93 105.827 1600.93 109.112V136.48C1601.4 136.891 1601.93 137.213 1602.51 137.448C1603.16 137.683 1603.89 137.8 1604.71 137.8H1609.29L1609.38 137.888V138.064C1608.97 138.651 1608.29 139.267 1607.35 139.912C1606.41 140.557 1605.15 140.88 1603.57 140.88C1601.52 140.88 1599.93 140.352 1598.82 139.296C1597.7 138.24 1597.03 137.008 1596.79 135.6H1596.62C1595.09 137.125 1593.24 138.387 1591.07 139.384C1588.96 140.381 1586.7 140.88 1584.3 140.88ZM1579.19 130.144C1579.19 132.549 1579.87 134.368 1581.22 135.6C1582.57 136.773 1584.47 137.36 1586.94 137.36C1588.4 137.36 1589.99 137.155 1591.69 136.744C1593.39 136.275 1595 135.571 1596.53 134.632V119.76C1591.66 120.757 1587.96 121.755 1585.44 122.752C1582.98 123.749 1581.3 124.835 1580.42 126.008C1579.6 127.181 1579.19 128.56 1579.19 130.144ZM1618.01 153.2V151.616H1629.19V76.464H1618.01V74.88H1632.27V153.2H1618.01ZM1676.93 140V138.68L1682.47 137.184V78.224L1676.05 76.552V75.232L1685.99 74H1686.87V137.184L1693.12 138.68V140H1676.93ZM1736.87 153.2V74.88H1751.13V76.464H1739.95V151.616H1751.13V153.2H1736.87ZM1782.32 140.88C1778.16 140.88 1774.64 140 1771.76 138.24C1768.95 136.48 1766.81 134.104 1765.34 131.112C1763.93 128.12 1763.23 124.747 1763.23 120.992C1763.23 117.003 1764.05 113.395 1765.69 110.168C1767.39 106.941 1769.59 104.36 1772.29 102.424C1775.05 100.488 1778.04 99.52 1781.27 99.52C1785.9 99.52 1789.54 101.045 1792.18 104.096C1794.82 107.147 1796.35 111.371 1796.76 116.768L1796.49 117.032H1767.72C1767.66 117.912 1767.63 118.851 1767.63 119.848C1767.63 125.011 1769.01 129.205 1771.76 132.432C1774.58 135.6 1778.51 137.184 1783.56 137.184C1786.31 137.184 1788.81 136.773 1791.04 135.952C1793.32 135.131 1795.11 134.016 1796.4 132.608H1796.67V133.752C1795.38 135.805 1793.47 137.507 1790.95 138.856C1788.48 140.205 1785.61 140.88 1782.32 140.88ZM1780.21 101.456C1777.34 101.456 1774.76 102.659 1772.47 105.064C1770.18 107.411 1768.68 110.755 1767.98 115.096H1791.92C1791.33 110.813 1790.13 107.469 1788.31 105.064C1786.49 102.659 1783.79 101.456 1780.21 101.456ZM1807.99 153.2V151.616H1819.17V76.464H1807.99V74.88H1822.25V153.2H1807.99ZM334.284 268.55V200.02H346.759V201.406H336.979V267.164H346.759V268.55H334.284ZM370.742 257.77C367.61 257.77 365.044 256.872 363.042 255.075C361.04 253.278 360.039 250.66 360.039 247.221V224.814L354.572 223.505V222.35H363.889V245.142C363.889 248.273 364.684 250.66 366.276 252.303C367.918 253.894 370.023 254.69 372.59 254.69C374.078 254.69 375.67 254.331 377.364 253.612C379.109 252.842 380.521 251.764 381.599 250.378V224.814L375.362 223.505V222.35H385.449V254.536L390.916 255.845V257H381.599V252.303H381.368C379.52 254.151 377.774 255.537 376.132 256.461C374.489 257.334 372.692 257.77 370.742 257.77ZM398.792 268.55V267.164H408.571V201.406H398.792V200.02H411.266V268.55H398.792ZM423.7 257V255.845L428.166 254.613L437.945 239.675L428.551 224.891L424.085 223.505V222.35H437.714V223.505L432.863 224.814V225.045L440.563 237.134L447.647 225.045V224.814L443.412 223.505V222.35H454.269V223.505L450.111 225.199L441.256 238.212L451.651 254.459L455.578 255.845V257H442.95V255.845L447.262 254.536V254.305L438.638 240.83L431.092 254.305V254.536L435.25 255.845V257H423.7Z" fill="black"/>
<path d="M495.681 257.77C493.114 257.77 490.83 257.103 488.828 255.768C486.826 254.433 485.234 252.56 484.054 250.147C482.924 247.683 482.36 244.757 482.36 241.369C482.36 237.16 483.181 233.592 484.824 230.666C486.466 227.689 488.648 225.43 491.369 223.89C494.089 222.35 497.092 221.58 500.378 221.58C501.507 221.58 502.688 221.785 503.92 222.196C505.152 222.555 506.358 223.043 507.539 223.659V202.946L501.918 201.483V200.328L510.619 199.25H511.389V254.536L516.856 255.845V257H508.309L507.616 253.073H507.231C505.485 254.562 503.663 255.717 501.764 256.538C499.916 257.359 497.888 257.77 495.681 257.77ZM485.979 240.137C485.979 243.576 486.543 246.425 487.673 248.684C488.802 250.891 490.265 252.534 492.062 253.612C493.91 254.639 495.809 255.152 497.76 255.152C499.454 255.152 501.148 254.844 502.842 254.228C504.536 253.612 506.101 252.611 507.539 251.225V226.431C505.947 225.558 504.356 224.865 502.765 224.352C501.173 223.839 499.479 223.582 497.683 223.582C495.578 223.582 493.627 224.121 491.831 225.199C490.085 226.277 488.674 228.048 487.596 230.512C486.518 232.925 485.979 236.133 485.979 240.137ZM542.955 257.77C539.31 257.77 536.23 257 533.715 255.46C531.251 253.92 529.377 251.841 528.094 249.223C526.862 246.605 526.246 243.653 526.246 240.368C526.246 236.877 526.964 233.72 528.402 230.897C529.89 228.074 531.815 225.815 534.177 224.121C536.589 222.427 539.207 221.58 542.031 221.58C546.086 221.58 549.269 222.915 551.579 225.584C553.889 228.253 555.223 231.949 555.583 236.672L555.352 236.903H530.173C530.121 237.673 530.096 238.494 530.096 239.367C530.096 243.884 531.302 247.555 533.715 250.378C536.179 253.15 539.618 254.536 544.033 254.536C546.445 254.536 548.627 254.177 550.578 253.458C552.58 252.739 554.145 251.764 555.275 250.532H555.506V251.533C554.376 253.33 552.708 254.818 550.501 255.999C548.345 257.18 545.829 257.77 542.955 257.77ZM541.107 223.274C538.591 223.274 536.333 224.326 534.331 226.431C532.329 228.484 531.02 231.41 530.404 235.209H551.348C550.834 231.462 549.782 228.536 548.191 226.431C546.599 224.326 544.238 223.274 541.107 223.274ZM575.329 257.77C573.532 257.77 571.915 257.565 570.478 257.154C569.092 256.795 567.654 256.256 566.166 255.537V247.529H567.09L568.168 250.994C568.63 252.534 569.477 253.766 570.709 254.69C571.941 255.563 573.686 255.999 575.945 255.999C578.409 255.999 580.308 255.409 581.643 254.228C583.029 252.996 583.722 251.251 583.722 248.992C583.722 246.99 583.183 245.424 582.105 244.295C581.027 243.114 579.025 241.934 576.099 240.753C573.019 239.521 570.734 238.186 569.246 236.749C567.808 235.312 567.09 233.258 567.09 230.589C567.09 228.946 567.526 227.458 568.399 226.123C569.323 224.737 570.529 223.633 572.018 222.812C573.506 221.991 575.098 221.58 576.792 221.58C578.691 221.58 580.385 221.811 581.874 222.273C583.362 222.684 584.646 223.171 585.724 223.736V231.59H584.8L583.799 228.279C583.285 226.482 582.31 225.199 580.873 224.429C579.487 223.659 578.075 223.274 576.638 223.274C574.636 223.274 573.096 223.864 572.018 225.045C570.991 226.226 570.478 227.766 570.478 229.665C570.478 231.564 571.042 233.053 572.172 234.131C573.301 235.209 575.123 236.261 577.639 237.288C579.897 238.212 581.72 239.11 583.106 239.983C584.543 240.856 585.595 241.934 586.263 243.217C586.93 244.449 587.264 246.04 587.264 247.991C587.264 249.736 586.776 251.353 585.801 252.842C584.825 254.331 583.439 255.537 581.643 256.461C579.846 257.334 577.741 257.77 575.329 257.77ZM604.995 209.414C604.174 209.414 603.481 209.132 602.916 208.567C602.351 208.002 602.069 207.309 602.069 206.488C602.069 205.667 602.351 204.974 602.916 204.409C603.481 203.844 604.174 203.562 604.995 203.562C605.816 203.562 606.509 203.844 607.074 204.409C607.639 204.974 607.921 205.667 607.921 206.488C607.921 207.309 607.639 208.002 607.074 208.567C606.509 209.132 605.816 209.414 604.995 209.414ZM599.297 257V255.845L604.148 254.536V225.276L598.527 223.813V222.658L607.228 221.58H607.998V254.536L613.465 255.845V257H599.297ZM637.239 245.373C635.699 245.373 634.236 245.116 632.85 244.603C631.156 245.322 629.976 246.092 629.308 246.913C628.641 247.734 628.307 248.684 628.307 249.762C628.307 251.507 628.923 252.765 630.155 253.535C631.387 254.305 633.287 254.69 635.853 254.69H644.554C647.583 254.69 649.893 255.409 651.484 256.846C653.127 258.283 653.948 260.26 653.948 262.775C653.948 264.88 653.23 266.907 651.792 268.858C650.355 270.809 648.353 272.4 645.786 273.632C643.22 274.864 640.191 275.48 636.7 275.48C632.234 275.48 629.026 274.582 627.075 272.785C625.125 271.04 624.149 268.884 624.149 266.317C624.149 264.418 624.534 262.775 625.304 261.389L630.001 257.462V257.308C626.665 256.333 624.996 254.305 624.996 251.225C624.996 249.531 625.561 248.119 626.69 246.99L631.233 244.295V243.91C629.385 242.935 627.922 241.549 626.844 239.752C625.766 237.904 625.227 235.825 625.227 233.515C625.227 231.256 625.741 229.229 626.767 227.432C627.845 225.635 629.283 224.224 631.079 223.197C632.876 222.119 634.929 221.58 637.239 221.58C638.369 221.58 639.601 221.734 640.935 222.042C642.27 222.299 643.322 222.607 644.092 222.966L654.564 222.35V225.507L646.787 224.968L646.633 225.122C647.455 225.995 648.071 227.227 648.481 228.818C648.943 230.358 649.174 231.924 649.174 233.515C649.174 235.774 648.661 237.801 647.634 239.598C646.608 241.395 645.196 242.806 643.399 243.833C641.603 244.86 639.549 245.373 637.239 245.373ZM638.009 243.833C640.217 243.833 641.962 242.96 643.245 241.215C644.58 239.418 645.247 236.903 645.247 233.669C645.247 230.127 644.426 227.483 642.783 225.738C641.141 223.941 639.113 223.043 636.7 223.043C634.339 223.043 632.491 223.967 631.156 225.815C629.822 227.612 629.154 230.101 629.154 233.284C629.154 236.826 629.976 239.47 631.618 241.215C633.312 242.96 635.443 243.833 638.009 243.833ZM627.691 265.47C627.691 267.831 628.667 269.808 630.617 271.399C632.619 272.99 635.058 273.786 637.932 273.786C640.396 273.786 642.578 273.324 644.477 272.4C646.377 271.527 647.865 270.347 648.943 268.858C650.021 267.421 650.56 265.881 650.56 264.238C650.56 261.774 649.919 260.08 648.635 259.156C647.403 258.232 645.17 257.77 641.936 257.77H633.851C633.081 257.77 632.337 257.719 631.618 257.616C630.13 258.489 629.103 259.541 628.538 260.773C627.974 262.056 627.691 263.622 627.691 265.47ZM664.717 257V255.845L669.568 254.536V225.276L663.947 224.583V223.428L672.263 221.58H673.033L673.341 227.124H673.572C675.472 225.173 677.268 223.762 678.962 222.889C680.656 222.016 682.556 221.58 684.66 221.58C687.894 221.58 690.538 222.478 692.591 224.275C694.696 226.072 695.748 228.69 695.748 232.129V254.536L700.599 255.845V257H686.431V255.845L691.898 254.536V234.208C691.898 231.077 691.051 228.715 689.357 227.124C687.715 225.481 685.533 224.66 682.812 224.66C681.272 224.66 679.604 225.045 677.807 225.815C676.011 226.534 674.548 227.586 673.418 228.972V254.536L678.885 255.845V257H664.717ZM725.896 257.77C722.251 257.77 719.171 257 716.656 255.46C714.192 253.92 712.318 251.841 711.035 249.223C709.803 246.605 709.187 243.653 709.187 240.368C709.187 236.877 709.905 233.72 711.343 230.897C712.831 228.074 714.756 225.815 717.118 224.121C719.53 222.427 722.148 221.58 724.972 221.58C729.027 221.58 732.21 222.915 734.52 225.584C736.83 228.253 738.164 231.949 738.524 236.672L738.293 236.903H713.114C713.062 237.673 713.037 238.494 713.037 239.367C713.037 243.884 714.243 247.555 716.656 250.378C719.12 253.15 722.559 254.536 726.974 254.536C729.386 254.536 731.568 254.177 733.519 253.458C735.521 252.739 737.086 251.764 738.216 250.532H738.447V251.533C737.317 253.33 735.649 254.818 733.442 255.999C731.286 257.18 728.77 257.77 725.896 257.77ZM724.048 223.274C721.532 223.274 719.274 224.326 717.272 226.431C715.27 228.484 713.961 231.41 713.345 235.209H734.289C733.775 231.462 732.723 228.536 731.132 226.431C729.54 224.326 727.179 223.274 724.048 223.274ZM749.03 257V255.845L753.881 254.536V225.276L748.26 224.583V223.428L756.576 221.58H757.346L757.731 228.433H757.885C759.887 226.328 761.478 224.788 762.659 223.813C763.84 222.838 764.815 222.222 765.585 221.965C766.355 221.708 767.228 221.58 768.203 221.58C769.076 221.58 769.871 221.734 770.59 222.042C771.103 222.247 771.463 222.453 771.668 222.658C771.925 222.812 772.053 223.043 772.053 223.351C772.053 223.454 772.027 223.582 771.976 223.736C771.976 223.839 771.95 223.993 771.899 224.198L771.129 226.2H770.975L769.512 225.507C768.793 225.148 767.844 224.968 766.663 224.968C765.174 224.968 763.686 225.379 762.197 226.2C760.708 227.021 759.22 228.459 757.731 230.512V254.536L763.66 255.845V257H749.03ZM813.735 257.77C810.091 257.77 807.011 257 804.495 255.46C802.031 253.92 800.158 251.841 798.874 249.223C797.642 246.605 797.026 243.653 797.026 240.368C797.026 236.877 797.745 233.72 799.182 230.897C800.671 228.074 802.596 225.815 804.957 224.121C807.37 222.427 809.988 221.58 812.811 221.58C816.867 221.58 820.049 222.915 822.359 225.584C824.669 228.253 826.004 231.949 826.363 236.672L826.132 236.903H800.953C800.902 237.673 800.876 238.494 800.876 239.367C800.876 243.884 802.083 247.555 804.495 250.378C806.959 253.15 810.399 254.536 814.813 254.536C817.226 254.536 819.408 254.177 821.358 253.458C823.36 252.739 824.926 251.764 826.055 250.532H826.286V251.533C825.157 253.33 823.489 254.818 821.281 255.999C819.125 257.18 816.61 257.77 813.735 257.77ZM811.887 223.274C809.372 223.274 807.113 224.326 805.111 226.431C803.109 228.484 801.8 231.41 801.184 235.209H822.128C821.615 231.462 820.563 228.536 818.971 226.431C817.38 224.326 815.019 223.274 811.887 223.274ZM836.562 257V255.845L841.413 254.536V225.276L835.792 224.583V223.428L844.108 221.58H844.878L845.186 227.124H845.417C847.316 225.173 849.113 223.762 850.807 222.889C852.501 222.016 854.4 221.58 856.505 221.58C859.739 221.58 862.382 222.478 864.436 224.275C866.54 226.072 867.593 228.69 867.593 232.129V254.536L872.444 255.845V257H858.276V255.845L863.743 254.536V234.208C863.743 231.077 862.896 228.715 861.202 227.124C859.559 225.481 857.377 224.66 854.657 224.66C853.117 224.66 851.448 225.045 849.652 225.815C847.855 226.534 846.392 227.586 845.263 228.972V254.536L850.73 255.845V257H836.562ZM894.968 245.373C893.428 245.373 891.965 245.116 890.579 244.603C888.885 245.322 887.704 246.092 887.037 246.913C886.37 247.734 886.036 248.684 886.036 249.762C886.036 251.507 886.652 252.765 887.884 253.535C889.116 254.305 891.015 254.69 893.582 254.69H902.283C905.312 254.69 907.622 255.409 909.213 256.846C910.856 258.283 911.677 260.26 911.677 262.775C911.677 264.88 910.958 266.907 909.521 268.858C908.084 270.809 906.082 272.4 903.515 273.632C900.948 274.864 897.92 275.48 894.429 275.48C889.963 275.48 886.755 274.582 884.804 272.785C882.853 271.04 881.878 268.884 881.878 266.317C881.878 264.418 882.263 262.775 883.033 261.389L887.73 257.462V257.308C884.393 256.333 882.725 254.305 882.725 251.225C882.725 249.531 883.29 248.119 884.419 246.99L888.962 244.295V243.91C887.114 242.935 885.651 241.549 884.573 239.752C883.495 237.904 882.956 235.825 882.956 233.515C882.956 231.256 883.469 229.229 884.496 227.432C885.574 225.635 887.011 224.224 888.808 223.197C890.605 222.119 892.658 221.58 894.968 221.58C896.097 221.58 897.329 221.734 898.664 222.042C899.999 222.299 901.051 222.607 901.821 222.966L912.293 222.35V225.507L904.516 224.968L904.362 225.122C905.183 225.995 905.799 227.227 906.21 228.818C906.672 230.358 906.903 231.924 906.903 233.515C906.903 235.774 906.39 237.801 905.363 239.598C904.336 241.395 902.925 242.806 901.128 243.833C899.331 244.86 897.278 245.373 894.968 245.373ZM895.738 243.833C897.945 243.833 899.691 242.96 900.974 241.215C902.309 239.418 902.976 236.903 902.976 233.669C902.976 230.127 902.155 227.483 900.512 225.738C898.869 223.941 896.842 223.043 894.429 223.043C892.068 223.043 890.22 223.967 888.885 225.815C887.55 227.612 886.883 230.101 886.883 233.284C886.883 236.826 887.704 239.47 889.347 241.215C891.041 242.96 893.171 243.833 895.738 243.833ZM885.42 265.47C885.42 267.831 886.395 269.808 888.346 271.399C890.348 272.99 892.786 273.786 895.661 273.786C898.125 273.786 900.307 273.324 902.206 272.4C904.105 271.527 905.594 270.347 906.672 268.858C907.75 267.421 908.289 265.881 908.289 264.238C908.289 261.774 907.647 260.08 906.364 259.156C905.132 258.232 902.899 257.77 899.665 257.77H891.58C890.81 257.77 890.066 257.719 889.347 257.616C887.858 258.489 886.832 259.541 886.267 260.773C885.702 262.056 885.42 263.622 885.42 265.47ZM928.606 209.414C927.785 209.414 927.092 209.132 926.527 208.567C925.962 208.002 925.68 207.309 925.68 206.488C925.68 205.667 925.962 204.974 926.527 204.409C927.092 203.844 927.785 203.562 928.606 203.562C929.427 203.562 930.12 203.844 930.685 204.409C931.25 204.974 931.532 205.667 931.532 206.488C931.532 207.309 931.25 208.002 930.685 208.567C930.12 209.132 929.427 209.414 928.606 209.414ZM922.908 257V255.845L927.759 254.536V225.276L922.138 223.813V222.658L930.839 221.58H931.609V254.536L937.076 255.845V257H922.908ZM947.529 257V255.845L952.38 254.536V225.276L946.759 224.583V223.428L955.075 221.58H955.845L956.153 227.124H956.384C958.284 225.173 960.08 223.762 961.774 222.889C963.468 222.016 965.368 221.58 967.472 221.58C970.706 221.58 973.35 222.478 975.403 224.275C977.508 226.072 978.56 228.69 978.56 232.129V254.536L983.411 255.845V257H969.243V255.845L974.71 254.536V234.208C974.71 231.077 973.863 228.715 972.169 227.124C970.527 225.481 968.345 224.66 965.624 224.66C964.084 224.66 962.416 225.045 960.619 225.815C958.823 226.534 957.36 227.586 956.23 228.972V254.536L961.697 255.845V257H947.529ZM1008.71 257.77C1005.06 257.77 1001.98 257 999.468 255.46C997.004 253.92 995.13 251.841 993.847 249.223C992.615 246.605 991.999 243.653 991.999 240.368C991.999 236.877 992.717 233.72 994.155 230.897C995.643 228.074 997.568 225.815 999.93 224.121C1002.34 222.427 1004.96 221.58 1007.78 221.58C1011.84 221.58 1015.02 222.915 1017.33 225.584C1019.64 228.253 1020.98 231.949 1021.34 236.672L1021.1 236.903H995.926C995.874 237.673 995.849 238.494 995.849 239.367C995.849 243.884 997.055 247.555 999.468 250.378C1001.93 253.15 1005.37 254.536 1009.79 254.536C1012.2 254.536 1014.38 254.177 1016.33 253.458C1018.33 252.739 1019.9 251.764 1021.03 250.532H1021.26V251.533C1020.13 253.33 1018.46 254.818 1016.25 255.999C1014.1 257.18 1011.58 257.77 1008.71 257.77ZM1006.86 223.274C1004.34 223.274 1002.09 224.326 1000.08 226.431C998.082 228.484 996.773 231.41 996.157 235.209H1017.1C1016.59 231.462 1015.53 228.536 1013.94 226.431C1012.35 224.326 1009.99 223.274 1006.86 223.274ZM1048.38 257.77C1044.73 257.77 1041.65 257 1039.14 255.46C1036.67 253.92 1034.8 251.841 1033.52 249.223C1032.29 246.605 1031.67 243.653 1031.67 240.368C1031.67 236.877 1032.39 233.72 1033.83 230.897C1035.31 228.074 1037.24 225.815 1039.6 224.121C1042.01 222.427 1044.63 221.58 1047.45 221.58C1051.51 221.58 1054.69 222.915 1057 225.584C1059.31 228.253 1060.65 231.949 1061.01 236.672L1060.78 236.903H1035.6C1035.55 237.673 1035.52 238.494 1035.52 239.367C1035.52 243.884 1036.73 247.555 1039.14 250.378C1041.6 253.15 1045.04 254.536 1049.46 254.536C1051.87 254.536 1054.05 254.177 1056 253.458C1058 252.739 1059.57 251.764 1060.7 250.532H1060.93V251.533C1059.8 253.33 1058.13 254.818 1055.92 255.999C1053.77 257.18 1051.25 257.77 1048.38 257.77ZM1046.53 223.274C1044.02 223.274 1041.76 224.326 1039.75 226.431C1037.75 228.484 1036.44 231.41 1035.83 235.209H1056.77C1056.26 231.462 1055.21 228.536 1053.61 226.431C1052.02 224.326 1049.66 223.274 1046.53 223.274ZM1071.51 257V255.845L1076.36 254.536V225.276L1070.74 224.583V223.428L1079.06 221.58H1079.83L1080.21 228.433H1080.37C1082.37 226.328 1083.96 224.788 1085.14 223.813C1086.32 222.838 1087.3 222.222 1088.07 221.965C1088.84 221.708 1089.71 221.58 1090.69 221.58C1091.56 221.58 1092.35 221.734 1093.07 222.042C1093.59 222.247 1093.95 222.453 1094.15 222.658C1094.41 222.812 1094.54 223.043 1094.54 223.351C1094.54 223.454 1094.51 223.582 1094.46 223.736C1094.46 223.839 1094.43 223.993 1094.38 224.198L1093.61 226.2H1093.46L1092 225.507C1091.28 225.148 1090.33 224.968 1089.15 224.968C1087.66 224.968 1086.17 225.379 1084.68 226.2C1083.19 227.021 1081.7 228.459 1080.21 230.512V254.536L1086.14 255.845V257H1071.51ZM1120.43 257V255.845L1125.28 254.536V225.276L1119.66 224.583V223.428L1127.98 221.58H1128.75L1129.13 228.433H1129.29C1131.29 226.328 1132.88 224.788 1134.06 223.813C1135.24 222.838 1136.22 222.222 1136.99 221.965C1137.76 221.708 1138.63 221.58 1139.61 221.58C1140.48 221.58 1141.27 221.734 1141.99 222.042C1142.51 222.247 1142.87 222.453 1143.07 222.658C1143.33 222.812 1143.46 223.043 1143.46 223.351C1143.46 223.454 1143.43 223.582 1143.38 223.736C1143.38 223.839 1143.35 223.993 1143.3 224.198L1142.53 226.2H1142.38L1140.92 225.507C1140.2 225.148 1139.25 224.968 1138.07 224.968C1136.58 224.968 1135.09 225.379 1133.6 226.2C1132.11 227.021 1130.62 228.459 1129.13 230.512V254.536L1135.06 255.845V257H1120.43ZM1165.89 257.77C1162.24 257.77 1159.16 257 1156.65 255.46C1154.18 253.92 1152.31 251.841 1151.03 249.223C1149.8 246.605 1149.18 243.653 1149.18 240.368C1149.18 236.877 1149.9 233.72 1151.34 230.897C1152.82 228.074 1154.75 225.815 1157.11 224.121C1159.52 222.427 1162.14 221.58 1164.96 221.58C1169.02 221.58 1172.2 222.915 1174.51 225.584C1176.82 228.253 1178.16 231.949 1178.52 236.672L1178.29 236.903H1153.11C1153.06 237.673 1153.03 238.494 1153.03 239.367C1153.03 243.884 1154.24 247.555 1156.65 250.378C1159.11 253.15 1162.55 254.536 1166.97 254.536C1169.38 254.536 1171.56 254.177 1173.51 253.458C1175.51 252.739 1177.08 251.764 1178.21 250.532H1178.44V251.533C1177.31 253.33 1175.64 254.818 1173.43 255.999C1171.28 257.18 1168.76 257.77 1165.89 257.77ZM1164.04 223.274C1161.53 223.274 1159.27 224.326 1157.26 226.431C1155.26 228.484 1153.95 231.41 1153.34 235.209H1174.28C1173.77 231.462 1172.72 228.536 1171.12 226.431C1169.53 224.326 1167.17 223.274 1164.04 223.274ZM1198.26 257.77C1196.47 257.77 1194.85 257.565 1193.41 257.154C1192.03 256.795 1190.59 256.256 1189.1 255.537V247.529H1190.02L1191.1 250.994C1191.56 252.534 1192.41 253.766 1193.64 254.69C1194.88 255.563 1196.62 255.999 1198.88 255.999C1201.34 255.999 1203.24 255.409 1204.58 254.228C1205.96 252.996 1206.66 251.251 1206.66 248.992C1206.66 246.99 1206.12 245.424 1205.04 244.295C1203.96 243.114 1201.96 241.934 1199.03 240.753C1195.95 239.521 1193.67 238.186 1192.18 236.749C1190.74 235.312 1190.02 233.258 1190.02 230.589C1190.02 228.946 1190.46 227.458 1191.33 226.123C1192.26 224.737 1193.46 223.633 1194.95 222.812C1196.44 221.991 1198.03 221.58 1199.73 221.58C1201.63 221.58 1203.32 221.811 1204.81 222.273C1206.3 222.684 1207.58 223.171 1208.66 223.736V231.59H1207.73L1206.73 228.279C1206.22 226.482 1205.24 225.199 1203.81 224.429C1202.42 223.659 1201.01 223.274 1199.57 223.274C1197.57 223.274 1196.03 223.864 1194.95 225.045C1193.93 226.226 1193.41 227.766 1193.41 229.665C1193.41 231.564 1193.98 233.053 1195.11 234.131C1196.24 235.209 1198.06 236.261 1200.57 237.288C1202.83 238.212 1204.65 239.11 1206.04 239.983C1207.48 240.856 1208.53 241.934 1209.2 243.217C1209.86 244.449 1210.2 246.04 1210.2 247.991C1210.2 249.736 1209.71 251.353 1208.74 252.842C1207.76 254.331 1206.37 255.537 1204.58 256.461C1202.78 257.334 1200.68 257.77 1198.26 257.77ZM1237.86 257.77C1234.22 257.77 1231.14 257 1228.62 255.46C1226.16 253.92 1224.28 251.841 1223 249.223C1221.77 246.605 1221.15 243.653 1221.15 240.368C1221.15 236.877 1221.87 233.72 1223.31 230.897C1224.8 228.074 1226.72 225.815 1229.08 224.121C1231.5 222.427 1234.11 221.58 1236.94 221.58C1240.99 221.58 1244.18 222.915 1246.49 225.584C1248.8 228.253 1250.13 231.949 1250.49 236.672L1250.26 236.903H1225.08C1225.03 237.673 1225 238.494 1225 239.367C1225 243.884 1226.21 247.555 1228.62 250.378C1231.09 253.15 1234.53 254.536 1238.94 254.536C1241.35 254.536 1243.53 254.177 1245.48 253.458C1247.49 252.739 1249.05 251.764 1250.18 250.532H1250.41V251.533C1249.28 253.33 1247.62 254.818 1245.41 255.999C1243.25 257.18 1240.74 257.77 1237.86 257.77ZM1236.01 223.274C1233.5 223.274 1231.24 224.326 1229.24 226.431C1227.24 228.484 1225.93 231.41 1225.31 235.209H1246.25C1245.74 231.462 1244.69 228.536 1243.1 226.431C1241.51 224.326 1239.15 223.274 1236.01 223.274ZM1268.23 257.77C1265.87 257.77 1263.9 257.077 1262.31 255.691C1260.71 254.254 1259.92 252.277 1259.92 249.762C1259.92 247.298 1260.79 245.245 1262.54 243.602C1264.33 241.959 1267.28 240.625 1271.39 239.598L1278.94 237.673V231.282C1278.94 229.075 1278.14 227.304 1276.55 225.969C1274.96 224.583 1273.14 223.89 1271.08 223.89C1268.88 223.89 1267.31 224.352 1266.39 225.276C1265.51 226.149 1265.08 227.355 1265.08 228.895V232.052L1264.69 232.437H1262.69C1261.87 232.437 1261.33 232.309 1261.07 232.052C1260.82 231.795 1260.69 231.308 1260.69 230.589C1260.69 229.614 1261.02 228.613 1261.69 227.586C1262.36 226.559 1263.33 225.635 1264.62 224.814C1266 223.941 1267.39 223.197 1268.77 222.581C1270.21 221.914 1271.57 221.58 1272.85 221.58C1275.93 221.58 1278.35 222.273 1280.09 223.659C1281.89 224.994 1282.79 227.098 1282.79 229.973V253.92C1283.2 254.279 1283.66 254.562 1284.17 254.767C1284.74 254.972 1285.38 255.075 1286.1 255.075H1290.1L1290.18 255.152V255.306C1289.82 255.819 1289.23 256.358 1288.41 256.923C1287.59 257.488 1286.48 257.77 1285.1 257.77C1283.3 257.77 1281.91 257.308 1280.94 256.384C1279.96 255.46 1279.37 254.382 1279.17 253.15H1279.01C1277.68 254.485 1276.06 255.588 1274.16 256.461C1272.32 257.334 1270.34 257.77 1268.23 257.77ZM1263.77 248.376C1263.77 250.481 1264.36 252.072 1265.54 253.15C1266.72 254.177 1268.39 254.69 1270.54 254.69C1271.83 254.69 1273.21 254.51 1274.7 254.151C1276.19 253.74 1277.6 253.124 1278.94 252.303V239.29C1274.68 240.163 1271.44 241.035 1269.24 241.908C1267.08 242.781 1265.62 243.73 1264.85 244.757C1264.13 245.784 1263.77 246.99 1263.77 248.376ZM1297.66 257V255.845L1302.51 254.536V225.276L1296.89 224.583V223.428L1305.21 221.58H1305.98L1306.36 228.433H1306.51C1308.52 226.328 1310.11 224.788 1311.29 223.813C1312.47 222.838 1313.44 222.222 1314.21 221.965C1314.98 221.708 1315.86 221.58 1316.83 221.58C1317.71 221.58 1318.5 221.734 1319.22 222.042C1319.73 222.247 1320.09 222.453 1320.3 222.658C1320.55 222.812 1320.68 223.043 1320.68 223.351C1320.68 223.454 1320.66 223.582 1320.61 223.736C1320.61 223.839 1320.58 223.993 1320.53 224.198L1319.76 226.2H1319.6L1318.14 225.507C1317.42 225.148 1316.47 224.968 1315.29 224.968C1313.8 224.968 1312.32 225.379 1310.83 226.2C1309.34 227.021 1307.85 228.459 1306.36 230.512V254.536L1312.29 255.845V257H1297.66ZM1342.88 257.77C1339.29 257.77 1336.26 257 1333.8 255.46C1331.39 253.92 1329.54 251.841 1328.25 249.223C1327.02 246.605 1326.41 243.653 1326.41 240.368C1326.41 236.775 1327.12 233.566 1328.56 230.743C1330.05 227.868 1332.08 225.635 1334.65 224.044C1337.26 222.401 1340.21 221.58 1343.5 221.58C1345.55 221.58 1347.38 221.862 1348.97 222.427C1350.56 222.992 1351.84 223.608 1352.82 224.275C1354.46 225.404 1355.28 226.38 1355.28 227.201C1355.28 227.56 1355.1 227.894 1354.74 228.202L1352.66 229.973H1352.36L1351.35 228.587C1350.22 227.047 1348.99 225.789 1347.66 224.814C1346.37 223.787 1344.71 223.274 1342.65 223.274C1339.06 223.274 1336.08 224.634 1333.72 227.355C1331.41 230.024 1330.26 234.028 1330.26 239.367C1330.26 243.884 1331.44 247.555 1333.8 250.378C1336.21 253.15 1339.6 254.536 1343.96 254.536C1346.32 254.536 1348.51 254.177 1350.51 253.458C1352.51 252.739 1354.07 251.764 1355.2 250.532H1355.44V251.533C1354.25 253.33 1352.59 254.818 1350.43 255.999C1348.27 257.18 1345.76 257.77 1342.88 257.77ZM1365.19 257V255.845L1370.04 254.536V202.946L1364.42 201.483V200.328L1373.12 199.25H1373.89V227.124H1374.04C1375.94 225.173 1377.74 223.762 1379.43 222.889C1381.13 222.016 1383.03 221.58 1385.13 221.58C1388.37 221.58 1391.01 222.478 1393.06 224.275C1395.17 226.072 1396.22 228.69 1396.22 232.129V254.536L1401.07 255.845V257H1386.9V255.845L1392.37 254.536V234.208C1392.37 231.077 1391.52 228.715 1389.83 227.124C1388.19 225.481 1386.01 224.66 1383.28 224.66C1381.74 224.66 1380.08 225.045 1378.28 225.815C1376.48 226.534 1375.02 227.586 1373.89 228.972V254.536L1379.36 255.845V257H1365.19ZM1426.37 257.77C1422.72 257.77 1419.64 257 1417.13 255.46C1414.66 253.92 1412.79 251.841 1411.51 249.223C1410.27 246.605 1409.66 243.653 1409.66 240.368C1409.66 236.877 1410.38 233.72 1411.81 230.897C1413.3 228.074 1415.23 225.815 1417.59 224.121C1420 222.427 1422.62 221.58 1425.44 221.58C1429.5 221.58 1432.68 222.915 1434.99 225.584C1437.3 228.253 1438.64 231.949 1439 236.672L1438.76 236.903H1413.59C1413.53 237.673 1413.51 238.494 1413.51 239.367C1413.51 243.884 1414.71 247.555 1417.13 250.378C1419.59 253.15 1423.03 254.536 1427.45 254.536C1429.86 254.536 1432.04 254.177 1433.99 253.458C1435.99 252.739 1437.56 251.764 1438.69 250.532H1438.92V251.533C1437.79 253.33 1436.12 254.818 1433.91 255.999C1431.76 257.18 1429.24 257.77 1426.37 257.77ZM1424.52 223.274C1422 223.274 1419.75 224.326 1417.74 226.431C1415.74 228.484 1414.43 231.41 1413.82 235.209H1434.76C1434.25 231.462 1433.19 228.536 1431.6 226.431C1430.01 224.326 1427.65 223.274 1424.52 223.274ZM1449.5 257V255.845L1454.35 254.536V225.276L1448.73 224.583V223.428L1457.05 221.58H1457.82L1458.2 228.433H1458.36C1460.36 226.328 1461.95 224.788 1463.13 223.813C1464.31 222.838 1465.29 222.222 1466.06 221.965C1466.83 221.708 1467.7 221.58 1468.68 221.58C1469.55 221.58 1470.34 221.734 1471.06 222.042C1471.58 222.247 1471.93 222.453 1472.14 222.658C1472.4 222.812 1472.53 223.043 1472.53 223.351C1472.53 223.454 1472.5 223.582 1472.45 223.736C1472.45 223.839 1472.42 223.993 1472.37 224.198L1471.6 226.2H1471.45L1469.98 225.507C1469.27 225.148 1468.32 224.968 1467.14 224.968C1465.65 224.968 1464.16 225.379 1462.67 226.2C1461.18 227.021 1459.69 228.459 1458.2 230.512V254.536L1464.13 255.845V257H1449.5Z" fill="#FAFAFA"/>
<path d="M1507.66 257.77C1505.87 257.77 1504.25 257.565 1502.81 257.154C1501.43 256.795 1499.99 256.256 1498.5 255.537V247.529H1499.42L1500.5 250.994C1500.96 252.534 1501.81 253.766 1503.04 254.69C1504.27 255.563 1506.02 255.999 1508.28 255.999C1510.74 255.999 1512.64 255.409 1513.98 254.228C1515.36 252.996 1516.06 251.251 1516.06 248.992C1516.06 246.99 1515.52 245.424 1514.44 244.295C1513.36 243.114 1511.36 241.934 1508.43 240.753C1505.35 239.521 1503.07 238.186 1501.58 236.749C1500.14 235.312 1499.42 233.258 1499.42 230.589C1499.42 228.946 1499.86 227.458 1500.73 226.123C1501.66 224.737 1502.86 223.633 1504.35 222.812C1505.84 221.991 1507.43 221.58 1509.13 221.58C1511.02 221.58 1512.72 221.811 1514.21 222.273C1515.7 222.684 1516.98 223.171 1518.06 223.736V231.59H1517.13L1516.13 228.279C1515.62 226.482 1514.64 225.199 1513.21 224.429C1511.82 223.659 1510.41 223.274 1508.97 223.274C1506.97 223.274 1505.43 223.864 1504.35 225.045C1503.32 226.226 1502.81 227.766 1502.81 229.665C1502.81 231.564 1503.38 233.053 1504.51 234.131C1505.63 235.209 1507.46 236.261 1509.97 237.288C1512.23 238.212 1514.05 239.11 1515.44 239.983C1516.88 240.856 1517.93 241.934 1518.6 243.217C1519.26 244.449 1519.6 246.04 1519.6 247.991C1519.6 249.736 1519.11 251.353 1518.13 252.842C1517.16 254.331 1515.77 255.537 1513.98 256.461C1512.18 257.334 1510.07 257.77 1507.66 257.77ZM1549.8 257.77C1546.21 257.77 1543.18 257 1540.72 255.46C1538.3 253.92 1536.46 251.841 1535.17 249.223C1533.94 246.605 1533.32 243.653 1533.32 240.368C1533.32 236.775 1534.04 233.566 1535.48 230.743C1536.97 227.868 1539 225.635 1541.56 224.044C1544.18 222.401 1547.13 221.58 1550.42 221.58C1552.47 221.58 1554.29 221.862 1555.89 222.427C1557.48 222.992 1558.76 223.608 1559.74 224.275C1561.38 225.404 1562.2 226.38 1562.2 227.201C1562.2 227.56 1562.02 227.894 1561.66 228.202L1559.58 229.973H1559.27L1558.27 228.587C1557.14 227.047 1555.91 225.789 1554.58 224.814C1553.29 223.787 1551.62 223.274 1549.57 223.274C1545.98 223.274 1543 224.634 1540.64 227.355C1538.33 230.024 1537.17 234.028 1537.17 239.367C1537.17 243.884 1538.36 247.555 1540.72 250.378C1543.13 253.15 1546.52 254.536 1550.88 254.536C1553.24 254.536 1555.42 254.177 1557.43 253.458C1559.43 252.739 1560.99 251.764 1562.12 250.532H1562.35V251.533C1561.17 253.33 1559.5 254.818 1557.35 255.999C1555.19 257.18 1552.68 257.77 1549.8 257.77ZM1581.04 209.414C1580.22 209.414 1579.53 209.132 1578.96 208.567C1578.4 208.002 1578.11 207.309 1578.11 206.488C1578.11 205.667 1578.4 204.974 1578.96 204.409C1579.53 203.844 1580.22 203.562 1581.04 203.562C1581.86 203.562 1582.55 203.844 1583.12 204.409C1583.68 204.974 1583.97 205.667 1583.97 206.488C1583.97 207.309 1583.68 208.002 1583.12 208.567C1582.55 209.132 1581.86 209.414 1581.04 209.414ZM1575.34 257V255.845L1580.19 254.536V225.276L1574.57 223.813V222.658L1583.27 221.58H1584.04V254.536L1589.51 255.845V257H1575.34ZM1618.83 257.77C1615.18 257.77 1612.1 257 1609.59 255.46C1607.12 253.92 1605.25 251.841 1603.97 249.223C1602.74 246.605 1602.12 243.653 1602.12 240.368C1602.12 236.877 1602.84 233.72 1604.28 230.897C1605.76 228.074 1607.69 225.815 1610.05 224.121C1612.46 222.427 1615.08 221.58 1617.9 221.58C1621.96 221.58 1625.14 222.915 1627.45 225.584C1629.76 228.253 1631.1 231.949 1631.46 236.672L1631.23 236.903H1606.05C1605.99 237.673 1605.97 238.494 1605.97 239.367C1605.97 243.884 1607.18 247.555 1609.59 250.378C1612.05 253.15 1615.49 254.536 1619.91 254.536C1622.32 254.536 1624.5 254.177 1626.45 253.458C1628.45 252.739 1630.02 251.764 1631.15 250.532H1631.38V251.533C1630.25 253.33 1628.58 254.818 1626.37 255.999C1624.22 257.18 1621.7 257.77 1618.83 257.77ZM1616.98 223.274C1614.46 223.274 1612.21 224.326 1610.2 226.431C1608.2 228.484 1606.89 231.41 1606.28 235.209H1627.22C1626.71 231.462 1625.66 228.536 1624.06 226.431C1622.47 224.326 1620.11 223.274 1616.98 223.274ZM1644.43 257V255.845L1649.28 254.536V225.276L1643.66 224.583V223.428L1651.97 221.58H1652.74L1653.05 227.124H1653.28C1655.18 225.173 1656.98 223.762 1658.67 222.889C1660.37 222.016 1662.26 221.58 1664.37 221.58C1667.6 221.58 1670.25 222.478 1672.3 224.275C1674.4 226.072 1675.46 228.69 1675.46 232.129V254.536L1680.31 255.845V257H1666.14V255.845L1671.61 254.536V234.208C1671.61 231.077 1670.76 228.715 1669.07 227.124C1667.42 225.481 1665.24 224.66 1662.52 224.66C1660.98 224.66 1659.31 225.045 1657.52 225.815C1655.72 226.534 1654.26 227.586 1653.13 228.972V254.536L1658.59 255.845V257H1644.43ZM1703.06 257.77C1700.96 257.77 1699.24 257.103 1697.9 255.768C1696.62 254.433 1695.98 252.56 1695.98 250.147V224.968H1689.2V224.275L1696.44 222.35L1698.98 213.88H1699.83V222.35H1709.99V224.968H1699.83V249.993C1699.83 251.584 1700.32 252.791 1701.29 253.612C1702.27 254.382 1703.55 254.767 1705.14 254.767C1706.27 254.767 1707.3 254.639 1708.22 254.382C1709.15 254.125 1710.02 253.766 1710.84 253.304L1710.92 253.381V253.689C1710.51 254.562 1709.63 255.46 1708.3 256.384C1706.96 257.308 1705.22 257.77 1703.06 257.77ZM1728.48 209.414C1727.66 209.414 1726.97 209.132 1726.4 208.567C1725.84 208.002 1725.55 207.309 1725.55 206.488C1725.55 205.667 1725.84 204.974 1726.4 204.409C1726.97 203.844 1727.66 203.562 1728.48 203.562C1729.3 203.562 1729.99 203.844 1730.56 204.409C1731.12 204.974 1731.41 205.667 1731.41 206.488C1731.41 207.309 1731.12 208.002 1730.56 208.567C1729.99 209.132 1729.3 209.414 1728.48 209.414ZM1722.78 257V255.845L1727.63 254.536V225.276L1722.01 223.813V222.658L1730.71 221.58H1731.48V254.536L1736.95 255.845V257H1722.78ZM1759.72 257.77C1757.93 257.77 1756.31 257.565 1754.87 257.154C1753.49 256.795 1752.05 256.256 1750.56 255.537V247.529H1751.48L1752.56 250.994C1753.02 252.534 1753.87 253.766 1755.1 254.69C1756.33 255.563 1758.08 255.999 1760.34 255.999C1762.8 255.999 1764.7 255.409 1766.04 254.228C1767.42 252.996 1768.12 251.251 1768.12 248.992C1768.12 246.99 1767.58 245.424 1766.5 244.295C1765.42 243.114 1763.42 241.934 1760.49 240.753C1757.41 239.521 1755.13 238.186 1753.64 236.749C1752.2 235.312 1751.48 233.258 1751.48 230.589C1751.48 228.946 1751.92 227.458 1752.79 226.123C1753.72 224.737 1754.92 223.633 1756.41 222.812C1757.9 221.991 1759.49 221.58 1761.19 221.58C1763.09 221.58 1764.78 221.811 1766.27 222.273C1767.76 222.684 1769.04 223.171 1770.12 223.736V231.59H1769.19L1768.19 228.279C1767.68 226.482 1766.7 225.199 1765.27 224.429C1763.88 223.659 1762.47 223.274 1761.03 223.274C1759.03 223.274 1757.49 223.864 1756.41 225.045C1755.39 226.226 1754.87 227.766 1754.87 229.665C1754.87 231.564 1755.44 233.053 1756.57 234.131C1757.7 235.209 1759.52 236.261 1762.03 237.288C1764.29 238.212 1766.11 239.11 1767.5 239.983C1768.94 240.856 1769.99 241.934 1770.66 243.217C1771.32 244.449 1771.66 246.04 1771.66 247.991C1771.66 249.736 1771.17 251.353 1770.19 252.842C1769.22 254.331 1767.83 255.537 1766.04 256.461C1764.24 257.334 1762.14 257.77 1759.72 257.77ZM1796.78 257.77C1794.68 257.77 1792.96 257.103 1791.62 255.768C1790.34 254.433 1789.7 252.56 1789.7 250.147V224.968H1782.92V224.275L1790.16 222.35L1792.7 213.88H1793.55V222.35H1803.71V224.968H1793.55V249.993C1793.55 251.584 1794.03 252.791 1795.01 253.612C1795.99 254.382 1797.27 254.767 1798.86 254.767C1799.99 254.767 1801.02 254.639 1801.94 254.382C1802.86 254.125 1803.74 253.766 1804.56 253.304L1804.63 253.381V253.689C1804.22 254.562 1803.35 255.46 1802.02 256.384C1800.68 257.308 1798.94 257.77 1796.78 257.77Z" fill="#F4B400"/>
<path d="M478.664 236.98H773.901V239.29H478.664V236.98ZM793.176 236.98H1096.38V239.29H793.176V236.98ZM1115.66 236.98H1474.37V239.29H1115.66V236.98Z" fill="#FAFAFA"/>
<path d="M260.632 82.7506C72.654 155.656 195.7 234.809 280.721 265.272" stroke="#F4B400" stroke-width="1.6"/>
<ellipse cx="12.6707" cy="12.671" rx="12.6707" ry="12.671" transform="matrix(-0.990268 -0.139173 -0.139173 0.990268 295.337 254.257)" fill="#F4B400"/>
<ellipse cx="12.6707" cy="12.671" rx="12.6707" ry="12.671" transform="matrix(-0.990268 -0.139173 -0.139173 0.990268 279.274 71.3848)" fill="#F4B400"/>
<ellipse cx="13.29" cy="13.2913" rx="13.29" ry="13.2913" transform="matrix(0 -1 -1 0 907.583 622.58)" fill="#CABCBE"/>
<ellipse cx="13.29" cy="13.2913" rx="13.29" ry="13.2913" transform="matrix(0 -1 -1 0 1799.07 432.07)" fill="#CABCBE"/>
<line y1="-1.2" x2="904" y2="-1.2" transform="matrix(0.978148 -0.207912 -0.207912 -0.978148 902 605.952)" stroke="#CABCBE" stroke-width="2.4"/>
<ellipse cx="1663.94" cy="609.291" rx="13.29" ry="13.2913" fill="#424242"/>
<ellipse cx="1663.69" cy="372.291" rx="13.29" ry="13.2913" fill="#424242"/>
<line x1="1663.82" y1="605.004" x2="1663.82" y2="385.004" stroke="#424242" stroke-width="2.4"/>
</svg>
