<svg width="1864" height="473" viewBox="0 0 1864 473" fill="none" xmlns="http://www.w3.org/2000/svg">
<rect y="169" width="1864" height="304" rx="8" fill="#424242" fill-opacity="0.9"/>
<path d="M241.354 344V342.845L246.205 341.536V312.276L240.584 311.583V310.428L248.9 308.58H249.67L249.978 314.124H250.209C252.006 312.276 253.7 310.89 255.291 309.966C256.883 309.042 258.628 308.58 260.527 308.58C262.683 308.58 264.583 309.042 266.225 309.966C267.868 310.89 269.1 312.276 269.921 314.124H270.075C271.923 312.225 273.669 310.839 275.311 309.966C276.954 309.042 278.776 308.58 280.778 308.58C283.91 308.58 286.476 309.478 288.478 311.275C290.48 313.072 291.481 315.69 291.481 319.129V341.536L296.332 342.845V344H282.164V342.845L287.631 341.536V321.208C287.631 318.077 286.81 315.715 285.167 314.124C283.576 312.481 281.497 311.66 278.93 311.66C277.544 311.66 276.03 311.994 274.387 312.661C272.796 313.277 271.461 314.201 270.383 315.433C270.691 316.562 270.845 317.794 270.845 319.129V341.536L275.696 342.845V344H261.528V342.845L266.995 341.536V321.208C266.995 318.077 266.225 315.715 264.685 314.124C263.145 312.481 261.143 311.66 258.679 311.66C257.242 311.66 255.702 312.045 254.059 312.815C252.417 313.534 251.082 314.56 250.055 315.895V341.536L255.522 342.845V344H241.354ZM329.737 344.77C327.376 344.77 325.399 344.077 323.808 342.691C322.217 341.254 321.421 339.277 321.421 336.762C321.421 334.298 322.294 332.245 324.039 330.602C325.836 328.959 328.787 327.625 332.894 326.598L340.44 324.673V318.282C340.44 316.075 339.644 314.304 338.053 312.969C336.462 311.583 334.639 310.89 332.586 310.89C330.379 310.89 328.813 311.352 327.889 312.276C327.016 313.149 326.58 314.355 326.58 315.895V319.052L326.195 319.437H324.193C323.372 319.437 322.833 319.309 322.576 319.052C322.319 318.795 322.191 318.308 322.191 317.589C322.191 316.614 322.525 315.613 323.192 314.586C323.859 313.559 324.835 312.635 326.118 311.814C327.504 310.941 328.89 310.197 330.276 309.581C331.713 308.914 333.074 308.58 334.357 308.58C337.437 308.58 339.85 309.273 341.595 310.659C343.392 311.994 344.29 314.098 344.29 316.973V340.92C344.701 341.279 345.163 341.562 345.676 341.767C346.241 341.972 346.882 342.075 347.601 342.075H351.605L351.682 342.152V342.306C351.323 342.819 350.732 343.358 349.911 343.923C349.09 344.488 347.986 344.77 346.6 344.77C344.803 344.77 343.417 344.308 342.442 343.384C341.467 342.46 340.876 341.382 340.671 340.15H340.517C339.182 341.485 337.565 342.588 335.666 343.461C333.818 344.334 331.842 344.77 329.737 344.77ZM325.271 335.376C325.271 337.481 325.861 339.072 327.042 340.15C328.223 341.177 329.891 341.69 332.047 341.69C333.33 341.69 334.716 341.51 336.205 341.151C337.694 340.74 339.105 340.124 340.44 339.303V326.29C336.179 327.163 332.945 328.035 330.738 328.908C328.582 329.781 327.119 330.73 326.349 331.757C325.63 332.784 325.271 333.99 325.271 335.376ZM389.192 332.373C387.652 332.373 386.189 332.116 384.803 331.603C383.109 332.322 381.929 333.092 381.261 333.913C380.594 334.734 380.26 335.684 380.26 336.762C380.26 338.507 380.876 339.765 382.108 340.535C383.34 341.305 385.24 341.69 387.806 341.69H396.507C399.536 341.69 401.846 342.409 403.437 343.846C405.08 345.283 405.901 347.26 405.901 349.775C405.901 351.88 405.183 353.907 403.745 355.858C402.308 357.809 400.306 359.4 397.739 360.632C395.173 361.864 392.144 362.48 388.653 362.48C384.187 362.48 380.979 361.582 379.028 359.785C377.078 358.04 376.102 355.884 376.102 353.317C376.102 351.418 376.487 349.775 377.257 348.389L381.954 344.462V344.308C378.618 343.333 376.949 341.305 376.949 338.225C376.949 336.531 377.514 335.119 378.643 333.99L383.186 331.295V330.91C381.338 329.935 379.875 328.549 378.797 326.752C377.719 324.904 377.18 322.825 377.18 320.515C377.18 318.256 377.694 316.229 378.72 314.432C379.798 312.635 381.236 311.224 383.032 310.197C384.829 309.119 386.882 308.58 389.192 308.58C390.322 308.58 391.554 308.734 392.888 309.042C394.223 309.299 395.275 309.607 396.045 309.966L406.517 309.35V312.507L398.74 311.968L398.586 312.122C399.408 312.995 400.024 314.227 400.434 315.818C400.896 317.358 401.127 318.924 401.127 320.515C401.127 322.774 400.614 324.801 399.587 326.598C398.561 328.395 397.149 329.806 395.352 330.833C393.556 331.86 391.502 332.373 389.192 332.373ZM389.962 330.833C392.17 330.833 393.915 329.96 395.198 328.215C396.533 326.418 397.2 323.903 397.2 320.669C397.2 317.127 396.379 314.483 394.736 312.738C393.094 310.941 391.066 310.043 388.653 310.043C386.292 310.043 384.444 310.967 383.109 312.815C381.775 314.612 381.107 317.101 381.107 320.284C381.107 323.826 381.929 326.47 383.571 328.215C385.265 329.96 387.396 330.833 389.962 330.833ZM379.644 352.47C379.644 354.831 380.62 356.808 382.57 358.399C384.572 359.99 387.011 360.786 389.885 360.786C392.349 360.786 394.531 360.324 396.43 359.4C398.33 358.527 399.818 357.347 400.896 355.858C401.974 354.421 402.513 352.881 402.513 351.238C402.513 348.774 401.872 347.08 400.588 346.156C399.356 345.232 397.123 344.77 393.889 344.77H385.804C385.034 344.77 384.29 344.719 383.571 344.616C382.083 345.489 381.056 346.541 380.491 347.773C379.927 349.056 379.644 350.622 379.644 352.47ZM439.848 296.414C439.026 296.414 438.333 296.132 437.769 295.567C437.204 295.002 436.922 294.309 436.922 293.488C436.922 292.667 437.204 291.974 437.769 291.409C438.333 290.844 439.026 290.562 439.848 290.562C440.669 290.562 441.362 290.844 441.927 291.409C442.491 291.974 442.774 292.667 442.774 293.488C442.774 294.309 442.491 295.002 441.927 295.567C441.362 296.132 440.669 296.414 439.848 296.414ZM434.15 344V342.845L439.001 341.536V312.276L433.38 310.813V309.658L442.081 308.58H442.851V341.536L448.318 342.845V344H434.15ZM491.65 344.77C488.057 344.77 485.028 344 482.564 342.46C480.151 340.92 478.303 338.841 477.02 336.223C475.788 333.605 475.172 330.653 475.172 327.368C475.172 323.775 475.891 320.566 477.328 317.743C478.817 314.868 480.844 312.635 483.411 311.044C486.029 309.401 488.981 308.58 492.266 308.58C494.319 308.58 496.142 308.862 497.733 309.427C499.324 309.992 500.608 310.608 501.583 311.275C503.226 312.404 504.047 313.38 504.047 314.201C504.047 314.56 503.867 314.894 503.508 315.202L501.429 316.973H501.121L500.12 315.587C498.991 314.047 497.759 312.789 496.424 311.814C495.141 310.787 493.472 310.274 491.419 310.274C487.826 310.274 484.848 311.634 482.487 314.355C480.177 317.024 479.022 321.028 479.022 326.367C479.022 330.884 480.203 334.555 482.564 337.378C484.977 340.15 488.365 341.536 492.728 341.536C495.089 341.536 497.271 341.177 499.273 340.458C501.275 339.739 502.841 338.764 503.97 337.532H504.201V338.533C503.02 340.33 501.352 341.818 499.196 342.999C497.04 344.18 494.525 344.77 491.65 344.77ZM571.51 344.308C570.535 344.308 569.714 343.974 569.046 343.307C568.379 342.588 568.045 341.767 568.045 340.843C568.045 339.919 568.379 339.123 569.046 338.456C569.714 337.737 570.535 337.378 571.51 337.378C572.486 337.378 573.307 337.737 573.974 338.456C574.642 339.123 574.975 339.919 574.975 340.843C574.975 341.767 574.642 342.588 573.974 343.307C573.307 343.974 572.486 344.308 571.51 344.308ZM571.51 315.51C570.535 315.51 569.714 315.176 569.046 314.509C568.379 313.79 568.045 312.969 568.045 312.045C568.045 311.121 568.379 310.325 569.046 309.658C569.714 308.939 570.535 308.58 571.51 308.58C572.486 308.58 573.307 308.939 573.974 309.658C574.642 310.325 574.975 311.121 574.975 312.045C574.975 312.969 574.642 313.79 573.974 314.509C573.307 315.176 572.486 315.51 571.51 315.51Z" fill="#FAFAFA"/>
<path d="M530.741 355.55V287.02H543.215V288.406H533.436V354.164H543.215V355.55H530.741ZM599.752 355.55V354.164H609.531V288.406H599.752V287.02H612.226V355.55H599.752ZM688.723 344.77C686.618 344.77 684.899 344.103 683.564 342.768C682.281 341.433 681.639 339.56 681.639 337.147V311.968H674.863V311.275L682.101 309.35L684.642 300.88H685.489V309.35H695.653V311.968H685.489V336.993C685.489 338.584 685.977 339.791 686.952 340.612C687.927 341.382 689.211 341.767 690.802 341.767C691.931 341.767 692.958 341.639 693.882 341.382C694.806 341.125 695.679 340.766 696.5 340.304L696.577 340.381V340.689C696.166 341.562 695.294 342.46 693.959 343.384C692.624 344.308 690.879 344.77 688.723 344.77ZM722.224 344V342.845L727.075 341.536V289.946L721.454 288.483V287.328L730.155 286.25H730.925V314.124H731.079C732.978 312.173 734.775 310.762 736.469 309.889C738.163 309.016 740.062 308.58 742.167 308.58C745.401 308.58 748.045 309.478 750.098 311.275C752.203 313.072 753.255 315.69 753.255 319.129V341.536L758.106 342.845V344H743.938V342.845L749.405 341.536V321.208C749.405 318.077 748.558 315.715 746.864 314.124C745.221 312.481 743.04 311.66 740.319 311.66C738.779 311.66 737.111 312.045 735.314 312.815C733.517 313.534 732.054 314.586 730.925 315.972V341.536L736.392 342.845V344H722.224ZM800.419 344.77C796.775 344.77 793.695 344 791.179 342.46C788.715 340.92 786.842 338.841 785.558 336.223C784.326 333.605 783.71 330.653 783.71 327.368C783.71 323.877 784.429 320.72 785.866 317.897C787.355 315.074 789.28 312.815 791.641 311.121C794.054 309.427 796.672 308.58 799.495 308.58C803.551 308.58 806.733 309.915 809.043 312.584C811.353 315.253 812.688 318.949 813.047 323.672L812.816 323.903H787.637C787.586 324.673 787.56 325.494 787.56 326.367C787.56 330.884 788.767 334.555 791.179 337.378C793.643 340.15 797.083 341.536 801.497 341.536C803.91 341.536 806.092 341.177 808.042 340.458C810.044 339.739 811.61 338.764 812.739 337.532H812.97V338.533C811.841 340.33 810.173 341.818 807.965 342.999C805.809 344.18 803.294 344.77 800.419 344.77ZM798.571 310.274C796.056 310.274 793.797 311.326 791.795 313.431C789.793 315.484 788.484 318.41 787.868 322.209H808.812C808.299 318.462 807.247 315.536 805.655 313.431C804.064 311.326 801.703 310.274 798.571 310.274ZM891.699 332.373C890.159 332.373 888.696 332.116 887.31 331.603C885.616 332.322 884.435 333.092 883.768 333.913C883.1 334.734 882.767 335.684 882.767 336.762C882.767 338.507 883.383 339.765 884.615 340.535C885.847 341.305 887.746 341.69 890.313 341.69H899.014C902.042 341.69 904.352 342.409 905.944 343.846C907.586 345.283 908.408 347.26 908.408 349.775C908.408 351.88 907.689 353.907 906.252 355.858C904.814 357.809 902.812 359.4 900.246 360.632C897.679 361.864 894.65 362.48 891.16 362.48C886.694 362.48 883.485 361.582 881.535 359.785C879.584 358.04 878.609 355.884 878.609 353.317C878.609 351.418 878.994 349.775 879.764 348.389L884.461 344.462V344.308C881.124 343.333 879.456 341.305 879.456 338.225C879.456 336.531 880.02 335.119 881.15 333.99L885.693 331.295V330.91C883.845 329.935 882.382 328.549 881.304 326.752C880.226 324.904 879.687 322.825 879.687 320.515C879.687 318.256 880.2 316.229 881.227 314.432C882.305 312.635 883.742 311.224 885.539 310.197C887.335 309.119 889.389 308.58 891.699 308.58C892.828 308.58 894.06 308.734 895.395 309.042C896.729 309.299 897.782 309.607 898.552 309.966L909.024 309.35V312.507L901.247 311.968L901.093 312.122C901.914 312.995 902.53 314.227 902.941 315.818C903.403 317.358 903.634 318.924 903.634 320.515C903.634 322.774 903.12 324.801 902.094 326.598C901.067 328.395 899.655 329.806 897.859 330.833C896.062 331.86 894.009 332.373 891.699 332.373ZM892.469 330.833C894.676 330.833 896.421 329.96 897.705 328.215C899.039 326.418 899.707 323.903 899.707 320.669C899.707 317.127 898.885 314.483 897.243 312.738C895.6 310.941 893.572 310.043 891.16 310.043C888.798 310.043 886.95 310.967 885.616 312.815C884.281 314.612 883.614 317.101 883.614 320.284C883.614 323.826 884.435 326.47 886.078 328.215C887.772 329.96 889.902 330.833 892.469 330.833ZM882.151 352.47C882.151 354.831 883.126 356.808 885.077 358.399C887.079 359.99 889.517 360.786 892.392 360.786C894.856 360.786 897.037 360.324 898.937 359.4C900.836 358.527 902.325 357.347 903.403 355.858C904.481 354.421 905.02 352.881 905.02 351.238C905.02 348.774 904.378 347.08 903.095 346.156C901.863 345.232 899.63 344.77 896.396 344.77H888.311C887.541 344.77 886.796 344.719 886.078 344.616C884.589 345.489 883.562 346.541 882.998 347.773C882.433 349.056 882.151 350.622 882.151 352.47ZM943.74 344.77C941.378 344.77 939.402 344.077 937.811 342.691C936.219 341.254 935.424 339.277 935.424 336.762C935.424 334.298 936.296 332.245 938.042 330.602C939.838 328.959 942.79 327.625 946.897 326.598L954.443 324.673V318.282C954.443 316.075 953.647 314.304 952.056 312.969C950.464 311.583 948.642 310.89 946.589 310.89C944.381 310.89 942.816 311.352 941.892 312.276C941.019 313.149 940.583 314.355 940.583 315.895V319.052L940.198 319.437H938.196C937.374 319.437 936.835 319.309 936.579 319.052C936.322 318.795 936.194 318.308 936.194 317.589C936.194 316.614 936.527 315.613 937.195 314.586C937.862 313.559 938.837 312.635 940.121 311.814C941.507 310.941 942.893 310.197 944.279 309.581C945.716 308.914 947.076 308.58 948.36 308.58C951.44 308.58 953.852 309.273 955.598 310.659C957.394 311.994 958.293 314.098 958.293 316.973V340.92C958.703 341.279 959.165 341.562 959.679 341.767C960.243 341.972 960.885 342.075 961.604 342.075H965.608L965.685 342.152V342.306C965.325 342.819 964.735 343.358 963.914 343.923C963.092 344.488 961.989 344.77 960.603 344.77C958.806 344.77 957.42 344.308 956.445 343.384C955.469 342.46 954.879 341.382 954.674 340.15H954.52C953.185 341.485 951.568 342.588 949.669 343.461C947.821 344.334 945.844 344.77 943.74 344.77ZM939.274 335.376C939.274 337.481 939.864 339.072 941.045 340.15C942.225 341.177 943.894 341.69 946.05 341.69C947.333 341.69 948.719 341.51 950.208 341.151C951.696 340.74 953.108 340.124 954.443 339.303V326.29C950.182 327.163 946.948 328.035 944.741 328.908C942.585 329.781 941.122 330.73 940.352 331.757C939.633 332.784 939.274 333.99 939.274 335.376ZM1000.65 344.77C998.55 344.77 996.83 344.103 995.495 342.768C994.212 341.433 993.57 339.56 993.57 337.147V311.968H986.794V311.275L994.032 309.35L996.573 300.88H997.42V309.35H1007.58V311.968H997.42V336.993C997.42 338.584 997.908 339.791 998.883 340.612C999.859 341.382 1001.14 341.767 1002.73 341.767C1003.86 341.767 1004.89 341.639 1005.81 341.382C1006.74 341.125 1007.61 340.766 1008.43 340.304L1008.51 340.381V340.689C1008.1 341.562 1007.22 342.46 1005.89 343.384C1004.56 344.308 1002.81 344.77 1000.65 344.77ZM1034.16 344V342.845L1039.01 341.536V289.946L1033.39 288.483V287.328L1042.09 286.25H1042.86V314.124H1043.01C1044.91 312.173 1046.71 310.762 1048.4 309.889C1050.09 309.016 1051.99 308.58 1054.1 308.58C1057.33 308.58 1059.98 309.478 1062.03 311.275C1064.13 313.072 1065.19 315.69 1065.19 319.129V341.536L1070.04 342.845V344H1055.87V342.845L1061.34 341.536V321.208C1061.34 318.077 1060.49 315.715 1058.8 314.124C1057.15 312.481 1054.97 311.66 1052.25 311.66C1050.71 311.66 1049.04 312.045 1047.25 312.815C1045.45 313.534 1043.99 314.586 1042.86 315.972V341.536L1048.32 342.845V344H1034.16ZM1112.35 344.77C1108.71 344.77 1105.63 344 1103.11 342.46C1100.65 340.92 1098.77 338.841 1097.49 336.223C1096.26 333.605 1095.64 330.653 1095.64 327.368C1095.64 323.877 1096.36 320.72 1097.8 317.897C1099.29 315.074 1101.21 312.815 1103.57 311.121C1105.99 309.427 1108.6 308.58 1111.43 308.58C1115.48 308.58 1118.66 309.915 1120.97 312.584C1123.28 315.253 1124.62 318.949 1124.98 323.672L1124.75 323.903H1099.57C1099.52 324.673 1099.49 325.494 1099.49 326.367C1099.49 330.884 1100.7 334.555 1103.11 337.378C1105.57 340.15 1109.01 341.536 1113.43 341.536C1115.84 341.536 1118.02 341.177 1119.97 340.458C1121.98 339.739 1123.54 338.764 1124.67 337.532H1124.9V338.533C1123.77 340.33 1122.1 341.818 1119.9 342.999C1117.74 344.18 1115.23 344.77 1112.35 344.77ZM1110.5 310.274C1107.99 310.274 1105.73 311.326 1103.73 313.431C1101.72 315.484 1100.42 318.41 1099.8 322.209H1120.74C1120.23 318.462 1119.18 315.536 1117.59 313.431C1116 311.326 1113.63 310.274 1110.5 310.274ZM1152.5 344V342.845L1157.35 341.536V312.276L1151.73 311.583V310.428L1160.05 308.58H1160.82L1161.2 315.433H1161.36C1163.36 313.328 1164.95 311.788 1166.13 310.813C1167.31 309.838 1168.29 309.222 1169.06 308.965C1169.83 308.708 1170.7 308.58 1171.67 308.58C1172.55 308.58 1173.34 308.734 1174.06 309.042C1174.58 309.247 1174.93 309.453 1175.14 309.658C1175.4 309.812 1175.52 310.043 1175.52 310.351C1175.52 310.454 1175.5 310.582 1175.45 310.736C1175.45 310.839 1175.42 310.993 1175.37 311.198L1174.6 313.2H1174.45L1172.98 312.507C1172.27 312.148 1171.32 311.968 1170.13 311.968C1168.65 311.968 1167.16 312.379 1165.67 313.2C1164.18 314.021 1162.69 315.459 1161.2 317.512V341.536L1167.13 342.845V344H1152.5ZM1205.04 296.414C1204.22 296.414 1203.53 296.132 1202.96 295.567C1202.4 295.002 1202.12 294.309 1202.12 293.488C1202.12 292.667 1202.4 291.974 1202.96 291.409C1203.53 290.844 1204.22 290.562 1205.04 290.562C1205.86 290.562 1206.56 290.844 1207.12 291.409C1207.68 291.974 1207.97 292.667 1207.97 293.488C1207.97 294.309 1207.68 295.002 1207.12 295.567C1206.56 296.132 1205.86 296.414 1205.04 296.414ZM1199.34 344V342.845L1204.19 341.536V312.276L1198.57 310.813V309.658L1207.27 308.58H1208.04V341.536L1213.51 342.845V344H1199.34ZM1240.98 344V342.845L1245.83 341.536V312.276L1240.21 311.583V310.428L1248.53 308.58H1249.3L1249.61 314.124H1249.84C1251.74 312.173 1253.53 310.762 1255.23 309.889C1256.92 309.016 1258.82 308.58 1260.92 308.58C1264.16 308.58 1266.8 309.478 1268.86 311.275C1270.96 313.072 1272.01 315.69 1272.01 319.129V341.536L1276.86 342.845V344H1262.7V342.845L1268.16 341.536V321.208C1268.16 318.077 1267.32 315.715 1265.62 314.124C1263.98 312.481 1261.8 311.66 1259.08 311.66C1257.54 311.66 1255.87 312.045 1254.07 312.815C1252.27 313.534 1250.81 314.586 1249.68 315.972V341.536L1255.15 342.845V344H1240.98ZM1316.4 332.373C1314.86 332.373 1313.4 332.116 1312.02 331.603C1310.32 332.322 1309.14 333.092 1308.47 333.913C1307.81 334.734 1307.47 335.684 1307.47 336.762C1307.47 338.507 1308.09 339.765 1309.32 340.535C1310.55 341.305 1312.45 341.69 1315.02 341.69H1323.72C1326.75 341.69 1329.06 342.409 1330.65 343.846C1332.29 345.283 1333.11 347.26 1333.11 349.775C1333.11 351.88 1332.4 353.907 1330.96 355.858C1329.52 357.809 1327.52 359.4 1324.95 360.632C1322.39 361.864 1319.36 362.48 1315.87 362.48C1311.4 362.48 1308.19 361.582 1306.24 359.785C1304.29 358.04 1303.31 355.884 1303.31 353.317C1303.31 351.418 1303.7 349.775 1304.47 348.389L1309.17 344.462V344.308C1305.83 343.333 1304.16 341.305 1304.16 338.225C1304.16 336.531 1304.73 335.119 1305.86 333.99L1310.4 331.295V330.91C1308.55 329.935 1307.09 328.549 1306.01 326.752C1304.93 324.904 1304.39 322.825 1304.39 320.515C1304.39 318.256 1304.91 316.229 1305.93 314.432C1307.01 312.635 1308.45 311.224 1310.24 310.197C1312.04 309.119 1314.09 308.58 1316.4 308.58C1317.53 308.58 1318.77 308.734 1320.1 309.042C1321.44 309.299 1322.49 309.607 1323.26 309.966L1333.73 309.35V312.507L1325.95 311.968L1325.8 312.122C1326.62 312.995 1327.24 314.227 1327.65 315.818C1328.11 317.358 1328.34 318.924 1328.34 320.515C1328.34 322.774 1327.83 324.801 1326.8 326.598C1325.77 328.395 1324.36 329.806 1322.56 330.833C1320.77 331.86 1318.71 332.373 1316.4 332.373ZM1317.17 330.833C1319.38 330.833 1321.13 329.96 1322.41 328.215C1323.75 326.418 1324.41 323.903 1324.41 320.669C1324.41 317.127 1323.59 314.483 1321.95 312.738C1320.31 310.941 1318.28 310.043 1315.87 310.043C1313.5 310.043 1311.66 310.967 1310.32 312.815C1308.99 314.612 1308.32 317.101 1308.32 320.284C1308.32 323.826 1309.14 326.47 1310.78 328.215C1312.48 329.96 1314.61 330.833 1317.17 330.833ZM1306.86 352.47C1306.86 354.831 1307.83 356.808 1309.78 358.399C1311.78 359.99 1314.22 360.786 1317.1 360.786C1319.56 360.786 1321.74 360.324 1323.64 359.4C1325.54 358.527 1327.03 357.347 1328.11 355.858C1329.19 354.421 1329.73 352.881 1329.73 351.238C1329.73 348.774 1329.08 347.08 1327.8 346.156C1326.57 345.232 1324.34 344.77 1321.1 344.77H1313.02C1312.25 344.77 1311.5 344.719 1310.78 344.616C1309.3 345.489 1308.27 346.541 1307.7 347.773C1307.14 349.056 1306.86 350.622 1306.86 352.47Z" fill="black"/>
<path d="M1408.41 344.385L1397.63 311.968L1392.78 310.505V309.35H1407.56V310.505L1401.63 311.814V312.045L1409.79 338.764H1410.1L1420.88 309.35H1422.04L1432.82 338.533H1433.13L1441.13 312.122V311.891L1434.9 310.505V309.35H1448.53V310.505L1443.6 311.968L1432.28 344.385H1431.51L1420.57 316.126L1409.18 344.385H1408.41ZM1476.23 296.414C1475.4 296.414 1474.71 296.132 1474.15 295.567C1473.58 295.002 1473.3 294.309 1473.3 293.488C1473.3 292.667 1473.58 291.974 1474.15 291.409C1474.71 290.844 1475.4 290.562 1476.23 290.562C1477.05 290.562 1477.74 290.844 1478.3 291.409C1478.87 291.974 1479.15 292.667 1479.15 293.488C1479.15 294.309 1478.87 295.002 1478.3 295.567C1477.74 296.132 1477.05 296.414 1476.23 296.414ZM1470.53 344V342.845L1475.38 341.536V312.276L1469.76 310.813V309.658L1478.46 308.58H1479.23V341.536L1484.7 342.845V344H1470.53ZM1512.34 344V342.691L1530.74 311.198H1516.73L1513.49 318.898H1512.26L1513.11 308.734H1513.42C1513.98 308.837 1514.67 308.965 1515.49 309.119C1516.32 309.273 1517.03 309.35 1517.65 309.35H1535.36V310.659L1516.88 342.152H1532.43L1534.67 334.683H1535.98V344H1512.34ZM1572.64 344.77C1570.28 344.77 1568.3 344.077 1566.71 342.691C1565.12 341.254 1564.32 339.277 1564.32 336.762C1564.32 334.298 1565.2 332.245 1566.94 330.602C1568.74 328.959 1571.69 327.625 1575.8 326.598L1583.34 324.673V318.282C1583.34 316.075 1582.55 314.304 1580.96 312.969C1579.36 311.583 1577.54 310.89 1575.49 310.89C1573.28 310.89 1571.72 311.352 1570.79 312.276C1569.92 313.149 1569.48 314.355 1569.48 315.895V319.052L1569.1 319.437H1567.1C1566.27 319.437 1565.74 319.309 1565.48 319.052C1565.22 318.795 1565.09 318.308 1565.09 317.589C1565.09 316.614 1565.43 315.613 1566.1 314.586C1566.76 313.559 1567.74 312.635 1569.02 311.814C1570.41 310.941 1571.79 310.197 1573.18 309.581C1574.62 308.914 1575.98 308.58 1577.26 308.58C1580.34 308.58 1582.75 309.273 1584.5 310.659C1586.29 311.994 1587.19 314.098 1587.19 316.973V340.92C1587.6 341.279 1588.07 341.562 1588.58 341.767C1589.14 341.972 1589.79 342.075 1590.5 342.075H1594.51L1594.59 342.152V342.306C1594.23 342.819 1593.64 343.358 1592.81 343.923C1591.99 344.488 1590.89 344.77 1589.5 344.77C1587.71 344.77 1586.32 344.308 1585.35 343.384C1584.37 342.46 1583.78 341.382 1583.57 340.15H1583.42C1582.09 341.485 1580.47 342.588 1578.57 343.461C1576.72 344.334 1574.74 344.77 1572.64 344.77ZM1568.17 335.376C1568.17 337.481 1568.76 339.072 1569.95 340.15C1571.13 341.177 1572.79 341.69 1574.95 341.69C1576.23 341.69 1577.62 341.51 1579.11 341.151C1580.6 340.74 1582.01 340.124 1583.34 339.303V326.29C1579.08 327.163 1575.85 328.035 1573.64 328.908C1571.49 329.781 1570.02 330.73 1569.25 331.757C1568.53 332.784 1568.17 333.99 1568.17 335.376ZM1619.08 344V342.845L1623.93 341.536V312.276L1618.31 311.583V310.428L1626.63 308.58H1627.4L1627.78 315.433H1627.94C1629.94 313.328 1631.53 311.788 1632.71 310.813C1633.89 309.838 1634.87 309.222 1635.64 308.965C1636.41 308.708 1637.28 308.58 1638.26 308.58C1639.13 308.58 1639.92 308.734 1640.64 309.042C1641.16 309.247 1641.52 309.453 1641.72 309.658C1641.98 309.812 1642.11 310.043 1642.11 310.351C1642.11 310.454 1642.08 310.582 1642.03 310.736C1642.03 310.839 1642 310.993 1641.95 311.198L1641.18 313.2H1641.03L1639.56 312.507C1638.85 312.148 1637.9 311.968 1636.72 311.968C1635.23 311.968 1633.74 312.379 1632.25 313.2C1630.76 314.021 1629.27 315.459 1627.78 317.512V341.536L1633.71 342.845V344H1619.08ZM1678.01 344.77C1675.45 344.77 1673.16 344.103 1671.16 342.768C1669.16 341.433 1667.57 339.56 1666.39 337.147C1665.26 334.683 1664.69 331.757 1664.69 328.369C1664.69 324.16 1665.51 320.592 1667.16 317.666C1668.8 314.689 1670.98 312.43 1673.7 310.89C1676.42 309.35 1679.42 308.58 1682.71 308.58C1683.84 308.58 1685.02 308.785 1686.25 309.196C1687.48 309.555 1688.69 310.043 1689.87 310.659V289.946L1684.25 288.483V287.328L1692.95 286.25H1693.72V341.536L1699.19 342.845V344H1690.64L1689.95 340.073H1689.56C1687.82 341.562 1686 342.717 1684.1 343.538C1682.25 344.359 1680.22 344.77 1678.01 344.77ZM1668.31 327.137C1668.31 330.576 1668.88 333.425 1670 335.684C1671.13 337.891 1672.6 339.534 1674.39 340.612C1676.24 341.639 1678.14 342.152 1680.09 342.152C1681.79 342.152 1683.48 341.844 1685.17 341.228C1686.87 340.612 1688.43 339.611 1689.87 338.225V313.431C1688.28 312.558 1686.69 311.865 1685.1 311.352C1683.51 310.839 1681.81 310.582 1680.01 310.582C1677.91 310.582 1675.96 311.121 1674.16 312.199C1672.42 313.277 1671.01 315.048 1669.93 317.512C1668.85 319.925 1668.31 323.133 1668.31 327.137Z" fill="#CDEBC2"/>
<ellipse cx="24.4211" cy="24.0007" rx="24.4211" ry="24.0007" transform="matrix(1 0 0 -1 57 270.001)" fill="black"/>
<ellipse cx="24.4211" cy="24.0007" rx="24.4211" ry="24.0007" transform="matrix(1 0 0 -1 57 419.001)" fill="black"/>
<ellipse cx="762.29" cy="139.711" rx="13.29" ry="13.2913" fill="#424242"/>
<ellipse cx="762.29" cy="13.7113" rx="13.29" ry="13.2913" fill="#424242"/>
<line x1="762.221" y1="135.424" x2="762.221" y2="25.4243" stroke="#424242" stroke-width="2.4"/>
</svg>
