<svg width="1656" height="446" viewBox="0 0 1656 446" fill="none" xmlns="http://www.w3.org/2000/svg">
<rect x="0.55" y="0.55" width="1654.9" height="130.9" rx="3.45" fill="white" stroke="#424242" stroke-width="1.1"/>
<path d="M337.116 83V82.16L340.644 81.208V59.704H335.716V57.8H340.644V55.56C340.644 54.0667 340.887 52.48 341.372 50.8C341.895 49.12 342.641 47.5333 343.612 46.04C344.62 44.5467 345.871 43.3333 347.364 42.4C348.857 41.4667 350.593 41 352.572 41C353.057 41 353.487 41.0747 353.86 41.224C354.457 41.4853 354.756 41.784 354.756 42.12C354.756 42.344 354.7 42.5867 354.588 42.848L353.972 44.36H353.86L352.684 43.968C351.527 43.5947 350.407 43.408 349.324 43.408C347.42 43.408 345.964 44.192 344.956 45.76C343.948 47.328 343.444 49.848 343.444 53.32V57.8H350.836V59.704H343.444V81.208L347.756 82.16V83H337.116ZM378.448 83V82.16L381.976 81.208V59.928L377.888 59.424V58.584L383.936 57.24H384.496L384.776 62.224H384.888C386.344 60.6933 387.502 59.5733 388.36 58.864C389.219 58.1547 389.928 57.7067 390.488 57.52C391.048 57.3333 391.683 57.24 392.392 57.24C393.027 57.24 393.606 57.352 394.128 57.576C394.502 57.7253 394.763 57.8747 394.912 58.024C395.099 58.136 395.192 58.304 395.192 58.528C395.192 58.6027 395.174 58.696 395.136 58.808C395.136 58.8827 395.118 58.9947 395.08 59.144L394.52 60.6H394.408L393.344 60.096C392.822 59.8347 392.131 59.704 391.272 59.704C390.19 59.704 389.107 60.0027 388.024 60.6C386.942 61.1973 385.859 62.2427 384.776 63.736V81.208L389.088 82.16V83H378.448ZM421.251 91.4V41.56H430.323V42.568H423.211V90.392H430.323V91.4H421.251ZM444.293 83.56C442.576 83.56 441.138 83.056 439.981 82.048C438.824 81.0027 438.245 79.5653 438.245 77.736C438.245 75.944 438.88 74.4507 440.149 73.256C441.456 72.0613 443.602 71.0907 446.589 70.344L452.077 68.944V64.296C452.077 62.6907 451.498 61.4027 450.341 60.432C449.184 59.424 447.858 58.92 446.365 58.92C444.76 58.92 443.621 59.256 442.949 59.928C442.314 60.5627 441.997 61.44 441.997 62.56V64.856L441.717 65.136H440.261C439.664 65.136 439.272 65.0427 439.085 64.856C438.898 64.6693 438.805 64.3147 438.805 63.792C438.805 63.0827 439.048 62.3547 439.533 61.608C440.018 60.8613 440.728 60.1893 441.661 59.592C442.669 58.9573 443.677 58.416 444.685 57.968C445.73 57.4827 446.72 57.24 447.653 57.24C449.893 57.24 451.648 57.744 452.917 58.752C454.224 59.7227 454.877 61.2533 454.877 63.344V80.76C455.176 81.0213 455.512 81.2267 455.885 81.376C456.296 81.5253 456.762 81.6 457.285 81.6H460.197L460.253 81.656V81.768C459.992 82.1413 459.562 82.5333 458.965 82.944C458.368 83.3547 457.565 83.56 456.557 83.56C455.25 83.56 454.242 83.224 453.533 82.552C452.824 81.88 452.394 81.096 452.245 80.2H452.133C451.162 81.1707 449.986 81.9733 448.605 82.608C447.261 83.2427 445.824 83.56 444.293 83.56ZM441.045 76.728C441.045 78.2587 441.474 79.416 442.333 80.2C443.192 80.9467 444.405 81.32 445.973 81.32C446.906 81.32 447.914 81.1893 448.997 80.928C450.08 80.6293 451.106 80.1813 452.077 79.584V70.12C448.978 70.7547 446.626 71.3893 445.021 72.024C443.453 72.6587 442.389 73.3493 441.829 74.096C441.306 74.8427 441.045 75.72 441.045 76.728ZM466.085 91.4V90.392H473.197V42.568H466.085V41.56H475.157V91.4H466.085ZM504.472 83V82.16L508 81.208V59.928L503.912 59.424V58.584L509.96 57.24H510.52L510.744 61.272H510.912C512.293 59.8533 513.6 58.8267 514.832 58.192C516.064 57.5573 517.445 57.24 518.976 57.24C521.328 57.24 523.25 57.8933 524.744 59.2C526.274 60.5067 527.04 62.4107 527.04 64.912V81.208L530.568 82.16V83H520.264V82.16L524.24 81.208V66.424C524.24 64.1467 523.624 62.4293 522.392 61.272C521.197 60.0773 519.61 59.48 517.632 59.48C516.512 59.48 515.298 59.76 513.992 60.32C512.685 60.8427 511.621 61.608 510.8 62.616V81.208L514.776 82.16V83H504.472ZM570.413 83.56C567.8 83.56 565.597 83 563.805 81.88C562.05 80.76 560.706 79.248 559.773 77.344C558.877 75.44 558.429 73.2933 558.429 70.904C558.429 68.2907 558.952 65.9573 559.997 63.904C561.08 61.8133 562.554 60.1893 564.421 59.032C566.325 57.8373 568.472 57.24 570.861 57.24C572.354 57.24 573.68 57.4453 574.837 57.856C575.994 58.2667 576.928 58.7147 577.637 59.2C578.832 60.0213 579.429 60.7307 579.429 61.328C579.429 61.5893 579.298 61.832 579.037 62.056L577.525 63.344H577.301L576.573 62.336C575.752 61.216 574.856 60.3013 573.885 59.592C572.952 58.8453 571.738 58.472 570.245 58.472C567.632 58.472 565.466 59.4613 563.749 61.44C562.069 63.3813 561.229 66.2933 561.229 70.176C561.229 73.4613 562.088 76.1307 563.805 78.184C565.56 80.2 568.024 81.208 571.197 81.208C572.914 81.208 574.501 80.9467 575.957 80.424C577.413 79.9013 578.552 79.192 579.373 78.296H579.541V79.024C578.682 80.3307 577.469 81.4133 575.901 82.272C574.333 83.1307 572.504 83.56 570.413 83.56ZM608.083 91.4V41.56H617.155V42.568H610.043V90.392H617.155V91.4H608.083ZM630.117 48.392C629.52 48.392 629.016 48.1867 628.605 47.776C628.195 47.3653 627.989 46.8613 627.989 46.264C627.989 45.6667 628.195 45.1627 628.605 44.752C629.016 44.3413 629.52 44.136 630.117 44.136C630.715 44.136 631.219 44.3413 631.629 44.752C632.04 45.1627 632.245 45.6667 632.245 46.264C632.245 46.8613 632.04 47.3653 631.629 47.776C631.219 48.1867 630.715 48.392 630.117 48.392ZM625.973 83V82.16L629.501 81.208V59.928L625.413 58.864V58.024L631.741 57.24H632.301V81.208L636.277 82.16V83H625.973ZM644.496 91.4V90.392H651.608V42.568H644.496V41.56H653.568V91.4H644.496ZM689.826 83.56C688.519 83.56 687.343 83.4107 686.298 83.112C685.29 82.8507 684.245 82.4587 683.162 81.936V76.112H683.834L684.618 78.632C684.954 79.752 685.57 80.648 686.466 81.32C687.362 81.9547 688.631 82.272 690.274 82.272C692.066 82.272 693.447 81.8427 694.418 80.984C695.426 80.088 695.93 78.8187 695.93 77.176C695.93 75.72 695.538 74.5813 694.754 73.76C693.97 72.9013 692.514 72.0427 690.386 71.184C688.146 70.288 686.485 69.3173 685.402 68.272C684.357 67.2267 683.834 65.7333 683.834 63.792C683.834 62.5973 684.151 61.5147 684.786 60.544C685.458 59.536 686.335 58.7333 687.418 58.136C688.501 57.5387 689.658 57.24 690.89 57.24C692.271 57.24 693.503 57.408 694.586 57.744C695.669 58.0427 696.602 58.3973 697.386 58.808V64.52H696.714L695.986 62.112C695.613 60.8053 694.903 59.872 693.858 59.312C692.85 58.752 691.823 58.472 690.778 58.472C689.322 58.472 688.202 58.9013 687.418 59.76C686.671 60.6187 686.298 61.7387 686.298 63.12C686.298 64.5013 686.709 65.584 687.53 66.368C688.351 67.152 689.677 67.9173 691.506 68.664C693.149 69.336 694.474 69.9893 695.482 70.624C696.527 71.2587 697.293 72.0427 697.778 72.976C698.263 73.872 698.506 75.0293 698.506 76.448C698.506 77.7173 698.151 78.8933 697.442 79.976C696.733 81.0587 695.725 81.936 694.418 82.608C693.111 83.2427 691.581 83.56 689.826 83.56ZM728.369 91.4V41.56H737.441V42.568H730.329V90.392H737.441V91.4H728.369ZM743.403 91.4V90.392H750.515V42.568H743.403V41.56H752.475V91.4H743.403ZM793.326 83.56C790.712 83.56 788.51 83 786.718 81.88C784.963 80.76 783.619 79.248 782.686 77.344C781.79 75.44 781.342 73.2933 781.342 70.904C781.342 68.2907 781.864 65.9573 782.91 63.904C783.992 61.8133 785.467 60.1893 787.334 59.032C789.238 57.8373 791.384 57.24 793.774 57.24C795.267 57.24 796.592 57.4453 797.75 57.856C798.907 58.2667 799.84 58.7147 800.55 59.2C801.744 60.0213 802.342 60.7307 802.342 61.328C802.342 61.5893 802.211 61.832 801.95 62.056L800.438 63.344H800.214L799.486 62.336C798.664 61.216 797.768 60.3013 796.798 59.592C795.864 58.8453 794.651 58.472 793.158 58.472C790.544 58.472 788.379 59.4613 786.662 61.44C784.982 63.3813 784.142 66.2933 784.142 70.176C784.142 73.4613 785 76.1307 786.718 78.184C788.472 80.2 790.936 81.208 794.11 81.208C795.827 81.208 797.414 80.9467 798.87 80.424C800.326 79.9013 801.464 79.192 802.286 78.296H802.454V79.024C801.595 80.3307 800.382 81.4133 798.814 82.272C797.246 83.1307 795.416 83.56 793.326 83.56ZM830.996 91.4V41.56H840.068V42.568H832.956V90.392H840.068V91.4H830.996ZM854.038 83.56C852.321 83.56 850.883 83.056 849.726 82.048C848.569 81.0027 847.99 79.5653 847.99 77.736C847.99 75.944 848.625 74.4507 849.894 73.256C851.201 72.0613 853.347 71.0907 856.334 70.344L861.822 68.944V64.296C861.822 62.6907 861.243 61.4027 860.086 60.432C858.929 59.424 857.603 58.92 856.11 58.92C854.505 58.92 853.366 59.256 852.694 59.928C852.059 60.5627 851.742 61.44 851.742 62.56V64.856L851.462 65.136H850.006C849.409 65.136 849.017 65.0427 848.83 64.856C848.643 64.6693 848.55 64.3147 848.55 63.792C848.55 63.0827 848.793 62.3547 849.278 61.608C849.763 60.8613 850.473 60.1893 851.406 59.592C852.414 58.9573 853.422 58.416 854.43 57.968C855.475 57.4827 856.465 57.24 857.398 57.24C859.638 57.24 861.393 57.744 862.662 58.752C863.969 59.7227 864.622 61.2533 864.622 63.344V80.76C864.921 81.0213 865.257 81.2267 865.63 81.376C866.041 81.5253 866.507 81.6 867.03 81.6H869.942L869.998 81.656V81.768C869.737 82.1413 869.307 82.5333 868.71 82.944C868.113 83.3547 867.31 83.56 866.302 83.56C864.995 83.56 863.987 83.224 863.278 82.552C862.569 81.88 862.139 81.096 861.99 80.2H861.878C860.907 81.1707 859.731 81.9733 858.35 82.608C857.006 83.2427 855.569 83.56 854.038 83.56ZM850.79 76.728C850.79 78.2587 851.219 79.416 852.078 80.2C852.937 80.9467 854.15 81.32 855.718 81.32C856.651 81.32 857.659 81.1893 858.742 80.928C859.825 80.6293 860.851 80.1813 861.822 79.584V70.12C858.723 70.7547 856.371 71.3893 854.766 72.024C853.198 72.6587 852.134 73.3493 851.574 74.096C851.051 74.8427 850.79 75.72 850.79 76.728ZM875.83 91.4V90.392H882.942V42.568H875.83V41.56H884.902V91.4H875.83ZM925.753 83.56C923.139 83.56 920.937 83 919.145 81.88C917.39 80.76 916.046 79.248 915.113 77.344C914.217 75.44 913.769 73.2933 913.769 70.904C913.769 68.2907 914.291 65.9573 915.337 63.904C916.419 61.8133 917.894 60.1893 919.761 59.032C921.665 57.8373 923.811 57.24 926.201 57.24C927.694 57.24 929.019 57.4453 930.177 57.856C931.334 58.2667 932.267 58.7147 932.977 59.2C934.171 60.0213 934.769 60.7307 934.769 61.328C934.769 61.5893 934.638 61.832 934.377 62.056L932.865 63.344H932.641L931.913 62.336C931.091 61.216 930.195 60.3013 929.225 59.592C928.291 58.8453 927.078 58.472 925.585 58.472C922.971 58.472 920.806 59.4613 919.089 61.44C917.409 63.3813 916.569 66.2933 916.569 70.176C916.569 73.4613 917.427 76.1307 919.145 78.184C920.899 80.2 923.363 81.208 926.537 81.208C928.254 81.208 929.841 80.9467 931.297 80.424C932.753 79.9013 933.891 79.192 934.713 78.296H934.881V79.024C934.022 80.3307 932.809 81.4133 931.241 82.272C929.673 83.1307 927.843 83.56 925.753 83.56ZM975.127 83.56C972.513 83.56 970.311 83 968.519 81.88C966.764 80.76 965.42 79.248 964.487 77.344C963.591 75.44 963.143 73.2933 963.143 70.904C963.143 68.2907 963.665 65.9573 964.711 63.904C965.793 61.8133 967.268 60.1893 969.135 59.032C971.039 57.8373 973.185 57.24 975.575 57.24C977.068 57.24 978.393 57.4453 979.551 57.856C980.708 58.2667 981.641 58.7147 982.351 59.2C983.545 60.0213 984.143 60.7307 984.143 61.328C984.143 61.5893 984.012 61.832 983.751 62.056L982.239 63.344H982.015L981.287 62.336C980.465 61.216 979.569 60.3013 978.599 59.592C977.665 58.8453 976.452 58.472 974.959 58.472C972.345 58.472 970.18 59.4613 968.463 61.44C966.783 63.3813 965.943 66.2933 965.943 70.176C965.943 73.4613 966.801 76.1307 968.519 78.184C970.273 80.2 972.737 81.208 975.911 81.208C977.628 81.208 979.215 80.9467 980.671 80.424C982.127 79.9013 983.265 79.192 984.087 78.296H984.255V79.024C983.396 80.3307 982.183 81.4133 980.615 82.272C979.047 83.1307 977.217 83.56 975.127 83.56ZM1012.8 91.4V41.56H1021.87V42.568H1014.76V90.392H1021.87V91.4H1012.8ZM1035.84 83.56C1034.12 83.56 1032.68 83.056 1031.53 82.048C1030.37 81.0027 1029.79 79.5653 1029.79 77.736C1029.79 75.944 1030.43 74.4507 1031.7 73.256C1033 72.0613 1035.15 71.0907 1038.14 70.344L1043.62 68.944V64.296C1043.62 62.6907 1043.04 61.4027 1041.89 60.432C1040.73 59.424 1039.4 58.92 1037.91 58.92C1036.31 58.92 1035.17 59.256 1034.5 59.928C1033.86 60.5627 1033.54 61.44 1033.54 62.56V64.856L1033.26 65.136H1031.81C1031.21 65.136 1030.82 65.0427 1030.63 64.856C1030.44 64.6693 1030.35 64.3147 1030.35 63.792C1030.35 63.0827 1030.59 62.3547 1031.08 61.608C1031.56 60.8613 1032.27 60.1893 1033.21 59.592C1034.22 58.9573 1035.22 58.416 1036.23 57.968C1037.28 57.4827 1038.27 57.24 1039.2 57.24C1041.44 57.24 1043.19 57.744 1044.46 58.752C1045.77 59.7227 1046.42 61.2533 1046.42 63.344V80.76C1046.72 81.0213 1047.06 81.2267 1047.43 81.376C1047.84 81.5253 1048.31 81.6 1048.83 81.6H1051.74L1051.8 81.656V81.768C1051.54 82.1413 1051.11 82.5333 1050.51 82.944C1049.91 83.3547 1049.11 83.56 1048.1 83.56C1046.8 83.56 1045.79 83.224 1045.08 82.552C1044.37 81.88 1043.94 81.096 1043.79 80.2H1043.68C1042.71 81.1707 1041.53 81.9733 1040.15 82.608C1038.81 83.2427 1037.37 83.56 1035.84 83.56ZM1032.59 76.728C1032.59 78.2587 1033.02 79.416 1033.88 80.2C1034.74 80.9467 1035.95 81.32 1037.52 81.32C1038.45 81.32 1039.46 81.1893 1040.54 80.928C1041.63 80.6293 1042.65 80.1813 1043.62 79.584V70.12C1040.52 70.7547 1038.17 71.3893 1036.57 72.024C1035 72.6587 1033.94 73.3493 1033.38 74.096C1032.85 74.8427 1032.59 75.72 1032.59 76.728ZM1057.63 91.4V90.392H1064.74V42.568H1057.63V41.56H1066.7V91.4H1057.63ZM1104.19 83.28L1095.07 59.704L1091.54 58.64V57.8H1102.29V58.64L1097.98 59.592V59.76L1105.2 79.36H1105.37L1112.48 59.816V59.648L1107.95 58.64V57.8H1117.86V58.64L1114.27 59.704L1104.75 83.28H1104.19ZM1142.54 91.4V41.56H1151.62V42.568H1144.5V90.392H1151.62V91.4H1142.54ZM1165.59 83.56C1163.87 83.56 1162.43 83.056 1161.27 82.048C1160.12 81.0027 1159.54 79.5653 1159.54 77.736C1159.54 75.944 1160.17 74.4507 1161.44 73.256C1162.75 72.0613 1164.9 71.0907 1167.88 70.344L1173.37 68.944V64.296C1173.37 62.6907 1172.79 61.4027 1171.63 60.432C1170.48 59.424 1169.15 58.92 1167.66 58.92C1166.05 58.92 1164.91 59.256 1164.24 59.928C1163.61 60.5627 1163.29 61.44 1163.29 62.56V64.856L1163.01 65.136H1161.55C1160.96 65.136 1160.56 65.0427 1160.38 64.856C1160.19 64.6693 1160.1 64.3147 1160.1 63.792C1160.1 63.0827 1160.34 62.3547 1160.83 61.608C1161.31 60.8613 1162.02 60.1893 1162.95 59.592C1163.96 58.9573 1164.97 58.416 1165.98 57.968C1167.02 57.4827 1168.01 57.24 1168.95 57.24C1171.19 57.24 1172.94 57.744 1174.21 58.752C1175.52 59.7227 1176.17 61.2533 1176.17 63.344V80.76C1176.47 81.0213 1176.8 81.2267 1177.18 81.376C1177.59 81.5253 1178.06 81.6 1178.58 81.6H1181.49L1181.55 81.656V81.768C1181.28 82.1413 1180.86 82.5333 1180.26 82.944C1179.66 83.3547 1178.86 83.56 1177.85 83.56C1176.54 83.56 1175.54 83.224 1174.83 82.552C1174.12 81.88 1173.69 81.096 1173.54 80.2H1173.43C1172.46 81.1707 1171.28 81.9733 1169.9 82.608C1168.55 83.2427 1167.12 83.56 1165.59 83.56ZM1162.34 76.728C1162.34 78.2587 1162.77 79.416 1163.63 80.2C1164.48 80.9467 1165.7 81.32 1167.27 81.32C1168.2 81.32 1169.21 81.1893 1170.29 80.928C1171.37 80.6293 1172.4 80.1813 1173.37 79.584V70.12C1170.27 70.7547 1167.92 71.3893 1166.31 72.024C1164.75 72.6587 1163.68 73.3493 1163.12 74.096C1162.6 74.8427 1162.34 75.72 1162.34 76.728ZM1187.38 91.4V90.392H1194.49V42.568H1187.38V41.56H1196.45V91.4H1187.38ZM1225.54 83V82.16L1229.07 81.208V43.688L1224.98 42.624V41.784L1231.31 41H1231.87V81.208L1235.84 82.16V83H1225.54ZM1264.36 91.4V41.56H1273.43V42.568H1266.32V90.392H1273.43V91.4H1264.36ZM1293.62 83.56C1290.97 83.56 1288.73 83 1286.9 81.88C1285.11 80.76 1283.75 79.248 1282.81 77.344C1281.92 75.44 1281.47 73.2933 1281.47 70.904C1281.47 68.3653 1281.99 66.0693 1283.04 64.016C1284.12 61.9627 1285.52 60.32 1287.24 59.088C1288.99 57.856 1290.89 57.24 1292.95 57.24C1295.9 57.24 1298.21 58.2107 1299.89 60.152C1301.57 62.0933 1302.54 64.7813 1302.8 68.216L1302.64 68.384H1284.32C1284.29 68.944 1284.27 69.5413 1284.27 70.176C1284.27 73.4613 1285.15 76.1307 1286.9 78.184C1288.69 80.2 1291.19 81.208 1294.4 81.208C1296.16 81.208 1297.75 80.9467 1299.16 80.424C1300.62 79.9013 1301.76 79.192 1302.58 78.296H1302.75V79.024C1301.93 80.3307 1300.71 81.4133 1299.11 82.272C1297.54 83.1307 1295.71 83.56 1293.62 83.56ZM1292.28 58.472C1290.45 58.472 1288.8 59.2373 1287.35 60.768C1285.89 62.2613 1284.94 64.3893 1284.49 67.152H1299.72C1299.35 64.4267 1298.59 62.2987 1297.43 60.768C1296.27 59.2373 1294.55 58.472 1292.28 58.472ZM1310.29 91.4V90.392H1317.4V42.568H1310.29V41.56H1319.36V91.4H1310.29Z" fill="#424242"/>
<rect x="165" y="132" width="1491" height="132" rx="4" fill="#424242"/>
<path d="M580.055 216V180.4H586.535V181.12H581.455V215.28H586.535V216H580.055ZM598.993 210.4C597.367 210.4 596.033 209.933 594.993 209C593.953 208.067 593.433 206.707 593.433 204.92V193.28L590.593 192.6V192H595.433V203.84C595.433 205.467 595.847 206.707 596.673 207.56C597.527 208.387 598.62 208.8 599.953 208.8C600.727 208.8 601.553 208.613 602.433 208.24C603.34 207.84 604.073 207.28 604.633 206.56V193.28L601.393 192.6V192H606.633V208.72L609.473 209.4V210H604.633V207.56H604.513C603.553 208.52 602.647 209.24 601.793 209.72C600.94 210.173 600.007 210.4 598.993 210.4ZM613.565 216V215.28H618.645V181.12H613.565V180.4H620.045V216H613.565ZM626.504 210V209.4L628.824 208.76L633.904 201L629.024 193.32L626.704 192.6V192H633.784V192.6L631.264 193.28V193.4L635.264 199.68L638.944 193.4V193.28L636.744 192.6V192H642.384V192.6L640.224 193.48L635.624 200.24L641.024 208.68L643.064 209.4V210H636.504V209.4L638.744 208.72V208.6L634.264 201.6L630.344 208.6V208.72L632.504 209.4V210H626.504ZM667.977 210.4C666.084 210.4 664.484 210 663.177 209.2C661.897 208.4 660.924 207.32 660.257 205.96C659.617 204.6 659.297 203.067 659.297 201.36C659.297 199.547 659.67 197.907 660.417 196.44C661.19 194.973 662.19 193.8 663.417 192.92C664.67 192.04 666.03 191.6 667.497 191.6C669.604 191.6 671.257 192.293 672.457 193.68C673.657 195.067 674.35 196.987 674.537 199.44L674.417 199.56H661.337C661.31 199.96 661.297 200.387 661.297 200.84C661.297 203.187 661.924 205.093 663.177 206.56C664.457 208 666.244 208.72 668.537 208.72C669.79 208.72 670.924 208.533 671.937 208.16C672.977 207.787 673.79 207.28 674.377 206.64H674.497V207.16C673.91 208.093 673.044 208.867 671.897 209.48C670.777 210.093 669.47 210.4 667.977 210.4ZM667.017 192.48C665.71 192.48 664.537 193.027 663.497 194.12C662.457 195.187 661.777 196.707 661.457 198.68H672.337C672.07 196.733 671.524 195.213 670.697 194.12C669.87 193.027 668.644 192.48 667.017 192.48ZM680.475 210V209.4L682.995 208.72V193.52L680.075 193.16V192.56L684.395 191.6H684.795L684.955 194.48H685.075C686.061 193.467 686.995 192.733 687.875 192.28C688.755 191.827 689.741 191.6 690.835 191.6C692.515 191.6 693.888 192.067 694.955 193C696.048 193.933 696.595 195.293 696.595 197.08V208.72L699.115 209.4V210H691.755V209.4L694.595 208.72V198.16C694.595 196.533 694.155 195.307 693.275 194.48C692.421 193.627 691.288 193.2 689.875 193.2C689.075 193.2 688.208 193.4 687.275 193.8C686.341 194.173 685.581 194.72 684.995 195.44V208.72L687.835 209.4V210H680.475ZM711.456 203.96C710.656 203.96 709.896 203.827 709.176 203.56C708.296 203.933 707.682 204.333 707.336 204.76C706.989 205.187 706.816 205.68 706.816 206.24C706.816 207.147 707.136 207.8 707.776 208.2C708.416 208.6 709.402 208.8 710.736 208.8H715.256C716.829 208.8 718.029 209.173 718.856 209.92C719.709 210.667 720.136 211.693 720.136 213C720.136 214.093 719.762 215.147 719.016 216.16C718.269 217.173 717.229 218 715.896 218.64C714.562 219.28 712.989 219.6 711.176 219.6C708.856 219.6 707.189 219.133 706.176 218.2C705.162 217.293 704.656 216.173 704.656 214.84C704.656 213.853 704.856 213 705.256 212.28L707.696 210.24V210.16C705.962 209.653 705.096 208.6 705.096 207C705.096 206.12 705.389 205.387 705.976 204.8L708.336 203.4V203.2C707.376 202.693 706.616 201.973 706.056 201.04C705.496 200.08 705.216 199 705.216 197.8C705.216 196.627 705.482 195.573 706.016 194.64C706.576 193.707 707.322 192.973 708.256 192.44C709.189 191.88 710.256 191.6 711.456 191.6C712.042 191.6 712.682 191.68 713.376 191.84C714.069 191.973 714.616 192.133 715.016 192.32L720.456 192V193.64L716.416 193.36L716.336 193.44C716.762 193.893 717.082 194.533 717.296 195.36C717.536 196.16 717.656 196.973 717.656 197.8C717.656 198.973 717.389 200.027 716.856 200.96C716.322 201.893 715.589 202.627 714.656 203.16C713.722 203.693 712.656 203.96 711.456 203.96ZM711.856 203.16C713.002 203.16 713.909 202.707 714.576 201.8C715.269 200.867 715.616 199.56 715.616 197.88C715.616 196.04 715.189 194.667 714.336 193.76C713.482 192.827 712.429 192.36 711.176 192.36C709.949 192.36 708.989 192.84 708.296 193.8C707.602 194.733 707.256 196.027 707.256 197.68C707.256 199.52 707.682 200.893 708.536 201.8C709.416 202.707 710.522 203.16 711.856 203.16ZM706.496 214.4C706.496 215.627 707.002 216.653 708.016 217.48C709.056 218.307 710.322 218.72 711.816 218.72C713.096 218.72 714.229 218.48 715.216 218C716.202 217.547 716.976 216.933 717.536 216.16C718.096 215.413 718.376 214.613 718.376 213.76C718.376 212.48 718.042 211.6 717.376 211.12C716.736 210.64 715.576 210.4 713.896 210.4H709.696C709.296 210.4 708.909 210.373 708.536 210.32C707.762 210.773 707.229 211.32 706.936 211.96C706.642 212.627 706.496 213.44 706.496 214.4ZM729.57 185.28C729.143 185.28 728.783 185.133 728.49 184.84C728.197 184.547 728.05 184.187 728.05 183.76C728.05 183.333 728.197 182.973 728.49 182.68C728.783 182.387 729.143 182.24 729.57 182.24C729.997 182.24 730.357 182.387 730.65 182.68C730.943 182.973 731.09 183.333 731.09 183.76C731.09 184.187 730.943 184.547 730.65 184.84C730.357 185.133 729.997 185.28 729.57 185.28ZM726.61 210V209.4L729.13 208.72V193.52L726.21 192.76V192.16L730.73 191.6H731.13V208.72L733.97 209.4V210H726.61ZM740.04 210V209.4L742.56 208.72V193.52L739.64 193.16V192.56L743.96 191.6H744.36L744.52 194.48H744.64C745.627 193.467 746.56 192.733 747.44 192.28C748.32 191.827 749.307 191.6 750.4 191.6C752.08 191.6 753.454 192.067 754.52 193C755.614 193.933 756.16 195.293 756.16 197.08V208.72L758.68 209.4V210H751.32V209.4L754.16 208.72V198.16C754.16 196.533 753.72 195.307 752.84 194.48C751.987 193.627 750.854 193.2 749.44 193.2C748.64 193.2 747.774 193.4 746.84 193.8C745.907 194.173 745.147 194.72 744.56 195.44V208.72L747.4 209.4V210H740.04ZM772.461 210.4C770.568 210.4 768.968 210 767.661 209.2C766.381 208.4 765.408 207.32 764.741 205.96C764.101 204.6 763.781 203.067 763.781 201.36C763.781 199.547 764.155 197.907 764.901 196.44C765.675 194.973 766.675 193.8 767.901 192.92C769.155 192.04 770.515 191.6 771.981 191.6C774.088 191.6 775.741 192.293 776.941 193.68C778.141 195.067 778.835 196.987 779.021 199.44L778.901 199.56H765.821C765.795 199.96 765.781 200.387 765.781 200.84C765.781 203.187 766.408 205.093 767.661 206.56C768.941 208 770.728 208.72 773.021 208.72C774.275 208.72 775.408 208.533 776.421 208.16C777.461 207.787 778.275 207.28 778.861 206.64H778.981V207.16C778.395 208.093 777.528 208.867 776.381 209.48C775.261 210.093 773.955 210.4 772.461 210.4ZM771.501 192.48C770.195 192.48 769.021 193.027 767.981 194.12C766.941 195.187 766.261 196.707 765.941 198.68H776.821C776.555 196.733 776.008 195.213 775.181 194.12C774.355 193.027 773.128 192.48 771.501 192.48ZM793.71 210.4C791.816 210.4 790.216 210 788.91 209.2C787.63 208.4 786.656 207.32 785.99 205.96C785.35 204.6 785.03 203.067 785.03 201.36C785.03 199.547 785.403 197.907 786.15 196.44C786.923 194.973 787.923 193.8 789.15 192.92C790.403 192.04 791.763 191.6 793.23 191.6C795.336 191.6 796.99 192.293 798.19 193.68C799.39 195.067 800.083 196.987 800.27 199.44L800.15 199.56H787.07C787.043 199.96 787.03 200.387 787.03 200.84C787.03 203.187 787.656 205.093 788.91 206.56C790.19 208 791.976 208.72 794.27 208.72C795.523 208.72 796.656 208.533 797.67 208.16C798.71 207.787 799.523 207.28 800.11 206.64H800.23V207.16C799.643 208.093 798.776 208.867 797.63 209.48C796.51 210.093 795.203 210.4 793.71 210.4ZM792.75 192.48C791.443 192.48 790.27 193.027 789.23 194.12C788.19 195.187 787.51 196.707 787.19 198.68H798.07C797.803 196.733 797.256 195.213 796.43 194.12C795.603 193.027 794.376 192.48 792.75 192.48ZM806.367 210V209.4L808.887 208.72V193.52L805.967 193.16V192.56L810.287 191.6H810.687L810.887 195.16H810.967C812.007 194.067 812.834 193.267 813.447 192.76C814.061 192.253 814.567 191.933 814.967 191.8C815.367 191.667 815.821 191.6 816.327 191.6C816.781 191.6 817.194 191.68 817.567 191.84C817.834 191.947 818.021 192.053 818.127 192.16C818.261 192.24 818.327 192.36 818.327 192.52C818.327 192.573 818.314 192.64 818.287 192.72C818.287 192.773 818.274 192.853 818.247 192.96L817.847 194H817.767L817.007 193.64C816.634 193.453 816.141 193.36 815.527 193.36C814.754 193.36 813.981 193.573 813.207 194C812.434 194.427 811.661 195.173 810.887 196.24V208.72L813.967 209.4V210H806.367ZM834.021 210V209.4L836.541 208.72V193.52L833.621 193.16V192.56L837.941 191.6H838.341L838.541 195.16H838.621C839.661 194.067 840.487 193.267 841.101 192.76C841.714 192.253 842.221 191.933 842.621 191.8C843.021 191.667 843.474 191.6 843.981 191.6C844.434 191.6 844.847 191.68 845.221 191.84C845.487 191.947 845.674 192.053 845.781 192.16C845.914 192.24 845.981 192.36 845.981 192.52C845.981 192.573 845.967 192.64 845.941 192.72C845.941 192.773 845.927 192.853 845.901 192.96L845.501 194H845.421L844.661 193.64C844.287 193.453 843.794 193.36 843.181 193.36C842.407 193.36 841.634 193.573 840.861 194C840.087 194.427 839.314 195.173 838.541 196.24V208.72L841.621 209.4V210H834.021ZM858.274 210.4C856.38 210.4 854.78 210 853.474 209.2C852.194 208.4 851.22 207.32 850.554 205.96C849.914 204.6 849.594 203.067 849.594 201.36C849.594 199.547 849.967 197.907 850.714 196.44C851.487 194.973 852.487 193.8 853.714 192.92C854.967 192.04 856.327 191.6 857.794 191.6C859.9 191.6 861.554 192.293 862.754 193.68C863.954 195.067 864.647 196.987 864.834 199.44L864.714 199.56H851.634C851.607 199.96 851.594 200.387 851.594 200.84C851.594 203.187 852.22 205.093 853.474 206.56C854.754 208 856.54 208.72 858.834 208.72C860.087 208.72 861.22 208.533 862.234 208.16C863.274 207.787 864.087 207.28 864.674 206.64H864.794V207.16C864.207 208.093 863.34 208.867 862.194 209.48C861.074 210.093 859.767 210.4 858.274 210.4ZM857.314 192.48C856.007 192.48 854.834 193.027 853.794 194.12C852.754 195.187 852.074 196.707 851.754 198.68H862.634C862.367 196.733 861.82 195.213 860.994 194.12C860.167 193.027 858.94 192.48 857.314 192.48ZM875.732 210.4C874.798 210.4 873.958 210.293 873.212 210.08C872.492 209.893 871.745 209.613 870.972 209.24V205.08H871.452L872.012 206.88C872.252 207.68 872.692 208.32 873.332 208.8C873.972 209.253 874.878 209.48 876.052 209.48C877.332 209.48 878.318 209.173 879.012 208.56C879.732 207.92 880.092 207.013 880.092 205.84C880.092 204.8 879.812 203.987 879.252 203.4C878.692 202.787 877.652 202.173 876.132 201.56C874.532 200.92 873.345 200.227 872.572 199.48C871.825 198.733 871.452 197.667 871.452 196.28C871.452 195.427 871.678 194.653 872.132 193.96C872.612 193.24 873.238 192.667 874.012 192.24C874.785 191.813 875.612 191.6 876.492 191.6C877.478 191.6 878.358 191.72 879.132 191.96C879.905 192.173 880.572 192.427 881.132 192.72V196.8H880.652L880.132 195.08C879.865 194.147 879.358 193.48 878.612 193.08C877.892 192.68 877.158 192.48 876.412 192.48C875.372 192.48 874.572 192.787 874.012 193.4C873.478 194.013 873.212 194.813 873.212 195.8C873.212 196.787 873.505 197.56 874.092 198.12C874.678 198.68 875.625 199.227 876.932 199.76C878.105 200.24 879.052 200.707 879.772 201.16C880.518 201.613 881.065 202.173 881.412 202.84C881.758 203.48 881.932 204.307 881.932 205.32C881.932 206.227 881.678 207.067 881.172 207.84C880.665 208.613 879.945 209.24 879.012 209.72C878.078 210.173 876.985 210.4 875.732 210.4ZM896.942 210.4C895.049 210.4 893.449 210 892.142 209.2C890.862 208.4 889.889 207.32 889.222 205.96C888.582 204.6 888.262 203.067 888.262 201.36C888.262 199.547 888.636 197.907 889.382 196.44C890.156 194.973 891.156 193.8 892.382 192.92C893.636 192.04 894.996 191.6 896.462 191.6C898.569 191.6 900.222 192.293 901.422 193.68C902.622 195.067 903.316 196.987 903.502 199.44L903.382 199.56H890.302C890.276 199.96 890.262 200.387 890.262 200.84C890.262 203.187 890.889 205.093 892.142 206.56C893.422 208 895.209 208.72 897.502 208.72C898.756 208.72 899.889 208.533 900.902 208.16C901.942 207.787 902.756 207.28 903.342 206.64H903.462V207.16C902.876 208.093 902.009 208.867 900.862 209.48C899.742 210.093 898.436 210.4 896.942 210.4ZM895.982 192.48C894.676 192.48 893.502 193.027 892.462 194.12C891.422 195.187 890.742 196.707 890.422 198.68H901.302C901.036 196.733 900.489 195.213 899.662 194.12C898.836 193.027 897.609 192.48 895.982 192.48ZM913.36 210.4C912.134 210.4 911.107 210.04 910.28 209.32C909.454 208.573 909.04 207.547 909.04 206.24C909.04 204.96 909.494 203.893 910.4 203.04C911.334 202.187 912.867 201.493 915 200.96L918.92 199.96V196.64C918.92 195.493 918.507 194.573 917.68 193.88C916.854 193.16 915.907 192.8 914.84 192.8C913.694 192.8 912.88 193.04 912.4 193.52C911.947 193.973 911.72 194.6 911.72 195.4V197.04L911.52 197.24H910.48C910.054 197.24 909.774 197.173 909.64 197.04C909.507 196.907 909.44 196.653 909.44 196.28C909.44 195.773 909.614 195.253 909.96 194.72C910.307 194.187 910.814 193.707 911.48 193.28C912.2 192.827 912.92 192.44 913.64 192.12C914.387 191.773 915.094 191.6 915.76 191.6C917.36 191.6 918.614 191.96 919.52 192.68C920.454 193.373 920.92 194.467 920.92 195.96V208.4C921.134 208.587 921.374 208.733 921.64 208.84C921.934 208.947 922.267 209 922.64 209H924.72L924.76 209.04V209.12C924.574 209.387 924.267 209.667 923.84 209.96C923.414 210.253 922.84 210.4 922.12 210.4C921.187 210.4 920.467 210.16 919.96 209.68C919.454 209.2 919.147 208.64 919.04 208H918.96C918.267 208.693 917.427 209.267 916.44 209.72C915.48 210.173 914.454 210.4 913.36 210.4ZM911.04 205.52C911.04 206.613 911.347 207.44 911.96 208C912.574 208.533 913.44 208.8 914.56 208.8C915.227 208.8 915.947 208.707 916.72 208.52C917.494 208.307 918.227 207.987 918.92 207.56V200.8C916.707 201.253 915.027 201.707 913.88 202.16C912.76 202.613 912 203.107 911.6 203.64C911.227 204.173 911.04 204.8 911.04 205.52ZM929.286 210V209.4L931.806 208.72V193.52L928.886 193.16V192.56L933.206 191.6H933.606L933.806 195.16H933.886C934.926 194.067 935.753 193.267 936.366 192.76C936.98 192.253 937.486 191.933 937.886 191.8C938.286 191.667 938.74 191.6 939.246 191.6C939.7 191.6 940.113 191.68 940.486 191.84C940.753 191.947 940.94 192.053 941.046 192.16C941.18 192.24 941.246 192.36 941.246 192.52C941.246 192.573 941.233 192.64 941.206 192.72C941.206 192.773 941.193 192.853 941.166 192.96L940.766 194H940.686L939.926 193.64C939.553 193.453 939.06 193.36 938.446 193.36C937.673 193.36 936.9 193.573 936.126 194C935.353 194.427 934.58 195.173 933.806 196.24V208.72L936.886 209.4V210H929.286ZM953.419 210.4C951.553 210.4 949.979 210 948.699 209.2C947.446 208.4 946.486 207.32 945.819 205.96C945.179 204.6 944.859 203.067 944.859 201.36C944.859 199.493 945.233 197.827 945.979 196.36C946.753 194.867 947.806 193.707 949.139 192.88C950.499 192.027 952.033 191.6 953.739 191.6C954.806 191.6 955.753 191.747 956.579 192.04C957.406 192.333 958.073 192.653 958.579 193C959.433 193.587 959.859 194.093 959.859 194.52C959.859 194.707 959.766 194.88 959.579 195.04L958.499 195.96H958.339L957.819 195.24C957.233 194.44 956.593 193.787 955.899 193.28C955.233 192.747 954.366 192.48 953.299 192.48C951.433 192.48 949.886 193.187 948.659 194.6C947.459 195.987 946.859 198.067 946.859 200.84C946.859 203.187 947.473 205.093 948.699 206.56C949.953 208 951.713 208.72 953.979 208.72C955.206 208.72 956.339 208.533 957.379 208.16C958.419 207.787 959.233 207.28 959.819 206.64H959.939V207.16C959.326 208.093 958.459 208.867 957.339 209.48C956.219 210.093 954.913 210.4 953.419 210.4ZM965.647 210V209.4L968.167 208.72V181.92L965.247 181.16V180.56L969.767 180H970.167V194.48H970.247C971.233 193.467 972.167 192.733 973.047 192.28C973.927 191.827 974.913 191.6 976.007 191.6C977.687 191.6 979.06 192.067 980.127 193C981.22 193.933 981.767 195.293 981.767 197.08V208.72L984.287 209.4V210H976.927V209.4L979.767 208.72V198.16C979.767 196.533 979.327 195.307 978.447 194.48C977.593 193.627 976.46 193.2 975.047 193.2C974.247 193.2 973.38 193.4 972.447 193.8C971.513 194.173 970.753 194.72 970.167 195.44V208.72L973.007 209.4V210H965.647ZM998.067 210.4C996.174 210.4 994.574 210 993.267 209.2C991.987 208.4 991.014 207.32 990.347 205.96C989.707 204.6 989.387 203.067 989.387 201.36C989.387 199.547 989.761 197.907 990.507 196.44C991.281 194.973 992.281 193.8 993.507 192.92C994.761 192.04 996.121 191.6 997.587 191.6C999.694 191.6 1001.35 192.293 1002.55 193.68C1003.75 195.067 1004.44 196.987 1004.63 199.44L1004.51 199.56H991.427C991.401 199.96 991.387 200.387 991.387 200.84C991.387 203.187 992.014 205.093 993.267 206.56C994.547 208 996.334 208.72 998.627 208.72C999.881 208.72 1001.01 208.533 1002.03 208.16C1003.07 207.787 1003.88 207.28 1004.47 206.64H1004.59V207.16C1004 208.093 1003.13 208.867 1001.99 209.48C1000.87 210.093 999.561 210.4 998.067 210.4ZM997.107 192.48C995.801 192.48 994.627 193.027 993.587 194.12C992.547 195.187 991.867 196.707 991.547 198.68H1002.43C1002.16 196.733 1001.61 195.213 1000.79 194.12C999.961 193.027 998.734 192.48 997.107 192.48ZM1010.73 210V209.4L1013.25 208.72V193.52L1010.33 193.16V192.56L1014.65 191.6H1015.05L1015.25 195.16H1015.33C1016.37 194.067 1017.19 193.267 1017.81 192.76C1018.42 192.253 1018.93 191.933 1019.33 191.8C1019.73 191.667 1020.18 191.6 1020.69 191.6C1021.14 191.6 1021.55 191.68 1021.93 191.84C1022.19 191.947 1022.38 192.053 1022.49 192.16C1022.62 192.24 1022.69 192.36 1022.69 192.52C1022.69 192.573 1022.67 192.64 1022.65 192.72C1022.65 192.773 1022.63 192.853 1022.61 192.96L1022.21 194H1022.13L1021.37 193.64C1020.99 193.453 1020.5 193.36 1019.89 193.36C1019.11 193.36 1018.34 193.573 1017.57 194C1016.79 194.427 1016.02 195.173 1015.25 196.24V208.72L1018.33 209.4V210H1010.73ZM1043.1 210.2L1037.5 193.36L1034.98 192.6V192H1042.66V192.6L1039.58 193.28V193.4L1043.82 207.28H1043.98L1049.58 192H1050.18L1055.78 207.16H1055.94L1060.1 193.44V193.32L1056.86 192.6V192H1063.94V192.6L1061.38 193.36L1055.5 210.2H1055.1L1049.42 195.52L1043.5 210.2H1043.1ZM1067.09 210V209.4L1069.61 208.72V193.52L1066.69 193.16V192.56L1071.01 191.6H1071.41L1071.61 195.16H1071.69C1072.73 194.067 1073.55 193.267 1074.17 192.76C1074.78 192.253 1075.29 191.933 1075.69 191.8C1076.09 191.667 1076.54 191.6 1077.05 191.6C1077.5 191.6 1077.91 191.68 1078.29 191.84C1078.55 191.947 1078.74 192.053 1078.85 192.16C1078.98 192.24 1079.05 192.36 1079.05 192.52C1079.05 192.573 1079.03 192.64 1079.01 192.72C1079.01 192.773 1078.99 192.853 1078.97 192.96L1078.57 194H1078.49L1077.73 193.64C1077.35 193.453 1076.86 193.36 1076.25 193.36C1075.47 193.36 1074.7 193.573 1073.93 194C1073.15 194.427 1072.38 195.173 1071.61 196.24V208.72L1074.69 209.4V210H1067.09ZM1086.18 185.28C1085.75 185.28 1085.39 185.133 1085.1 184.84C1084.81 184.547 1084.66 184.187 1084.66 183.76C1084.66 183.333 1084.81 182.973 1085.1 182.68C1085.39 182.387 1085.75 182.24 1086.18 182.24C1086.61 182.24 1086.97 182.387 1087.26 182.68C1087.55 182.973 1087.7 183.333 1087.7 183.76C1087.7 184.187 1087.55 184.547 1087.26 184.84C1086.97 185.133 1086.61 185.28 1086.18 185.28ZM1083.22 210V209.4L1085.74 208.72V193.52L1082.82 192.76V192.16L1087.34 191.6H1087.74V208.72L1090.58 209.4V210H1083.22ZM1102.25 210.4C1101.16 210.4 1100.26 210.053 1099.57 209.36C1098.9 208.667 1098.57 207.693 1098.57 206.44V193.36H1095.05V193L1098.81 192L1100.13 187.6H1100.57V192H1105.85V193.36H1100.57V206.36C1100.57 207.187 1100.82 207.813 1101.33 208.24C1101.84 208.64 1102.5 208.84 1103.33 208.84C1103.92 208.84 1104.45 208.773 1104.93 208.64C1105.41 208.507 1105.86 208.32 1106.29 208.08L1106.33 208.12V208.28C1106.12 208.733 1105.66 209.2 1104.97 209.68C1104.28 210.16 1103.37 210.4 1102.25 210.4ZM1119.81 210.4C1117.92 210.4 1116.32 210 1115.01 209.2C1113.73 208.4 1112.76 207.32 1112.09 205.96C1111.45 204.6 1111.13 203.067 1111.13 201.36C1111.13 199.547 1111.51 197.907 1112.25 196.44C1113.03 194.973 1114.03 193.8 1115.25 192.92C1116.51 192.04 1117.87 191.6 1119.33 191.6C1121.44 191.6 1123.09 192.293 1124.29 193.68C1125.49 195.067 1126.19 196.987 1126.37 199.44L1126.25 199.56H1113.17C1113.15 199.96 1113.13 200.387 1113.13 200.84C1113.13 203.187 1113.76 205.093 1115.01 206.56C1116.29 208 1118.08 208.72 1120.37 208.72C1121.63 208.72 1122.76 208.533 1123.77 208.16C1124.81 207.787 1125.63 207.28 1126.21 206.64H1126.33V207.16C1125.75 208.093 1124.88 208.867 1123.73 209.48C1122.61 210.093 1121.31 210.4 1119.81 210.4ZM1118.85 192.48C1117.55 192.48 1116.37 193.027 1115.33 194.12C1114.29 195.187 1113.61 196.707 1113.29 198.68H1124.17C1123.91 196.733 1123.36 195.213 1122.53 194.12C1121.71 193.027 1120.48 192.48 1118.85 192.48ZM1132.47 210V209.4L1134.99 208.72V193.52L1132.07 193.16V192.56L1136.39 191.6H1136.79L1136.99 195.16H1137.07C1138.11 194.067 1138.94 193.267 1139.55 192.76C1140.17 192.253 1140.67 191.933 1141.07 191.8C1141.47 191.667 1141.93 191.6 1142.43 191.6C1142.89 191.6 1143.3 191.68 1143.67 191.84C1143.94 191.947 1144.13 192.053 1144.23 192.16C1144.37 192.24 1144.43 192.36 1144.43 192.52C1144.43 192.573 1144.42 192.64 1144.39 192.72C1144.39 192.773 1144.38 192.853 1144.35 192.96L1143.95 194H1143.87L1143.11 193.64C1142.74 193.453 1142.25 193.36 1141.63 193.36C1140.86 193.36 1140.09 193.573 1139.31 194C1138.54 194.427 1137.77 195.173 1136.99 196.24V208.72L1140.07 209.4V210H1132.47Z" fill="#FAFAFA"/>
<path d="M1166.53 210.4C1165.59 210.4 1164.75 210.293 1164.01 210.08C1163.29 209.893 1162.54 209.613 1161.77 209.24V205.08H1162.25L1162.81 206.88C1163.05 207.68 1163.49 208.32 1164.13 208.8C1164.77 209.253 1165.67 209.48 1166.85 209.48C1168.13 209.48 1169.11 209.173 1169.81 208.56C1170.53 207.92 1170.89 207.013 1170.89 205.84C1170.89 204.8 1170.61 203.987 1170.05 203.4C1169.49 202.787 1168.45 202.173 1166.93 201.56C1165.33 200.92 1164.14 200.227 1163.37 199.48C1162.62 198.733 1162.25 197.667 1162.25 196.28C1162.25 195.427 1162.47 194.653 1162.93 193.96C1163.41 193.24 1164.03 192.667 1164.81 192.24C1165.58 191.813 1166.41 191.6 1167.29 191.6C1168.27 191.6 1169.15 191.72 1169.93 191.96C1170.7 192.173 1171.37 192.427 1171.93 192.72V196.8H1171.45L1170.93 195.08C1170.66 194.147 1170.15 193.48 1169.41 193.08C1168.69 192.68 1167.95 192.48 1167.21 192.48C1166.17 192.48 1165.37 192.787 1164.81 193.4C1164.27 194.013 1164.01 194.813 1164.01 195.8C1164.01 196.787 1164.3 197.56 1164.89 198.12C1165.47 198.68 1166.42 199.227 1167.73 199.76C1168.9 200.24 1169.85 200.707 1170.57 201.16C1171.31 201.613 1171.86 202.173 1172.21 202.84C1172.55 203.48 1172.73 204.307 1172.73 205.32C1172.73 206.227 1172.47 207.067 1171.97 207.84C1171.46 208.613 1170.74 209.24 1169.81 209.72C1168.87 210.173 1167.78 210.4 1166.53 210.4ZM1188.42 210.4C1186.55 210.4 1184.98 210 1183.7 209.2C1182.44 208.4 1181.48 207.32 1180.82 205.96C1180.18 204.6 1179.86 203.067 1179.86 201.36C1179.86 199.493 1180.23 197.827 1180.98 196.36C1181.75 194.867 1182.8 193.707 1184.14 192.88C1185.5 192.027 1187.03 191.6 1188.74 191.6C1189.8 191.6 1190.75 191.747 1191.58 192.04C1192.4 192.333 1193.07 192.653 1193.58 193C1194.43 193.587 1194.86 194.093 1194.86 194.52C1194.86 194.707 1194.76 194.88 1194.58 195.04L1193.5 195.96H1193.34L1192.82 195.24C1192.23 194.44 1191.59 193.787 1190.9 193.28C1190.23 192.747 1189.36 192.48 1188.3 192.48C1186.43 192.48 1184.88 193.187 1183.66 194.6C1182.46 195.987 1181.86 198.067 1181.86 200.84C1181.86 203.187 1182.47 205.093 1183.7 206.56C1184.95 208 1186.71 208.72 1188.98 208.72C1190.2 208.72 1191.34 208.533 1192.38 208.16C1193.42 207.787 1194.23 207.28 1194.82 206.64H1194.94V207.16C1194.32 208.093 1193.46 208.867 1192.34 209.48C1191.22 210.093 1189.91 210.4 1188.42 210.4ZM1204.64 185.28C1204.22 185.28 1203.86 185.133 1203.56 184.84C1203.27 184.547 1203.12 184.187 1203.12 183.76C1203.12 183.333 1203.27 182.973 1203.56 182.68C1203.86 182.387 1204.22 182.24 1204.64 182.24C1205.07 182.24 1205.43 182.387 1205.72 182.68C1206.02 182.973 1206.16 183.333 1206.16 183.76C1206.16 184.187 1206.02 184.547 1205.72 184.84C1205.43 185.133 1205.07 185.28 1204.64 185.28ZM1201.68 210V209.4L1204.2 208.72V193.52L1201.28 192.76V192.16L1205.8 191.6H1206.2V208.72L1209.04 209.4V210H1201.68ZM1224.27 210.4C1222.38 210.4 1220.78 210 1219.47 209.2C1218.19 208.4 1217.22 207.32 1216.55 205.96C1215.91 204.6 1215.59 203.067 1215.59 201.36C1215.59 199.547 1215.97 197.907 1216.71 196.44C1217.49 194.973 1218.49 193.8 1219.71 192.92C1220.97 192.04 1222.33 191.6 1223.79 191.6C1225.9 191.6 1227.55 192.293 1228.75 193.68C1229.95 195.067 1230.65 196.987 1230.83 199.44L1230.71 199.56H1217.63C1217.61 199.96 1217.59 200.387 1217.59 200.84C1217.59 203.187 1218.22 205.093 1219.47 206.56C1220.75 208 1222.54 208.72 1224.83 208.72C1226.09 208.72 1227.22 208.533 1228.23 208.16C1229.27 207.787 1230.09 207.28 1230.67 206.64H1230.79V207.16C1230.21 208.093 1229.34 208.867 1228.19 209.48C1227.07 210.093 1225.77 210.4 1224.27 210.4ZM1223.31 192.48C1222.01 192.48 1220.83 193.027 1219.79 194.12C1218.75 195.187 1218.07 196.707 1217.75 198.68H1228.63C1228.37 196.733 1227.82 195.213 1226.99 194.12C1226.17 193.027 1224.94 192.48 1223.31 192.48ZM1237.57 210V209.4L1240.09 208.72V193.52L1237.17 193.16V192.56L1241.49 191.6H1241.89L1242.05 194.48H1242.17C1243.16 193.467 1244.09 192.733 1244.97 192.28C1245.85 191.827 1246.84 191.6 1247.93 191.6C1249.61 191.6 1250.98 192.067 1252.05 193C1253.14 193.933 1253.69 195.293 1253.69 197.08V208.72L1256.21 209.4V210H1248.85V209.4L1251.69 208.72V198.16C1251.69 196.533 1251.25 195.307 1250.37 194.48C1249.52 193.627 1248.38 193.2 1246.97 193.2C1246.17 193.2 1245.3 193.4 1244.37 193.8C1243.44 194.173 1242.68 194.72 1242.09 195.44V208.72L1244.93 209.4V210H1237.57ZM1268.03 210.4C1266.94 210.4 1266.05 210.053 1265.35 209.36C1264.69 208.667 1264.35 207.693 1264.35 206.44V193.36H1260.83V193L1264.59 192L1265.91 187.6H1266.35V192H1271.63V193.36H1266.35V206.36C1266.35 207.187 1266.61 207.813 1267.11 208.24C1267.62 208.64 1268.29 208.84 1269.11 208.84C1269.7 208.84 1270.23 208.773 1270.71 208.64C1271.19 208.507 1271.65 208.32 1272.07 208.08L1272.11 208.12V208.28C1271.9 208.733 1271.45 209.2 1270.75 209.68C1270.06 210.16 1269.15 210.4 1268.03 210.4ZM1281.24 185.28C1280.81 185.28 1280.45 185.133 1280.16 184.84C1279.86 184.547 1279.72 184.187 1279.72 183.76C1279.72 183.333 1279.86 182.973 1280.16 182.68C1280.45 182.387 1280.81 182.24 1281.24 182.24C1281.66 182.24 1282.02 182.387 1282.32 182.68C1282.61 182.973 1282.76 183.333 1282.76 183.76C1282.76 184.187 1282.61 184.547 1282.32 184.84C1282.02 185.133 1281.66 185.28 1281.24 185.28ZM1278.28 210V209.4L1280.8 208.72V193.52L1277.88 192.76V192.16L1282.4 191.6H1282.8V208.72L1285.64 209.4V210H1278.28ZM1297.47 210.4C1296.53 210.4 1295.69 210.293 1294.95 210.08C1294.23 209.893 1293.48 209.613 1292.71 209.24V205.08H1293.19L1293.75 206.88C1293.99 207.68 1294.43 208.32 1295.07 208.8C1295.71 209.253 1296.61 209.48 1297.79 209.48C1299.07 209.48 1300.05 209.173 1300.75 208.56C1301.47 207.92 1301.83 207.013 1301.83 205.84C1301.83 204.8 1301.55 203.987 1300.99 203.4C1300.43 202.787 1299.39 202.173 1297.87 201.56C1296.27 200.92 1295.08 200.227 1294.31 199.48C1293.56 198.733 1293.19 197.667 1293.19 196.28C1293.19 195.427 1293.41 194.653 1293.87 193.96C1294.35 193.24 1294.97 192.667 1295.75 192.24C1296.52 191.813 1297.35 191.6 1298.23 191.6C1299.21 191.6 1300.09 191.72 1300.87 191.96C1301.64 192.173 1302.31 192.427 1302.87 192.72V196.8H1302.39L1301.87 195.08C1301.6 194.147 1301.09 193.48 1300.35 193.08C1299.63 192.68 1298.89 192.48 1298.15 192.48C1297.11 192.48 1296.31 192.787 1295.75 193.4C1295.21 194.013 1294.95 194.813 1294.95 195.8C1294.95 196.787 1295.24 197.56 1295.83 198.12C1296.41 198.68 1297.36 199.227 1298.67 199.76C1299.84 200.24 1300.79 200.707 1301.51 201.16C1302.25 201.613 1302.8 202.173 1303.15 202.84C1303.49 203.48 1303.67 204.307 1303.67 205.32C1303.67 206.227 1303.41 207.067 1302.91 207.84C1302.4 208.613 1301.68 209.24 1300.75 209.72C1299.81 210.173 1298.72 210.4 1297.47 210.4ZM1316.72 210.4C1315.62 210.4 1314.73 210.053 1314.04 209.36C1313.37 208.667 1313.04 207.693 1313.04 206.44V193.36H1309.52V193L1313.28 192L1314.6 187.6H1315.04V192H1320.32V193.36H1315.04V206.36C1315.04 207.187 1315.29 207.813 1315.8 208.24C1316.3 208.64 1316.97 208.84 1317.8 208.84C1318.38 208.84 1318.92 208.773 1319.4 208.64C1319.88 208.507 1320.33 208.32 1320.76 208.08L1320.8 208.12V208.28C1320.58 208.733 1320.13 209.2 1319.44 209.68C1318.74 210.16 1317.84 210.4 1316.72 210.4Z" fill="#F4B400"/>
<path d="M657.297 199.6H819.927V200.8H657.297V199.6ZM831.541 199.6H1024.29V200.8H831.541V199.6Z" fill="#FAFAFA"/>
<path d="M1035.9 199.6H1146.03V200.8H1035.9V199.6Z" fill="#FAFAFA"/>
<ellipse cx="10" cy="10.001" rx="10" ry="10.001" transform="matrix(1 0 0 -1 76 76.002)" fill="#F4B400"/>
<ellipse cx="10" cy="10.001" rx="10" ry="10.001" transform="matrix(1 0 0 -1 76 208.002)" fill="#F4B400"/>
<line x1="85.7" y1="198.002" x2="85.7" y2="65.9995" stroke="#F4B400" stroke-width="1.6"/>
<ellipse cx="10" cy="10.001" rx="10" ry="10.001" transform="matrix(0 -1 -1 0 693.002 445)" fill="#CABCBE"/>
<ellipse cx="10" cy="10.001" rx="10" ry="10.001" transform="matrix(0 -1 -1 0 1429.07 328.07)" fill="#CABCBE"/>
<line x1="682.874" y1="434.21" x2="1418.87" y2="317.21" stroke="#CABCBE" stroke-width="1.6"/>
<ellipse cx="1297.65" cy="435.001" rx="10" ry="10.001" fill="#424242"/>
<ellipse cx="1297.4" cy="290.001" rx="10" ry="10.001" fill="#424242"/>
<line x1="1297.22" y1="434.004" x2="1297.22" y2="298.004" stroke="#424242" stroke-width="1.6"/>
</svg>
