<svg width="1660" height="480" viewBox="0 0 1660 480" fill="none" xmlns="http://www.w3.org/2000/svg">
<rect x="1.45" y="1.45" width="1657.1" height="149.1" rx="8.55" fill="white" stroke="#424242" stroke-width="1.1"/>
<path d="M268.99 95V94.04L273.022 92.952V68.376H267.39V66.2H273.022V63.64C273.022 61.9333 273.299 60.12 273.854 58.2C274.451 56.28 275.304 54.4667 276.414 52.76C277.566 51.0533 278.995 49.6667 280.702 48.6C282.408 47.5333 284.392 47 286.654 47C287.208 47 287.699 47.0853 288.126 47.256C288.808 47.5547 289.15 47.896 289.15 48.28C289.15 48.536 289.086 48.8133 288.958 49.112L288.254 50.84H288.126L286.782 50.392C285.459 49.9653 284.179 49.752 282.942 49.752C280.766 49.752 279.102 50.648 277.95 52.44C276.798 54.232 276.222 57.112 276.222 61.08V66.2H284.67V68.376H276.222V92.952L281.15 94.04V95H268.99ZM316.227 95V94.04L320.259 92.952V68.632L315.587 68.056V67.096L322.499 65.56H323.139L323.459 71.256H323.587C325.251 69.5067 326.573 68.2267 327.555 67.416C328.536 66.6053 329.347 66.0933 329.987 65.88C330.627 65.6667 331.352 65.56 332.163 65.56C332.888 65.56 333.549 65.688 334.147 65.944C334.573 66.1147 334.872 66.2853 335.043 66.456C335.256 66.584 335.363 66.776 335.363 67.032C335.363 67.1173 335.341 67.224 335.299 67.352C335.299 67.4373 335.277 67.5653 335.235 67.736L334.595 69.4H334.467L333.251 68.824C332.653 68.5253 331.864 68.376 330.883 68.376C329.645 68.376 328.408 68.7173 327.171 69.4C325.933 70.0827 324.696 71.2773 323.459 72.984V92.952L328.387 94.04V95H316.227ZM365.144 104.6V47.64H375.512V48.792H367.384V103.448H375.512V104.6H365.144ZM391.478 95.64C389.515 95.64 387.872 95.064 386.55 93.912C385.227 92.7173 384.566 91.0747 384.566 88.984C384.566 86.936 385.291 85.2293 386.742 83.864C388.235 82.4987 390.688 81.3893 394.102 80.536L400.374 78.936V73.624C400.374 71.7893 399.712 70.3173 398.39 69.208C397.067 68.056 395.552 67.48 393.846 67.48C392.011 67.48 390.71 67.864 389.942 68.632C389.216 69.3573 388.854 70.36 388.854 71.64V74.264L388.534 74.584H386.87C386.187 74.584 385.739 74.4773 385.526 74.264C385.312 74.0507 385.206 73.6453 385.206 73.048C385.206 72.2373 385.483 71.4053 386.038 70.552C386.592 69.6987 387.403 68.9307 388.47 68.248C389.622 67.5227 390.774 66.904 391.926 66.392C393.12 65.8373 394.251 65.56 395.318 65.56C397.878 65.56 399.883 66.136 401.334 67.288C402.827 68.3973 403.574 70.1467 403.574 72.536V92.44C403.915 92.7387 404.299 92.9733 404.726 93.144C405.195 93.3147 405.728 93.4 406.326 93.4H409.654L409.718 93.464V93.592C409.419 94.0187 408.928 94.4667 408.246 94.936C407.563 95.4053 406.646 95.64 405.494 95.64C404 95.64 402.848 95.256 402.038 94.488C401.227 93.72 400.736 92.824 400.566 91.8H400.438C399.328 92.9093 397.984 93.8267 396.406 94.552C394.87 95.2773 393.227 95.64 391.478 95.64ZM387.766 87.832C387.766 89.5813 388.256 90.904 389.238 91.8C390.219 92.6533 391.606 93.08 393.398 93.08C394.464 93.08 395.616 92.9307 396.854 92.632C398.091 92.2907 399.264 91.7787 400.374 91.096V80.28C396.832 81.0053 394.144 81.7307 392.31 82.456C390.518 83.1813 389.302 83.9707 388.662 84.824C388.064 85.6773 387.766 86.68 387.766 87.832ZM416.383 104.6V103.448H424.511V48.792H416.383V47.64H426.751V104.6H416.383ZM460.253 95V94.04L464.285 92.952V68.632L459.613 68.056V67.096L466.525 65.56H467.165L467.421 70.168H467.613C469.192 68.5467 470.685 67.3733 472.093 66.648C473.501 65.9227 475.08 65.56 476.829 65.56C479.517 65.56 481.715 66.3067 483.421 67.8C485.171 69.2933 486.045 71.4693 486.045 74.328V92.952L490.077 94.04V95H478.301V94.04L482.845 92.952V76.056C482.845 73.4533 482.141 71.4907 480.733 70.168C479.368 68.8027 477.555 68.12 475.293 68.12C474.013 68.12 472.627 68.44 471.133 69.08C469.64 69.6773 468.424 70.552 467.485 71.704V92.952L472.029 94.04V95H460.253ZM535.615 95.64C532.628 95.64 530.111 95 528.063 93.72C526.057 92.44 524.521 90.712 523.455 88.536C522.431 86.36 521.919 83.9067 521.919 81.176C521.919 78.1893 522.516 75.5227 523.711 73.176C524.948 70.7867 526.633 68.9307 528.767 67.608C530.943 66.2427 533.396 65.56 536.127 65.56C537.833 65.56 539.348 65.7947 540.671 66.264C541.993 66.7333 543.06 67.2453 543.871 67.8C545.236 68.7387 545.919 69.5493 545.919 70.232C545.919 70.5307 545.769 70.808 545.471 71.064L543.743 72.536H543.487L542.655 71.384C541.716 70.104 540.692 69.0587 539.583 68.248C538.516 67.3947 537.129 66.968 535.423 66.968C532.436 66.968 529.961 68.0987 527.999 70.36C526.079 72.5787 525.119 75.9067 525.119 80.344C525.119 84.0987 526.1 87.1493 528.063 89.496C530.068 91.8 532.884 92.952 536.511 92.952C538.473 92.952 540.287 92.6533 541.951 92.056C543.615 91.4587 544.916 90.648 545.855 89.624H546.047V90.456C545.065 91.9493 543.679 93.1867 541.887 94.168C540.095 95.1493 538.004 95.64 535.615 95.64ZM578.666 104.6V47.64H589.034V48.792H580.906V103.448H589.034V104.6H578.666ZM603.848 55.448C603.166 55.448 602.59 55.2133 602.12 54.744C601.651 54.2747 601.416 53.6987 601.416 53.016C601.416 52.3333 601.651 51.7573 602.12 51.288C602.59 50.8187 603.166 50.584 603.848 50.584C604.531 50.584 605.107 50.8187 605.576 51.288C606.046 51.7573 606.28 52.3333 606.28 53.016C606.28 53.6987 606.046 54.2747 605.576 54.744C605.107 55.2133 604.531 55.448 603.848 55.448ZM599.112 95V94.04L603.144 92.952V68.632L598.472 67.416V66.456L605.704 65.56H606.344V92.952L610.888 94.04V95H599.112ZM620.281 104.6V103.448H628.409V48.792H620.281V47.64H630.649V104.6H620.281ZM672.087 95.64C670.593 95.64 669.249 95.4693 668.055 95.128C666.903 94.8293 665.708 94.3813 664.471 93.784V87.128H665.239L666.135 90.008C666.519 91.288 667.223 92.312 668.247 93.08C669.271 93.8053 670.721 94.168 672.599 94.168C674.647 94.168 676.225 93.6773 677.335 92.696C678.487 91.672 679.063 90.2213 679.063 88.344C679.063 86.68 678.615 85.3787 677.719 84.44C676.823 83.4587 675.159 82.4773 672.727 81.496C670.167 80.472 668.268 79.3627 667.031 78.168C665.836 76.9733 665.239 75.2667 665.239 73.048C665.239 71.6827 665.601 70.4453 666.327 69.336C667.095 68.184 668.097 67.2667 669.335 66.584C670.572 65.9013 671.895 65.56 673.303 65.56C674.881 65.56 676.289 65.752 677.527 66.136C678.764 66.4773 679.831 66.8827 680.727 67.352V73.88H679.959L679.127 71.128C678.7 69.6347 677.889 68.568 676.695 67.928C675.543 67.288 674.369 66.968 673.175 66.968C671.511 66.968 670.231 67.4587 669.335 68.44C668.481 69.4213 668.055 70.7013 668.055 72.28C668.055 73.8587 668.524 75.096 669.463 75.992C670.401 76.888 671.916 77.7627 674.007 78.616C675.884 79.384 677.399 80.1307 678.551 80.856C679.745 81.5813 680.62 82.4773 681.175 83.544C681.729 84.568 682.007 85.8907 682.007 87.512C682.007 88.9627 681.601 90.3067 680.791 91.544C679.98 92.7813 678.828 93.784 677.335 94.552C675.841 95.2773 674.092 95.64 672.087 95.64ZM716.136 104.6V47.64H726.504V48.792H718.376V103.448H726.504V104.6H716.136ZM733.318 104.6V103.448H741.446V48.792H733.318V47.64H743.686V104.6H733.318ZM790.372 95.64C787.386 95.64 784.868 95 782.82 93.72C780.815 92.44 779.279 90.712 778.212 88.536C777.188 86.36 776.676 83.9067 776.676 81.176C776.676 78.1893 777.274 75.5227 778.468 73.176C779.706 70.7867 781.391 68.9307 783.524 67.608C785.7 66.2427 788.154 65.56 790.884 65.56C792.591 65.56 794.106 65.7947 795.428 66.264C796.751 66.7333 797.818 67.2453 798.628 67.8C799.994 68.7387 800.676 69.5493 800.676 70.232C800.676 70.5307 800.527 70.808 800.228 71.064L798.5 72.536H798.244L797.412 71.384C796.474 70.104 795.45 69.0587 794.34 68.248C793.274 67.3947 791.887 66.968 790.18 66.968C787.194 66.968 784.719 68.0987 782.756 70.36C780.836 72.5787 779.876 75.9067 779.876 80.344C779.876 84.0987 780.858 87.1493 782.82 89.496C784.826 91.8 787.642 92.952 791.268 92.952C793.231 92.952 795.044 92.6533 796.708 92.056C798.372 91.4587 799.674 90.648 800.612 89.624H800.804V90.456C799.823 91.9493 798.436 93.1867 796.644 94.168C794.852 95.1493 792.762 95.64 790.372 95.64ZM833.424 104.6V47.64H843.792V48.792H835.664V103.448H843.792V104.6H833.424ZM859.758 95.64C857.795 95.64 856.152 95.064 854.83 93.912C853.507 92.7173 852.846 91.0747 852.846 88.984C852.846 86.936 853.571 85.2293 855.022 83.864C856.515 82.4987 858.968 81.3893 862.382 80.536L868.654 78.936V73.624C868.654 71.7893 867.992 70.3173 866.67 69.208C865.347 68.056 863.832 67.48 862.126 67.48C860.291 67.48 858.99 67.864 858.222 68.632C857.496 69.3573 857.134 70.36 857.134 71.64V74.264L856.814 74.584H855.15C854.467 74.584 854.019 74.4773 853.806 74.264C853.592 74.0507 853.486 73.6453 853.486 73.048C853.486 72.2373 853.763 71.4053 854.318 70.552C854.872 69.6987 855.683 68.9307 856.75 68.248C857.902 67.5227 859.054 66.904 860.206 66.392C861.4 65.8373 862.531 65.56 863.598 65.56C866.158 65.56 868.163 66.136 869.614 67.288C871.107 68.3973 871.854 70.1467 871.854 72.536V92.44C872.195 92.7387 872.579 92.9733 873.006 93.144C873.475 93.3147 874.008 93.4 874.606 93.4H877.934L877.998 93.464V93.592C877.699 94.0187 877.208 94.4667 876.526 94.936C875.843 95.4053 874.926 95.64 873.774 95.64C872.28 95.64 871.128 95.256 870.318 94.488C869.507 93.72 869.016 92.824 868.846 91.8H868.718C867.608 92.9093 866.264 93.8267 864.686 94.552C863.15 95.2773 861.507 95.64 859.758 95.64ZM856.046 87.832C856.046 89.5813 856.536 90.904 857.518 91.8C858.499 92.6533 859.886 93.08 861.678 93.08C862.744 93.08 863.896 92.9307 865.134 92.632C866.371 92.2907 867.544 91.7787 868.654 91.096V80.28C865.112 81.0053 862.424 81.7307 860.59 82.456C858.798 83.1813 857.582 83.9707 856.942 84.824C856.344 85.6773 856.046 86.68 856.046 87.832ZM884.663 104.6V103.448H892.791V48.792H884.663V47.64H895.031V104.6H884.663ZM941.717 95.64C938.731 95.64 936.213 95 934.165 93.72C932.16 92.44 930.624 90.712 929.557 88.536C928.533 86.36 928.021 83.9067 928.021 81.176C928.021 78.1893 928.619 75.5227 929.813 73.176C931.051 70.7867 932.736 68.9307 934.869 67.608C937.045 66.2427 939.499 65.56 942.229 65.56C943.936 65.56 945.451 65.7947 946.773 66.264C948.096 66.7333 949.163 67.2453 949.973 67.8C951.339 68.7387 952.021 69.5493 952.021 70.232C952.021 70.5307 951.872 70.808 951.573 71.064L949.845 72.536H949.589L948.757 71.384C947.819 70.104 946.795 69.0587 945.685 68.248C944.619 67.3947 943.232 66.968 941.525 66.968C938.539 66.968 936.064 68.0987 934.101 70.36C932.181 72.5787 931.221 75.9067 931.221 80.344C931.221 84.0987 932.203 87.1493 934.165 89.496C936.171 91.8 938.987 92.952 942.613 92.952C944.576 92.952 946.389 92.6533 948.053 92.056C949.717 91.4587 951.019 90.648 951.957 89.624H952.149V90.456C951.168 91.9493 949.781 93.1867 947.989 94.168C946.197 95.1493 944.107 95.64 941.717 95.64ZM998.145 95.64C995.158 95.64 992.641 95 990.593 93.72C988.587 92.44 987.051 90.712 985.985 88.536C984.961 86.36 984.449 83.9067 984.449 81.176C984.449 78.1893 985.046 75.5227 986.241 73.176C987.478 70.7867 989.163 68.9307 991.297 67.608C993.473 66.2427 995.926 65.56 998.657 65.56C1000.36 65.56 1001.88 65.7947 1003.2 66.264C1004.52 66.7333 1005.59 67.2453 1006.4 67.8C1007.77 68.7387 1008.45 69.5493 1008.45 70.232C1008.45 70.5307 1008.3 70.808 1008 71.064L1006.27 72.536H1006.02L1005.18 71.384C1004.25 70.104 1003.22 69.0587 1002.11 68.248C1001.05 67.3947 999.659 66.968 997.953 66.968C994.966 66.968 992.491 68.0987 990.529 70.36C988.609 72.5787 987.649 75.9067 987.649 80.344C987.649 84.0987 988.63 87.1493 990.593 89.496C992.598 91.8 995.414 92.952 999.041 92.952C1001 92.952 1002.82 92.6533 1004.48 92.056C1006.14 91.4587 1007.45 90.648 1008.38 89.624H1008.58V90.456C1007.6 91.9493 1006.21 93.1867 1004.42 94.168C1002.62 95.1493 1000.53 95.64 998.145 95.64ZM1041.2 104.6V47.64H1051.56V48.792H1043.44V103.448H1051.56V104.6H1041.2ZM1067.53 95.64C1065.57 95.64 1063.92 95.064 1062.6 93.912C1061.28 92.7173 1060.62 91.0747 1060.62 88.984C1060.62 86.936 1061.34 85.2293 1062.79 83.864C1064.29 82.4987 1066.74 81.3893 1070.15 80.536L1076.43 78.936V73.624C1076.43 71.7893 1075.76 70.3173 1074.44 69.208C1073.12 68.056 1071.6 67.48 1069.9 67.48C1068.06 67.48 1066.76 67.864 1065.99 68.632C1065.27 69.3573 1064.91 70.36 1064.91 71.64V74.264L1064.59 74.584H1062.92C1062.24 74.584 1061.79 74.4773 1061.58 74.264C1061.36 74.0507 1061.26 73.6453 1061.26 73.048C1061.26 72.2373 1061.54 71.4053 1062.09 70.552C1062.64 69.6987 1063.46 68.9307 1064.52 68.248C1065.67 67.5227 1066.83 66.904 1067.98 66.392C1069.17 65.8373 1070.3 65.56 1071.37 65.56C1073.93 65.56 1075.94 66.136 1077.39 67.288C1078.88 68.3973 1079.63 70.1467 1079.63 72.536V92.44C1079.97 92.7387 1080.35 92.9733 1080.78 93.144C1081.25 93.3147 1081.78 93.4 1082.38 93.4H1085.71L1085.77 93.464V93.592C1085.47 94.0187 1084.98 94.4667 1084.3 94.936C1083.62 95.4053 1082.7 95.64 1081.55 95.64C1080.05 95.64 1078.9 95.256 1078.09 94.488C1077.28 93.72 1076.79 92.824 1076.62 91.8H1076.49C1075.38 92.9093 1074.04 93.8267 1072.46 94.552C1070.92 95.2773 1069.28 95.64 1067.53 95.64ZM1063.82 87.832C1063.82 89.5813 1064.31 90.904 1065.29 91.8C1066.27 92.6533 1067.66 93.08 1069.45 93.08C1070.52 93.08 1071.67 92.9307 1072.91 92.632C1074.14 92.2907 1075.32 91.7787 1076.43 91.096V80.28C1072.88 81.0053 1070.2 81.7307 1068.36 82.456C1066.57 83.1813 1065.35 83.9707 1064.71 84.824C1064.12 85.6773 1063.82 86.68 1063.82 87.832ZM1092.44 104.6V103.448H1100.56V48.792H1092.44V47.64H1102.8V104.6H1092.44ZM1145.65 95.32L1135.22 68.376L1131.19 67.16V66.2H1143.47V67.16L1138.55 68.248V68.44L1146.8 90.84H1146.99L1155.12 68.504V68.312L1149.94 67.16V66.2H1161.27V67.16L1157.17 68.376L1146.29 95.32H1145.65ZM1189.48 104.6V47.64H1199.85V48.792H1191.72V103.448H1199.85V104.6H1189.48ZM1215.81 95.64C1213.85 95.64 1212.21 95.064 1210.88 93.912C1209.56 92.7173 1208.9 91.0747 1208.9 88.984C1208.9 86.936 1209.63 85.2293 1211.08 83.864C1212.57 82.4987 1215.02 81.3893 1218.44 80.536L1224.71 78.936V73.624C1224.71 71.7893 1224.05 70.3173 1222.72 69.208C1221.4 68.056 1219.89 67.48 1218.18 67.48C1216.35 67.48 1215.04 67.864 1214.28 68.632C1213.55 69.3573 1213.19 70.36 1213.19 71.64V74.264L1212.87 74.584H1211.2C1210.52 74.584 1210.07 74.4773 1209.86 74.264C1209.65 74.0507 1209.54 73.6453 1209.54 73.048C1209.54 72.2373 1209.82 71.4053 1210.37 70.552C1210.93 69.6987 1211.74 68.9307 1212.8 68.248C1213.96 67.5227 1215.11 66.904 1216.26 66.392C1217.46 65.8373 1218.59 65.56 1219.65 65.56C1222.21 65.56 1224.22 66.136 1225.67 67.288C1227.16 68.3973 1227.91 70.1467 1227.91 72.536V92.44C1228.25 92.7387 1228.63 92.9733 1229.06 93.144C1229.53 93.3147 1230.06 93.4 1230.66 93.4H1233.99L1234.05 93.464V93.592C1233.75 94.0187 1233.26 94.4667 1232.58 94.936C1231.9 95.4053 1230.98 95.64 1229.83 95.64C1228.34 95.64 1227.18 95.256 1226.37 94.488C1225.56 93.72 1225.07 92.824 1224.9 91.8H1224.77C1223.66 92.9093 1222.32 93.8267 1220.74 94.552C1219.2 95.2773 1217.56 95.64 1215.81 95.64ZM1212.1 87.832C1212.1 89.5813 1212.59 90.904 1213.57 91.8C1214.55 92.6533 1215.94 93.08 1217.73 93.08C1218.8 93.08 1219.95 92.9307 1221.19 92.632C1222.43 92.2907 1223.6 91.7787 1224.71 91.096V80.28C1221.17 81.0053 1218.48 81.7307 1216.64 82.456C1214.85 83.1813 1213.64 83.9707 1213 84.824C1212.4 85.6773 1212.1 86.68 1212.1 87.832ZM1240.72 104.6V103.448H1248.85V48.792H1240.72V47.64H1251.09V104.6H1240.72ZM1284.33 95V94.04L1288.36 92.952V50.072L1283.69 48.856V47.896L1290.92 47H1291.56V92.952L1296.11 94.04V95H1284.33ZM1328.7 104.6V47.64H1339.07V48.792H1330.94V103.448H1339.07V104.6H1328.7ZM1362.14 95.64C1359.11 95.64 1356.55 95 1354.46 93.72C1352.41 92.44 1350.85 90.712 1349.78 88.536C1348.76 86.36 1348.25 83.9067 1348.25 81.176C1348.25 78.2747 1348.85 75.6507 1350.04 73.304C1351.28 70.9573 1352.88 69.08 1354.84 67.672C1356.85 66.264 1359.02 65.56 1361.37 65.56C1364.74 65.56 1367.38 66.6693 1369.3 68.888C1371.22 71.1067 1372.33 74.1787 1372.63 78.104L1372.44 78.296H1351.51C1351.47 78.936 1351.45 79.6187 1351.45 80.344C1351.45 84.0987 1352.45 87.1493 1354.46 89.496C1356.5 91.8 1359.36 92.952 1363.03 92.952C1365.04 92.952 1366.85 92.6533 1368.47 92.056C1370.14 91.4587 1371.44 90.648 1372.38 89.624H1372.57V90.456C1371.63 91.9493 1370.24 93.1867 1368.41 94.168C1366.62 95.1493 1364.53 95.64 1362.14 95.64ZM1360.6 66.968C1358.51 66.968 1356.63 67.8427 1354.97 69.592C1353.3 71.2987 1352.22 73.7307 1351.7 76.888H1369.11C1368.69 73.7733 1367.81 71.3413 1366.49 69.592C1365.17 67.8427 1363.2 66.968 1360.6 66.968ZM1381.19 104.6V103.448H1389.32V48.792H1381.19V47.64H1391.56V104.6H1381.19Z" fill="#424242"/>
<rect x="167" y="150" width="1491" height="148" rx="8" fill="#424242"/>
<path d="M504.666 245.2V202.48H512.442V203.344H506.346V244.336H512.442V245.2H504.666ZM527.392 238.48C525.44 238.48 523.84 237.92 522.592 236.8C521.344 235.68 520.72 234.048 520.72 231.904V217.936L517.312 217.12V216.4H523.12V230.608C523.12 232.56 523.616 234.048 524.608 235.072C525.632 236.064 526.944 236.56 528.544 236.56C529.472 236.56 530.464 236.336 531.52 235.888C532.608 235.408 533.488 234.736 534.16 233.872V217.936L530.272 217.12V216.4H536.56V236.464L539.968 237.28V238H534.16V235.072H534.016C532.864 236.224 531.776 237.088 530.752 237.664C529.728 238.208 528.608 238.48 527.392 238.48ZM544.878 245.2V244.336H550.974V203.344H544.878V202.48H552.654V245.2H544.878ZM560.405 238V237.28L563.189 236.512L569.285 227.2L563.429 217.984L560.645 217.12V216.4H569.141V217.12L566.117 217.936V218.08L570.917 225.616L575.333 218.08V217.936L572.693 217.12V216.4H579.461V217.12L576.869 218.176L571.349 226.288L577.829 236.416L580.277 237.28V238H572.405V237.28L575.093 236.464V236.32L569.717 227.92L565.013 236.32V236.464L567.605 237.28V238H560.405ZM610.172 238.48C607.9 238.48 605.98 238 604.412 237.04C602.876 236.08 601.708 234.784 600.908 233.152C600.14 231.52 599.756 229.68 599.756 227.632C599.756 225.456 600.204 223.488 601.1 221.728C602.028 219.968 603.228 218.56 604.7 217.504C606.204 216.448 607.836 215.92 609.596 215.92C612.124 215.92 614.108 216.752 615.548 218.416C616.988 220.08 617.82 222.384 618.044 225.328L617.9 225.472H602.204C602.172 225.952 602.156 226.464 602.156 227.008C602.156 229.824 602.908 232.112 604.412 233.872C605.948 235.6 608.092 236.464 610.844 236.464C612.348 236.464 613.708 236.24 614.924 235.792C616.172 235.344 617.148 234.736 617.852 233.968H617.996V234.592C617.292 235.712 616.252 236.64 614.876 237.376C613.532 238.112 611.964 238.48 610.172 238.48ZM609.02 216.976C607.452 216.976 606.044 217.632 604.796 218.944C603.548 220.224 602.732 222.048 602.348 224.416H615.404C615.084 222.08 614.428 220.256 613.436 218.944C612.444 217.632 610.972 216.976 609.02 216.976ZM625.17 238V237.28L628.194 236.464V218.224L624.69 217.792V217.072L629.874 215.92H630.354L630.546 219.376H630.69C631.874 218.16 632.994 217.28 634.05 216.736C635.106 216.192 636.29 215.92 637.602 215.92C639.618 215.92 641.266 216.48 642.546 217.6C643.858 218.72 644.514 220.352 644.514 222.496V236.464L647.538 237.28V238H638.706V237.28L642.114 236.464V223.792C642.114 221.84 641.586 220.368 640.53 219.376C639.506 218.352 638.146 217.84 636.45 217.84C635.49 217.84 634.45 218.08 633.33 218.56C632.21 219.008 631.298 219.664 630.594 220.528V236.464L634.002 237.28V238H625.17ZM662.347 230.752C661.387 230.752 660.475 230.592 659.611 230.272C658.555 230.72 657.819 231.2 657.403 231.712C656.987 232.224 656.779 232.816 656.779 233.488C656.779 234.576 657.163 235.36 657.931 235.84C658.699 236.32 659.883 236.56 661.483 236.56H666.907C668.795 236.56 670.235 237.008 671.227 237.904C672.251 238.8 672.763 240.032 672.763 241.6C672.763 242.912 672.315 244.176 671.419 245.392C670.523 246.608 669.275 247.6 667.675 248.368C666.075 249.136 664.187 249.52 662.011 249.52C659.227 249.52 657.227 248.96 656.011 247.84C654.795 246.752 654.187 245.408 654.187 243.808C654.187 242.624 654.427 241.6 654.907 240.736L657.835 238.288V238.192C655.755 237.584 654.715 236.32 654.715 234.4C654.715 233.344 655.067 232.464 655.771 231.76L658.603 230.08V229.84C657.451 229.232 656.539 228.368 655.867 227.248C655.195 226.096 654.859 224.8 654.859 223.36C654.859 221.952 655.179 220.688 655.819 219.568C656.491 218.448 657.387 217.568 658.507 216.928C659.627 216.256 660.907 215.92 662.347 215.92C663.051 215.92 663.819 216.016 664.651 216.208C665.483 216.368 666.139 216.56 666.619 216.784L673.147 216.4V218.368L668.299 218.032L668.203 218.128C668.715 218.672 669.099 219.44 669.355 220.432C669.643 221.392 669.787 222.368 669.787 223.36C669.787 224.768 669.467 226.032 668.827 227.152C668.187 228.272 667.307 229.152 666.187 229.792C665.067 230.432 663.787 230.752 662.347 230.752ZM662.827 229.792C664.203 229.792 665.291 229.248 666.091 228.16C666.923 227.04 667.339 225.472 667.339 223.456C667.339 221.248 666.827 219.6 665.803 218.512C664.779 217.392 663.515 216.832 662.011 216.832C660.539 216.832 659.387 217.408 658.555 218.56C657.723 219.68 657.307 221.232 657.307 223.216C657.307 225.424 657.819 227.072 658.843 228.16C659.899 229.248 661.227 229.792 662.827 229.792ZM656.395 243.28C656.395 244.752 657.003 245.984 658.219 246.976C659.467 247.968 660.987 248.464 662.779 248.464C664.315 248.464 665.675 248.176 666.859 247.6C668.043 247.056 668.971 246.32 669.643 245.392C670.315 244.496 670.651 243.536 670.651 242.512C670.651 240.976 670.251 239.92 669.451 239.344C668.683 238.768 667.291 238.48 665.275 238.48H660.235C659.755 238.48 659.291 238.448 658.843 238.384C657.915 238.928 657.275 239.584 656.923 240.352C656.571 241.152 656.395 242.128 656.395 243.28ZM684.084 208.336C683.572 208.336 683.14 208.16 682.788 207.808C682.436 207.456 682.26 207.024 682.26 206.512C682.26 206 682.436 205.568 682.788 205.216C683.14 204.864 683.572 204.688 684.084 204.688C684.596 204.688 685.028 204.864 685.38 205.216C685.732 205.568 685.908 206 685.908 206.512C685.908 207.024 685.732 207.456 685.38 207.808C685.028 208.16 684.596 208.336 684.084 208.336ZM680.532 238V237.28L683.556 236.464V218.224L680.052 217.312V216.592L685.476 215.92H685.956V236.464L689.364 237.28V238H680.532ZM696.648 238V237.28L699.672 236.464V218.224L696.168 217.792V217.072L701.352 215.92H701.832L702.024 219.376H702.168C703.352 218.16 704.472 217.28 705.528 216.736C706.584 216.192 707.768 215.92 709.08 215.92C711.096 215.92 712.744 216.48 714.024 217.6C715.336 218.72 715.992 220.352 715.992 222.496V236.464L719.016 237.28V238H710.184V237.28L713.592 236.464V223.792C713.592 221.84 713.064 220.368 712.008 219.376C710.984 218.352 709.624 217.84 707.928 217.84C706.968 217.84 705.928 218.08 704.808 218.56C703.688 219.008 702.776 219.664 702.072 220.528V236.464L705.48 237.28V238H696.648ZM735.553 238.48C733.281 238.48 731.361 238 729.793 237.04C728.257 236.08 727.089 234.784 726.289 233.152C725.521 231.52 725.137 229.68 725.137 227.632C725.137 225.456 725.585 223.488 726.481 221.728C727.409 219.968 728.609 218.56 730.081 217.504C731.585 216.448 733.217 215.92 734.977 215.92C737.505 215.92 739.489 216.752 740.929 218.416C742.369 220.08 743.201 222.384 743.425 225.328L743.281 225.472H727.585C727.553 225.952 727.537 226.464 727.537 227.008C727.537 229.824 728.289 232.112 729.793 233.872C731.329 235.6 733.473 236.464 736.225 236.464C737.729 236.464 739.089 236.24 740.305 235.792C741.553 235.344 742.529 234.736 743.233 233.968H743.377V234.592C742.673 235.712 741.633 236.64 740.257 237.376C738.913 238.112 737.345 238.48 735.553 238.48ZM734.401 216.976C732.833 216.976 731.425 217.632 730.177 218.944C728.929 220.224 728.113 222.048 727.729 224.416H740.785C740.465 222.08 739.809 220.256 738.817 218.944C737.825 217.632 736.353 216.976 734.401 216.976ZM761.052 238.48C758.78 238.48 756.86 238 755.292 237.04C753.756 236.08 752.588 234.784 751.788 233.152C751.02 231.52 750.636 229.68 750.636 227.632C750.636 225.456 751.084 223.488 751.98 221.728C752.908 219.968 754.108 218.56 755.58 217.504C757.084 216.448 758.716 215.92 760.476 215.92C763.004 215.92 764.988 216.752 766.428 218.416C767.868 220.08 768.7 222.384 768.924 225.328L768.78 225.472H753.084C753.052 225.952 753.036 226.464 753.036 227.008C753.036 229.824 753.788 232.112 755.292 233.872C756.828 235.6 758.972 236.464 761.724 236.464C763.228 236.464 764.588 236.24 765.804 235.792C767.052 235.344 768.028 234.736 768.732 233.968H768.876V234.592C768.172 235.712 767.132 236.64 765.756 237.376C764.412 238.112 762.844 238.48 761.052 238.48ZM759.9 216.976C758.332 216.976 756.924 217.632 755.676 218.944C754.428 220.224 753.612 222.048 753.228 224.416H766.284C765.964 222.08 765.308 220.256 764.316 218.944C763.324 217.632 761.852 216.976 759.9 216.976ZM776.241 238V237.28L779.265 236.464V218.224L775.761 217.792V217.072L780.945 215.92H781.425L781.665 220.192H781.761C783.009 218.88 784.001 217.92 784.737 217.312C785.473 216.704 786.081 216.32 786.561 216.16C787.041 216 787.585 215.92 788.193 215.92C788.737 215.92 789.233 216.016 789.681 216.208C790.001 216.336 790.225 216.464 790.353 216.592C790.513 216.688 790.593 216.832 790.593 217.024C790.593 217.088 790.577 217.168 790.545 217.264C790.545 217.328 790.529 217.424 790.497 217.552L790.017 218.8H789.921L789.009 218.368C788.561 218.144 787.969 218.032 787.233 218.032C786.305 218.032 785.377 218.288 784.449 218.8C783.521 219.312 782.593 220.208 781.665 221.488V236.464L785.361 237.28V238H776.241ZM809.425 238V237.28L812.449 236.464V218.224L808.945 217.792V217.072L814.129 215.92H814.609L814.849 220.192H814.945C816.193 218.88 817.185 217.92 817.921 217.312C818.657 216.704 819.265 216.32 819.745 216.16C820.225 216 820.769 215.92 821.377 215.92C821.921 215.92 822.417 216.016 822.865 216.208C823.185 216.336 823.409 216.464 823.537 216.592C823.697 216.688 823.777 216.832 823.777 217.024C823.777 217.088 823.761 217.168 823.729 217.264C823.729 217.328 823.713 217.424 823.681 217.552L823.201 218.8H823.105L822.193 218.368C821.745 218.144 821.153 218.032 820.417 218.032C819.489 218.032 818.561 218.288 817.633 218.8C816.705 219.312 815.777 220.208 814.849 221.488V236.464L818.545 237.28V238H809.425ZM838.529 238.48C836.257 238.48 834.337 238 832.769 237.04C831.233 236.08 830.065 234.784 829.265 233.152C828.497 231.52 828.113 229.68 828.113 227.632C828.113 225.456 828.561 223.488 829.457 221.728C830.385 219.968 831.585 218.56 833.057 217.504C834.561 216.448 836.193 215.92 837.953 215.92C840.481 215.92 842.465 216.752 843.905 218.416C845.345 220.08 846.177 222.384 846.401 225.328L846.257 225.472H830.561C830.529 225.952 830.513 226.464 830.513 227.008C830.513 229.824 831.265 232.112 832.769 233.872C834.305 235.6 836.449 236.464 839.201 236.464C840.705 236.464 842.065 236.24 843.281 235.792C844.529 235.344 845.505 234.736 846.209 233.968H846.353V234.592C845.649 235.712 844.609 236.64 843.233 237.376C841.889 238.112 840.321 238.48 838.529 238.48ZM837.377 216.976C835.809 216.976 834.401 217.632 833.153 218.944C831.905 220.224 831.089 222.048 830.705 224.416H843.761C843.441 222.08 842.785 220.256 841.793 218.944C840.801 217.632 839.329 216.976 837.377 216.976ZM859.478 238.48C858.358 238.48 857.35 238.352 856.454 238.096C855.59 237.872 854.694 237.536 853.766 237.088V232.096H854.342L855.014 234.256C855.302 235.216 855.83 235.984 856.598 236.56C857.366 237.104 858.454 237.376 859.862 237.376C861.398 237.376 862.582 237.008 863.414 236.272C864.278 235.504 864.71 234.416 864.71 233.008C864.71 231.76 864.374 230.784 863.702 230.08C863.03 229.344 861.782 228.608 859.958 227.872C858.038 227.104 856.614 226.272 855.686 225.376C854.79 224.48 854.342 223.2 854.342 221.536C854.342 220.512 854.614 219.584 855.158 218.752C855.734 217.888 856.486 217.2 857.414 216.688C858.342 216.176 859.334 215.92 860.39 215.92C861.574 215.92 862.63 216.064 863.558 216.352C864.486 216.608 865.286 216.912 865.958 217.264V222.16H865.382L864.758 220.096C864.438 218.976 863.83 218.176 862.934 217.696C862.07 217.216 861.19 216.976 860.294 216.976C859.046 216.976 858.086 217.344 857.414 218.08C856.774 218.816 856.454 219.776 856.454 220.96C856.454 222.144 856.806 223.072 857.51 223.744C858.214 224.416 859.35 225.072 860.918 225.712C862.326 226.288 863.462 226.848 864.326 227.392C865.222 227.936 865.878 228.608 866.294 229.408C866.71 230.176 866.918 231.168 866.918 232.384C866.918 233.472 866.614 234.48 866.006 235.408C865.398 236.336 864.534 237.088 863.414 237.664C862.294 238.208 860.982 238.48 859.478 238.48ZM884.931 238.48C882.659 238.48 880.739 238 879.171 237.04C877.635 236.08 876.467 234.784 875.667 233.152C874.899 231.52 874.515 229.68 874.515 227.632C874.515 225.456 874.963 223.488 875.859 221.728C876.787 219.968 877.987 218.56 879.459 217.504C880.963 216.448 882.595 215.92 884.355 215.92C886.883 215.92 888.867 216.752 890.307 218.416C891.747 220.08 892.579 222.384 892.803 225.328L892.659 225.472H876.963C876.931 225.952 876.915 226.464 876.915 227.008C876.915 229.824 877.667 232.112 879.171 233.872C880.707 235.6 882.851 236.464 885.603 236.464C887.107 236.464 888.467 236.24 889.683 235.792C890.931 235.344 891.907 234.736 892.611 233.968H892.755V234.592C892.051 235.712 891.011 236.64 889.635 237.376C888.291 238.112 886.723 238.48 884.931 238.48ZM883.779 216.976C882.211 216.976 880.803 217.632 879.555 218.944C878.307 220.224 877.491 222.048 877.107 224.416H890.163C889.843 222.08 889.187 220.256 888.195 218.944C887.203 217.632 885.731 216.976 883.779 216.976ZM904.632 238.48C903.16 238.48 901.928 238.048 900.936 237.184C899.944 236.288 899.448 235.056 899.448 233.488C899.448 231.952 899.992 230.672 901.08 229.648C902.2 228.624 904.04 227.792 906.6 227.152L911.304 225.952V221.968C911.304 220.592 910.808 219.488 909.816 218.656C908.824 217.792 907.688 217.36 906.408 217.36C905.032 217.36 904.056 217.648 903.48 218.224C902.936 218.768 902.664 219.52 902.664 220.48V222.448L902.424 222.688H901.176C900.664 222.688 900.328 222.608 900.168 222.448C900.008 222.288 899.928 221.984 899.928 221.536C899.928 220.928 900.136 220.304 900.552 219.664C900.968 219.024 901.576 218.448 902.376 217.936C903.24 217.392 904.104 216.928 904.968 216.544C905.864 216.128 906.712 215.92 907.512 215.92C909.432 215.92 910.936 216.352 912.024 217.216C913.144 218.048 913.704 219.36 913.704 221.152V236.08C913.96 236.304 914.248 236.48 914.568 236.608C914.92 236.736 915.32 236.8 915.768 236.8H918.264L918.312 236.848V236.944C918.088 237.264 917.72 237.6 917.208 237.952C916.696 238.304 916.008 238.48 915.144 238.48C914.024 238.48 913.16 238.192 912.552 237.616C911.944 237.04 911.576 236.368 911.448 235.6H911.352C910.52 236.432 909.512 237.12 908.328 237.664C907.176 238.208 905.944 238.48 904.632 238.48ZM901.848 232.624C901.848 233.936 902.216 234.928 902.952 235.6C903.688 236.24 904.728 236.56 906.072 236.56C906.872 236.56 907.736 236.448 908.664 236.224C909.592 235.968 910.472 235.584 911.304 235.072V226.96C908.648 227.504 906.632 228.048 905.256 228.592C903.912 229.136 903 229.728 902.52 230.368C902.072 231.008 901.848 231.76 901.848 232.624ZM923.744 238V237.28L926.768 236.464V218.224L923.264 217.792V217.072L928.448 215.92H928.928L929.168 220.192H929.264C930.512 218.88 931.504 217.92 932.24 217.312C932.976 216.704 933.584 216.32 934.064 216.16C934.544 216 935.088 215.92 935.696 215.92C936.24 215.92 936.736 216.016 937.184 216.208C937.504 216.336 937.728 216.464 937.856 216.592C938.016 216.688 938.096 216.832 938.096 217.024C938.096 217.088 938.08 217.168 938.048 217.264C938.048 217.328 938.032 217.424 938 217.552L937.52 218.8H937.424L936.512 218.368C936.064 218.144 935.472 218.032 934.736 218.032C933.808 218.032 932.88 218.288 931.952 218.8C931.024 219.312 930.096 220.208 929.168 221.488V236.464L932.864 237.28V238H923.744ZM952.703 238.48C950.463 238.48 948.575 238 947.039 237.04C945.535 236.08 944.383 234.784 943.583 233.152C942.815 231.52 942.431 229.68 942.431 227.632C942.431 225.392 942.879 223.392 943.775 221.632C944.703 219.84 945.967 218.448 947.567 217.456C949.199 216.432 951.039 215.92 953.087 215.92C954.367 215.92 955.503 216.096 956.495 216.448C957.487 216.8 958.287 217.184 958.895 217.6C959.919 218.304 960.431 218.912 960.431 219.424C960.431 219.648 960.319 219.856 960.095 220.048L958.799 221.152H958.607L957.983 220.288C957.279 219.328 956.511 218.544 955.679 217.936C954.879 217.296 953.839 216.976 952.559 216.976C950.319 216.976 948.463 217.824 946.991 219.52C945.551 221.184 944.831 223.68 944.831 227.008C944.831 229.824 945.567 232.112 947.039 233.872C948.543 235.6 950.655 236.464 953.375 236.464C954.847 236.464 956.207 236.24 957.455 235.792C958.703 235.344 959.679 234.736 960.383 233.968H960.527V234.592C959.791 235.712 958.751 236.64 957.407 237.376C956.063 238.112 954.495 238.48 952.703 238.48ZM967.376 238V237.28L970.4 236.464V204.304L966.896 203.392V202.672L972.32 202H972.8V219.376H972.896C974.08 218.16 975.2 217.28 976.256 216.736C977.312 216.192 978.496 215.92 979.808 215.92C981.824 215.92 983.472 216.48 984.752 217.6C986.064 218.72 986.72 220.352 986.72 222.496V236.464L989.744 237.28V238H980.912V237.28L984.32 236.464V223.792C984.32 221.84 983.792 220.368 982.736 219.376C981.712 218.352 980.352 217.84 978.656 217.84C977.696 217.84 976.656 218.08 975.536 218.56C974.416 219.008 973.504 219.664 972.8 220.528V236.464L976.208 237.28V238H967.376ZM1006.28 238.48C1004.01 238.48 1002.09 238 1000.52 237.04C998.985 236.08 997.817 234.784 997.017 233.152C996.249 231.52 995.865 229.68 995.865 227.632C995.865 225.456 996.313 223.488 997.209 221.728C998.137 219.968 999.337 218.56 1000.81 217.504C1002.31 216.448 1003.94 215.92 1005.7 215.92C1008.23 215.92 1010.22 216.752 1011.66 218.416C1013.1 220.08 1013.93 222.384 1014.15 225.328L1014.01 225.472H998.313C998.281 225.952 998.265 226.464 998.265 227.008C998.265 229.824 999.017 232.112 1000.52 233.872C1002.06 235.6 1004.2 236.464 1006.95 236.464C1008.46 236.464 1009.82 236.24 1011.03 235.792C1012.28 235.344 1013.26 234.736 1013.96 233.968H1014.1V234.592C1013.4 235.712 1012.36 236.64 1010.98 237.376C1009.64 238.112 1008.07 238.48 1006.28 238.48ZM1005.13 216.976C1003.56 216.976 1002.15 217.632 1000.9 218.944C999.657 220.224 998.841 222.048 998.457 224.416H1011.51C1011.19 222.08 1010.54 220.256 1009.54 218.944C1008.55 217.632 1007.08 216.976 1005.13 216.976ZM1021.47 238V237.28L1024.49 236.464V218.224L1020.99 217.792V217.072L1026.17 215.92H1026.65L1026.89 220.192H1026.99C1028.24 218.88 1029.23 217.92 1029.97 217.312C1030.7 216.704 1031.31 216.32 1031.79 216.16C1032.27 216 1032.81 215.92 1033.42 215.92C1033.97 215.92 1034.46 216.016 1034.91 216.208C1035.23 216.336 1035.45 216.464 1035.58 216.592C1035.74 216.688 1035.82 216.832 1035.82 217.024C1035.82 217.088 1035.81 217.168 1035.77 217.264C1035.77 217.328 1035.76 217.424 1035.73 217.552L1035.25 218.8H1035.15L1034.24 218.368C1033.79 218.144 1033.2 218.032 1032.46 218.032C1031.53 218.032 1030.61 218.288 1029.68 218.8C1028.75 219.312 1027.82 220.208 1026.89 221.488V236.464L1030.59 237.28V238H1021.47ZM1060.32 238.24L1053.6 218.032L1050.57 217.12V216.4H1059.79V217.12L1056.09 217.936V218.08L1061.18 234.736H1061.37L1068.09 216.4H1068.81L1075.53 234.592H1075.73L1080.72 218.128V217.984L1076.83 217.12V216.4H1085.33V217.12L1082.25 218.032L1075.2 238.24H1074.72L1067.9 220.624L1060.8 238.24H1060.32ZM1089.11 238V237.28L1092.13 236.464V218.224L1088.63 217.792V217.072L1093.81 215.92H1094.29L1094.53 220.192H1094.63C1095.87 218.88 1096.87 217.92 1097.6 217.312C1098.34 216.704 1098.95 216.32 1099.43 216.16C1099.91 216 1100.45 215.92 1101.06 215.92C1101.6 215.92 1102.1 216.016 1102.55 216.208C1102.87 216.336 1103.09 216.464 1103.22 216.592C1103.38 216.688 1103.46 216.832 1103.46 217.024C1103.46 217.088 1103.44 217.168 1103.41 217.264C1103.41 217.328 1103.39 217.424 1103.36 217.552L1102.88 218.8H1102.79L1101.87 218.368C1101.43 218.144 1100.83 218.032 1100.1 218.032C1099.17 218.032 1098.24 218.288 1097.31 218.8C1096.39 219.312 1095.46 220.208 1094.53 221.488V236.464L1098.23 237.28V238H1089.11ZM1112.02 208.336C1111.51 208.336 1111.07 208.16 1110.72 207.808C1110.37 207.456 1110.19 207.024 1110.19 206.512C1110.19 206 1110.37 205.568 1110.72 205.216C1111.07 204.864 1111.51 204.688 1112.02 204.688C1112.53 204.688 1112.96 204.864 1113.31 205.216C1113.67 205.568 1113.84 206 1113.84 206.512C1113.84 207.024 1113.67 207.456 1113.31 207.808C1112.96 208.16 1112.53 208.336 1112.02 208.336ZM1108.47 238V237.28L1111.49 236.464V218.224L1107.99 217.312V216.592L1113.41 215.92H1113.89V236.464L1117.3 237.28V238H1108.47ZM1131.3 238.48C1129.99 238.48 1128.92 238.064 1128.09 237.232C1127.29 236.4 1126.89 235.232 1126.89 233.728V218.032H1122.66V217.6L1127.17 216.4L1128.76 211.12H1129.29V216.4H1135.62V218.032H1129.29V233.632C1129.29 234.624 1129.59 235.376 1130.2 235.888C1130.81 236.368 1131.61 236.608 1132.6 236.608C1133.3 236.608 1133.94 236.528 1134.52 236.368C1135.09 236.208 1135.64 235.984 1136.15 235.696L1136.2 235.744V235.936C1135.94 236.48 1135.4 237.04 1134.57 237.616C1133.73 238.192 1132.65 238.48 1131.3 238.48ZM1152.38 238.48C1150.11 238.48 1148.19 238 1146.62 237.04C1145.08 236.08 1143.91 234.784 1143.11 233.152C1142.35 231.52 1141.96 229.68 1141.96 227.632C1141.96 225.456 1142.41 223.488 1143.31 221.728C1144.23 219.968 1145.43 218.56 1146.91 217.504C1148.41 216.448 1150.04 215.92 1151.8 215.92C1154.33 215.92 1156.31 216.752 1157.75 218.416C1159.19 220.08 1160.03 222.384 1160.25 225.328L1160.11 225.472H1144.41C1144.38 225.952 1144.36 226.464 1144.36 227.008C1144.36 229.824 1145.11 232.112 1146.62 233.872C1148.15 235.6 1150.3 236.464 1153.05 236.464C1154.55 236.464 1155.91 236.24 1157.13 235.792C1158.38 235.344 1159.35 234.736 1160.06 233.968H1160.2V234.592C1159.5 235.712 1158.46 236.64 1157.08 237.376C1155.74 238.112 1154.17 238.48 1152.38 238.48ZM1151.23 216.976C1149.66 216.976 1148.25 217.632 1147 218.944C1145.75 220.224 1144.94 222.048 1144.55 224.416H1157.61C1157.29 222.08 1156.63 220.256 1155.64 218.944C1154.65 217.632 1153.18 216.976 1151.23 216.976ZM1167.57 238V237.28L1170.59 236.464V218.224L1167.09 217.792V217.072L1172.27 215.92H1172.75L1172.99 220.192H1173.09C1174.33 218.88 1175.33 217.92 1176.06 217.312C1176.8 216.704 1177.41 216.32 1177.89 216.16C1178.37 216 1178.91 215.92 1179.52 215.92C1180.06 215.92 1180.56 216.016 1181.01 216.208C1181.33 216.336 1181.55 216.464 1181.68 216.592C1181.84 216.688 1181.92 216.832 1181.92 217.024C1181.92 217.088 1181.9 217.168 1181.87 217.264C1181.87 217.328 1181.85 217.424 1181.82 217.552L1181.34 218.8H1181.25L1180.33 218.368C1179.89 218.144 1179.29 218.032 1178.56 218.032C1177.63 218.032 1176.7 218.288 1175.77 218.8C1174.85 219.312 1173.92 220.208 1172.99 221.488V236.464L1176.69 237.28V238H1167.57Z" fill="#FAFAFA"/>
<path d="M1208.43 238.48C1207.31 238.48 1206.3 238.352 1205.41 238.096C1204.54 237.872 1203.65 237.536 1202.72 237.088V232.096H1203.29L1203.97 234.256C1204.25 235.216 1204.78 235.984 1205.55 236.56C1206.32 237.104 1207.41 237.376 1208.81 237.376C1210.35 237.376 1211.53 237.008 1212.37 236.272C1213.23 235.504 1213.66 234.416 1213.66 233.008C1213.66 231.76 1213.33 230.784 1212.65 230.08C1211.98 229.344 1210.73 228.608 1208.91 227.872C1206.99 227.104 1205.57 226.272 1204.64 225.376C1203.74 224.48 1203.29 223.2 1203.29 221.536C1203.29 220.512 1203.57 219.584 1204.11 218.752C1204.69 217.888 1205.44 217.2 1206.37 216.688C1207.29 216.176 1208.29 215.92 1209.34 215.92C1210.53 215.92 1211.58 216.064 1212.51 216.352C1213.44 216.608 1214.24 216.912 1214.91 217.264V222.16H1214.33L1213.71 220.096C1213.39 218.976 1212.78 218.176 1211.89 217.696C1211.02 217.216 1210.14 216.976 1209.25 216.976C1208 216.976 1207.04 217.344 1206.37 218.08C1205.73 218.816 1205.41 219.776 1205.41 220.96C1205.41 222.144 1205.76 223.072 1206.46 223.744C1207.17 224.416 1208.3 225.072 1209.87 225.712C1211.28 226.288 1212.41 226.848 1213.28 227.392C1214.17 227.936 1214.83 228.608 1215.25 229.408C1215.66 230.176 1215.87 231.168 1215.87 232.384C1215.87 233.472 1215.57 234.48 1214.96 235.408C1214.35 236.336 1213.49 237.088 1212.37 237.664C1211.25 238.208 1209.93 238.48 1208.43 238.48ZM1234.7 238.48C1232.46 238.48 1230.57 238 1229.04 237.04C1227.53 236.08 1226.38 234.784 1225.58 233.152C1224.81 231.52 1224.43 229.68 1224.43 227.632C1224.43 225.392 1224.88 223.392 1225.77 221.632C1226.7 219.84 1227.96 218.448 1229.56 217.456C1231.2 216.432 1233.04 215.92 1235.08 215.92C1236.36 215.92 1237.5 216.096 1238.49 216.448C1239.48 216.8 1240.28 217.184 1240.89 217.6C1241.92 218.304 1242.43 218.912 1242.43 219.424C1242.43 219.648 1242.32 219.856 1242.09 220.048L1240.8 221.152H1240.6L1239.98 220.288C1239.28 219.328 1238.51 218.544 1237.68 217.936C1236.88 217.296 1235.84 216.976 1234.56 216.976C1232.32 216.976 1230.46 217.824 1228.99 219.52C1227.55 221.184 1226.83 223.68 1226.83 227.008C1226.83 229.824 1227.56 232.112 1229.04 233.872C1230.54 235.6 1232.65 236.464 1235.37 236.464C1236.84 236.464 1238.2 236.24 1239.45 235.792C1240.7 235.344 1241.68 234.736 1242.38 233.968H1242.52V234.592C1241.79 235.712 1240.75 236.64 1239.4 237.376C1238.06 238.112 1236.49 238.48 1234.7 238.48ZM1254.17 208.336C1253.66 208.336 1253.23 208.16 1252.88 207.808C1252.52 207.456 1252.35 207.024 1252.35 206.512C1252.35 206 1252.52 205.568 1252.88 205.216C1253.23 204.864 1253.66 204.688 1254.17 204.688C1254.68 204.688 1255.12 204.864 1255.47 205.216C1255.82 205.568 1256 206 1256 206.512C1256 207.024 1255.82 207.456 1255.47 207.808C1255.12 208.16 1254.68 208.336 1254.17 208.336ZM1250.62 238V237.28L1253.64 236.464V218.224L1250.14 217.312V216.592L1255.56 215.92H1256.04V236.464L1259.45 237.28V238H1250.62ZM1277.73 238.48C1275.46 238.48 1273.54 238 1271.97 237.04C1270.43 236.08 1269.26 234.784 1268.46 233.152C1267.7 231.52 1267.31 229.68 1267.31 227.632C1267.31 225.456 1267.76 223.488 1268.66 221.728C1269.58 219.968 1270.78 218.56 1272.26 217.504C1273.76 216.448 1275.39 215.92 1277.15 215.92C1279.68 215.92 1281.66 216.752 1283.1 218.416C1284.54 220.08 1285.38 222.384 1285.6 225.328L1285.46 225.472H1269.76C1269.73 225.952 1269.71 226.464 1269.71 227.008C1269.71 229.824 1270.46 232.112 1271.97 233.872C1273.5 235.6 1275.65 236.464 1278.4 236.464C1279.9 236.464 1281.26 236.24 1282.48 235.792C1283.73 235.344 1284.7 234.736 1285.41 233.968H1285.55V234.592C1284.85 235.712 1283.81 236.64 1282.43 237.376C1281.09 238.112 1279.52 238.48 1277.73 238.48ZM1276.58 216.976C1275.01 216.976 1273.6 217.632 1272.35 218.944C1271.1 220.224 1270.29 222.048 1269.9 224.416H1282.96C1282.64 222.08 1281.98 220.256 1280.99 218.944C1280 217.632 1278.53 216.976 1276.58 216.976ZM1293.69 238V237.28L1296.71 236.464V218.224L1293.21 217.792V217.072L1298.39 215.92H1298.87L1299.06 219.376H1299.21C1300.39 218.16 1301.51 217.28 1302.57 216.736C1303.62 216.192 1304.81 215.92 1306.12 215.92C1308.13 215.92 1309.78 216.48 1311.06 217.6C1312.37 218.72 1313.03 220.352 1313.03 222.496V236.464L1316.05 237.28V238H1307.22V237.28L1310.63 236.464V223.792C1310.63 221.84 1310.1 220.368 1309.05 219.376C1308.02 218.352 1306.66 217.84 1304.97 217.84C1304.01 217.84 1302.97 218.08 1301.85 218.56C1300.73 219.008 1299.81 219.664 1299.11 220.528V236.464L1302.52 237.28V238H1293.69ZM1330.24 238.48C1328.93 238.48 1327.85 238.064 1327.02 237.232C1326.22 236.4 1325.82 235.232 1325.82 233.728V218.032H1321.6V217.6L1326.11 216.4L1327.69 211.12H1328.22V216.4H1334.56V218.032H1328.22V233.632C1328.22 234.624 1328.53 235.376 1329.13 235.888C1329.74 236.368 1330.54 236.608 1331.53 236.608C1332.24 236.608 1332.88 236.528 1333.45 236.368C1334.03 236.208 1334.57 235.984 1335.09 235.696L1335.13 235.744V235.936C1334.88 236.48 1334.33 237.04 1333.5 237.616C1332.67 238.192 1331.58 238.48 1330.24 238.48ZM1346.08 208.336C1345.57 208.336 1345.14 208.16 1344.79 207.808C1344.43 207.456 1344.26 207.024 1344.26 206.512C1344.26 206 1344.43 205.568 1344.79 205.216C1345.14 204.864 1345.57 204.688 1346.08 204.688C1346.59 204.688 1347.03 204.864 1347.38 205.216C1347.73 205.568 1347.91 206 1347.91 206.512C1347.91 207.024 1347.73 207.456 1347.38 207.808C1347.03 208.16 1346.59 208.336 1346.08 208.336ZM1342.53 238V237.28L1345.55 236.464V218.224L1342.05 217.312V216.592L1347.47 215.92H1347.95V236.464L1351.36 237.28V238H1342.53ZM1365.56 238.48C1364.44 238.48 1363.43 238.352 1362.54 238.096C1361.67 237.872 1360.78 237.536 1359.85 237.088V232.096H1360.42L1361.1 234.256C1361.38 235.216 1361.91 235.984 1362.68 236.56C1363.45 237.104 1364.54 237.376 1365.94 237.376C1367.48 237.376 1368.66 237.008 1369.5 236.272C1370.36 235.504 1370.79 234.416 1370.79 233.008C1370.79 231.76 1370.46 230.784 1369.78 230.08C1369.11 229.344 1367.86 228.608 1366.04 227.872C1364.12 227.104 1362.7 226.272 1361.77 225.376C1360.87 224.48 1360.42 223.2 1360.42 221.536C1360.42 220.512 1360.7 219.584 1361.24 218.752C1361.82 217.888 1362.57 217.2 1363.5 216.688C1364.42 216.176 1365.42 215.92 1366.47 215.92C1367.66 215.92 1368.71 216.064 1369.64 216.352C1370.57 216.608 1371.37 216.912 1372.04 217.264V222.16H1371.46L1370.84 220.096C1370.52 218.976 1369.91 218.176 1369.02 217.696C1368.15 217.216 1367.27 216.976 1366.38 216.976C1365.13 216.976 1364.17 217.344 1363.5 218.08C1362.86 218.816 1362.54 219.776 1362.54 220.96C1362.54 222.144 1362.89 223.072 1363.59 223.744C1364.3 224.416 1365.43 225.072 1367 225.712C1368.41 226.288 1369.54 226.848 1370.41 227.392C1371.3 227.936 1371.96 228.608 1372.38 229.408C1372.79 230.176 1373 231.168 1373 232.384C1373 233.472 1372.7 234.48 1372.09 235.408C1371.48 236.336 1370.62 237.088 1369.5 237.664C1368.38 238.208 1367.06 238.48 1365.56 238.48ZM1388.66 238.48C1387.35 238.48 1386.28 238.064 1385.44 237.232C1384.64 236.4 1384.24 235.232 1384.24 233.728V218.032H1380.02V217.6L1384.53 216.4L1386.12 211.12H1386.64V216.4H1392.98V218.032H1386.64V233.632C1386.64 234.624 1386.95 235.376 1387.56 235.888C1388.16 236.368 1388.96 236.608 1389.96 236.608C1390.66 236.608 1391.3 236.528 1391.88 236.368C1392.45 236.208 1393 235.984 1393.51 235.696L1393.56 235.744V235.936C1393.3 236.48 1392.76 237.04 1391.92 237.616C1391.09 238.192 1390 238.48 1388.66 238.48Z" fill="#F4B400"/>
<path d="M597.356 225.52H792.513V226.96H597.356V225.52ZM806.449 225.52H1037.74V226.96H806.449V225.52Z" fill="#FAFAFA"/>
<path d="M1051.68 225.52H1183.84V226.96H1051.68V225.52Z" fill="#FAFAFA"/>
<ellipse cx="10" cy="10.001" rx="10" ry="10.001" transform="matrix(1 0 0 -1 78 89.5825)" fill="#F4B400"/>
<ellipse cx="10" cy="10.001" rx="10" ry="10.001" transform="matrix(1 0 0 -1 78 237.583)" fill="#F4B400"/>
<line x1="87.8" y1="76" x2="87.8" y2="224" stroke="#F4B400" stroke-width="1.6"/>
<ellipse cx="10" cy="10.001" rx="10" ry="10.001" transform="matrix(0 -1 -1 0 746.002 479)" fill="#CABCBE"/>
<ellipse cx="10" cy="10.001" rx="10" ry="10.001" transform="matrix(0 -1 -1 0 1482.07 362.07)" fill="#CABCBE"/>
<line x1="735.874" y1="468.21" x2="1471.87" y2="351.21" stroke="#CABCBE" stroke-width="1.6"/>
<ellipse cx="1350.65" cy="469.001" rx="10" ry="10.001" fill="#424242"/>
<ellipse cx="1350.4" cy="324.001" rx="10" ry="10.001" fill="#424242"/>
<line x1="1350.22" y1="468.004" x2="1350.22" y2="332.004" stroke="#424242" stroke-width="1.6"/>
</svg>
