<svg width="2141" height="631" viewBox="0 0 2141 631" fill="none" xmlns="http://www.w3.org/2000/svg">
<rect x="1.20024" y="1.2" width="2138.6" height="341.6" rx="8.8" fill="white" stroke="#BABCBE" stroke-width="1.6"/>
<path d="M193.922 138V136.5L200.222 134.8V96.4H191.422V93H200.222V89C200.222 86.3333 200.655 83.5 201.522 80.5C202.455 77.5 203.788 74.6667 205.522 72C207.322 69.3333 209.555 67.1667 212.222 65.5C214.888 63.8333 217.988 63 221.522 63C222.388 63 223.155 63.1333 223.822 63.4C224.888 63.8667 225.422 64.4 225.422 65C225.422 65.4 225.322 65.8333 225.122 66.3L224.022 69H223.822L221.722 68.3C219.655 67.6333 217.655 67.3 215.722 67.3C212.322 67.3 209.722 68.7 207.922 71.5C206.122 74.3 205.222 78.8 205.222 85V93H218.422V96.4H205.222V134.8L212.922 136.5V138H193.922ZM267.73 138V136.5L274.03 134.8V96.8L266.73 95.9V94.4L277.53 92H278.53L279.03 100.9H279.23C281.83 98.1667 283.896 96.1667 285.43 94.9C286.963 93.6333 288.23 92.8333 289.23 92.5C290.23 92.1667 291.363 92 292.63 92C293.763 92 294.796 92.2 295.73 92.6C296.396 92.8667 296.863 93.1333 297.13 93.4C297.463 93.6 297.63 93.9 297.63 94.3C297.63 94.4333 297.596 94.6 297.53 94.8C297.53 94.9333 297.496 95.1333 297.43 95.4L296.43 98H296.23L294.33 97.1C293.396 96.6333 292.163 96.4 290.63 96.4C288.696 96.4 286.763 96.9333 284.83 98C282.896 99.0667 280.963 100.933 279.03 103.6V134.8L286.73 136.5V138H267.73ZM344.162 153V64H360.362V65.8H347.662V151.2H360.362V153H344.162ZM385.309 139C382.243 139 379.676 138.1 377.609 136.3C375.543 134.433 374.509 131.867 374.509 128.6C374.509 125.4 375.643 122.733 377.909 120.6C380.243 118.467 384.076 116.733 389.409 115.4L399.209 112.9V104.6C399.209 101.733 398.176 99.4333 396.109 97.7C394.043 95.9 391.676 95 389.009 95C386.143 95 384.109 95.6 382.909 96.8C381.776 97.9333 381.209 99.5 381.209 101.5V105.6L380.709 106.1H378.109C377.043 106.1 376.343 105.933 376.009 105.6C375.676 105.267 375.509 104.633 375.509 103.7C375.509 102.433 375.943 101.133 376.809 99.8C377.676 98.4667 378.943 97.2667 380.609 96.2C382.409 95.0667 384.209 94.1 386.009 93.3C387.876 92.4333 389.643 92 391.309 92C395.309 92 398.443 92.9 400.709 94.7C403.043 96.4333 404.209 99.1667 404.209 102.9V134C404.743 134.467 405.343 134.833 406.009 135.1C406.743 135.367 407.576 135.5 408.509 135.5H413.709L413.809 135.6V135.8C413.343 136.467 412.576 137.167 411.509 137.9C410.443 138.633 409.009 139 407.209 139C404.876 139 403.076 138.4 401.809 137.2C400.543 136 399.776 134.6 399.509 133H399.309C397.576 134.733 395.476 136.167 393.009 137.3C390.609 138.433 388.043 139 385.309 139ZM379.509 126.8C379.509 129.533 380.276 131.6 381.809 133C383.343 134.333 385.509 135 388.309 135C389.976 135 391.776 134.767 393.709 134.3C395.643 133.767 397.476 132.967 399.209 131.9V115C393.676 116.133 389.476 117.267 386.609 118.4C383.809 119.533 381.909 120.767 380.909 122.1C379.976 123.433 379.509 125 379.509 126.8ZM424.224 153V151.2H436.924V65.8H424.224V64H440.424V153H424.224ZM492.771 138V136.5L499.071 134.8V96.8L491.771 95.9V94.4L502.571 92H503.571L503.971 99.2H504.271C506.738 96.6667 509.071 94.8333 511.271 93.7C513.471 92.5667 515.938 92 518.671 92C522.871 92 526.304 93.1667 528.971 95.5C531.704 97.8333 533.071 101.233 533.071 105.7V134.8L539.371 136.5V138H520.971V136.5L528.071 134.8V108.4C528.071 104.333 526.971 101.267 524.771 99.2C522.638 97.0667 519.804 96 516.271 96C514.271 96 512.104 96.5 509.771 97.5C507.438 98.4333 505.538 99.8 504.071 101.6V134.8L511.171 136.5V138H492.771ZM610.523 139C605.857 139 601.923 138 598.723 136C595.59 134 593.19 131.3 591.523 127.9C589.923 124.5 589.123 120.667 589.123 116.4C589.123 111.733 590.057 107.567 591.923 103.9C593.857 100.167 596.49 97.2667 599.823 95.2C603.223 93.0667 607.057 92 611.323 92C613.99 92 616.357 92.3667 618.423 93.1C620.49 93.8333 622.157 94.6333 623.423 95.5C625.557 96.9667 626.623 98.2333 626.623 99.3C626.623 99.7667 626.39 100.2 625.923 100.6L623.223 102.9H622.823L621.523 101.1C620.057 99.1 618.457 97.4667 616.723 96.2C615.057 94.8667 612.89 94.2 610.223 94.2C605.557 94.2 601.69 95.9667 598.623 99.5C595.623 102.967 594.123 108.167 594.123 115.1C594.123 120.967 595.657 125.733 598.723 129.4C601.857 133 606.257 134.8 611.923 134.8C614.99 134.8 617.823 134.333 620.423 133.4C623.023 132.467 625.057 131.2 626.523 129.6H626.823V130.9C625.29 133.233 623.123 135.167 620.323 136.7C617.523 138.233 614.257 139 610.523 139ZM677.791 153V64H693.991V65.8H681.291V151.2H693.991V153H677.791ZM717.138 76.2C716.071 76.2 715.171 75.8333 714.438 75.1C713.705 74.3667 713.338 73.4667 713.338 72.4C713.338 71.3333 713.705 70.4333 714.438 69.7C715.171 68.9667 716.071 68.6 717.138 68.6C718.205 68.6 719.105 68.9667 719.838 69.7C720.571 70.4333 720.938 71.3333 720.938 72.4C720.938 73.4667 720.571 74.3667 719.838 75.1C719.105 75.8333 718.205 76.2 717.138 76.2ZM709.738 138V136.5L716.038 134.8V96.8L708.738 94.9V93.4L720.038 92H721.038V134.8L728.138 136.5V138H709.738ZM742.814 153V151.2H755.514V65.8H742.814V64H759.014V153H742.814ZM823.761 139C821.427 139 819.327 138.733 817.461 138.2C815.661 137.733 813.794 137.033 811.861 136.1V125.7H813.061L814.461 130.2C815.061 132.2 816.161 133.8 817.761 135C819.361 136.133 821.627 136.7 824.561 136.7C827.761 136.7 830.227 135.933 831.961 134.4C833.761 132.8 834.661 130.533 834.661 127.6C834.661 125 833.961 122.967 832.561 121.5C831.161 119.967 828.561 118.433 824.761 116.9C820.761 115.3 817.794 113.567 815.861 111.7C813.994 109.833 813.061 107.167 813.061 103.7C813.061 101.567 813.627 99.6333 814.761 97.9C815.961 96.1 817.527 94.6667 819.461 93.6C821.394 92.5333 823.461 92 825.661 92C828.127 92 830.327 92.3 832.261 92.9C834.194 93.4333 835.861 94.0667 837.261 94.8V105H836.061L834.761 100.7C834.094 98.3667 832.827 96.7 830.961 95.7C829.161 94.7 827.327 94.2 825.461 94.2C822.861 94.2 820.861 94.9667 819.461 96.5C818.127 98.0333 817.461 100.033 817.461 102.5C817.461 104.967 818.194 106.9 819.661 108.3C821.127 109.7 823.494 111.067 826.761 112.4C829.694 113.6 832.061 114.767 833.861 115.9C835.727 117.033 837.094 118.433 837.961 120.1C838.827 121.7 839.261 123.767 839.261 126.3C839.261 128.567 838.627 130.667 837.361 132.6C836.094 134.533 834.294 136.1 831.961 137.3C829.627 138.433 826.894 139 823.761 139ZM892.588 153V64H908.788V65.8H896.088V151.2H908.788V153H892.588ZM919.435 153V151.2H932.135V65.8H919.435V64H935.635V153H919.435ZM1008.58 139C1003.92 139 999.982 138 996.782 136C993.649 134 991.249 131.3 989.582 127.9C987.982 124.5 987.182 120.667 987.182 116.4C987.182 111.733 988.115 107.567 989.982 103.9C991.915 100.167 994.549 97.2667 997.882 95.2C1001.28 93.0667 1005.12 92 1009.38 92C1012.05 92 1014.42 92.3667 1016.48 93.1C1018.55 93.8333 1020.22 94.6333 1021.48 95.5C1023.62 96.9667 1024.68 98.2333 1024.68 99.3C1024.68 99.7667 1024.45 100.2 1023.98 100.6L1021.28 102.9H1020.88L1019.58 101.1C1018.12 99.1 1016.52 97.4667 1014.78 96.2C1013.12 94.8667 1010.95 94.2 1008.28 94.2C1003.62 94.2 999.749 95.9667 996.682 99.5C993.682 102.967 992.182 108.167 992.182 115.1C992.182 120.967 993.715 125.733 996.782 129.4C999.915 133 1004.32 134.8 1009.98 134.8C1013.05 134.8 1015.88 134.333 1018.48 133.4C1021.08 132.467 1023.12 131.2 1024.58 129.6H1024.88V130.9C1023.35 133.233 1021.18 135.167 1018.38 136.7C1015.58 138.233 1012.32 139 1008.58 139ZM1075.85 153V64H1092.05V65.8H1079.35V151.2H1092.05V153H1075.85ZM1117 139C1113.93 139 1111.36 138.1 1109.3 136.3C1107.23 134.433 1106.2 131.867 1106.2 128.6C1106.2 125.4 1107.33 122.733 1109.6 120.6C1111.93 118.467 1115.76 116.733 1121.1 115.4L1130.9 112.9V104.6C1130.9 101.733 1129.86 99.4333 1127.8 97.7C1125.73 95.9 1123.36 95 1120.7 95C1117.83 95 1115.8 95.6 1114.6 96.8C1113.46 97.9333 1112.9 99.5 1112.9 101.5V105.6L1112.4 106.1H1109.8C1108.73 106.1 1108.03 105.933 1107.7 105.6C1107.36 105.267 1107.2 104.633 1107.2 103.7C1107.2 102.433 1107.63 101.133 1108.5 99.8C1109.36 98.4667 1110.63 97.2667 1112.3 96.2C1114.1 95.0667 1115.9 94.1 1117.7 93.3C1119.56 92.4333 1121.33 92 1123 92C1127 92 1130.13 92.9 1132.4 94.7C1134.73 96.4333 1135.9 99.1667 1135.9 102.9V134C1136.43 134.467 1137.03 134.833 1137.7 135.1C1138.43 135.367 1139.26 135.5 1140.2 135.5H1145.4L1145.5 135.6V135.8C1145.03 136.467 1144.26 137.167 1143.2 137.9C1142.13 138.633 1140.7 139 1138.9 139C1136.56 139 1134.76 138.4 1133.5 137.2C1132.23 136 1131.46 134.6 1131.2 133H1131C1129.26 134.733 1127.16 136.167 1124.7 137.3C1122.3 138.433 1119.73 139 1117 139ZM1111.2 126.8C1111.2 129.533 1111.96 131.6 1113.5 133C1115.03 134.333 1117.2 135 1120 135C1121.66 135 1123.46 134.767 1125.4 134.3C1127.33 133.767 1129.16 132.967 1130.9 131.9V115C1125.36 116.133 1121.16 117.267 1118.3 118.4C1115.5 119.533 1113.6 120.767 1112.6 122.1C1111.66 123.433 1111.2 125 1111.2 126.8ZM1155.91 153V151.2H1168.61V65.8H1155.91V64H1172.11V153H1155.91ZM1245.06 139C1240.39 139 1236.46 138 1233.26 136C1230.13 134 1227.73 131.3 1226.06 127.9C1224.46 124.5 1223.66 120.667 1223.66 116.4C1223.66 111.733 1224.59 107.567 1226.46 103.9C1228.39 100.167 1231.03 97.2667 1234.36 95.2C1237.76 93.0667 1241.59 92 1245.86 92C1248.53 92 1250.89 92.3667 1252.96 93.1C1255.03 93.8333 1256.69 94.6333 1257.96 95.5C1260.09 96.9667 1261.16 98.2333 1261.16 99.3C1261.16 99.7667 1260.93 100.2 1260.46 100.6L1257.76 102.9H1257.36L1256.06 101.1C1254.59 99.1 1252.99 97.4667 1251.26 96.2C1249.59 94.8667 1247.43 94.2 1244.76 94.2C1240.09 94.2 1236.23 95.9667 1233.16 99.5C1230.16 102.967 1228.66 108.167 1228.66 115.1C1228.66 120.967 1230.19 125.733 1233.26 129.4C1236.39 133 1240.79 134.8 1246.46 134.8C1249.53 134.8 1252.36 134.333 1254.96 133.4C1257.56 132.467 1259.59 131.2 1261.06 129.6H1261.36V130.9C1259.83 133.233 1257.66 135.167 1254.86 136.7C1252.06 138.233 1248.79 139 1245.06 139ZM1333.23 139C1328.56 139 1324.63 138 1321.43 136C1318.29 134 1315.89 131.3 1314.23 127.9C1312.63 124.5 1311.83 120.667 1311.83 116.4C1311.83 111.733 1312.76 107.567 1314.63 103.9C1316.56 100.167 1319.19 97.2667 1322.53 95.2C1325.93 93.0667 1329.76 92 1334.03 92C1336.69 92 1339.06 92.3667 1341.13 93.1C1343.19 93.8333 1344.86 94.6333 1346.13 95.5C1348.26 96.9667 1349.33 98.2333 1349.33 99.3C1349.33 99.7667 1349.09 100.2 1348.63 100.6L1345.93 102.9H1345.53L1344.23 101.1C1342.76 99.1 1341.16 97.4667 1339.43 96.2C1337.76 94.8667 1335.59 94.2 1332.93 94.2C1328.26 94.2 1324.39 95.9667 1321.33 99.5C1318.33 102.967 1316.83 108.167 1316.83 115.1C1316.83 120.967 1318.36 125.733 1321.43 129.4C1324.56 133 1328.96 134.8 1334.63 134.8C1337.69 134.8 1340.53 134.333 1343.13 133.4C1345.73 132.467 1347.76 131.2 1349.23 129.6H1349.53V130.9C1347.99 133.233 1345.83 135.167 1343.03 136.7C1340.23 138.233 1336.96 139 1333.23 139ZM1400.49 153V64H1416.69V65.8H1403.99V151.2H1416.69V153H1400.49ZM1441.64 139C1438.57 139 1436.01 138.1 1433.94 136.3C1431.87 134.433 1430.84 131.867 1430.84 128.6C1430.84 125.4 1431.97 122.733 1434.24 120.6C1436.57 118.467 1440.41 116.733 1445.74 115.4L1455.54 112.9V104.6C1455.54 101.733 1454.51 99.4333 1452.44 97.7C1450.37 95.9 1448.01 95 1445.34 95C1442.47 95 1440.44 95.6 1439.24 96.8C1438.11 97.9333 1437.54 99.5 1437.54 101.5V105.6L1437.04 106.1H1434.44C1433.37 106.1 1432.67 105.933 1432.34 105.6C1432.01 105.267 1431.84 104.633 1431.84 103.7C1431.84 102.433 1432.27 101.133 1433.14 99.8C1434.01 98.4667 1435.27 97.2667 1436.94 96.2C1438.74 95.0667 1440.54 94.1 1442.34 93.3C1444.21 92.4333 1445.97 92 1447.64 92C1451.64 92 1454.77 92.9 1457.04 94.7C1459.37 96.4333 1460.54 99.1667 1460.54 102.9V134C1461.07 134.467 1461.67 134.833 1462.34 135.1C1463.07 135.367 1463.91 135.5 1464.84 135.5H1470.04L1470.14 135.6V135.8C1469.67 136.467 1468.91 137.167 1467.84 137.9C1466.77 138.633 1465.34 139 1463.54 139C1461.21 139 1459.41 138.4 1458.14 137.2C1456.87 136 1456.11 134.6 1455.84 133H1455.64C1453.91 134.733 1451.81 136.167 1449.34 137.3C1446.94 138.433 1444.37 139 1441.64 139ZM1435.84 126.8C1435.84 129.533 1436.61 131.6 1438.14 133C1439.67 134.333 1441.84 135 1444.64 135C1446.31 135 1448.11 134.767 1450.04 134.3C1451.97 133.767 1453.81 132.967 1455.54 131.9V115C1450.01 116.133 1445.81 117.267 1442.94 118.4C1440.14 119.533 1438.24 120.767 1437.24 122.1C1436.31 123.433 1435.84 125 1435.84 126.8ZM1480.56 153V151.2H1493.26V65.8H1480.56V64H1496.76V153H1480.56ZM1563.7 138.5L1547.4 96.4L1541.1 94.5V93H1560.3V94.5L1552.6 96.2V96.5L1565.5 131.5H1565.8L1578.5 96.6V96.3L1570.4 94.5V93H1588.1V94.5L1581.7 96.4L1564.7 138.5H1563.7ZM1632.19 153V64H1648.39V65.8H1635.69V151.2H1648.39V153H1632.19ZM1673.33 139C1670.27 139 1667.7 138.1 1665.63 136.3C1663.57 134.433 1662.53 131.867 1662.53 128.6C1662.53 125.4 1663.67 122.733 1665.93 120.6C1668.27 118.467 1672.1 116.733 1677.43 115.4L1687.23 112.9V104.6C1687.23 101.733 1686.2 99.4333 1684.13 97.7C1682.07 95.9 1679.7 95 1677.03 95C1674.17 95 1672.13 95.6 1670.93 96.8C1669.8 97.9333 1669.23 99.5 1669.23 101.5V105.6L1668.73 106.1H1666.13C1665.07 106.1 1664.37 105.933 1664.03 105.6C1663.7 105.267 1663.53 104.633 1663.53 103.7C1663.53 102.433 1663.97 101.133 1664.83 99.8C1665.7 98.4667 1666.97 97.2667 1668.63 96.2C1670.43 95.0667 1672.23 94.1 1674.03 93.3C1675.9 92.4333 1677.67 92 1679.33 92C1683.33 92 1686.47 92.9 1688.73 94.7C1691.07 96.4333 1692.23 99.1667 1692.23 102.9V134C1692.77 134.467 1693.37 134.833 1694.03 135.1C1694.77 135.367 1695.6 135.5 1696.53 135.5H1701.73L1701.83 135.6V135.8C1701.37 136.467 1700.6 137.167 1699.53 137.9C1698.47 138.633 1697.03 139 1695.23 139C1692.9 139 1691.1 138.4 1689.83 137.2C1688.57 136 1687.8 134.6 1687.53 133H1687.33C1685.6 134.733 1683.5 136.167 1681.03 137.3C1678.63 138.433 1676.07 139 1673.33 139ZM1667.53 126.8C1667.53 129.533 1668.3 131.6 1669.83 133C1671.37 134.333 1673.53 135 1676.33 135C1678 135 1679.8 134.767 1681.73 134.3C1683.67 133.767 1685.5 132.967 1687.23 131.9V115C1681.7 116.133 1677.5 117.267 1674.63 118.4C1671.83 119.533 1669.93 120.767 1668.93 122.1C1668 123.433 1667.53 125 1667.53 126.8ZM1712.25 153V151.2H1724.95V65.8H1712.25V64H1728.45V153H1712.25ZM1780.39 138V136.5L1786.69 134.8V67.8L1779.39 65.9V64.4L1790.69 63H1791.69V134.8L1798.79 136.5V138H1780.39ZM1849.72 153V64H1865.92V65.8H1853.22V151.2H1865.92V153H1849.72ZM1901.96 139C1897.23 139 1893.23 138 1889.96 136C1886.76 134 1884.33 131.3 1882.66 127.9C1881.06 124.5 1880.26 120.667 1880.26 116.4C1880.26 111.867 1881.2 107.767 1883.06 104.1C1885 100.433 1887.5 97.5 1890.56 95.3C1893.7 93.1 1897.1 92 1900.76 92C1906.03 92 1910.16 93.7333 1913.16 97.2C1916.16 100.667 1917.9 105.467 1918.36 111.6L1918.06 111.9H1885.36C1885.3 112.9 1885.26 113.967 1885.26 115.1C1885.26 120.967 1886.83 125.733 1889.96 129.4C1893.16 133 1897.63 134.8 1903.36 134.8C1906.5 134.8 1909.33 134.333 1911.86 133.4C1914.46 132.467 1916.5 131.2 1917.96 129.6H1918.26V130.9C1916.8 133.233 1914.63 135.167 1911.76 136.7C1908.96 138.233 1905.7 139 1901.96 139ZM1899.56 94.2C1896.3 94.2 1893.36 95.5667 1890.76 98.3C1888.16 100.967 1886.46 104.767 1885.66 109.7H1912.86C1912.2 104.833 1910.83 101.033 1908.76 98.3C1906.7 95.5667 1903.63 94.2 1899.56 94.2ZM1931.73 153V151.2H1944.43V65.8H1931.73V64H1947.93V153H1931.73ZM228.933 285.2V206.88H243.189V208.464H232.013V283.616H243.189V285.2H228.933ZM270.598 272.88C267.019 272.88 264.086 271.853 261.798 269.8C259.51 267.747 258.366 264.755 258.366 260.824V235.216L252.118 233.72V232.4H262.766V258.448C262.766 262.027 263.675 264.755 265.494 266.632C267.371 268.451 269.776 269.36 272.71 269.36C274.411 269.36 276.23 268.949 278.166 268.128C280.16 267.248 281.774 266.016 283.006 264.432V235.216L275.878 233.72V232.4H287.406V269.184L293.654 270.68V272H283.006V266.632H282.742C280.63 268.744 278.635 270.328 276.758 271.384C274.88 272.381 272.827 272.88 270.598 272.88ZM302.656 285.2V283.616H313.832V208.464H302.656V206.88H316.912V285.2H302.656ZM331.121 272V270.68L336.225 269.272L347.401 252.2L336.665 235.304L331.561 233.72V232.4H347.137V233.72L341.593 235.216V235.48L350.393 249.296L358.489 235.48V235.216L353.649 233.72V232.4H366.057V233.72L361.305 235.656L351.185 250.528L363.065 269.096L367.553 270.68V272H353.121V270.68L358.049 269.184V268.92L348.193 253.52L339.569 268.92V269.184L344.321 270.68V272H331.121Z" fill="black"/>
<path d="M418.313 272.88C415.38 272.88 412.769 272.117 410.481 270.592C408.193 269.067 406.375 266.925 405.025 264.168C403.735 261.352 403.089 258.008 403.089 254.136C403.089 249.325 404.028 245.248 405.905 241.904C407.783 238.501 410.276 235.92 413.385 234.16C416.495 232.4 419.927 231.52 423.681 231.52C424.972 231.52 426.321 231.755 427.729 232.224C429.137 232.635 430.516 233.192 431.865 233.896V210.224L425.441 208.552V207.232L435.385 206H436.265V269.184L442.513 270.68V272H432.745L431.953 267.512H431.513C429.519 269.213 427.436 270.533 425.265 271.472C423.153 272.411 420.836 272.88 418.313 272.88ZM407.225 252.728C407.225 256.659 407.871 259.915 409.161 262.496C410.452 265.019 412.124 266.896 414.177 268.128C416.289 269.301 418.46 269.888 420.689 269.888C422.625 269.888 424.561 269.536 426.497 268.832C428.433 268.128 430.223 266.984 431.865 265.4V237.064C430.047 236.067 428.228 235.275 426.409 234.688C424.591 234.101 422.655 233.808 420.601 233.808C418.196 233.808 415.967 234.424 413.913 235.656C411.919 236.888 410.305 238.912 409.073 241.728C407.841 244.485 407.225 248.152 407.225 252.728ZM472.341 272.88C468.175 272.88 464.655 272 461.781 270.24C458.965 268.48 456.823 266.104 455.357 263.112C453.949 260.12 453.245 256.747 453.245 252.992C453.245 249.003 454.066 245.395 455.709 242.168C457.41 238.941 459.61 236.36 462.309 234.424C465.066 232.488 468.058 231.52 471.285 231.52C475.919 231.52 479.557 233.045 482.197 236.096C484.837 239.147 486.362 243.371 486.773 248.768L486.509 249.032H457.733C457.674 249.912 457.645 250.851 457.645 251.848C457.645 257.011 459.023 261.205 461.781 264.432C464.597 267.6 468.527 269.184 473.573 269.184C476.33 269.184 478.823 268.773 481.053 267.952C483.341 267.131 485.13 266.016 486.421 264.608H486.685V265.752C485.394 267.805 483.487 269.507 480.965 270.856C478.501 272.205 475.626 272.88 472.341 272.88ZM470.229 233.456C467.354 233.456 464.773 234.659 462.485 237.064C460.197 239.411 458.701 242.755 457.997 247.096H481.933C481.346 242.813 480.143 239.469 478.325 237.064C476.506 234.659 473.807 233.456 470.229 233.456ZM509.34 272.88C507.286 272.88 505.438 272.645 503.796 272.176C502.212 271.765 500.569 271.149 498.868 270.328V261.176H499.924L501.156 265.136C501.684 266.896 502.652 268.304 504.06 269.36C505.468 270.357 507.462 270.856 510.044 270.856C512.86 270.856 515.03 270.181 516.556 268.832C518.14 267.424 518.932 265.429 518.932 262.848C518.932 260.56 518.316 258.771 517.084 257.48C515.852 256.131 513.564 254.781 510.22 253.432C506.7 252.024 504.089 250.499 502.388 248.856C500.745 247.213 499.924 244.867 499.924 241.816C499.924 239.939 500.422 238.237 501.42 236.712C502.476 235.128 503.854 233.867 505.556 232.928C507.257 231.989 509.076 231.52 511.012 231.52C513.182 231.52 515.118 231.784 516.82 232.312C518.521 232.781 519.988 233.339 521.22 233.984V242.96H520.164L519.02 239.176C518.433 237.123 517.318 235.656 515.676 234.776C514.092 233.896 512.478 233.456 510.836 233.456C508.548 233.456 506.788 234.131 505.556 235.48C504.382 236.829 503.796 238.589 503.796 240.76C503.796 242.931 504.441 244.632 505.732 245.864C507.022 247.096 509.105 248.299 511.98 249.472C514.561 250.528 516.644 251.555 518.228 252.552C519.87 253.549 521.073 254.781 521.836 256.248C522.598 257.656 522.98 259.475 522.98 261.704C522.98 263.699 522.422 265.547 521.308 267.248C520.193 268.949 518.609 270.328 516.556 271.384C514.502 272.381 512.097 272.88 509.34 272.88ZM543.244 217.616C542.305 217.616 541.513 217.293 540.868 216.648C540.222 216.003 539.9 215.211 539.9 214.272C539.9 213.333 540.222 212.541 540.868 211.896C541.513 211.251 542.305 210.928 543.244 210.928C544.182 210.928 544.974 211.251 545.62 211.896C546.265 212.541 546.588 213.333 546.588 214.272C546.588 215.211 546.265 216.003 545.62 216.648C544.974 217.293 544.182 217.616 543.244 217.616ZM536.732 272V270.68L542.276 269.184V235.744L535.852 234.072V232.752L545.796 231.52H546.676V269.184L552.924 270.68V272H536.732ZM580.094 258.712C578.334 258.712 576.662 258.419 575.078 257.832C573.142 258.653 571.793 259.533 571.03 260.472C570.268 261.411 569.886 262.496 569.886 263.728C569.886 265.723 570.59 267.16 571.998 268.04C573.406 268.92 575.577 269.36 578.51 269.36H588.454C591.916 269.36 594.556 270.181 596.374 271.824C598.252 273.467 599.19 275.725 599.19 278.6C599.19 281.005 598.369 283.323 596.726 285.552C595.084 287.781 592.796 289.6 589.862 291.008C586.929 292.416 583.468 293.12 579.478 293.12C574.374 293.12 570.708 292.093 568.478 290.04C566.249 288.045 565.134 285.581 565.134 282.648C565.134 280.477 565.574 278.6 566.454 277.016L571.822 272.528V272.352C568.009 271.237 566.102 268.92 566.102 265.4C566.102 263.464 566.748 261.851 568.038 260.56L573.23 257.48V257.04C571.118 255.925 569.446 254.341 568.214 252.288C566.982 250.176 566.366 247.8 566.366 245.16C566.366 242.579 566.953 240.261 568.126 238.208C569.358 236.155 571.001 234.541 573.054 233.368C575.108 232.136 577.454 231.52 580.094 231.52C581.385 231.52 582.793 231.696 584.318 232.048C585.844 232.341 587.046 232.693 587.926 233.104L599.894 232.4V236.008L591.006 235.392L590.83 235.568C591.769 236.565 592.473 237.973 592.942 239.792C593.47 241.552 593.734 243.341 593.734 245.16C593.734 247.741 593.148 250.059 591.974 252.112C590.801 254.165 589.188 255.779 587.134 256.952C585.081 258.125 582.734 258.712 580.094 258.712ZM580.974 256.952C583.497 256.952 585.492 255.955 586.958 253.96C588.484 251.907 589.246 249.032 589.246 245.336C589.246 241.288 588.308 238.267 586.43 236.272C584.553 234.219 582.236 233.192 579.478 233.192C576.78 233.192 574.668 234.248 573.142 236.36C571.617 238.413 570.854 241.259 570.854 244.896C570.854 248.944 571.793 251.965 573.67 253.96C575.606 255.955 578.041 256.952 580.974 256.952ZM569.182 281.68C569.182 284.379 570.297 286.637 572.526 288.456C574.814 290.275 577.601 291.184 580.886 291.184C583.702 291.184 586.196 290.656 588.366 289.6C590.537 288.603 592.238 287.253 593.47 285.552C594.702 283.909 595.318 282.149 595.318 280.272C595.318 277.456 594.585 275.52 593.118 274.464C591.71 273.408 589.158 272.88 585.462 272.88H576.222C575.342 272.88 574.492 272.821 573.67 272.704C571.969 273.701 570.796 274.904 570.15 276.312C569.505 277.779 569.182 279.568 569.182 281.68ZM611.498 272V270.68L617.042 269.184V235.744L610.618 234.952V233.632L620.122 231.52H621.002L621.354 237.856H621.618C623.789 235.627 625.842 234.013 627.778 233.016C629.714 232.019 631.885 231.52 634.29 231.52C637.986 231.52 641.007 232.547 643.354 234.6C645.759 236.653 646.962 239.645 646.962 243.576V269.184L652.506 270.68V272H636.314V270.68L642.562 269.184V245.952C642.562 242.373 641.594 239.675 639.658 237.856C637.781 235.979 635.287 235.04 632.178 235.04C630.418 235.04 628.511 235.48 626.458 236.36C624.405 237.181 622.733 238.384 621.442 239.968V269.184L627.69 270.68V272H611.498ZM681.416 272.88C677.251 272.88 673.731 272 670.856 270.24C668.04 268.48 665.899 266.104 664.432 263.112C663.024 260.12 662.32 256.747 662.32 252.992C662.32 249.003 663.141 245.395 664.784 242.168C666.485 238.941 668.686 236.36 671.384 234.424C674.141 232.488 677.134 231.52 680.36 231.52C684.995 231.52 688.632 233.045 691.272 236.096C693.912 239.147 695.438 243.371 695.848 248.768L695.584 249.032H666.808C666.749 249.912 666.72 250.851 666.72 251.848C666.72 257.011 668.099 261.205 670.856 264.432C673.672 267.6 677.603 269.184 682.648 269.184C685.406 269.184 687.899 268.773 690.128 267.952C692.416 267.131 694.206 266.016 695.496 264.608H695.76V265.752C694.47 267.805 692.563 269.507 690.04 270.856C687.576 272.205 684.702 272.88 681.416 272.88ZM679.304 233.456C676.43 233.456 673.848 234.659 671.56 237.064C669.272 239.411 667.776 242.755 667.072 247.096H691.008C690.422 242.813 689.219 239.469 687.4 237.064C685.582 234.659 682.883 233.456 679.304 233.456ZM707.855 272V270.68L713.399 269.184V235.744L706.975 234.952V233.632L716.479 231.52H717.359L717.799 239.352H717.975C720.263 236.947 722.082 235.187 723.431 234.072C724.781 232.957 725.895 232.253 726.775 231.96C727.655 231.667 728.653 231.52 729.767 231.52C730.765 231.52 731.674 231.696 732.495 232.048C733.082 232.283 733.493 232.517 733.727 232.752C734.021 232.928 734.167 233.192 734.167 233.544C734.167 233.661 734.138 233.808 734.079 233.984C734.079 234.101 734.05 234.277 733.991 234.512L733.111 236.8H732.935L731.263 236.008C730.442 235.597 729.357 235.392 728.007 235.392C726.306 235.392 724.605 235.861 722.903 236.8C721.202 237.739 719.501 239.381 717.799 241.728V269.184L724.575 270.68V272H707.855ZM781.804 272.88C777.639 272.88 774.119 272 771.244 270.24C768.428 268.48 766.287 266.104 764.82 263.112C763.412 260.12 762.708 256.747 762.708 252.992C762.708 249.003 763.53 245.395 765.172 242.168C766.874 238.941 769.074 236.36 771.772 234.424C774.53 232.488 777.522 231.52 780.748 231.52C785.383 231.52 789.02 233.045 791.66 236.096C794.3 239.147 795.826 243.371 796.236 248.768L795.972 249.032H767.196C767.138 249.912 767.108 250.851 767.108 251.848C767.108 257.011 768.487 261.205 771.244 264.432C774.06 267.6 777.991 269.184 783.036 269.184C785.794 269.184 788.287 268.773 790.516 267.952C792.804 267.131 794.594 266.016 795.884 264.608H796.148V265.752C794.858 267.805 792.951 269.507 790.428 270.856C787.964 272.205 785.09 272.88 781.804 272.88ZM779.692 233.456C776.818 233.456 774.236 234.659 771.948 237.064C769.66 239.411 768.164 242.755 767.46 247.096H791.396C790.81 242.813 789.607 239.469 787.788 237.064C785.97 234.659 783.271 233.456 779.692 233.456ZM807.891 272V270.68L813.435 269.184V235.744L807.011 234.952V233.632L816.515 231.52H817.395L817.747 237.856H818.011C820.182 235.627 822.235 234.013 824.171 233.016C826.107 232.019 828.278 231.52 830.683 231.52C834.379 231.52 837.401 232.547 839.747 234.6C842.153 236.653 843.355 239.645 843.355 243.576V269.184L848.899 270.68V272H832.707V270.68L838.955 269.184V245.952C838.955 242.373 837.987 239.675 836.051 237.856C834.174 235.979 831.681 235.04 828.571 235.04C826.811 235.04 824.905 235.48 822.851 236.36C820.798 237.181 819.126 238.384 817.835 239.968V269.184L824.083 270.68V272H807.891ZM874.641 258.712C872.881 258.712 871.209 258.419 869.625 257.832C867.689 258.653 866.34 259.533 865.577 260.472C864.815 261.411 864.433 262.496 864.433 263.728C864.433 265.723 865.137 267.16 866.545 268.04C867.953 268.92 870.124 269.36 873.057 269.36H883.001C886.463 269.36 889.103 270.181 890.921 271.824C892.799 273.467 893.737 275.725 893.737 278.6C893.737 281.005 892.916 283.323 891.273 285.552C889.631 287.781 887.343 289.6 884.409 291.008C881.476 292.416 878.015 293.12 874.025 293.12C868.921 293.12 865.255 292.093 863.025 290.04C860.796 288.045 859.681 285.581 859.681 282.648C859.681 280.477 860.121 278.6 861.001 277.016L866.369 272.528V272.352C862.556 271.237 860.649 268.92 860.649 265.4C860.649 263.464 861.295 261.851 862.585 260.56L867.777 257.48V257.04C865.665 255.925 863.993 254.341 862.761 252.288C861.529 250.176 860.913 247.8 860.913 245.16C860.913 242.579 861.5 240.261 862.673 238.208C863.905 236.155 865.548 234.541 867.601 233.368C869.655 232.136 872.001 231.52 874.641 231.52C875.932 231.52 877.34 231.696 878.865 232.048C880.391 232.341 881.593 232.693 882.473 233.104L894.441 232.4V236.008L885.553 235.392L885.377 235.568C886.316 236.565 887.02 237.973 887.489 239.792C888.017 241.552 888.281 243.341 888.281 245.16C888.281 247.741 887.695 250.059 886.521 252.112C885.348 254.165 883.735 255.779 881.681 256.952C879.628 258.125 877.281 258.712 874.641 258.712ZM875.521 256.952C878.044 256.952 880.039 255.955 881.505 253.96C883.031 251.907 883.793 249.032 883.793 245.336C883.793 241.288 882.855 238.267 880.977 236.272C879.1 234.219 876.783 233.192 874.025 233.192C871.327 233.192 869.215 234.248 867.689 236.36C866.164 238.413 865.401 241.259 865.401 244.896C865.401 248.944 866.34 251.965 868.217 253.96C870.153 255.955 872.588 256.952 875.521 256.952ZM863.729 281.68C863.729 284.379 864.844 286.637 867.073 288.456C869.361 290.275 872.148 291.184 875.433 291.184C878.249 291.184 880.743 290.656 882.913 289.6C885.084 288.603 886.785 287.253 888.017 285.552C889.249 283.909 889.865 282.149 889.865 280.272C889.865 277.456 889.132 275.52 887.665 274.464C886.257 273.408 883.705 272.88 880.009 272.88H870.769C869.889 272.88 869.039 272.821 868.217 272.704C866.516 273.701 865.343 274.904 864.697 276.312C864.052 277.779 863.729 279.568 863.729 281.68ZM913.085 217.616C912.146 217.616 911.354 217.293 910.709 216.648C910.064 216.003 909.741 215.211 909.741 214.272C909.741 213.333 910.064 212.541 910.709 211.896C911.354 211.251 912.146 210.928 913.085 210.928C914.024 210.928 914.816 211.251 915.461 211.896C916.106 212.541 916.429 213.333 916.429 214.272C916.429 215.211 916.106 216.003 915.461 216.648C914.816 217.293 914.024 217.616 913.085 217.616ZM906.573 272V270.68L912.117 269.184V235.744L905.693 234.072V232.752L915.637 231.52H916.517V269.184L922.765 270.68V272H906.573ZM934.712 272V270.68L940.256 269.184V235.744L933.832 234.952V233.632L943.336 231.52H944.216L944.568 237.856H944.832C947.002 235.627 949.056 234.013 950.992 233.016C952.928 232.019 955.098 231.52 957.504 231.52C961.2 231.52 964.221 232.547 966.568 234.6C968.973 236.653 970.176 239.645 970.176 243.576V269.184L975.72 270.68V272H959.528V270.68L965.776 269.184V245.952C965.776 242.373 964.808 239.675 962.872 237.856C960.994 235.979 958.501 235.04 955.392 235.04C953.632 235.04 951.725 235.48 949.672 236.36C947.618 237.181 945.946 238.384 944.656 239.968V269.184L950.904 270.68V272H934.712ZM1004.63 272.88C1000.46 272.88 996.945 272 994.07 270.24C991.254 268.48 989.113 266.104 987.646 263.112C986.238 260.12 985.534 256.747 985.534 252.992C985.534 249.003 986.355 245.395 987.998 242.168C989.699 238.941 991.899 236.36 994.598 234.424C997.355 232.488 1000.35 231.52 1003.57 231.52C1008.21 231.52 1011.85 233.045 1014.49 236.096C1017.13 239.147 1018.65 243.371 1019.06 248.768L1018.8 249.032H990.022C989.963 249.912 989.934 250.851 989.934 251.848C989.934 257.011 991.313 261.205 994.07 264.432C996.886 267.6 1000.82 269.184 1005.86 269.184C1008.62 269.184 1011.11 268.773 1013.34 267.952C1015.63 267.131 1017.42 266.016 1018.71 264.608H1018.97V265.752C1017.68 267.805 1015.78 269.507 1013.25 270.856C1010.79 272.205 1007.92 272.88 1004.63 272.88ZM1002.52 233.456C999.643 233.456 997.062 234.659 994.774 237.064C992.486 239.411 990.99 242.755 990.286 247.096H1014.22C1013.64 242.813 1012.43 239.469 1010.61 237.064C1008.8 234.659 1006.1 233.456 1002.52 233.456ZM1049.97 272.88C1045.8 272.88 1042.28 272 1039.41 270.24C1036.59 268.48 1034.45 266.104 1032.98 263.112C1031.58 260.12 1030.87 256.747 1030.87 252.992C1030.87 249.003 1031.69 245.395 1033.34 242.168C1035.04 238.941 1037.24 236.36 1039.94 234.424C1042.69 232.488 1045.69 231.52 1048.91 231.52C1053.55 231.52 1057.18 233.045 1059.82 236.096C1062.46 239.147 1063.99 243.371 1064.4 248.768L1064.14 249.032H1035.36C1035.3 249.912 1035.27 250.851 1035.27 251.848C1035.27 257.011 1036.65 261.205 1039.41 264.432C1042.22 267.6 1046.16 269.184 1051.2 269.184C1053.96 269.184 1056.45 268.773 1058.68 267.952C1060.97 267.131 1062.76 266.016 1064.05 264.608H1064.31V265.752C1063.02 267.805 1061.12 269.507 1058.59 270.856C1056.13 272.205 1053.25 272.88 1049.97 272.88ZM1047.86 233.456C1044.98 233.456 1042.4 234.659 1040.11 237.064C1037.82 239.411 1036.33 242.755 1035.62 247.096H1059.56C1058.97 242.813 1057.77 239.469 1055.95 237.064C1054.13 234.659 1051.44 233.456 1047.86 233.456ZM1076.41 272V270.68L1081.95 269.184V235.744L1075.53 234.952V233.632L1085.03 231.52H1085.91L1086.35 239.352H1086.53C1088.82 236.947 1090.63 235.187 1091.98 234.072C1093.33 232.957 1094.45 232.253 1095.33 231.96C1096.21 231.667 1097.2 231.52 1098.32 231.52C1099.32 231.52 1100.23 231.696 1101.05 232.048C1101.63 232.283 1102.04 232.517 1102.28 232.752C1102.57 232.928 1102.72 233.192 1102.72 233.544C1102.72 233.661 1102.69 233.808 1102.63 233.984C1102.63 234.101 1102.6 234.277 1102.54 234.512L1101.66 236.8H1101.49L1099.82 236.008C1098.99 235.597 1097.91 235.392 1096.56 235.392C1094.86 235.392 1093.16 235.861 1091.46 236.8C1089.75 237.739 1088.05 239.381 1086.35 241.728V269.184L1093.13 270.68V272H1076.41ZM1132.32 272V270.68L1137.86 269.184V235.744L1131.44 234.952V233.632L1140.94 231.52H1141.82L1142.26 239.352H1142.44C1144.72 236.947 1146.54 235.187 1147.89 234.072C1149.24 232.957 1150.36 232.253 1151.24 231.96C1152.12 231.667 1153.11 231.52 1154.23 231.52C1155.23 231.52 1156.14 231.696 1156.96 232.048C1157.54 232.283 1157.95 232.517 1158.19 232.752C1158.48 232.928 1158.63 233.192 1158.63 233.544C1158.63 233.661 1158.6 233.808 1158.54 233.984C1158.54 234.101 1158.51 234.277 1158.45 234.512L1157.57 236.8H1157.4L1155.72 236.008C1154.9 235.597 1153.82 235.392 1152.47 235.392C1150.77 235.392 1149.07 235.861 1147.36 236.8C1145.66 237.739 1143.96 239.381 1142.26 241.728V269.184L1149.04 270.68V272H1132.32ZM1184.27 272.88C1180.1 272.88 1176.58 272 1173.71 270.24C1170.89 268.48 1168.75 266.104 1167.28 263.112C1165.87 260.12 1165.17 256.747 1165.17 252.992C1165.17 249.003 1165.99 245.395 1167.63 242.168C1169.33 238.941 1171.53 236.36 1174.23 234.424C1176.99 232.488 1179.98 231.52 1183.21 231.52C1187.84 231.52 1191.48 233.045 1194.12 236.096C1196.76 239.147 1198.29 243.371 1198.7 248.768L1198.43 249.032H1169.66C1169.6 249.912 1169.57 250.851 1169.57 251.848C1169.57 257.011 1170.95 261.205 1173.71 264.432C1176.52 267.6 1180.45 269.184 1185.5 269.184C1188.25 269.184 1190.75 268.773 1192.98 267.952C1195.27 267.131 1197.05 266.016 1198.35 264.608H1198.61V265.752C1197.32 267.805 1195.41 269.507 1192.89 270.856C1190.43 272.205 1187.55 272.88 1184.27 272.88ZM1182.15 233.456C1179.28 233.456 1176.7 234.659 1174.41 237.064C1172.12 239.411 1170.63 242.755 1169.92 247.096H1193.86C1193.27 242.813 1192.07 239.469 1190.25 237.064C1188.43 234.659 1185.73 233.456 1182.15 233.456ZM1221.26 272.88C1219.21 272.88 1217.36 272.645 1215.72 272.176C1214.14 271.765 1212.49 271.149 1210.79 270.328V261.176H1211.85L1213.08 265.136C1213.61 266.896 1214.58 268.304 1215.98 269.36C1217.39 270.357 1219.39 270.856 1221.97 270.856C1224.78 270.856 1226.96 270.181 1228.48 268.832C1230.06 267.424 1230.86 265.429 1230.86 262.848C1230.86 260.56 1230.24 258.771 1229.01 257.48C1227.78 256.131 1225.49 254.781 1222.14 253.432C1218.62 252.024 1216.01 250.499 1214.31 248.856C1212.67 247.213 1211.85 244.867 1211.85 241.816C1211.85 239.939 1212.35 238.237 1213.34 236.712C1214.4 235.128 1215.78 233.867 1217.48 232.928C1219.18 231.989 1221 231.52 1222.94 231.52C1225.11 231.52 1227.04 231.784 1228.74 232.312C1230.45 232.781 1231.91 233.339 1233.14 233.984V242.96H1232.09L1230.94 239.176C1230.36 237.123 1229.24 235.656 1227.6 234.776C1226.02 233.896 1224.4 233.456 1222.76 233.456C1220.47 233.456 1218.71 234.131 1217.48 235.48C1216.31 236.829 1215.72 238.589 1215.72 240.76C1215.72 242.931 1216.37 244.632 1217.66 245.864C1218.95 247.096 1221.03 248.299 1223.9 249.472C1226.49 250.528 1228.57 251.555 1230.15 252.552C1231.8 253.549 1233 254.781 1233.76 256.248C1234.52 257.656 1234.9 259.475 1234.9 261.704C1234.9 263.699 1234.35 265.547 1233.23 267.248C1232.12 268.949 1230.53 270.328 1228.48 271.384C1226.43 272.381 1224.02 272.88 1221.26 272.88ZM1266.52 272.88C1262.36 272.88 1258.84 272 1255.96 270.24C1253.14 268.48 1251 266.104 1249.54 263.112C1248.13 260.12 1247.42 256.747 1247.42 252.992C1247.42 249.003 1248.25 245.395 1249.89 242.168C1251.59 238.941 1253.79 236.36 1256.49 234.424C1259.25 232.488 1262.24 231.52 1265.46 231.52C1270.1 231.52 1273.74 233.045 1276.38 236.096C1279.02 239.147 1280.54 243.371 1280.95 248.768L1280.69 249.032H1251.91C1251.85 249.912 1251.82 250.851 1251.82 251.848C1251.82 257.011 1253.2 261.205 1255.96 264.432C1258.78 267.6 1262.71 269.184 1267.75 269.184C1270.51 269.184 1273 268.773 1275.23 267.952C1277.52 267.131 1279.31 266.016 1280.6 264.608H1280.86V265.752C1279.57 267.805 1277.67 269.507 1275.14 270.856C1272.68 272.205 1269.81 272.88 1266.52 272.88ZM1264.41 233.456C1261.53 233.456 1258.95 234.659 1256.66 237.064C1254.38 239.411 1252.88 242.755 1252.18 247.096H1276.11C1275.53 242.813 1274.32 239.469 1272.5 237.064C1270.69 234.659 1267.99 233.456 1264.41 233.456ZM1301.23 272.88C1298.53 272.88 1296.27 272.088 1294.46 270.504C1292.64 268.861 1291.73 266.603 1291.73 263.728C1291.73 260.912 1292.73 258.565 1294.72 256.688C1296.77 254.811 1300.15 253.285 1304.84 252.112L1313.46 249.912V242.608C1313.46 240.085 1312.55 238.061 1310.74 236.536C1308.92 234.952 1306.83 234.16 1304.49 234.16C1301.97 234.16 1300.18 234.688 1299.12 235.744C1298.12 236.741 1297.62 238.12 1297.62 239.88V243.488L1297.18 243.928H1294.9C1293.96 243.928 1293.34 243.781 1293.05 243.488C1292.75 243.195 1292.61 242.637 1292.61 241.816C1292.61 240.701 1292.99 239.557 1293.75 238.384C1294.51 237.211 1295.63 236.155 1297.1 235.216C1298.68 234.219 1300.26 233.368 1301.85 232.664C1303.49 231.901 1305.05 231.52 1306.51 231.52C1310.03 231.52 1312.79 232.312 1314.78 233.896C1316.84 235.421 1317.86 237.827 1317.86 241.112V268.48C1318.33 268.891 1318.86 269.213 1319.45 269.448C1320.09 269.683 1320.83 269.8 1321.65 269.8H1326.22L1326.31 269.888V270.064C1325.9 270.651 1325.23 271.267 1324.29 271.912C1323.35 272.557 1322.09 272.88 1320.5 272.88C1318.45 272.88 1316.87 272.352 1315.75 271.296C1314.64 270.24 1313.96 269.008 1313.73 267.6H1313.55C1312.03 269.125 1310.18 270.387 1308.01 271.384C1305.9 272.381 1303.64 272.88 1301.23 272.88ZM1296.13 262.144C1296.13 264.549 1296.8 266.368 1298.15 267.6C1299.5 268.773 1301.41 269.36 1303.87 269.36C1305.34 269.36 1306.92 269.155 1308.62 268.744C1310.33 268.275 1311.94 267.571 1313.46 266.632V251.76C1308.59 252.757 1304.9 253.755 1302.38 254.752C1299.91 255.749 1298.24 256.835 1297.36 258.008C1296.54 259.181 1296.13 260.56 1296.13 262.144ZM1334.86 272V270.68L1340.4 269.184V235.744L1333.98 234.952V233.632L1343.48 231.52H1344.36L1344.8 239.352H1344.98C1347.27 236.947 1349.09 235.187 1350.44 234.072C1351.79 232.957 1352.9 232.253 1353.78 231.96C1354.66 231.667 1355.66 231.52 1356.77 231.52C1357.77 231.52 1358.68 231.696 1359.5 232.048C1360.09 232.283 1360.5 232.517 1360.73 232.752C1361.03 232.928 1361.17 233.192 1361.17 233.544C1361.17 233.661 1361.14 233.808 1361.08 233.984C1361.08 234.101 1361.06 234.277 1361 234.512L1360.12 236.8H1359.94L1358.27 236.008C1357.45 235.597 1356.36 235.392 1355.01 235.392C1353.31 235.392 1351.61 235.861 1349.91 236.8C1348.21 237.739 1346.51 239.381 1344.8 241.728V269.184L1351.58 270.68V272H1334.86ZM1386.55 272.88C1382.44 272.88 1378.98 272 1376.16 270.24C1373.4 268.48 1371.29 266.104 1369.83 263.112C1368.42 260.12 1367.71 256.747 1367.71 252.992C1367.71 248.885 1368.54 245.219 1370.18 241.992C1371.88 238.707 1374.2 236.155 1377.13 234.336C1380.12 232.459 1383.5 231.52 1387.25 231.52C1389.6 231.52 1391.68 231.843 1393.5 232.488C1395.32 233.133 1396.78 233.837 1397.9 234.6C1399.78 235.891 1400.71 237.005 1400.71 237.944C1400.71 238.355 1400.51 238.736 1400.1 239.088L1397.72 241.112H1397.37L1396.23 239.528C1394.94 237.768 1393.53 236.331 1392 235.216C1390.54 234.043 1388.63 233.456 1386.28 233.456C1382.18 233.456 1378.77 235.011 1376.07 238.12C1373.43 241.171 1372.11 245.747 1372.11 251.848C1372.11 257.011 1373.46 261.205 1376.16 264.432C1378.92 267.6 1382.79 269.184 1387.78 269.184C1390.48 269.184 1392.97 268.773 1395.26 267.952C1397.55 267.131 1399.34 266.016 1400.63 264.608H1400.89V265.752C1399.54 267.805 1397.63 269.507 1395.17 270.856C1392.71 272.205 1389.83 272.88 1386.55 272.88ZM1412.04 272V270.68L1417.58 269.184V210.224L1411.16 208.552V207.232L1421.1 206H1421.98V237.856H1422.16C1424.33 235.627 1426.38 234.013 1428.32 233.016C1430.25 232.019 1432.42 231.52 1434.83 231.52C1438.53 231.52 1441.55 232.547 1443.89 234.6C1446.3 236.653 1447.5 239.645 1447.5 243.576V269.184L1453.05 270.68V272H1436.85V270.68L1443.1 269.184V245.952C1443.1 242.373 1442.13 239.675 1440.2 237.856C1438.32 235.979 1435.83 235.04 1432.72 235.04C1430.96 235.04 1429.05 235.48 1427 236.36C1424.94 237.181 1423.27 238.384 1421.98 239.968V269.184L1428.23 270.68V272H1412.04ZM1481.96 272.88C1477.79 272.88 1474.27 272 1471.4 270.24C1468.58 268.48 1466.44 266.104 1464.97 263.112C1463.56 260.12 1462.86 256.747 1462.86 252.992C1462.86 249.003 1463.68 245.395 1465.32 242.168C1467.02 238.941 1469.22 236.36 1471.92 234.424C1474.68 232.488 1477.67 231.52 1480.9 231.52C1485.53 231.52 1489.17 233.045 1491.81 236.096C1494.45 239.147 1495.98 243.371 1496.39 248.768L1496.12 249.032H1467.35C1467.29 249.912 1467.26 250.851 1467.26 251.848C1467.26 257.011 1468.64 261.205 1471.4 264.432C1474.21 267.6 1478.14 269.184 1483.19 269.184C1485.94 269.184 1488.44 268.773 1490.67 267.952C1492.96 267.131 1494.74 266.016 1496.04 264.608H1496.3V265.752C1495.01 267.805 1493.1 269.507 1490.58 270.856C1488.12 272.205 1485.24 272.88 1481.96 272.88ZM1479.84 233.456C1476.97 233.456 1474.39 234.659 1472.1 237.064C1469.81 239.411 1468.32 242.755 1467.61 247.096H1491.55C1490.96 242.813 1489.76 239.469 1487.94 237.064C1486.12 234.659 1483.42 233.456 1479.84 233.456ZM1508.39 272V270.68L1513.94 269.184V235.744L1507.51 234.952V233.632L1517.02 231.52H1517.9L1518.34 239.352H1518.51C1520.8 236.947 1522.62 235.187 1523.97 234.072C1525.32 232.957 1526.43 232.253 1527.31 231.96C1528.19 231.667 1529.19 231.52 1530.31 231.52C1531.3 231.52 1532.21 231.696 1533.03 232.048C1533.62 232.283 1534.03 232.517 1534.27 232.752C1534.56 232.928 1534.71 233.192 1534.71 233.544C1534.71 233.661 1534.68 233.808 1534.62 233.984C1534.62 234.101 1534.59 234.277 1534.53 234.512L1533.65 236.8H1533.47L1531.8 236.008C1530.98 235.597 1529.9 235.392 1528.55 235.392C1526.85 235.392 1525.14 235.861 1523.44 236.8C1521.74 237.739 1520.04 239.381 1518.34 241.728V269.184L1525.11 270.68V272H1508.39Z" fill="#BABCBE"/>
<path d="M1574.86 272.88C1572.81 272.88 1570.96 272.645 1569.32 272.176C1567.74 271.765 1566.09 271.149 1564.39 270.328V261.176H1565.45L1566.68 265.136C1567.21 266.896 1568.18 268.304 1569.58 269.36C1570.99 270.357 1572.99 270.856 1575.57 270.856C1578.38 270.856 1580.55 270.181 1582.08 268.832C1583.66 267.424 1584.46 265.429 1584.46 262.848C1584.46 260.56 1583.84 258.771 1582.61 257.48C1581.38 256.131 1579.09 254.781 1575.74 253.432C1572.22 252.024 1569.61 250.499 1567.91 248.856C1566.27 247.213 1565.45 244.867 1565.45 241.816C1565.45 239.939 1565.95 238.237 1566.94 236.712C1568 235.128 1569.38 233.867 1571.08 232.928C1572.78 231.989 1574.6 231.52 1576.54 231.52C1578.71 231.52 1580.64 231.784 1582.34 232.312C1584.04 232.781 1585.51 233.339 1586.74 233.984V242.96H1585.69L1584.54 239.176C1583.96 237.123 1582.84 235.656 1581.2 234.776C1579.62 233.896 1578 233.456 1576.36 233.456C1574.07 233.456 1572.31 234.131 1571.08 235.48C1569.91 236.829 1569.32 238.589 1569.32 240.76C1569.32 242.931 1569.96 244.632 1571.26 245.864C1572.55 247.096 1574.63 248.299 1577.5 249.472C1580.08 250.528 1582.17 251.555 1583.75 252.552C1585.39 253.549 1586.6 254.781 1587.36 256.248C1588.12 257.656 1588.5 259.475 1588.5 261.704C1588.5 263.699 1587.95 265.547 1586.83 267.248C1585.72 268.949 1584.13 270.328 1582.08 271.384C1580.03 272.381 1577.62 272.88 1574.86 272.88ZM1623.02 272.88C1618.92 272.88 1615.46 272 1612.64 270.24C1609.88 268.48 1607.77 266.104 1606.3 263.112C1604.9 260.12 1604.19 256.747 1604.19 252.992C1604.19 248.885 1605.01 245.219 1606.66 241.992C1608.36 238.707 1610.67 236.155 1613.61 234.336C1616.6 232.459 1619.97 231.52 1623.73 231.52C1626.07 231.52 1628.16 231.843 1629.98 232.488C1631.79 233.133 1633.26 233.837 1634.38 234.6C1636.25 235.891 1637.19 237.005 1637.19 237.944C1637.19 238.355 1636.99 238.736 1636.58 239.088L1634.2 241.112H1633.85L1632.7 239.528C1631.41 237.768 1630.01 236.331 1628.48 235.216C1627.01 234.043 1625.11 233.456 1622.76 233.456C1618.65 233.456 1615.25 235.011 1612.55 238.12C1609.91 241.171 1608.59 245.747 1608.59 251.848C1608.59 257.011 1609.94 261.205 1612.64 264.432C1615.4 267.6 1619.27 269.184 1624.26 269.184C1626.95 269.184 1629.45 268.773 1631.74 267.952C1634.02 267.131 1635.81 266.016 1637.1 264.608H1637.37V265.752C1636.02 267.805 1634.11 269.507 1631.65 270.856C1629.18 272.205 1626.31 272.88 1623.02 272.88ZM1658.72 217.616C1657.78 217.616 1656.99 217.293 1656.35 216.648C1655.7 216.003 1655.38 215.211 1655.38 214.272C1655.38 213.333 1655.7 212.541 1656.35 211.896C1656.99 211.251 1657.78 210.928 1658.72 210.928C1659.66 210.928 1660.45 211.251 1661.1 211.896C1661.74 212.541 1662.07 213.333 1662.07 214.272C1662.07 215.211 1661.74 216.003 1661.1 216.648C1660.45 217.293 1659.66 217.616 1658.72 217.616ZM1652.21 272V270.68L1657.76 269.184V235.744L1651.33 234.072V232.752L1661.28 231.52H1662.16V269.184L1668.4 270.68V272H1652.21ZM1701.91 272.88C1697.74 272.88 1694.22 272 1691.35 270.24C1688.53 268.48 1686.39 266.104 1684.93 263.112C1683.52 260.12 1682.81 256.747 1682.81 252.992C1682.81 249.003 1683.64 245.395 1685.28 242.168C1686.98 238.941 1689.18 236.36 1691.88 234.424C1694.64 232.488 1697.63 231.52 1700.85 231.52C1705.49 231.52 1709.13 233.045 1711.77 236.096C1714.41 239.147 1715.93 243.371 1716.34 248.768L1716.08 249.032H1687.3C1687.24 249.912 1687.21 250.851 1687.21 251.848C1687.21 257.011 1688.59 261.205 1691.35 264.432C1694.17 267.6 1698.1 269.184 1703.14 269.184C1705.9 269.184 1708.39 268.773 1710.62 267.952C1712.91 267.131 1714.7 266.016 1715.99 264.608H1716.25V265.752C1714.96 267.805 1713.06 269.507 1710.53 270.856C1708.07 272.205 1705.2 272.88 1701.91 272.88ZM1699.8 233.456C1696.92 233.456 1694.34 234.659 1692.05 237.064C1689.77 239.411 1688.27 242.755 1687.57 247.096H1711.5C1710.92 242.813 1709.71 239.469 1707.89 237.064C1706.08 234.659 1703.38 233.456 1699.8 233.456ZM1731.17 272V270.68L1736.71 269.184V235.744L1730.29 234.952V233.632L1739.79 231.52H1740.67L1741.02 237.856H1741.29C1743.46 235.627 1745.51 234.013 1747.45 233.016C1749.38 232.019 1751.55 231.52 1753.96 231.52C1757.65 231.52 1760.67 232.547 1763.02 234.6C1765.43 236.653 1766.63 239.645 1766.63 243.576V269.184L1772.17 270.68V272H1755.98V270.68L1762.23 269.184V245.952C1762.23 242.373 1761.26 239.675 1759.33 237.856C1757.45 235.979 1754.95 235.04 1751.85 235.04C1750.09 235.04 1748.18 235.48 1746.13 236.36C1744.07 237.181 1742.4 238.384 1741.11 239.968V269.184L1747.36 270.68V272H1731.17ZM1798.18 272.88C1795.77 272.88 1793.81 272.117 1792.28 270.592C1790.82 269.067 1790.08 266.925 1790.08 264.168V235.392H1782.34V234.6L1790.61 232.4L1793.52 222.72H1794.48V232.4H1806.1V235.392H1794.48V263.992C1794.48 265.811 1795.04 267.189 1796.16 268.128C1797.27 269.008 1798.74 269.448 1800.56 269.448C1801.85 269.448 1803.02 269.301 1804.08 269.008C1805.13 268.715 1806.13 268.304 1807.07 267.776L1807.16 267.864V268.216C1806.69 269.213 1805.69 270.24 1804.16 271.296C1802.64 272.352 1800.64 272.88 1798.18 272.88ZM1827.23 217.616C1826.29 217.616 1825.5 217.293 1824.85 216.648C1824.21 216.003 1823.88 215.211 1823.88 214.272C1823.88 213.333 1824.21 212.541 1824.85 211.896C1825.5 211.251 1826.29 210.928 1827.23 210.928C1828.17 210.928 1828.96 211.251 1829.6 211.896C1830.25 212.541 1830.57 213.333 1830.57 214.272C1830.57 215.211 1830.25 216.003 1829.6 216.648C1828.96 217.293 1828.17 217.616 1827.23 217.616ZM1820.71 272V270.68L1826.26 269.184V235.744L1819.83 234.072V232.752L1829.78 231.52H1830.66V269.184L1836.91 270.68V272H1820.71ZM1862.93 272.88C1860.88 272.88 1859.03 272.645 1857.39 272.176C1855.8 271.765 1854.16 271.149 1852.46 270.328V261.176H1853.52L1854.75 265.136C1855.28 266.896 1856.24 268.304 1857.65 269.36C1859.06 270.357 1861.06 270.856 1863.64 270.856C1866.45 270.856 1868.62 270.181 1870.15 268.832C1871.73 267.424 1872.52 265.429 1872.52 262.848C1872.52 260.56 1871.91 258.771 1870.68 257.48C1869.44 256.131 1867.16 254.781 1863.81 253.432C1860.29 252.024 1857.68 250.499 1855.98 248.856C1854.34 247.213 1853.52 244.867 1853.52 241.816C1853.52 239.939 1854.02 238.237 1855.01 236.712C1856.07 235.128 1857.45 233.867 1859.15 232.928C1860.85 231.989 1862.67 231.52 1864.6 231.52C1866.78 231.52 1868.71 231.784 1870.41 232.312C1872.11 232.781 1873.58 233.339 1874.81 233.984V242.96H1873.76L1872.61 239.176C1872.03 237.123 1870.91 235.656 1869.27 234.776C1867.68 233.896 1866.07 233.456 1864.43 233.456C1862.14 233.456 1860.38 234.131 1859.15 235.48C1857.98 236.829 1857.39 238.589 1857.39 240.76C1857.39 242.931 1858.03 244.632 1859.32 245.864C1860.62 247.096 1862.7 248.299 1865.57 249.472C1868.15 250.528 1870.24 251.555 1871.82 252.552C1873.46 253.549 1874.67 254.781 1875.43 256.248C1876.19 257.656 1876.57 259.475 1876.57 261.704C1876.57 263.699 1876.02 265.547 1874.9 267.248C1873.79 268.949 1872.2 270.328 1870.15 271.384C1868.1 272.381 1865.69 272.88 1862.93 272.88ZM1905.29 272.88C1902.88 272.88 1900.91 272.117 1899.39 270.592C1897.92 269.067 1897.19 266.925 1897.19 264.168V235.392H1889.45V234.6L1897.72 232.4L1900.62 222.72H1901.59V232.4H1913.21V235.392H1901.59V263.992C1901.59 265.811 1902.15 267.189 1903.26 268.128C1904.38 269.008 1905.84 269.448 1907.66 269.448C1908.95 269.448 1910.13 269.301 1911.18 269.008C1912.24 268.715 1913.23 268.304 1914.17 267.776L1914.26 267.864V268.216C1913.79 269.213 1912.79 270.24 1911.27 271.296C1909.74 272.352 1907.75 272.88 1905.29 272.88Z" fill="#F4B400"/>
<path d="M398.865 249.12H736.279V251.76H398.865V249.12ZM758.308 249.12H1104.83V251.76H758.308V249.12ZM1126.86 249.12H1536.82V251.76H1126.86V249.12Z" fill="#BABCBE"/>
<path d="M142.036 67.83C-75.7349 152.283 66.814 243.977 165.31 279.267" stroke="#F4B400" stroke-width="1.6"/>
<ellipse cx="14.6789" cy="14.6784" rx="14.6789" ry="14.6784" transform="matrix(-0.990268 -0.139173 -0.139173 0.990268 182.242 266.51)" fill="#F4B400"/>
<ellipse cx="14.6789" cy="14.6784" rx="14.6789" ry="14.6784" transform="matrix(-0.990268 -0.139173 -0.139173 0.990268 163.632 54.6646)" fill="#F4B400"/>
<ellipse cx="1753.04" cy="614.037" rx="16.035" ry="16.0366" fill="#CABCBE"/>
<ellipse cx="1753.04" cy="376.037" rx="16.035" ry="16.0366" fill="#CABCBE"/>
<line x1="1752.82" y1="607.004" x2="1752.82" y2="387.004" stroke="#CABCBE" stroke-width="2.4"/>
<ellipse cx="16.035" cy="16.0366" rx="16.035" ry="16.0366" transform="matrix(0 -1 -1 0 934.073 630.08)" fill="#CABCBE"/>
<ellipse cx="16.035" cy="16.0366" rx="16.035" ry="16.0366" transform="matrix(0 -1 -1 0 1888.07 427.07)" fill="#CABCBE"/>
<line y1="-1.2" x2="984" y2="-1.2" transform="matrix(0.978148 -0.207912 -0.207912 -0.978148 906.408 615.706)" stroke="#CABCBE" stroke-width="2.4"/>
</svg>
