<svg width="541" height="278" viewBox="0 0 541 278" fill="none" xmlns="http://www.w3.org/2000/svg">
<path d="M41.0904 34V33.488L43.1064 32.688V20.944H40.4824V19.6H43.1064V18.32C43.1064 17.7867 43.2024 17.168 43.3944 16.464C43.6077 15.7387 43.9064 15.0027 44.2904 14.256C44.6957 13.5093 45.1864 12.816 45.7624 12.176C46.3384 11.536 46.9997 11.0133 47.7464 10.608C48.493 10.2027 49.325 10 50.2424 10C50.413 10 50.5837 10.032 50.7544 10.096C50.9464 10.1387 51.0957 10.1813 51.2024 10.224C51.7144 10.4373 51.9704 10.6827 51.9704 10.96C51.9704 11.024 51.9597 11.1093 51.9384 11.216C51.9384 11.3013 51.917 11.3867 51.8744 11.472L51.3624 12.752H51.2024L50.4024 12.464C49.7837 12.2293 49.1117 12.112 48.3864 12.112C47.2557 12.112 46.4557 12.5173 45.9864 13.328C45.517 14.1173 45.2824 15.3547 45.2824 17.04V19.6H49.5064V20.944H45.2824V32.72L47.6184 33.488V34H41.0904ZM59.8076 34V33.488L61.8236 32.688V22.064L59.7436 20.976V20.624L63.4876 19.28H63.7436L63.9676 22.064H64.0636C64.7036 21.232 65.237 20.624 65.6636 20.24C66.1116 19.8347 66.517 19.5787 66.8796 19.472C67.2423 19.344 67.605 19.28 67.9676 19.28C68.1383 19.28 68.3303 19.312 68.5436 19.376C68.757 19.4187 68.9276 19.472 69.0556 19.536C69.2903 19.6213 69.4823 19.728 69.6316 19.856C69.781 19.984 69.8556 20.1227 69.8556 20.272C69.8556 20.336 69.845 20.4107 69.8236 20.496C69.8236 20.5813 69.8023 20.6667 69.7596 20.752L69.2476 22.032H69.0876L68.1276 21.616C67.7436 21.4667 67.317 21.392 66.8476 21.392C66.3143 21.392 65.813 21.5307 65.3436 21.808C64.8743 22.0853 64.4263 22.544 63.9996 23.184V32.688L66.3356 33.488V34H59.8076ZM80.1864 38.8V10.32H85.7224V10.992H81.8504V38.128H85.7224V38.8H80.1864ZM90.9764 34.32C89.9737 34.32 89.1417 34.032 88.4804 33.456C87.819 32.8587 87.4884 32.0373 87.4884 30.992C87.4884 29.9467 87.8724 29.0613 88.6404 28.336C89.4084 27.6107 90.6777 27.0347 92.4484 26.608L95.5524 25.84V23.376C95.5524 22.5653 95.2324 21.8933 94.5924 21.36C93.9737 20.8267 93.2804 20.56 92.5124 20.56C91.659 20.56 91.0617 20.7627 90.7204 21.168C90.379 21.5733 90.2084 22.128 90.2084 22.832V23.888L90.0484 24.048H88.7044C88.3844 24.048 88.1604 24.0053 88.0324 23.92C87.9257 23.8133 87.8724 23.5787 87.8724 23.216C87.8724 22.768 88.011 22.3093 88.2884 21.84C88.5657 21.3707 88.9817 20.9653 89.5364 20.624C90.1337 20.24 90.7417 19.92 91.3604 19.664C92.0004 19.408 92.6404 19.28 93.2804 19.28C94.091 19.28 94.827 19.3973 95.4884 19.632C96.1497 19.8453 96.683 20.208 97.0884 20.72C97.4937 21.232 97.6964 21.9147 97.6964 22.768V32.208C97.867 32.3787 98.0804 32.5067 98.3364 32.592C98.5924 32.6773 98.923 32.72 99.3284 32.72H100.736L100.8 32.784V32.848C100.587 33.2107 100.256 33.552 99.8084 33.872C99.3817 34.1707 98.8377 34.32 98.1764 34.32C97.4937 34.32 96.9497 34.1387 96.5444 33.776C96.139 33.4133 95.8617 32.9547 95.7124 32.4H95.5524C94.9977 32.9547 94.315 33.4133 93.5044 33.776C92.715 34.1387 91.8724 34.32 90.9764 34.32ZM89.6324 30.384C89.6324 31.1307 89.8564 31.696 90.3044 32.08C90.7524 32.4427 91.3817 32.624 92.1924 32.624C92.7257 32.624 93.2697 32.56 93.8244 32.432C94.379 32.304 94.955 32.0907 95.5524 31.792V26.768C93.8244 27.1093 92.5337 27.4613 91.6804 27.824C90.8484 28.1867 90.2937 28.5813 90.0164 29.008C89.7604 29.4133 89.6324 29.872 89.6324 30.384ZM101.397 38.8V38.128H105.269V10.992H101.397V10.32H106.933V38.8H101.397ZM118.555 34V33.488L120.571 32.688V22.064L118.491 20.976V20.624L122.235 19.28H122.491L122.715 21.616H122.843C123.653 20.8267 124.421 20.24 125.147 19.856C125.893 19.472 126.715 19.28 127.611 19.28C128.891 19.28 129.947 19.6213 130.779 20.304C131.611 20.9867 132.027 21.9787 132.027 23.28V32.688L134.043 33.488V34H127.579V33.488L129.851 32.688V24.528C129.851 23.44 129.531 22.6187 128.891 22.064C128.251 21.488 127.429 21.2 126.427 21.2C125.829 21.2 125.168 21.328 124.443 21.584C123.739 21.8187 123.173 22.16 122.747 22.608V32.688L125.019 33.488V34H118.555ZM151.618 34.32C150.188 34.32 148.972 34.0213 147.97 33.424C146.967 32.8267 146.199 32.0053 145.666 30.96C145.132 29.8933 144.866 28.6667 144.866 27.28C144.866 25.744 145.175 24.3787 145.794 23.184C146.434 21.968 147.298 21.0187 148.386 20.336C149.495 19.632 150.743 19.28 152.13 19.28C152.983 19.28 153.783 19.4187 154.53 19.696C155.298 19.952 155.884 20.272 156.29 20.656C156.524 20.8907 156.695 21.0933 156.802 21.264C156.93 21.4347 156.994 21.5947 156.994 21.744C156.994 21.9787 156.887 22.1813 156.674 22.352L155.586 23.248H155.394L154.594 22.16C154.21 21.648 153.762 21.232 153.25 20.912C152.738 20.5707 152.108 20.4 151.362 20.4C150.06 20.4 149.004 20.912 148.194 21.936C147.404 22.9387 147.01 24.3787 147.01 26.256C147.01 27.3653 147.202 28.3893 147.586 29.328C147.97 30.2453 148.567 30.9813 149.378 31.536C150.21 32.0693 151.287 32.336 152.61 32.336C154.188 32.336 155.639 31.8667 156.962 30.928H157.058V31.28C156.567 32.1333 155.852 32.8587 154.914 33.456C153.975 34.032 152.876 34.32 151.618 34.32ZM168.436 38.8V10.32H173.972V10.992H170.1V38.128H173.972V38.8H168.436ZM178.938 14.928C178.469 14.928 178.074 14.7787 177.754 14.48C177.456 14.16 177.306 13.7653 177.306 13.296C177.306 12.8053 177.456 12.4107 177.754 12.112C178.074 11.8133 178.469 11.664 178.938 11.664C179.429 11.664 179.824 11.8133 180.122 12.112C180.421 12.4107 180.57 12.8053 180.57 13.296C180.57 13.7653 180.421 14.16 180.122 14.48C179.824 14.7787 179.429 14.928 178.938 14.928ZM176.09 34V33.488L178.106 32.688V22.064L176.026 20.816V20.496L180.026 19.28H180.282V32.688L182.394 33.488V34H176.09ZM184.147 38.8V38.128H188.019V10.992H184.147V10.32H189.683V38.8H184.147ZM206.041 34.32C205.145 34.32 204.355 34.2347 203.673 34.064C203.011 33.8933 202.339 33.6373 201.657 33.296V29.808H202.073L202.873 31.44C203.15 32.0373 203.545 32.5067 204.057 32.848C204.59 33.168 205.273 33.328 206.105 33.328C207.043 33.328 207.758 33.1147 208.249 32.688C208.761 32.24 209.017 31.6107 209.017 30.8C209.017 29.9253 208.729 29.2747 208.153 28.848C207.577 28.4213 206.723 27.9627 205.593 27.472C204.419 26.9813 203.534 26.4373 202.937 25.84C202.339 25.2427 202.041 24.4 202.041 23.312C202.041 22.5867 202.243 21.9147 202.649 21.296C203.075 20.6773 203.619 20.1867 204.281 19.824C204.942 19.4613 205.635 19.28 206.361 19.28C207.171 19.28 207.897 19.376 208.537 19.568C209.177 19.76 209.785 20.0053 210.361 20.304V23.696H209.945L209.145 22.128C208.867 21.4667 208.473 20.9973 207.961 20.72C207.47 20.4427 206.958 20.304 206.425 20.304C205.657 20.304 205.049 20.5173 204.601 20.944C204.174 21.3493 203.961 21.904 203.961 22.608C203.961 23.3333 204.206 23.9093 204.697 24.336C205.209 24.7413 205.977 25.168 207.001 25.616C207.726 25.936 208.387 26.2667 208.985 26.608C209.582 26.928 210.051 27.3547 210.393 27.888C210.755 28.4213 210.937 29.1573 210.937 30.096C210.937 30.9493 210.702 31.696 210.233 32.336C209.763 32.9547 209.155 33.4453 208.409 33.808C207.662 34.1493 206.873 34.32 206.041 34.32ZM223.061 38.8V10.32H228.597V10.992H224.725V38.128H228.597V38.8H223.061ZM229.115 38.8V38.128H232.987V10.992H229.115V10.32H234.651V38.8H229.115ZM252.961 34.32C251.532 34.32 250.316 34.0213 249.313 33.424C248.311 32.8267 247.543 32.0053 247.009 30.96C246.476 29.8933 246.209 28.6667 246.209 27.28C246.209 25.744 246.519 24.3787 247.137 23.184C247.777 21.968 248.641 21.0187 249.729 20.336C250.839 19.632 252.087 19.28 253.473 19.28C254.327 19.28 255.127 19.4187 255.873 19.696C256.641 19.952 257.228 20.272 257.633 20.656C257.868 20.8907 258.039 21.0933 258.145 21.264C258.273 21.4347 258.337 21.5947 258.337 21.744C258.337 21.9787 258.231 22.1813 258.017 22.352L256.929 23.248H256.737L255.937 22.16C255.553 21.648 255.105 21.232 254.593 20.912C254.081 20.5707 253.452 20.4 252.705 20.4C251.404 20.4 250.348 20.912 249.537 21.936C248.748 22.9387 248.353 24.3787 248.353 26.256C248.353 27.3653 248.545 28.3893 248.929 29.328C249.313 30.2453 249.911 30.9813 250.721 31.536C251.553 32.0693 252.631 32.336 253.953 32.336C255.532 32.336 256.983 31.8667 258.305 30.928H258.401V31.28C257.911 32.1333 257.196 32.8587 256.257 33.456C255.319 34.032 254.22 34.32 252.961 34.32ZM269.78 38.8V10.32H275.316V10.992H271.444V38.128H275.316V38.8H269.78ZM280.57 34.32C279.567 34.32 278.735 34.032 278.074 33.456C277.413 32.8587 277.082 32.0373 277.082 30.992C277.082 29.9467 277.466 29.0613 278.234 28.336C279.002 27.6107 280.271 27.0347 282.042 26.608L285.146 25.84V23.376C285.146 22.5653 284.826 21.8933 284.186 21.36C283.567 20.8267 282.874 20.56 282.106 20.56C281.253 20.56 280.655 20.7627 280.314 21.168C279.973 21.5733 279.802 22.128 279.802 22.832V23.888L279.642 24.048H278.298C277.978 24.048 277.754 24.0053 277.626 23.92C277.519 23.8133 277.466 23.5787 277.466 23.216C277.466 22.768 277.605 22.3093 277.882 21.84C278.159 21.3707 278.575 20.9653 279.13 20.624C279.727 20.24 280.335 19.92 280.954 19.664C281.594 19.408 282.234 19.28 282.874 19.28C283.685 19.28 284.421 19.3973 285.082 19.632C285.743 19.8453 286.277 20.208 286.682 20.72C287.087 21.232 287.29 21.9147 287.29 22.768V32.208C287.461 32.3787 287.674 32.5067 287.93 32.592C288.186 32.6773 288.517 32.72 288.922 32.72H290.33L290.394 32.784V32.848C290.181 33.2107 289.85 33.552 289.402 33.872C288.975 34.1707 288.431 34.32 287.77 34.32C287.087 34.32 286.543 34.1387 286.138 33.776C285.733 33.4133 285.455 32.9547 285.306 32.4H285.146C284.591 32.9547 283.909 33.4133 283.098 33.776C282.309 34.1387 281.466 34.32 280.57 34.32ZM279.226 30.384C279.226 31.1307 279.45 31.696 279.898 32.08C280.346 32.4427 280.975 32.624 281.786 32.624C282.319 32.624 282.863 32.56 283.418 32.432C283.973 32.304 284.549 32.0907 285.146 31.792V26.768C283.418 27.1093 282.127 27.4613 281.274 27.824C280.442 28.1867 279.887 28.5813 279.61 29.008C279.354 29.4133 279.226 29.872 279.226 30.384ZM290.99 38.8V38.128H294.862V10.992H290.99V10.32H296.526V38.8H290.99ZM314.836 34.32C313.407 34.32 312.191 34.0213 311.188 33.424C310.186 32.8267 309.418 32.0053 308.884 30.96C308.351 29.8933 308.084 28.6667 308.084 27.28C308.084 25.744 308.394 24.3787 309.012 23.184C309.652 21.968 310.516 21.0187 311.604 20.336C312.714 19.632 313.962 19.28 315.348 19.28C316.202 19.28 317.002 19.4187 317.748 19.696C318.516 19.952 319.103 20.272 319.508 20.656C319.743 20.8907 319.914 21.0933 320.02 21.264C320.148 21.4347 320.212 21.5947 320.212 21.744C320.212 21.9787 320.106 22.1813 319.892 22.352L318.804 23.248H318.612L317.812 22.16C317.428 21.648 316.98 21.232 316.468 20.912C315.956 20.5707 315.327 20.4 314.58 20.4C313.279 20.4 312.223 20.912 311.412 21.936C310.623 22.9387 310.228 24.3787 310.228 26.256C310.228 27.3653 310.42 28.3893 310.804 29.328C311.188 30.2453 311.786 30.9813 312.596 31.536C313.428 32.0693 314.506 32.336 315.828 32.336C317.407 32.336 318.858 31.8667 320.18 30.928H320.276V31.28C319.786 32.1333 319.071 32.8587 318.132 33.456C317.194 34.032 316.095 34.32 314.836 34.32ZM338.055 34.32C336.626 34.32 335.41 34.0213 334.407 33.424C333.404 32.8267 332.636 32.0053 332.103 30.96C331.57 29.8933 331.303 28.6667 331.303 27.28C331.303 25.744 331.612 24.3787 332.231 23.184C332.871 21.968 333.735 21.0187 334.823 20.336C335.932 19.632 337.18 19.28 338.567 19.28C339.42 19.28 340.22 19.4187 340.967 19.696C341.735 19.952 342.322 20.272 342.727 20.656C342.962 20.8907 343.132 21.0933 343.239 21.264C343.367 21.4347 343.431 21.5947 343.431 21.744C343.431 21.9787 343.324 22.1813 343.111 22.352L342.023 23.248H341.831L341.031 22.16C340.647 21.648 340.199 21.232 339.687 20.912C339.175 20.5707 338.546 20.4 337.799 20.4C336.498 20.4 335.442 20.912 334.631 21.936C333.842 22.9387 333.447 24.3787 333.447 26.256C333.447 27.3653 333.639 28.3893 334.023 29.328C334.407 30.2453 335.004 30.9813 335.815 31.536C336.647 32.0693 337.724 32.336 339.047 32.336C340.626 32.336 342.076 31.8667 343.399 30.928H343.495V31.28C343.004 32.1333 342.29 32.8587 341.351 33.456C340.412 34.032 339.314 34.32 338.055 34.32ZM354.874 38.8V10.32H360.41V10.992H356.538V38.128H360.41V38.8H354.874ZM365.664 34.32C364.661 34.32 363.829 34.032 363.168 33.456C362.507 32.8587 362.176 32.0373 362.176 30.992C362.176 29.9467 362.56 29.0613 363.328 28.336C364.096 27.6107 365.365 27.0347 367.136 26.608L370.24 25.84V23.376C370.24 22.5653 369.92 21.8933 369.28 21.36C368.661 20.8267 367.968 20.56 367.2 20.56C366.347 20.56 365.749 20.7627 365.408 21.168C365.067 21.5733 364.896 22.128 364.896 22.832V23.888L364.736 24.048H363.392C363.072 24.048 362.848 24.0053 362.72 23.92C362.613 23.8133 362.56 23.5787 362.56 23.216C362.56 22.768 362.699 22.3093 362.976 21.84C363.253 21.3707 363.669 20.9653 364.224 20.624C364.821 20.24 365.429 19.92 366.048 19.664C366.688 19.408 367.328 19.28 367.968 19.28C368.779 19.28 369.515 19.3973 370.176 19.632C370.837 19.8453 371.371 20.208 371.776 20.72C372.181 21.232 372.384 21.9147 372.384 22.768V32.208C372.555 32.3787 372.768 32.5067 373.024 32.592C373.28 32.6773 373.611 32.72 374.016 32.72H375.424L375.488 32.784V32.848C375.275 33.2107 374.944 33.552 374.496 33.872C374.069 34.1707 373.525 34.32 372.864 34.32C372.181 34.32 371.637 34.1387 371.232 33.776C370.827 33.4133 370.549 32.9547 370.4 32.4H370.24C369.685 32.9547 369.003 33.4133 368.192 33.776C367.403 34.1387 366.56 34.32 365.664 34.32ZM364.32 30.384C364.32 31.1307 364.544 31.696 364.992 32.08C365.44 32.4427 366.069 32.624 366.88 32.624C367.413 32.624 367.957 32.56 368.512 32.432C369.067 32.304 369.643 32.0907 370.24 31.792V26.768C368.512 27.1093 367.221 27.4613 366.368 27.824C365.536 28.1867 364.981 28.5813 364.704 29.008C364.448 29.4133 364.32 29.872 364.32 30.384ZM376.084 38.8V38.128H379.956V10.992H376.084V10.32H381.62V38.8H376.084ZM398.554 34.064L392.954 20.944L390.842 20.112V19.6H397.882V20.112L395.322 20.88V21.04L399.45 30.896H399.546L403.354 21.168V21.008L400.922 20.112V19.6H406.938V20.112L404.73 21.008L399.066 34.064H398.554ZM416.155 38.8V10.32H421.691V10.992H417.819V38.128H421.691V38.8H416.155ZM426.945 34.32C425.942 34.32 425.11 34.032 424.449 33.456C423.788 32.8587 423.457 32.0373 423.457 30.992C423.457 29.9467 423.841 29.0613 424.609 28.336C425.377 27.6107 426.646 27.0347 428.417 26.608L431.521 25.84V23.376C431.521 22.5653 431.201 21.8933 430.561 21.36C429.942 20.8267 429.249 20.56 428.481 20.56C427.628 20.56 427.03 20.7627 426.689 21.168C426.348 21.5733 426.177 22.128 426.177 22.832V23.888L426.017 24.048H424.673C424.353 24.048 424.129 24.0053 424.001 23.92C423.894 23.8133 423.841 23.5787 423.841 23.216C423.841 22.768 423.98 22.3093 424.257 21.84C424.534 21.3707 424.95 20.9653 425.505 20.624C426.102 20.24 426.71 19.92 427.329 19.664C427.969 19.408 428.609 19.28 429.249 19.28C430.06 19.28 430.796 19.3973 431.457 19.632C432.118 19.8453 432.652 20.208 433.057 20.72C433.462 21.232 433.665 21.9147 433.665 22.768V32.208C433.836 32.3787 434.049 32.5067 434.305 32.592C434.561 32.6773 434.892 32.72 435.297 32.72H436.705L436.769 32.784V32.848C436.556 33.2107 436.225 33.552 435.777 33.872C435.35 34.1707 434.806 34.32 434.145 34.32C433.462 34.32 432.918 34.1387 432.513 33.776C432.108 33.4133 431.83 32.9547 431.681 32.4H431.521C430.966 32.9547 430.284 33.4133 429.473 33.776C428.684 34.1387 427.841 34.32 426.945 34.32ZM425.601 30.384C425.601 31.1307 425.825 31.696 426.273 32.08C426.721 32.4427 427.35 32.624 428.161 32.624C428.694 32.624 429.238 32.56 429.793 32.432C430.348 32.304 430.924 32.0907 431.521 31.792V26.768C429.793 27.1093 428.502 27.4613 427.649 27.824C426.817 28.1867 426.262 28.5813 425.985 29.008C425.729 29.4133 425.601 29.872 425.601 30.384ZM437.365 38.8V38.128H441.237V10.992H437.365V10.32H442.901V38.8H437.365ZM454.395 34V33.488L456.411 32.688V12.784L454.331 11.536V11.216L458.331 10H458.587V32.688L460.699 33.488V34H454.395ZM472.061 38.8V10.32H477.597V10.992H473.725V38.128H477.597V38.8H472.061ZM486.056 34.32C484.627 34.32 483.4 34.0213 482.376 33.424C481.373 32.8267 480.605 32.0053 480.072 30.96C479.539 29.8933 479.272 28.6667 479.272 27.28C479.272 25.744 479.581 24.3787 480.2 23.184C480.819 21.968 481.64 21.0187 482.664 20.336C483.688 19.632 484.797 19.28 485.992 19.28C487.677 19.28 489 19.856 489.96 21.008C490.92 22.16 491.432 23.7813 491.496 25.872L491.368 26H481.416C481.416 26.0853 481.416 26.1707 481.416 26.256C481.416 27.3653 481.608 28.3893 481.992 29.328C482.376 30.2453 482.984 30.9813 483.816 31.536C484.648 32.0693 485.725 32.336 487.048 32.336C488.627 32.336 490.077 31.8667 491.4 30.928H491.496V31.28C491.027 32.1333 490.312 32.8587 489.352 33.456C488.413 34.032 487.315 34.32 486.056 34.32ZM485.512 20.4C484.488 20.4 483.613 20.7947 482.888 21.584C482.163 22.352 481.704 23.44 481.512 24.848H489.32C488.893 21.8827 487.624 20.4 485.512 20.4ZM493.272 38.8V38.128H497.144V10.992H493.272V10.32H498.808V38.8H493.272ZM52.2531 74.6V53.24H56.4051V53.744H53.5011V74.096H56.4051V74.6H52.2531ZM61.9809 71.24C61.0369 71.24 60.2529 70.984 59.6289 70.472C59.0209 69.96 58.7169 69.216 58.7169 68.24V61.184L57.1329 60.584V60.2H60.3489V67.304C60.3489 68.12 60.5809 68.744 61.0449 69.176C61.5089 69.592 62.1169 69.8 62.8689 69.8C63.3169 69.8 63.7969 69.712 64.3089 69.536C64.8369 69.36 65.2609 69.096 65.5809 68.744V61.184L63.7809 60.584V60.2H67.2129V70.04L68.9169 70.616V71H65.5809V69.512H65.4849C64.8769 70.12 64.3009 70.56 63.7569 70.832C63.2129 71.104 62.6209 71.24 61.9809 71.24ZM69.6608 74.6V74.096H72.5648V53.744H69.6608V53.24H73.8128V74.6H69.6608ZM75.9053 71V70.616L77.2493 69.968L80.3453 65.624L77.2493 61.184L76.0253 60.584V60.2H80.7053V60.584L79.1213 61.16V61.28L81.4253 64.592L83.4653 61.376V61.256L82.1213 60.584V60.2H85.8653V60.584L84.5693 61.28L81.7853 65.12L85.1933 70.016L86.2733 70.616V71H81.9053V70.616L83.3213 70.04V69.92L80.7293 66.2L78.4492 69.824V69.944L79.8653 70.616V71H75.9053Z" fill="black"/>
<path d="M98.1623 71.24C97.3623 71.24 96.6503 71.04 96.0263 70.64C95.4023 70.24 94.9063 69.664 94.5383 68.912C94.1863 68.16 94.0103 67.272 94.0103 66.248C94.0103 64.904 94.2663 63.768 94.7783 62.84C95.3063 61.896 96.0023 61.184 96.8663 60.704C97.7463 60.208 98.6983 59.96 99.7223 59.96C100.138 59.96 100.522 59.992 100.874 60.056C101.226 60.12 101.554 60.208 101.858 60.32V55.088L100.226 54.152V53.912L103.298 53H103.49V70.04L105.194 70.616V71H102.098L101.882 69.776H101.762C101.17 70.272 100.586 70.64 100.01 70.88C99.4343 71.12 98.8183 71.24 98.1623 71.24ZM95.5943 65.768C95.5943 66.728 95.7623 67.512 96.0983 68.12C96.4343 68.728 96.8743 69.184 97.4183 69.488C97.9783 69.776 98.5783 69.92 99.2183 69.92C99.6663 69.92 100.114 69.848 100.562 69.704C101.026 69.544 101.458 69.312 101.858 69.008V61.856C101.426 61.552 101.002 61.32 100.586 61.16C100.17 61 99.7063 60.92 99.1943 60.92C98.5543 60.92 97.9543 61.08 97.3943 61.4C96.8503 61.72 96.4103 62.24 96.0742 62.96C95.7543 63.664 95.5943 64.6 95.5943 65.768ZM112.46 71.24C111.388 71.24 110.468 71.016 109.7 70.568C108.948 70.12 108.372 69.504 107.972 68.72C107.572 67.92 107.372 67 107.372 65.96C107.372 64.808 107.604 63.784 108.068 62.888C108.532 61.976 109.148 61.264 109.916 60.752C110.684 60.224 111.516 59.96 112.412 59.96C113.676 59.96 114.668 60.392 115.388 61.256C116.108 62.12 116.492 63.336 116.54 64.904L116.444 65H108.98C108.98 65.064 108.98 65.128 108.98 65.192C108.98 66.024 109.124 66.792 109.412 67.496C109.7 68.184 110.156 68.736 110.78 69.152C111.404 69.552 112.212 69.752 113.204 69.752C114.388 69.752 115.476 69.4 116.468 68.696H116.54V68.96C116.188 69.6 115.652 70.144 114.932 70.592C114.228 71.024 113.404 71.24 112.46 71.24ZM112.052 60.8C111.284 60.8 110.628 61.096 110.084 61.688C109.54 62.264 109.196 63.08 109.052 64.136H114.908C114.588 61.912 113.636 60.8 112.052 60.8ZM122.573 71.24C121.901 71.24 121.309 71.176 120.797 71.048C120.301 70.92 119.797 70.728 119.285 70.472V67.856H119.597L120.197 69.08C120.405 69.528 120.701 69.88 121.085 70.136C121.485 70.376 121.997 70.496 122.621 70.496C123.325 70.496 123.861 70.336 124.229 70.016C124.613 69.68 124.805 69.208 124.805 68.6C124.805 67.944 124.589 67.456 124.157 67.136C123.725 66.816 123.085 66.472 122.237 66.104C121.357 65.736 120.693 65.328 120.245 64.88C119.797 64.432 119.573 63.8 119.573 62.984C119.573 62.44 119.725 61.936 120.029 61.472C120.349 61.008 120.757 60.64 121.253 60.368C121.749 60.096 122.269 59.96 122.813 59.96C123.421 59.96 123.965 60.032 124.445 60.176C124.925 60.32 125.381 60.504 125.813 60.728V63.272H125.501L124.901 62.096C124.693 61.6 124.397 61.248 124.013 61.04C123.645 60.832 123.261 60.728 122.861 60.728C122.285 60.728 121.829 60.888 121.493 61.208C121.173 61.512 121.013 61.928 121.013 62.456C121.013 63 121.197 63.432 121.565 63.752C121.949 64.056 122.525 64.376 123.293 64.712C123.837 64.952 124.333 65.2 124.781 65.456C125.229 65.696 125.581 66.016 125.837 66.416C126.109 66.816 126.245 67.368 126.245 68.072C126.245 68.712 126.069 69.272 125.717 69.752C125.365 70.216 124.909 70.584 124.349 70.856C123.789 71.112 123.197 71.24 122.573 71.24ZM131.403 56.696C131.051 56.696 130.755 56.584 130.515 56.36C130.291 56.12 130.179 55.824 130.179 55.472C130.179 55.104 130.291 54.808 130.515 54.584C130.755 54.36 131.051 54.248 131.403 54.248C131.771 54.248 132.067 54.36 132.291 54.584C132.515 54.808 132.627 55.104 132.627 55.472C132.627 55.824 132.515 56.12 132.291 56.36C132.067 56.584 131.771 56.696 131.403 56.696ZM129.267 71V70.616L130.779 70.016V62.048L129.219 61.112V60.872L132.219 59.96H132.411V70.016L133.995 70.616V71H129.267ZM141.186 67.496C140.578 67.496 140.018 67.392 139.506 67.184C139.074 67.344 138.778 67.536 138.618 67.76C138.458 67.984 138.378 68.24 138.378 68.528C138.378 68.992 138.53 69.336 138.834 69.56C139.154 69.768 139.658 69.872 140.346 69.872H143.154C144.226 69.872 145.026 70.12 145.554 70.616C146.098 71.096 146.37 71.792 146.37 72.704C146.37 73.376 146.138 74.016 145.674 74.624C145.226 75.248 144.586 75.76 143.754 76.16C142.938 76.56 141.97 76.76 140.85 76.76C139.378 76.76 138.322 76.48 137.682 75.92C137.042 75.376 136.722 74.704 136.722 73.904C136.722 73.328 136.858 72.816 137.13 72.368L138.714 71.216V71.144C138.154 71.016 137.722 70.784 137.418 70.448C137.114 70.096 136.962 69.68 136.962 69.2C136.962 68.608 137.154 68.128 137.538 67.76L138.882 67.016V66.872C138.338 66.536 137.906 66.096 137.586 65.552C137.282 65.008 137.13 64.4 137.13 63.728C137.13 63.008 137.306 62.368 137.658 61.808C138.01 61.232 138.49 60.784 139.098 60.464C139.706 60.128 140.402 59.96 141.186 59.96C141.522 59.96 141.882 60 142.266 60.08C142.666 60.16 143.01 60.264 143.298 60.392L146.778 60.2V61.376L144.45 61.208L144.378 61.28C144.634 61.568 144.842 61.936 145.002 62.384C145.162 62.832 145.242 63.28 145.242 63.728C145.242 64.448 145.066 65.096 144.714 65.672C144.362 66.232 143.882 66.68 143.274 67.016C142.666 67.336 141.97 67.496 141.186 67.496ZM141.426 66.728C142.082 66.728 142.602 66.456 142.986 65.912C143.37 65.352 143.562 64.648 143.562 63.8C143.562 62.824 143.314 62.064 142.818 61.52C142.338 60.976 141.738 60.704 141.018 60.704C140.314 60.704 139.762 60.992 139.362 61.568C138.978 62.128 138.786 62.824 138.786 63.656C138.786 64.6 139.034 65.352 139.53 65.912C140.026 66.456 140.658 66.728 141.426 66.728ZM138.186 73.64C138.186 74.36 138.474 74.952 139.05 75.416C139.626 75.896 140.33 76.136 141.162 76.136C141.898 76.136 142.546 75.992 143.106 75.704C143.666 75.432 144.106 75.064 144.426 74.6C144.746 74.152 144.906 73.672 144.906 73.16C144.906 72.424 144.714 71.92 144.33 71.648C143.946 71.376 143.258 71.24 142.266 71.24H139.722C139.594 71.24 139.474 71.232 139.362 71.216C138.914 71.488 138.602 71.816 138.426 72.2C138.266 72.6 138.186 73.08 138.186 73.64ZM149.092 71V70.616L150.604 70.016V62.048L149.044 61.232V60.968L151.852 59.96H152.044L152.212 61.712H152.308C152.916 61.12 153.492 60.68 154.036 60.392C154.596 60.104 155.212 59.96 155.884 59.96C156.844 59.96 157.636 60.216 158.26 60.728C158.884 61.24 159.196 61.984 159.196 62.96V70.016L160.708 70.616V71H155.86V70.616L157.564 70.016V63.896C157.564 63.08 157.324 62.464 156.844 62.048C156.364 61.616 155.748 61.4 154.996 61.4C154.548 61.4 154.052 61.496 153.508 61.688C152.98 61.864 152.556 62.12 152.236 62.456V70.016L153.94 70.616V71H149.092ZM167.913 71.24C166.841 71.24 165.921 71.016 165.153 70.568C164.401 70.12 163.825 69.504 163.425 68.72C163.025 67.92 162.825 67 162.825 65.96C162.825 64.808 163.057 63.784 163.521 62.888C163.985 61.976 164.601 61.264 165.369 60.752C166.137 60.224 166.969 59.96 167.865 59.96C169.129 59.96 170.121 60.392 170.841 61.256C171.561 62.12 171.945 63.336 171.993 64.904L171.897 65H164.433C164.433 65.064 164.433 65.128 164.433 65.192C164.433 66.024 164.577 66.792 164.865 67.496C165.153 68.184 165.609 68.736 166.233 69.152C166.857 69.552 167.665 69.752 168.657 69.752C169.841 69.752 170.929 69.4 171.921 68.696H171.993V68.96C171.641 69.6 171.105 70.144 170.385 70.592C169.681 71.024 168.857 71.24 167.913 71.24ZM167.505 60.8C166.737 60.8 166.081 61.096 165.537 61.688C164.993 62.264 164.649 63.08 164.505 64.136H170.361C170.041 61.912 169.089 60.8 167.505 60.8ZM174.571 71V70.616L176.083 70.016V62.048L174.523 61.232V60.968L177.331 59.96H177.523L177.691 62.048H177.763C178.243 61.424 178.643 60.968 178.963 60.68C179.299 60.376 179.603 60.184 179.875 60.104C180.147 60.008 180.419 59.96 180.691 59.96C180.819 59.96 180.963 59.984 181.123 60.032C181.283 60.064 181.411 60.104 181.507 60.152C181.683 60.216 181.827 60.296 181.939 60.392C182.051 60.488 182.107 60.592 182.107 60.704C182.107 60.752 182.099 60.808 182.083 60.872C182.083 60.936 182.067 61 182.035 61.064L181.651 62.024H181.531L180.811 61.712C180.523 61.6 180.203 61.544 179.851 61.544C179.451 61.544 179.075 61.648 178.723 61.856C178.371 62.064 178.035 62.408 177.715 62.888V70.016L179.467 70.616V71H174.571ZM194.679 71.24C193.607 71.24 192.687 71.016 191.919 70.568C191.167 70.12 190.591 69.504 190.191 68.72C189.791 67.92 189.591 67 189.591 65.96C189.591 64.808 189.823 63.784 190.287 62.888C190.751 61.976 191.367 61.264 192.135 60.752C192.903 60.224 193.735 59.96 194.631 59.96C195.895 59.96 196.887 60.392 197.607 61.256C198.327 62.12 198.711 63.336 198.759 64.904L198.663 65H191.199C191.199 65.064 191.199 65.128 191.199 65.192C191.199 66.024 191.343 66.792 191.631 67.496C191.919 68.184 192.375 68.736 192.999 69.152C193.623 69.552 194.431 69.752 195.423 69.752C196.607 69.752 197.695 69.4 198.687 68.696H198.759V68.96C198.407 69.6 197.871 70.144 197.151 70.592C196.447 71.024 195.623 71.24 194.679 71.24ZM194.271 60.8C193.503 60.8 192.847 61.096 192.303 61.688C191.759 62.264 191.415 63.08 191.271 64.136H197.127C196.807 61.912 195.855 60.8 194.271 60.8ZM201.24 71V70.616L202.752 70.016V62.048L201.192 61.232V60.968L204 59.96H204.192L204.36 61.712H204.456C205.064 61.12 205.64 60.68 206.184 60.392C206.744 60.104 207.36 59.96 208.032 59.96C208.992 59.96 209.784 60.216 210.408 60.728C211.032 61.24 211.344 61.984 211.344 62.96V70.016L212.856 70.616V71H208.008V70.616L209.712 70.016V63.896C209.712 63.08 209.472 62.464 208.992 62.048C208.512 61.616 207.896 61.4 207.144 61.4C206.696 61.4 206.2 61.496 205.656 61.688C205.128 61.864 204.704 62.12 204.384 62.456V70.016L206.088 70.616V71H201.24ZM219.631 67.496C219.023 67.496 218.463 67.392 217.951 67.184C217.519 67.344 217.223 67.536 217.063 67.76C216.903 67.984 216.823 68.24 216.823 68.528C216.823 68.992 216.975 69.336 217.279 69.56C217.599 69.768 218.103 69.872 218.791 69.872H221.599C222.671 69.872 223.471 70.12 223.999 70.616C224.543 71.096 224.815 71.792 224.815 72.704C224.815 73.376 224.583 74.016 224.119 74.624C223.671 75.248 223.031 75.76 222.199 76.16C221.383 76.56 220.415 76.76 219.295 76.76C217.823 76.76 216.767 76.48 216.127 75.92C215.487 75.376 215.167 74.704 215.167 73.904C215.167 73.328 215.303 72.816 215.575 72.368L217.159 71.216V71.144C216.599 71.016 216.167 70.784 215.863 70.448C215.559 70.096 215.407 69.68 215.407 69.2C215.407 68.608 215.599 68.128 215.983 67.76L217.327 67.016V66.872C216.783 66.536 216.351 66.096 216.031 65.552C215.727 65.008 215.575 64.4 215.575 63.728C215.575 63.008 215.751 62.368 216.103 61.808C216.455 61.232 216.935 60.784 217.543 60.464C218.151 60.128 218.847 59.96 219.631 59.96C219.967 59.96 220.327 60 220.711 60.08C221.111 60.16 221.455 60.264 221.743 60.392L225.223 60.2V61.376L222.895 61.208L222.823 61.28C223.079 61.568 223.287 61.936 223.447 62.384C223.607 62.832 223.687 63.28 223.687 63.728C223.687 64.448 223.511 65.096 223.159 65.672C222.807 66.232 222.327 66.68 221.719 67.016C221.111 67.336 220.415 67.496 219.631 67.496ZM219.871 66.728C220.527 66.728 221.047 66.456 221.431 65.912C221.815 65.352 222.007 64.648 222.007 63.8C222.007 62.824 221.759 62.064 221.263 61.52C220.783 60.976 220.183 60.704 219.463 60.704C218.759 60.704 218.207 60.992 217.807 61.568C217.423 62.128 217.231 62.824 217.231 63.656C217.231 64.6 217.479 65.352 217.975 65.912C218.471 66.456 219.103 66.728 219.871 66.728ZM216.631 73.64C216.631 74.36 216.919 74.952 217.495 75.416C218.071 75.896 218.775 76.136 219.607 76.136C220.343 76.136 220.991 75.992 221.551 75.704C222.111 75.432 222.551 75.064 222.871 74.6C223.191 74.152 223.351 73.672 223.351 73.16C223.351 72.424 223.159 71.92 222.775 71.648C222.391 71.376 221.703 71.24 220.711 71.24H218.167C218.039 71.24 217.919 71.232 217.807 71.216C217.359 71.488 217.047 71.816 216.871 72.2C216.711 72.6 216.631 73.08 216.631 73.64ZM229.958 56.696C229.606 56.696 229.31 56.584 229.07 56.36C228.846 56.12 228.734 55.824 228.734 55.472C228.734 55.104 228.846 54.808 229.07 54.584C229.31 54.36 229.606 54.248 229.958 54.248C230.326 54.248 230.622 54.36 230.846 54.584C231.07 54.808 231.182 55.104 231.182 55.472C231.182 55.824 231.07 56.12 230.846 56.36C230.622 56.584 230.326 56.696 229.958 56.696ZM227.822 71V70.616L229.334 70.016V62.048L227.774 61.112V60.872L230.774 59.96H230.966V70.016L232.55 70.616V71H227.822ZM235.061 71V70.616L236.573 70.016V62.048L235.013 61.232V60.968L237.821 59.96H238.013L238.181 61.712H238.277C238.885 61.12 239.461 60.68 240.005 60.392C240.565 60.104 241.181 59.96 241.853 59.96C242.813 59.96 243.605 60.216 244.229 60.728C244.853 61.24 245.165 61.984 245.165 62.96V70.016L246.677 70.616V71H241.829V70.616L243.533 70.016V63.896C243.533 63.08 243.293 62.464 242.813 62.048C242.333 61.616 241.717 61.4 240.965 61.4C240.517 61.4 240.021 61.496 239.477 61.688C238.949 61.864 238.525 62.12 238.205 62.456V70.016L239.909 70.616V71H235.061ZM253.882 71.24C252.81 71.24 251.89 71.016 251.122 70.568C250.37 70.12 249.794 69.504 249.394 68.72C248.994 67.92 248.794 67 248.794 65.96C248.794 64.808 249.026 63.784 249.49 62.888C249.954 61.976 250.57 61.264 251.338 60.752C252.106 60.224 252.938 59.96 253.834 59.96C255.098 59.96 256.09 60.392 256.81 61.256C257.53 62.12 257.914 63.336 257.962 64.904L257.866 65H250.402C250.402 65.064 250.402 65.128 250.402 65.192C250.402 66.024 250.546 66.792 250.834 67.496C251.122 68.184 251.578 68.736 252.202 69.152C252.826 69.552 253.634 69.752 254.626 69.752C255.81 69.752 256.898 69.4 257.89 68.696H257.962V68.96C257.61 69.6 257.074 70.144 256.354 70.592C255.65 71.024 254.826 71.24 253.882 71.24ZM253.474 60.8C252.706 60.8 252.05 61.096 251.506 61.688C250.962 62.264 250.618 63.08 250.474 64.136H256.33C256.01 61.912 255.058 60.8 253.474 60.8ZM265.577 71.24C264.505 71.24 263.585 71.016 262.817 70.568C262.065 70.12 261.489 69.504 261.089 68.72C260.689 67.92 260.489 67 260.489 65.96C260.489 64.808 260.721 63.784 261.185 62.888C261.649 61.976 262.265 61.264 263.033 60.752C263.801 60.224 264.633 59.96 265.529 59.96C266.793 59.96 267.785 60.392 268.505 61.256C269.225 62.12 269.609 63.336 269.657 64.904L269.561 65H262.097C262.097 65.064 262.097 65.128 262.097 65.192C262.097 66.024 262.241 66.792 262.529 67.496C262.817 68.184 263.273 68.736 263.897 69.152C264.521 69.552 265.329 69.752 266.321 69.752C267.505 69.752 268.593 69.4 269.585 68.696H269.657V68.96C269.305 69.6 268.769 70.144 268.049 70.592C267.345 71.024 266.521 71.24 265.577 71.24ZM265.169 60.8C264.401 60.8 263.745 61.096 263.201 61.688C262.657 62.264 262.313 63.08 262.169 64.136H268.025C267.705 61.912 266.753 60.8 265.169 60.8ZM272.235 71V70.616L273.747 70.016V62.048L272.187 61.232V60.968L274.995 59.96H275.187L275.355 62.048H275.427C275.907 61.424 276.307 60.968 276.627 60.68C276.963 60.376 277.267 60.184 277.539 60.104C277.811 60.008 278.083 59.96 278.355 59.96C278.483 59.96 278.627 59.984 278.787 60.032C278.947 60.064 279.075 60.104 279.171 60.152C279.347 60.216 279.491 60.296 279.603 60.392C279.715 60.488 279.771 60.592 279.771 60.704C279.771 60.752 279.763 60.808 279.747 60.872C279.747 60.936 279.731 61 279.699 61.064L279.315 62.024H279.195L278.475 61.712C278.187 61.6 277.867 61.544 277.515 61.544C277.115 61.544 276.739 61.648 276.387 61.856C276.035 62.064 275.699 62.408 275.379 62.888V70.016L277.131 70.616V71H272.235ZM287.399 71V70.616L288.911 70.016V62.048L287.351 61.232V60.968L290.159 59.96H290.351L290.519 62.048H290.591C291.071 61.424 291.471 60.968 291.791 60.68C292.127 60.376 292.431 60.184 292.703 60.104C292.975 60.008 293.247 59.96 293.519 59.96C293.647 59.96 293.791 59.984 293.951 60.032C294.111 60.064 294.239 60.104 294.335 60.152C294.511 60.216 294.655 60.296 294.767 60.392C294.879 60.488 294.935 60.592 294.935 60.704C294.935 60.752 294.927 60.808 294.911 60.872C294.911 60.936 294.895 61 294.863 61.064L294.479 62.024H294.359L293.639 61.712C293.351 61.6 293.031 61.544 292.679 61.544C292.279 61.544 291.903 61.648 291.551 61.856C291.199 62.064 290.863 62.408 290.543 62.888V70.016L292.295 70.616V71H287.399ZM301.507 71.24C300.435 71.24 299.515 71.016 298.747 70.568C297.995 70.12 297.419 69.504 297.019 68.72C296.619 67.92 296.419 67 296.419 65.96C296.419 64.808 296.651 63.784 297.115 62.888C297.579 61.976 298.195 61.264 298.963 60.752C299.731 60.224 300.563 59.96 301.459 59.96C302.723 59.96 303.715 60.392 304.435 61.256C305.155 62.12 305.539 63.336 305.587 64.904L305.491 65H298.027C298.027 65.064 298.027 65.128 298.027 65.192C298.027 66.024 298.171 66.792 298.459 67.496C298.747 68.184 299.203 68.736 299.827 69.152C300.451 69.552 301.259 69.752 302.251 69.752C303.435 69.752 304.523 69.4 305.515 68.696H305.587V68.96C305.235 69.6 304.699 70.144 303.979 70.592C303.275 71.024 302.451 71.24 301.507 71.24ZM301.099 60.8C300.331 60.8 299.675 61.096 299.131 61.688C298.587 62.264 298.243 63.08 298.099 64.136H303.955C303.635 61.912 302.683 60.8 301.099 60.8ZM311.62 71.24C310.948 71.24 310.356 71.176 309.844 71.048C309.348 70.92 308.844 70.728 308.332 70.472V67.856H308.644L309.244 69.08C309.452 69.528 309.748 69.88 310.132 70.136C310.532 70.376 311.044 70.496 311.668 70.496C312.372 70.496 312.908 70.336 313.276 70.016C313.66 69.68 313.852 69.208 313.852 68.6C313.852 67.944 313.636 67.456 313.204 67.136C312.772 66.816 312.132 66.472 311.284 66.104C310.404 65.736 309.74 65.328 309.292 64.88C308.844 64.432 308.62 63.8 308.62 62.984C308.62 62.44 308.772 61.936 309.076 61.472C309.396 61.008 309.804 60.64 310.3 60.368C310.796 60.096 311.316 59.96 311.86 59.96C312.468 59.96 313.012 60.032 313.492 60.176C313.972 60.32 314.428 60.504 314.86 60.728V63.272H314.548L313.948 62.096C313.74 61.6 313.444 61.248 313.06 61.04C312.692 60.832 312.308 60.728 311.908 60.728C311.332 60.728 310.876 60.888 310.54 61.208C310.22 61.512 310.06 61.928 310.06 62.456C310.06 63 310.244 63.432 310.612 63.752C310.996 64.056 311.572 64.376 312.34 64.712C312.884 64.952 313.38 65.2 313.828 65.456C314.276 65.696 314.628 66.016 314.884 66.416C315.156 66.816 315.292 67.368 315.292 68.072C315.292 68.712 315.116 69.272 314.764 69.752C314.412 70.216 313.956 70.584 313.396 70.856C312.836 71.112 312.244 71.24 311.62 71.24ZM323.21 71.24C322.138 71.24 321.218 71.016 320.45 70.568C319.698 70.12 319.122 69.504 318.722 68.72C318.322 67.92 318.122 67 318.122 65.96C318.122 64.808 318.354 63.784 318.818 62.888C319.282 61.976 319.898 61.264 320.666 60.752C321.434 60.224 322.266 59.96 323.162 59.96C324.426 59.96 325.418 60.392 326.138 61.256C326.858 62.12 327.242 63.336 327.29 64.904L327.194 65H319.73C319.73 65.064 319.73 65.128 319.73 65.192C319.73 66.024 319.874 66.792 320.162 67.496C320.45 68.184 320.906 68.736 321.53 69.152C322.154 69.552 322.962 69.752 323.954 69.752C325.138 69.752 326.226 69.4 327.218 68.696H327.29V68.96C326.938 69.6 326.402 70.144 325.682 70.592C324.978 71.024 324.154 71.24 323.21 71.24ZM322.802 60.8C322.034 60.8 321.378 61.096 320.834 61.688C320.29 62.264 319.946 63.08 319.802 64.136H325.658C325.338 61.912 324.386 60.8 322.802 60.8ZM332.338 71.24C331.586 71.24 330.962 71.024 330.466 70.592C329.97 70.144 329.722 69.528 329.722 68.744C329.722 67.96 330.01 67.296 330.586 66.752C331.162 66.208 332.114 65.776 333.442 65.456L335.77 64.88V63.032C335.77 62.424 335.53 61.92 335.05 61.52C334.586 61.12 334.066 60.92 333.49 60.92C332.85 60.92 332.402 61.072 332.146 61.376C331.89 61.68 331.762 62.096 331.762 62.624V63.416L331.642 63.536H330.634C330.394 63.536 330.226 63.504 330.13 63.44C330.05 63.36 330.01 63.184 330.01 62.912C330.01 62.576 330.114 62.232 330.322 61.88C330.53 61.528 330.842 61.224 331.258 60.968C331.706 60.68 332.162 60.44 332.626 60.248C333.106 60.056 333.586 59.96 334.066 59.96C334.674 59.96 335.226 60.048 335.722 60.224C336.218 60.384 336.618 60.656 336.922 61.04C337.226 61.424 337.378 61.936 337.378 62.576V69.656C337.506 69.784 337.666 69.88 337.858 69.944C338.05 70.008 338.298 70.04 338.602 70.04H339.658L339.706 70.088V70.136C339.546 70.408 339.298 70.664 338.962 70.904C338.642 71.128 338.234 71.24 337.738 71.24C337.226 71.24 336.818 71.104 336.514 70.832C336.21 70.56 336.002 70.216 335.89 69.8H335.77C335.354 70.216 334.842 70.56 334.234 70.832C333.642 71.104 333.01 71.24 332.338 71.24ZM331.33 68.288C331.33 68.848 331.498 69.272 331.834 69.56C332.17 69.832 332.642 69.968 333.25 69.968C333.65 69.968 334.058 69.92 334.474 69.824C334.89 69.728 335.322 69.568 335.77 69.344V65.576C334.474 65.832 333.506 66.096 332.866 66.368C332.242 66.64 331.826 66.936 331.618 67.256C331.426 67.56 331.33 67.904 331.33 68.288ZM341.305 71V70.616L342.817 70.016V62.048L341.257 61.232V60.968L344.065 59.96H344.257L344.425 62.048H344.497C344.977 61.424 345.377 60.968 345.697 60.68C346.033 60.376 346.337 60.184 346.609 60.104C346.881 60.008 347.153 59.96 347.425 59.96C347.553 59.96 347.697 59.984 347.857 60.032C348.017 60.064 348.145 60.104 348.241 60.152C348.417 60.216 348.561 60.296 348.673 60.392C348.785 60.488 348.841 60.592 348.841 60.704C348.841 60.752 348.833 60.808 348.817 60.872C348.817 60.936 348.801 61 348.769 61.064L348.385 62.024H348.265L347.545 61.712C347.257 61.6 346.937 61.544 346.585 61.544C346.185 61.544 345.809 61.648 345.457 61.856C345.105 62.064 344.769 62.408 344.449 62.888V70.016L346.201 70.616V71H341.305ZM355.389 71.24C354.317 71.24 353.405 71.016 352.653 70.568C351.901 70.12 351.325 69.504 350.925 68.72C350.525 67.92 350.325 67 350.325 65.96C350.325 64.808 350.557 63.784 351.021 62.888C351.501 61.976 352.149 61.264 352.965 60.752C353.797 60.224 354.733 59.96 355.773 59.96C356.413 59.96 357.013 60.064 357.573 60.272C358.149 60.464 358.589 60.704 358.893 60.992C359.069 61.168 359.197 61.32 359.277 61.448C359.373 61.576 359.421 61.696 359.421 61.808C359.421 61.984 359.341 62.136 359.181 62.264L358.365 62.936H358.221L357.621 62.12C357.333 61.736 356.997 61.424 356.613 61.184C356.229 60.928 355.757 60.8 355.197 60.8C354.221 60.8 353.429 61.184 352.821 61.952C352.229 62.704 351.933 63.784 351.933 65.192C351.933 66.024 352.077 66.792 352.365 67.496C352.653 68.184 353.101 68.736 353.709 69.152C354.333 69.552 355.141 69.752 356.133 69.752C357.317 69.752 358.405 69.4 359.397 68.696H359.469V68.96C359.101 69.6 358.565 70.144 357.861 70.592C357.157 71.024 356.333 71.24 355.389 71.24ZM361.787 71V70.616L363.299 70.016V55.088L361.739 54.152V53.912L364.739 53H364.931V61.712H365.003C365.611 61.12 366.187 60.68 366.731 60.392C367.291 60.104 367.907 59.96 368.579 59.96C369.539 59.96 370.331 60.216 370.955 60.728C371.579 61.24 371.891 61.984 371.891 62.96V70.016L373.403 70.616V71H368.555V70.616L370.259 70.04V63.896C370.259 63.08 370.019 62.464 369.539 62.048C369.059 61.616 368.443 61.4 367.691 61.4C367.243 61.4 366.747 61.496 366.203 61.688C365.675 61.864 365.251 62.12 364.931 62.456V70.04L366.635 70.616V71H361.787ZM380.608 71.24C379.536 71.24 378.616 71.016 377.848 70.568C377.096 70.12 376.52 69.504 376.12 68.72C375.72 67.92 375.52 67 375.52 65.96C375.52 64.808 375.752 63.784 376.216 62.888C376.68 61.976 377.296 61.264 378.064 60.752C378.832 60.224 379.664 59.96 380.56 59.96C381.824 59.96 382.816 60.392 383.536 61.256C384.256 62.12 384.64 63.336 384.688 64.904L384.592 65H377.128C377.128 65.064 377.128 65.128 377.128 65.192C377.128 66.024 377.272 66.792 377.56 67.496C377.848 68.184 378.304 68.736 378.928 69.152C379.552 69.552 380.36 69.752 381.352 69.752C382.536 69.752 383.624 69.4 384.616 68.696H384.688V68.96C384.336 69.6 383.8 70.144 383.08 70.592C382.376 71.024 381.552 71.24 380.608 71.24ZM380.2 60.8C379.432 60.8 378.776 61.096 378.232 61.688C377.688 62.264 377.344 63.08 377.2 64.136H383.056C382.736 61.912 381.784 60.8 380.2 60.8ZM387.266 71V70.616L388.778 70.016V62.048L387.218 61.232V60.968L390.026 59.96H390.218L390.386 62.048H390.458C390.938 61.424 391.338 60.968 391.658 60.68C391.994 60.376 392.298 60.184 392.57 60.104C392.842 60.008 393.114 59.96 393.386 59.96C393.514 59.96 393.658 59.984 393.818 60.032C393.978 60.064 394.106 60.104 394.202 60.152C394.378 60.216 394.522 60.296 394.634 60.392C394.746 60.488 394.802 60.592 394.802 60.704C394.802 60.752 394.794 60.808 394.778 60.872C394.778 60.936 394.762 61 394.73 61.064L394.346 62.024H394.226L393.506 61.712C393.218 61.6 392.898 61.544 392.546 61.544C392.146 61.544 391.77 61.648 391.418 61.856C391.066 62.064 390.73 62.408 390.41 62.888V70.016L392.162 70.616V71H387.266Z" fill="#BABCBE"/>
<path d="M405.886 71.24C405.214 71.24 404.622 71.176 404.11 71.048C403.614 70.92 403.11 70.728 402.598 70.472V67.856H402.91L403.51 69.08C403.718 69.528 404.014 69.88 404.398 70.136C404.798 70.376 405.31 70.496 405.934 70.496C406.638 70.496 407.174 70.336 407.542 70.016C407.926 69.68 408.118 69.208 408.118 68.6C408.118 67.944 407.902 67.456 407.47 67.136C407.038 66.816 406.398 66.472 405.55 66.104C404.67 65.736 404.006 65.328 403.558 64.88C403.11 64.432 402.886 63.8 402.886 62.984C402.886 62.44 403.038 61.936 403.342 61.472C403.662 61.008 404.07 60.64 404.566 60.368C405.062 60.096 405.582 59.96 406.126 59.96C406.734 59.96 407.278 60.032 407.758 60.176C408.238 60.32 408.694 60.504 409.126 60.728V63.272H408.814L408.214 62.096C408.006 61.6 407.71 61.248 407.326 61.04C406.958 60.832 406.574 60.728 406.174 60.728C405.598 60.728 405.142 60.888 404.806 61.208C404.486 61.512 404.326 61.928 404.326 62.456C404.326 63 404.51 63.432 404.878 63.752C405.262 64.056 405.838 64.376 406.606 64.712C407.15 64.952 407.646 65.2 408.094 65.456C408.542 65.696 408.894 66.016 409.15 66.416C409.422 66.816 409.558 67.368 409.558 68.072C409.558 68.712 409.382 69.272 409.03 69.752C408.678 70.216 408.222 70.584 407.662 70.856C407.102 71.112 406.51 71.24 405.886 71.24ZM417.452 71.24C416.38 71.24 415.468 71.016 414.715 70.568C413.964 70.12 413.388 69.504 412.988 68.72C412.588 67.92 412.388 67 412.388 65.96C412.388 64.808 412.62 63.784 413.084 62.888C413.564 61.976 414.212 61.264 415.028 60.752C415.86 60.224 416.796 59.96 417.836 59.96C418.476 59.96 419.076 60.064 419.636 60.272C420.212 60.464 420.652 60.704 420.956 60.992C421.132 61.168 421.26 61.32 421.34 61.448C421.436 61.576 421.484 61.696 421.484 61.808C421.484 61.984 421.404 62.136 421.244 62.264L420.428 62.936H420.284L419.684 62.12C419.396 61.736 419.06 61.424 418.676 61.184C418.292 60.928 417.82 60.8 417.26 60.8C416.284 60.8 415.492 61.184 414.884 61.952C414.292 62.704 413.996 63.784 413.996 65.192C413.996 66.024 414.14 66.792 414.428 67.496C414.716 68.184 415.164 68.736 415.772 69.152C416.396 69.552 417.204 69.752 418.196 69.752C419.38 69.752 420.468 69.4 421.46 68.696H421.532V68.96C421.164 69.6 420.628 70.144 419.924 70.592C419.22 71.024 418.396 71.24 417.452 71.24ZM426.13 56.696C425.778 56.696 425.482 56.584 425.242 56.36C425.018 56.12 424.906 55.824 424.906 55.472C424.906 55.104 425.018 54.808 425.242 54.584C425.482 54.36 425.778 54.248 426.13 54.248C426.498 54.248 426.794 54.36 427.018 54.584C427.242 54.808 427.354 55.104 427.354 55.472C427.354 55.824 427.242 56.12 427.018 56.36C426.794 56.584 426.498 56.696 426.13 56.696ZM423.994 71V70.616L425.506 70.016V62.048L423.946 61.112V60.872L426.946 59.96H427.138V70.016L428.722 70.616V71H423.994ZM436.272 71.24C435.2 71.24 434.28 71.016 433.512 70.568C432.76 70.12 432.184 69.504 431.784 68.72C431.384 67.92 431.184 67 431.184 65.96C431.184 64.808 431.416 63.784 431.88 62.888C432.344 61.976 432.96 61.264 433.728 60.752C434.496 60.224 435.328 59.96 436.224 59.96C437.488 59.96 438.48 60.392 439.2 61.256C439.92 62.12 440.304 63.336 440.352 64.904L440.256 65H432.792C432.792 65.064 432.792 65.128 432.792 65.192C432.792 66.024 432.936 66.792 433.224 67.496C433.512 68.184 433.968 68.736 434.592 69.152C435.216 69.552 436.024 69.752 437.016 69.752C438.2 69.752 439.288 69.4 440.28 68.696H440.352V68.96C440 69.6 439.464 70.144 438.744 70.592C438.04 71.024 437.216 71.24 436.272 71.24ZM435.864 60.8C435.096 60.8 434.44 61.096 433.896 61.688C433.352 62.264 433.008 63.08 432.864 64.136H438.72C438.4 61.912 437.448 60.8 435.864 60.8ZM442.834 71V70.616L444.346 70.016V62.048L442.786 61.232V60.968L445.594 59.96H445.786L445.954 61.712H446.05C446.658 61.12 447.234 60.68 447.778 60.392C448.338 60.104 448.954 59.96 449.626 59.96C450.586 59.96 451.378 60.216 452.002 60.728C452.626 61.24 452.938 61.984 452.938 62.96V70.016L454.45 70.616V71H449.602V70.616L451.306 70.016V63.896C451.306 63.08 451.066 62.464 450.586 62.048C450.106 61.616 449.49 61.4 448.738 61.4C448.29 61.4 447.794 61.496 447.25 61.688C446.722 61.864 446.298 62.12 445.978 62.456V70.016L447.682 70.616V71H442.834ZM460.263 71.24C459.575 71.24 458.991 71.032 458.511 70.616C458.047 70.2 457.815 69.616 457.815 68.864V61.208H455.799V61.016L457.935 60.2L459.255 57.56H459.447V60.2H462.615V61.208H459.447V68.6C459.447 69.048 459.615 69.384 459.951 69.608C460.287 69.816 460.711 69.92 461.223 69.92C461.543 69.92 461.839 69.896 462.111 69.848C462.383 69.784 462.631 69.712 462.855 69.632L462.903 69.656V69.824C462.743 70.144 462.439 70.464 461.991 70.784C461.559 71.088 460.983 71.24 460.263 71.24ZM467.145 56.696C466.793 56.696 466.497 56.584 466.257 56.36C466.033 56.12 465.921 55.824 465.921 55.472C465.921 55.104 466.033 54.808 466.257 54.584C466.497 54.36 466.793 54.248 467.145 54.248C467.513 54.248 467.809 54.36 468.033 54.584C468.257 54.808 468.369 55.104 468.369 55.472C468.369 55.824 468.257 56.12 468.033 56.36C467.809 56.584 467.513 56.696 467.145 56.696ZM465.009 71V70.616L466.521 70.016V62.048L464.961 61.112V60.872L467.961 59.96H468.153V70.016L469.737 70.616V71H465.009ZM475.8 71.24C475.128 71.24 474.536 71.176 474.024 71.048C473.528 70.92 473.024 70.728 472.512 70.472V67.856H472.824L473.424 69.08C473.632 69.528 473.928 69.88 474.312 70.136C474.712 70.376 475.224 70.496 475.848 70.496C476.552 70.496 477.088 70.336 477.456 70.016C477.84 69.68 478.032 69.208 478.032 68.6C478.032 67.944 477.816 67.456 477.384 67.136C476.952 66.816 476.312 66.472 475.464 66.104C474.584 65.736 473.92 65.328 473.472 64.88C473.024 64.432 472.8 63.8 472.8 62.984C472.8 62.44 472.952 61.936 473.256 61.472C473.576 61.008 473.984 60.64 474.48 60.368C474.976 60.096 475.496 59.96 476.04 59.96C476.648 59.96 477.192 60.032 477.672 60.176C478.152 60.32 478.608 60.504 479.04 60.728V63.272H478.728L478.128 62.096C477.92 61.6 477.624 61.248 477.24 61.04C476.872 60.832 476.488 60.728 476.088 60.728C475.512 60.728 475.056 60.888 474.72 61.208C474.4 61.512 474.24 61.928 474.24 62.456C474.24 63 474.424 63.432 474.792 63.752C475.176 64.056 475.752 64.376 476.52 64.712C477.064 64.952 477.56 65.2 478.008 65.456C478.456 65.696 478.808 66.016 479.064 66.416C479.336 66.816 479.472 67.368 479.472 68.072C479.472 68.712 479.296 69.272 478.944 69.752C478.592 70.216 478.136 70.584 477.576 70.856C477.016 71.112 476.424 71.24 475.8 71.24ZM485.857 71.24C485.169 71.24 484.585 71.032 484.105 70.616C483.641 70.2 483.409 69.616 483.409 68.864V61.208H481.393V61.016L483.529 60.2L484.849 57.56H485.041V60.2H488.209V61.208H485.041V68.6C485.041 69.048 485.209 69.384 485.545 69.608C485.881 69.816 486.305 69.92 486.817 69.92C487.137 69.92 487.433 69.896 487.705 69.848C487.977 69.784 488.225 69.712 488.449 69.632L488.497 69.656V69.824C488.337 70.144 488.033 70.464 487.585 70.784C487.153 71.088 486.577 71.24 485.857 71.24Z" fill="#F4B400"/>
<path d="M92.9062 64.76H182.395V65.768H92.9062V64.76ZM188.391 64.76H280.059V65.768H188.391V64.76ZM286.055 64.76H395.09V65.768H286.055V64.76Z" fill="#BABCBE"/>
<ellipse cx="430.209" cy="80.1436" rx="3.7907" ry="4.14359" fill="#4285F4"/>
<ellipse cx="415.994" cy="273.856" rx="3.7907" ry="4.14359" fill="#4285F4"/>
<path d="M430.683 79.6257C301.041 193.16 366.873 256.419 415.994 273.857" stroke="#4285F4" stroke-width="2"/>
<circle r="4" transform="matrix(-1 0 0 1 215 274)" fill="#0F9D58"/>
<circle r="4" transform="matrix(-1 0 0 1 449 80)" fill="#0F9D58"/>
<path d="M449.5 80C368.3 236.8 257.667 275 212.5 274.5" stroke="#0F9D58" stroke-width="2"/>
<path d="M27.7298 16C-26.6702 46.4 14.3965 65.3333 41.7298 71" stroke="#F4B400" stroke-width="2"/>
<circle r="4" transform="matrix(-1 0 0 1 41.7298 71)" fill="#F4B400"/>
<circle r="4" transform="matrix(-1 0 0 1 28.7298 16)" fill="#F4B400"/>
<path d="M513 16C567.4 46.4 526.333 65.3333 499 71" stroke="white" stroke-width="2"/>
<circle cx="499" cy="71" r="4" fill="white"/>
<circle cx="512" cy="16" r="4" fill="white"/>
</svg>
