<svg width="56" height="72" viewBox="0 0 56 72" fill="none" xmlns="http://www.w3.org/2000/svg">
<rect width="56" height="72" fill="white"/>
<path d="M22.0634 49.0009C34.1389 49.0009 40.7437 38.9965 40.7437 30.3206C40.7437 30.0365 40.7437 29.7536 40.7245 29.472C42.0094 28.5426 43.1185 27.3918 44 26.0736C42.8019 26.6048 41.5307 26.953 40.2291 27.1065C41.5998 26.2861 42.6255 24.9956 43.1155 23.4752C41.8268 24.24 40.4168 24.7789 38.9466 25.0688C37.9567 24.0162 36.6475 23.3192 35.2216 23.0857C33.7957 22.8521 32.3326 23.0951 31.0586 23.7768C29.7847 24.4586 28.771 25.5413 28.1743 26.8572C27.5777 28.1732 27.4314 29.6491 27.7581 31.0566C25.1479 30.9257 22.5943 30.2473 20.2633 29.0656C17.9322 27.8838 15.8757 26.2251 14.2272 24.1971C13.3876 25.6424 13.1305 27.3534 13.5081 28.9817C13.8858 30.6099 14.8698 32.033 16.2598 32.9613C15.215 32.9306 14.1929 32.6488 13.28 32.1395V32.2227C13.2804 33.7385 13.8051 35.2075 14.7652 36.3805C15.7252 37.5535 17.0614 38.3584 18.5472 38.6585C17.5806 38.9222 16.5665 38.9607 15.5827 38.7712C16.0024 40.0756 16.8192 41.2163 17.919 42.0338C19.0187 42.8512 20.3464 43.3046 21.7165 43.3305C20.3553 44.4005 18.7964 45.1916 17.1292 45.6585C15.4619 46.1255 13.719 46.2591 12 46.0518C15.0024 47.9785 18.4959 49.0005 22.0634 48.9958" fill="black"/>
</svg>
