<svg width="20" height="20" viewBox="0 0 20 20" fill="none" xmlns="http://www.w3.org/2000/svg">
<circle cx="9.75" cy="9.75439" r="9.75" fill="#FAFAFA"/>
<g clip-path="url(#clip0_1192_466)">
<path d="M7.24696 15.2332C12.34 15.2332 15.1265 11.013 15.1265 7.35441C15.1265 7.23577 15.1239 7.11449 15.1186 6.99585C15.6607 6.60389 16.1285 6.11838 16.5 5.56215C15.9952 5.78673 15.4592 5.93341 14.9103 5.99716C15.4882 5.6508 15.9209 5.10667 16.1282 4.46565C15.5846 4.78781 14.99 5.01507 14.3701 5.13768C13.9523 4.69388 13.4001 4.40004 12.7986 4.30157C12.1971 4.20311 11.5799 4.30551 11.0425 4.59295C10.505 4.88038 10.0773 5.33684 9.82529 5.89175C9.57332 6.44666 9.51118 7.06911 9.64849 7.66288C8.54765 7.60764 7.47071 7.3217 6.48749 6.8236C5.50427 6.32549 4.6367 5.62635 3.94104 4.77148C3.58747 5.38101 3.47928 6.10229 3.63845 6.78872C3.79763 7.47515 4.21222 8.07523 4.79798 8.467C4.35823 8.45304 3.92811 8.33465 3.54316 8.12162V8.15589C3.54277 8.79555 3.76393 9.41561 4.16905 9.91067C4.57417 10.4057 5.13824 10.7452 5.76539 10.8714C5.35803 10.9829 4.93049 10.9991 4.51585 10.9189C4.69282 11.469 5.03713 11.9502 5.50075 12.2952C5.96436 12.6402 6.52413 12.8319 7.10194 12.8435C6.12099 13.614 4.90922 14.0319 3.66182 14.0299C3.4406 14.0296 3.2196 14.016 3 13.9893C4.26723 14.8022 5.74136 15.234 7.24696 15.2332Z" fill="black"/>
</g>
<defs>
<clipPath id="clip0_1192_466">
<rect width="13.5" height="13.4986" fill="white" transform="translate(3 3)"/>
</clipPath>
</defs>
</svg>
