<svg width="20" height="20" viewBox="0 0 20 20" fill="none" xmlns="http://www.w3.org/2000/svg">
<circle cx="9.75" cy="9.75439" r="9.75" fill="#FAFAFA"/>
<g clip-path="url(#clip0_1192_466)">
<path d="M7.93237 15.327C12.6482 15.327 15.2283 11.4194 15.2283 8.03183C15.2283 7.92197 15.2258 7.80968 15.2209 7.69983C15.7229 7.3369 16.156 6.88735 16.5 6.37232C16.0326 6.58027 15.5363 6.71608 15.0281 6.77512C15.5632 6.4544 15.9638 5.95058 16.1558 5.35704C15.6524 5.65534 15.1019 5.86577 14.5278 5.9793C14.1411 5.56837 13.6297 5.2963 13.0728 5.20512C12.5158 5.11395 11.9444 5.20877 11.4467 5.47491C10.9491 5.74106 10.553 6.1637 10.3197 6.67751C10.0864 7.19131 10.0289 7.76766 10.156 8.31744C9.13671 8.2663 8.13955 8.00154 7.22916 7.54033C6.31876 7.07913 5.51547 6.43177 4.87134 5.64022C4.54396 6.2046 4.44378 6.87245 4.59116 7.50804C4.73854 8.14363 5.12243 8.69925 5.66479 9.062C5.25762 9.04907 4.85936 8.93945 4.50293 8.7422V8.77394C4.50256 9.36622 4.70734 9.94035 5.08245 10.3987C5.45756 10.8571 5.97986 11.1715 6.56055 11.2883C6.18336 11.3915 5.78749 11.4066 5.40356 11.3323C5.56742 11.8416 5.88624 12.2871 6.31551 12.6066C6.74478 12.9261 7.26308 13.1036 7.7981 13.1143C6.8898 13.8277 5.7678 14.2147 4.61279 14.2128C4.40796 14.2125 4.20333 14.2 4 14.1753C5.17336 14.928 6.5383 15.3277 7.93237 15.327Z" fill="black"/>
</g>
<defs>
<clipPath id="clip0_1192_466">
<rect width="12.5" height="12.4987" fill="white" transform="translate(4 4)"/>
</clipPath>
</defs>
</svg>
