<svg width="56" height="72" viewBox="0 0 56 72" fill="none" xmlns="http://www.w3.org/2000/svg">
<rect width="56" height="72" fill="white"/>
<path d="M5.38069 70V69.725L6.48069 69.538V63.125H4.33569L3.87369 64.742H3.65369V62.74H9.96769V64.742H9.74769L9.28569 63.125H7.14069V69.538L8.24069 69.725V70H5.38069ZM13.4114 70.055L11.4204 63.18L10.6284 63.015V62.74H13.1254V63.015L12.1464 63.18L13.7304 68.746H13.7634L15.7434 62.685H15.9744L18.0864 68.757H18.1194L19.6374 63.202L18.6584 63.015V62.74H20.7924V63.015L20.0884 63.191L18.0864 70.055H17.8554L15.7434 64.192H15.6994L13.6424 70.055H13.4114ZM21.7285 70V69.725L22.5865 69.538V63.202L21.7285 63.015V62.74H24.1045V63.015L23.2465 63.202V69.538L24.1045 69.725V70H21.7285ZM27.1014 70V69.725L28.2014 69.538V63.125H26.0564L25.5944 64.742H25.3744V62.74H31.6884V64.742H31.4684L31.0064 63.125H28.8614V69.538L29.9614 69.725V70H27.1014ZM34.4061 70V69.725L35.5061 69.538V63.125H33.3611L32.8991 64.742H32.6791V62.74H38.9931V64.742H38.7731L38.3111 63.125H36.1661V69.538L37.2661 69.725V70H34.4061ZM40.2038 70V69.725L41.0618 69.538V63.202L40.2038 63.015V62.74H45.1318V64.522H44.9118L44.4498 63.125H41.7218V66.062H43.7238L43.9988 65.149H44.2188V67.338H43.9988L43.7238 66.447H41.7218V69.615H44.7578L45.2198 68.108H45.4398V70H40.2038ZM46.9284 70V69.725L47.8084 69.538V63.202L46.9284 63.015V62.74H49.1064C49.8764 62.74 50.4814 62.9013 50.9214 63.224C51.3687 63.5393 51.5924 63.9757 51.5924 64.533C51.5924 64.973 51.4494 65.347 51.1634 65.655C50.8847 65.963 50.5144 66.1903 50.0524 66.337L52.1754 69.582L52.9014 69.725V70H51.6254L49.4254 66.557H48.4684V69.527L49.2934 69.725V70H46.9284ZM49.1834 63.125H48.4684V66.172H49.2494C49.7114 66.172 50.0927 66.0327 50.3934 65.754C50.7014 65.468 50.8554 65.1087 50.8554 64.676C50.8554 64.1993 50.705 63.8217 50.4044 63.543C50.1037 63.2643 49.6967 63.125 49.1834 63.125Z" fill="black"/>
<path d="M22.0634 49.0009C34.1389 49.0009 40.7437 38.9965 40.7437 30.3206C40.7437 30.0365 40.7437 29.7536 40.7245 29.472C42.0094 28.5426 43.1185 27.3918 44 26.0736C42.8019 26.6048 41.5307 26.953 40.2291 27.1065C41.5998 26.2861 42.6255 24.9956 43.1155 23.4752C41.8268 24.24 40.4168 24.7789 38.9466 25.0688C37.9567 24.0162 36.6475 23.3192 35.2216 23.0857C33.7957 22.8521 32.3326 23.0951 31.0586 23.7768C29.7847 24.4586 28.771 25.5413 28.1743 26.8572C27.5777 28.1732 27.4314 29.6491 27.7581 31.0566C25.1479 30.9257 22.5943 30.2473 20.2633 29.0656C17.9322 27.8838 15.8757 26.2251 14.2272 24.1971C13.3876 25.6424 13.1305 27.3534 13.5081 28.9817C13.8858 30.6099 14.8698 32.033 16.2598 32.9613C15.215 32.9306 14.1929 32.6488 13.28 32.1395V32.2227C13.2804 33.7385 13.8051 35.2075 14.7652 36.3805C15.7252 37.5535 17.0614 38.3584 18.5472 38.6585C17.5806 38.9222 16.5665 38.9607 15.5827 38.7712C16.0024 40.0756 16.8192 41.2163 17.919 42.0338C19.0187 42.8512 20.3464 43.3046 21.7165 43.3305C20.3553 44.4005 18.7964 45.1916 17.1292 45.6585C15.4619 46.1255 13.719 46.2591 12 46.0518C15.0024 47.9785 18.4959 49.0005 22.0634 48.9958" fill="black"/>
</svg>
