<svg width="880" height="624" viewBox="0 0 880 624" fill="none" xmlns="http://www.w3.org/2000/svg">
<g clip-path="url(#clip0_444_160)">
<rect width="880" height="624" fill="white"/>
<rect width="880" height="624" fill="black"/>
<path d="M34 44.08C33.7333 44.08 33.504 43.984 33.312 43.792C33.12 43.6 33.024 43.3707 33.024 43.104C33.024 42.8373 33.12 42.608 33.312 42.416C33.504 42.224 33.7333 42.128 34 42.128C34.2667 42.128 34.496 42.224 34.688 42.416C34.88 42.608 34.976 42.8373 34.976 43.104C34.976 43.3707 34.88 43.6 34.688 43.792C34.496 43.984 34.2667 44.08 34 44.08ZM34 38.592C33.7333 38.592 33.504 38.496 33.312 38.304C33.12 38.112 33.024 37.8827 33.024 37.616C33.024 37.3493 33.12 37.12 33.312 36.928C33.504 36.736 33.7333 36.64 34 36.64C34.2667 36.64 34.496 36.736 34.688 36.928C34.88 37.12 34.976 37.3493 34.976 37.616C34.976 37.8827 34.88 38.112 34.688 38.304C34.496 38.496 34.2667 38.592 34 38.592ZM36.864 44V43.744L37.872 43.232V37.552H36.624V36.8H37.872V36.16C37.872 35.9467 37.9253 35.6693 38.032 35.328C38.1387 34.9867 38.2933 34.6293 38.496 34.256C38.7093 33.872 38.9653 33.5093 39.264 33.168C39.5627 32.8267 39.8987 32.5493 40.272 32.336C40.656 32.112 41.0773 32 41.536 32C41.632 32 41.7333 32.016 41.84 32.048C41.9467 32.08 42.0373 32.112 42.112 32.144C42.272 32.2187 42.3893 32.288 42.464 32.352C42.5493 32.416 42.592 32.496 42.592 32.592C42.592 32.688 42.5707 32.784 42.528 32.88L42.208 33.664H42.096L41.664 33.488C41.3653 33.3707 41.0187 33.312 40.624 33.312C40.0373 33.312 39.6427 33.4987 39.44 33.872C39.248 34.2347 39.152 34.784 39.152 35.52V36.8H41.264V37.552H39.152V43.264L40.288 43.744V44H36.864ZM45.6128 44.16C44.5781 44.16 43.7621 43.8453 43.1648 43.216C42.5674 42.5867 42.2688 41.7547 42.2688 40.72C42.2688 39.92 42.4288 39.216 42.7488 38.608C43.0794 37.9893 43.5221 37.5093 44.0768 37.168C44.6314 36.816 45.2554 36.64 45.9488 36.64C46.3754 36.64 46.7914 36.7147 47.1968 36.864C47.6021 37.0027 47.9114 37.1893 48.1248 37.424C48.2954 37.6267 48.3808 37.7867 48.3808 37.904C48.3808 38.0533 48.3114 38.1813 48.1728 38.288L47.5648 38.8H47.4528L46.9088 38.064C46.7488 37.8507 46.5461 37.68 46.3008 37.552C46.0661 37.4133 45.7728 37.344 45.4208 37.344C44.8341 37.344 44.3701 37.5787 44.0288 38.048C43.6981 38.5067 43.5328 39.152 43.5328 39.984C43.5328 40.496 43.6181 40.9813 43.7888 41.44C43.9594 41.888 44.2421 42.256 44.6368 42.544C45.0421 42.8213 45.5968 42.96 46.3008 42.96C46.8874 42.96 47.5754 42.7467 48.3648 42.32H48.4128V42.48C48.1674 42.9387 47.7994 43.3333 47.3088 43.664C46.8288 43.9947 46.2634 44.16 45.6128 44.16ZM53.125 45.92L56.325 32H57.125L53.925 45.92H53.125ZM61.893 47.68V47.424L62.901 46.912V38.464L61.941 37.632V37.52L63.925 36.64H64.021L64.149 37.616H64.261C64.6663 37.2747 65.0557 37.0293 65.429 36.88C65.8023 36.72 66.2077 36.64 66.645 36.64C67.189 36.64 67.669 36.7787 68.085 37.056C68.501 37.3333 68.8263 37.728 69.061 38.24C69.3063 38.7413 69.429 39.344 69.429 40.048C69.429 40.9227 69.2637 41.6693 68.933 42.288C68.613 42.896 68.1757 43.36 67.621 43.68C67.0663 44 66.4583 44.16 65.797 44.16C65.1997 44.16 64.661 44.1067 64.181 44V46.912L65.317 47.424V47.68H61.893ZM65.765 37.744C65.509 37.744 65.2423 37.7867 64.965 37.872C64.6983 37.9467 64.437 38.064 64.181 38.224V42.72C64.501 42.976 64.8263 43.152 65.157 43.248C65.4877 43.344 65.8557 43.392 66.261 43.392C66.773 43.392 67.2157 43.1787 67.589 42.752C67.9623 42.3147 68.149 41.5893 68.149 40.576C68.149 39.9147 68.0423 39.376 67.829 38.96C67.6157 38.544 67.3277 38.24 66.965 38.048C66.6023 37.8453 66.2023 37.744 65.765 37.744ZM71.0351 44V43.744L72.0431 43.232V38.464L71.0831 37.632V37.52L73.0671 36.64H73.1631L73.3071 38H73.3711C73.6165 37.6053 73.8405 37.312 74.0431 37.12C74.2565 36.9173 74.4538 36.7893 74.6351 36.736C74.8165 36.672 74.9978 36.64 75.1791 36.64C75.2645 36.64 75.3605 36.656 75.4671 36.688C75.5845 36.72 75.6805 36.752 75.7551 36.784C75.8725 36.8373 75.9791 36.9013 76.0751 36.976C76.1818 37.0507 76.2351 37.136 76.2351 37.232C76.2351 37.328 76.2138 37.424 76.1711 37.52L75.8511 38.304H75.7391L75.1311 38.064C75.0138 38.0107 74.8965 37.9787 74.7791 37.968C74.6725 37.9573 74.5658 37.952 74.4591 37.952C74.0111 37.952 73.6325 38.1813 73.3231 38.64V43.232L74.4591 43.744V44H71.0351ZM80.8825 44.16C80.1785 44.16 79.5598 43.9947 79.0265 43.664C78.5038 43.3333 78.0932 42.8853 77.7945 42.32C77.5065 41.7547 77.3625 41.1147 77.3625 40.4C77.3625 39.6853 77.5065 39.0453 77.7945 38.48C78.0932 37.9147 78.5038 37.4667 79.0265 37.136C79.5598 36.8053 80.1785 36.64 80.8825 36.64C81.5865 36.64 82.1998 36.8053 82.7225 37.136C83.2558 37.4667 83.6665 37.9147 83.9545 38.48C84.2532 39.0453 84.4025 39.6853 84.4025 40.4C84.4025 41.1147 84.2532 41.7547 83.9545 42.32C83.6665 42.8853 83.2558 43.3333 82.7225 43.664C82.1998 43.9947 81.5865 44.16 80.8825 44.16ZM81.1065 43.472C81.5332 43.472 81.8852 43.3387 82.1625 43.072C82.4398 42.8053 82.6425 42.464 82.7705 42.048C82.8985 41.6213 82.9625 41.1787 82.9625 40.72C82.9625 40.1547 82.8825 39.6107 82.7225 39.088C82.5732 38.5653 82.3278 38.1387 81.9865 37.808C81.6558 37.4773 81.2238 37.312 80.6905 37.312C80.2532 37.312 79.8958 37.4453 79.6185 37.712C79.3412 37.9787 79.1332 38.32 78.9945 38.736C78.8665 39.152 78.8025 39.5947 78.8025 40.064C78.8025 40.6293 78.8825 41.1733 79.0425 41.696C79.2025 42.2187 79.4532 42.6453 79.7945 42.976C80.1358 43.3067 80.5732 43.472 81.1065 43.472ZM88.7693 44.16C88.2359 44.16 87.7559 44.0267 87.3293 43.76C86.9133 43.4933 86.5826 43.12 86.3372 42.64C86.1026 42.1493 85.9853 41.568 85.9853 40.896C85.9853 39.9893 86.1613 39.2213 86.5133 38.592C86.8653 37.952 87.3346 37.4667 87.9213 37.136C88.5079 36.8053 89.1479 36.64 89.8413 36.64C90.1399 36.64 90.4013 36.656 90.6253 36.688C90.8493 36.7093 91.0519 36.7413 91.2333 36.784V33.824L90.1933 32.992V32.88L92.4173 32H92.5133V43.28L93.6493 43.744V44H91.3933L91.2653 43.184H91.1533C90.7479 43.5253 90.3533 43.776 89.9693 43.936C89.5959 44.0853 89.1959 44.16 88.7693 44.16ZM87.2653 40.528C87.2653 41.4133 87.4999 42.0587 87.9693 42.464C88.4386 42.8587 88.9986 43.056 89.6493 43.056C89.9053 43.056 90.1666 43.0187 90.4333 42.944C90.7106 42.8587 90.9773 42.736 91.2333 42.576V38.096C90.9773 37.872 90.7213 37.7067 90.4653 37.6C90.2199 37.4827 89.9426 37.424 89.6333 37.424C89.2066 37.424 88.8119 37.5307 88.4493 37.744C88.0973 37.9467 87.8093 38.2773 87.5853 38.736C87.3719 39.184 87.2653 39.7813 87.2653 40.528ZM97.8188 44.16C97.1894 44.16 96.6721 44.0053 96.2668 43.696C95.8721 43.376 95.6748 42.9067 95.6748 42.288V37.552L94.6668 37.056V36.8H96.9548V41.536C96.9548 42.0053 97.0988 42.3627 97.3868 42.608C97.6854 42.8533 98.0694 42.976 98.5388 42.976C98.8268 42.976 99.1414 42.928 99.4828 42.832C99.8348 42.736 100.112 42.5973 100.315 42.416V37.552L99.1788 37.056V36.8H101.595V43.28L102.731 43.744V44H100.315V42.992H100.235C99.8294 43.3973 99.4348 43.696 99.0508 43.888C98.6774 44.0693 98.2668 44.16 97.8188 44.16ZM107.332 44.16C106.297 44.16 105.481 43.8453 104.884 43.216C104.286 42.5867 103.988 41.7547 103.988 40.72C103.988 39.92 104.148 39.216 104.468 38.608C104.798 37.9893 105.241 37.5093 105.796 37.168C106.35 36.816 106.974 36.64 107.668 36.64C108.094 36.64 108.51 36.7147 108.916 36.864C109.321 37.0027 109.63 37.1893 109.844 37.424C110.014 37.6267 110.1 37.7867 110.1 37.904C110.1 38.0533 110.03 38.1813 109.892 38.288L109.284 38.8H109.172L108.628 38.064C108.468 37.8507 108.265 37.68 108.02 37.552C107.785 37.4133 107.492 37.344 107.14 37.344C106.553 37.344 106.089 37.5787 105.748 38.048C105.417 38.5067 105.252 39.152 105.252 39.984C105.252 40.496 105.337 40.9813 105.508 41.44C105.678 41.888 105.961 42.256 106.356 42.544C106.761 42.8213 107.316 42.96 108.02 42.96C108.606 42.96 109.294 42.7467 110.084 42.32H110.132V42.48C109.886 42.9387 109.518 43.3333 109.028 43.664C108.548 43.9947 107.982 44.16 107.332 44.16ZM114.172 44.16C113.702 44.16 113.297 44.0213 112.956 43.744C112.614 43.4667 112.444 43.0773 112.444 42.576V37.552H111.132V37.456L112.492 36.8L113.628 35.04H113.724V36.8H115.836V37.552H113.724V42.304C113.724 42.5813 113.846 42.784 114.092 42.912C114.337 43.04 114.625 43.104 114.956 43.104C115.158 43.104 115.345 43.0933 115.516 43.072C115.697 43.0507 115.852 43.024 115.98 42.992H116.028V43.152C115.921 43.3973 115.708 43.6267 115.388 43.84C115.078 44.0533 114.673 44.16 114.172 44.16ZM139.988 44.16C139.455 44.16 138.975 44.0267 138.548 43.76C138.132 43.4933 137.801 43.12 137.556 42.64C137.321 42.1493 137.204 41.568 137.204 40.896C137.204 39.9893 137.38 39.2213 137.732 38.592C138.084 37.952 138.553 37.4667 139.14 37.136C139.727 36.8053 140.367 36.64 141.06 36.64C141.359 36.64 141.62 36.656 141.844 36.688C142.068 36.7093 142.271 36.7413 142.452 36.784V33.824L141.412 32.992V32.88L143.636 32H143.732V43.28L144.868 43.744V44H142.612L142.484 43.184H142.372C141.967 43.5253 141.572 43.776 141.188 43.936C140.815 44.0853 140.415 44.16 139.988 44.16ZM138.484 40.528C138.484 41.4133 138.719 42.0587 139.188 42.464C139.657 42.8587 140.217 43.056 140.868 43.056C141.124 43.056 141.385 43.0187 141.652 42.944C141.929 42.8587 142.196 42.736 142.452 42.576V38.096C142.196 37.872 141.94 37.7067 141.684 37.6C141.439 37.4827 141.161 37.424 140.852 37.424C140.425 37.424 140.031 37.5307 139.668 37.744C139.316 37.9467 139.028 38.2773 138.804 38.736C138.591 39.184 138.484 39.7813 138.484 40.528ZM149.582 44.16C148.547 44.16 147.731 43.8453 147.134 43.216C146.536 42.5867 146.238 41.7547 146.238 40.72C146.238 39.92 146.392 39.216 146.702 38.608C147.022 37.9893 147.438 37.5093 147.95 37.168C148.472 36.816 149.038 36.64 149.646 36.64C150.488 36.64 151.15 36.9333 151.63 37.52C152.12 38.1067 152.366 38.9493 152.366 40.048L152.286 40.128H147.502C147.512 40.6187 147.608 41.0827 147.789 41.52C147.971 41.9467 148.259 42.2933 148.654 42.56C149.059 42.8267 149.598 42.96 150.27 42.96C150.856 42.96 151.544 42.7467 152.334 42.32H152.382V42.48C152.136 42.9387 151.768 43.3333 151.278 43.664C150.798 43.9947 150.232 44.16 149.582 44.16ZM149.39 37.344C148.878 37.344 148.456 37.5253 148.126 37.888C147.806 38.24 147.608 38.7413 147.534 39.392H151.15C151.032 38.6667 150.824 38.144 150.526 37.824C150.238 37.504 149.859 37.344 149.39 37.344ZM156.596 44.16C156.094 44.16 155.662 44.1173 155.299 44.032C154.937 43.9467 154.569 43.808 154.196 43.616V41.824H154.42L154.932 42.704C155.262 43.2907 155.801 43.584 156.548 43.584C156.974 43.584 157.305 43.4827 157.54 43.28C157.785 43.0773 157.908 42.8 157.908 42.448C157.908 42.1387 157.833 41.8987 157.684 41.728C157.534 41.5573 157.321 41.408 157.044 41.28C156.777 41.1413 156.457 40.9867 156.084 40.816C155.54 40.5707 155.118 40.304 154.82 40.016C154.532 39.7173 154.388 39.3013 154.388 38.768C154.388 38.3733 154.5 38.016 154.724 37.696C154.948 37.376 155.23 37.12 155.572 36.928C155.924 36.736 156.286 36.64 156.66 36.64C157.054 36.64 157.417 36.688 157.748 36.784C158.078 36.88 158.414 37.0133 158.756 37.184V38.928H158.532L158.004 38.08C157.822 37.792 157.625 37.584 157.411 37.456C157.198 37.328 156.969 37.264 156.724 37.264C156.361 37.264 156.068 37.3547 155.844 37.536C155.63 37.7173 155.524 37.968 155.524 38.288C155.524 38.6507 155.652 38.928 155.908 39.12C156.174 39.3013 156.558 39.5093 157.06 39.744C157.358 39.8933 157.657 40.0427 157.956 40.192C158.265 40.3413 158.516 40.5547 158.708 40.832C158.91 41.0987 159.012 41.4827 159.012 41.984C159.012 42.4533 158.884 42.8533 158.628 43.184C158.372 43.504 158.057 43.7493 157.684 43.92C157.31 44.08 156.948 44.16 156.596 44.16ZM162.558 34.704C162.28 34.704 162.051 34.6133 161.87 34.432C161.688 34.24 161.598 34.0107 161.598 33.744C161.598 33.4667 161.688 33.2373 161.87 33.056C162.051 32.8747 162.28 32.784 162.558 32.784C162.835 32.784 163.064 32.8747 163.246 33.056C163.427 33.2373 163.518 33.4667 163.518 33.744C163.518 34.0107 163.427 34.24 163.246 34.432C163.064 34.6133 162.835 34.704 162.558 34.704ZM160.958 44V43.744L161.966 43.232V38.464L161.006 37.632V37.52L163.15 36.64H163.246V43.232L164.254 43.744V44H160.958ZM169.237 41.728C168.768 41.728 168.336 41.6427 167.941 41.472C167.728 41.5573 167.573 41.6693 167.477 41.808C167.392 41.9467 167.349 42.096 167.349 42.256C167.349 42.7893 167.728 43.056 168.485 43.056H170.405C171.184 43.056 171.755 43.2267 172.117 43.568C172.491 43.9093 172.677 44.416 172.677 45.088C172.677 45.5467 172.523 45.984 172.213 46.4C171.915 46.8267 171.483 47.1733 170.917 47.44C170.363 47.7067 169.701 47.84 168.933 47.84C167.92 47.84 167.189 47.6533 166.741 47.28C166.304 46.9173 166.085 46.4693 166.085 45.936C166.085 45.5413 166.181 45.2 166.373 44.912L167.477 44.176V44.112C167.072 44.0267 166.763 43.872 166.549 43.648C166.336 43.4133 166.229 43.1307 166.229 42.8C166.229 42.3947 166.368 42.0533 166.645 41.776L167.509 41.328V41.232C167.168 41.008 166.896 40.72 166.693 40.368C166.491 40.016 166.389 39.6213 166.389 39.184C166.389 38.704 166.512 38.272 166.757 37.888C167.003 37.504 167.339 37.2 167.765 36.976C168.203 36.752 168.693 36.64 169.237 36.64C169.461 36.64 169.701 36.6667 169.957 36.72C170.224 36.7733 170.453 36.8427 170.645 36.928L173.045 36.8V37.664L171.557 37.568L171.493 37.632C171.664 37.824 171.803 38.0587 171.909 38.336C172.027 38.6133 172.085 38.896 172.085 39.184C172.085 39.664 171.963 40.096 171.717 40.48C171.472 40.864 171.131 41.168 170.693 41.392C170.267 41.616 169.781 41.728 169.237 41.728ZM169.397 41.072C169.824 41.072 170.16 40.8907 170.405 40.528C170.651 40.1547 170.773 39.7227 170.773 39.232C170.773 38.6453 170.613 38.176 170.293 37.824C169.973 37.4613 169.584 37.28 169.125 37.28C168.667 37.28 168.315 37.4667 168.069 37.84C167.824 38.2027 167.701 38.6347 167.701 39.136C167.701 39.6907 167.861 40.1547 168.181 40.528C168.501 40.8907 168.907 41.072 169.397 41.072ZM167.221 45.76C167.221 46.2293 167.403 46.6187 167.765 46.928C168.139 47.2373 168.592 47.392 169.125 47.392C169.605 47.392 170.021 47.296 170.373 47.104C170.736 46.9227 171.013 46.6773 171.205 46.368C171.408 46.0693 171.509 45.7493 171.509 45.408C171.509 44.9387 171.381 44.6133 171.125 44.432C170.88 44.2507 170.432 44.16 169.781 44.16H168.069C168.037 44.16 168.011 44.16 167.989 44.16C167.701 44.3307 167.499 44.544 167.381 44.8C167.275 45.0667 167.221 45.3867 167.221 45.76ZM174.456 44V43.744L175.464 43.232V38.464L174.504 37.632V37.52L176.488 36.64H176.584L176.728 37.824H176.808C177.213 37.4187 177.602 37.12 177.976 36.928C178.36 36.736 178.781 36.64 179.24 36.64C179.869 36.64 180.381 36.8 180.776 37.12C181.181 37.4293 181.384 37.8933 181.384 38.512V43.232L182.392 43.744V44H178.968V43.744L180.104 43.232V39.264C180.104 38.7947 179.954 38.4373 179.656 38.192C179.368 37.9467 178.989 37.824 178.52 37.824C178.232 37.824 177.912 37.872 177.56 37.968C177.218 38.064 176.946 38.2027 176.744 38.384V43.232L177.88 43.744V44H174.456ZM189.496 44.16C188.995 44.16 188.579 44.016 188.248 43.728C187.917 43.4293 187.752 43.0187 187.752 42.496C187.752 41.9733 187.944 41.52 188.328 41.136C188.723 40.752 189.379 40.4533 190.296 40.24L191.816 39.888V38.72C191.816 38.3573 191.667 38.048 191.368 37.792C191.08 37.5253 190.749 37.392 190.376 37.392C189.971 37.392 189.688 37.504 189.528 37.728C189.368 37.9413 189.288 38.2293 189.288 38.592V39.04L189.208 39.12H188.376C188.216 39.12 188.104 39.0933 188.04 39.04C187.987 38.9867 187.96 38.864 187.96 38.672C187.96 38.4373 188.029 38.1973 188.168 37.952C188.307 37.7067 188.52 37.4933 188.808 37.312C189.107 37.12 189.416 36.96 189.736 36.832C190.067 36.704 190.419 36.64 190.792 36.64C191.165 36.64 191.528 36.6933 191.88 36.8C192.243 36.9067 192.536 37.088 192.76 37.344C192.984 37.5893 193.096 37.936 193.096 38.384V42.928C193.171 43.0027 193.277 43.0667 193.416 43.12C193.555 43.1733 193.747 43.2 193.992 43.2H194.6L194.648 43.232V43.28C194.52 43.5147 194.328 43.7227 194.072 43.904C193.827 44.0747 193.523 44.16 193.16 44.16C192.829 44.16 192.557 44.0747 192.344 43.904C192.141 43.7227 191.997 43.488 191.912 43.2H191.816C191.539 43.4773 191.192 43.7067 190.776 43.888C190.371 44.0693 189.944 44.16 189.496 44.16ZM189 42.176C189 42.8373 189.4 43.168 190.2 43.168C190.456 43.168 190.707 43.1413 190.952 43.088C191.208 43.0347 191.496 42.9387 191.816 42.8V40.432C190.963 40.592 190.339 40.7627 189.944 40.944C189.549 41.1147 189.293 41.3013 189.176 41.504C189.059 41.7067 189 41.9307 189 42.176ZM202.428 44.16C201.799 44.16 201.281 44.0053 200.876 43.696C200.481 43.376 200.284 42.9067 200.284 42.288V37.552L199.276 37.056V36.8H201.564V41.536C201.564 42.0053 201.708 42.3627 201.996 42.608C202.295 42.8533 202.679 42.976 203.148 42.976C203.436 42.976 203.751 42.928 204.092 42.832C204.444 42.736 204.721 42.5973 204.924 42.416V37.552L203.788 37.056V36.8H206.204V43.28L207.34 43.744V44H204.924V42.992H204.844C204.439 43.3973 204.044 43.696 203.66 43.888C203.287 44.0693 202.876 44.16 202.428 44.16ZM211.205 44.16C210.704 44.16 210.272 44.1173 209.909 44.032C209.546 43.9467 209.178 43.808 208.805 43.616V41.824H209.029L209.541 42.704C209.872 43.2907 210.41 43.584 211.157 43.584C211.584 43.584 211.914 43.4827 212.149 43.28C212.394 43.0773 212.517 42.8 212.517 42.448C212.517 42.1387 212.442 41.8987 212.293 41.728C212.144 41.5573 211.93 41.408 211.653 41.28C211.386 41.1413 211.066 40.9867 210.693 40.816C210.149 40.5707 209.728 40.304 209.429 40.016C209.141 39.7173 208.997 39.3013 208.997 38.768C208.997 38.3733 209.109 38.016 209.333 37.696C209.557 37.376 209.84 37.12 210.181 36.928C210.533 36.736 210.896 36.64 211.269 36.64C211.664 36.64 212.026 36.688 212.357 36.784C212.688 36.88 213.024 37.0133 213.365 37.184V38.928H213.141L212.613 38.08C212.432 37.792 212.234 37.584 212.021 37.456C211.808 37.328 211.578 37.264 211.333 37.264C210.97 37.264 210.677 37.3547 210.453 37.536C210.24 37.7173 210.133 37.968 210.133 38.288C210.133 38.6507 210.261 38.928 210.517 39.12C210.784 39.3013 211.168 39.5093 211.669 39.744C211.968 39.8933 212.266 40.0427 212.565 40.192C212.874 40.3413 213.125 40.5547 213.317 40.832C213.52 41.0987 213.621 41.4827 213.621 41.984C213.621 42.4533 213.493 42.8533 213.237 43.184C212.981 43.504 212.666 43.7493 212.293 43.92C211.92 44.08 211.557 44.16 211.205 44.16ZM218.847 44.16C217.812 44.16 216.996 43.8453 216.399 43.216C215.802 42.5867 215.503 41.7547 215.503 40.72C215.503 39.92 215.658 39.216 215.967 38.608C216.287 37.9893 216.703 37.5093 217.215 37.168C217.738 36.816 218.303 36.64 218.911 36.64C219.754 36.64 220.415 36.9333 220.895 37.52C221.386 38.1067 221.631 38.9493 221.631 40.048L221.551 40.128H216.767C216.778 40.6187 216.874 41.0827 217.055 41.52C217.236 41.9467 217.524 42.2933 217.919 42.56C218.324 42.8267 218.863 42.96 219.535 42.96C220.122 42.96 220.81 42.7467 221.599 42.32H221.647V42.48C221.402 42.9387 221.034 43.3333 220.543 43.664C220.063 43.9947 219.498 44.16 218.847 44.16ZM218.655 37.344C218.143 37.344 217.722 37.5253 217.391 37.888C217.071 38.24 216.874 38.7413 216.799 39.392H220.415C220.298 38.6667 220.09 38.144 219.791 37.824C219.503 37.504 219.124 37.344 218.655 37.344ZM223.285 44V43.744L224.293 43.232V38.464L223.333 37.632V37.52L225.317 36.64H225.413L225.557 38H225.621C225.866 37.6053 226.09 37.312 226.293 37.12C226.506 36.9173 226.704 36.7893 226.885 36.736C227.066 36.672 227.248 36.64 227.429 36.64C227.514 36.64 227.61 36.656 227.717 36.688C227.834 36.72 227.93 36.752 228.005 36.784C228.122 36.8373 228.229 36.9013 228.325 36.976C228.432 37.0507 228.485 37.136 228.485 37.232C228.485 37.328 228.464 37.424 228.421 37.52L228.101 38.304H227.989L227.381 38.064C227.264 38.0107 227.146 37.9787 227.029 37.968C226.922 37.9573 226.816 37.952 226.709 37.952C226.261 37.952 225.882 38.1813 225.573 38.64V43.232L226.709 43.744V44H223.285ZM236.957 44.16C235.922 44.16 235.106 43.8453 234.509 43.216C233.911 42.5867 233.613 41.7547 233.613 40.72C233.613 39.92 233.767 39.216 234.077 38.608C234.397 37.9893 234.813 37.5093 235.325 37.168C235.847 36.816 236.413 36.64 237.021 36.64C237.863 36.64 238.525 36.9333 239.005 37.52C239.495 38.1067 239.741 38.9493 239.741 40.048L239.661 40.128H234.877C234.887 40.6187 234.983 41.0827 235.164 41.52C235.346 41.9467 235.634 42.2933 236.029 42.56C236.434 42.8267 236.973 42.96 237.645 42.96C238.231 42.96 238.919 42.7467 239.709 42.32H239.757V42.48C239.511 42.9387 239.143 43.3333 238.653 43.664C238.173 43.9947 237.607 44.16 236.957 44.16ZM236.765 37.344C236.253 37.344 235.831 37.5253 235.501 37.888C235.181 38.24 234.983 38.7413 234.909 39.392H238.525C238.407 38.6667 238.199 38.144 237.901 37.824C237.613 37.504 237.234 37.344 236.765 37.344ZM240.822 44V43.744L241.686 43.184L243.782 40.432L241.654 37.552L240.902 37.056V36.8H244.214V37.056L243.126 37.536V37.632L244.614 39.648L245.91 37.728V37.632L244.998 37.056V36.8H247.654V37.056L246.806 37.616L244.934 40.08L247.27 43.248L247.926 43.744V44H244.822V43.744L245.798 43.264V43.168L244.102 40.88L242.63 43.072V43.168L243.622 43.744V44H240.822ZM249.112 47.68V47.424L250.12 46.912V38.464L249.16 37.632V37.52L251.144 36.64H251.24L251.368 37.616H251.48C251.885 37.2747 252.274 37.0293 252.648 36.88C253.021 36.72 253.426 36.64 253.864 36.64C254.408 36.64 254.888 36.7787 255.304 37.056C255.72 37.3333 256.045 37.728 256.28 38.24C256.525 38.7413 256.648 39.344 256.648 40.048C256.648 40.9227 256.482 41.6693 256.152 42.288C255.832 42.896 255.394 43.36 254.84 43.68C254.285 44 253.677 44.16 253.016 44.16C252.418 44.16 251.88 44.1067 251.4 44V46.912L252.536 47.424V47.68H249.112ZM252.984 37.744C252.728 37.744 252.461 37.7867 252.184 37.872C251.917 37.9467 251.656 38.064 251.4 38.224V42.72C251.72 42.976 252.045 43.152 252.376 43.248C252.706 43.344 253.074 43.392 253.48 43.392C253.992 43.392 254.434 43.1787 254.808 42.752C255.181 42.3147 255.368 41.5893 255.368 40.576C255.368 39.9147 255.261 39.376 255.048 38.96C254.834 38.544 254.546 38.24 254.184 38.048C253.821 37.8453 253.421 37.744 252.984 37.744ZM261.644 44.16C260.609 44.16 259.793 43.8453 259.196 43.216C258.599 42.5867 258.3 41.7547 258.3 40.72C258.3 39.92 258.455 39.216 258.764 38.608C259.084 37.9893 259.5 37.5093 260.012 37.168C260.535 36.816 261.1 36.64 261.708 36.64C262.551 36.64 263.212 36.9333 263.692 37.52C264.183 38.1067 264.428 38.9493 264.428 40.048L264.348 40.128H259.564C259.575 40.6187 259.671 41.0827 259.852 41.52C260.033 41.9467 260.321 42.2933 260.716 42.56C261.121 42.8267 261.66 42.96 262.332 42.96C262.919 42.96 263.607 42.7467 264.396 42.32H264.444V42.48C264.199 42.9387 263.831 43.3333 263.34 43.664C262.86 43.9947 262.295 44.16 261.644 44.16ZM261.452 37.344C260.94 37.344 260.519 37.5253 260.188 37.888C259.868 38.24 259.671 38.7413 259.596 39.392H263.212C263.095 38.6667 262.887 38.144 262.588 37.824C262.3 37.504 261.921 37.344 261.452 37.344ZM266.082 44V43.744L267.09 43.232V38.464L266.13 37.632V37.52L268.114 36.64H268.21L268.354 38H268.418C268.663 37.6053 268.887 37.312 269.09 37.12C269.303 36.9173 269.501 36.7893 269.682 36.736C269.863 36.672 270.045 36.64 270.226 36.64C270.311 36.64 270.407 36.656 270.514 36.688C270.631 36.72 270.727 36.752 270.802 36.784C270.919 36.8373 271.026 36.9013 271.122 36.976C271.229 37.0507 271.282 37.136 271.282 37.232C271.282 37.328 271.261 37.424 271.218 37.52L270.898 38.304H270.786L270.178 38.064C270.061 38.0107 269.943 37.9787 269.826 37.968C269.719 37.9573 269.613 37.952 269.506 37.952C269.058 37.952 268.679 38.1813 268.37 38.64V43.232L269.506 43.744V44H266.082ZM274.073 34.704C273.796 34.704 273.567 34.6133 273.385 34.432C273.204 34.24 273.113 34.0107 273.113 33.744C273.113 33.4667 273.204 33.2373 273.385 33.056C273.567 32.8747 273.796 32.784 274.073 32.784C274.351 32.784 274.58 32.8747 274.761 33.056C274.943 33.2373 275.033 33.4667 275.033 33.744C275.033 34.0107 274.943 34.24 274.761 34.432C274.58 34.6133 274.351 34.704 274.073 34.704ZM272.473 44V43.744L273.481 43.232V38.464L272.521 37.632V37.52L274.665 36.64H274.761V43.232L275.769 43.744V44H272.473ZM280.769 44.16C279.734 44.16 278.918 43.8453 278.321 43.216C277.724 42.5867 277.425 41.7547 277.425 40.72C277.425 39.92 277.58 39.216 277.889 38.608C278.209 37.9893 278.625 37.5093 279.137 37.168C279.66 36.816 280.225 36.64 280.833 36.64C281.676 36.64 282.337 36.9333 282.817 37.52C283.308 38.1067 283.553 38.9493 283.553 40.048L283.473 40.128H278.689C278.7 40.6187 278.796 41.0827 278.977 41.52C279.158 41.9467 279.446 42.2933 279.841 42.56C280.246 42.8267 280.785 42.96 281.457 42.96C282.044 42.96 282.732 42.7467 283.521 42.32H283.569V42.48C283.324 42.9387 282.956 43.3333 282.465 43.664C281.985 43.9947 281.42 44.16 280.769 44.16ZM280.577 37.344C280.065 37.344 279.644 37.5253 279.313 37.888C278.993 38.24 278.796 38.7413 278.721 39.392H282.337C282.22 38.6667 282.012 38.144 281.713 37.824C281.425 37.504 281.046 37.344 280.577 37.344ZM285.143 44V43.744L286.151 43.232V38.464L285.191 37.632V37.52L287.175 36.64H287.271L287.415 37.824H287.495C287.9 37.4187 288.29 37.12 288.663 36.928C289.047 36.736 289.468 36.64 289.927 36.64C290.556 36.64 291.068 36.8 291.463 37.12C291.868 37.4293 292.071 37.8933 292.071 38.512V43.232L293.079 43.744V44H289.655V43.744L290.791 43.232V39.264C290.791 38.7947 290.642 38.4373 290.343 38.192C290.055 37.9467 289.676 37.824 289.207 37.824C288.919 37.824 288.599 37.872 288.247 37.968C287.906 38.064 287.634 38.2027 287.431 38.384V43.232L288.567 43.744V44H285.143ZM297.832 44.16C296.797 44.16 295.981 43.8453 295.384 43.216C294.786 42.5867 294.488 41.7547 294.488 40.72C294.488 39.92 294.648 39.216 294.968 38.608C295.298 37.9893 295.741 37.5093 296.296 37.168C296.85 36.816 297.474 36.64 298.168 36.64C298.594 36.64 299.01 36.7147 299.416 36.864C299.821 37.0027 300.13 37.1893 300.344 37.424C300.514 37.6267 300.6 37.7867 300.6 37.904C300.6 38.0533 300.53 38.1813 300.392 38.288L299.784 38.8H299.672L299.128 38.064C298.968 37.8507 298.765 37.68 298.52 37.552C298.285 37.4133 297.992 37.344 297.64 37.344C297.053 37.344 296.589 37.5787 296.248 38.048C295.917 38.5067 295.752 39.152 295.752 39.984C295.752 40.496 295.837 40.9813 296.008 41.44C296.178 41.888 296.461 42.256 296.856 42.544C297.261 42.8213 297.816 42.96 298.52 42.96C299.106 42.96 299.794 42.7467 300.584 42.32H300.632V42.48C300.386 42.9387 300.018 43.3333 299.528 43.664C299.048 43.9947 298.482 44.16 297.832 44.16ZM305.488 44.16C304.453 44.16 303.637 43.8453 303.04 43.216C302.442 42.5867 302.144 41.7547 302.144 40.72C302.144 39.92 302.298 39.216 302.608 38.608C302.928 37.9893 303.344 37.5093 303.856 37.168C304.378 36.816 304.944 36.64 305.552 36.64C306.394 36.64 307.056 36.9333 307.536 37.52C308.026 38.1067 308.272 38.9493 308.272 40.048L308.192 40.128H303.408C303.418 40.6187 303.514 41.0827 303.696 41.52C303.877 41.9467 304.165 42.2933 304.56 42.56C304.965 42.8267 305.504 42.96 306.176 42.96C306.762 42.96 307.45 42.7467 308.24 42.32H308.288V42.48C308.042 42.9387 307.674 43.3333 307.184 43.664C306.704 43.9947 306.138 44.16 305.488 44.16ZM305.296 37.344C304.784 37.344 304.362 37.5253 304.032 37.888C303.712 38.24 303.514 38.7413 303.44 39.392H307.056C306.938 38.6667 306.73 38.144 306.432 37.824C306.144 37.504 305.765 37.344 305.296 37.344ZM313.958 44V43.744L314.966 43.232V37.552H313.718V36.8H314.966V36.16C314.966 35.9467 315.019 35.6693 315.126 35.328C315.232 34.9867 315.387 34.6293 315.59 34.256C315.803 33.872 316.059 33.5093 316.358 33.168C316.656 32.8267 316.992 32.5493 317.366 32.336C317.75 32.112 318.171 32 318.63 32C318.726 32 318.827 32.016 318.934 32.048C319.04 32.08 319.131 32.112 319.206 32.144C319.366 32.2187 319.483 32.288 319.558 32.352C319.643 32.416 319.686 32.496 319.686 32.592C319.686 32.688 319.664 32.784 319.622 32.88L319.302 33.664H319.19L318.758 33.488C318.459 33.3707 318.112 33.312 317.718 33.312C317.131 33.312 316.736 33.4987 316.534 33.872C316.342 34.2347 316.246 34.784 316.246 35.52V36.8H318.358V37.552H316.246V43.264L317.382 43.744V44H313.958ZM322.883 44.16C322.179 44.16 321.56 43.9947 321.027 43.664C320.504 43.3333 320.093 42.8853 319.795 42.32C319.507 41.7547 319.363 41.1147 319.363 40.4C319.363 39.6853 319.507 39.0453 319.795 38.48C320.093 37.9147 320.504 37.4667 321.027 37.136C321.56 36.8053 322.179 36.64 322.883 36.64C323.587 36.64 324.2 36.8053 324.723 37.136C325.256 37.4667 325.667 37.9147 325.955 38.48C326.253 39.0453 326.403 39.6853 326.403 40.4C326.403 41.1147 326.253 41.7547 325.955 42.32C325.667 42.8853 325.256 43.3333 324.723 43.664C324.2 43.9947 323.587 44.16 322.883 44.16ZM323.107 43.472C323.533 43.472 323.885 43.3387 324.163 43.072C324.44 42.8053 324.643 42.464 324.771 42.048C324.899 41.6213 324.963 41.1787 324.963 40.72C324.963 40.1547 324.883 39.6107 324.723 39.088C324.573 38.5653 324.328 38.1387 323.987 37.808C323.656 37.4773 323.224 37.312 322.691 37.312C322.253 37.312 321.896 37.4453 321.619 37.712C321.341 37.9787 321.133 38.32 320.995 38.736C320.867 39.152 320.803 39.5947 320.803 40.064C320.803 40.6293 320.883 41.1733 321.043 41.696C321.203 42.2187 321.453 42.6453 321.795 42.976C322.136 43.3067 322.573 43.472 323.107 43.472ZM328.035 44V43.744L329.043 43.232V38.464L328.083 37.632V37.52L330.067 36.64H330.163L330.307 38H330.371C330.616 37.6053 330.84 37.312 331.043 37.12C331.256 36.9173 331.454 36.7893 331.635 36.736C331.816 36.672 331.998 36.64 332.179 36.64C332.264 36.64 332.36 36.656 332.467 36.688C332.584 36.72 332.68 36.752 332.755 36.784C332.872 36.8373 332.979 36.9013 333.075 36.976C333.182 37.0507 333.235 37.136 333.235 37.232C333.235 37.328 333.214 37.424 333.171 37.52L332.851 38.304H332.739L332.131 38.064C332.014 38.0107 331.896 37.9787 331.779 37.968C331.672 37.9573 331.566 37.952 331.459 37.952C331.011 37.952 330.632 38.1813 330.323 38.64V43.232L331.459 43.744V44H328.035ZM340.059 44.16C339.557 44.16 339.141 44.016 338.811 43.728C338.48 43.4293 338.315 43.0187 338.315 42.496C338.315 41.9733 338.507 41.52 338.891 41.136C339.285 40.752 339.941 40.4533 340.859 40.24L342.379 39.888V38.72C342.379 38.3573 342.229 38.048 341.931 37.792C341.643 37.5253 341.312 37.392 340.939 37.392C340.533 37.392 340.251 37.504 340.091 37.728C339.931 37.9413 339.851 38.2293 339.851 38.592V39.04L339.771 39.12H338.939C338.779 39.12 338.667 39.0933 338.603 39.04C338.549 38.9867 338.523 38.864 338.523 38.672C338.523 38.4373 338.592 38.1973 338.731 37.952C338.869 37.7067 339.083 37.4933 339.371 37.312C339.669 37.12 339.979 36.96 340.299 36.832C340.629 36.704 340.981 36.64 341.355 36.64C341.728 36.64 342.091 36.6933 342.443 36.8C342.805 36.9067 343.099 37.088 343.323 37.344C343.547 37.5893 343.659 37.936 343.659 38.384V42.928C343.733 43.0027 343.84 43.0667 343.979 43.12C344.117 43.1733 344.309 43.2 344.555 43.2H345.163L345.211 43.232V43.28C345.083 43.5147 344.891 43.7227 344.635 43.904C344.389 44.0747 344.085 44.16 343.723 44.16C343.392 44.16 343.12 44.0747 342.907 43.904C342.704 43.7227 342.56 43.488 342.475 43.2H342.379C342.101 43.4773 341.755 43.7067 341.339 43.888C340.933 44.0693 340.507 44.16 340.059 44.16ZM339.562 42.176C339.562 42.8373 339.963 43.168 340.763 43.168C341.019 43.168 341.269 43.1413 341.515 43.088C341.771 43.0347 342.059 42.9387 342.379 42.8V40.432C341.525 40.592 340.901 40.7627 340.507 40.944C340.112 41.1147 339.856 41.3013 339.739 41.504C339.621 41.7067 339.562 41.9307 339.562 42.176ZM352.991 44.16C352.361 44.16 351.844 44.0053 351.439 43.696C351.044 43.376 350.847 42.9067 350.847 42.288V37.552L349.839 37.056V36.8H352.127V41.536C352.127 42.0053 352.271 42.3627 352.559 42.608C352.857 42.8533 353.241 42.976 353.711 42.976C353.999 42.976 354.313 42.928 354.655 42.832C355.007 42.736 355.284 42.5973 355.487 42.416V37.552L354.351 37.056V36.8H356.767V43.28L357.903 43.744V44H355.487V42.992H355.407C355.001 43.3973 354.607 43.696 354.223 43.888C353.849 44.0693 353.439 44.16 352.991 44.16ZM359.127 44V43.744L360.135 43.232V38.464L359.175 37.632V37.52L361.159 36.64H361.255L361.399 37.824H361.479C361.885 37.4187 362.274 37.12 362.647 36.928C363.031 36.736 363.453 36.64 363.911 36.64C364.541 36.64 365.053 36.8 365.447 37.12C365.853 37.4293 366.055 37.8933 366.055 38.512V43.232L367.063 43.744V44H363.639V43.744L364.775 43.232V39.264C364.775 38.7947 364.626 38.4373 364.327 38.192C364.039 37.9467 363.661 37.824 363.191 37.824C362.903 37.824 362.583 37.872 362.231 37.968C361.89 38.064 361.618 38.2027 361.415 38.384V43.232L362.551 43.744V44H359.127ZM370.058 34.704C369.78 34.704 369.551 34.6133 369.37 34.432C369.188 34.24 369.098 34.0107 369.098 33.744C369.098 33.4667 369.188 33.2373 369.37 33.056C369.551 32.8747 369.78 32.784 370.058 32.784C370.335 32.784 370.564 32.8747 370.746 33.056C370.927 33.2373 371.018 33.4667 371.018 33.744C371.018 34.0107 370.927 34.24 370.746 34.432C370.564 34.6133 370.335 34.704 370.058 34.704ZM368.458 44V43.744L369.466 43.232V38.464L368.506 37.632V37.52L370.65 36.64H370.746V43.232L371.754 43.744V44H368.458ZM376.241 44L373.313 37.552L372.241 37.056V36.8H376.065V37.056L374.753 37.536V37.632L376.801 42.096H376.865L378.673 37.728V37.632L377.521 37.056V36.8H380.657V37.056L379.473 37.616L376.577 44H376.241ZM384.441 44.16C383.406 44.16 382.59 43.8453 381.993 43.216C381.396 42.5867 381.097 41.7547 381.097 40.72C381.097 39.92 381.252 39.216 381.561 38.608C381.881 37.9893 382.297 37.5093 382.809 37.168C383.332 36.816 383.897 36.64 384.505 36.64C385.348 36.64 386.009 36.9333 386.489 37.52C386.98 38.1067 387.225 38.9493 387.225 40.048L387.145 40.128H382.361C382.372 40.6187 382.468 41.0827 382.649 41.52C382.83 41.9467 383.118 42.2933 383.513 42.56C383.918 42.8267 384.457 42.96 385.129 42.96C385.716 42.96 386.404 42.7467 387.193 42.32H387.241V42.48C386.996 42.9387 386.628 43.3333 386.137 43.664C385.657 43.9947 385.092 44.16 384.441 44.16ZM384.249 37.344C383.737 37.344 383.316 37.5253 382.985 37.888C382.665 38.24 382.468 38.7413 382.393 39.392H386.009C385.892 38.6667 385.684 38.144 385.385 37.824C385.097 37.504 384.718 37.344 384.249 37.344ZM388.879 44V43.744L389.887 43.232V38.464L388.927 37.632V37.52L390.911 36.64H391.007L391.151 38H391.215C391.46 37.6053 391.684 37.312 391.887 37.12C392.1 36.9173 392.298 36.7893 392.479 36.736C392.66 36.672 392.842 36.64 393.023 36.64C393.108 36.64 393.204 36.656 393.311 36.688C393.428 36.72 393.524 36.752 393.599 36.784C393.716 36.8373 393.823 36.9013 393.919 36.976C394.026 37.0507 394.079 37.136 394.079 37.232C394.079 37.328 394.058 37.424 394.015 37.52L393.695 38.304H393.583L392.975 38.064C392.858 38.0107 392.74 37.9787 392.623 37.968C392.516 37.9573 392.41 37.952 392.303 37.952C391.855 37.952 391.476 38.1813 391.167 38.64V43.232L392.303 43.744V44H388.879ZM397.814 44.16C397.313 44.16 396.881 44.1173 396.518 44.032C396.156 43.9467 395.788 43.808 395.414 43.616V41.824H395.638L396.15 42.704C396.481 43.2907 397.02 43.584 397.766 43.584C398.193 43.584 398.524 43.4827 398.758 43.28C399.004 43.0773 399.126 42.8 399.126 42.448C399.126 42.1387 399.052 41.8987 398.902 41.728C398.753 41.5573 398.54 41.408 398.262 41.28C397.996 41.1413 397.676 40.9867 397.302 40.816C396.758 40.5707 396.337 40.304 396.038 40.016C395.75 39.7173 395.606 39.3013 395.606 38.768C395.606 38.3733 395.718 38.016 395.942 37.696C396.166 37.376 396.449 37.12 396.79 36.928C397.142 36.736 397.505 36.64 397.878 36.64C398.273 36.64 398.636 36.688 398.966 36.784C399.297 36.88 399.633 37.0133 399.974 37.184V38.928H399.75L399.222 38.08C399.041 37.792 398.844 37.584 398.63 37.456C398.417 37.328 398.188 37.264 397.942 37.264C397.58 37.264 397.286 37.3547 397.062 37.536C396.849 37.7173 396.742 37.968 396.742 38.288C396.742 38.6507 396.87 38.928 397.126 39.12C397.393 39.3013 397.777 39.5093 398.278 39.744C398.577 39.8933 398.876 40.0427 399.174 40.192C399.484 40.3413 399.734 40.5547 399.926 40.832C400.129 41.0987 400.23 41.4827 400.23 41.984C400.23 42.4533 400.102 42.8533 399.846 43.184C399.59 43.504 399.276 43.7493 398.902 43.92C398.529 44.08 398.166 44.16 397.814 44.16ZM403.777 34.704C403.499 34.704 403.27 34.6133 403.089 34.432C402.907 34.24 402.817 34.0107 402.817 33.744C402.817 33.4667 402.907 33.2373 403.089 33.056C403.27 32.8747 403.499 32.784 403.777 32.784C404.054 32.784 404.283 32.8747 404.465 33.056C404.646 33.2373 404.737 33.4667 404.737 33.744C404.737 34.0107 404.646 34.24 404.465 34.432C404.283 34.6133 404.054 34.704 403.777 34.704ZM402.177 44V43.744L403.185 43.232V38.464L402.225 37.632V37.52L404.369 36.64H404.465V43.232L405.473 43.744V44H402.177ZM409.656 44.16C409.187 44.16 408.781 44.0213 408.44 43.744C408.099 43.4667 407.928 43.0773 407.928 42.576V37.552H406.616V37.456L407.976 36.8L409.112 35.04H409.208V36.8H411.32V37.552H409.208V42.304C409.208 42.5813 409.331 42.784 409.576 42.912C409.821 43.04 410.109 43.104 410.44 43.104C410.643 43.104 410.829 43.0933 411 43.072C411.181 43.0507 411.336 43.024 411.464 42.992H411.512V43.152C411.405 43.3973 411.192 43.6267 410.872 43.84C410.563 44.0533 410.157 44.16 409.656 44.16ZM413.312 47.856C413.067 47.856 412.912 47.8187 412.848 47.744C412.795 47.68 412.768 47.5627 412.768 47.392V46.592L412.832 46.528H413.568C413.835 46.528 414.038 46.5013 414.176 46.448C414.315 46.4053 414.443 46.2827 414.56 46.08C414.678 45.888 414.843 45.568 415.056 45.12L415.616 43.872L412.688 37.552L411.616 37.056V36.8H415.44V37.056L414.128 37.552V37.632L416.256 42.272H416.304L418.096 37.728V37.632L416.896 37.056V36.8H420.032V37.056L418.832 37.6L415.68 45.264C415.584 45.5093 415.499 45.712 415.424 45.872C415.36 46.0427 415.286 46.2027 415.2 46.352C415.115 46.512 414.992 46.704 414.832 46.928C414.619 47.2373 414.379 47.4667 414.112 47.616C413.846 47.776 413.579 47.856 413.312 47.856ZM423.672 45.92L426.872 32H427.672L424.472 45.92H423.672Z" fill="white"/>
<path d="M435.16 44.16C434.627 44.16 434.147 44.0267 433.72 43.76C433.304 43.4933 432.973 43.12 432.728 42.64C432.493 42.1493 432.376 41.568 432.376 40.896C432.376 39.9893 432.552 39.2213 432.904 38.592C433.256 37.952 433.725 37.4667 434.312 37.136C434.899 36.8053 435.539 36.64 436.232 36.64C436.531 36.64 436.792 36.656 437.016 36.688C437.24 36.7093 437.443 36.7413 437.624 36.784V33.824L436.584 32.992V32.88L438.808 32H438.904V43.28L440.04 43.744V44H437.784L437.656 43.184H437.544C437.139 43.5253 436.744 43.776 436.36 43.936C435.987 44.0853 435.587 44.16 435.16 44.16ZM433.656 40.528C433.656 41.4133 433.891 42.0587 434.36 42.464C434.829 42.8587 435.389 43.056 436.04 43.056C436.296 43.056 436.557 43.0187 436.824 42.944C437.101 42.8587 437.368 42.736 437.624 42.576V38.096C437.368 37.872 437.112 37.7067 436.856 37.6C436.611 37.4827 436.333 37.424 436.024 37.424C435.597 37.424 435.203 37.5307 434.84 37.744C434.488 37.9467 434.2 38.2773 433.976 38.736C433.763 39.184 433.656 39.7813 433.656 40.528ZM444.929 44.16C444.225 44.16 443.607 43.9947 443.073 43.664C442.551 43.3333 442.14 42.8853 441.841 42.32C441.553 41.7547 441.409 41.1147 441.409 40.4C441.409 39.6853 441.553 39.0453 441.841 38.48C442.14 37.9147 442.551 37.4667 443.073 37.136C443.607 36.8053 444.225 36.64 444.929 36.64C445.633 36.64 446.247 36.8053 446.769 37.136C447.303 37.4667 447.713 37.9147 448.001 38.48C448.3 39.0453 448.449 39.6853 448.449 40.4C448.449 41.1147 448.3 41.7547 448.001 42.32C447.713 42.8853 447.303 43.3333 446.769 43.664C446.247 43.9947 445.633 44.16 444.929 44.16ZM445.153 43.472C445.58 43.472 445.932 43.3387 446.209 43.072C446.487 42.8053 446.689 42.464 446.817 42.048C446.945 41.6213 447.009 41.1787 447.009 40.72C447.009 40.1547 446.929 39.6107 446.769 39.088C446.62 38.5653 446.375 38.1387 446.033 37.808C445.703 37.4773 445.271 37.312 444.737 37.312C444.3 37.312 443.943 37.4453 443.665 37.712C443.388 37.9787 443.18 38.32 443.041 38.736C442.913 39.152 442.849 39.5947 442.849 40.064C442.849 40.6293 442.929 41.1733 443.089 41.696C443.249 42.2187 443.5 42.6453 443.841 42.976C444.183 43.3067 444.62 43.472 445.153 43.472ZM452.466 44L449.954 37.552L448.882 37.056V36.8H452.706V37.056L451.394 37.536V37.632L453.058 42.064H453.122L455.394 36.8H455.73L458.002 42.016H458.066L459.682 37.728V37.632L458.53 37.056V36.8H461.666V37.056L460.482 37.616L457.81 44H457.474L455.17 38.784L452.802 44H452.466ZM462.065 44V43.744L463.073 43.232V38.464L462.113 37.632V37.52L464.097 36.64H464.193L464.337 37.824H464.417C464.822 37.4187 465.212 37.12 465.585 36.928C465.969 36.736 466.39 36.64 466.849 36.64C467.478 36.64 467.99 36.8 468.385 37.12C468.79 37.4293 468.993 37.8933 468.993 38.512V43.232L470.001 43.744V44H466.577V43.744L467.713 43.232V39.264C467.713 38.7947 467.564 38.4373 467.265 38.192C466.977 37.9467 466.598 37.824 466.129 37.824C465.841 37.824 465.521 37.872 465.169 37.968C464.828 38.064 464.556 38.2027 464.353 38.384V43.232L465.489 43.744V44H462.065ZM471.313 44V43.744L472.321 43.232V33.824L471.361 32.992V32.88L473.505 32H473.601V43.232L474.609 43.744V44H471.313ZM479.633 44.16C478.929 44.16 478.31 43.9947 477.777 43.664C477.254 43.3333 476.843 42.8853 476.545 42.32C476.257 41.7547 476.113 41.1147 476.113 40.4C476.113 39.6853 476.257 39.0453 476.545 38.48C476.843 37.9147 477.254 37.4667 477.777 37.136C478.31 36.8053 478.929 36.64 479.633 36.64C480.337 36.64 480.95 36.8053 481.473 37.136C482.006 37.4667 482.417 37.9147 482.705 38.48C483.003 39.0453 483.153 39.6853 483.153 40.4C483.153 41.1147 483.003 41.7547 482.705 42.32C482.417 42.8853 482.006 43.3333 481.473 43.664C480.95 43.9947 480.337 44.16 479.633 44.16ZM479.857 43.472C480.283 43.472 480.635 43.3387 480.913 43.072C481.19 42.8053 481.393 42.464 481.521 42.048C481.649 41.6213 481.713 41.1787 481.713 40.72C481.713 40.1547 481.633 39.6107 481.473 39.088C481.323 38.5653 481.078 38.1387 480.737 37.808C480.406 37.4773 479.974 37.312 479.441 37.312C479.003 37.312 478.646 37.4453 478.369 37.712C478.091 37.9787 477.883 38.32 477.745 38.736C477.617 39.152 477.553 39.5947 477.553 40.064C477.553 40.6293 477.633 41.1733 477.793 41.696C477.953 42.2187 478.203 42.6453 478.545 42.976C478.886 43.3067 479.323 43.472 479.857 43.472ZM486.527 44.16C486.026 44.16 485.61 44.016 485.279 43.728C484.949 43.4293 484.783 43.0187 484.783 42.496C484.783 41.9733 484.975 41.52 485.359 41.136C485.754 40.752 486.41 40.4533 487.327 40.24L488.847 39.888V38.72C488.847 38.3573 488.698 38.048 488.399 37.792C488.111 37.5253 487.781 37.392 487.407 37.392C487.002 37.392 486.719 37.504 486.559 37.728C486.399 37.9413 486.319 38.2293 486.319 38.592V39.04L486.239 39.12H485.407C485.247 39.12 485.135 39.0933 485.071 39.04C485.018 38.9867 484.991 38.864 484.991 38.672C484.991 38.4373 485.061 38.1973 485.199 37.952C485.338 37.7067 485.551 37.4933 485.839 37.312C486.138 37.12 486.447 36.96 486.767 36.832C487.098 36.704 487.45 36.64 487.823 36.64C488.197 36.64 488.559 36.6933 488.911 36.8C489.274 36.9067 489.567 37.088 489.791 37.344C490.015 37.5893 490.127 37.936 490.127 38.384V42.928C490.202 43.0027 490.309 43.0667 490.447 43.12C490.586 43.1733 490.778 43.2 491.023 43.2H491.631L491.679 43.232V43.28C491.551 43.5147 491.359 43.7227 491.103 43.904C490.858 44.0747 490.554 44.16 490.191 44.16C489.861 44.16 489.589 44.0747 489.375 43.904C489.173 43.7227 489.029 43.488 488.943 43.2H488.847C488.57 43.4773 488.223 43.7067 487.807 43.888C487.402 44.0693 486.975 44.16 486.527 44.16ZM486.031 42.176C486.031 42.8373 486.431 43.168 487.231 43.168C487.487 43.168 487.738 43.1413 487.983 43.088C488.239 43.0347 488.527 42.9387 488.847 42.8V40.432C487.994 40.592 487.37 40.7627 486.975 40.944C486.581 41.1147 486.325 41.3013 486.207 41.504C486.09 41.7067 486.031 41.9307 486.031 42.176ZM495.347 44.16C494.814 44.16 494.334 44.0267 493.907 43.76C493.491 43.4933 493.161 43.12 492.915 42.64C492.681 42.1493 492.563 41.568 492.563 40.896C492.563 39.9893 492.739 39.2213 493.091 38.592C493.443 37.952 493.913 37.4667 494.499 37.136C495.086 36.8053 495.726 36.64 496.419 36.64C496.718 36.64 496.979 36.656 497.203 36.688C497.427 36.7093 497.63 36.7413 497.811 36.784V33.824L496.771 32.992V32.88L498.995 32H499.091V43.28L500.227 43.744V44H497.971L497.843 43.184H497.731C497.326 43.5253 496.931 43.776 496.547 43.936C496.174 44.0853 495.774 44.16 495.347 44.16ZM493.843 40.528C493.843 41.4133 494.078 42.0587 494.547 42.464C495.017 42.8587 495.577 43.056 496.227 43.056C496.483 43.056 496.745 43.0187 497.011 42.944C497.289 42.8587 497.555 42.736 497.811 42.576V38.096C497.555 37.872 497.299 37.7067 497.043 37.6C496.798 37.4827 496.521 37.424 496.211 37.424C495.785 37.424 495.39 37.5307 495.027 37.744C494.675 37.9467 494.387 38.2773 494.163 38.736C493.95 39.184 493.843 39.7813 493.843 40.528Z" fill="#F4B400"/>
<g clip-path="url(#clip1_444_160)">
<path d="M126 33.6666L125.06 34.6066L128.78 38.3333H120.667V39.6666H128.78L125.053 43.3866L126 44.3333L131.333 38.9999L126 33.6666Z" fill="white"/>
</g>
<path d="M407.5 257C403.358 257 400 260.358 400 264.5V359.5C400 363.642 403.358 367 407.5 367H472.5C476.642 367 480 363.642 480 359.5V287L450 257H407.5Z" fill="#F4B70A"/>
<path d="M407.5 367C403.358 367 400 363.642 400 359.5V358.25C400 362.392 403.358 365.75 407.5 365.75H472.5C476.642 365.75 480 362.392 480 358.25V359.5C480 363.642 476.642 367 472.5 367H407.5Z" fill="#EFA904"/>
<path d="M407.5 257C403.358 257 400 260.358 400 264.5V265.75C400 261.608 403.358 258.25 407.5 258.25H451.25L450 257H407.5Z" fill="#F6C028"/>
<path d="M480 312.625V287L475.625 282.625H454.527C452.856 282.625 452.02 284.645 453.201 285.826L480 312.625Z" fill="url(#paint0_linear_444_160)"/>
<path d="M450 257L480 287H457.5C453.358 287 450 283.642 450 279.5V257Z" fill="#FADC87"/>
<path fill-rule="evenodd" clip-rule="evenodd" d="M422.5 307C421.119 307 420 308.119 420 309.5V344.5C420 345.881 421.119 347 422.5 347H457.5C458.881 347 460 345.881 460 344.5V309.5C460 308.119 458.881 307 457.5 307H422.5ZM455 318.25H425V335.75H455V318.25Z" fill="white"/>
<path d="M404.38 391.8V381.12H406.456V381.372H405.004V391.548H406.456V391.8H404.38ZM409.244 390.12C408.772 390.12 408.38 389.992 408.068 389.736C407.764 389.48 407.612 389.108 407.612 388.62V385.092L406.82 384.792V384.6H408.428V388.152C408.428 388.56 408.544 388.872 408.776 389.088C409.008 389.296 409.312 389.4 409.688 389.4C409.912 389.4 410.152 389.356 410.408 389.268C410.672 389.18 410.884 389.048 411.044 388.872V385.092L410.144 384.792V384.6H411.86V389.52L412.712 389.808V390H411.044V389.256H410.996C410.692 389.56 410.404 389.78 410.132 389.916C409.86 390.052 409.564 390.12 409.244 390.12ZM416.191 390.12C415.655 390.12 415.199 390.008 414.823 389.784C414.447 389.56 414.159 389.252 413.959 388.86C413.759 388.46 413.659 388 413.659 387.48C413.659 386.904 413.775 386.392 414.007 385.944C414.247 385.488 414.571 385.132 414.979 384.876C415.395 384.612 415.863 384.48 416.383 384.48C416.703 384.48 417.003 384.532 417.283 384.636C417.571 384.732 417.791 384.852 417.943 384.996C418.031 385.084 418.095 385.16 418.135 385.224C418.183 385.288 418.207 385.348 418.207 385.404C418.207 385.492 418.167 385.568 418.087 385.632L417.679 385.968H417.607L417.307 385.56C417.163 385.368 416.995 385.212 416.803 385.092C416.611 384.964 416.375 384.9 416.095 384.9C415.607 384.9 415.211 385.092 414.907 385.476C414.611 385.852 414.463 386.392 414.463 387.096C414.463 387.512 414.535 387.896 414.679 388.248C414.823 388.592 415.047 388.868 415.351 389.076C415.663 389.276 416.067 389.376 416.563 389.376C417.155 389.376 417.699 389.2 418.195 388.848H418.231V388.98C418.047 389.3 417.779 389.572 417.427 389.796C417.075 390.012 416.663 390.12 416.191 390.12ZM419.462 390V389.808L420.218 389.508V385.104H419.234V384.6H420.218V384.12C420.218 383.92 420.254 383.688 420.326 383.424C420.406 383.152 420.518 382.876 420.662 382.596C420.814 382.316 420.998 382.056 421.214 381.816C421.43 381.576 421.678 381.38 421.958 381.228C422.238 381.076 422.55 381 422.894 381C422.958 381 423.022 381.012 423.086 381.036C423.158 381.052 423.214 381.068 423.254 381.084C423.446 381.164 423.542 381.256 423.542 381.36C423.542 381.384 423.538 381.416 423.53 381.456C423.53 381.488 423.522 381.52 423.506 381.552L423.314 382.032H423.254L422.954 381.924C422.722 381.836 422.47 381.792 422.198 381.792C421.774 381.792 421.474 381.944 421.298 382.248C421.122 382.544 421.034 383.008 421.034 383.64V384.6H422.618V385.104H421.034V389.52L421.91 389.808V390H419.462ZM423.99 390.06C423.814 390.06 423.662 389.996 423.534 389.868C423.406 389.732 423.342 389.576 423.342 389.4C423.342 389.224 423.406 389.072 423.534 388.944C423.662 388.816 423.814 388.752 423.99 388.752C424.166 388.752 424.318 388.816 424.446 388.944C424.582 389.072 424.65 389.224 424.65 389.4C424.65 389.576 424.582 389.732 424.446 389.868C424.318 389.996 424.166 390.06 423.99 390.06ZM426.046 392.76V392.568L426.802 392.268V385.524L426.022 385.116V384.984L427.426 384.48H427.522L427.594 385.212H427.666C427.97 384.956 428.262 384.772 428.542 384.66C428.83 384.54 429.138 384.48 429.466 384.48C429.866 384.48 430.222 384.584 430.534 384.792C430.846 385 431.09 385.296 431.266 385.68C431.45 386.056 431.542 386.508 431.542 387.036C431.542 387.692 431.418 388.252 431.17 388.716C430.922 389.172 430.59 389.52 430.174 389.76C429.758 390 429.298 390.12 428.794 390.12C428.578 390.12 428.37 390.1 428.17 390.06C427.978 390.028 427.794 389.984 427.618 389.928V392.268L428.47 392.568V392.76H426.046ZM428.938 385.14C428.458 385.14 428.018 385.292 427.618 385.596V389.148C427.858 389.332 428.102 389.464 428.35 389.544C428.598 389.616 428.87 389.652 429.166 389.652C429.454 389.652 429.718 389.576 429.958 389.424C430.198 389.272 430.39 389.028 430.534 388.692C430.678 388.348 430.75 387.9 430.75 387.348C430.75 386.836 430.666 386.42 430.498 386.1C430.33 385.772 430.106 385.532 429.826 385.38C429.554 385.22 429.258 385.14 428.938 385.14ZM434.87 390.12C434.47 390.12 434.114 390.02 433.802 389.82C433.49 389.62 433.242 389.332 433.058 388.956C432.882 388.58 432.794 388.136 432.794 387.624C432.794 386.952 432.922 386.384 433.178 385.92C433.442 385.448 433.79 385.092 434.222 384.852C434.662 384.604 435.138 384.48 435.65 384.48C435.858 384.48 436.05 384.496 436.226 384.528C436.402 384.56 436.566 384.604 436.718 384.66V382.044L435.902 381.576V381.456L437.438 381H437.534V389.52L438.386 389.808V390H436.838L436.73 389.388H436.67C436.374 389.636 436.082 389.82 435.794 389.94C435.506 390.06 435.198 390.12 434.87 390.12ZM433.586 387.384C433.586 387.864 433.67 388.256 433.838 388.56C434.006 388.864 434.226 389.092 434.498 389.244C434.778 389.388 435.078 389.46 435.398 389.46C435.622 389.46 435.846 389.424 436.07 389.352C436.302 389.272 436.518 389.156 436.718 389.004V385.428C436.502 385.276 436.29 385.16 436.082 385.08C435.874 385 435.642 384.96 435.386 384.96C435.066 384.96 434.766 385.04 434.486 385.2C434.214 385.36 433.994 385.62 433.826 385.98C433.666 386.332 433.586 386.8 433.586 387.384ZM439.571 390V389.808L440.327 389.508V385.104H439.343V384.6H440.327V384.12C440.327 383.92 440.363 383.688 440.435 383.424C440.515 383.152 440.627 382.876 440.771 382.596C440.923 382.316 441.107 382.056 441.323 381.816C441.539 381.576 441.787 381.38 442.067 381.228C442.347 381.076 442.659 381 443.003 381C443.067 381 443.131 381.012 443.195 381.036C443.267 381.052 443.323 381.068 443.363 381.084C443.555 381.164 443.651 381.256 443.651 381.36C443.651 381.384 443.647 381.416 443.639 381.456C443.639 381.488 443.631 381.52 443.615 381.552L443.423 382.032H443.363L443.063 381.924C442.831 381.836 442.579 381.792 442.307 381.792C441.883 381.792 441.583 381.944 441.407 382.248C441.231 382.544 441.143 383.008 441.143 383.64V384.6H442.727V385.104H441.143V389.52L442.019 389.808V390H439.571ZM443.298 392.388V392.148C443.946 391.804 444.27 391.376 444.27 390.864C444.27 390.64 444.214 390.456 444.102 390.312C443.998 390.168 443.858 390.044 443.682 389.94L443.31 389.712L443.286 389.616L443.562 389.148C443.658 388.98 443.754 388.896 443.85 388.896C443.938 388.896 444.034 388.928 444.138 388.992C444.378 389.128 444.558 389.32 444.678 389.568C444.806 389.816 444.87 390.084 444.87 390.372C444.87 390.756 444.75 391.124 444.51 391.476C444.27 391.836 443.866 392.14 443.298 392.388ZM450.344 390V389.76L451.412 389.4V383.088L449.444 384.144V383.748L452.048 382.08H452.264V389.4L453.212 389.76V390H450.344ZM455.204 390V389.76L456.152 389.4L456.404 382.704L455.372 382.32V382.08H457.448L460.268 388.656L463.124 382.08H465.116V382.32L464.108 382.692L464.312 389.4L465.152 389.76V390H462.512V389.76L463.4 389.412L463.268 383.196L460.292 390.06H459.872L456.956 383.22L456.812 389.412L457.784 389.76V390H455.204ZM466.655 390V389.76L467.603 389.4V382.68L466.655 382.32V382.08H469.343C469.863 382.08 470.335 382.148 470.759 382.284C471.183 382.412 471.519 382.608 471.767 382.872C472.015 383.128 472.139 383.456 472.139 383.856C472.139 384.272 471.999 384.656 471.719 385.008C471.447 385.352 471.055 385.6 470.543 385.752C471.263 385.848 471.823 386.064 472.223 386.4C472.623 386.736 472.823 387.168 472.823 387.696C472.823 388.136 472.683 388.532 472.403 388.884C472.131 389.228 471.759 389.5 471.287 389.7C470.815 389.9 470.275 390 469.667 390H466.655ZM469.211 382.644H468.539V385.632H469.283C469.851 385.632 470.303 385.504 470.639 385.248C470.975 384.992 471.143 384.632 471.143 384.168C471.143 383.664 470.979 383.284 470.651 383.028C470.323 382.772 469.843 382.644 469.211 382.644ZM469.667 386.196H468.539V389.448H469.751C470.383 389.448 470.887 389.296 471.263 388.992C471.639 388.68 471.827 388.288 471.827 387.816C471.827 387.256 471.635 386.848 471.251 386.592C470.875 386.328 470.347 386.196 469.667 386.196ZM473.541 391.8V391.548H474.993V381.372H473.541V381.12H475.617V391.8H473.541Z" fill="white"/>
</g>
<defs>
<linearGradient id="paint0_linear_444_160" x1="466.324" y1="312.625" x2="466.324" y2="282" gradientUnits="userSpaceOnUse">
<stop stop-color="#F4B70A"/>
<stop offset="1" stop-color="#E2930A"/>
</linearGradient>
<clipPath id="clip0_444_160">
<rect width="880" height="624" fill="white"/>
</clipPath>
<clipPath id="clip1_444_160">
<rect width="16" height="16" fill="white" transform="translate(118 47) rotate(-90)"/>
</clipPath>
</defs>
</svg>
