<svg width="400" height="264" viewBox="0 0 400 264" fill="none" xmlns="http://www.w3.org/2000/svg">
<rect width="400" height="264" rx="16" fill="black" fill-opacity="0.5"/>
<path d="M74.2397 88.056C74.2397 87.4213 74.1091 86.8613 73.8477 86.376C73.6051 85.8907 73.2691 85.4893 72.8397 85.172C72.4104 84.8547 71.9157 84.612 71.3557 84.444C70.7957 84.276 70.2077 84.192 69.5917 84.192C69.0504 84.192 68.5371 84.2667 68.0517 84.416C67.5664 84.5467 67.1277 84.7427 66.7357 85.004C66.3624 85.2653 66.0637 85.592 65.8397 85.984C65.6157 86.3573 65.5037 86.796 65.5037 87.3V87.468C65.5037 88.0093 65.6157 88.476 65.8397 88.868C66.0637 89.2413 66.3904 89.568 66.8197 89.848C67.2677 90.1093 67.8184 90.3333 68.4717 90.52C69.1251 90.688 69.8904 90.8373 70.7677 90.968C72.8211 91.2853 74.3331 91.892 75.3037 92.788C76.2744 93.6653 76.7597 94.8507 76.7597 96.344V96.68C76.7597 97.52 76.6104 98.2947 76.3117 99.004C76.0317 99.6947 75.6024 100.292 75.0237 100.796C74.4637 101.3 73.7637 101.692 72.9237 101.972C72.0837 102.252 71.1131 102.392 70.0117 102.392C68.7611 102.392 67.6504 102.215 66.6797 101.86C65.7277 101.487 64.9251 100.983 64.2717 100.348C63.6371 99.6947 63.1517 98.9387 62.8157 98.08C62.4797 97.2027 62.3117 96.2507 62.3117 95.224V94.384H64.6637V95.056C64.6637 96.7733 65.1304 98.0613 66.0637 98.92C67.0157 99.7787 68.3317 100.208 70.0117 100.208C71.4677 100.208 72.5597 99.8907 73.2877 99.256C74.0344 98.6027 74.4077 97.744 74.4077 96.68V96.512C74.4077 95.4853 74.0251 94.7013 73.2597 94.16C72.5131 93.6187 71.2904 93.2267 69.5917 92.984C68.6024 92.8533 67.7064 92.6573 66.9037 92.396C66.1197 92.116 65.4477 91.7613 64.8877 91.332C64.3277 90.884 63.8984 90.352 63.5997 89.736C63.3011 89.12 63.1517 88.392 63.1517 87.552V87.216C63.1517 86.4507 63.3104 85.7507 63.6277 85.116C63.9451 84.4813 64.3837 83.9307 64.9437 83.464C65.5224 82.9973 66.2037 82.6427 66.9877 82.4C67.7904 82.1387 68.6677 82.008 69.6197 82.008C70.7211 82.008 71.7011 82.1667 72.5597 82.484C73.4371 82.8013 74.1744 83.2307 74.7717 83.772C75.3691 84.2947 75.8171 84.92 76.1157 85.648C76.4331 86.3573 76.5917 87.104 76.5917 87.888V89.064H74.2397V88.056ZM91.1883 97.128H82.7883L81.3603 102H78.8403L84.7763 82.4H89.2003L95.1363 102H92.6163L91.1883 97.128ZM86.8203 83.408L83.4323 94.944H90.5443L87.1563 83.408H86.8203ZM110.489 102H108.137V95.448C108.137 94.9627 108.025 94.5893 107.801 94.328C107.577 94.0667 107.185 93.936 106.625 93.936H100.521V102H98.1688V82.4H105.169C106.177 82.4 107.054 82.5493 107.801 82.848C108.547 83.128 109.163 83.5107 109.649 83.996C110.153 84.4813 110.526 85.0507 110.769 85.704C111.03 86.3387 111.161 87.0107 111.161 87.72V88.56C111.161 89.288 110.955 90.016 110.545 90.744C110.153 91.472 109.537 92.032 108.697 92.424V92.76C109.257 92.8533 109.695 93.0773 110.013 93.432C110.33 93.7867 110.489 94.2907 110.489 94.944V102ZM100.521 91.752H104.889C106.214 91.752 107.194 91.472 107.829 90.912C108.482 90.3333 108.809 89.4933 108.809 88.392V87.888C108.809 86.8987 108.482 86.1053 107.829 85.508C107.194 84.892 106.214 84.584 104.889 84.584H100.521V91.752ZM121.837 100.208C122.64 100.208 123.321 100.077 123.881 99.816C124.46 99.536 124.927 99.172 125.281 98.724C125.655 98.2573 125.925 97.7347 126.093 97.156C126.28 96.5587 126.373 95.9333 126.373 95.28V94.944H128.725V95.28C128.725 96.2693 128.576 97.2027 128.277 98.08C127.979 98.9387 127.54 99.6947 126.961 100.348C126.383 100.983 125.664 101.487 124.805 101.86C123.947 102.215 122.957 102.392 121.837 102.392C119.672 102.392 117.983 101.711 116.769 100.348C115.556 98.9853 114.949 96.9973 114.949 94.384V90.016C114.949 87.4773 115.556 85.508 116.769 84.108C117.983 82.708 119.672 82.008 121.837 82.008C122.957 82.008 123.947 82.1947 124.805 82.568C125.664 82.9227 126.383 83.4267 126.961 84.08C127.54 84.7147 127.979 85.4707 128.277 86.348C128.576 87.2067 128.725 88.1307 128.725 89.12V89.456H126.373V89.12C126.355 88.4853 126.252 87.8693 126.065 87.272C125.897 86.6747 125.627 86.152 125.253 85.704C124.899 85.2373 124.441 84.8733 123.881 84.612C123.321 84.332 122.64 84.192 121.837 84.192C120.325 84.192 119.187 84.7427 118.421 85.844C117.675 86.9453 117.301 88.392 117.301 90.184V94.216C117.301 96.1387 117.675 97.6227 118.421 98.668C119.187 99.6947 120.325 100.208 121.837 100.208ZM134.894 93.712H143.294V95.728H134.894V93.712ZM161.082 88.056C161.082 87.4213 160.952 86.8613 160.69 86.376C160.448 85.8907 160.112 85.4893 159.682 85.172C159.253 84.8547 158.758 84.612 158.198 84.444C157.638 84.276 157.05 84.192 156.434 84.192C155.893 84.192 155.38 84.2667 154.894 84.416C154.409 84.5467 153.97 84.7427 153.578 85.004C153.205 85.2653 152.906 85.592 152.682 85.984C152.458 86.3573 152.346 86.796 152.346 87.3V87.468C152.346 88.0093 152.458 88.476 152.682 88.868C152.906 89.2413 153.233 89.568 153.662 89.848C154.11 90.1093 154.661 90.3333 155.314 90.52C155.968 90.688 156.733 90.8373 157.61 90.968C159.664 91.2853 161.176 91.892 162.146 92.788C163.117 93.6653 163.602 94.8507 163.602 96.344V96.68C163.602 97.52 163.453 98.2947 163.154 99.004C162.874 99.6947 162.445 100.292 161.866 100.796C161.306 101.3 160.606 101.692 159.766 101.972C158.926 102.252 157.956 102.392 156.854 102.392C155.604 102.392 154.493 102.215 153.522 101.86C152.57 101.487 151.768 100.983 151.114 100.348C150.48 99.6947 149.994 98.9387 149.658 98.08C149.322 97.2027 149.154 96.2507 149.154 95.224V94.384H151.506V95.056C151.506 96.7733 151.973 98.0613 152.906 98.92C153.858 99.7787 155.174 100.208 156.854 100.208C158.31 100.208 159.402 99.8907 160.13 99.256C160.877 98.6027 161.25 97.744 161.25 96.68V96.512C161.25 95.4853 160.868 94.7013 160.102 94.16C159.356 93.6187 158.133 93.2267 156.434 92.984C155.445 92.8533 154.549 92.6573 153.746 92.396C152.962 92.116 152.29 91.7613 151.73 91.332C151.17 90.884 150.741 90.352 150.442 89.736C150.144 89.12 149.994 88.392 149.994 87.552V87.216C149.994 86.4507 150.153 85.7507 150.47 85.116C150.788 84.4813 151.226 83.9307 151.786 83.464C152.365 82.9973 153.046 82.6427 153.83 82.4C154.633 82.1387 155.51 82.008 156.462 82.008C157.564 82.008 158.544 82.1667 159.402 82.484C160.28 82.8013 161.017 83.2307 161.614 83.772C162.212 84.2947 162.66 84.92 162.958 85.648C163.276 86.3573 163.434 87.104 163.434 87.888V89.064H161.082V88.056ZM167.223 88.112H171.591V82.4H173.775V88.112H179.151V90.128H173.775V99.144C173.775 99.704 174.027 99.984 174.531 99.984H178.479V102H173.747C173.112 102 172.59 101.795 172.179 101.384C171.787 100.973 171.591 100.451 171.591 99.816V90.128H167.223V88.112ZM189.379 83.968C189.379 83.4267 189.566 82.9693 189.939 82.596C190.331 82.204 190.798 82.008 191.339 82.008C191.881 82.008 192.338 82.204 192.711 82.596C193.103 82.9693 193.299 83.4267 193.299 83.968C193.299 84.5093 193.103 84.976 192.711 85.368C192.338 85.7413 191.881 85.928 191.339 85.928C190.798 85.928 190.331 85.7413 189.939 85.368C189.566 84.976 189.379 84.5093 189.379 83.968ZM185.403 99.984H190.275V90.128H185.907V88.112H192.459V99.984H196.995V102H185.403V99.984ZM215.428 97.072C215.279 97.8373 215.017 98.5467 214.644 99.2C214.289 99.8533 213.832 100.423 213.272 100.908C212.712 101.375 212.059 101.739 211.312 102C210.565 102.261 209.735 102.392 208.82 102.392C207.849 102.392 206.925 102.233 206.048 101.916C205.189 101.599 204.433 101.141 203.78 100.544C203.127 99.928 202.604 99.1813 202.212 98.304C201.839 97.4267 201.652 96.4187 201.652 95.28V94.944C201.652 93.824 201.839 92.816 202.212 91.92C202.604 91.024 203.127 90.268 203.78 89.652C204.433 89.036 205.189 88.56 206.048 88.224C206.925 87.888 207.849 87.72 208.82 87.72C209.697 87.72 210.509 87.8507 211.256 88.112C212.003 88.3733 212.656 88.7467 213.216 89.232C213.795 89.6987 214.261 90.2587 214.616 90.912C214.989 91.5653 215.241 92.2747 215.372 93.04L213.188 93.544C213.132 93.0587 212.992 92.592 212.768 92.144C212.563 91.6773 212.273 91.276 211.9 90.94C211.545 90.5853 211.107 90.3053 210.584 90.1C210.061 89.8947 209.455 89.792 208.764 89.792C208.092 89.792 207.457 89.9227 206.86 90.184C206.281 90.4267 205.768 90.7813 205.32 91.248C204.872 91.696 204.517 92.2373 204.256 92.872C204.013 93.5067 203.892 94.1973 203.892 94.944V95.28C203.892 96.064 204.013 96.7733 204.256 97.408C204.517 98.024 204.872 98.5467 205.32 98.976C205.768 99.4053 206.291 99.7413 206.888 99.984C207.485 100.208 208.129 100.32 208.82 100.32C209.511 100.32 210.108 100.217 210.612 100.012C211.135 99.788 211.573 99.508 211.928 99.172C212.301 98.8173 212.591 98.416 212.796 97.968C213.02 97.52 213.169 97.0533 213.244 96.568L215.428 97.072ZM223.389 93.88H223.865L229.157 88.112H231.845V88.28L226.077 94.636V95.14L232.517 101.832V102H229.829L223.921 95.896H223.389V102H221.205V82.4H223.389V93.88ZM238.769 95.728C238.825 97.1093 239.254 98.22 240.057 99.06C240.86 99.9 241.98 100.32 243.417 100.32C244.07 100.32 244.64 100.245 245.125 100.096C245.61 99.9467 246.021 99.7413 246.357 99.48C246.712 99.2187 246.992 98.92 247.197 98.584C247.421 98.2293 247.598 97.856 247.729 97.464L249.801 98.024C249.409 99.312 248.681 100.367 247.617 101.188C246.572 101.991 245.153 102.392 243.361 102.392C242.372 102.392 241.457 102.224 240.617 101.888C239.796 101.533 239.086 101.039 238.489 100.404C237.892 99.7693 237.425 99.0133 237.089 98.136C236.753 97.2587 236.585 96.288 236.585 95.224V94.552C236.585 93.5813 236.753 92.676 237.089 91.836C237.444 90.996 237.929 90.2773 238.545 89.68C239.161 89.064 239.88 88.588 240.701 88.252C241.541 87.8973 242.446 87.72 243.417 87.72C244.556 87.72 245.536 87.9347 246.357 88.364C247.197 88.7747 247.878 89.288 248.401 89.904C248.942 90.52 249.334 91.192 249.577 91.92C249.838 92.648 249.969 93.32 249.969 93.936V95.728H238.769ZM243.417 89.792C242.801 89.792 242.222 89.8947 241.681 90.1C241.158 90.2867 240.692 90.5573 240.281 90.912C239.889 91.2667 239.562 91.6867 239.301 92.172C239.058 92.6387 238.9 93.152 238.825 93.712H247.785C247.748 93.1147 247.598 92.5733 247.337 92.088C247.094 91.6027 246.768 91.192 246.357 90.856C245.965 90.52 245.508 90.2587 244.985 90.072C244.481 89.8853 243.958 89.792 243.417 89.792ZM253.758 88.112H258.798V89.96H259.134C259.488 89.1947 259.992 88.6347 260.646 88.28C261.299 87.9067 262.046 87.72 262.886 87.72C264.286 87.72 265.415 88.1773 266.274 89.092C267.132 90.0067 267.59 91.3413 267.646 93.096L265.35 93.432C265.35 92.144 265.042 91.22 264.426 90.66C263.81 90.0813 263.054 89.792 262.158 89.792C261.579 89.792 261.075 89.904 260.646 90.128C260.235 90.352 259.89 90.66 259.61 91.052C259.33 91.444 259.124 91.9013 258.994 92.424C258.863 92.9467 258.798 93.5067 258.798 94.104V99.984H262.326V102H253.422V99.984H256.614V90.128H253.758V88.112ZM276.082 100.432C276.082 99.8907 276.269 99.4333 276.642 99.06C277.034 98.668 277.501 98.472 278.042 98.472C278.583 98.472 279.041 98.668 279.414 99.06C279.806 99.4333 280.002 99.8907 280.002 100.432C280.002 100.973 279.806 101.44 279.414 101.832C279.041 102.205 278.583 102.392 278.042 102.392C277.501 102.392 277.034 102.205 276.642 101.832C276.269 101.44 276.082 100.973 276.082 100.432ZM276.082 89.68C276.082 89.1387 276.269 88.6813 276.642 88.308C277.034 87.916 277.501 87.72 278.042 87.72C278.583 87.72 279.041 87.916 279.414 88.308C279.806 88.6813 280.002 89.1387 280.002 89.68C280.002 90.2213 279.806 90.688 279.414 91.08C279.041 91.4533 278.583 91.64 278.042 91.64C277.501 91.64 277.034 91.4533 276.642 91.08C276.269 90.688 276.082 90.2213 276.082 89.68ZM316.979 97.128H308.579L307.151 102H304.631L310.567 82.4H314.991L320.927 102H318.407L316.979 97.128ZM312.611 83.408L309.223 94.944H316.335L312.947 83.408H312.611ZM326.2 102H324.016V88.112H326.2V90.464H326.536C327.394 88.6347 328.888 87.72 331.016 87.72C332.621 87.72 333.9 88.224 334.852 89.232C335.804 90.2213 336.28 91.7147 336.28 93.712V102H334.096V94.16C334.096 92.704 333.769 91.612 333.116 90.884C332.462 90.156 331.576 89.792 330.456 89.792C329.13 89.792 328.085 90.2493 327.32 91.164C326.573 92.06 326.2 93.264 326.2 94.776V102ZM76.484 124.968C76.484 124.427 76.6707 123.969 77.044 123.596C77.436 123.204 77.9027 123.008 78.444 123.008C78.9854 123.008 79.4427 123.204 79.816 123.596C80.208 123.969 80.404 124.427 80.404 124.968C80.404 125.509 80.208 125.976 79.816 126.368C79.4427 126.741 78.9854 126.928 78.444 126.928C77.9027 126.928 77.436 126.741 77.044 126.368C76.6707 125.976 76.484 125.509 76.484 124.968ZM72.508 140.984H77.38V131.128H73.012V129.112H79.564V140.984H84.1V143H72.508V140.984ZM91.7246 143H89.5406V129.112H91.7246V131.464H92.0606C92.9192 129.635 94.4126 128.72 96.5406 128.72C98.1459 128.72 99.4246 129.224 100.377 130.232C101.329 131.221 101.805 132.715 101.805 134.712V143H99.6206V135.16C99.6206 133.704 99.2939 132.612 98.6406 131.884C97.9872 131.156 97.1006 130.792 95.9806 130.792C94.6552 130.792 93.6099 131.249 92.8446 132.164C92.0979 133.06 91.7246 134.264 91.7246 135.776V143ZM106.433 129.112H110.801V123.4H112.985V129.112H118.361V131.128H112.985V140.144C112.985 140.704 113.237 140.984 113.741 140.984H117.689V143H112.957C112.322 143 111.8 142.795 111.389 142.384C110.997 141.973 110.801 141.451 110.801 140.816V131.128H106.433V129.112ZM125.874 136.728C125.93 138.109 126.359 139.22 127.162 140.06C127.964 140.9 129.084 141.32 130.522 141.32C131.175 141.32 131.744 141.245 132.23 141.096C132.715 140.947 133.126 140.741 133.462 140.48C133.816 140.219 134.096 139.92 134.302 139.584C134.526 139.229 134.703 138.856 134.834 138.464L136.906 139.024C136.514 140.312 135.786 141.367 134.722 142.188C133.676 142.991 132.258 143.392 130.466 143.392C129.476 143.392 128.562 143.224 127.722 142.888C126.9 142.533 126.191 142.039 125.594 141.404C124.996 140.769 124.53 140.013 124.194 139.136C123.858 138.259 123.69 137.288 123.69 136.224V135.552C123.69 134.581 123.858 133.676 124.194 132.836C124.548 131.996 125.034 131.277 125.65 130.68C126.266 130.064 126.984 129.588 127.806 129.252C128.646 128.897 129.551 128.72 130.522 128.72C131.66 128.72 132.64 128.935 133.462 129.364C134.302 129.775 134.983 130.288 135.506 130.904C136.047 131.52 136.439 132.192 136.682 132.92C136.943 133.648 137.074 134.32 137.074 134.936V136.728H125.874ZM130.522 130.792C129.906 130.792 129.327 130.895 128.786 131.1C128.263 131.287 127.796 131.557 127.386 131.912C126.994 132.267 126.667 132.687 126.406 133.172C126.163 133.639 126.004 134.152 125.93 134.712H134.89C134.852 134.115 134.703 133.573 134.442 133.088C134.199 132.603 133.872 132.192 133.462 131.856C133.07 131.52 132.612 131.259 132.09 131.072C131.586 130.885 131.063 130.792 130.522 130.792ZM140.862 129.112H145.902V130.96H146.238C146.593 130.195 147.097 129.635 147.75 129.28C148.403 128.907 149.15 128.72 149.99 128.72C151.39 128.72 152.519 129.177 153.378 130.092C154.237 131.007 154.694 132.341 154.75 134.096L152.454 134.432C152.454 133.144 152.146 132.22 151.53 131.66C150.914 131.081 150.158 130.792 149.262 130.792C148.683 130.792 148.179 130.904 147.75 131.128C147.339 131.352 146.994 131.66 146.714 132.052C146.434 132.444 146.229 132.901 146.098 133.424C145.967 133.947 145.902 134.507 145.902 135.104V140.984H149.43V143H140.526V140.984H143.718V131.128H140.862V129.112ZM161.199 143H159.015V129.112H161.199V131.464H161.535C162.393 129.635 163.887 128.72 166.015 128.72C167.62 128.72 168.899 129.224 169.851 130.232C170.803 131.221 171.279 132.715 171.279 134.712V143H169.095V135.16C169.095 133.704 168.768 132.612 168.115 131.884C167.461 131.156 166.575 130.792 165.455 130.792C164.129 130.792 163.084 131.249 162.319 132.164C161.572 133.06 161.199 134.264 161.199 135.776V143ZM186.463 140.648H186.127C185.679 141.581 185.054 142.272 184.251 142.72C183.467 143.168 182.637 143.392 181.759 143.392C180.845 143.392 179.995 143.243 179.211 142.944C178.427 142.627 177.737 142.169 177.139 141.572C176.561 140.956 176.103 140.209 175.767 139.332C175.431 138.455 175.263 137.437 175.263 136.28V135.832C175.263 134.693 175.431 133.685 175.767 132.808C176.103 131.931 176.561 131.193 177.139 130.596C177.737 129.98 178.427 129.513 179.211 129.196C179.995 128.879 180.826 128.72 181.703 128.72C182.655 128.72 183.514 128.935 184.279 129.364C185.063 129.775 185.679 130.419 186.127 131.296H186.463V129.112H188.647V140.144C188.647 140.704 188.899 140.984 189.403 140.984H190.103V143H188.619C187.985 143 187.462 142.795 187.051 142.384C186.659 141.973 186.463 141.451 186.463 140.816V140.648ZM181.983 141.32C182.637 141.32 183.234 141.199 183.775 140.956C184.335 140.713 184.811 140.368 185.203 139.92C185.595 139.472 185.903 138.94 186.127 138.324C186.351 137.689 186.463 136.989 186.463 136.224V135.888C186.463 135.141 186.351 134.46 186.127 133.844C185.903 133.209 185.586 132.668 185.175 132.22C184.783 131.772 184.307 131.427 183.747 131.184C183.206 130.923 182.618 130.792 181.983 130.792C181.33 130.792 180.733 130.913 180.191 131.156C179.65 131.399 179.174 131.744 178.763 132.192C178.371 132.621 178.063 133.153 177.839 133.788C177.615 134.404 177.503 135.085 177.503 135.832V136.28C177.503 137.867 177.914 139.108 178.735 140.004C179.575 140.881 180.658 141.32 181.983 141.32ZM193.752 140.984H198.792V125.416H193.92V123.4H200.976V140.984H206.016V143H193.752V140.984ZM231.373 132.696C231.373 133.368 231.653 133.881 232.213 134.236C232.791 134.591 233.837 134.824 235.349 134.936C236.973 135.067 238.205 135.459 239.045 136.112C239.903 136.747 240.333 137.68 240.333 138.912V139.08C240.333 139.752 240.193 140.359 239.913 140.9C239.651 141.423 239.278 141.871 238.793 142.244C238.326 142.617 237.747 142.897 237.057 143.084C236.385 143.289 235.647 143.392 234.845 143.392C233.762 143.392 232.829 143.252 232.045 142.972C231.279 142.673 230.635 142.291 230.113 141.824C229.609 141.339 229.226 140.797 228.965 140.2C228.703 139.584 228.554 138.968 228.517 138.352L230.589 137.848C230.682 138.912 231.093 139.771 231.821 140.424C232.549 141.059 233.519 141.376 234.733 141.376C235.759 141.376 236.581 141.18 237.197 140.788C237.831 140.377 238.149 139.808 238.149 139.08C238.149 138.296 237.841 137.736 237.225 137.4C236.609 137.064 235.61 136.849 234.229 136.756C232.623 136.644 231.391 136.271 230.533 135.636C229.674 135.001 229.245 134.077 229.245 132.864V132.696C229.245 132.043 229.385 131.473 229.665 130.988C229.945 130.484 230.318 130.064 230.785 129.728C231.27 129.392 231.811 129.14 232.409 128.972C233.006 128.804 233.631 128.72 234.285 128.72C235.199 128.72 236.002 128.851 236.693 129.112C237.383 129.355 237.962 129.681 238.429 130.092C238.895 130.484 239.25 130.941 239.493 131.464C239.754 131.987 239.922 132.509 239.997 133.032L237.925 133.536C237.831 132.64 237.467 131.94 236.833 131.436C236.217 130.932 235.405 130.68 234.397 130.68C234.005 130.68 233.622 130.727 233.249 130.82C232.894 130.895 232.577 131.016 232.297 131.184C232.017 131.352 231.793 131.567 231.625 131.828C231.457 132.071 231.373 132.36 231.373 132.696ZM258.961 136.224C258.961 137.381 258.765 138.408 258.373 139.304C258 140.181 257.496 140.928 256.861 141.544C256.227 142.141 255.48 142.599 254.621 142.916C253.781 143.233 252.904 143.392 251.989 143.392C251.056 143.392 250.169 143.233 249.329 142.916C248.489 142.599 247.752 142.141 247.117 141.544C246.483 140.928 245.969 140.181 245.577 139.304C245.204 138.408 245.017 137.381 245.017 136.224V135.888C245.017 134.749 245.204 133.741 245.577 132.864C245.969 131.968 246.483 131.212 247.117 130.596C247.771 129.98 248.517 129.513 249.357 129.196C250.197 128.879 251.075 128.72 251.989 128.72C252.904 128.72 253.781 128.879 254.621 129.196C255.461 129.513 256.199 129.98 256.833 130.596C257.487 131.212 258 131.968 258.373 132.864C258.765 133.741 258.961 134.749 258.961 135.888V136.224ZM251.989 141.32C252.661 141.32 253.277 141.208 253.837 140.984C254.416 140.741 254.92 140.396 255.349 139.948C255.779 139.5 256.115 138.968 256.357 138.352C256.6 137.717 256.721 137.008 256.721 136.224V135.888C256.721 135.141 256.6 134.46 256.357 133.844C256.115 133.209 255.779 132.668 255.349 132.22C254.92 131.772 254.416 131.427 253.837 131.184C253.259 130.923 252.643 130.792 251.989 130.792C251.336 130.792 250.72 130.923 250.141 131.184C249.563 131.427 249.059 131.772 248.629 132.22C248.2 132.668 247.864 133.209 247.621 133.844C247.379 134.46 247.257 135.141 247.257 135.888V136.224C247.257 137.008 247.379 137.717 247.621 138.352C247.864 138.968 248.2 139.5 248.629 139.948C249.059 140.396 249.553 140.741 250.113 140.984C250.692 141.208 251.317 141.32 251.989 141.32ZM276.218 138.072C276.069 138.837 275.807 139.547 275.434 140.2C275.079 140.853 274.622 141.423 274.062 141.908C273.502 142.375 272.849 142.739 272.102 143C271.355 143.261 270.525 143.392 269.61 143.392C268.639 143.392 267.715 143.233 266.838 142.916C265.979 142.599 265.223 142.141 264.57 141.544C263.917 140.928 263.394 140.181 263.002 139.304C262.629 138.427 262.442 137.419 262.442 136.28V135.944C262.442 134.824 262.629 133.816 263.002 132.92C263.394 132.024 263.917 131.268 264.57 130.652C265.223 130.036 265.979 129.56 266.838 129.224C267.715 128.888 268.639 128.72 269.61 128.72C270.487 128.72 271.299 128.851 272.046 129.112C272.793 129.373 273.446 129.747 274.006 130.232C274.585 130.699 275.051 131.259 275.406 131.912C275.779 132.565 276.031 133.275 276.162 134.04L273.978 134.544C273.922 134.059 273.782 133.592 273.558 133.144C273.353 132.677 273.063 132.276 272.69 131.94C272.335 131.585 271.897 131.305 271.374 131.1C270.851 130.895 270.245 130.792 269.554 130.792C268.882 130.792 268.247 130.923 267.65 131.184C267.071 131.427 266.558 131.781 266.11 132.248C265.662 132.696 265.307 133.237 265.046 133.872C264.803 134.507 264.682 135.197 264.682 135.944V136.28C264.682 137.064 264.803 137.773 265.046 138.408C265.307 139.024 265.662 139.547 266.11 139.976C266.558 140.405 267.081 140.741 267.678 140.984C268.275 141.208 268.919 141.32 269.61 141.32C270.301 141.32 270.898 141.217 271.402 141.012C271.925 140.788 272.363 140.508 272.718 140.172C273.091 139.817 273.381 139.416 273.586 138.968C273.81 138.52 273.959 138.053 274.034 137.568L276.218 138.072ZM284.906 124.968C284.906 124.427 285.093 123.969 285.466 123.596C285.858 123.204 286.325 123.008 286.866 123.008C287.408 123.008 287.865 123.204 288.238 123.596C288.63 123.969 288.826 124.427 288.826 124.968C288.826 125.509 288.63 125.976 288.238 126.368C287.865 126.741 287.408 126.928 286.866 126.928C286.325 126.928 285.858 126.741 285.466 126.368C285.093 125.976 284.906 125.509 284.906 124.968ZM280.93 140.984H285.802V131.128H281.434V129.112H287.986V140.984H292.522V143H280.93V140.984ZM308.043 140.648H307.707C307.259 141.581 306.634 142.272 305.831 142.72C305.047 143.168 304.216 143.392 303.339 143.392C302.424 143.392 301.575 143.243 300.791 142.944C300.007 142.627 299.316 142.169 298.719 141.572C298.14 140.956 297.683 140.209 297.347 139.332C297.011 138.455 296.843 137.437 296.843 136.28V135.832C296.843 134.693 297.011 133.685 297.347 132.808C297.683 131.931 298.14 131.193 298.719 130.596C299.316 129.98 300.007 129.513 300.791 129.196C301.575 128.879 302.406 128.72 303.283 128.72C304.235 128.72 305.094 128.935 305.859 129.364C306.643 129.775 307.259 130.419 307.707 131.296H308.043V129.112H310.227V140.144C310.227 140.704 310.479 140.984 310.983 140.984H311.683V143H310.199C309.564 143 309.042 142.795 308.631 142.384C308.239 141.973 308.043 141.451 308.043 140.816V140.648ZM303.563 141.32C304.216 141.32 304.814 141.199 305.355 140.956C305.915 140.713 306.391 140.368 306.783 139.92C307.175 139.472 307.483 138.94 307.707 138.324C307.931 137.689 308.043 136.989 308.043 136.224V135.888C308.043 135.141 307.931 134.46 307.707 133.844C307.483 133.209 307.166 132.668 306.755 132.22C306.363 131.772 305.887 131.427 305.327 131.184C304.786 130.923 304.198 130.792 303.563 130.792C302.91 130.792 302.312 130.913 301.771 131.156C301.23 131.399 300.754 131.744 300.343 132.192C299.951 132.621 299.643 133.153 299.419 133.788C299.195 134.404 299.083 135.085 299.083 135.832V136.28C299.083 137.867 299.494 139.108 300.315 140.004C301.155 140.881 302.238 141.32 303.563 141.32ZM315.331 140.984H320.371V125.416H315.499V123.4H322.555V140.984H327.595V143H315.331V140.984ZM39.7309 184H37.5469V170.112H39.7309V172.464H40.0669C40.9256 170.635 42.4189 169.72 44.5469 169.72C46.1523 169.72 47.4309 170.224 48.3829 171.232C49.3349 172.221 49.8109 173.715 49.8109 175.712V184H47.6269V176.16C47.6269 174.704 47.3003 173.612 46.6469 172.884C45.9936 172.156 45.1069 171.792 43.9869 171.792C42.6616 171.792 41.6163 172.249 40.8509 173.164C40.1043 174.06 39.7309 175.264 39.7309 176.776V184ZM56.5115 177.728C56.5675 179.109 56.9968 180.22 57.7995 181.06C58.6021 181.9 59.7221 182.32 61.1595 182.32C61.8128 182.32 62.3821 182.245 62.8675 182.096C63.3528 181.947 63.7635 181.741 64.0995 181.48C64.4541 181.219 64.7341 180.92 64.9395 180.584C65.1635 180.229 65.3408 179.856 65.4715 179.464L67.5435 180.024C67.1515 181.312 66.4235 182.367 65.3595 183.188C64.3141 183.991 62.8955 184.392 61.1035 184.392C60.1141 184.392 59.1995 184.224 58.3595 183.888C57.5381 183.533 56.8288 183.039 56.2315 182.404C55.6341 181.769 55.1675 181.013 54.8315 180.136C54.4955 179.259 54.3275 178.288 54.3275 177.224V176.552C54.3275 175.581 54.4955 174.676 54.8315 173.836C55.1861 172.996 55.6715 172.277 56.2875 171.68C56.9035 171.064 57.6221 170.588 58.4435 170.252C59.2835 169.897 60.1888 169.72 61.1595 169.72C62.2981 169.72 63.2781 169.935 64.0995 170.364C64.9395 170.775 65.6208 171.288 66.1435 171.904C66.6848 172.52 67.0768 173.192 67.3195 173.92C67.5808 174.648 67.7115 175.32 67.7115 175.936V177.728H56.5115ZM61.1595 171.792C60.5435 171.792 59.9648 171.895 59.4235 172.1C58.9008 172.287 58.4341 172.557 58.0235 172.912C57.6315 173.267 57.3048 173.687 57.0435 174.172C56.8008 174.639 56.6421 175.152 56.5675 175.712H65.5275C65.4901 175.115 65.3408 174.573 65.0795 174.088C64.8368 173.603 64.5101 173.192 64.0995 172.856C63.7075 172.52 63.2501 172.259 62.7275 172.072C62.2235 171.885 61.7008 171.792 61.1595 171.792ZM71.808 170.112H76.176V164.4H78.36V170.112H83.736V172.128H78.36V181.144C78.36 181.704 78.612 181.984 79.116 181.984H83.064V184H78.332C77.6973 184 77.1747 183.795 76.764 183.384C76.372 182.973 76.176 182.451 76.176 181.816V172.128H71.808V170.112ZM101.665 184H97.6325L95.9525 171.12H95.6165L93.9365 184H89.9045L87.7205 170.112H89.9605L91.8085 182.992H92.1445L93.7685 170.112H97.8005L99.4245 182.992H99.7605L101.609 170.112H103.849L101.665 184ZM120.125 177.224C120.125 178.381 119.929 179.408 119.537 180.304C119.164 181.181 118.66 181.928 118.025 182.544C117.39 183.141 116.644 183.599 115.785 183.916C114.945 184.233 114.068 184.392 113.153 184.392C112.22 184.392 111.333 184.233 110.493 183.916C109.653 183.599 108.916 183.141 108.281 182.544C107.646 181.928 107.133 181.181 106.741 180.304C106.368 179.408 106.181 178.381 106.181 177.224V176.888C106.181 175.749 106.368 174.741 106.741 173.864C107.133 172.968 107.646 172.212 108.281 171.596C108.934 170.98 109.681 170.513 110.521 170.196C111.361 169.879 112.238 169.72 113.153 169.72C114.068 169.72 114.945 169.879 115.785 170.196C116.625 170.513 117.362 170.98 117.997 171.596C118.65 172.212 119.164 172.968 119.537 173.864C119.929 174.741 120.125 175.749 120.125 176.888V177.224ZM113.153 182.32C113.825 182.32 114.441 182.208 115.001 181.984C115.58 181.741 116.084 181.396 116.513 180.948C116.942 180.5 117.278 179.968 117.521 179.352C117.764 178.717 117.885 178.008 117.885 177.224V176.888C117.885 176.141 117.764 175.46 117.521 174.844C117.278 174.209 116.942 173.668 116.513 173.22C116.084 172.772 115.58 172.427 115.001 172.184C114.422 171.923 113.806 171.792 113.153 171.792C112.5 171.792 111.884 171.923 111.305 172.184C110.726 172.427 110.222 172.772 109.793 173.22C109.364 173.668 109.028 174.209 108.785 174.844C108.542 175.46 108.421 176.141 108.421 176.888V177.224C108.421 178.008 108.542 178.717 108.785 179.352C109.028 179.968 109.364 180.5 109.793 180.948C110.222 181.396 110.717 181.741 111.277 181.984C111.856 182.208 112.481 182.32 113.153 182.32ZM123.606 170.112H128.646V171.96H128.982C129.336 171.195 129.84 170.635 130.494 170.28C131.147 169.907 131.894 169.72 132.734 169.72C134.134 169.72 135.263 170.177 136.122 171.092C136.98 172.007 137.438 173.341 137.494 175.096L135.198 175.432C135.198 174.144 134.89 173.22 134.274 172.66C133.658 172.081 132.902 171.792 132.006 171.792C131.427 171.792 130.923 171.904 130.494 172.128C130.083 172.352 129.738 172.66 129.458 173.052C129.178 173.444 128.972 173.901 128.842 174.424C128.711 174.947 128.646 175.507 128.646 176.104V181.984H132.174V184H123.27V181.984H126.462V172.128H123.606V170.112ZM145.342 175.88H145.818L151.11 170.112H153.798V170.28L148.03 176.636V177.14L154.47 183.832V184H151.782L145.874 177.896H145.342V184H143.158V164.4H145.342V175.88ZM187.247 181.872H186.911C186.687 182.301 186.398 182.675 186.043 182.992C185.707 183.309 185.334 183.571 184.923 183.776C184.531 183.981 184.111 184.131 183.663 184.224C183.215 184.336 182.786 184.392 182.375 184.392C181.442 184.392 180.574 184.233 179.771 183.916C178.969 183.599 178.259 183.141 177.643 182.544C177.046 181.947 176.57 181.209 176.215 180.332C175.879 179.436 175.711 178.419 175.711 177.28V176.832C175.711 175.712 175.889 174.713 176.243 173.836C176.598 172.94 177.074 172.193 177.671 171.596C178.269 170.98 178.969 170.513 179.771 170.196C180.574 169.879 181.423 169.72 182.319 169.72C183.271 169.72 184.158 169.935 184.979 170.364C185.819 170.775 186.463 171.419 186.911 172.296H187.247V164.4H189.431V184H187.247V181.872ZM182.599 182.32C183.253 182.32 183.859 182.199 184.419 181.956C184.979 181.713 185.465 181.368 185.875 180.92C186.305 180.472 186.641 179.94 186.883 179.324C187.126 178.689 187.247 177.989 187.247 177.224V176.888C187.247 176.141 187.126 175.46 186.883 174.844C186.641 174.209 186.305 173.668 185.875 173.22C185.465 172.772 184.97 172.427 184.391 172.184C183.831 171.923 183.234 171.792 182.599 171.792C181.946 171.792 181.33 171.913 180.751 172.156C180.191 172.399 179.697 172.744 179.267 173.192C178.857 173.64 178.53 174.172 178.287 174.788C178.063 175.404 177.951 176.085 177.951 176.832V177.28C177.951 178.064 178.063 178.764 178.287 179.38C178.53 179.996 178.857 180.528 179.267 180.976C179.697 181.405 180.191 181.741 180.751 181.984C181.311 182.208 181.927 182.32 182.599 182.32ZM195.46 177.728C195.516 179.109 195.945 180.22 196.748 181.06C197.55 181.9 198.67 182.32 200.108 182.32C200.761 182.32 201.33 182.245 201.816 182.096C202.301 181.947 202.712 181.741 203.048 181.48C203.402 181.219 203.682 180.92 203.888 180.584C204.112 180.229 204.289 179.856 204.42 179.464L206.492 180.024C206.1 181.312 205.372 182.367 204.308 183.188C203.262 183.991 201.844 184.392 200.052 184.392C199.062 184.392 198.148 184.224 197.308 183.888C196.486 183.533 195.777 183.039 195.18 182.404C194.582 181.769 194.116 181.013 193.78 180.136C193.444 179.259 193.276 178.288 193.276 177.224V176.552C193.276 175.581 193.444 174.676 193.78 173.836C194.134 172.996 194.62 172.277 195.236 171.68C195.852 171.064 196.57 170.588 197.392 170.252C198.232 169.897 199.137 169.72 200.108 169.72C201.246 169.72 202.226 169.935 203.048 170.364C203.888 170.775 204.569 171.288 205.092 171.904C205.633 172.52 206.025 173.192 206.268 173.92C206.529 174.648 206.66 175.32 206.66 175.936V177.728H195.46ZM200.108 171.792C199.492 171.792 198.913 171.895 198.372 172.1C197.849 172.287 197.382 172.557 196.972 172.912C196.58 173.267 196.253 173.687 195.992 174.172C195.749 174.639 195.59 175.152 195.516 175.712H204.476C204.438 175.115 204.289 174.573 204.028 174.088C203.785 173.603 203.458 173.192 203.048 172.856C202.656 172.52 202.198 172.259 201.676 172.072C201.172 171.885 200.649 171.792 200.108 171.792ZM211.232 181.984H216.272V166.416H211.4V164.4H218.456V181.984H223.496V184H211.232V181.984ZM232.913 165.968C232.913 165.427 233.099 164.969 233.473 164.596C233.865 164.204 234.331 164.008 234.873 164.008C235.414 164.008 235.871 164.204 236.245 164.596C236.637 164.969 236.833 165.427 236.833 165.968C236.833 166.509 236.637 166.976 236.245 167.368C235.871 167.741 235.414 167.928 234.873 167.928C234.331 167.928 233.865 167.741 233.473 167.368C233.099 166.976 232.913 166.509 232.913 165.968ZM228.937 181.984H233.809V172.128H229.441V170.112H235.993V181.984H240.529V184H228.937V181.984ZM254.229 184H249.917L245.073 170.112H247.649L251.905 182.992H252.241L256.497 170.112H259.073L254.229 184ZM264.934 177.728C264.99 179.109 265.419 180.22 266.222 181.06C267.025 181.9 268.145 182.32 269.582 182.32C270.235 182.32 270.805 182.245 271.29 182.096C271.775 181.947 272.186 181.741 272.522 181.48C272.877 181.219 273.157 180.92 273.362 180.584C273.586 180.229 273.763 179.856 273.894 179.464L275.966 180.024C275.574 181.312 274.846 182.367 273.782 183.188C272.737 183.991 271.318 184.392 269.526 184.392C268.537 184.392 267.622 184.224 266.782 183.888C265.961 183.533 265.251 183.039 264.654 182.404C264.057 181.769 263.59 181.013 263.254 180.136C262.918 179.259 262.75 178.288 262.75 177.224V176.552C262.75 175.581 262.918 174.676 263.254 173.836C263.609 172.996 264.094 172.277 264.71 171.68C265.326 171.064 266.045 170.588 266.866 170.252C267.706 169.897 268.611 169.72 269.582 169.72C270.721 169.72 271.701 169.935 272.522 170.364C273.362 170.775 274.043 171.288 274.566 171.904C275.107 172.52 275.499 173.192 275.742 173.92C276.003 174.648 276.134 175.32 276.134 175.936V177.728H264.934ZM269.582 171.792C268.966 171.792 268.387 171.895 267.846 172.1C267.323 172.287 266.857 172.557 266.446 172.912C266.054 173.267 265.727 173.687 265.466 174.172C265.223 174.639 265.065 175.152 264.99 175.712H273.95C273.913 175.115 273.763 174.573 273.502 174.088C273.259 173.603 272.933 173.192 272.522 172.856C272.13 172.52 271.673 172.259 271.15 172.072C270.646 171.885 270.123 171.792 269.582 171.792ZM279.922 170.112H284.962V171.96H285.298C285.653 171.195 286.157 170.635 286.81 170.28C287.464 169.907 288.21 169.72 289.05 169.72C290.45 169.72 291.58 170.177 292.438 171.092C293.297 172.007 293.754 173.341 293.81 175.096L291.514 175.432C291.514 174.144 291.206 173.22 290.59 172.66C289.974 172.081 289.218 171.792 288.322 171.792C287.744 171.792 287.24 171.904 286.81 172.128C286.4 172.352 286.054 172.66 285.774 173.052C285.494 173.444 285.289 173.901 285.158 174.424C285.028 174.947 284.962 175.507 284.962 176.104V181.984H288.49V184H279.586V181.984H282.778V172.128H279.922V170.112ZM308.155 181.648H307.819C307.371 182.581 306.746 183.272 305.943 183.72C305.159 184.168 304.328 184.392 303.451 184.392C302.536 184.392 301.687 184.243 300.903 183.944C300.119 183.627 299.428 183.169 298.831 182.572C298.252 181.956 297.795 181.209 297.459 180.332C297.123 179.455 296.955 178.437 296.955 177.28V176.832C296.955 175.693 297.123 174.685 297.459 173.808C297.795 172.931 298.252 172.193 298.831 171.596C299.428 170.98 300.119 170.513 300.903 170.196C301.687 169.879 302.518 169.72 303.395 169.72C304.347 169.72 305.206 169.935 305.971 170.364C306.755 170.775 307.371 171.419 307.819 172.296H308.155V170.112H310.339V181.144C310.339 181.704 310.591 181.984 311.095 181.984H311.795V184H310.311C309.676 184 309.154 183.795 308.743 183.384C308.351 182.973 308.155 182.451 308.155 181.816V181.648ZM303.675 182.32C304.328 182.32 304.926 182.199 305.467 181.956C306.027 181.713 306.503 181.368 306.895 180.92C307.287 180.472 307.595 179.94 307.819 179.324C308.043 178.689 308.155 177.989 308.155 177.224V176.888C308.155 176.141 308.043 175.46 307.819 174.844C307.595 174.209 307.278 173.668 306.867 173.22C306.475 172.772 305.999 172.427 305.439 172.184C304.898 171.923 304.31 171.792 303.675 171.792C303.022 171.792 302.424 171.913 301.883 172.156C301.342 172.399 300.866 172.744 300.455 173.192C300.063 173.621 299.755 174.153 299.531 174.788C299.307 175.404 299.195 176.085 299.195 176.832V177.28C299.195 178.867 299.606 180.108 300.427 181.004C301.267 181.881 302.35 182.32 303.675 182.32ZM317.123 184H314.939V164.4H317.123V172.296H317.459C317.945 171.456 318.617 170.821 319.475 170.392C320.334 169.944 321.267 169.72 322.275 169.72C323.134 169.72 323.946 169.879 324.711 170.196C325.477 170.513 326.149 170.971 326.727 171.568C327.325 172.165 327.791 172.903 328.127 173.78C328.482 174.657 328.659 175.656 328.659 176.776V177.336C328.659 178.475 328.491 179.483 328.155 180.36C327.819 181.237 327.353 181.975 326.755 182.572C326.177 183.169 325.495 183.627 324.711 183.944C323.927 184.243 323.097 184.392 322.219 184.392C321.771 184.392 321.314 184.336 320.847 184.224C320.381 184.131 319.933 183.981 319.503 183.776C319.093 183.552 318.71 183.291 318.355 182.992C318.001 182.675 317.702 182.301 317.459 181.872H317.123V184ZM321.771 182.32C322.443 182.32 323.059 182.208 323.619 181.984C324.179 181.741 324.665 181.405 325.075 180.976C325.505 180.547 325.831 180.024 326.055 179.408C326.298 178.792 326.419 178.101 326.419 177.336V176.776C326.419 176.029 326.298 175.357 326.055 174.76C325.831 174.144 325.505 173.621 325.075 173.192C324.665 172.744 324.17 172.399 323.591 172.156C323.031 171.913 322.425 171.792 321.771 171.792C321.118 171.792 320.511 171.923 319.951 172.184C319.391 172.427 318.897 172.772 318.467 173.22C318.057 173.668 317.73 174.209 317.487 174.844C317.245 175.46 317.123 176.141 317.123 176.888V177.224C317.123 177.989 317.245 178.689 317.487 179.324C317.73 179.94 318.057 180.472 318.467 180.92C318.897 181.368 319.391 181.713 319.951 181.956C320.511 182.199 321.118 182.32 321.771 182.32ZM332.812 181.984H337.852V166.416H332.98V164.4H340.036V181.984H345.076V184H332.812V181.984ZM351.777 177.728C351.833 179.109 352.262 180.22 353.065 181.06C353.867 181.9 354.987 182.32 356.425 182.32C357.078 182.32 357.647 182.245 358.133 182.096C358.618 181.947 359.029 181.741 359.365 181.48C359.719 181.219 359.999 180.92 360.205 180.584C360.429 180.229 360.606 179.856 360.737 179.464L362.809 180.024C362.417 181.312 361.689 182.367 360.625 183.188C359.579 183.991 358.161 184.392 356.369 184.392C355.379 184.392 354.465 184.224 353.625 183.888C352.803 183.533 352.094 183.039 351.497 182.404C350.899 181.769 350.433 181.013 350.097 180.136C349.761 179.259 349.593 178.288 349.593 177.224V176.552C349.593 175.581 349.761 174.676 350.097 173.836C350.451 172.996 350.937 172.277 351.553 171.68C352.169 171.064 352.887 170.588 353.709 170.252C354.549 169.897 355.454 169.72 356.425 169.72C357.563 169.72 358.543 169.935 359.365 170.364C360.205 170.775 360.886 171.288 361.409 171.904C361.95 172.52 362.342 173.192 362.585 173.92C362.846 174.648 362.977 175.32 362.977 175.936V177.728H351.777ZM356.425 171.792C355.809 171.792 355.23 171.895 354.689 172.1C354.166 172.287 353.699 172.557 353.289 172.912C352.897 173.267 352.57 173.687 352.309 174.172C352.066 174.639 351.907 175.152 351.833 175.712H360.793C360.755 175.115 360.606 174.573 360.345 174.088C360.102 173.603 359.775 173.192 359.365 172.856C358.973 172.52 358.515 172.259 357.993 172.072C357.489 171.885 356.966 171.792 356.425 171.792Z" fill="white"/>
</svg>
