<svg width="400" height="264" viewBox="0 0 400 264" fill="none" xmlns="http://www.w3.org/2000/svg">
<rect width="400" height="264" rx="16" fill="black" fill-opacity="0.5"/>
<path d="M44.062 119.28C42.942 119.28 41.99 119.177 41.206 118.972C40.422 118.748 39.6007 118.421 38.742 117.992L38.462 113.512H38.938L40.394 116.732C41.066 117.255 41.71 117.628 42.326 117.852C42.942 118.057 43.5674 118.16 44.202 118.16C45.3594 118.16 46.2554 117.852 46.89 117.236C47.5247 116.62 47.842 115.771 47.842 114.688C47.842 113.848 47.646 113.185 47.254 112.7C46.862 112.215 46.302 111.785 45.574 111.412C44.8647 111.039 44.0247 110.609 43.054 110.124C42.1954 109.695 41.4767 109.265 40.898 108.836C40.3194 108.407 39.8714 107.912 39.554 107.352C39.2554 106.792 39.106 106.092 39.106 105.252C39.106 104.636 39.2554 104.029 39.554 103.432C39.8527 102.835 40.254 102.303 40.758 101.836C41.2807 101.351 41.8594 100.968 42.494 100.688C43.1474 100.389 43.8194 100.24 44.51 100.24C45.3687 100.24 46.1434 100.343 46.834 100.548C47.5434 100.753 48.2714 101.043 49.018 101.416L49.298 105.784H48.822L47.59 102.704C47.0114 102.219 46.4794 101.883 45.994 101.696C45.5274 101.491 44.986 101.388 44.37 101.388C43.3994 101.388 42.634 101.687 42.074 102.284C41.514 102.863 41.234 103.591 41.234 104.468C41.234 105.121 41.3647 105.681 41.626 106.148C41.906 106.596 42.326 107.016 42.886 107.408C43.446 107.781 44.1554 108.173 45.014 108.584C46.134 109.125 47.058 109.639 47.786 110.124C48.514 110.609 49.0554 111.169 49.41 111.804C49.7647 112.42 49.942 113.204 49.942 114.156C49.942 114.959 49.7647 115.677 49.41 116.312C49.0554 116.947 48.5887 117.488 48.01 117.936C47.4314 118.365 46.7967 118.701 46.106 118.944C45.4154 119.168 44.734 119.28 44.062 119.28ZM52.4769 119V118.44L54.1569 117.74L61.2969 100.38H62.2769L69.3889 117.712L71.1529 118.44V119H64.6289V118.44L67.0369 117.712L64.8529 112.252H57.9369L55.7809 117.74L58.1889 118.44V119H52.4769ZM58.4689 110.936H64.3209L61.3809 103.6L58.4689 110.936ZM74.1321 119V118.44L76.3721 117.6V101.92L74.1321 101.08V100.52H80.6561C82.6161 100.52 84.1561 100.931 85.2761 101.752C86.4147 102.555 86.9841 103.665 86.9841 105.084C86.9841 106.167 86.6201 107.119 85.8921 107.94C85.1827 108.743 84.2494 109.34 83.0921 109.732L88.4401 117.712L90.2881 118.44V119H86.5921L81.1041 110.404H78.5561V117.572L80.6561 118.44V119H74.1321ZM80.3761 101.836H78.5561V109.088H80.5441C81.7201 109.088 82.6907 108.743 83.4561 108.052C84.2401 107.361 84.6321 106.493 84.6321 105.448C84.6321 104.328 84.2494 103.451 83.4841 102.816C82.7187 102.163 81.6827 101.836 80.3761 101.836ZM101.48 119.28C99.6322 119.28 98.0175 118.888 96.6362 118.104C95.2735 117.32 94.2095 116.247 93.4442 114.884C92.6975 113.521 92.3242 111.981 92.3242 110.264C92.3242 108.901 92.5762 107.613 93.0802 106.4C93.5842 105.187 94.2748 104.123 95.1522 103.208C96.0482 102.275 97.0748 101.547 98.2322 101.024C99.3895 100.501 100.622 100.24 101.928 100.24C102.843 100.24 103.618 100.305 104.252 100.436C104.906 100.548 105.484 100.707 105.988 100.912C106.511 101.117 107.034 101.341 107.556 101.584L107.668 106.26H107.136L105.68 102.928C104.952 102.424 104.299 102.051 103.72 101.808C103.142 101.547 102.498 101.416 101.788 101.416C100.37 101.416 99.1095 101.761 98.0082 102.452C96.9255 103.143 96.0668 104.085 95.4322 105.28C94.7975 106.475 94.4802 107.819 94.4802 109.312C94.4802 111.104 94.7975 112.663 95.4322 113.988C96.0668 115.295 96.9162 116.303 97.9802 117.012C99.0628 117.721 100.276 118.076 101.62 118.076C102.572 118.076 103.384 117.945 104.056 117.684C104.728 117.423 105.326 117.115 105.848 116.76L107.472 113.568H107.976L107.696 117.908C107.155 118.188 106.595 118.431 106.016 118.636C105.456 118.841 104.812 119 104.084 119.112C103.375 119.224 102.507 119.28 101.48 119.28ZM112.168 112.616V110.992H119.868V112.616H112.168ZM128.772 119.28C127.652 119.28 126.7 119.177 125.916 118.972C125.132 118.748 124.311 118.421 123.452 117.992L123.172 113.512H123.648L125.104 116.732C125.776 117.255 126.42 117.628 127.036 117.852C127.652 118.057 128.277 118.16 128.912 118.16C130.069 118.16 130.965 117.852 131.6 117.236C132.235 116.62 132.552 115.771 132.552 114.688C132.552 113.848 132.356 113.185 131.964 112.7C131.572 112.215 131.012 111.785 130.284 111.412C129.575 111.039 128.735 110.609 127.764 110.124C126.905 109.695 126.187 109.265 125.608 108.836C125.029 108.407 124.581 107.912 124.264 107.352C123.965 106.792 123.816 106.092 123.816 105.252C123.816 104.636 123.965 104.029 124.264 103.432C124.563 102.835 124.964 102.303 125.468 101.836C125.991 101.351 126.569 100.968 127.204 100.688C127.857 100.389 128.529 100.24 129.22 100.24C130.079 100.24 130.853 100.343 131.544 100.548C132.253 100.753 132.981 101.043 133.728 101.416L134.008 105.784H133.532L132.3 102.704C131.721 102.219 131.189 101.883 130.704 101.696C130.237 101.491 129.696 101.388 129.08 101.388C128.109 101.388 127.344 101.687 126.784 102.284C126.224 102.863 125.944 103.591 125.944 104.468C125.944 105.121 126.075 105.681 126.336 106.148C126.616 106.596 127.036 107.016 127.596 107.408C128.156 107.781 128.865 108.173 129.724 108.584C130.844 109.125 131.768 109.639 132.496 110.124C133.224 110.609 133.765 111.169 134.12 111.804C134.475 112.42 134.652 113.204 134.652 114.156C134.652 114.959 134.475 115.677 134.12 116.312C133.765 116.947 133.299 117.488 132.72 117.936C132.141 118.365 131.507 118.701 130.816 118.944C130.125 119.168 129.444 119.28 128.772 119.28ZM142.303 119.28C141.5 119.28 140.819 119.037 140.259 118.552C139.718 118.067 139.447 117.385 139.447 116.508V107.576H137.095V107.352L139.587 106.4L141.127 103.32H141.351V106.4H145.047V107.576H141.351V116.2C141.351 116.723 141.547 117.115 141.939 117.376C142.331 117.619 142.826 117.74 143.423 117.74C143.796 117.74 144.142 117.712 144.459 117.656C144.776 117.581 145.066 117.497 145.327 117.404L145.383 117.432V117.628C145.196 118.001 144.842 118.375 144.319 118.748C143.815 119.103 143.143 119.28 142.303 119.28ZM150.556 102.312C150.145 102.312 149.8 102.181 149.52 101.92C149.259 101.64 149.128 101.295 149.128 100.884C149.128 100.455 149.259 100.109 149.52 99.848C149.8 99.5867 150.145 99.456 150.556 99.456C150.985 99.456 151.331 99.5867 151.592 99.848C151.853 100.109 151.984 100.455 151.984 100.884C151.984 101.295 151.853 101.64 151.592 101.92C151.331 102.181 150.985 102.312 150.556 102.312ZM148.064 119V118.552L149.828 117.852V108.556L148.008 107.464V107.184L151.508 106.12H151.732V117.852L153.58 118.552V119H148.064ZM162.585 119.28C161.334 119.28 160.27 119.019 159.393 118.496C158.516 117.973 157.844 117.255 157.377 116.34C156.91 115.407 156.677 114.333 156.677 113.12C156.677 111.776 156.948 110.581 157.489 109.536C158.049 108.472 158.805 107.641 159.757 107.044C160.728 106.428 161.82 106.12 163.033 106.12C163.78 106.12 164.48 106.241 165.133 106.484C165.805 106.708 166.318 106.988 166.673 107.324C166.878 107.529 167.028 107.707 167.121 107.856C167.233 108.005 167.289 108.145 167.289 108.276C167.289 108.481 167.196 108.659 167.009 108.808L166.057 109.592H165.889L165.189 108.64C164.853 108.192 164.461 107.828 164.013 107.548C163.565 107.249 163.014 107.1 162.361 107.1C161.222 107.1 160.298 107.548 159.589 108.444C158.898 109.321 158.553 110.581 158.553 112.224C158.553 113.195 158.721 114.091 159.057 114.912C159.393 115.715 159.916 116.359 160.625 116.844C161.353 117.311 162.296 117.544 163.453 117.544C164.834 117.544 166.104 117.133 167.261 116.312H167.345V116.62C166.916 117.367 166.29 118.001 165.469 118.524C164.648 119.028 163.686 119.28 162.585 119.28ZM170.274 119V118.552L172.038 117.852V100.436L170.218 99.344V99.064L173.718 98H173.942V111.916L178.674 107.828V107.66L177.302 106.848V106.4H182.286V106.848L180.494 107.632L175.622 111.412L181.53 117.796L183.322 118.552V119H179.906L178.982 117.74L173.942 112.224V117.88L175.93 118.552V119H170.274ZM191.116 119.28C189.865 119.28 188.792 119.019 187.896 118.496C187.019 117.973 186.347 117.255 185.88 116.34C185.413 115.407 185.18 114.333 185.18 113.12C185.18 111.776 185.451 110.581 185.992 109.536C186.533 108.472 187.252 107.641 188.148 107.044C189.044 106.428 190.015 106.12 191.06 106.12C192.535 106.12 193.692 106.624 194.532 107.632C195.372 108.64 195.82 110.059 195.876 111.888L195.764 112H187.056C187.056 112.075 187.056 112.149 187.056 112.224C187.056 113.195 187.224 114.091 187.56 114.912C187.896 115.715 188.428 116.359 189.156 116.844C189.884 117.311 190.827 117.544 191.984 117.544C193.365 117.544 194.635 117.133 195.792 116.312H195.876V116.62C195.465 117.367 194.84 118.001 194 118.524C193.179 119.028 192.217 119.28 191.116 119.28ZM190.64 107.1C189.744 107.1 188.979 107.445 188.344 108.136C187.709 108.808 187.308 109.76 187.14 110.992H193.972C193.599 108.397 192.488 107.1 190.64 107.1ZM199.107 119V118.552L200.871 117.852V108.556L199.051 107.604V107.296L202.327 106.12H202.551L202.747 108.556H202.831C203.391 107.828 203.858 107.296 204.231 106.96C204.623 106.605 204.978 106.381 205.295 106.288C205.612 106.176 205.93 106.12 206.247 106.12C206.396 106.12 206.564 106.148 206.751 106.204C206.938 106.241 207.087 106.288 207.199 106.344C207.404 106.419 207.572 106.512 207.703 106.624C207.834 106.736 207.899 106.857 207.899 106.988C207.899 107.044 207.89 107.109 207.871 107.184C207.871 107.259 207.852 107.333 207.815 107.408L207.367 108.528H207.227L206.387 108.164C206.051 108.033 205.678 107.968 205.267 107.968C204.8 107.968 204.362 108.089 203.951 108.332C203.54 108.575 203.148 108.976 202.775 109.536V117.852L204.819 118.552V119H199.107ZM211.758 119.14C211.348 119.14 210.993 118.991 210.694 118.692C210.396 118.375 210.246 118.011 210.246 117.6C210.246 117.189 210.396 116.835 210.694 116.536C210.993 116.237 211.348 116.088 211.758 116.088C212.169 116.088 212.524 116.237 212.822 116.536C213.14 116.835 213.298 117.189 213.298 117.6C213.298 118.011 213.14 118.375 212.822 118.692C212.524 118.991 212.169 119.14 211.758 119.14ZM211.758 109.172C211.348 109.172 210.993 109.023 210.694 108.724C210.396 108.407 210.246 108.043 210.246 107.632C210.246 107.221 210.396 106.867 210.694 106.568C210.993 106.269 211.348 106.12 211.758 106.12C212.169 106.12 212.524 106.269 212.822 106.568C213.14 106.867 213.298 107.221 213.298 107.632C213.298 108.043 213.14 108.407 212.822 108.724C212.524 109.023 212.169 109.172 211.758 109.172ZM223.471 119V118.44L225.151 117.74L232.291 100.38H233.271L240.383 117.712L242.147 118.44V119H235.623V118.44L238.031 117.712L235.847 112.252H228.931L226.775 117.74L229.183 118.44V119H223.471ZM229.463 110.936H235.315L232.375 103.6L229.463 110.936ZM244.543 119V118.552L246.307 117.852V108.556L244.487 107.604V107.296L247.763 106.12H247.987L248.183 108.164H248.295C249.005 107.473 249.677 106.96 250.311 106.624C250.965 106.288 251.683 106.12 252.467 106.12C253.587 106.12 254.511 106.419 255.239 107.016C255.967 107.613 256.331 108.481 256.331 109.62V117.852L258.095 118.552V119H252.439V118.552L254.427 117.852V110.712C254.427 109.76 254.147 109.041 253.587 108.556C253.027 108.052 252.309 107.8 251.431 107.8C250.909 107.8 250.33 107.912 249.695 108.136C249.079 108.341 248.585 108.64 248.211 109.032V117.852L250.199 118.552V119H244.543ZM270.729 102.312C270.319 102.312 269.973 102.181 269.693 101.92C269.432 101.64 269.301 101.295 269.301 100.884C269.301 100.455 269.432 100.109 269.693 99.848C269.973 99.5867 270.319 99.456 270.729 99.456C271.159 99.456 271.504 99.5867 271.765 99.848C272.027 100.109 272.157 100.455 272.157 100.884C272.157 101.295 272.027 101.64 271.765 101.92C271.504 102.181 271.159 102.312 270.729 102.312ZM268.237 119V118.552L270.001 117.852V108.556L268.181 107.464V107.184L271.681 106.12H271.905V117.852L273.753 118.552V119H268.237ZM276.907 119V118.552L278.671 117.852V108.556L276.851 107.604V107.296L280.127 106.12H280.351L280.547 108.164H280.659C281.368 107.473 282.04 106.96 282.675 106.624C283.328 106.288 284.047 106.12 284.831 106.12C285.951 106.12 286.875 106.419 287.603 107.016C288.331 107.613 288.695 108.481 288.695 109.62V117.852L290.459 118.552V119H284.803V118.552L286.791 117.852V110.712C286.791 109.76 286.511 109.041 285.951 108.556C285.391 108.052 284.672 107.8 283.795 107.8C283.272 107.8 282.693 107.912 282.059 108.136C281.443 108.341 280.948 108.64 280.575 109.032V117.852L282.563 118.552V119H276.907ZM297.465 119.28C296.662 119.28 295.981 119.037 295.421 118.552C294.88 118.067 294.609 117.385 294.609 116.508V107.576H292.257V107.352L294.749 106.4L296.289 103.32H296.513V106.4H300.209V107.576H296.513V116.2C296.513 116.723 296.709 117.115 297.101 117.376C297.493 117.619 297.988 117.74 298.585 117.74C298.958 117.74 299.304 117.712 299.621 117.656C299.938 117.581 300.228 117.497 300.489 117.404L300.545 117.432V117.628C300.358 118.001 300.004 118.375 299.481 118.748C298.977 119.103 298.305 119.28 297.465 119.28ZM308.938 119.28C307.687 119.28 306.614 119.019 305.718 118.496C304.841 117.973 304.169 117.255 303.702 116.34C303.235 115.407 303.002 114.333 303.002 113.12C303.002 111.776 303.273 110.581 303.814 109.536C304.355 108.472 305.074 107.641 305.97 107.044C306.866 106.428 307.837 106.12 308.882 106.12C310.357 106.12 311.514 106.624 312.354 107.632C313.194 108.64 313.642 110.059 313.698 111.888L313.586 112H304.878C304.878 112.075 304.878 112.149 304.878 112.224C304.878 113.195 305.046 114.091 305.382 114.912C305.718 115.715 306.25 116.359 306.978 116.844C307.706 117.311 308.649 117.544 309.806 117.544C311.187 117.544 312.457 117.133 313.614 116.312H313.698V116.62C313.287 117.367 312.662 118.001 311.822 118.524C311.001 119.028 310.039 119.28 308.938 119.28ZM308.462 107.1C307.566 107.1 306.801 107.445 306.166 108.136C305.531 108.808 305.13 109.76 304.962 110.992H311.794C311.421 108.397 310.31 107.1 308.462 107.1ZM316.929 119V118.552L318.693 117.852V108.556L316.873 107.604V107.296L320.149 106.12H320.373L320.569 108.556H320.653C321.213 107.828 321.68 107.296 322.053 106.96C322.445 106.605 322.8 106.381 323.117 106.288C323.434 106.176 323.752 106.12 324.069 106.12C324.218 106.12 324.386 106.148 324.573 106.204C324.76 106.241 324.909 106.288 325.021 106.344C325.226 106.419 325.394 106.512 325.525 106.624C325.656 106.736 325.721 106.857 325.721 106.988C325.721 107.044 325.712 107.109 325.693 107.184C325.693 107.259 325.674 107.333 325.637 107.408L325.189 108.528H325.049L324.209 108.164C323.873 108.033 323.5 107.968 323.089 107.968C322.622 107.968 322.184 108.089 321.773 108.332C321.362 108.575 320.97 108.976 320.597 109.536V117.852L322.641 118.552V119H316.929ZM327.732 119V118.552L329.496 117.852V108.556L327.676 107.604V107.296L330.952 106.12H331.176L331.372 108.164H331.484C332.194 107.473 332.866 106.96 333.5 106.624C334.154 106.288 334.872 106.12 335.656 106.12C336.776 106.12 337.7 106.419 338.428 107.016C339.156 107.613 339.52 108.481 339.52 109.62V117.852L341.284 118.552V119H335.628V118.552L337.616 117.852V110.712C337.616 109.76 337.336 109.041 336.776 108.556C336.216 108.052 335.498 107.8 334.62 107.8C334.098 107.8 333.519 107.912 332.884 108.136C332.268 108.341 331.774 108.64 331.4 109.032V117.852L333.388 118.552V119H327.732ZM346.865 119.28C345.987 119.28 345.259 119.028 344.681 118.524C344.102 118.001 343.813 117.283 343.813 116.368C343.813 115.453 344.149 114.679 344.821 114.044C345.493 113.409 346.603 112.905 348.153 112.532L350.869 111.86V109.704C350.869 108.995 350.589 108.407 350.029 107.94C349.487 107.473 348.881 107.24 348.209 107.24C347.462 107.24 346.939 107.417 346.641 107.772C346.342 108.127 346.193 108.612 346.193 109.228V110.152L346.053 110.292H344.877C344.597 110.292 344.401 110.255 344.289 110.18C344.195 110.087 344.149 109.881 344.149 109.564C344.149 109.172 344.27 108.771 344.513 108.36C344.755 107.949 345.119 107.595 345.605 107.296C346.127 106.96 346.659 106.68 347.201 106.456C347.761 106.232 348.321 106.12 348.881 106.12C349.59 106.12 350.234 106.223 350.813 106.428C351.391 106.615 351.858 106.932 352.213 107.38C352.567 107.828 352.745 108.425 352.745 109.172V117.432C352.894 117.581 353.081 117.693 353.305 117.768C353.529 117.843 353.818 117.88 354.173 117.88H355.405L355.461 117.936V117.992C355.274 118.309 354.985 118.608 354.593 118.888C354.219 119.149 353.743 119.28 353.165 119.28C352.567 119.28 352.091 119.121 351.737 118.804C351.382 118.487 351.139 118.085 351.009 117.6H350.869C350.383 118.085 349.786 118.487 349.077 118.804C348.386 119.121 347.649 119.28 346.865 119.28ZM345.689 115.836C345.689 116.489 345.885 116.984 346.277 117.32C346.669 117.637 347.219 117.796 347.929 117.796C348.395 117.796 348.871 117.74 349.357 117.628C349.842 117.516 350.346 117.329 350.869 117.068V112.672C349.357 112.971 348.227 113.279 347.481 113.596C346.753 113.913 346.267 114.259 346.025 114.632C345.801 114.987 345.689 115.388 345.689 115.836ZM357.244 119V118.552L359.008 117.852V100.436L357.188 99.344V99.064L360.688 98H360.912V117.852L362.76 118.552V119H357.244ZM44.6105 162.28C43.8265 162.28 43.1359 162.205 42.5385 162.056C41.9599 161.907 41.3719 161.683 40.7745 161.384V158.332H41.1385L41.8385 159.76C42.0812 160.283 42.4265 160.693 42.8745 160.992C43.3412 161.272 43.9385 161.412 44.6665 161.412C45.4879 161.412 46.1132 161.225 46.5425 160.852C46.9905 160.46 47.2145 159.909 47.2145 159.2C47.2145 158.435 46.9625 157.865 46.4585 157.492C45.9545 157.119 45.2079 156.717 44.2185 156.288C43.1919 155.859 42.4172 155.383 41.8945 154.86C41.3719 154.337 41.1105 153.6 41.1105 152.648C41.1105 152.013 41.2879 151.425 41.6425 150.884C42.0159 150.343 42.4919 149.913 43.0705 149.596C43.6492 149.279 44.2559 149.12 44.8905 149.12C45.5999 149.12 46.2345 149.204 46.7945 149.372C47.3545 149.54 47.8865 149.755 48.3905 150.016V152.984H48.0265L47.3265 151.612C47.0839 151.033 46.7385 150.623 46.2905 150.38C45.8612 150.137 45.4132 150.016 44.9465 150.016C44.2745 150.016 43.7425 150.203 43.3505 150.576C42.9772 150.931 42.7905 151.416 42.7905 152.032C42.7905 152.667 43.0052 153.171 43.4345 153.544C43.8825 153.899 44.5545 154.272 45.4505 154.664C46.0852 154.944 46.6639 155.233 47.1865 155.532C47.7092 155.812 48.1199 156.185 48.4185 156.652C48.7359 157.119 48.8945 157.763 48.8945 158.584C48.8945 159.331 48.6892 159.984 48.2785 160.544C47.8679 161.085 47.3359 161.515 46.6825 161.832C46.0292 162.131 45.3385 162.28 44.6105 162.28ZM58.4117 162.28C57.217 162.28 56.1717 161.991 55.2757 161.412C54.3797 160.833 53.6797 160.049 53.1757 159.06C52.6717 158.071 52.4197 156.951 52.4197 155.7C52.4197 154.449 52.6717 153.329 53.1757 152.34C53.6797 151.351 54.3797 150.567 55.2757 149.988C56.1717 149.409 57.217 149.12 58.4117 149.12C59.6064 149.12 60.6517 149.409 61.5477 149.988C62.4437 150.567 63.1437 151.351 63.6477 152.34C64.1517 153.329 64.4037 154.449 64.4037 155.7C64.4037 156.951 64.1517 158.071 63.6477 159.06C63.1437 160.049 62.4437 160.833 61.5477 161.412C60.6517 161.991 59.6064 162.28 58.4117 162.28ZM58.8037 161.3C59.5877 161.3 60.241 161.057 60.7637 160.572C61.2864 160.087 61.6784 159.461 61.9397 158.696C62.201 157.912 62.3317 157.1 62.3317 156.26C62.3317 155.196 62.173 154.197 61.8557 153.264C61.557 152.312 61.0904 151.547 60.4557 150.968C59.8397 150.371 59.0464 150.072 58.0757 150.072C57.2917 150.072 56.629 150.305 56.0877 150.772C55.565 151.239 55.1637 151.855 54.8837 152.62C54.6224 153.385 54.4917 154.216 54.4917 155.112C54.4917 156.195 54.6504 157.212 54.9677 158.164C55.285 159.097 55.761 159.853 56.3957 160.432C57.0304 161.011 57.833 161.3 58.8037 161.3ZM73.6454 162.28C72.3948 162.28 71.3308 162.019 70.4534 161.496C69.5761 160.973 68.9041 160.255 68.4374 159.34C67.9708 158.407 67.7374 157.333 67.7374 156.12C67.7374 154.776 68.0081 153.581 68.5494 152.536C69.1094 151.472 69.8654 150.641 70.8174 150.044C71.7881 149.428 72.8801 149.12 74.0934 149.12C74.8401 149.12 75.5401 149.241 76.1934 149.484C76.8654 149.708 77.3788 149.988 77.7334 150.324C77.9388 150.529 78.0881 150.707 78.1814 150.856C78.2934 151.005 78.3494 151.145 78.3494 151.276C78.3494 151.481 78.2561 151.659 78.0694 151.808L77.1174 152.592H76.9494L76.2494 151.64C75.9134 151.192 75.5214 150.828 75.0734 150.548C74.6254 150.249 74.0748 150.1 73.4214 150.1C72.2828 150.1 71.3588 150.548 70.6494 151.444C69.9588 152.321 69.6134 153.581 69.6134 155.224C69.6134 156.195 69.7814 157.091 70.1174 157.912C70.4534 158.715 70.9761 159.359 71.6854 159.844C72.4134 160.311 73.3561 160.544 74.5134 160.544C75.8948 160.544 77.1641 160.133 78.3214 159.312H78.4054V159.62C77.9761 160.367 77.3508 161.001 76.5294 161.524C75.7081 162.028 74.7468 162.28 73.6454 162.28ZM83.9939 145.312C83.5832 145.312 83.2379 145.181 82.9579 144.92C82.6965 144.64 82.5659 144.295 82.5659 143.884C82.5659 143.455 82.6965 143.109 82.9579 142.848C83.2379 142.587 83.5832 142.456 83.9939 142.456C84.4232 142.456 84.7685 142.587 85.0299 142.848C85.2912 143.109 85.4219 143.455 85.4219 143.884C85.4219 144.295 85.2912 144.64 85.0299 144.92C84.7685 145.181 84.4232 145.312 83.9939 145.312ZM81.5019 162V161.552L83.2659 160.852V151.556L81.4459 150.464V150.184L84.9459 149.12H85.1699V160.852L87.0179 161.552V162H81.5019ZM93.0831 162.28C92.2058 162.28 91.4778 162.028 90.8991 161.524C90.3205 161.001 90.0311 160.283 90.0311 159.368C90.0311 158.453 90.3671 157.679 91.0391 157.044C91.7111 156.409 92.8218 155.905 94.3711 155.532L97.0871 154.86V152.704C97.0871 151.995 96.8071 151.407 96.2471 150.94C95.7058 150.473 95.0991 150.24 94.4271 150.24C93.6805 150.24 93.1578 150.417 92.8591 150.772C92.5605 151.127 92.4111 151.612 92.4111 152.228V153.152L92.2711 153.292H91.0951C90.8151 153.292 90.6191 153.255 90.5071 153.18C90.4138 153.087 90.3671 152.881 90.3671 152.564C90.3671 152.172 90.4885 151.771 90.7311 151.36C90.9738 150.949 91.3378 150.595 91.8231 150.296C92.3458 149.96 92.8778 149.68 93.4191 149.456C93.9791 149.232 94.5391 149.12 95.0991 149.12C95.8085 149.12 96.4525 149.223 97.0311 149.428C97.6098 149.615 98.0765 149.932 98.4311 150.38C98.7858 150.828 98.9631 151.425 98.9631 152.172V160.432C99.1125 160.581 99.2991 160.693 99.5231 160.768C99.7471 160.843 100.036 160.88 100.391 160.88H101.623L101.679 160.936V160.992C101.492 161.309 101.203 161.608 100.811 161.888C100.438 162.149 99.9618 162.28 99.3831 162.28C98.7858 162.28 98.3098 162.121 97.9551 161.804C97.6005 161.487 97.3578 161.085 97.2271 160.6H97.0871C96.6018 161.085 96.0045 161.487 95.2951 161.804C94.6045 162.121 93.8671 162.28 93.0831 162.28ZM91.9071 158.836C91.9071 159.489 92.1031 159.984 92.4951 160.32C92.8871 160.637 93.4378 160.796 94.1471 160.796C94.6138 160.796 95.0898 160.74 95.5751 160.628C96.0605 160.516 96.5645 160.329 97.0871 160.068V155.672C95.5751 155.971 94.4458 156.279 93.6991 156.596C92.9711 156.913 92.4858 157.259 92.2431 157.632C92.0191 157.987 91.9071 158.388 91.9071 158.836ZM103.463 162V161.552L105.227 160.852V143.436L103.407 142.344V142.064L106.907 141H107.131V160.852L108.979 161.552V162H103.463ZM119.117 162V161.552L120.881 160.852V151.556L119.061 150.604V150.296L122.337 149.12H122.561L122.757 151.164H122.869C123.578 150.473 124.25 149.96 124.885 149.624C125.538 149.288 126.257 149.12 127.041 149.12C128.161 149.12 129.085 149.419 129.813 150.016C130.541 150.613 130.905 151.481 130.905 152.62V160.852L132.669 161.552V162H127.013V161.552L129.001 160.852V153.712C129.001 152.76 128.721 152.041 128.161 151.556C127.601 151.052 126.882 150.8 126.005 150.8C125.482 150.8 124.903 150.912 124.269 151.136C123.653 151.341 123.158 151.64 122.785 152.032V160.852L124.773 161.552V162H119.117ZM141.299 162.28C140.048 162.28 138.975 162.019 138.079 161.496C137.201 160.973 136.529 160.255 136.063 159.34C135.596 158.407 135.363 157.333 135.363 156.12C135.363 154.776 135.633 153.581 136.175 152.536C136.716 151.472 137.435 150.641 138.331 150.044C139.227 149.428 140.197 149.12 141.243 149.12C142.717 149.12 143.875 149.624 144.715 150.632C145.555 151.64 146.003 153.059 146.059 154.888L145.947 155H137.239C137.239 155.075 137.239 155.149 137.239 155.224C137.239 156.195 137.407 157.091 137.743 157.912C138.079 158.715 138.611 159.359 139.339 159.844C140.067 160.311 141.009 160.544 142.167 160.544C143.548 160.544 144.817 160.133 145.975 159.312H146.059V159.62C145.648 160.367 145.023 161.001 144.183 161.524C143.361 162.028 142.4 162.28 141.299 162.28ZM140.823 150.1C139.927 150.1 139.161 150.445 138.527 151.136C137.892 151.808 137.491 152.76 137.323 153.992H144.155C143.781 151.397 142.671 150.1 140.823 150.1ZM153.434 162.28C152.631 162.28 151.95 162.037 151.39 161.552C150.849 161.067 150.578 160.385 150.578 159.508V150.576H148.226V150.352L150.718 149.4L152.258 146.32H152.482V149.4H156.178V150.576H152.482V159.2C152.482 159.723 152.678 160.115 153.07 160.376C153.462 160.619 153.957 160.74 154.554 160.74C154.927 160.74 155.273 160.712 155.59 160.656C155.907 160.581 156.197 160.497 156.458 160.404L156.514 160.432V160.628C156.327 161.001 155.973 161.375 155.45 161.748C154.946 162.103 154.274 162.28 153.434 162.28ZM163.056 162.056L158.856 150.576L157.036 149.848V149.4H163.196V149.848L160.956 150.52V150.66L163.896 159.228H163.98L167.956 149.4H168.46L172.436 159.144H172.548L175.404 150.772V150.632L173.276 149.848V149.4H178.54V149.848L176.58 150.632L172.156 162.056H171.68L167.676 152.48L163.532 162.056H163.056ZM185.503 162.28C184.309 162.28 183.263 161.991 182.367 161.412C181.471 160.833 180.771 160.049 180.267 159.06C179.763 158.071 179.511 156.951 179.511 155.7C179.511 154.449 179.763 153.329 180.267 152.34C180.771 151.351 181.471 150.567 182.367 149.988C183.263 149.409 184.309 149.12 185.503 149.12C186.698 149.12 187.743 149.409 188.639 149.988C189.535 150.567 190.235 151.351 190.739 152.34C191.243 153.329 191.495 154.449 191.495 155.7C191.495 156.951 191.243 158.071 190.739 159.06C190.235 160.049 189.535 160.833 188.639 161.412C187.743 161.991 186.698 162.28 185.503 162.28ZM185.895 161.3C186.679 161.3 187.333 161.057 187.855 160.572C188.378 160.087 188.77 159.461 189.031 158.696C189.293 157.912 189.423 157.1 189.423 156.26C189.423 155.196 189.265 154.197 188.947 153.264C188.649 152.312 188.182 151.547 187.547 150.968C186.931 150.371 186.138 150.072 185.167 150.072C184.383 150.072 183.721 150.305 183.179 150.772C182.657 151.239 182.255 151.855 181.975 152.62C181.714 153.385 181.583 154.216 181.583 155.112C181.583 156.195 181.742 157.212 182.059 158.164C182.377 159.097 182.853 159.853 183.487 160.432C184.122 161.011 184.925 161.3 185.895 161.3ZM194.696 162V161.552L196.46 160.852V151.556L194.64 150.604V150.296L197.916 149.12H198.14L198.336 151.556H198.42C198.98 150.828 199.447 150.296 199.82 149.96C200.212 149.605 200.567 149.381 200.884 149.288C201.202 149.176 201.519 149.12 201.836 149.12C201.986 149.12 202.154 149.148 202.34 149.204C202.527 149.241 202.676 149.288 202.788 149.344C202.994 149.419 203.162 149.512 203.292 149.624C203.423 149.736 203.488 149.857 203.488 149.988C203.488 150.044 203.479 150.109 203.46 150.184C203.46 150.259 203.442 150.333 203.404 150.408L202.956 151.528H202.816L201.976 151.164C201.64 151.033 201.267 150.968 200.856 150.968C200.39 150.968 199.951 151.089 199.54 151.332C199.13 151.575 198.738 151.976 198.364 152.536V160.852L200.408 161.552V162H194.696ZM205.5 162V161.552L207.264 160.852V143.436L205.444 142.344V142.064L208.944 141H209.168V154.916L213.9 150.828V150.66L212.528 149.848V149.4H217.512V149.848L215.72 150.632L210.848 154.412L216.756 160.796L218.548 161.552V162H215.132L214.208 160.74L209.168 155.224V160.88L211.156 161.552V162H205.5ZM232.909 162.28C231.975 162.28 231.145 162.047 230.417 161.58C229.689 161.113 229.11 160.441 228.681 159.564C228.27 158.687 228.065 157.651 228.065 156.456C228.065 154.888 228.363 153.563 228.961 152.48C229.577 151.379 230.389 150.548 231.397 149.988C232.423 149.409 233.534 149.12 234.729 149.12C235.214 149.12 235.662 149.157 236.073 149.232C236.483 149.307 236.866 149.409 237.221 149.54V143.436L235.317 142.344V142.064L238.901 141H239.125V160.88L241.113 161.552V162H237.501L237.249 160.572H237.109C236.418 161.151 235.737 161.58 235.065 161.86C234.393 162.14 233.674 162.28 232.909 162.28ZM229.913 155.896C229.913 157.016 230.109 157.931 230.501 158.64C230.893 159.349 231.406 159.881 232.041 160.236C232.694 160.572 233.394 160.74 234.141 160.74C234.663 160.74 235.186 160.656 235.709 160.488C236.25 160.301 236.754 160.031 237.221 159.676V151.332C236.717 150.977 236.222 150.707 235.737 150.52C235.251 150.333 234.71 150.24 234.113 150.24C233.366 150.24 232.666 150.427 232.013 150.8C231.378 151.173 230.865 151.78 230.473 152.62C230.099 153.441 229.913 154.533 229.913 155.896ZM249.813 162.28C248.563 162.28 247.489 162.019 246.593 161.496C245.716 160.973 245.044 160.255 244.577 159.34C244.111 158.407 243.877 157.333 243.877 156.12C243.877 154.776 244.148 153.581 244.689 152.536C245.231 151.472 245.949 150.641 246.845 150.044C247.741 149.428 248.712 149.12 249.757 149.12C251.232 149.12 252.389 149.624 253.229 150.632C254.069 151.64 254.517 153.059 254.573 154.888L254.461 155H245.753C245.753 155.075 245.753 155.149 245.753 155.224C245.753 156.195 245.921 157.091 246.257 157.912C246.593 158.715 247.125 159.359 247.853 159.844C248.581 160.311 249.524 160.544 250.681 160.544C252.063 160.544 253.332 160.133 254.489 159.312H254.573V159.62C254.163 160.367 253.537 161.001 252.697 161.524C251.876 162.028 250.915 162.28 249.813 162.28ZM249.337 150.1C248.441 150.1 247.676 150.445 247.041 151.136C246.407 151.808 246.005 152.76 245.837 153.992H252.669C252.296 151.397 251.185 150.1 249.337 150.1ZM257.471 162V161.552L259.235 160.852V143.436L257.415 142.344V142.064L260.915 141H261.139V160.852L262.987 161.552V162H257.471ZM268.561 145.312C268.15 145.312 267.805 145.181 267.525 144.92C267.264 144.64 267.133 144.295 267.133 143.884C267.133 143.455 267.264 143.109 267.525 142.848C267.805 142.587 268.15 142.456 268.561 142.456C268.99 142.456 269.336 142.587 269.597 142.848C269.858 143.109 269.989 143.455 269.989 143.884C269.989 144.295 269.858 144.64 269.597 144.92C269.336 145.181 268.99 145.312 268.561 145.312ZM266.069 162V161.552L267.833 160.852V151.556L266.013 150.464V150.184L269.513 149.12H269.737V160.852L271.585 161.552V162H266.069ZM279.386 162.056L274.486 150.576L272.638 149.848V149.4H278.798V149.848L276.558 150.52V150.66L280.17 159.284H280.254L283.586 150.772V150.632L281.458 149.848V149.4H286.722V149.848L284.79 150.632L279.834 162.056H279.386ZM293.639 162.28C292.388 162.28 291.315 162.019 290.419 161.496C289.542 160.973 288.87 160.255 288.403 159.34C287.936 158.407 287.703 157.333 287.703 156.12C287.703 154.776 287.974 153.581 288.515 152.536C289.056 151.472 289.775 150.641 290.671 150.044C291.567 149.428 292.538 149.12 293.583 149.12C295.058 149.12 296.215 149.624 297.055 150.632C297.895 151.64 298.343 153.059 298.399 154.888L298.287 155H289.579C289.579 155.075 289.579 155.149 289.579 155.224C289.579 156.195 289.747 157.091 290.083 157.912C290.419 158.715 290.951 159.359 291.679 159.844C292.407 160.311 293.35 160.544 294.507 160.544C295.888 160.544 297.158 160.133 298.315 159.312H298.399V159.62C297.988 160.367 297.363 161.001 296.523 161.524C295.702 162.028 294.74 162.28 293.639 162.28ZM293.163 150.1C292.267 150.1 291.502 150.445 290.867 151.136C290.232 151.808 289.831 152.76 289.663 153.992H296.495C296.122 151.397 295.011 150.1 293.163 150.1ZM301.63 162V161.552L303.394 160.852V151.556L301.574 150.604V150.296L304.85 149.12H305.074L305.27 151.556H305.354C305.914 150.828 306.381 150.296 306.754 149.96C307.146 149.605 307.501 149.381 307.818 149.288C308.136 149.176 308.453 149.12 308.77 149.12C308.92 149.12 309.088 149.148 309.274 149.204C309.461 149.241 309.61 149.288 309.722 149.344C309.928 149.419 310.096 149.512 310.226 149.624C310.357 149.736 310.422 149.857 310.422 149.988C310.422 150.044 310.413 150.109 310.394 150.184C310.394 150.259 310.376 150.333 310.338 150.408L309.89 151.528H309.75L308.91 151.164C308.574 151.033 308.201 150.968 307.79 150.968C307.324 150.968 306.885 151.089 306.474 151.332C306.064 151.575 305.672 151.976 305.298 152.536V160.852L307.342 161.552V162H301.63ZM315.51 162.28C314.632 162.28 313.904 162.028 313.326 161.524C312.747 161.001 312.458 160.283 312.458 159.368C312.458 158.453 312.794 157.679 313.466 157.044C314.138 156.409 315.248 155.905 316.798 155.532L319.514 154.86V152.704C319.514 151.995 319.234 151.407 318.674 150.94C318.132 150.473 317.526 150.24 316.854 150.24C316.107 150.24 315.584 150.417 315.286 150.772C314.987 151.127 314.838 151.612 314.838 152.228V153.152L314.698 153.292H313.522C313.242 153.292 313.046 153.255 312.934 153.18C312.84 153.087 312.794 152.881 312.794 152.564C312.794 152.172 312.915 151.771 313.158 151.36C313.4 150.949 313.764 150.595 314.25 150.296C314.772 149.96 315.304 149.68 315.846 149.456C316.406 149.232 316.966 149.12 317.526 149.12C318.235 149.12 318.879 149.223 319.458 149.428C320.036 149.615 320.503 149.932 320.858 150.38C321.212 150.828 321.39 151.425 321.39 152.172V160.432C321.539 160.581 321.726 160.693 321.95 160.768C322.174 160.843 322.463 160.88 322.818 160.88H324.05L324.106 160.936V160.992C323.919 161.309 323.63 161.608 323.238 161.888C322.864 162.149 322.388 162.28 321.81 162.28C321.212 162.28 320.736 162.121 320.382 161.804C320.027 161.487 319.784 161.085 319.654 160.6H319.514C319.028 161.085 318.431 161.487 317.722 161.804C317.031 162.121 316.294 162.28 315.51 162.28ZM314.334 158.836C314.334 159.489 314.53 159.984 314.922 160.32C315.314 160.637 315.864 160.796 316.574 160.796C317.04 160.796 317.516 160.74 318.002 160.628C318.487 160.516 318.991 160.329 319.514 160.068V155.672C318.002 155.971 316.872 156.279 316.126 156.596C315.398 156.913 314.912 157.259 314.67 157.632C314.446 157.987 314.334 158.388 314.334 158.836ZM327.46 162.168V143.436L325.64 142.428V142.12L329.14 141H329.364V150.856H329.476C330.185 150.259 330.876 149.82 331.548 149.54C332.22 149.26 332.929 149.12 333.676 149.12C334.609 149.12 335.44 149.363 336.168 149.848C336.915 150.333 337.493 151.024 337.904 151.92C338.333 152.797 338.548 153.852 338.548 155.084C338.548 156.615 338.249 157.921 337.652 159.004C337.073 160.068 336.289 160.88 335.3 161.44C334.311 162 333.209 162.28 331.996 162.28C331.343 162.28 330.699 162.196 330.064 162.028C329.448 161.86 328.879 161.655 328.356 161.412L327.684 162.168H327.46ZM332.444 150.66C331.343 150.66 330.316 151.015 329.364 151.724V160.012C330.391 160.796 331.539 161.188 332.808 161.188C333.499 161.188 334.133 161.011 334.712 160.656C335.309 160.283 335.785 159.685 336.14 158.864C336.495 158.043 336.672 156.969 336.672 155.644C336.672 154.487 336.476 153.544 336.084 152.816C335.692 152.069 335.169 151.528 334.516 151.192C333.881 150.837 333.191 150.66 332.444 150.66ZM341.481 162V161.552L343.245 160.852V143.436L341.425 142.344V142.064L344.925 141H345.149V160.852L346.997 161.552V162H341.481ZM355.79 162.28C354.54 162.28 353.466 162.019 352.57 161.496C351.693 160.973 351.021 160.255 350.554 159.34C350.088 158.407 349.854 157.333 349.854 156.12C349.854 154.776 350.125 153.581 350.666 152.536C351.208 151.472 351.926 150.641 352.822 150.044C353.718 149.428 354.689 149.12 355.734 149.12C357.209 149.12 358.366 149.624 359.206 150.632C360.046 151.64 360.494 153.059 360.55 154.888L360.438 155H351.73C351.73 155.075 351.73 155.149 351.73 155.224C351.73 156.195 351.898 157.091 352.234 157.912C352.57 158.715 353.102 159.359 353.83 159.844C354.558 160.311 355.501 160.544 356.658 160.544C358.04 160.544 359.309 160.133 360.466 159.312H360.55V159.62C360.14 160.367 359.514 161.001 358.674 161.524C357.853 162.028 356.892 162.28 355.79 162.28ZM355.314 150.1C354.418 150.1 353.653 150.445 353.018 151.136C352.384 151.808 351.982 152.76 351.814 153.992H358.646C358.273 151.397 357.162 150.1 355.314 150.1Z" fill="white"/>
</svg>
