<svg width="32" height="32" viewBox="0 0 32 32" fill="none" xmlns="http://www.w3.org/2000/svg">
<circle cx="16" cy="16" r="16" fill="white"/>
<path d="M4.90527 22.105C4.55527 22.105 4.25427 21.979 4.00227 21.727C3.75027 21.475 3.62427 21.174 3.62427 20.824C3.62427 20.474 3.75027 20.173 4.00227 19.921C4.25427 19.669 4.55527 19.543 4.90527 19.543C5.25527 19.543 5.55627 19.669 5.80827 19.921C6.06027 20.173 6.18627 20.474 6.18627 20.824C6.18627 21.174 6.06027 21.475 5.80827 21.727C5.55627 21.979 5.25527 22.105 4.90527 22.105ZM4.90527 14.902C4.55527 14.902 4.25427 14.776 4.00227 14.524C3.75027 14.272 3.62427 13.971 3.62427 13.621C3.62427 13.271 3.75027 12.97 4.00227 12.718C4.25427 12.466 4.55527 12.34 4.90527 12.34C5.25527 12.34 5.55627 12.466 5.80827 12.718C6.06027 12.97 6.18627 13.271 6.18627 13.621C6.18627 13.971 6.06027 14.272 5.80827 14.524C5.55627 14.776 5.25527 14.902 4.90527 14.902ZM12.2553 22.21C11.4293 22.21 10.7503 22.007 10.2183 21.601C9.70027 21.181 9.44127 20.565 9.44127 19.753V13.537L8.11827 12.886V12.55H11.1213V18.766C11.1213 19.382 11.3103 19.851 11.6883 20.173C12.0803 20.495 12.5843 20.656 13.2003 20.656C13.5783 20.656 13.9913 20.593 14.4393 20.467C14.9013 20.341 15.2653 20.159 15.5313 19.921V13.537L14.0403 12.886V12.55H17.2113V21.055L18.7023 21.664V22H15.5313V20.677H15.4263C14.8943 21.209 14.3763 21.601 13.8723 21.853C13.3823 22.091 12.8433 22.21 12.2553 22.21ZM19.8478 22V21.664L20.9818 20.929L23.7328 17.317L20.9398 13.537L19.9528 12.886V12.55H24.2998V12.886L22.8718 13.516V13.642L24.8248 16.288L26.5258 13.768V13.642L25.3288 12.886V12.55H28.8148V12.886L27.7018 13.621L25.2448 16.855L28.3108 21.013L29.1718 21.664V22H25.0978V21.664L26.3788 21.034V20.908L24.1528 17.905L22.2208 20.782V20.908L23.5228 21.664V22H19.8478Z" fill="black"/>
</svg>
