<svg width="180" height="180" viewBox="0 0 180 180" fill="none" xmlns="http://www.w3.org/2000/svg">
<circle cx="90" cy="90" r="90" fill="white"/>
<path d="M27.1299 125.595C25.1465 125.595 23.4409 124.881 22.0129 123.453C20.5849 122.025 19.8709 120.319 19.8709 118.336C19.8709 116.353 20.5849 114.647 22.0129 113.219C23.4409 111.791 25.1465 111.077 27.1299 111.077C29.1132 111.077 30.8189 111.791 32.2469 113.219C33.6749 114.647 34.3889 116.353 34.3889 118.336C34.3889 120.319 33.6749 122.025 32.2469 123.453C30.8189 124.881 29.1132 125.595 27.1299 125.595ZM27.1299 84.778C25.1465 84.778 23.4409 84.064 22.0129 82.636C20.5849 81.208 19.8709 79.5023 19.8709 77.519C19.8709 75.5357 20.5849 73.83 22.0129 72.402C23.4409 70.974 25.1465 70.26 27.1299 70.26C29.1132 70.26 30.8189 70.974 32.2469 72.402C33.6749 73.83 34.3889 75.5357 34.3889 77.519C34.3889 79.5023 33.6749 81.208 32.2469 82.636C30.8189 84.064 29.1132 84.778 27.1299 84.778ZM68.7799 126.19C64.0992 126.19 60.2516 125.04 57.2369 122.739C54.3016 120.359 52.8339 116.868 52.8339 112.267V77.043L45.3369 73.354V71.45H62.3539V106.674C62.3539 110.165 63.4249 112.822 65.5669 114.647C67.7882 116.472 70.6442 117.384 74.1349 117.384C76.2769 117.384 78.6172 117.027 81.1559 116.313C83.7739 115.599 85.8366 114.568 87.3439 113.219V77.043L78.8949 73.354V71.45H96.8639V119.645L105.313 123.096V125H87.3439V117.503H86.7489C83.7342 120.518 80.7989 122.739 77.9429 124.167C75.1662 125.516 72.1119 126.19 68.7799 126.19ZM111.804 125V123.096L118.23 118.931L133.819 98.463L117.992 77.043L112.399 73.354V71.45H137.032V73.354L128.94 76.924V77.638L140.007 92.632L149.646 78.352V77.638L142.863 73.354V71.45H162.617V73.354L156.31 77.519L142.387 95.845L159.761 119.407L164.64 123.096V125H141.554V123.096L148.813 119.526V118.812L136.199 101.795L125.251 118.098V118.812L132.629 123.096V125H111.804Z" fill="black"/>
</svg>
