<svg width="112" height="112" viewBox="0 0 112 112" fill="none" xmlns="http://www.w3.org/2000/svg">
<g filter="url(#filter0_d_2126_93)">
<rect x="4" width="104" height="104" rx="16" fill="#FAFAFA"/>
<g clip-path="url(#clip0_2126_93)">
<path d="M71.4933 31.92C71.28 31.92 71.0667 31.8667 70.88 31.76C65.76 29.12 61.3333 28 56.0267 28C50.7467 28 45.7333 29.2534 41.1733 31.76C40.5333 32.1067 39.7333 31.8667 39.36 31.2267C39.0133 30.5867 39.2533 29.76 39.8933 29.4134C44.8533 26.72 50.2933 25.3334 56.0267 25.3334C61.7067 25.3334 66.6667 26.5867 72.1067 29.3867C72.7733 29.7334 73.0133 30.5334 72.6667 31.1734C72.4267 31.6534 71.9733 31.92 71.4933 31.92ZM33.3333 45.92C33.0667 45.92 32.8 45.84 32.56 45.68C31.9467 45.2534 31.8133 44.4267 32.24 43.8134C34.88 40.08 38.24 37.1467 42.24 35.0934C50.6133 30.7734 61.3333 30.7467 69.7333 35.0667C73.7333 37.12 77.0933 40.0267 79.7333 43.7334C80.16 44.32 80.0267 45.1734 79.4133 45.6C78.8 46.0267 77.9733 45.8934 77.5467 45.28C75.1467 41.92 72.1067 39.28 68.5067 37.44C60.8533 33.52 51.0667 33.52 43.44 37.4667C39.8133 39.3334 36.7733 42 34.3733 45.36C34.16 45.7334 33.76 45.92 33.3333 45.92ZM50 78.1067C49.6533 78.1067 49.3067 77.9734 49.0667 77.7067C46.7467 75.3867 45.4933 73.8934 43.7067 70.6667C41.8667 67.3867 40.9067 63.3867 40.9067 59.0934C40.9067 51.1734 47.68 44.72 56 44.72C64.32 44.72 71.0933 51.1734 71.0933 59.0934C71.0933 59.84 70.5067 60.4267 69.76 60.4267C69.0133 60.4267 68.4267 59.84 68.4267 59.0934C68.4267 52.64 62.8533 47.3867 56 47.3867C49.1467 47.3867 43.5733 52.64 43.5733 59.0934C43.5733 62.9334 44.4267 66.48 46.0533 69.36C47.76 72.4267 48.9333 73.7334 50.9867 75.8134C51.4933 76.3467 51.4933 77.1734 50.9867 77.7067C50.6933 77.9734 50.3467 78.1067 50 78.1067ZM69.12 73.1734C65.9467 73.1734 63.1467 72.3734 60.8533 70.8C56.88 68.1067 54.5067 63.7334 54.5067 59.0934C54.5067 58.3467 55.0933 57.76 55.84 57.76C56.5867 57.76 57.1733 58.3467 57.1733 59.0934C57.1733 62.8534 59.0933 66.4 62.3467 68.5867C64.24 69.8667 66.4533 70.48 69.12 70.48C69.76 70.48 70.8267 70.4 71.8933 70.2134C72.6133 70.08 73.3067 70.56 73.44 71.3067C73.5733 72.0267 73.0933 72.72 72.3467 72.8534C70.8267 73.1467 69.4933 73.1734 69.12 73.1734ZM63.76 78.6667C63.6533 78.6667 63.52 78.64 63.4133 78.6134C59.1733 77.44 56.4 75.8667 53.4933 73.0134C49.76 69.3067 47.7067 64.3734 47.7067 59.0934C47.7067 54.7734 51.3867 51.2534 55.92 51.2534C60.4533 51.2534 64.1333 54.7734 64.1333 59.0934C64.1333 61.9467 66.6133 64.2667 69.68 64.2667C72.7467 64.2667 75.2267 61.9467 75.2267 59.0934C75.2267 49.04 66.56 40.88 55.8933 40.88C48.32 40.88 41.3867 45.0934 38.2667 51.6267C37.2267 53.7867 36.6933 56.32 36.6933 59.0934C36.6933 61.1734 36.88 64.4534 38.48 68.72C38.7467 69.4134 38.4 70.1867 37.7067 70.4267C37.0133 70.6934 36.24 70.32 36 69.6534C34.6933 66.16 34.0533 62.6934 34.0533 59.0934C34.0533 55.8934 34.6667 52.9867 35.8667 50.4534C39.4133 43.0134 47.28 38.1867 55.8933 38.1867C68.0267 38.1867 77.8933 47.5467 77.8933 59.0667C77.8933 63.3867 74.2133 66.9067 69.68 66.9067C65.1467 66.9067 61.4667 63.3867 61.4667 59.0667C61.4667 56.2134 58.9867 53.8934 55.92 53.8934C52.8533 53.8934 50.3733 56.2134 50.3733 59.0667C50.3733 63.6267 52.1333 67.8934 55.36 71.0934C57.8933 73.6 60.32 74.9867 64.08 76.0267C64.8 76.2134 65.2 76.96 65.0133 77.6534C64.88 78.2667 64.32 78.6667 63.76 78.6667Z" fill="#424242"/>
</g>
</g>
<defs>
<filter id="filter0_d_2126_93" x="0" y="0" width="112" height="112" filterUnits="userSpaceOnUse" color-interpolation-filters="sRGB">
<feFlood flood-opacity="0" result="BackgroundImageFix"/>
<feColorMatrix in="SourceAlpha" type="matrix" values="0 0 0 0 0 0 0 0 0 0 0 0 0 0 0 0 0 0 127 0" result="hardAlpha"/>
<feOffset dy="4"/>
<feGaussianBlur stdDeviation="2"/>
<feComposite in2="hardAlpha" operator="out"/>
<feColorMatrix type="matrix" values="0 0 0 0 0 0 0 0 0 0 0 0 0 0 0 0 0 0 0.25 0"/>
<feBlend mode="normal" in2="BackgroundImageFix" result="effect1_dropShadow_2126_93"/>
<feBlend mode="normal" in="SourceGraphic" in2="effect1_dropShadow_2126_93" result="shape"/>
</filter>
<clipPath id="clip0_2126_93">
<rect width="64" height="64" fill="white" transform="translate(24 20)"/>
</clipPath>
</defs>
</svg>
