<svg width="112" height="112" viewBox="0 0 112 112" fill="none" xmlns="http://www.w3.org/2000/svg">
<g filter="url(#filter0_d_1356_364)">
<rect x="4" width="104" height="104" rx="16" fill="#FAFAFA"/>
<g clip-path="url(#clip0_1356_364)">
<path d="M44.6833 19.45C44.55 19.45 44.4167 19.4167 44.3 19.35C41.1 17.7 38.3333 17 35.0167 17C31.7167 17 28.5833 17.7834 25.7333 19.35C25.3333 19.5667 24.8333 19.4167 24.6 19.0167C24.3833 18.6167 24.5333 18.1 24.9333 17.8834C28.0333 16.2 31.4333 15.3334 35.0167 15.3334C38.5667 15.3334 41.6667 16.1167 45.0667 17.8667C45.4833 18.0834 45.6333 18.5834 45.4167 18.9834C45.2667 19.2834 44.9833 19.45 44.6833 19.45ZM20.8333 28.2C20.6667 28.2 20.5 28.15 20.35 28.05C19.9667 27.7834 19.8833 27.2667 20.15 26.8834C21.8 24.55 23.9 22.7167 26.4 21.4334C31.6333 18.7334 38.3333 18.7167 43.5833 21.4167C46.0833 22.7 48.1833 24.5167 49.8333 26.8334C50.1 27.2 50.0167 27.7334 49.6333 28C49.25 28.2667 48.7333 28.1834 48.4667 27.8C46.9667 25.7 45.0667 24.05 42.8167 22.9C38.0333 20.45 31.9167 20.45 27.15 22.9167C24.8833 24.0834 22.9833 25.75 21.4833 27.85C21.35 28.0834 21.1 28.2 20.8333 28.2ZM31.25 48.3167C31.0333 48.3167 30.8167 48.2334 30.6667 48.0667C29.2167 46.6167 28.4333 45.6834 27.3167 43.6667C26.1667 41.6167 25.5667 39.1167 25.5667 36.4334C25.5667 31.4834 29.8 27.45 35 27.45C40.2 27.45 44.4333 31.4834 44.4333 36.4334C44.4333 36.9 44.0667 37.2667 43.6 37.2667C43.1333 37.2667 42.7667 36.9 42.7667 36.4334C42.7667 32.4 39.2833 29.1167 35 29.1167C30.7167 29.1167 27.2333 32.4 27.2333 36.4334C27.2333 38.8334 27.7667 41.05 28.7833 42.85C29.85 44.7667 30.5833 45.5834 31.8667 46.8834C32.1833 47.2167 32.1833 47.7334 31.8667 48.0667C31.6833 48.2334 31.4667 48.3167 31.25 48.3167ZM43.2 45.2334C41.2167 45.2334 39.4667 44.7334 38.0333 43.75C35.55 42.0667 34.0667 39.3334 34.0667 36.4334C34.0667 35.9667 34.4333 35.6 34.9 35.6C35.3667 35.6 35.7333 35.9667 35.7333 36.4334C35.7333 38.7834 36.9333 41 38.9667 42.3667C40.15 43.1667 41.5333 43.55 43.2 43.55C43.6 43.55 44.2667 43.5 44.9333 43.3834C45.3833 43.3 45.8167 43.6 45.9 44.0667C45.9833 44.5167 45.6833 44.95 45.2167 45.0334C44.2667 45.2167 43.4333 45.2334 43.2 45.2334ZM39.85 48.6667C39.7833 48.6667 39.7 48.65 39.6333 48.6334C36.9833 47.9 35.25 46.9167 33.4333 45.1334C31.1 42.8167 29.8167 39.7334 29.8167 36.4334C29.8167 33.7334 32.1167 31.5334 34.95 31.5334C37.7833 31.5334 40.0833 33.7334 40.0833 36.4334C40.0833 38.2167 41.6333 39.6667 43.55 39.6667C45.4667 39.6667 47.0167 38.2167 47.0167 36.4334C47.0167 30.15 41.6 25.05 34.9333 25.05C30.2 25.05 25.8667 27.6834 23.9167 31.7667C23.2667 33.1167 22.9333 34.7 22.9333 36.4334C22.9333 37.7334 23.05 39.7834 24.05 42.45C24.2167 42.8834 24 43.3667 23.5667 43.5167C23.1333 43.6834 22.65 43.45 22.5 43.0334C21.6833 40.85 21.2833 38.6834 21.2833 36.4334C21.2833 34.4334 21.6667 32.6167 22.4167 31.0334C24.6333 26.3834 29.55 23.3667 34.9333 23.3667C42.5167 23.3667 48.6833 29.2167 48.6833 36.4167C48.6833 39.1167 46.3833 41.3167 43.55 41.3167C40.7167 41.3167 38.4167 39.1167 38.4167 36.4167C38.4167 34.6334 36.8667 33.1834 34.95 33.1834C33.0333 33.1834 31.4833 34.6334 31.4833 36.4167C31.4833 39.2667 32.5833 41.9334 34.6 43.9334C36.1833 45.5 37.7 46.3667 40.05 47.0167C40.5 47.1334 40.75 47.6 40.6333 48.0334C40.55 48.4167 40.2 48.6667 39.85 48.6667Z" fill="#424242"/>
</g>
<g clip-path="url(#clip1_1356_364)">
<path d="M88.6667 24.3334C91.4281 24.3334 93.6667 22.0948 93.6667 19.3334C93.6667 16.572 91.4281 14.3334 88.6667 14.3334C85.9052 14.3334 83.6667 16.572 83.6667 19.3334C83.6667 22.0948 85.9052 24.3334 88.6667 24.3334Z" fill="#424242"/>
<path d="M74.9333 26.4001L82 19.3334L74.9333 12.2667L72.5667 14.6167L75.6167 17.6667H70.0333C69.3333 15.7334 67.5 14.3334 65.3333 14.3334C62.5667 14.3334 60.3333 16.5667 60.3333 19.3334C60.3333 21.5001 61.7333 23.3334 63.6667 24.0334V37.9834C61.7333 38.6667 60.3333 40.5001 60.3333 42.6667C60.3333 45.4334 62.5667 47.6667 65.3333 47.6667C68.1 47.6667 70.3333 45.4334 70.3333 42.6667C70.3333 40.5001 68.9333 38.6667 67 37.9667V24.0334C68.4167 23.5167 69.5167 22.4167 70.0333 21.0001H75.6333L72.5667 24.0501L74.9333 26.4001Z" fill="#424242"/>
<path d="M73.6667 42.6667V47.6667H78.6667L89.1 37.2334L84.1 32.2334L73.6667 42.6667Z" fill="#424242"/>
<path d="M90.5333 28.1501C89.8833 27.5001 88.8333 27.5001 88.1833 28.1501L85.8833 30.4501L90.8833 35.4501L93.1833 33.1501C93.8333 32.5001 93.8333 31.4501 93.1833 30.8001L90.5333 28.1501Z" fill="#424242"/>
</g>
<g clip-path="url(#clip2_1356_364)">
<path d="M48.3333 59.6666H21.6667C19.8167 59.6666 18.3333 61.1666 18.3333 63V83C18.3333 84.8333 19.8167 86.3333 21.6667 86.3333H48.3333C50.1667 86.3333 51.6667 84.8333 51.6667 83V63C51.6667 61.1666 50.1833 59.6666 48.3333 59.6666ZM48.3333 83H21.6667V66.3333H48.3333V83ZM45 81.3333H35V78H45V81.3333ZM27.5 81.3333L25.15 78.9833L29.45 74.6666L25.1333 70.35L27.5 68L34.1667 74.6666L27.5 81.3333Z" fill="#424242"/>
</g>
<g clip-path="url(#clip3_1356_364)">
<path d="M78.0833 69.6667C76.7167 65.7833 73.0167 63 68.6667 63C63.15 63 58.6667 67.4833 58.6667 73C58.6667 78.5167 63.15 83 68.6667 83C73.0167 83 76.7167 80.2167 78.0833 76.3333H85.3333V83H92V76.3333H95.3333V69.6667H78.0833ZM68.6667 76.3333C66.8333 76.3333 65.3333 74.8333 65.3333 73C65.3333 71.1667 66.8333 69.6667 68.6667 69.6667C70.5 69.6667 72 71.1667 72 73C72 74.8333 70.5 76.3333 68.6667 76.3333Z" fill="#424242"/>
</g>
</g>
<defs>
<filter id="filter0_d_1356_364" x="0" y="0" width="112" height="112" filterUnits="userSpaceOnUse" color-interpolation-filters="sRGB">
<feFlood flood-opacity="0" result="BackgroundImageFix"/>
<feColorMatrix in="SourceAlpha" type="matrix" values="0 0 0 0 0 0 0 0 0 0 0 0 0 0 0 0 0 0 127 0" result="hardAlpha"/>
<feOffset dy="4"/>
<feGaussianBlur stdDeviation="2"/>
<feComposite in2="hardAlpha" operator="out"/>
<feColorMatrix type="matrix" values="0 0 0 0 0 0 0 0 0 0 0 0 0 0 0 0 0 0 0.25 0"/>
<feBlend mode="normal" in2="BackgroundImageFix" result="effect1_dropShadow_1356_364"/>
<feBlend mode="normal" in="SourceGraphic" in2="effect1_dropShadow_1356_364" result="shape"/>
</filter>
<clipPath id="clip0_1356_364">
<rect width="40" height="40" fill="white" transform="translate(15 12)"/>
</clipPath>
<clipPath id="clip1_1356_364">
<rect width="40" height="40" fill="white" transform="translate(57 11)"/>
</clipPath>
<clipPath id="clip2_1356_364">
<rect width="40" height="40" fill="white" transform="translate(15 53)"/>
</clipPath>
<clipPath id="clip3_1356_364">
<rect width="40" height="40" fill="white" transform="translate(57 53)"/>
</clipPath>
</defs>
</svg>
