<svg width="112" height="112" viewBox="0 0 112 112" fill="none" xmlns="http://www.w3.org/2000/svg">
<g filter="url(#filter0_d_1255_299)">
<rect x="4" width="104" height="104" rx="16" fill="#FAFAFA"/>
<g clip-path="url(#clip0_1255_299)">
<path d="M77.3333 36H66.6667V30.6667C66.6667 27.7067 64.2933 25.3334 61.3333 25.3334H50.6667C47.7067 25.3334 45.3333 27.7067 45.3333 30.6667V36H34.6667C31.7067 36 29.36 38.3734 29.36 41.3334L29.3333 70.6667C29.3333 73.6267 31.7067 76 34.6667 76H77.3333C80.2933 76 82.6667 73.6267 82.6667 70.6667V41.3334C82.6667 38.3734 80.2933 36 77.3333 36ZM61.3333 36H50.6667V30.6667H61.3333V36Z" fill="black"/>
</g>
</g>
<defs>
<filter id="filter0_d_1255_299" x="0" y="0" width="112" height="112" filterUnits="userSpaceOnUse" color-interpolation-filters="sRGB">
<feFlood flood-opacity="0" result="BackgroundImageFix"/>
<feColorMatrix in="SourceAlpha" type="matrix" values="0 0 0 0 0 0 0 0 0 0 0 0 0 0 0 0 0 0 127 0" result="hardAlpha"/>
<feOffset dy="4"/>
<feGaussianBlur stdDeviation="2"/>
<feComposite in2="hardAlpha" operator="out"/>
<feColorMatrix type="matrix" values="0 0 0 0 0 0 0 0 0 0 0 0 0 0 0 0 0 0 0.25 0"/>
<feBlend mode="normal" in2="BackgroundImageFix" result="effect1_dropShadow_1255_299"/>
<feBlend mode="normal" in="SourceGraphic" in2="effect1_dropShadow_1255_299" result="shape"/>
</filter>
<clipPath id="clip0_1255_299">
<rect width="64" height="64" fill="white" transform="translate(24 20)"/>
</clipPath>
</defs>
</svg>
